<?xml version="1.0" encoding="UTF-8" standalone="no"?>
<svg
   version="1.1"
   id="svg2"
   height="600"
   width="800"
   xmlns="http://www.w3.org/2000/svg"
   xmlns:svg="http://www.w3.org/2000/svg"
   xmlns:rdf="http://www.w3.org/1999/02/22-rdf-syntax-ns#"
   xmlns:cc="http://creativecommons.org/ns#"
   xmlns:dc="http://purl.org/dc/elements/1.1/">
  <defs
     id="defs4" />
  <metadata
     id="metadata7">
    <rdf:RDF>
      <cc:Work
         rdf:about="">
        <dc:format>image/svg+xml</dc:format>
        <dc:type
           rdf:resource="http://purl.org/dc/dcmitype/StillImage" />
        <dc:language>en</dc:language>
        <cc:license
           rdf:resource="https://timefold.ai/license" />
      </cc:Work>
    </rdf:RDF>
  </metadata>
  <g
     style="display:inline"
     transform="translate(0,-452.36218)"
     id="layer1">
    <path
       style="font-size:36px;line-height:1.25;font-family:'Liberation Sans';-inkscape-font-specification:'Liberation Sans, Normal';text-align:center;text-anchor:middle"
       d="m 112.49707,252.42716 v -25.76953 h 5.13281 l 6.09961,18.24609 q 0.84375,2.54883 1.23047,3.81445 0.43945,-1.40625 1.37109,-4.13085 l 6.16993,-17.92969 h 4.58789 v 25.76953 h -3.28711 V 230.8588 l -7.48828,21.56836 h -3.07618 l -7.45312,-21.9375 v 21.9375 z m 41.87109,-2.30274 q -1.75781,1.49415 -3.39257,2.10938 -1.61719,0.61523 -3.48047,0.61523 -3.07617,0 -4.72852,-1.49414 -1.65234,-1.51172 -1.65234,-3.84961 0,-1.37109 0.61523,-2.49609 0.63281,-1.14258 1.63477,-1.82812 1.01953,-0.68555 2.28515,-1.03711 0.93164,-0.2461 2.8125,-0.47461 3.83204,-0.45703 5.64258,-1.08985 0.0176,-0.65039 0.0176,-0.82617 0,-1.93359 -0.89648,-2.72461 -1.21289,-1.07226 -3.60352,-1.07226 -2.23242,0 -3.30469,0.79101 -1.05468,0.77344 -1.56445,2.75977 l -3.09375,-0.42188 q 0.42187,-1.98633 1.38867,-3.19922 0.9668,-1.23047 2.79492,-1.88086 1.82813,-0.66796 4.23633,-0.66796 2.39063,0 3.88477,0.5625 1.49414,0.5625 2.19726,1.42382 0.70313,0.84375 0.98438,2.14453 0.1582,0.8086 0.1582,2.91797 v 4.21875 q 0,4.41211 0.19336,5.58985 0.21094,1.16015 0.80859,2.23242 h -3.30468 q -0.49219,-0.98438 -0.63282,-2.30274 z m -0.26367,-7.0664 q -1.72265,0.70312 -5.16797,1.19531 -1.95117,0.28125 -2.75976,0.63281 -0.8086,0.35157 -1.24805,1.03711 -0.43945,0.66797 -0.43945,1.49414 0,1.26563 0.94922,2.10938 0.96679,0.84375 2.8125,0.84375 1.82812,0 3.25195,-0.79102 1.42383,-0.80859 2.0918,-2.19726 0.50976,-1.07227 0.50976,-3.16407 z m 8.1211,-12.76172 v -3.63867 h 3.16406 v 3.63867 z m 0,22.13086 v -18.66797 h 3.16406 v 18.66797 z m 7.98046,0 v -18.66797 h 2.84766 v 2.6543 q 2.05664,-3.07617 5.94141,-3.07617 1.6875,0 3.09375,0.61523 1.42383,0.59766 2.12695,1.58203 0.70313,0.98438 0.98438,2.33789 0.17578,0.87891 0.17578,3.07617 v 11.47852 h -3.16407 v -11.35547 q 0,-1.93359 -0.36914,-2.88281 -0.36914,-0.9668 -1.31836,-1.5293 -0.93164,-0.58008 -2.19726,-0.58008 -2.02149,0 -3.49805,1.28321 -1.45898,1.2832 -1.45898,4.86914 v 10.19531 z m 26.92969,-2.83008 0.45703,2.79492 q -1.33593,0.28125 -2.39062,0.28125 -1.72266,0 -2.67188,-0.54492 -0.94922,-0.54492 -1.33593,-1.42383 -0.38672,-0.89648 -0.38672,-3.74414 v -10.74023 h -2.32032 v -2.46094 h 2.32032 v -4.62305 l 3.14648,-1.89843 v 6.52148 h 3.18164 v 2.46094 h -3.18164 v 10.91601 q 0,1.35352 0.1582,1.74024 0.17579,0.38672 0.54493,0.61523 0.38672,0.22852 1.08984,0.22852 0.52734,0 1.38867,-0.12305 z m 15.87305,-3.18164 3.26953,0.4043 q -0.77344,2.86523 -2.86523,4.44726 -2.0918,1.58203 -5.34375,1.58203 -4.09571,0 -6.50391,-2.51367 -2.39063,-2.53125 -2.39063,-7.08398 0,-4.71094 2.42579,-7.3125 2.42578,-2.60156 6.29296,-2.60156 3.74415,0 6.11719,2.54882 2.37305,2.54883 2.37305,7.17188 0,0.28125 -0.0176,0.84375 h -13.92187 q 0.17578,3.07617 1.74023,4.71094 1.56445,1.63476 3.90234,1.63476 1.74024,0 2.97071,-0.91406 1.23047,-0.91406 1.95117,-2.91797 z m -10.38867,-5.11523 h 10.42383 q -0.21094,-2.35547 -1.19532,-3.53321 -1.51172,-1.82812 -3.91992,-1.82812 -2.17969,0 -3.67383,1.45898 -1.47656,1.45899 -1.63476,3.90235 z m 17.63086,11.12695 v -18.66797 h 2.84765 v 2.6543 q 2.05664,-3.07617 5.94141,-3.07617 1.6875,0 3.09375,0.61523 1.42383,0.59766 2.12695,1.58203 0.70313,0.98438 0.98438,2.33789 0.17578,0.87891 0.17578,3.07617 v 11.47852 h -3.16406 v -11.35547 q 0,-1.93359 -0.36914,-2.88281 -0.36915,-0.9668 -1.31836,-1.5293 -0.93164,-0.58008 -2.19727,-0.58008 -2.02148,0 -3.49805,1.28321 -1.45898,1.2832 -1.45898,4.86914 v 10.19531 z m 32.20312,-2.30274 q -1.75781,1.49415 -3.39258,2.10938 -1.61718,0.61523 -3.48047,0.61523 -3.07617,0 -4.72851,-1.49414 -1.65234,-1.51172 -1.65234,-3.84961 0,-1.37109 0.61523,-2.49609 0.63281,-1.14258 1.63477,-1.82812 1.01953,-0.68555 2.28515,-1.03711 0.93164,-0.2461 2.8125,-0.47461 3.83203,-0.45703 5.64258,-1.08985 0.0176,-0.65039 0.0176,-0.82617 0,-1.93359 -0.89649,-2.72461 -1.21289,-1.07226 -3.60351,-1.07226 -2.23242,0 -3.30469,0.79101 -1.05469,0.77344 -1.56445,2.75977 l -3.09375,-0.42188 q 0.42187,-1.98633 1.38867,-3.19922 0.9668,-1.23047 2.79492,-1.88086 1.82813,-0.66796 4.23633,-0.66796 2.39062,0 3.88476,0.5625 1.49415,0.5625 2.19727,1.42382 0.70313,0.84375 0.98438,2.14453 0.1582,0.8086 0.1582,2.91797 v 4.21875 q 0,4.41211 0.19336,5.58985 0.21094,1.16015 0.80859,2.23242 h -3.30469 q -0.49218,-0.98438 -0.63281,-2.30274 z m -0.26367,-7.0664 q -1.72266,0.70312 -5.16797,1.19531 -1.95117,0.28125 -2.75976,0.63281 -0.8086,0.35157 -1.24805,1.03711 -0.43945,0.66797 -0.43945,1.49414 0,1.26563 0.94921,2.10938 0.9668,0.84375 2.8125,0.84375 1.82813,0 3.25196,-0.79102 1.42383,-0.80859 2.09179,-2.19726 0.50977,-1.07227 0.50977,-3.16407 z m 8.10352,9.36914 v -18.66797 h 2.84765 v 2.6543 q 2.05664,-3.07617 5.94141,-3.07617 1.6875,0 3.09375,0.61523 1.42383,0.59766 2.12695,1.58203 0.70313,0.98438 0.98438,2.33789 0.17578,0.87891 0.17578,3.07617 v 11.47852 h -3.16407 v -11.35547 q 0,-1.93359 -0.36914,-2.88281 -0.36914,-0.9668 -1.31836,-1.5293 -0.93164,-0.58008 -2.19726,-0.58008 -2.02149,0 -3.49805,1.28321 -1.45898,1.2832 -1.45898,4.86914 v 10.19531 z m 32.20312,-6.83789 3.11133,0.4043 q -0.50977,3.21679 -2.61914,5.04492 -2.0918,1.81054 -5.15039,1.81054 -3.83203,0 -6.16992,-2.49609 -2.32032,-2.51367 -2.32032,-7.18945 0,-3.02344 1.00196,-5.29102 1.00195,-2.26758 3.04101,-3.39258 2.05664,-1.14257 4.46485,-1.14257 3.04101,0 4.9746,1.54687 1.9336,1.5293 2.47852,4.35938 l -3.07617,0.4746 q -0.43945,-1.88085 -1.56445,-2.83007 -1.10743,-0.94922 -2.68946,-0.94922 -2.39062,0 -3.88476,1.72265 -1.49414,1.70508 -1.49414,5.41407 0,3.76172 1.4414,5.46679 1.44141,1.70508 3.76172,1.70508 1.86328,0 3.11133,-1.14258 1.24805,-1.14257 1.58203,-3.51562 z m 18.59766,0.82617 3.26953,0.4043 q -0.77344,2.86523 -2.86524,4.44726 -2.09179,1.58203 -5.34375,1.58203 -4.0957,0 -6.5039,-2.51367 -2.39063,-2.53125 -2.39063,-7.08398 0,-4.71094 2.42578,-7.3125 2.42578,-2.60156 6.29297,-2.60156 3.74414,0 6.11719,2.54882 2.37305,2.54883 2.37305,7.17188 0,0.28125 -0.0176,0.84375 h -13.92188 q 0.17578,3.07617 1.74024,4.71094 1.56445,1.63476 3.90234,1.63476 1.74024,0 2.9707,-0.91406 1.23047,-0.91406 1.95118,-2.91797 z m -10.38868,-5.11523 h 10.42383 q -0.21093,-2.35547 -1.19531,-3.53321 -1.51172,-1.82812 -3.91992,-1.82812 -2.17969,0 -3.67383,1.45898 -1.47656,1.45899 -1.63477,3.90235 z m 26.36719,5.55468 3.12891,-0.49218 q 0.26367,1.88086 1.45898,2.88281 1.21289,1.00195 3.375,1.00195 2.17969,0 3.23438,-0.8789 1.05469,-0.89649 1.05469,-2.0918 0,-1.07227 -0.93165,-1.6875 -0.65039,-0.42188 -3.23437,-1.07227 -3.48047,-0.8789 -4.83398,-1.51172 -1.33594,-0.65039 -2.03907,-1.77539 -0.68554,-1.14257 -0.68554,-2.51367 0,-1.24805 0.5625,-2.30273 0.58007,-1.07227 1.56445,-1.77539 0.73828,-0.54493 2.00391,-0.91407 1.2832,-0.38671 2.74218,-0.38671 2.19727,0 3.84961,0.63281 1.66992,0.63281 2.46094,1.72265 0.79102,1.07227 1.08984,2.88282 l -3.09375,0.42187 q -0.21093,-1.4414 -1.23047,-2.25 -1.00195,-0.80859 -2.84765,-0.80859 -2.17969,0 -3.11133,0.7207 -0.93164,0.7207 -0.93164,1.6875 0,0.61524 0.38672,1.10742 0.38672,0.50977 1.21289,0.84375 0.47461,0.17578 2.79492,0.8086 3.35742,0.89648 4.67578,1.47656 1.33594,0.5625 2.0918,1.65234 0.75586,1.08985 0.75586,2.70703 0,1.58204 -0.93164,2.98829 -0.91406,1.38867 -2.6543,2.1621 -1.74023,0.75586 -3.9375,0.75586 -3.63867,0 -5.55469,-1.51171 -1.89843,-1.51172 -2.42578,-4.48243 z m 31.44727,-1.26562 3.11133,0.4043 q -0.50977,3.21679 -2.61914,5.04492 -2.0918,1.81054 -5.1504,1.81054 -3.83203,0 -6.16992,-2.49609 -2.32031,-2.51367 -2.32031,-7.18945 0,-3.02344 1.00195,-5.29102 1.00196,-2.26758 3.04102,-3.39258 2.05664,-1.14257 4.46484,-1.14257 3.04102,0 4.97461,1.54687 1.9336,1.5293 2.47852,4.35938 l -3.07617,0.4746 q -0.43946,-1.88085 -1.56446,-2.83007 -1.10742,-0.94922 -2.68945,-0.94922 -2.39063,0 -3.88477,1.72265 -1.49414,1.70508 -1.49414,5.41407 0,3.76172 1.44141,5.46679 1.44141,1.70508 3.76172,1.70508 1.86328,0 3.11133,-1.14258 1.24804,-1.14257 1.58203,-3.51562 z m 5.81836,6.83789 v -25.76953 h 3.16406 v 9.24609 q 2.21484,-2.5664 5.58984,-2.5664 2.07422,0 3.60352,0.82617 1.5293,0.80859 2.17969,2.25 0.66797,1.4414 0.66797,4.18359 v 11.83008 h -3.16407 v -11.83008 q 0,-2.37305 -1.03711,-3.44531 -1.01953,-1.08985 -2.90039,-1.08985 -1.40625,0 -2.65429,0.73829 -1.23047,0.7207 -1.75782,1.96875 -0.52734,1.24804 -0.52734,3.44531 v 10.21289 z m 32.80078,-6.01172 3.26953,0.4043 q -0.77344,2.86523 -2.86523,4.44726 -2.0918,1.58203 -5.34375,1.58203 -4.09571,0 -6.50391,-2.51367 -2.39063,-2.53125 -2.39063,-7.08398 0,-4.71094 2.42579,-7.3125 2.42578,-2.60156 6.29296,-2.60156 3.74414,0 6.11719,2.54882 2.37305,2.54883 2.37305,7.17188 0,0.28125 -0.0176,0.84375 H 386.5752 q 0.17578,3.07617 1.74023,4.71094 1.56445,1.63476 3.90234,1.63476 1.74024,0 2.97071,-0.91406 1.23047,-0.91406 1.95117,-2.91797 z m -10.38867,-5.11523 h 10.42382 q -0.21093,-2.35547 -1.19531,-3.53321 -1.51172,-1.82812 -3.91992,-1.82812 -2.17969,0 -3.67383,1.45898 -1.47656,1.45899 -1.63476,3.90235 z m 29.74218,11.12695 v -2.35547 q -1.77539,2.77734 -5.2207,2.77734 -2.23242,0 -4.11328,-1.23046 -1.86328,-1.23047 -2.90039,-3.42774 -1.01953,-2.21484 -1.01953,-5.08008 0,-2.79492 0.93164,-5.0625 0.93164,-2.28515 2.79492,-3.49804 1.86328,-1.21289 4.16602,-1.21289 1.6875,0 3.00586,0.7207 1.31835,0.70312 2.14453,1.8457 v -9.24609 h 3.14648 v 25.76953 z m -10.00195,-9.31641 q 0,3.58594 1.51172,5.36133 1.51172,1.77539 3.56836,1.77539 2.07422,0 3.51562,-1.6875 1.45899,-1.70508 1.45899,-5.18555 0,-3.83203 -1.47656,-5.625 -1.47657,-1.79296 -3.63868,-1.79296 -2.10937,0 -3.5332,1.72265 -1.40625,1.72266 -1.40625,5.43164 z m 30.14649,9.31641 v -2.74219 q -2.17969,3.16406 -5.92383,3.16406 -1.65235,0 -3.09375,-0.63281 -1.42383,-0.63281 -2.12696,-1.58203 -0.68554,-0.9668 -0.96679,-2.35547 -0.19336,-0.93164 -0.19336,-2.95312 v -11.56641 h 3.16406 v 10.35352 q 0,2.47851 0.19336,3.33984 0.29883,1.24805 1.26562,1.96875 0.9668,0.70312 2.39063,0.70312 1.42383,0 2.67187,-0.7207 1.24805,-0.73828 1.75782,-1.98633 0.52734,-1.26562 0.52734,-3.65625 v -10.00195 h 3.16406 v 18.66797 z m 7.71679,0 v -25.76953 h 3.16406 v 25.76953 z m 8.08594,-22.13086 v -3.63867 h 3.16406 v 3.63867 z m 0,22.13086 v -18.66797 h 3.16406 v 18.66797 z m 7.98047,0 v -18.66797 h 2.84765 v 2.6543 q 2.05665,-3.07617 5.94141,-3.07617 1.6875,0 3.09375,0.61523 1.42383,0.59766 2.12695,1.58203 0.70313,0.98438 0.98438,2.33789 0.17578,0.87891 0.17578,3.07617 v 11.47852 h -3.16406 v -11.35547 q 0,-1.93359 -0.36914,-2.88281 -0.36914,-0.9668 -1.31836,-1.5293 -0.93164,-0.58008 -2.19727,-0.58008 -2.02148,0 -3.49804,1.28321 -1.45899,1.2832 -1.45899,4.86914 v 10.19531 z m 19.4414,1.54687 3.07618,0.45704 q 0.19336,1.42382 1.07226,2.07421 1.17774,0.87891 3.2168,0.87891 2.19726,0 3.39258,-0.87891 1.19531,-0.8789 1.61718,-2.46093 0.2461,-0.9668 0.22852,-4.06055 -2.07422,2.44336 -5.16797,2.44336 -3.84961,0 -5.95898,-2.77734 -2.10938,-2.77735 -2.10938,-6.66211 0,-2.67188 0.9668,-4.92188 0.9668,-2.26758 2.79492,-3.49805 1.8457,-1.23046 4.32422,-1.23046 3.30469,0 5.44922,2.67187 v -2.25 h 2.91797 v 16.13672 q 0,4.35937 -0.89649,6.16992 -0.8789,1.82813 -2.8125,2.88281 -1.91601,1.05469 -4.72851,1.05469 -3.33985,0 -5.39649,-1.51172 -2.05664,-1.49414 -1.98633,-4.51758 z m 2.61915,-11.21484 q 0,3.67383 1.45898,5.36133 1.45898,1.6875 3.65625,1.6875 2.17969,0 3.65625,-1.66992 1.47656,-1.6875 1.47656,-5.27344 0,-3.42774 -1.52929,-5.16797 -1.51172,-1.74023 -3.65625,-1.74023 -2.10938,0 -3.58594,1.72265 -1.47656,1.70508 -1.47656,5.08008 z m 40.16601,2.83008 3.11133,0.4043 q -0.50977,3.21679 -2.61914,5.04492 -2.0918,1.81054 -5.15039,1.81054 -3.83203,0 -6.16992,-2.49609 -2.32032,-2.51367 -2.32032,-7.18945 0,-3.02344 1.00196,-5.29102 1.00195,-2.26758 3.04101,-3.39258 2.05664,-1.14257 4.46485,-1.14257 3.04101,0 4.97461,1.54687 1.93359,1.5293 2.47851,4.35938 l -3.07617,0.4746 q -0.43945,-1.88085 -1.56445,-2.83007 -1.10743,-0.94922 -2.68946,-0.94922 -2.39062,0 -3.88476,1.72265 -1.49414,1.70508 -1.49414,5.41407 0,3.76172 1.4414,5.46679 1.44141,1.70508 3.76172,1.70508 1.86328,0 3.11133,-1.14258 1.24805,-1.14257 1.58203,-3.51562 z m 5.74805,6.83789 v -25.76953 h 3.16406 v 25.76953 z m 20.25,-2.30274 q -1.75781,1.49415 -3.39258,2.10938 -1.61719,0.61523 -3.48047,0.61523 -3.07617,0 -4.72851,-1.49414 -1.65235,-1.51172 -1.65235,-3.84961 0,-1.37109 0.61524,-2.49609 0.63281,-1.14258 1.63476,-1.82812 1.01953,-0.68555 2.28516,-1.03711 0.93164,-0.2461 2.8125,-0.47461 3.83203,-0.45703 5.64258,-1.08985 0.0176,-0.65039 0.0176,-0.82617 0,-1.93359 -0.89648,-2.72461 -1.21289,-1.07226 -3.60352,-1.07226 -2.23242,0 -3.30468,0.79101 -1.05469,0.77344 -1.56446,2.75977 l -3.09375,-0.42188 q 0.42188,-1.98633 1.38868,-3.19922 0.96679,-1.23047 2.79492,-1.88086 1.82812,-0.66796 4.23633,-0.66796 2.39062,0 3.88476,0.5625 1.49414,0.5625 2.19727,1.42382 0.70312,0.84375 0.98437,2.14453 0.1582,0.8086 0.1582,2.91797 v 4.21875 q 0,4.41211 0.19336,5.58985 0.21094,1.16015 0.8086,2.23242 h -3.30469 q -0.49219,-0.98438 -0.63281,-2.30274 z m -0.26367,-7.0664 q -1.72266,0.70312 -5.16797,1.19531 -1.95117,0.28125 -2.75977,0.63281 -0.80859,0.35157 -1.24805,1.03711 -0.43945,0.66797 -0.43945,1.49414 0,1.26563 0.94922,2.10938 0.9668,0.84375 2.8125,0.84375 1.82813,0 3.25195,-0.79102 1.42383,-0.80859 2.0918,-2.19726 0.50977,-1.07227 0.50977,-3.16407 z m 6.83789,3.79687 3.1289,-0.49218 q 0.26367,1.88086 1.45899,2.88281 1.21289,1.00195 3.375,1.00195 2.17968,0 3.23437,-0.8789 1.05469,-0.89649 1.05469,-2.0918 0,-1.07227 -0.93164,-1.6875 -0.65039,-0.42188 -3.23438,-1.07227 -3.48046,-0.8789 -4.83398,-1.51172 -1.33594,-0.65039 -2.03906,-1.77539 -0.68555,-1.14257 -0.68555,-2.51367 0,-1.24805 0.5625,-2.30273 0.58008,-1.07227 1.56445,-1.77539 0.73828,-0.54493 2.00391,-0.91407 1.2832,-0.38671 2.74219,-0.38671 2.19726,0 3.84961,0.63281 1.66992,0.63281 2.46093,1.72265 0.79102,1.07227 1.08985,2.88282 l -3.09375,0.42187 q -0.21094,-1.4414 -1.23047,-2.25 -1.00195,-0.80859 -2.84766,-0.80859 -2.17968,0 -3.11133,0.7207 -0.93164,0.7207 -0.93164,1.6875 0,0.61524 0.38672,1.10742 0.38672,0.50977 1.21289,0.84375 0.47461,0.17578 2.79493,0.8086 3.35742,0.89648 4.67578,1.47656 1.33593,0.5625 2.09179,1.65234 0.75586,1.08985 0.75586,2.70703 0,1.58204 -0.93164,2.98829 -0.91406,1.38867 -2.65429,2.1621 -1.74024,0.75586 -3.9375,0.75586 -3.63868,0 -5.55469,-1.51171 -1.89844,-1.51172 -2.42578,-4.48243 z m 18,0 3.1289,-0.49218 q 0.26367,1.88086 1.45899,2.88281 1.21289,1.00195 3.375,1.00195 2.17968,0 3.23437,-0.8789 1.05469,-0.89649 1.05469,-2.0918 0,-1.07227 -0.93164,-1.6875 -0.65039,-0.42188 -3.23438,-1.07227 -3.48046,-0.8789 -4.83398,-1.51172 -1.33594,-0.65039 -2.03906,-1.77539 -0.68555,-1.14257 -0.68555,-2.51367 0,-1.24805 0.5625,-2.30273 0.58008,-1.07227 1.56445,-1.77539 0.73828,-0.54493 2.00391,-0.91407 1.2832,-0.38671 2.74219,-0.38671 2.19726,0 3.84961,0.63281 1.66992,0.63281 2.46093,1.72265 0.79102,1.07227 1.08985,2.88282 l -3.09375,0.42187 q -0.21094,-1.4414 -1.23047,-2.25 -1.00195,-0.80859 -2.84766,-0.80859 -2.17968,0 -3.11133,0.7207 -0.93164,0.7207 -0.93164,1.6875 0,0.61524 0.38672,1.10742 0.38672,0.50977 1.21289,0.84375 0.47461,0.17578 2.79493,0.8086 3.35742,0.89648 4.67578,1.47656 1.33593,0.5625 2.09179,1.65234 0.75586,1.08985 0.75586,2.70703 0,1.58204 -0.93164,2.98829 -0.91406,1.38867 -2.65429,2.1621 -1.74024,0.75586 -3.9375,0.75586 -3.63868,0 -5.55469,-1.51171 -1.89844,-1.51172 -2.42578,-4.48243 z m 41.3789,5.57227 v -2.35547 q -1.77539,2.77734 -5.2207,2.77734 -2.23242,0 -4.11328,-1.23046 -1.86328,-1.23047 -2.90039,-3.42774 -1.01953,-2.21484 -1.01953,-5.08008 0,-2.79492 0.93164,-5.0625 0.93164,-2.28515 2.79492,-3.49804 1.86328,-1.21289 4.16601,-1.21289 1.6875,0 3.00586,0.7207 1.31836,0.70312 2.14454,1.8457 v -9.24609 h 3.14648 v 25.76953 z m -10.00195,-9.31641 q 0,3.58594 1.51172,5.36133 1.51172,1.77539 3.56836,1.77539 2.07422,0 3.51562,-1.6875 1.45899,-1.70508 1.45899,-5.18555 0,-3.83203 -1.47657,-5.625 -1.47656,-1.79296 -3.63867,-1.79296 -2.10937,0 -3.5332,1.72265 -1.40625,1.72266 -1.40625,5.43164 z m 17.92969,-12.81445 v -3.63867 h 3.16406 v 3.63867 z m 0,22.13086 v -18.66797 h 3.16406 v 18.66797 z m 20.16211,-2.30274 q -1.75782,1.49415 -3.39258,2.10938 -1.61719,0.61523 -3.48047,0.61523 -3.07617,0 -4.72852,-1.49414 -1.65234,-1.51172 -1.65234,-3.84961 0,-1.37109 0.61523,-2.49609 0.63282,-1.14258 1.63477,-1.82812 1.01953,-0.68555 2.28516,-1.03711 0.93164,-0.2461 2.8125,-0.47461 3.83203,-0.45703 5.64257,-1.08985 0.0176,-0.65039 0.0176,-0.82617 0,-1.93359 -0.89648,-2.72461 -1.21289,-1.07226 -3.60352,-1.07226 -2.23242,0 -3.30468,0.79101 -1.05469,0.77344 -1.56446,2.75977 l -3.09375,-0.42188 q 0.42188,-1.98633 1.38867,-3.19922 0.9668,-1.23047 2.79493,-1.88086 1.82812,-0.66796 4.23632,-0.66796 2.39063,0 3.88477,0.5625 1.49414,0.5625 2.19727,1.42382 0.70312,0.84375 0.98437,2.14453 0.1582,0.8086 0.1582,2.91797 v 4.21875 q 0,4.41211 0.19336,5.58985 0.21094,1.16015 0.8086,2.23242 h -3.30469 q -0.49219,-0.98438 -0.63281,-2.30274 z m -0.26368,-7.0664 q -1.72265,0.70312 -5.16796,1.19531 -1.95118,0.28125 -2.75977,0.63281 -0.80859,0.35157 -1.24805,1.03711 -0.43945,0.66797 -0.43945,1.49414 0,1.26563 0.94922,2.10938 0.9668,0.84375 2.8125,0.84375 1.82812,0 3.25195,-0.79102 1.42383,-0.80859 2.0918,-2.19726 0.50976,-1.07227 0.50976,-3.16407 z m 7.52344,10.91601 3.07617,0.45704 q 0.19336,1.42382 1.07227,2.07421 1.17773,0.87891 3.2168,0.87891 2.19726,0 3.39257,-0.87891 1.19532,-0.8789 1.61719,-2.46093 0.2461,-0.9668 0.22852,-4.06055 -2.07422,2.44336 -5.16797,2.44336 -3.84961,0 -5.95899,-2.77734 -2.10937,-2.77735 -2.10937,-6.66211 0,-2.67188 0.9668,-4.92188 0.96679,-2.26758 2.79492,-3.49805 1.8457,-1.23046 4.32422,-1.23046 3.30468,0 5.44922,2.67187 v -2.25 h 2.91796 v 16.13672 q 0,4.35937 -0.89648,6.16992 -0.87891,1.82813 -2.8125,2.88281 -1.91602,1.05469 -4.72852,1.05469 -3.33984,0 -5.39648,-1.51172 -2.05664,-1.49414 -1.98633,-4.51758 z m 2.61914,-11.21484 q 0,3.67383 1.45899,5.36133 1.45898,1.6875 3.65625,1.6875 2.17968,0 3.65625,-1.66992 1.47656,-1.6875 1.47656,-5.27344 0,-3.42774 -1.5293,-5.16797 -1.51172,-1.74023 -3.65625,-1.74023 -2.10937,0 -3.58593,1.72265 -1.47657,1.70508 -1.47657,5.08008 z m 17.94727,9.66797 v -18.66797 h 2.84765 v 2.83008 q 1.08985,-1.98633 2.00391,-2.61914 0.93164,-0.63281 2.03906,-0.63281 1.59961,0 3.25196,1.01953 l -1.08985,2.93554 q -1.16015,-0.68554 -2.32031,-0.68554 -1.03711,0 -1.86328,0.63281 -0.82617,0.61523 -1.17774,1.72266 -0.52734,1.6875 -0.52734,3.6914 v 9.77344 z m 24.20508,-2.30274 q -1.75782,1.49415 -3.39258,2.10938 -1.61719,0.61523 -3.48047,0.61523 -3.07617,0 -4.72852,-1.49414 -1.65234,-1.51172 -1.65234,-3.84961 0,-1.37109 0.61523,-2.49609 0.63282,-1.14258 1.63477,-1.82812 1.01953,-0.68555 2.28516,-1.03711 0.93164,-0.2461 2.8125,-0.47461 3.83203,-0.45703 5.64257,-1.08985 0.0176,-0.65039 0.0176,-0.82617 0,-1.93359 -0.89648,-2.72461 -1.21289,-1.07226 -3.60352,-1.07226 -2.23242,0 -3.30468,0.79101 -1.05469,0.77344 -1.56446,2.75977 l -3.09375,-0.42188 q 0.42188,-1.98633 1.38867,-3.19922 0.9668,-1.23047 2.79493,-1.88086 1.82812,-0.66796 4.23632,-0.66796 2.39063,0 3.88477,0.5625 1.49414,0.5625 2.19727,1.42382 0.70312,0.84375 0.98437,2.14453 0.1582,0.8086 0.1582,2.91797 v 4.21875 q 0,4.41211 0.19336,5.58985 0.21094,1.16015 0.8086,2.23242 h -3.30469 q -0.49219,-0.98438 -0.63281,-2.30274 z m -0.26368,-7.0664 q -1.72265,0.70312 -5.16796,1.19531 -1.95118,0.28125 -2.75977,0.63281 -0.80859,0.35157 -1.24805,1.03711 -0.43945,0.66797 -0.43945,1.49414 0,1.26563 0.94922,2.10938 0.9668,0.84375 2.8125,0.84375 1.82812,0 3.25195,-0.79102 1.42383,-0.80859 2.0918,-2.19726 0.50976,-1.07227 0.50976,-3.16407 z m 8.10352,9.36914 v -18.66797 h 2.83008 v 2.61914 q 0.8789,-1.37109 2.33789,-2.19726 1.45898,-0.84375 3.32226,-0.84375 2.07422,0 3.39258,0.86132 1.33594,0.86133 1.88086,2.40821 2.21485,-3.26953 5.76563,-3.26953 2.77734,0 4.27148,1.54687 1.49414,1.5293 1.49414,4.72852 v 12.81445 h -3.14648 v -11.75977 q 0,-1.89843 -0.31641,-2.72461 -0.29883,-0.84375 -1.10742,-1.35351 -0.80859,-0.50977 -1.89844,-0.50977 -1.96875,0 -3.26953,1.31836 -1.30078,1.30078 -1.30078,4.1836 v 10.8457 h -3.16406 v -12.12891 q 0,-2.10937 -0.77344,-3.16406 -0.77344,-1.05469 -2.53125,-1.05469 -1.33594,0 -2.47852,0.70313 -1.125,0.70312 -1.63476,2.05664 -0.50977,1.35351 -0.50977,3.90234 v 9.68555 z"
       id="flowRoot4302"
       transform="translate(-20,262.36198)"
       aria-label="Maintenance scheduling class diagram" />
    <g
       transform="translate(0,19.999997)"
       id="g3709" />
    <rect
       style="fill:none;stroke:#000000;stroke-width:1;stroke-linecap:round;stroke-linejoin:round;stroke-miterlimit:4;stroke-dasharray:none"
       id="rect3898"
       width="139"
       height="89"
       x="20.500429"
       y="732.86224"
       rx="4.9999986"
       ry="5" />
    <path
       style="font-size:20px;line-height:1.25;font-family:'Liberation Sans';-inkscape-font-specification:'Liberation Sans, Normal';text-align:center;text-anchor:middle"
       d="m 453.1582,46.772901 1.89453,0.478516 q -0.5957,2.333984 -2.14843,3.564453 -1.54297,1.220703 -3.7793,1.220703 -2.31445,0 -3.76953,-0.9375 -1.44531,-0.947266 -2.20703,-2.734375 -0.75196,-1.78711 -0.75196,-3.837891 0,-2.236328 0.84961,-3.896484 0.85938,-1.669922 2.43164,-2.529297 1.58204,-0.869141 3.47657,-0.869141 2.14843,0 3.61328,1.09375 1.46484,1.09375 2.04101,3.076172 l -1.86523,0.439453 q -0.49805,-1.5625 -1.44531,-2.27539 -0.94727,-0.712891 -2.38282,-0.712891 -1.65039,0 -2.76367,0.791016 -1.10351,0.791015 -1.55273,2.128906 -0.44922,1.328125 -0.44922,2.744141 0,1.826171 0.52734,3.193359 0.53711,1.357422 1.66016,2.03125 1.12305,0.673828 2.43164,0.673828 1.5918,0 2.69531,-0.917969 1.10352,-0.917968 1.49414,-2.724609 z m 3.98438,5.019531 V 41.421338 h 1.58203 v 1.572266 q 0.60547,-1.103516 1.11328,-1.455078 0.51758,-0.351563 1.13281,-0.351563 0.88867,0 1.80664,0.566407 l -0.60547,1.630859 q -0.64453,-0.380859 -1.28906,-0.380859 -0.57617,0 -1.03515,0.351562 -0.45899,0.341797 -0.6543,0.957031 -0.29297,0.9375 -0.29297,2.050782 v 5.429687 z m 13.77929,-3.339844 1.81641,0.22461 q -0.42969,1.591797 -1.5918,2.470703 -1.16211,0.878906 -2.96875,0.878906 -2.27539,0 -3.61328,-1.396484 -1.32812,-1.40625 -1.32812,-3.935547 0,-2.617188 1.34765,-4.0625 1.34766,-1.445313 3.4961,-1.445313 2.08008,0 3.39844,1.416016 1.31835,1.416016 1.31835,3.984375 0,0.15625 -0.01,0.46875 h -7.73438 q 0.0977,1.708984 0.9668,2.617188 0.86914,0.908203 2.16797,0.908203 0.9668,0 1.65039,-0.507813 0.68359,-0.507812 1.08398,-1.621094 z m -5.77148,-2.841796 h 5.79102 q -0.11719,-1.308594 -0.66407,-1.962891 -0.83984,-1.015625 -2.17773,-1.015625 -1.21094,0 -2.04102,0.810547 -0.82031,0.810547 -0.9082,2.167969 z m 11.70898,6.18164 -3.17382,-10.371094 h 1.8164 l 1.65039,5.986329 0.61524,2.226562 q 0.0391,-0.166016 0.53711,-2.138672 l 1.65039,-6.074219 h 1.80664 l 1.55273,6.015625 0.51758,1.982422 0.5957,-2.001953 1.77735,-5.996094 h 1.70898 l -3.24219,10.371094 h -1.82617 l -1.65039,-6.210937 -0.40039,-1.767578 -2.09961,7.978515 z"
       id="flowRoot3906"
       transform="translate(-375.26715,698.5852)"
       aria-label="Crew" />
    <path
       style="color:#000000;display:inline;overflow:visible;visibility:visible;fill:none;stroke:#000000;stroke-width:1px;stroke-linecap:round;stroke-linejoin:round;stroke-miterlimit:4;stroke-dasharray:none;stroke-dashoffset:0;stroke-opacity:1;marker:none;enable-background:accumulate"
       d="M 20.308,761.86227 H 159.6911"
       id="path3908" />
    <path
       style="font-size:20px;line-height:1.25;font-family:'Liberation Sans';-inkscape-font-specification:'Liberation Sans, Normal'"
       d="M 341.31836,51.792432 V 41.421338 h 1.58203 v 1.47461 q 1.14258,-1.708985 3.30078,-1.708985 0.9375,0 1.71875,0.341797 0.79102,0.332032 1.18164,0.878907 0.39063,0.546875 0.54688,1.298828 0.0976,0.488281 0.0976,1.708984 v 6.376953 h -1.75781 v -6.308594 q 0,-1.074218 -0.20508,-1.601562 -0.20508,-0.537109 -0.73242,-0.849609 -0.51758,-0.322266 -1.2207,-0.322266 -1.12305,0 -1.94336,0.712891 -0.81055,0.71289 -0.81055,2.705078 v 5.664062 z m 17.89062,-1.279297 q -0.97656,0.830078 -1.88476,1.171875 -0.89844,0.341797 -1.9336,0.341797 -1.70898,0 -2.62695,-0.830078 -0.91797,-0.839844 -0.91797,-2.138672 0,-0.761719 0.3418,-1.386719 0.35156,-0.634765 0.9082,-1.015625 0.56641,-0.380859 1.26953,-0.576171 0.51758,-0.136719 1.5625,-0.263672 2.12891,-0.253907 3.13477,-0.605469 0.01,-0.361328 0.01,-0.458984 0,-1.074219 -0.49805,-1.513672 -0.67383,-0.595703 -2.00195,-0.595703 -1.24024,0 -1.83594,0.439453 -0.58594,0.429687 -0.86914,1.533203 l -1.71875,-0.234375 q 0.23437,-1.103516 0.77148,-1.777344 0.53711,-0.683594 1.55274,-1.044922 1.01562,-0.371094 2.35351,-0.371094 1.32813,0 2.1582,0.3125 0.83008,0.3125 1.22071,0.791016 0.39062,0.46875 0.54687,1.191406 0.0879,0.449219 0.0879,1.621094 v 2.34375 q 0,2.451172 0.10743,3.105469 0.11718,0.644531 0.44921,1.240234 h -1.83593 q -0.27344,-0.546875 -0.35157,-1.279297 z m -0.14648,-3.925781 q -0.95703,0.390625 -2.87109,0.664063 -1.08399,0.15625 -1.53321,0.351562 -0.44922,0.195313 -0.69336,0.576172 -0.24414,0.371094 -0.24414,0.830078 0,0.703125 0.52735,1.171875 0.53711,0.46875 1.5625,0.46875 1.01562,0 1.80664,-0.439453 0.79101,-0.449219 1.16211,-1.220703 0.2832,-0.595703 0.2832,-1.757813 z m 4.50195,5.205078 V 41.421338 h 1.57227 v 1.455079 q 0.48828,-0.761719 1.29883,-1.220704 0.81054,-0.46875 1.8457,-0.46875 1.15234,0 1.88477,0.478516 0.74218,0.478516 1.04492,1.337891 1.23047,-1.816407 3.20312,-1.816407 1.54297,0 2.37305,0.859375 0.83008,0.84961 0.83008,2.626954 v 7.11914 h -1.74805 v -6.533203 q 0,-1.054687 -0.17578,-1.513672 -0.16602,-0.46875 -0.61524,-0.751953 -0.44921,-0.283203 -1.05468,-0.283203 -1.09375,0 -1.81641,0.732422 -0.72266,0.722656 -0.72266,2.324219 v 6.02539 h -1.75781 v -6.738281 q 0,-1.171875 -0.42969,-1.757813 -0.42968,-0.585937 -1.40625,-0.585937 -0.74218,0 -1.37695,0.390625 -0.625,0.390625 -0.9082,1.142578 -0.2832,0.751953 -0.2832,2.167969 v 5.380859 z m 23.75977,-3.339844 1.8164,0.22461 q -0.42968,1.591797 -1.59179,2.470703 -1.16211,0.878906 -2.96875,0.878906 -2.27539,0 -3.61328,-1.396484 -1.32813,-1.40625 -1.32813,-3.935547 0,-2.617188 1.34766,-4.0625 1.34765,-1.445313 3.49609,-1.445313 2.08008,0 3.39844,1.416016 1.31836,1.416016 1.31836,3.984375 0,0.15625 -0.01,0.46875 h -7.73437 q 0.0976,1.708984 0.96679,2.617188 0.86915,0.908203 2.16797,0.908203 0.9668,0 1.65039,-0.507813 0.6836,-0.507812 1.08399,-1.621094 z m -5.77149,-2.841796 h 5.79102 q -0.11719,-1.308594 -0.66406,-1.962891 -0.83985,-1.015625 -2.17774,-1.015625 -1.21093,0 -2.04101,0.810547 -0.82032,0.810547 -0.90821,2.167969 z m 15.83985,-2.1875 v -2.001954 h 2.00195 v 2.001954 z m 0,8.36914 v -2.001953 h 2.00195 v 2.001953 z m 10.20508,-4.599609 1.78711,-0.15625 q 0.12695,1.074219 0.58593,1.767578 0.46875,0.683594 1.44532,1.113281 0.97656,0.419922 2.19726,0.419922 1.08399,0 1.91406,-0.322266 0.83008,-0.322265 1.23047,-0.878906 0.41016,-0.566406 0.41016,-1.230469 0,-0.673828 -0.39063,-1.171875 -0.39062,-0.507812 -1.28906,-0.849609 -0.57617,-0.224609 -2.54883,-0.693359 -1.97265,-0.478516 -2.76367,-0.898438 -1.02539,-0.537109 -1.5332,-1.328125 -0.49805,-0.800781 -0.49805,-1.787109 0,-1.083985 0.61524,-2.021485 0.61523,-0.947265 1.79687,-1.435546 1.18164,-0.488282 2.62695,-0.488282 1.5918,0 2.80274,0.517578 1.2207,0.507813 1.875,1.503907 0.65429,0.996093 0.70312,2.255859 l -1.8164,0.136719 q -0.14649,-1.357422 -0.9961,-2.050781 -0.83984,-0.69336 -2.49023,-0.69336 -1.71875,0 -2.50977,0.634766 -0.78125,0.625 -0.78125,1.513672 0,0.771484 0.55664,1.269531 0.54688,0.498047 2.85157,1.025391 2.31445,0.517578 3.17382,0.908203 1.25,0.576172 1.84571,1.464843 0.5957,0.878907 0.5957,2.03125 0,1.142579 -0.6543,2.158204 -0.65429,1.005859 -1.88476,1.572265 -1.22071,0.556641 -2.75391,0.556641 -1.94336,0 -3.26172,-0.566406 -1.30859,-0.566407 -2.06054,-1.699219 -0.74219,-1.142578 -0.78125,-2.578125 z m 17.59765,3.027344 0.25391,1.552734 q -0.74219,0.15625 -1.32813,0.15625 -0.95703,0 -1.48437,-0.302734 -0.52735,-0.302735 -0.74219,-0.791016 -0.21484,-0.498047 -0.21484,-2.080078 v -5.966797 h -1.28907 v -1.367188 h 1.28907 v -2.568359 l 1.74804,-1.054687 v 3.623046 h 1.76758 v 1.367188 h -1.76758 v 6.064453 q 0,0.751953 0.0879,0.966797 0.0977,0.214844 0.30274,0.341797 0.21484,0.126953 0.60547,0.126953 0.29297,0 0.77148,-0.06836 z m 1.69922,1.572265 V 41.421338 h 1.58203 v 1.572266 q 0.60547,-1.103516 1.11328,-1.455078 0.51758,-0.351563 1.13282,-0.351563 0.88867,0 1.80664,0.566407 l -0.60547,1.630859 q -0.64453,-0.380859 -1.28906,-0.380859 -0.57618,0 -1.03516,0.351562 -0.45899,0.341797 -0.6543,0.957031 -0.29297,0.9375 -0.29297,2.050782 v 5.429687 z m 6.68945,-12.294922 v -2.021484 h 1.75782 v 2.021484 z m 0,12.294922 V 41.421338 h 1.75782 v 10.371094 z m 4.4336,0 V 41.421338 h 1.58203 v 1.47461 q 1.14258,-1.708985 3.30078,-1.708985 0.9375,0 1.71875,0.341797 0.79102,0.332032 1.18164,0.878907 0.39063,0.546875 0.54688,1.298828 0.0976,0.488281 0.0976,1.708984 v 6.376953 h -1.75781 v -6.308594 q 0,-1.074218 -0.20508,-1.601562 -0.20508,-0.537109 -0.73242,-0.849609 -0.51758,-0.322266 -1.2207,-0.322266 -1.12305,0 -1.94336,0.712891 -0.81055,0.71289 -0.81055,2.705078 v 5.664062 z m 10.80078,0.859375 1.70898,0.253906 q 0.10743,0.791016 0.59571,1.152344 0.65429,0.488281 1.78711,0.488281 1.2207,0 1.88476,-0.488281 0.66406,-0.488281 0.89844,-1.367187 0.13672,-0.53711 0.12695,-2.25586 -1.15234,1.357422 -2.87109,1.357422 -2.13867,0 -3.31055,-1.542969 -1.17187,-1.542968 -1.17187,-3.701171 0,-1.484375 0.53711,-2.734375 0.53711,-1.259766 1.55273,-1.94336 1.02539,-0.683594 2.40234,-0.683594 1.83594,0 3.02735,1.484375 v -1.25 h 1.62109 v 8.964844 q 0,2.421875 -0.49805,3.427735 -0.48828,1.015625 -1.5625,1.601562 -1.06445,0.585938 -2.62695,0.585938 -1.85547,0 -2.99805,-0.839844 -1.14257,-0.830078 -1.10351,-2.509766 z m 1.45508,-6.230469 q 0,2.041016 0.81054,2.978516 0.81055,0.9375 2.03125,0.9375 1.21094,0 2.03125,-0.927734 0.82032,-0.9375 0.82032,-2.929688 0,-1.904297 -0.84961,-2.871094 -0.83985,-0.966796 -2.03125,-0.966796 -1.17188,0 -1.99219,0.957031 -0.82031,0.947265 -0.82031,2.822265 z"
       id="flowRoot3920"
       transform="translate(-309.99957,728.5852)"
       aria-label="name : String" />
  </g>
</svg>
