<?xml version="1.0" encoding="UTF-8" standalone="no"?>
<!-- Created with Inkscape (http://www.inkscape.org/) -->

<svg
   version="1.1"
   id="svg2"
   width="1600"
   height="1200"
   viewBox="0 0 1600 1200"
   xmlns="http://www.w3.org/2000/svg"
   xmlns:svg="http://www.w3.org/2000/svg">
  <defs
     id="defs6" />
  <g
     id="g8">
    <g
       id="g1943"
       transform="translate(-22.323486,152.13898)">
      <rect
         style="color:currentColor;overflow:visible;fill:#3e00ff;fill-opacity:0.75;stroke:none;stroke-linecap:round;stroke-linejoin:round;stop-color:currentColor"
         id="rect168"
         width="1000"
         height="100"
         x="322.32349"
         y="927.86102"
         
          />
      <path
         d="M 39.4375,-41.03125 H 22.8125 V 0 H 16.625 V -41.03125 H 0 v -5.5 H 39.4375 Z M 51.53125,-40.75 h -6.625 v -6.09375 h 6.625 z M 51.15625,0 h -5.875 v -34.90625 h 5.875 z m 29.75,-0.3125 Q 79.25,0.125 77.28125,0.40625 75.34375,0.6875 73.8125,0.6875 q -5.34375,0 -8.125,-2.875 -2.78125,-2.875 -2.78125,-9.21875 v -18.5625 H 58.9375 v -4.9375 h 3.96875 V -44.9375 h 5.875 v 10.03125 h 12.125 v 4.9375 h -12.125 v 15.90625 q 0,2.75 0.125,4.3125 0.125,1.53125 0.875,2.875 0.6875,1.25 1.875,1.84375 1.21875,0.5625 3.6875,0.5625 1.4375,0 3,-0.40625 1.5625,-0.4375 2.25,-0.71875 h 0.3125 z M 93.9375,0 h -5.875 v -48.625 h 5.875 z m 40.84375,-16.84375 H 109.0625 q 0,3.21875 0.96875,5.625 0.96875,2.375 2.65625,3.90625 1.625,1.5 3.84375,2.25 2.25,0.75 4.9375,0.75 3.5625,0 7.15625,-1.40625 3.625,-1.4375 5.15625,-2.8125 h 0.3125 V -2.125 q -2.96875,1.25 -6.0625,2.09375 -3.09375,0.84375 -6.5,0.84375 -8.6875,0 -13.5625,-4.6875 -4.875,-4.71875 -4.875,-13.375 0,-8.5625 4.65625,-13.59375 4.6875,-5.03125 12.3125,-5.03125 7.0625,0 10.875,4.125 3.84375,4.125 3.84375,11.71875 z m -5.71875,-4.5 q -0.0312,-4.625 -2.34375,-7.15625 -2.28125,-2.53125 -6.96875,-2.53125 -4.71875,0 -7.53125,2.78125 -2.78125,2.78125 -3.15625,6.90625 z"
         id="text1837"
         style="fill:currentColor;line-height:1.15;text-align:center;white-space:pre;stroke-width:1px;stroke-linecap:round;stroke-linejoin:round"
         transform="translate(824.12036,995.51727)"
         aria-label="Title" />
    </g>
    <rect
       style="color:currentColor;overflow:visible;fill:none;fill-opacity:1;stroke:#3e00ff;stroke-width:10;stroke-linecap:round;stroke-linejoin:round;stroke-dasharray:none;stroke-opacity:1;stop-color:currentColor"
       id="rect1945"
       width="190"
       height="190"
       x="705"
       y="505"
       
        />
  </g>
</svg>
