<svg width="800" height="600" viewBox="0 0 800 600" fill="none" xmlns="http://www.w3.org/2000/svg">
<g clip-path="url(#clip0_190_384)">
<rect width="800" height="600" fill="white"/>
<ellipse cx="48.5" cy="144.5" rx="23.5" ry="8.5" fill="#D9D9D9"/>
<path d="M-545 196H-337H114.5H239" stroke="black" stroke-width="3"/>
<path d="M-25 109.5V75H117V109.5M-25 109.5H117M-25 109.5V152.75M117 109.5V152.75M-25 152.75V196H117V152.75M-25 152.75H117" stroke="#010101" stroke-width="3"/>
<path d="M199.999 144.5C191.999 151 177.599 165.9 183.999 173.5M203.5 146.5C205.167 155.5 209.7 172.6 214.5 169M190 190.5C195.2 182.9 200.666 156.5 199.999 149C201.666 161 211.5 189.5 213.5 189.5" stroke="black" stroke-width="3"/>
<path d="M201.5 122.5C209.559 122.5 216 128.369 216 135.5C216 142.631 209.559 148.5 201.5 148.5C193.441 148.5 187 142.631 187 135.5C187 128.369 193.441 122.5 201.5 122.5Z" fill="white" stroke="black"/>
<circle cx="199.5" cy="133" r="1.5" stroke="black"/>
<circle cx="206.5" cy="134" r="1.5" stroke="black"/>
<path d="M131.388 193.354L122.916 194.042L121.932 178.63L132.056 178.664L131.388 193.354Z" fill="#D9D9D9"/>
<path d="M132.056 178.664L131.388 193.354L122.916 194.042L121.932 178.63L132.056 178.664ZM132.056 178.664L132.932 168" stroke="#B80000" stroke-width="3"/>
<path d="M52.5 140.25C53.4202 140.25 54.2428 140.517 54.8291 140.936C55.4159 141.355 55.75 141.911 55.75 142.5C55.75 143.089 55.4159 143.645 54.8291 144.064C54.2428 144.483 53.4202 144.75 52.5 144.75C51.5798 144.75 50.7572 144.483 50.1709 144.064C49.5841 143.645 49.25 143.089 49.25 142.5C49.25 141.911 49.5841 141.355 50.1709 140.936C50.7572 140.517 51.5798 140.25 52.5 140.25Z" fill="white" stroke="black" stroke-width="0.5"/>
<path d="M40.5 140.25C41.4202 140.25 42.2428 140.517 42.8291 140.936C43.4159 141.355 43.75 141.911 43.75 142.5C43.75 143.089 43.4159 143.645 42.8291 144.064C42.2428 144.483 41.4202 144.75 40.5 144.75C39.5798 144.75 38.7572 144.483 38.1709 144.064C37.5841 143.645 37.25 143.089 37.25 142.5C37.25 141.911 37.5841 141.355 38.1709 140.936C38.7572 140.517 39.5798 140.25 40.5 140.25Z" fill="white" stroke="black" stroke-width="0.5"/>
<circle cx="42" cy="143" r="1" fill="#010101"/>
<circle cx="53" cy="143" r="1" fill="#010101"/>
<path d="M825 480H736.5M25 195.5H279.5M279.5 195.5H375L659.5 480H730.5H736.5M279.5 195.5V169C279.5 154.641 291.141 143 305.5 143H384.802C390.371 143 395.712 145.212 399.651 149.151L675.849 425.349C679.788 429.288 685.129 431.5 690.698 431.5H710.5C724.859 431.5 736.5 443.141 736.5 457.5V480" stroke="black" stroke-width="3"/>
<path d="M51.7071 219.293C51.3166 218.902 50.6834 218.902 50.2929 219.293L43.9289 225.657C43.5384 226.047 43.5384 226.681 43.9289 227.071C44.3195 227.462 44.9526 227.462 45.3432 227.071L51 221.414L56.6569 227.071C57.0474 227.462 57.6806 227.462 58.0711 227.071C58.4616 226.681 58.4616 226.047 58.0711 225.657L51.7071 219.293ZM51 398L52 398L52 220L51 220L50 220L50 398L51 398Z" fill="black"/>
<path d="M63.75 350.25C61.2396 350.25 59.4271 349.625 58.3125 348.375C57.2083 347.125 56.6562 345.135 56.6562 342.406V339.719H62.0938V343.156C62.0938 343.792 62.1875 344.292 62.375 344.656C62.5729 345.01 62.9115 345.188 63.3906 345.188C63.8906 345.188 64.2344 345.042 64.4219 344.75C64.6198 344.458 64.7188 343.979 64.7188 343.312C64.7188 342.469 64.6354 341.766 64.4688 341.203C64.3021 340.63 64.0104 340.089 63.5938 339.578C63.1875 339.057 62.6198 338.453 61.8906 337.766L59.4219 335.422C57.5781 333.682 56.6562 331.693 56.6562 329.453C56.6562 327.109 57.1979 325.323 58.2812 324.094C59.375 322.865 60.9531 322.25 63.0156 322.25C65.5365 322.25 67.3229 322.922 68.375 324.266C69.4375 325.609 69.9688 327.651 69.9688 330.391H64.375V328.5C64.375 328.125 64.2656 327.833 64.0469 327.625C63.8385 327.417 63.5521 327.312 63.1875 327.312C62.75 327.312 62.4271 327.438 62.2188 327.688C62.0208 327.927 61.9219 328.24 61.9219 328.625C61.9219 329.01 62.026 329.427 62.2344 329.875C62.4427 330.323 62.8542 330.839 63.4688 331.422L66.6406 334.469C67.276 335.073 67.8594 335.714 68.3906 336.391C68.9219 337.057 69.349 337.839 69.6719 338.734C69.9948 339.62 70.1562 340.703 70.1562 341.984C70.1562 344.568 69.6771 346.594 68.7188 348.062C67.7708 349.521 66.1146 350.25 63.75 350.25ZM72.32 350V325.625H77.7887V334.281H80.3825V325.625H85.8512V350H80.3825V339.484H77.7887V350H72.32ZM88.3587 350V325.625H93.6712V350H88.3587ZM96.1787 350V325.625H107.179V330.938H101.772V335.359H106.96V340.531H101.772V350H96.1787ZM112.046 350V330.906H108.78V325.625H120.811V330.906H117.546V350H112.046ZM63.75 398.25C61.2396 398.25 59.4271 397.625 58.3125 396.375C57.2083 395.125 56.6562 393.135 56.6562 390.406V387.719H62.0938V391.156C62.0938 391.792 62.1875 392.292 62.375 392.656C62.5729 393.01 62.9115 393.188 63.3906 393.188C63.8906 393.188 64.2344 393.042 64.4219 392.75C64.6198 392.458 64.7188 391.979 64.7188 391.312C64.7188 390.469 64.6354 389.766 64.4688 389.203C64.3021 388.63 64.0104 388.089 63.5938 387.578C63.1875 387.057 62.6198 386.453 61.8906 385.766L59.4219 383.422C57.5781 381.682 56.6562 379.693 56.6562 377.453C56.6562 375.109 57.1979 373.323 58.2812 372.094C59.375 370.865 60.9531 370.25 63.0156 370.25C65.5365 370.25 67.3229 370.922 68.375 372.266C69.4375 373.609 69.9688 375.651 69.9688 378.391H64.375V376.5C64.375 376.125 64.2656 375.833 64.0469 375.625C63.8385 375.417 63.5521 375.312 63.1875 375.312C62.75 375.312 62.4271 375.438 62.2188 375.688C62.0208 375.927 61.9219 376.24 61.9219 376.625C61.9219 377.01 62.026 377.427 62.2344 377.875C62.4427 378.323 62.8542 378.839 63.4688 379.422L66.6406 382.469C67.276 383.073 67.8594 383.714 68.3906 384.391C68.9219 385.057 69.349 385.839 69.6719 386.734C69.9948 387.62 70.1562 388.703 70.1562 389.984C70.1562 392.568 69.6771 394.594 68.7188 396.062C67.7708 397.521 66.1146 398.25 63.75 398.25ZM78.7262 398.25C76.7367 398.25 75.1325 397.63 73.9137 396.391C72.7054 395.151 72.1012 393.417 72.1012 391.188V381.625C72.1012 378.958 72.6273 376.917 73.6794 375.5C74.7419 374.083 76.4658 373.375 78.8512 373.375C80.1533 373.375 81.3096 373.615 82.32 374.094C83.3408 374.573 84.1429 375.292 84.7262 376.25C85.3096 377.198 85.6012 378.396 85.6012 379.844V384.219H80.1325V380.375C80.1325 379.552 80.0283 379 79.82 378.719C79.6117 378.427 79.2887 378.281 78.8512 378.281C78.3408 378.281 77.9971 378.469 77.82 378.844C77.6429 379.208 77.5544 379.698 77.5544 380.312V391.266C77.5544 392.026 77.6637 392.562 77.8825 392.875C78.1117 393.188 78.4346 393.344 78.8512 393.344C79.32 393.344 79.6481 393.151 79.8356 392.766C80.0335 392.38 80.1325 391.88 80.1325 391.266V387.719H85.6637V391.359C85.6637 393.776 85.0544 395.531 83.8356 396.625C82.6169 397.708 80.9137 398.25 78.7262 398.25ZM87.8275 398V373.625H93.2962V382.281H95.89V373.625H101.359V398H95.89V387.484H93.2962V398H87.8275ZM104.116 398V373.625H115.116V378.938H109.71V382.969H114.897V388.141H109.71V392.641H115.476V398H104.116ZM117.624 398V373.625H125.202C127.181 373.625 128.665 374.177 129.655 375.281C130.655 376.375 131.155 377.979 131.155 380.094V389.844C131.155 392.448 130.702 394.458 129.796 395.875C128.889 397.292 127.296 398 125.014 398H117.624ZM123.155 393.141H124.108C125.119 393.141 125.624 392.651 125.624 391.672V380.609C125.624 379.693 125.499 379.104 125.249 378.844C125.009 378.573 124.514 378.438 123.764 378.438H123.155V393.141ZM140.084 398.25C137.793 398.25 136.105 397.609 135.022 396.328C133.939 395.036 133.397 393.141 133.397 390.641V373.625H138.741V390.578C138.741 391.036 138.767 391.479 138.819 391.906C138.871 392.323 138.991 392.667 139.178 392.938C139.366 393.208 139.668 393.344 140.084 393.344C140.511 393.344 140.819 393.214 141.006 392.953C141.194 392.682 141.308 392.333 141.35 391.906C141.402 391.479 141.428 391.036 141.428 390.578V373.625H146.772V390.641C146.772 393.141 146.23 395.036 145.147 396.328C144.064 397.609 142.376 398.25 140.084 398.25ZM149.201 398V373.625H154.701V393.312H160.357V398H149.201ZM161.99 398V373.625H167.302V398H161.99ZM169.81 398V373.625H175.466L178.31 386.844V373.625H183.31V398H177.935L174.872 384.797V398H169.81ZM191.739 398.25C187.812 398.25 185.849 395.438 185.849 389.812V381.172C185.849 376.036 188.099 373.469 192.599 373.469C194.453 373.469 195.875 373.807 196.864 374.484C197.854 375.151 198.536 376.109 198.911 377.359C199.286 378.609 199.474 380.115 199.474 381.875H194.099V380.625C194.099 380.031 194.015 379.536 193.849 379.141C193.693 378.734 193.359 378.531 192.849 378.531C192.213 378.531 191.791 378.745 191.583 379.172C191.385 379.599 191.286 380.068 191.286 380.578V390.688C191.286 391.427 191.38 392.031 191.568 392.5C191.765 392.958 192.146 393.188 192.708 393.188C193.291 393.188 193.677 392.958 193.864 392.5C194.062 392.031 194.161 391.417 194.161 390.656V388.688H192.693V383.938H199.411V398H197.208L196.271 395.688C195.312 397.396 193.802 398.25 191.739 398.25Z" fill="black"/>
<path d="M-1.80149 98V87.0909H2.087C2.93217 87.0909 3.63352 87.2365 4.19105 87.5277C4.75213 87.8189 5.17116 88.2219 5.44815 88.7369C5.72514 89.2482 5.86364 89.8395 5.86364 90.5107C5.86364 91.1783 5.72337 91.766 5.44283 92.2738C5.16584 92.7781 4.7468 93.1705 4.18572 93.451C3.6282 93.7315 2.92685 93.8718 2.08168 93.8718H-0.863991V92.4549H1.93253C2.4652 92.4549 2.89844 92.3786 3.23224 92.2259C3.5696 92.0732 3.81641 91.8512 3.97266 91.56C4.12891 91.2688 4.20703 90.919 4.20703 90.5107C4.20703 90.0987 4.12713 89.7418 3.96733 89.44C3.81108 89.1381 3.56428 88.9073 3.22692 88.7475C2.89311 88.5842 2.45455 88.5025 1.91122 88.5025H-0.15554V98H-1.80149ZM3.58381 93.0781L6.27912 98H4.40412L1.76207 93.0781H3.58381ZM9.51243 87.0909V98H7.86648V87.0909H9.51243ZM12.831 98H11.0838L15.0096 87.0909H16.9112L20.837 98H19.0898L16.0057 89.0724H15.9205L12.831 98ZM13.1239 93.728H18.7915V95.1129H13.1239V93.728ZM31.2174 87.0909V98H29.7046L24.1595 89.9993H24.0583V98H22.4124V87.0909H23.9358L29.4862 95.1023H29.5874V87.0909H31.2174ZM42.4235 87.0909V98H40.9107L35.3656 89.9993H35.2644V98H33.6184V87.0909H35.1419L40.6923 95.1023H40.7935V87.0909H42.4235ZM45.746 98H43.9988L47.9246 87.0909H49.8263L53.752 98H52.0049L48.9207 89.0724H48.8355L45.746 98ZM46.039 93.728H51.7066V95.1129H46.039V93.728ZM60.2187 98H58.4715L62.3973 87.0909H64.2989L68.2247 98H66.4775L63.3934 89.0724H63.3082L60.2187 98ZM60.5116 93.728H66.1792V95.1129H60.5116V93.728ZM71.446 87.0909V98H69.8001V87.0909H71.446ZM73.843 98V87.0909H77.7315C78.5767 87.0909 79.2781 87.2365 79.8356 87.5277C80.3967 87.8189 80.8157 88.2219 81.0927 88.7369C81.3697 89.2482 81.5082 89.8395 81.5082 90.5107C81.5082 91.1783 81.3679 91.766 81.0874 92.2738C80.8104 92.7781 80.3913 93.1705 79.8303 93.451C79.2727 93.7315 78.5714 93.8718 77.7262 93.8718H74.7805V92.4549H77.5771C78.1097 92.4549 78.543 92.3786 78.8768 92.2259C79.2141 92.0732 79.4609 91.8512 79.6172 91.56C79.7734 91.2688 79.8516 90.919 79.8516 90.5107C79.8516 90.0987 79.7717 89.7418 79.6119 89.44C79.4556 89.1381 79.2088 88.9073 78.8714 88.7475C78.5376 88.5842 78.0991 88.5025 77.5558 88.5025H75.489V98H73.843ZM79.2283 93.0781L81.9237 98H80.0487L77.4066 93.0781H79.2283Z" fill="black"/>
</g>
<defs>
<clipPath id="clip0_190_384">
<rect width="800" height="600" fill="white"/>
</clipPath>
</defs>
</svg>
