<svg width="800" height="600" viewBox="0 0 800 600" fill="none" xmlns="http://www.w3.org/2000/svg">
<g clip-path="url(#clip0_190_162)">
<rect width="800" height="600" fill="white"/>
<ellipse cx="8.5" cy="25.5" rx="8.5" ry="25.5" transform="matrix(-1 0 0 1 38 410)" fill="#D9D9D9"/>
<ellipse cx="12" cy="10.5" rx="12" ry="10.5" transform="matrix(-1 0 0 1 41 393)" fill="#D9D9D9"/>
<ellipse cx="1" cy="0.5" rx="1" ry="0.5" transform="matrix(-1 0 0 1 33 401)" fill="black"/>
<ellipse cx="1" cy="0.5" rx="1" ry="0.5" transform="matrix(-1 0 0 1 29 401)" fill="black"/>
<line y1="-0.5" x2="3.16228" y2="-0.5" transform="matrix(-0.948683 -0.316228 -0.316228 0.948683 29 400)" stroke="black"/>
<line y1="-0.5" x2="3.60555" y2="-0.5" transform="matrix(-0.83205 0.5547 0.5547 0.83205 33 399)" stroke="black"/>
<path d="M20 396L19 389H28L34.5 387L36.5 394L29 392L20 396Z" fill="#08366A"/>
<path d="M36.5 394L29 392L20 396L19 389H28L34.5 387L36.5 394ZM36.5 394L45 391" stroke="#08366A" stroke-width="3"/>
<path d="M33.5 413.5L30 416M30 416L25 413.5M30 416L31 429M30 416L32.5 423.5L31 429M30 416L28.5 423.5L31 429" stroke="#08366A" stroke-width="3"/>
<ellipse cx="8.5" cy="18.5" rx="8.5" ry="18.5" transform="matrix(-1 0 0 1 192 434)" fill="#D9D9D9"/>
<path d="M188 437L184.5 439.5M184.5 439.5L179.5 437M184.5 439.5L185.5 452.5M184.5 439.5L187 447L185.5 452.5M184.5 439.5L183 447L185.5 452.5" stroke="#08366A" stroke-width="3"/>
<ellipse cx="12" cy="10.5" rx="12" ry="10.5" transform="matrix(-1 0 0 1 195 415)" fill="#D9D9D9"/>
<path d="M174 418L173 411H182L188.5 409L190.5 416L183 414L174 418Z" fill="#08366A"/>
<path d="M190.5 416L183 414L174 418L173 411H182L188.5 409L190.5 416ZM190.5 416L199 413" stroke="#08366A" stroke-width="3"/>
<ellipse cx="1" cy="0.5" rx="1" ry="0.5" transform="matrix(-1 0 0 1 187 423)" fill="black"/>
<ellipse cx="1" cy="0.5" rx="1" ry="0.5" transform="matrix(-1 0 0 1 183 423)" fill="black"/>
<line y1="-0.5" x2="3.16228" y2="-0.5" transform="matrix(-0.948683 -0.316228 -0.316228 0.948683 183 422)" stroke="black"/>
<line y1="-0.5" x2="3.60555" y2="-0.5" transform="matrix(-0.83205 0.5547 0.5547 0.83205 187 421)" stroke="black"/>
<path d="M366.595 429.5C358.595 436 344.195 450.9 350.595 458.5M370.096 431.5C371.762 440.5 376.296 457.6 381.096 454M356.596 475.5C361.796 467.9 367.262 441.5 366.595 434C368.262 446 378.096 474.5 380.096 474.5" stroke="black" stroke-width="3"/>
<path d="M368.096 407.5C376.155 407.5 382.596 413.369 382.596 420.5C382.596 427.631 376.155 433.5 368.096 433.5C360.037 433.5 353.596 427.631 353.596 420.5C353.596 413.369 360.037 407.5 368.096 407.5Z" fill="white" stroke="black"/>
<circle cx="366.096" cy="418" r="1.5" stroke="black"/>
<circle cx="373.096" cy="419" r="1.5" stroke="black"/>
<path d="M-169 480H242.5H435M800 480H488H435M435 480V266C436 238.833 459.1 185.7 543.5 190.5H745.5H800" stroke="black" stroke-width="3"/>
<path d="M-5.5 450.5V480.5H146.5V450.5H120.5H60H-5.5Z" fill="white"/>
<path d="M60 422.5V450.5H120.5V422.5H60Z" fill="black"/>
<path d="M199 480.5L199 450.5H173V480.5H199Z" fill="white"/>
<path d="M-5.5 480.5V450.5H60M-5.5 480.5H199M-5.5 480.5H146.5V450.5M199 480.5L199 450.5H173M199 480.5H173V450.5M60 450.5V422.5H120.5V450.5M60 450.5H120.5M120.5 450.5H146.5M146.5 450.5V398C146.5 396.343 147.843 395 149.5 395H170C171.657 395 173 396.343 173 398V450.5M146.5 450.5H173" stroke="#010101" stroke-width="4"/>
<rect x="520.5" y="259.5" width="271" height="176" rx="36.5" stroke="black" stroke-width="3"/>
<path d="M701.5 335L691 307L721 300L741.5 326.5L701.5 335Z" stroke="#08366A" stroke-width="3"/>
<path d="M749 317L735 302H745.5L758 311L749 317Z" stroke="#08366A" stroke-width="3"/>
<path d="M762 288L752.5 298.5L762 302.5V288Z" stroke="#08366A" stroke-width="3"/>
<path d="M608.884 221.099C608.609 220.238 608.24 219.466 607.776 218.784C607.321 218.093 606.777 217.506 606.142 217.023C605.508 216.53 604.783 216.156 603.969 215.901C603.164 215.645 602.278 215.517 601.312 215.517C599.674 215.517 598.197 215.938 596.881 216.781C595.564 217.624 594.523 218.86 593.756 220.489C592.998 222.108 592.619 224.092 592.619 226.44C592.619 228.798 593.003 230.792 593.77 232.42C594.537 234.049 595.588 235.285 596.923 236.128C598.259 236.971 599.778 237.392 601.483 237.392C603.064 237.392 604.442 237.07 605.616 236.426C606.8 235.782 607.714 234.873 608.358 233.699C609.011 232.515 609.338 231.123 609.338 229.523L610.474 229.736H602.151V226.114H613.585V229.423C613.585 231.866 613.064 233.988 612.023 235.787C610.991 237.577 609.561 238.959 607.733 239.935C605.915 240.91 603.831 241.398 601.483 241.398C598.85 241.398 596.54 240.792 594.551 239.58C592.572 238.367 591.028 236.649 589.92 234.423C588.813 232.188 588.259 229.537 588.259 226.469C588.259 224.149 588.58 222.065 589.224 220.219C589.868 218.372 590.773 216.805 591.938 215.517C593.112 214.22 594.49 213.23 596.071 212.548C597.662 211.857 599.4 211.511 601.284 211.511C602.856 211.511 604.319 211.743 605.673 212.207C607.037 212.671 608.249 213.33 609.31 214.182C610.38 215.034 611.265 216.047 611.966 217.222C612.667 218.386 613.14 219.679 613.386 221.099H608.884ZM620.716 241H616.057L626.526 211.909H631.597L642.065 241H637.406L629.182 217.193H628.955L620.716 241ZM621.497 229.608H636.611V233.301H621.497V229.608ZM641.394 215.688V211.909H663.908V215.688H654.832V241H650.457V215.688H641.394ZM668.884 241V211.909H687.122V215.688H673.273V224.551H686.17V228.315H673.273V237.222H687.293V241H668.884ZM703.173 241V237.818L713.017 227.619C714.068 226.511 714.935 225.541 715.616 224.707C716.308 223.865 716.824 223.064 717.165 222.307C717.506 221.549 717.676 220.744 717.676 219.892C717.676 218.926 717.449 218.093 716.994 217.392C716.54 216.682 715.92 216.137 715.134 215.759C714.348 215.37 713.462 215.176 712.477 215.176C711.436 215.176 710.527 215.389 709.75 215.815C708.973 216.241 708.377 216.843 707.96 217.619C707.544 218.396 707.335 219.305 707.335 220.347H703.145C703.145 218.576 703.552 217.027 704.366 215.702C705.181 214.376 706.298 213.348 707.719 212.619C709.139 211.881 710.754 211.511 712.562 211.511C714.39 211.511 716 211.876 717.392 212.605C718.794 213.325 719.887 214.31 720.673 215.56C721.459 216.8 721.852 218.202 721.852 219.764C721.852 220.844 721.649 221.9 721.241 222.932C720.844 223.964 720.148 225.115 719.153 226.384C718.159 227.643 716.777 229.172 715.006 230.972L709.224 237.023V237.236H722.321V241H703.173Z" fill="black"/>
</g>
<defs>
<clipPath id="clip0_190_162">
<rect width="800" height="600" fill="white"/>
</clipPath>
</defs>
</svg>
