<svg width="800" height="600" viewBox="0 0 800 600" fill="none" xmlns="http://www.w3.org/2000/svg">
<g clip-path="url(#clip0_190_20)">
<rect width="800" height="600" fill="white"/>
<path d="M0 480.5H88.5M800 480.5H165.5M165.5 480.5L450 196H545.5M165.5 480.5H94.5H88.5M800 196H545.5M545.5 196V169.5C545.5 155.141 533.859 143.5 519.5 143.5H440.198C434.629 143.5 429.288 145.712 425.349 149.651L149.151 425.849C145.212 429.788 139.871 432 134.302 432H114.5C100.141 432 88.5 443.641 88.5 458V480.5" stroke="black" stroke-width="3"/>
<path fill-rule="evenodd" clip-rule="evenodd" d="M52 533H-487C-487 453.5 -477 356 -382 356H52V533ZM-362.5 376V456H-250V376H-362.5ZM-223 456V376H-114.5V456H-223ZM28.0006 456V376H-92V456H28.0006ZM-463.199 456C-458.612 414.166 -443.166 376 -394.481 376V456H-463.199Z" fill="white" stroke="black" stroke-width="3"/>
<path d="M605.999 144.5C597.999 151 583.599 165.9 589.999 173.5M609.5 146.5C611.167 155.5 615.7 172.6 620.5 169M596 190.5C601.2 182.9 606.666 156.5 605.999 149C607.666 161 617.5 189.5 619.5 189.5" stroke="black" stroke-width="3"/>
<path d="M607.5 122.5C615.559 122.5 622 128.369 622 135.5C622 142.631 615.559 148.5 607.5 148.5C599.441 148.5 593 142.631 593 135.5C593 128.369 599.441 122.5 607.5 122.5Z" fill="white" stroke="black"/>
<circle cx="605.5" cy="133" r="1.5" stroke="black"/>
<circle cx="612.5" cy="134" r="1.5" stroke="black"/>
<path d="M578.5 191L571 187L578.5 173.5L587 179L578.5 191Z" fill="#D9D9D9"/>
<path d="M587 179L578.5 191L571 187L578.5 173.5L587 179ZM587 179L593.5 170.5" stroke="#B80000" stroke-width="3"/>
<rect x="49" y="145" width="194" height="37" stroke="black" stroke-width="2"/>
<path d="M93.5526 170V168.266L100.448 158.591H93.5391V156.182H104.119V157.916L97.2163 167.591H104.132V170H93.5526ZM108.756 170H105.625L110.395 156.182H114.16L118.924 170H115.793L112.332 159.339H112.224L108.756 170ZM108.56 164.569H115.955V166.849H108.56V164.569ZM121.358 156.182L124.697 166.68H124.826L128.172 156.182H131.411L126.647 170H122.882L118.112 156.182H121.358ZM133.074 170V156.182H142.385V158.591H135.996V161.883H141.906V164.292H135.996V167.591H142.412V170H133.074ZM156.266 156.182V170H153.742L147.731 161.303H147.629V170H144.708V156.182H147.272L153.236 164.872H153.358V156.182H156.266ZM158.153 158.591V156.182H169.502V158.591H165.271V170H162.384V158.591H158.153ZM171.371 170V156.182H180.682V158.591H174.292V161.883H180.203V164.292H174.292V167.591H180.709V170H171.371ZM183.005 156.182H186.608L190.413 165.466H190.575L194.38 156.182H197.983V170H195.15V161.006H195.035L191.459 169.933H189.529L185.953 160.972H185.839V170H183.005V156.182Z" fill="black"/>
</g>
<defs>
<clipPath id="clip0_190_20">
<rect width="800" height="600" fill="white"/>
</clipPath>
</defs>
</svg>
