<svg width="800" height="600" viewBox="0 0 800 600" fill="none" xmlns="http://www.w3.org/2000/svg">
<g clip-path="url(#clip0_190_441)">
<rect width="800" height="600" fill="white"/>
<ellipse cx="691.5" cy="452.5" rx="8.5" ry="18.5" fill="#D9D9D9"/>
<path d="M687 437L690.5 439.5M690.5 439.5L695.5 437M690.5 439.5L689.5 452.5M690.5 439.5L688 447L689.5 452.5M690.5 439.5L692 447L689.5 452.5" stroke="#08366A" stroke-width="3"/>
<ellipse cx="692" cy="425.5" rx="12" ry="10.5" fill="#D9D9D9"/>
<path d="M701 418L702 411H693L686.5 409L684.5 416L692 414L701 418Z" fill="#08366A"/>
<path d="M684.5 416L692 414L701 418L702 411H693L686.5 409L684.5 416ZM684.5 416L676 413" stroke="#08366A" stroke-width="3"/>
<ellipse cx="537.5" cy="435.5" rx="8.5" ry="25.5" fill="#D9D9D9"/>
<path d="M402.595 429.5C394.595 436 380.195 450.9 386.595 458.5M406.096 431.5C407.762 440.5 412.296 457.6 417.096 454M392.596 475.5C397.796 467.9 403.262 441.5 402.595 434C404.262 446 414.096 474.5 416.096 474.5" stroke="black" stroke-width="3"/>
<path d="M404.096 407.5C412.155 407.5 418.596 413.369 418.596 420.5C418.596 427.631 412.155 433.5 404.096 433.5C396.037 433.5 389.596 427.631 389.596 420.5C389.596 413.369 396.037 407.5 404.096 407.5Z" fill="white" stroke="black"/>
<circle cx="402.096" cy="418" r="1.5" stroke="black"/>
<circle cx="409.096" cy="419" r="1.5" stroke="black"/>
<path d="M-464 195.5H-209.5M-209.5 195.5H-114L170.5 480H241.5H247.5M-209.5 195.5V169C-209.5 154.641 -197.859 143 -183.5 143H-104.198C-98.6289 143 -93.2875 145.212 -89.3492 149.151L186.849 425.349C190.788 429.288 196.129 431.5 201.698 431.5H221.5C235.859 431.5 247.5 443.141 247.5 457.5V480M247.5 480H336H747.5" stroke="black" stroke-width="3"/>
<path d="M499.5 450.5V480.5H651.5V450.5H625.5H565H499.5Z" fill="white"/>
<path d="M565 422.5V450.5H625.5V422.5H565Z" fill="black"/>
<path d="M704 480.5L704 450.5H678V480.5H704Z" fill="white"/>
<path d="M499.5 480.5V450.5H565M499.5 480.5H704M499.5 480.5H651.5V450.5M704 480.5L704 450.5H678M704 480.5H678V450.5M565 450.5V422.5H625.5V450.5M565 450.5H625.5M625.5 450.5H651.5M651.5 450.5V398C651.5 396.343 652.843 395 654.5 395H675C676.657 395 678 396.343 678 398V450.5M651.5 450.5H678" stroke="#010101" stroke-width="4"/>
<ellipse cx="538" cy="403.5" rx="12" ry="10.5" fill="#D9D9D9"/>
<ellipse cx="535" cy="401.5" rx="1" ry="0.5" fill="black"/>
<ellipse cx="689" cy="423.5" rx="1" ry="0.5" fill="black"/>
<ellipse cx="539" cy="401.5" rx="1" ry="0.5" fill="black"/>
<ellipse cx="693" cy="423.5" rx="1" ry="0.5" fill="black"/>
<line x1="537.842" y1="399.526" x2="540.842" y2="398.526" stroke="black"/>
<line x1="691.842" y1="421.526" x2="694.842" y2="420.526" stroke="black"/>
<line x1="534.277" y1="398.584" x2="537.277" y2="400.584" stroke="black"/>
<line x1="688.277" y1="420.584" x2="691.277" y2="422.584" stroke="black"/>
<path d="M547 396L548 389H539L532.5 387L530.5 394L538 392L547 396Z" fill="#08366A"/>
<path d="M530.5 394L538 392L547 396L548 389H539L532.5 387L530.5 394ZM530.5 394L522 391" stroke="#08366A" stroke-width="3"/>
<path d="M533.5 413.5L537 416M537 416L542 413.5M537 416L536 429M537 416L534.5 423.5L536 429M537 416L538.5 423.5L536 429" stroke="#08366A" stroke-width="3"/>
<path d="M549.293 349.707C549.683 350.098 550.317 350.098 550.707 349.707L557.071 343.343C557.462 342.953 557.462 342.319 557.071 341.929C556.681 341.538 556.047 341.538 555.657 341.929L550 347.586L544.343 341.929C543.953 341.538 543.319 341.538 542.929 341.929C542.538 342.319 542.538 342.953 542.929 343.343L549.293 349.707ZM550 143L549 143L549 349L550 349L551 349L551 143L550 143Z" fill="black"/>
<path d="M562.75 171.25C560.24 171.25 558.427 170.625 557.312 169.375C556.208 168.125 555.656 166.135 555.656 163.406V160.719H561.094V164.156C561.094 164.792 561.188 165.292 561.375 165.656C561.573 166.01 561.911 166.188 562.391 166.188C562.891 166.188 563.234 166.042 563.422 165.75C563.62 165.458 563.719 164.979 563.719 164.312C563.719 163.469 563.635 162.766 563.469 162.203C563.302 161.63 563.01 161.089 562.594 160.578C562.188 160.057 561.62 159.453 560.891 158.766L558.422 156.422C556.578 154.682 555.656 152.693 555.656 150.453C555.656 148.109 556.198 146.323 557.281 145.094C558.375 143.865 559.953 143.25 562.016 143.25C564.536 143.25 566.323 143.922 567.375 145.266C568.438 146.609 568.969 148.651 568.969 151.391H563.375V149.5C563.375 149.125 563.266 148.833 563.047 148.625C562.839 148.417 562.552 148.312 562.188 148.312C561.75 148.312 561.427 148.438 561.219 148.688C561.021 148.927 560.922 149.24 560.922 149.625C560.922 150.01 561.026 150.427 561.234 150.875C561.443 151.323 561.854 151.839 562.469 152.422L565.641 155.469C566.276 156.073 566.859 156.714 567.391 157.391C567.922 158.057 568.349 158.839 568.672 159.734C568.995 160.62 569.156 161.703 569.156 162.984C569.156 165.568 568.677 167.594 567.719 169.062C566.771 170.521 565.115 171.25 562.75 171.25ZM571.32 171V146.625H576.789V155.281H579.382V146.625H584.851V171H579.382V160.484H576.789V171H571.32ZM587.359 171V146.625H592.671V171H587.359ZM595.179 171V146.625H606.179V151.938H600.772V156.359H605.96V161.531H600.772V171H595.179ZM611.046 171V151.906H607.78V146.625H619.811V151.906H616.546V171H611.046ZM562.75 219.25C560.24 219.25 558.427 218.625 557.312 217.375C556.208 216.125 555.656 214.135 555.656 211.406V208.719H561.094V212.156C561.094 212.792 561.188 213.292 561.375 213.656C561.573 214.01 561.911 214.188 562.391 214.188C562.891 214.188 563.234 214.042 563.422 213.75C563.62 213.458 563.719 212.979 563.719 212.312C563.719 211.469 563.635 210.766 563.469 210.203C563.302 209.63 563.01 209.089 562.594 208.578C562.188 208.057 561.62 207.453 560.891 206.766L558.422 204.422C556.578 202.682 555.656 200.693 555.656 198.453C555.656 196.109 556.198 194.323 557.281 193.094C558.375 191.865 559.953 191.25 562.016 191.25C564.536 191.25 566.323 191.922 567.375 193.266C568.438 194.609 568.969 196.651 568.969 199.391H563.375V197.5C563.375 197.125 563.266 196.833 563.047 196.625C562.839 196.417 562.552 196.312 562.188 196.312C561.75 196.312 561.427 196.438 561.219 196.688C561.021 196.927 560.922 197.24 560.922 197.625C560.922 198.01 561.026 198.427 561.234 198.875C561.443 199.323 561.854 199.839 562.469 200.422L565.641 203.469C566.276 204.073 566.859 204.714 567.391 205.391C567.922 206.057 568.349 206.839 568.672 207.734C568.995 208.62 569.156 209.703 569.156 210.984C569.156 213.568 568.677 215.594 567.719 217.062C566.771 218.521 565.115 219.25 562.75 219.25ZM577.726 219.25C575.737 219.25 574.132 218.63 572.914 217.391C571.705 216.151 571.101 214.417 571.101 212.188V202.625C571.101 199.958 571.627 197.917 572.679 196.5C573.742 195.083 575.466 194.375 577.851 194.375C579.153 194.375 580.31 194.615 581.32 195.094C582.341 195.573 583.143 196.292 583.726 197.25C584.31 198.198 584.601 199.396 584.601 200.844V205.219H579.132V201.375C579.132 200.552 579.028 200 578.82 199.719C578.612 199.427 578.289 199.281 577.851 199.281C577.341 199.281 576.997 199.469 576.82 199.844C576.643 200.208 576.554 200.698 576.554 201.312V212.266C576.554 213.026 576.664 213.562 576.882 213.875C577.112 214.188 577.435 214.344 577.851 214.344C578.32 214.344 578.648 214.151 578.836 213.766C579.034 213.38 579.132 212.88 579.132 212.266V208.719H584.664V212.359C584.664 214.776 584.054 216.531 582.836 217.625C581.617 218.708 579.914 219.25 577.726 219.25ZM586.827 219V194.625H592.296V203.281H594.89V194.625H600.359V219H594.89V208.484H592.296V219H586.827ZM603.116 219V194.625H614.116V199.938H608.71V203.969H613.897V209.141H608.71V213.641H614.476V219H603.116ZM616.624 219V194.625H624.202C626.181 194.625 627.665 195.177 628.655 196.281C629.655 197.375 630.155 198.979 630.155 201.094V210.844C630.155 213.448 629.702 215.458 628.796 216.875C627.889 218.292 626.296 219 624.014 219H616.624ZM622.155 214.141H623.108C624.119 214.141 624.624 213.651 624.624 212.672V201.609C624.624 200.693 624.499 200.104 624.249 199.844C624.009 199.573 623.514 199.438 622.764 199.438H622.155V214.141ZM639.084 219.25C636.793 219.25 635.105 218.609 634.022 217.328C632.939 216.036 632.397 214.141 632.397 211.641V194.625H637.741V211.578C637.741 212.036 637.767 212.479 637.819 212.906C637.871 213.323 637.991 213.667 638.178 213.938C638.366 214.208 638.668 214.344 639.084 214.344C639.511 214.344 639.819 214.214 640.006 213.953C640.194 213.682 640.308 213.333 640.35 212.906C640.402 212.479 640.428 212.036 640.428 211.578V194.625H645.772V211.641C645.772 214.141 645.23 216.036 644.147 217.328C643.064 218.609 641.376 219.25 639.084 219.25ZM648.201 219V194.625H653.701V214.312H659.357V219H648.201ZM660.99 219V194.625H666.302V219H660.99ZM668.81 219V194.625H674.466L677.31 207.844V194.625H682.31V219H676.935L673.872 205.797V219H668.81ZM690.739 219.25C686.812 219.25 684.849 216.438 684.849 210.812V202.172C684.849 197.036 687.099 194.469 691.599 194.469C693.453 194.469 694.875 194.807 695.864 195.484C696.854 196.151 697.536 197.109 697.911 198.359C698.286 199.609 698.474 201.115 698.474 202.875H693.099V201.625C693.099 201.031 693.015 200.536 692.849 200.141C692.693 199.734 692.359 199.531 691.849 199.531C691.213 199.531 690.791 199.745 690.583 200.172C690.385 200.599 690.286 201.068 690.286 201.578V211.688C690.286 212.427 690.38 213.031 690.568 213.5C690.765 213.958 691.146 214.188 691.708 214.188C692.291 214.188 692.677 213.958 692.864 213.5C693.062 213.031 693.161 212.417 693.161 211.656V209.688H691.693V204.938H698.411V219H696.208L695.271 216.688C694.312 218.396 692.802 219.25 690.739 219.25Z" fill="black"/>
</g>
<defs>
<clipPath id="clip0_190_441">
<rect width="800" height="600" fill="white"/>
</clipPath>
</defs>
</svg>
