<svg width="800" height="600" viewBox="0 0 800 600" fill="none" xmlns="http://www.w3.org/2000/svg">
<g clip-path="url(#clip0_190_37)">
<rect width="800" height="600" fill="white"/>
<path d="M-393 480.5H-304.5M85.5 480.5H-227.5M-227.5 480.5L57 196H152.5M-227.5 480.5H-298.5H-304.5M152.5 196H407H615M152.5 196V169.5C152.5 155.141 140.859 143.5 126.5 143.5H47.1985C41.6289 143.5 36.2875 145.712 32.3492 149.651L-243.849 425.849C-247.788 429.788 -253.129 432 -258.698 432H-278.5C-292.859 432 -304.5 443.641 -304.5 458V480.5" stroke="black" stroke-width="3"/>
<path d="M367.999 144.5C359.999 151 345.599 165.9 351.999 173.5M371.5 146.5C373.167 155.5 377.7 172.6 382.5 169M358 190.5C363.2 182.9 368.666 156.5 367.999 149C369.666 161 379.5 189.5 381.5 189.5" stroke="black" stroke-width="3"/>
<path d="M369.5 122.5C377.559 122.5 384 128.369 384 135.5C384 142.631 377.559 148.5 369.5 148.5C361.441 148.5 355 142.631 355 135.5C355 128.369 361.441 122.5 369.5 122.5Z" fill="white" stroke="black"/>
<circle cx="367.5" cy="133" r="1.5" stroke="black"/>
<circle cx="374.5" cy="134" r="1.5" stroke="black"/>
<path d="M340.5 191L333 187L340.5 173.5L349 179L340.5 191Z" fill="#D9D9D9"/>
<path d="M349 179L340.5 191L333 187L340.5 173.5L349 179ZM349 179L355.5 170.5" stroke="#B80000" stroke-width="3"/>
<path d="M447 38.5V196H587.5V38.5H447Z" stroke="#010101" stroke-width="3"/>
<rect x="458" y="50" width="121" height="133" fill="#E3E3E3"/>
<path d="M464.278 94V82.3636H468.54C469.366 82.3636 470.049 82.5 470.591 82.7727C471.133 83.0417 471.538 83.4072 471.807 83.8693C472.076 84.3277 472.21 84.8447 472.21 85.4205C472.21 85.9053 472.121 86.3144 471.943 86.6477C471.765 86.9773 471.527 87.2424 471.227 87.4432C470.932 87.6402 470.606 87.7841 470.25 87.875V87.9886C470.636 88.0076 471.013 88.1326 471.381 88.3636C471.752 88.5909 472.059 88.9148 472.301 89.3352C472.544 89.7557 472.665 90.267 472.665 90.8693C472.665 91.464 472.525 91.9981 472.244 92.4716C471.968 92.9413 471.54 93.3144 470.96 93.5909C470.381 93.8636 469.64 94 468.739 94H464.278ZM466.034 92.4943H468.568C469.409 92.4943 470.011 92.3314 470.375 92.0057C470.739 91.6799 470.92 91.2727 470.92 90.7841C470.92 90.4167 470.828 90.0795 470.642 89.7727C470.456 89.4659 470.191 89.2216 469.847 89.0398C469.506 88.858 469.1 88.767 468.631 88.767H466.034V92.4943ZM466.034 87.3977H468.386C468.78 87.3977 469.134 87.322 469.449 87.1705C469.767 87.0189 470.019 86.8068 470.205 86.5341C470.394 86.2576 470.489 85.9318 470.489 85.5568C470.489 85.0758 470.32 84.6723 469.983 84.3466C469.646 84.0208 469.129 83.858 468.432 83.858H466.034V87.3977ZM475.73 94H473.866L478.054 82.3636H480.082L484.27 94H482.406L479.116 84.4773H479.026L475.73 94ZM476.043 89.4432H482.088V90.9205H476.043V89.4432ZM485.95 94V82.3636H487.706V92.4886H492.979V94H485.95ZM494.982 94V82.3636H502.277V83.875H496.737V87.4205H501.896V88.9261H496.737V92.4886H502.345V94H494.982ZM514.014 82.3636V94H512.401L506.486 85.4659H506.378V94H504.622V82.3636H506.247L512.168 90.9091H512.276V82.3636H514.014ZM526.24 86.1477H524.467C524.399 85.7689 524.272 85.4356 524.087 85.1477C523.901 84.8598 523.674 84.6155 523.405 84.4148C523.136 84.214 522.835 84.0625 522.501 83.9602C522.172 83.858 521.821 83.8068 521.45 83.8068C520.78 83.8068 520.179 83.9754 519.649 84.3125C519.123 84.6496 518.706 85.1439 518.399 85.7955C518.096 86.447 517.945 87.2424 517.945 88.1818C517.945 89.1288 518.096 89.928 518.399 90.5795C518.706 91.2311 519.125 91.7235 519.655 92.0568C520.185 92.3902 520.782 92.5568 521.445 92.5568C521.812 92.5568 522.161 92.5076 522.49 92.4091C522.823 92.3068 523.125 92.1572 523.393 91.9602C523.662 91.7633 523.89 91.5227 524.075 91.2386C524.265 90.9508 524.395 90.6212 524.467 90.25L526.24 90.2557C526.145 90.8277 525.962 91.3542 525.689 91.8352C525.42 92.3125 525.073 92.7254 524.649 93.0739C524.229 93.4186 523.748 93.6856 523.206 93.875C522.664 94.0644 522.073 94.1591 521.433 94.1591C520.426 94.1591 519.528 93.9205 518.74 93.4432C517.952 92.9621 517.331 92.2746 516.876 91.3807C516.426 90.4867 516.2 89.4205 516.2 88.1818C516.2 86.9394 516.428 85.8731 516.882 84.983C517.337 84.089 517.958 83.4034 518.746 82.9261C519.534 82.4451 520.429 82.2045 521.433 82.2045C522.051 82.2045 522.626 82.2936 523.161 82.4716C523.698 82.6458 524.181 82.9034 524.609 83.2443C525.037 83.5814 525.392 83.9943 525.672 84.483C525.952 84.9678 526.142 85.5227 526.24 86.1477ZM530.097 82.3636V94H528.341V82.3636H530.097ZM533.636 94H531.773L535.96 82.3636H537.989L542.176 94H540.312L537.023 84.4773H536.932L533.636 94ZM533.949 89.4432H539.994V90.9205H533.949V89.4432Z" fill="black"/>
<path d="M470.625 123.42C470.564 122.883 470.314 122.466 469.875 122.17C469.436 121.871 468.883 121.722 468.216 121.722C467.739 121.722 467.326 121.797 466.977 121.949C466.629 122.097 466.358 122.301 466.165 122.562C465.975 122.82 465.881 123.114 465.881 123.443C465.881 123.72 465.945 123.958 466.074 124.159C466.206 124.36 466.379 124.528 466.591 124.665C466.807 124.797 467.038 124.909 467.284 125C467.53 125.087 467.767 125.159 467.994 125.216L469.131 125.511C469.502 125.602 469.883 125.725 470.273 125.881C470.663 126.036 471.025 126.241 471.358 126.494C471.691 126.748 471.96 127.062 472.165 127.438C472.373 127.812 472.477 128.261 472.477 128.784C472.477 129.443 472.307 130.028 471.966 130.54C471.629 131.051 471.138 131.455 470.494 131.75C469.854 132.045 469.08 132.193 468.17 132.193C467.299 132.193 466.545 132.055 465.909 131.778C465.273 131.502 464.775 131.11 464.415 130.602C464.055 130.091 463.856 129.485 463.818 128.784H465.58C465.614 129.205 465.75 129.555 465.989 129.835C466.231 130.112 466.54 130.318 466.915 130.455C467.294 130.587 467.708 130.653 468.159 130.653C468.655 130.653 469.097 130.576 469.483 130.42C469.873 130.261 470.18 130.042 470.403 129.761C470.627 129.477 470.739 129.146 470.739 128.767C470.739 128.422 470.64 128.14 470.443 127.92C470.25 127.701 469.987 127.519 469.653 127.375C469.324 127.231 468.951 127.104 468.534 126.994L467.159 126.619C466.227 126.366 465.489 125.992 464.943 125.5C464.402 125.008 464.131 124.356 464.131 123.545C464.131 122.875 464.313 122.29 464.676 121.79C465.04 121.29 465.532 120.902 466.153 120.625C466.775 120.345 467.475 120.205 468.256 120.205C469.044 120.205 469.739 120.343 470.341 120.619C470.947 120.896 471.424 121.277 471.773 121.761C472.121 122.242 472.303 122.795 472.318 123.42H470.625ZM474.575 132V120.364H478.723C479.628 120.364 480.378 120.528 480.973 120.858C481.568 121.187 482.013 121.638 482.308 122.21C482.604 122.778 482.751 123.419 482.751 124.131C482.751 124.847 482.602 125.491 482.303 126.062C482.007 126.631 481.56 127.081 480.962 127.415C480.367 127.744 479.619 127.909 478.717 127.909H475.865V126.42H478.558C479.13 126.42 479.594 126.322 479.95 126.125C480.306 125.924 480.568 125.652 480.734 125.307C480.901 124.962 480.984 124.57 480.984 124.131C480.984 123.691 480.901 123.301 480.734 122.96C480.568 122.619 480.304 122.352 479.945 122.159C479.589 121.966 479.119 121.869 478.536 121.869H476.331V132H474.575ZM484.558 132H482.695L486.882 120.364H488.911L493.098 132H491.234L487.945 122.477H487.854L484.558 132ZM484.871 127.443H490.916V128.92H484.871V127.443ZM494.778 132V120.364H498.926C499.828 120.364 500.576 120.519 501.17 120.83C501.769 121.14 502.216 121.57 502.511 122.119C502.807 122.665 502.955 123.295 502.955 124.011C502.955 124.723 502.805 125.35 502.506 125.892C502.21 126.43 501.763 126.848 501.165 127.148C500.57 127.447 499.822 127.597 498.92 127.597H495.778V126.085H498.761C499.33 126.085 499.792 126.004 500.148 125.841C500.508 125.678 500.771 125.441 500.938 125.131C501.104 124.82 501.188 124.447 501.188 124.011C501.188 123.572 501.102 123.191 500.932 122.869C500.765 122.547 500.502 122.301 500.142 122.131C499.786 121.956 499.318 121.869 498.739 121.869H496.534V132H494.778ZM500.523 126.75L503.398 132H501.398L498.58 126.75H500.523ZM506.847 120.364V132H505.091V120.364H506.847ZM515.75 123.42C515.689 122.883 515.439 122.466 515 122.17C514.561 121.871 514.008 121.722 513.341 121.722C512.864 121.722 512.451 121.797 512.102 121.949C511.754 122.097 511.483 122.301 511.29 122.562C511.1 122.82 511.006 123.114 511.006 123.443C511.006 123.72 511.07 123.958 511.199 124.159C511.331 124.36 511.504 124.528 511.716 124.665C511.932 124.797 512.163 124.909 512.409 125C512.655 125.087 512.892 125.159 513.119 125.216L514.256 125.511C514.627 125.602 515.008 125.725 515.398 125.881C515.788 126.036 516.15 126.241 516.483 126.494C516.816 126.748 517.085 127.062 517.29 127.438C517.498 127.812 517.602 128.261 517.602 128.784C517.602 129.443 517.432 130.028 517.091 130.54C516.754 131.051 516.263 131.455 515.619 131.75C514.979 132.045 514.205 132.193 513.295 132.193C512.424 132.193 511.67 132.055 511.034 131.778C510.398 131.502 509.9 131.11 509.54 130.602C509.18 130.091 508.981 129.485 508.943 128.784H510.705C510.739 129.205 510.875 129.555 511.114 129.835C511.356 130.112 511.665 130.318 512.04 130.455C512.419 130.587 512.833 130.653 513.284 130.653C513.78 130.653 514.222 130.576 514.608 130.42C514.998 130.261 515.305 130.042 515.528 129.761C515.752 129.477 515.864 129.146 515.864 128.767C515.864 128.422 515.765 128.14 515.568 127.92C515.375 127.701 515.112 127.519 514.778 127.375C514.449 127.231 514.076 127.104 513.659 126.994L512.284 126.619C511.352 126.366 510.614 125.992 510.068 125.5C509.527 125.008 509.256 124.356 509.256 123.545C509.256 122.875 509.438 122.29 509.801 121.79C510.165 121.29 510.657 120.902 511.278 120.625C511.9 120.345 512.6 120.205 513.381 120.205C514.169 120.205 514.864 120.343 515.466 120.619C516.072 120.896 516.549 121.277 516.898 121.761C517.246 122.242 517.428 122.795 517.443 123.42H515.75Z" fill="black"/>
<path d="M474.386 145.182C474.386 146.424 474.159 147.492 473.705 148.386C473.25 149.277 472.627 149.962 471.835 150.443C471.047 150.92 470.152 151.159 469.148 151.159C468.14 151.159 467.241 150.92 466.449 150.443C465.661 149.962 465.04 149.275 464.585 148.381C464.131 147.487 463.903 146.42 463.903 145.182C463.903 143.939 464.131 142.873 464.585 141.983C465.04 141.089 465.661 140.403 466.449 139.926C467.241 139.445 468.14 139.205 469.148 139.205C470.152 139.205 471.047 139.445 471.835 139.926C472.627 140.403 473.25 141.089 473.705 141.983C474.159 142.873 474.386 143.939 474.386 145.182ZM472.648 145.182C472.648 144.235 472.494 143.437 472.188 142.79C471.884 142.138 471.468 141.646 470.938 141.312C470.411 140.975 469.814 140.807 469.148 140.807C468.477 140.807 467.879 140.975 467.352 141.312C466.826 141.646 466.409 142.138 466.102 142.79C465.799 143.437 465.648 144.235 465.648 145.182C465.648 146.129 465.799 146.928 466.102 147.58C466.409 148.227 466.826 148.72 467.352 149.057C467.879 149.39 468.477 149.557 469.148 149.557C469.814 149.557 470.411 149.39 470.938 149.057C471.468 148.72 471.884 148.227 472.188 147.58C472.494 146.928 472.648 146.129 472.648 145.182ZM482.922 142.42C482.861 141.883 482.611 141.466 482.172 141.17C481.732 140.871 481.179 140.722 480.513 140.722C480.036 140.722 479.623 140.797 479.274 140.949C478.926 141.097 478.655 141.301 478.462 141.562C478.272 141.82 478.178 142.114 478.178 142.443C478.178 142.72 478.242 142.958 478.371 143.159C478.503 143.36 478.676 143.528 478.888 143.665C479.104 143.797 479.335 143.909 479.581 144C479.827 144.087 480.064 144.159 480.291 144.216L481.428 144.511C481.799 144.602 482.179 144.725 482.57 144.881C482.96 145.036 483.321 145.241 483.655 145.494C483.988 145.748 484.257 146.062 484.462 146.438C484.67 146.812 484.774 147.261 484.774 147.784C484.774 148.443 484.604 149.028 484.263 149.54C483.926 150.051 483.435 150.455 482.791 150.75C482.151 151.045 481.376 151.193 480.467 151.193C479.596 151.193 478.842 151.055 478.206 150.778C477.57 150.502 477.071 150.11 476.712 149.602C476.352 149.091 476.153 148.485 476.115 147.784H477.876C477.911 148.205 478.047 148.555 478.286 148.835C478.528 149.112 478.837 149.318 479.212 149.455C479.59 149.587 480.005 149.653 480.456 149.653C480.952 149.653 481.393 149.576 481.78 149.42C482.17 149.261 482.477 149.042 482.7 148.761C482.924 148.477 483.036 148.146 483.036 147.767C483.036 147.422 482.937 147.14 482.74 146.92C482.547 146.701 482.284 146.519 481.95 146.375C481.621 146.231 481.248 146.104 480.831 145.994L479.456 145.619C478.524 145.366 477.786 144.992 477.24 144.5C476.698 144.008 476.428 143.356 476.428 142.545C476.428 141.875 476.609 141.29 476.973 140.79C477.337 140.29 477.829 139.902 478.45 139.625C479.071 139.345 479.772 139.205 480.553 139.205C481.34 139.205 482.036 139.343 482.638 139.619C483.244 139.896 483.721 140.277 484.07 140.761C484.418 141.242 484.6 141.795 484.615 142.42H482.922ZM487.761 151H485.898L490.085 139.364H492.114L496.301 151H494.438L491.148 141.477H491.057L487.761 151ZM488.074 146.443H494.119V147.92H488.074V146.443ZM497.982 151V139.364H499.737V144.92H499.879L504.76 139.364H506.97L502.277 144.602L506.987 151H504.874L501.112 145.801L499.737 147.381V151H497.982ZM508.607 151V139.364H515.902V140.875H510.362V144.42H515.521V145.926H510.362V149.489H515.97V151H508.607Z" fill="black"/>
<path d="M473.67 158.364V170H472.057L466.142 161.466H466.034V170H464.278V158.364H465.903L471.824 166.909H471.932V158.364H473.67ZM476.232 170V158.364H483.527V159.875H477.987V163.42H483.146V164.926H477.987V168.489H483.595V170H476.232ZM488.151 170L484.923 158.364H486.77L489.037 167.375H489.145L491.503 158.364H493.332L495.69 167.381H495.798L498.06 158.364H499.912L496.679 170H494.912L492.463 161.284H492.372L489.923 170H488.151ZM504.849 158.364H506.844L509.884 163.653H510.009L513.048 158.364H515.043L510.821 165.432V170H509.071V165.432L504.849 158.364ZM526.214 164.182C526.214 165.424 525.987 166.492 525.533 167.386C525.078 168.277 524.455 168.962 523.663 169.443C522.875 169.92 521.98 170.159 520.976 170.159C519.968 170.159 519.069 169.92 518.277 169.443C517.489 168.962 516.868 168.275 516.413 167.381C515.959 166.487 515.732 165.42 515.732 164.182C515.732 162.939 515.959 161.873 516.413 160.983C516.868 160.089 517.489 159.403 518.277 158.926C519.069 158.445 519.968 158.205 520.976 158.205C521.98 158.205 522.875 158.445 523.663 158.926C524.455 159.403 525.078 160.089 525.533 160.983C525.987 161.873 526.214 162.939 526.214 164.182ZM524.476 164.182C524.476 163.235 524.322 162.437 524.016 161.79C523.713 161.138 523.296 160.646 522.766 160.312C522.239 159.975 521.643 159.807 520.976 159.807C520.305 159.807 519.707 159.975 519.18 160.312C518.654 160.646 518.237 161.138 517.93 161.79C517.627 162.437 517.476 163.235 517.476 164.182C517.476 165.129 517.627 165.928 517.93 166.58C518.237 167.227 518.654 167.72 519.18 168.057C519.707 168.39 520.305 168.557 520.976 168.557C521.643 168.557 522.239 168.39 522.766 168.057C523.296 167.72 523.713 167.227 524.016 166.58C524.322 165.928 524.476 165.129 524.476 164.182ZM528.403 170V158.364H530.159V168.489H535.432V170H528.403ZM537.435 170V158.364H539.19V163.92H539.332L544.213 158.364H546.423L541.73 163.602L546.44 170H544.327L540.565 164.801L539.19 166.381V170H537.435Z" fill="black"/>
<path d="M464.011 113V101.364H468.602C469.481 101.364 470.231 101.521 470.852 101.835C471.477 102.146 471.953 102.587 472.278 103.159C472.608 103.727 472.773 104.396 472.773 105.165C472.773 105.937 472.606 106.602 472.273 107.159C471.939 107.712 471.456 108.136 470.824 108.432C470.195 108.727 469.434 108.875 468.54 108.875H465.466V106.898H468.142C468.612 106.898 469.002 106.833 469.312 106.705C469.623 106.576 469.854 106.383 470.006 106.125C470.161 105.867 470.239 105.547 470.239 105.165C470.239 104.778 470.161 104.453 470.006 104.188C469.854 103.922 469.621 103.722 469.307 103.585C468.996 103.445 468.604 103.375 468.131 103.375H466.472V113H464.011ZM470.295 107.705L473.188 113H470.472L467.642 107.705H470.295ZM485.205 107.182C485.205 108.451 484.964 109.53 484.483 110.42C484.006 111.311 483.354 111.991 482.528 112.46C481.706 112.926 480.782 113.159 479.756 113.159C478.722 113.159 477.794 112.924 476.972 112.455C476.15 111.985 475.5 111.305 475.023 110.415C474.545 109.525 474.307 108.447 474.307 107.182C474.307 105.913 474.545 104.833 475.023 103.943C475.5 103.053 476.15 102.375 476.972 101.909C477.794 101.439 478.722 101.205 479.756 101.205C480.782 101.205 481.706 101.439 482.528 101.909C483.354 102.375 484.006 103.053 484.483 103.943C484.964 104.833 485.205 105.913 485.205 107.182ZM482.71 107.182C482.71 106.36 482.587 105.667 482.341 105.102C482.098 104.538 481.756 104.11 481.312 103.818C480.869 103.527 480.35 103.381 479.756 103.381C479.161 103.381 478.642 103.527 478.199 103.818C477.756 104.11 477.411 104.538 477.165 105.102C476.922 105.667 476.801 106.36 476.801 107.182C476.801 108.004 476.922 108.697 477.165 109.261C477.411 109.826 477.756 110.254 478.199 110.545C478.642 110.837 479.161 110.983 479.756 110.983C480.35 110.983 480.869 110.837 481.312 110.545C481.756 110.254 482.098 109.826 482.341 109.261C482.587 108.697 482.71 108.004 482.71 107.182ZM488.376 113H485.74L489.757 101.364H492.928L496.939 113H494.303L491.388 104.023H491.297L488.376 113ZM488.212 108.426H494.439V110.347H488.212V108.426ZM498.339 101.364H501.374L504.578 109.182H504.714L507.919 101.364H510.953V113H508.567V105.426H508.47L505.459 112.943H503.834L500.822 105.398H500.726V113H498.339V101.364Z" fill="black"/>
<path d="M467.375 67H464.233V56.8182H467.514C468.502 56.8182 469.347 57.022 470.05 57.4297C470.752 57.834 471.291 58.4157 471.665 59.1747C472.04 59.9304 472.227 60.8352 472.227 61.8892C472.227 62.9498 472.038 63.8629 471.661 64.6286C471.283 65.3909 470.732 65.9775 470.01 66.3885C469.287 66.7962 468.409 67 467.375 67ZM465.466 65.9062H467.295C468.137 65.9062 468.835 65.7438 469.388 65.419C469.942 65.0942 470.355 64.6319 470.626 64.032C470.898 63.4321 471.034 62.7178 471.034 61.8892C471.034 61.0672 470.9 60.3596 470.631 59.7663C470.363 59.1697 469.962 58.7124 469.428 58.3942C468.895 58.0727 468.23 57.9119 467.435 57.9119H465.466V65.9062ZM477.338 67.1591C476.602 67.1591 475.968 66.9967 475.434 66.6719C474.904 66.3438 474.494 65.8864 474.206 65.2997C473.921 64.7098 473.778 64.0237 473.778 63.2415C473.778 62.4593 473.921 61.7699 474.206 61.1733C474.494 60.5734 474.895 60.1061 475.409 59.7713C475.926 59.4332 476.529 59.2642 477.219 59.2642C477.616 59.2642 478.009 59.3305 478.397 59.4631C478.785 59.5956 479.138 59.8111 479.456 60.1094C479.774 60.4044 480.028 60.7955 480.217 61.2827C480.406 61.7699 480.5 62.3698 480.5 63.0824V63.5795H474.614V62.5653H479.307C479.307 62.1345 479.221 61.75 479.048 61.4119C478.879 61.0739 478.637 60.8071 478.322 60.6115C478.011 60.416 477.643 60.3182 477.219 60.3182C476.751 60.3182 476.347 60.4342 476.006 60.6662C475.668 60.8949 475.407 61.1932 475.225 61.5611C475.043 61.929 474.952 62.3234 474.952 62.7443V63.4205C474.952 63.9972 475.051 64.486 475.25 64.8871C475.452 65.2848 475.732 65.5881 476.09 65.7969C476.448 66.0024 476.864 66.1051 477.338 66.1051C477.646 66.1051 477.925 66.062 478.173 65.9759C478.425 65.8864 478.642 65.7538 478.825 65.5781C479.007 65.3991 479.148 65.1771 479.247 64.9119L480.381 65.2301C480.261 65.6146 480.061 65.9527 479.779 66.2443C479.497 66.5327 479.149 66.758 478.735 66.9205C478.321 67.0795 477.855 67.1591 477.338 67.1591ZM487.694 61.0739L486.64 61.3722C486.574 61.1965 486.476 61.0258 486.347 60.8601C486.221 60.6911 486.048 60.5518 485.83 60.4425C485.611 60.3331 485.331 60.2784 484.989 60.2784C484.522 60.2784 484.133 60.3861 483.821 60.6016C483.513 60.8137 483.359 61.0838 483.359 61.4119C483.359 61.7036 483.465 61.9339 483.677 62.103C483.889 62.272 484.22 62.4129 484.671 62.5256L485.805 62.804C486.487 62.9697 486.996 63.2232 487.331 63.5646C487.666 63.9027 487.833 64.3385 487.833 64.8722C487.833 65.3097 487.707 65.7008 487.455 66.0455C487.207 66.3902 486.859 66.6619 486.411 66.8608C485.964 67.0597 485.443 67.1591 484.85 67.1591C484.071 67.1591 483.427 66.9901 482.916 66.652C482.406 66.3139 482.083 65.8201 481.947 65.1705L483.06 64.892C483.166 65.303 483.367 65.6113 483.662 65.8168C483.96 66.0223 484.35 66.125 484.83 66.125C485.377 66.125 485.811 66.009 486.133 65.777C486.458 65.5417 486.62 65.2599 486.62 64.9318C486.62 64.6667 486.527 64.4446 486.342 64.2656C486.156 64.0833 485.871 63.9474 485.487 63.858L484.214 63.5597C483.514 63.3939 483.001 63.1371 482.673 62.7891C482.348 62.4377 482.185 61.9986 482.185 61.4716C482.185 61.0407 482.306 60.6596 482.548 60.3281C482.794 59.9967 483.127 59.7365 483.548 59.5476C483.972 59.3587 484.452 59.2642 484.989 59.2642C485.745 59.2642 486.338 59.4299 486.769 59.7614C487.203 60.0928 487.512 60.5303 487.694 61.0739ZM492.92 59.3636V60.358H488.963V59.3636H492.92ZM490.116 57.5341H491.29V64.8125C491.29 65.1439 491.338 65.3925 491.434 65.5582C491.533 65.7206 491.659 65.83 491.812 65.8864C491.967 65.9394 492.131 65.9659 492.304 65.9659C492.433 65.9659 492.539 65.9593 492.622 65.946C492.705 65.9295 492.771 65.9162 492.821 65.9062L493.059 66.9602C492.98 66.9901 492.869 67.0199 492.726 67.0497C492.584 67.0829 492.403 67.0994 492.184 67.0994C491.853 67.0994 491.528 67.0282 491.21 66.8857C490.895 66.7431 490.633 66.526 490.425 66.2344C490.219 65.9427 490.116 65.5748 490.116 65.1307V57.5341ZM494.685 67V59.3636H495.858V67H494.685ZM495.282 58.0909C495.053 58.0909 494.856 58.013 494.69 57.8572C494.528 57.7015 494.447 57.5142 494.447 57.2955C494.447 57.0767 494.528 56.8894 494.69 56.7337C494.856 56.5779 495.053 56.5 495.282 56.5C495.51 56.5 495.706 56.5779 495.868 56.7337C496.034 56.8894 496.117 57.0767 496.117 57.2955C496.117 57.5142 496.034 57.7015 495.868 57.8572C495.706 58.013 495.51 58.0909 495.282 58.0909ZM499.181 62.4062V67H498.007V59.3636H499.141V60.5568H499.24C499.419 60.169 499.691 59.8575 500.056 59.6222C500.42 59.3835 500.891 59.2642 501.468 59.2642C501.985 59.2642 502.437 59.3703 502.825 59.5824C503.213 59.7912 503.514 60.1094 503.73 60.5369C503.945 60.9612 504.053 61.4981 504.053 62.1477V67H502.88V62.2273C502.88 61.6274 502.724 61.16 502.412 60.8253C502.101 60.4872 501.673 60.3182 501.13 60.3182C500.755 60.3182 500.42 60.3994 500.125 60.5618C499.834 60.7242 499.603 60.9612 499.434 61.2727C499.265 61.5843 499.181 61.9621 499.181 62.4062ZM508.444 67.179C507.96 67.179 507.521 67.0878 507.127 66.9055C506.732 66.7199 506.419 66.4531 506.187 66.1051C505.955 65.7538 505.839 65.3295 505.839 64.8324C505.839 64.3949 505.925 64.0402 506.097 63.7685C506.27 63.4934 506.5 63.2779 506.789 63.1222C507.077 62.9664 507.395 62.8504 507.743 62.7741C508.094 62.6946 508.447 62.6316 508.802 62.5852C509.266 62.5256 509.642 62.4808 509.931 62.451C510.222 62.4179 510.434 62.3632 510.567 62.2869C510.703 62.2107 510.771 62.0781 510.771 61.8892V61.8494C510.771 61.3589 510.637 60.9777 510.368 60.706C510.103 60.4342 509.7 60.2983 509.16 60.2983C508.6 60.2983 508.161 60.4209 507.843 60.6662C507.524 60.9115 507.301 61.1733 507.171 61.4517L506.058 61.054C506.257 60.59 506.522 60.2287 506.853 59.9702C507.188 59.7083 507.552 59.526 507.947 59.4233C508.345 59.3172 508.736 59.2642 509.12 59.2642C509.365 59.2642 509.647 59.294 509.965 59.3537C510.287 59.41 510.597 59.5277 510.895 59.7067C511.197 59.8857 511.447 60.1558 511.646 60.517C511.845 60.8783 511.944 61.3622 511.944 61.9688V67H510.771V65.9659H510.711C510.632 66.1316 510.499 66.3089 510.313 66.4979C510.128 66.6868 509.881 66.8475 509.573 66.9801C509.264 67.1127 508.888 67.179 508.444 67.179ZM508.623 66.125C509.087 66.125 509.478 66.0339 509.796 65.8516C510.118 65.6693 510.36 65.4339 510.522 65.1456C510.688 64.8572 510.771 64.554 510.771 64.2358V63.1619C510.721 63.2216 510.612 63.2763 510.443 63.326C510.277 63.3724 510.085 63.4138 509.866 63.4503C509.651 63.4834 509.44 63.5133 509.235 63.5398C509.032 63.563 508.868 63.5829 508.742 63.5994C508.437 63.6392 508.152 63.7038 507.887 63.7933C507.625 63.8795 507.413 64.0104 507.251 64.1861C507.092 64.3584 507.012 64.5937 507.012 64.892C507.012 65.2997 507.163 65.608 507.465 65.8168C507.77 66.0223 508.156 66.125 508.623 66.125ZM517.407 59.3636V60.358H513.449V59.3636H517.407ZM514.603 57.5341H515.776V64.8125C515.776 65.1439 515.824 65.3925 515.92 65.5582C516.02 65.7206 516.145 65.83 516.298 65.8864C516.454 65.9394 516.618 65.9659 516.79 65.9659C516.919 65.9659 517.025 65.9593 517.108 65.946C517.191 65.9295 517.257 65.9162 517.307 65.9062L517.546 66.9602C517.466 66.9901 517.355 67.0199 517.213 67.0497C517.07 67.0829 516.89 67.0994 516.671 67.0994C516.339 67.0994 516.015 67.0282 515.696 66.8857C515.382 66.7431 515.12 66.526 514.911 66.2344C514.705 65.9427 514.603 65.5748 514.603 65.1307V57.5341ZM519.172 67V59.3636H520.345V67H519.172ZM519.768 58.0909C519.539 58.0909 519.342 58.013 519.176 57.8572C519.014 57.7015 518.933 57.5142 518.933 57.2955C518.933 57.0767 519.014 56.8894 519.176 56.7337C519.342 56.5779 519.539 56.5 519.768 56.5C519.997 56.5 520.192 56.5779 520.355 56.7337C520.52 56.8894 520.603 57.0767 520.603 57.2955C520.603 57.5142 520.52 57.7015 520.355 57.8572C520.192 58.013 519.997 58.0909 519.768 58.0909ZM525.596 67.1591C524.907 67.1591 524.302 66.995 523.781 66.6669C523.264 66.3388 522.86 65.8797 522.568 65.2898C522.28 64.6998 522.136 64.0104 522.136 63.2216C522.136 62.4261 522.28 61.7318 522.568 61.1385C522.86 60.5452 523.264 60.0845 523.781 59.7564C524.302 59.4283 524.907 59.2642 525.596 59.2642C526.285 59.2642 526.889 59.4283 527.406 59.7564C527.926 60.0845 528.33 60.5452 528.619 61.1385C528.91 61.7318 529.056 62.4261 529.056 63.2216C529.056 64.0104 528.91 64.6998 528.619 65.2898C528.33 65.8797 527.926 66.3388 527.406 66.6669C526.889 66.995 526.285 67.1591 525.596 67.1591ZM525.596 66.1051C526.12 66.1051 526.551 65.9709 526.889 65.7024C527.227 65.4339 527.477 65.081 527.639 64.6435C527.802 64.206 527.883 63.732 527.883 63.2216C527.883 62.7112 527.802 62.2356 527.639 61.7947C527.477 61.3539 527.227 60.9976 526.889 60.7259C526.551 60.4541 526.12 60.3182 525.596 60.3182C525.072 60.3182 524.642 60.4541 524.303 60.7259C523.965 60.9976 523.715 61.3539 523.553 61.7947C523.39 62.2356 523.309 62.7112 523.309 63.2216C523.309 63.732 523.39 64.206 523.553 64.6435C523.715 65.081 523.965 65.4339 524.303 65.7024C524.642 65.9709 525.072 66.1051 525.596 66.1051ZM532.021 62.4062V67H530.847V59.3636H531.981V60.5568H532.08C532.259 60.169 532.531 59.8575 532.896 59.6222C533.26 59.3835 533.731 59.2642 534.308 59.2642C534.825 59.2642 535.277 59.3703 535.665 59.5824C536.053 59.7912 536.354 60.1094 536.57 60.5369C536.785 60.9612 536.893 61.4981 536.893 62.1477V67H535.719V62.2273C535.719 61.6274 535.564 61.16 535.252 60.8253C534.941 60.4872 534.513 60.3182 533.969 60.3182C533.595 60.3182 533.26 60.3994 532.965 60.5618C532.674 60.7242 532.443 60.9612 532.274 61.2727C532.105 61.5843 532.021 61.9621 532.021 62.4062Z" fill="black"/>
<path d="M550.193 60C550.084 59.6652 549.94 59.3653 549.761 59.1001C549.585 58.8317 549.375 58.603 549.129 58.4141C548.887 58.2251 548.612 58.081 548.304 57.9815C547.996 57.8821 547.658 57.8324 547.29 57.8324C546.687 57.8324 546.138 57.9882 545.644 58.2997C545.15 58.6113 544.758 59.0703 544.466 59.6768C544.174 60.2834 544.028 61.0275 544.028 61.9091C544.028 62.7907 544.176 63.5348 544.471 64.1413C544.766 64.7479 545.165 65.2069 545.669 65.5185C546.173 65.83 546.74 65.9858 547.369 65.9858C547.953 65.9858 548.466 65.8615 548.911 65.6129C549.358 65.361 549.706 65.0064 549.955 64.549C550.206 64.0883 550.332 63.5464 550.332 62.9233L550.71 63.0028H547.648V61.9091H551.526V63.0028C551.526 63.8414 551.347 64.5705 550.989 65.1903C550.634 65.8101 550.143 66.2907 549.517 66.6321C548.894 66.9702 548.178 67.1392 547.369 67.1392C546.468 67.1392 545.676 66.9271 544.993 66.5028C544.313 66.0786 543.783 65.4754 543.402 64.6932C543.024 63.911 542.835 62.983 542.835 61.9091C542.835 61.1037 542.943 60.3795 543.158 59.7365C543.377 59.0902 543.685 58.54 544.083 58.0859C544.481 57.6319 544.951 57.2839 545.495 57.0419C546.039 56.8 546.637 56.679 547.29 56.679C547.827 56.679 548.327 56.7602 548.791 56.9226C549.259 57.0817 549.674 57.3087 550.039 57.6037C550.407 57.8954 550.714 58.245 550.959 58.6527C551.204 59.0571 551.373 59.5062 551.466 60H550.193ZM555.725 67.179C555.241 67.179 554.802 67.0878 554.408 66.9055C554.013 66.7199 553.7 66.4531 553.468 66.1051C553.236 65.7538 553.12 65.3295 553.12 64.8324C553.12 64.3949 553.206 64.0402 553.379 63.7685C553.551 63.4934 553.781 63.2779 554.07 63.1222C554.358 62.9664 554.676 62.8504 555.024 62.7741C555.376 62.6946 555.729 62.6316 556.083 62.5852C556.547 62.5256 556.923 62.4808 557.212 62.451C557.503 62.4179 557.716 62.3632 557.848 62.2869C557.984 62.2107 558.052 62.0781 558.052 61.8892V61.8494C558.052 61.3589 557.918 60.9777 557.649 60.706C557.384 60.4342 556.981 60.2983 556.441 60.2983C555.881 60.2983 555.442 60.4209 555.124 60.6662C554.806 60.9115 554.582 61.1733 554.453 61.4517L553.339 61.054C553.538 60.59 553.803 60.2287 554.134 59.9702C554.469 59.7083 554.834 59.526 555.228 59.4233C555.626 59.3172 556.017 59.2642 556.401 59.2642C556.647 59.2642 556.928 59.294 557.247 59.3537C557.568 59.41 557.878 59.5277 558.176 59.7067C558.478 59.8857 558.728 60.1558 558.927 60.517C559.126 60.8783 559.225 61.3622 559.225 61.9688V67H558.052V65.9659H557.992C557.913 66.1316 557.78 66.3089 557.595 66.4979C557.409 66.6868 557.162 66.8475 556.854 66.9801C556.546 67.1127 556.169 67.179 555.725 67.179ZM555.904 66.125C556.368 66.125 556.759 66.0339 557.078 65.8516C557.399 65.6693 557.641 65.4339 557.803 65.1456C557.969 64.8572 558.052 64.554 558.052 64.2358V63.1619C558.002 63.2216 557.893 63.2763 557.724 63.326C557.558 63.3724 557.366 63.4138 557.147 63.4503C556.932 63.4834 556.721 63.5133 556.516 63.5398C556.314 63.563 556.15 63.5829 556.024 63.5994C555.719 63.6392 555.434 63.7038 555.169 63.7933C554.907 63.8795 554.695 64.0104 554.532 64.1861C554.373 64.3584 554.294 64.5937 554.294 64.892C554.294 65.2997 554.444 65.608 554.746 65.8168C555.051 66.0223 555.437 66.125 555.904 66.125ZM564.688 59.3636V60.358H560.73V59.3636H564.688ZM561.884 57.5341H563.057V64.8125C563.057 65.1439 563.105 65.3925 563.201 65.5582C563.301 65.7206 563.427 65.83 563.579 65.8864C563.735 65.9394 563.899 65.9659 564.071 65.9659C564.201 65.9659 564.307 65.9593 564.39 65.946C564.472 65.9295 564.539 65.9162 564.588 65.9062L564.827 66.9602C564.748 66.9901 564.636 67.0199 564.494 67.0497C564.351 67.0829 564.171 67.0994 563.952 67.0994C563.621 67.0994 563.296 67.0282 562.978 66.8857C562.663 66.7431 562.401 66.526 562.192 66.2344C561.987 65.9427 561.884 65.5748 561.884 65.1307V57.5341ZM569.572 67.1591C568.837 67.1591 568.202 66.9967 567.668 66.6719C567.138 66.3438 566.729 65.8864 566.44 65.2997C566.155 64.7098 566.013 64.0237 566.013 63.2415C566.013 62.4593 566.155 61.7699 566.44 61.1733C566.729 60.5734 567.13 60.1061 567.643 59.7713C568.161 59.4332 568.764 59.2642 569.453 59.2642C569.851 59.2642 570.244 59.3305 570.631 59.4631C571.019 59.5956 571.372 59.8111 571.69 60.1094C572.009 60.4044 572.262 60.7955 572.451 61.2827C572.64 61.7699 572.734 62.3698 572.734 63.0824V63.5795H566.848V62.5653H571.541C571.541 62.1345 571.455 61.75 571.283 61.4119C571.114 61.0739 570.872 60.8071 570.557 60.6115C570.245 60.416 569.877 60.3182 569.453 60.3182C568.986 60.3182 568.581 60.4342 568.24 60.6662C567.902 60.8949 567.642 61.1932 567.46 61.5611C567.277 61.929 567.186 62.3234 567.186 62.7443V63.4205C567.186 63.9972 567.286 64.486 567.484 64.8871C567.687 65.2848 567.967 65.5881 568.325 65.7969C568.683 66.0024 569.098 66.1051 569.572 66.1051C569.881 66.1051 570.159 66.062 570.408 65.9759C570.66 65.8864 570.877 65.7538 571.059 65.5781C571.241 65.3991 571.382 65.1771 571.482 64.9119L572.615 65.2301C572.496 65.6146 572.295 65.9527 572.013 66.2443C571.732 66.5327 571.384 66.758 570.969 66.9205C570.555 67.0795 570.089 67.1591 569.572 67.1591Z" fill="black"/>
<path d="M562.119 94V92.7273L566.057 88.6477C566.477 88.2045 566.824 87.8163 567.097 87.483C567.373 87.1458 567.58 86.8258 567.716 86.5227C567.852 86.2197 567.92 85.8977 567.92 85.5568C567.92 85.1705 567.83 84.8371 567.648 84.5568C567.466 84.2727 567.218 84.0549 566.903 83.9034C566.589 83.7481 566.235 83.6705 565.841 83.6705C565.424 83.6705 565.061 83.7557 564.75 83.9261C564.439 84.0966 564.201 84.3371 564.034 84.6477C563.867 84.9583 563.784 85.322 563.784 85.7386H562.108C562.108 85.0303 562.271 84.411 562.597 83.8807C562.922 83.3504 563.369 82.9394 563.938 82.6477C564.506 82.3523 565.152 82.2045 565.875 82.2045C566.606 82.2045 567.25 82.3504 567.807 82.642C568.367 82.9299 568.805 83.3239 569.119 83.8239C569.434 84.3201 569.591 84.8807 569.591 85.5057C569.591 85.9375 569.509 86.3598 569.347 86.7727C569.188 87.1856 568.909 87.6458 568.511 88.1534C568.114 88.6572 567.561 89.2689 566.852 89.9886L564.54 92.4091V92.4943H569.778V94H562.119Z" fill="black"/>
<path d="M561.943 113V111.227L566.085 107.392C566.438 107.051 566.733 106.744 566.972 106.472C567.214 106.199 567.398 105.932 567.523 105.67C567.648 105.405 567.71 105.119 567.71 104.812C567.71 104.472 567.633 104.178 567.477 103.932C567.322 103.682 567.11 103.491 566.841 103.358C566.572 103.222 566.267 103.153 565.926 103.153C565.57 103.153 565.259 103.225 564.994 103.369C564.729 103.513 564.525 103.72 564.381 103.989C564.237 104.258 564.165 104.578 564.165 104.949H561.83C561.83 104.187 562.002 103.527 562.347 102.966C562.691 102.405 563.174 101.972 563.795 101.665C564.417 101.358 565.133 101.205 565.943 101.205C566.777 101.205 567.502 101.352 568.119 101.648C568.741 101.939 569.223 102.345 569.568 102.864C569.913 103.383 570.085 103.977 570.085 104.648C570.085 105.087 569.998 105.521 569.824 105.949C569.653 106.377 569.348 106.852 568.909 107.375C568.47 107.894 567.85 108.517 567.051 109.244L565.352 110.909V110.989H570.239V113H561.943Z" fill="black"/>
<path d="M562.119 132V130.727L566.057 126.648C566.477 126.205 566.824 125.816 567.097 125.483C567.373 125.146 567.58 124.826 567.716 124.523C567.852 124.22 567.92 123.898 567.92 123.557C567.92 123.17 567.83 122.837 567.648 122.557C567.466 122.273 567.218 122.055 566.903 121.903C566.589 121.748 566.235 121.67 565.841 121.67C565.424 121.67 565.061 121.756 564.75 121.926C564.439 122.097 564.201 122.337 564.034 122.648C563.867 122.958 563.784 123.322 563.784 123.739H562.108C562.108 123.03 562.271 122.411 562.597 121.881C562.922 121.35 563.369 120.939 563.938 120.648C564.506 120.352 565.152 120.205 565.875 120.205C566.606 120.205 567.25 120.35 567.807 120.642C568.367 120.93 568.805 121.324 569.119 121.824C569.434 122.32 569.591 122.881 569.591 123.506C569.591 123.938 569.509 124.36 569.347 124.773C569.188 125.186 568.909 125.646 568.511 126.153C568.114 126.657 567.561 127.269 566.852 127.989L564.54 130.409V130.494H569.778V132H562.119Z" fill="black"/>
<path d="M562.119 151V149.727L566.057 145.648C566.477 145.205 566.824 144.816 567.097 144.483C567.373 144.146 567.58 143.826 567.716 143.523C567.852 143.22 567.92 142.898 567.92 142.557C567.92 142.17 567.83 141.837 567.648 141.557C567.466 141.273 567.218 141.055 566.903 140.903C566.589 140.748 566.235 140.67 565.841 140.67C565.424 140.67 565.061 140.756 564.75 140.926C564.439 141.097 564.201 141.337 564.034 141.648C563.867 141.958 563.784 142.322 563.784 142.739H562.108C562.108 142.03 562.271 141.411 562.597 140.881C562.922 140.35 563.369 139.939 563.938 139.648C564.506 139.352 565.152 139.205 565.875 139.205C566.606 139.205 567.25 139.35 567.807 139.642C568.367 139.93 568.805 140.324 569.119 140.824C569.434 141.32 569.591 141.881 569.591 142.506C569.591 142.938 569.509 143.36 569.347 143.773C569.188 144.186 568.909 144.646 568.511 145.153C568.114 145.657 567.561 146.269 566.852 146.989L564.54 149.409V149.494H569.778V151H562.119Z" fill="black"/>
<path d="M562.119 170V168.727L566.057 164.648C566.477 164.205 566.824 163.816 567.097 163.483C567.373 163.146 567.58 162.826 567.716 162.523C567.852 162.22 567.92 161.898 567.92 161.557C567.92 161.17 567.83 160.837 567.648 160.557C567.466 160.273 567.218 160.055 566.903 159.903C566.589 159.748 566.235 159.67 565.841 159.67C565.424 159.67 565.061 159.756 564.75 159.926C564.439 160.097 564.201 160.337 564.034 160.648C563.867 160.958 563.784 161.322 563.784 161.739H562.108C562.108 161.03 562.271 160.411 562.597 159.881C562.922 159.35 563.369 158.939 563.938 158.648C564.506 158.352 565.152 158.205 565.875 158.205C566.606 158.205 567.25 158.35 567.807 158.642C568.367 158.93 568.805 159.324 569.119 159.824C569.434 160.32 569.591 160.881 569.591 161.506C569.591 161.938 569.509 162.36 569.347 162.773C569.188 163.186 568.909 163.646 568.511 164.153C568.114 164.657 567.561 165.269 566.852 165.989L564.54 168.409V168.494H569.778V170H562.119Z" fill="black"/>
</g>
<defs>
<clipPath id="clip0_190_37">
<rect width="800" height="600" fill="white"/>
</clipPath>
</defs>
</svg>
