<svg width="800" height="600" viewBox="0 0 800 600" fill="none" xmlns="http://www.w3.org/2000/svg">
<g clip-path="url(#clip0_190_89)">
<rect width="800" height="600" fill="white"/>
<ellipse cx="48.5" cy="144.5" rx="23.5" ry="8.5" fill="#D9D9D9"/>
<path d="M-545 196H-337H114.5H239" stroke="black" stroke-width="3"/>
<path d="M-25 109.5V75H117V109.5M-25 109.5H117M-25 109.5V152.75M117 109.5V152.75M-25 152.75V196H117V152.75M-25 152.75H117" stroke="#010101" stroke-width="3"/>
<path d="M199.999 144.5C191.999 151 177.599 165.9 183.999 173.5M203.5 146.5C205.167 155.5 209.7 172.6 214.5 169M190 190.5C195.2 182.9 200.666 156.5 199.999 149C201.666 161 211.5 189.5 213.5 189.5" stroke="black" stroke-width="3"/>
<path d="M201.5 122.5C209.559 122.5 216 128.369 216 135.5C216 142.631 209.559 148.5 201.5 148.5C193.441 148.5 187 142.631 187 135.5C187 128.369 193.441 122.5 201.5 122.5Z" fill="white" stroke="black"/>
<circle cx="199.5" cy="133" r="1.5" stroke="black"/>
<circle cx="206.5" cy="134" r="1.5" stroke="black"/>
<path d="M131.388 193.354L122.916 194.042L121.932 178.63L132.056 178.664L131.388 193.354Z" fill="#D9D9D9"/>
<path d="M132.056 178.664L131.388 193.354L122.916 194.042L121.932 178.63L132.056 178.664ZM132.056 178.664L132.932 168" stroke="#B80000" stroke-width="3"/>
<path d="M52.5 140.25C53.4202 140.25 54.2428 140.517 54.8291 140.936C55.4159 141.355 55.75 141.911 55.75 142.5C55.75 143.089 55.4159 143.645 54.8291 144.064C54.2428 144.483 53.4202 144.75 52.5 144.75C51.5798 144.75 50.7572 144.483 50.1709 144.064C49.5841 143.645 49.25 143.089 49.25 142.5C49.25 141.911 49.5841 141.355 50.1709 140.936C50.7572 140.517 51.5798 140.25 52.5 140.25Z" fill="white" stroke="black" stroke-width="0.5"/>
<path d="M40.5 140.25C41.4202 140.25 42.2428 140.517 42.8291 140.936C43.4159 141.355 43.75 141.911 43.75 142.5C43.75 143.089 43.4159 143.645 42.8291 144.064C42.2428 144.483 41.4202 144.75 40.5 144.75C39.5798 144.75 38.7572 144.483 38.1709 144.064C37.5841 143.645 37.25 143.089 37.25 142.5C37.25 141.911 37.5841 141.355 38.1709 140.936C38.7572 140.517 39.5798 140.25 40.5 140.25Z" fill="white" stroke="black" stroke-width="0.5"/>
<circle cx="42" cy="143" r="1" fill="#010101"/>
<circle cx="53" cy="143" r="1" fill="#010101"/>
<path d="M825 480H736.5M25 195.5H279.5M279.5 195.5H375L659.5 480H730.5H736.5M279.5 195.5V169C279.5 154.641 291.141 143 305.5 143H384.802C390.371 143 395.712 145.212 399.651 149.151L675.849 425.349C679.788 429.288 685.129 431.5 690.698 431.5H710.5C724.859 431.5 736.5 443.141 736.5 457.5V480" stroke="black" stroke-width="3"/>
<path d="M-1.80149 98V87.0909H2.087C2.93217 87.0909 3.63352 87.2365 4.19105 87.5277C4.75213 87.8189 5.17116 88.2219 5.44815 88.7369C5.72514 89.2482 5.86364 89.8395 5.86364 90.5107C5.86364 91.1783 5.72337 91.766 5.44283 92.2738C5.16584 92.7781 4.7468 93.1705 4.18572 93.451C3.6282 93.7315 2.92685 93.8718 2.08168 93.8718H-0.863991V92.4549H1.93253C2.4652 92.4549 2.89844 92.3786 3.23224 92.2259C3.5696 92.0732 3.81641 91.8512 3.97266 91.56C4.12891 91.2688 4.20703 90.919 4.20703 90.5107C4.20703 90.0987 4.12713 89.7418 3.96733 89.44C3.81108 89.1381 3.56428 88.9073 3.22692 88.7475C2.89311 88.5842 2.45455 88.5025 1.91122 88.5025H-0.15554V98H-1.80149ZM3.58381 93.0781L6.27912 98H4.40412L1.76207 93.0781H3.58381ZM9.51243 87.0909V98H7.86648V87.0909H9.51243ZM12.831 98H11.0838L15.0096 87.0909H16.9112L20.837 98H19.0898L16.0057 89.0724H15.9205L12.831 98ZM13.1239 93.728H18.7915V95.1129H13.1239V93.728ZM31.2174 87.0909V98H29.7046L24.1595 89.9993H24.0583V98H22.4124V87.0909H23.9358L29.4862 95.1023H29.5874V87.0909H31.2174ZM42.4235 87.0909V98H40.9107L35.3656 89.9993H35.2644V98H33.6184V87.0909H35.1419L40.6923 95.1023H40.7935V87.0909H42.4235ZM45.746 98H43.9988L47.9246 87.0909H49.8263L53.752 98H52.0049L48.9207 89.0724H48.8355L45.746 98ZM46.039 93.728H51.7066V95.1129H46.039V93.728ZM60.2187 98H58.4715L62.3973 87.0909H64.2989L68.2247 98H66.4775L63.3934 89.0724H63.3082L60.2187 98ZM60.5116 93.728H66.1792V95.1129H60.5116V93.728ZM71.446 87.0909V98H69.8001V87.0909H71.446ZM73.843 98V87.0909H77.7315C78.5767 87.0909 79.2781 87.2365 79.8356 87.5277C80.3967 87.8189 80.8157 88.2219 81.0927 88.7369C81.3697 89.2482 81.5082 89.8395 81.5082 90.5107C81.5082 91.1783 81.3679 91.766 81.0874 92.2738C80.8104 92.7781 80.3913 93.1705 79.8303 93.451C79.2727 93.7315 78.5714 93.8718 77.7262 93.8718H74.7805V92.4549H77.5771C78.1097 92.4549 78.543 92.3786 78.8768 92.2259C79.2141 92.0732 79.4609 91.8512 79.6172 91.56C79.7734 91.2688 79.8516 90.919 79.8516 90.5107C79.8516 90.0987 79.7717 89.7418 79.6119 89.44C79.4556 89.1381 79.2088 88.9073 78.8714 88.7475C78.5376 88.5842 78.0991 88.5025 77.5558 88.5025H75.489V98H73.843ZM79.2283 93.0781L81.9237 98H80.0487L77.4066 93.0781H79.2283Z" fill="black"/>
</g>
<defs>
<clipPath id="clip0_190_89">
<rect width="800" height="600" fill="white"/>
</clipPath>
</defs>
</svg>
