<svg width="800" height="600" viewBox="0 0 800 600" fill="none" xmlns="http://www.w3.org/2000/svg">
<g clip-path="url(#clip0_190_3)">
<rect width="800" height="600" fill="white"/>
<path d="M0 480.5H88.5M800 480.5H165.5M165.5 480.5L450 196H545.5M165.5 480.5H94.5H88.5M800 196H545.5M545.5 196V169.5C545.5 155.141 533.859 143.5 519.5 143.5H440.198C434.629 143.5 429.288 145.712 425.349 149.651L149.151 425.849C145.212 429.788 139.871 432 134.302 432H114.5C100.141 432 88.5 443.641 88.5 458V480.5" stroke="black" stroke-width="3"/>
<ellipse cx="513.5" cy="445" rx="17.5" ry="13" fill="#D9D9D9"/>
<path fill-rule="evenodd" clip-rule="evenodd" d="M831 533H292C292 453.5 302 356 397 356H831V533ZM416.5 376V456H529V376H416.5ZM556 456V376H664.5V456H556ZM807.001 456V376H687V456H807.001ZM315.801 456C320.388 414.166 335.834 376 384.519 376V456H315.801Z" fill="white" stroke="black" stroke-width="3"/>
<circle cx="508.5" cy="441.5" r="1.5" fill="#070707"/>
<circle cx="512.5" cy="441.5" r="1.5" fill="#070707"/>
<ellipse cx="359" cy="436" rx="8" ry="18" fill="#D9D9D9"/>
<circle cx="355" cy="434" r="2" fill="black"/>
<circle cx="359" cy="434" r="2" fill="black"/>
<path d="M46.4992 432.5C38.4992 439 24.0992 453.9 30.4992 461.5M50 434.5C51.6667 443.5 56.2 460.6 61 457M36.5 478.5C41.7 470.9 47.1661 444.5 46.4992 437C48.1661 449 58 477.5 60 477.5" stroke="black" stroke-width="3"/>
<path d="M48 410.5C56.059 410.5 62.5 416.369 62.5 423.5C62.5 430.631 56.059 436.5 48 436.5C39.941 436.5 33.5 430.631 33.5 423.5C33.5 416.369 39.941 410.5 48 410.5Z" fill="white" stroke="black"/>
<circle cx="46" cy="421" r="1.5" stroke="black"/>
<circle cx="53" cy="422" r="1.5" stroke="black"/>
<path d="M19 479L11.5 475L19 461.5L27.5 467L19 479Z" fill="#D9D9D9"/>
<path d="M27.5 467L19 479L11.5 475L19 461.5L27.5 467ZM27.5 467L34 458.5" stroke="#B80000" stroke-width="3"/>
<rect x="49" y="145" width="194" height="37" stroke="black" stroke-width="2"/>
<path d="M93.5526 170V168.266L100.448 158.591H93.5391V156.182H104.119V157.916L97.2163 167.591H104.132V170H93.5526ZM108.756 170H105.625L110.395 156.182H114.16L118.924 170H115.793L112.332 159.339H112.224L108.756 170ZM108.56 164.569H115.955V166.849H108.56V164.569ZM121.358 156.182L124.697 166.68H124.826L128.172 156.182H131.411L126.647 170H122.882L118.112 156.182H121.358ZM133.074 170V156.182H142.385V158.591H135.996V161.883H141.906V164.292H135.996V167.591H142.412V170H133.074ZM156.266 156.182V170H153.742L147.731 161.303H147.629V170H144.708V156.182H147.272L153.236 164.872H153.358V156.182H156.266ZM158.153 158.591V156.182H169.502V158.591H165.271V170H162.384V158.591H158.153ZM171.371 170V156.182H180.682V158.591H174.292V161.883H180.203V164.292H174.292V167.591H180.709V170H171.371ZM183.005 156.182H186.608L190.413 165.466H190.575L194.38 156.182H197.983V170H195.15V161.006H195.035L191.459 169.933H189.529L185.953 160.972H185.839V170H183.005V156.182Z" fill="black"/>
</g>
<defs>
<clipPath id="clip0_190_3">
<rect width="800" height="600" fill="white"/>
</clipPath>
</defs>
</svg>
