<svg width="800" height="600" viewBox="0 0 800 600" fill="none" xmlns="http://www.w3.org/2000/svg">
<g clip-path="url(#clip0_190_20)">
<rect width="800" height="600" fill="white"/>
<path d="M0 480.5H88.5M800 480.5H165.5M165.5 480.5L450 196H545.5M165.5 480.5H94.5H88.5M800 196H545.5M545.5 196V169.5C545.5 155.141 533.859 143.5 519.5 143.5H440.198C434.629 143.5 429.288 145.712 425.349 149.651L149.151 425.849C145.212 429.788 139.871 432 134.302 432H114.5C100.141 432 88.5 443.641 88.5 458V480.5" stroke="black" stroke-width="3"/>
<path fill-rule="evenodd" clip-rule="evenodd" d="M52 533H-487C-487 453.5 -477 356 -382 356H52V533ZM-362.5 376V456H-250V376H-362.5ZM-223 456V376H-114.5V456H-223ZM28.0006 456V376H-92V456H28.0006ZM-463.199 456C-458.612 414.166 -443.166 376 -394.481 376V456H-463.199Z" fill="white" stroke="black" stroke-width="3"/>
<path d="M605.999 144.5C597.999 151 583.599 165.9 589.999 173.5M609.5 146.5C611.167 155.5 615.7 172.6 620.5 169M596 190.5C601.2 182.9 606.666 156.5 605.999 149C607.666 161 617.5 189.5 619.5 189.5" stroke="black" stroke-width="3"/>
<path d="M607.5 122.5C615.559 122.5 622 128.369 622 135.5C622 142.631 615.559 148.5 607.5 148.5C599.441 148.5 593 142.631 593 135.5C593 128.369 599.441 122.5 607.5 122.5Z" fill="white" stroke="black"/>
<circle cx="605.5" cy="133" r="1.5" stroke="black"/>
<circle cx="612.5" cy="134" r="1.5" stroke="black"/>
<path d="M578.5 191L571 187L578.5 173.5L587 179L578.5 191Z" fill="#D9D9D9"/>
<path d="M587 179L578.5 191L571 187L578.5 173.5L587 179ZM587 179L593.5 170.5" stroke="#B80000" stroke-width="3"/>
</g>
<defs>
<clipPath id="clip0_190_20">
<rect width="800" height="600" fill="white"/>
</clipPath>
</defs>
</svg>
