<svg width="800" height="600" viewBox="0 0 800 600" fill="none" xmlns="http://www.w3.org/2000/svg">
<g clip-path="url(#clip0_190_3)">
<rect width="800" height="600" fill="white"/>
<path d="M0 480.5H88.5M800 480.5H165.5M165.5 480.5L450 196H545.5M165.5 480.5H94.5H88.5M800 196H545.5M545.5 196V169.5C545.5 155.141 533.859 143.5 519.5 143.5H440.198C434.629 143.5 429.288 145.712 425.349 149.651L149.151 425.849C145.212 429.788 139.871 432 134.302 432H114.5C100.141 432 88.5 443.641 88.5 458V480.5" stroke="black" stroke-width="3"/>
<ellipse cx="513.5" cy="445" rx="17.5" ry="13" fill="#D9D9D9"/>
<path fill-rule="evenodd" clip-rule="evenodd" d="M831 533H292C292 453.5 302 356 397 356H831V533ZM416.5 376V456H529V376H416.5ZM556 456V376H664.5V456H556ZM807.001 456V376H687V456H807.001ZM315.801 456C320.388 414.166 335.834 376 384.519 376V456H315.801Z" fill="white" stroke="black" stroke-width="3"/>
<circle cx="508.5" cy="441.5" r="1.5" fill="#070707"/>
<circle cx="512.5" cy="441.5" r="1.5" fill="#070707"/>
<ellipse cx="359" cy="436" rx="8" ry="18" fill="#D9D9D9"/>
<circle cx="355" cy="434" r="2" fill="black"/>
<circle cx="359" cy="434" r="2" fill="black"/>
<path d="M46.4992 432.5C38.4992 439 24.0992 453.9 30.4992 461.5M50 434.5C51.6667 443.5 56.2 460.6 61 457M36.5 478.5C41.7 470.9 47.1661 444.5 46.4992 437C48.1661 449 58 477.5 60 477.5" stroke="black" stroke-width="3"/>
<path d="M48 410.5C56.059 410.5 62.5 416.369 62.5 423.5C62.5 430.631 56.059 436.5 48 436.5C39.941 436.5 33.5 430.631 33.5 423.5C33.5 416.369 39.941 410.5 48 410.5Z" fill="white" stroke="black"/>
<circle cx="46" cy="421" r="1.5" stroke="black"/>
<circle cx="53" cy="422" r="1.5" stroke="black"/>
<path d="M19 479L11.5 475L19 461.5L27.5 467L19 479Z" fill="#D9D9D9"/>
<path d="M27.5 467L19 479L11.5 475L19 461.5L27.5 467ZM27.5 467L34 458.5" stroke="#B80000" stroke-width="3"/>
</g>
<defs>
<clipPath id="clip0_190_3">
<rect width="800" height="600" fill="white"/>
</clipPath>
</defs>
</svg>
