<svg width="800" height="600" viewBox="0 0 800 600" fill="none" xmlns="http://www.w3.org/2000/svg">
<g clip-path="url(#clip0_190_61)">
<rect width="800" height="600" fill="white"/>
<ellipse cx="506.5" cy="144.5" rx="23.5" ry="8.5" fill="#D9D9D9"/>
<path d="M-87 196H121H572.5H697" stroke="black" stroke-width="3"/>
<path d="M433 109.5V75H575V109.5M433 109.5H575M433 109.5V152.75M575 109.5V152.75M433 152.75V196H575V152.75M433 152.75H575" stroke="#010101" stroke-width="3"/>
<path d="M461.199 98V87.0909H465.087C465.932 87.0909 466.634 87.2365 467.191 87.5277C467.752 87.8189 468.171 88.2219 468.448 88.7369C468.725 89.2482 468.864 89.8395 468.864 90.5107C468.864 91.1783 468.723 91.766 468.443 92.2738C468.166 92.7781 467.747 93.1705 467.186 93.451C466.628 93.7315 465.927 93.8718 465.082 93.8718H462.136V92.4549H464.933C465.465 92.4549 465.898 92.3786 466.232 92.2259C466.57 92.0732 466.816 91.8512 466.973 91.56C467.129 91.2688 467.207 90.919 467.207 90.5107C467.207 90.0987 467.127 89.7418 466.967 89.44C466.811 89.1381 466.564 88.9073 466.227 88.7475C465.893 88.5842 465.455 88.5025 464.911 88.5025H462.844V98H461.199ZM466.584 93.0781L469.279 98H467.404L464.762 93.0781H466.584ZM472.512 87.0909V98H470.866V87.0909H472.512ZM475.831 98H474.084L478.01 87.0909H479.911L483.837 98H482.09L479.006 89.0724H478.92L475.831 98ZM476.124 93.728H481.792V95.1129H476.124V93.728ZM494.217 87.0909V98H492.705L487.16 89.9993H487.058V98H485.412V87.0909H486.936L492.486 95.1023H492.587V87.0909H494.217ZM505.423 87.0909V98H503.911L498.366 89.9993H498.264V98H496.618V87.0909H498.142L503.692 95.1023H503.794V87.0909H505.423ZM508.746 98H506.999L510.925 87.0909H512.826L516.752 98H515.005L511.921 89.0724H511.835L508.746 98ZM509.039 93.728H514.707V95.1129H509.039V93.728ZM523.219 98H521.472L525.397 87.0909H527.299L531.225 98H529.478L526.393 89.0724H526.308L523.219 98ZM523.512 93.728H529.179V95.1129H523.512V93.728ZM534.446 87.0909V98H532.8V87.0909H534.446ZM536.843 98V87.0909H540.732C541.577 87.0909 542.278 87.2365 542.836 87.5277C543.397 87.8189 543.816 88.2219 544.093 88.7369C544.37 89.2482 544.508 89.8395 544.508 90.5107C544.508 91.1783 544.368 91.766 544.087 92.2738C543.81 92.7781 543.391 93.1705 542.83 93.451C542.273 93.7315 541.571 93.8718 540.726 93.8718H537.781V92.4549H540.577C541.11 92.4549 541.543 92.3786 541.877 92.2259C542.214 92.0732 542.461 91.8512 542.617 91.56C542.773 91.2688 542.852 90.919 542.852 90.5107C542.852 90.0987 542.772 89.7418 542.612 89.44C542.456 89.1381 542.209 88.9073 541.871 88.7475C541.538 88.5842 541.099 88.5025 540.556 88.5025H538.489V98H536.843ZM542.228 93.0781L544.924 98H543.049L540.407 93.0781H542.228Z" fill="black"/>
<path d="M199.999 144.5C191.999 151 177.599 165.9 183.999 173.5M203.5 146.5C205.167 155.5 209.7 172.6 214.5 169M190 190.5C195.2 182.9 200.666 156.5 199.999 149C201.666 161 211.5 189.5 213.5 189.5" stroke="black" stroke-width="3"/>
<path d="M201.5 122.5C209.559 122.5 216 128.369 216 135.5C216 142.631 209.559 148.5 201.5 148.5C193.441 148.5 187 142.631 187 135.5C187 128.369 193.441 122.5 201.5 122.5Z" fill="white" stroke="black"/>
<circle cx="199.5" cy="133" r="1.5" stroke="black"/>
<circle cx="206.5" cy="134" r="1.5" stroke="black"/>
<path d="M172.5 191L165 187L172.5 173.5L181 179L172.5 191Z" fill="#D9D9D9"/>
<path d="M181 179L172.5 191L165 187L172.5 173.5L181 179ZM181 179L187.5 170.5" stroke="#B80000" stroke-width="3"/>
<circle cx="500" cy="143" r="1" fill="#010101"/>
<circle cx="511" cy="143" r="1" fill="#010101"/>
<path d="M-78 38.5V196H62.5V38.5H-78Z" stroke="#010101" stroke-width="3"/>
<rect x="-67" y="50" width="121" height="133" fill="#E3E3E3"/>
<path d="M-60.7216 94V82.3636H-56.4602C-55.6345 82.3636 -54.9508 82.5 -54.4091 82.7727C-53.8674 83.0417 -53.4621 83.4072 -53.1932 83.8693C-52.9242 84.3277 -52.7898 84.8447 -52.7898 85.4205C-52.7898 85.9053 -52.8788 86.3144 -53.0568 86.6477C-53.2348 86.9773 -53.4735 87.2424 -53.7727 87.4432C-54.0682 87.6402 -54.3939 87.7841 -54.75 87.875V87.9886C-54.3636 88.0076 -53.9867 88.1326 -53.6193 88.3636C-53.2481 88.5909 -52.9413 88.9148 -52.6989 89.3352C-52.4564 89.7557 -52.3352 90.267 -52.3352 90.8693C-52.3352 91.464 -52.4754 91.9981 -52.7557 92.4716C-53.0322 92.9413 -53.4602 93.3144 -54.0398 93.5909C-54.6193 93.8636 -55.3598 94 -56.2614 94H-60.7216ZM-58.9659 92.4943H-56.4318C-55.5909 92.4943 -54.9886 92.3314 -54.625 92.0057C-54.2614 91.6799 -54.0795 91.2727 -54.0795 90.7841C-54.0795 90.4167 -54.1723 90.0795 -54.358 89.7727C-54.5436 89.4659 -54.8087 89.2216 -55.1534 89.0398C-55.4943 88.858 -55.8996 88.767 -56.3693 88.767H-58.9659V92.4943ZM-58.9659 87.3977H-56.6136C-56.2197 87.3977 -55.8655 87.322 -55.5511 87.1705C-55.233 87.0189 -54.9811 86.8068 -54.7955 86.5341C-54.6061 86.2576 -54.5114 85.9318 -54.5114 85.5568C-54.5114 85.0758 -54.6799 84.6723 -55.017 84.3466C-55.3542 84.0208 -55.8712 83.858 -56.5682 83.858H-58.9659V87.3977ZM-49.2699 94H-51.1335L-46.946 82.3636H-44.9176L-40.7301 94H-42.5938L-45.8835 84.4773H-45.9744L-49.2699 94ZM-48.9574 89.4432H-42.9119V90.9205H-48.9574V89.4432ZM-39.0497 94V82.3636H-37.294V92.4886H-32.0213V94H-39.0497ZM-30.0185 94V82.3636H-22.723V83.875H-28.2628V87.4205H-23.1037V88.9261H-28.2628V92.4886H-22.6548V94H-30.0185ZM-10.9858 82.3636V94H-12.5994L-18.5142 85.4659H-18.6222V94H-20.3778V82.3636H-18.7528L-12.8324 90.9091H-12.7244V82.3636H-10.9858ZM1.24006 86.1477H-0.53267C-0.600852 85.7689 -0.727746 85.4356 -0.913352 85.1477C-1.09896 84.8598 -1.32623 84.6155 -1.59517 84.4148C-1.86411 84.214 -2.16525 84.0625 -2.49858 83.9602C-2.82812 83.858 -3.1785 83.8068 -3.54972 83.8068C-4.22017 83.8068 -4.82055 83.9754 -5.35085 84.3125C-5.87737 84.6496 -6.29403 85.1439 -6.60085 85.7955C-6.90388 86.447 -7.0554 87.2424 -7.0554 88.1818C-7.0554 89.1288 -6.90388 89.928 -6.60085 90.5795C-6.29403 91.2311 -5.87547 91.7235 -5.34517 92.0568C-4.81487 92.3902 -4.21828 92.5568 -3.5554 92.5568C-3.18797 92.5568 -2.83949 92.5076 -2.50994 92.4091C-2.17661 92.3068 -1.87547 92.1572 -1.60653 91.9602C-1.33759 91.7633 -1.11032 91.5227 -0.924716 91.2386C-0.735322 90.9508 -0.60464 90.6212 -0.53267 90.25L1.24006 90.2557C1.14536 90.8277 0.961648 91.3542 0.688921 91.8352C0.419982 92.3125 0.0733906 92.7254 -0.350852 93.0739C-0.771307 93.4186 -1.25237 93.6856 -1.79403 93.875C-2.3357 94.0644 -2.92661 94.1591 -3.56676 94.1591C-4.57434 94.1591 -5.47206 93.9205 -6.25994 93.4432C-7.04782 92.9621 -7.66903 92.2746 -8.12358 91.3807C-8.57434 90.4867 -8.79972 89.4205 -8.79972 88.1818C-8.79972 86.9394 -8.57244 85.8731 -8.1179 84.983C-7.66335 84.089 -7.04214 83.4034 -6.25426 82.9261C-5.46638 82.4451 -4.57055 82.2045 -3.56676 82.2045C-2.94934 82.2045 -2.37358 82.2936 -1.83949 82.4716C-1.30161 82.6458 -0.818655 82.9034 -0.390625 83.2443C0.0374056 83.5814 0.391572 83.9943 0.671875 84.483C0.952178 84.9678 1.14157 85.5227 1.24006 86.1477ZM5.09659 82.3636V94H3.34091V82.3636H5.09659ZM8.63636 94H6.77273L10.9602 82.3636H12.9886L17.1761 94H15.3125L12.0227 84.4773H11.9318L8.63636 94ZM8.94886 89.4432H14.9943V90.9205H8.94886V89.4432Z" fill="black"/>
<path d="M-51.3295 158.364V170H-52.9432L-58.858 161.466H-58.9659V170H-60.7216V158.364H-59.0966L-53.1761 166.909H-53.0682V158.364H-51.3295ZM-48.7685 170V158.364H-41.473V159.875H-47.0128V163.42H-41.8537V164.926H-47.0128V168.489H-41.4048V170H-48.7685ZM-36.8494 170L-40.0767 158.364H-38.2301L-35.9631 167.375H-35.8551L-33.4972 158.364H-31.6676L-29.3097 167.381H-29.2017L-26.9403 158.364H-25.0881L-28.321 170H-30.0881L-32.5369 161.284H-32.6278L-35.0767 170H-36.8494ZM-20.1506 158.364H-18.1562L-15.1165 163.653H-14.9915L-11.9517 158.364H-9.95739L-14.179 165.432V170H-15.929V165.432L-20.1506 158.364ZM1.21449 164.182C1.21449 165.424 0.987216 166.492 0.532671 167.386C0.0781256 168.277 -0.54498 168.962 -1.33665 169.443C-2.12453 169.92 -3.02036 170.159 -4.02415 170.159C-5.03172 170.159 -5.93134 169.92 -6.72301 169.443C-7.51089 168.962 -8.1321 168.275 -8.58665 167.381C-9.04119 166.487 -9.26847 165.42 -9.26847 164.182C-9.26847 162.939 -9.04119 161.873 -8.58665 160.983C-8.1321 160.089 -7.51089 159.403 -6.72301 158.926C-5.93134 158.445 -5.03172 158.205 -4.02415 158.205C-3.02036 158.205 -2.12453 158.445 -1.33665 158.926C-0.54498 159.403 0.0781256 160.089 0.532671 160.983C0.987216 161.873 1.21449 162.939 1.21449 164.182ZM-0.524147 164.182C-0.524147 163.235 -0.677556 162.437 -0.984375 161.79C-1.28741 161.138 -1.70407 160.646 -2.23438 160.312C-2.76089 159.975 -3.35748 159.807 -4.02415 159.807C-4.6946 159.807 -5.29309 159.975 -5.8196 160.312C-6.34612 160.646 -6.76278 161.138 -7.0696 161.79C-7.37263 162.437 -7.52415 163.235 -7.52415 164.182C-7.52415 165.129 -7.37263 165.928 -7.0696 166.58C-6.76278 167.227 -6.34612 167.72 -5.8196 168.057C-5.29309 168.39 -4.6946 168.557 -4.02415 168.557C-3.35748 168.557 -2.76089 168.39 -2.23438 168.057C-1.70407 167.72 -1.28741 167.227 -0.984375 166.58C-0.677556 165.928 -0.524147 165.129 -0.524147 164.182ZM3.40341 170V158.364H5.15909V168.489H10.4318V170H3.40341ZM12.4347 170V158.364H14.1903V163.92H14.3324L19.2131 158.364H21.4233L16.7301 163.602L21.4403 170H19.3267L15.5653 164.801L14.1903 166.381V170H12.4347Z" fill="black"/>
<path d="M-57.625 67H-60.767V56.8182H-57.4858C-56.4981 56.8182 -55.6529 57.022 -54.9503 57.4297C-54.2476 57.834 -53.709 58.4157 -53.3345 59.1747C-52.96 59.9304 -52.7727 60.8352 -52.7727 61.8892C-52.7727 62.9498 -52.9616 63.8629 -53.3395 64.6286C-53.7173 65.3909 -54.2675 65.9775 -54.9901 66.3885C-55.7126 66.7962 -56.5909 67 -57.625 67ZM-59.5341 65.9062H-57.7045C-56.8627 65.9062 -56.165 65.7438 -55.6115 65.419C-55.058 65.0942 -54.6454 64.6319 -54.3736 64.032C-54.1018 63.4321 -53.9659 62.7178 -53.9659 61.8892C-53.9659 61.0672 -54.1001 60.3596 -54.3686 59.7663C-54.6371 59.1697 -55.0381 58.7124 -55.5717 58.3942C-56.1054 58.0727 -56.7699 57.9119 -57.5653 57.9119H-59.5341V65.9062ZM-47.6619 67.1591C-48.3977 67.1591 -49.0324 66.9967 -49.5661 66.6719C-50.0964 66.3438 -50.5057 65.8864 -50.794 65.2997C-51.0791 64.7098 -51.2216 64.0237 -51.2216 63.2415C-51.2216 62.4593 -51.0791 61.7699 -50.794 61.1733C-50.5057 60.5734 -50.1046 60.1061 -49.5909 59.7713C-49.0739 59.4332 -48.4706 59.2642 -47.7812 59.2642C-47.3835 59.2642 -46.9908 59.3305 -46.603 59.4631C-46.2152 59.5956 -45.8622 59.8111 -45.544 60.1094C-45.2259 60.4044 -44.9723 60.7955 -44.7834 61.2827C-44.5945 61.7699 -44.5 62.3698 -44.5 63.0824V63.5795H-50.3864V62.5653H-45.6932C-45.6932 62.1345 -45.7794 61.75 -45.9517 61.4119C-46.1207 61.0739 -46.3627 60.8071 -46.6776 60.6115C-46.9891 60.416 -47.357 60.3182 -47.7812 60.3182C-48.2486 60.3182 -48.6529 60.4342 -48.9943 60.6662C-49.3324 60.8949 -49.5926 61.1932 -49.7749 61.5611C-49.9571 61.929 -50.0483 62.3234 -50.0483 62.7443V63.4205C-50.0483 63.9972 -49.9489 64.486 -49.75 64.8871C-49.5478 65.2848 -49.2678 65.5881 -48.9098 65.7969C-48.5518 66.0024 -48.1359 66.1051 -47.6619 66.1051C-47.3537 66.1051 -47.0753 66.062 -46.8267 65.9759C-46.5748 65.8864 -46.3577 65.7538 -46.1754 65.5781C-45.9931 65.3991 -45.8523 65.1771 -45.7528 64.9119L-44.6193 65.2301C-44.7386 65.6146 -44.9392 65.9527 -45.2209 66.2443C-45.5026 66.5327 -45.8506 66.758 -46.2649 66.9205C-46.6792 67.0795 -47.1449 67.1591 -47.6619 67.1591ZM-37.3061 61.0739L-38.3601 61.3722C-38.4264 61.1965 -38.5241 61.0258 -38.6534 60.8601C-38.7794 60.6911 -38.9517 60.5518 -39.1705 60.4425C-39.3892 60.3331 -39.6693 60.2784 -40.0107 60.2784C-40.478 60.2784 -40.8674 60.3861 -41.179 60.6016C-41.4872 60.8137 -41.6413 61.0838 -41.6413 61.4119C-41.6413 61.7036 -41.5353 61.9339 -41.3232 62.103C-41.111 62.272 -40.7796 62.4129 -40.3288 62.5256L-39.1953 62.804C-38.5125 62.9697 -38.0038 63.2232 -37.669 63.5646C-37.3343 63.9027 -37.1669 64.3385 -37.1669 64.8722C-37.1669 65.3097 -37.2929 65.7008 -37.5447 66.0455C-37.7933 66.3902 -38.1413 66.6619 -38.5888 66.8608C-39.0362 67.0597 -39.5566 67.1591 -40.1499 67.1591C-40.9287 67.1591 -41.5734 66.9901 -42.0838 66.652C-42.5942 66.3139 -42.9174 65.8201 -43.0533 65.1705L-41.9396 64.892C-41.8336 65.303 -41.633 65.6113 -41.3381 65.8168C-41.0398 66.0223 -40.6503 66.125 -40.1697 66.125C-39.6229 66.125 -39.1887 66.009 -38.8672 65.777C-38.5424 65.5417 -38.38 65.2599 -38.38 64.9318C-38.38 64.6667 -38.4728 64.4446 -38.6584 64.2656C-38.844 64.0833 -39.129 63.9474 -39.5135 63.858L-40.7862 63.5597C-41.4856 63.3939 -41.9993 63.1371 -42.3274 62.7891C-42.6522 62.4377 -42.8146 61.9986 -42.8146 61.4716C-42.8146 61.0407 -42.6937 60.6596 -42.4517 60.3281C-42.2064 59.9967 -41.8733 59.7365 -41.4524 59.5476C-41.0282 59.3587 -40.5476 59.2642 -40.0107 59.2642C-39.255 59.2642 -38.6617 59.4299 -38.2308 59.7614C-37.7966 60.0928 -37.4884 60.5303 -37.3061 61.0739ZM-32.0797 59.3636V60.358H-36.0371V59.3636H-32.0797ZM-34.8837 57.5341H-33.7104V64.8125C-33.7104 65.1439 -33.6623 65.3925 -33.5662 65.5582C-33.4668 65.7206 -33.3408 65.83 -33.1884 65.8864C-33.0326 65.9394 -32.8685 65.9659 -32.6962 65.9659C-32.5669 65.9659 -32.4609 65.9593 -32.378 65.946C-32.2952 65.9295 -32.2289 65.9162 -32.1792 65.9062L-31.9405 66.9602C-32.0201 66.9901 -32.1311 67.0199 -32.2736 67.0497C-32.4161 67.0829 -32.5968 67.0994 -32.8155 67.0994C-33.147 67.0994 -33.4718 67.0282 -33.79 66.8857C-34.1048 66.7431 -34.3667 66.526 -34.5755 66.2344C-34.781 65.9427 -34.8837 65.5748 -34.8837 65.1307V57.5341ZM-30.3148 67V59.3636H-29.1415V67H-30.3148ZM-29.7182 58.0909C-29.9469 58.0909 -30.1441 58.013 -30.3098 57.8572C-30.4722 57.7015 -30.5534 57.5142 -30.5534 57.2955C-30.5534 57.0767 -30.4722 56.8894 -30.3098 56.7337C-30.1441 56.5779 -29.9469 56.5 -29.7182 56.5C-29.4895 56.5 -29.294 56.5779 -29.1316 56.7337C-28.9658 56.8894 -28.883 57.0767 -28.883 57.2955C-28.883 57.5142 -28.9658 57.7015 -29.1316 57.8572C-29.294 58.013 -29.4895 58.0909 -29.7182 58.0909ZM-25.8192 62.4062V67H-26.9925V59.3636H-25.859V60.5568H-25.7596C-25.5806 60.169 -25.3088 59.8575 -24.9442 59.6222C-24.5797 59.3835 -24.109 59.2642 -23.5323 59.2642C-23.0153 59.2642 -22.5629 59.3703 -22.1751 59.5824C-21.7873 59.7912 -21.4857 60.1094 -21.2702 60.5369C-21.0548 60.9612 -20.9471 61.4981 -20.9471 62.1477V67H-22.1204V62.2273C-22.1204 61.6274 -22.2762 61.16 -22.5877 60.8253C-22.8993 60.4872 -23.3268 60.3182 -23.8704 60.3182C-24.2449 60.3182 -24.5797 60.3994 -24.8746 60.5618C-25.1663 60.7242 -25.3967 60.9612 -25.5657 61.2727C-25.7347 61.5843 -25.8192 61.9621 -25.8192 62.4062ZM-16.5559 67.179C-17.0398 67.179 -17.479 67.0878 -17.8734 66.9055C-18.2678 66.7199 -18.581 66.4531 -18.813 66.1051C-19.045 65.7538 -19.161 65.3295 -19.161 64.8324C-19.161 64.3949 -19.0749 64.0402 -18.9025 63.7685C-18.7302 63.4934 -18.4998 63.2779 -18.2115 63.1222C-17.9231 62.9664 -17.6049 62.8504 -17.2569 62.7741C-16.9056 62.6946 -16.5526 62.6316 -16.198 62.5852C-15.734 62.5256 -15.3578 62.4808 -15.0694 62.451C-14.7778 62.4179 -14.5656 62.3632 -14.4331 62.2869C-14.2972 62.2107 -14.2292 62.0781 -14.2292 61.8892V61.8494C-14.2292 61.3589 -14.3635 60.9777 -14.6319 60.706C-14.8971 60.4342 -15.2998 60.2983 -15.84 60.2983C-16.4002 60.2983 -16.8393 60.4209 -17.1575 60.6662C-17.4757 60.9115 -17.6994 61.1733 -17.8287 61.4517L-18.9423 61.054C-18.7434 60.59 -18.4783 60.2287 -18.1468 59.9702C-17.8121 59.7083 -17.4475 59.526 -17.0531 59.4233C-16.6554 59.3172 -16.2643 59.2642 -15.8798 59.2642C-15.6345 59.2642 -15.3528 59.294 -15.0346 59.3537C-14.7131 59.41 -14.4032 59.5277 -14.1049 59.7067C-13.8033 59.8857 -13.5531 60.1558 -13.3542 60.517C-13.1554 60.8783 -13.0559 61.3622 -13.0559 61.9688V67H-14.2292V65.9659H-14.2889C-14.3684 66.1316 -14.501 66.3089 -14.6866 66.4979C-14.8722 66.6868 -15.1191 66.8475 -15.4274 66.9801C-15.7356 67.1127 -16.1118 67.179 -16.5559 67.179ZM-16.377 66.125C-15.9129 66.125 -15.5218 66.0339 -15.2037 65.8516C-14.8822 65.6693 -14.6402 65.4339 -14.4778 65.1456C-14.3121 64.8572 -14.2292 64.554 -14.2292 64.2358V63.1619C-14.2789 63.2216 -14.3883 63.2763 -14.5574 63.326C-14.7231 63.3724 -14.9153 63.4138 -15.1341 63.4503C-15.3495 63.4834 -15.56 63.5133 -15.7654 63.5398C-15.9676 63.563 -16.1317 63.5829 -16.2576 63.5994C-16.5626 63.6392 -16.8476 63.7038 -17.1127 63.7933C-17.3746 63.8795 -17.5867 64.0104 -17.7491 64.1861C-17.9082 64.3584 -17.9877 64.5937 -17.9877 64.892C-17.9877 65.2997 -17.8369 65.608 -17.5353 65.8168C-17.2304 66.0223 -16.8443 66.125 -16.377 66.125ZM-7.59339 59.3636V60.358H-11.5508V59.3636H-7.59339ZM-10.3974 57.5341H-9.22408V64.8125C-9.22408 65.1439 -9.17602 65.3925 -9.0799 65.5582C-8.98047 65.7206 -8.85452 65.83 -8.70206 65.8864C-8.54628 65.9394 -8.38222 65.9659 -8.20987 65.9659C-8.08061 65.9659 -7.97455 65.9593 -7.89169 65.946C-7.80883 65.9295 -7.74254 65.9162 -7.69283 65.9062L-7.45419 66.9602C-7.53374 66.9901 -7.64477 67.0199 -7.78729 67.0497C-7.92981 67.0829 -8.11044 67.0994 -8.32919 67.0994C-8.66063 67.0994 -8.98544 67.0282 -9.30362 66.8857C-9.61849 66.7431 -9.88033 66.526 -10.0891 66.2344C-10.2946 65.9427 -10.3974 65.5748 -10.3974 65.1307V57.5341ZM-5.82848 67V59.3636H-4.65518V67H-5.82848ZM-5.23189 58.0909C-5.46058 58.0909 -5.65779 58.013 -5.82351 57.8572C-5.98591 57.7015 -6.06712 57.5142 -6.06712 57.2955C-6.06712 57.0767 -5.98591 56.8894 -5.82351 56.7337C-5.65779 56.5779 -5.46058 56.5 -5.23189 56.5C-5.0032 56.5 -4.80765 56.5779 -4.64524 56.7337C-4.47952 56.8894 -4.39666 57.0767 -4.39666 57.2955C-4.39666 57.5142 -4.47952 57.7015 -4.64524 57.8572C-4.80765 58.013 -5.0032 58.0909 -5.23189 58.0909ZM0.596058 67.1591C-0.0933355 67.1591 -0.698212 66.995 -1.21857 66.6669C-1.73562 66.3388 -2.13997 65.8797 -2.43164 65.2898C-2.71999 64.6998 -2.86417 64.0104 -2.86417 63.2216C-2.86417 62.4261 -2.71999 61.7318 -2.43164 61.1385C-2.13997 60.5452 -1.73562 60.0845 -1.21857 59.7564C-0.698212 59.4283 -0.0933355 59.2642 0.596058 59.2642C1.28545 59.2642 1.88867 59.4283 2.40572 59.7564C2.92608 60.0845 3.33043 60.5452 3.61879 61.1385C3.91045 61.7318 4.05629 62.4261 4.05629 63.2216C4.05629 64.0104 3.91045 64.6998 3.61879 65.2898C3.33043 65.8797 2.92608 66.3388 2.40572 66.6669C1.88867 66.995 1.28545 67.1591 0.596058 67.1591ZM0.596058 66.1051C1.11973 66.1051 1.5506 65.9709 1.88867 65.7024C2.22674 65.4339 2.47698 65.081 2.63938 64.6435C2.80179 64.206 2.88299 63.732 2.88299 63.2216C2.88299 62.7112 2.80179 62.2356 2.63938 61.7947C2.47698 61.3539 2.22674 60.9976 1.88867 60.7259C1.5506 60.4541 1.11973 60.3182 0.596058 60.3182C0.0723841 60.3182 -0.358487 60.4541 -0.696555 60.7259C-1.03462 60.9976 -1.28486 61.3539 -1.44727 61.7947C-1.60967 62.2356 -1.69087 62.7112 -1.69087 63.2216C-1.69087 63.732 -1.60967 64.206 -1.44727 64.6435C-1.28486 65.081 -1.03462 65.4339 -0.696555 65.7024C-0.358487 65.9709 0.0723841 66.1051 0.596058 66.1051ZM7.0206 62.4062V67H5.8473V59.3636H6.98082V60.5568H7.08026C7.25923 60.169 7.53101 59.8575 7.8956 59.6222C8.26018 59.3835 8.73082 59.2642 9.30753 59.2642C9.82457 59.2642 10.277 59.3703 10.6648 59.5824C11.0526 59.7912 11.3542 60.1094 11.5696 60.5369C11.785 60.9612 11.8928 61.4981 11.8928 62.1477V67H10.7195V62.2273C10.7195 61.6274 10.5637 61.16 10.2521 60.8253C9.94058 60.4872 9.51302 60.3182 8.96946 60.3182C8.59493 60.3182 8.26018 60.3994 7.9652 60.5618C7.67353 60.7242 7.44318 60.9612 7.27415 61.2727C7.10511 61.5843 7.0206 61.9621 7.0206 62.4062Z" fill="black"/>
<path d="M36.1193 94.5V93.2273L40.0568 89.1477C40.4773 88.7045 40.8239 88.3163 41.0966 87.983C41.3731 87.6458 41.5795 87.3258 41.7159 87.0227C41.8523 86.7197 41.9205 86.3977 41.9205 86.0568C41.9205 85.6705 41.8295 85.3371 41.6477 85.0568C41.4659 84.7727 41.2178 84.5549 40.9034 84.4034C40.589 84.2481 40.2348 84.1705 39.8409 84.1705C39.4242 84.1705 39.0606 84.2557 38.75 84.4261C38.4394 84.5966 38.2008 84.8371 38.0341 85.1477C37.8674 85.4583 37.7841 85.822 37.7841 86.2386H36.108C36.108 85.5303 36.2708 84.911 36.5966 84.3807C36.9223 83.8504 37.3693 83.4394 37.9375 83.1477C38.5057 82.8523 39.1515 82.7045 39.875 82.7045C40.6061 82.7045 41.25 82.8504 41.8068 83.142C42.3674 83.4299 42.8049 83.8239 43.1193 84.3239C43.4337 84.8201 43.5909 85.3807 43.5909 86.0057C43.5909 86.4375 43.5095 86.8598 43.3466 87.2727C43.1875 87.6856 42.9091 88.1458 42.5114 88.6534C42.1136 89.1572 41.5606 89.7689 40.8523 90.4886L38.5398 92.9091V92.9943H43.7784V94.5H36.1193Z" fill="black"/>
<path d="M35.9432 113.5V111.727L40.0852 107.892C40.4375 107.551 40.733 107.244 40.9716 106.972C41.214 106.699 41.3977 106.432 41.5227 106.17C41.6477 105.905 41.7102 105.619 41.7102 105.312C41.7102 104.972 41.6326 104.678 41.4773 104.432C41.322 104.182 41.1098 103.991 40.8409 103.858C40.572 103.722 40.267 103.653 39.9261 103.653C39.5701 103.653 39.2595 103.725 38.9943 103.869C38.7292 104.013 38.5246 104.22 38.3807 104.489C38.2367 104.758 38.1648 105.078 38.1648 105.449H35.8295C35.8295 104.687 36.0019 104.027 36.3466 103.466C36.6913 102.905 37.1742 102.472 37.7955 102.165C38.4167 101.858 39.1326 101.705 39.9432 101.705C40.7765 101.705 41.5019 101.852 42.1193 102.148C42.7405 102.439 43.2235 102.845 43.5682 103.364C43.9129 103.883 44.0852 104.477 44.0852 105.148C44.0852 105.587 43.9981 106.021 43.8239 106.449C43.6534 106.877 43.3485 107.352 42.9091 107.875C42.4697 108.394 41.8504 109.017 41.0511 109.744L39.3523 111.409V111.489H44.2386V113.5H35.9432Z" fill="black"/>
<path d="M36.1193 132.5V131.227L40.0568 127.148C40.4773 126.705 40.8239 126.316 41.0966 125.983C41.3731 125.646 41.5795 125.326 41.7159 125.023C41.8523 124.72 41.9205 124.398 41.9205 124.057C41.9205 123.67 41.8295 123.337 41.6477 123.057C41.4659 122.773 41.2178 122.555 40.9034 122.403C40.589 122.248 40.2348 122.17 39.8409 122.17C39.4242 122.17 39.0606 122.256 38.75 122.426C38.4394 122.597 38.2008 122.837 38.0341 123.148C37.8674 123.458 37.7841 123.822 37.7841 124.239H36.108C36.108 123.53 36.2708 122.911 36.5966 122.381C36.9223 121.85 37.3693 121.439 37.9375 121.148C38.5057 120.852 39.1515 120.705 39.875 120.705C40.6061 120.705 41.25 120.85 41.8068 121.142C42.3674 121.43 42.8049 121.824 43.1193 122.324C43.4337 122.82 43.5909 123.381 43.5909 124.006C43.5909 124.438 43.5095 124.86 43.3466 125.273C43.1875 125.686 42.9091 126.146 42.5114 126.653C42.1136 127.157 41.5606 127.769 40.8523 128.489L38.5398 130.909V130.994H43.7784V132.5H36.1193Z" fill="black"/>
<path d="M36.1193 151.5V150.227L40.0568 146.148C40.4773 145.705 40.8239 145.316 41.0966 144.983C41.3731 144.646 41.5795 144.326 41.7159 144.023C41.8523 143.72 41.9205 143.398 41.9205 143.057C41.9205 142.67 41.8295 142.337 41.6477 142.057C41.4659 141.773 41.2178 141.555 40.9034 141.403C40.589 141.248 40.2348 141.17 39.8409 141.17C39.4242 141.17 39.0606 141.256 38.75 141.426C38.4394 141.597 38.2008 141.837 38.0341 142.148C37.8674 142.458 37.7841 142.822 37.7841 143.239H36.108C36.108 142.53 36.2708 141.911 36.5966 141.381C36.9223 140.85 37.3693 140.439 37.9375 140.148C38.5057 139.852 39.1515 139.705 39.875 139.705C40.6061 139.705 41.25 139.85 41.8068 140.142C42.3674 140.43 42.8049 140.824 43.1193 141.324C43.4337 141.82 43.5909 142.381 43.5909 143.006C43.5909 143.438 43.5095 143.86 43.3466 144.273C43.1875 144.686 42.9091 145.146 42.5114 145.653C42.1136 146.157 41.5606 146.769 40.8523 147.489L38.5398 149.909V149.994H43.7784V151.5H36.1193Z" fill="black"/>
<path d="M36.1193 170.5V169.227L40.0568 165.148C40.4773 164.705 40.8239 164.316 41.0966 163.983C41.3731 163.646 41.5795 163.326 41.7159 163.023C41.8523 162.72 41.9205 162.398 41.9205 162.057C41.9205 161.67 41.8295 161.337 41.6477 161.057C41.4659 160.773 41.2178 160.555 40.9034 160.403C40.589 160.248 40.2348 160.17 39.8409 160.17C39.4242 160.17 39.0606 160.256 38.75 160.426C38.4394 160.597 38.2008 160.837 38.0341 161.148C37.8674 161.458 37.7841 161.822 37.7841 162.239H36.108C36.108 161.53 36.2708 160.911 36.5966 160.381C36.9223 159.85 37.3693 159.439 37.9375 159.148C38.5057 158.852 39.1515 158.705 39.875 158.705C40.6061 158.705 41.25 158.85 41.8068 159.142C42.3674 159.43 42.8049 159.824 43.1193 160.324C43.4337 160.82 43.5909 161.381 43.5909 162.006C43.5909 162.438 43.5095 162.86 43.3466 163.273C43.1875 163.686 42.9091 164.146 42.5114 164.653C42.1136 165.157 41.5606 165.769 40.8523 166.489L38.5398 168.909V168.994H43.7784V170.5H36.1193Z" fill="black"/>
<path d="M27.1932 60.5C27.0838 60.1652 26.9396 59.8653 26.7607 59.6001C26.585 59.3317 26.3745 59.103 26.1293 58.9141C25.8873 58.7251 25.6122 58.581 25.304 58.4815C24.9957 58.3821 24.6577 58.3324 24.2898 58.3324C23.6866 58.3324 23.138 58.4882 22.6442 58.7997C22.1503 59.1113 21.7576 59.5703 21.4659 60.1768C21.1742 60.7834 21.0284 61.5275 21.0284 62.4091C21.0284 63.2907 21.1759 64.0348 21.4709 64.6413C21.7659 65.2479 22.1652 65.7069 22.669 66.0185C23.1728 66.33 23.7396 66.4858 24.3693 66.4858C24.9527 66.4858 25.4664 66.3615 25.9105 66.1129C26.358 65.861 26.706 65.5064 26.9545 65.049C27.2064 64.5883 27.3324 64.0464 27.3324 63.4233L27.7102 63.5028H24.6477V62.4091H28.5256V63.5028C28.5256 64.3414 28.3466 65.0705 27.9886 65.6903C27.634 66.3101 27.1435 66.7907 26.517 67.1321C25.8939 67.4702 25.178 67.6392 24.3693 67.6392C23.4678 67.6392 22.6757 67.4271 21.9929 67.0028C21.3134 66.5786 20.7831 65.9754 20.402 65.1932C20.0241 64.411 19.8352 63.483 19.8352 62.4091C19.8352 61.6037 19.9429 60.8795 20.1584 60.2365C20.3771 59.5902 20.6854 59.04 21.0831 58.5859C21.4808 58.1319 21.9515 57.7839 22.495 57.5419C23.0386 57.3 23.6368 57.179 24.2898 57.179C24.8267 57.179 25.3272 57.2602 25.7912 57.4226C26.2585 57.5817 26.6745 57.8087 27.0391 58.1037C27.407 58.3954 27.7135 58.745 27.9588 59.1527C28.2041 59.5571 28.3731 60.0062 28.4659 60.5H27.1932ZM32.7253 67.679C32.2414 67.679 31.8023 67.5878 31.4078 67.4055C31.0134 67.2199 30.7002 66.9531 30.4682 66.6051C30.2362 66.2538 30.1202 65.8295 30.1202 65.3324C30.1202 64.8949 30.2064 64.5402 30.3787 64.2685C30.5511 63.9934 30.7814 63.7779 31.0698 63.6222C31.3581 63.4664 31.6763 63.3504 32.0243 63.2741C32.3757 63.1946 32.7286 63.1316 33.0833 63.0852C33.5473 63.0256 33.9235 62.9808 34.2118 62.951C34.5035 62.9179 34.7156 62.8632 34.8482 62.7869C34.9841 62.7107 35.052 62.5781 35.052 62.3892V62.3494C35.052 61.8589 34.9178 61.4777 34.6493 61.206C34.3842 60.9342 33.9815 60.7983 33.4412 60.7983C32.8811 60.7983 32.4419 60.9209 32.1238 61.1662C31.8056 61.4115 31.5819 61.6733 31.4526 61.9517L30.339 61.554C30.5378 61.09 30.803 60.7287 31.1344 60.4702C31.4692 60.2083 31.8337 60.026 32.2282 59.9233C32.6259 59.8172 33.017 59.7642 33.4015 59.7642C33.6467 59.7642 33.9284 59.794 34.2466 59.8537C34.5681 59.91 34.878 60.0277 35.1763 60.2067C35.4779 60.3857 35.7282 60.6558 35.927 61.017C36.1259 61.3783 36.2253 61.8622 36.2253 62.4688V67.5H35.052V66.4659H34.9924C34.9128 66.6316 34.7802 66.8089 34.5946 66.9979C34.409 67.1868 34.1621 67.3475 33.8539 67.4801C33.5456 67.6127 33.1694 67.679 32.7253 67.679ZM32.9043 66.625C33.3683 66.625 33.7594 66.5339 34.0776 66.3516C34.3991 66.1693 34.641 65.9339 34.8034 65.6456C34.9692 65.3572 35.052 65.054 35.052 64.7358V63.6619C35.0023 63.7216 34.8929 63.7763 34.7239 63.826C34.5582 63.8724 34.3659 63.9138 34.1472 63.9503C33.9318 63.9834 33.7213 64.0133 33.5158 64.0398C33.3136 64.063 33.1496 64.0829 33.0236 64.0994C32.7187 64.1392 32.4337 64.2038 32.1685 64.2933C31.9067 64.3795 31.6945 64.5104 31.5321 64.6861C31.373 64.8584 31.2935 65.0937 31.2935 65.392C31.2935 65.7997 31.4443 66.108 31.7459 66.3168C32.0508 66.5223 32.437 66.625 32.9043 66.625ZM41.6879 59.8636V60.858H37.7305V59.8636H41.6879ZM38.8839 58.0341H40.0572V65.3125C40.0572 65.6439 40.1052 65.8925 40.2013 66.0582C40.3008 66.2206 40.4267 66.33 40.5792 66.3864C40.735 66.4394 40.899 66.4659 41.0714 66.4659C41.2006 66.4659 41.3067 66.4593 41.3896 66.446C41.4724 66.4295 41.5387 66.4162 41.5884 66.4062L41.8271 67.4602C41.7475 67.4901 41.6365 67.5199 41.494 67.5497C41.3514 67.5829 41.1708 67.5994 40.9521 67.5994C40.6206 67.5994 40.2958 67.5282 39.9776 67.3857C39.6628 67.2431 39.4009 67.026 39.1921 66.7344C38.9866 66.4427 38.8839 66.0748 38.8839 65.6307V58.0341ZM46.5724 67.6591C45.8366 67.6591 45.2019 67.4967 44.6683 67.1719C44.138 66.8438 43.7287 66.3864 43.4403 65.7997C43.1553 65.2098 43.0128 64.5237 43.0128 63.7415C43.0128 62.9593 43.1553 62.2699 43.4403 61.6733C43.7287 61.0734 44.1297 60.6061 44.6435 60.2713C45.1605 59.9332 45.7637 59.7642 46.4531 59.7642C46.8509 59.7642 47.2436 59.8305 47.6314 59.9631C48.0192 60.0956 48.3722 60.3111 48.6903 60.6094C49.0085 60.9044 49.2621 61.2955 49.451 61.7827C49.6399 62.2699 49.7344 62.8698 49.7344 63.5824V64.0795H43.848V63.0653H48.5412C48.5412 62.6345 48.455 62.25 48.2827 61.9119C48.1136 61.5739 47.8717 61.3071 47.5568 61.1115C47.2453 60.916 46.8774 60.8182 46.4531 60.8182C45.9858 60.8182 45.5814 60.9342 45.2401 61.1662C44.902 61.3949 44.6418 61.6932 44.4595 62.0611C44.2772 62.429 44.1861 62.8234 44.1861 63.2443V63.9205C44.1861 64.4972 44.2855 64.986 44.4844 65.3871C44.6866 65.7848 44.9666 66.0881 45.3246 66.2969C45.6825 66.5024 46.0985 66.6051 46.5724 66.6051C46.8807 66.6051 47.1591 66.562 47.4077 66.4759C47.6596 66.3864 47.8767 66.2538 48.0589 66.0781C48.2412 65.8991 48.3821 65.6771 48.4815 65.4119L49.6151 65.7301C49.4957 66.1146 49.2952 66.4527 49.0135 66.7443C48.7318 67.0327 48.3838 67.258 47.9695 67.4205C47.5552 67.5795 47.0895 67.6591 46.5724 67.6591Z" fill="black"/>
</g>
<defs>
<clipPath id="clip0_190_61">
<rect width="800" height="600" fill="white"/>
</clipPath>
</defs>
</svg>
