<svg width="800" height="600" viewBox="0 0 800 600" fill="none" xmlns="http://www.w3.org/2000/svg">
<g clip-path="url(#clip0_190_252)">
<rect width="800" height="600" fill="white"/>
<path d="M0 480.5H88.5M800 480.5H165.5M165.5 480.5L450 196H545.5M165.5 480.5H94.5H88.5M800 196H545.5M545.5 196V169.5C545.5 155.141 533.859 143.5 519.5 143.5H440.198C434.629 143.5 429.288 145.712 425.349 149.651L149.151 425.849C145.212 429.788 139.871 432 134.302 432H114.5C100.141 432 88.5 443.641 88.5 458V480.5" stroke="black" stroke-width="3"/>
<path fill-rule="evenodd" clip-rule="evenodd" d="M52 533H-487C-487 453.5 -477 356 -382 356H52V533ZM-362.5 376V456H-250V376H-362.5ZM-223 456V376H-114.5V456H-223ZM28.0006 456V376H-92V456H28.0006ZM-463.199 456C-458.612 414.166 -443.166 376 -394.481 376V456H-463.199Z" fill="white" stroke="black" stroke-width="3"/>
<path d="M605.999 144.5C597.999 151 583.599 165.9 589.999 173.5M609.5 146.5C611.167 155.5 615.7 172.6 620.5 169M596 190.5C601.2 182.9 606.666 156.5 605.999 149C607.666 161 617.5 189.5 619.5 189.5" stroke="black" stroke-width="3"/>
<path d="M607.5 122.5C615.559 122.5 622 128.369 622 135.5C622 142.631 615.559 148.5 607.5 148.5C599.441 148.5 593 142.631 593 135.5C593 128.369 599.441 122.5 607.5 122.5Z" fill="white" stroke="black"/>
<circle cx="605.5" cy="133" r="1.5" stroke="black"/>
<circle cx="612.5" cy="134" r="1.5" stroke="black"/>
<path d="M578.5 191L571 187L578.5 173.5L587 179L578.5 191Z" fill="#D9D9D9"/>
<path d="M587 179L578.5 191L571 187L578.5 173.5L587 179ZM587 179L593.5 170.5" stroke="#B80000" stroke-width="3"/>
<path d="M289.293 262.707C289.683 263.098 290.317 263.098 290.707 262.707L297.071 256.343C297.462 255.953 297.462 255.319 297.071 254.929C296.681 254.538 296.047 254.538 295.657 254.929L290 260.586L284.343 254.929C283.953 254.538 283.319 254.538 282.929 254.929C282.538 255.319 282.538 255.953 282.929 256.343L289.293 262.707ZM290 35L289 35L289 262L290 262L291 262L291 35L290 35Z" fill="black"/>
<path d="M296.219 62V34.5H304.594L306.906 51.2656L309.203 34.5H317.656V62H312.625V42.1875L309.469 62H304.531L301.188 42.1875V62H296.219ZM319.664 62L322.32 37.625H331.648L334.257 62H329.054L328.695 57.5625H325.32L325.007 62H319.664ZM326.789 42L325.773 53.1719H328.179L327.039 42H326.789ZM336.015 62V37.625H341.327V62H336.015ZM343.835 62V37.625H349.491L352.335 50.8438V37.625H357.335V62H351.96L348.897 48.7969V62H343.835ZM362.452 62V42.9062H359.186V37.625H371.217V42.9062H367.952V62H362.452ZM373.069 62V37.625H384.069V42.9375H378.662V46.9688H383.85V52.1406H378.662V56.6406H384.428V62H373.069ZM386.576 62V37.625H392.232L395.076 50.8438V37.625H400.076V62H394.701L391.639 48.7969V62H386.576ZM402.084 62L404.74 37.625H414.068L416.677 62H411.474L411.115 57.5625H407.74L407.427 62H402.084ZM409.209 42L408.193 53.1719H410.599L409.459 42H409.209ZM418.685 62V37.625H424.341L427.185 50.8438V37.625H432.185V62H426.81L423.747 48.7969V62H418.685ZM441.349 62.25C439.359 62.25 437.755 61.6302 436.536 60.3906C435.328 59.151 434.724 57.4167 434.724 55.1875V45.625C434.724 42.9583 435.25 40.9167 436.302 39.5C437.364 38.0833 439.088 37.375 441.474 37.375C442.776 37.375 443.932 37.6146 444.943 38.0938C445.963 38.5729 446.765 39.2917 447.349 40.25C447.932 41.1979 448.224 42.3958 448.224 43.8438V48.2188H442.755V44.375C442.755 43.5521 442.651 43 442.443 42.7188C442.234 42.4271 441.911 42.2812 441.474 42.2812C440.963 42.2812 440.62 42.4688 440.443 42.8438C440.265 43.2083 440.177 43.6979 440.177 44.3125V55.2656C440.177 56.026 440.286 56.5625 440.505 56.875C440.734 57.1875 441.057 57.3438 441.474 57.3438C441.943 57.3438 442.271 57.151 442.458 56.7656C442.656 56.3802 442.755 55.8802 442.755 55.2656V51.7188H448.286V55.3594C448.286 57.776 447.677 59.5312 446.458 60.625C445.239 61.7083 443.536 62.25 441.349 62.25ZM450.45 62V37.625H461.45V42.9375H456.044V46.9688H461.231V52.1406H456.044V56.6406H461.809V62H450.45ZM302.75 110.25C300.24 110.25 298.427 109.625 297.312 108.375C296.208 107.125 295.656 105.135 295.656 102.406V99.7188H301.094V103.156C301.094 103.792 301.188 104.292 301.375 104.656C301.573 105.01 301.911 105.188 302.391 105.188C302.891 105.188 303.234 105.042 303.422 104.75C303.62 104.458 303.719 103.979 303.719 103.312C303.719 102.469 303.635 101.766 303.469 101.203C303.302 100.63 303.01 100.089 302.594 99.5781C302.188 99.0573 301.62 98.4531 300.891 97.7656L298.422 95.4219C296.578 93.6823 295.656 91.6927 295.656 89.4531C295.656 87.1094 296.198 85.3229 297.281 84.0938C298.375 82.8646 299.953 82.25 302.016 82.25C304.536 82.25 306.323 82.9219 307.375 84.2656C308.438 85.6094 308.969 87.651 308.969 90.3906H303.375V88.5C303.375 88.125 303.266 87.8333 303.047 87.625C302.839 87.4167 302.552 87.3125 302.188 87.3125C301.75 87.3125 301.427 87.4375 301.219 87.6875C301.021 87.9271 300.922 88.2396 300.922 88.625C300.922 89.0104 301.026 89.4271 301.234 89.875C301.443 90.3229 301.854 90.8385 302.469 91.4219L305.641 94.4688C306.276 95.0729 306.859 95.7135 307.391 96.3906C307.922 97.0573 308.349 97.8385 308.672 98.7344C308.995 99.6198 309.156 100.703 309.156 101.984C309.156 104.568 308.677 106.594 307.719 108.062C306.771 109.521 305.115 110.25 302.75 110.25ZM317.726 110.25C315.737 110.25 314.132 109.63 312.914 108.391C311.705 107.151 311.101 105.417 311.101 103.188V93.625C311.101 90.9583 311.627 88.9167 312.679 87.5C313.742 86.0833 315.466 85.375 317.851 85.375C319.153 85.375 320.31 85.6146 321.32 86.0938C322.341 86.5729 323.143 87.2917 323.726 88.25C324.31 89.1979 324.601 90.3958 324.601 91.8438V96.2188H319.132V92.375C319.132 91.5521 319.028 91 318.82 90.7188C318.612 90.4271 318.289 90.2812 317.851 90.2812C317.341 90.2812 316.997 90.4688 316.82 90.8438C316.643 91.2083 316.554 91.6979 316.554 92.3125V103.266C316.554 104.026 316.664 104.562 316.882 104.875C317.112 105.188 317.435 105.344 317.851 105.344C318.32 105.344 318.648 105.151 318.836 104.766C319.034 104.38 319.132 103.88 319.132 103.266V99.7188H324.664V103.359C324.664 105.776 324.054 107.531 322.836 108.625C321.617 109.708 319.914 110.25 317.726 110.25ZM326.827 110V85.625H332.296V94.2812H334.89V85.625H340.359V110H334.89V99.4844H332.296V110H326.827ZM343.116 110V85.625H354.116V90.9375H348.71V94.9688H353.897V100.141H348.71V104.641H354.476V110H343.116ZM356.624 110V85.625H364.202C366.181 85.625 367.665 86.1771 368.655 87.2812C369.655 88.375 370.155 89.9792 370.155 92.0938V101.844C370.155 104.448 369.702 106.458 368.796 107.875C367.889 109.292 366.296 110 364.014 110H356.624ZM362.155 105.141H363.108C364.119 105.141 364.624 104.651 364.624 103.672V92.6094C364.624 91.6927 364.499 91.1042 364.249 90.8438C364.009 90.5729 363.514 90.4375 362.764 90.4375H362.155V105.141ZM379.084 110.25C376.793 110.25 375.105 109.609 374.022 108.328C372.939 107.036 372.397 105.141 372.397 102.641V85.625H377.741V102.578C377.741 103.036 377.767 103.479 377.819 103.906C377.871 104.323 377.991 104.667 378.178 104.938C378.366 105.208 378.668 105.344 379.084 105.344C379.511 105.344 379.819 105.214 380.006 104.953C380.194 104.682 380.308 104.333 380.35 103.906C380.402 103.479 380.428 103.036 380.428 102.578V85.625H385.772V102.641C385.772 105.141 385.23 107.036 384.147 108.328C383.064 109.609 381.376 110.25 379.084 110.25ZM388.201 110V85.625H393.701V105.312H399.357V110H388.201ZM400.99 110V85.625H406.302V110H400.99ZM408.81 110V85.625H414.466L417.31 98.8438V85.625H422.31V110H416.935L413.872 96.7969V110H408.81ZM430.739 110.25C426.812 110.25 424.849 107.438 424.849 101.812V93.1719C424.849 88.0365 427.099 85.4688 431.599 85.4688C433.453 85.4688 434.875 85.8073 435.864 86.4844C436.854 87.151 437.536 88.1094 437.911 89.3594C438.286 90.6094 438.474 92.1146 438.474 93.875H433.099V92.625C433.099 92.0312 433.015 91.5365 432.849 91.1406C432.693 90.7344 432.359 90.5312 431.849 90.5312C431.213 90.5312 430.791 90.7448 430.583 91.1719C430.385 91.599 430.286 92.0677 430.286 92.5781V102.688C430.286 103.427 430.38 104.031 430.568 104.5C430.765 104.958 431.146 105.188 431.708 105.188C432.291 105.188 432.677 104.958 432.864 104.5C433.062 104.031 433.161 103.417 433.161 102.656V100.688H431.693V95.9375H438.411V110H436.208L435.271 107.688C434.312 109.396 432.802 110.25 430.739 110.25Z" fill="black"/>
<rect x="49" y="145" width="194" height="37" stroke="black" stroke-width="2"/>
<path d="M93.5526 170V168.266L100.448 158.591H93.5391V156.182H104.119V157.916L97.2163 167.591H104.132V170H93.5526ZM108.756 170H105.625L110.395 156.182H114.16L118.924 170H115.793L112.332 159.339H112.224L108.756 170ZM108.56 164.569H115.955V166.849H108.56V164.569ZM121.358 156.182L124.697 166.68H124.826L128.172 156.182H131.411L126.647 170H122.882L118.112 156.182H121.358ZM133.074 170V156.182H142.385V158.591H135.996V161.883H141.906V164.292H135.996V167.591H142.412V170H133.074ZM156.266 156.182V170H153.742L147.731 161.303H147.629V170H144.708V156.182H147.272L153.236 164.872H153.358V156.182H156.266ZM158.153 158.591V156.182H169.502V158.591H165.271V170H162.384V158.591H158.153ZM171.371 170V156.182H180.682V158.591H174.292V161.883H180.203V164.292H174.292V167.591H180.709V170H171.371ZM183.005 156.182H186.608L190.413 165.466H190.575L194.38 156.182H197.983V170H195.15V161.006H195.035L191.459 169.933H189.529L185.953 160.972H185.839V170H183.005V156.182Z" fill="black"/>
</g>
<defs>
<clipPath id="clip0_190_252">
<rect width="800" height="600" fill="white"/>
</clipPath>
</defs>
</svg>
