<svg width="800" height="600" viewBox="0 0 800 600" fill="none" xmlns="http://www.w3.org/2000/svg">
<g clip-path="url(#clip0_190_121)">
<rect width="800" height="600" fill="white"/>
<ellipse cx="691.5" cy="452.5" rx="8.5" ry="18.5" fill="#D9D9D9"/>
<path d="M687 437L690.5 439.5M690.5 439.5L695.5 437M690.5 439.5L689.5 452.5M690.5 439.5L688 447L689.5 452.5M690.5 439.5L692 447L689.5 452.5" stroke="#08366A" stroke-width="3"/>
<ellipse cx="692" cy="425.5" rx="12" ry="10.5" fill="#D9D9D9"/>
<path d="M701 418L702 411H693L686.5 409L684.5 416L692 414L701 418Z" fill="#08366A"/>
<path d="M684.5 416L692 414L701 418L702 411H693L686.5 409L684.5 416ZM684.5 416L676 413" stroke="#08366A" stroke-width="3"/>
<ellipse cx="537.5" cy="435.5" rx="8.5" ry="25.5" fill="#D9D9D9"/>
<path d="M402.595 429.5C394.595 436 380.195 450.9 386.595 458.5M406.096 431.5C407.762 440.5 412.296 457.6 417.096 454M392.596 475.5C397.796 467.9 403.262 441.5 402.595 434C404.262 446 414.096 474.5 416.096 474.5" stroke="black" stroke-width="3"/>
<path d="M404.096 407.5C412.155 407.5 418.596 413.369 418.596 420.5C418.596 427.631 412.155 433.5 404.096 433.5C396.037 433.5 389.596 427.631 389.596 420.5C389.596 413.369 396.037 407.5 404.096 407.5Z" fill="white" stroke="black"/>
<circle cx="402.096" cy="418" r="1.5" stroke="black"/>
<circle cx="409.096" cy="419" r="1.5" stroke="black"/>
<path d="M-464 195.5H-209.5M-209.5 195.5H-114L170.5 480H241.5H247.5M-209.5 195.5V169C-209.5 154.641 -197.859 143 -183.5 143H-104.198C-98.6289 143 -93.2875 145.212 -89.3492 149.151L186.849 425.349C190.788 429.288 196.129 431.5 201.698 431.5H221.5C235.859 431.5 247.5 443.141 247.5 457.5V480M247.5 480H336H747.5" stroke="black" stroke-width="3"/>
<path d="M499.5 450.5V480.5H651.5V450.5H625.5H565H499.5Z" fill="white"/>
<path d="M565 422.5V450.5H625.5V422.5H565Z" fill="black"/>
<path d="M704 480.5L704 450.5H678V480.5H704Z" fill="white"/>
<path d="M499.5 480.5V450.5H565M499.5 480.5H704M499.5 480.5H651.5V450.5M704 480.5L704 450.5H678M704 480.5H678V450.5M565 450.5V422.5H625.5V450.5M565 450.5H625.5M625.5 450.5H651.5M651.5 450.5V398C651.5 396.343 652.843 395 654.5 395H675C676.657 395 678 396.343 678 398V450.5M651.5 450.5H678" stroke="#010101" stroke-width="4"/>
<ellipse cx="538" cy="403.5" rx="12" ry="10.5" fill="#D9D9D9"/>
<ellipse cx="535" cy="401.5" rx="1" ry="0.5" fill="black"/>
<ellipse cx="689" cy="423.5" rx="1" ry="0.5" fill="black"/>
<ellipse cx="539" cy="401.5" rx="1" ry="0.5" fill="black"/>
<ellipse cx="693" cy="423.5" rx="1" ry="0.5" fill="black"/>
<line x1="537.842" y1="399.526" x2="540.842" y2="398.526" stroke="black"/>
<line x1="691.842" y1="421.526" x2="694.842" y2="420.526" stroke="black"/>
<line x1="534.277" y1="398.584" x2="537.277" y2="400.584" stroke="black"/>
<line x1="688.277" y1="420.584" x2="691.277" y2="422.584" stroke="black"/>
<path d="M547 396L548 389H539L532.5 387L530.5 394L538 392L547 396Z" fill="#08366A"/>
<path d="M530.5 394L538 392L547 396L548 389H539L532.5 387L530.5 394ZM530.5 394L522 391" stroke="#08366A" stroke-width="3"/>
<path d="M533.5 413.5L537 416M537 416L542 413.5M537 416L536 429M537 416L534.5 423.5L536 429M537 416L538.5 423.5L536 429" stroke="#08366A" stroke-width="3"/>
</g>
<defs>
<clipPath id="clip0_190_121">
<rect width="800" height="600" fill="white"/>
</clipPath>
</defs>
</svg>
