<?xml version="1.0" encoding="UTF-8" standalone="no"?>
<!-- Created with Inkscape (http://www.inkscape.org/) -->

<svg
   width="800"
   height="600"
   id="svg2"
   version="1.1"
   xmlns="http://www.w3.org/2000/svg"
   xmlns:svg="http://www.w3.org/2000/svg"
   xmlns:rdf="http://www.w3.org/1999/02/22-rdf-syntax-ns#"
   xmlns:cc="http://creativecommons.org/ns#"
   xmlns:dc="http://purl.org/dc/elements/1.1/">
  <defs
     id="defs4" />
  <metadata
     id="metadata7">
    <rdf:RDF>
      <cc:Work
         rdf:about="">
        <dc:format>image/svg+xml</dc:format>
        <dc:type
           rdf:resource="http://purl.org/dc/dcmitype/StillImage" />
        <dc:language>en</dc:language>
        <cc:license
           rdf:resource="https://timefold.ai/license" />
      </cc:Work>
    </rdf:RDF>
  </metadata>
  <g
     id="layer1"
     transform="translate(0,-452.36218)"
     style="display:inline">
    <path
       style="font-size:36px;line-height:1.25;font-family:'Liberation Sans';-inkscape-font-specification:'Liberation Sans, Normal';text-align:center;text-anchor:middle"
       d="m 334.0957,243.392 3.41016,0.86133 q -1.07227,4.20117 -3.86719,6.41602 -2.77734,2.19726 -6.80273,2.19726 -4.16602,0 -6.78516,-1.6875 -2.60156,-1.70508 -3.97266,-4.92187 -1.35351,-3.2168 -1.35351,-6.90821 0,-4.02539 1.5293,-7.01367 1.54687,-3.00586 4.37695,-4.55273 2.84766,-1.56446 6.25781,-1.56446 3.86719,0 6.50391,1.96875 2.63672,1.96875 3.67383,5.53711 l -3.35743,0.79102 q -0.89648,-2.8125 -2.60156,-4.0957 -1.70508,-1.28321 -4.28906,-1.28321 -2.9707,0 -4.97461,1.42383 -1.98633,1.42383 -2.79492,3.83203 -0.8086,2.39063 -0.8086,4.93946 0,3.28711 0.94922,5.74804 0.9668,2.44336 2.98828,3.65625 2.02149,1.21289 4.37696,1.21289 2.86523,0 4.85156,-1.65234 1.98633,-1.65234 2.68945,-4.9043 z m 7.20703,9.03516 v -25.76953 h 3.16407 v 9.24609 q 2.21484,-2.5664 5.58984,-2.5664 2.07422,0 3.60352,0.82617 1.52929,0.80859 2.17968,2.25 0.66797,1.4414 0.66797,4.18359 v 11.83008 h -3.16406 v -11.83008 q 0,-2.37305 -1.03711,-3.44531 -1.01953,-1.08985 -2.90039,-1.08985 -1.40625,0 -2.6543,0.73829 -1.23047,0.7207 -1.75781,1.96875 -0.52734,1.24804 -0.52734,3.44531 v 10.21289 z m 32.20313,-2.30274 q -1.75781,1.49415 -3.39258,2.10938 -1.61719,0.61523 -3.48047,0.61523 -3.07617,0 -4.72851,-1.49414 -1.65235,-1.51172 -1.65235,-3.84961 0,-1.37109 0.61524,-2.49609 0.63281,-1.14258 1.63476,-1.82812 1.01953,-0.68555 2.28516,-1.03711 0.93164,-0.2461 2.8125,-0.47461 3.83203,-0.45703 5.64258,-1.08985 0.0176,-0.65039 0.0176,-0.82617 0,-1.93359 -0.89649,-2.72461 -1.21289,-1.07226 -3.60351,-1.07226 -2.23243,0 -3.30469,0.79101 -1.05469,0.77344 -1.56446,2.75977 l -3.09375,-0.42188 q 0.42188,-1.98633 1.38868,-3.19922 0.96679,-1.23047 2.79492,-1.88086 1.82812,-0.66796 4.23633,-0.66796 2.39062,0 3.88476,0.5625 1.49414,0.5625 2.19727,1.42382 0.70312,0.84375 0.98437,2.14453 0.15821,0.8086 0.15821,2.91797 v 4.21875 q 0,4.41211 0.19336,5.58985 0.21093,1.16015 0.80859,2.23242 h -3.30469 q -0.49219,-0.98438 -0.63281,-2.30274 z m -0.26367,-7.0664 q -1.72266,0.70312 -5.16797,1.19531 -1.95117,0.28125 -2.75977,0.63281 -0.80859,0.35157 -1.24804,1.03711 -0.43946,0.66797 -0.43946,1.49414 0,1.26563 0.94922,2.10938 0.9668,0.84375 2.8125,0.84375 1.82813,0 3.25195,-0.79102 1.42383,-0.80859 2.0918,-2.19726 0.50977,-1.07227 0.50977,-3.16407 z m 8.10351,9.36914 v -18.66797 h 2.84766 v 2.6543 q 2.05664,-3.07617 5.94141,-3.07617 1.6875,0 3.09375,0.61523 1.42382,0.59766 2.12695,1.58203 0.70312,0.98438 0.98437,2.33789 0.17578,0.87891 0.17578,3.07617 v 11.47852 h -3.16406 v -11.35547 q 0,-1.93359 -0.36914,-2.88281 -0.36914,-0.9668 -1.31836,-1.5293 -0.93164,-0.58008 -2.19726,-0.58008 -2.02149,0 -3.49805,1.28321 -1.45898,1.2832 -1.45898,4.86914 v 10.19531 z m 19.44141,1.54687 3.07617,0.45704 q 0.19336,1.42382 1.07227,2.07421 1.17773,0.87891 3.21679,0.87891 2.19727,0 3.39258,-0.87891 1.19531,-0.8789 1.61719,-2.46093 0.24609,-0.9668 0.22851,-4.06055 -2.07421,2.44336 -5.16796,2.44336 -3.84961,0 -5.95899,-2.77734 -2.10937,-2.77735 -2.10937,-6.66211 0,-2.67188 0.96679,-4.92188 0.9668,-2.26758 2.79493,-3.49805 1.8457,-1.23046 4.32421,-1.23046 3.30469,0 5.44922,2.67187 v -2.25 h 2.91797 v 16.13672 q 0,4.35937 -0.89648,6.16992 -0.87891,1.82813 -2.8125,2.88281 -1.91602,1.05469 -4.72852,1.05469 -3.33984,0 -5.39648,-1.51172 -2.05664,-1.49414 -1.98633,-4.51758 z m 2.61914,-11.21484 q 0,3.67383 1.45898,5.36133 1.45899,1.6875 3.65625,1.6875 2.17969,0 3.65625,-1.66992 1.47657,-1.6875 1.47657,-5.27344 0,-3.42774 -1.5293,-5.16797 -1.51172,-1.74023 -3.65625,-1.74023 -2.10938,0 -3.58594,1.72265 -1.47656,1.70508 -1.47656,5.08008 z m 30.76172,3.65625 3.26953,0.4043 q -0.77344,2.86523 -2.86523,4.44726 -2.0918,1.58203 -5.34375,1.58203 -4.09571,0 -6.50391,-2.51367 -2.39063,-2.53125 -2.39063,-7.08398 0,-4.71094 2.42579,-7.3125 2.42578,-2.60156 6.29296,-2.60156 3.74414,0 6.11719,2.54882 2.37305,2.54883 2.37305,7.17188 0,0.28125 -0.0176,0.84375 h -13.92187 q 0.17578,3.07617 1.74023,4.71094 1.56445,1.63476 3.90234,1.63476 1.74024,0 2.97071,-0.91406 1.23047,-0.91406 1.95117,-2.91797 z m -10.38867,-5.11523 h 10.42382 q -0.21093,-2.35547 -1.19531,-3.53321 -1.51172,-1.82812 -3.91992,-1.82812 -2.17969,0 -3.67383,1.45898 -1.47656,1.45899 -1.63476,3.90235 z m 17.92968,11.12695 v -25.76953 h 5.13282 l 6.09961,18.24609 q 0.84375,2.54883 1.23046,3.81445 0.43946,-1.40625 1.3711,-4.13085 l 6.16992,-17.92969 h 4.58789 v 25.76953 h -3.28711 V 230.8588 l -7.48828,21.56836 h -3.07617 l -7.45313,-21.9375 v 21.9375 z m 28.51172,-9.33399 q 0,-5.18554 2.88282,-7.68164 2.4082,-2.07421 5.87109,-2.07421 3.84961,0 6.29297,2.53125 2.44336,2.51367 2.44336,6.96093 0,3.60352 -1.08985,5.67774 -1.07226,2.05664 -3.14648,3.19922 -2.05664,1.14257 -4.5,1.14257 -3.91992,0 -6.3457,-2.51367 -2.40821,-2.51367 -2.40821,-7.24219 z m 3.25196,0 q 0,3.58594 1.56445,5.37891 1.56445,1.77539 3.9375,1.77539 2.35547,0 3.91992,-1.79297 1.56445,-1.79297 1.56445,-5.46679 0,-3.46289 -1.58203,-5.23829 -1.56445,-1.79296 -3.90234,-1.79296 -2.37305,0 -3.9375,1.77539 -1.56445,1.77539 -1.56445,5.36132 z m 23.13281,9.33399 -7.10156,-18.66797 h 3.33984 l 4.00781,11.17969 q 0.65039,1.81054 1.19531,3.76172 0.42188,-1.47657 1.17774,-3.55078 l 4.14844,-11.39063 h 3.25195 l -7.06641,18.66797 z m 25.59375,-6.01172 3.26953,0.4043 q -0.77344,2.86523 -2.86523,4.44726 -2.0918,1.58203 -5.34375,1.58203 -4.09571,0 -6.50391,-2.51367 -2.39063,-2.53125 -2.39063,-7.08398 0,-4.71094 2.42579,-7.3125 2.42578,-2.60156 6.29296,-2.60156 3.74414,0 6.11719,2.54882 2.37305,2.54883 2.37305,7.17188 0,0.28125 -0.0176,0.84375 h -13.92187 q 0.17578,3.07617 1.74023,4.71094 1.56445,1.63476 3.90234,1.63476 1.74024,0 2.97071,-0.91406 1.23047,-0.91406 1.95117,-2.91797 z m -10.38867,-5.11523 h 10.42382 q -0.21093,-2.35547 -1.19531,-3.53321 -1.51172,-1.82812 -3.91992,-1.82812 -2.17969,0 -3.67383,1.45898 -1.47656,1.45899 -1.63476,3.90235 z"
       id="flowRoot4302"
       transform="translate(-20,262.36198)"
       aria-label="ChangeMove" />
    <path
       style="font-size:14px;line-height:1.25;font-family:'Liberation Sans';-inkscape-font-specification:'Liberation Sans, Normal';text-align:center;text-anchor:middle"
       d="m 339.11719,159.09689 1.32617,0.33496 q -0.41699,1.63379 -1.50391,2.49512 -1.08008,0.85449 -2.6455,0.85449 -1.62012,0 -2.63868,-0.65625 -1.01172,-0.66309 -1.54492,-1.91406 -0.52637,-1.25098 -0.52637,-2.68653 0,-1.56543 0.59473,-2.72753 0.60156,-1.16895 1.70215,-1.77051 1.10742,-0.6084 2.43359,-0.6084 1.50391,0 2.5293,0.76562 1.02539,0.76563 1.42871,2.15332 l -1.30566,0.30762 q -0.34864,-1.09375 -1.01172,-1.59277 -0.66309,-0.49903 -1.66797,-0.49903 -1.15527,0 -1.93457,0.55372 -0.77246,0.55371 -1.08692,1.49023 -0.31445,0.92969 -0.31445,1.9209 0,1.27832 0.36914,2.23535 0.37598,0.9502 1.16211,1.42188 0.78613,0.47167 1.70215,0.47167 1.11426,0 1.88672,-0.64257 0.77246,-0.64258 1.0459,-1.90723 z m 2.80273,3.51367 v -10.02148 h 1.23047 v 3.5957 q 0.86133,-0.99805 2.17383,-0.99805 0.80664,0 1.40137,0.32129 0.59472,0.31446 0.84765,0.875 0.25977,0.56055 0.25977,1.62696 v 4.60058 h -1.23047 v -4.60058 q 0,-0.92286 -0.40332,-1.33985 -0.39649,-0.42383 -1.12793,-0.42383 -0.54688,0 -1.03223,0.28711 -0.47851,0.28028 -0.68359,0.76563 -0.20508,0.48535 -0.20508,1.33984 v 3.97168 z m 12.52344,-0.89551 q -0.68359,0.58106 -1.31934,0.82032 -0.6289,0.23925 -1.35351,0.23925 -1.19629,0 -1.83887,-0.58105 -0.64258,-0.58789 -0.64258,-1.49707 0,-0.5332 0.23926,-0.9707 0.24609,-0.44434 0.63574,-0.71094 0.39649,-0.2666 0.88867,-0.40332 0.36231,-0.0957 1.09375,-0.18457 1.49024,-0.17774 2.19434,-0.42383 0.007,-0.25293 0.007,-0.32129 0,-0.75195 -0.34864,-1.05957 -0.47168,-0.41699 -1.40136,-0.41699 -0.86817,0 -1.28516,0.30762 -0.41016,0.30078 -0.6084,1.07324 l -1.20312,-0.16406 q 0.16406,-0.77247 0.54004,-1.24415 0.37597,-0.47851 1.08691,-0.73144 0.71094,-0.25977 1.64746,-0.25977 0.92969,0 1.51074,0.21875 0.58106,0.21875 0.85449,0.55371 0.27344,0.32813 0.38282,0.83399 0.0615,0.31445 0.0615,1.13476 v 1.64063 q 0,1.71582 0.0752,2.17383 0.082,0.45117 0.31445,0.86816 h -1.28516 q -0.1914,-0.38281 -0.24609,-0.89551 z m -0.10254,-2.74804 q -0.66992,0.27343 -2.00977,0.46484 -0.75878,0.10938 -1.07324,0.24609 -0.31445,0.13672 -0.48535,0.40333 -0.1709,0.25976 -0.1709,0.58105 0,0.49219 0.36914,0.82031 0.37598,0.32813 1.09375,0.32813 0.71094,0 1.26465,-0.30762 0.55371,-0.31445 0.81348,-0.85449 0.19824,-0.41699 0.19824,-1.23047 z m 3.15137,3.64355 v -7.25976 h 1.10742 v 1.03222 q 0.7998,-1.19629 2.31055,-1.19629 0.65625,0 1.20312,0.23926 0.55371,0.23242 0.82715,0.61524 0.27344,0.38281 0.38281,0.90918 0.0684,0.34179 0.0684,1.19628 v 4.46387 h -1.23047 v -4.41601 q 0,-0.75196 -0.14355,-1.1211 -0.14356,-0.37597 -0.5127,-0.59472 -0.3623,-0.22559 -0.85449,-0.22559 -0.78613,0 -1.36035,0.49902 -0.56738,0.49903 -0.56738,1.89356 v 3.96484 z m 7.56054,0.60156 1.19629,0.17774 q 0.0752,0.55371 0.417,0.80664 0.458,0.3418 1.25097,0.3418 0.85449,0 1.31934,-0.3418 0.46484,-0.3418 0.6289,-0.95703 0.0957,-0.37598 0.0889,-1.5791 -0.80664,0.95019 -2.00976,0.95019 -1.49707,0 -2.31739,-1.08008 -0.82031,-1.08007 -0.82031,-2.59082 0,-1.03906 0.37598,-1.91406 0.37597,-0.88183 1.08691,-1.36035 0.71777,-0.47852 1.68164,-0.47852 1.28516,0 2.11914,1.03907 v -0.875 h 1.13477 v 6.27539 q 0,1.69531 -0.34863,2.39941 -0.3418,0.71094 -1.09375,1.12109 -0.74512,0.41016 -1.83887,0.41016 -1.29883,0 -2.09863,-0.58789 -0.79981,-0.58105 -0.77247,-1.75684 z m 1.01856,-4.36132 q 0,1.42871 0.56738,2.08496 0.56738,0.65625 1.42188,0.65625 0.84765,0 1.42187,-0.64942 0.57422,-0.65625 0.57422,-2.05078 0,-1.33301 -0.59473,-2.00976 -0.58789,-0.67676 -1.42187,-0.67676 -0.82031,0 -1.39453,0.66992 -0.57422,0.66309 -0.57422,1.97559 z m 11.96289,1.42187 1.27148,0.15723 q -0.30078,1.11426 -1.11425,1.72949 -0.81348,0.61523 -2.07813,0.61523 -1.59277,0 -2.5293,-0.97753 -0.92968,-0.98438 -0.92968,-2.75489 0,-1.83203 0.94336,-2.84375 0.94336,-1.01172 2.44726,-1.01172 1.45606,0 2.37891,0.99121 0.92285,0.99122 0.92285,2.78907 0,0.10937 -0.007,0.32812 h -5.41406 q 0.0684,1.19629 0.67676,1.83203 0.6084,0.63575 1.51758,0.63575 0.67675,0 1.15527,-0.35547 0.47852,-0.35547 0.75879,-1.13477 z m -4.04004,-1.98926 h 4.05371 q -0.082,-0.91601 -0.46484,-1.37402 -0.58789,-0.71094 -1.52442,-0.71094 -0.84765,0 -1.42871,0.56739 -0.57422,0.56738 -0.63574,1.51757 z m 15.03906,4.32715 h -1.23047 v -7.84082 q -0.44433,0.42383 -1.16894,0.84766 -0.71777,0.42383 -1.29199,0.63574 v -1.18945 q 1.03222,-0.48535 1.80468,-1.17578 0.77247,-0.69043 1.09375,-1.33985 h 0.79297 z m 9.39942,0 -2.76172,-7.25976 h 1.29883 l 1.55859,4.34765 q 0.25293,0.7041 0.46484,1.46289 0.16407,-0.57422 0.45801,-1.38086 l 1.61328,-4.42968 h 1.26465 l -2.74805,7.25976 z m 9.7207,-0.89551 q -0.68359,0.58106 -1.31934,0.82032 -0.6289,0.23925 -1.35351,0.23925 -1.19629,0 -1.83887,-0.58105 -0.64258,-0.58789 -0.64258,-1.49707 0,-0.5332 0.23926,-0.9707 0.24609,-0.44434 0.63574,-0.71094 0.39649,-0.2666 0.88868,-0.40332 0.3623,-0.0957 1.09375,-0.18457 1.49023,-0.17774 2.19433,-0.42383 0.007,-0.25293 0.007,-0.32129 0,-0.75195 -0.34864,-1.05957 -0.47168,-0.41699 -1.40136,-0.41699 -0.86817,0 -1.28516,0.30762 -0.41016,0.30078 -0.6084,1.07324 l -1.20312,-0.16406 q 0.16406,-0.77247 0.54004,-1.24415 0.37597,-0.47851 1.08691,-0.73144 0.71094,-0.25977 1.64746,-0.25977 0.92969,0 1.51074,0.21875 0.58106,0.21875 0.8545,0.55371 0.27343,0.32813 0.38281,0.83399 0.0615,0.31445 0.0615,1.13476 v 1.64063 q 0,1.71582 0.0752,2.17383 0.082,0.45117 0.31445,0.86816 h -1.28516 q -0.1914,-0.38281 -0.24609,-0.89551 z m -0.10254,-2.74804 q -0.66992,0.27343 -2.00976,0.46484 -0.75879,0.10938 -1.07325,0.24609 -0.31445,0.13672 -0.48535,0.40333 -0.1709,0.25976 -0.1709,0.58105 0,0.49219 0.36914,0.82031 0.37598,0.32813 1.09375,0.32813 0.71094,0 1.26465,-0.30762 0.55371,-0.31445 0.81348,-0.85449 0.19824,-0.41699 0.19824,-1.23047 z m 3.1377,3.64355 v -7.25976 h 1.10742 v 1.10058 q 0.42383,-0.77246 0.7793,-1.01855 0.3623,-0.2461 0.79296,-0.2461 0.62207,0 1.26465,0.39649 l -0.42383,1.1416 q -0.45117,-0.2666 -0.90234,-0.2666 -0.40332,0 -0.72461,0.24609 -0.32129,0.23926 -0.45801,0.66992 -0.20507,0.65625 -0.20507,1.43555 v 3.80078 z m 4.68261,-8.60644 v -1.41504 h 1.23047 v 1.41504 z m 0,8.60644 v -7.25976 h 1.23047 v 7.25976 z m 7.84082,-0.89551 q -0.68359,0.58106 -1.31933,0.82032 -0.62891,0.23925 -1.35352,0.23925 -1.19629,0 -1.83886,-0.58105 -0.64258,-0.58789 -0.64258,-1.49707 0,-0.5332 0.23925,-0.9707 0.2461,-0.44434 0.63575,-0.71094 0.39648,-0.2666 0.88867,-0.40332 0.3623,-0.0957 1.09375,-0.18457 1.49023,-0.17774 2.19433,-0.42383 0.007,-0.25293 0.007,-0.32129 0,-0.75195 -0.34863,-1.05957 -0.47168,-0.41699 -1.40137,-0.41699 -0.86816,0 -1.28516,0.30762 -0.41015,0.30078 -0.60839,1.07324 l -1.20313,-0.16406 q 0.16406,-0.77247 0.54004,-1.24415 0.37598,-0.47851 1.08691,-0.73144 0.71094,-0.25977 1.64747,-0.25977 0.92968,0 1.51074,0.21875 0.58105,0.21875 0.85449,0.55371 0.27344,0.32813 0.38281,0.83399 0.0615,0.31445 0.0615,1.13476 v 1.64063 q 0,1.71582 0.0752,2.17383 0.082,0.45117 0.31445,0.86816 h -1.28515 q -0.19141,-0.38281 -0.2461,-0.89551 z m -0.10254,-2.74804 q -0.66992,0.27343 -2.00976,0.46484 -0.75879,0.10938 -1.07324,0.24609 -0.31446,0.13672 -0.48535,0.40333 -0.1709,0.25976 -0.1709,0.58105 0,0.49219 0.36914,0.82031 0.37597,0.32813 1.09375,0.32813 0.71094,0 1.26465,-0.30762 0.55371,-0.31445 0.81347,-0.85449 0.19824,-0.41699 0.19824,-1.23047 z m 4.28614,3.64355 h -1.1416 v -10.02148 h 1.23046 v 3.57519 q 0.7793,-0.97754 1.98926,-0.97754 0.66992,0 1.26465,0.27344 0.60156,0.2666 0.98438,0.75879 0.38964,0.48535 0.60839,1.17578 0.21875,0.69043 0.21875,1.47656 0,1.86622 -0.92285,2.88477 -0.92285,1.01855 -2.21484,1.01855 -1.28516,0 -2.0166,-1.07324 z m -0.0137,-3.68457 q 0,1.30567 0.35546,1.88672 0.58106,0.9502 1.57227,0.9502 0.80664,0 1.39453,-0.69727 0.58789,-0.7041 0.58789,-2.0918 0,-1.42187 -0.56738,-2.09863 -0.56055,-0.67676 -1.36035,-0.67676 -0.80664,0 -1.39453,0.7041 -0.58789,0.69727 -0.58789,2.02344 z m 6.63769,3.68457 V 152.58908 H 435.75 v 10.02148 z m 8.10742,-2.33789 1.27149,0.15723 q -0.30078,1.11426 -1.11426,1.72949 -0.81348,0.61523 -2.07813,0.61523 -1.59277,0 -2.52929,-0.97753 -0.92969,-0.98438 -0.92969,-2.75489 0,-1.83203 0.94336,-2.84375 0.94336,-1.01172 2.44727,-1.01172 1.45605,0 2.3789,0.99121 0.92285,0.99122 0.92285,2.78907 0,0.10937 -0.007,0.32812 h -5.41407 q 0.0684,1.19629 0.67676,1.83203 0.6084,0.63575 1.51758,0.63575 0.67676,0 1.15527,-0.35547 0.47852,-0.35547 0.75879,-1.13477 z m -4.04004,-1.98926 h 4.05371 q -0.082,-0.91601 -0.46484,-1.37402 -0.58789,-0.71094 -1.52441,-0.71094 -0.84766,0 -1.42871,0.56739 -0.57422,0.56738 -0.63575,1.51757 z m 10.28809,0.69727 q 0,-2.0166 1.12109,-2.98731 0.93653,-0.80664 2.28321,-0.80664 1.49707,0 2.44726,0.98438 0.9502,0.97754 0.9502,2.70703 0,1.40137 -0.42383,2.20801 -0.41699,0.7998 -1.22363,1.24414 -0.79981,0.44433 -1.75,0.44433 -1.52442,0 -2.46778,-0.97753 -0.93652,-0.97754 -0.93652,-2.81641 z m 1.26465,0 q 0,1.39453 0.6084,2.0918 0.6084,0.69043 1.53125,0.69043 0.91601,0 1.52441,-0.69727 0.6084,-0.69727 0.6084,-2.12598 0,-1.34668 -0.61524,-2.03711 -0.60839,-0.69726 -1.51757,-0.69726 -0.92285,0 -1.53125,0.69043 -0.6084,0.69043 -0.6084,2.08496 z m 7.27344,3.62988 v -6.30273 h -1.08692 v -0.95703 h 1.08692 v -0.77246 q 0,-0.73145 0.12988,-1.08692 0.17773,-0.47851 0.62207,-0.77246 0.45117,-0.30078 1.25781,-0.30078 0.51953,0 1.14844,0.12305 l -0.18457,1.07324 q -0.38281,-0.0684 -0.72461,-0.0684 -0.56055,0 -0.79297,0.23926 -0.23242,0.23925 -0.23242,0.8955 v 0.66993 h 1.41504 v 0.95703 h -1.41504 v 6.30273 z m 11.77832,0 h -1.23047 v -7.84082 q -0.44434,0.42383 -1.16895,0.84766 -0.71777,0.42383 -1.29199,0.63574 v -1.18945 q 1.03223,-0.48535 1.80469,-1.17578 0.77246,-0.69043 1.09375,-1.33985 h 0.79297 z m 12.35254,-2.33789 1.27148,0.15723 q -0.30078,1.11426 -1.11426,1.72949 -0.81347,0.61523 -2.07812,0.61523 -1.59278,0 -2.5293,-0.97753 -0.92969,-0.98438 -0.92969,-2.75489 0,-1.83203 0.94336,-2.84375 0.94336,-1.01172 2.44727,-1.01172 1.45605,0 2.3789,0.99121 0.92286,0.99122 0.92286,2.78907 0,0.10937 -0.007,0.32812 h -5.41406 q 0.0684,1.19629 0.67675,1.83203 0.6084,0.63575 1.51758,0.63575 0.67676,0 1.15528,-0.35547 0.47851,-0.35547 0.75879,-1.13477 z m -4.04004,-1.98926 h 4.05371 q -0.082,-0.91601 -0.46485,-1.37402 -0.58789,-0.71094 -1.52441,-0.71094 -0.84766,0 -1.42871,0.56739 -0.57422,0.56738 -0.63574,1.51757 z m 6.85644,4.32715 v -7.25976 h 1.10742 v 1.03222 q 0.79981,-1.19629 2.31055,-1.19629 0.65625,0 1.20313,0.23926 0.55371,0.23242 0.82714,0.61524 0.27344,0.38281 0.38282,0.90918 0.0684,0.34179 0.0684,1.19628 v 4.46387 h -1.23047 v -4.41601 q 0,-0.75196 -0.14356,-1.1211 -0.14355,-0.37597 -0.51269,-0.59472 -0.36231,-0.22559 -0.8545,-0.22559 -0.78613,0 -1.36035,0.49902 -0.56738,0.49903 -0.56738,1.89356 v 3.96484 z m 10.47266,-1.10058 0.17773,1.08691 q -0.51953,0.10938 -0.92969,0.10938 -0.66992,0 -1.03906,-0.21192 -0.36914,-0.21191 -0.51953,-0.55371 -0.15039,-0.34863 -0.15039,-1.45605 v -4.17676 h -0.90234 v -0.95703 h 0.90234 v -1.79786 l 1.22363,-0.73828 v 2.53614 h 1.23731 v 0.95703 h -1.23731 v 4.24511 q 0,0.52637 0.0615,0.67676 0.0684,0.15039 0.21191,0.23926 0.15039,0.0889 0.42383,0.0889 0.20508,0 0.54004,-0.0478 z m 1.20996,-7.50586 v -1.41504 h 1.23047 v 1.41504 z m 0,8.60644 v -7.25976 h 1.23047 v 7.25976 z m 5.79004,-1.10058 0.17773,1.08691 q -0.51953,0.10938 -0.92969,0.10938 -0.66992,0 -1.03906,-0.21192 -0.36914,-0.21191 -0.51953,-0.55371 -0.15039,-0.34863 -0.15039,-1.45605 v -4.17676 h -0.90234 v -0.95703 h 0.90234 v -1.79786 l 1.22363,-0.73828 v 2.53614 h 1.23731 v 0.95703 h -1.23731 v 4.24511 q 0,0.52637 0.0615,0.67676 0.0684,0.15039 0.21191,0.23926 0.15039,0.0889 0.42383,0.0889 0.20508,0 0.54004,-0.0478 z m 1.14844,3.89648 -0.13672,-1.15527 q 0.40332,0.10937 0.7041,0.10937 0.41015,0 0.65625,-0.13672 0.24609,-0.13672 0.40332,-0.38281 0.11621,-0.18457 0.37597,-0.91601 0.0342,-0.10254 0.10938,-0.30079 l -2.75488,-7.27343 h 1.32617 l 1.51074,4.2041 q 0.29395,0.7998 0.52637,1.68164 0.21191,-0.84766 0.50586,-1.6543 l 1.55176,-4.23144 h 1.23046 l -2.76171,7.38281 q -0.44434,1.19629 -0.69043,1.64746 -0.32813,0.6084 -0.75196,0.88867 -0.42383,0.28711 -1.01172,0.28711 -0.35546,0 -0.79296,-0.15039 z"
       id="flowRoot4302-6"
       transform="translate(-20,372.36182)"
       aria-label="Change 1 variable of 1 entity" />
    <g
       id="g3709"
       transform="translate(0,19.999997)" />
    <flowRoot
       xml:space="preserve"
       id="flowRoot4157"
       style="font-style:normal;font-weight:normal;line-height:0.01%;font-family:sans-serif;letter-spacing:0px;word-spacing:0px;fill:#000000;fill-opacity:1;stroke:none"><flowRegion
         id="flowRegion4159"
         style="font-family:sans-serif"><rect
           id="rect4161"
           width="10.955056"
           height="72.471909"
           x="16.011236"
           y="-53.932568" /></flowRegion><flowPara
         id="flowPara4163"
         style="font-size:40px;line-height:1.25;font-family:sans-serif"> </flowPara></flowRoot>
    <flowRoot
       xml:space="preserve"
       id="flowRoot3679"
       style="font-style:normal;font-variant:normal;font-weight:normal;font-stretch:normal;line-height:0.01%;font-family:serif;-inkscape-font-specification:Serif;letter-spacing:0px;word-spacing:0px;fill:#000000;fill-opacity:1;stroke:none"><flowRegion
         id="flowRegion3681"
         style="font-family:serif"><rect
           id="rect3683"
           width="15.209126"
           height="193.1559"
           x="44.86692"
           y="282.88974" /></flowRegion><flowPara
         id="flowPara3685"
         style="font-size:20px;line-height:1.25;font-family:serif"> </flowPara></flowRoot>
  </g>
</svg>
