<?xml version="1.0" encoding="UTF-8" standalone="no"?>
<!-- Created with Inkscape (http://www.inkscape.org/) -->

<svg
   width="800"
   height="600"
   id="svg2"
   version="1.1"
   xmlns="http://www.w3.org/2000/svg"
   xmlns:svg="http://www.w3.org/2000/svg"
   xmlns:rdf="http://www.w3.org/1999/02/22-rdf-syntax-ns#"
   xmlns:cc="http://creativecommons.org/ns#"
   xmlns:dc="http://purl.org/dc/elements/1.1/">
  <defs
     id="defs4" />
  <metadata
     id="metadata7">
    <rdf:RDF>
      <cc:Work
         rdf:about="">
        <dc:format>image/svg+xml</dc:format>
        <dc:type
           rdf:resource="http://purl.org/dc/dcmitype/StillImage" />
        <dc:language>en</dc:language>
        <cc:license
           rdf:resource="https://timefold.ai/license" />
      </cc:Work>
    </rdf:RDF>
  </metadata>
  <g
     id="layer1"
     transform="translate(0,-452.36218)"
     style="display:inline">
    <path
       style="font-size:36px;line-height:1.25;font-family:'Liberation Sans';-inkscape-font-specification:'Liberation Sans, Normal';text-align:center;text-anchor:middle"
       d="m 332.5752,244.14786 3.21679,-0.28125 q 0.22852,1.9336 1.05469,3.18164 0.84375,1.23047 2.60156,2.00391 1.75781,0.75586 3.95508,0.75586 1.95117,0 3.44531,-0.58008 1.49414,-0.58008 2.21485,-1.58203 0.73828,-1.01953 0.73828,-2.21484 0,-1.2129 -0.70313,-2.10938 -0.70312,-0.91406 -2.32031,-1.5293 -1.03711,-0.40429 -4.58789,-1.24804 -3.55078,-0.86133 -4.97461,-1.61719 -1.8457,-0.9668 -2.75977,-2.39063 -0.89648,-1.4414 -0.89648,-3.21679 0,-1.95117 1.10742,-3.63867 1.10742,-1.70508 3.23438,-2.58399 2.12695,-0.87891 4.72851,-0.87891 2.86524,0 5.04492,0.93165 2.19727,0.91406 3.375,2.70703 1.17774,1.79297 1.26563,4.06054 l -3.26953,0.2461 q -0.26367,-2.44336 -1.79297,-3.69141 -1.51172,-1.24805 -4.48242,-1.24805 -3.09375,0 -4.51758,1.14258 -1.40625,1.125 -1.40625,2.72461 0,1.38867 1.00195,2.28516 0.98438,0.89648 5.13282,1.8457 4.16601,0.93164 5.71289,1.63477 2.25,1.03711 3.32226,2.63672 1.07227,1.58203 1.07227,3.65625 0,2.05664 -1.17774,3.88476 -1.17773,1.81055 -3.39258,2.83008 -2.19726,1.00195 -4.95703,1.00195 -3.49804,0 -5.87109,-1.01953 -2.35547,-1.01953 -3.70898,-3.05859 -1.33594,-2.05664 -1.40625,-4.64063 z m 28.21289,8.2793 -5.71289,-18.66797 h 3.26953 l 2.9707,10.77539 1.10742,4.00781 q 0.0703,-0.29882 0.9668,-3.84961 l 2.9707,-10.93359 h 3.25195 l 2.79493,10.82813 0.93164,3.56835 1.07226,-3.60351 3.19922,-10.79297 h 3.07617 l -5.83593,18.66797 h -3.28711 l -2.97071,-11.17969 -0.7207,-3.18164 -3.7793,14.36133 z m 34.73437,-2.30274 q -1.75781,1.49415 -3.39258,2.10938 -1.61718,0.61523 -3.48047,0.61523 -3.07617,0 -4.72851,-1.49414 -1.65235,-1.51172 -1.65235,-3.84961 0,-1.37109 0.61524,-2.49609 0.63281,-1.14258 1.63476,-1.82812 1.01954,-0.68555 2.28516,-1.03711 0.93164,-0.2461 2.8125,-0.47461 3.83203,-0.45703 5.64258,-1.08985 0.0176,-0.65039 0.0176,-0.82617 0,-1.93359 -0.89649,-2.72461 -1.21289,-1.07226 -3.60351,-1.07226 -2.23242,0 -3.30469,0.79101 -1.05469,0.77344 -1.56445,2.75977 l -3.09375,-0.42188 q 0.42187,-1.98633 1.38867,-3.19922 0.9668,-1.23047 2.79492,-1.88086 1.82813,-0.66796 4.23633,-0.66796 2.39062,0 3.88476,0.5625 1.49414,0.5625 2.19727,1.42382 0.70312,0.84375 0.98437,2.14453 0.15821,0.8086 0.15821,2.91797 v 4.21875 q 0,4.41211 0.19336,5.58985 0.21093,1.16015 0.80859,2.23242 h -3.30469 q -0.49218,-0.98438 -0.63281,-2.30274 z m -0.26367,-7.0664 q -1.72266,0.70312 -5.16797,1.19531 -1.95117,0.28125 -2.75977,0.63281 -0.80859,0.35157 -1.24804,1.03711 -0.43946,0.66797 -0.43946,1.49414 0,1.26563 0.94922,2.10938 0.9668,0.84375 2.8125,0.84375 1.82813,0 3.25196,-0.79102 1.42382,-0.80859 2.09179,-2.19726 0.50977,-1.07227 0.50977,-3.16407 z m 8.10351,16.52344 v -25.82227 h 2.88282 v 2.42578 q 1.01953,-1.42383 2.30273,-2.12695 1.2832,-0.7207 3.11133,-0.7207 2.39062,0 4.21875,1.23046 1.82812,1.23047 2.75977,3.48047 0.93164,2.23242 0.93164,4.9043 0,2.86523 -1.03711,5.16797 -1.01953,2.28515 -2.98828,3.51562 -1.95118,1.21289 -4.11329,1.21289 -1.58203,0 -2.84765,-0.66796 -1.24805,-0.66797 -2.05664,-1.6875 v 9.08789 z m 2.86524,-16.38282 q 0,3.60352 1.45898,5.32618 1.45899,1.72265 3.53321,1.72265 2.10937,0 3.60351,-1.77539 1.51172,-1.79297 1.51172,-5.53711 0,-3.56836 -1.47656,-5.34375 -1.45899,-1.77539 -3.49805,-1.77539 -2.02148,0 -3.58594,1.89844 -1.54687,1.88086 -1.54687,5.48437 z m 17.45508,9.22852 v -25.76953 h 5.13281 l 6.09961,18.24609 q 0.84375,2.54883 1.23047,3.81445 0.43945,-1.40625 1.37109,-4.13085 l 6.16992,-17.92969 h 4.58789 v 25.76953 H 444.9873 V 230.8588 l -7.48828,21.56836 h -3.07617 l -7.45312,-21.9375 v 21.9375 z m 28.51172,-9.33399 q 0,-5.18554 2.88281,-7.68164 2.4082,-2.07421 5.87109,-2.07421 3.84961,0 6.29297,2.53125 2.44336,2.51367 2.44336,6.96093 0,3.60352 -1.08984,5.67774 -1.07227,2.05664 -3.14649,3.19922 -2.05664,1.14257 -4.5,1.14257 -3.91992,0 -6.3457,-2.51367 -2.4082,-2.51367 -2.4082,-7.24219 z m 3.25195,0 q 0,3.58594 1.56445,5.37891 1.56446,1.77539 3.9375,1.77539 2.35547,0 3.91992,-1.79297 1.56446,-1.79297 1.56446,-5.46679 0,-3.46289 -1.58203,-5.23829 -1.56446,-1.79296 -3.90235,-1.79296 -2.37304,0 -3.9375,1.77539 -1.56445,1.77539 -1.56445,5.36132 z m 23.13281,9.33399 -7.10156,-18.66797 h 3.33984 l 4.00782,11.17969 q 0.65039,1.81054 1.19531,3.76172 0.42187,-1.47657 1.17773,-3.55078 l 4.14844,-11.39063 h 3.25195 l -7.0664,18.66797 z m 25.59375,-6.01172 3.26953,0.4043 q -0.77343,2.86523 -2.86523,4.44726 -2.0918,1.58203 -5.34375,1.58203 -4.0957,0 -6.50391,-2.51367 -2.39062,-2.53125 -2.39062,-7.08398 0,-4.71094 2.42578,-7.3125 2.42578,-2.60156 6.29297,-2.60156 3.74414,0 6.11718,2.54882 2.37305,2.54883 2.37305,7.17188 0,0.28125 -0.0176,0.84375 H 493.6084 q 0.17578,3.07617 1.74023,4.71094 1.56446,1.63476 3.90235,1.63476 1.74023,0 2.9707,-0.91406 1.23047,-0.91406 1.95117,-2.91797 z m -10.38867,-5.11523 h 10.42383 q -0.21094,-2.35547 -1.19531,-3.53321 -1.51172,-1.82812 -3.91993,-1.82812 -2.17968,0 -3.67382,1.45898 -1.47657,1.45899 -1.63477,3.90235 z"
       id="flowRoot4302"
       transform="translate(-20,262.36198)"
       aria-label="SwapMove" />
    <path
       style="font-size:14px;line-height:1.25;font-family:'Liberation Sans';-inkscape-font-specification:'Liberation Sans, Normal';text-align:center;text-anchor:middle"
       d="m 326.46729,159.39084 1.25097,-0.10938 q 0.0889,0.75195 0.41016,1.23731 0.32812,0.47851 1.01172,0.77929 0.68359,0.29395 1.53808,0.29395 0.75879,0 1.33985,-0.22559 0.58105,-0.22558 0.86132,-0.61523 0.28711,-0.39649 0.28711,-0.86133 0,-0.47168 -0.27343,-0.82031 -0.27344,-0.35547 -0.90235,-0.59473 -0.40332,-0.15723 -1.78418,-0.48535 -1.38086,-0.33496 -1.93457,-0.62891 -0.71777,-0.37597 -1.07324,-0.92969 -0.34863,-0.56054 -0.34863,-1.25097 0,-0.75879 0.43066,-1.41504 0.43067,-0.66309 1.25781,-1.00488 0.82715,-0.3418 1.83887,-0.3418 1.11426,0 1.96192,0.3623 0.85449,0.35547 1.3125,1.05274 0.458,0.69726 0.49218,1.5791 l -1.27148,0.0957 q -0.10254,-0.95019 -0.69727,-1.43554 -0.58789,-0.48536 -1.74316,-0.48536 -1.20313,0 -1.75684,0.44434 -0.54687,0.4375 -0.54687,1.05957 0,0.54004 0.38965,0.88867 0.38281,0.34864 1.99609,0.71778 1.62012,0.3623 2.22168,0.63574 0.875,0.40332 1.29199,1.02539 0.41699,0.61523 0.41699,1.42187 0,0.79981 -0.458,1.51075 -0.45801,0.7041 -1.31934,1.10058 -0.85449,0.38965 -1.92773,0.38965 -1.36036,0 -2.28321,-0.39648 -0.91601,-0.39649 -1.44238,-1.18946 -0.51953,-0.7998 -0.54687,-1.80468 z m 10.97167,3.21972 -2.22167,-7.25976 h 1.27148 l 1.15527,4.19043 0.43067,1.55859 q 0.0273,-0.11621 0.37597,-1.49707 l 1.15528,-4.25195 h 1.26465 l 1.08691,4.21093 0.3623,1.3877 0.417,-1.40137 1.24414,-4.19726 h 1.19629 l -2.26954,7.25976 h -1.27832 l -1.15527,-4.34765 -0.28027,-1.23731 -1.46973,5.58496 z m 13.50782,-0.89551 q -0.6836,0.58106 -1.31934,0.82032 -0.6289,0.23925 -1.35351,0.23925 -1.19629,0 -1.83887,-0.58105 -0.64258,-0.58789 -0.64258,-1.49707 0,-0.5332 0.23926,-0.9707 0.24609,-0.44434 0.63574,-0.71094 0.39648,-0.2666 0.88867,-0.40332 0.36231,-0.0957 1.09375,-0.18457 1.49024,-0.17774 2.19434,-0.42383 0.007,-0.25293 0.007,-0.32129 0,-0.75195 -0.34863,-1.05957 -0.47168,-0.41699 -1.40137,-0.41699 -0.86816,0 -1.28515,0.30762 -0.41016,0.30078 -0.6084,1.07324 l -1.20313,-0.16406 q 0.16407,-0.77247 0.54004,-1.24415 0.37598,-0.47851 1.08692,-0.73144 0.71094,-0.25977 1.64746,-0.25977 0.92969,0 1.51074,0.21875 0.58106,0.21875 0.85449,0.55371 0.27344,0.32813 0.38282,0.83399 0.0615,0.31445 0.0615,1.13476 v 1.64063 q 0,1.71582 0.0752,2.17383 0.082,0.45117 0.31446,0.86816 h -1.28516 q -0.19141,-0.38281 -0.24609,-0.89551 z m -0.10254,-2.74804 q -0.66992,0.27343 -2.00977,0.46484 -0.75879,0.10938 -1.07324,0.24609 -0.31445,0.13672 -0.48535,0.40333 -0.1709,0.25976 -0.1709,0.58105 0,0.49219 0.36914,0.82031 0.37598,0.32813 1.09375,0.32813 0.71094,0 1.26465,-0.30762 0.55371,-0.31445 0.81348,-0.85449 0.19824,-0.41699 0.19824,-1.23047 z m 3.15137,6.42578 V 155.3508 h 1.12109 v 0.94336 q 0.39648,-0.55372 0.89551,-0.82715 0.49902,-0.28028 1.20996,-0.28028 0.92969,0 1.64062,0.47852 0.71094,0.47852 1.07325,1.35352 0.3623,0.86816 0.3623,1.90722 0,1.11426 -0.40332,2.00977 -0.39648,0.88867 -1.16211,1.36718 -0.75879,0.47168 -1.59961,0.47168 -0.61523,0 -1.10742,-0.25976 -0.48535,-0.25977 -0.79981,-0.65625 v 3.53418 z m 1.11425,-6.3711 q 0,1.40137 0.56739,2.07129 0.56738,0.66993 1.37402,0.66993 0.82031,0 1.40137,-0.69043 0.58789,-0.69727 0.58789,-2.15332 0,-1.3877 -0.57422,-2.07813 -0.56738,-0.69043 -1.36035,-0.69043 -0.78614,0 -1.39453,0.73828 -0.60157,0.73145 -0.60157,2.13281 z m 15.29883,2.69336 q -0.68359,0.58106 -1.31933,0.82032 -0.62891,0.23925 -1.35352,0.23925 -1.19629,0 -1.83887,-0.58105 -0.64258,-0.58789 -0.64258,-1.49707 0,-0.5332 0.23926,-0.9707 0.2461,-0.44434 0.63574,-0.71094 0.39649,-0.2666 0.88868,-0.40332 0.3623,-0.0957 1.09375,-0.18457 1.49023,-0.17774 2.19433,-0.42383 0.007,-0.25293 0.007,-0.32129 0,-0.75195 -0.34863,-1.05957 -0.47168,-0.41699 -1.40137,-0.41699 -0.86817,0 -1.28516,0.30762 -0.41015,0.30078 -0.6084,1.07324 l -1.20312,-0.16406 q 0.16406,-0.77247 0.54004,-1.24415 0.37597,-0.47851 1.08691,-0.73144 0.71094,-0.25977 1.64746,-0.25977 0.92969,0 1.51074,0.21875 0.58106,0.21875 0.8545,0.55371 0.27343,0.32813 0.38281,0.83399 0.0615,0.31445 0.0615,1.13476 v 1.64063 q 0,1.71582 0.0752,2.17383 0.082,0.45117 0.31445,0.86816 h -1.28515 q -0.19141,-0.38281 -0.2461,-0.89551 z m -0.10254,-2.74804 q -0.66992,0.27343 -2.00976,0.46484 -0.75879,0.10938 -1.07325,0.24609 -0.31445,0.13672 -0.48535,0.40333 -0.1709,0.25976 -0.1709,0.58105 0,0.49219 0.36915,0.82031 0.37597,0.32813 1.09375,0.32813 0.71093,0 1.26464,-0.30762 0.55371,-0.31445 0.81348,-0.85449 0.19824,-0.41699 0.19824,-1.23047 z m 3.12403,3.64355 v -10.02148 h 1.23046 v 10.02148 z m 3.11035,0 v -10.02148 h 1.23047 v 10.02148 z m 9.04394,0 -2.76172,-7.25976 h 1.29883 l 1.5586,4.34765 q 0.25293,0.7041 0.46484,1.46289 0.16406,-0.57422 0.45801,-1.38086 l 1.61328,-4.42968 h 1.26465 l -2.74805,7.25976 z m 9.72071,-0.89551 q -0.6836,0.58106 -1.31934,0.82032 -0.62891,0.23925 -1.35352,0.23925 -1.19628,0 -1.83886,-0.58105 -0.64258,-0.58789 -0.64258,-1.49707 0,-0.5332 0.23926,-0.9707 0.24609,-0.44434 0.63574,-0.71094 0.39648,-0.2666 0.88867,-0.40332 0.36231,-0.0957 1.09375,-0.18457 1.49024,-0.17774 2.19434,-0.42383 0.007,-0.25293 0.007,-0.32129 0,-0.75195 -0.34863,-1.05957 -0.47168,-0.41699 -1.40137,-0.41699 -0.86816,0 -1.28515,0.30762 -0.41016,0.30078 -0.6084,1.07324 l -1.20313,-0.16406 q 0.16407,-0.77247 0.54004,-1.24415 0.37598,-0.47851 1.08692,-0.73144 0.71093,-0.25977 1.64746,-0.25977 0.92968,0 1.51074,0.21875 0.58105,0.21875 0.85449,0.55371 0.27344,0.32813 0.38281,0.83399 0.0615,0.31445 0.0615,1.13476 v 1.64063 q 0,1.71582 0.0752,2.17383 0.082,0.45117 0.31446,0.86816 h -1.28516 q -0.19141,-0.38281 -0.24609,-0.89551 z m -0.10254,-2.74804 q -0.66993,0.27343 -2.00977,0.46484 -0.75879,0.10938 -1.07324,0.24609 -0.31445,0.13672 -0.48535,0.40333 -0.1709,0.25976 -0.1709,0.58105 0,0.49219 0.36914,0.82031 0.37598,0.32813 1.09375,0.32813 0.71094,0 1.26465,-0.30762 0.55371,-0.31445 0.81347,-0.85449 0.19825,-0.41699 0.19825,-1.23047 z m 3.13769,3.64355 v -7.25976 h 1.10742 v 1.10058 q 0.42383,-0.77246 0.7793,-1.01855 0.36231,-0.2461 0.79297,-0.2461 0.62207,0 1.26465,0.39649 l -0.42383,1.1416 q -0.45117,-0.2666 -0.90234,-0.2666 -0.40332,0 -0.72461,0.24609 -0.32129,0.23926 -0.45801,0.66992 -0.20508,0.65625 -0.20508,1.43555 v 3.80078 z m 4.68262,-8.60644 v -1.41504 h 1.23047 v 1.41504 z m 0,8.60644 v -7.25976 h 1.23047 v 7.25976 z m 7.84082,-0.89551 q -0.68359,0.58106 -1.31934,0.82032 -0.6289,0.23925 -1.35351,0.23925 -1.19629,0 -1.83887,-0.58105 -0.64258,-0.58789 -0.64258,-1.49707 0,-0.5332 0.23926,-0.9707 0.24609,-0.44434 0.63574,-0.71094 0.39649,-0.2666 0.88867,-0.40332 0.36231,-0.0957 1.09375,-0.18457 1.49024,-0.17774 2.19434,-0.42383 0.007,-0.25293 0.007,-0.32129 0,-0.75195 -0.34864,-1.05957 -0.47168,-0.41699 -1.40136,-0.41699 -0.86817,0 -1.28516,0.30762 -0.41016,0.30078 -0.6084,1.07324 l -1.20312,-0.16406 q 0.16406,-0.77247 0.54004,-1.24415 0.37597,-0.47851 1.08691,-0.73144 0.71094,-0.25977 1.64746,-0.25977 0.92969,0 1.51074,0.21875 0.58106,0.21875 0.8545,0.55371 0.27343,0.32813 0.38281,0.83399 0.0615,0.31445 0.0615,1.13476 v 1.64063 q 0,1.71582 0.0752,2.17383 0.082,0.45117 0.31445,0.86816 h -1.28516 q -0.1914,-0.38281 -0.24609,-0.89551 z m -0.10254,-2.74804 q -0.66992,0.27343 -2.00977,0.46484 -0.75878,0.10938 -1.07324,0.24609 -0.31445,0.13672 -0.48535,0.40333 -0.1709,0.25976 -0.1709,0.58105 0,0.49219 0.36914,0.82031 0.37598,0.32813 1.09375,0.32813 0.71094,0 1.26465,-0.30762 0.55371,-0.31445 0.81348,-0.85449 0.19824,-0.41699 0.19824,-1.23047 z m 4.28613,3.64355 h -1.1416 v -10.02148 h 1.23047 v 3.57519 q 0.7793,-0.97754 1.98926,-0.97754 0.66992,0 1.26465,0.27344 0.60156,0.2666 0.98437,0.75879 0.38965,0.48535 0.6084,1.17578 0.21875,0.69043 0.21875,1.47656 0,1.86622 -0.92285,2.88477 -0.92285,1.01855 -2.21485,1.01855 -1.28515,0 -2.0166,-1.07324 z m -0.0137,-3.68457 q 0,1.30567 0.35547,1.88672 0.58105,0.9502 1.57227,0.9502 0.80664,0 1.39453,-0.69727 0.58789,-0.7041 0.58789,-2.0918 0,-1.42187 -0.56739,-2.09863 -0.56054,-0.67676 -1.36035,-0.67676 -0.80664,0 -1.39453,0.7041 -0.58789,0.69727 -0.58789,2.02344 z m 6.6377,3.68457 v -10.02148 h 1.23047 v 10.02148 z m 8.10742,-2.33789 1.27148,0.15723 q -0.30078,1.11426 -1.11425,1.72949 -0.81348,0.61523 -2.07813,0.61523 -1.59277,0 -2.5293,-0.97753 -0.92968,-0.98438 -0.92968,-2.75489 0,-1.83203 0.94336,-2.84375 0.94335,-1.01172 2.44726,-1.01172 1.45606,0 2.37891,0.99121 0.92285,0.99122 0.92285,2.78907 0,0.10937 -0.007,0.32812 h -5.41406 q 0.0684,1.19629 0.67676,1.83203 0.6084,0.63575 1.51758,0.63575 0.67675,0 1.15527,-0.35547 0.47852,-0.35547 0.75879,-1.13477 z m -4.04004,-1.98926 h 4.05371 q -0.082,-0.91601 -0.46484,-1.37402 -0.58789,-0.71094 -1.52442,-0.71094 -0.84765,0 -1.42871,0.56739 -0.57422,0.56738 -0.63574,1.51757 z m 6.36426,2.16016 1.21679,-0.19141 q 0.10254,0.73145 0.56739,1.1211 0.47168,0.38965 1.3125,0.38965 0.84765,0 1.25781,-0.3418 0.41016,-0.34863 0.41016,-0.81348 0,-0.41699 -0.36231,-0.65625 -0.25293,-0.16406 -1.25781,-0.41699 -1.35352,-0.3418 -1.87988,-0.58789 -0.51954,-0.25293 -0.79297,-0.69043 -0.2666,-0.44434 -0.2666,-0.97754 0,-0.48535 0.21875,-0.89551 0.22558,-0.41699 0.60839,-0.69043 0.28711,-0.21191 0.7793,-0.35547 0.49902,-0.15039 1.06641,-0.15039 0.85449,0 1.49707,0.2461 0.64941,0.24609 0.95703,0.66992 0.30762,0.41699 0.42383,1.12109 l -1.20313,0.16407 q -0.082,-0.56055 -0.47851,-0.875 -0.38965,-0.31446 -1.10743,-0.31446 -0.84765,0 -1.20996,0.28028 -0.3623,0.28027 -0.3623,0.65625 0,0.23925 0.15039,0.43066 0.15039,0.19824 0.47168,0.32813 0.18457,0.0684 1.08691,0.31445 1.30567,0.34863 1.81836,0.57422 0.51953,0.21875 0.81348,0.64258 0.29394,0.42382 0.29394,1.05273 0,0.61523 -0.3623,1.16211 -0.35547,0.54004 -1.03223,0.84082 -0.67675,0.29394 -1.53125,0.29394 -1.41504,0 -2.16015,-0.58789 -0.73828,-0.58789 -0.94336,-1.74316 z m 10.92383,-1.46289 q 0,-2.0166 1.12109,-2.98731 0.93652,-0.80664 2.2832,-0.80664 1.49707,0 2.44727,0.98438 0.95019,0.97754 0.95019,2.70703 0,1.40137 -0.42382,2.20801 -0.417,0.7998 -1.22364,1.24414 -0.7998,0.44433 -1.75,0.44433 -1.52441,0 -2.46777,-0.97753 -0.93652,-0.97754 -0.93652,-2.81641 z m 1.26464,0 q 0,1.39453 0.6084,2.0918 0.6084,0.69043 1.53125,0.69043 0.91602,0 1.52442,-0.69727 0.60839,-0.69727 0.60839,-2.12598 0,-1.34668 -0.61523,-2.03711 -0.6084,-0.69726 -1.51758,-0.69726 -0.92285,0 -1.53125,0.69043 -0.6084,0.69043 -0.6084,2.08496 z m 7.27344,3.62988 v -6.30273 h -1.08691 v -0.95703 h 1.08691 v -0.77246 q 0,-0.73145 0.12988,-1.08692 0.17774,-0.47851 0.62207,-0.77246 0.45118,-0.30078 1.25782,-0.30078 0.51953,0 1.14843,0.12305 l -0.18457,1.07324 q -0.38281,-0.0684 -0.72461,-0.0684 -0.56054,0 -0.79296,0.23926 -0.23243,0.23925 -0.23243,0.8955 v 0.66993 h 1.41504 v 0.95703 h -1.41504 v 6.30273 z m 13.61035,-1.18262 v 1.18262 h -6.62402 q -0.0137,-0.44433 0.14355,-0.85449 0.25293,-0.67676 0.80664,-1.33301 0.56055,-0.65625 1.61329,-1.51758 1.63379,-1.33984 2.208,-2.11914 0.57422,-0.78613 0.57422,-1.4834 0,-0.73144 -0.52636,-1.23046 -0.51954,-0.50586 -1.36036,-0.50586 -0.88867,0 -1.42187,0.5332 -0.5332,0.5332 -0.54004,1.47656 l -1.26465,-0.12988 q 0.12988,-1.41504 0.97754,-2.15332 0.84766,-0.74512 2.27637,-0.74512 1.44238,0 2.2832,0.79981 0.84082,0.7998 0.84082,1.98242 0,0.60156 -0.24609,1.18262 -0.2461,0.58105 -0.82032,1.22363 -0.56738,0.64258 -1.89355,1.76367 -1.10742,0.92969 -1.42187,1.26465 -0.31446,0.32812 -0.51954,0.66308 z m 10.52051,-1.15527 1.27149,0.15723 q -0.30079,1.11426 -1.11426,1.72949 -0.81348,0.61523 -2.07813,0.61523 -1.59277,0 -2.52929,-0.97753 -0.92969,-0.98438 -0.92969,-2.75489 0,-1.83203 0.94336,-2.84375 0.94336,-1.01172 2.44726,-1.01172 1.45606,0 2.37891,0.99121 0.92285,0.99122 0.92285,2.78907 0,0.10937 -0.007,0.32812 h -5.41406 q 0.0684,1.19629 0.67676,1.83203 0.6084,0.63575 1.51758,0.63575 0.67676,0 1.15527,-0.35547 0.47852,-0.35547 0.75879,-1.13477 z m -4.04004,-1.98926 h 4.05371 q -0.082,-0.91601 -0.46484,-1.37402 -0.58789,-0.71094 -1.52442,-0.71094 -0.84765,0 -1.42871,0.56739 -0.57421,0.56738 -0.63574,1.51757 z m 6.85645,4.32715 v -7.25976 h 1.10742 v 1.03222 q 0.7998,-1.19629 2.31055,-1.19629 0.65625,0 1.20312,0.23926 0.55371,0.23242 0.82715,0.61524 0.27344,0.38281 0.38281,0.90918 0.0684,0.34179 0.0684,1.19628 v 4.46387 h -1.23047 v -4.41601 q 0,-0.75196 -0.14355,-1.1211 -0.14356,-0.37597 -0.5127,-0.59472 -0.3623,-0.22559 -0.85449,-0.22559 -0.78613,0 -1.36035,0.49902 -0.56738,0.49903 -0.56738,1.89356 v 3.96484 z m 10.47265,-1.10058 0.17774,1.08691 q -0.51953,0.10938 -0.92969,0.10938 -0.66992,0 -1.03906,-0.21192 -0.36914,-0.21191 -0.51953,-0.55371 -0.15039,-0.34863 -0.15039,-1.45605 v -4.17676 h -0.90235 v -0.95703 h 0.90235 v -1.79786 l 1.22363,-0.73828 v 2.53614 h 1.2373 v 0.95703 h -1.2373 v 4.24511 q 0,0.52637 0.0615,0.67676 0.0684,0.15039 0.21192,0.23926 0.15039,0.0889 0.42382,0.0889 0.20508,0 0.54004,-0.0478 z m 1.20996,-7.50586 v -1.41504 h 1.23047 v 1.41504 z m 0,8.60644 v -7.25976 h 1.23047 v 7.25976 z m 5.79004,-1.10058 0.17774,1.08691 q -0.51953,0.10938 -0.92969,0.10938 -0.66992,0 -1.03906,-0.21192 -0.36914,-0.21191 -0.51953,-0.55371 -0.15039,-0.34863 -0.15039,-1.45605 v -4.17676 h -0.90235 v -0.95703 h 0.90235 v -1.79786 l 1.22363,-0.73828 v 2.53614 h 1.2373 v 0.95703 h -1.2373 v 4.24511 q 0,0.52637 0.0615,0.67676 0.0684,0.15039 0.21192,0.23926 0.15039,0.0889 0.42382,0.0889 0.20508,0 0.54004,-0.0478 z m 1.20996,-7.50586 v -1.41504 h 1.23047 v 1.41504 z m 0,8.60644 v -7.25976 h 1.23047 v 7.25976 z m 8.07325,-2.33789 1.27148,0.15723 q -0.30078,1.11426 -1.11426,1.72949 -0.81347,0.61523 -2.07812,0.61523 -1.59278,0 -2.5293,-0.97753 -0.92969,-0.98438 -0.92969,-2.75489 0,-1.83203 0.94336,-2.84375 0.94336,-1.01172 2.44727,-1.01172 1.45605,0 2.3789,0.99121 0.92286,0.99122 0.92286,2.78907 0,0.10937 -0.007,0.32812 h -5.41406 q 0.0684,1.19629 0.67676,1.83203 0.60839,0.63575 1.51757,0.63575 0.67676,0 1.15528,-0.35547 0.47851,-0.35547 0.75879,-1.13477 z m -4.04004,-1.98926 h 4.05371 q -0.082,-0.91601 -0.46485,-1.37402 -0.58789,-0.71094 -1.52441,-0.71094 -0.84766,0 -1.42871,0.56739 -0.57422,0.56738 -0.63574,1.51757 z m 6.36426,2.16016 1.21679,-0.19141 q 0.10254,0.73145 0.56738,1.1211 0.47168,0.38965 1.3125,0.38965 0.84766,0 1.25782,-0.3418 0.41015,-0.34863 0.41015,-0.81348 0,-0.41699 -0.3623,-0.65625 -0.25293,-0.16406 -1.25781,-0.41699 -1.35352,-0.3418 -1.87989,-0.58789 -0.51953,-0.25293 -0.79297,-0.69043 -0.2666,-0.44434 -0.2666,-0.97754 0,-0.48535 0.21875,-0.89551 0.22559,-0.41699 0.6084,-0.69043 0.28711,-0.21191 0.7793,-0.35547 0.49902,-0.15039 1.0664,-0.15039 0.8545,0 1.49708,0.2461 0.64941,0.24609 0.95703,0.66992 0.30761,0.41699 0.42382,1.12109 l -1.20312,0.16407 q -0.082,-0.56055 -0.47852,-0.875 -0.38964,-0.31446 -1.10742,-0.31446 -0.84765,0 -1.20996,0.28028 -0.3623,0.28027 -0.3623,0.65625 0,0.23925 0.15039,0.43066 0.15039,0.19824 0.47168,0.32813 0.18457,0.0684 1.08691,0.31445 1.30566,0.34863 1.81836,0.57422 0.51953,0.21875 0.81348,0.64258 0.29394,0.42382 0.29394,1.05273 0,0.61523 -0.3623,1.16211 -0.35547,0.54004 -1.03223,0.84082 -0.67676,0.29394 -1.53125,0.29394 -1.41504,0 -2.16016,-0.58789 -0.73828,-0.58789 -0.94335,-1.74316 z"
       id="flowRoot4302-6"
       transform="translate(-20,372.36182)"
       aria-label="Swap all variables of 2 entities" />
    <g
       id="g3709"
       transform="translate(0,19.999997)" />
    <flowRoot
       xml:space="preserve"
       id="flowRoot4157"
       style="font-style:normal;font-weight:normal;line-height:0.01%;font-family:sans-serif;letter-spacing:0px;word-spacing:0px;fill:#000000;fill-opacity:1;stroke:none"><flowRegion
         id="flowRegion4159"
         style="font-family:sans-serif"><rect
           id="rect4161"
           width="10.955056"
           height="72.471909"
           x="16.011236"
           y="-53.932568" /></flowRegion><flowPara
         id="flowPara4163"
         style="font-size:40px;line-height:1.25;font-family:sans-serif"> </flowPara></flowRoot>
    <flowRoot
       xml:space="preserve"
       id="flowRoot3679"
       style="font-style:normal;font-variant:normal;font-weight:normal;font-stretch:normal;line-height:0.01%;font-family:serif;-inkscape-font-specification:Serif;letter-spacing:0px;word-spacing:0px;fill:#000000;fill-opacity:1;stroke:none"><flowRegion
         id="flowRegion3681"
         style="font-family:serif"><rect
           id="rect3683"
           width="15.209126"
           height="193.1559"
           x="44.86692"
           y="282.88974" /></flowRegion><flowPara
         id="flowPara3685"
         style="font-size:20px;line-height:1.25;font-family:serif"> </flowPara></flowRoot>
  </g>
</svg>
