<?xml version="1.0" encoding="UTF-8" standalone="no"?>
<!-- Created with Inkscape (http://www.inkscape.org/) -->

<svg
   width="800"
   height="600"
   id="svg2"
   version="1.1"
   xmlns="http://www.w3.org/2000/svg"
   xmlns:svg="http://www.w3.org/2000/svg"
   xmlns:rdf="http://www.w3.org/1999/02/22-rdf-syntax-ns#"
   xmlns:cc="http://creativecommons.org/ns#"
   xmlns:dc="http://purl.org/dc/elements/1.1/">
  <defs
     id="defs4" />
  <metadata
     id="metadata7">
    <rdf:RDF>
      <cc:Work
         rdf:about="">
        <dc:format>image/svg+xml</dc:format>
        <dc:type
           rdf:resource="http://purl.org/dc/dcmitype/StillImage" />
        <dc:title />
        <dc:language>en</dc:language>
        <cc:license
           rdf:resource="https://timefold.ai/license" />
      </cc:Work>
    </rdf:RDF>
  </metadata>
  <g
     id="layer5"
     style="display:inline">
    <path
       style="font-size:35px;line-height:1.25;font-family:'Liberation Sans';-inkscape-font-specification:'Liberation Sans, Normal';text-align:center;text-anchor:middle"
       d="m 231.94336,251.5264 v -25.05371 h 4.99023 l 5.93018,17.73926 q 0.82031,2.47803 1.19629,3.7085 0.42724,-1.36719 1.33301,-4.01612 l 5.99853,-17.43164 h 4.46045 v 25.05371 h -3.1958 v -20.96923 l -7.28027,20.96923 h -2.99073 l -7.24609,-21.32812 v 21.32812 z m 40.75928,0 v -2.66601 q -2.11914,3.07617 -5.75928,3.07617 -1.60645,0 -3.00781,-0.61523 -1.38428,-0.61524 -2.06787,-1.53809 -0.66651,-0.93994 -0.93995,-2.29004 -0.18798,-0.90576 -0.18798,-2.87109 v -11.24512 h 3.07617 v 10.06592 q 0,2.40967 0.18799,3.24707 0.29052,1.21338 1.23046,1.91406 0.93995,0.6836 2.32422,0.6836 1.38428,0 2.59766,-0.70069 1.21338,-0.71777 1.70898,-1.93115 0.5127,-1.23047 0.5127,-3.55469 v -9.72412 h 3.07617 v 18.14941 z m 7.50244,0 v -25.05371 h 3.07617 v 25.05371 z m 14.56054,-2.75146 0.44434,2.71729 q -1.29883,0.27343 -2.32422,0.27343 -1.6748,0 -2.59765,-0.52978 -0.92286,-0.52979 -1.29883,-1.38428 -0.37598,-0.87158 -0.37598,-3.64014 v -10.44189 h -2.25586 v -2.39258 h 2.25586 v -4.49463 l 3.05908,-1.8457 v 6.34033 h 3.09326 v 2.39258 h -3.09326 v 10.61279 q 0,1.31592 0.15381,1.6919 0.1709,0.37597 0.52979,0.59814 0.37597,0.22217 1.05957,0.22217 0.51269,0 1.35009,-0.11963 z m 3.02491,-18.76465 v -3.5376 h 3.07617 v 3.5376 z m 0,21.51611 v -18.14941 h 3.07617 v 18.14941 z m 14.47509,-2.75146 0.44434,2.71729 q -1.29883,0.27343 -2.32422,0.27343 -1.6748,0 -2.59765,-0.52978 -0.92286,-0.52979 -1.29883,-1.38428 -0.37598,-0.87158 -0.37598,-3.64014 v -10.44189 h -2.25586 v -2.39258 h 2.25586 v -4.49463 l 3.05908,-1.8457 v 6.34033 h 3.09326 v 2.39258 h -3.09326 v 10.61279 q 0,1.31592 0.15381,1.6919 0.1709,0.37597 0.52979,0.59814 0.37597,0.22217 1.05957,0.22217 0.51269,0 1.35009,-0.11963 z m 3.00782,2.75146 v -25.05371 h 3.07617 v 8.98926 q 2.15332,-2.49512 5.43457,-2.49512 2.0166,0 3.50342,0.80323 1.48681,0.78613 2.11914,2.1875 0.64941,1.40136 0.64941,4.06738 v 11.50146 h -3.07617 v -11.50146 q 0,-2.30713 -1.0083,-3.34961 -0.99121,-1.05957 -2.81982,-1.05957 -1.36719,0 -2.58057,0.71777 -1.19629,0.70069 -1.70899,1.91407 -0.51269,1.21338 -0.51269,3.34961 v 9.92919 z m 19.43115,0 v -18.14941 h 2.76855 v 2.75147 q 1.05957,-1.93116 1.94825,-2.54639 0.90576,-0.61524 1.98242,-0.61524 1.55517,0 3.16162,0.99122 l -1.05957,2.854 q -1.12793,-0.6665 -2.25586,-0.6665 -1.0083,0 -1.81152,0.61523 -0.80323,0.59814 -1.14502,1.6748 -0.5127,1.64063 -0.5127,3.58887 v 9.50195 z m 24.11377,-5.84472 3.17871,0.39306 q -0.75195,2.78565 -2.78564,4.32374 -2.0337,1.53808 -5.19532,1.53808 -3.98193,0 -6.32324,-2.44385 -2.32422,-2.46093 -2.32422,-6.8872 0,-4.58008 2.3584,-7.10938 2.3584,-2.5293 6.11816,-2.5293 3.64014,0 5.94727,2.47803 2.30713,2.47803 2.30713,6.97266 0,0.27344 -0.0171,0.82031 h -13.53516 q 0.1709,2.99072 1.6919,4.58008 1.52099,1.58935 3.79394,1.58935 1.6919,0 2.88819,-0.88867 1.19629,-0.88867 1.89697,-2.83691 z m -10.1001,-4.97315 h 10.13428 q -0.20508,-2.29004 -1.16211,-3.43505 -1.46973,-1.77735 -3.81104,-1.77735 -2.11914,0 -3.57177,1.41846 -1.43555,1.41846 -1.58936,3.79394 z m 28.98438,8.57911 q -1.70899,1.45263 -3.29834,2.05078 -1.57227,0.59814 -3.38379,0.59814 -2.99072,0 -4.59717,-1.45264 -1.60645,-1.46972 -1.60645,-3.74267 0,-1.33301 0.59815,-2.42676 0.61523,-1.11084 1.58935,-1.77734 0.99122,-0.66651 2.22168,-1.0083 0.90577,-0.23926 2.73438,-0.46143 3.72559,-0.44434 5.48584,-1.05957 0.0171,-0.63232 0.0171,-0.80322 0,-1.87989 -0.87158,-2.64893 -1.1792,-1.04248 -3.50342,-1.04248 -2.17041,0 -3.21289,0.76904 -1.02539,0.75196 -1.521,2.68311 l -3.00781,-0.41016 q 0.41016,-1.93115 1.3501,-3.11035 0.93994,-1.19629 2.71728,-1.82861 1.77735,-0.64942 4.11865,-0.64942 2.32422,0 3.77686,0.54688 1.45264,0.54687 2.13623,1.38428 0.68359,0.82031 0.95703,2.08496 0.15381,0.78613 0.15381,2.83691 v 4.10156 q 0,4.28956 0.18799,5.43457 0.20508,1.12793 0.78613,2.17041 h -3.21289 q -0.47851,-0.95703 -0.61523,-2.23876 z m -0.25635,-6.87012 q -1.67481,0.68359 -5.02442,1.16211 -1.89697,0.27343 -2.6831,0.61523 -0.78613,0.3418 -1.21338,1.0083 -0.42725,0.64942 -0.42725,1.45264 0,1.23047 0.92286,2.05078 0.93994,0.82031 2.73437,0.82031 1.77734,0 3.16162,-0.76904 1.38428,-0.78613 2.03369,-2.13623 0.49561,-1.04248 0.49561,-3.07617 z m 19.65332,9.10888 v -2.29003 q -1.72607,2.70019 -5.07568,2.70019 -2.17041,0 -3.99903,-1.19629 -1.81152,-1.19629 -2.81982,-3.33252 -0.99121,-2.15332 -0.99121,-4.93896 0,-2.71729 0.90576,-4.92188 0.90576,-2.22168 2.71728,-3.40088 1.81153,-1.1792 4.0503,-1.1792 1.64062,0 2.92236,0.70069 1.28174,0.68359 2.08496,1.79443 v -8.98926 h 3.05908 v 25.05371 z m -9.72412,-9.05761 q 0,3.48633 1.46972,5.2124 1.46973,1.72607 3.46924,1.72607 2.0166,0 3.41797,-1.64062 1.41846,-1.65772 1.41846,-5.0415 0,-3.72559 -1.43555,-5.46875 -1.43554,-1.74317 -3.5376,-1.74317 -2.05078,0 -3.43505,1.67481 -1.36719,1.6748 -1.36719,5.28076 z m 17.43164,-12.4585 v -3.5376 h 3.07617 v 3.5376 z m 0,21.51611 v -18.14941 h 3.07617 v 18.14941 z m 7.75879,0 v -18.14941 h 2.76855 v 2.58057 q 1.99951,-2.99073 5.77637,-2.99073 1.64062,0 3.00781,0.59815 1.38428,0.58105 2.06787,1.53808 0.6836,0.95704 0.95703,2.27295 0.1709,0.8545 0.1709,2.99073 v 11.15966 h -3.07617 v -11.04003 q 0,-1.87989 -0.35889,-2.80274 -0.35888,-0.93994 -1.28173,-1.48682 -0.90577,-0.56396 -2.13623,-0.56396 -1.96534,0 -3.40088,1.24756 -1.41846,1.24756 -1.41846,4.73389 v 9.9121 z m 18.90137,1.50391 2.99072,0.44434 q 0.18799,1.38427 1.04248,2.0166 1.14502,0.85449 3.12744,0.85449 2.13623,0 3.29834,-0.85449 1.16211,-0.85449 1.57227,-2.39258 0.23925,-0.93994 0.22216,-3.94775 -2.0166,2.37548 -5.02441,2.37548 -3.74268,0 -5.79346,-2.70019 -2.05078,-2.7002 -2.05078,-6.47705 0,-2.59766 0.93994,-4.78516 0.93994,-2.20459 2.71729,-3.40088 1.79443,-1.19629 4.2041,-1.19629 3.21289,0 5.29785,2.59766 v -2.1875 h 2.83691 v 15.68848 q 0,4.23828 -0.87158,5.99853 -0.85449,1.77735 -2.73437,2.80274 -1.8628,1.02539 -4.59717,1.02539 -3.24707,0 -5.24658,-1.46973 -1.99951,-1.45264 -1.93115,-4.39209 z m 2.54638,-10.90332 q 0,3.57178 1.41846,5.2124 1.41846,1.64063 3.55469,1.64063 2.11914,0 3.55468,-1.62354 1.43555,-1.64062 1.43555,-5.12695 0,-3.33252 -1.48682,-5.02441 -1.46972,-1.6919 -3.55468,-1.6919 -2.05078,0 -3.48633,1.67481 -1.43555,1.65771 -1.43555,4.93896 z m 25.97656,3.98193 3.042,-0.47851 q 0.25634,1.82861 1.41845,2.80273 1.1792,0.97412 3.28125,0.97412 2.11914,0 3.14453,-0.85449 1.0254,-0.87158 1.0254,-2.03369 0,-1.04248 -0.90577,-1.64062 -0.63232,-0.41016 -3.14453,-1.04248 -3.38379,-0.8545 -4.6997,-1.46973 -1.29883,-0.63233 -1.98243,-1.72608 -0.6665,-1.11084 -0.6665,-2.44384 0,-1.21338 0.54687,-2.23877 0.56397,-1.04248 1.521,-1.72608 0.71777,-0.52978 1.94824,-0.88867 1.24756,-0.37598 2.66602,-0.37598 2.13623,0 3.74267,0.61524 1.62354,0.61523 2.39258,1.6748 0.76905,1.04248 1.05957,2.80274 l -3.00781,0.41015 q -0.20508,-1.40136 -1.19629,-2.1875 -0.97412,-0.78613 -2.76855,-0.78613 -2.11914,0 -3.02491,0.70068 -0.90576,0.70069 -0.90576,1.64063 0,0.59814 0.37598,1.07666 0.37598,0.49561 1.1792,0.82031 0.46142,0.1709 2.71728,0.78614 3.26416,0.87158 4.5459,1.43554 1.29883,0.54688 2.03369,1.60645 0.73487,1.05957 0.73487,2.63183 0,1.53809 -0.90577,2.90528 -0.88867,1.35009 -2.58056,2.10205 -1.6919,0.73486 -3.82813,0.73486 -3.53759,0 -5.40039,-1.46973 -1.8457,-1.46972 -2.3584,-4.35791 z m 25.44678,2.66602 0.44434,2.71729 q -1.29883,0.27343 -2.32422,0.27343 -1.67481,0 -2.59766,-0.52978 -0.92285,-0.52979 -1.29883,-1.38428 -0.37597,-0.87158 -0.37597,-3.64014 v -10.44189 h -2.25586 v -2.39258 h 2.25586 v -4.49463 l 3.05908,-1.8457 v 6.34033 h 3.09326 v 2.39258 h -3.09326 v 10.61279 q 0,1.31592 0.15381,1.6919 0.1709,0.37597 0.52978,0.59814 0.37598,0.22217 1.05957,0.22217 0.5127,0 1.3501,-0.11963 z m 2.97363,2.75146 v -18.14941 h 2.76856 v 2.75147 q 1.05957,-1.93116 1.94824,-2.54639 0.90576,-0.61524 1.98242,-0.61524 1.55518,0 3.16162,0.99122 l -1.05957,2.854 q -1.12793,-0.6665 -2.25586,-0.6665 -1.0083,0 -1.81152,0.61523 -0.80322,0.59814 -1.14502,1.6748 -0.51269,1.64063 -0.51269,3.58887 v 9.50195 z m 23.53272,-2.23876 q -1.70899,1.45263 -3.29834,2.05078 -1.57227,0.59814 -3.38379,0.59814 -2.99072,0 -4.59717,-1.45264 -1.60644,-1.46972 -1.60644,-3.74267 0,-1.33301 0.59814,-2.42676 0.61524,-1.11084 1.58936,-1.77734 0.99121,-0.66651 2.22168,-1.0083 0.90576,-0.23926 2.73437,-0.46143 3.72559,-0.44434 5.48584,-1.05957 0.0171,-0.63232 0.0171,-0.80322 0,-1.87989 -0.87158,-2.64893 -1.1792,-1.04248 -3.50342,-1.04248 -2.17041,0 -3.21289,0.76904 -1.02539,0.75196 -1.521,2.68311 l -3.00781,-0.41016 q 0.41016,-1.93115 1.3501,-3.11035 0.93994,-1.19629 2.71729,-1.82861 1.77734,-0.64942 4.11865,-0.64942 2.32422,0 3.77685,0.54688 1.45264,0.54687 2.13623,1.38428 0.6836,0.82031 0.95703,2.08496 0.15381,0.78613 0.15381,2.83691 v 4.10156 q 0,4.28956 0.18799,5.43457 0.20508,1.12793 0.78613,2.17041 h -3.21289 q -0.47851,-0.95703 -0.61523,-2.23876 z m -0.25635,-6.87012 q -1.6748,0.68359 -5.02441,1.16211 -1.89698,0.27343 -2.68311,0.61523 -0.78613,0.3418 -1.21338,1.0083 -0.42724,0.64942 -0.42724,1.45264 0,1.23047 0.92285,2.05078 0.93994,0.82031 2.73437,0.82031 1.77735,0 3.16162,-0.76904 1.38428,-0.78613 2.0337,-2.13623 0.4956,-1.04248 0.4956,-3.07617 z m 14.59473,6.35742 0.44433,2.71729 q -1.29882,0.27343 -2.32421,0.27343 -1.67481,0 -2.59766,-0.52978 -0.92285,-0.52979 -1.29883,-1.38428 -0.37598,-0.87158 -0.37598,-3.64014 v -10.44189 h -2.25585 v -2.39258 h 2.25585 v -4.49463 l 3.05909,-1.8457 v 6.34033 h 3.09326 v 2.39258 h -3.09326 v 10.61279 q 0,1.31592 0.15381,1.6919 0.17089,0.37597 0.52978,0.59814 0.37598,0.22217 1.05957,0.22217 0.5127,0 1.3501,-0.11963 z m 15.43213,-3.09326 3.17871,0.39306 q -0.75196,2.78565 -2.78565,4.32374 -2.03369,1.53808 -5.19531,1.53808 -3.98193,0 -6.32324,-2.44385 -2.32422,-2.46093 -2.32422,-6.8872 0,-4.58008 2.3584,-7.10938 2.3584,-2.5293 6.11816,-2.5293 3.64014,0 5.94727,2.47803 2.30713,2.47803 2.30713,6.97266 0,0.27344 -0.0171,0.82031 h -13.53516 q 0.1709,2.99072 1.6919,4.58008 1.52099,1.58935 3.79394,1.58935 1.6919,0 2.88818,-0.88867 1.19629,-0.88867 1.89698,-2.83691 z m -10.1001,-4.97315 h 10.13428 q -0.20508,-2.29004 -1.16211,-3.43505 -1.46973,-1.77735 -3.81104,-1.77735 -2.11914,0 -3.57178,1.41846 -1.43554,1.41846 -1.58935,3.79394 z m 16.57715,12.32178 2.99072,0.44434 q 0.18799,1.38427 1.04248,2.0166 1.14502,0.85449 3.12744,0.85449 2.13623,0 3.29834,-0.85449 1.16211,-0.85449 1.57227,-2.39258 0.23926,-0.93994 0.22217,-3.94775 -2.01661,2.37548 -5.02442,2.37548 -3.74267,0 -5.79346,-2.70019 -2.05078,-2.7002 -2.05078,-6.47705 0,-2.59766 0.93994,-4.78516 0.93995,-2.20459 2.71729,-3.40088 1.79443,-1.19629 4.2041,-1.19629 3.21289,0 5.29785,2.59766 v -2.1875 h 2.83692 v 15.68848 q 0,4.23828 -0.87158,5.99853 -0.8545,1.77735 -2.73438,2.80274 -1.86279,1.02539 -4.59717,1.02539 -3.24707,0 -5.24658,-1.46973 -1.99951,-1.45264 -1.93115,-4.39209 z m 2.54638,-10.90332 q 0,3.57178 1.41846,5.2124 1.41846,1.64063 3.55469,1.64063 2.11914,0 3.55469,-1.62354 1.43554,-1.64062 1.43554,-5.12695 0,-3.33252 -1.48681,-5.02441 -1.46973,-1.6919 -3.55469,-1.6919 -2.05078,0 -3.48633,1.67481 -1.43555,1.65771 -1.43555,4.93896 z m 17.5,-12.1167 v -3.5376 h 3.07618 v 3.5376 z m 0,21.51611 v -18.14941 h 3.07618 v 18.14941 z m 20.18311,-5.84472 3.17871,0.39306 q -0.75195,2.78565 -2.78564,4.32374 -2.03369,1.53808 -5.19532,1.53808 -3.98193,0 -6.32324,-2.44385 -2.32422,-2.46093 -2.32422,-6.8872 0,-4.58008 2.3584,-7.10938 2.3584,-2.5293 6.11817,-2.5293 3.64013,0 5.94726,2.47803 2.30713,2.47803 2.30713,6.97266 0,0.27344 -0.0171,0.82031 h -13.53516 q 0.1709,2.99072 1.6919,4.58008 1.52099,1.58935 3.79394,1.58935 1.6919,0 2.88819,-0.88867 1.19629,-0.88867 1.89697,-2.83691 z m -10.1001,-4.97315 h 10.13428 q -0.20508,-2.29004 -1.16211,-3.43505 -1.46973,-1.77735 -3.81103,-1.77735 -2.11915,0 -3.57178,1.41846 -1.43555,1.41846 -1.58936,3.79394 z m 15.91065,5.40039 3.04199,-0.47851 q 0.25635,1.82861 1.41846,2.80273 1.1792,0.97412 3.28125,0.97412 2.11914,0 3.14453,-0.85449 1.02539,-0.87158 1.02539,-2.03369 0,-1.04248 -0.90576,-1.64062 -0.63233,-0.41016 -3.14453,-1.04248 -3.38379,-0.8545 -4.69971,-1.46973 -1.29883,-0.63233 -1.98242,-1.72608 -0.66651,-1.11084 -0.66651,-2.44384 0,-1.21338 0.54688,-2.23877 0.56396,-1.04248 1.52099,-1.72608 0.71778,-0.52978 1.94825,-0.88867 1.24755,-0.37598 2.66601,-0.37598 2.13623,0 3.74268,0.61524 1.62353,0.61523 2.39258,1.6748 0.76904,1.04248 1.05957,2.80274 l -3.00782,0.41015 q -0.20508,-1.40136 -1.19629,-2.1875 -0.97412,-0.78613 -2.76855,-0.78613 -2.11914,0 -3.0249,0.70068 -0.90576,0.70069 -0.90576,1.64063 0,0.59814 0.37597,1.07666 0.37598,0.49561 1.1792,0.82031 0.46143,0.1709 2.71729,0.78614 3.26416,0.87158 4.54589,1.43554 1.29883,0.54688 2.0337,1.60645 0.73486,1.05957 0.73486,2.63183 0,1.53809 -0.90576,2.90528 -0.88867,1.35009 -2.58057,2.10205 -1.69189,0.73486 -3.82812,0.73486 -3.5376,0 -5.40039,-1.46973 -1.84571,-1.46972 -2.3584,-4.35791 z"
       id="flowRoot4302"
       transform="translate(-20,-200.00041)"
       aria-label="Multithreading strategies" />
    <path
       style="font-size:15px;line-height:1.25;font-family:'Liberation Sans';-inkscape-font-specification:'Liberation Sans, Normal';text-align:center;text-anchor:middle"
       d="m 192.95288,153.51132 v -9.47022 h -3.5376 v -1.26709 h 8.51075 v 1.26709 h -3.55225 v 9.47022 z m 6.26221,0 v -10.73731 h 1.31836 v 3.85254 q 0.92285,-1.06934 2.3291,-1.06934 0.86426,0 1.50146,0.34424 0.63721,0.33692 0.90821,0.9375 0.27832,0.60059 0.27832,1.74317 v 4.9292 h -1.31836 v -4.9292 q 0,-0.98877 -0.43213,-1.43555 -0.42481,-0.4541 -1.2085,-0.4541 -0.58593,0 -1.10595,0.30762 -0.5127,0.30029 -0.73243,0.82031 -0.21972,0.52002 -0.21972,1.43555 v 4.25537 z m 13.66699,-2.50489 1.3623,0.16846 q -0.32226,1.19385 -1.19384,1.85303 -0.87158,0.65918 -2.22657,0.65918 -1.70654,0 -2.70996,-1.04737 -0.99609,-1.05468 -0.99609,-2.95166 0,-1.96289 1.01074,-3.04687 1.01074,-1.08399 2.62207,-1.08399 1.56006,0 2.54883,1.06202 0.98877,1.06201 0.98877,2.98828 0,0.11719 -0.007,0.35156 h -5.80079 q 0.0733,1.28174 0.7251,1.96289 0.65186,0.68115 1.62598,0.68115 0.7251,0 1.23779,-0.38086 0.5127,-0.38086 0.81299,-1.21582 z m -4.32861,-2.13134 h 4.34326 q -0.0879,-0.98145 -0.49805,-1.47217 -0.62988,-0.76172 -1.6333,-0.76172 -0.9082,0 -1.53076,0.60791 -0.61524,0.60791 -0.68115,1.62598 z m 7.33154,4.63623 V 145.733 h 1.18652 v 1.1792 q 0.4541,-0.82764 0.83496,-1.09131 0.38819,-0.26368 0.84961,-0.26368 0.66651,0 1.35498,0.42481 l -0.4541,1.22314 q -0.4834,-0.28564 -0.96679,-0.28564 -0.43213,0 -0.77637,0.26367 -0.34424,0.25635 -0.49072,0.71777 -0.21973,0.70313 -0.21973,1.53809 v 4.07227 z m 10.33447,-2.50489 1.36231,0.16846 q -0.32227,1.19385 -1.19385,1.85303 -0.87158,0.65918 -2.22656,0.65918 -1.70655,0 -2.70996,-1.04737 -0.9961,-1.05468 -0.9961,-2.95166 0,-1.96289 1.01074,-3.04687 1.01075,-1.08399 2.62207,-1.08399 1.56006,0 2.54883,1.06202 0.98877,1.06201 0.98877,2.98828 0,0.11719 -0.007,0.35156 h -5.80078 q 0.0732,1.28174 0.72509,1.96289 0.65186,0.68115 1.62598,0.68115 0.7251,0 1.23779,-0.38086 0.5127,-0.38086 0.81299,-1.21582 z m -4.32861,-2.13134 h 4.34326 q -0.0879,-0.98145 -0.49805,-1.47217 -0.62988,-0.76172 -1.6333,-0.76172 -0.9082,0 -1.53076,0.60791 -0.61523,0.60791 -0.68115,1.62598 z m 16.58935,3.67675 q -0.73242,0.62256 -1.41357,0.87891 -0.67383,0.25635 -1.45019,0.25635 -1.28174,0 -1.97022,-0.62256 -0.68848,-0.62988 -0.68848,-1.604 0,-0.57129 0.25635,-1.04004 0.26367,-0.47608 0.68115,-0.76172 0.42481,-0.28565 0.95215,-0.43213 0.38819,-0.10254 1.17188,-0.19776 1.59668,-0.19043 2.35107,-0.4541 0.007,-0.27099 0.007,-0.34424 0,-0.80566 -0.37354,-1.13525 -0.50537,-0.44678 -1.50146,-0.44678 -0.93018,0 -1.37696,0.32959 -0.43945,0.32227 -0.65185,1.14991 l -1.28907,-0.17579 q 0.17579,-0.82763 0.57862,-1.333 0.40283,-0.5127 1.16455,-0.78369 0.76172,-0.27833 1.76514,-0.27833 0.99609,0 1.61865,0.23438 0.62256,0.23437 0.91552,0.59326 0.29297,0.35156 0.41016,0.89356 0.0659,0.33691 0.0659,1.21582 v 1.75781 q 0,1.83838 0.0806,2.3291 0.0879,0.4834 0.33691,0.93018 h -1.37695 q -0.20508,-0.41016 -0.26368,-0.95948 z m -0.10986,-2.94433 q -0.71777,0.29297 -2.15332,0.49804 -0.81299,0.11719 -1.1499,0.26368 -0.33692,0.14648 -0.52002,0.43213 -0.18311,0.27832 -0.18311,0.62255 0,0.52735 0.39551,0.87891 0.40283,0.35156 1.17188,0.35156 0.76172,0 1.35498,-0.32959 0.59326,-0.33691 0.87158,-0.91552 0.2124,-0.44678 0.2124,-1.31836 z m 3.36182,3.90381 V 145.733 h 1.18652 v 1.1792 q 0.4541,-0.82764 0.83496,-1.09131 0.38819,-0.26368 0.84961,-0.26368 0.66651,0 1.35498,0.42481 l -0.4541,1.22314 q -0.4834,-0.28564 -0.9668,-0.28564 -0.43213,0 -0.77636,0.26367 -0.34424,0.25635 -0.49073,0.71777 -0.21972,0.70313 -0.21972,1.53809 v 4.07227 z m 10.33447,-2.50489 1.36231,0.16846 q -0.32227,1.19385 -1.19385,1.85303 -0.87158,0.65918 -2.22657,0.65918 -1.70654,0 -2.70996,-1.04737 -0.99609,-1.05468 -0.99609,-2.95166 0,-1.96289 1.01074,-3.04687 1.01074,-1.08399 2.62207,-1.08399 1.56006,0 2.54883,1.06202 0.98877,1.06201 0.98877,2.98828 0,0.11719 -0.007,0.35156 h -5.80079 q 0.0733,1.28174 0.7251,1.96289 0.65186,0.68115 1.62598,0.68115 0.7251,0 1.23779,-0.38086 0.5127,-0.38086 0.81299,-1.21582 z m -4.32861,-2.13134 h 4.34326 q -0.0879,-0.98145 -0.49805,-1.47217 -0.62988,-0.76172 -1.6333,-0.76172 -0.9082,0 -1.53076,0.60791 -0.61523,0.60791 -0.68115,1.62598 z m 10.98633,2.31445 1.30371,-0.20508 q 0.10986,0.78369 0.60791,1.20117 0.50537,0.41748 1.40625,0.41748 0.9082,0 1.34765,-0.36621 0.43946,-0.37353 0.43946,-0.87158 0,-0.44678 -0.38819,-0.70312 -0.27099,-0.17579 -1.34765,-0.44678 -1.4502,-0.36621 -2.01416,-0.62988 -0.55664,-0.271 -0.84961,-0.73975 -0.28565,-0.47608 -0.28565,-1.04736 0,-0.52002 0.23438,-0.95948 0.2417,-0.44677 0.65185,-0.73974 0.30762,-0.22705 0.83496,-0.38086 0.53467,-0.16114 1.14258,-0.16114 0.91553,0 1.60401,0.26368 0.6958,0.26367 1.02539,0.71777 0.32959,0.44678 0.4541,1.20117 l -1.28907,0.17578 q -0.0879,-0.60058 -0.51269,-0.9375 -0.41748,-0.33691 -1.18652,-0.33691 -0.90821,0 -1.29639,0.30029 -0.38818,0.3003 -0.38818,0.70313 0,0.25634 0.16113,0.46142 0.16113,0.21241 0.50537,0.35157 0.19775,0.0732 1.16455,0.33691 1.39893,0.37353 1.94824,0.61523 0.55664,0.23438 0.87158,0.68848 0.31495,0.4541 0.31495,1.12793 0,0.65918 -0.38819,1.24512 -0.38086,0.57861 -1.10595,0.90088 -0.7251,0.31494 -1.64063,0.31494 -1.51611,0 -2.31445,-0.62989 -0.79102,-0.62988 -1.01074,-1.86767 z m 13.35205,-0.18311 1.3623,0.16846 q -0.32226,1.19385 -1.19385,1.85303 -0.87158,0.65918 -2.22656,0.65918 -1.70654,0 -2.70996,-1.04737 -0.99609,-1.05468 -0.99609,-2.95166 0,-1.96289 1.01074,-3.04687 1.01074,-1.08399 2.62207,-1.08399 1.56006,0 2.54883,1.06202 0.98877,1.06201 0.98877,2.98828 0,0.11719 -0.007,0.35156 h -5.80078 q 0.0732,1.28174 0.7251,1.96289 0.65185,0.68115 1.62597,0.68115 0.7251,0 1.2378,-0.38086 0.51269,-0.38086 0.81299,-1.21582 z m -4.32862,-2.13134 h 4.34326 q -0.0879,-0.98145 -0.49804,-1.47217 -0.62989,-0.76172 -1.6333,-0.76172 -0.90821,0 -1.53076,0.60791 -0.61524,0.60791 -0.68116,1.62598 z m 9.50684,4.63623 -2.95899,-7.77832 h 1.39161 l 1.66992,4.6582 q 0.27099,0.75439 0.49804,1.56738 0.17579,-0.61523 0.49073,-1.47949 l 1.72851,-4.74609 h 1.35498 l -2.94433,7.77832 z m 10.66406,-2.50489 1.36231,0.16846 q -0.32227,1.19385 -1.19385,1.85303 -0.87158,0.65918 -2.22656,0.65918 -1.70655,0 -2.70997,-1.04737 -0.99609,-1.05468 -0.99609,-2.95166 0,-1.96289 1.01074,-3.04687 1.01075,-1.08399 2.62207,-1.08399 1.56006,0 2.54883,1.06202 0.98877,1.06201 0.98877,2.98828 0,0.11719 -0.007,0.35156 h -5.80078 q 0.0732,1.28174 0.72509,1.96289 0.65186,0.68115 1.62598,0.68115 0.7251,0 1.23779,-0.38086 0.5127,-0.38086 0.81299,-1.21582 z m -4.32861,-2.13134 h 4.34326 q -0.0879,-0.98145 -0.49805,-1.47217 -0.62988,-0.76172 -1.6333,-0.76172 -0.9082,0 -1.53076,0.60791 -0.61523,0.60791 -0.68115,1.62598 z m 7.33154,4.63623 V 145.733 h 1.18652 v 1.1792 q 0.45411,-0.82764 0.83497,-1.09131 0.38818,-0.26368 0.8496,-0.26368 0.66651,0 1.35499,0.42481 l -0.45411,1.22314 q -0.48339,-0.28564 -0.96679,-0.28564 -0.43213,0 -0.77637,0.26367 -0.34424,0.25635 -0.49072,0.71777 -0.21973,0.70313 -0.21973,1.53809 v 4.07227 z m 10.08545,-0.95948 q -0.73242,0.62256 -1.41357,0.87891 -0.67383,0.25635 -1.4502,0.25635 -1.28174,0 -1.97021,-0.62256 -0.68848,-0.62988 -0.68848,-1.604 0,-0.57129 0.25635,-1.04004 0.26367,-0.47608 0.68115,-0.76172 0.4248,-0.28565 0.95215,-0.43213 0.38818,-0.10254 1.17187,-0.19776 1.59668,-0.19043 2.35108,-0.4541 0.007,-0.27099 0.007,-0.34424 0,-0.80566 -0.37353,-1.13525 -0.50538,-0.44678 -1.50147,-0.44678 -0.93017,0 -1.37695,0.32959 -0.43946,0.32227 -0.65186,1.14991 l -1.28906,-0.17579 q 0.17578,-0.82763 0.57861,-1.333 0.40284,-0.5127 1.16455,-0.78369 0.76172,-0.27833 1.76514,-0.27833 0.99609,0 1.61865,0.23438 0.62256,0.23437 0.91553,0.59326 0.29297,0.35156 0.41016,0.89356 0.0659,0.33691 0.0659,1.21582 v 1.75781 q 0,1.83838 0.0806,2.3291 0.0879,0.4834 0.33692,0.93018 h -1.37696 q -0.20508,-0.41016 -0.26367,-0.95948 z m -0.10986,-2.94433 q -0.71778,0.29297 -2.15332,0.49804 -0.81299,0.11719 -1.14991,0.26368 -0.33691,0.14648 -0.52002,0.43213 -0.1831,0.27832 -0.1831,0.62255 0,0.52735 0.39551,0.87891 0.40283,0.35156 1.17187,0.35156 0.76172,0 1.35498,-0.32959 0.59326,-0.33691 0.87158,-0.91552 0.21241,-0.44678 0.21241,-1.31836 z m 3.34716,3.90381 v -10.73731 h 1.31836 v 10.73731 z m 7.00196,-2.32178 1.30371,-0.20508 q 0.10986,0.78369 0.60791,1.20117 0.50537,0.41748 1.40625,0.41748 0.9082,0 1.34766,-0.36621 0.43945,-0.37353 0.43945,-0.87158 0,-0.44678 -0.38819,-0.70312 -0.27099,-0.17579 -1.34765,-0.44678 -1.4502,-0.36621 -2.01416,-0.62988 -0.55664,-0.271 -0.84961,-0.73975 -0.28565,-0.47608 -0.28565,-1.04736 0,-0.52002 0.23438,-0.95948 0.2417,-0.44677 0.65185,-0.73974 0.30762,-0.22705 0.83497,-0.38086 0.53466,-0.16114 1.14257,-0.16114 0.91553,0 1.60401,0.26368 0.6958,0.26367 1.02539,0.71777 0.32959,0.44678 0.4541,1.20117 l -1.28906,0.17578 q -0.0879,-0.60058 -0.5127,-0.9375 -0.41748,-0.33691 -1.18652,-0.33691 -0.9082,0 -1.29639,0.30029 -0.38818,0.3003 -0.38818,0.70313 0,0.25634 0.16113,0.46142 0.16113,0.21241 0.50537,0.35157 0.19776,0.0732 1.16455,0.33691 1.39893,0.37353 1.94825,0.61523 0.55664,0.23438 0.87158,0.68848 0.31494,0.4541 0.31494,1.12793 0,0.65918 -0.38818,1.24512 -0.38086,0.57861 -1.10596,0.90088 -0.7251,0.31494 -1.64063,0.31494 -1.51611,0 -2.31445,-0.62989 -0.79102,-0.62988 -1.01074,-1.86767 z m 10.90576,1.14258 0.19043,1.16455 q -0.55664,0.11719 -0.99609,0.11719 -0.71778,0 -1.11329,-0.22706 -0.3955,-0.22705 -0.55664,-0.59326 -0.16113,-0.37353 -0.16113,-1.56006 v -4.47509 h -0.9668 V 145.733 h 0.9668 v -1.92627 l 1.31104,-0.79102 v 2.71729 h 1.32568 v 1.02539 h -1.32568 v 4.54834 q 0,0.56396 0.0659,0.72509 0.0732,0.16114 0.22705,0.25635 0.16114,0.0952 0.45411,0.0952 0.21972,0 0.57861,-0.0513 z m 1.27441,1.1792 V 145.733 h 1.18653 v 1.1792 q 0.4541,-0.82764 0.83496,-1.09131 0.38818,-0.26368 0.84961,-0.26368 0.6665,0 1.35498,0.42481 l -0.4541,1.22314 q -0.4834,-0.28564 -0.9668,-0.28564 -0.43213,0 -0.77637,0.26367 -0.34424,0.25635 -0.49072,0.71777 -0.21973,0.70313 -0.21973,1.53809 v 4.07227 z m 10.08545,-0.95948 q -0.73242,0.62256 -1.41357,0.87891 -0.67383,0.25635 -1.4502,0.25635 -1.28173,0 -1.97021,-0.62256 -0.68848,-0.62988 -0.68848,-1.604 0,-0.57129 0.25635,-1.04004 0.26367,-0.47608 0.68115,-0.76172 0.42481,-0.28565 0.95215,-0.43213 0.38818,-0.10254 1.17188,-0.19776 1.59668,-0.19043 2.35107,-0.4541 0.007,-0.27099 0.007,-0.34424 0,-0.80566 -0.37353,-1.13525 -0.50537,-0.44678 -1.50147,-0.44678 -0.93017,0 -1.37695,0.32959 -0.43945,0.32227 -0.65185,1.14991 l -1.28907,-0.17579 q 0.17578,-0.82763 0.57862,-1.333 0.40283,-0.5127 1.16455,-0.78369 0.76172,-0.27833 1.76513,-0.27833 0.9961,0 1.61866,0.23438 0.62255,0.23437 0.91552,0.59326 0.29297,0.35156 0.41016,0.89356 0.0659,0.33691 0.0659,1.21582 v 1.75781 q 0,1.83838 0.0806,2.3291 0.0879,0.4834 0.33692,0.93018 h -1.37696 q -0.20507,-0.41016 -0.26367,-0.95948 z m -0.10986,-2.94433 q -0.71777,0.29297 -2.15332,0.49804 -0.81299,0.11719 -1.1499,0.26368 -0.33692,0.14648 -0.52002,0.43213 -0.18311,0.27832 -0.18311,0.62255 0,0.52735 0.39551,0.87891 0.40283,0.35156 1.17187,0.35156 0.76172,0 1.35499,-0.32959 0.59326,-0.33691 0.87158,-0.91552 0.2124,-0.44678 0.2124,-1.31836 z m 6.25488,2.72461 0.19043,1.16455 q -0.55664,0.11719 -0.99609,0.11719 -0.71778,0 -1.11328,-0.22706 -0.39551,-0.22705 -0.55664,-0.59326 -0.16114,-0.37353 -0.16114,-1.56006 v -4.47509 h -0.96679 V 145.733 h 0.96679 v -1.92627 l 1.31104,-0.79102 v 2.71729 h 1.32568 v 1.02539 h -1.32568 v 4.54834 q 0,0.56396 0.0659,0.72509 0.0732,0.16114 0.22705,0.25635 0.16113,0.0952 0.4541,0.0952 0.21973,0 0.57861,-0.0513 z m 6.61377,-1.32569 1.36231,0.16846 q -0.32227,1.19385 -1.19385,1.85303 -0.87158,0.65918 -2.22656,0.65918 -1.70655,0 -2.70996,-1.04737 -0.9961,-1.05468 -0.9961,-2.95166 0,-1.96289 1.01074,-3.04687 1.01075,-1.08399 2.62207,-1.08399 1.56006,0 2.54883,1.06202 0.98877,1.06201 0.98877,2.98828 0,0.11719 -0.007,0.35156 h -5.80078 q 0.0732,1.28174 0.72509,1.96289 0.65186,0.68115 1.62598,0.68115 0.7251,0 1.23779,-0.38086 0.5127,-0.38086 0.81299,-1.21582 z m -4.32861,-2.13134 h 4.34326 q -0.0879,-0.98145 -0.49805,-1.47217 -0.62988,-0.76172 -1.6333,-0.76172 -0.9082,0 -1.53076,0.60791 -0.61523,0.60791 -0.68115,1.62598 z m 7.10449,5.28076 1.28174,0.19043 q 0.0806,0.59326 0.44678,0.86426 0.49072,0.36621 1.34033,0.36621 0.91553,0 1.41357,-0.36621 0.49805,-0.36622 0.67383,-1.0254 0.10254,-0.40283 0.0952,-1.69189 -0.86426,1.01807 -2.15332,1.01807 -1.60401,0 -2.48291,-1.15723 -0.87891,-1.15723 -0.87891,-2.77588 0,-1.11328 0.40283,-2.05078 0.40283,-0.94482 1.16455,-1.45752 0.76904,-0.5127 1.80176,-0.5127 1.37695,0 2.27051,1.11329 v -0.9375 h 1.21582 v 6.72363 q 0,1.81641 -0.37354,2.5708 -0.36621,0.76172 -1.17187,1.20117 -0.79834,0.43945 -1.97022,0.43945 -1.3916,0 -2.24853,-0.62988 -0.85694,-0.62256 -0.82764,-1.88232 z m 1.09131,-4.67285 q 0,1.53076 0.60791,2.23388 0.60791,0.70313 1.52344,0.70313 0.9082,0 1.52343,-0.6958 0.61524,-0.70313 0.61524,-2.19727 0,-1.42822 -0.63721,-2.15332 -0.62988,-0.7251 -1.52344,-0.7251 -0.8789,0 -1.49414,0.71778 -0.61523,0.71045 -0.61523,2.1167 z m 7.5,-5.19288 v -1.51611 h 1.31836 v 1.51611 z m 0,9.2212 V 145.733 h 1.31836 v 7.77832 z m 8.6499,-2.50489 1.36231,0.16846 q -0.32227,1.19385 -1.19385,1.85303 -0.87158,0.65918 -2.22656,0.65918 -1.70655,0 -2.70996,-1.04737 -0.9961,-1.05468 -0.9961,-2.95166 0,-1.96289 1.01074,-3.04687 1.01075,-1.08399 2.62207,-1.08399 1.56006,0 2.54883,1.06202 0.98877,1.06201 0.98877,2.98828 0,0.11719 -0.007,0.35156 h -5.80078 q 0.0732,1.28174 0.72509,1.96289 0.65186,0.68115 1.62598,0.68115 0.7251,0 1.23779,-0.38086 0.5127,-0.38086 0.81299,-1.21582 z m -4.32861,-2.13134 h 4.34326 q -0.0879,-0.98145 -0.49805,-1.47217 -0.62988,-0.76172 -1.6333,-0.76172 -0.9082,0 -1.53076,0.60791 -0.61523,0.60791 -0.68115,1.62598 z m 6.81885,2.31445 1.30371,-0.20508 q 0.10986,0.78369 0.60791,1.20117 0.50537,0.41748 1.40625,0.41748 0.9082,0 1.34765,-0.36621 0.43946,-0.37353 0.43946,-0.87158 0,-0.44678 -0.38819,-0.70312 -0.27099,-0.17579 -1.34765,-0.44678 -1.4502,-0.36621 -2.01416,-0.62988 -0.55664,-0.271 -0.84961,-0.73975 -0.28565,-0.47608 -0.28565,-1.04736 0,-0.52002 0.23438,-0.95948 0.2417,-0.44677 0.65185,-0.73974 0.30762,-0.22705 0.83496,-0.38086 0.53467,-0.16114 1.14258,-0.16114 0.91553,0 1.60401,0.26368 0.6958,0.26367 1.02539,0.71777 0.32959,0.44678 0.4541,1.20117 l -1.28906,0.17578 q -0.0879,-0.60058 -0.5127,-0.9375 -0.41748,-0.33691 -1.18652,-0.33691 -0.90821,0 -1.29639,0.30029 -0.38818,0.3003 -0.38818,0.70313 0,0.25634 0.16113,0.46142 0.16113,0.21241 0.50537,0.35157 0.19775,0.0732 1.16455,0.33691 1.39893,0.37353 1.94824,0.61523 0.55664,0.23438 0.87159,0.68848 0.31494,0.4541 0.31494,1.12793 0,0.65918 -0.38819,1.24512 -0.38086,0.57861 -1.10595,0.90088 -0.7251,0.31494 -1.64063,0.31494 -1.51611,0 -2.31445,-0.62989 -0.79102,-0.62988 -1.01074,-1.86767 z m 15.07324,1.14258 0.19043,1.16455 q -0.55664,0.11719 -0.9961,0.11719 -0.71777,0 -1.11328,-0.22706 -0.3955,-0.22705 -0.55664,-0.59326 -0.16113,-0.37353 -0.16113,-1.56006 v -4.47509 h -0.9668 V 145.733 h 0.9668 v -1.92627 l 1.31103,-0.79102 v 2.71729 h 1.32569 v 1.02539 h -1.32569 v 4.54834 q 0,0.56396 0.0659,0.72509 0.0732,0.16114 0.22705,0.25635 0.16114,0.0952 0.45411,0.0952 0.21972,0 0.57861,-0.0513 z m 0.79834,-2.70996 q 0,-2.16065 1.20117,-3.20069 1.00342,-0.86426 2.44629,-0.86426 1.604,0 2.62207,1.05469 1.01807,1.04737 1.01807,2.90039 0,1.50147 -0.45411,2.36573 -0.44677,0.85693 -1.31103,1.333 -0.85693,0.47608 -1.875,0.47608 -1.6333,0 -2.64404,-1.04737 -1.00342,-1.04736 -1.00342,-3.01757 z m 1.35498,0 q 0,1.49414 0.65185,2.24121 0.65186,0.73974 1.64063,0.73974 0.98144,0 1.6333,-0.74707 0.65186,-0.74707 0.65186,-2.27783 0,-1.44287 -0.65918,-2.18262 -0.65186,-0.74707 -1.62598,-0.74707 -0.98877,0 -1.64063,0.73975 -0.65185,0.73975 -0.65185,2.23389 z m 16.69189,3.88916 v -0.98145 q -0.73974,1.15723 -2.17529,1.15723 -0.93018,0 -1.71387,-0.5127 -0.77636,-0.51269 -1.20849,-1.42822 -0.42481,-0.92285 -0.42481,-2.1167 0,-1.16455 0.38819,-2.10937 0.38818,-0.95215 1.16455,-1.45752 0.77636,-0.50538 1.73584,-0.50538 0.70312,0 1.25244,0.3003 0.54931,0.29297 0.89355,0.76904 v -3.85254 h 1.31104 v 10.73731 z m -4.16748,-3.88184 q 0,1.49414 0.62989,2.23389 0.62988,0.73974 1.48681,0.73974 0.86426,0 1.46485,-0.70312 0.60791,-0.71045 0.60791,-2.16065 0,-1.59668 -0.61524,-2.34375 -0.61523,-0.74707 -1.51611,-0.74707 -0.87891,0 -1.47217,0.71778 -0.58594,0.71777 -0.58594,2.26318 z m 6.97266,-0.007 q 0,-2.16065 1.20117,-3.20069 1.00342,-0.86426 2.44629,-0.86426 1.604,0 2.62207,1.05469 1.01807,1.04737 1.01807,2.90039 0,1.50147 -0.4541,2.36573 -0.44678,0.85693 -1.31104,1.333 -0.85693,0.47608 -1.875,0.47608 -1.6333,0 -2.64404,-1.04737 -1.00342,-1.04736 -1.00342,-3.01757 z m 1.35498,0 q 0,1.49414 0.65185,2.24121 0.65186,0.73974 1.64063,0.73974 0.98145,0 1.6333,-0.74707 0.65186,-0.74707 0.65186,-2.27783 0,-1.44287 -0.65918,-2.18262 -0.65186,-0.74707 -1.62598,-0.74707 -0.98877,0 -1.64063,0.73975 -0.65185,0.73975 -0.65185,2.23389 z m 11.64551,3.88916 V 145.733 h 1.1792 v 1.0913 q 0.36621,-0.57128 0.97412,-0.91552 0.60791,-0.35157 1.38427,-0.35157 0.86426,0 1.41358,0.35889 0.55664,0.35889 0.78369,1.00342 0.92285,-1.36231 2.40234,-1.36231 1.15723,0 1.77979,0.64454 0.62256,0.6372 0.62256,1.97021 v 5.33936 h -1.31104 v -4.89991 q 0,-0.79101 -0.13183,-1.13525 -0.12451,-0.35156 -0.46143,-0.56396 -0.33691,-0.21241 -0.79101,-0.21241 -0.82032,0 -1.36231,0.54932 -0.54199,0.54199 -0.54199,1.74316 v 4.51905 h -1.31836 v -5.05371 q 0,-0.87891 -0.32227,-1.31836 -0.32226,-0.43946 -1.05468,-0.43946 -0.55664,0 -1.03272,0.29297 -0.46875,0.29297 -0.68115,0.85694 -0.2124,0.56396 -0.2124,1.62597 v 4.03565 z m 17.59277,0 v -1.14258 q -0.9082,1.31836 -2.46826,1.31836 -0.68848,0 -1.28906,-0.26367 -0.59327,-0.26368 -0.88623,-0.65918 -0.28565,-0.40284 -0.40284,-0.98145 -0.0806,-0.38818 -0.0806,-1.23047 V 145.733 h 1.31836 v 4.31396 q 0,1.03272 0.0806,1.3916 0.12452,0.52002 0.52735,0.82031 0.40283,0.29297 0.99609,0.29297 0.59326,0 1.11328,-0.30029 0.52002,-0.30762 0.73242,-0.82764 0.21973,-0.52734 0.21973,-1.52343 V 145.733 h 1.31836 v 7.77832 z m 3.21533,0 v -10.73731 h 1.31836 v 10.73731 z m 6.24024,-1.1792 0.19043,1.16455 q -0.55664,0.11719 -0.9961,0.11719 -0.71777,0 -1.11328,-0.22706 -0.39551,-0.22705 -0.55664,-0.59326 -0.16113,-0.37353 -0.16113,-1.56006 v -4.47509 h -0.9668 V 145.733 h 0.9668 v -1.92627 l 1.31103,-0.79102 v 2.71729 h 1.32569 v 1.02539 h -1.32569 v 4.54834 q 0,0.56396 0.0659,0.72509 0.0732,0.16114 0.22705,0.25635 0.16114,0.0952 0.4541,0.0952 0.21973,0 0.57862,-0.0513 z m 1.29638,-8.042 v -1.51611 h 1.31836 v 1.51611 z m 0,9.2212 V 145.733 h 1.31836 v 7.77832 z m 6.20362,-1.1792 0.19043,1.16455 q -0.55664,0.11719 -0.9961,0.11719 -0.71777,0 -1.11328,-0.22706 -0.39551,-0.22705 -0.55664,-0.59326 -0.16113,-0.37353 -0.16113,-1.56006 v -4.47509 h -0.9668 V 145.733 h 0.9668 v -1.92627 l 1.31103,-0.79102 v 2.71729 h 1.32569 v 1.02539 h -1.32569 v 4.54834 q 0,0.56396 0.0659,0.72509 0.0732,0.16114 0.22705,0.25635 0.16114,0.0952 0.4541,0.0952 0.21973,0 0.57862,-0.0513 z m 1.28906,1.1792 v -10.73731 h 1.31836 v 3.85254 q 0.92285,-1.06934 2.3291,-1.06934 0.86426,0 1.50147,0.34424 0.6372,0.33692 0.9082,0.9375 0.27832,0.60059 0.27832,1.74317 v 4.9292 h -1.31836 v -4.9292 q 0,-0.98877 -0.43213,-1.43555 -0.4248,-0.4541 -1.2085,-0.4541 -0.58593,0 -1.10595,0.30762 -0.5127,0.30029 -0.73242,0.82031 -0.21973,0.52002 -0.21973,1.43555 v 4.25537 z m 8.32764,0 V 145.733 h 1.18652 v 1.1792 q 0.4541,-0.82764 0.83496,-1.09131 0.38818,-0.26368 0.84961,-0.26368 0.6665,0 1.35498,0.42481 l -0.4541,1.22314 q -0.4834,-0.28564 -0.9668,-0.28564 -0.43213,0 -0.77637,0.26367 -0.34423,0.25635 -0.49072,0.71777 -0.21972,0.70313 -0.21972,1.53809 v 4.07227 z m 10.33447,-2.50489 1.3623,0.16846 q -0.32226,1.19385 -1.19384,1.85303 -0.87159,0.65918 -2.22657,0.65918 -1.70654,0 -2.70996,-1.04737 -0.99609,-1.05468 -0.99609,-2.95166 0,-1.96289 1.01074,-3.04687 1.01074,-1.08399 2.62207,-1.08399 1.56006,0 2.54883,1.06202 0.98877,1.06201 0.98877,2.98828 0,0.11719 -0.007,0.35156 h -5.80078 q 0.0732,1.28174 0.7251,1.96289 0.65186,0.68115 1.62598,0.68115 0.7251,0 1.23779,-0.38086 0.5127,-0.38086 0.81299,-1.21582 z m -4.32861,-2.13134 h 4.34326 q -0.0879,-0.98145 -0.49805,-1.47217 -0.62988,-0.76172 -1.6333,-0.76172 -0.9082,0 -1.53076,0.60791 -0.61524,0.60791 -0.68115,1.62598 z m 12.42187,3.67675 q -0.73242,0.62256 -1.41357,0.87891 -0.67383,0.25635 -1.4502,0.25635 -1.28174,0 -1.97021,-0.62256 -0.68848,-0.62988 -0.68848,-1.604 0,-0.57129 0.25635,-1.04004 0.26367,-0.47608 0.68115,-0.76172 0.4248,-0.28565 0.95215,-0.43213 0.38818,-0.10254 1.17187,-0.19776 1.59668,-0.19043 2.35108,-0.4541 0.007,-0.27099 0.007,-0.34424 0,-0.80566 -0.37353,-1.13525 -0.50537,-0.44678 -1.50147,-0.44678 -0.93017,0 -1.37695,0.32959 -0.43945,0.32227 -0.65186,1.14991 l -1.28906,-0.17579 q 0.17578,-0.82763 0.57861,-1.333 0.40284,-0.5127 1.16455,-0.78369 0.76172,-0.27833 1.76514,-0.27833 0.9961,0 1.61865,0.23438 0.62256,0.23437 0.91553,0.59326 0.29297,0.35156 0.41016,0.89356 0.0659,0.33691 0.0659,1.21582 v 1.75781 q 0,1.83838 0.0806,2.3291 0.0879,0.4834 0.33692,0.93018 h -1.37696 q -0.20508,-0.41016 -0.26367,-0.95948 z m -0.10986,-2.94433 q -0.71778,0.29297 -2.15332,0.49804 -0.81299,0.11719 -1.14991,0.26368 -0.33691,0.14648 -0.52001,0.43213 -0.18311,0.27832 -0.18311,0.62255 0,0.52735 0.39551,0.87891 0.40283,0.35156 1.17187,0.35156 0.76172,0 1.35498,-0.32959 0.59326,-0.33691 0.87159,-0.91552 0.2124,-0.44678 0.2124,-1.31836 z m 8.42285,3.90381 v -0.98145 q -0.73975,1.15723 -2.17529,1.15723 -0.93018,0 -1.71387,-0.5127 -0.77637,-0.51269 -1.2085,-1.42822 -0.4248,-0.92285 -0.4248,-2.1167 0,-1.16455 0.38818,-2.10937 0.38819,-0.95215 1.16455,-1.45752 0.77637,-0.50538 1.73584,-0.50538 0.70313,0 1.25244,0.3003 0.54932,0.29297 0.89356,0.76904 v -3.85254 h 1.31103 v 10.73731 z m -4.16748,-3.88184 q 0,1.49414 0.62988,2.23389 0.62988,0.73974 1.48682,0.73974 0.86426,0 1.46484,-0.70312 0.60791,-0.71045 0.60791,-2.16065 0,-1.59668 -0.61523,-2.34375 -0.61524,-0.74707 -1.51612,-0.74707 -0.8789,0 -1.47216,0.71778 -0.58594,0.71777 -0.58594,2.26318 z m 12.78808,1.37695 1.36231,0.16846 q -0.32227,1.19385 -1.19385,1.85303 -0.87158,0.65918 -2.22656,0.65918 -1.70654,0 -2.70996,-1.04737 -0.9961,-1.05468 -0.9961,-2.95166 0,-1.96289 1.01075,-3.04687 1.01074,-1.08399 2.62207,-1.08399 1.56006,0 2.54882,1.06202 0.98877,1.06201 0.98877,2.98828 0,0.11719 -0.007,0.35156 h -5.80078 q 0.0732,1.28174 0.7251,1.96289 0.65185,0.68115 1.62597,0.68115 0.7251,0 1.2378,-0.38086 0.51269,-0.38086 0.81298,-1.21582 z m -4.32861,-2.13134 h 4.34326 q -0.0879,-0.98145 -0.49804,-1.47217 -0.62989,-0.76172 -1.6333,-0.76172 -0.90821,0 -1.53077,0.60791 -0.61523,0.60791 -0.68115,1.62598 z m 12.39258,4.63623 v -0.98145 q -0.73975,1.15723 -2.17529,1.15723 -0.93018,0 -1.71387,-0.5127 -0.77637,-0.51269 -1.2085,-1.42822 -0.4248,-0.92285 -0.4248,-2.1167 0,-1.16455 0.38818,-2.10937 0.38819,-0.95215 1.16455,-1.45752 0.77637,-0.50538 1.73584,-0.50538 0.70313,0 1.25244,0.3003 0.54932,0.29297 0.89356,0.76904 v -3.85254 h 1.31103 v 10.73731 z m -4.16748,-3.88184 q 0,1.49414 0.62988,2.23389 0.62988,0.73974 1.48682,0.73974 0.86426,0 1.46484,-0.70312 0.60791,-0.71045 0.60791,-2.16065 0,-1.59668 -0.61523,-2.34375 -0.61524,-0.74707 -1.51612,-0.74707 -0.8789,0 -1.47216,0.71778 -0.58594,0.71777 -0.58594,2.26318 z m 11.14014,-0.007 q 0,-2.16065 1.20117,-3.20069 1.00342,-0.86426 2.44629,-0.86426 1.604,0 2.62207,1.05469 1.01806,1.04737 1.01806,2.90039 0,1.50147 -0.4541,2.36573 -0.44678,0.85693 -1.31103,1.333 -0.85694,0.47608 -1.875,0.47608 -1.6333,0 -2.64405,-1.04737 -1.00341,-1.04736 -1.00341,-3.01757 z m 1.35498,0 q 0,1.49414 0.65185,2.24121 0.65186,0.73974 1.64063,0.73974 0.98144,0 1.6333,-0.74707 0.65185,-0.74707 0.65185,-2.27783 0,-1.44287 -0.65918,-2.18262 -0.65185,-0.74707 -1.62597,-0.74707 -0.98877,0 -1.64063,0.73975 -0.65185,0.73975 -0.65185,2.23389 z m 7.46337,3.88916 V 145.733 h 1.18653 v 1.1792 q 0.4541,-0.82764 0.83496,-1.09131 0.38818,-0.26368 0.84961,-0.26368 0.6665,0 1.35498,0.42481 l -0.4541,1.22314 q -0.4834,-0.28564 -0.9668,-0.28564 -0.43213,0 -0.77637,0.26367 -0.34423,0.25635 -0.49072,0.71777 -0.21973,0.70313 -0.21973,1.53809 v 4.07227 z m 9.17725,0 V 145.733 h 1.1792 v 1.0913 q 0.36621,-0.57128 0.97412,-0.91552 0.60791,-0.35157 1.38428,-0.35157 0.86426,0 1.41357,0.35889 0.55664,0.35889 0.78369,1.00342 0.92286,-1.36231 2.40235,-1.36231 1.15722,0 1.77978,0.64454 0.62256,0.6372 0.62256,1.97021 v 5.33936 h -1.31103 v -4.89991 q 0,-0.79101 -0.13184,-1.13525 -0.12451,-0.35156 -0.46143,-0.56396 -0.33691,-0.21241 -0.79101,-0.21241 -0.82031,0 -1.36231,0.54932 -0.54199,0.54199 -0.54199,1.74316 v 4.51905 h -1.31836 v -5.05371 q 0,-0.87891 -0.32226,-1.31836 -0.32227,-0.43946 -1.05469,-0.43946 -0.55664,0 -1.03271,0.29297 -0.46875,0.29297 -0.68116,0.85694 -0.2124,0.56396 -0.2124,1.62597 v 4.03565 z m 17.59277,0 v -1.14258 q -0.9082,1.31836 -2.46826,1.31836 -0.68847,0 -1.28906,-0.26367 -0.59326,-0.26368 -0.88623,-0.65918 -0.28564,-0.40284 -0.40283,-0.98145 -0.0806,-0.38818 -0.0806,-1.23047 V 145.733 h 1.31836 v 4.31396 q 0,1.03272 0.0806,1.3916 0.12451,0.52002 0.52734,0.82031 0.40283,0.29297 0.99609,0.29297 0.59327,0 1.11329,-0.30029 0.52002,-0.30762 0.73242,-0.82764 0.21972,-0.52734 0.21972,-1.52343 V 145.733 h 1.31836 v 7.77832 z m 3.21534,0 v -10.73731 h 1.31836 v 10.73731 z m 6.24023,-1.1792 0.19043,1.16455 q -0.55664,0.11719 -0.99609,0.11719 -0.71778,0 -1.11328,-0.22706 -0.39551,-0.22705 -0.55665,-0.59326 -0.16113,-0.37353 -0.16113,-1.56006 v -4.47509 h -0.96679 V 145.733 h 0.96679 v -1.92627 l 1.31104,-0.79102 v 2.71729 h 1.32568 v 1.02539 h -1.32568 v 4.54834 q 0,0.56396 0.0659,0.72509 0.0732,0.16114 0.22705,0.25635 0.16113,0.0952 0.4541,0.0952 0.21972,0 0.57861,-0.0513 z m 1.29639,-8.042 v -1.51611 h 1.31836 v 1.51611 z m 0,9.2212 V 145.733 h 1.31836 v 7.77832 z m 6.93603,-3.04688 1.28174,-0.17578 q 0.0513,1.23047 0.46143,1.68457 0.41015,0.4541 1.13525,0.4541 0.53467,0 0.92285,-0.2417 0.38819,-0.24902 0.53467,-0.6665 0.14648,-0.42481 0.14648,-1.34766 v -7.39746 h 1.4209 v 7.3169 q 0,1.34765 -0.32959,2.0874 -0.32226,0.73974 -1.03271,1.12793 -0.70313,0.38818 -1.65528,0.38818 -1.41357,0 -2.16796,-0.81299 -0.74707,-0.81298 -0.71778,-2.41699 z m 11.29395,3.04688 -4.16016,-10.73731 h 1.53809 l 2.79053,7.80029 q 0.33691,0.9375 0.56396,1.75782 0.24902,-0.87891 0.57861,-1.75782 l 2.90039,-7.80029 h 1.4502 l -4.2041,10.73731 z m 6.89209,0 v -10.73731 h 2.13867 l 2.5415,7.60254 q 0.35157,1.06201 0.5127,1.58936 0.1831,-0.58594 0.57129,-1.7212 l 2.5708,-7.4707 h 1.91162 v 10.73731 h -1.36963 v -8.98682 l -3.12012,8.98682 h -1.28173 l -3.10547,-9.14063 v 9.14063 z m 16.01074,-2.32178 1.30371,-0.20508 q 0.10986,0.78369 0.60791,1.20117 0.50537,0.41748 1.40625,0.41748 0.9082,0 1.34766,-0.36621 0.43945,-0.37353 0.43945,-0.87158 0,-0.44678 -0.38818,-0.70312 -0.271,-0.17579 -1.34766,-0.44678 -1.45019,-0.36621 -2.01416,-0.62988 -0.55664,-0.271 -0.84961,-0.73975 -0.28564,-0.47608 -0.28564,-1.04736 0,-0.52002 0.23437,-0.95948 0.2417,-0.44677 0.65186,-0.73974 0.30761,-0.22705 0.83496,-0.38086 0.53467,-0.16114 1.14258,-0.16114 0.91552,0 1.604,0.26368 0.6958,0.26367 1.02539,0.71777 0.32959,0.44678 0.4541,1.20117 l -1.28906,0.17578 q -0.0879,-0.60058 -0.5127,-0.9375 -0.41748,-0.33691 -1.18652,-0.33691 -0.9082,0 -1.29639,0.30029 -0.38818,0.3003 -0.38818,0.70313 0,0.25634 0.16113,0.46142 0.16114,0.21241 0.50537,0.35157 0.19776,0.0732 1.16456,0.33691 1.39892,0.37353 1.94824,0.61523 0.55664,0.23438 0.87158,0.68848 0.31494,0.4541 0.31494,1.12793 0,0.65918 -0.38818,1.24512 -0.38086,0.57861 -1.10596,0.90088 -0.7251,0.31494 -1.64062,0.31494 -1.51612,0 -2.31446,-0.62989 -0.79101,-0.62988 -1.01074,-1.86767 z m 7.53662,-1.56738 q 0,-2.16065 1.20117,-3.20069 1.00342,-0.86426 2.44629,-0.86426 1.60401,0 2.62207,1.05469 1.01807,1.04737 1.01807,2.90039 0,1.50147 -0.4541,2.36573 -0.44678,0.85693 -1.31104,1.333 -0.85693,0.47608 -1.875,0.47608 -1.6333,0 -2.64404,-1.04737 -1.00342,-1.04736 -1.00342,-3.01757 z m 1.35498,0 q 0,1.49414 0.65186,2.24121 0.65185,0.73974 1.64062,0.73974 0.98145,0 1.6333,-0.74707 0.65186,-0.74707 0.65186,-2.27783 0,-1.44287 -0.65918,-2.18262 -0.65186,-0.74707 -1.62598,-0.74707 -0.98877,0 -1.64062,0.73975 -0.65186,0.73975 -0.65186,2.23389 z m 7.44873,3.88916 v -10.73731 h 1.31836 v 10.73731 z m 5.52246,0 -2.95898,-7.77832 h 1.3916 l 1.66992,4.6582 q 0.271,0.75439 0.49805,1.56738 0.17578,-0.61523 0.49072,-1.47949 l 1.72852,-4.74609 h 1.35498 l -2.94434,7.77832 z m 5.34668,-9.2212 v -1.51611 h 1.31836 v 1.51611 z m 0,9.2212 V 145.733 h 1.31836 v 7.77832 z m 3.3252,0 V 145.733 h 1.18652 v 1.10595 q 0.85694,-1.28174 2.47559,-1.28174 0.70312,0 1.28906,0.25635 0.59326,0.24903 0.88623,0.65918 0.29297,0.41016 0.41016,0.97412 0.0732,0.36621 0.0732,1.28174 v 4.78272 h -1.31836 v -4.73145 q 0,-0.80566 -0.15381,-1.20117 -0.15381,-0.40283 -0.54932,-0.63721 -0.38818,-0.2417 -0.91552,-0.2417 -0.84229,0 -1.45752,0.53467 -0.60791,0.53467 -0.60791,2.02881 v 4.24805 z m 8.10058,0.64453 1.28174,0.19043 q 0.0806,0.59326 0.44678,0.86426 0.49072,0.36621 1.34033,0.36621 0.91553,0 1.41358,-0.36621 0.49804,-0.36622 0.67382,-1.0254 0.10254,-0.40283 0.0952,-1.69189 -0.86426,1.01807 -2.15332,1.01807 -1.60401,0 -2.48291,-1.15723 -0.87891,-1.15723 -0.87891,-2.77588 0,-1.11328 0.40283,-2.05078 0.40284,-0.94482 1.16455,-1.45752 0.76905,-0.5127 1.80176,-0.5127 1.37696,0 2.27051,1.11329 v -0.9375 h 1.21582 v 6.72363 q 0,1.81641 -0.37353,2.5708 -0.36622,0.76172 -1.17188,1.20117 -0.79834,0.43945 -1.97021,0.43945 -1.39161,0 -2.24854,-0.62988 -0.85693,-0.62256 -0.82764,-1.88232 z m 1.09131,-4.67285 q 0,1.53076 0.60791,2.23388 0.60791,0.70313 1.52344,0.70313 0.9082,0 1.52344,-0.6958 0.61523,-0.70313 0.61523,-2.19727 0,-1.42822 -0.6372,-2.15332 -0.62989,-0.7251 -1.52344,-0.7251 -0.87891,0 -1.49414,0.71778 -0.61524,0.71045 -0.61524,2.1167 z m 7.86621,4.02832 v -1.50147 h 1.50147 v 1.50147 z"
       id="flowRoot4302-6"
       transform="translate(-20,-80.000344)"
       aria-label="There are several strategies to do multithreaded or multi JVM solving." />
  </g>
</svg>
