<?xml version="1.0" encoding="UTF-8" standalone="no"?>
<svg
   width="800"
   height="600"
   id="svg2"
   version="1.1"
   xmlns="http://www.w3.org/2000/svg"
   xmlns:svg="http://www.w3.org/2000/svg"
   xmlns:rdf="http://www.w3.org/1999/02/22-rdf-syntax-ns#"
   xmlns:cc="http://creativecommons.org/ns#"
   xmlns:dc="http://purl.org/dc/elements/1.1/">
  <defs
     id="defs4">
    <marker
       style="overflow:visible"
       id="ArrowTriangleStylized-4-0_reversed"
       refX="0"
       refY="0"
       orient="auto"
       markerWidth="1"
       markerHeight="1"
       viewBox="0 0 1 1"
       preserveAspectRatio="xMidYMid">
      <g
         transform="rotate(180,0,0)"
         id="g1">
        <path
           transform="scale(0.5)"
           style="fill:currentColor;fill:context-stroke;fill-rule:evenodd;stroke:context-stroke;stroke-width:1pt"
           d="m 6,0 c -3,1 -7,3 -9,5 0,0 0,-4 2,-5 -2,-1 -2,-5 -2,-5 2,2 6,4 9,5 z"
           id="path1" />
      </g>
    </marker>
  </defs>
  <metadata
     id="metadata7">
    <rdf:RDF>
      <cc:Work
         rdf:about="">
        <dc:format>image/svg+xml</dc:format>
        <dc:type
           rdf:resource="http://purl.org/dc/dcmitype/StillImage" />
        <dc:language>en</dc:language>
        <cc:license
           rdf:resource="https://timefold.ai/product/license/" />
      </cc:Work>
    </rdf:RDF>
  </metadata>
  <g
     id="layer1"
     transform="translate(0,-452.36218)"
     style="display:inline">
    <path
       d="m 343.87506,245.04221 3.33594,-0.29167 q 0.23698,2.00521 1.09375,3.29948 0.875,1.27604 2.69791,2.07812 1.82292,0.78385 4.10156,0.78385 2.02344,0 3.57292,-0.60156 1.54947,-0.60156 2.29687,-1.64062 0.76562,-1.05729 0.76562,-2.29688 0,-1.25781 -0.72916,-2.18749 -0.72917,-0.94792 -2.40625,-1.58594 -1.07552,-0.41927 -4.75781,-1.29427 -3.68229,-0.89323 -5.15885,-1.67708 -1.91406,-1.0026 -2.86198,-2.47917 -0.92968,-1.49479 -0.92968,-3.33593 0,-2.02344 1.14843,-3.77344 1.14844,-1.76822 3.35417,-2.67968 2.20572,-0.91146 4.90364,-0.91146 2.97135,0 5.23177,0.96615 2.27864,0.94791 3.49999,2.80729 1.22136,1.85937 1.3125,4.21093 l -3.39062,0.25521 q -0.27344,-2.53385 -1.85937,-3.82812 -1.56771,-1.29427 -4.64844,-1.29427 -3.20833,0 -4.68489,1.18489 -1.45833,1.16667 -1.45833,2.82552 0,1.4401 1.03906,2.36979 1.02083,0.92969 5.32291,1.91406 4.32031,0.96615 5.92448,1.69531 2.33333,1.07552 3.44531,2.73437 1.11197,1.64063 1.11197,3.79167 0,2.13281 -1.22135,4.02864 -1.22135,1.8776 -3.51823,2.93489 -2.27864,1.03907 -5.14062,1.03907 -3.6276,0 -6.08853,-1.0573 -2.44271,-1.05729 -3.84635,-3.17187 -1.38542,-2.13281 -1.45834,-4.81249 z m 25.70311,8.58593 V 226.9042 h 3.28124 v 15.23957 l 7.76562,-7.87499 h 4.2474 l -7.40104,7.18228 8.14843,12.17708 h -4.04687 l -6.39843,-9.89843 -2.31511,2.22395 v 7.67448 z m 18.66665,-22.9505 v -3.77344 h 3.28125 v 3.77344 z m 0,22.9505 v -19.35936 h 3.28125 v 19.35936 z m 8.20312,0 V 226.9042 h 3.28124 v 26.72394 z m 8.29426,0 V 226.9042 h 3.28125 v 26.72394 z m 18.66665,0 V 226.9042 h 3.28124 v 26.72394 z m 21.61977,-6.23437 3.39062,0.41927 q -0.80208,2.97135 -2.97135,4.61197 -2.16927,1.64063 -5.54166,1.64063 -4.24739,0 -6.74478,-2.60677 -2.47917,-2.625 -2.47917,-7.34635 0,-4.88541 2.51562,-7.58333 2.51563,-2.69791 6.52604,-2.69791 3.88281,0 6.34374,2.64323 2.46094,2.64322 2.46094,7.43749 0,0.29167 -0.0182,0.875 H 434.0729 q 0.18229,3.1901 1.80469,4.88541 1.62239,1.69531 4.04687,1.69531 1.80469,0 3.08073,-0.94791 1.27604,-0.94792 2.02343,-3.02604 z m -10.77343,-5.30469 h 10.80989 q -0.21875,-2.4427 -1.23958,-3.66406 -1.56771,-1.89583 -4.0651,-1.89583 -2.26042,0 -3.80989,1.51302 -1.53125,1.51302 -1.69532,4.04687 z m 23.66144,11.53906 -7.36458,-19.35936 h 3.46354 l 4.15625,11.59374 q 0.67448,1.8776 1.23958,3.90104 0.4375,-1.53125 1.22135,-3.68229 l 4.30208,-11.81249 h 3.3724 l -7.32812,19.35936 z m 26.54165,-6.23437 3.39062,0.41927 q -0.80208,2.97135 -2.97135,4.61197 -2.16927,1.64063 -5.54166,1.64063 -4.24739,0 -6.74479,-2.60677 -2.47916,-2.625 -2.47916,-7.34635 0,-4.88541 2.51562,-7.58333 2.51562,-2.69791 6.52604,-2.69791 3.88281,0 6.34374,2.64323 2.46094,2.64322 2.46094,7.43749 0,0.29167 -0.0182,0.875 h -14.43749 q 0.18229,3.1901 1.80469,4.88541 1.62239,1.69531 4.04687,1.69531 1.80468,0 3.08072,-0.94791 1.27604,-0.94792 2.02344,-3.02604 z m -10.77343,-5.30469 h 10.80989 q -0.21875,-2.4427 -1.23958,-3.66406 -1.56771,-1.89583 -4.06511,-1.89583 -2.26041,0 -3.80989,1.51302 -1.53125,1.51302 -1.69531,4.04687 z m 18.21092,11.53906 V 226.9042 h 3.28125 v 26.72394 z"
       id="flowRoot4302"
       style="font-size:37.3333px;font-family:'Liberation Sans';-inkscape-font-specification:'Liberation Sans, Normal';text-align:center;text-anchor:middle"
       transform="translate(-20,252.36213)"
       aria-label="Skill level" />
    <g
       id="g3709"
       transform="translate(0,19.999997)" />
    <path
       style="font-size:16px;line-height:1.25;font-family:'Liberation Sans';-inkscape-font-specification:'Liberation Sans, Normal';text-align:center;text-anchor:middle"
       d="m 173.19531,164.41207 4.39844,-11.45312 h 1.63281 l 4.6875,11.45312 h -1.72656 l -1.33594,-3.46875 h -4.78906 l -1.25781,3.46875 z M 176.5,159.70895 h 3.88281 l -1.19531,-3.17188 q -0.54688,-1.44531 -0.8125,-2.375 -0.21875,1.10156 -0.61719,2.1875 z m 7.88281,2.22656 1.39063,-0.21875 q 0.11718,0.83594 0.64843,1.28125 0.53907,0.44531 1.5,0.44531 0.96875,0 1.4375,-0.39062 0.46875,-0.39844 0.46875,-0.92969 0,-0.47656 -0.41406,-0.75 -0.28906,-0.1875 -1.4375,-0.47656 -1.54687,-0.39063 -2.14844,-0.67188 -0.59375,-0.28906 -0.90625,-0.78906 -0.30468,-0.50781 -0.30468,-1.11719 0,-0.55469 0.25,-1.02344 0.25781,-0.47656 0.69531,-0.78906 0.32812,-0.24219 0.89062,-0.40625 0.57032,-0.17187 1.21875,-0.17187 0.97657,0 1.71094,0.28125 0.74219,0.28125 1.09375,0.76562 0.35156,0.47656 0.48438,1.28125 l -1.375,0.1875 q -0.0937,-0.64062 -0.54688,-1 -0.44531,-0.35937 -1.26562,-0.35937 -0.96875,0 -1.38282,0.32031 -0.41406,0.32031 -0.41406,0.75 0,0.27344 0.17188,0.49219 0.17187,0.22656 0.53906,0.375 0.21094,0.0781 1.24219,0.35937 1.49218,0.39844 2.07812,0.65625 0.59375,0.25 0.92969,0.73438 0.33594,0.48437 0.33594,1.20312 0,0.70313 -0.41407,1.32813 -0.40625,0.61718 -1.17968,0.96093 -0.77344,0.33594 -1.75,0.33594 -1.61719,0 -2.46875,-0.67187 -0.84375,-0.67188 -1.07813,-1.99219 z m 8,0 1.39063,-0.21875 q 0.11718,0.83594 0.64843,1.28125 0.53907,0.44531 1.5,0.44531 0.96875,0 1.4375,-0.39062 0.46875,-0.39844 0.46875,-0.92969 0,-0.47656 -0.41406,-0.75 -0.28906,-0.1875 -1.4375,-0.47656 -1.54687,-0.39063 -2.14844,-0.67188 -0.59375,-0.28906 -0.90625,-0.78906 -0.30468,-0.50781 -0.30468,-1.11719 0,-0.55469 0.25,-1.02344 0.25781,-0.47656 0.69531,-0.78906 0.32812,-0.24219 0.89062,-0.40625 0.57032,-0.17187 1.21875,-0.17187 0.97657,0 1.71094,0.28125 0.74219,0.28125 1.09375,0.76562 0.35156,0.47656 0.48438,1.28125 l -1.375,0.1875 q -0.0937,-0.64062 -0.54688,-1 -0.44531,-0.35937 -1.26562,-0.35937 -0.96875,0 -1.38282,0.32031 -0.41406,0.32031 -0.41406,0.75 0,0.27344 0.17188,0.49219 0.17187,0.22656 0.53906,0.375 0.21094,0.0781 1.24219,0.35937 1.49218,0.39844 2.07812,0.65625 0.59375,0.25 0.92969,0.73438 0.33594,0.48437 0.33594,1.20312 0,0.70313 -0.41407,1.32813 -0.40625,0.61718 -1.17968,0.96093 -0.77344,0.33594 -1.75,0.33594 -1.61719,0 -2.46875,-0.67187 -0.84375,-0.67188 -1.07813,-1.99219 z m 8.57031,-7.35938 v -1.61718 h 1.40625 v 1.61718 z m 0,9.83594 v -8.29687 h 1.40625 v 8.29687 z m 3.28907,0.6875 1.36718,0.20313 q 0.0859,0.63281 0.47657,0.92187 0.52343,0.39063 1.42968,0.39063 0.97657,0 1.50782,-0.39063 0.53125,-0.39062 0.71875,-1.09375 0.10937,-0.42969 0.10156,-1.80469 -0.92188,1.08594 -2.29688,1.08594 -1.71093,0 -2.64843,-1.23437 -0.9375,-1.23438 -0.9375,-2.96094 0,-1.1875 0.42968,-2.1875 0.42969,-1.00781 1.24219,-1.55469 0.82031,-0.54687 1.92188,-0.54687 1.46875,0 2.42187,1.1875 v -1 h 1.29688 v 7.17187 q 0,1.9375 -0.39844,2.74219 -0.39063,0.8125 -1.25,1.28125 -0.85156,0.46875 -2.10156,0.46875 -1.48438,0 -2.39844,-0.67188 -0.91406,-0.66406 -0.88281,-2.00781 z m 1.16406,-4.98437 q 0,1.63281 0.64844,2.38281 0.64843,0.75 1.625,0.75 0.96875,0 1.625,-0.74219 0.65625,-0.75 0.65625,-2.34375 0,-1.52344 -0.67969,-2.29687 -0.67188,-0.77344 -1.625,-0.77344 -0.9375,0 -1.59375,0.76562 -0.65625,0.75782 -0.65625,2.25782 z m 7.99219,4.29687 v -8.29687 h 1.26562 v 1.17968 q 0.91406,-1.36718 2.64063,-1.36718 0.75,0 1.375,0.27343 0.63281,0.26563 0.94531,0.70313 0.3125,0.4375 0.4375,1.03906 0.0781,0.39063 0.0781,1.36719 v 5.10156 h -1.40625 v -5.04687 q 0,-0.85938 -0.16406,-1.28125 -0.16406,-0.42969 -0.58594,-0.67969 -0.41406,-0.25781 -0.97656,-0.25781 -0.89844,0 -1.55469,0.57031 -0.64843,0.57031 -0.64843,2.16406 v 4.53125 z m 18.75781,-1.02344 q -0.78125,0.66407 -1.50781,0.9375 -0.71875,0.27344 -1.54688,0.27344 -1.36719,0 -2.10156,-0.66406 -0.73438,-0.67188 -0.73438,-1.71094 0,-0.60937 0.27344,-1.10937 0.28125,-0.50782 0.72656,-0.8125 0.45313,-0.30469 1.01563,-0.46094 0.41406,-0.10938 1.25,-0.21094 1.70312,-0.20312 2.50781,-0.48437 0.008,-0.28907 0.008,-0.36719 0,-0.85938 -0.39843,-1.21094 -0.53907,-0.47656 -1.60157,-0.47656 -0.99218,0 -1.46875,0.35156 -0.46875,0.34375 -0.69531,1.22656 l -1.375,-0.1875 q 0.1875,-0.88281 0.61719,-1.42187 0.42969,-0.54688 1.24219,-0.83594 0.8125,-0.29687 1.88281,-0.29687 1.0625,0 1.72656,0.25 0.66406,0.25 0.97656,0.63281 0.3125,0.375 0.4375,0.95312 0.0703,0.35938 0.0703,1.29688 v 1.875 q 0,1.96094 0.0859,2.48437 0.0937,0.51563 0.35938,0.99219 h -1.46875 q -0.21875,-0.4375 -0.28125,-1.02344 z m -0.11719,-3.14062 q -0.76562,0.3125 -2.29687,0.53125 -0.86719,0.125 -1.22657,0.28125 -0.35937,0.15625 -0.55468,0.46094 -0.19532,0.29687 -0.19532,0.66406 0,0.5625 0.42188,0.9375 0.42969,0.375 1.25,0.375 0.8125,0 1.44531,-0.35156 0.63281,-0.35938 0.92969,-0.97657 0.22656,-0.47656 0.22656,-1.40625 z m 10.35156,4.16406 -3.15625,-8.29687 h 1.48438 l 1.78125,4.96875 q 0.28906,0.80468 0.53125,1.67187 0.1875,-0.65625 0.52344,-1.57812 l 1.84375,-5.0625 h 1.44531 l -3.14063,8.29687 z m 5.70313,-9.83594 v -1.61718 H 249.5 v 1.61718 z m 0,9.83594 V 156.1152 H 249.5 v 8.29687 z m 2.98437,-2.47656 1.39063,-0.21875 q 0.11719,0.83594 0.64844,1.28125 0.53906,0.44531 1.5,0.44531 0.96875,0 1.4375,-0.39062 0.46875,-0.39844 0.46875,-0.92969 0,-0.47656 -0.41407,-0.75 -0.28906,-0.1875 -1.4375,-0.47656 -1.54687,-0.39063 -2.14843,-0.67188 -0.59375,-0.28906 -0.90625,-0.78906 -0.30469,-0.50781 -0.30469,-1.11719 0,-0.55469 0.25,-1.02344 0.25781,-0.47656 0.69531,-0.78906 0.32813,-0.24219 0.89063,-0.40625 0.57031,-0.17187 1.21875,-0.17187 0.97656,0 1.71093,0.28125 0.74219,0.28125 1.09375,0.76562 0.35157,0.47656 0.48438,1.28125 l -1.375,0.1875 q -0.0937,-0.64062 -0.54688,-1 -0.44531,-0.35937 -1.26562,-0.35937 -0.96875,0 -1.38281,0.32031 -0.41407,0.32031 -0.41407,0.75 0,0.27344 0.17188,0.49219 0.17187,0.22656 0.53906,0.375 0.21094,0.0781 1.24219,0.35937 1.49219,0.39844 2.07812,0.65625 0.59375,0.25 0.92969,0.73438 0.33594,0.48437 0.33594,1.20312 0,0.70313 -0.41406,1.32813 -0.40625,0.61718 -1.17969,0.96093 -0.77344,0.33594 -1.75,0.33594 -1.61719,0 -2.46875,-0.67187 -0.84375,-0.67188 -1.07813,-1.99219 z m 8.57032,-7.35938 v -1.61718 h 1.40625 v 1.61718 z m 0,9.83594 v -8.29687 h 1.40625 v 8.29687 z m 6.61718,-1.25781 0.20313,1.24219 q -0.59375,0.125 -1.0625,0.125 -0.76563,0 -1.1875,-0.24219 -0.42188,-0.24219 -0.59375,-0.63281 -0.17188,-0.39844 -0.17188,-1.66407 v -4.77343 h -1.03125 v -1.09375 h 1.03125 v -2.05469 l 1.39844,-0.84375 v 2.89844 h 1.41406 v 1.09375 h -1.41406 v 4.85156 q 0,0.60156 0.0703,0.77344 0.0781,0.17187 0.24219,0.27343 0.17188,0.10157 0.48438,0.10157 0.23437,0 0.61718,-0.0547 z m 8.89063,0 0.20312,1.24219 q -0.59375,0.125 -1.0625,0.125 -0.76562,0 -1.1875,-0.24219 -0.42187,-0.24219 -0.59375,-0.63281 -0.17187,-0.39844 -0.17187,-1.66407 v -4.77343 h -1.03125 v -1.09375 h 1.03125 v -2.05469 l 1.39844,-0.84375 v 2.89844 h 1.41406 v 1.09375 h -1.41406 v 4.85156 q 0,0.60156 0.0703,0.77344 0.0781,0.17187 0.24219,0.27343 0.17187,0.10157 0.48437,0.10157 0.23438,0 0.61719,-0.0547 z m 0.85156,-2.89063 q 0,-2.30468 1.28125,-3.41406 1.07031,-0.92187 2.60938,-0.92187 1.71093,0 2.79687,1.125 1.08594,1.11718 1.08594,3.09375 0,1.60156 -0.48438,2.52343 -0.47656,0.91407 -1.39843,1.42188 -0.91407,0.50781 -2,0.50781 -1.74219,0 -2.82032,-1.11719 -1.07031,-1.11718 -1.07031,-3.21875 z m 1.44531,0 q 0,1.59375 0.69532,2.39063 0.69531,0.78906 1.75,0.78906 1.04687,0 1.74218,-0.79687 0.69532,-0.79688 0.69532,-2.42969 0,-1.53906 -0.70313,-2.32813 -0.69531,-0.79687 -1.73437,-0.79687 -1.05469,0 -1.75,0.78906 -0.69532,0.78906 -0.69532,2.38281 z m 17.83594,3.125 q -0.78125,0.66407 -1.50781,0.9375 -0.71875,0.27344 -1.54688,0.27344 -1.36718,0 -2.10156,-0.66406 -0.73437,-0.67188 -0.73437,-1.71094 0,-0.60937 0.27343,-1.10937 0.28125,-0.50782 0.72657,-0.8125 0.45312,-0.30469 1.01562,-0.46094 0.41406,-0.10938 1.25,-0.21094 1.70313,-0.20312 2.50781,-0.48437 0.008,-0.28907 0.008,-0.36719 0,-0.85938 -0.39844,-1.21094 -0.53906,-0.47656 -1.60156,-0.47656 -0.99219,0 -1.46875,0.35156 -0.46875,0.34375 -0.69532,1.22656 l -1.375,-0.1875 q 0.1875,-0.88281 0.61719,-1.42187 0.42969,-0.54688 1.24219,-0.83594 0.8125,-0.29687 1.88281,-0.29687 1.0625,0 1.72656,0.25 0.66407,0.25 0.97657,0.63281 0.3125,0.375 0.4375,0.95312 0.0703,0.35938 0.0703,1.29688 v 1.875 q 0,1.96094 0.0859,2.48437 0.0937,0.51563 0.35937,0.99219 h -1.46875 q -0.21875,-0.4375 -0.28125,-1.02344 z m -0.11719,-3.14062 q -0.76562,0.3125 -2.29687,0.53125 -0.86719,0.125 -1.22656,0.28125 -0.35938,0.15625 -0.55469,0.46094 -0.19531,0.29687 -0.19531,0.66406 0,0.5625 0.42187,0.9375 0.42969,0.375 1.25,0.375 0.8125,0 1.44531,-0.35156 0.63282,-0.35938 0.92969,-0.97657 0.22656,-0.47656 0.22656,-1.40625 z m 11.11719,2.90625 0.20313,1.24219 q -0.59375,0.125 -1.0625,0.125 -0.76563,0 -1.1875,-0.24219 -0.42188,-0.24219 -0.59375,-0.63281 -0.17188,-0.39844 -0.17188,-1.66407 v -4.77343 h -1.03125 v -1.09375 h 1.03125 v -2.05469 l 1.39844,-0.84375 v 2.89844 h 1.41406 v 1.09375 H 304.875 v 4.85156 q 0,0.60156 0.0703,0.77344 0.0781,0.17187 0.24219,0.27343 0.17187,0.10157 0.48437,0.10157 0.23438,0 0.61719,-0.0547 z m 7.05469,-1.41406 1.45312,0.17968 q -0.34375,1.27344 -1.27343,1.97657 -0.92969,0.70312 -2.375,0.70312 -1.82032,0 -2.89063,-1.11719 -1.0625,-1.125 -1.0625,-3.14843 0,-2.09375 1.07813,-3.25 1.07812,-1.15625 2.79687,-1.15625 1.66406,0 2.71875,1.13281 1.05469,1.13281 1.05469,3.1875 0,0.125 -0.008,0.375 h -6.1875 q 0.0781,1.36719 0.77343,2.09375 0.69532,0.72656 1.73438,0.72656 0.77344,0 1.32031,-0.40625 0.54688,-0.40625 0.86719,-1.29687 z m -4.61719,-2.27344 h 4.63281 q -0.0937,-1.04688 -0.53125,-1.57031 -0.67187,-0.8125 -1.74218,-0.8125 -0.96875,0 -1.63282,0.64843 -0.65625,0.64844 -0.72656,1.73438 z m 13.25,1.90625 1.38281,0.17969 q -0.22656,1.42968 -1.16406,2.24218 -0.92969,0.80469 -2.28906,0.80469 -1.70313,0 -2.74219,-1.10937 -1.03125,-1.11719 -1.03125,-3.19532 0,-1.34375 0.44531,-2.35156 0.44532,-1.00781 1.35157,-1.50781 0.91406,-0.50781 1.98437,-0.50781 1.35156,0 2.21094,0.6875 0.85937,0.67968 1.10156,1.9375 l -1.36719,0.21093 q -0.19531,-0.83593 -0.69531,-1.25781 -0.49219,-0.42187 -1.19531,-0.42187 -1.0625,0 -1.72656,0.76562 -0.66407,0.75781 -0.66407,2.40625 0,1.67188 0.64063,2.42969 0.64062,0.75781 1.67187,0.75781 0.82813,0 1.38282,-0.50781 0.55468,-0.50781 0.70312,-1.5625 z m 2.58594,3.03906 v -11.45312 h 1.40625 v 4.10937 q 0.98437,-1.14062 2.48437,-1.14062 0.92188,0 1.60157,0.36718 0.67968,0.35938 0.96875,1 0.29687,0.64063 0.29687,1.85938 v 5.25781 h -1.40625 v -5.25781 q 0,-1.05469 -0.46094,-1.53125 -0.45312,-0.48438 -1.28906,-0.48438 -0.625,0 -1.17969,0.32813 -0.54687,0.32031 -0.78125,0.875 -0.23437,0.55469 -0.23437,1.53125 v 4.53906 z m 8.89844,0 v -8.29687 h 1.26562 v 1.17968 q 0.91406,-1.36718 2.64063,-1.36718 0.75,0 1.375,0.27343 0.63281,0.26563 0.94531,0.70313 0.3125,0.4375 0.4375,1.03906 0.0781,0.39063 0.0781,1.36719 v 5.10156 h -1.40625 v -5.04687 q 0,-0.85938 -0.16406,-1.28125 -0.16406,-0.42969 -0.58594,-0.67969 -0.41406,-0.25781 -0.97656,-0.25781 -0.89844,0 -1.55469,0.57031 -0.64843,0.57031 -0.64843,2.16406 v 4.53125 z m 8.90625,-9.83594 v -1.61718 h 1.40625 v 1.61718 z m 0,9.83594 v -8.29687 h 1.40625 v 8.29687 z m 8.96093,-3.03906 1.38282,0.17969 q -0.22657,1.42968 -1.16407,2.24218 -0.92968,0.80469 -2.28906,0.80469 -1.70312,0 -2.74219,-1.10937 -1.03125,-1.11719 -1.03125,-3.19532 0,-1.34375 0.44532,-2.35156 0.44531,-1.00781 1.35156,-1.50781 0.91406,-0.50781 1.98437,-0.50781 1.35157,0 2.21094,0.6875 0.85938,0.67968 1.10156,1.9375 l -1.36718,0.21093 q -0.19532,-0.83593 -0.69532,-1.25781 -0.49218,-0.42187 -1.19531,-0.42187 -1.0625,0 -1.72656,0.76562 -0.66406,0.75781 -0.66406,2.40625 0,1.67188 0.64062,2.42969 0.64063,0.75781 1.67188,0.75781 0.82812,0 1.38281,-0.50781 0.55469,-0.50781 0.70312,-1.5625 z m 2.59375,-6.79688 v -1.61718 h 1.40625 v 1.61718 z m 0,9.83594 v -8.29687 h 1.40625 v 8.29687 z m 8.96094,-1.02344 q -0.78125,0.66407 -1.50781,0.9375 -0.71875,0.27344 -1.54688,0.27344 -1.36718,0 -2.10156,-0.66406 -0.73437,-0.67188 -0.73437,-1.71094 0,-0.60937 0.27343,-1.10937 0.28125,-0.50782 0.72657,-0.8125 0.45312,-0.30469 1.01562,-0.46094 0.41406,-0.10938 1.25,-0.21094 1.70313,-0.20312 2.50781,-0.48437 0.008,-0.28907 0.008,-0.36719 0,-0.85938 -0.39844,-1.21094 -0.53906,-0.47656 -1.60156,-0.47656 -0.99219,0 -1.46875,0.35156 -0.46875,0.34375 -0.69532,1.22656 l -1.375,-0.1875 q 0.1875,-0.88281 0.61719,-1.42187 0.42969,-0.54688 1.24219,-0.83594 0.8125,-0.29687 1.88281,-0.29687 1.0625,0 1.72656,0.25 0.66407,0.25 0.97657,0.63281 0.3125,0.375 0.4375,0.95312 0.0703,0.35938 0.0703,1.29688 v 1.875 q 0,1.96094 0.0859,2.48437 0.0937,0.51563 0.35937,0.99219 h -1.46875 q -0.21875,-0.4375 -0.28125,-1.02344 z m -0.11719,-3.14062 q -0.76562,0.3125 -2.29687,0.53125 -0.86719,0.125 -1.22656,0.28125 -0.35938,0.15625 -0.55469,0.46094 -0.19531,0.29687 -0.19531,0.66406 0,0.5625 0.42187,0.9375 0.42969,0.375 1.25,0.375 0.8125,0 1.44531,-0.35156 0.63282,-0.35938 0.92969,-0.97657 0.22656,-0.47656 0.22656,-1.40625 z m 3.60157,4.16406 v -8.29687 h 1.26562 v 1.17968 q 0.91406,-1.36718 2.64063,-1.36718 0.75,0 1.375,0.27343 0.63281,0.26563 0.94531,0.70313 0.3125,0.4375 0.4375,1.03906 0.0781,0.39063 0.0781,1.36719 v 5.10156 h -1.40625 v -5.04687 q 0,-0.85938 -0.16406,-1.28125 -0.16406,-0.42969 -0.58594,-0.67969 -0.41406,-0.25781 -0.97656,-0.25781 -0.89844,0 -1.55469,0.57031 -0.64843,0.57031 -0.64843,2.16406 v 4.53125 z m 14.875,0 -2.53907,-8.29687 h 1.45313 l 1.32031,4.78906 0.49219,1.78125 q 0.0312,-0.13281 0.42969,-1.71094 l 1.32031,-4.85937 h 1.44531 l 1.24219,4.8125 0.41406,1.58593 0.47656,-1.60156 1.42188,-4.79687 h 1.36719 l -2.59375,8.29687 h -1.46094 l -1.32031,-4.96875 -0.32032,-1.41406 -1.67968,6.38281 z m 10.03125,-9.83594 v -1.61718 h 1.40625 v 1.61718 z m 0,9.83594 v -8.29687 h 1.40625 v 8.29687 z m 6.61718,-1.25781 0.20313,1.24219 q -0.59375,0.125 -1.0625,0.125 -0.76563,0 -1.1875,-0.24219 -0.42188,-0.24219 -0.59375,-0.63281 -0.17188,-0.39844 -0.17188,-1.66407 v -4.77343 h -1.03125 v -1.09375 h 1.03125 v -2.05469 l 1.39844,-0.84375 v 2.89844 h 1.41406 v 1.09375 h -1.41406 v 4.85156 q 0,0.60156 0.0703,0.77344 0.0781,0.17187 0.24219,0.27343 0.17188,0.10157 0.48438,0.10157 0.23437,0 0.61718,-0.0547 z m 1.375,1.25781 v -11.45312 h 1.40625 v 4.10937 q 0.98438,-1.14062 2.48438,-1.14062 0.92187,0 1.60156,0.36718 0.67969,0.35938 0.96875,1 0.29688,0.64063 0.29688,1.85938 v 5.25781 h -1.40625 v -5.25781 q 0,-1.05469 -0.46094,-1.53125 -0.45313,-0.48438 -1.28906,-0.48438 -0.625,0 -1.17969,0.32813 -0.54688,0.32031 -0.78125,0.875 -0.23438,0.55469 -0.23438,1.53125 v 4.53906 z m 16.41407,-1.25781 0.20312,1.24219 q -0.59375,0.125 -1.0625,0.125 -0.76562,0 -1.1875,-0.24219 -0.42187,-0.24219 -0.59375,-0.63281 -0.17187,-0.39844 -0.17187,-1.66407 v -4.77343 h -1.03125 v -1.09375 h 1.03125 v -2.05469 l 1.39843,-0.84375 v 2.89844 h 1.41407 v 1.09375 h -1.41407 v 4.85156 q 0,0.60156 0.0703,0.77344 0.0781,0.17187 0.24218,0.27343 0.17188,0.10157 0.48438,0.10157 0.23437,0 0.61719,-0.0547 z m 1.375,1.25781 v -11.45312 h 1.40625 v 4.10937 q 0.98437,-1.14062 2.48437,-1.14062 0.92188,0 1.60156,0.36718 0.67969,0.35938 0.96875,1 0.29688,0.64063 0.29688,1.85938 v 5.25781 h -1.40625 v -5.25781 q 0,-1.05469 -0.46094,-1.53125 -0.45312,-0.48438 -1.28906,-0.48438 -0.625,0 -1.17969,0.32813 -0.54687,0.32031 -0.78125,0.875 -0.23437,0.55469 -0.23437,1.53125 v 4.53906 z m 14.57812,-2.67187 1.45313,0.17968 q -0.34375,1.27344 -1.27344,1.97657 -0.92969,0.70312 -2.375,0.70312 -1.82031,0 -2.89063,-1.11719 -1.0625,-1.125 -1.0625,-3.14843 0,-2.09375 1.07813,-3.25 1.07812,-1.15625 2.79687,-1.15625 1.66407,0 2.71875,1.13281 1.05469,1.13281 1.05469,3.1875 0,0.125 -0.008,0.375 h -6.1875 q 0.0781,1.36719 0.77344,2.09375 0.69531,0.72656 1.73437,0.72656 0.77344,0 1.32031,-0.40625 0.54688,-0.40625 0.86719,-1.29687 z m -4.61719,-2.27344 h 4.63282 q -0.0937,-1.04688 -0.53125,-1.57031 -0.67188,-0.8125 -1.74219,-0.8125 -0.96875,0 -1.63281,0.64843 -0.65625,0.64844 -0.72657,1.73438 z m 12.26563,4.94531 v -8.29687 h 1.26562 v 1.25781 q 0.48438,-0.88281 0.89063,-1.16406 0.41406,-0.28125 0.90625,-0.28125 0.71094,0 1.44531,0.45312 l -0.48437,1.30469 q -0.51563,-0.30469 -1.03125,-0.30469 -0.46094,0 -0.82813,0.28125 -0.36719,0.27344 -0.52344,0.76563 -0.23437,0.75 -0.23437,1.64062 v 4.34375 z m 5.35156,-9.83594 v -1.61718 h 1.40625 v 1.61718 z m 0,9.83594 v -8.29687 h 1.40625 v 8.29687 z m 3.28906,0.6875 1.36719,0.20313 q 0.0859,0.63281 0.47656,0.92187 0.52344,0.39063 1.42969,0.39063 0.97656,0 1.50781,-0.39063 0.53125,-0.39062 0.71875,-1.09375 0.10938,-0.42969 0.10157,-1.80469 -0.92188,1.08594 -2.29688,1.08594 -1.71094,0 -2.64844,-1.23437 -0.9375,-1.23438 -0.9375,-2.96094 0,-1.1875 0.42969,-2.1875 0.42969,-1.00781 1.24219,-1.55469 0.82031,-0.54687 1.92187,-0.54687 1.46875,0 2.42188,1.1875 v -1 h 1.29687 v 7.17187 q 0,1.9375 -0.39843,2.74219 -0.39063,0.8125 -1.25,1.28125 -0.85157,0.46875 -2.10157,0.46875 -1.48437,0 -2.39843,-0.67188 -0.91407,-0.66406 -0.88282,-2.00781 z m 1.16407,-4.98437 q 0,1.63281 0.64843,2.38281 0.64844,0.75 1.625,0.75 0.96875,0 1.625,-0.74219 0.65625,-0.75 0.65625,-2.34375 0,-1.52344 -0.67968,-2.29687 -0.67188,-0.77344 -1.625,-0.77344 -0.9375,0 -1.59375,0.76562 -0.65625,0.75782 -0.65625,2.25782 z m 7.99218,4.29687 v -11.45312 h 1.40625 v 4.10937 q 0.98438,-1.14062 2.48438,-1.14062 0.92187,0 1.60156,0.36718 0.67969,0.35938 0.96875,1 0.29688,0.64063 0.29688,1.85938 v 5.25781 h -1.40625 v -5.25781 q 0,-1.05469 -0.46094,-1.53125 -0.45313,-0.48438 -1.28906,-0.48438 -0.625,0 -1.17969,0.32813 -0.54688,0.32031 -0.78125,0.875 -0.23438,0.55469 -0.23438,1.53125 v 4.53906 z m 11.96875,-1.25781 0.20313,1.24219 q -0.59375,0.125 -1.0625,0.125 -0.76563,0 -1.1875,-0.24219 -0.42188,-0.24219 -0.59375,-0.63281 -0.17188,-0.39844 -0.17188,-1.66407 v -4.77343 h -1.03125 v -1.09375 h 1.03125 v -2.05469 l 1.39844,-0.84375 v 2.89844 h 1.41406 v 1.09375 h -1.41406 v 4.85156 q 0,0.60156 0.0703,0.77344 0.0781,0.17187 0.24219,0.27343 0.17188,0.10157 0.48438,0.10157 0.23437,0 0.61718,-0.0547 z m 5.25782,-1.21875 1.39062,-0.21875 q 0.11719,0.83594 0.64844,1.28125 0.53906,0.44531 1.5,0.44531 0.96875,0 1.4375,-0.39062 0.46875,-0.39844 0.46875,-0.92969 0,-0.47656 -0.41406,-0.75 -0.28907,-0.1875 -1.4375,-0.47656 -1.54688,-0.39063 -2.14844,-0.67188 -0.59375,-0.28906 -0.90625,-0.78906 -0.30469,-0.50781 -0.30469,-1.11719 0,-0.55469 0.25,-1.02344 0.25781,-0.47656 0.69531,-0.78906 0.32813,-0.24219 0.89063,-0.40625 0.57031,-0.17187 1.21875,-0.17187 0.97656,0 1.71094,0.28125 0.74218,0.28125 1.09375,0.76562 0.35156,0.47656 0.48437,1.28125 l -1.375,0.1875 q -0.0937,-0.64062 -0.54687,-1 -0.44532,-0.35937 -1.26563,-0.35937 -0.96875,0 -1.38281,0.32031 -0.41406,0.32031 -0.41406,0.75 0,0.27344 0.17187,0.49219 0.17188,0.22656 0.53906,0.375 0.21094,0.0781 1.24219,0.35937 1.49219,0.39844 2.07813,0.65625 0.59375,0.25 0.92968,0.73438 0.33594,0.48437 0.33594,1.20312 0,0.70313 -0.41406,1.32813 -0.40625,0.61718 -1.17969,0.96093 -0.77344,0.33594 -1.75,0.33594 -1.61719,0 -2.46875,-0.67187 -0.84375,-0.67188 -1.07812,-1.99219 z m 8.57031,2.47656 v -11.45312 h 1.40625 v 6.53125 l 3.32812,-3.375 h 1.82032 l -3.17188,3.07812 3.49219,5.21875 h -1.73438 l -2.74218,-4.24219 -0.99219,0.95313 v 3.28906 z m 8,-9.83594 v -1.61718 h 1.40625 v 1.61718 z m 0,9.83594 v -8.29687 h 1.40625 v 8.29687 z m 3.51562,0 v -11.45312 h 1.40625 v 11.45312 z m 3.55469,0 v -11.45312 h 1.40625 v 11.45312 z m 13.44531,-1.02344 q -0.78125,0.66407 -1.50781,0.9375 -0.71875,0.27344 -1.54687,0.27344 -1.36719,0 -2.10157,-0.66406 -0.73437,-0.67188 -0.73437,-1.71094 0,-0.60937 0.27344,-1.10937 0.28125,-0.50782 0.72656,-0.8125 0.45312,-0.30469 1.01562,-0.46094 0.41407,-0.10938 1.25,-0.21094 1.70313,-0.20312 2.50782,-0.48437 0.008,-0.28907 0.008,-0.36719 0,-0.85938 -0.39844,-1.21094 -0.53906,-0.47656 -1.60156,-0.47656 -0.99219,0 -1.46875,0.35156 -0.46875,0.34375 -0.69531,1.22656 l -1.375,-0.1875 q 0.1875,-0.88281 0.61718,-1.42187 0.42969,-0.54688 1.24219,-0.83594 0.8125,-0.29687 1.88281,-0.29687 1.0625,0 1.72657,0.25 0.66406,0.25 0.97656,0.63281 0.3125,0.375 0.4375,0.95312 0.0703,0.35938 0.0703,1.29688 v 1.875 q 0,1.96094 0.0859,2.48437 0.0937,0.51563 0.35937,0.99219 h -1.46875 q -0.21875,-0.4375 -0.28125,-1.02344 z m -0.11718,-3.14062 q -0.76563,0.3125 -2.29688,0.53125 -0.86719,0.125 -1.22656,0.28125 -0.35938,0.15625 -0.55469,0.46094 Q 507,161.81832 507,162.18551 q 0,0.5625 0.42187,0.9375 0.42969,0.375 1.25,0.375 0.8125,0 1.44532,-0.35156 0.63281,-0.35938 0.92968,-0.97657 0.22657,-0.47656 0.22657,-1.40625 z m 3.60156,4.16406 v -8.29687 h 1.26562 v 1.17968 q 0.91407,-1.36718 2.64063,-1.36718 0.75,0 1.375,0.27343 0.63281,0.26563 0.94531,0.70313 0.3125,0.4375 0.4375,1.03906 0.0781,0.39063 0.0781,1.36719 v 5.10156 h -1.40625 v -5.04687 q 0,-0.85938 -0.16407,-1.28125 -0.16406,-0.42969 -0.58593,-0.67969 -0.41407,-0.25781 -0.97657,-0.25781 -0.89843,0 -1.55468,0.57031 -0.64844,0.57031 -0.64844,2.16406 v 4.53125 z m 14.28125,0 v -1.04687 q -0.78906,1.23437 -2.32031,1.23437 -0.99219,0 -1.82813,-0.54687 -0.82812,-0.54688 -1.28906,-1.52344 -0.45313,-0.98438 -0.45313,-2.25781 0,-1.24219 0.41407,-2.25 0.41406,-1.01563 1.24218,-1.55469 0.82813,-0.53906 1.85157,-0.53906 0.75,0 1.33593,0.32031 0.58594,0.3125 0.95313,0.82031 v -4.10937 h 1.39844 v 11.45312 z m -4.44531,-4.14062 q 0,1.59375 0.67187,2.38281 0.67188,0.78906 1.58594,0.78906 0.92187,0 1.5625,-0.75 0.64844,-0.75781 0.64844,-2.30469 0,-1.70312 -0.65625,-2.5 -0.65625,-0.79687 -1.61719,-0.79687 -0.9375,0 -1.57031,0.76562 -0.625,0.76563 -0.625,2.41407 z m 15.47656,2.88281 0.20312,1.24219 q -0.59375,0.125 -1.0625,0.125 -0.76562,0 -1.1875,-0.24219 -0.42187,-0.24219 -0.59375,-0.63281 -0.17187,-0.39844 -0.17187,-1.66407 v -4.77343 h -1.03125 v -1.09375 h 1.03125 v -2.05469 l 1.39844,-0.84375 v 2.89844 h 1.41406 v 1.09375 h -1.41406 v 4.85156 q 0,0.60156 0.0703,0.77344 0.0781,0.17187 0.24219,0.27343 0.17187,0.10157 0.48437,0.10157 0.23438,0 0.61719,-0.0547 z m 1.375,1.25781 v -11.45312 h 1.40625 v 4.10937 q 0.98437,-1.14062 2.48437,-1.14062 0.92188,0 1.60157,0.36718 0.67968,0.35938 0.96875,1 0.29687,0.64063 0.29687,1.85938 v 5.25781 h -1.40625 v -5.25781 q 0,-1.05469 -0.46094,-1.53125 -0.45312,-0.48438 -1.28906,-0.48438 -0.625,0 -1.17969,0.32813 -0.54687,0.32031 -0.78125,0.875 -0.23437,0.55469 -0.23437,1.53125 v 4.53906 z m 14.57812,-2.67187 1.45313,0.17968 q -0.34375,1.27344 -1.27344,1.97657 -0.92969,0.70312 -2.375,0.70312 -1.82031,0 -2.89062,-1.11719 -1.0625,-1.125 -1.0625,-3.14843 0,-2.09375 1.07812,-3.25 1.07813,-1.15625 2.79688,-1.15625 1.66406,0 2.71875,1.13281 1.05468,1.13281 1.05468,3.1875 0,0.125 -0.008,0.375 h -6.1875 q 0.0781,1.36719 0.77344,2.09375 0.69531,0.72656 1.73437,0.72656 0.77344,0 1.32032,-0.40625 0.54687,-0.40625 0.86718,-1.29687 z m -4.61718,-2.27344 h 4.63281 q -0.0937,-1.04688 -0.53125,-1.57031 -0.67188,-0.8125 -1.74219,-0.8125 -0.96875,0 -1.63281,0.64843 -0.65625,0.64844 -0.72656,1.73438 z m 12.26562,4.94531 v -8.29687 h 1.26563 v 1.25781 q 0.48437,-0.88281 0.89062,-1.16406 0.41406,-0.28125 0.90625,-0.28125 0.71094,0 1.44531,0.45312 l -0.48437,1.30469 q -0.51563,-0.30469 -1.03125,-0.30469 -0.46094,0 -0.82813,0.28125 -0.36718,0.27344 -0.52343,0.76563 -0.23438,0.75 -0.23438,1.64062 v 4.34375 z m 5.35156,-9.83594 v -1.61718 h 1.40625 v 1.61718 z m 0,9.83594 v -8.29687 h 1.40625 v 8.29687 z m 3.28907,0.6875 1.36718,0.20313 q 0.0859,0.63281 0.47657,0.92187 0.52343,0.39063 1.42968,0.39063 0.97657,0 1.50782,-0.39063 0.53125,-0.39062 0.71875,-1.09375 0.10937,-0.42969 0.10156,-1.80469 -0.92188,1.08594 -2.29688,1.08594 -1.71093,0 -2.64843,-1.23437 -0.9375,-1.23438 -0.9375,-2.96094 0,-1.1875 0.42968,-2.1875 0.42969,-1.00781 1.24219,-1.55469 0.82031,-0.54687 1.92188,-0.54687 1.46875,0 2.42187,1.1875 v -1 h 1.29688 v 7.17187 q 0,1.9375 -0.39844,2.74219 -0.39063,0.8125 -1.25,1.28125 -0.85156,0.46875 -2.10156,0.46875 -1.48438,0 -2.39844,-0.67188 -0.91406,-0.66406 -0.88281,-2.00781 z m 1.16406,-4.98437 q 0,1.63281 0.64844,2.38281 0.64843,0.75 1.625,0.75 0.96875,0 1.625,-0.74219 0.65625,-0.75 0.65625,-2.34375 0,-1.52344 -0.67969,-2.29687 -0.67188,-0.77344 -1.625,-0.77344 -0.9375,0 -1.59375,0.76562 -0.65625,0.75782 -0.65625,2.25782 z m 7.99219,4.29687 v -11.45312 h 1.40625 v 4.10937 q 0.98437,-1.14062 2.48437,-1.14062 0.92188,0 1.60156,0.36718 0.67969,0.35938 0.96875,1 0.29688,0.64063 0.29688,1.85938 v 5.25781 h -1.40625 v -5.25781 q 0,-1.05469 -0.46094,-1.53125 -0.45312,-0.48438 -1.28906,-0.48438 -0.625,0 -1.17969,0.32813 -0.54687,0.32031 -0.78125,0.875 -0.23437,0.55469 -0.23437,1.53125 v 4.53906 z m 11.96875,-1.25781 0.20312,1.24219 q -0.59375,0.125 -1.0625,0.125 -0.76562,0 -1.1875,-0.24219 -0.42187,-0.24219 -0.59375,-0.63281 -0.17187,-0.39844 -0.17187,-1.66407 v -4.77343 h -1.03125 v -1.09375 h 1.03125 v -2.05469 l 1.39843,-0.84375 v 2.89844 h 1.41407 v 1.09375 h -1.41407 v 4.85156 q 0,0.60156 0.0703,0.77344 0.0781,0.17187 0.24218,0.27343 0.17188,0.10157 0.48438,0.10157 0.23437,0 0.61719,-0.0547 z m 5.25781,-1.21875 1.39062,-0.21875 q 0.11719,0.83594 0.64844,1.28125 0.53906,0.44531 1.5,0.44531 0.96875,0 1.4375,-0.39062 0.46875,-0.39844 0.46875,-0.92969 0,-0.47656 -0.41406,-0.75 -0.28906,-0.1875 -1.4375,-0.47656 -1.54688,-0.39063 -2.14844,-0.67188 -0.59375,-0.28906 -0.90625,-0.78906 -0.30469,-0.50781 -0.30469,-1.11719 0,-0.55469 0.25,-1.02344 0.25782,-0.47656 0.69532,-0.78906 0.32812,-0.24219 0.89062,-0.40625 0.57031,-0.17187 1.21875,-0.17187 0.97656,0 1.71094,0.28125 0.74219,0.28125 1.09375,0.76562 0.35156,0.47656 0.48437,1.28125 l -1.375,0.1875 q -0.0937,-0.64062 -0.54687,-1 -0.44531,-0.35937 -1.26563,-0.35937 -0.96875,0 -1.38281,0.32031 -0.41406,0.32031 -0.41406,0.75 0,0.27344 0.17187,0.49219 0.17188,0.22656 0.53907,0.375 0.21093,0.0781 1.24218,0.35937 1.49219,0.39844 2.07813,0.65625 0.59375,0.25 0.92969,0.73438 0.33593,0.48437 0.33593,1.20312 0,0.70313 -0.41406,1.32813 -0.40625,0.61718 -1.17969,0.96093 -0.77343,0.33594 -1.75,0.33594 -1.61718,0 -2.46875,-0.67187 -0.84375,-0.67188 -1.07812,-1.99219 z m 8.57031,2.47656 v -11.45312 h 1.40625 v 6.53125 l 3.32813,-3.375 h 1.82031 l -3.17188,3.07812 3.49219,5.21875 h -1.73437 l -2.74219,-4.24219 -0.99219,0.95313 v 3.28906 z m 8,-9.83594 v -1.61718 h 1.40625 v 1.61718 z m 0,9.83594 v -8.29687 h 1.40625 v 8.29687 z m 3.51563,0 v -11.45312 h 1.40625 v 11.45312 z m 3.55468,0 v -11.45312 h 1.40625 v 11.45312 z m 8,0 v -11.45312 h 1.40625 v 11.45312 z m 9.26563,-2.67187 1.45312,0.17968 q -0.34375,1.27344 -1.27343,1.97657 -0.92969,0.70312 -2.375,0.70312 -1.82032,0 -2.89063,-1.11719 -1.0625,-1.125 -1.0625,-3.14843 0,-2.09375 1.07813,-3.25 1.07812,-1.15625 2.79687,-1.15625 1.66406,0 2.71875,1.13281 1.05469,1.13281 1.05469,3.1875 0,0.125 -0.008,0.375 h -6.1875 q 0.0781,1.36719 0.77343,2.09375 0.69532,0.72656 1.73438,0.72656 0.77344,0 1.32031,-0.40625 0.54688,-0.40625 0.86719,-1.29687 z m -4.61719,-2.27344 h 4.63281 q -0.0937,-1.04688 -0.53125,-1.57031 -0.67187,-0.8125 -1.74218,-0.8125 -0.96875,0 -1.63282,0.64843 -0.65625,0.64844 -0.72656,1.73438 z m 10.14063,4.94531 -3.15625,-8.29687 h 1.48437 l 1.78125,4.96875 q 0.28906,0.80468 0.53125,1.67187 0.1875,-0.65625 0.52344,-1.57812 l 1.84375,-5.0625 h 1.44531 l -3.14062,8.29687 z m 11.375,-2.67187 1.45312,0.17968 q -0.34375,1.27344 -1.27344,1.97657 -0.92968,0.70312 -2.375,0.70312 -1.82031,0 -2.89062,-1.11719 -1.0625,-1.125 -1.0625,-3.14843 0,-2.09375 1.07812,-3.25 1.07813,-1.15625 2.79688,-1.15625 1.66406,0 2.71875,1.13281 1.05469,1.13281 1.05469,3.1875 0,0.125 -0.008,0.375 h -6.1875 q 0.0781,1.36719 0.77344,2.09375 0.69531,0.72656 1.73438,0.72656 0.77343,0 1.32031,-0.40625 0.54687,-0.40625 0.86719,-1.29687 z M 652,159.46676 h 4.63281 q -0.0937,-1.04688 -0.53125,-1.57031 -0.67187,-0.8125 -1.74219,-0.8125 -0.96875,0 -1.63281,0.64843 -0.65625,0.64844 -0.72656,1.73438 z m 7.80469,4.94531 v -11.45312 h 1.40625 v 11.45312 z m 3.98437,0 v -1.60156 h 1.60156 v 1.60156 z"
       id="flowRoot4302-6"
       transform="translate(-20,372.36182)"
       aria-label="Assign a visit to a technician with the right skill and the right skill level." />
    <flowRoot
       xml:space="preserve"
       id="flowRoot937"
       style="color:currentColor;font-style:normal;font-variant:normal;font-weight:normal;font-stretch:normal;font-size:16px;font-family:Arial;-inkscape-font-specification:Arial;text-align:center;writing-mode:lr-tb;text-anchor:middle;display:inline;overflow:visible;visibility:visible;opacity:1;vector-effect:none;fill:currentColor;fill-opacity:1;fill-rule:nonzero;stroke:#8f5902;stroke-width:3;stroke-linecap:round;stroke-linejoin:round;stroke-miterlimit:4;stroke-dasharray:none;stroke-dashoffset:0;stroke-opacity:1;marker:none;enable-background:accumulate"><flowRegion
         id="flowRegion939"><rect
           id="rect941"
           width="52.987019"
           height="116.1039"
           x="-94.285713"
           y="141.03894" /></flowRegion><flowPara
         id="flowPara943" /></flowRoot>
    <text
       xml:space="preserve"
       style="font-size:13.3333px;font-family:Arial;-inkscape-font-specification:Arial;opacity:1;fill:currentColor;stroke-miterlimit:9.5;paint-order:markers fill stroke"
       x="55.383892"
       y="741.32159"
       id="text3"><tspan
         id="tspan4"
         x="55.383892"
         y="741.32159" /></text>
    <path
       style="display:inline;fill:none;stroke:#555753;stroke-width:1;stroke-linecap:round;stroke-linejoin:round;stroke-dasharray:none;stroke-opacity:1"
       d="M 230.00001,632.3619 V 621.9004"
       id="path6-3-7" />
    <path
       style="font-size:14px;line-height:1.25;font-family:'Liberation Sans';-inkscape-font-specification:'Liberation Sans, Normal';text-align:center;text-anchor:middle"
       d="m 422.47021,42.271695 q 0,-1.777344 0.36231,-2.857422 0.36914,-1.086914 1.08691,-1.674805 0.72461,-0.58789 1.81836,-0.58789 0.80664,0 1.41504,0.328125 0.6084,0.321289 1.00488,0.936523 0.39649,0.608398 0.62208,1.490234 0.22558,0.875 0.22558,2.365235 0,1.763672 -0.3623,2.850586 -0.36231,1.080078 -1.08692,1.674804 -0.71777,0.587891 -1.81836,0.587891 -1.44922,0 -2.27636,-1.039063 -0.99122,-1.250976 -0.99122,-4.074218 z m 1.26465,0 q 0,2.467773 0.57422,3.288086 0.58106,0.813476 1.42871,0.813476 0.84766,0 1.42188,-0.820312 0.58105,-0.820313 0.58105,-3.28125 0,-2.47461 -0.58105,-3.288086 -0.57422,-0.813477 -1.43555,-0.813477 -0.84766,0 -1.35351,0.717774 -0.63575,0.916015 -0.63575,3.383789 z m 8.41504,-0.492188 q -0.76562,-0.280273 -1.13476,-0.799804 -0.36914,-0.519532 -0.36914,-1.244141 0,-1.09375 0.78613,-1.838867 0.78613,-0.745117 2.0918,-0.745117 1.3125,0 2.1123,0.765625 0.79981,0.758789 0.79981,1.852539 0,0.697265 -0.36915,1.216796 -0.3623,0.512696 -1.10742,0.792969 0.92285,0.300781 1.40137,0.970703 0.48535,0.669922 0.48535,1.59961 0,1.285156 -0.90918,2.160156 -0.90918,0.875 -2.39258,0.875 -1.48339,0 -2.39257,-0.875 -0.90918,-0.881836 -0.90918,-2.194336 0,-0.977539 0.49218,-1.633789 0.49903,-0.663086 1.41504,-0.902344 z m -0.24609,-2.084961 q 0,0.710938 0.45801,1.16211 0.458,0.451172 1.18945,0.451172 0.71094,0 1.16211,-0.444336 0.45801,-0.451172 0.45801,-1.100586 0,-0.676758 -0.47168,-1.134766 -0.46485,-0.464844 -1.16211,-0.464844 -0.7041,0 -1.16895,0.451172 -0.46484,0.451172 -0.46484,1.080078 z m -0.39649,4.62793 q 0,0.526367 0.2461,1.018555 0.25293,0.492187 0.74512,0.765625 0.49218,0.266601 1.05957,0.266601 0.88183,0 1.45605,-0.567383 0.57422,-0.567382 0.57422,-1.442382 0,-0.888672 -0.59473,-1.469727 -0.58789,-0.581055 -1.47656,-0.581055 -0.86816,0 -1.44238,0.574219 -0.56739,0.574219 -0.56739,1.435547 z m 7.21875,-2.966797 v -1.401367 h 1.40137 v 1.401367 z m 0,5.858399 V 45.81271 h 1.40137 v 1.401368 z m 3.20606,-4.942383 q 0,-1.777344 0.3623,-2.857422 0.36914,-1.086914 1.08692,-1.674805 0.72461,-0.58789 1.81836,-0.58789 0.80664,0 1.41504,0.328125 0.60839,0.321289 1.00488,0.936523 0.39648,0.608398 0.62207,1.490234 0.22559,0.875 0.22559,2.365235 0,1.763672 -0.36231,2.850586 -0.3623,1.080078 -1.08691,1.674804 -0.71778,0.587891 -1.81836,0.587891 -1.44922,0 -2.27637,-1.039063 -0.99121,-1.250976 -0.99121,-4.074218 z m 1.26465,0 q 0,2.467773 0.57422,3.288086 0.58105,0.813476 1.42871,0.813476 0.84765,0 1.42187,-0.820312 0.58106,-0.820313 0.58106,-3.28125 0,-2.47461 -0.58106,-3.288086 -0.57422,-0.813477 -1.43554,-0.813477 -0.84766,0 -1.35352,0.717774 -0.63574,0.916015 -0.63574,3.383789 z m 6.52148,0 q 0,-1.777344 0.36231,-2.857422 0.36914,-1.086914 1.08691,-1.674805 0.72461,-0.58789 1.81836,-0.58789 0.80664,0 1.41504,0.328125 0.6084,0.321289 1.00488,0.936523 0.39649,0.608398 0.62207,1.490234 0.22559,0.875 0.22559,2.365235 0,1.763672 -0.36231,2.850586 -0.3623,1.080078 -1.08691,1.674804 -0.71777,0.587891 -1.81836,0.587891 -1.44922,0 -2.27637,-1.039063 -0.99121,-1.250976 -0.99121,-4.074218 z m 1.26465,0 q 0,2.467773 0.57422,3.288086 0.58105,0.813476 1.42871,0.813476 0.84766,0 1.42187,-0.820312 0.58106,-0.820313 0.58106,-3.28125 0,-2.47461 -0.58106,-3.288086 -0.57421,-0.813477 -1.43554,-0.813477 -0.84766,0 -1.35352,0.717774 -0.63574,0.916015 -0.63574,3.383789 z"
       id="flowRoot2-4-9-2"
       transform="translate(-209.40624,568.0496)"
       aria-label="08:00" />
    <path
       style="display:inline;fill:none;stroke:currentColor;stroke-width:1;stroke-linecap:round;stroke-linejoin:round;stroke-dasharray:none;stroke-opacity:1;marker-start:url(#ArrowTriangleStylized-4-0_reversed)"
       d="M 759.3113,632.36221 H 200.085"
       id="path17-0-6" />
    <path
       style="display:inline;fill:none;stroke:#555753;stroke-width:1;stroke-linecap:round;stroke-linejoin:round;stroke-dasharray:none;stroke-opacity:1"
       d="M 280.00005,632.3619 V 621.9004"
       id="path7-5" />
    <path
       style="font-size:14px;line-height:1.25;font-family:'Liberation Sans';-inkscape-font-specification:'Liberation Sans, Normal';text-align:center;text-anchor:middle"
       d="m 422.47021,42.271695 q 0,-1.777344 0.36231,-2.857422 0.36914,-1.086914 1.08691,-1.674805 0.72461,-0.58789 1.81836,-0.58789 0.80664,0 1.41504,0.328125 0.6084,0.321289 1.00488,0.936523 0.39649,0.608398 0.62208,1.490234 0.22558,0.875 0.22558,2.365235 0,1.763672 -0.3623,2.850586 -0.36231,1.080078 -1.08692,1.674804 -0.71777,0.587891 -1.81836,0.587891 -1.44922,0 -2.27636,-1.039063 -0.99122,-1.250976 -0.99122,-4.074218 z m 1.26465,0 q 0,2.467773 0.57422,3.288086 0.58106,0.813476 1.42871,0.813476 0.84766,0 1.42188,-0.820312 0.58105,-0.820313 0.58105,-3.28125 0,-2.47461 -0.58105,-3.288086 -0.57422,-0.813477 -1.43555,-0.813477 -0.84766,0 -1.35351,0.717774 -0.63575,0.916015 -0.63575,3.383789 z m 6.70606,2.625 1.18262,-0.109375 q 0.15039,0.833984 0.57421,1.209961 0.42383,0.375976 1.08692,0.375976 0.56738,0 0.99121,-0.259765 0.43066,-0.259766 0.7041,-0.69043 0.27344,-0.4375 0.45801,-1.175781 0.18457,-0.738282 0.18457,-1.503907 0,-0.08203 -0.007,-0.246093 -0.36914,0.58789 -1.01172,0.957031 -0.63574,0.362305 -1.38086,0.362305 -1.24414,0 -2.10546,-0.902344 -0.86133,-0.902344 -0.86133,-2.378906 0,-1.524414 0.89551,-2.454102 0.90234,-0.929687 2.25585,-0.929687 0.97754,0 1.78418,0.526367 0.81348,0.526367 1.23047,1.503906 0.42383,0.970703 0.42383,2.816406 0,1.920899 -0.41699,3.0625 -0.41699,1.134766 -1.24414,1.729492 -0.82031,0.594727 -1.92774,0.594727 -1.17578,0 -1.92089,-0.649414 -0.74512,-0.65625 -0.89551,-1.838867 z m 5.03808,-4.422852 q 0,-1.05957 -0.56738,-1.68164 -0.56055,-0.622071 -1.35351,-0.622071 -0.82032,0 -1.42872,0.669922 -0.60839,0.669922 -0.60839,1.736328 0,0.957031 0.57421,1.558594 0.58106,0.594727 1.42872,0.594727 0.85449,0 1.40136,-0.594727 0.55371,-0.601563 0.55371,-1.661133 z m 3.24707,0.881836 v -1.401367 h 1.40137 v 1.401367 z m 0,5.858399 V 45.81271 h 1.40137 v 1.401368 z m 3.20606,-4.942383 q 0,-1.777344 0.3623,-2.857422 0.36914,-1.086914 1.08692,-1.674805 0.72461,-0.58789 1.81836,-0.58789 0.80664,0 1.41504,0.328125 0.60839,0.321289 1.00488,0.936523 0.39648,0.608398 0.62207,1.490234 0.22559,0.875 0.22559,2.365235 0,1.763672 -0.36231,2.850586 -0.3623,1.080078 -1.08691,1.674804 -0.71778,0.587891 -1.81836,0.587891 -1.44922,0 -2.27637,-1.039063 -0.99121,-1.250976 -0.99121,-4.074218 z m 1.26465,0 q 0,2.467773 0.57422,3.288086 0.58105,0.813476 1.42871,0.813476 0.84765,0 1.42187,-0.820312 0.58106,-0.820313 0.58106,-3.28125 0,-2.47461 -0.58106,-3.288086 -0.57422,-0.813477 -1.43554,-0.813477 -0.84766,0 -1.35352,0.717774 -0.63574,0.916015 -0.63574,3.383789 z m 6.52148,0 q 0,-1.777344 0.36231,-2.857422 0.36914,-1.086914 1.08691,-1.674805 0.72461,-0.58789 1.81836,-0.58789 0.80664,0 1.41504,0.328125 0.6084,0.321289 1.00488,0.936523 0.39649,0.608398 0.62207,1.490234 0.22559,0.875 0.22559,2.365235 0,1.763672 -0.36231,2.850586 -0.3623,1.080078 -1.08691,1.674804 -0.71777,0.587891 -1.81836,0.587891 -1.44922,0 -2.27637,-1.039063 -0.99121,-1.250976 -0.99121,-4.074218 z m 1.26465,0 q 0,2.467773 0.57422,3.288086 0.58105,0.813476 1.42871,0.813476 0.84766,0 1.42187,-0.820312 0.58106,-0.820313 0.58106,-3.28125 0,-2.47461 -0.58106,-3.288086 -0.57421,-0.813477 -1.43554,-0.813477 -0.84766,0 -1.35352,0.717774 -0.63574,0.916015 -0.63574,3.383789 z"
       id="flowRoot7-3"
       transform="translate(-159.4062,568.0496)"
       aria-label="09:00" />
    <path
       style="display:inline;fill:none;stroke:#555753;stroke-width:1;stroke-linecap:round;stroke-linejoin:round;stroke-dasharray:none;stroke-opacity:1"
       d="M 329.99973,632.3619 V 621.9004"
       id="path8-5" />
    <path
       style="font-size:14px;line-height:1.25;font-family:'Liberation Sans';-inkscape-font-specification:'Liberation Sans, Normal';text-align:center;text-anchor:middle"
       d="m 427.10498,47.214078 h -1.23047 v -7.840821 q -0.44433,0.423828 -1.16894,0.847656 -0.71778,0.423829 -1.292,0.635743 v -1.189453 q 1.03223,-0.485352 1.80469,-1.175782 0.77246,-0.690429 1.09375,-1.339843 h 0.79297 z m 3.15137,-4.942383 q 0,-1.777344 0.3623,-2.857422 0.36914,-1.086914 1.08692,-1.674805 0.72461,-0.58789 1.81836,-0.58789 0.80664,0 1.41503,0.328125 0.6084,0.321289 1.00489,0.936523 0.39648,0.608398 0.62207,1.490234 0.22558,0.875 0.22558,2.365235 0,1.763672 -0.3623,2.850586 -0.36231,1.080078 -1.08691,1.674804 -0.71778,0.587891 -1.81836,0.587891 -1.44922,0 -2.27637,-1.039063 -0.99121,-1.250976 -0.99121,-4.074218 z m 1.26465,0 q 0,2.467773 0.57421,3.288086 0.58106,0.813476 1.42872,0.813476 0.84765,0 1.42187,-0.820312 0.58106,-0.820313 0.58106,-3.28125 0,-2.47461 -0.58106,-3.288086 -0.57422,-0.813477 -1.43555,-0.813477 -0.84765,0 -1.35351,0.717774 -0.63574,0.916015 -0.63574,3.383789 z m 7.20507,-0.916016 v -1.401367 h 1.40137 v 1.401367 z m 0,5.858399 V 45.81271 h 1.40137 v 1.401368 z m 3.20606,-4.942383 q 0,-1.777344 0.3623,-2.857422 0.36914,-1.086914 1.08692,-1.674805 0.72461,-0.58789 1.81836,-0.58789 0.80664,0 1.41504,0.328125 0.60839,0.321289 1.00488,0.936523 0.39648,0.608398 0.62207,1.490234 0.22559,0.875 0.22559,2.365235 0,1.763672 -0.36231,2.850586 -0.3623,1.080078 -1.08691,1.674804 -0.71778,0.587891 -1.81836,0.587891 -1.44922,0 -2.27637,-1.039063 -0.99121,-1.250976 -0.99121,-4.074218 z m 1.26465,0 q 0,2.467773 0.57422,3.288086 0.58105,0.813476 1.42871,0.813476 0.84765,0 1.42187,-0.820312 0.58106,-0.820313 0.58106,-3.28125 0,-2.47461 -0.58106,-3.288086 -0.57422,-0.813477 -1.43554,-0.813477 -0.84766,0 -1.35352,0.717774 -0.63574,0.916015 -0.63574,3.383789 z m 6.52148,0 q 0,-1.777344 0.36231,-2.857422 0.36914,-1.086914 1.08691,-1.674805 0.72461,-0.58789 1.81836,-0.58789 0.80664,0 1.41504,0.328125 0.6084,0.321289 1.00488,0.936523 0.39649,0.608398 0.62207,1.490234 0.22559,0.875 0.22559,2.365235 0,1.763672 -0.36231,2.850586 -0.3623,1.080078 -1.08691,1.674804 -0.71777,0.587891 -1.81836,0.587891 -1.44922,0 -2.27637,-1.039063 -0.99121,-1.250976 -0.99121,-4.074218 z m 1.26465,0 q 0,2.467773 0.57422,3.288086 0.58105,0.813476 1.42871,0.813476 0.84766,0 1.42187,-0.820312 0.58106,-0.820313 0.58106,-3.28125 0,-2.47461 -0.58106,-3.288086 -0.57421,-0.813477 -1.43554,-0.813477 -0.84766,0 -1.35352,0.717774 -0.63574,0.916015 -0.63574,3.383789 z"
       id="flowRoot8-5"
       transform="translate(-109.40652,568.0496)"
       aria-label="10:00" />
    <path
       style="display:inline;fill:none;stroke:#555753;stroke-width:1;stroke-linecap:round;stroke-linejoin:round;stroke-dasharray:none;stroke-opacity:1"
       d="M 379.99973,632.3619 V 621.9004"
       id="path9-1" />
    <path
       style="font-size:14px;line-height:1.25;font-family:'Liberation Sans';-inkscape-font-specification:'Liberation Sans, Normal';text-align:center;text-anchor:middle"
       d="m 427.62451,47.214078 h -1.23047 v -7.840821 q -0.44433,0.423828 -1.16894,0.847656 -0.71778,0.423829 -1.29199,0.635743 v -1.189453 q 1.03222,-0.485352 1.80468,-1.175782 0.77246,-0.690429 1.09375,-1.339843 h 0.79297 z m 6.74707,0 h -1.23047 v -7.840821 q -0.44433,0.423828 -1.16894,0.847656 -0.71778,0.423829 -1.29199,0.635743 v -1.189453 q 1.03222,-0.485352 1.80468,-1.175782 0.77246,-0.690429 1.09375,-1.339843 h 0.79297 z m 3.83496,-5.858399 v -1.401367 h 1.40137 v 1.401367 z m 0,5.858399 V 45.81271 h 1.40137 v 1.401368 z m 3.20606,-4.942383 q 0,-1.777344 0.3623,-2.857422 0.36914,-1.086914 1.08692,-1.674805 0.72461,-0.58789 1.81836,-0.58789 0.80664,0 1.41503,0.328125 0.6084,0.321289 1.00489,0.936523 0.39648,0.608398 0.62207,1.490234 0.22558,0.875 0.22558,2.365235 0,1.763672 -0.3623,2.850586 -0.36231,1.080078 -1.08691,1.674804 -0.71778,0.587891 -1.81836,0.587891 -1.44922,0 -2.27637,-1.039063 -0.99121,-1.250976 -0.99121,-4.074218 z m 1.26465,0 q 0,2.467773 0.57421,3.288086 0.58106,0.813476 1.42872,0.813476 0.84765,0 1.42187,-0.820312 0.58106,-0.820313 0.58106,-3.28125 0,-2.47461 -0.58106,-3.288086 -0.57422,-0.813477 -1.43555,-0.813477 -0.84765,0 -1.35351,0.717774 -0.63574,0.916015 -0.63574,3.383789 z m 6.52148,0 q 0,-1.777344 0.36231,-2.857422 0.36914,-1.086914 1.08691,-1.674805 0.72461,-0.58789 1.81836,-0.58789 0.80664,0 1.41504,0.328125 0.6084,0.321289 1.00488,0.936523 0.39648,0.608398 0.62207,1.490234 0.22559,0.875 0.22559,2.365235 0,1.763672 -0.36231,2.850586 -0.3623,1.080078 -1.08691,1.674804 -0.71778,0.587891 -1.81836,0.587891 -1.44922,0 -2.27637,-1.039063 -0.99121,-1.250976 -0.99121,-4.074218 z m 1.26465,0 q 0,2.467773 0.57422,3.288086 0.58105,0.813476 1.42871,0.813476 0.84765,0 1.42187,-0.820312 0.58106,-0.820313 0.58106,-3.28125 0,-2.47461 -0.58106,-3.288086 -0.57422,-0.813477 -1.43554,-0.813477 -0.84766,0 -1.35352,0.717774 -0.63574,0.916015 -0.63574,3.383789 z"
       id="flowRoot9-9"
       transform="translate(-59.40652,568.0496)"
       aria-label="11:00" />
    <path
       style="display:inline;fill:none;stroke:#555753;stroke-width:1;stroke-linecap:round;stroke-linejoin:round;stroke-dasharray:none;stroke-opacity:1"
       d="M 429.99973,632.3619 V 621.9004"
       id="path10-8" />
    <path
       style="font-size:14px;line-height:1.25;font-family:'Liberation Sans';-inkscape-font-specification:'Liberation Sans, Normal';text-align:center;text-anchor:middle"
       d="m 427.10498,47.214078 h -1.23047 v -7.840821 q -0.44433,0.423828 -1.16894,0.847656 -0.71778,0.423829 -1.292,0.635743 v -1.189453 q 1.03223,-0.485352 1.80469,-1.175782 0.77246,-0.690429 1.09375,-1.339843 h 0.79297 z m 9.61816,-1.182618 v 1.182618 h -6.62402 q -0.0137,-0.444336 0.14356,-0.854493 0.25293,-0.676757 0.80664,-1.333007 0.56054,-0.65625 1.61328,-1.517579 1.63379,-1.339843 2.20801,-2.11914 0.57421,-0.786133 0.57421,-1.483399 0,-0.731445 -0.52636,-1.230468 -0.51953,-0.50586 -1.36035,-0.50586 -0.88868,0 -1.42188,0.533203 -0.5332,0.533203 -0.54004,1.476563 l -1.26465,-0.129883 q 0.12989,-1.415039 0.97754,-2.15332 0.84766,-0.745117 2.27637,-0.745117 1.44238,0 2.2832,0.799804 0.84082,0.799805 0.84082,1.982422 0,0.601563 -0.24609,1.182617 -0.24609,0.581055 -0.82031,1.223633 -0.56739,0.642578 -1.89356,1.763672 -1.10742,0.929687 -1.42187,1.264648 -0.31446,0.328125 -0.51953,0.663086 z m 2.00293,-4.675781 v -1.401367 h 1.40137 v 1.401367 z m 0,5.858399 V 45.81271 h 1.40137 v 1.401368 z m 3.20606,-4.942383 q 0,-1.777344 0.3623,-2.857422 0.36914,-1.086914 1.08692,-1.674805 0.72461,-0.58789 1.81836,-0.58789 0.80664,0 1.41504,0.328125 0.60839,0.321289 1.00488,0.936523 0.39648,0.608398 0.62207,1.490234 0.22559,0.875 0.22559,2.365235 0,1.763672 -0.36231,2.850586 -0.3623,1.080078 -1.08691,1.674804 -0.71778,0.587891 -1.81836,0.587891 -1.44922,0 -2.27637,-1.039063 -0.99121,-1.250976 -0.99121,-4.074218 z m 1.26465,0 q 0,2.467773 0.57422,3.288086 0.58105,0.813476 1.42871,0.813476 0.84765,0 1.42187,-0.820312 0.58106,-0.820313 0.58106,-3.28125 0,-2.47461 -0.58106,-3.288086 -0.57422,-0.813477 -1.43554,-0.813477 -0.84766,0 -1.35352,0.717774 -0.63574,0.916015 -0.63574,3.383789 z m 6.52148,0 q 0,-1.777344 0.36231,-2.857422 0.36914,-1.086914 1.08691,-1.674805 0.72461,-0.58789 1.81836,-0.58789 0.80664,0 1.41504,0.328125 0.6084,0.321289 1.00488,0.936523 0.39649,0.608398 0.62207,1.490234 0.22559,0.875 0.22559,2.365235 0,1.763672 -0.36231,2.850586 -0.3623,1.080078 -1.08691,1.674804 -0.71777,0.587891 -1.81836,0.587891 -1.44922,0 -2.27637,-1.039063 -0.99121,-1.250976 -0.99121,-4.074218 z m 1.26465,0 q 0,2.467773 0.57422,3.288086 0.58105,0.813476 1.42871,0.813476 0.84766,0 1.42187,-0.820312 0.58106,-0.820313 0.58106,-3.28125 0,-2.47461 -0.58106,-3.288086 -0.57421,-0.813477 -1.43554,-0.813477 -0.84766,0 -1.35352,0.717774 -0.63574,0.916015 -0.63574,3.383789 z"
       id="flowRoot10-6"
       transform="translate(-9.406513,568.0496)"
       aria-label="12:00" />
    <path
       style="display:inline;fill:none;stroke:#555753;stroke-width:1;stroke-linecap:round;stroke-linejoin:round;stroke-dasharray:none;stroke-opacity:1"
       d="M 479.99973,632.3619 V 621.9004"
       id="path11-3" />
    <path
       style="font-size:14px;line-height:1.25;font-family:'Liberation Sans';-inkscape-font-specification:'Liberation Sans, Normal';text-align:center;text-anchor:middle"
       d="m 427.10498,47.214078 h -1.23047 v -7.840821 q -0.44433,0.423828 -1.16894,0.847656 -0.71778,0.423829 -1.292,0.635743 v -1.189453 q 1.03223,-0.485352 1.80469,-1.175782 0.77246,-0.690429 1.09375,-1.339843 h 0.79297 z m 3.1582,-2.645508 1.23047,-0.164063 q 0.21192,1.045899 0.71778,1.510742 0.51269,0.458008 1.24414,0.458008 0.86816,0 1.46289,-0.601562 0.60156,-0.601563 0.60156,-1.490235 0,-0.847656 -0.55371,-1.394531 -0.55371,-0.553711 -1.4082,-0.553711 -0.34864,0 -0.86817,0.136719 l 0.13672,-1.080078 q 0.12305,0.01367 0.19824,0.01367 0.78614,0 1.41504,-0.410157 0.62891,-0.410156 0.62891,-1.264648 0,-0.676758 -0.45801,-1.121094 -0.45801,-0.444336 -1.18262,-0.444336 -0.71777,0 -1.19629,0.451172 -0.47851,0.451172 -0.61523,1.353516 l -1.23047,-0.21875 q 0.22559,-1.237305 1.02539,-1.914063 0.79981,-0.683593 1.98926,-0.683593 0.82031,0 1.51074,0.355468 0.69043,0.348633 1.05274,0.957032 0.36914,0.608398 0.36914,1.291992 0,0.649414 -0.34864,1.182617 -0.34863,0.533203 -1.03222,0.847656 0.88867,0.205078 1.38086,0.854492 0.49218,0.642578 0.49218,1.613282 0,1.3125 -0.95703,2.228515 -0.95703,0.90918 -2.41992,0.90918 -1.31934,0 -2.19434,-0.786133 -0.86816,-0.786133 -0.99121,-2.037109 z m 8.46289,-3.212891 v -1.401367 h 1.40137 v 1.401367 z m 0,5.858399 V 45.81271 h 1.40137 v 1.401368 z m 3.20606,-4.942383 q 0,-1.777344 0.3623,-2.857422 0.36914,-1.086914 1.08692,-1.674805 0.72461,-0.58789 1.81836,-0.58789 0.80664,0 1.41504,0.328125 0.60839,0.321289 1.00488,0.936523 0.39648,0.608398 0.62207,1.490234 0.22559,0.875 0.22559,2.365235 0,1.763672 -0.36231,2.850586 -0.3623,1.080078 -1.08691,1.674804 -0.71778,0.587891 -1.81836,0.587891 -1.44922,0 -2.27637,-1.039063 -0.99121,-1.250976 -0.99121,-4.074218 z m 1.26465,0 q 0,2.467773 0.57422,3.288086 0.58105,0.813476 1.42871,0.813476 0.84765,0 1.42187,-0.820312 0.58106,-0.820313 0.58106,-3.28125 0,-2.47461 -0.58106,-3.288086 -0.57422,-0.813477 -1.43554,-0.813477 -0.84766,0 -1.35352,0.717774 -0.63574,0.916015 -0.63574,3.383789 z m 6.52148,0 q 0,-1.777344 0.36231,-2.857422 0.36914,-1.086914 1.08691,-1.674805 0.72461,-0.58789 1.81836,-0.58789 0.80664,0 1.41504,0.328125 0.6084,0.321289 1.00488,0.936523 0.39649,0.608398 0.62207,1.490234 0.22559,0.875 0.22559,2.365235 0,1.763672 -0.36231,2.850586 -0.3623,1.080078 -1.08691,1.674804 -0.71777,0.587891 -1.81836,0.587891 -1.44922,0 -2.27637,-1.039063 -0.99121,-1.250976 -0.99121,-4.074218 z m 1.26465,0 q 0,2.467773 0.57422,3.288086 0.58105,0.813476 1.42871,0.813476 0.84766,0 1.42187,-0.820312 0.58106,-0.820313 0.58106,-3.28125 0,-2.47461 -0.58106,-3.288086 -0.57421,-0.813477 -1.43554,-0.813477 -0.84766,0 -1.35352,0.717774 -0.63574,0.916015 -0.63574,3.383789 z"
       id="flowRoot11-9"
       transform="translate(40.593487,568.0496)"
       aria-label="13:00" />
    <path
       style="display:inline;fill:none;stroke:#555753;stroke-width:1;stroke-linecap:round;stroke-linejoin:round;stroke-dasharray:none;stroke-opacity:1"
       d="M 529.99973,632.3619 V 621.9004"
       id="path12-5" />
    <path
       style="font-size:14px;line-height:1.25;font-family:'Liberation Sans';-inkscape-font-specification:'Liberation Sans, Normal';text-align:center;text-anchor:middle"
       d="m 427.10498,47.214078 h -1.23047 v -7.840821 q -0.44433,0.423828 -1.16894,0.847656 -0.71778,0.423829 -1.292,0.635743 v -1.189453 q 1.03223,-0.485352 1.80469,-1.175782 0.77246,-0.690429 1.09375,-1.339843 h 0.79297 z m 7.0957,0 v -2.399415 h -4.34765 v -1.127929 l 4.57324,-6.494141 h 1.00488 v 6.494141 h 1.35352 v 1.127929 h -1.35352 v 2.399415 z m 0,-3.527344 v -4.518555 l -3.13769,4.518555 z m 4.52539,-2.331055 v -1.401367 h 1.40137 v 1.401367 z m 0,5.858399 V 45.81271 h 1.40137 v 1.401368 z m 3.20606,-4.942383 q 0,-1.777344 0.3623,-2.857422 0.36914,-1.086914 1.08692,-1.674805 0.72461,-0.58789 1.81836,-0.58789 0.80664,0 1.41504,0.328125 0.60839,0.321289 1.00488,0.936523 0.39648,0.608398 0.62207,1.490234 0.22559,0.875 0.22559,2.365235 0,1.763672 -0.36231,2.850586 -0.3623,1.080078 -1.08691,1.674804 -0.71778,0.587891 -1.81836,0.587891 -1.44922,0 -2.27637,-1.039063 -0.99121,-1.250976 -0.99121,-4.074218 z m 1.26465,0 q 0,2.467773 0.57422,3.288086 0.58105,0.813476 1.42871,0.813476 0.84765,0 1.42187,-0.820312 0.58106,-0.820313 0.58106,-3.28125 0,-2.47461 -0.58106,-3.288086 -0.57422,-0.813477 -1.43554,-0.813477 -0.84766,0 -1.35352,0.717774 -0.63574,0.916015 -0.63574,3.383789 z m 6.52148,0 q 0,-1.777344 0.36231,-2.857422 0.36914,-1.086914 1.08691,-1.674805 0.72461,-0.58789 1.81836,-0.58789 0.80664,0 1.41504,0.328125 0.6084,0.321289 1.00488,0.936523 0.39649,0.608398 0.62207,1.490234 0.22559,0.875 0.22559,2.365235 0,1.763672 -0.36231,2.850586 -0.3623,1.080078 -1.08691,1.674804 -0.71777,0.587891 -1.81836,0.587891 -1.44922,0 -2.27637,-1.039063 -0.99121,-1.250976 -0.99121,-4.074218 z m 1.26465,0 q 0,2.467773 0.57422,3.288086 0.58105,0.813476 1.42871,0.813476 0.84766,0 1.42187,-0.820312 0.58106,-0.820313 0.58106,-3.28125 0,-2.47461 -0.58106,-3.288086 -0.57421,-0.813477 -1.43554,-0.813477 -0.84766,0 -1.35352,0.717774 -0.63574,0.916015 -0.63574,3.383789 z"
       id="flowRoot39-0"
       transform="translate(90.59349,568.0496)"
       aria-label="14:00" />
    <path
       style="display:inline;fill:none;stroke:#555753;stroke-width:1;stroke-linecap:round;stroke-linejoin:round;stroke-dasharray:none;stroke-opacity:1"
       d="M 579.99973,632.3619 V 621.9004"
       id="path39-7" />
    <path
       style="font-size:14px;line-height:1.25;font-family:'Liberation Sans';-inkscape-font-specification:'Liberation Sans, Normal';text-align:center;text-anchor:middle"
       d="m 427.10498,47.214078 h -1.23047 v -7.840821 q -0.44433,0.423828 -1.16894,0.847656 -0.71778,0.423829 -1.292,0.635743 v -1.189453 q 1.03223,-0.485352 1.80469,-1.175782 0.77246,-0.690429 1.09375,-1.339843 h 0.79297 z m 3.15137,-2.625 1.29199,-0.109375 q 0.14355,0.943359 0.66309,1.421875 0.52636,0.471679 1.26464,0.471679 0.88868,0 1.50391,-0.669922 0.61523,-0.669922 0.61523,-1.777343 0,-1.052735 -0.59472,-1.661133 -0.58789,-0.608399 -1.54492,-0.608399 -0.59473,0 -1.07325,0.273438 -0.47851,0.266601 -0.75195,0.697265 l -1.15527,-0.15039 0.9707,-5.147461 h 4.9834 v 1.175781 h -3.99902 l -0.54004,2.69336 q 0.90234,-0.628907 1.89355,-0.628907 1.3125,0 2.21485,0.90918 0.90234,0.90918 0.90234,2.337891 0,1.360351 -0.79297,2.351562 -0.96387,1.216797 -2.63184,1.216797 -1.36718,0 -2.23535,-0.765625 -0.86133,-0.765625 -0.98437,-2.030273 z m 8.46972,-3.233399 v -1.401367 h 1.40137 v 1.401367 z m 0,5.858399 V 45.81271 h 1.40137 v 1.401368 z m 3.20606,-4.942383 q 0,-1.777344 0.3623,-2.857422 0.36914,-1.086914 1.08692,-1.674805 0.72461,-0.58789 1.81836,-0.58789 0.80664,0 1.41504,0.328125 0.60839,0.321289 1.00488,0.936523 0.39648,0.608398 0.62207,1.490234 0.22559,0.875 0.22559,2.365235 0,1.763672 -0.36231,2.850586 -0.3623,1.080078 -1.08691,1.674804 -0.71778,0.587891 -1.81836,0.587891 -1.44922,0 -2.27637,-1.039063 -0.99121,-1.250976 -0.99121,-4.074218 z m 1.26465,0 q 0,2.467773 0.57422,3.288086 0.58105,0.813476 1.42871,0.813476 0.84765,0 1.42187,-0.820312 0.58106,-0.820313 0.58106,-3.28125 0,-2.47461 -0.58106,-3.288086 -0.57422,-0.813477 -1.43554,-0.813477 -0.84766,0 -1.35352,0.717774 -0.63574,0.916015 -0.63574,3.383789 z m 6.52148,0 q 0,-1.777344 0.36231,-2.857422 0.36914,-1.086914 1.08691,-1.674805 0.72461,-0.58789 1.81836,-0.58789 0.80664,0 1.41504,0.328125 0.6084,0.321289 1.00488,0.936523 0.39649,0.608398 0.62207,1.490234 0.22559,0.875 0.22559,2.365235 0,1.763672 -0.36231,2.850586 -0.3623,1.080078 -1.08691,1.674804 -0.71777,0.587891 -1.81836,0.587891 -1.44922,0 -2.27637,-1.039063 -0.99121,-1.250976 -0.99121,-4.074218 z m 1.26465,0 q 0,2.467773 0.57422,3.288086 0.58105,0.813476 1.42871,0.813476 0.84766,0 1.42187,-0.820312 0.58106,-0.820313 0.58106,-3.28125 0,-2.47461 -0.58106,-3.288086 -0.57421,-0.813477 -1.43554,-0.813477 -0.84766,0 -1.35352,0.717774 -0.63574,0.916015 -0.63574,3.383789 z"
       id="flowRoot42-1"
       transform="translate(140.59349,568.0496)"
       aria-label="15:00" />
    <path
       style="display:inline;fill:none;stroke:#555753;stroke-width:1;stroke-linecap:round;stroke-linejoin:round;stroke-dasharray:none;stroke-opacity:1"
       d="M 629.99973,632.3619 V 621.9004"
       id="path45-5" />
    <path
       style="font-size:14px;line-height:1.25;font-family:'Liberation Sans';-inkscape-font-specification:'Liberation Sans, Normal';text-align:center;text-anchor:middle"
       d="m 427.10498,47.214078 h -1.23047 v -7.840821 q -0.44433,0.423828 -1.16894,0.847656 -0.71778,0.423829 -1.292,0.635743 v -1.189453 q 1.03223,-0.485352 1.80469,-1.175782 0.77246,-0.690429 1.09375,-1.339843 h 0.79297 z m 9.53613,-7.567383 -1.22363,0.0957 q -0.16406,-0.72461 -0.46484,-1.052735 -0.49903,-0.526367 -1.23047,-0.526367 -0.58789,0 -1.03223,0.328125 -0.58105,0.423828 -0.91601,1.237305 -0.33497,0.813477 -0.34864,2.317383 0.44434,-0.676758 1.08692,-1.004883 0.64258,-0.328125 1.34668,-0.328125 1.23047,0 2.09179,0.90918 0.86817,0.902343 0.86817,2.33789 0,0.94336 -0.41016,1.756836 -0.40332,0.806641 -1.11426,1.237305 -0.71093,0.430664 -1.61328,0.430664 -1.53808,0 -2.50879,-1.12793 -0.9707,-1.134765 -0.9707,-3.732422 0,-2.905273 1.07324,-4.224609 0.93653,-1.148437 2.52246,-1.148437 1.18262,0 1.93457,0.663085 0.75879,0.663086 0.90918,1.832032 z m -5.02441,4.320312 q 0,0.635742 0.2666,1.216797 0.27344,0.581055 0.75879,0.888672 0.48535,0.300781 1.01855,0.300781 0.7793,0 1.33985,-0.628906 0.56055,-0.628906 0.56055,-1.708984 0,-1.039063 -0.55372,-1.633789 -0.55371,-0.601563 -1.39453,-0.601563 -0.83398,0 -1.41504,0.601563 -0.58105,0.594726 -0.58105,1.565429 z m 7.10937,-2.611328 v -1.401367 h 1.40137 v 1.401367 z m 0,5.858399 V 45.81271 h 1.40137 v 1.401368 z m 3.20606,-4.942383 q 0,-1.777344 0.3623,-2.857422 0.36914,-1.086914 1.08692,-1.674805 0.72461,-0.58789 1.81836,-0.58789 0.80664,0 1.41504,0.328125 0.60839,0.321289 1.00488,0.936523 0.39648,0.608398 0.62207,1.490234 0.22559,0.875 0.22559,2.365235 0,1.763672 -0.36231,2.850586 -0.3623,1.080078 -1.08691,1.674804 -0.71778,0.587891 -1.81836,0.587891 -1.44922,0 -2.27637,-1.039063 -0.99121,-1.250976 -0.99121,-4.074218 z m 1.26465,0 q 0,2.467773 0.57422,3.288086 0.58105,0.813476 1.42871,0.813476 0.84765,0 1.42187,-0.820312 0.58106,-0.820313 0.58106,-3.28125 0,-2.47461 -0.58106,-3.288086 -0.57422,-0.813477 -1.43554,-0.813477 -0.84766,0 -1.35352,0.717774 -0.63574,0.916015 -0.63574,3.383789 z m 6.52148,0 q 0,-1.777344 0.36231,-2.857422 0.36914,-1.086914 1.08691,-1.674805 0.72461,-0.58789 1.81836,-0.58789 0.80664,0 1.41504,0.328125 0.6084,0.321289 1.00488,0.936523 0.39649,0.608398 0.62207,1.490234 0.22559,0.875 0.22559,2.365235 0,1.763672 -0.36231,2.850586 -0.3623,1.080078 -1.08691,1.674804 -0.71777,0.587891 -1.81836,0.587891 -1.44922,0 -2.27637,-1.039063 -0.99121,-1.250976 -0.99121,-4.074218 z m 1.26465,0 q 0,2.467773 0.57422,3.288086 0.58105,0.813476 1.42871,0.813476 0.84766,0 1.42187,-0.820312 0.58106,-0.820313 0.58106,-3.28125 0,-2.47461 -0.58106,-3.288086 -0.57421,-0.813477 -1.43554,-0.813477 -0.84766,0 -1.35352,0.717774 -0.63574,0.916015 -0.63574,3.383789 z"
       id="flowRoot45-6"
       transform="translate(190.59348,568.0496)"
       aria-label="16:00" />
    <path
       style="display:inline;fill:none;stroke:#555753;stroke-width:1;stroke-linecap:round;stroke-linejoin:round;stroke-dasharray:none;stroke-opacity:1"
       d="M 679.99973,632.3619 V 621.9004"
       id="path46-1" />
    <path
       style="font-size:14px;line-height:1.25;font-family:'Liberation Sans';-inkscape-font-specification:'Liberation Sans, Normal';text-align:center;text-anchor:middle"
       d="m 427.10498,47.214078 h -1.23047 v -7.840821 q -0.44433,0.423828 -1.16894,0.847656 -0.71778,0.423829 -1.292,0.635743 v -1.189453 q 1.03223,-0.485352 1.80469,-1.175782 0.77246,-0.690429 1.09375,-1.339843 h 0.79297 z m 3.2334,-8.708985 v -1.182617 h 6.4873 v 0.957031 q -0.95703,1.018555 -1.90039,2.707031 -0.93652,1.688477 -1.44922,3.472657 -0.36914,1.257812 -0.47168,2.754883 h -1.26464 q 0.0205,-1.182618 0.46484,-2.857422 0.44434,-1.674805 1.27148,-3.226563 0.83399,-1.558594 1.77051,-2.625 z m 8.38769,2.850586 v -1.401367 h 1.40137 v 1.401367 z m 0,5.858399 V 45.81271 h 1.40137 v 1.401368 z m 3.20606,-4.942383 q 0,-1.777344 0.3623,-2.857422 0.36914,-1.086914 1.08692,-1.674805 0.72461,-0.58789 1.81836,-0.58789 0.80664,0 1.41504,0.328125 0.60839,0.321289 1.00488,0.936523 0.39648,0.608398 0.62207,1.490234 0.22559,0.875 0.22559,2.365235 0,1.763672 -0.36231,2.850586 -0.3623,1.080078 -1.08691,1.674804 -0.71778,0.587891 -1.81836,0.587891 -1.44922,0 -2.27637,-1.039063 -0.99121,-1.250976 -0.99121,-4.074218 z m 1.26465,0 q 0,2.467773 0.57422,3.288086 0.58105,0.813476 1.42871,0.813476 0.84765,0 1.42187,-0.820312 0.58106,-0.820313 0.58106,-3.28125 0,-2.47461 -0.58106,-3.288086 -0.57422,-0.813477 -1.43554,-0.813477 -0.84766,0 -1.35352,0.717774 -0.63574,0.916015 -0.63574,3.383789 z m 6.52148,0 q 0,-1.777344 0.36231,-2.857422 0.36914,-1.086914 1.08691,-1.674805 0.72461,-0.58789 1.81836,-0.58789 0.80664,0 1.41504,0.328125 0.6084,0.321289 1.00488,0.936523 0.39649,0.608398 0.62207,1.490234 0.22559,0.875 0.22559,2.365235 0,1.763672 -0.36231,2.850586 -0.3623,1.080078 -1.08691,1.674804 -0.71777,0.587891 -1.81836,0.587891 -1.44922,0 -2.27637,-1.039063 -0.99121,-1.250976 -0.99121,-4.074218 z m 1.26465,0 q 0,2.467773 0.57422,3.288086 0.58105,0.813476 1.42871,0.813476 0.84766,0 1.42187,-0.820312 0.58106,-0.820313 0.58106,-3.28125 0,-2.47461 -0.58106,-3.288086 -0.57421,-0.813477 -1.43554,-0.813477 -0.84766,0 -1.35352,0.717774 -0.63574,0.916015 -0.63574,3.383789 z"
       id="flowRoot46-6"
       transform="translate(240.59348,568.0496)"
       aria-label="17:00" />
    <path
       style="display:inline;fill:none;stroke:#555753;stroke-width:1;stroke-linecap:round;stroke-linejoin:round;stroke-dasharray:none;stroke-opacity:1"
       d="M 729.99973,632.3619 V 621.9004"
       id="path47-4" />
    <path
       style="font-size:14px;line-height:1.25;font-family:'Liberation Sans';-inkscape-font-specification:'Liberation Sans, Normal';text-align:center;text-anchor:middle"
       d="m 427.10498,47.214078 h -1.23047 v -7.840821 q -0.44433,0.423828 -1.16894,0.847656 -0.71778,0.423829 -1.292,0.635743 v -1.189453 q 1.03223,-0.485352 1.80469,-1.175782 0.77246,-0.690429 1.09375,-1.339843 h 0.79297 z m 5.04492,-5.434571 q -0.76562,-0.280273 -1.13476,-0.799804 -0.36914,-0.519532 -0.36914,-1.244141 0,-1.09375 0.78613,-1.838867 0.78613,-0.745117 2.0918,-0.745117 1.3125,0 2.1123,0.765625 0.79981,0.758789 0.79981,1.852539 0,0.697265 -0.36915,1.216796 -0.3623,0.512696 -1.10742,0.792969 0.92285,0.300781 1.40137,0.970703 0.48535,0.669922 0.48535,1.59961 0,1.285156 -0.90918,2.160156 -0.90918,0.875 -2.39258,0.875 -1.48339,0 -2.39257,-0.875 -0.90918,-0.881836 -0.90918,-2.194336 0,-0.977539 0.49218,-1.633789 0.49903,-0.663086 1.41504,-0.902344 z m -0.24609,-2.084961 q 0,0.710938 0.45801,1.16211 0.458,0.451172 1.18945,0.451172 0.71094,0 1.16211,-0.444336 0.45801,-0.451172 0.45801,-1.100586 0,-0.676758 -0.47168,-1.134766 -0.46485,-0.464844 -1.16211,-0.464844 -0.7041,0 -1.16895,0.451172 -0.46484,0.451172 -0.46484,1.080078 z m -0.39649,4.62793 q 0,0.526367 0.2461,1.018555 0.25293,0.492187 0.74512,0.765625 0.49218,0.266601 1.05957,0.266601 0.88183,0 1.45605,-0.567383 0.57422,-0.567382 0.57422,-1.442382 0,-0.888672 -0.59473,-1.469727 -0.58789,-0.581055 -1.47656,-0.581055 -0.86816,0 -1.44238,0.574219 -0.56739,0.574219 -0.56739,1.435547 z m 7.21875,-2.966797 v -1.401367 h 1.40137 v 1.401367 z m 0,5.858399 V 45.81271 h 1.40137 v 1.401368 z m 3.20606,-4.942383 q 0,-1.777344 0.3623,-2.857422 0.36914,-1.086914 1.08692,-1.674805 0.72461,-0.58789 1.81836,-0.58789 0.80664,0 1.41504,0.328125 0.60839,0.321289 1.00488,0.936523 0.39648,0.608398 0.62207,1.490234 0.22559,0.875 0.22559,2.365235 0,1.763672 -0.36231,2.850586 -0.3623,1.080078 -1.08691,1.674804 -0.71778,0.587891 -1.81836,0.587891 -1.44922,0 -2.27637,-1.039063 -0.99121,-1.250976 -0.99121,-4.074218 z m 1.26465,0 q 0,2.467773 0.57422,3.288086 0.58105,0.813476 1.42871,0.813476 0.84765,0 1.42187,-0.820312 0.58106,-0.820313 0.58106,-3.28125 0,-2.47461 -0.58106,-3.288086 -0.57422,-0.813477 -1.43554,-0.813477 -0.84766,0 -1.35352,0.717774 -0.63574,0.916015 -0.63574,3.383789 z m 6.52148,0 q 0,-1.777344 0.36231,-2.857422 0.36914,-1.086914 1.08691,-1.674805 0.72461,-0.58789 1.81836,-0.58789 0.80664,0 1.41504,0.328125 0.6084,0.321289 1.00488,0.936523 0.39649,0.608398 0.62207,1.490234 0.22559,0.875 0.22559,2.365235 0,1.763672 -0.36231,2.850586 -0.3623,1.080078 -1.08691,1.674804 -0.71777,0.587891 -1.81836,0.587891 -1.44922,0 -2.27637,-1.039063 -0.99121,-1.250976 -0.99121,-4.074218 z m 1.26465,0 q 0,2.467773 0.57422,3.288086 0.58105,0.813476 1.42871,0.813476 0.84766,0 1.42187,-0.820312 0.58106,-0.820313 0.58106,-3.28125 0,-2.47461 -0.58106,-3.288086 -0.57421,-0.813477 -1.43554,-0.813477 -0.84766,0 -1.35352,0.717774 -0.63574,0.916015 -0.63574,3.383789 z"
       id="flowRoot48-4"
       transform="translate(290.59348,568.0496)"
       aria-label="18:00" />
    <path
       style="font-size:16px;line-height:1.25;font-family:'Liberation Sans';-inkscape-font-specification:'Liberation Sans, Normal';text-align:center;text-anchor:middle;fill:#204a87"
       d="m 401.77344,49.015586 v -8.296875 h 1.25781 v 1.164063 q 0.39062,-0.609375 1.03906,-0.976563 0.64844,-0.375 1.47656,-0.375 0.92188,0 1.50782,0.382813 0.59375,0.382812 0.83593,1.070312 0.98438,-1.453125 2.5625,-1.453125 1.23438,0 1.89844,0.6875 0.66406,0.679688 0.66406,2.101563 v 5.695312 h -1.39843 v -5.226562 q 0,-0.84375 -0.14063,-1.210938 -0.13281,-0.375 -0.49219,-0.601562 -0.35937,-0.226563 -0.84375,-0.226563 -0.875,0 -1.45312,0.585938 -0.57813,0.578125 -0.57813,1.859375 v 4.820312 h -1.40625 v -5.390625 q 0,-0.9375 -0.34375,-1.40625 -0.34375,-0.46875 -1.125,-0.46875 -0.59375,0 -1.10156,0.3125 -0.5,0.3125 -0.72656,0.914063 -0.22656,0.601562 -0.22656,1.734375 v 4.304687 z m 13.33593,-9.835937 v -1.617188 h 1.40625 v 1.617188 z m 0,9.835937 v -8.296875 h 1.40625 v 8.296875 z m 3.54688,0 v -8.296875 h 1.26562 v 1.179688 q 0.91407,-1.367188 2.64063,-1.367188 0.75,0 1.375,0.273438 0.63281,0.265625 0.94531,0.703125 0.3125,0.4375 0.4375,1.039062 0.0781,0.390625 0.0781,1.367188 v 5.101562 h -1.40625 v -5.046875 q 0,-0.859375 -0.16407,-1.28125 -0.16406,-0.429687 -0.58593,-0.679687 -0.41407,-0.257813 -0.97657,-0.257813 -0.89843,0 -1.55468,0.570313 -0.64844,0.570312 -0.64844,2.164062 v 4.53125 z m 9.01562,0 V 37.562461 h 1.51563 v 10.101563 h 5.64062 v 1.351562 z m 14.46094,-2.671875 1.45313,0.179688 q -0.34375,1.273437 -1.27344,1.976562 -0.92969,0.703125 -2.375,0.703125 -1.82031,0 -2.89063,-1.117187 -1.0625,-1.125 -1.0625,-3.148438 0,-2.09375 1.07813,-3.25 1.07812,-1.15625 2.79687,-1.15625 1.66407,0 2.71875,1.132813 1.05469,1.132812 1.05469,3.1875 0,0.125 -0.008,0.375 h -6.1875 q 0.0781,1.367187 0.77344,2.09375 0.69531,0.726562 1.73437,0.726562 0.77344,0 1.32031,-0.40625 0.54688,-0.40625 0.86719,-1.296875 z m -4.61719,-2.273437 h 4.63282 q -0.0937,-1.046875 -0.53125,-1.570313 -0.67188,-0.8125 -1.74219,-0.8125 -0.96875,0 -1.63281,0.648438 -0.65625,0.648437 -0.72657,1.734375 z M 447.65625,49.015586 444.5,40.718711 h 1.48437 l 1.78125,4.96875 q 0.28907,0.804688 0.53125,1.671875 0.1875,-0.65625 0.52344,-1.578125 l 1.84375,-5.0625 h 1.44531 l -3.14062,8.296875 z m 11.375,-2.671875 1.45312,0.179688 q -0.34375,1.273437 -1.27343,1.976562 -0.92969,0.703125 -2.375,0.703125 -1.82032,0 -2.89063,-1.117187 -1.0625,-1.125 -1.0625,-3.148438 0,-2.09375 1.07813,-3.25 1.07812,-1.15625 2.79687,-1.15625 1.66406,0 2.71875,1.132813 1.05469,1.132812 1.05469,3.1875 0,0.125 -0.008,0.375 h -6.1875 q 0.0781,1.367187 0.77343,2.09375 0.69532,0.726562 1.73438,0.726562 0.77344,0 1.32031,-0.40625 0.54688,-0.40625 0.86719,-1.296875 z m -4.61719,-2.273437 h 4.63281 q -0.0937,-1.046875 -0.53125,-1.570313 -0.67187,-0.8125 -1.74218,-0.8125 -0.96875,0 -1.63282,0.648438 -0.65625,0.648437 -0.72656,1.734375 z m 7.80469,4.945312 V 37.562461 H 463.625 V 49.015586 Z M 477.25,47.664024 v 1.351562 h -7.57031 q -0.0156,-0.507812 0.16406,-0.976562 0.28906,-0.773438 0.92187,-1.523438 0.64063,-0.75 1.84375,-1.734375 1.86719,-1.53125 2.52344,-2.421875 0.65625,-0.898437 0.65625,-1.695312 0,-0.835938 -0.60156,-1.40625 -0.59375,-0.578125 -1.55469,-0.578125 -1.01562,0 -1.625,0.609375 -0.60937,0.609375 -0.61719,1.6875 l -1.44531,-0.148438 q 0.14844,-1.617187 1.11719,-2.460937 0.96875,-0.851563 2.60156,-0.851563 1.64844,0 2.60938,0.914063 0.96093,0.914062 0.96093,2.265625 0,0.6875 -0.28125,1.351562 -0.28125,0.664063 -0.9375,1.398438 -0.64843,0.734375 -2.16406,2.015625 -1.26562,1.0625 -1.625,1.445312 -0.35937,0.375 -0.59375,0.757813 z"
       id="flowRoot74"
       transform="translate(-349.51172,602.15136)"
       aria-label="minLevel 2" />
    <g
       id="g76"
       transform="matrix(0.93710694,0,0,1,-157.38994,-46.695209)"
       style="display:inline;stroke-width:1.03301">
      <rect
         style="fill: #4F62F5;stroke: #4F62F5;stroke-width:1.03301;stroke-linecap:round;stroke-linejoin:round;stroke-miterlimit:4;stroke-dasharray:none;stroke-opacity:1"
         rx="5"
         ry="5"
         id="rect75"
         width="105.6784"
         height="28.96699"
         x="211.15408"
         y="652.87866" />
      <path
         style="font-size:16.5282px;line-height:1.25;font-family:'Liberation Sans';-inkscape-font-specification:'Liberation Sans, Normal';text-align:center;text-anchor:middle;fill:#ffffff"
         d="m 421.24783,49.491365 -4.584,-11.831221 h 1.69479 l 3.07483,8.594987 q 0.37124,1.033012 0.62142,1.936898 0.27439,-0.968449 0.63756,-1.936898 l 3.19588,-8.594987 h 1.59794 l -4.63241,11.831221 z m 7.16652,-10.160646 v -1.670575 h 1.45268 v 1.670575 z m 0,10.160646 v -8.570776 h 1.45268 v 8.570776 z m 3.0829,-2.55832 1.43653,-0.225972 q 0.12106,0.863534 0.66984,1.323548 0.55686,0.460013 1.54952,0.460013 1.00073,0 1.48496,-0.40352 0.48422,-0.411591 0.48422,-0.960379 0,-0.492295 -0.42773,-0.77476 -0.2986,-0.193689 -1.48495,-0.492295 -1.59794,-0.40352 -2.21937,-0.694055 -0.61335,-0.298605 -0.93616,-0.815111 -0.31475,-0.524577 -0.31475,-1.154069 0,-0.572999 0.25825,-1.057224 0.26633,-0.492295 0.71827,-0.815111 0.33896,-0.250183 0.92003,-0.419661 0.58914,-0.17755 1.25898,-0.17755 1.0088,0 1.76742,0.290535 0.76669,0.290535 1.12986,0.7909 0.36317,0.492295 0.50036,1.323548 l -1.42039,0.19369 q -0.0968,-0.661774 -0.56493,-1.033013 -0.46001,-0.371239 -1.3074,-0.371239 -1.00074,0 -1.42847,0.330887 -0.42773,0.330887 -0.42773,0.774759 0,0.282465 0.17755,0.508436 0.17755,0.234042 0.55686,0.38738 0.2179,0.0807 1.28319,0.371239 1.54145,0.411591 2.14673,0.677914 0.61335,0.258253 0.96038,0.758619 0.34703,0.500365 0.34703,1.242843 0,0.726337 -0.42773,1.37197 -0.41966,0.637562 -1.21863,0.99266 -0.79897,0.347028 -1.80778,0.347028 -1.67057,0 -2.55025,-0.694055 -0.8716,-0.694056 -1.11371,-2.057955 z m 8.85324,-7.602326 v -1.670575 h 1.45267 v 1.670575 z m 0,10.160646 v -8.570776 h 1.45267 v 8.570776 z m 6.83563,-1.299336 0.20984,1.283195 q -0.61336,0.129127 -1.09758,0.129127 -0.7909,0 -1.2267,-0.250183 -0.4358,-0.250183 -0.61335,-0.653703 -0.17755,-0.411591 -0.17755,-1.718998 v -4.93102 h -1.0653 v -1.129858 h 1.0653 v -2.122518 l 1.4446,-0.871604 v 2.994122 h 1.46074 v 1.129858 h -1.46074 v 5.011725 q 0,0.621421 0.0726,0.79897 0.0807,0.177549 0.25019,0.282464 0.17755,0.104916 0.50036,0.104916 0.24211,0 0.63756,-0.05649 z m 3.98679,1.299336 4.54364,-11.831221 h 1.68671 l 4.84225,11.831221 h -1.78356 l -1.38004,-3.583262 h -4.94716 l -1.29934,3.583262 z m 3.41378,-4.858387 h 4.011 l -1.23478,-3.276587 q -0.56493,-1.493025 -0.83932,-2.453404 -0.22597,1.137928 -0.63756,2.259715 z"
         id="flowRoot76"
         transform="translate(-175.46139,623.77833)"
         aria-label="Visit A" />
      <path
         id="path76"
         style="fill:white;font-variation-settings:normal;display:inline;opacity:1;vector-effect:none;fill-opacity:1;stroke:none;stroke-width:1;stroke-linecap:butt;stroke-linejoin:miter;stroke-miterlimit:4;stroke-dasharray:none;stroke-dashoffset:0;stroke-opacity:1;-inkscape-stroke:none;stop-color:currentColor;stop-opacity:1"
         d="m 626,691.52013 c 0,2.87736 -1.43869,4.31603 -4.31603,4.31603 l -8.63207,8.63207 c -2.15802,2.15802 -4.31604,0 -2.15802,-2.15801 l 8.63207,-8.63207 c 0,-2.87736 1.43867,-4.31604 4.31604,-4.31604 l -2.58963,2.58962 2.15802,2.15802 z"
         transform="matrix(1.0671141,0,0,1,-354.93287,-29.999951)" />
    </g>
  </g>
</svg>
