<?xml version="1.0" encoding="UTF-8" standalone="no"?>
<svg
   width="800"
   height="600"
   id="svg2"
   version="1.1"
   xmlns="http://www.w3.org/2000/svg"
   xmlns:svg="http://www.w3.org/2000/svg"
   xmlns:rdf="http://www.w3.org/1999/02/22-rdf-syntax-ns#"
   xmlns:cc="http://creativecommons.org/ns#"
   xmlns:dc="http://purl.org/dc/elements/1.1/">
  <defs
     id="defs4" />
  <metadata
     id="metadata7">
    <rdf:RDF>
      <cc:Work
         rdf:about="">
        <dc:format>image/svg+xml</dc:format>
        <dc:type
           rdf:resource="http://purl.org/dc/dcmitype/StillImage" />
        <dc:language>en</dc:language>
        <cc:license
           rdf:resource="https://timefold.ai/product/license/" />
      </cc:Work>
    </rdf:RDF>
  </metadata>
  <g
     id="layer1"
     transform="translate(0,-452.36218)"
     style="display:inline">
    <g
       id="g3709"
       transform="translate(0,19.999997)" />
    <path
       style="font-size:37.3333px;line-height:1.25;font-family:'Liberation Sans';-inkscape-font-specification:'Liberation Sans, Normal';text-align:center;text-anchor:middle"
       d="M 222.50538,253.62814 V 226.9042 h 10.02603 q 3.0625,0 4.90364,0.82031 1.85937,0.80209 2.89844,2.4974 1.05729,1.67708 1.05729,3.51822 0,1.71354 -0.92969,3.22656 -0.92969,1.51302 -2.80729,2.44271 2.42448,0.71094 3.71875,2.42448 1.3125,1.71354 1.3125,4.04687 0,1.8776 -0.80209,3.49999 -0.78385,1.60417 -1.95052,2.47917 -1.16666,0.875 -2.93489,1.33073 -1.75,0.4375 -4.30208,0.4375 z m 3.53645,-15.49478 h 5.77864 q 2.35156,0 3.3724,-0.3099 1.34895,-0.40104 2.02343,-1.33073 0.69271,-0.92968 0.69271,-2.33333 0,-1.33072 -0.63802,-2.33333 -0.63802,-1.02083 -1.82292,-1.38541 -1.18489,-0.38282 -4.0651,-0.38282 h -5.34114 z m 0,12.34113 h 6.65364 q 1.71354,0 2.40625,-0.1276 1.22135,-0.21875 2.04166,-0.72917 0.82032,-0.51041 1.34896,-1.47656 0.52865,-0.98437 0.52865,-2.26041 0,-1.49479 -0.76563,-2.58854 -0.76562,-1.11198 -2.13281,-1.54948 -1.34895,-0.45573 -3.90104,-0.45573 h -6.17968 z m 21.05467,3.15365 v -19.35936 h 2.95312 v 2.93489 q 1.13021,-2.05989 2.07813,-2.71614 0.96614,-0.65625 2.11458,-0.65625 1.65885,0 3.37239,1.05729 l -1.13021,3.04427 q -1.20312,-0.71094 -2.40624,-0.71094 -1.07552,0 -1.93229,0.65625 -0.85677,0.63802 -1.22136,1.78646 -0.54687,1.75 -0.54687,3.82812 v 10.13541 z m 25.15623,0 v -2.84375 q -2.26041,3.28125 -6.14322,3.28125 -1.71354,0 -3.20833,-0.65625 -1.47657,-0.65625 -2.20573,-1.64063 -0.71094,-1.0026 -1.00261,-2.4427 -0.20052,-0.96615 -0.20052,-3.0625 v -11.99478 h 3.28125 v 10.73697 q 0,2.57031 0.20052,3.46354 0.3099,1.29427 1.3125,2.04166 1.0026,0.72917 2.47917,0.72917 1.47656,0 2.77083,-0.7474 1.29427,-0.76562 1.82291,-2.05989 0.54688,-1.3125 0.54688,-3.79167 v -10.37238 h 3.28124 v 19.35936 z m 15.23957,-2.9349 0.47396,2.89844 q -1.38542,0.29166 -2.47917,0.29166 -1.78645,0 -2.77083,-0.5651 -0.98437,-0.5651 -1.38541,-1.47656 -0.40104,-0.92969 -0.40104,-3.88281 v -11.13801 h -2.40625 v -2.55208 h 2.40625 v -4.79427 l 3.26302,-1.96875 v 6.76302 h 3.29947 v 2.55208 h -3.29947 v 11.3203 q 0,1.40365 0.16406,1.80469 0.18229,0.40104 0.5651,0.63802 0.40104,0.23698 1.13021,0.23698 0.54687,0 1.4401,-0.12761 z m 16.46092,-3.29947 3.39062,0.41927 q -0.80208,2.97135 -2.97135,4.61197 -2.16927,1.64063 -5.54166,1.64063 -4.24739,0 -6.74479,-2.60677 -2.47916,-2.625 -2.47916,-7.34635 0,-4.88541 2.51562,-7.58333 2.51562,-2.69791 6.52604,-2.69791 3.88281,0 6.34374,2.64323 2.46094,2.64322 2.46094,7.43749 0,0.29167 -0.0182,0.875 H 292.9975 q 0.18229,3.1901 1.80469,4.88541 1.62239,1.69531 4.04687,1.69531 1.80468,0 3.08073,-0.94791 1.27604,-0.94792 2.02343,-3.02604 z m -10.77343,-5.30469 h 10.80989 q -0.21875,-2.4427 -1.23958,-3.66406 -1.56771,-1.89583 -4.0651,-1.89583 -2.26042,0 -3.8099,1.51302 -1.53124,1.51302 -1.69531,4.04687 z m 29.25779,11.53906 V 226.9042 h 18.02863 v 3.15364 h -14.49217 v 8.27604 h 12.54165 v 3.15364 h -12.54165 v 12.14062 z m 20.98176,-9.67968 q 0,-5.3776 2.98958,-7.96614 2.49739,-2.15104 6.08854,-2.15104 3.99218,0 6.52603,2.625 2.53385,2.60676 2.53385,7.21874 0,3.73698 -1.1302,5.88802 -1.11198,2.13281 -3.26302,3.3177 -2.13281,1.1849 -4.66666,1.1849 -4.0651,0 -6.58073,-2.60677 -2.49739,-2.60677 -2.49739,-7.51041 z m 3.37239,0 q 0,3.71874 1.6224,5.57812 1.62239,1.84114 4.08333,1.84114 2.4427,0 4.0651,-1.85937 1.62239,-1.85938 1.62239,-5.66927 0,-3.59114 -1.64062,-5.43228 -1.6224,-1.85938 -4.04687,-1.85938 -2.46094,0 -4.08333,1.84115 -1.6224,1.84114 -1.6224,5.55989 z m 18.5755,9.67968 v -19.35936 h 2.95313 v 2.93489 q 1.1302,-2.05989 2.07812,-2.71614 0.96614,-0.65625 2.11458,-0.65625 1.65885,0 3.37239,1.05729 l -1.1302,3.04427 q -1.20313,-0.71094 -2.40625,-0.71094 -1.07552,0 -1.93229,0.65625 -0.85677,0.63802 -1.22135,1.78646 -0.54688,1.75 -0.54688,3.82812 v 10.13541 z m 25.10155,-7.09114 3.22656,0.41927 q -0.52865,3.33593 -2.71615,5.23176 -2.16927,1.87761 -5.34114,1.87761 -3.97395,0 -6.39843,-2.58854 -2.40625,-2.60677 -2.40625,-7.45573 0,-3.13541 1.03906,-5.48697 1.03906,-2.35156 3.15365,-3.51823 2.13281,-1.18489 4.6302,-1.18489 3.15364,0 5.15885,1.60416 2.00521,1.58594 2.57031,4.52083 l -3.1901,0.49219 q -0.45573,-1.95052 -1.6224,-2.93489 -1.14843,-0.98438 -2.78906,-0.98438 -2.47916,0 -4.02864,1.78646 -1.54948,1.76823 -1.54948,5.61458 0,3.90104 1.49479,5.66926 1.49479,1.76823 3.90104,1.76823 1.93229,0 3.22656,-1.18489 1.29427,-1.1849 1.64063,-3.64583 z m 19.28644,0.85677 3.39063,0.41927 q -0.80209,2.97135 -2.97136,4.61197 -2.16927,1.64063 -5.54166,1.64063 -4.24739,0 -6.74478,-2.60677 -2.47917,-2.625 -2.47917,-7.34635 0,-4.88541 2.51562,-7.58333 2.51563,-2.69791 6.52604,-2.69791 3.88281,0 6.34374,2.64323 2.46094,2.64322 2.46094,7.43749 0,0.29167 -0.0182,0.875 H 398.7995 q 0.18229,3.1901 1.80469,4.88541 1.62239,1.69531 4.04687,1.69531 1.80469,0 3.08073,-0.94791 1.27604,-0.94792 2.02343,-3.02604 z m -10.77343,-5.30469 h 10.80989 q -0.21875,-2.4427 -1.23958,-3.66406 -1.56771,-1.89583 -4.0651,-1.89583 -2.26042,0 -3.80989,1.51302 -1.53125,1.51302 -1.69532,4.04687 z m 28.65622,11.53906 V 226.9042 h 3.28124 v 9.58853 q 2.29688,-2.66145 5.79687,-2.66145 2.15104,0 3.73698,0.85677 1.58594,0.83854 2.26041,2.33333 0.69271,1.49479 0.69271,4.33854 v 12.26822 h -3.28125 v -12.26822 q 0,-2.46094 -1.07552,-3.57292 -1.05729,-1.1302 -3.00781,-1.1302 -1.45833,0 -2.7526,0.76562 -1.27604,0.7474 -1.82291,2.04167 -0.54688,1.29427 -0.54688,3.57291 v 10.59114 z m 20.78123,-22.9505 v -3.77344 h 3.28124 v 3.77344 z m 0,22.9505 v -19.35936 h 3.28124 v 19.35936 z m 15.44009,-2.9349 0.47396,2.89844 q -1.38542,0.29166 -2.47917,0.29166 -1.78645,0 -2.77083,-0.5651 -0.98437,-0.5651 -1.38541,-1.47656 -0.40105,-0.92969 -0.40105,-3.88281 v -11.13801 h -2.40624 v -2.55208 h 2.40624 v -4.79427 l 3.26302,-1.96875 v 6.76302 h 3.29948 v 2.55208 h -3.29948 v 11.3203 q 0,1.40365 0.16406,1.80469 0.1823,0.40104 0.56511,0.63802 0.40104,0.23698 1.13021,0.23698 0.54687,0 1.4401,-0.12761 z m 1.89583,-2.84374 3.24479,-0.51042 q 0.27344,1.95052 1.51302,2.98958 1.25781,1.03906 3.5,1.03906 2.26041,0 3.35416,-0.91146 1.09375,-0.92968 1.09375,-2.16926 0,-1.11198 -0.96614,-1.75 -0.67448,-0.4375 -3.35417,-1.11198 -3.60937,-0.91146 -5.01301,-1.56771 -1.38542,-0.67448 -2.11458,-1.84114 -0.71094,-1.1849 -0.71094,-2.60677 0,-1.29427 0.58333,-2.38802 0.60156,-1.11198 1.6224,-1.84114 0.76562,-0.56511 2.07812,-0.94792 1.33073,-0.40104 2.84375,-0.40104 2.27864,0 3.99218,0.65625 1.73177,0.65625 2.55208,1.78645 0.82031,1.11198 1.13021,2.98959 l -3.20833,0.43749 q -0.21875,-1.49479 -1.27604,-2.33333 -1.03906,-0.83854 -2.95312,-0.83854 -2.26042,0 -3.22656,0.7474 -0.96615,0.74739 -0.96615,1.75 0,0.63802 0.40104,1.14843 0.40104,0.52865 1.25781,0.875 0.49219,0.18229 2.89844,0.83854 3.48177,0.92969 4.84895,1.53125 1.38542,0.58333 2.16927,1.71354 0.78386,1.13021 0.78386,2.80729 0,1.64062 -0.96615,3.09896 -0.94792,1.4401 -2.7526,2.24218 -1.80469,0.78386 -4.08333,0.78386 -3.77344,0 -5.76041,-1.56771 -1.96875,-1.56771 -2.51563,-4.64843 z m 37.51559,2.84374 0.47396,2.89844 q -1.38542,0.29166 -2.47917,0.29166 -1.78645,0 -2.77083,-0.5651 -0.98437,-0.5651 -1.38541,-1.47656 -0.40104,-0.92969 -0.40104,-3.88281 v -11.13801 h -2.40625 v -2.55208 h 2.40625 v -4.79427 l 3.26302,-1.96875 v 6.76302 h 3.29947 v 2.55208 h -3.29947 v 11.3203 q 0,1.40365 0.16406,1.80469 0.18229,0.40104 0.5651,0.63802 0.40104,0.23698 1.13021,0.23698 0.54687,0 1.4401,-0.12761 z m 3.20835,2.9349 V 226.9042 h 3.28125 v 9.58853 q 2.29687,-2.66145 5.79687,-2.66145 2.15104,0 3.73697,0.85677 1.58594,0.83854 2.26042,2.33333 0.69271,1.49479 0.69271,4.33854 v 12.26822 h -3.28125 v -12.26822 q 0,-2.46094 -1.07552,-3.57292 -1.05729,-1.1302 -3.00781,-1.1302 -1.45833,0 -2.7526,0.76562 -1.27604,0.7474 -1.82292,2.04167 -0.54687,1.29427 -0.54687,3.57291 v 10.59114 z m 34.01559,-6.23437 3.39063,0.41927 q -0.80209,2.97135 -2.97136,4.61197 -2.16926,1.64063 -5.54166,1.64063 -4.24739,0 -6.74478,-2.60677 -2.47917,-2.625 -2.47917,-7.34635 0,-4.88541 2.51563,-7.58333 2.51562,-2.69791 6.52603,-2.69791 3.88281,0 6.34375,2.64323 2.46093,2.64322 2.46093,7.43749 0,0.29167 -0.0182,0.875 h -14.43749 q 0.1823,3.1901 1.80469,4.88541 1.6224,1.69531 4.04687,1.69531 1.80469,0 3.08073,-0.94791 1.27604,-0.94792 2.02343,-3.02604 z m -10.77342,-5.30469 h 10.80988 q -0.21875,-2.4427 -1.23958,-3.66406 -1.56771,-1.89583 -4.0651,-1.89583 -2.26041,0 -3.80989,1.51302 -1.53125,1.51302 -1.69531,4.04687 z m 32.22912,11.53906 -5.92447,-19.35936 h 3.39062 l 3.08073,11.17447 1.14843,4.15624 q 0.0729,-0.30989 1.00261,-3.99218 l 3.08072,-11.33853 h 3.3724 l 2.89843,11.22916 0.96615,3.70051 1.11197,-3.73697 3.31771,-11.1927 h 3.1901 l -6.05208,19.35936 h -3.40885 l -3.08073,-11.59374 -0.74739,-3.29948 -3.91927,14.89322 z m 36.0208,-2.38802 q -1.82292,1.54948 -3.51823,2.1875 -1.67708,0.63802 -3.60937,0.63802 -3.1901,0 -4.90364,-1.54948 -1.71354,-1.56771 -1.71354,-3.99219 0,-1.42187 0.63802,-2.58854 0.65625,-1.18489 1.69531,-1.89583 1.05729,-0.71093 2.36979,-1.07552 0.96614,-0.25521 2.91666,-0.49218 3.97396,-0.47396 5.85156,-1.13021 0.0182,-0.67448 0.0182,-0.85677 0,-2.00521 -0.92969,-2.82552 -1.25781,-1.11198 -3.73697,-1.11198 -2.31511,0 -3.42708,0.82031 -1.09375,0.80209 -1.6224,2.86198 l -3.20833,-0.4375 q 0.4375,-2.05989 1.4401,-3.3177 1.00261,-1.27605 2.89844,-1.95052 1.89583,-0.69271 4.39322,-0.69271 2.47917,0 4.02865,0.58333 1.54947,0.58333 2.27864,1.47656 0.72917,0.875 1.02083,2.22396 0.16406,0.83854 0.16406,3.02604 v 4.37499 q 0,4.57552 0.20053,5.79687 0.21875,1.20313 0.83854,2.31511 h -3.42708 q -0.51042,-1.02084 -0.65625,-2.38802 z m -0.27344,-7.32812 q -1.78646,0.72916 -5.35937,1.23958 -2.02344,0.29167 -2.86198,0.65625 -0.83854,0.36458 -1.29427,1.07552 -0.45573,0.69271 -0.45573,1.54948 0,1.3125 0.98438,2.1875 1.0026,0.875 2.91666,0.875 1.89583,0 3.37239,-0.82032 1.47657,-0.83854 2.16927,-2.27864 0.52865,-1.11198 0.52865,-3.28125 z m 8.33072,9.71614 V 226.9042 h 3.28125 v 26.72394 z m 8.29428,0 V 226.9042 h 3.28125 v 26.72394 z"
       id="flowRoot4302"
       transform="translate(-19.999997,252.36213)"
       aria-label="Brute Force hits the wall" />
    <rect
       style="display:inline;color:#000000;overflow:visible;fill:#3e00ff;fill-opacity:1;stroke:none;stroke-width:2;stroke-linecap:round;stroke-linejoin:round;stroke-dasharray:none;stroke-opacity:1;stop-color:#000000"
       id="rect3713"
       width="30"
       height="1"
       x="100"
       y="508"
       transform="translate(0,452.36218)" />
    <path
       style="font-size:21.3333px;line-height:1.25;font-family:'Liberation Sans';-inkscape-font-specification:'Liberation Sans, Normal';text-align:center;text-anchor:middle"
       d="m 354.41862,171.31567 v -3.65624 h -6.62499 v -1.71875 l 6.96874,-9.89582 h 1.53125 v 9.89582 h 2.06249 v 1.71875 h -2.06249 v 3.65624 z m 0,-5.37499 v -6.8854 l -4.78124,6.8854 z"
       id="flowRoot3743"
       transform="translate(-238.38737,818.67149)"
       aria-label="4&#10;" />
    <path
       style="font-size:21.3333px;line-height:1.25;font-family:'Liberation Sans';-inkscape-font-specification:'Liberation Sans, Normal';text-align:center;text-anchor:middle"
       d="m 337.0749,163.03444 q -1.16667,-0.42709 -1.72917,-1.21875 -0.5625,-0.79167 -0.5625,-1.89583 0,-1.66667 1.19792,-2.80208 1.19791,-1.13542 3.18749,-1.13542 2,0 3.21875,1.16667 1.21875,1.15625 1.21875,2.82291 0,1.0625 -0.5625,1.85417 -0.55209,0.78124 -1.6875,1.20833 1.40625,0.45833 2.13541,1.47916 0.73958,1.02083 0.73958,2.4375 0,1.95833 -1.38541,3.29166 -1.38541,1.33333 -3.64583,1.33333 -2.26041,0 -3.64583,-1.33333 -1.38541,-1.34375 -1.38541,-3.34375 0,-1.48958 0.75,-2.48958 0.76041,-1.01041 2.15625,-1.37499 z m -0.375,-3.17708 q 0,1.08333 0.69791,1.77083 0.69792,0.6875 1.8125,0.6875 1.08333,0 1.77083,-0.67708 0.69792,-0.6875 0.69792,-1.67709 0,-1.03124 -0.71875,-1.72916 -0.70834,-0.70833 -1.77083,-0.70833 -1.07292,0 -1.78125,0.6875 -0.70833,0.6875 -0.70833,1.64583 z m -0.60417,7.05207 q 0,0.80208 0.375,1.55208 0.38542,0.75 1.13541,1.16667 0.75,0.40625 1.61459,0.40625 1.34374,0 2.21874,-0.86459 0.875,-0.86458 0.875,-2.19791 0,-1.35416 -0.90625,-2.23958 -0.89583,-0.88541 -2.24999,-0.88541 -1.32292,0 -2.19792,0.87499 -0.86458,0.875 -0.86458,2.1875 z m 10.47915,4.40624 v -11.06248 h 1.67708 v 1.55208 q 0.52083,-0.8125 1.38542,-1.30208 0.86458,-0.5 1.96874,-0.5 1.22917,0 2.01042,0.51042 0.79166,0.51041 1.11458,1.42708 1.3125,-1.9375 3.41666,-1.9375 1.64583,0 2.53125,0.91667 0.88541,0.90625 0.88541,2.80208 v 7.59373 h -1.86458 v -6.96874 q 0,-1.12499 -0.1875,-1.61458 -0.17708,-0.5 -0.65625,-0.80208 -0.47916,-0.30208 -1.125,-0.30208 -1.16666,0 -1.93749,0.78125 -0.77084,0.77083 -0.77084,2.47916 v 6.42707 h -1.87499 v -7.18749 q 0,-1.24999 -0.45834,-1.87499 -0.45833,-0.625 -1.49999,-0.625 -0.79167,0 -1.46875,0.41666 -0.66667,0.41667 -0.96875,1.21875 -0.30208,0.80208 -0.30208,2.3125 v 5.73957 z m 17.02081,-3.30207 1.85416,-0.29167 q 0.15625,1.11458 0.86458,1.70833 0.71875,0.59375 2,0.59375 1.29166,0 1.91666,-0.52083 0.625,-0.53125 0.625,-1.23959 0,-0.63541 -0.55208,-0.99999 -0.38542,-0.25 -1.91666,-0.63542 -2.0625,-0.52083 -2.86458,-0.89583 -0.79167,-0.38542 -1.20833,-1.05208 -0.40625,-0.67709 -0.40625,-1.48958 0,-0.73959 0.33333,-1.36458 0.34375,-0.63542 0.92708,-1.05209 0.4375,-0.32291 1.1875,-0.54166 0.76042,-0.22917 1.625,-0.22917 1.30208,0 2.28124,0.375 0.98959,0.375 1.45833,1.02083 0.46875,0.63542 0.64584,1.70833 l -1.83333,0.25 q -0.125,-0.85416 -0.72917,-1.33333 -0.59375,-0.47916 -1.6875,-0.47916 -1.29166,0 -1.84374,0.42708 -0.55209,0.42708 -0.55209,1 0,0.36458 0.22917,0.65625 0.22917,0.30208 0.71875,0.49999 0.28125,0.10417 1.65625,0.47917 1.98958,0.53125 2.77083,0.875 0.79166,0.33333 1.23958,0.97916 0.44791,0.64584 0.44791,1.60417 0,0.9375 -0.55208,1.77083 -0.54167,0.82291 -1.57291,1.28125 -1.03125,0.44791 -2.33333,0.44791 -2.15625,0 -3.29166,-0.89583 -1.125,-0.89583 -1.4375,-2.65624 z"
       id="flowRoot13154"
       transform="translate(-238.88216,778.83798)"
       aria-label="8ms" />
    <path
       style="font-size:21.3333px;line-height:1.25;font-family:'Liberation Sans';-inkscape-font-specification:'Liberation Sans, Normal'"
       d="m 331.56966,171.31567 v -15.27081 h 1.875 v 15.27081 z m 12.35415,-3.56249 1.93749,0.23958 q -0.45833,1.69792 -1.69791,2.63541 -1.23958,0.9375 -3.16666,0.9375 -2.42708,0 -3.85416,-1.48958 -1.41667,-1.5 -1.41667,-4.19791 0,-2.79166 1.4375,-4.33332 1.4375,-1.54167 3.72916,-1.54167 2.21875,0 3.625,1.51042 1.40624,1.51041 1.40624,4.24999 0,0.16667 -0.0104,0.5 h -8.24999 q 0.10417,1.82291 1.03125,2.79166 0.92708,0.96875 2.31249,0.96875 1.03125,0 1.76042,-0.54167 0.72916,-0.54166 1.15625,-1.72916 z m -6.15624,-3.03125 h 6.17707 q -0.125,-1.39583 -0.70833,-2.09374 -0.89583,-1.08333 -2.32292,-1.08333 -1.29166,0 -2.17708,0.86458 -0.87499,0.86458 -0.96874,2.31249 z m 9.6979,3.29167 1.85416,-0.29167 q 0.15625,1.11458 0.86458,1.70833 0.71875,0.59375 2,0.59375 1.29167,0 1.91666,-0.52083 0.625,-0.53125 0.625,-1.23959 0,-0.63541 -0.55208,-0.99999 -0.38541,-0.25 -1.91666,-0.63542 -2.0625,-0.52083 -2.86458,-0.89583 -0.79167,-0.38542 -1.20833,-1.05208 -0.40625,-0.67709 -0.40625,-1.48958 0,-0.73959 0.33333,-1.36458 0.34375,-0.63542 0.92708,-1.05209 0.4375,-0.32291 1.1875,-0.54166 0.76042,-0.22917 1.625,-0.22917 1.30208,0 2.28124,0.375 0.98959,0.375 1.45834,1.02083 0.46874,0.63542 0.64583,1.70833 l -1.83333,0.25 q -0.125,-0.85416 -0.72917,-1.33333 -0.59375,-0.47916 -1.6875,-0.47916 -1.29166,0 -1.84374,0.42708 -0.55209,0.42708 -0.55209,1 0,0.36458 0.22917,0.65625 0.22917,0.30208 0.71875,0.49999 0.28125,0.10417 1.65625,0.47917 1.98958,0.53125 2.77083,0.875 0.79166,0.33333 1.23958,0.97916 0.44791,0.64584 0.44791,1.60417 0,0.9375 -0.55208,1.77083 -0.54166,0.82291 -1.57291,1.28125 -1.03125,0.44791 -2.33333,0.44791 -2.15625,0 -3.29166,-0.89583 -1.125,-0.89583 -1.4375,-2.65624 z m 10.66665,0 1.85416,-0.29167 q 0.15625,1.11458 0.86458,1.70833 0.71875,0.59375 2,0.59375 1.29166,0 1.91666,-0.52083 0.625,-0.53125 0.625,-1.23959 0,-0.63541 -0.55208,-0.99999 -0.38542,-0.25 -1.91666,-0.63542 -2.0625,-0.52083 -2.86458,-0.89583 -0.79167,-0.38542 -1.20833,-1.05208 -0.40625,-0.67709 -0.40625,-1.48958 0,-0.73959 0.33333,-1.36458 0.34375,-0.63542 0.92708,-1.05209 0.4375,-0.32291 1.1875,-0.54166 0.76041,-0.22917 1.625,-0.22917 1.30208,0 2.28124,0.375 0.98959,0.375 1.45833,1.02083 0.46875,0.63542 0.64584,1.70833 l -1.83333,0.25 q -0.125,-0.85416 -0.72917,-1.33333 -0.59375,-0.47916 -1.6875,-0.47916 -1.29166,0 -1.84374,0.42708 -0.55209,0.42708 -0.55209,1 0,0.36458 0.22917,0.65625 0.22917,0.30208 0.71875,0.49999 0.28125,0.10417 1.65625,0.47917 1.98958,0.53125 2.77083,0.875 0.79166,0.33333 1.23958,0.97916 0.44791,0.64584 0.44791,1.60417 0,0.9375 -0.55208,1.77083 -0.54167,0.82291 -1.57291,1.28125 -1.03125,0.44791 -2.33333,0.44791 -2.15625,0 -3.29167,-0.89583 -1.12499,-0.89583 -1.43749,-2.65624 z m 10.71873,-2.22917 q 0,-3.07291 1.70833,-4.55207 1.42708,-1.22917 3.47916,-1.22917 2.28125,0 3.72916,1.5 1.44792,1.48958 1.44792,4.12499 0,2.13542 -0.64584,3.36458 -0.63541,1.21875 -1.86458,1.89583 -1.21874,0.67708 -2.66666,0.67708 -2.32291,0 -3.76041,-1.48958 -1.42708,-1.48958 -1.42708,-4.29166 z m 1.92708,0 q 0,2.125 0.92708,3.1875 0.92708,1.05208 2.33333,1.05208 1.39583,0 2.32291,-1.0625 0.92709,-1.0625 0.92709,-3.23958 0,-2.05208 -0.9375,-3.10416 -0.92708,-1.0625 -2.3125,-1.0625 -1.40625,0 -2.33333,1.05208 -0.92708,1.05209 -0.92708,3.17708 z m 10.6354,5.53124 v -11.06248 h 1.6875 v 1.57292 q 1.21875,-1.82292 3.52083,-1.82292 1,0 1.83333,0.36458 0.84375,0.35417 1.26041,0.9375 0.41667,0.58333 0.58333,1.38542 0.10417,0.52083 0.10417,1.82291 v 6.80207 h -1.875 v -6.72915 q 0,-1.14583 -0.21875,-1.70833 -0.21875,-0.57292 -0.78124,-0.90625 -0.55209,-0.34375 -1.30209,-0.34375 -1.19791,0 -2.07291,0.76041 -0.86458,0.76042 -0.86458,2.88542 v 6.04165 z m 11.11457,-3.30207 1.85416,-0.29167 q 0.15625,1.11458 0.86458,1.70833 0.71875,0.59375 2,0.59375 1.29166,0 1.91666,-0.52083 0.625,-0.53125 0.625,-1.23959 0,-0.63541 -0.55208,-0.99999 -0.38542,-0.25 -1.91667,-0.63542 -2.06249,-0.52083 -2.86457,-0.89583 -0.79167,-0.38542 -1.20834,-1.05208 -0.40624,-0.67709 -0.40624,-1.48958 0,-0.73959 0.33333,-1.36458 0.34375,-0.63542 0.92708,-1.05209 0.4375,-0.32291 1.1875,-0.54166 0.76041,-0.22917 1.625,-0.22917 1.30208,0 2.28124,0.375 0.98958,0.375 1.45833,1.02083 0.46875,0.63542 0.64584,1.70833 l -1.83334,0.25 q -0.12499,-0.85416 -0.72916,-1.33333 -0.59375,-0.47916 -1.6875,-0.47916 -1.29166,0 -1.84375,0.42708 -0.55208,0.42708 -0.55208,1 0,0.36458 0.22917,0.65625 0.22917,0.30208 0.71875,0.49999 0.28125,0.10417 1.65625,0.47917 1.98958,0.53125 2.77082,0.875 0.79167,0.33333 1.23959,0.97916 0.44791,0.64584 0.44791,1.60417 0,0.9375 -0.55208,1.77083 -0.54167,0.82291 -1.57292,1.28125 -1.03124,0.44791 -2.33332,0.44791 -2.15625,0 -3.29167,-0.89583 -1.12499,-0.89583 -1.43749,-2.65624 z"
       id="flowRoot2783"
       transform="translate(324.45642,818.67149)"
       aria-label="lessons" />
    <path
       style="display:inline;color:#000000;overflow:visible;fill:none;stroke:#000000;stroke-width:2;stroke-linecap:round;stroke-linejoin:round;stroke-dasharray:none;stroke-opacity:1;stop-color:#000000"
       d="M 80,510 H 670"
       id="path615"
       transform="translate(0,452.36218)" />
    <path
       style="display:inline;color:#000000;overflow:visible;fill:#000000;fill-opacity:1;stroke:#000000;stroke-width:2;stroke-linecap:round;stroke-linejoin:round;stroke-dasharray:none;stroke-opacity:1;stop-color:#000000"
       d="M 655.99976,505.49993 670,510 655.99976,514.50006 660.66651,510 Z"
       id="path10368"
       transform="translate(0,452.36218)" />
  </g>
  <g
     id="layer2"
     style="display:inline">
    <rect
       style="color:#000000;display:inline;overflow:visible;fill:#3e00ff;fill-opacity:1;stroke:none;stroke-width:1.99999;stroke-linecap:round;stroke-linejoin:round;stroke-dasharray:none;stroke-opacity:1;stop-color:#000000"
       id="rect7778"
       width="30"
       height="2"
       x="150"
       y="507" />
    <path
       style="font-size:21.3333px;line-height:1.25;font-family:'Liberation Sans';-inkscape-font-specification:'Liberation Sans, Normal';text-align:center;text-anchor:middle"
       d="m 348.40821,167.31568 1.96875,-0.16667 q 0.21875,1.4375 1.01041,2.16667 0.80209,0.71875 1.92708,0.71875 1.35417,0 2.29167,-1.02084 0.93749,-1.02083 0.93749,-2.70833 0,-1.60416 -0.90624,-2.53124 -0.89584,-0.92708 -2.35417,-0.92708 -0.90625,0 -1.63541,0.41666 -0.72917,0.40625 -1.14583,1.0625 l -1.76042,-0.22917 1.47917,-7.84373 h 7.59374 v 1.79166 h -6.09374 l -0.82292,4.10416 q 1.375,-0.95833 2.88541,-0.95833 2,0 3.375,1.38541 1.375,1.38542 1.375,3.5625 0,2.07291 -1.20834,3.58333 -1.46874,1.85416 -4.01041,1.85416 -2.08333,0 -3.40624,-1.16667 -1.3125,-1.16666 -1.5,-3.09374 z"
       id="flowRoot7788"
       transform="translate(-188.38737,366.30931)"
       aria-label="5" />
    <path
       style="font-size:21.3333px;line-height:1.25;font-family:'Liberation Sans';-inkscape-font-specification:'Liberation Sans, Normal';text-align:center;text-anchor:middle"
       d="m 334.17907,163.78444 q 0,-2.70833 0.55208,-4.35416 0.5625,-1.65625 1.65625,-2.55208 1.10416,-0.89584 2.77083,-0.89584 1.22916,0 2.15624,0.5 0.92708,0.48959 1.53125,1.42708 0.60417,0.92709 0.94792,2.27083 0.34374,1.33334 0.34374,3.60417 0,2.68749 -0.55208,4.34374 -0.55208,1.64583 -1.65625,2.55208 -1.09374,0.89583 -2.77082,0.89583 -2.20833,0 -3.46875,-1.58333 -1.51041,-1.90625 -1.51041,-6.20832 z m 1.92708,0 q 0,3.76041 0.875,5.0104 0.88541,1.23959 2.17708,1.23959 1.29166,0 2.16666,-1.25 0.88541,-1.25 0.88541,-4.99999 0,-3.77083 -0.88541,-5.01041 -0.875,-1.23958 -2.1875,-1.23958 -1.29166,0 -2.06249,1.09374 -0.96875,1.39583 -0.96875,5.15625 z m 10.98956,7.53123 v -2.13541 h 2.13542 v 2.13541 z m 11.93749,0 h -1.875 v -11.94789 q -0.67708,0.64583 -1.78125,1.29166 -1.09375,0.64583 -1.96875,0.96875 v -1.8125 q 1.57292,-0.73958 2.75,-1.79166 1.17708,-1.05208 1.66666,-2.04167 h 1.20834 z m 4.5729,-3.30207 1.85417,-0.29167 q 0.15625,1.11458 0.86458,1.70833 0.71875,0.59375 2,0.59375 1.29166,0 1.91666,-0.52083 0.625,-0.53125 0.625,-1.23959 0,-0.63541 -0.55208,-0.99999 -0.38542,-0.25 -1.91667,-0.63542 -2.06249,-0.52083 -2.86457,-0.89583 -0.79167,-0.38542 -1.20834,-1.05208 -0.40625,-0.67709 -0.40625,-1.48958 0,-0.73959 0.33334,-1.36458 0.34375,-0.63542 0.92708,-1.05209 0.4375,-0.32291 1.1875,-0.54166 0.76041,-0.22917 1.62499,-0.22917 1.30209,0 2.28125,0.375 0.98958,0.375 1.45833,1.02083 0.46875,0.63542 0.64583,1.70833 l -1.83333,0.25 q -0.125,-0.85416 -0.72916,-1.33333 -0.59375,-0.47916 -1.6875,-0.47916 -1.29166,0 -1.84375,0.42708 -0.55208,0.42708 -0.55208,1 0,0.36458 0.22917,0.65625 0.22916,0.30208 0.71875,0.49999 0.28125,0.10417 1.65624,0.47917 1.98958,0.53125 2.77083,0.875 0.79167,0.33333 1.23958,0.97916 0.44792,0.64584 0.44792,1.60417 0,0.9375 -0.55208,1.77083 -0.54167,0.82291 -1.57292,1.28125 -1.03124,0.44791 -2.33333,0.44791 -2.15624,0 -3.29166,-0.89583 -1.125,-0.89583 -1.4375,-2.65624 z"
       id="flowRoot13146"
       transform="translate(-188.88216,325.4758)"
       aria-label="0.1s" />
  </g>
  <g
     id="layer5"
     style="display:inline">
    <rect
       style="color:#000000;overflow:visible;fill:#3e00ff;fill-opacity:1;stroke:none;stroke-width:2;stroke-linecap:round;stroke-linejoin:round;stroke-dasharray:none;stroke-opacity:1;stop-color:#000000"
       id="rect7790"
       width="30"
       height="3"
       x="200"
       y="506" />
    <path
       style="font-size:21.3333px;line-height:1.25;font-family:'Liberation Sans';-inkscape-font-specification:'Liberation Sans, Normal';text-align:center;text-anchor:middle"
       d="m 358.13736,159.78444 -1.86458,0.14583 q -0.25,-1.10416 -0.70833,-1.60416 -0.76042,-0.80208 -1.875,-0.80208 -0.89583,0 -1.57291,0.5 -0.88542,0.64583 -1.39583,1.88541 -0.51042,1.23958 -0.53125,3.53125 0.67708,-1.03125 1.65625,-1.53125 0.97916,-0.5 2.05208,-0.5 1.87499,0 3.18749,1.38541 1.32292,1.375 1.32292,3.5625 0,1.4375 -0.625,2.67708 -0.61459,1.22916 -1.69792,1.88541 -1.08333,0.65625 -2.45833,0.65625 -2.34374,0 -3.82291,-1.71875 -1.47916,-1.72916 -1.47916,-5.68749 0,-4.42708 1.63541,-6.43749 1.42708,-1.75 3.84375,-1.75 1.80208,0 2.94791,1.01042 1.15625,1.01041 1.38541,2.79166 z m -7.65624,6.58332 q 0,0.96875 0.40625,1.85417 0.41667,0.88541 1.15625,1.35416 0.73958,0.45834 1.55208,0.45834 1.1875,0 2.04167,-0.95834 0.85416,-0.95833 0.85416,-2.60416 0,-1.58333 -0.84375,-2.48958 -0.84375,-0.91666 -2.12499,-0.91666 -1.27083,0 -2.15625,0.91666 -0.88542,0.90625 -0.88542,2.38541 z"
       id="flowRoot7800"
       transform="translate(-138.38737,366.30931)"
       aria-label="6" />
    <path
       style="font-size:21.3333px;line-height:1.25;font-family:'Liberation Sans';-inkscape-font-specification:'Liberation Sans, Normal';text-align:center;text-anchor:middle"
       d="m 352.92904,169.51359 v 1.80208 H 342.8353 q -0.0208,-0.67708 0.21875,-1.30208 0.38542,-1.03125 1.22917,-2.03124 0.85416,-1 2.45833,-2.3125 2.48958,-2.04166 3.36458,-3.22916 0.87499,-1.19792 0.87499,-2.26042 0,-1.11458 -0.80208,-1.87499 -0.79166,-0.77083 -2.07291,-0.77083 -1.35417,0 -2.16667,0.81249 -0.81249,0.8125 -0.82291,2.25 l -1.92708,-0.19792 q 0.19792,-2.15624 1.48958,-3.28124 1.29166,-1.13542 3.46874,-1.13542 2.19792,0 3.47917,1.21875 1.28124,1.21875 1.28124,3.02083 0,0.91667 -0.375,1.80208 -0.37499,0.88542 -1.24999,1.86458 -0.86459,0.97917 -2.88542,2.6875 -1.68749,1.41666 -2.16666,1.92708 -0.47916,0.5 -0.79166,1.01041 z m 1.78124,-1.49999 1.85417,-0.29167 q 0.15625,1.11458 0.86458,1.70833 0.71875,0.59375 2,0.59375 1.29166,0 1.91666,-0.52083 0.625,-0.53125 0.625,-1.23959 0,-0.63541 -0.55208,-0.99999 -0.38542,-0.25 -1.91667,-0.63542 -2.06249,-0.52083 -2.86457,-0.89583 -0.79167,-0.38542 -1.20834,-1.05208 -0.40625,-0.67709 -0.40625,-1.48958 0,-0.73959 0.33334,-1.36458 0.34375,-0.63542 0.92708,-1.05209 0.4375,-0.32291 1.1875,-0.54166 0.76041,-0.22917 1.62499,-0.22917 1.30209,0 2.28125,0.375 0.98958,0.375 1.45833,1.02083 0.46875,0.63542 0.64583,1.70833 l -1.83333,0.25 q -0.125,-0.85416 -0.72916,-1.33333 -0.59375,-0.47916 -1.6875,-0.47916 -1.29166,0 -1.84375,0.42708 -0.55208,0.42708 -0.55208,1 0,0.36458 0.22917,0.65625 0.22916,0.30208 0.71875,0.49999 0.28125,0.10417 1.65624,0.47917 1.98958,0.53125 2.77083,0.875 0.79167,0.33333 1.23958,0.97916 0.44792,0.64584 0.44792,1.60417 0,0.9375 -0.55208,1.77083 -0.54167,0.82291 -1.57292,1.28125 -1.03124,0.44791 -2.33333,0.44791 -2.15624,0 -3.29166,-0.89583 -1.125,-0.89583 -1.4375,-2.65624 z"
       id="flowRoot13138"
       transform="translate(-138.57487,324.68414)"
       aria-label="2s" />
  </g>
  <g
     id="layer4"
     style="display:inline">
    <rect
       style="color:#000000;display:inline;overflow:visible;fill:#3e00ff;fill-opacity:1;stroke:none;stroke-width:2;stroke-linecap:round;stroke-linejoin:round;stroke-dasharray:none;stroke-opacity:1;stop-color:#000000"
       id="rect7802"
       width="30"
       height="14"
       x="250"
       y="495" />
    <path
       style="font-size:21.3333px;line-height:1.25;font-family:'Liberation Sans';-inkscape-font-specification:'Liberation Sans, Normal';text-align:center;text-anchor:middle"
       d="m 348.53321,158.04486 v -1.80208 h 9.8854 v 1.45833 q -1.45833,1.55208 -2.89583,4.125 -1.42708,2.57291 -2.20833,5.29165 -0.5625,1.91667 -0.71875,4.19791 h -1.92708 q 0.0312,-1.80208 0.70834,-4.35416 0.67708,-2.55208 1.93749,-4.91666 1.27083,-2.37499 2.69792,-3.99999 z"
       id="flowRoot7812"
       transform="translate(-88.38737,366.30931)"
       aria-label="7" />
    <path
       style="font-size:21.3333px;line-height:1.25;font-family:'Liberation Sans';-inkscape-font-specification:'Liberation Sans, Normal';text-align:center;text-anchor:middle"
       d="m 338.27281,171.31567 h -1.875 v -11.94789 q -0.67708,0.64583 -1.78124,1.29166 -1.09375,0.64583 -1.96875,0.96875 v -1.8125 q 1.57291,-0.73958 2.74999,-1.79166 1.17709,-1.05208 1.66667,-2.04167 h 1.20833 z m 4.92708,-13.27081 v -1.80208 h 9.8854 v 1.45833 q -1.45833,1.55208 -2.89583,4.125 -1.42708,2.57291 -2.20833,5.29165 -0.5625,1.91667 -0.71875,4.19791 h -1.92708 q 0.0312,-1.80208 0.70833,-4.35416 0.67708,-2.55208 1.9375,-4.91666 1.27083,-2.37499 2.69791,-3.99999 z m 11.73956,5.73958 q 0,-2.70833 0.55208,-4.35416 0.5625,-1.65625 1.65625,-2.55208 1.10417,-0.89584 2.77083,-0.89584 1.22916,0 2.15625,0.5 0.92708,0.48959 1.53124,1.42708 0.60417,0.92709 0.94792,2.27083 0.34375,1.33334 0.34375,3.60417 0,2.68749 -0.55208,4.34374 -0.55209,1.64583 -1.65625,2.55208 -1.09375,0.89583 -2.77083,0.89583 -2.20833,0 -3.46874,-1.58333 -1.51042,-1.90625 -1.51042,-6.20832 z m 1.92708,0 q 0,3.76041 0.875,5.0104 0.88542,1.23959 2.17708,1.23959 1.29166,0 2.16666,-1.25 0.88542,-1.25 0.88542,-4.99999 0,-3.77083 -0.88542,-5.01041 -0.875,-1.23958 -2.18749,-1.23958 -1.29167,0 -2.0625,1.09374 -0.96875,1.39583 -0.96875,5.15625 z m 9.70832,4.22916 1.85417,-0.29167 q 0.15625,1.11458 0.86458,1.70833 0.71875,0.59375 1.99999,0.59375 1.29167,0 1.91667,-0.52083 0.625,-0.53125 0.625,-1.23959 0,-0.63541 -0.55209,-0.99999 -0.38541,-0.25 -1.91666,-0.63542 -2.0625,-0.52083 -2.86458,-0.89583 -0.79166,-0.38542 -1.20833,-1.05208 -0.40625,-0.67709 -0.40625,-1.48958 0,-0.73959 0.33333,-1.36458 0.34375,-0.63542 0.92709,-1.05209 0.4375,-0.32291 1.18749,-0.54166 0.76042,-0.22917 1.625,-0.22917 1.30208,0 2.28125,0.375 0.98958,0.375 1.45833,1.02083 0.46875,0.63542 0.64583,1.70833 l -1.83333,0.25 q -0.125,-0.85416 -0.72916,-1.33333 -0.59375,-0.47916 -1.6875,-0.47916 -1.29167,0 -1.84375,0.42708 -0.55208,0.42708 -0.55208,1 0,0.36458 0.22916,0.65625 0.22917,0.30208 0.71875,0.49999 0.28125,0.10417 1.65625,0.47917 1.98958,0.53125 2.77083,0.875 0.79167,0.33333 1.23958,0.97916 0.44792,0.64584 0.44792,1.60417 0,0.9375 -0.55209,1.77083 -0.54166,0.82291 -1.57291,1.28125 -1.03125,0.44791 -2.33333,0.44791 -2.15625,0 -3.29166,-0.89583 -1.125,-0.89583 -1.4375,-2.65624 z"
       id="flowRoot13130"
       transform="translate(-88.57487,313.68414)"
       aria-label="170s" />
  </g>
</svg>
