<?xml version="1.0" encoding="UTF-8" standalone="no"?>
<!-- Created with Inkscape (http://www.inkscape.org/) -->

<svg
   width="800"
   height="600"
   id="svg2"
   version="1.1"
   xmlns="http://www.w3.org/2000/svg"
   xmlns:svg="http://www.w3.org/2000/svg"
   xmlns:rdf="http://www.w3.org/1999/02/22-rdf-syntax-ns#"
   xmlns:cc="http://creativecommons.org/ns#"
   xmlns:dc="http://purl.org/dc/elements/1.1/">
  <defs
     id="defs4" />
  <metadata
     id="metadata7">
    <rdf:RDF>
      <cc:Work
         rdf:about="">
        <dc:format>image/svg+xml</dc:format>
        <dc:type
           rdf:resource="http://purl.org/dc/dcmitype/StillImage" />
        <dc:language>en</dc:language>
        <cc:license
           rdf:resource="https://timefold.ai/license" />
      </cc:Work>
    </rdf:RDF>
  </metadata>
  <g
     id="layer4"
     style="display:inline">
    <rect
       ry="5"
       rx="4.999999"
       y="540.5"
       x="30.5"
       height="29"
       width="739"
       id="rect4736"
       style="display:inline;opacity:0.5;fill:#fce94f;stroke:none" />
    <path
       style="font-style:italic;font-size:20px;line-height:1.25;font-family:'Liberation Sans';-inkscape-font-specification:'Arial Italic';text-align:center;text-anchor:middle;fill:#c4a000"
       d="m 696.12793,60.249221 q -0.63477,0.732422 -1.42578,1.181641 -0.78125,0.439453 -1.57227,0.439453 -0.86914,0 -1.68945,-0.507813 -0.82031,-0.507812 -1.33789,-1.5625 -0.50781,-1.054687 -0.50781,-2.314453 0,-1.552734 0.79101,-3.105468 0.80078,-1.5625 1.98242,-2.34375 1.18164,-0.78125 2.29493,-0.78125 0.84961,0 1.62109,0.449218 0.77148,0.439453 1.32812,1.347657 l 0.33204,-1.513672 h 1.74804 l -1.40625,6.552734 q -0.29297,1.367188 -0.29297,1.513672 0,0.263672 0.19532,0.458984 0.20507,0.185547 0.48828,0.185547 0.51758,0 1.35742,-0.595703 1.11328,-0.78125 1.75781,-2.089844 0.6543,-1.318359 0.6543,-2.714843 0,-1.63086 -0.83984,-3.046875 -0.83008,-1.416016 -2.49024,-2.265625 -1.65039,-0.84961 -3.65234,-0.84961 -2.28516,0 -4.17969,1.074219 -1.88477,1.064453 -2.92969,3.066406 -1.03515,1.992188 -1.03515,4.277344 0,2.392578 1.03515,4.121094 1.04492,1.728515 3.00781,2.548828 1.97266,0.830078 4.36524,0.830078 2.55859,0 4.28711,-0.859375 1.72851,-0.859375 2.58789,-2.089844 h 1.76758 q -0.49805,1.025391 -1.70899,2.089844 -1.21093,1.064453 -2.88086,1.679687 -1.66992,0.625 -4.02343,0.625 -2.16797,0 -4.00391,-0.55664 -1.82617,-0.556641 -3.11523,-1.679688 -1.28907,-1.113281 -1.94336,-2.568359 -0.82032,-1.845703 -0.82032,-3.984375 0,-2.382813 0.97657,-4.541016 1.1914,-2.646484 3.3789,-4.052734 2.19727,-1.40625 5.32227,-1.40625 2.42187,0 4.3457,0.996094 1.93359,0.986328 3.04688,2.949218 0.94726,1.689454 0.94726,3.671875 0,2.832032 -1.99219,5.029297 -1.77734,1.972657 -3.88671,1.972657 -0.67383,0 -1.09375,-0.205079 -0.41016,-0.205078 -0.60547,-0.585937 -0.12696,-0.244141 -0.18555,-0.839844 z m -4.72656,-2.646484 q 0,1.33789 0.63476,2.080078 0.63477,0.742187 1.45508,0.742187 0.54688,0 1.15234,-0.322265 0.60547,-0.332031 1.15235,-0.976563 0.55664,-0.644531 0.9082,-1.630859 0.35156,-0.996094 0.35156,-1.992188 0,-1.328125 -0.66406,-2.060546 -0.6543,-0.732422 -1.60156,-0.732422 -0.625,0 -1.18164,0.322265 -0.54688,0.3125 -1.06445,1.015625 -0.51758,0.703125 -0.83008,1.708985 -0.3125,1.005859 -0.3125,1.845703 z m 14.55078,4.238281 2.99805,-14.316406 h 5.97656 q 1.55273,0 2.32422,0.361328 0.78125,0.351562 1.28906,1.220703 0.50781,0.859375 0.50781,1.933594 0,0.888672 -0.36133,1.80664 -0.36132,0.917969 -0.91797,1.513672 -0.54687,0.595703 -1.11328,0.898438 -0.5664,0.302734 -1.21093,0.449219 -1.37696,0.322265 -2.78321,0.322265 h -3.58398 l -1.21094,5.810547 z m 3.4668,-7.431641 h 3.15429 q 1.83594,0 2.69531,-0.390625 0.85938,-0.40039 1.37696,-1.210937 0.51758,-0.810547 0.51758,-1.71875 0,-0.703125 -0.27344,-1.142578 -0.27344,-0.449219 -0.77149,-0.654297 -0.49804,-0.214844 -1.91406,-0.214844 h -3.67187 z m 9.54101,7.431641 2.98828,-14.316406 h 1.76758 l -2.98828,14.316406 z m 11.57227,-1.289062 q -0.91797,0.791015 -1.76758,1.162109 -0.84961,0.361328 -1.81641,0.361328 -1.43554,0 -2.31445,-0.839844 -0.87891,-0.849609 -0.87891,-2.167968 0,-0.869141 0.39063,-1.533204 0.40039,-0.673828 1.05469,-1.074218 0.65429,-0.410157 1.60156,-0.585938 0.5957,-0.117187 2.25586,-0.185547 1.66992,-0.06836 2.39258,-0.351562 0.20507,-0.722656 0.20507,-1.201172 0,-0.615234 -0.44922,-0.966797 -0.61523,-0.488281 -1.79687,-0.488281 -1.11328,0 -1.82617,0.498047 -0.70313,0.488281 -1.02539,1.396484 l -1.78711,-0.15625 q 0.54687,-1.542969 1.72851,-2.363281 1.19141,-0.820313 2.99805,-0.820313 1.92383,0 3.04688,0.917969 0.85937,0.683594 0.85937,1.777344 0,0.830078 -0.24414,1.923828 l -0.57617,2.578125 q -0.27344,1.230469 -0.27344,2.001953 0,0.488281 0.21484,1.40625 h -1.78711 q -0.14648,-0.507812 -0.20507,-1.289062 z m 0.65429,-3.964844 q -0.37109,0.146484 -0.80078,0.224609 -0.41992,0.07813 -1.41601,0.166016 -1.54297,0.136719 -2.17774,0.351562 -0.63476,0.205078 -0.95703,0.664063 -0.32226,0.458984 -0.32226,1.015625 0,0.742187 0.50781,1.220703 0.51758,0.478516 1.46484,0.478516 0.87891,0 1.68945,-0.458985 0.81055,-0.46875 1.2793,-1.298828 0.46875,-0.830078 0.73242,-2.363281 z m 3.47657,5.253906 2.16796,-10.371094 h 1.60157 l -0.38086,1.806641 q 1.04492,-1.064453 1.95312,-1.552734 0.90821,-0.488282 1.85547,-0.488282 1.25977,0 1.97266,0.683594 0.72265,0.683594 0.72265,1.826172 0,0.576172 -0.2539,1.816406 l -1.31836,6.279297 h -1.76758 l 1.37695,-6.572266 q 0.20508,-0.957031 0.20508,-1.416015 0,-0.517578 -0.36133,-0.839844 -0.35156,-0.322266 -1.02539,-0.322266 -1.35742,0 -2.42187,0.976563 -1.05469,0.976562 -1.55274,3.349609 l -1.00586,4.824219 z m 11.12304,0 2.16797,-10.371094 h 1.60156 l -0.38086,1.806641 q 1.04493,-1.064453 1.95313,-1.552734 0.9082,-0.488282 1.85547,-0.488282 1.25976,0 1.97265,0.683594 0.72266,0.683594 0.72266,1.826172 0,0.576172 -0.25391,1.816406 l -1.31835,6.279297 h -1.76758 l 1.37695,-6.572266 q 0.20508,-0.957031 0.20508,-1.416015 0,-0.517578 -0.36133,-0.839844 -0.35156,-0.322266 -1.02539,-0.322266 -1.35742,0 -2.42188,0.976563 -1.05468,0.976562 -1.55273,3.349609 l -1.00586,4.824219 z m 13.63282,-12.314453 0.41992,-2.001953 h 1.75781 l -0.41992,2.001953 z m -2.57813,12.314453 2.16797,-10.371094 h 1.76758 l -2.16797,10.371094 z m 4.51172,0 2.16797,-10.371094 h 1.60156 l -0.38086,1.806641 q 1.04492,-1.064453 1.95313,-1.552734 0.9082,-0.488282 1.85546,-0.488282 1.25977,0 1.97266,0.683594 0.72266,0.683594 0.72266,1.826172 0,0.576172 -0.25391,1.816406 l -1.31836,6.279297 h -1.76758 l 1.37696,-6.572266 q 0.20507,-0.957031 0.20507,-1.416015 0,-0.517578 -0.36132,-0.839844 -0.35157,-0.322266 -1.02539,-0.322266 -1.35743,0 -2.42188,0.976563 -1.05469,0.976562 -1.55273,3.349609 l -1.00586,4.824219 z m 11.02539,0.9375 1.78711,0.166016 q -0.0195,0.605468 0.14648,0.908203 0.16602,0.302734 0.52735,0.46875 0.47851,0.214844 1.24023,0.214844 1.60156,0 2.30469,-0.830079 0.45898,-0.55664 0.84961,-2.421875 l 0.17578,-0.839843 q -1.37695,1.396484 -2.92969,1.396484 -1.57226,0 -2.63672,-1.152344 -1.05468,-1.162109 -1.05468,-3.28125 0,-1.748047 0.83007,-3.21289 0.83985,-1.464844 1.99219,-2.207032 1.15235,-0.751953 2.37305,-0.751953 2.04101,0 3.14453,1.933594 l 0.35156,-1.699219 h 1.6211 l -2.08985,10.009766 q -0.34179,1.650391 -0.89844,2.568359 -0.55664,0.927735 -1.55273,1.435547 -0.98633,0.507813 -2.28516,0.507813 -1.25,0 -2.1582,-0.322266 -0.89844,-0.322266 -1.34766,-0.947266 -0.43945,-0.615234 -0.43945,-1.416015 0,-0.244141 0.0488,-0.527344 z m 2.20703,-5.527344 q 0,1.064453 0.20508,1.601563 0.29297,0.751953 0.83008,1.152344 0.54687,0.390625 1.21093,0.390625 0.86915,0 1.72852,-0.605469 0.85938,-0.615235 1.38672,-1.894531 0.53711,-1.279297 0.53711,-2.441407 0,-1.279297 -0.71289,-2.03125 -0.70313,-0.761718 -1.74805,-0.761718 -0.64453,0 -1.25,0.351562 -0.60547,0.341797 -1.13281,1.054688 -0.51758,0.703125 -0.79102,1.689453 -0.26367,0.986328 -0.26367,1.49414 z m 9.75586,-0.03906 1.875,-0.175781 -0.0195,0.498046 q 0,0.830079 0.38086,1.523438 0.38086,0.683594 1.25976,1.064453 0.87891,0.371094 2.08985,0.371094 1.71875,0 2.61719,-0.751953 0.9082,-0.751953 0.9082,-1.71875 0,-0.673828 -0.47852,-1.230469 -0.48828,-0.546875 -2.66601,-1.484375 -1.68946,-0.732422 -2.30469,-1.123047 -0.9668,-0.634766 -1.42578,-1.376953 -0.45899,-0.751953 -0.45899,-1.708984 0,-1.103516 0.60547,-1.992188 0.60547,-0.888672 1.76758,-1.357422 1.17188,-0.46875 2.63672,-0.46875 1.74805,0 2.94922,0.585938 1.20117,0.585937 1.73828,1.5625 0.54687,0.976562 0.54687,1.865234 0,0.08789 -0.01,0.292969 l -1.8457,0.146484 q 0,-0.605469 -0.10743,-0.947265 -0.19531,-0.595704 -0.60546,-1.00586 -0.41016,-0.410156 -1.13282,-0.654297 -0.71289,-0.253906 -1.60156,-0.253906 -1.5625,0 -2.43164,0.703125 -0.66406,0.537109 -0.66406,1.425781 0,0.527344 0.27343,0.947266 0.27344,0.410156 0.98633,0.810547 0.50782,0.283203 2.41211,1.123047 1.54297,0.683593 2.12891,1.074218 0.78125,0.517579 1.20117,1.259766 0.41992,0.732422 0.41992,1.669922 0,1.162109 -0.71289,2.148437 -0.70312,0.976563 -1.95312,1.513672 -1.25,0.53711 -2.86133,0.53711 -2.43164,0 -3.97461,-1.054688 -1.5332,-1.064453 -1.54297,-3.818359 z m 12.91016,0.693359 q 0,-3.037109 1.78711,-5.029297 1.47461,-1.640625 3.86718,-1.640625 1.875,0 3.01758,1.171875 1.15235,1.171875 1.15235,3.164063 0,1.787109 -0.72266,3.330078 -0.72266,1.533203 -2.06055,2.353516 -1.32812,0.820312 -2.80273,0.820312 -1.21094,0 -2.20703,-0.517578 -0.98633,-0.517578 -1.51368,-1.464844 -0.51757,-0.947265 -0.51757,-2.1875 z m 1.76757,-0.175781 q 0,1.464844 0.70313,2.226562 0.70312,0.751954 1.78711,0.751954 0.56641,0 1.12305,-0.22461 0.55664,-0.234375 1.03515,-0.703125 0.47852,-0.46875 0.81055,-1.064453 0.3418,-0.605469 0.54687,-1.298828 0.30274,-0.966797 0.30274,-1.855469 0,-1.40625 -0.71289,-2.177734 -0.70313,-0.78125 -1.77735,-0.78125 -0.83007,0 -1.51367,0.40039 -0.68359,0.390625 -1.24023,1.152344 -0.54688,0.761719 -0.81055,1.777344 -0.25391,1.005859 -0.25391,1.796875 z m 8.90625,4.111328 2.98829,-14.316406 h 1.76757 l -2.98828,14.316406 z m 11.66016,-1.875 q -1.86523,2.109375 -3.81836,2.109375 -1.20117,0 -1.94336,-0.683594 -0.73242,-0.693359 -0.73242,-1.689453 0,-0.654297 0.33203,-2.246094 l 1.25,-5.986328 h 1.76758 l -1.38672,6.63086 q -0.17578,0.830078 -0.17578,1.289062 0,0.585938 0.35156,0.917969 0.36133,0.322266 1.05469,0.322266 0.74219,0 1.44531,-0.361329 0.71289,-0.361328 1.22071,-0.976562 0.51757,-0.615234 0.83984,-1.455078 0.21484,-0.53711 0.49805,-1.884766 l 0.9375,-4.482422 h 1.76757 l -2.16796,10.371094 h -1.63086 z m 8.17383,0.439453 -0.29297,1.445313 q -0.63477,0.166015 -1.23047,0.166015 -1.05469,0 -1.67969,-0.517578 -0.46875,-0.390625 -0.46875,-1.064453 0,-0.341797 0.25391,-1.572266 l 1.25977,-6.02539 h -1.39649 l 0.2832,-1.367188 h 1.39649 l 0.53711,-2.548828 2.02148,-1.220703 -0.79101,3.769531 h 1.73828 l -0.29297,1.367188 h -1.72852 l -1.20117,5.732422 q -0.22461,1.09375 -0.22461,1.308593 0,0.3125 0.17578,0.478516 0.18555,0.166016 0.59571,0.166016 0.58593,0 1.04492,-0.117188 z m 3.93555,-10.878906 0.41992,-2.001953 h 1.75781 l -0.41992,2.001953 z m -2.57813,12.314453 2.16797,-10.371094 h 1.76758 l -2.16797,10.371094 z m 4.82422,-3.935547 q 0,-3.037109 1.78711,-5.029297 1.47461,-1.640625 3.86719,-1.640625 1.875,0 3.01757,1.171875 1.15235,1.171875 1.15235,3.164063 0,1.787109 -0.72266,3.330078 -0.72265,1.533203 -2.06054,2.353516 -1.32813,0.820312 -2.80274,0.820312 -1.21094,0 -2.20703,-0.517578 -0.98633,-0.517578 -1.51367,-1.464844 -0.51758,-0.947265 -0.51758,-2.1875 z m 1.76758,-0.175781 q 0,1.464844 0.70312,2.226562 0.70313,0.751954 1.78711,0.751954 0.56641,0 1.12305,-0.22461 0.55664,-0.234375 1.03516,-0.703125 0.47851,-0.46875 0.81054,-1.064453 0.3418,-0.605469 0.54688,-1.298828 0.30273,-0.966797 0.30273,-1.855469 0,-1.40625 -0.71289,-2.177734 -0.70312,-0.78125 -1.77734,-0.78125 -0.83008,0 -1.51367,0.40039 -0.6836,0.390625 -1.24024,1.152344 -0.54687,0.761719 -0.81055,1.777344 -0.2539,1.005859 -0.2539,1.796875 z m 9.04297,4.111328 2.16797,-10.371094 h 1.60156 l -0.38086,1.806641 q 1.04492,-1.064453 1.95312,-1.552734 0.90821,-0.488282 1.85547,-0.488282 1.25977,0 1.97266,0.683594 0.72265,0.683594 0.72265,1.826172 0,0.576172 -0.2539,1.816406 l -1.31836,6.279297 h -1.76758 l 1.37695,-6.572266 q 0.20508,-0.957031 0.20508,-1.416015 0,-0.517578 -0.36133,-0.839844 -0.35156,-0.322266 -1.02539,-0.322266 -1.35742,0 -2.42187,0.976563 -1.05469,0.976562 -1.55274,3.349609 l -1.00586,4.824219 z"
       id="flowRoot4348-6-1"
       transform="translate(-370,466.22324)"
       aria-label="@PlanningSolution" />
    <path
       style="font-style:italic;font-size:16px;line-height:1.25;font-family:'Liberation Sans';-inkscape-font-specification:'Arial Italic';fill:#204a87"
       d="m 289.07031,106.64039 q -0.50781,0.58594 -1.14062,0.94532 -0.625,0.35156 -1.25782,0.35156 -0.69531,0 -1.35156,-0.40625 -0.65625,-0.40625 -1.07031,-1.25 -0.40625,-0.84375 -0.40625,-1.85156 0,-1.24219 0.63281,-2.48438 0.64063,-1.25 1.58594,-1.875 0.94531,-0.625 1.83594,-0.625 0.67968,0 1.29687,0.359375 0.61719,0.351565 1.0625,1.078125 l 0.26563,-1.210937 h 1.39843 l -1.125,5.242187 q -0.23437,1.09375 -0.23437,1.21094 0,0.21094 0.15625,0.36719 0.16406,0.14843 0.39062,0.14843 0.41407,0 1.08594,-0.47656 0.89063,-0.625 1.40625,-1.67187 0.52344,-1.05469 0.52344,-2.17188 0,-1.30469 -0.67188,-2.4375 -0.66406,-1.132812 -1.99218,-1.8125 -1.32032,-0.679687 -2.92188,-0.679687 -1.82812,0 -3.34375,0.859375 -1.50781,0.851562 -2.34375,2.453122 -0.82812,1.59375 -0.82812,3.42188 0,1.91406 0.82812,3.29687 0.83594,1.38282 2.40625,2.03907 1.57813,0.66406 3.49219,0.66406 2.04687,0 3.42969,-0.6875 1.38281,-0.6875 2.07031,-1.67188 h 1.41406 q -0.39844,0.82032 -1.36719,1.67188 -0.96875,0.85156 -2.30468,1.34375 -1.33594,0.5 -3.21875,0.5 -1.73438,0 -3.20313,-0.44531 -1.46094,-0.44532 -2.49219,-1.34375 -1.03125,-0.89063 -1.55468,-2.05469 -0.65625,-1.47656 -0.65625,-3.1875 0,-1.90625 0.78125,-3.63281 0.95312,-2.117192 2.70312,-3.242192 1.75781,-1.125 4.25781,-1.125 1.9375,0 3.47657,0.796875 1.54687,0.789062 2.4375,2.359375 0.75781,1.351562 0.75781,2.937502 0,2.26562 -1.59375,4.02344 -1.42188,1.57812 -3.10938,1.57812 -0.53906,0 -0.875,-0.16406 -0.32812,-0.16406 -0.48437,-0.46875 -0.10156,-0.19531 -0.14844,-0.67188 z m -3.78125,-2.11718 q 0,1.07031 0.50781,1.66406 0.50782,0.59375 1.16407,0.59375 0.4375,0 0.92187,-0.25781 0.48438,-0.26563 0.92188,-0.78125 0.44531,-0.51563 0.72656,-1.30469 0.28125,-0.79688 0.28125,-1.59375 0,-1.0625 -0.53125,-1.64844 -0.52344,-0.58594 -1.28125,-0.58594 -0.5,0 -0.94531,0.25782 -0.4375,0.25 -0.85157,0.8125 -0.41406,0.5625 -0.66406,1.36718 -0.25,0.80469 -0.25,1.47657 z m 11.64063,3.39062 2.39843,-11.453125 h 4.78125 q 1.24219,0 1.85938,0.289063 0.625,0.28125 1.03125,0.976562 0.40625,0.6875 0.40625,1.546875 0,0.710938 -0.28906,1.445315 -0.28907,0.73437 -0.73438,1.21094 -0.4375,0.47656 -0.89062,0.71875 -0.45313,0.24218 -0.96875,0.35937 -1.10157,0.25781 -2.22657,0.25781 h -2.86718 l -0.96875,4.64844 z m 2.77343,-5.94531 h 2.52344 q 1.46875,0 2.15625,-0.3125 0.6875,-0.32031 1.10156,-0.96875 0.41407,-0.64844 0.41407,-1.375002 0,-0.5625 -0.21875,-0.914063 -0.21875,-0.359375 -0.61719,-0.523437 -0.39844,-0.171875 -1.53125,-0.171875 h -2.9375 z m 7.63282,5.94531 2.39062,-11.453125 h 1.41406 L 308.75,107.91383 Z m 9.25781,-1.03125 q -0.73438,0.63281 -1.41406,0.92969 -0.67969,0.28906 -1.45313,0.28906 -1.14844,0 -1.85156,-0.67187 -0.70313,-0.67969 -0.70313,-1.73438 0,-0.69531 0.3125,-1.22656 0.32032,-0.53906 0.84375,-0.85938 0.52344,-0.32812 1.28125,-0.46875 0.47657,-0.0937 1.80469,-0.14843 1.33594,-0.0547 1.91406,-0.28125 0.16407,-0.57813 0.16407,-0.96094 0,-0.49219 -0.35938,-0.77344 -0.49219,-0.39062 -1.4375,-0.39062 -0.89062,0 -1.46094,0.39843 -0.5625,0.39063 -0.82031,1.11719 l -1.42969,-0.125 q 0.4375,-1.23437 1.38282,-1.89062 0.95312,-0.656255 2.39843,-0.656255 1.53907,0 2.4375,0.734375 0.6875,0.54688 0.6875,1.42188 0,0.66406 -0.19531,1.53906 l -0.46094,2.0625 q -0.21875,0.98437 -0.21875,1.60156 0,0.39063 0.17188,1.125 h -1.42969 q -0.11719,-0.40625 -0.16406,-1.03125 z m 0.52344,-3.17187 q -0.29688,0.11718 -0.64063,0.17968 -0.33594,0.0625 -1.13281,0.13282 -1.23438,0.10937 -1.74219,0.28125 -0.50781,0.16406 -0.76562,0.53125 -0.25782,0.36718 -0.25782,0.8125 0,0.59375 0.40625,0.97656 0.41407,0.38281 1.17188,0.38281 0.70312,0 1.35156,-0.36719 0.64844,-0.375 1.02344,-1.03906 0.375,-0.66406 0.58594,-1.89062 z m 2.78125,4.20312 1.73437,-8.296875 h 1.28125 l -0.30469,1.445315 q 0.83594,-0.85156 1.5625,-1.24219 0.72657,-0.390625 1.48438,-0.390625 1.00781,0 1.57812,0.546875 0.57813,0.54688 0.57813,1.46094 0,0.46094 -0.20313,1.45312 l -1.05468,5.02344 h -1.41407 l 1.10157,-5.25781 q 0.16406,-0.76563 0.16406,-1.13281 0,-0.41407 -0.28906,-0.67188 -0.28125,-0.25781 -0.82032,-0.25781 -1.08593,0 -1.9375,0.78125 -0.84375,0.78125 -1.24218,2.67969 l -0.80469,3.85937 z m 8.89843,0 1.73438,-8.296875 h 1.28125 l -0.30469,1.445315 q 0.83594,-0.85156 1.5625,-1.24219 0.72656,-0.390625 1.48438,-0.390625 1.00781,0 1.57812,0.546875 0.57813,0.54688 0.57813,1.46094 0,0.46094 -0.20313,1.45312 l -1.05469,5.02344 h -1.41406 l 1.10156,-5.25781 q 0.16407,-0.76563 0.16407,-1.13281 0,-0.41407 -0.28907,-0.67188 -0.28125,-0.25781 -0.82031,-0.25781 -1.08594,0 -1.9375,0.78125 -0.84375,0.78125 -1.24219,2.67969 l -0.80468,3.85937 z m 10.90625,-9.851562 0.33594,-1.601563 h 1.40625 l -0.33594,1.601563 z m -2.0625,9.851562 1.73438,-8.296875 h 1.41406 l -1.73437,8.296875 z m 3.60938,0 1.73437,-8.296875 h 1.28125 l -0.30468,1.445315 q 0.83593,-0.85156 1.5625,-1.24219 0.72656,-0.390625 1.48437,-0.390625 1.00781,0 1.57813,0.546875 0.57812,0.54688 0.57812,1.46094 0,0.46094 -0.20312,1.45312 l -1.05469,5.02344 h -1.41406 l 1.10156,-5.25781 q 0.16406,-0.76563 0.16406,-1.13281 0,-0.41407 -0.28906,-0.67188 -0.28125,-0.25781 -0.82031,-0.25781 -1.08594,0 -1.9375,0.78125 -0.84375,0.78125 -1.24219,2.67969 l -0.80469,3.85937 z m 8.82031,0.75 1.42969,0.13281 q -0.0156,0.48438 0.11719,0.72657 0.13281,0.24218 0.42187,0.375 0.38281,0.17187 0.99219,0.17187 1.28125,0 1.84375,-0.66406 0.36719,-0.44531 0.67969,-1.9375 l 0.14062,-0.67188 q -1.10156,1.11719 -2.34375,1.11719 -1.25781,0 -2.10937,-0.92187 -0.84375,-0.92969 -0.84375,-2.625 0,-1.39844 0.66406,-2.57032 0.67187,-1.17187 1.59375,-1.76562 0.92187,-0.601565 1.89844,-0.601565 1.63281,0 2.51562,1.546875 l 0.28125,-1.359375 h 1.29688 l -1.67188,8.007815 q -0.27344,1.32031 -0.71875,2.05469 -0.44531,0.74218 -1.24219,1.14843 -0.78906,0.40625 -1.82812,0.40625 -1,0 -1.72656,-0.25781 -0.71875,-0.25781 -1.07813,-0.75781 -0.35156,-0.49219 -0.35156,-1.13281 0,-0.19532 0.0391,-0.42188 z m 1.76563,-4.42187 q 0,0.85156 0.16406,1.28125 0.23437,0.60156 0.66406,0.92187 0.4375,0.3125 0.96875,0.3125 0.69531,0 1.38281,-0.48437 0.6875,-0.49219 1.10938,-1.51563 0.42969,-1.02344 0.42969,-1.95312 0,-1.02344 -0.57032,-1.625 -0.5625,-0.60938 -1.39843,-0.60938 -0.51563,0 -1,0.28125 -0.48438,0.27344 -0.90625,0.84375 -0.41407,0.5625 -0.63282,1.35156 -0.21093,0.78907 -0.21093,1.19532 z m 7.39843,3.67187 2.39844,-11.453125 h 8.26563 l -0.27344,1.304688 h -6.73438 l -0.75,3.562497 h 6.5625 l -0.27343,1.30469 h -6.5625 l -0.82813,3.98438 H 368.25 l -0.27344,1.29687 z m 10.48438,0 1.73437,-8.296875 h 1.28125 l -0.30468,1.445315 q 0.83593,-0.85156 1.5625,-1.24219 0.72656,-0.390625 1.48437,-0.390625 1.00781,0 1.57813,0.546875 0.57812,0.54688 0.57812,1.46094 0,0.46094 -0.20312,1.45312 l -1.05469,5.02344 h -1.41406 l 1.10156,-5.25781 q 0.16406,-0.76563 0.16406,-1.13281 0,-0.41407 -0.28906,-0.67188 -0.28125,-0.25781 -0.82031,-0.25781 -1.08594,0 -1.9375,0.78125 -0.84375,0.78125 -1.24219,2.67969 l -0.80469,3.85937 z m 12.20312,-1.14844 -0.23437,1.15625 q -0.50781,0.13282 -0.98438,0.13282 -0.84375,0 -1.34375,-0.41407 -0.375,-0.3125 -0.375,-0.85156 0,-0.27344 0.20313,-1.25781 l 1.00781,-4.82031 h -1.11719 l 0.22657,-1.093755 h 1.11718 l 0.42969,-2.039062 1.61719,-0.976563 -0.63281,3.015625 h 1.39062 l -0.23437,1.093755 h -1.38282 l -0.96093,4.58593 q -0.17969,0.875 -0.17969,1.04688 0,0.25 0.14062,0.38281 0.14844,0.13281 0.47657,0.13281 0.46875,0 0.83593,-0.0937 z m 3.14844,-8.703122 0.33594,-1.601563 h 1.40625 l -0.33594,1.601563 z m -2.0625,9.851562 1.73438,-8.296875 h 1.41406 l -1.73438,8.296875 z m 6.91406,-1.14844 -0.23437,1.15625 q -0.50781,0.13282 -0.98438,0.13282 -0.84375,0 -1.34375,-0.41407 -0.375,-0.3125 -0.375,-0.85156 0,-0.27344 0.20313,-1.25781 l 1.00781,-4.82031 h -1.11719 l 0.22657,-1.093755 h 1.11718 l 0.42969,-2.039062 1.61719,-0.976563 -0.63281,3.015625 h 1.39062 l -0.23437,1.093755 h -1.38282 l -0.96093,4.58593 q -0.17969,0.875 -0.17969,1.04688 0,0.25 0.14062,0.38281 0.14844,0.13281 0.47657,0.13281 0.46875,0 0.83593,-0.0937 z m 0.60938,4.35157 0.0859,-1.32813 q 0.4375,0.125 0.85156,0.125 0.42969,0 0.69531,-0.19531 0.34375,-0.25781 0.75,-0.96875 l 0.45313,-0.8125 -1.38282,-8.320315 H 393.375 L 394,103.81227 q 0.1875,1.24219 0.32031,2.48437 l 3.71094,-6.679685 h 1.47656 l -5.28906,9.398435 q -0.76563,1.375 -1.35938,1.82032 -0.59375,0.44531 -1.36718,0.44531 -0.49219,0 -0.96094,-0.16406 z m 17.64844,-7.23438 1.51562,0.21094 q -0.71875,1.98437 -2.09375,3 -1.375,1.01562 -3.08594,1.01562 -2.08593,0 -3.3125,-1.27343 -1.21875,-1.27344 -1.21875,-3.64844 0,-3.09375 1.85938,-5.11719 1.65625,-1.804687 4.11719,-1.804687 1.82031,0 2.94531,0.976562 1.13281,0.976563 1.3125,2.625 l -1.42969,0.132813 q -0.22656,-1.242188 -0.9375,-1.851563 -0.70312,-0.617187 -1.82031,-0.617187 -2.10156,0 -3.39844,1.867187 -1.125,1.609375 -1.125,3.820315 0,1.76562 0.86719,2.69531 0.86719,0.92969 2.25781,0.92969 1.1875,0 2.14844,-0.77344 0.96094,-0.77344 1.39844,-2.1875 z m 2.6875,0.88281 q 0,-2.42968 1.42968,-4.02343 1.17969,-1.312505 3.09375,-1.312505 1.5,0 2.41407,0.937505 0.92187,0.9375 0.92187,2.53125 0,1.42968 -0.57812,2.66406 -0.57813,1.22656 -1.64844,1.88281 -1.0625,0.65625 -2.24219,0.65625 -0.96875,0 -1.76562,-0.41406 -0.78907,-0.41406 -1.21094,-1.17188 -0.41406,-0.75781 -0.41406,-1.75 z m 1.41406,-0.14062 q 0,1.17187 0.5625,1.78125 0.5625,0.60156 1.42969,0.60156 0.45312,0 0.89843,-0.17969 0.44532,-0.1875 0.82813,-0.5625 0.38281,-0.375 0.64844,-0.85156 0.27343,-0.48437 0.4375,-1.03906 0.24218,-0.77344 0.24218,-1.48438 0,-1.125 -0.57031,-1.74218 -0.5625,-0.625 -1.42187,-0.625 -0.66407,0 -1.21094,0.32031 -0.54688,0.3125 -0.99219,0.92187 -0.4375,0.60938 -0.64844,1.42188 -0.20312,0.80469 -0.20312,1.4375 z m 7.125,3.28906 2.39062,-11.453125 h 1.41407 l -2.39063,11.453125 z m 3.55469,0 2.39062,-11.453125 h 1.41406 L 424.375,107.91383 Z m 9.75781,-2.82031 1.375,0.14062 q -0.29688,1.02344 -1.36719,1.94532 -1.0625,0.92187 -2.53906,0.92187 -0.92188,0 -1.69531,-0.42187 -0.76563,-0.42969 -1.17188,-1.24219 -0.39844,-0.8125 -0.39844,-1.85156 0,-1.35938 0.625,-2.63282 0.63282,-1.28125 1.63282,-1.89843 1,-0.625005 2.16406,-0.625005 1.48437,0 2.36719,0.921875 0.89062,0.92188 0.89062,2.51563 0,0.60937 -0.10937,1.25 h -6.10938 q -0.0312,0.24218 -0.0312,0.4375 0,1.16406 0.53125,1.78125 0.53906,0.60937 1.3125,0.60937 0.72656,0 1.42969,-0.47656 0.70312,-0.47656 1.09375,-1.375 z m -4.10938,-2.05469 h 4.65625 q 0.008,-0.21875 0.008,-0.3125 0,-1.0625 -0.53125,-1.625 -0.53125,-0.57031 -1.36719,-0.57031 -0.90625,0 -1.65625,0.625 -0.74219,0.625 -1.10938,1.88281 z m 12.64063,1.85156 1.41406,0.14844 q -0.53125,1.55469 -1.51562,2.3125 -0.97657,0.75 -2.22657,0.75 -1.35156,0 -2.19531,-0.875 -0.83594,-0.875 -0.83594,-2.44531 0,-1.35938 0.53907,-2.67188 0.53906,-1.3125 1.53906,-1.99218 1.00781,-0.687505 2.29687,-0.687505 1.33594,0 2.11719,0.757815 0.78125,0.75 0.78125,1.99219 l -1.39062,0.0937 q -0.008,-0.78907 -0.46094,-1.23438 -0.44531,-0.44531 -1.17969,-0.44531 -0.85156,0 -1.47656,0.53906 -0.625,0.53906 -0.98438,1.64063 -0.35156,1.09375 -0.35156,2.10937 0,1.0625 0.46875,1.59375 0.46875,0.53125 1.15625,0.53125 0.6875,0 1.3125,-0.52344 0.63281,-0.52343 0.99219,-1.59375 z m 5.57812,1.875 -0.23437,1.15625 q -0.50781,0.13282 -0.98438,0.13282 -0.84375,0 -1.34375,-0.41407 -0.375,-0.3125 -0.375,-0.85156 0,-0.27344 0.20313,-1.25781 l 1.00781,-4.82031 h -1.11719 l 0.22657,-1.093755 h 1.11718 l 0.42969,-2.039062 1.61719,-0.976563 -0.63281,3.015625 h 1.39062 l -0.23437,1.093755 h -1.38282 l -0.96093,4.58593 q -0.17969,0.875 -0.17969,1.04688 0,0.25 0.14062,0.38281 0.14844,0.13281 0.47657,0.13281 0.46875,0 0.83593,-0.0937 z m 3.14844,-8.703122 0.33594,-1.601563 h 1.40625 l -0.33594,1.601563 z m -2.0625,9.851562 1.73438,-8.296875 h 1.41406 l -1.73438,8.296875 z m 3.85938,-3.14844 q 0,-2.42968 1.42968,-4.02343 1.17969,-1.312505 3.09375,-1.312505 1.5,0 2.41407,0.937505 0.92187,0.9375 0.92187,2.53125 0,1.42968 -0.57812,2.66406 -0.57813,1.22656 -1.64844,1.88281 -1.0625,0.65625 -2.24219,0.65625 -0.96875,0 -1.76562,-0.41406 -0.78907,-0.41406 -1.21094,-1.17188 -0.41406,-0.75781 -0.41406,-1.75 z m 1.41406,-0.14062 q 0,1.17187 0.5625,1.78125 0.5625,0.60156 1.42969,0.60156 0.45312,0 0.89843,-0.17969 0.44532,-0.1875 0.82813,-0.5625 0.38281,-0.375 0.64844,-0.85156 0.27343,-0.48437 0.4375,-1.03906 0.24218,-0.77344 0.24218,-1.48438 0,-1.125 -0.57031,-1.74218 -0.5625,-0.625 -1.42187,-0.625 -0.66407,0 -1.21094,0.32031 -0.54688,0.3125 -0.99219,0.92187 -0.4375,0.60938 -0.64844,1.42188 -0.20312,0.80469 -0.20312,1.4375 z m 7.23437,3.28906 1.73438,-8.296875 h 1.28125 l -0.30469,1.445315 q 0.83594,-0.85156 1.5625,-1.24219 0.72656,-0.390625 1.48438,-0.390625 1.00781,0 1.57812,0.546875 0.57813,0.54688 0.57813,1.46094 0,0.46094 -0.20313,1.45312 l -1.05469,5.02344 h -1.41406 l 1.10156,-5.25781 q 0.16407,-0.76563 0.16407,-1.13281 0,-0.41407 -0.28907,-0.67188 -0.28125,-0.25781 -0.82031,-0.25781 -1.08594,0 -1.9375,0.78125 -0.84375,0.78125 -1.24219,2.67969 l -0.80468,3.85937 z m 9.05469,0 2.39844,-11.453125 h 4.78125 q 1.24219,0 1.85937,0.289063 0.625,0.28125 1.03125,0.976562 0.40625,0.6875 0.40625,1.546875 0,0.710938 -0.28906,1.445315 -0.28906,0.73437 -0.73437,1.21094 -0.4375,0.47656 -0.89063,0.71875 -0.45312,0.24218 -0.96875,0.35937 -1.10156,0.25781 -2.22656,0.25781 h -2.86719 l -0.96875,4.64844 z m 2.77344,-5.94531 h 2.52344 q 1.46875,0 2.15625,-0.3125 0.6875,-0.32031 1.10156,-0.96875 0.41406,-0.64844 0.41406,-1.375002 0,-0.5625 -0.21875,-0.914063 -0.21875,-0.359375 -0.61719,-0.523437 -0.39843,-0.171875 -1.53125,-0.171875 h -2.9375 z m 7.74219,5.94531 1.73437,-8.296875 h 1.25 l -0.35156,1.695315 q 0.64062,-0.96094 1.25,-1.421877 0.61719,-0.460938 1.25781,-0.460938 0.42188,0 1.03906,0.304688 l -0.57812,1.312497 q -0.36719,-0.26562 -0.80469,-0.26562 -0.74219,0 -1.52344,0.82812 -0.78125,0.82813 -1.22656,2.97657 l -0.70312,3.32812 z m 5.57812,-3.14844 q 0,-2.42968 1.42969,-4.02343 1.17969,-1.312505 3.09375,-1.312505 1.5,0 2.41406,0.937505 0.92188,0.9375 0.92188,2.53125 0,1.42968 -0.57813,2.66406 -0.57812,1.22656 -1.64844,1.88281 -1.0625,0.65625 -2.24218,0.65625 -0.96875,0 -1.76563,-0.41406 -0.78906,-0.41406 -1.21094,-1.17188 -0.41406,-0.75781 -0.41406,-1.75 z m 1.41406,-0.14062 q 0,1.17187 0.5625,1.78125 0.5625,0.60156 1.42969,0.60156 0.45313,0 0.89844,-0.17969 0.44531,-0.1875 0.82812,-0.5625 0.38282,-0.375 0.64844,-0.85156 0.27344,-0.48437 0.4375,-1.03906 0.24219,-0.77344 0.24219,-1.48438 0,-1.125 -0.57031,-1.74218 -0.5625,-0.625 -1.42188,-0.625 -0.66406,0 -1.21094,0.32031 -0.54687,0.3125 -0.99218,0.92187 -0.4375,0.60938 -0.64844,1.42188 -0.20313,0.80469 -0.20313,1.4375 z m 6.53907,6.46875 2.39843,-11.476565 h 1.30469 l -0.24219,1.156255 q 0.72657,-0.75782 1.29688,-1.04688 0.57812,-0.296875 1.21875,-0.296875 1.1875,0 1.96875,0.867185 0.78125,0.85938 0.78125,2.46875 0,1.29688 -0.42969,2.36719 -0.42969,1.0625 -1.05469,1.71094 -0.625,0.64844 -1.26562,0.95312 -0.64063,0.30469 -1.3125,0.30469 -1.49219,0 -2.3125,-1.51562 l -0.9375,4.50781 z m 2.79687,-6.57031 q 0,0.92968 0.13281,1.28906 0.19532,0.50781 0.64063,0.82031 0.44531,0.3125 1.03125,0.3125 1.21875,0 1.96875,-1.36719 0.75,-1.375 0.75,-2.80468 0,-1.05469 -0.50781,-1.625 -0.5,-0.57813 -1.25,-0.57813 -0.53907,0 -1,0.28906 -0.46094,0.28125 -0.85938,0.85157 -0.39062,0.5625 -0.64844,1.38281 -0.25781,0.82031 -0.25781,1.42969 z m 12.89063,0.57031 1.375,0.14062 q -0.29688,1.02344 -1.36719,1.94532 -1.0625,0.92187 -2.53906,0.92187 -0.92188,0 -1.69532,-0.42187 -0.76562,-0.42969 -1.17187,-1.24219 -0.39844,-0.8125 -0.39844,-1.85156 0,-1.35938 0.625,-2.63282 0.63281,-1.28125 1.63281,-1.89843 1,-0.625005 2.16407,-0.625005 1.48437,0 2.36718,0.921875 0.89063,0.92188 0.89063,2.51563 0,0.60937 -0.10938,1.25 H 504.875 q -0.0312,0.24218 -0.0312,0.4375 0,1.16406 0.53125,1.78125 0.53906,0.60937 1.3125,0.60937 0.72656,0 1.42969,-0.47656 0.70312,-0.47656 1.09375,-1.375 z m -4.10938,-2.05469 h 4.65625 q 0.008,-0.21875 0.008,-0.3125 0,-1.0625 -0.53125,-1.625 -0.53125,-0.57031 -1.36718,-0.57031 -0.90625,0 -1.65625,0.625 -0.74219,0.625 -1.10938,1.88281 z m 6.91406,4.875 1.73438,-8.296875 H 515 l -0.35156,1.695315 q 0.64062,-0.96094 1.25,-1.421877 0.61718,-0.460938 1.25781,-0.460938 0.42187,0 1.03906,0.304688 l -0.57812,1.312497 q -0.36719,-0.26562 -0.80469,-0.26562 -0.74219,0 -1.52344,0.82812 -0.78125,0.82813 -1.22656,2.97657 l -0.70313,3.32812 z m 8.63282,-1.14844 -0.23438,1.15625 q -0.50781,0.13282 -0.98437,0.13282 -0.84375,0 -1.34375,-0.41407 -0.375,-0.3125 -0.375,-0.85156 0,-0.27344 0.20312,-1.25781 l 1.00781,-4.82031 h -1.11718 l 0.22656,-1.093755 h 1.11719 l 0.42968,-2.039062 1.61719,-0.976563 -0.63281,3.015625 h 1.39062 l -0.23437,1.093755 h -1.38281 l -0.96094,4.58593 q -0.17969,0.875 -0.17969,1.04688 0,0.25 0.14063,0.38281 0.14843,0.13281 0.47656,0.13281 0.46875,0 0.83594,-0.0937 z m 0.60937,4.35157 0.0859,-1.32813 q 0.4375,0.125 0.85156,0.125 0.42969,0 0.69531,-0.19531 0.34375,-0.25781 0.75,-0.96875 l 0.45313,-0.8125 -1.38281,-8.320315 h 1.39062 l 0.625,4.195315 q 0.1875,1.24219 0.32031,2.48437 l 3.71094,-6.679685 h 1.47656 l -5.28906,9.398435 q -0.76562,1.375 -1.35937,1.82032 -0.59375,0.44531 -1.36719,0.44531 -0.49219,0 -0.96094,-0.16406 z"
       id="flowRoot3161"
       transform="translate(-150,395.78584)"
       aria-label="@PlanningEntityCollectionProperty" />
  </g>
</svg>
