<?xml version="1.0" encoding="UTF-8" standalone="no"?>
<svg
   width="800"
   height="600"
   id="svg2"
   version="1.1"
   xmlns:xlink="http://www.w3.org/1999/xlink"
   xmlns="http://www.w3.org/2000/svg"
   xmlns:svg="http://www.w3.org/2000/svg"
   xmlns:rdf="http://www.w3.org/1999/02/22-rdf-syntax-ns#"
   xmlns:cc="http://creativecommons.org/ns#"
   xmlns:dc="http://purl.org/dc/elements/1.1/">
  <defs
     id="defs4">
    <linearGradient
       id="linearGradient2807">
      <stop
         id="stop2809"
         offset="0"
         style="stop-color:#ffffff;stop-opacity:1;" />
      <stop
         id="stop2811"
         offset="1"
         style="stop-color:#ffffff;stop-opacity:0;" />
    </linearGradient>
    <marker
       style="overflow:visible"
       id="ArrowTriangleStylized-4"
       refX="0"
       refY="0"
       orient="auto-start-reverse"
       markerWidth="1"
       markerHeight="1"
       viewBox="0 0 1 1"
       preserveAspectRatio="xMidYMid">
      <path
         transform="scale(0.5)"
         style="fill:currentColor;fill:context-stroke;fill-rule:evenodd;stroke:context-stroke;stroke-width:1pt"
         d="m 6,0 c -3,1 -7,3 -9,5 0,0 0,-4 2,-5 -2,-1 -2,-5 -2,-5 2,2 6,4 9,5 z"
         id="path4-4" />
    </marker>
    <marker
       style="overflow:visible"
       id="ArrowTriangleStylized-4_reversed"
       refX="0"
       refY="0"
       orient="auto"
       markerWidth="1"
       markerHeight="1"
       viewBox="0 0 1 1"
       preserveAspectRatio="xMidYMid">
      <g
         transform="rotate(180,0,0)"
         id="g3">
        <path
           transform="scale(0.5)"
           style="fill:currentColor;fill:context-stroke;fill-rule:evenodd;stroke:context-stroke;stroke-width:1pt"
           d="m 6,0 c -3,1 -7,3 -9,5 0,0 0,-4 2,-5 -2,-1 -2,-5 -2,-5 2,2 6,4 9,5 z"
           id="path3" />
      </g>
    </marker>
    <linearGradient
       id="linearGradient20">
      <stop
         style="stop-color:#888a85;stop-opacity:1;"
         offset="0"
         id="stop21" />
      <stop
         style="stop-color:#888a85;stop-opacity:0;"
         offset="1"
         id="stop23" />
    </linearGradient>
    <linearGradient
       xlink:href="#linearGradient20"
       id="linearGradient55"
       gradientUnits="userSpaceOnUse"
       gradientTransform="matrix(1,0,0,1.25,-59.999997,-156.84058)"
       x1="200"
       y1="667.36218"
       x2="180"
       y2="667.36218" />
    <linearGradient
       xlink:href="#linearGradient2807"
       id="linearGradient58"
       gradientUnits="userSpaceOnUse"
       x1="-430"
       y1="224.99963"
       x2="-410"
       y2="224.99963"
       gradientTransform="matrix(1.5,0,0,1,224.99971,452.36291)" />
    <linearGradient
       xlink:href="#linearGradient2807"
       id="linearGradient115"
       gradientUnits="userSpaceOnUse"
       gradientTransform="matrix(1.5,0,0,1,224.99971,622.36291)"
       x1="-430"
       y1="224.99963"
       x2="-410"
       y2="224.99963" />
  </defs>
  <metadata
     id="metadata7">
    <rdf:RDF>
      <cc:Work
         rdf:about="">
        <dc:format>image/svg+xml</dc:format>
        <dc:type
           rdf:resource="http://purl.org/dc/dcmitype/StillImage" />
        <dc:language>en</dc:language>
        <cc:license
           rdf:resource="https://timefold.ai/product/license/" />
      </cc:Work>
    </rdf:RDF>
  </metadata>
  <g
     id="layer1"
     transform="translate(0,-452.36218)"
     style="display:inline">
    <path
       d="M 263.00144,253.62814 V 226.9042 h 5.32291 l 6.32551,18.92186 q 0.875,2.64323 1.27604,3.95573 0.45573,-1.45834 1.42188,-4.28385 l 6.39843,-18.59374 h 4.75781 v 26.72394 h -3.40885 v -22.36717 l -7.76562,22.36717 h -3.1901 l -7.72916,-22.74998 v 22.74998 z m 43.47652,0 v -2.84375 q -2.26041,3.28125 -6.14322,3.28125 -1.71354,0 -3.20833,-0.65625 -1.47656,-0.65625 -2.20573,-1.64063 -0.71094,-1.0026 -1.0026,-2.4427 -0.20052,-0.96615 -0.20052,-3.0625 v -11.99478 h 3.28124 v 10.73697 q 0,2.57031 0.20052,3.46354 0.3099,1.29427 1.3125,2.04166 1.00261,0.72917 2.47917,0.72917 1.47656,0 2.77083,-0.7474 1.29427,-0.76562 1.82291,-2.05989 0.54688,-1.3125 0.54688,-3.79167 v -10.37238 h 3.28124 v 19.35936 z m 8.0026,0 V 226.9042 h 3.28125 v 26.72394 z m 15.53123,-2.9349 0.47396,2.89844 q -1.38541,0.29166 -2.47916,0.29166 -1.78646,0 -2.77083,-0.5651 -0.98438,-0.5651 -1.38542,-1.47656 -0.40104,-0.92969 -0.40104,-3.88281 v -11.13801 h -2.40625 v -2.55208 h 2.40625 v -4.79427 l 3.26302,-1.96875 v 6.76302 h 3.29947 v 2.55208 h -3.29947 v 11.3203 q 0,1.40365 0.16406,1.80469 0.18229,0.40104 0.5651,0.63802 0.40104,0.23698 1.13021,0.23698 0.54687,0 1.4401,-0.12761 z m 3.22657,-20.0156 v -3.77344 h 3.28124 v 3.77344 z m 0,22.9505 v -19.35936 h 3.28124 v 19.35936 z m 8.27603,7.41926 v -26.77862 h 2.98958 v 2.51562 q 1.05729,-1.47656 2.38802,-2.20573 1.33072,-0.74739 3.22655,-0.74739 2.47917,0 4.375,1.27604 1.89583,1.27604 2.86198,3.60937 0.96614,2.3151 0.96614,5.08593 0,2.97136 -1.07552,5.35937 -1.05729,2.36979 -3.09895,3.64583 -2.02344,1.25782 -4.26562,1.25782 -1.64063,0 -2.95313,-0.69271 -1.29427,-0.69271 -2.13281,-1.75 v 9.42447 z m 2.97135,-16.98957 q 0,3.73698 1.51302,5.52343 1.51302,1.78646 3.66406,1.78646 2.18749,0 3.73697,-1.84114 1.56771,-1.85938 1.56771,-5.74219 0,-3.70051 -1.53125,-5.54166 -1.51302,-1.84114 -3.6276,-1.84114 -2.09635,0 -3.71875,1.96875 -1.60416,1.95052 -1.60416,5.68749 z m 17.71874,9.57031 V 226.9042 h 3.28124 v 26.72394 z m 21.61976,-6.23437 3.39063,0.41927 q -0.80209,2.97135 -2.97135,4.61197 -2.16927,1.64063 -5.54167,1.64063 -4.24739,0 -6.74478,-2.60677 -2.47917,-2.625 -2.47917,-7.34635 0,-4.88541 2.51563,-7.58333 2.51562,-2.69791 6.52603,-2.69791 3.88281,0 6.34375,2.64323 2.46093,2.64322 2.46093,7.43749 0,0.29167 -0.0182,0.875 h -14.43749 q 0.1823,3.1901 1.80469,4.88541 1.6224,1.69531 4.04687,1.69531 1.80469,0 3.08073,-0.94791 1.27604,-0.94792 2.02343,-3.02604 z m -10.77342,-5.30469 h 10.80988 q -0.21875,-2.4427 -1.23958,-3.66406 -1.56771,-1.89583 -4.0651,-1.89583 -2.26041,0 -3.80989,1.51302 -1.53125,1.51302 -1.69531,4.04687 z m 35.82028,8.60416 0.47396,2.89844 q -1.38542,0.29166 -2.47917,0.29166 -1.78645,0 -2.77083,-0.5651 -0.98437,-0.5651 -1.38541,-1.47656 -0.40104,-0.92969 -0.40104,-3.88281 v -11.13801 h -2.40625 v -2.55208 h 2.40625 v -4.79427 l 3.26301,-1.96875 v 6.76302 h 3.29948 v 2.55208 h -3.29948 v 11.3203 q 0,1.40365 0.16407,1.80469 0.18229,0.40104 0.5651,0.63802 0.40104,0.23698 1.13021,0.23698 0.54687,0 1.4401,-0.12761 z m 3.22656,-20.0156 v -3.77344 h 3.28125 v 3.77344 z m 0,22.9505 v -19.35936 h 3.28125 v 19.35936 z m 8.27604,0 v -19.35936 h 2.93489 v 2.71614 q 0.91146,-1.42187 2.42448,-2.27864 1.51302,-0.875 3.44531,-0.875 2.15104,0 3.51823,0.89323 1.38541,0.89323 1.95051,2.49739 2.29688,-3.39062 5.97917,-3.39062 2.8802,0 4.42968,1.60416 1.54948,1.58594 1.54948,4.90365 v 13.28905 h -3.26302 v -12.19531 q 0,-1.96874 -0.32812,-2.82551 -0.3099,-0.875 -1.14844,-1.40365 -0.83854,-0.52864 -1.96875,-0.52864 -2.04166,0 -3.39062,1.36718 -1.34896,1.34896 -1.34896,4.33854 v 11.24739 h -3.28125 v -12.57812 q 0,-2.1875 -0.80208,-3.28125 -0.80208,-1.09374 -2.625,-1.09374 -1.38541,0 -2.57031,0.72916 -1.16666,0.72917 -1.69531,2.13281 -0.52864,1.40365 -0.52864,4.04687 v 10.04427 z m 44.35152,-6.23437 3.39062,0.41927 q -0.80209,2.97135 -2.97135,4.61197 -2.16927,1.64063 -5.54167,1.64063 -4.24739,0 -6.74478,-2.60677 -2.47917,-2.625 -2.47917,-7.34635 0,-4.88541 2.51563,-7.58333 2.51562,-2.69791 6.52603,-2.69791 3.88281,0 6.34375,2.64323 2.46093,2.64322 2.46093,7.43749 0,0.29167 -0.0182,0.875 H 453.7695 q 0.18229,3.1901 1.80468,4.88541 1.6224,1.69531 4.04687,1.69531 1.80469,0 3.08073,-0.94791 1.27604,-0.94792 2.02344,-3.02604 z m -10.77343,-5.30469 h 10.80988 q -0.21875,-2.4427 -1.23958,-3.66406 -1.56771,-1.89583 -4.0651,-1.89583 -2.26041,0 -3.80989,1.51302 -1.53125,1.51302 -1.69531,4.04687 z m 26.92445,11.53906 v -2.66146 l 12.32291,-14.14582 q -2.09635,0.10937 -3.70052,0.10937 h -7.89322 v -2.66145 h 15.8229 v 2.16927 l -10.48176,12.28644 -2.02343,2.24219 q 2.20572,-0.16406 4.13801,-0.16406 h 8.95052 v 2.82552 z m 19.17708,-9.67968 q 0,-5.3776 2.98958,-7.96614 2.49739,-2.15104 6.08853,-2.15104 3.99219,0 6.52604,2.625 2.53385,2.60676 2.53385,7.21874 0,3.73698 -1.13021,5.88802 -1.11197,2.13281 -3.26301,3.3177 -2.13281,1.1849 -4.66667,1.1849 -4.0651,0 -6.58072,-2.60677 -2.49739,-2.60677 -2.49739,-7.51041 z m 3.37239,0 q 0,3.71874 1.62239,5.57812 1.6224,1.84114 4.08333,1.84114 2.44271,0 4.0651,-1.85937 1.6224,-1.85938 1.6224,-5.66927 0,-3.59114 -1.64062,-5.43228 -1.6224,-1.85938 -4.04688,-1.85938 -2.46093,0 -4.08333,1.84115 -1.62239,1.84114 -1.62239,5.55989 z m 18.61196,9.67968 v -19.35936 h 2.95312 v 2.7526 q 2.13281,-3.1901 6.16146,-3.1901 1.74999,0 3.20833,0.63802 1.47656,0.61979 2.20572,1.64062 0.72917,1.02083 1.02084,2.42448 0.18229,0.91146 0.18229,3.1901 v 11.90364 h -3.28125 V 241.8521 q 0,-2.0052 -0.38281,-2.98958 -0.38281,-1.0026 -1.36719,-1.58593 -0.96614,-0.60156 -2.27864,-0.60156 -2.09635,0 -3.6276,1.33072 -1.51302,1.33073 -1.51302,5.04948 v 10.57291 z m 34.01559,-6.23437 3.39063,0.41927 q -0.80209,2.97135 -2.97136,4.61197 -2.16926,1.64063 -5.54166,1.64063 -4.24739,0 -6.74478,-2.60677 -2.47917,-2.625 -2.47917,-7.34635 0,-4.88541 2.51562,-7.58333 2.51563,-2.69791 6.52604,-2.69791 3.88281,0 6.34375,2.64323 2.46093,2.64322 2.46093,7.43749 0,0.29167 -0.0182,0.875 h -14.43749 q 0.1823,3.1901 1.80469,4.88541 1.62239,1.69531 4.04687,1.69531 1.80469,0 3.08073,-0.94791 1.27604,-0.94792 2.02343,-3.02604 z m -10.77342,-5.30469 h 10.80988 q -0.21875,-2.4427 -1.23958,-3.66406 -1.56771,-1.89583 -4.0651,-1.89583 -2.26042,0 -3.80989,1.51302 -1.53125,1.51302 -1.69531,4.04687 z m 16.97133,5.76042 3.24479,-0.51042 q 0.27344,1.95052 1.51302,2.98958 1.25781,1.03906 3.5,1.03906 2.26041,0 3.35416,-0.91146 1.09375,-0.92968 1.09375,-2.16926 0,-1.11198 -0.96614,-1.75 -0.67448,-0.4375 -3.35417,-1.11198 -3.60937,-0.91146 -5.01301,-1.56771 -1.38542,-0.67448 -2.11459,-1.84114 -0.71093,-1.1849 -0.71093,-2.60677 0,-1.29427 0.58333,-2.38802 0.60156,-1.11198 1.62239,-1.84114 0.76563,-0.56511 2.07813,-0.94792 1.33073,-0.40104 2.84375,-0.40104 2.27864,0 3.99218,0.65625 1.73177,0.65625 2.55208,1.78645 0.82031,1.11198 1.13021,2.98959 l -3.20833,0.43749 q -0.21875,-1.49479 -1.27604,-2.33333 -1.03906,-0.83854 -2.95313,-0.83854 -2.26041,0 -3.22656,0.7474 -0.96614,0.74739 -0.96614,1.75 0,0.63802 0.40104,1.14843 0.40104,0.52865 1.25781,0.875 0.49219,0.18229 2.89844,0.83854 3.48177,0.92969 4.84895,1.53125 1.38542,0.58333 2.16927,1.71354 0.78385,1.13021 0.78385,2.80729 0,1.64062 -0.96614,3.09896 -0.94792,1.4401 -2.7526,2.24218 -1.80469,0.78386 -4.08333,0.78386 -3.77344,0 -5.76041,-1.56771 -1.96875,-1.56771 -2.51563,-4.64843 z"
       id="flowRoot4302"
       style="font-size:37.3333px;font-family:'Liberation Sans';-inkscape-font-specification:'Liberation Sans, Normal';text-align:center;text-anchor:middle"
       transform="translate(-20,252.36213)"
       aria-label="Multiple time zones" />
    <g
       id="g3709"
       transform="translate(0,19.999997)" />
    <path
       style="font-size:16px;line-height:1.25;font-family:'Liberation Sans';-inkscape-font-specification:'Liberation Sans, Normal';text-align:center;text-anchor:middle"
       d="m 196.375,158.83395 q 0,-2.85157 1.53125,-4.46094 1.53125,-1.61719 3.95312,-1.61719 1.58594,0 2.85938,0.75781 1.27344,0.75782 1.9375,2.11719 0.67187,1.35156 0.67187,3.07031 0,1.74219 -0.70312,3.11719 -0.70313,1.375 -1.99219,2.08594 -1.28906,0.70312 -2.78125,0.70312 -1.61719,0 -2.89062,-0.78125 -1.27344,-0.78125 -1.92969,-2.13281 -0.65625,-1.35156 -0.65625,-2.85937 z m 1.5625,0.0234 q 0,2.07032 1.10937,3.26563 1.11719,1.1875 2.79688,1.1875 1.71094,0 2.8125,-1.20313 1.10937,-1.20312 1.10937,-3.41406 0,-1.39844 -0.47656,-2.4375 -0.46875,-1.04687 -1.38281,-1.61719 -0.90625,-0.57812 -2.03906,-0.57812 -1.60938,0 -2.77344,1.10937 -1.15625,1.10157 -1.15625,3.6875 z m 11.16406,5.55469 v -8.29687 h 1.26563 v 1.17968 q 0.91406,-1.36718 2.64062,-1.36718 0.75,0 1.375,0.27343 0.63281,0.26563 0.94531,0.70313 0.3125,0.4375 0.4375,1.03906 0.0781,0.39063 0.0781,1.36719 v 5.10156 h -1.40625 v -5.04687 q 0,-0.85938 -0.16406,-1.28125 -0.16407,-0.42969 -0.58594,-0.67969 -0.41406,-0.25781 -0.97656,-0.25781 -0.89844,0 -1.55469,0.57031 -0.64844,0.57031 -0.64844,2.16406 v 4.53125 z m 8.86719,0 v -11.45312 h 1.40625 v 11.45312 z m 3.52344,3.19531 -0.15625,-1.32031 q 0.46093,0.125 0.80468,0.125 0.46875,0 0.75,-0.15625 0.28125,-0.15625 0.46094,-0.4375 0.13281,-0.21094 0.42969,-1.04687 0.0391,-0.11719 0.125,-0.34375 l -3.14844,-8.3125 h 1.51563 L 224,160.91988 q 0.33594,0.91407 0.60156,1.92188 0.24219,-0.96875 0.57813,-1.89063 l 1.77343,-4.83593 h 1.40625 l -3.15625,8.4375 q -0.50781,1.36718 -0.78906,1.88281 -0.375,0.69531 -0.85937,1.01562 -0.48438,0.32813 -1.15625,0.32813 -0.40625,0 -0.90625,-0.17188 z m 17.89062,-3.19531 v -1.04687 q -0.78906,1.23437 -2.32031,1.23437 -0.99219,0 -1.82813,-0.54687 -0.82812,-0.54688 -1.28906,-1.52344 -0.45312,-0.98438 -0.45312,-2.25781 0,-1.24219 0.41406,-2.25 0.41406,-1.01563 1.24219,-1.55469 0.82812,-0.53906 1.85156,-0.53906 0.75,0 1.33594,0.32031 0.58593,0.3125 0.95312,0.82031 v -4.10937 h 1.39844 v 11.45312 z m -4.44531,-4.14062 q 0,1.59375 0.67187,2.38281 0.67188,0.78906 1.58594,0.78906 0.92188,0 1.5625,-0.75 0.64844,-0.75781 0.64844,-2.30469 0,-1.70312 -0.65625,-2.5 -0.65625,-0.79687 -1.61719,-0.79687 -0.9375,0 -1.57031,0.76562 -0.625,0.76563 -0.625,2.41407 z m 13.375,3.11718 q -0.78125,0.66407 -1.50781,0.9375 -0.71875,0.27344 -1.54688,0.27344 -1.36719,0 -2.10156,-0.66406 -0.73438,-0.67188 -0.73438,-1.71094 0,-0.60937 0.27344,-1.10937 0.28125,-0.50782 0.72656,-0.8125 0.45313,-0.30469 1.01563,-0.46094 0.41406,-0.10938 1.25,-0.21094 1.70312,-0.20312 2.50781,-0.48437 0.008,-0.28907 0.008,-0.36719 0,-0.85938 -0.39843,-1.21094 -0.53907,-0.47656 -1.60157,-0.47656 -0.99218,0 -1.46875,0.35156 -0.46875,0.34375 -0.69531,1.22656 l -1.375,-0.1875 q 0.1875,-0.88281 0.61719,-1.42187 0.42969,-0.54688 1.24219,-0.83594 0.8125,-0.29687 1.88281,-0.29687 1.0625,0 1.72656,0.25 0.66406,0.25 0.97656,0.63281 0.3125,0.375 0.4375,0.95312 0.0703,0.35938 0.0703,1.29688 v 1.875 q 0,1.96094 0.0859,2.48437 0.0937,0.51563 0.35938,0.99219 h -1.46875 q -0.21875,-0.4375 -0.28125,-1.02344 z m -0.11719,-3.14062 q -0.76562,0.3125 -2.29687,0.53125 -0.86719,0.125 -1.22657,0.28125 -0.35937,0.15625 -0.55468,0.46094 -0.19532,0.29687 -0.19532,0.66406 0,0.5625 0.42188,0.9375 0.42969,0.375 1.25,0.375 0.8125,0 1.44531,-0.35156 0.63281,-0.35938 0.92969,-0.97657 0.22656,-0.47656 0.22656,-1.40625 z m 6.67188,2.90625 0.20312,1.24219 q -0.59375,0.125 -1.0625,0.125 -0.76562,0 -1.1875,-0.24219 -0.42187,-0.24219 -0.59375,-0.63281 -0.17187,-0.39844 -0.17187,-1.66407 v -4.77343 h -1.03125 v -1.09375 h 1.03125 v -2.05469 l 1.39843,-0.84375 v 2.89844 h 1.41407 v 1.09375 h -1.41407 v 4.85156 q 0,0.60156 0.0703,0.77344 0.0781,0.17187 0.24218,0.27343 0.17188,0.10157 0.48438,0.10157 0.23437,0 0.61719,-0.0547 z m 7.05468,-1.41406 1.45313,0.17968 q -0.34375,1.27344 -1.27344,1.97657 -0.92969,0.70312 -2.375,0.70312 -1.82031,0 -2.89062,-1.11719 -1.0625,-1.125 -1.0625,-3.14843 0,-2.09375 1.07812,-3.25 1.07813,-1.15625 2.79688,-1.15625 1.66406,0 2.71875,1.13281 1.05468,1.13281 1.05468,3.1875 0,0.125 -0.008,0.375 h -6.1875 q 0.0781,1.36719 0.77344,2.09375 0.69531,0.72656 1.73437,0.72656 0.77344,0 1.32032,-0.40625 0.54687,-0.40625 0.86718,-1.29687 z m -4.61718,-2.27344 h 4.63281 q -0.0937,-1.04688 -0.53125,-1.57031 -0.67188,-0.8125 -1.74219,-0.8125 -0.96875,0 -1.63281,0.64843 -0.65625,0.64844 -0.72656,1.73438 z m 10.90625,3.6875 0.20312,1.24219 q -0.59375,0.125 -1.0625,0.125 -0.76562,0 -1.1875,-0.24219 -0.42187,-0.24219 -0.59375,-0.63281 -0.17187,-0.39844 -0.17187,-1.66407 v -4.77343 h -1.03125 v -1.09375 h 1.03125 v -2.05469 l 1.39843,-0.84375 v 2.89844 h 1.41407 v 1.09375 h -1.41407 v 4.85156 q 0,0.60156 0.0703,0.77344 0.0781,0.17187 0.24218,0.27343 0.17188,0.10157 0.48438,0.10157 0.23437,0 0.61719,-0.0547 z m 1.38281,-8.57813 v -1.61718 H 271 v 1.61718 z m 0,9.83594 V 156.1152 H 271 v 8.29687 z m 3.54687,0 v -8.29687 h 1.25782 v 1.16406 q 0.39062,-0.60938 1.03906,-0.97656 0.64844,-0.375 1.47656,-0.375 0.92188,0 1.50781,0.38281 0.59375,0.38281 0.83594,1.07031 0.98438,-1.45312 2.5625,-1.45312 1.23438,0 1.89844,0.6875 0.66406,0.67968 0.66406,2.10156 v 5.69531 h -1.39844 v -5.22656 q 0,-0.84375 -0.14062,-1.21094 -0.13281,-0.375 -0.49219,-0.60156 -0.35937,-0.22656 -0.84375,-0.22656 -0.875,0 -1.45312,0.58593 -0.57813,0.57813 -0.57813,1.85938 v 4.82031 h -1.40625 v -5.39062 q 0,-0.9375 -0.34375,-1.40625 -0.34375,-0.46875 -1.125,-0.46875 -0.59375,0 -1.10156,0.3125 -0.5,0.3125 -0.72656,0.91406 -0.22657,0.60156 -0.22657,1.73437 v 4.30469 z m 19.00782,-2.67187 1.45312,0.17968 q -0.34375,1.27344 -1.27344,1.97657 -0.92968,0.70312 -2.375,0.70312 -1.82031,0 -2.89062,-1.11719 -1.0625,-1.125 -1.0625,-3.14843 0,-2.09375 1.07812,-3.25 1.07813,-1.15625 2.79688,-1.15625 1.66406,0 2.71875,1.13281 1.05469,1.13281 1.05469,3.1875 0,0.125 -0.008,0.375 h -6.1875 q 0.0781,1.36719 0.77344,2.09375 0.69531,0.72656 1.73438,0.72656 0.77343,0 1.32031,-0.40625 0.54687,-0.40625 0.86719,-1.29687 z m -4.61719,-2.27344 h 4.63281 q -0.0937,-1.04688 -0.53125,-1.57031 -0.67187,-0.8125 -1.74219,-0.8125 -0.96875,0 -1.63281,0.64843 -0.65625,0.64844 -0.72656,1.73438 z m 7.27344,2.46875 1.39062,-0.21875 q 0.11719,0.83594 0.64844,1.28125 0.53906,0.44531 1.5,0.44531 0.96875,0 1.4375,-0.39062 0.46875,-0.39844 0.46875,-0.92969 0,-0.47656 -0.41406,-0.75 -0.28907,-0.1875 -1.4375,-0.47656 -1.54688,-0.39063 -2.14844,-0.67188 -0.59375,-0.28906 -0.90625,-0.78906 -0.30469,-0.50781 -0.30469,-1.11719 0,-0.55469 0.25,-1.02344 0.25781,-0.47656 0.69531,-0.78906 0.32813,-0.24219 0.89063,-0.40625 0.57031,-0.17187 1.21875,-0.17187 0.97656,0 1.71094,0.28125 0.74218,0.28125 1.09375,0.76562 0.35156,0.47656 0.48437,1.28125 l -1.375,0.1875 q -0.0937,-0.64062 -0.54687,-1 -0.44532,-0.35937 -1.26563,-0.35937 -0.96875,0 -1.38281,0.32031 -0.41406,0.32031 -0.41406,0.75 0,0.27344 0.17187,0.49219 0.17188,0.22656 0.53906,0.375 0.21094,0.0781 1.24219,0.35937 1.49219,0.39844 2.07813,0.65625 0.59375,0.25 0.92968,0.73438 0.33594,0.48437 0.33594,1.20312 0,0.70313 -0.41406,1.32813 -0.40625,0.61718 -1.17969,0.96093 -0.77344,0.33594 -1.75,0.33594 -1.61719,0 -2.46875,-0.67187 -0.84375,-0.67188 -1.07812,-1.99219 z m 13.01562,-7.35938 v -1.61718 h 1.40625 v 1.61718 z m 0,9.83594 v -8.29687 h 1.40625 v 8.29687 z m 3.54688,0 v -8.29687 h 1.26562 v 1.17968 q 0.91406,-1.36718 2.64063,-1.36718 0.75,0 1.375,0.27343 0.63281,0.26563 0.94531,0.70313 0.3125,0.4375 0.4375,1.03906 0.0781,0.39063 0.0781,1.36719 v 5.10156 h -1.40625 v -5.04687 q 0,-0.85938 -0.16406,-1.28125 -0.16406,-0.42969 -0.58594,-0.67969 -0.41406,-0.25781 -0.97656,-0.25781 -0.89844,0 -1.55469,0.57031 -0.64843,0.57031 -0.64843,2.16406 v 4.53125 z m 12.82031,-4.14844 q 0,-2.30468 1.28125,-3.41406 1.07031,-0.92187 2.60937,-0.92187 1.71094,0 2.79688,1.125 1.08594,1.11718 1.08594,3.09375 0,1.60156 -0.48438,2.52343 -0.47656,0.91407 -1.39844,1.42188 -0.91406,0.50781 -2,0.50781 -1.74218,0 -2.82031,-1.11719 -1.07031,-1.11718 -1.07031,-3.21875 z m 1.44531,0 q 0,1.59375 0.69531,2.39063 0.69532,0.78906 1.75,0.78906 1.04688,0 1.74219,-0.79687 0.69531,-0.79688 0.69531,-2.42969 0,-1.53906 -0.70312,-2.32813 -0.69531,-0.79687 -1.73438,-0.79687 -1.05468,0 -1.75,0.78906 -0.69531,0.78906 -0.69531,2.38281 z m 8.3125,4.14844 v -7.20312 h -1.24219 v -1.09375 h 1.24219 v -0.88282 q 0,-0.83593 0.14844,-1.24218 0.20312,-0.54688 0.71094,-0.88282 0.51562,-0.34375 1.4375,-0.34375 0.59375,0 1.3125,0.14063 l -0.21094,1.22656 q -0.4375,-0.0781 -0.82813,-0.0781 -0.64062,0 -0.90625,0.27343 -0.26562,0.27344 -0.26562,1.02344 v 0.76563 h 1.61719 v 1.09375 h -1.61719 v 7.20312 z m 4.15625,0 v -7.20312 h -1.24219 v -1.09375 h 1.24219 v -0.88282 q 0,-0.83593 0.14844,-1.24218 0.20312,-0.54688 0.71094,-0.88282 0.51562,-0.34375 1.4375,-0.34375 0.59375,0 1.3125,0.14063 L 341.5,154.13082 q -0.4375,-0.0781 -0.82813,-0.0781 -0.64062,0 -0.90625,0.27343 -0.26562,0.27344 -0.26562,1.02344 v 0.76563 h 1.61719 v 1.09375 H 339.5 v 7.20312 z m 3.54688,-2.47656 1.39062,-0.21875 q 0.11719,0.83594 0.64844,1.28125 0.53906,0.44531 1.5,0.44531 0.96875,0 1.4375,-0.39062 0.46875,-0.39844 0.46875,-0.92969 0,-0.47656 -0.41406,-0.75 -0.28907,-0.1875 -1.4375,-0.47656 -1.54688,-0.39063 -2.14844,-0.67188 -0.59375,-0.28906 -0.90625,-0.78906 -0.30469,-0.50781 -0.30469,-1.11719 0,-0.55469 0.25,-1.02344 0.25781,-0.47656 0.69531,-0.78906 0.32813,-0.24219 0.89063,-0.40625 0.57031,-0.17187 1.21875,-0.17187 0.97656,0 1.71094,0.28125 0.74218,0.28125 1.09375,0.76562 0.35156,0.47656 0.48437,1.28125 l -1.375,0.1875 q -0.0937,-0.64062 -0.54687,-1 -0.44532,-0.35937 -1.26563,-0.35937 -0.96875,0 -1.38281,0.32031 -0.41406,0.32031 -0.41406,0.75 0,0.27344 0.17187,0.49219 0.17188,0.22656 0.53906,0.375 0.21094,0.0781 1.24219,0.35937 1.49219,0.39844 2.07813,0.65625 0.59375,0.25 0.92968,0.73438 0.33594,0.48437 0.33594,1.20312 0,0.70313 -0.41406,1.32813 -0.40625,0.61718 -1.17969,0.96093 -0.77344,0.33594 -1.75,0.33594 -1.61719,0 -2.46875,-0.67187 -0.84375,-0.67188 -1.07812,-1.99219 z m 14.24218,-0.19531 1.45313,0.17968 q -0.34375,1.27344 -1.27344,1.97657 -0.92969,0.70312 -2.375,0.70312 -1.82031,0 -2.89062,-1.11719 -1.0625,-1.125 -1.0625,-3.14843 0,-2.09375 1.07812,-3.25 1.07813,-1.15625 2.79688,-1.15625 1.66406,0 2.71875,1.13281 1.05468,1.13281 1.05468,3.1875 0,0.125 -0.008,0.375 h -6.1875 q 0.0781,1.36719 0.77344,2.09375 0.69531,0.72656 1.73437,0.72656 0.77344,0 1.32032,-0.40625 0.54687,-0.40625 0.86718,-1.29687 z m -4.61718,-2.27344 h 4.63281 q -0.0937,-1.04688 -0.53125,-1.57031 -0.67188,-0.8125 -1.74219,-0.8125 -0.96875,0 -1.63281,0.64843 -0.65625,0.64844 -0.72656,1.73438 z m 10.90625,3.6875 0.20312,1.24219 q -0.59375,0.125 -1.0625,0.125 -0.76562,0 -1.1875,-0.24219 -0.42187,-0.24219 -0.59375,-0.63281 -0.17187,-0.39844 -0.17187,-1.66407 v -4.77343 h -1.03125 v -1.09375 h 1.03125 v -2.05469 l 1.39843,-0.84375 v 2.89844 h 1.41407 v 1.09375 h -1.41407 v 4.85156 q 0,0.60156 0.0703,0.77344 0.0781,0.17187 0.24218,0.27343 0.17188,0.10157 0.48438,0.10157 0.23437,0 0.61719,-0.0547 z m 5.29687,-2.89063 q 0,-2.30468 1.28125,-3.41406 1.07031,-0.92187 2.60938,-0.92187 1.71093,0 2.79687,1.125 1.08594,1.11718 1.08594,3.09375 0,1.60156 -0.48438,2.52343 -0.47656,0.91407 -1.39843,1.42188 -0.91407,0.50781 -2,0.50781 -1.74219,0 -2.82032,-1.11719 -1.07031,-1.11718 -1.07031,-3.21875 z m 1.44531,0 q 0,1.59375 0.69532,2.39063 0.69531,0.78906 1.75,0.78906 1.04687,0 1.74218,-0.79687 0.69532,-0.79688 0.69532,-2.42969 0,-1.53906 -0.70313,-2.32813 -0.69531,-0.79687 -1.73437,-0.79687 -1.05469,0 -1.75,0.78906 -0.69532,0.78906 -0.69532,2.38281 z m 7.96094,4.14844 v -8.29687 h 1.26563 v 1.25781 q 0.48437,-0.88281 0.89062,-1.16406 0.41406,-0.28125 0.90625,-0.28125 0.71094,0 1.44531,0.45312 l -0.48437,1.30469 q -0.51563,-0.30469 -1.03125,-0.30469 -0.46094,0 -0.82813,0.28125 -0.36718,0.27344 -0.52343,0.76563 -0.23438,0.75 -0.23438,1.64062 v 4.34375 z m 17.48438,-11.45312 h 1.51562 v 6.61718 q 0,1.72657 -0.39062,2.74219 -0.39063,1.01563 -1.41407,1.65625 -1.01562,0.63281 -2.67187,0.63281 -1.60938,0 -2.63281,-0.55468 -1.02344,-0.55469 -1.46094,-1.60157 -0.4375,-1.05468 -0.4375,-2.875 v -6.61718 h 1.51562 v 6.60937 q 0,1.49219 0.27344,2.20313 0.28125,0.70312 0.95313,1.08593 0.67968,0.38282 1.65625,0.38282 1.67187,0 2.38281,-0.75782 0.71094,-0.75781 0.71094,-2.91406 z m 6.95312,11.45312 v -10.10156 h -3.77344 v -1.35156 h 9.07813 v 1.35156 h -3.78906 v 10.10156 z m 15.03125,-4.01562 1.51563,0.38281 q -0.47657,1.86719 -1.71875,2.85156 -1.23438,0.97656 -3.02344,0.97656 -1.85156,0 -3.01563,-0.75 -1.15625,-0.75781 -1.76562,-2.1875 -0.60156,-1.42968 -0.60156,-3.07031 0,-1.78906 0.67968,-3.11719 0.6875,-1.33593 1.94532,-2.02343 1.26562,-0.69532 2.78125,-0.69532 1.71875,0 2.89062,0.875 1.17188,0.875 1.63281,2.46094 l -1.49218,0.35156 q -0.39844,-1.25 -1.15625,-1.82031 -0.75782,-0.57031 -1.90625,-0.57031 -1.32032,0 -2.21094,0.63281 -0.88281,0.63281 -1.24219,1.70313 -0.35937,1.0625 -0.35937,2.19531 0,1.46094 0.42187,2.55469 0.42969,1.08593 1.32813,1.625 0.89843,0.53906 1.94531,0.53906 1.27344,0 2.15625,-0.73438 0.88281,-0.73437 1.19531,-2.17968 z m 7.98438,4.01562 v -7.20312 h -1.24219 v -1.09375 h 1.24219 v -0.88282 q 0,-0.83593 0.14843,-1.24218 0.20313,-0.54688 0.71094,-0.88282 0.51563,-0.34375 1.4375,-0.34375 0.59375,0 1.3125,0.14063 l -0.21094,1.22656 q -0.4375,-0.0781 -0.82812,-0.0781 -0.64063,0 -0.90625,0.27343 -0.26563,0.27344 -0.26563,1.02344 v 0.76563 h 1.61719 v 1.09375 h -1.61719 v 7.20312 z m 3.58593,-4.14844 q 0,-2.30468 1.28125,-3.41406 1.07032,-0.92187 2.60938,-0.92187 1.71094,0 2.79687,1.125 1.08594,1.11718 1.08594,3.09375 0,1.60156 -0.48437,2.52343 -0.47657,0.91407 -1.39844,1.42188 -0.91406,0.50781 -2,0.50781 -1.74219,0 -2.82031,-1.11719 -1.07032,-1.11718 -1.07032,-3.21875 z m 1.44532,0 q 0,1.59375 0.69531,2.39063 0.69531,0.78906 1.75,0.78906 1.04687,0 1.74219,-0.79687 0.69531,-0.79688 0.69531,-2.42969 0,-1.53906 -0.70313,-2.32813 -0.69531,-0.79687 -1.73437,-0.79687 -1.05469,0 -1.75,0.78906 -0.69531,0.78906 -0.69531,2.38281 z m 7.96093,4.14844 v -8.29687 h 1.26563 v 1.25781 q 0.48437,-0.88281 0.89062,-1.16406 0.41407,-0.28125 0.90625,-0.28125 0.71094,0 1.44532,0.45312 l -0.48438,1.30469 q -0.51562,-0.30469 -1.03125,-0.30469 -0.46094,0 -0.82812,0.28125 -0.36719,0.27344 -0.52344,0.76563 -0.23438,0.75 -0.23438,1.64062 v 4.34375 z m 5.34375,0 v -8.29687 h 1.25782 v 1.16406 q 0.39062,-0.60938 1.03906,-0.97656 0.64844,-0.375 1.47656,-0.375 0.92188,0 1.50781,0.38281 0.59375,0.38281 0.83594,1.07031 0.98438,-1.45312 2.5625,-1.45312 1.23438,0 1.89844,0.6875 0.66406,0.67968 0.66406,2.10156 v 5.69531 h -1.39844 v -5.22656 q 0,-0.84375 -0.14062,-1.21094 -0.13281,-0.375 -0.49219,-0.60156 -0.35937,-0.22656 -0.84375,-0.22656 -0.875,0 -1.45312,0.58593 -0.57813,0.57813 -0.57813,1.85938 v 4.82031 h -1.40625 v -5.39062 q 0,-0.9375 -0.34375,-1.40625 -0.34375,-0.46875 -1.125,-0.46875 -0.59375,0 -1.10156,0.3125 -0.5,0.3125 -0.72656,0.91406 -0.22657,0.60156 -0.22657,1.73437 v 4.30469 z m 18.74219,-1.02344 q -0.78125,0.66407 -1.50781,0.9375 -0.71875,0.27344 -1.54688,0.27344 -1.36718,0 -2.10156,-0.66406 -0.73437,-0.67188 -0.73437,-1.71094 0,-0.60937 0.27343,-1.10937 0.28125,-0.50782 0.72657,-0.8125 0.45312,-0.30469 1.01562,-0.46094 0.41406,-0.10938 1.25,-0.21094 1.70313,-0.20312 2.50781,-0.48437 0.008,-0.28907 0.008,-0.36719 0,-0.85938 -0.39844,-1.21094 -0.53906,-0.47656 -1.60156,-0.47656 -0.99219,0 -1.46875,0.35156 -0.46875,0.34375 -0.69532,1.22656 l -1.375,-0.1875 q 0.1875,-0.88281 0.61719,-1.42187 0.42969,-0.54688 1.24219,-0.83594 0.8125,-0.29687 1.88281,-0.29687 1.0625,0 1.72656,0.25 0.66407,0.25 0.97657,0.63281 0.3125,0.375 0.4375,0.95312 0.0703,0.35938 0.0703,1.29688 v 1.875 q 0,1.96094 0.0859,2.48437 0.0937,0.51563 0.35937,0.99219 h -1.46875 q -0.21875,-0.4375 -0.28125,-1.02344 z m -0.11719,-3.14062 q -0.76562,0.3125 -2.29687,0.53125 -0.86719,0.125 -1.22656,0.28125 -0.35938,0.15625 -0.55469,0.46094 -0.19531,0.29687 -0.19531,0.66406 0,0.5625 0.42187,0.9375 0.42969,0.375 1.25,0.375 0.8125,0 1.44531,-0.35156 0.63282,-0.35938 0.92969,-0.97657 0.22656,-0.47656 0.22656,-1.40625 z m 6.67188,2.90625 0.20312,1.24219 q -0.59375,0.125 -1.0625,0.125 -0.76562,0 -1.1875,-0.24219 -0.42187,-0.24219 -0.59375,-0.63281 -0.17187,-0.39844 -0.17187,-1.66407 v -4.77343 H 464.125 v -1.09375 h 1.03125 v -2.05469 l 1.39844,-0.84375 v 2.89844 h 1.41406 v 1.09375 h -1.41406 v 4.85156 q 0,0.60156 0.0703,0.77344 0.0781,0.17187 0.24219,0.27343 0.17187,0.10157 0.48437,0.10157 0.23438,0 0.61719,-0.0547 z m 11.23437,0.23437 q -0.78125,0.66407 -1.50781,0.9375 -0.71875,0.27344 -1.54687,0.27344 -1.36719,0 -2.10157,-0.66406 -0.73437,-0.67188 -0.73437,-1.71094 0,-0.60937 0.27344,-1.10937 0.28125,-0.50782 0.72656,-0.8125 0.45312,-0.30469 1.01562,-0.46094 0.41407,-0.10938 1.25,-0.21094 1.70313,-0.20312 2.50782,-0.48437 0.008,-0.28907 0.008,-0.36719 0,-0.85938 -0.39844,-1.21094 -0.53906,-0.47656 -1.60156,-0.47656 -0.99219,0 -1.46875,0.35156 -0.46875,0.34375 -0.69531,1.22656 l -1.375,-0.1875 q 0.1875,-0.88281 0.61718,-1.42187 0.42969,-0.54688 1.24219,-0.83594 0.8125,-0.29687 1.88281,-0.29687 1.0625,0 1.72657,0.25 0.66406,0.25 0.97656,0.63281 0.3125,0.375 0.4375,0.95312 0.0703,0.35938 0.0703,1.29688 v 1.875 q 0,1.96094 0.0859,2.48437 0.0937,0.51563 0.35937,0.99219 h -1.46875 q -0.21875,-0.4375 -0.28125,-1.02344 z m -0.11718,-3.14062 q -0.76563,0.3125 -2.29688,0.53125 -0.86719,0.125 -1.22656,0.28125 -0.35938,0.15625 -0.55469,0.46094 -0.19531,0.29687 -0.19531,0.66406 0,0.5625 0.42187,0.9375 0.42969,0.375 1.25,0.375 0.8125,0 1.44532,-0.35156 0.63281,-0.35938 0.92968,-0.97657 0.22657,-0.47656 0.22657,-1.40625 z m 3.58593,4.16406 v -8.29687 h 1.26563 v 1.25781 q 0.48437,-0.88281 0.89062,-1.16406 0.41407,-0.28125 0.90625,-0.28125 0.71094,0 1.44532,0.45312 l -0.48438,1.30469 q -0.51562,-0.30469 -1.03125,-0.30469 -0.46094,0 -0.82812,0.28125 -0.36719,0.27344 -0.52344,0.76563 -0.23438,0.75 -0.23438,1.64062 v 4.34375 z m 11.02344,-2.67187 1.45313,0.17968 q -0.34375,1.27344 -1.27344,1.97657 -0.92969,0.70312 -2.375,0.70312 -1.82031,0 -2.89063,-1.11719 -1.0625,-1.125 -1.0625,-3.14843 0,-2.09375 1.07813,-3.25 1.07812,-1.15625 2.79687,-1.15625 1.66407,0 2.71875,1.13281 1.05469,1.13281 1.05469,3.1875 0,0.125 -0.008,0.375 H 489 q 0.0781,1.36719 0.77344,2.09375 0.69531,0.72656 1.73437,0.72656 0.77344,0 1.32031,-0.40625 0.54688,-0.40625 0.86719,-1.29687 z m -4.61719,-2.27344 h 4.63282 q -0.0937,-1.04688 -0.53125,-1.57031 -0.67188,-0.8125 -1.74219,-0.8125 -0.96875,0 -1.63281,0.64843 -0.65625,0.64844 -0.72657,1.73438 z m 12.26563,4.94531 v -8.29687 h 1.26562 v 1.25781 q 0.48438,-0.88281 0.89063,-1.16406 0.41406,-0.28125 0.90625,-0.28125 0.71094,0 1.44531,0.45312 l -0.48437,1.30469 q -0.51563,-0.30469 -1.03125,-0.30469 -0.46094,0 -0.82813,0.28125 -0.36719,0.27344 -0.52344,0.76563 -0.23437,0.75 -0.23437,1.64062 v 4.34375 z m 11.02344,-2.67187 1.45312,0.17968 q -0.34375,1.27344 -1.27344,1.97657 -0.92968,0.70312 -2.375,0.70312 -1.82031,0 -2.89062,-1.11719 -1.0625,-1.125 -1.0625,-3.14843 0,-2.09375 1.07812,-3.25 1.07813,-1.15625 2.79688,-1.15625 1.66406,0 2.71875,1.13281 1.05469,1.13281 1.05469,3.1875 0,0.125 -0.008,0.375 h -6.1875 q 0.0781,1.36719 0.77344,2.09375 0.69531,0.72656 1.73438,0.72656 0.77343,0 1.32031,-0.40625 0.54687,-0.40625 0.86719,-1.29687 z M 507.75,159.46676 h 4.63281 q -0.0937,-1.04688 -0.53125,-1.57031 -0.67187,-0.8125 -1.74219,-0.8125 -0.96875,0 -1.63281,0.64843 -0.65625,0.64844 -0.72656,1.73438 z m 7.80469,4.94531 v -11.45312 h 1.40625 v 11.45312 z m 3.59375,-9.83594 v -1.61718 h 1.40625 v 1.61718 z m 0,9.83594 v -8.29687 h 1.40625 v 8.29687 z m 8.96093,-1.02344 q -0.78125,0.66407 -1.50781,0.9375 -0.71875,0.27344 -1.54687,0.27344 -1.36719,0 -2.10157,-0.66406 -0.73437,-0.67188 -0.73437,-1.71094 0,-0.60937 0.27344,-1.10937 0.28125,-0.50782 0.72656,-0.8125 0.45312,-0.30469 1.01562,-0.46094 0.41407,-0.10938 1.25,-0.21094 1.70313,-0.20312 2.50782,-0.48437 0.008,-0.28907 0.008,-0.36719 0,-0.85938 -0.39844,-1.21094 -0.53906,-0.47656 -1.60156,-0.47656 -0.99219,0 -1.46875,0.35156 -0.46875,0.34375 -0.69531,1.22656 l -1.375,-0.1875 q 0.1875,-0.88281 0.61718,-1.42187 0.42969,-0.54688 1.24219,-0.83594 0.8125,-0.29687 1.88281,-0.29687 1.0625,0 1.72657,0.25 0.66406,0.25 0.97656,0.63281 0.3125,0.375 0.4375,0.95312 0.0703,0.35938 0.0703,1.29688 v 1.875 q 0,1.96094 0.0859,2.48437 0.0937,0.51563 0.35937,0.99219 h -1.46875 q -0.21875,-0.4375 -0.28125,-1.02344 z m -0.11718,-3.14062 q -0.76563,0.3125 -2.29688,0.53125 -0.86719,0.125 -1.22656,0.28125 -0.35938,0.15625 -0.55469,0.46094 -0.19531,0.29687 -0.19531,0.66406 0,0.5625 0.42187,0.9375 0.42969,0.375 1.25,0.375 0.8125,0 1.44532,-0.35156 0.63281,-0.35938 0.92968,-0.97657 0.22657,-0.47656 0.22657,-1.40625 z m 4.89843,4.16406 h -1.30468 v -11.45312 h 1.40625 v 4.08593 q 0.89062,-1.11718 2.27343,-1.11718 0.76563,0 1.44532,0.3125 0.6875,0.30468 1.125,0.86718 0.44531,0.55469 0.69531,1.34375 0.25,0.78907 0.25,1.6875 0,2.13282 -1.05469,3.29688 -1.05469,1.16406 -2.53125,1.16406 -1.46875,0 -2.30469,-1.22656 z m -0.0156,-4.21094 q 0,1.49219 0.40625,2.15625 0.66406,1.08594 1.79687,1.08594 0.92188,0 1.59375,-0.79687 0.67188,-0.80469 0.67188,-2.39063 0,-1.625 -0.64844,-2.39844 -0.64062,-0.77343 -1.55469,-0.77343 -0.92187,0 -1.59375,0.80468 -0.67187,0.79688 -0.67187,2.3125 z m 7.58594,4.21094 v -11.45312 h 1.40625 v 11.45312 z m 9.26562,-2.67187 1.45313,0.17968 q -0.34375,1.27344 -1.27344,1.97657 -0.92969,0.70312 -2.375,0.70312 -1.82031,0 -2.89063,-1.11719 -1.0625,-1.125 -1.0625,-3.14843 0,-2.09375 1.07813,-3.25 1.07812,-1.15625 2.79687,-1.15625 1.66407,0 2.71875,1.13281 1.05469,1.13281 1.05469,3.1875 0,0.125 -0.008,0.375 h -6.1875 q 0.0781,1.36719 0.77344,2.09375 0.69531,0.72656 1.73437,0.72656 0.77344,0 1.32031,-0.40625 0.54688,-0.40625 0.86719,-1.29687 z m -4.61719,-2.27344 h 4.63282 q -0.0937,-1.04688 -0.53125,-1.57031 -0.67188,-0.8125 -1.74219,-0.8125 -0.96875,0 -1.63281,0.64843 -0.65625,0.64844 -0.72657,1.73438 z m 12.61719,4.94531 v -7.20312 h -1.24219 v -1.09375 h 1.24219 v -0.88282 q 0,-0.83593 0.14844,-1.24218 0.20312,-0.54688 0.71094,-0.88282 0.51562,-0.34375 1.4375,-0.34375 0.59375,0 1.3125,0.14063 l -0.21094,1.22656 q -0.4375,-0.0781 -0.82813,-0.0781 -0.64062,0 -0.90625,0.27343 -0.26562,0.27344 -0.26562,1.02344 v 0.76563 h 1.61719 v 1.09375 H 559.125 v 7.20312 z m 3.58594,-4.14844 q 0,-2.30468 1.28125,-3.41406 1.07031,-0.92187 2.60937,-0.92187 1.71094,0 2.79688,1.125 1.08594,1.11718 1.08594,3.09375 0,1.60156 -0.48438,2.52343 -0.47656,0.91407 -1.39844,1.42188 -0.91406,0.50781 -2,0.50781 -1.74218,0 -2.82031,-1.11719 -1.07031,-1.11718 -1.07031,-3.21875 z m 1.44531,0 q 0,1.59375 0.69531,2.39063 0.69532,0.78906 1.75,0.78906 1.04688,0 1.74219,-0.79687 0.69531,-0.79688 0.69531,-2.42969 0,-1.53906 -0.70312,-2.32813 -0.69531,-0.79687 -1.73438,-0.79687 -1.05468,0 -1.75,0.78906 -0.69531,0.78906 -0.69531,2.38281 z m 7.96094,4.14844 v -8.29687 h 1.26562 v 1.25781 q 0.48438,-0.88281 0.89063,-1.16406 0.41406,-0.28125 0.90625,-0.28125 0.71094,0 1.44531,0.45312 l -0.48437,1.30469 q -0.51563,-0.30469 -1.03125,-0.30469 -0.46094,0 -0.82813,0.28125 -0.36719,0.27344 -0.52344,0.76563 -0.23437,0.75 -0.23437,1.64062 v 4.34375 z m 9.78906,3.17969 V 156.1152 h 1.28125 v 1.07812 q 0.45313,-0.63281 1.02344,-0.94531 0.57031,-0.32031 1.38281,-0.32031 1.0625,0 1.875,0.54687 0.8125,0.54688 1.22656,1.54688 0.41407,0.99218 0.41407,2.17968 0,1.27344 -0.46094,2.29688 -0.45313,1.01562 -1.32813,1.5625 -0.86718,0.53906 -1.82812,0.53906 -0.70313,0 -1.26563,-0.29687 -0.55468,-0.29688 -0.91406,-0.75 v 4.03906 z m 1.27344,-7.28125 q 0,1.60156 0.64844,2.36719 0.64843,0.76562 1.57031,0.76562 0.9375,0 1.60156,-0.78906 0.67188,-0.79688 0.67188,-2.46094 0,-1.58594 -0.65625,-2.375 -0.64844,-0.78906 -1.55469,-0.78906 -0.89844,0 -1.59375,0.84375 -0.6875,0.83594 -0.6875,2.4375 z m 7.59375,4.10156 v -11.45312 h 1.40625 v 11.45312 z m 9,-1.02344 q -0.78125,0.66407 -1.50781,0.9375 -0.71875,0.27344 -1.54688,0.27344 -1.36719,0 -2.10156,-0.66406 -0.73438,-0.67188 -0.73438,-1.71094 0,-0.60937 0.27344,-1.10937 0.28125,-0.50782 0.72656,-0.8125 0.45313,-0.30469 1.01563,-0.46094 0.41406,-0.10938 1.25,-0.21094 1.70312,-0.20312 2.50781,-0.48437 0.008,-0.28907 0.008,-0.36719 0,-0.85938 -0.39843,-1.21094 -0.53907,-0.47656 -1.60157,-0.47656 -0.99218,0 -1.46875,0.35156 -0.46875,0.34375 -0.69531,1.22656 l -1.375,-0.1875 q 0.1875,-0.88281 0.61719,-1.42187 0.42969,-0.54688 1.24219,-0.83594 0.8125,-0.29687 1.88281,-0.29687 1.0625,0 1.72656,0.25 0.66406,0.25 0.97656,0.63281 0.3125,0.375 0.4375,0.95312 0.0703,0.35938 0.0703,1.29688 v 1.875 q 0,1.96094 0.0859,2.48437 0.0937,0.51563 0.35938,0.99219 h -1.46875 q -0.21875,-0.4375 -0.28125,-1.02344 z m -0.11719,-3.14062 q -0.76562,0.3125 -2.29687,0.53125 -0.86719,0.125 -1.22657,0.28125 -0.35937,0.15625 -0.55468,0.46094 -0.19532,0.29687 -0.19532,0.66406 0,0.5625 0.42188,0.9375 0.42969,0.375 1.25,0.375 0.8125,0 1.44531,-0.35156 0.63281,-0.35938 0.92969,-0.97657 0.22656,-0.47656 0.22656,-1.40625 z m 3.60156,4.16406 v -8.29687 h 1.26563 v 1.17968 q 0.91406,-1.36718 2.64062,-1.36718 0.75,0 1.375,0.27343 0.63282,0.26563 0.94532,0.70313 0.3125,0.4375 0.4375,1.03906 0.0781,0.39063 0.0781,1.36719 v 5.10156 h -1.40625 v -5.04687 q 0,-0.85938 -0.16406,-1.28125 -0.16406,-0.42969 -0.58594,-0.67969 -0.41406,-0.25781 -0.97656,-0.25781 -0.89844,0 -1.55469,0.57031 -0.64844,0.57031 -0.64844,2.16406 v 4.53125 z m 8.89844,0 v -8.29687 h 1.26563 v 1.17968 q 0.91406,-1.36718 2.64062,-1.36718 0.75,0 1.375,0.27343 0.63281,0.26563 0.94531,0.70313 0.3125,0.4375 0.4375,1.03906 0.0781,0.39063 0.0781,1.36719 v 5.10156 h -1.40625 v -5.04687 q 0,-0.85938 -0.16406,-1.28125 -0.16407,-0.42969 -0.58594,-0.67969 -0.41406,-0.25781 -0.97656,-0.25781 -0.89844,0 -1.55469,0.57031 -0.64844,0.57031 -0.64844,2.16406 v 4.53125 z m 8.90625,-9.83594 v -1.61718 h 1.40625 v 1.61718 z m 0,9.83594 v -8.29687 h 1.40625 v 8.29687 z m 3.54688,0 v -8.29687 h 1.26562 v 1.17968 q 0.91406,-1.36718 2.64063,-1.36718 0.75,0 1.375,0.27343 0.63281,0.26563 0.94531,0.70313 0.3125,0.4375 0.4375,1.03906 0.0781,0.39063 0.0781,1.36719 v 5.10156 h -1.40625 v -5.04687 q 0,-0.85938 -0.16406,-1.28125 -0.16406,-0.42969 -0.58594,-0.67969 -0.41406,-0.25781 -0.97656,-0.25781 -0.89844,0 -1.55469,0.57031 -0.64843,0.57031 -0.64843,2.16406 v 4.53125 z m 8.64062,0.6875 1.36719,0.20313 q 0.0859,0.63281 0.47656,0.92187 0.52344,0.39063 1.42969,0.39063 0.97656,0 1.50781,-0.39063 0.53125,-0.39062 0.71875,-1.09375 0.10938,-0.42969 0.10156,-1.80469 -0.92187,1.08594 -2.29687,1.08594 -1.71094,0 -2.64844,-1.23437 -0.9375,-1.23438 -0.9375,-2.96094 0,-1.1875 0.42969,-2.1875 0.42969,-1.00781 1.24219,-1.55469 0.82031,-0.54687 1.92187,-0.54687 1.46875,0 2.42188,1.1875 v -1 h 1.29687 v 7.17187 q 0,1.9375 -0.39844,2.74219 -0.39062,0.8125 -1.25,1.28125 -0.85156,0.46875 -2.10156,0.46875 -1.48437,0 -2.39844,-0.67188 -0.91406,-0.66406 -0.88281,-2.00781 z m 1.16406,-4.98437 q 0,1.63281 0.64844,2.38281 0.64844,0.75 1.625,0.75 0.96875,0 1.625,-0.74219 0.65625,-0.75 0.65625,-2.34375 0,-1.52344 -0.67969,-2.29687 -0.67187,-0.77344 -1.625,-0.77344 -0.9375,0 -1.59375,0.76562 -0.65625,0.75782 -0.65625,2.25782 z m 8.39063,4.29687 v -1.60156 h 1.60156 v 1.60156 z"
       id="flowRoot4302-6"
       transform="translate(-20,372.36182)"
       aria-label="Only datetimes in offset or UTC format are reliable for planning." />
    <flowRoot
       xml:space="preserve"
       id="flowRoot937"
       style="color:currentColor;font-style:normal;font-variant:normal;font-weight:normal;font-stretch:normal;font-size:16px;font-family:Arial;-inkscape-font-specification:Arial;text-align:center;writing-mode:lr-tb;text-anchor:middle;display:inline;overflow:visible;visibility:visible;opacity:1;vector-effect:none;fill:currentColor;fill-opacity:1;fill-rule:nonzero;stroke:#8f5902;stroke-width:3;stroke-linecap:round;stroke-linejoin:round;stroke-miterlimit:4;stroke-dasharray:none;stroke-dashoffset:0;stroke-opacity:1;marker:none;enable-background:accumulate"><flowRegion
         id="flowRegion939"><rect
           id="rect941"
           width="52.987019"
           height="116.1039"
           x="-94.285713"
           y="141.03894" /></flowRegion><flowPara
         id="flowPara943" /></flowRoot>
    <g
       id="g75">
      <path
         style="display:inline;fill:none;stroke:#555753;stroke-width:1;stroke-linecap:round;stroke-linejoin:round;stroke-dasharray:none;stroke-opacity:1"
         d="M 150,632.3619 V 621.9004"
         id="path6-3" />
      <path
         style="font-size:14px;line-height:1.25;font-family:'Liberation Sans';-inkscape-font-specification:'Liberation Sans, Normal';text-align:center;text-anchor:middle"
         d="m 422.47021,42.271695 q 0,-1.777344 0.36231,-2.857422 0.36914,-1.086914 1.08691,-1.674805 0.72461,-0.58789 1.81836,-0.58789 0.80664,0 1.41504,0.328125 0.6084,0.321289 1.00488,0.936523 0.39649,0.608398 0.62208,1.490234 0.22558,0.875 0.22558,2.365235 0,1.763672 -0.3623,2.850586 -0.36231,1.080078 -1.08692,1.674804 -0.71777,0.587891 -1.81836,0.587891 -1.44922,0 -2.27636,-1.039063 -0.99122,-1.250976 -0.99122,-4.074218 z m 1.26465,0 q 0,2.467773 0.57422,3.288086 0.58106,0.813476 1.42871,0.813476 0.84766,0 1.42188,-0.820312 0.58105,-0.820313 0.58105,-3.28125 0,-2.47461 -0.58105,-3.288086 -0.57422,-0.813477 -1.43555,-0.813477 -0.84766,0 -1.35351,0.717774 -0.63575,0.916015 -0.63575,3.383789 z m 8.41504,-0.492188 q -0.76562,-0.280273 -1.13476,-0.799804 -0.36914,-0.519532 -0.36914,-1.244141 0,-1.09375 0.78613,-1.838867 0.78613,-0.745117 2.0918,-0.745117 1.3125,0 2.1123,0.765625 0.79981,0.758789 0.79981,1.852539 0,0.697265 -0.36915,1.216796 -0.3623,0.512696 -1.10742,0.792969 0.92285,0.300781 1.40137,0.970703 0.48535,0.669922 0.48535,1.59961 0,1.285156 -0.90918,2.160156 -0.90918,0.875 -2.39258,0.875 -1.48339,0 -2.39257,-0.875 -0.90918,-0.881836 -0.90918,-2.194336 0,-0.977539 0.49218,-1.633789 0.49903,-0.663086 1.41504,-0.902344 z m -0.24609,-2.084961 q 0,0.710938 0.45801,1.16211 0.458,0.451172 1.18945,0.451172 0.71094,0 1.16211,-0.444336 0.45801,-0.451172 0.45801,-1.100586 0,-0.676758 -0.47168,-1.134766 -0.46485,-0.464844 -1.16211,-0.464844 -0.7041,0 -1.16895,0.451172 -0.46484,0.451172 -0.46484,1.080078 z m -0.39649,4.62793 q 0,0.526367 0.2461,1.018555 0.25293,0.492187 0.74512,0.765625 0.49218,0.266601 1.05957,0.266601 0.88183,0 1.45605,-0.567383 0.57422,-0.567382 0.57422,-1.442382 0,-0.888672 -0.59473,-1.469727 -0.58789,-0.581055 -1.47656,-0.581055 -0.86816,0 -1.44238,0.574219 -0.56739,0.574219 -0.56739,1.435547 z m 7.21875,-2.966797 v -1.401367 h 1.40137 v 1.401367 z m 0,5.858399 V 45.81271 h 1.40137 v 1.401368 z m 3.20606,-4.942383 q 0,-1.777344 0.3623,-2.857422 0.36914,-1.086914 1.08692,-1.674805 0.72461,-0.58789 1.81836,-0.58789 0.80664,0 1.41504,0.328125 0.60839,0.321289 1.00488,0.936523 0.39648,0.608398 0.62207,1.490234 0.22559,0.875 0.22559,2.365235 0,1.763672 -0.36231,2.850586 -0.3623,1.080078 -1.08691,1.674804 -0.71778,0.587891 -1.81836,0.587891 -1.44922,0 -2.27637,-1.039063 -0.99121,-1.250976 -0.99121,-4.074218 z m 1.26465,0 q 0,2.467773 0.57422,3.288086 0.58105,0.813476 1.42871,0.813476 0.84765,0 1.42187,-0.820312 0.58106,-0.820313 0.58106,-3.28125 0,-2.47461 -0.58106,-3.288086 -0.57422,-0.813477 -1.43554,-0.813477 -0.84766,0 -1.35352,0.717774 -0.63574,0.916015 -0.63574,3.383789 z m 6.52148,0 q 0,-1.777344 0.36231,-2.857422 0.36914,-1.086914 1.08691,-1.674805 0.72461,-0.58789 1.81836,-0.58789 0.80664,0 1.41504,0.328125 0.6084,0.321289 1.00488,0.936523 0.39649,0.608398 0.62207,1.490234 0.22559,0.875 0.22559,2.365235 0,1.763672 -0.36231,2.850586 -0.3623,1.080078 -1.08691,1.674804 -0.71777,0.587891 -1.81836,0.587891 -1.44922,0 -2.27637,-1.039063 -0.99121,-1.250976 -0.99121,-4.074218 z m 1.26465,0 q 0,2.467773 0.57422,3.288086 0.58105,0.813476 1.42871,0.813476 0.84766,0 1.42187,-0.820312 0.58106,-0.820313 0.58106,-3.28125 0,-2.47461 -0.58106,-3.288086 -0.57421,-0.813477 -1.43554,-0.813477 -0.84766,0 -1.35352,0.717774 -0.63574,0.916015 -0.63574,3.383789 z"
         id="flowRoot2-4-9"
         transform="translate(-289.40625,568.0496)"
         aria-label="08:00" />
      <path
         style="display:inline;fill:none;stroke:currentColor;stroke-width:1;stroke-linecap:round;stroke-linejoin:round;stroke-dasharray:none;stroke-opacity:1;marker-start:url(#ArrowTriangleStylized-4_reversed)"
         d="M 420,632.36222 H 120"
         id="path17-0" />
      <path
         style="display:inline;fill:none;stroke:#555753;stroke-width:1;stroke-linecap:round;stroke-linejoin:round;stroke-dasharray:none;stroke-opacity:1"
         d="M 210.00016,632.3619 V 621.9004"
         id="path7" />
      <path
         style="font-size:14px;line-height:1.25;font-family:'Liberation Sans';-inkscape-font-specification:'Liberation Sans, Normal';text-align:center;text-anchor:middle"
         d="m 422.47021,42.271695 q 0,-1.777344 0.36231,-2.857422 0.36914,-1.086914 1.08691,-1.674805 0.72461,-0.58789 1.81836,-0.58789 0.80664,0 1.41504,0.328125 0.6084,0.321289 1.00488,0.936523 0.39649,0.608398 0.62208,1.490234 0.22558,0.875 0.22558,2.365235 0,1.763672 -0.3623,2.850586 -0.36231,1.080078 -1.08692,1.674804 -0.71777,0.587891 -1.81836,0.587891 -1.44922,0 -2.27636,-1.039063 -0.99122,-1.250976 -0.99122,-4.074218 z m 1.26465,0 q 0,2.467773 0.57422,3.288086 0.58106,0.813476 1.42871,0.813476 0.84766,0 1.42188,-0.820312 0.58105,-0.820313 0.58105,-3.28125 0,-2.47461 -0.58105,-3.288086 -0.57422,-0.813477 -1.43555,-0.813477 -0.84766,0 -1.35351,0.717774 -0.63575,0.916015 -0.63575,3.383789 z m 6.70606,2.625 1.18262,-0.109375 q 0.15039,0.833984 0.57421,1.209961 0.42383,0.375976 1.08692,0.375976 0.56738,0 0.99121,-0.259765 0.43066,-0.259766 0.7041,-0.69043 0.27344,-0.4375 0.45801,-1.175781 0.18457,-0.738282 0.18457,-1.503907 0,-0.08203 -0.007,-0.246093 -0.36914,0.58789 -1.01172,0.957031 -0.63574,0.362305 -1.38086,0.362305 -1.24414,0 -2.10546,-0.902344 -0.86133,-0.902344 -0.86133,-2.378906 0,-1.524414 0.89551,-2.454102 0.90234,-0.929687 2.25585,-0.929687 0.97754,0 1.78418,0.526367 0.81348,0.526367 1.23047,1.503906 0.42383,0.970703 0.42383,2.816406 0,1.920899 -0.41699,3.0625 -0.41699,1.134766 -1.24414,1.729492 -0.82031,0.594727 -1.92774,0.594727 -1.17578,0 -1.92089,-0.649414 -0.74512,-0.65625 -0.89551,-1.838867 z m 5.03808,-4.422852 q 0,-1.05957 -0.56738,-1.68164 -0.56055,-0.622071 -1.35351,-0.622071 -0.82032,0 -1.42872,0.669922 -0.60839,0.669922 -0.60839,1.736328 0,0.957031 0.57421,1.558594 0.58106,0.594727 1.42872,0.594727 0.85449,0 1.40136,-0.594727 0.55371,-0.601563 0.55371,-1.661133 z m 3.24707,0.881836 v -1.401367 h 1.40137 v 1.401367 z m 0,5.858399 V 45.81271 h 1.40137 v 1.401368 z m 3.20606,-4.942383 q 0,-1.777344 0.3623,-2.857422 0.36914,-1.086914 1.08692,-1.674805 0.72461,-0.58789 1.81836,-0.58789 0.80664,0 1.41504,0.328125 0.60839,0.321289 1.00488,0.936523 0.39648,0.608398 0.62207,1.490234 0.22559,0.875 0.22559,2.365235 0,1.763672 -0.36231,2.850586 -0.3623,1.080078 -1.08691,1.674804 -0.71778,0.587891 -1.81836,0.587891 -1.44922,0 -2.27637,-1.039063 -0.99121,-1.250976 -0.99121,-4.074218 z m 1.26465,0 q 0,2.467773 0.57422,3.288086 0.58105,0.813476 1.42871,0.813476 0.84765,0 1.42187,-0.820312 0.58106,-0.820313 0.58106,-3.28125 0,-2.47461 -0.58106,-3.288086 -0.57422,-0.813477 -1.43554,-0.813477 -0.84766,0 -1.35352,0.717774 -0.63574,0.916015 -0.63574,3.383789 z m 6.52148,0 q 0,-1.777344 0.36231,-2.857422 0.36914,-1.086914 1.08691,-1.674805 0.72461,-0.58789 1.81836,-0.58789 0.80664,0 1.41504,0.328125 0.6084,0.321289 1.00488,0.936523 0.39649,0.608398 0.62207,1.490234 0.22559,0.875 0.22559,2.365235 0,1.763672 -0.36231,2.850586 -0.3623,1.080078 -1.08691,1.674804 -0.71777,0.587891 -1.81836,0.587891 -1.44922,0 -2.27637,-1.039063 -0.99121,-1.250976 -0.99121,-4.074218 z m 1.26465,0 q 0,2.467773 0.57422,3.288086 0.58105,0.813476 1.42871,0.813476 0.84766,0 1.42187,-0.820312 0.58106,-0.820313 0.58106,-3.28125 0,-2.47461 -0.58106,-3.288086 -0.57421,-0.813477 -1.43554,-0.813477 -0.84766,0 -1.35352,0.717774 -0.63574,0.916015 -0.63574,3.383789 z"
         id="flowRoot7"
         transform="translate(-229.40609,568.0496)"
         aria-label="09:00" />
      <path
         style="display:inline;fill:none;stroke:#555753;stroke-width:1;stroke-linecap:round;stroke-linejoin:round;stroke-dasharray:none;stroke-opacity:1"
         d="M 270.00016,632.3619 V 621.9004"
         id="path8" />
      <path
         style="font-size:14px;line-height:1.25;font-family:'Liberation Sans';-inkscape-font-specification:'Liberation Sans, Normal';text-align:center;text-anchor:middle"
         d="m 427.10498,47.214078 h -1.23047 v -7.840821 q -0.44433,0.423828 -1.16894,0.847656 -0.71778,0.423829 -1.292,0.635743 v -1.189453 q 1.03223,-0.485352 1.80469,-1.175782 0.77246,-0.690429 1.09375,-1.339843 h 0.79297 z m 3.15137,-4.942383 q 0,-1.777344 0.3623,-2.857422 0.36914,-1.086914 1.08692,-1.674805 0.72461,-0.58789 1.81836,-0.58789 0.80664,0 1.41503,0.328125 0.6084,0.321289 1.00489,0.936523 0.39648,0.608398 0.62207,1.490234 0.22558,0.875 0.22558,2.365235 0,1.763672 -0.3623,2.850586 -0.36231,1.080078 -1.08691,1.674804 -0.71778,0.587891 -1.81836,0.587891 -1.44922,0 -2.27637,-1.039063 -0.99121,-1.250976 -0.99121,-4.074218 z m 1.26465,0 q 0,2.467773 0.57421,3.288086 0.58106,0.813476 1.42872,0.813476 0.84765,0 1.42187,-0.820312 0.58106,-0.820313 0.58106,-3.28125 0,-2.47461 -0.58106,-3.288086 -0.57422,-0.813477 -1.43555,-0.813477 -0.84765,0 -1.35351,0.717774 -0.63574,0.916015 -0.63574,3.383789 z m 7.20507,-0.916016 v -1.401367 h 1.40137 v 1.401367 z m 0,5.858399 V 45.81271 h 1.40137 v 1.401368 z m 3.20606,-4.942383 q 0,-1.777344 0.3623,-2.857422 0.36914,-1.086914 1.08692,-1.674805 0.72461,-0.58789 1.81836,-0.58789 0.80664,0 1.41504,0.328125 0.60839,0.321289 1.00488,0.936523 0.39648,0.608398 0.62207,1.490234 0.22559,0.875 0.22559,2.365235 0,1.763672 -0.36231,2.850586 -0.3623,1.080078 -1.08691,1.674804 -0.71778,0.587891 -1.81836,0.587891 -1.44922,0 -2.27637,-1.039063 -0.99121,-1.250976 -0.99121,-4.074218 z m 1.26465,0 q 0,2.467773 0.57422,3.288086 0.58105,0.813476 1.42871,0.813476 0.84765,0 1.42187,-0.820312 0.58106,-0.820313 0.58106,-3.28125 0,-2.47461 -0.58106,-3.288086 -0.57422,-0.813477 -1.43554,-0.813477 -0.84766,0 -1.35352,0.717774 -0.63574,0.916015 -0.63574,3.383789 z m 6.52148,0 q 0,-1.777344 0.36231,-2.857422 0.36914,-1.086914 1.08691,-1.674805 0.72461,-0.58789 1.81836,-0.58789 0.80664,0 1.41504,0.328125 0.6084,0.321289 1.00488,0.936523 0.39649,0.608398 0.62207,1.490234 0.22559,0.875 0.22559,2.365235 0,1.763672 -0.36231,2.850586 -0.3623,1.080078 -1.08691,1.674804 -0.71777,0.587891 -1.81836,0.587891 -1.44922,0 -2.27637,-1.039063 -0.99121,-1.250976 -0.99121,-4.074218 z m 1.26465,0 q 0,2.467773 0.57422,3.288086 0.58105,0.813476 1.42871,0.813476 0.84766,0 1.42187,-0.820312 0.58106,-0.820313 0.58106,-3.28125 0,-2.47461 -0.58106,-3.288086 -0.57421,-0.813477 -1.43554,-0.813477 -0.84766,0 -1.35352,0.717774 -0.63574,0.916015 -0.63574,3.383789 z"
         id="flowRoot8"
         transform="translate(-169.40609,568.0496)"
         aria-label="10:00" />
      <path
         style="display:inline;fill:none;stroke:#555753;stroke-width:1;stroke-linecap:round;stroke-linejoin:round;stroke-dasharray:none;stroke-opacity:1"
         d="M 330.00016,632.3619 V 621.9004"
         id="path9" />
      <path
         style="font-size:14px;line-height:1.25;font-family:'Liberation Sans';-inkscape-font-specification:'Liberation Sans, Normal';text-align:center;text-anchor:middle"
         d="m 427.62451,47.214078 h -1.23047 v -7.840821 q -0.44433,0.423828 -1.16894,0.847656 -0.71778,0.423829 -1.29199,0.635743 v -1.189453 q 1.03222,-0.485352 1.80468,-1.175782 0.77246,-0.690429 1.09375,-1.339843 h 0.79297 z m 6.74707,0 h -1.23047 v -7.840821 q -0.44433,0.423828 -1.16894,0.847656 -0.71778,0.423829 -1.29199,0.635743 v -1.189453 q 1.03222,-0.485352 1.80468,-1.175782 0.77246,-0.690429 1.09375,-1.339843 h 0.79297 z m 3.83496,-5.858399 v -1.401367 h 1.40137 v 1.401367 z m 0,5.858399 V 45.81271 h 1.40137 v 1.401368 z m 3.20606,-4.942383 q 0,-1.777344 0.3623,-2.857422 0.36914,-1.086914 1.08692,-1.674805 0.72461,-0.58789 1.81836,-0.58789 0.80664,0 1.41503,0.328125 0.6084,0.321289 1.00489,0.936523 0.39648,0.608398 0.62207,1.490234 0.22558,0.875 0.22558,2.365235 0,1.763672 -0.3623,2.850586 -0.36231,1.080078 -1.08691,1.674804 -0.71778,0.587891 -1.81836,0.587891 -1.44922,0 -2.27637,-1.039063 -0.99121,-1.250976 -0.99121,-4.074218 z m 1.26465,0 q 0,2.467773 0.57421,3.288086 0.58106,0.813476 1.42872,0.813476 0.84765,0 1.42187,-0.820312 0.58106,-0.820313 0.58106,-3.28125 0,-2.47461 -0.58106,-3.288086 -0.57422,-0.813477 -1.43555,-0.813477 -0.84765,0 -1.35351,0.717774 -0.63574,0.916015 -0.63574,3.383789 z m 6.52148,0 q 0,-1.777344 0.36231,-2.857422 0.36914,-1.086914 1.08691,-1.674805 0.72461,-0.58789 1.81836,-0.58789 0.80664,0 1.41504,0.328125 0.6084,0.321289 1.00488,0.936523 0.39648,0.608398 0.62207,1.490234 0.22559,0.875 0.22559,2.365235 0,1.763672 -0.36231,2.850586 -0.3623,1.080078 -1.08691,1.674804 -0.71778,0.587891 -1.81836,0.587891 -1.44922,0 -2.27637,-1.039063 -0.99121,-1.250976 -0.99121,-4.074218 z m 1.26465,0 q 0,2.467773 0.57422,3.288086 0.58105,0.813476 1.42871,0.813476 0.84765,0 1.42187,-0.820312 0.58106,-0.820313 0.58106,-3.28125 0,-2.47461 -0.58106,-3.288086 -0.57422,-0.813477 -1.43554,-0.813477 -0.84766,0 -1.35352,0.717774 -0.63574,0.916015 -0.63574,3.383789 z"
         id="flowRoot9"
         transform="translate(-109.40609,568.0496)"
         aria-label="11:00" />
      <path
         style="display:inline;fill:none;stroke:#555753;stroke-width:1;stroke-linecap:round;stroke-linejoin:round;stroke-dasharray:none;stroke-opacity:1"
         d="M 390.00016,632.3619 V 621.9004"
         id="path10" />
      <path
         style="font-size:14px;line-height:1.25;font-family:'Liberation Sans';-inkscape-font-specification:'Liberation Sans, Normal';text-align:center;text-anchor:middle"
         d="m 427.10498,47.214078 h -1.23047 v -7.840821 q -0.44433,0.423828 -1.16894,0.847656 -0.71778,0.423829 -1.292,0.635743 v -1.189453 q 1.03223,-0.485352 1.80469,-1.175782 0.77246,-0.690429 1.09375,-1.339843 h 0.79297 z m 9.61816,-1.182618 v 1.182618 h -6.62402 q -0.0137,-0.444336 0.14356,-0.854493 0.25293,-0.676757 0.80664,-1.333007 0.56054,-0.65625 1.61328,-1.517579 1.63379,-1.339843 2.20801,-2.11914 0.57421,-0.786133 0.57421,-1.483399 0,-0.731445 -0.52636,-1.230468 -0.51953,-0.50586 -1.36035,-0.50586 -0.88868,0 -1.42188,0.533203 -0.5332,0.533203 -0.54004,1.476563 l -1.26465,-0.129883 q 0.12989,-1.415039 0.97754,-2.15332 0.84766,-0.745117 2.27637,-0.745117 1.44238,0 2.2832,0.799804 0.84082,0.799805 0.84082,1.982422 0,0.601563 -0.24609,1.182617 -0.24609,0.581055 -0.82031,1.223633 -0.56739,0.642578 -1.89356,1.763672 -1.10742,0.929687 -1.42187,1.264648 -0.31446,0.328125 -0.51953,0.663086 z m 2.00293,-4.675781 v -1.401367 h 1.40137 v 1.401367 z m 0,5.858399 V 45.81271 h 1.40137 v 1.401368 z m 3.20606,-4.942383 q 0,-1.777344 0.3623,-2.857422 0.36914,-1.086914 1.08692,-1.674805 0.72461,-0.58789 1.81836,-0.58789 0.80664,0 1.41504,0.328125 0.60839,0.321289 1.00488,0.936523 0.39648,0.608398 0.62207,1.490234 0.22559,0.875 0.22559,2.365235 0,1.763672 -0.36231,2.850586 -0.3623,1.080078 -1.08691,1.674804 -0.71778,0.587891 -1.81836,0.587891 -1.44922,0 -2.27637,-1.039063 -0.99121,-1.250976 -0.99121,-4.074218 z m 1.26465,0 q 0,2.467773 0.57422,3.288086 0.58105,0.813476 1.42871,0.813476 0.84765,0 1.42187,-0.820312 0.58106,-0.820313 0.58106,-3.28125 0,-2.47461 -0.58106,-3.288086 -0.57422,-0.813477 -1.43554,-0.813477 -0.84766,0 -1.35352,0.717774 -0.63574,0.916015 -0.63574,3.383789 z m 6.52148,0 q 0,-1.777344 0.36231,-2.857422 0.36914,-1.086914 1.08691,-1.674805 0.72461,-0.58789 1.81836,-0.58789 0.80664,0 1.41504,0.328125 0.6084,0.321289 1.00488,0.936523 0.39649,0.608398 0.62207,1.490234 0.22559,0.875 0.22559,2.365235 0,1.763672 -0.36231,2.850586 -0.3623,1.080078 -1.08691,1.674804 -0.71777,0.587891 -1.81836,0.587891 -1.44922,0 -2.27637,-1.039063 -0.99121,-1.250976 -0.99121,-4.074218 z m 1.26465,0 q 0,2.467773 0.57422,3.288086 0.58105,0.813476 1.42871,0.813476 0.84766,0 1.42187,-0.820312 0.58106,-0.820313 0.58106,-3.28125 0,-2.47461 -0.58106,-3.288086 -0.57421,-0.813477 -1.43554,-0.813477 -0.84766,0 -1.35352,0.717774 -0.63574,0.916015 -0.63574,3.383789 z"
         id="flowRoot10"
         transform="translate(-49.406098,568.0496)"
         aria-label="12:00" />
    </g>
    <rect
       style="display:inline;fill:#888a85;stroke:none;stroke-width:1;stroke-linecap:round;stroke-linejoin:round;stroke-dasharray:none;stroke-opacity:1"
       id="rect17"
       width="280"
       height="50"
       x="140"
       y="652.36218" />
    <rect
       style="display:inline;fill:#ffffff;fill-opacity:1;stroke:none;stroke-width:0.999993;stroke-linecap:round;stroke-linejoin:round;stroke-dasharray:none;stroke-opacity:1"
       rx="5"
       ry="5"
       id="rect18"
       width="240.00002"
       height="40"
       x="150.00003"
       y="657.36218" />
    <rect
       style="display:inline;fill:url(#linearGradient55);fill-opacity:1;stroke:none;stroke-width:0.999996;stroke-linecap:round;stroke-linejoin:round;stroke-dasharray:none;stroke-opacity:1"
       id="rect19"
       width="20.000002"
       height="50"
       x="120"
       y="652.36218" />
    <path
       style="font-size:22px;line-height:1.25;font-family:'Liberation Sans';-inkscape-font-specification:'Liberation Sans, Normal'"
       d="M 339.50195,54.420113 V 38.672066 h 5.90821 q 1.80468,0 2.88964,0.483398 1.09571,0.472657 1.70801,1.47168 0.62305,0.988281 0.62305,2.073242 0,1.009766 -0.54785,1.901368 -0.54785,0.891601 -1.6543,1.439453 1.42871,0.418945 2.19141,1.428711 0.77343,1.009765 0.77343,2.384765 0,1.106446 -0.47265,2.0625 -0.46192,0.945313 -1.14942,1.460938 -0.6875,0.515625 -1.72949,0.784179 -1.03125,0.257813 -2.53515,0.257813 z m 2.08399,-9.130859 h 3.40527 q 1.38574,0 1.98731,-0.182618 0.79492,-0.236328 1.19238,-0.784179 0.4082,-0.547852 0.4082,-1.375 0,-0.78418 -0.37598,-1.375 -0.37597,-0.601563 -1.07421,-0.816407 -0.69825,-0.225586 -2.39551,-0.225586 h -3.14746 z m 0,7.27246 h 3.9209 q 1.00976,0 1.41796,-0.0752 0.71973,-0.128906 1.20313,-0.429687 0.4834,-0.300782 0.79492,-0.870118 0.31152,-0.580078 0.31152,-1.332031 0,-0.880859 -0.45117,-1.52539 -0.45117,-0.655274 -1.25683,-0.913086 -0.79492,-0.268555 -2.29883,-0.268555 h -3.6416 z m 20.23828,-1.815429 1.99805,0.24707 q -0.47266,1.750977 -1.75098,2.717774 -1.27832,0.966796 -3.26563,0.966796 -2.50293,0 -3.97461,-1.536132 -1.46093,-1.546875 -1.46093,-4.329102 0,-2.878906 1.48242,-4.46875 1.48242,-1.589844 3.8457,-1.589844 2.28809,0 3.73828,1.557617 1.4502,1.557618 1.4502,4.382813 0,0.171875 -0.0107,0.515625 h -8.50782 q 0.10743,1.879883 1.06348,2.878906 0.95606,0.999024 2.38477,0.999024 1.06347,0 1.81543,-0.558594 0.75195,-0.558594 1.19238,-1.783203 z m -6.34863,-3.125977 h 6.37011 q -0.1289,-1.439453 -0.73047,-2.159179 -0.92382,-1.117188 -2.3955,-1.117188 -1.33203,0 -2.24512,0.891602 -0.90234,0.891601 -0.99902,2.384765 z m 14.99609,5.070313 0.2793,1.708008 q -0.81641,0.171875 -1.46094,0.171875 -1.05274,0 -1.63281,-0.333008 -0.58008,-0.333008 -0.81641,-0.870117 -0.23633,-0.547852 -0.23633,-2.288086 v -6.563477 h -1.41797 V 43.01191 h 1.41797 v -2.825196 l 1.92285,-1.160156 v 3.985352 h 1.94434 v 1.503906 h -1.94434 v 6.670898 q 0,0.827149 0.0967,1.063477 0.10743,0.236328 0.33301,0.375977 0.23633,0.139648 0.66602,0.139648 0.32226,0 0.84863,-0.0752 z m 1.89062,1.729492 V 38.672066 h 1.9336 v 5.650391 q 1.35351,-1.56836 3.41601,-1.56836 1.26758,0 2.20215,0.504883 0.93457,0.494141 1.33203,1.375 0.40821,0.880859 0.40821,2.556641 v 7.229492 h -1.9336 v -7.229492 q 0,-1.450196 -0.63379,-2.105469 -0.62304,-0.666016 -1.77246,-0.666016 -0.85937,0 -1.62207,0.451172 -0.75195,0.44043 -1.07422,1.203125 -0.32226,0.762696 -0.32226,2.105469 v 6.241211 z"
       id="flowRoot56"
       transform="translate(-275.33281,630.80571)"
       aria-label="Beth" />
    <g
       id="g58"
       transform="matrix(0.30769231,0,0,0.30769231,31.521154,512.32802)"
       style="stroke-width:3.25">
      <path
         id="path57"
         style="opacity:1;fill:#555753;fill-opacity:1;stroke:none;stroke-width:6.5;stroke-linecap:round;stroke-linejoin:round"
         d="m 25,512.36218 c -2.769997,0 -5,2.23 -5,5 v 30 c 0,2.77 2.230003,5 5,5 h 2 c 0,4.41828 3.581722,8 8,8 4.418278,0 8,-3.58172 8,-8 h 19 c 0,4.41828 3.581722,8 8,8 4.418278,0 8,-3.58172 8,-8 h 2 c 2.769997,0 5,-2.23 5,-5 v -10.74953 c 0,-9.46883 -13.158756,-24.25047 -21.889457,-24.25047 z" />
      <path
         id="path58"
         style="opacity:1;fill:#ffffff;fill-opacity:1;stroke:none;stroke-width:6.5;stroke-linecap:round;stroke-linejoin:round"
         d="m 62.5,515.29934 c -2.769997,0 -3,0.23 -3,3 v 11.99984 c 0,2.77 0.230003,3 3,3 h 2 11 2 c 3.119681,0 2.5,-0.64616 2.5,-2.74542 0,-2.68955 -8.658756,-15.25442 -17.389457,-15.25442 z" />
    </g>
    <g
       id="flowRoot14"
       style="font-size:18.6667px;line-height:0.01%;font-family:'Liberation Sans';-inkscape-font-specification:'Liberation Sans, Normal'"
       transform="translate(-308.65625,563.92138)"
       aria-label="Local&#10;datetime">
      <path
         style="font-weight:bold;line-height:1.25"
         d="M 339.32162,51.417629 V 38.165 h 2.69792 v 11.001322 h 6.70834 v 2.251307 z m 10.71877,-4.976572 q 0,-1.276044 0.6289,-2.470056 0.62891,-1.194013 1.77735,-1.82292 1.15756,-0.628908 2.57943,-0.628908 2.19662,0 3.60027,1.430992 1.40365,1.421878 1.40365,3.600267 0,2.196619 -1.42188,3.64584 -1.41276,1.440107 -3.56381,1.440107 -1.33073,0 -2.54297,-0.601564 -1.20313,-0.601563 -1.83204,-1.759117 -0.6289,-1.166669 -0.6289,-2.834641 z m 2.625,0.136719 q 0,1.440107 0.6836,2.205733 0.68359,0.765627 1.6862,0.765627 1.0026,0 1.67708,-0.765627 0.6836,-0.765626 0.6836,-2.223962 0,-1.421878 -0.6836,-2.187504 -0.67448,-0.765626 -1.67708,-0.765626 -1.00261,0 -1.6862,0.765626 -0.6836,0.765626 -0.6836,2.205733 z m 17.80993,-1.977868 -2.52474,0.45573 q -0.12761,-0.756512 -0.58334,-1.139325 -0.44661,-0.382813 -1.16667,-0.382813 -0.95703,0 -1.53125,0.665365 -0.56511,0.656252 -0.56511,2.205734 0,1.722659 0.57422,2.433598 0.58334,0.710939 1.5586,0.710939 0.72917,0 1.19401,-0.410157 0.46485,-0.419272 0.65625,-1.430993 l 2.51563,0.428387 q -0.39192,1.731774 -1.5039,2.61589 -1.11199,0.884116 -2.98048,0.884116 -2.1237,0 -3.39063,-1.339846 -1.25781,-1.339846 -1.25781,-3.709642 0,-2.39714 1.26692,-3.727872 1.26693,-1.339846 3.42709,-1.339846 1.76824,0 2.8073,0.765627 1.04818,0.756511 1.50391,2.315108 z m 3.85547,0.09115 -2.32422,-0.419272 q 0.39193,-1.403648 1.34896,-2.078128 0.95703,-0.674481 2.84376,-0.674481 1.71354,0 2.55208,0.410157 0.83855,0.401043 1.17579,1.02995 0.34635,0.619793 0.34635,2.287764 l -0.0273,2.989589 q 0,1.276044 0.11849,1.886722 0.1276,0.601564 0.46484,1.294274 h -2.53386 q -0.10026,-0.255209 -0.24609,-0.756512 -0.0638,-0.227865 -0.0912,-0.300782 -0.65625,0.638022 -1.40364,0.957033 -0.7474,0.319011 -1.59506,0.319011 -1.49479,0 -2.36068,-0.811199 -0.85677,-0.8112 -0.85677,-2.050785 0,-0.820314 0.39192,-1.458336 0.39193,-0.647137 1.09376,-0.984377 0.71094,-0.346355 2.04167,-0.601564 1.79557,-0.33724 2.48828,-0.628907 v -0.255209 q 0,-0.738282 -0.36458,-1.048179 -0.36458,-0.319011 -1.37631,-0.319011 -0.68359,0 -1.0664,0.273438 -0.38282,0.264324 -0.6198,0.938804 z m 3.42709,2.078129 q -0.49219,0.164062 -1.55859,0.391927 -1.06641,0.227865 -1.39454,0.446616 -0.5013,0.355469 -0.5013,0.902345 0,0.537762 0.40104,0.929689 0.40104,0.391928 1.02084,0.391928 0.69271,0 1.32161,-0.45573 0.46485,-0.346355 0.61068,-0.847658 0.10026,-0.328125 0.10026,-1.2487 z m 5.04038,4.648446 V 38.055625 h 2.5612 v 13.362004 z"
         id="path1" />
      <path
         style="font-weight:bold;line-height:1.25"
         d="m 348.10809,74.751003 h -2.37891 v -1.421878 q -0.59245,0.829429 -1.40365,1.239586 -0.80208,0.401042 -1.6224,0.401042 -1.66797,0 -2.86198,-1.339846 -1.1849,-1.348961 -1.1849,-3.755215 0,-2.460942 1.15756,-3.736986 1.15755,-1.285159 2.92578,-1.285159 1.6224,0 2.8073,1.348961 v -4.812509 h 2.5612 z m -6.83595,-5.049489 q 0,1.549482 0.42839,2.242192 0.61979,1.002606 1.73177,1.002606 0.88412,0 1.50391,-0.747397 0.61979,-0.756512 0.61979,-2.251307 0,-1.667971 -0.60156,-2.397139 -0.60156,-0.738283 -1.54037,-0.738283 -0.91146,0 -1.53125,0.729168 -0.61068,0.720054 -0.61068,2.16016 z m 11.27476,-1.677086 -2.32422,-0.419272 q 0.39193,-1.403648 1.34896,-2.078128 0.95703,-0.674481 2.84375,-0.674481 1.71355,0 2.55209,0.410157 0.83855,0.401043 1.17579,1.02995 0.34635,0.619793 0.34635,2.287764 l -0.0273,2.989589 q 0,1.276044 0.11849,1.886722 0.1276,0.601564 0.46484,1.294274 h -2.53386 q -0.10026,-0.255209 -0.24609,-0.756512 -0.0638,-0.227865 -0.0912,-0.300782 -0.65625,0.638022 -1.40365,0.957033 -0.74739,0.319011 -1.59505,0.319011 -1.4948,0 -2.36068,-0.811199 -0.85677,-0.8112 -0.85677,-2.050785 0,-0.820314 0.39192,-1.458336 0.39193,-0.647137 1.09376,-0.984377 0.71093,-0.346355 2.04167,-0.601564 1.79557,-0.33724 2.48828,-0.628907 v -0.255209 q 0,-0.738282 -0.36458,-1.048179 -0.36459,-0.319011 -1.37631,-0.319011 -0.68359,0 -1.06641,0.273438 -0.38281,0.264324 -0.61979,0.938804 z m 3.42709,2.078129 q -0.49219,0.164062 -1.5586,0.391927 -1.0664,0.227865 -1.39453,0.446616 -0.5013,0.355469 -0.5013,0.902345 0,0.537762 0.40104,0.929689 0.40104,0.391928 1.02084,0.391928 0.69271,0 1.32161,-0.45573 0.46485,-0.346355 0.61068,-0.847658 0.10026,-0.328125 0.10026,-1.2487 z m 9.47918,-5.031259 v 2.04167 h -1.75 v 3.901049 q 0,1.184898 0.0456,1.385419 0.0547,0.191406 0.22787,0.319011 0.18229,0.127604 0.4375,0.127604 0.35547,0 1.02995,-0.246094 l 0.21875,1.986983 q -0.89323,0.382813 -2.02344,0.382813 -0.69271,0 -1.2487,-0.227865 -0.55599,-0.23698 -0.82031,-0.601564 -0.25521,-0.373698 -0.35547,-1.002606 -0.082,-0.446615 -0.082,-1.80469 v -4.22006 h -1.17578 v -2.04167 h 1.17578 v -1.923181 l 2.57032,-1.494794 v 3.417975 z m 7.38283,6.59897 2.55209,0.428386 q -0.49219,1.403648 -1.5586,2.141931 -1.05729,0.729168 -2.65235,0.729168 -2.52474,0 -3.73698,-1.649743 -0.95704,-1.321617 -0.95704,-3.335943 0,-2.406254 1.25782,-3.76433 1.25781,-1.36719 3.18099,-1.36719 2.16016,0 3.40886,1.430992 1.2487,1.421878 1.19402,4.365894 h -6.41668 q 0.0273,1.139325 0.61979,1.777347 0.59245,0.628907 1.47657,0.628907 0.60156,0 1.01172,-0.328126 0.41015,-0.328125 0.61979,-1.057293 z m 0.14583,-2.588547 q -0.0273,-1.111981 -0.57422,-1.6862 -0.54687,-0.583335 -1.33073,-0.583335 -0.83854,0 -1.38542,0.610678 -0.54687,0.610679 -0.53776,1.658857 z m 9.06903,-4.010423 v 2.04167 h -1.75 v 3.901049 q 0,1.184898 0.0456,1.385419 0.0547,0.191406 0.22787,0.319011 0.18229,0.127604 0.4375,0.127604 0.35547,0 1.02995,-0.246094 l 0.21875,1.986983 q -0.89323,0.382813 -2.02344,0.382813 -0.69271,0 -1.2487,-0.227865 -0.55599,-0.23698 -0.82032,-0.601564 -0.25521,-0.373698 -0.35547,-1.002606 -0.082,-0.446615 -0.082,-1.80469 v -4.22006 h -1.17578 v -2.04167 h 1.17578 v -1.923181 l 2.57032,-1.494794 v 3.417975 z m 1.77735,-1.312503 v -2.369796 h 2.5612 v 2.369796 z m 0,10.992208 v -9.679705 h 2.5612 v 9.679705 z m 4.9948,-9.679705 h 2.36068 v 1.321617 q 1.26693,-1.540368 3.01693,-1.540368 0.92969,0 1.61329,0.382813 0.68359,0.382814 1.12109,1.157555 0.63802,-0.774741 1.37631,-1.157555 0.73828,-0.382813 1.57682,-0.382813 1.06641,0 1.80469,0.437501 0.73829,0.428386 1.10287,1.266929 0.26432,0.619793 0.26432,2.005212 v 6.188814 h -2.5612 V 69.21844 q 0,-1.440106 -0.26432,-1.859378 -0.35547,-0.546876 -1.09376,-0.546876 -0.53776,0 -1.01172,0.328126 -0.47396,0.328125 -0.68359,0.966147 -0.20964,0.628908 -0.20964,1.996098 v 4.648446 h -2.5612 v -5.304698 q 0,-1.412762 -0.13672,-1.822919 -0.13672,-0.410157 -0.42838,-0.610679 -0.28256,-0.200521 -0.77475,-0.200521 -0.59244,0 -1.0664,0.319011 -0.47396,0.319011 -0.6836,0.920575 -0.20052,0.601563 -0.20052,1.996097 v 4.703134 h -2.5612 z m 22.39457,6.59897 2.55209,0.428386 q -0.49219,1.403648 -1.5586,2.141931 -1.05729,0.729168 -2.65235,0.729168 -2.52474,0 -3.73698,-1.649743 -0.95704,-1.321617 -0.95704,-3.335943 0,-2.406254 1.25782,-3.76433 1.25781,-1.36719 3.18099,-1.36719 2.16016,0 3.40886,1.430992 1.2487,1.421878 1.19402,4.365894 h -6.41668 q 0.0273,1.139325 0.61979,1.777347 0.59245,0.628907 1.47657,0.628907 0.60156,0 1.01172,-0.328126 0.41015,-0.328125 0.61979,-1.057293 z m 0.14583,-2.588547 q -0.0273,-1.111981 -0.57422,-1.6862 -0.54687,-0.583335 -1.33073,-0.583335 -0.83854,0 -1.38542,0.610678 -0.54687,0.610679 -0.53776,1.658857 z"
         id="path2" />
    </g>
    <rect
       style="display:inline;fill:url(#linearGradient58);fill-opacity:1;stroke:none;stroke-width:0.999996;stroke-linecap:round;stroke-linejoin:round;stroke-dasharray:none;stroke-opacity:1"
       id="rect58"
       width="45"
       height="50"
       x="-435.00027"
       y="652.36255"
       transform="scale(-1,1)" />
    <path
       style="font-weight:bold;font-size:16px;line-height:1.25;font-family:'Liberation Sans';-inkscape-font-specification:'Liberation Sans, Normal';text-align:center;text-anchor:middle"
       d="m 466.60156,37.562461 h 2.3125 v 6.203125 q 0,1.476563 0.0859,1.914063 0.14844,0.703125 0.70312,1.132812 0.5625,0.421875 1.53125,0.421875 0.98438,0 1.48438,-0.398437 0.5,-0.40625 0.60156,-0.992188 0.10156,-0.585937 0.10156,-1.945312 v -6.335938 h 2.3125 v 6.015625 q 0,2.0625 -0.1875,2.914063 -0.1875,0.851562 -0.69531,1.4375 -0.5,0.585937 -1.34375,0.9375 -0.84375,0.34375 -2.20312,0.34375 -1.64063,0 -2.49219,-0.375 -0.84375,-0.382813 -1.33594,-0.984375 -0.49219,-0.609375 -0.64844,-1.273438 -0.22656,-0.984375 -0.22656,-2.90625 z M 480.75,49.015586 v -9.515625 h -3.39844 v -1.9375 h 9.10156 v 1.9375 h -3.39062 v 9.515625 z m 14.52344,-4.210937 2.24218,0.710937 q -0.51562,1.875 -1.71875,2.789063 -1.19531,0.90625 -3.03906,0.90625 -2.28125,0 -3.75,-1.554688 -1.46875,-1.5625 -1.46875,-4.265625 0,-2.859375 1.47656,-4.4375 1.47657,-1.585937 3.88282,-1.585937 2.10156,0 3.41406,1.242187 0.78125,0.734375 1.17187,2.109375 l -2.28906,0.546875 q -0.20312,-0.890625 -0.85156,-1.40625 -0.64063,-0.515625 -1.5625,-0.515625 -1.27344,0 -2.07031,0.914063 -0.78907,0.914062 -0.78907,2.960937 0,2.171875 0.78125,3.09375 0.78125,0.921875 2.03125,0.921875 0.92188,0 1.58594,-0.585937 0.66406,-0.585938 0.95313,-1.84375 z m 8.40625,1.15625 v -2.195313 h 4.3125 v 2.195313 z m 9.41406,3.054687 v -2.304687 h -4.6875 v -1.921875 l 4.96875,-7.273438 h 1.84375 v 7.265625 h 1.42187 v 1.929688 h -1.42187 v 2.304687 z m 0,-4.234375 v -3.914062 l -2.63281,3.914062 z"
       id="flowRoot4"
       transform="translate(-214.32867,537.44003)"
       aria-label="UTC -4" />
    <rect
       style="display:inline;fill:url(#linearGradient115);fill-opacity:1;stroke:none;stroke-width:0.999996;stroke-linecap:round;stroke-linejoin:round;stroke-dasharray:none;stroke-opacity:1"
       id="rect81"
       width="45"
       height="50"
       x="-435.00027"
       y="822.36255"
       transform="scale(-1,1)" />
  </g>
  <g
     id="layer6"
     style="display:inline" />
  <g
     id="layer5"
     style="display:inline" />
  <g
     id="layer12"
     style="display:inline" />
  <g
     id="layer2"
     style="display:inline" />
  <g
     id="layer4"
     style="display:inline" />
  <g
     id="layer3"
     style="display:inline" />
</svg>
