<?xml version="1.0" encoding="UTF-8" standalone="no"?>
<!-- Created with Inkscape (http://www.inkscape.org/) -->

<svg
   width="800"
   height="600"
   id="svg2"
   version="1.1"
   xmlns="http://www.w3.org/2000/svg"
   xmlns:svg="http://www.w3.org/2000/svg"
   xmlns:rdf="http://www.w3.org/1999/02/22-rdf-syntax-ns#"
   xmlns:cc="http://creativecommons.org/ns#"
   xmlns:dc="http://purl.org/dc/elements/1.1/">
  <defs
     id="defs4" />
  <metadata
     id="metadata7">
    <rdf:RDF>
      <cc:Work
         rdf:about="">
        <dc:format>image/svg+xml</dc:format>
        <dc:type
           rdf:resource="http://purl.org/dc/dcmitype/StillImage" />
        <dc:language>en</dc:language>
        <cc:license
           rdf:resource="https://timefold.ai/license" />
      </cc:Work>
    </rdf:RDF>
  </metadata>
  <g
     id="layer1"
     transform="translate(0,-452.36218)"
     style="display:inline">
    <path
       style="font-size:36px;line-height:1.25;font-family:'Liberation Sans';-inkscape-font-specification:'Liberation Sans, Normal';text-align:center;text-anchor:middle"
       d="m 181.9043,252.42716 v -25.76953 h 5.13281 l 6.09961,18.24609 q 0.84375,2.54883 1.23047,3.81445 0.43945,-1.40625 1.37109,-4.13085 l 6.16992,-17.92969 h 4.58789 v 25.76953 h -3.28711 V 230.8588 l -7.48828,21.56836 h -3.07617 l -7.45312,-21.9375 v 21.9375 z m 41.87109,-2.30274 q -1.75781,1.49415 -3.39258,2.10938 -1.61719,0.61523 -3.48047,0.61523 -3.07617,0 -4.72851,-1.49414 -1.65235,-1.51172 -1.65235,-3.84961 0,-1.37109 0.61524,-2.49609 0.63281,-1.14258 1.63476,-1.82812 1.01954,-0.68555 2.28516,-1.03711 0.93164,-0.2461 2.8125,-0.47461 3.83203,-0.45703 5.64258,-1.08985 0.0176,-0.65039 0.0176,-0.82617 0,-1.93359 -0.89649,-2.72461 -1.21289,-1.07226 -3.60351,-1.07226 -2.23243,0 -3.30469,0.79101 -1.05469,0.77344 -1.56445,2.75977 l -3.09375,-0.42188 q 0.42187,-1.98633 1.38867,-3.19922 0.96679,-1.23047 2.79492,-1.88086 1.82812,-0.66796 4.23633,-0.66796 2.39062,0 3.88476,0.5625 1.49414,0.5625 2.19727,1.42382 0.70312,0.84375 0.98437,2.14453 0.15821,0.8086 0.15821,2.91797 v 4.21875 q 0,4.41211 0.19336,5.58985 0.21093,1.16015 0.80859,2.23242 h -3.30469 q -0.49218,-0.98438 -0.63281,-2.30274 z m -0.26367,-7.0664 q -1.72266,0.70312 -5.16797,1.19531 -1.95117,0.28125 -2.75977,0.63281 -0.80859,0.35157 -1.24804,1.03711 -0.43946,0.66797 -0.43946,1.49414 0,1.26563 0.94922,2.10938 0.9668,0.84375 2.8125,0.84375 1.82813,0 3.25196,-0.79102 1.42382,-0.80859 2.09179,-2.19726 0.50977,-1.07227 0.50977,-3.16407 z m 8.10351,16.52344 v -25.82227 h 2.88282 v 2.42578 q 1.01953,-1.42383 2.30273,-2.12695 1.2832,-0.7207 3.11133,-0.7207 2.39062,0 4.21875,1.23046 1.82812,1.23047 2.75976,3.48047 0.93165,2.23242 0.93165,4.9043 0,2.86523 -1.03711,5.16797 -1.01954,2.28515 -2.98829,3.51562 -1.95117,1.21289 -4.11328,1.21289 -1.58203,0 -2.84765,-0.66796 -1.24805,-0.66797 -2.05664,-1.6875 v 9.08789 z m 2.86524,-16.38282 q 0,3.60352 1.45898,5.32618 1.45899,1.72265 3.53321,1.72265 2.10937,0 3.60351,-1.77539 1.51172,-1.79297 1.51172,-5.53711 0,-3.56836 -1.47656,-5.34375 -1.45899,-1.77539 -3.49805,-1.77539 -2.02148,0 -3.58594,1.89844 -1.54687,1.88086 -1.54687,5.48437 z m 17.61328,9.22852 v -25.76953 h 11.42578 q 3.44531,0 5.23828,0.70312 1.79297,0.68555 2.86524,2.44336 1.07226,1.75781 1.07226,3.88477 0,2.74219 -1.77539,4.62304 -1.77539,1.88086 -5.48437,2.39063 1.35351,0.65039 2.05664,1.2832 1.49414,1.3711 2.83008,3.42774 l 4.48242,7.01367 h -4.28907 l -3.41015,-5.36133 q -1.49414,-2.32031 -2.46094,-3.55078 -0.9668,-1.23047 -1.74023,-1.72266 -0.75586,-0.49218 -1.54688,-0.68554 -0.58008,-0.12305 -1.89844,-0.12305 h -3.95507 v 11.44336 z m 3.41016,-14.39649 h 7.33007 q 2.33789,0 3.65625,-0.4746 1.31836,-0.49219 2.00391,-1.54688 0.68555,-1.07227 0.68555,-2.32031 0,-1.82813 -1.33594,-3.00586 -1.31836,-1.17774 -4.18359,-1.17774 h -8.15625 z m 34.91015,8.38477 3.26953,0.4043 q -0.77343,2.86523 -2.86523,4.44726 -2.0918,1.58203 -5.34375,1.58203 -4.0957,0 -6.50391,-2.51367 -2.39062,-2.53125 -2.39062,-7.08398 0,-4.71094 2.42578,-7.3125 2.42578,-2.60156 6.29297,-2.60156 3.74414,0 6.11719,2.54882 2.37304,2.54883 2.37304,7.17188 0,0.28125 -0.0176,0.84375 h -13.92187 q 0.17578,3.07617 1.74023,4.71094 1.56446,1.63476 3.90235,1.63476 1.74023,0 2.9707,-0.91406 1.23047,-0.91406 1.95117,-2.91797 z m -10.38867,-5.11523 h 10.42383 q -0.21094,-2.35547 -1.19531,-3.53321 -1.51172,-1.82812 -3.91993,-1.82812 -2.17968,0 -3.67382,1.45898 -1.47657,1.45899 -1.63477,3.90235 z m 29.74219,11.12695 v -2.35547 q -1.77539,2.77734 -5.22071,2.77734 -2.23242,0 -4.11328,-1.23046 -1.86328,-1.23047 -2.90039,-3.42774 -1.01953,-2.21484 -1.01953,-5.08008 0,-2.79492 0.93164,-5.0625 0.93164,-2.28515 2.79492,-3.49804 1.86329,-1.21289 4.16602,-1.21289 1.6875,0 3.00586,0.7207 1.31836,0.70312 2.14453,1.8457 v -9.24609 h 3.14648 v 25.76953 z m -10.00196,-9.31641 q 0,3.58594 1.51172,5.36133 1.51172,1.77539 3.56836,1.77539 2.07422,0 3.51563,-1.6875 1.45898,-1.70508 1.45898,-5.18555 0,-3.83203 -1.47656,-5.625 -1.47656,-1.79296 -3.63867,-1.79296 -2.10938,0 -3.53321,1.72265 -1.40625,1.72266 -1.40625,5.43164 z m 30.14649,9.31641 v -2.74219 q -2.17969,3.16406 -5.92383,3.16406 -1.65234,0 -3.09375,-0.63281 -1.42383,-0.63281 -2.12695,-1.58203 -0.68555,-0.9668 -0.9668,-2.35547 -0.19336,-0.93164 -0.19336,-2.95312 v -11.56641 h 3.16406 v 10.35352 q 0,2.47851 0.19336,3.33984 0.29883,1.24805 1.26563,1.96875 0.9668,0.70312 2.39062,0.70312 1.42383,0 2.67188,-0.7207 1.24805,-0.73828 1.75781,-1.98633 0.52734,-1.26562 0.52734,-3.65625 v -10.00195 h 3.16407 v 18.66797 z m 19.96875,-6.83789 3.11133,0.4043 q -0.50977,3.21679 -2.61914,5.04492 -2.0918,1.81054 -5.15039,1.81054 -3.83204,0 -6.16993,-2.49609 -2.32031,-2.51367 -2.32031,-7.18945 0,-3.02344 1.00195,-5.29102 1.00196,-2.26758 3.04102,-3.39258 2.05664,-1.14257 4.46484,-1.14257 3.04102,0 4.97461,1.54687 1.9336,1.5293 2.47852,4.35938 l -3.07617,0.4746 q -0.43946,-1.88085 -1.56446,-2.83007 -1.10742,-0.94922 -2.68945,-0.94922 -2.39062,0 -3.88476,1.72265 -1.49415,1.70508 -1.49415,5.41407 0,3.76172 1.44141,5.46679 1.44141,1.70508 3.76172,1.70508 1.86328,0 3.11133,-1.14258 1.24804,-1.14257 1.58203,-3.51562 z m 18.59766,0.82617 3.26953,0.4043 q -0.77344,2.86523 -2.86524,4.44726 -2.09179,1.58203 -5.34375,1.58203 -4.0957,0 -6.5039,-2.51367 -2.39063,-2.53125 -2.39063,-7.08398 0,-4.71094 2.42578,-7.3125 2.42578,-2.60156 6.29297,-2.60156 3.74414,0 6.11719,2.54882 2.37305,2.54883 2.37305,7.17188 0,0.28125 -0.0176,0.84375 h -13.92188 q 0.17578,3.07617 1.74024,4.71094 1.56445,1.63476 3.90234,1.63476 1.74023,0 2.9707,-0.91406 1.23047,-0.91406 1.95118,-2.91797 z m -10.38868,-5.11523 h 10.42383 q -0.21094,-2.35547 -1.19531,-3.53321 -1.51172,-1.82812 -3.91992,-1.82812 -2.17969,0 -3.67383,1.45898 -1.47656,1.45899 -1.63477,3.90235 z m 27.65039,-11.00391 v -3.63867 h 3.16407 v 3.63867 z m 0,22.13086 v -18.66797 h 3.16407 v 18.66797 z m 6.71485,-5.57227 3.1289,-0.49218 q 0.26368,1.88086 1.45899,2.88281 1.21289,1.00195 3.375,1.00195 2.17969,0 3.23437,-0.8789 1.05469,-0.89649 1.05469,-2.0918 0,-1.07227 -0.93164,-1.6875 -0.65039,-0.42188 -3.23437,-1.07227 -3.48047,-0.8789 -4.83399,-1.51172 -1.33594,-0.65039 -2.03906,-1.77539 -0.68555,-1.14257 -0.68555,-2.51367 0,-1.24805 0.5625,-2.30273 0.58008,-1.07227 1.56445,-1.77539 0.73829,-0.54493 2.00391,-0.91407 1.2832,-0.38671 2.74219,-0.38671 2.19726,0 3.84961,0.63281 1.66992,0.63281 2.46094,1.72265 0.79101,1.07227 1.08984,2.88282 l -3.09375,0.42187 q -0.21094,-1.4414 -1.23047,-2.25 -1.00195,-0.80859 -2.84766,-0.80859 -2.17968,0 -3.11132,0.7207 -0.93164,0.7207 -0.93164,1.6875 0,0.61524 0.38671,1.10742 0.38672,0.50977 1.21289,0.84375 0.47461,0.17578 2.79493,0.8086 3.35742,0.89648 4.67578,1.47656 1.33594,0.5625 2.09179,1.65234 0.75586,1.08985 0.75586,2.70703 0,1.58204 -0.93164,2.98829 -0.91406,1.38867 -2.65429,2.1621 -1.74024,0.75586 -3.9375,0.75586 -3.63868,0 -5.55469,-1.51171 -1.89844,-1.51172 -2.42578,-4.48243 z m 36.17578,2.74219 0.45703,2.79492 q -1.33594,0.28125 -2.39062,0.28125 -1.72266,0 -2.67188,-0.54492 -0.94922,-0.54492 -1.33594,-1.42383 -0.38672,-0.89648 -0.38672,-3.74414 v -10.74023 h -2.32031 v -2.46094 h 2.32031 v -4.62305 l 3.14649,-1.89843 v 6.52148 h 3.18164 v 2.46094 h -3.18164 v 10.91601 q 0,1.35352 0.1582,1.74024 0.17578,0.38672 0.54492,0.61523 0.38672,0.22852 1.08985,0.22852 0.52734,0 1.38867,-0.12305 z m 15.87305,-3.18164 3.26953,0.4043 Q 447,249.68497 444.9082,251.267 q -2.09179,1.58203 -5.34375,1.58203 -4.0957,0 -6.5039,-2.51367 -2.39063,-2.53125 -2.39063,-7.08398 0,-4.71094 2.42578,-7.3125 2.42578,-2.60156 6.29297,-2.60156 3.74414,0 6.11719,2.54882 2.37305,2.54883 2.37305,7.17188 0,0.28125 -0.0176,0.84375 h -13.92188 q 0.17578,3.07617 1.74024,4.71094 1.56445,1.63476 3.90234,1.63476 1.74024,0 2.9707,-0.91406 1.23047,-0.91406 1.95118,-2.91797 z m -10.38868,-5.11523 h 10.42383 q -0.21094,-2.35547 -1.19531,-3.53321 -1.51172,-1.82812 -3.91992,-1.82812 -2.17969,0 -3.67383,1.45898 -1.47656,1.45899 -1.63477,3.90235 z m 17.59571,11.12695 v -18.66797 h 2.84765 v 2.83008 q 1.08985,-1.98633 2.00391,-2.61914 0.93164,-0.63281 2.03906,-0.63281 1.59961,0 3.25196,1.01953 l -1.08985,2.93554 q -1.16015,-0.68554 -2.32031,-0.68554 -1.03711,0 -1.86328,0.63281 -0.82617,0.61523 -1.17774,1.72266 -0.52734,1.6875 -0.52734,3.6914 v 9.77344 z m 11.98828,0 v -18.66797 h 2.84765 v 2.83008 q 1.08985,-1.98633 2.00391,-2.61914 0.93164,-0.63281 2.03906,-0.63281 1.59961,0 3.25196,1.01953 l -1.08985,2.93554 q -1.16015,-0.68554 -2.32031,-0.68554 -1.03711,0 -1.86328,0.63281 -0.82617,0.61523 -1.17774,1.72266 -0.52734,1.6875 -0.52734,3.6914 v 9.77344 z m 12.04101,-22.13086 v -3.63867 h 3.16407 v 3.63867 z m 0,22.13086 v -18.66797 h 3.16407 v 18.66797 z m 10.89844,0 h -2.93555 v -25.76953 h 3.16407 v 9.19336 q 2.0039,-2.51367 5.11523,-2.51367 1.72266,0 3.25195,0.70312 1.54688,0.68555 2.53125,1.95117 1.00196,1.24805 1.56446,3.02344 0.5625,1.77539 0.5625,3.79687 0,4.79883 -2.37305,7.41797 -2.37305,2.61914 -5.69531,2.61914 -3.30469,0 -5.18555,-2.75976 z m -0.0351,-9.47461 q 0,3.35742 0.91406,4.85156 1.49414,2.44336 4.04297,2.44336 2.07422,0 3.58593,-1.79297 1.51172,-1.81054 1.51172,-5.3789 0,-3.65625 -1.45898,-5.39649 -1.44141,-1.74023 -3.49805,-1.74023 -2.07422,0 -3.58594,1.81054 -1.51171,1.79297 -1.51171,5.20313 z m 17.06835,9.47461 v -25.76953 h 3.16407 v 25.76953 z m 20.84766,-6.01172 3.26953,0.4043 q -0.77344,2.86523 -2.86523,4.44726 -2.0918,1.58203 -5.34375,1.58203 -4.09571,0 -6.50391,-2.51367 -2.39062,-2.53125 -2.39062,-7.08398 0,-4.71094 2.42578,-7.3125 2.42578,-2.60156 6.29297,-2.60156 3.74414,0 6.11718,2.54882 2.37305,2.54883 2.37305,7.17188 0,0.28125 -0.0176,0.84375 h -13.92187 q 0.17578,3.07617 1.74023,4.71094 1.56446,1.63476 3.90235,1.63476 1.74023,0 2.9707,-0.91406 1.23047,-0.91406 1.95117,-2.91797 z m -10.38867,-5.11523 h 10.42383 q -0.21094,-2.35547 -1.19532,-3.53321 -1.51171,-1.82812 -3.91992,-1.82812 -2.17968,0 -3.67383,1.45898 -1.47656,1.45899 -1.63476,3.90235 z m 28.38867,11.12695 v -16.20703 h -2.79492 v -2.46094 h 2.79492 v -1.98633 q 0,-1.88086 0.33399,-2.79492 0.45703,-1.23047 1.5996,-1.98633 1.16016,-0.77344 3.23438,-0.77344 1.33594,0 2.95312,0.31641 l -0.4746,2.75977 q -0.98438,-0.17578 -1.86329,-0.17578 -1.4414,0 -2.03906,0.61523 -0.59765,0.61523 -0.59765,2.30273 v 1.72266 h 3.63867 v 2.46094 h -3.63867 v 16.20703 z m 8.06836,-9.33399 q 0,-5.18554 2.88281,-7.68164 2.40821,-2.07421 5.8711,-2.07421 3.84961,0 6.29297,2.53125 2.44335,2.51367 2.44335,6.96093 0,3.60352 -1.08984,5.67774 -1.07226,2.05664 -3.14648,3.19922 -2.05664,1.14257 -4.5,1.14257 -3.91993,0 -6.34571,-2.51367 -2.4082,-2.51367 -2.4082,-7.24219 z m 3.25195,0 q 0,3.58594 1.56446,5.37891 1.56445,1.77539 3.9375,1.77539 2.35547,0 3.91992,-1.79297 1.56445,-1.79297 1.56445,-5.46679 0,-3.46289 -1.58203,-5.23829 -1.56445,-1.79296 -3.90234,-1.79296 -2.37305,0 -3.9375,1.77539 -1.56446,1.77539 -1.56446,5.36132 z m 17.91211,9.33399 v -18.66797 h 2.84766 v 2.83008 q 1.08984,-1.98633 2.00391,-2.61914 0.93164,-0.63281 2.03906,-0.63281 1.59961,0 3.25195,1.01953 l -1.08984,2.93554 q -1.16016,-0.68554 -2.32032,-0.68554 -1.0371,0 -1.86328,0.63281 -0.82617,0.61523 -1.17773,1.72266 -0.52734,1.6875 -0.52734,3.6914 v 9.77344 z m 28.33594,0 v -22.72852 h -8.49023 v -3.04101 h 20.42578 v 3.04101 h -8.52539 v 22.72852 z m 14.27344,-8.2793 3.21679,-0.28125 q 0.22852,1.9336 1.05469,3.18164 0.84375,1.23047 2.60156,2.00391 1.75782,0.75586 3.95508,0.75586 1.95117,0 3.44532,-0.58008 1.49414,-0.58008 2.21484,-1.58203 0.73828,-1.01953 0.73828,-2.21484 0,-1.2129 -0.70312,-2.10938 -0.70313,-0.91406 -2.32032,-1.5293 -1.03711,-0.40429 -4.58789,-1.24804 -3.55078,-0.86133 -4.97461,-1.61719 -1.8457,-0.9668 -2.75976,-2.39063 -0.89649,-1.4414 -0.89649,-3.21679 0,-1.95117 1.10742,-3.63867 1.10743,-1.70508 3.23438,-2.58399 2.12695,-0.87891 4.72852,-0.87891 2.86523,0 5.04492,0.93165 2.19726,0.91406 3.375,2.70703 1.17773,1.79297 1.26562,4.06054 l -3.26953,0.2461 q -0.26367,-2.44336 -1.79297,-3.69141 -1.51172,-1.24805 -4.48242,-1.24805 -3.09375,0 -4.51758,1.14258 -1.40625,1.125 -1.40625,2.72461 0,1.38867 1.00196,2.28516 0.98437,0.89648 5.13281,1.8457 4.16601,0.93164 5.71289,1.63477 2.25,1.03711 3.32226,2.63672 1.07227,1.58203 1.07227,3.65625 0,2.05664 -1.17773,3.88476 -1.17774,1.81055 -3.39258,2.83008 -2.19727,1.00195 -4.95703,1.00195 -3.49805,0 -5.8711,-1.01953 -2.35547,-1.01953 -3.70898,-3.05859 -1.33594,-2.05664 -1.40625,-4.64063 z m 25.17187,8.2793 v -25.76953 h 9.72071 q 2.5664,0 3.91992,0.24609 1.89844,0.31641 3.18164,1.21289 1.2832,0.87891 2.05664,2.47852 0.79101,1.59961 0.79101,3.51562 0,3.28711 -2.09179,5.57227 -2.0918,2.26758 -7.5586,2.26758 h -6.60937 v 10.47656 z m 3.41016,-13.51758 h 6.66211 q 3.30469,0 4.69336,-1.23047 1.38867,-1.23047 1.38867,-3.46289 0,-1.61719 -0.82617,-2.75976 -0.8086,-1.16016 -2.14453,-1.5293 -0.86133,-0.22852 -3.18164,-0.22852 h -6.5918 z"
       id="flowRoot4302"
       transform="translate(-20,262.36198)"
       aria-label="MapReduce is terrible for TSP" />
    <path
       style="font-size:14px;line-height:1.25;font-family:'Liberation Sans';-inkscape-font-specification:'Liberation Sans, Normal';text-align:center;text-anchor:middle"
       d="m 137.62451,162.61056 -2.65918,-10.02148 h 1.36035 l 1.52442,6.56933 q 0.24609,1.03223 0.42383,2.05078 0.38281,-1.60644 0.45117,-1.85253 l 1.90722,-6.76758 h 1.59961 l 1.43555,5.07226 q 0.54004,1.88672 0.7793,3.54785 0.1914,-0.95019 0.49902,-2.18066 l 1.57227,-6.43945 h 1.333 l -2.74804,10.02148 h -1.27832 l -2.11231,-7.63574 q -0.2666,-0.95703 -0.31445,-1.17578 -0.15723,0.69043 -0.29395,1.17578 l -2.12597,7.63574 z m 11.30664,0 v -10.02148 h 1.23047 v 3.5957 q 0.86133,-0.99805 2.17383,-0.99805 0.80664,0 1.40137,0.32129 0.59472,0.31446 0.84765,0.875 0.25977,0.56055 0.25977,1.62696 v 4.60058 h -1.23047 v -4.60058 q 0,-0.92286 -0.40332,-1.33985 -0.39649,-0.42383 -1.12793,-0.42383 -0.54688,0 -1.03223,0.28711 -0.47851,0.28028 -0.68359,0.76563 -0.20508,0.48535 -0.20508,1.33984 v 3.97168 z m 7.73145,2.7959 -0.13672,-1.15527 q 0.40332,0.10937 0.7041,0.10937 0.41016,0 0.65625,-0.13672 0.24609,-0.13672 0.40332,-0.38281 0.11621,-0.18457 0.37598,-0.91601 0.0342,-0.10254 0.10937,-0.30079 l -2.75488,-7.27343 h 1.32617 l 1.51074,4.2041 q 0.29395,0.7998 0.52637,1.68164 0.21191,-0.84766 0.50586,-1.6543 l 1.55176,-4.23144 h 1.23047 l -2.76172,7.38281 q -0.44434,1.19629 -0.69043,1.64746 -0.32813,0.6084 -0.75195,0.88867 -0.42383,0.28711 -1.01172,0.28711 -0.35547,0 -0.79297,-0.15039 z m 15.65429,-2.7959 v -0.91601 q -0.69043,1.08007 -2.03027,1.08007 -0.86816,0 -1.59961,-0.47851 -0.72461,-0.47852 -1.12793,-1.33301 -0.39648,-0.86133 -0.39648,-1.97558 0,-1.08692 0.3623,-1.96875 0.36231,-0.88868 1.08692,-1.36036 0.72461,-0.47168 1.62011,-0.47168 0.65625,0 1.16895,0.28028 0.51269,0.27343 0.83398,0.71777 v -3.5957 h 1.22364 v 10.02148 z m -3.88964,-3.62304 q 0,1.39453 0.58789,2.08496 0.58789,0.69043 1.38769,0.69043 0.80664,0 1.36719,-0.65625 0.56738,-0.66309 0.56738,-2.01661 0,-1.49023 -0.57422,-2.1875 -0.57422,-0.69726 -1.41504,-0.69726 -0.82031,0 -1.37402,0.66992 -0.54687,0.66992 -0.54687,2.11231 z m 6.50781,-0.007 q 0,-2.0166 1.12109,-2.98731 0.93653,-0.80664 2.28321,-0.80664 1.49707,0 2.44726,0.98438 0.9502,0.97754 0.9502,2.70703 0,1.40137 -0.42383,2.20801 -0.41699,0.7998 -1.22363,1.24414 -0.79981,0.44433 -1.75,0.44433 -1.52442,0 -2.46778,-0.97753 -0.93652,-0.97754 -0.93652,-2.81641 z m 1.26465,0 q 0,1.39453 0.6084,2.0918 0.60839,0.69043 1.53125,0.69043 0.91601,0 1.52441,-0.69727 0.6084,-0.69727 0.6084,-2.12598 0,-1.34668 -0.61524,-2.03711 -0.60839,-0.69726 -1.51757,-0.69726 -0.92286,0 -1.53125,0.69043 -0.6084,0.69043 -0.6084,2.08496 z m 10.98535,3.62988 v -10.02148 h 1.99609 l 2.37207,7.0957 q 0.32813,0.99121 0.47852,1.4834 0.1709,-0.54688 0.5332,-1.60645 l 2.39942,-6.97265 h 1.78418 v 10.02148 h -1.27833 v -8.38769 l -2.9121,8.38769 h -1.19629 l -2.89844,-8.53125 v 8.53125 z m 16.2832,-0.89551 q -0.68359,0.58106 -1.31933,0.82032 -0.62891,0.23925 -1.35352,0.23925 -1.19629,0 -1.83887,-0.58105 -0.64258,-0.58789 -0.64258,-1.49707 0,-0.5332 0.23926,-0.9707 0.2461,-0.44434 0.63574,-0.71094 0.39649,-0.2666 0.88868,-0.40332 0.3623,-0.0957 1.09375,-0.18457 1.49023,-0.17774 2.19433,-0.42383 0.007,-0.25293 0.007,-0.32129 0,-0.75195 -0.34863,-1.05957 -0.47168,-0.41699 -1.40137,-0.41699 -0.86817,0 -1.28516,0.30762 -0.41015,0.30078 -0.6084,1.07324 l -1.20312,-0.16406 q 0.16406,-0.77247 0.54004,-1.24415 0.37597,-0.47851 1.08691,-0.73144 0.71094,-0.25977 1.64746,-0.25977 0.92969,0 1.51075,0.21875 0.58105,0.21875 0.85449,0.55371 0.27343,0.32813 0.38281,0.83399 0.0615,0.31445 0.0615,1.13476 v 1.64063 q 0,1.71582 0.0752,2.17383 0.082,0.45117 0.31445,0.86816 h -1.28515 q -0.19141,-0.38281 -0.2461,-0.89551 z m -0.10254,-2.74804 q -0.66992,0.27343 -2.00976,0.46484 -0.75879,0.10938 -1.07325,0.24609 -0.31445,0.13672 -0.48535,0.40333 -0.1709,0.25976 -0.1709,0.58105 0,0.49219 0.36915,0.82031 0.37597,0.32813 1.09375,0.32813 0.71093,0 1.26464,-0.30762 0.55371,-0.31445 0.81348,-0.85449 0.19824,-0.41699 0.19824,-1.23047 z m 3.15137,6.42578 V 155.3508 h 1.12109 v 0.94336 q 0.39649,-0.55372 0.89551,-0.82715 0.49902,-0.28028 1.20996,-0.28028 0.92969,0 1.64063,0.47852 0.71093,0.47852 1.07324,1.35352 0.3623,0.86816 0.3623,1.90722 0,1.11426 -0.40332,2.00977 -0.39648,0.88867 -1.16211,1.36718 -0.75878,0.47168 -1.5996,0.47168 -0.61524,0 -1.10743,-0.25976 -0.48535,-0.25977 -0.7998,-0.65625 v 3.53418 z m 1.11426,-6.3711 q 0,1.40137 0.56738,2.07129 0.56738,0.66993 1.37402,0.66993 0.82032,0 1.40137,-0.69043 0.58789,-0.69727 0.58789,-2.15332 0,-1.3877 -0.57422,-2.07813 -0.56738,-0.69043 -1.36035,-0.69043 -0.78613,0 -1.39453,0.73828 -0.60156,0.73145 -0.60156,2.13281 z m 6.84961,3.58887 v -10.02148 h 4.44336 q 1.33984,0 2.03711,0.27344 0.69726,0.2666 1.11425,0.95019 0.417,0.68359 0.417,1.51074 0,1.06641 -0.69043,1.79785 -0.69043,0.73145 -2.13282,0.92969 0.52637,0.25293 0.79981,0.49903 0.58105,0.5332 1.10058,1.333 l 1.74317,2.72754 h -1.66797 l -1.32617,-2.08496 q -0.58106,-0.90234 -0.95703,-1.38086 -0.37598,-0.47851 -0.67676,-0.66992 -0.29395,-0.19141 -0.60156,-0.2666 -0.22559,-0.0479 -0.73829,-0.0479 h -1.53808 v 4.45019 z m 1.32617,-5.59863 h 2.85058 q 0.90918,0 1.42188,-0.18457 0.5127,-0.19141 0.7793,-0.60156 0.2666,-0.417 0.2666,-0.90235 0,-0.71093 -0.51953,-1.16894 -0.5127,-0.45801 -1.62696,-0.45801 h -3.17187 z m 13.57617,3.26074 1.27149,0.15723 q -0.30079,1.11426 -1.11426,1.72949 -0.81348,0.61523 -2.07813,0.61523 -1.59277,0 -2.52929,-0.97753 -0.92969,-0.98438 -0.92969,-2.75489 0,-1.83203 0.94336,-2.84375 0.94336,-1.01172 2.44726,-1.01172 1.45606,0 2.37891,0.99121 0.92285,0.99122 0.92285,2.78907 0,0.10937 -0.007,0.32812 h -5.41406 q 0.0684,1.19629 0.67676,1.83203 0.6084,0.63575 1.51758,0.63575 0.67676,0 1.15527,-0.35547 0.47852,-0.35547 0.75879,-1.13477 z m -4.04004,-1.98926 h 4.05371 q -0.082,-0.91601 -0.46484,-1.37402 -0.58789,-0.71094 -1.52442,-0.71094 -0.84765,0 -1.42871,0.56739 -0.57421,0.56738 -0.63574,1.51757 z m 11.56641,4.32715 v -0.91601 q -0.69043,1.08007 -2.03028,1.08007 -0.86816,0 -1.5996,-0.47851 -0.72461,-0.47852 -1.12793,-1.33301 -0.39649,-0.86133 -0.39649,-1.97558 0,-1.08692 0.36231,-1.96875 0.3623,-0.88868 1.08691,-1.36036 0.72461,-0.47168 1.62012,-0.47168 0.65625,0 1.16894,0.28028 0.5127,0.27343 0.83399,0.71777 v -3.5957 h 1.22363 v 10.02148 z m -3.88965,-3.62304 q 0,1.39453 0.58789,2.08496 0.58789,0.69043 1.3877,0.69043 0.80664,0 1.36718,-0.65625 0.56739,-0.66309 0.56739,-2.01661 0,-1.49023 -0.57422,-2.1875 -0.57422,-0.69726 -1.41504,-0.69726 -0.82031,0 -1.37403,0.66992 -0.54687,0.66992 -0.54687,2.11231 z m 11.72363,3.62304 v -1.0664 q -0.84765,1.23046 -2.30371,1.23046 -0.64258,0 -1.20312,-0.24609 -0.55371,-0.24609 -0.82715,-0.61523 -0.2666,-0.37598 -0.37598,-0.91602 -0.0752,-0.3623 -0.0752,-1.14844 v -4.49804 h 1.23046 v 4.02636 q 0,0.96387 0.0752,1.29883 0.11621,0.48535 0.49219,0.76563 0.37597,0.27343 0.92969,0.27343 0.55371,0 1.03906,-0.28027 0.48535,-0.28711 0.68359,-0.77246 0.20508,-0.49219 0.20508,-1.42188 v -3.88964 h 1.23047 v 7.25976 z m 7.76563,-2.65918 1.20996,0.15723 q -0.19824,1.25098 -1.01856,1.96191 -0.81347,0.7041 -2.00293,0.7041 -1.49023,0 -2.39941,-0.9707 -0.90234,-0.97754 -0.90234,-2.7959 0,-1.17578 0.38964,-2.05761 0.38965,-0.88184 1.18262,-1.31934 0.79981,-0.44434 1.73633,-0.44434 1.18262,0 1.93457,0.60157 0.75195,0.59472 0.96387,1.69531 l -1.19629,0.18457 q -0.1709,-0.73145 -0.6084,-1.10059 -0.43066,-0.36914 -1.0459,-0.36914 -0.92969,0 -1.51074,0.66992 -0.58106,0.66309 -0.58106,2.10547 0,1.46289 0.56055,2.12598 0.56055,0.66309 1.46289,0.66309 0.72461,0 1.20996,-0.44434 0.48535,-0.44434 0.61524,-1.36719 z m 7.23242,0.32129 1.27148,0.15723 q -0.30078,1.11426 -1.11425,1.72949 -0.81348,0.61523 -2.07813,0.61523 -1.59277,0 -2.5293,-0.97753 -0.92968,-0.98438 -0.92968,-2.75489 0,-1.83203 0.94336,-2.84375 0.94336,-1.01172 2.44726,-1.01172 1.45606,0 2.37891,0.99121 0.92285,0.99122 0.92285,2.78907 0,0.10937 -0.007,0.32812 h -5.41406 q 0.0684,1.19629 0.67676,1.83203 0.6084,0.63575 1.51758,0.63575 0.67675,0 1.15527,-0.35547 0.47852,-0.35547 0.75879,-1.13477 z m -4.04004,-1.98926 h 4.05371 q -0.082,-0.91601 -0.46484,-1.37402 -0.58789,-0.71094 -1.52442,-0.71094 -0.84765,0 -1.42871,0.56739 -0.57422,0.56738 -0.63574,1.51757 z m 7.17773,4.32715 v -1.40137 h 1.40137 v 1.40137 q 0,0.77246 -0.27344,1.24414 -0.27343,0.47852 -0.86816,0.73828 l -0.3418,-0.52636 q 0.38965,-0.1709 0.57422,-0.50586 0.18457,-0.32813 0.20508,-0.9502 z m 7.61524,0 v -10.02148 h 3.45215 q 1.16894,0 1.78418,0.14355 0.86133,0.19824 1.46972,0.71778 0.79297,0.66992 1.18262,1.71582 0.39649,1.03906 0.39649,2.3789 0,1.1416 -0.26661,2.02344 -0.2666,0.88184 -0.68359,1.46289 -0.41699,0.57422 -0.91602,0.90918 -0.49218,0.32813 -1.19628,0.49902 -0.69727,0.1709 -1.60645,0.1709 z m 1.32617,-1.18262 h 2.13965 q 0.99121,0 1.55176,-0.18457 0.56738,-0.18457 0.90234,-0.51953 0.47168,-0.47168 0.73145,-1.26465 0.2666,-0.7998 0.2666,-1.93457 0,-1.57226 -0.51953,-2.41308 -0.5127,-0.84766 -1.25098,-1.13477 -0.5332,-0.20508 -1.71582,-0.20508 h -2.10547 z m 8.63379,-7.42382 v -1.41504 h 1.23047 v 1.41504 z m 0,8.60644 v -7.25976 h 1.23047 v 7.25976 z m 5.12012,0 -2.76172,-7.25976 h 1.29883 l 1.55859,4.34765 q 0.25293,0.7041 0.46484,1.46289 0.16407,-0.57422 0.45801,-1.38086 l 1.61328,-4.42968 h 1.26465 l -2.74805,7.25976 z m 4.99023,-8.60644 v -1.41504 h 1.23047 v 1.41504 z m 0,8.60644 v -7.25976 h 1.23047 v 7.25976 z m 7.81348,0 v -0.91601 q -0.69043,1.08007 -2.03028,1.08007 -0.86816,0 -1.5996,-0.47851 -0.72461,-0.47852 -1.12793,-1.33301 -0.39649,-0.86133 -0.39649,-1.97558 0,-1.08692 0.36231,-1.96875 0.3623,-0.88868 1.08691,-1.36036 0.72461,-0.47168 1.62012,-0.47168 0.65625,0 1.16894,0.28028 0.5127,0.27343 0.83399,0.71777 v -3.5957 h 1.22363 v 10.02148 z m -3.88965,-3.62304 q 0,1.39453 0.58789,2.08496 0.58789,0.69043 1.3877,0.69043 0.80664,0 1.36718,-0.65625 0.56739,-0.66309 0.56739,-2.01661 0,-1.49023 -0.57422,-2.1875 -0.57422,-0.69726 -1.41504,-0.69726 -0.82031,0 -1.37403,0.66992 -0.54687,0.66992 -0.54687,2.11231 z m 11.93555,1.28515 1.27148,0.15723 q -0.30078,1.11426 -1.11426,1.72949 -0.81347,0.61523 -2.07812,0.61523 -1.59278,0 -2.5293,-0.97753 -0.92969,-0.98438 -0.92969,-2.75489 0,-1.83203 0.94336,-2.84375 0.94336,-1.01172 2.44727,-1.01172 1.45605,0 2.3789,0.99121 0.92286,0.99122 0.92286,2.78907 0,0.10937 -0.007,0.32812 h -5.41406 q 0.0684,1.19629 0.67676,1.83203 0.60839,0.63575 1.51757,0.63575 0.67676,0 1.15528,-0.35547 0.47851,-0.35547 0.75879,-1.13477 z m -4.04004,-1.98926 h 4.05371 q -0.082,-0.91601 -0.46485,-1.37402 -0.58789,-0.71094 -1.52441,-0.71094 -0.84766,0 -1.42871,0.56739 -0.57422,0.56738 -0.63574,1.51757 z m 12.58496,3.14453 q -0.6084,0.67676 -1.32617,1.01856 -0.71778,0.33496 -1.55176,0.33496 -1.53809,0 -2.44043,-1.03906 -0.73145,-0.84766 -0.73145,-1.89356 0,-0.92968 0.59473,-1.6748 0.60156,-0.75195 1.79102,-1.31934 -0.67676,-0.77929 -0.90235,-1.26465 -0.22558,-0.48535 -0.22558,-0.93652 0,-0.90234 0.7041,-1.56543 0.71094,-0.66992 1.78418,-0.66992 1.02539,0 1.6748,0.62891 0.65625,0.6289 0.65625,1.51074 0,1.42871 -1.89355,2.44043 l 1.79785,2.29004 q 0.30762,-0.60157 0.47851,-1.39453 l 1.27832,0.27343 q -0.32812,1.3125 -0.88867,2.16016 0.69043,0.91601 1.56543,1.53808 l -0.82715,0.97754 q -0.74511,-0.47851 -1.53808,-1.41504 z m -2.50195,-5.22265 q 0.7998,-0.47168 1.03222,-0.82715 0.23926,-0.35547 0.23926,-0.78613 0,-0.5127 -0.32813,-0.83399 -0.32128,-0.32812 -0.80664,-0.32812 -0.49902,0 -0.83398,0.32129 -0.32813,0.32129 -0.32813,0.78613 0,0.23242 0.11622,0.49219 0.12304,0.25293 0.3623,0.54004 z m 1.72949,4.25195 -2.25586,-2.7959 q -0.99805,0.59473 -1.34668,1.10743 -0.34863,0.50585 -0.34863,1.00488 0,0.6084 0.48535,1.26465 0.48535,0.65625 1.37402,0.65625 0.55371,0 1.1416,-0.3418 0.59473,-0.34863 0.9502,-0.89551 z m 11.68945,-1.36035 1.32617,0.33496 q -0.41699,1.63379 -1.5039,2.49512 -1.08008,0.85449 -2.64551,0.85449 -1.62012,0 -2.63867,-0.65625 -1.01172,-0.66309 -1.54493,-1.91406 -0.52636,-1.25098 -0.52636,-2.68653 0,-1.56543 0.59472,-2.72753 0.60157,-1.16895 1.70215,-1.77051 1.10742,-0.6084 2.4336,-0.6084 1.5039,0 2.52929,0.76562 1.02539,0.76563 1.42871,2.15332 l -1.30566,0.30762 q -0.34863,-1.09375 -1.01172,-1.59277 -0.66308,-0.49903 -1.66797,-0.49903 -1.15527,0 -1.93457,0.55372 -0.77246,0.55371 -1.08691,1.49023 -0.31446,0.92969 -0.31446,1.9209 0,1.27832 0.36915,2.23535 0.37597,0.9502 1.1621,1.42188 0.78614,0.47167 1.70215,0.47167 1.11426,0 1.88672,-0.64257 0.77246,-0.64258 1.0459,-1.90723 z m 2.34473,-0.11621 q 0,-2.0166 1.12109,-2.98731 0.93652,-0.80664 2.2832,-0.80664 1.49707,0 2.44727,0.98438 0.95019,0.97754 0.95019,2.70703 0,1.40137 -0.42382,2.20801 -0.417,0.7998 -1.22364,1.24414 -0.7998,0.44433 -1.75,0.44433 -1.52441,0 -2.46777,-0.97753 -0.93652,-0.97754 -0.93652,-2.81641 z m 1.26465,0 q 0,1.39453 0.60839,2.0918 0.6084,0.69043 1.53125,0.69043 0.91602,0 1.52442,-0.69727 0.6084,-0.69727 0.6084,-2.12598 0,-1.34668 -0.61524,-2.03711 -0.6084,-0.69726 -1.51758,-0.69726 -0.92285,0 -1.53125,0.69043 -0.60839,0.69043 -0.60839,2.08496 z m 6.97949,3.62988 v -7.25976 h 1.10742 v 1.03222 q 0.7998,-1.19629 2.31055,-1.19629 0.65625,0 1.20312,0.23926 0.55371,0.23242 0.82715,0.61524 0.27344,0.38281 0.38281,0.90918 0.0684,0.34179 0.0684,1.19628 v 4.46387 h -1.23047 v -4.41601 q 0,-0.75196 -0.14355,-1.1211 -0.14356,-0.37597 -0.5127,-0.59472 -0.3623,-0.22559 -0.85449,-0.22559 -0.78613,0 -1.36035,0.49902 -0.56738,0.49903 -0.56738,1.89356 v 3.96484 z m 12.41406,2.78223 v -3.55469 q -0.28711,0.40332 -0.80664,0.66992 -0.5127,0.2666 -1.09375,0.2666 -1.29199,0 -2.22852,-1.03222 -0.92968,-1.03223 -0.92968,-2.83008 0,-1.09375 0.37597,-1.96191 0.38282,-0.86817 1.10059,-1.3125 0.72461,-0.45118 1.58594,-0.45118 1.34668,0 2.11914,1.13477 v -0.9707 h 1.10742 v 10.04199 z m -3.79395,-6.43262 q 0,1.40137 0.5879,2.10547 0.58789,0.69727 1.4082,0.69727 0.78613,0 1.35351,-0.66309 0.56739,-0.66992 0.56739,-2.03027 0,-1.44922 -0.60157,-2.18067 -0.59472,-0.73144 -1.40136,-0.73144 -0.79981,0 -1.36035,0.68359 -0.55372,0.67676 -0.55372,2.11914 z m 11.70997,3.65039 v -1.0664 q -0.84766,1.23046 -2.30372,1.23046 -0.64257,0 -1.20312,-0.24609 -0.55371,-0.24609 -0.82715,-0.61523 -0.2666,-0.37598 -0.37598,-0.91602 -0.0752,-0.3623 -0.0752,-1.14844 v -4.49804 h 1.23047 v 4.02636 q 0,0.96387 0.0752,1.29883 0.11621,0.48535 0.49219,0.76563 0.37598,0.27343 0.92969,0.27343 0.55371,0 1.03906,-0.28027 0.48535,-0.28711 0.68359,-0.77246 0.20508,-0.49219 0.20508,-1.42188 v -3.88964 h 1.23047 v 7.25976 z m 7.99804,-2.33789 1.27149,0.15723 q -0.30078,1.11426 -1.11426,1.72949 -0.81348,0.61523 -2.07813,0.61523 -1.59277,0 -2.52929,-0.97753 -0.92969,-0.98438 -0.92969,-2.75489 0,-1.83203 0.94336,-2.84375 0.94336,-1.01172 2.44726,-1.01172 1.45606,0 2.37891,0.99121 0.92285,0.99122 0.92285,2.78907 0,0.10937 -0.007,0.32812 h -5.41407 q 0.0684,1.19629 0.67676,1.83203 0.6084,0.63575 1.51758,0.63575 0.67676,0 1.15527,-0.35547 0.47852,-0.35547 0.75879,-1.13477 z m -4.04004,-1.98926 h 4.05371 q -0.082,-0.91601 -0.46484,-1.37402 -0.58789,-0.71094 -1.52441,-0.71094 -0.84766,0 -1.42871,0.56739 -0.57422,0.56738 -0.63575,1.51757 z m 6.84278,4.32715 v -7.25976 h 1.10742 v 1.10058 q 0.42383,-0.77246 0.7793,-1.01855 0.3623,-0.2461 0.79296,-0.2461 0.62207,0 1.26465,0.39649 l -0.42383,1.1416 q -0.45117,-0.2666 -0.90234,-0.2666 -0.40332,0 -0.72461,0.24609 -0.32129,0.23926 -0.45801,0.66992 -0.20507,0.65625 -0.20507,1.43555 v 3.80078 z m 13.30273,-0.89551 q -0.68359,0.58106 -1.31933,0.82032 -0.62891,0.23925 -1.35352,0.23925 -1.19629,0 -1.83887,-0.58105 -0.64258,-0.58789 -0.64258,-1.49707 0,-0.5332 0.23926,-0.9707 0.2461,-0.44434 0.63574,-0.71094 0.39649,-0.2666 0.88868,-0.40332 0.3623,-0.0957 1.09375,-0.18457 1.49023,-0.17774 2.19433,-0.42383 0.007,-0.25293 0.007,-0.32129 0,-0.75195 -0.34863,-1.05957 -0.47168,-0.41699 -1.40137,-0.41699 -0.86817,0 -1.28516,0.30762 -0.41015,0.30078 -0.6084,1.07324 l -1.20312,-0.16406 q 0.16406,-0.77247 0.54004,-1.24415 0.37597,-0.47851 1.08691,-0.73144 0.71094,-0.25977 1.64746,-0.25977 0.92969,0 1.51074,0.21875 0.58106,0.21875 0.8545,0.55371 0.27343,0.32813 0.38281,0.83399 0.0615,0.31445 0.0615,1.13476 v 1.64063 q 0,1.71582 0.0752,2.17383 0.082,0.45117 0.31445,0.86816 h -1.28515 q -0.19141,-0.38281 -0.2461,-0.89551 z m -0.10254,-2.74804 q -0.66992,0.27343 -2.00976,0.46484 -0.75879,0.10938 -1.07325,0.24609 -0.31445,0.13672 -0.48535,0.40333 -0.1709,0.25976 -0.1709,0.58105 0,0.49219 0.36915,0.82031 0.37597,0.32813 1.09375,0.32813 0.71093,0 1.26464,-0.30762 0.55371,-0.31445 0.81348,-0.85449 0.19824,-0.41699 0.19824,-1.23047 z m 3.15137,3.64355 v -7.25976 h 1.10742 v 1.03222 q 0.79981,-1.19629 2.31055,-1.19629 0.65625,0 1.20312,0.23926 0.55371,0.23242 0.82715,0.61524 0.27344,0.38281 0.38281,0.90918 0.0684,0.34179 0.0684,1.19628 v 4.46387 h -1.23047 v -4.41601 q 0,-0.75196 -0.14355,-1.1211 -0.14355,-0.37597 -0.5127,-0.59472 -0.3623,-0.22559 -0.85449,-0.22559 -0.78613,0 -1.36035,0.49902 -0.56738,0.49903 -0.56738,1.89356 v 3.96484 z m 12.49609,0 v -0.91601 q -0.69043,1.08007 -2.03027,1.08007 -0.86816,0 -1.59961,-0.47851 -0.72461,-0.47852 -1.12793,-1.33301 -0.39648,-0.86133 -0.39648,-1.97558 0,-1.08692 0.3623,-1.96875 0.36231,-0.88868 1.08692,-1.36036 0.7246,-0.47168 1.62011,-0.47168 0.65625,0 1.16895,0.28028 0.51269,0.27343 0.83398,0.71777 v -3.5957 h 1.22363 v 10.02148 z m -3.88965,-3.62304 q 0,1.39453 0.5879,2.08496 0.58789,0.69043 1.38769,0.69043 0.80664,0 1.36719,-0.65625 0.56738,-0.66309 0.56738,-2.01661 0,-1.49023 -0.57422,-2.1875 -0.57422,-0.69726 -1.41504,-0.69726 -0.82031,0 -1.37402,0.66992 -0.54688,0.66992 -0.54688,2.11231 z m 10.85547,6.40527 V 155.3508 h 1.1211 v 0.94336 q 0.39648,-0.55372 0.89551,-0.82715 0.49902,-0.28028 1.20996,-0.28028 0.92968,0 1.64062,0.47852 0.71094,0.47852 1.07324,1.35352 0.36231,0.86816 0.36231,1.90722 0,1.11426 -0.40332,2.00977 -0.39649,0.88867 -1.16211,1.36718 -0.75879,0.47168 -1.59961,0.47168 -0.61524,0 -1.10742,-0.25976 -0.48535,-0.25977 -0.79981,-0.65625 v 3.53418 z m 1.11426,-6.3711 q 0,1.40137 0.56738,2.07129 0.56739,0.66993 1.37403,0.66993 0.82031,0 1.40136,-0.69043 0.5879,-0.69727 0.5879,-2.15332 0,-1.3877 -0.57422,-2.07813 -0.56739,-0.69043 -1.36035,-0.69043 -0.78614,0 -1.39454,0.73828 -0.60156,0.73145 -0.60156,2.13281 z m 11.40918,2.69336 q -0.68359,0.58106 -1.31933,0.82032 -0.62891,0.23925 -1.35352,0.23925 -1.19629,0 -1.83887,-0.58105 -0.64258,-0.58789 -0.64258,-1.49707 0,-0.5332 0.23926,-0.9707 0.2461,-0.44434 0.63574,-0.71094 0.39649,-0.2666 0.88868,-0.40332 0.3623,-0.0957 1.09375,-0.18457 1.49023,-0.17774 2.19433,-0.42383 0.007,-0.25293 0.007,-0.32129 0,-0.75195 -0.34863,-1.05957 -0.47168,-0.41699 -1.40137,-0.41699 -0.86817,0 -1.28516,0.30762 -0.41015,0.30078 -0.6084,1.07324 l -1.20312,-0.16406 q 0.16406,-0.77247 0.54004,-1.24415 0.37597,-0.47851 1.08691,-0.73144 0.71094,-0.25977 1.64746,-0.25977 0.92969,0 1.51074,0.21875 0.58106,0.21875 0.8545,0.55371 0.27343,0.32813 0.38281,0.83399 0.0615,0.31445 0.0615,1.13476 v 1.64063 q 0,1.71582 0.0752,2.17383 0.082,0.45117 0.31445,0.86816 h -1.28516 q -0.1914,-0.38281 -0.24609,-0.89551 z m -0.10254,-2.74804 q -0.66992,0.27343 -2.00976,0.46484 -0.75879,0.10938 -1.07325,0.24609 -0.31445,0.13672 -0.48535,0.40333 -0.1709,0.25976 -0.1709,0.58105 0,0.49219 0.36914,0.82031 0.37598,0.32813 1.09375,0.32813 0.71094,0 1.26465,-0.30762 0.55371,-0.31445 0.81348,-0.85449 0.19824,-0.41699 0.19824,-1.23047 z m 3.1377,3.64355 v -7.25976 h 1.10742 v 1.10058 q 0.42383,-0.77246 0.7793,-1.01855 0.3623,-0.2461 0.79296,-0.2461 0.62208,0 1.26465,0.39649 l -0.42382,1.1416 q -0.45118,-0.2666 -0.90235,-0.2666 -0.40332,0 -0.72461,0.24609 -0.32129,0.23926 -0.45801,0.66992 -0.20507,0.65625 -0.20507,1.43555 v 3.80078 z m 7.3623,-1.10058 0.17774,1.08691 q -0.51953,0.10938 -0.92969,0.10938 -0.66992,0 -1.03906,-0.21192 -0.36914,-0.21191 -0.51953,-0.55371 -0.1504,-0.34863 -0.1504,-1.45605 v -4.17676 h -0.90234 v -0.95703 h 0.90234 v -1.79786 l 1.22364,-0.73828 v 2.53614 h 1.2373 v 0.95703 h -1.2373 v 4.24511 q 0,0.52637 0.0615,0.67676 0.0684,0.15039 0.21191,0.23926 0.1504,0.0889 0.42383,0.0889 0.20508,0 0.54004,-0.0478 z m 1.20996,-7.50586 v -1.41504 h 1.23047 v 1.41504 z m 0,8.60644 v -7.25976 h 1.23047 v 7.25976 z m 5.79004,-1.10058 0.17774,1.08691 q -0.51953,0.10938 -0.92969,0.10938 -0.66992,0 -1.03906,-0.21192 -0.36914,-0.21191 -0.51953,-0.55371 -0.1504,-0.34863 -0.1504,-1.45605 v -4.17676 h -0.90234 v -0.95703 h 0.90234 v -1.79786 l 1.22364,-0.73828 v 2.53614 h 1.2373 v 0.95703 h -1.2373 v 4.24511 q 0,0.52637 0.0615,0.67676 0.0684,0.15039 0.21191,0.23926 0.1504,0.0889 0.42383,0.0889 0.20508,0 0.54004,-0.0478 z m 1.20996,-7.50586 v -1.41504 h 1.23047 v 1.41504 z m 0,8.60644 v -7.25976 h 1.23047 v 7.25976 z m 2.64551,-3.62988 q 0,-2.0166 1.12109,-2.98731 0.93653,-0.80664 2.28321,-0.80664 1.49707,0 2.44726,0.98438 0.9502,0.97754 0.9502,2.70703 0,1.40137 -0.42383,2.20801 -0.41699,0.7998 -1.22363,1.24414 -0.79981,0.44433 -1.75,0.44433 -1.52442,0 -2.46778,-0.97753 -0.93652,-0.97754 -0.93652,-2.81641 z m 1.26465,0 q 0,1.39453 0.6084,2.0918 0.6084,0.69043 1.53125,0.69043 0.91601,0 1.52441,-0.69727 0.6084,-0.69727 0.6084,-2.12598 0,-1.34668 -0.61523,-2.03711 -0.6084,-0.69726 -1.51758,-0.69726 -0.92285,0 -1.53125,0.69043 -0.6084,0.69043 -0.6084,2.08496 z m 6.97949,3.62988 v -7.25976 h 1.10742 v 1.03222 q 0.79981,-1.19629 2.31055,-1.19629 0.65625,0 1.20313,0.23926 0.55371,0.23242 0.82714,0.61524 0.27344,0.38281 0.38282,0.90918 0.0684,0.34179 0.0684,1.19628 v 4.46387 h -1.23047 v -4.41601 q 0,-0.75196 -0.14356,-1.1211 -0.14355,-0.37597 -0.51269,-0.59472 -0.36231,-0.22559 -0.8545,-0.22559 -0.78613,0 -1.36035,0.49902 -0.56738,0.49903 -0.56738,1.89356 v 3.96484 z m 7.79297,-8.60644 v -1.41504 h 1.23047 v 1.41504 z m 0,8.60644 v -7.25976 h 1.23047 v 7.25976 z m 3.10352,0 v -7.25976 h 1.10742 v 1.03222 q 0.7998,-1.19629 2.31054,-1.19629 0.65625,0 1.20313,0.23926 0.55371,0.23242 0.82715,0.61524 0.27344,0.38281 0.38281,0.90918 0.0684,0.34179 0.0684,1.19628 v 4.46387 h -1.23047 v -4.41601 q 0,-0.75196 -0.14355,-1.1211 -0.14356,-0.37597 -0.5127,-0.59472 -0.3623,-0.22559 -0.85449,-0.22559 -0.78613,0 -1.36035,0.49902 -0.56739,0.49903 -0.56739,1.89356 v 3.96484 z m 7.56054,0.60156 1.19629,0.17774 q 0.0752,0.55371 0.41699,0.80664 0.45801,0.3418 1.25098,0.3418 0.85449,0 1.31934,-0.3418 0.46484,-0.3418 0.6289,-0.95703 0.0957,-0.37598 0.0889,-1.5791 -0.80664,0.95019 -2.00977,0.95019 -1.49707,0 -2.31738,-1.08008 -0.82031,-1.08007 -0.82031,-2.59082 0,-1.03906 0.37598,-1.91406 0.37597,-0.88183 1.08691,-1.36035 0.71777,-0.47852 1.68164,-0.47852 1.28516,0 2.11914,1.03907 v -0.875 h 1.13477 v 6.27539 q 0,1.69531 -0.34864,2.39941 -0.34179,0.71094 -1.09375,1.12109 -0.74511,0.41016 -1.83886,0.41016 -1.29883,0 -2.09864,-0.58789 -0.7998,-0.58105 -0.77246,-1.75684 z m 1.01856,-4.36132 q 0,1.42871 0.56738,2.08496 0.56738,0.65625 1.42188,0.65625 0.84765,0 1.42187,-0.64942 0.57422,-0.65625 0.57422,-2.05078 0,-1.33301 -0.59473,-2.00976 -0.58789,-0.67676 -1.42187,-0.67676 -0.82032,0 -1.39453,0.66992 -0.57422,0.66309 -0.57422,1.97559 z m 10.88281,6.54199 V 155.3508 h 1.12109 v 0.94336 q 0.39649,-0.55372 0.89551,-0.82715 0.49902,-0.28028 1.20996,-0.28028 0.92969,0 1.64063,0.47852 0.71093,0.47852 1.07324,1.35352 0.3623,0.86816 0.3623,1.90722 0,1.11426 -0.40332,2.00977 -0.39648,0.88867 -1.16211,1.36718 -0.75878,0.47168 -1.5996,0.47168 -0.61524,0 -1.10743,-0.25976 -0.48535,-0.25977 -0.7998,-0.65625 v 3.53418 z m 1.11426,-6.3711 q 0,1.40137 0.56738,2.07129 0.56738,0.66993 1.37402,0.66993 0.82032,0 1.40137,-0.69043 0.58789,-0.69727 0.58789,-2.15332 0,-1.3877 -0.57422,-2.07813 -0.56738,-0.69043 -1.36035,-0.69043 -0.78613,0 -1.39453,0.73828 -0.60156,0.73145 -0.60156,2.13281 z m 11.6416,1.25098 1.27148,0.15723 q -0.30078,1.11426 -1.11425,1.72949 -0.81348,0.61523 -2.07813,0.61523 -1.59277,0 -2.5293,-0.97753 -0.92968,-0.98438 -0.92968,-2.75489 0,-1.83203 0.94336,-2.84375 0.94336,-1.01172 2.44726,-1.01172 1.45606,0 2.37891,0.99121 0.92285,0.99122 0.92285,2.78907 0,0.10937 -0.007,0.32812 h -5.41406 q 0.0684,1.19629 0.67676,1.83203 0.6084,0.63575 1.51758,0.63575 0.67675,0 1.15527,-0.35547 0.47852,-0.35547 0.75879,-1.13477 z m -4.04004,-1.98926 h 4.05371 q -0.082,-0.91601 -0.46484,-1.37402 -0.58789,-0.71094 -1.52442,-0.71094 -0.84765,0 -1.42871,0.56739 -0.57422,0.56738 -0.63574,1.51757 z m 6.84277,4.32715 v -7.25976 h 1.10743 v 1.10058 q 0.42382,-0.77246 0.77929,-1.01855 0.36231,-0.2461 0.79297,-0.2461 0.62207,0 1.26465,0.39649 l -0.42383,1.1416 q -0.45117,-0.2666 -0.90234,-0.2666 -0.40332,0 -0.72461,0.24609 -0.32129,0.23926 -0.45801,0.66992 -0.20508,0.65625 -0.20508,1.43555 v 3.80078 z m 4.96973,0 v -6.30273 h -1.08691 v -0.95703 h 1.08691 v -0.77246 q 0,-0.73145 0.12988,-1.08692 0.17774,-0.47851 0.62207,-0.77246 0.45118,-0.30078 1.25782,-0.30078 0.51953,0 1.14843,0.12305 l -0.18457,1.07324 q -0.38281,-0.0684 -0.72461,-0.0684 -0.56054,0 -0.79297,0.23926 -0.23242,0.23925 -0.23242,0.8955 v 0.66993 h 1.41504 v 0.95703 h -1.41504 v 6.30273 z m 3.1377,-3.62988 q 0,-2.0166 1.12109,-2.98731 0.93652,-0.80664 2.2832,-0.80664 1.49707,0 2.44727,0.98438 0.95019,0.97754 0.95019,2.70703 0,1.40137 -0.42382,2.20801 -0.417,0.7998 -1.22364,1.24414 -0.7998,0.44433 -1.75,0.44433 -1.52441,0 -2.46777,-0.97753 -0.93652,-0.97754 -0.93652,-2.81641 z m 1.26464,0 q 0,1.39453 0.6084,2.0918 0.6084,0.69043 1.53125,0.69043 0.91602,0 1.52442,-0.69727 0.60839,-0.69727 0.60839,-2.12598 0,-1.34668 -0.61523,-2.03711 -0.6084,-0.69726 -1.51758,-0.69726 -0.92285,0 -1.53125,0.69043 -0.6084,0.69043 -0.6084,2.08496 z m 6.96582,3.62988 v -7.25976 h 1.10743 v 1.10058 q 0.42382,-0.77246 0.77929,-1.01855 0.36231,-0.2461 0.79297,-0.2461 0.62207,0 1.26465,0.39649 l -0.42383,1.1416 q -0.45117,-0.2666 -0.90234,-0.2666 -0.40332,0 -0.72461,0.24609 -0.32129,0.23926 -0.45801,0.66992 -0.20508,0.65625 -0.20508,1.43555 v 3.80078 z m 4.67579,0 v -7.25976 h 1.10058 v 1.01855 q 0.3418,-0.5332 0.90918,-0.85449 0.56738,-0.32813 1.29199,-0.32813 0.80664,0 1.31934,0.33496 0.51953,0.33497 0.73144,0.93653 0.86133,-1.27149 2.24219,-1.27149 1.08008,0 1.66113,0.60157 0.58106,0.59472 0.58106,1.83886 v 4.9834 h -1.22363 v -4.57324 q 0,-0.73828 -0.12305,-1.05957 -0.11621,-0.32813 -0.43066,-0.52637 -0.31446,-0.19824 -0.73829,-0.19824 -0.76562,0 -1.27148,0.5127 -0.50586,0.50585 -0.50586,1.62695 v 4.21777 h -1.23047 v -4.71679 q 0,-0.82032 -0.30078,-1.23047 -0.30078,-0.41016 -0.98437,-0.41016 -0.51954,0 -0.96387,0.27344 -0.4375,0.27344 -0.63574,0.7998 -0.19825,0.52637 -0.19825,1.51758 v 3.7666 z m 16.68652,0 h -1.1416 v -10.02148 h 1.23047 v 3.57519 q 0.77929,-0.97754 1.98925,-0.97754 0.66993,0 1.26465,0.27344 0.60156,0.2666 0.98438,0.75879 0.38965,0.48535 0.6084,1.17578 0.21875,0.69043 0.21875,1.47656 0,1.86622 -0.92286,2.88477 -0.92285,1.01855 -2.21484,1.01855 -1.28516,0 -2.0166,-1.07324 z m -0.0137,-3.68457 q 0,1.30567 0.35547,1.88672 0.58105,0.9502 1.57226,0.9502 0.80664,0 1.39453,-0.69727 0.58789,-0.7041 0.58789,-2.0918 0,-1.42187 -0.56738,-2.09863 -0.56055,-0.67676 -1.36035,-0.67676 -0.80664,0 -1.39453,0.7041 -0.58789,0.69727 -0.58789,2.02344 z m 11.40234,2.78906 q -0.68359,0.58106 -1.31934,0.82032 -0.6289,0.23925 -1.35351,0.23925 -1.19629,0 -1.83887,-0.58105 -0.64258,-0.58789 -0.64258,-1.49707 0,-0.5332 0.23926,-0.9707 0.2461,-0.44434 0.63574,-0.71094 0.39649,-0.2666 0.88868,-0.40332 0.3623,-0.0957 1.09375,-0.18457 1.49023,-0.17774 2.19433,-0.42383 0.007,-0.25293 0.007,-0.32129 0,-0.75195 -0.34864,-1.05957 -0.47167,-0.41699 -1.40136,-0.41699 -0.86817,0 -1.28516,0.30762 -0.41015,0.30078 -0.6084,1.07324 l -1.20312,-0.16406 q 0.16406,-0.77247 0.54004,-1.24415 0.37597,-0.47851 1.08691,-0.73144 0.71094,-0.25977 1.64746,-0.25977 0.92969,0 1.51074,0.21875 0.58106,0.21875 0.8545,0.55371 0.27343,0.32813 0.38281,0.83399 0.0615,0.31445 0.0615,1.13476 v 1.64063 q 0,1.71582 0.0752,2.17383 0.082,0.45117 0.31445,0.86816 h -1.28516 q -0.1914,-0.38281 -0.24609,-0.89551 z m -0.10254,-2.74804 q -0.66992,0.27343 -2.00976,0.46484 -0.75879,0.10938 -1.07325,0.24609 -0.31445,0.13672 -0.48535,0.40333 -0.1709,0.25976 -0.1709,0.58105 0,0.49219 0.36914,0.82031 0.37598,0.32813 1.09375,0.32813 0.71094,0 1.26465,-0.30762 0.55371,-0.31445 0.81348,-0.85449 0.19824,-0.41699 0.19824,-1.23047 z m 7.86133,3.64355 v -0.91601 q -0.69043,1.08007 -2.03027,1.08007 -0.86817,0 -1.59961,-0.47851 -0.72461,-0.47852 -1.12793,-1.33301 -0.39649,-0.86133 -0.39649,-1.97558 0,-1.08692 0.36231,-1.96875 0.3623,-0.88868 1.08691,-1.36036 0.72461,-0.47168 1.62012,-0.47168 0.65625,0 1.16894,0.28028 0.5127,0.27343 0.83399,0.71777 v -3.5957 h 1.22363 v 10.02148 z m -3.88965,-3.62304 q 0,1.39453 0.58789,2.08496 0.58789,0.69043 1.3877,0.69043 0.80664,0 1.36718,-0.65625 0.56739,-0.66309 0.56739,-2.01661 0,-1.49023 -0.57422,-2.1875 -0.57422,-0.69726 -1.41504,-0.69726 -0.82031,0 -1.37402,0.66992 -0.54688,0.66992 -0.54688,2.11231 z m 6.93848,3.62304 v -10.02148 h 1.23047 v 10.02148 z m 3.08301,2.7959 -0.13672,-1.15527 q 0.40332,0.10937 0.7041,0.10937 0.41015,0 0.65625,-0.13672 0.24609,-0.13672 0.40332,-0.38281 0.11621,-0.18457 0.37598,-0.91601 0.0342,-0.10254 0.10937,-0.30079 l -2.75488,-7.27343 h 1.32617 l 1.51074,4.2041 q 0.29395,0.7998 0.52637,1.68164 0.21191,-0.84766 0.50586,-1.6543 l 1.55176,-4.23144 h 1.23046 l -2.76171,7.38281 q -0.44434,1.19629 -0.69043,1.64746 -0.32813,0.6084 -0.75196,0.88867 -0.42382,0.28711 -1.01172,0.28711 -0.35546,0 -0.79296,-0.15039 z m 10.48632,-6.42578 q 0,-2.0166 1.1211,-2.98731 0.93652,-0.80664 2.2832,-0.80664 1.49707,0 2.44727,0.98438 0.95019,0.97754 0.95019,2.70703 0,1.40137 -0.42383,2.20801 -0.41699,0.7998 -1.22363,1.24414 -0.7998,0.44433 -1.75,0.44433 -1.52441,0 -2.46777,-0.97753 -0.93653,-0.97754 -0.93653,-2.81641 z m 1.26465,0 q 0,1.39453 0.6084,2.0918 0.6084,0.69043 1.53125,0.69043 0.91602,0 1.52441,-0.69727 0.6084,-0.69727 0.6084,-2.12598 0,-1.34668 -0.61523,-2.03711 -0.6084,-0.69726 -1.51758,-0.69726 -0.92285,0 -1.53125,0.69043 -0.6084,0.69043 -0.6084,2.08496 z m 6.97949,3.62988 v -7.25976 h 1.10743 v 1.03222 q 0.7998,-1.19629 2.31054,-1.19629 0.65625,0 1.20313,0.23926 0.55371,0.23242 0.82715,0.61524 0.27343,0.38281 0.38281,0.90918 0.0684,0.34179 0.0684,1.19628 v 4.46387 h -1.23047 v -4.41601 q 0,-0.75196 -0.14355,-1.1211 -0.14356,-0.37597 -0.5127,-0.59472 -0.3623,-0.22559 -0.85449,-0.22559 -0.78614,0 -1.36035,0.49902 -0.56739,0.49903 -0.56739,1.89356 v 3.96484 z m 11.81934,0 v -10.02148 h 1.36035 l 5.26367,7.86816 v -7.86816 h 1.27149 v 10.02148 h -1.36035 l -5.26368,-7.875 v 7.875 z m 10.12402,0 v -10.02148 h 3.78028 q 0.99804,0 1.52441,0.0957 0.73828,0.12305 1.23731,0.47168 0.49902,0.3418 0.7998,0.96387 0.30762,0.62207 0.30762,1.36719 0,1.27832 -0.81348,2.16699 -0.81348,0.88183 -2.93945,0.88183 h -2.57031 v 4.07422 z m 1.32618,-5.25683 h 2.59082 q 1.28515,0 1.82519,-0.47852 0.54004,-0.47852 0.54004,-1.34668 0,-0.62891 -0.32129,-1.07324 -0.31445,-0.45117 -0.83398,-0.59473 -0.33496,-0.0889 -1.23731,-0.0889 h -2.56347 z m 7.37597,2.24902 v -1.23731 h 3.78028 v 1.23731 z m 5.14063,3.00781 v -10.02148 h 1.23047 v 3.5957 q 0.86132,-0.99805 2.17382,-0.99805 0.80664,0 1.40137,0.32129 0.59473,0.31446 0.84766,0.875 0.25976,0.56055 0.25976,1.62696 v 4.60058 h -1.23047 v -4.60058 q 0,-0.92286 -0.40332,-1.33985 -0.39648,-0.42383 -1.12793,-0.42383 -0.54687,0 -1.03222,0.28711 -0.47852,0.28028 -0.6836,0.76563 -0.20507,0.48535 -0.20507,1.33984 v 3.97168 z m 12.52343,-0.89551 q -0.68359,0.58106 -1.31933,0.82032 -0.62891,0.23925 -1.35352,0.23925 -1.19629,0 -1.83886,-0.58105 -0.64258,-0.58789 -0.64258,-1.49707 0,-0.5332 0.23926,-0.9707 0.24609,-0.44434 0.63574,-0.71094 0.39648,-0.2666 0.88867,-0.40332 0.3623,-0.0957 1.09375,-0.18457 1.49023,-0.17774 2.19434,-0.42383 0.007,-0.25293 0.007,-0.32129 0,-0.75195 -0.34863,-1.05957 -0.47168,-0.41699 -1.40137,-0.41699 -0.86816,0 -1.28515,0.30762 -0.41016,0.30078 -0.6084,1.07324 l -1.20313,-0.16406 q 0.16406,-0.77247 0.54004,-1.24415 0.37598,-0.47851 1.08692,-0.73144 0.71093,-0.25977 1.64746,-0.25977 0.92968,0 1.51074,0.21875 0.58105,0.21875 0.85449,0.55371 0.27344,0.32813 0.38281,0.83399 0.0615,0.31445 0.0615,1.13476 v 1.64063 q 0,1.71582 0.0752,2.17383 0.082,0.45117 0.31445,0.86816 h -1.28515 q -0.19141,-0.38281 -0.2461,-0.89551 z m -0.10253,-2.74804 q -0.66993,0.27343 -2.00977,0.46484 -0.75879,0.10938 -1.07324,0.24609 -0.31446,0.13672 -0.48535,0.40333 -0.1709,0.25976 -0.1709,0.58105 0,0.49219 0.36914,0.82031 0.37598,0.32813 1.09375,0.32813 0.71094,0 1.26465,-0.30762 0.55371,-0.31445 0.81347,-0.85449 0.19825,-0.41699 0.19825,-1.23047 z m 3.13769,3.64355 v -7.25976 h 1.10742 v 1.10058 q 0.42383,-0.77246 0.7793,-1.01855 0.3623,-0.2461 0.79297,-0.2461 0.62207,0 1.26465,0.39649 l -0.42383,1.1416 q -0.45117,-0.2666 -0.90234,-0.2666 -0.40333,0 -0.72461,0.24609 -0.32129,0.23926 -0.45801,0.66992 -0.20508,0.65625 -0.20508,1.43555 v 3.80078 z m 9.38574,0 v -0.91601 q -0.69043,1.08007 -2.03027,1.08007 -0.86816,0 -1.59961,-0.47851 -0.72461,-0.47852 -1.12793,-1.33301 -0.39648,-0.86133 -0.39648,-1.97558 0,-1.08692 0.3623,-1.96875 0.36231,-0.88868 1.08692,-1.36036 0.7246,-0.47168 1.62011,-0.47168 0.65625,0 1.16895,0.28028 0.51269,0.27343 0.83398,0.71777 v -3.5957 h 1.22363 v 10.02148 z m -3.88965,-3.62304 q 0,1.39453 0.5879,2.08496 0.58789,0.69043 1.38769,0.69043 0.80664,0 1.36719,-0.65625 0.56738,-0.66309 0.56738,-2.01661 0,-1.49023 -0.57422,-2.1875 -0.57422,-0.69726 -1.41504,-0.69726 -0.82031,0 -1.37402,0.66992 -0.54688,0.66992 -0.54688,2.11231 z m 10.85547,6.40527 V 155.3508 h 1.1211 v 0.94336 q 0.39648,-0.55372 0.89551,-0.82715 0.49902,-0.28028 1.20996,-0.28028 0.92968,0 1.64062,0.47852 0.71094,0.47852 1.07324,1.35352 0.36231,0.86816 0.36231,1.90722 0,1.11426 -0.40332,2.00977 -0.39649,0.88867 -1.16211,1.36718 -0.75879,0.47168 -1.59961,0.47168 -0.61524,0 -1.10742,-0.25976 -0.48535,-0.25977 -0.79981,-0.65625 v 3.53418 z m 1.11426,-6.3711 q 0,1.40137 0.56738,2.07129 0.56739,0.66993 1.37403,0.66993 0.82031,0 1.40136,-0.69043 0.5879,-0.69727 0.5879,-2.15332 0,-1.3877 -0.57422,-2.07813 -0.56739,-0.69043 -1.36035,-0.69043 -0.78614,0 -1.39454,0.73828 -0.60156,0.73145 -0.60156,2.13281 z m 6.6582,3.58887 v -7.25976 h 1.10743 v 1.10058 q 0.42382,-0.77246 0.77929,-1.01855 0.36231,-0.2461 0.79297,-0.2461 0.62207,0 1.26465,0.39649 l -0.42383,1.1416 q -0.45117,-0.2666 -0.90234,-0.2666 -0.40332,0 -0.72461,0.24609 -0.32129,0.23926 -0.45801,0.66992 -0.20508,0.65625 -0.20508,1.43555 v 3.80078 z m 4.21778,-3.62988 q 0,-2.0166 1.12109,-2.98731 0.93653,-0.80664 2.2832,-0.80664 1.49708,0 2.44727,0.98438 0.9502,0.97754 0.9502,2.70703 0,1.40137 -0.42383,2.20801 -0.41699,0.7998 -1.22364,1.24414 -0.7998,0.44433 -1.75,0.44433 -1.52441,0 -2.46777,-0.97753 -0.93652,-0.97754 -0.93652,-2.81641 z m 1.26465,0 q 0,1.39453 0.60839,2.0918 0.6084,0.69043 1.53125,0.69043 0.91602,0 1.52442,-0.69727 0.6084,-0.69727 0.6084,-2.12598 0,-1.34668 -0.61524,-2.03711 -0.6084,-0.69726 -1.51758,-0.69726 -0.92285,0 -1.53125,0.69043 -0.60839,0.69043 -0.60839,2.08496 z m 8.11425,3.62988 h -1.1416 v -10.02148 h 1.23047 v 3.57519 q 0.7793,-0.97754 1.98926,-0.97754 0.66992,0 1.26465,0.27344 0.60156,0.2666 0.98437,0.75879 0.38965,0.48535 0.6084,1.17578 0.21875,0.69043 0.21875,1.47656 0,1.86622 -0.92285,2.88477 -0.92285,1.01855 -2.21484,1.01855 -1.28516,0 -2.01661,-1.07324 z m -0.0137,-3.68457 q 0,1.30567 0.35547,1.88672 0.58106,0.9502 1.57227,0.9502 0.80664,0 1.39453,-0.69727 0.58789,-0.7041 0.58789,-2.0918 0,-1.42187 -0.56738,-2.09863 -0.56055,-0.67676 -1.36036,-0.67676 -0.80664,0 -1.39453,0.7041 -0.58789,0.69727 -0.58789,2.02344 z m 6.6377,3.68457 v -10.02148 h 1.23047 v 10.02148 z m 8.10742,-2.33789 1.27148,0.15723 q -0.30078,1.11426 -1.11425,1.72949 -0.81348,0.61523 -2.07813,0.61523 -1.59277,0 -2.5293,-0.97753 -0.92968,-0.98438 -0.92968,-2.75489 0,-1.83203 0.94336,-2.84375 0.94336,-1.01172 2.44726,-1.01172 1.45606,0 2.37891,0.99121 0.92285,0.99122 0.92285,2.78907 0,0.10937 -0.007,0.32812 h -5.41406 q 0.0684,1.19629 0.67676,1.83203 0.6084,0.63575 1.51758,0.63575 0.67675,0 1.15527,-0.35547 0.47852,-0.35547 0.75879,-1.13477 z m -4.04004,-1.98926 h 4.05371 q -0.082,-0.91601 -0.46484,-1.37402 -0.58789,-0.71094 -1.52442,-0.71094 -0.84765,0 -1.42871,0.56739 -0.57422,0.56738 -0.63574,1.51757 z m 6.85645,4.32715 v -7.25976 h 1.10058 v 1.01855 q 0.3418,-0.5332 0.90918,-0.85449 0.56738,-0.32813 1.29199,-0.32813 0.80664,0 1.31934,0.33496 0.51953,0.33497 0.73144,0.93653 0.86133,-1.27149 2.24219,-1.27149 1.08008,0 1.66114,0.60157 0.58105,0.59472 0.58105,1.83886 v 4.9834 h -1.22363 v -4.57324 q 0,-0.73828 -0.12305,-1.05957 -0.11621,-0.32813 -0.43066,-0.52637 -0.31446,-0.19824 -0.73829,-0.19824 -0.76562,0 -1.27148,0.5127 -0.50586,0.50585 -0.50586,1.62695 v 4.21777 h -1.23047 v -4.71679 q 0,-0.82032 -0.30078,-1.23047 -0.30078,-0.41016 -0.98437,-0.41016 -0.51954,0 -0.96387,0.27344 -0.4375,0.27344 -0.63574,0.7998 -0.19825,0.52637 -0.19825,1.51758 v 3.7666 z m 11.16992,-2.16699 1.21679,-0.19141 q 0.10254,0.73145 0.56739,1.1211 0.47168,0.38965 1.3125,0.38965 0.84765,0 1.25781,-0.3418 0.41016,-0.34863 0.41016,-0.81348 0,-0.41699 -0.36231,-0.65625 -0.25293,-0.16406 -1.25781,-0.41699 -1.35352,-0.3418 -1.87988,-0.58789 -0.51954,-0.25293 -0.79297,-0.69043 -0.2666,-0.44434 -0.2666,-0.97754 0,-0.48535 0.21875,-0.89551 0.22558,-0.41699 0.60839,-0.69043 0.28711,-0.21191 0.7793,-0.35547 0.49902,-0.15039 1.06641,-0.15039 0.85449,0 1.49707,0.2461 0.64941,0.24609 0.95703,0.66992 0.30762,0.41699 0.42383,1.12109 l -1.20313,0.16407 q -0.082,-0.56055 -0.47851,-0.875 -0.38965,-0.31446 -1.10743,-0.31446 -0.84765,0 -1.20996,0.28028 -0.3623,0.28027 -0.3623,0.65625 0,0.23925 0.15039,0.43066 0.15039,0.19824 0.47168,0.32813 0.18457,0.0684 1.08691,0.31445 1.30567,0.34863 1.81836,0.57422 0.51953,0.21875 0.81348,0.64258 0.29394,0.42382 0.29394,1.05273 0,0.61523 -0.3623,1.16211 -0.35547,0.54004 -1.03223,0.84082 -0.67675,0.29394 -1.53125,0.29394 -1.41504,0 -2.16015,-0.58789 -0.73828,-0.58789 -0.94336,-1.74316 z m 9.7959,-0.30078 q -0.007,-0.2461 -0.007,-0.36914 0,-0.72461 0.20508,-1.25098 0.15039,-0.39648 0.48535,-0.7998 0.24609,-0.29395 0.88184,-0.8545 0.64257,-0.56738 0.83398,-0.90234 0.19141,-0.33496 0.19141,-0.73144 0,-0.71778 -0.56055,-1.25782 -0.56055,-0.54687 -1.37402,-0.54687 -0.78614,0 -1.3125,0.49219 -0.52637,0.49218 -0.69043,1.53808 l -1.26465,-0.15039 q 0.1709,-1.40137 1.01172,-2.14648 0.84765,-0.74512 2.23535,-0.74512 1.46972,0 2.34472,0.7998 0.875,0.79981 0.875,1.93457 0,0.65625 -0.30761,1.20997 -0.30762,0.55371 -1.20313,1.34667 -0.60156,0.53321 -0.78613,0.78614 -0.18457,0.25293 -0.27344,0.58105 -0.0889,0.32813 -0.10254,1.06641 z m -0.0752,2.46777 v -1.40137 h 1.40137 v 1.40137 z"
       id="flowRoot4302-6"
       transform="translate(-20,382.36205)"
       aria-label="Why do MapReduce, Divide&amp;Conquer and partitioning perform badly on NP-hard problems?" />
    <g
       id="g3709"
       transform="translate(0,19.999997)" />
    <flowRoot
       xml:space="preserve"
       id="flowRoot4157"
       style="font-style:normal;font-weight:normal;line-height:0.01%;font-family:sans-serif;letter-spacing:0px;word-spacing:0px;fill:#000000;fill-opacity:1;stroke:none"><flowRegion
         id="flowRegion4159"
         style="font-family:sans-serif"><rect
           id="rect4161"
           width="10.955056"
           height="72.471909"
           x="16.011236"
           y="-53.932568" /></flowRegion><flowPara
         id="flowPara4163"
         style="font-size:40px;line-height:1.25;font-family:sans-serif"></flowPara></flowRoot>
    <flowRoot
       xml:space="preserve"
       id="flowRoot4442"
       style="font-style:normal;font-variant:normal;font-weight:normal;font-stretch:normal;line-height:0.01%;font-family:serif;-inkscape-font-specification:Serif;letter-spacing:0px;word-spacing:0px;fill:#000000;fill-opacity:1;stroke:none"
       transform="translate(0,452.36218)"><flowRegion
         id="flowRegion4444"
         style="font-family:serif"><rect
           id="rect4446"
           width="2.5280898"
           height="91.01123"
           x="503.08987"
           y="458.42697" /></flowRegion><flowPara
         id="flowPara4448"
         style="font-size:20px;line-height:1.25;font-family:serif"></flowPara></flowRoot>
    <flowRoot
       xml:space="preserve"
       id="flowRoot4510"
       style="font-style:normal;font-variant:normal;font-weight:normal;font-stretch:normal;line-height:0.01%;font-family:serif;-inkscape-font-specification:Serif;letter-spacing:0px;word-spacing:0px;fill:#000000;fill-opacity:1;stroke:none"
       transform="translate(0,452.36218)"><flowRegion
         id="flowRegion4512"
         style="font-family:serif"><rect
           id="rect4514"
           width="555.33704"
           height="180.33707"
           x="-37.921349"
           y="380.8989" /></flowRegion><flowPara
         id="flowPara4516"
         style="font-size:20px;line-height:1.25;font-family:serif"></flowPara></flowRoot>
    <g
       id="g4721"
       transform="translate(-10,-140)">
      <rect
         ry="5"
         rx="4.999999"
         y="702.86218"
         x="30.500002"
         height="179"
         width="179"
         id="rect3926"
         style="fill:none;stroke:#000000;stroke-width:0.99999982;stroke-linecap:round;stroke-linejoin:round;stroke-miterlimit:4;stroke-dasharray:none;display:inline" />
      <path
         transform="matrix(0.25,0,0,0.25,12.2258,694.53354)"
         d="m 150,315 c 0,2.76142 -2.23858,5 -5,5 -2.76142,0 -5,-2.23858 -5,-5 0,-2.76142 2.23858,-5 5,-5 2.76142,0 5,2.23858 5,5 z"
         id="path7585-3"
         style="color:#000000;fill:#000000;fill-opacity:1;fill-rule:nonzero;stroke:none;stroke-width:2;marker:none;visibility:visible;display:inline;overflow:visible;enable-background:accumulate" />
      <path
         style="color:#000000;fill:#000000;fill-opacity:1;fill-rule:nonzero;stroke:none;stroke-width:2;marker:none;visibility:visible;display:inline;overflow:visible;enable-background:accumulate"
         id="path3422"
         d="m 150,315 c 0,2.76142 -2.23858,5 -5,5 -2.76142,0 -5,-2.23858 -5,-5 0,-2.76142 2.23858,-5 5,-5 2.76142,0 5,2.23858 5,5 z"
         transform="matrix(0.25,0,0,0.25,0.20767334,697.84054)" />
      <path
         transform="matrix(0.25,0,0,0.25,3.6759918,710.10064)"
         d="m 150,315 c 0,2.76142 -2.23858,5 -5,5 -2.76142,0 -5,-2.23858 -5,-5 0,-2.76142 2.23858,-5 5,-5 2.76142,0 5,2.23858 5,5 z"
         id="path3424"
         style="color:#000000;fill:#000000;fill-opacity:1;fill-rule:nonzero;stroke:none;stroke-width:2;marker:none;visibility:visible;display:inline;overflow:visible;enable-background:accumulate" />
      <path
         style="color:#000000;fill:#000000;fill-opacity:1;fill-rule:nonzero;stroke:none;stroke-width:2;marker:none;visibility:visible;display:inline;overflow:visible;enable-background:accumulate"
         id="path3426"
         d="m 150,315 c 0,2.76142 -2.23858,5 -5,5 -2.76142,0 -5,-2.23858 -5,-5 0,-2.76142 2.23858,-5 5,-5 2.76142,0 5,2.23858 5,5 z"
         transform="matrix(0.25,0,0,0.25,29.486734,715.26279)" />
      <path
         transform="matrix(0.25,0,0,0.25,31.261222,722.36075)"
         d="m 150,315 c 0,2.76142 -2.23858,5 -5,5 -2.76142,0 -5,-2.23858 -5,-5 0,-2.76142 2.23858,-5 5,-5 2.76142,0 5,2.23858 5,5 z"
         id="path3428"
         style="color:#000000;fill:#000000;fill-opacity:1;fill-rule:nonzero;stroke:none;stroke-width:2;marker:none;visibility:visible;display:inline;overflow:visible;enable-background:accumulate" />
      <path
         transform="matrix(0.25,0,0,0.25,20.856266,672.27177)"
         d="m 150,315 c 0,2.76142 -2.23858,5 -5,5 -2.76142,0 -5,-2.23858 -5,-5 0,-2.76142 2.23858,-5 5,-5 2.76142,0 5,2.23858 5,5 z"
         id="path3428-5"
         style="color:#000000;fill:#000000;fill-opacity:1;fill-rule:nonzero;stroke:none;stroke-width:2;marker:none;visibility:visible;display:inline;overflow:visible;enable-background:accumulate" />
      <path
         transform="matrix(0.25,0,0,0.25,13.91963,649.68737)"
         d="m 150,315 c 0,2.76142 -2.23858,5 -5,5 -2.76142,0 -5,-2.23858 -5,-5 0,-2.76142 2.23858,-5 5,-5 2.76142,0 5,2.23858 5,5 z"
         id="path3428-8"
         style="color:#000000;fill:#000000;fill-opacity:1;fill-rule:nonzero;stroke:none;stroke-width:2;marker:none;visibility:visible;display:inline;overflow:visible;enable-background:accumulate" />
      <path
         transform="matrix(0.25,0,0,0.25,10.370652,636.05607)"
         d="m 150,315 c 0,2.76142 -2.23858,5 -5,5 -2.76142,0 -5,-2.23858 -5,-5 0,-2.76142 2.23858,-5 5,-5 2.76142,0 5,2.23858 5,5 z"
         id="path3428-1"
         style="color:#000000;fill:#000000;fill-opacity:1;fill-rule:nonzero;stroke:none;stroke-width:2;marker:none;visibility:visible;display:inline;overflow:visible;enable-background:accumulate" />
      <path
         transform="matrix(0.25,0,0,0.25,29.486733,654.84952)"
         d="m 150,315 c 0,2.76142 -2.23858,5 -5,5 -2.76142,0 -5,-2.23858 -5,-5 0,-2.76142 2.23858,-5 5,-5 2.76142,0 5,2.23858 5,5 z"
         id="path3428-3"
         style="color:#000000;fill:#000000;fill-opacity:1;fill-rule:nonzero;stroke:none;stroke-width:2;marker:none;visibility:visible;display:inline;overflow:visible;enable-background:accumulate" />
      <path
         transform="matrix(0.25,0,0,0.25,27.792903,668.80345)"
         d="m 150,315 c 0,2.76142 -2.23858,5 -5,5 -2.76142,0 -5,-2.23858 -5,-5 0,-2.76142 2.23858,-5 5,-5 2.76142,0 5,2.23858 5,5 z"
         id="path3428-4"
         style="color:#000000;fill:#000000;fill-opacity:1;fill-rule:nonzero;stroke:none;stroke-width:2;marker:none;visibility:visible;display:inline;overflow:visible;enable-background:accumulate" />
      <path
         transform="matrix(0.25,0,0,0.25,38.197858,686.14504)"
         d="m 150,315 c 0,2.76142 -2.23858,5 -5,5 -2.76142,0 -5,-2.23858 -5,-5 0,-2.76142 2.23858,-5 5,-5 2.76142,0 5,2.23858 5,5 z"
         id="path3428-87"
         style="color:#000000;fill:#000000;fill-opacity:1;fill-rule:nonzero;stroke:none;stroke-width:2;marker:none;visibility:visible;display:inline;overflow:visible;enable-background:accumulate" />
      <path
         transform="matrix(0.25,0,0,0.25,46.908984,679.28906)"
         d="m 150,315 c 0,2.76142 -2.23858,5 -5,5 -2.76142,0 -5,-2.23858 -5,-5 0,-2.76142 2.23858,-5 5,-5 2.76142,0 5,2.23858 5,5 z"
         id="path3428-32"
         style="color:#000000;fill:#000000;fill-opacity:1;fill-rule:nonzero;stroke:none;stroke-width:2;marker:none;visibility:visible;display:inline;overflow:visible;enable-background:accumulate" />
      <path
         transform="matrix(0.25,0,0,0.25,13.919629,753.25297)"
         d="m 150,315 c 0,2.76142 -2.23858,5 -5,5 -2.76142,0 -5,-2.23858 -5,-5 0,-2.76142 2.23858,-5 5,-5 2.76142,0 5,2.23858 5,5 z"
         id="path3428-9"
         style="color:#000000;fill:#000000;fill-opacity:1;fill-rule:nonzero;stroke:none;stroke-width:2;marker:none;visibility:visible;display:inline;overflow:visible;enable-background:accumulate" />
      <path
         transform="matrix(0.25,0,0,0.25,6.902334,761.88344)"
         d="m 150,315 c 0,2.76142 -2.23858,5 -5,5 -2.76142,0 -5,-2.23858 -5,-5 0,-2.76142 2.23858,-5 5,-5 2.76142,0 5,2.23858 5,5 z"
         id="path3428-13"
         style="color:#000000;fill:#000000;fill-opacity:1;fill-rule:nonzero;stroke:none;stroke-width:2;marker:none;visibility:visible;display:inline;overflow:visible;enable-background:accumulate" />
      <path
         transform="matrix(0.25,0,0,0.25,20.775608,784.46784)"
         d="m 150,315 c 0,2.76142 -2.23858,5 -5,5 -2.76142,0 -5,-2.23858 -5,-5 0,-2.76142 2.23858,-5 5,-5 2.76142,0 5,2.23858 5,5 z"
         id="path3428-7"
         style="color:#000000;fill:#000000;fill-opacity:1;fill-rule:nonzero;stroke:none;stroke-width:2;marker:none;visibility:visible;display:inline;overflow:visible;enable-background:accumulate" />
      <path
         transform="matrix(0.25,0,0,0.25,12.145141,794.63082)"
         d="m 150,315 c 0,2.76142 -2.23858,5 -5,5 -2.76142,0 -5,-2.23858 -5,-5 0,-2.76142 2.23858,-5 5,-5 2.76142,0 5,2.23858 5,5 z"
         id="path3428-43"
         style="color:#000000;fill:#000000;fill-opacity:1;fill-rule:nonzero;stroke:none;stroke-width:2;marker:none;visibility:visible;display:inline;overflow:visible;enable-background:accumulate" />
      <path
         transform="matrix(0.25,0,0,0.25,31.180563,791.08184)"
         d="m 150,315 c 0,2.76142 -2.23858,5 -5,5 -2.76142,0 -5,-2.23858 -5,-5 0,-2.76142 2.23858,-5 5,-5 2.76142,0 5,2.23858 5,5 z"
         id="path3428-2"
         style="color:#000000;fill:#000000;fill-opacity:1;fill-rule:nonzero;stroke:none;stroke-width:2;marker:none;visibility:visible;display:inline;overflow:visible;enable-background:accumulate" />
      <path
         transform="matrix(0.25,0,0,0.25,36.42337,775.75671)"
         d="m 150,315 c 0,2.76142 -2.23858,5 -5,5 -2.76142,0 -5,-2.23858 -5,-5 0,-2.76142 2.23858,-5 5,-5 2.76142,0 5,2.23858 5,5 z"
         id="path3428-24"
         style="color:#000000;fill:#000000;fill-opacity:1;fill-rule:nonzero;stroke:none;stroke-width:2;marker:none;visibility:visible;display:inline;overflow:visible;enable-background:accumulate" />
      <path
         transform="matrix(0.25,0,0,0.25,29.486733,770.5139)"
         d="m 150,315 c 0,2.76142 -2.23858,5 -5,5 -2.76142,0 -5,-2.23858 -5,-5 0,-2.76142 2.23858,-5 5,-5 2.76142,0 5,2.23858 5,5 z"
         id="path3428-75"
         style="color:#000000;fill:#000000;fill-opacity:1;fill-rule:nonzero;stroke:none;stroke-width:2;marker:none;visibility:visible;display:inline;overflow:visible;enable-background:accumulate" />
      <path
         transform="matrix(0.25,0,0,0.25,38.197858,753.17231)"
         d="m 150,315 c 0,2.76142 -2.23858,5 -5,5 -2.76142,0 -5,-2.23858 -5,-5 0,-2.76142 2.23858,-5 5,-5 2.76142,0 5,2.23858 5,5 z"
         id="path3428-27"
         style="color:#000000;fill:#000000;fill-opacity:1;fill-rule:nonzero;stroke:none;stroke-width:2;marker:none;visibility:visible;display:inline;overflow:visible;enable-background:accumulate" />
      <path
         transform="matrix(0.25,0,0,0.25,60.540282,696.30802)"
         d="m 150,315 c 0,2.76142 -2.23858,5 -5,5 -2.76142,0 -5,-2.23858 -5,-5 0,-2.76142 2.23858,-5 5,-5 2.76142,0 5,2.23858 5,5 z"
         id="path3428-21"
         style="color:#000000;fill:#000000;fill-opacity:1;fill-rule:nonzero;stroke:none;stroke-width:2;marker:none;visibility:visible;display:inline;overflow:visible;enable-background:accumulate" />
      <path
         transform="matrix(0.25,0,0,0.25,67.39626,687.83887)"
         d="m 150,315 c 0,2.76142 -2.23858,5 -5,5 -2.76142,0 -5,-2.23858 -5,-5 0,-2.76142 2.23858,-5 5,-5 2.76142,0 5,2.23858 5,5 z"
         id="path3428-6"
         style="color:#000000;fill:#000000;fill-opacity:1;fill-rule:nonzero;stroke:none;stroke-width:2;marker:none;visibility:visible;display:inline;overflow:visible;enable-background:accumulate" />
      <path
         transform="matrix(0.25,0,0,0.25,72.639067,704.93849)"
         d="m 150,315 c 0,2.76142 -2.23858,5 -5,5 -2.76142,0 -5,-2.23858 -5,-5 0,-2.76142 2.23858,-5 5,-5 2.76142,0 5,2.23858 5,5 z"
         id="path3428-17"
         style="color:#000000;fill:#000000;fill-opacity:1;fill-rule:nonzero;stroke:none;stroke-width:2;marker:none;visibility:visible;display:inline;overflow:visible;enable-background:accumulate" />
      <path
         transform="matrix(0.25,0,0,0.25,63.927942,711.87513)"
         d="m 150,315 c 0,2.76142 -2.23858,5 -5,5 -2.76142,0 -5,-2.23858 -5,-5 0,-2.76142 2.23858,-5 5,-5 2.76142,0 5,2.23858 5,5 z"
         id="path3428-84"
         style="color:#000000;fill:#000000;fill-opacity:1;fill-rule:nonzero;stroke:none;stroke-width:2;marker:none;visibility:visible;display:inline;overflow:visible;enable-background:accumulate" />
      <path
         transform="matrix(0.25,0,0,0.25,55.539451,729.13606)"
         d="m 150,315 c 0,2.76142 -2.23858,5 -5,5 -2.76142,0 -5,-2.23858 -5,-5 0,-2.76142 2.23858,-5 5,-5 2.76142,0 5,2.23858 5,5 z"
         id="path3428-29"
         style="color:#000000;fill:#000000;fill-opacity:1;fill-rule:nonzero;stroke:none;stroke-width:2;marker:none;visibility:visible;display:inline;overflow:visible;enable-background:accumulate" />
      <path
         transform="matrix(0.25,0,0,0.25,58.685135,736.15336)"
         d="m 150,315 c 0,2.76142 -2.23858,5 -5,5 -2.76142,0 -5,-2.23858 -5,-5 0,-2.76142 2.23858,-5 5,-5 2.76142,0 5,2.23858 5,5 z"
         id="path3428-49"
         style="color:#000000;fill:#000000;fill-opacity:1;fill-rule:nonzero;stroke:none;stroke-width:2;marker:none;visibility:visible;display:inline;overflow:visible;enable-background:accumulate" />
      <path
         transform="matrix(0.25,0,0,0.25,70.824249,680.94257)"
         d="m 150,315 c 0,2.76142 -2.23858,5 -5,5 -2.76142,0 -5,-2.23858 -5,-5 0,-2.76142 2.23858,-5 5,-5 2.76142,0 5,2.23858 5,5 z"
         id="path3428-53"
         style="color:#000000;fill:#000000;fill-opacity:1;fill-rule:nonzero;stroke:none;stroke-width:2;marker:none;visibility:visible;display:inline;overflow:visible;enable-background:accumulate" />
      <path
         transform="matrix(0.25,0,0,0.25,65.662101,667.06929)"
         d="m 150,315 c 0,2.76142 -2.23858,5 -5,5 -2.76142,0 -5,-2.23858 -5,-5 0,-2.76142 2.23858,-5 5,-5 2.76142,0 5,2.23858 5,5 z"
         id="path3428-71"
         style="color:#000000;fill:#000000;fill-opacity:1;fill-rule:nonzero;stroke:none;stroke-width:2;marker:none;visibility:visible;display:inline;overflow:visible;enable-background:accumulate" />
      <path
         transform="matrix(0.25,0,0,0.25,56.950976,665.33513)"
         d="m 150,315 c 0,2.76142 -2.23858,5 -5,5 -2.76142,0 -5,-2.23858 -5,-5 0,-2.76142 2.23858,-5 5,-5 2.76142,0 5,2.23858 5,5 z"
         id="path3428-31"
         style="color:#000000;fill:#000000;fill-opacity:1;fill-rule:nonzero;stroke:none;stroke-width:2;marker:none;visibility:visible;display:inline;overflow:visible;enable-background:accumulate" />
      <path
         transform="matrix(0.25,0,0,0.25,56.950976,646.21905)"
         d="m 150,315 c 0,2.76142 -2.23858,5 -5,5 -2.76142,0 -5,-2.23858 -5,-5 0,-2.76142 2.23858,-5 5,-5 2.76142,0 5,2.23858 5,5 z"
         id="path3428-76"
         style="color:#000000;fill:#000000;fill-opacity:1;fill-rule:nonzero;stroke:none;stroke-width:2;marker:none;visibility:visible;display:inline;overflow:visible;enable-background:accumulate" />
      <path
         transform="matrix(0.25,0,0,0.25,91.674489,644.52522)"
         d="m 150,315 c 0,2.76142 -2.23858,5 -5,5 -2.76142,0 -5,-2.23858 -5,-5 0,-2.76142 2.23858,-5 5,-5 2.76142,0 5,2.23858 5,5 z"
         id="path3428-0"
         style="color:#000000;fill:#000000;fill-opacity:1;fill-rule:nonzero;stroke:none;stroke-width:2;marker:none;visibility:visible;display:inline;overflow:visible;enable-background:accumulate" />
      <path
         transform="matrix(0.25,0,0,0.25,96.876967,641.29888)"
         d="m 150,315 c 0,2.76142 -2.23858,5 -5,5 -2.76142,0 -5,-2.23858 -5,-5 0,-2.76142 2.23858,-5 5,-5 2.76142,0 5,2.23858 5,5 z"
         id="path3428-171"
         style="color:#000000;fill:#000000;fill-opacity:1;fill-rule:nonzero;stroke:none;stroke-width:2;marker:none;visibility:visible;display:inline;overflow:visible;enable-background:accumulate" />
      <path
         transform="matrix(0.25,0,0,0.25,102.07944,651.42153)"
         d="m 150,315 c 0,2.76142 -2.23858,5 -5,5 -2.76142,0 -5,-2.23858 -5,-5 0,-2.76142 2.23858,-5 5,-5 2.76142,0 5,2.23858 5,5 z"
         id="path3428-46"
         style="color:#000000;fill:#000000;fill-opacity:1;fill-rule:nonzero;stroke:none;stroke-width:2;marker:none;visibility:visible;display:inline;overflow:visible;enable-background:accumulate" />
      <path
         transform="matrix(0.25,0,0,0.25,119.13873,668.76312)"
         d="m 150,315 c 0,2.76142 -2.23858,5 -5,5 -2.76142,0 -5,-2.23858 -5,-5 0,-2.76142 2.23858,-5 5,-5 2.76142,0 5,2.23858 5,5 z"
         id="path3428-73"
         style="color:#000000;fill:#000000;fill-opacity:1;fill-rule:nonzero;stroke:none;stroke-width:2;marker:none;visibility:visible;display:inline;overflow:visible;enable-background:accumulate" />
      <path
         transform="matrix(0.25,0,0,0.25,113.89592,677.39359)"
         d="m 150,315 c 0,2.76142 -2.23858,5 -5,5 -2.76142,0 -5,-2.23858 -5,-5 0,-2.76142 2.23858,-5 5,-5 2.76142,0 5,2.23858 5,5 z"
         id="path3428-16"
         style="color:#000000;fill:#000000;fill-opacity:1;fill-rule:nonzero;stroke:none;stroke-width:2;marker:none;visibility:visible;display:inline;overflow:visible;enable-background:accumulate" />
      <path
         transform="matrix(0.25,0,0,0.25,124.38154,673.9656)"
         d="m 150,315 c 0,2.76142 -2.23858,5 -5,5 -2.76142,0 -5,-2.23858 -5,-5 0,-2.76142 2.23858,-5 5,-5 2.76142,0 5,2.23858 5,5 z"
         id="path3428-62"
         style="color:#000000;fill:#000000;fill-opacity:1;fill-rule:nonzero;stroke:none;stroke-width:2;marker:none;visibility:visible;display:inline;overflow:visible;enable-background:accumulate" />
      <path
         transform="matrix(0.25,0,0,0.25,129.54369,665.2948)"
         d="m 150,315 c 0,2.76142 -2.23858,5 -5,5 -2.76142,0 -5,-2.23858 -5,-5 0,-2.76142 2.23858,-5 5,-5 2.76142,0 5,2.23858 5,5 z"
         id="path3428-02"
         style="color:#000000;fill:#000000;fill-opacity:1;fill-rule:nonzero;stroke:none;stroke-width:2;marker:none;visibility:visible;display:inline;overflow:visible;enable-background:accumulate" />
      <path
         transform="matrix(0.25,0,0,0.25,138.17415,675.74009)"
         d="m 150,315 c 0,2.76142 -2.23858,5 -5,5 -2.76142,0 -5,-2.23858 -5,-5 0,-2.76142 2.23858,-5 5,-5 2.76142,0 5,2.23858 5,5 z"
         id="path3428-69"
         style="color:#000000;fill:#000000;fill-opacity:1;fill-rule:nonzero;stroke:none;stroke-width:2;marker:none;visibility:visible;display:inline;overflow:visible;enable-background:accumulate" />
      <path
         transform="matrix(0.25,0,0,0.25,150.3536,663.52031)"
         d="m 150,315 c 0,2.76142 -2.23858,5 -5,5 -2.76142,0 -5,-2.23858 -5,-5 0,-2.76142 2.23858,-5 5,-5 2.76142,0 5,2.23858 5,5 z"
         id="path3428-66"
         style="color:#000000;fill:#000000;fill-opacity:1;fill-rule:nonzero;stroke:none;stroke-width:2;marker:none;visibility:visible;display:inline;overflow:visible;enable-background:accumulate" />
      <path
         transform="matrix(0.25,0,0,0.25,146.88528,661.86681)"
         d="m 150,315 c 0,2.76142 -2.23858,5 -5,5 -2.76142,0 -5,-2.23858 -5,-5 0,-2.76142 2.23858,-5 5,-5 2.76142,0 5,2.23858 5,5 z"
         id="path3428-52"
         style="color:#000000;fill:#000000;fill-opacity:1;fill-rule:nonzero;stroke:none;stroke-width:2;marker:none;visibility:visible;display:inline;overflow:visible;enable-background:accumulate" />
      <path
         transform="matrix(0.25,0,0,0.25,146.84495,641.25855)"
         d="m 150,315 c 0,2.76142 -2.23858,5 -5,5 -2.76142,0 -5,-2.23858 -5,-5 0,-2.76142 2.23858,-5 5,-5 2.76142,0 5,2.23858 5,5 z"
         id="path3428-23"
         style="color:#000000;fill:#000000;fill-opacity:1;fill-rule:nonzero;stroke:none;stroke-width:2;marker:none;visibility:visible;display:inline;overflow:visible;enable-background:accumulate" />
      <path
         transform="matrix(0.25,0,0,0.25,160.51658,660.09233)"
         d="m 150,315 c 0,2.76142 -2.23858,5 -5,5 -2.76142,0 -5,-2.23858 -5,-5 0,-2.76142 2.23858,-5 5,-5 2.76142,0 5,2.23858 5,5 z"
         id="path3428-18"
         style="color:#000000;fill:#000000;fill-opacity:1;fill-rule:nonzero;stroke:none;stroke-width:2;marker:none;visibility:visible;display:inline;overflow:visible;enable-background:accumulate" />
      <path
         transform="matrix(0.25,0,0,0.25,157.04826,670.45695)"
         d="m 150,315 c 0,2.76142 -2.23858,5 -5,5 -2.76142,0 -5,-2.23858 -5,-5 0,-2.76142 2.23858,-5 5,-5 2.76142,0 5,2.23858 5,5 z"
         id="path3428-020"
         style="color:#000000;fill:#000000;fill-opacity:1;fill-rule:nonzero;stroke:none;stroke-width:2;marker:none;visibility:visible;display:inline;overflow:visible;enable-background:accumulate" />
      <path
         transform="matrix(0.25,0,0,0.25,160.47625,670.57794)"
         d="m 150,315 c 0,2.76142 -2.23858,5 -5,5 -2.76142,0 -5,-2.23858 -5,-5 0,-2.76142 2.23858,-5 5,-5 2.76142,0 5,2.23858 5,5 z"
         id="path3428-03"
         style="color:#000000;fill:#000000;fill-opacity:1;fill-rule:nonzero;stroke:none;stroke-width:2;marker:none;visibility:visible;display:inline;overflow:visible;enable-background:accumulate" />
      <path
         transform="matrix(0.25,0,0,0.25,169.18737,689.61336)"
         d="m 150,315 c 0,2.76142 -2.23858,5 -5,5 -2.76142,0 -5,-2.23858 -5,-5 0,-2.76142 2.23858,-5 5,-5 2.76142,0 5,2.23858 5,5 z"
         id="path3428-55"
         style="color:#000000;fill:#000000;fill-opacity:1;fill-rule:nonzero;stroke:none;stroke-width:2;marker:none;visibility:visible;display:inline;overflow:visible;enable-background:accumulate" />
      <path
         transform="matrix(0.25,0,0,0.25,163.90424,694.4932)"
         d="m 150,315 c 0,2.76142 -2.23858,5 -5,5 -2.76142,0 -5,-2.23858 -5,-5 0,-2.76142 2.23858,-5 5,-5 2.76142,0 5,2.23858 5,5 z"
         id="path3428-12"
         style="color:#000000;fill:#000000;fill-opacity:1;fill-rule:nonzero;stroke:none;stroke-width:2;marker:none;visibility:visible;display:inline;overflow:visible;enable-background:accumulate" />
      <path
         transform="matrix(0.25,0,0,0.25,150.39393,689.61336)"
         d="m 150,315 c 0,2.76142 -2.23858,5 -5,5 -2.76142,0 -5,-2.23858 -5,-5 0,-2.76142 2.23858,-5 5,-5 2.76142,0 5,2.23858 5,5 z"
         id="path3428-40"
         style="color:#000000;fill:#000000;fill-opacity:1;fill-rule:nonzero;stroke:none;stroke-width:2;marker:none;visibility:visible;display:inline;overflow:visible;enable-background:accumulate" />
      <path
         transform="matrix(0.25,0,0,0.25,155.3141,706.67265)"
         d="m 150,315 c 0,2.76142 -2.23858,5 -5,5 -2.76142,0 -5,-2.23858 -5,-5 0,-2.76142 2.23858,-5 5,-5 2.76142,0 5,2.23858 5,5 z"
         id="path3428-95"
         style="color:#000000;fill:#000000;fill-opacity:1;fill-rule:nonzero;stroke:none;stroke-width:2;marker:none;visibility:visible;display:inline;overflow:visible;enable-background:accumulate" />
      <path
         transform="matrix(0.25,0,0,0.25,145.15112,704.97882)"
         d="m 150,315 c 0,2.76142 -2.23858,5 -5,5 -2.76142,0 -5,-2.23858 -5,-5 0,-2.76142 2.23858,-5 5,-5 2.76142,0 5,2.23858 5,5 z"
         id="path3428-68"
         style="color:#000000;fill:#000000;fill-opacity:1;fill-rule:nonzero;stroke:none;stroke-width:2;marker:none;visibility:visible;display:inline;overflow:visible;enable-background:accumulate" />
      <path
         transform="matrix(0.25,0,0,0.25,141.72313,722.23975)"
         d="m 150,315 c 0,2.76142 -2.23858,5 -5,5 -2.76142,0 -5,-2.23858 -5,-5 0,-2.76142 2.23858,-5 5,-5 2.76142,0 5,2.23858 5,5 z"
         id="path3428-64"
         style="color:#000000;fill:#000000;fill-opacity:1;fill-rule:nonzero;stroke:none;stroke-width:2;marker:none;visibility:visible;display:inline;overflow:visible;enable-background:accumulate" />
      <path
         transform="matrix(0.25,0,0,0.25,106.95929,708.40681)"
         d="m 150,315 c 0,2.76142 -2.23858,5 -5,5 -2.76142,0 -5,-2.23858 -5,-5 0,-2.76142 2.23858,-5 5,-5 2.76142,0 5,2.23858 5,5 z"
         id="path3428-555"
         style="color:#000000;fill:#000000;fill-opacity:1;fill-rule:nonzero;stroke:none;stroke-width:2;marker:none;visibility:visible;display:inline;overflow:visible;enable-background:accumulate" />
      <path
         transform="matrix(0.25,0,0,0.25,113.97658,722.32041)"
         d="m 150,315 c 0,2.76142 -2.23858,5 -5,5 -2.76142,0 -5,-2.23858 -5,-5 0,-2.76142 2.23858,-5 5,-5 2.76142,0 5,2.23858 5,5 z"
         id="path3428-763"
         style="color:#000000;fill:#000000;fill-opacity:1;fill-rule:nonzero;stroke:none;stroke-width:2;marker:none;visibility:visible;display:inline;overflow:visible;enable-background:accumulate" />
      <path
         transform="matrix(0.25,0,0,0.25,113.93625,732.68504)"
         d="m 150,315 c 0,2.76142 -2.23858,5 -5,5 -2.76142,0 -5,-2.23858 -5,-5 0,-2.76142 2.23858,-5 5,-5 2.76142,0 5,2.23858 5,5 z"
         id="path3428-180"
         style="color:#000000;fill:#000000;fill-opacity:1;fill-rule:nonzero;stroke:none;stroke-width:2;marker:none;visibility:visible;display:inline;overflow:visible;enable-background:accumulate" />
      <path
         transform="matrix(0.25,0,0,0.25,129.50336,734.37887)"
         d="m 150,315 c 0,2.76142 -2.23858,5 -5,5 -2.76142,0 -5,-2.23858 -5,-5 0,-2.76142 2.23858,-5 5,-5 2.76142,0 5,2.23858 5,5 z"
         id="path3428-28"
         style="color:#000000;fill:#000000;fill-opacity:1;fill-rule:nonzero;stroke:none;stroke-width:2;marker:none;visibility:visible;display:inline;overflow:visible;enable-background:accumulate" />
      <path
         transform="matrix(0.25,0,0,0.25,108.69345,741.0332)"
         d="m 150,315 c 0,2.76142 -2.23858,5 -5,5 -2.76142,0 -5,-2.23858 -5,-5 0,-2.76142 2.23858,-5 5,-5 2.76142,0 5,2.23858 5,5 z"
         id="path3428-520"
         style="color:#000000;fill:#000000;fill-opacity:1;fill-rule:nonzero;stroke:none;stroke-width:2;marker:none;visibility:visible;display:inline;overflow:visible;enable-background:accumulate" />
      <path
         transform="matrix(0.25,0,0,0.25,102.03912,754.9468)"
         d="m 150,315 c 0,2.76142 -2.23858,5 -5,5 -2.76142,0 -5,-2.23858 -5,-5 0,-2.76142 2.23858,-5 5,-5 2.76142,0 5,2.23858 5,5 z"
         id="path3428-162"
         style="color:#000000;fill:#000000;fill-opacity:1;fill-rule:nonzero;stroke:none;stroke-width:2;marker:none;visibility:visible;display:inline;overflow:visible;enable-background:accumulate" />
      <path
         transform="matrix(0.25,0,0,0.25,129.54369,761.88344)"
         d="m 150,315 c 0,2.76142 -2.23858,5 -5,5 -2.76142,0 -5,-2.23858 -5,-5 0,-2.76142 2.23858,-5 5,-5 2.76142,0 5,2.23858 5,5 z"
         id="path3428-39"
         style="color:#000000;fill:#000000;fill-opacity:1;fill-rule:nonzero;stroke:none;stroke-width:2;marker:none;visibility:visible;display:inline;overflow:visible;enable-background:accumulate" />
      <path
         transform="matrix(0.25,0,0,0.25,126.07537,777.45054)"
         d="m 150,315 c 0,2.76142 -2.23858,5 -5,5 -2.76142,0 -5,-2.23858 -5,-5 0,-2.76142 2.23858,-5 5,-5 2.76142,0 5,2.23858 5,5 z"
         id="path3428-714"
         style="color:#000000;fill:#000000;fill-opacity:1;fill-rule:nonzero;stroke:none;stroke-width:2;marker:none;visibility:visible;display:inline;overflow:visible;enable-background:accumulate" />
      <path
         transform="matrix(0.25,0,0,0.25,139.98897,775.79704)"
         d="m 150,315 c 0,2.76142 -2.23858,5 -5,5 -2.76142,0 -5,-2.23858 -5,-5 0,-2.76142 2.23858,-5 5,-5 2.76142,0 5,2.23858 5,5 z"
         id="path3428-527"
         style="color:#000000;fill:#000000;fill-opacity:1;fill-rule:nonzero;stroke:none;stroke-width:2;marker:none;visibility:visible;display:inline;overflow:visible;enable-background:accumulate" />
      <path
         transform="matrix(0.25,0,0,0.25,129.54369,792.816)"
         d="m 150,315 c 0,2.76142 -2.23858,5 -5,5 -2.76142,0 -5,-2.23858 -5,-5 0,-2.76142 2.23858,-5 5,-5 2.76142,0 5,2.23858 5,5 z"
         id="path3428-06"
         style="color:#000000;fill:#000000;fill-opacity:1;fill-rule:nonzero;stroke:none;stroke-width:2;marker:none;visibility:visible;display:inline;overflow:visible;enable-background:accumulate" />
      <path
         transform="matrix(0.25,0,0,0.25,113.93625,796.28432)"
         d="m 150,315 c 0,2.76142 -2.23858,5 -5,5 -2.76142,0 -5,-2.23858 -5,-5 0,-2.76142 2.23858,-5 5,-5 2.76142,0 5,2.23858 5,5 z"
         id="path3428-30"
         style="color:#000000;fill:#000000;fill-opacity:1;fill-rule:nonzero;stroke:none;stroke-width:2;marker:none;visibility:visible;display:inline;overflow:visible;enable-background:accumulate" />
      <path
         transform="matrix(0.25,0,0,0.25,115.63008,787.89583)"
         d="m 150,315 c 0,2.76142 -2.23858,5 -5,5 -2.76142,0 -5,-2.23858 -5,-5 0,-2.76142 2.23858,-5 5,-5 2.76142,0 5,2.23858 5,5 z"
         id="path3428-323"
         style="color:#000000;fill:#000000;fill-opacity:1;fill-rule:nonzero;stroke:none;stroke-width:2;marker:none;visibility:visible;display:inline;overflow:visible;enable-background:accumulate" />
      <path
         transform="matrix(0.25,0,0,0.25,93.408648,787.89583)"
         d="m 150,315 c 0,2.76142 -2.23858,5 -5,5 -2.76142,0 -5,-2.23858 -5,-5 0,-2.76142 2.23858,-5 5,-5 2.76142,0 5,2.23858 5,5 z"
         id="path3428-34"
         style="color:#000000;fill:#000000;fill-opacity:1;fill-rule:nonzero;stroke:none;stroke-width:2;marker:none;visibility:visible;display:inline;overflow:visible;enable-background:accumulate" />
      <path
         transform="matrix(0.25,0,0,0.25,76.067056,796.24399)"
         d="m 150,315 c 0,2.76142 -2.23858,5 -5,5 -2.76142,0 -5,-2.23858 -5,-5 0,-2.76142 2.23858,-5 5,-5 2.76142,0 5,2.23858 5,5 z"
         id="path3428-80"
         style="color:#000000;fill:#000000;fill-opacity:1;fill-rule:nonzero;stroke:none;stroke-width:2;marker:none;visibility:visible;display:inline;overflow:visible;enable-background:accumulate" />
      <path
         transform="matrix(0.25,0,0,0.25,93.368319,770.59456)"
         d="m 150,315 c 0,2.76142 -2.23858,5 -5,5 -2.76142,0 -5,-2.23858 -5,-5 0,-2.76142 2.23858,-5 5,-5 2.76142,0 5,2.23858 5,5 z"
         id="path3428-57"
         style="color:#000000;fill:#000000;fill-opacity:1;fill-rule:nonzero;stroke:none;stroke-width:2;marker:none;visibility:visible;display:inline;overflow:visible;enable-background:accumulate" />
      <path
         transform="matrix(0.25,0,0,0.25,86.451847,754.90647)"
         d="m 150,315 c 0,2.76142 -2.23858,5 -5,5 -2.76142,0 -5,-2.23858 -5,-5 0,-2.76142 2.23858,-5 5,-5 2.76142,0 5,2.23858 5,5 z"
         id="path3428-20"
         style="color:#000000;fill:#000000;fill-opacity:1;fill-rule:nonzero;stroke:none;stroke-width:2;marker:none;visibility:visible;display:inline;overflow:visible;enable-background:accumulate" />
      <path
         transform="matrix(0.25,0,0,0.25,72.558409,756.64063)"
         d="m 150,315 c 0,2.76142 -2.23858,5 -5,5 -2.76142,0 -5,-2.23858 -5,-5 0,-2.76142 2.23858,-5 5,-5 2.76142,0 5,2.23858 5,5 z"
         id="path3428-67"
         style="color:#000000;fill:#000000;fill-opacity:1;fill-rule:nonzero;stroke:none;stroke-width:2;marker:none;visibility:visible;display:inline;overflow:visible;enable-background:accumulate" />
      <path
         transform="matrix(0.25,0,0,0.25,170.8812,789.65015)"
         d="m 150,315 c 0,2.76142 -2.23858,5 -5,5 -2.76142,0 -5,-2.23858 -5,-5 0,-2.76142 2.23858,-5 5,-5 2.76142,0 5,2.23858 5,5 z"
         id="path3428-48"
         style="color:#000000;fill:#000000;fill-opacity:1;fill-rule:nonzero;stroke:none;stroke-width:2;marker:none;visibility:visible;display:inline;overflow:visible;enable-background:accumulate" />
    </g>
  </g>
</svg>
