<?xml version="1.0" encoding="UTF-8" standalone="no"?>
<svg
   width="800"
   height="600"
   id="svg2"
   version="1.1"
   xmlns="http://www.w3.org/2000/svg"
   xmlns:svg="http://www.w3.org/2000/svg"
   xmlns:rdf="http://www.w3.org/1999/02/22-rdf-syntax-ns#"
   xmlns:cc="http://creativecommons.org/ns#"
   xmlns:dc="http://purl.org/dc/elements/1.1/">
  <defs
     id="defs4" />
  <metadata
     id="metadata7">
    <rdf:RDF>
      <cc:Work
         rdf:about="">
        <dc:format>image/svg+xml</dc:format>
        <dc:type
           rdf:resource="http://purl.org/dc/dcmitype/StillImage" />
        <dc:title />
        <dc:language>en</dc:language>
        <cc:license
           rdf:resource="https://timefold.ai/license" />
      </cc:Work>
    </rdf:RDF>
  </metadata>
  <g
     id="layer2"
     style="display:inline">
    <rect
       ry="5"
       rx="4.999999"
       y="300.5"
       x="640.5"
       height="29"
       width="79"
       id="rect4248"
       style="fill:#fcaf3e;fill-opacity:1;stroke:#000000;stroke-width:1;stroke-linecap:round;stroke-linejoin:round;stroke-miterlimit:4;stroke-dasharray:none" />
    <path
       style="font-size:22px;line-height:1.25;font-family:'Liberation Sans';-inkscape-font-specification:'Liberation Sans, Normal';text-align:center;text-anchor:middle"
       d="m 82.968262,136.14277 1.998047,0.24707 q -0.472657,1.75098 -1.750977,2.71777 -1.27832,0.9668 -3.265625,0.9668 -2.50293,0 -3.974609,-1.53613 -1.460938,-1.54688 -1.460938,-4.3291 0,-2.87891 1.482422,-4.46875 1.482422,-1.58985 3.845703,-1.58985 2.288086,0 3.738281,1.55762 1.450196,1.55762 1.450196,4.38281 0,0.17188 -0.01074,0.51563 h -8.507813 q 0.107422,1.87988 1.063477,2.8789 0.956054,0.99903 2.384765,0.99903 1.063477,0 1.81543,-0.5586 0.751953,-0.55859 1.192383,-1.7832 z m -6.348633,-3.12598 h 6.370117 q -0.128906,-1.43945 -0.730469,-2.15918 -0.923828,-1.11718 -2.395507,-1.11718 -1.332032,0 -2.245118,0.8916 -0.902343,0.8916 -0.999023,2.38476 z m 10.774414,6.79981 v -11.40821 h 1.740234 v 1.62207 q 1.256836,-1.87988 3.63086,-1.87988 1.03125,0 1.890625,0.37598 0.870117,0.36523 1.299804,0.9668 0.429688,0.60156 0.601563,1.42871 0.107422,0.53711 0.107422,1.87988 v 7.01465 h -1.933594 v -6.93946 q 0,-1.18164 -0.225586,-1.76171 -0.225586,-0.59082 -0.805664,-0.93457 -0.569336,-0.3545 -1.342773,-0.3545 -1.235352,0 -2.137696,0.78418 -0.891601,0.78418 -0.891601,2.97559 v 6.23047 z m 16.457027,-1.72949 0.2793,1.708 q -0.81641,0.17188 -1.46094,0.17188 -1.05273,0 -1.63281,-0.33301 -0.58008,-0.33301 -0.81641,-0.87012 -0.236323,-0.54785 -0.236323,-2.28808 v -6.56348 h -1.417969 v -1.50391 h 1.417969 v -2.82519 l 1.922853,-1.16016 v 3.98535 h 1.94433 v 1.50391 h -1.94433 v 6.6709 q 0,0.82715 0.0967,1.06348 0.10742,0.23632 0.33301,0.37597 0.23632,0.13965 0.66601,0.13965 0.32227,0 0.84863,-0.0752 z m 1.90137,-11.79493 v -2.22363 h 1.9336 v 2.22363 z m 0,13.52442 v -11.40821 h 1.9336 v 11.40821 z m 9.09863,-1.72949 0.2793,1.708 q -0.81641,0.17188 -1.46094,0.17188 -1.05273,0 -1.63281,-0.33301 -0.58008,-0.33301 -0.81641,-0.87012 -0.23632,-0.54785 -0.23632,-2.28808 v -6.56348 h -1.41797 v -1.50391 h 1.41797 v -2.82519 l 1.92285,-1.16016 v 3.98535 h 1.94433 v 1.50391 h -1.94433 v 6.6709 q 0,0.82715 0.0967,1.06348 0.10742,0.23632 0.33301,0.37597 0.23632,0.13965 0.66601,0.13965 0.32227,0 0.84863,-0.0752 z m 1.80469,6.12304 -0.21484,-1.81543 q 0.63379,0.17188 1.10644,0.17188 0.64453,0 1.03125,-0.21485 0.38672,-0.21484 0.63379,-0.60156 0.18262,-0.29004 0.59082,-1.43945 0.0537,-0.16113 0.17188,-0.47266 l -4.3291,-11.42969 h 2.08398 l 2.37402,6.60645 q 0.46192,1.25684 0.82715,2.64258 0.33301,-1.33203 0.79492,-2.59961 l 2.43848,-6.64942 h 1.93359 l -4.33984,11.60157 q -0.69824,1.87988 -1.08496,2.58886 -0.51563,0.95606 -1.18164,1.39649 -0.66602,0.45117 -1.58984,0.45117 -0.5586,0 -1.2461,-0.23633 z"
       id="flowRoot4250"
       transform="translate(580,180.00001)"
       aria-label="entity" />
    <rect
       style="fill:#729fcf;fill-opacity:1;stroke:#000000;stroke-width:1;stroke-linecap:round;stroke-linejoin:round;stroke-miterlimit:4;stroke-dasharray:none"
       id="rect4264"
       width="79"
       height="29"
       x="640.5"
       y="360.5"
       rx="4.999999"
       ry="5" />
    <path
       style="font-size:22px;line-height:1.25;font-family:'Liberation Sans';-inkscape-font-specification:'Liberation Sans, Normal';text-align:center;text-anchor:middle"
       d="m 82.968262,136.14277 1.998047,0.24707 q -0.472657,1.75098 -1.750977,2.71777 -1.27832,0.9668 -3.265625,0.9668 -2.50293,0 -3.974609,-1.53613 -1.460938,-1.54688 -1.460938,-4.3291 0,-2.87891 1.482422,-4.46875 1.482422,-1.58985 3.845703,-1.58985 2.288086,0 3.738281,1.55762 1.450196,1.55762 1.450196,4.38281 0,0.17188 -0.01074,0.51563 h -8.507813 q 0.107422,1.87988 1.063477,2.8789 0.956054,0.99903 2.384765,0.99903 1.063477,0 1.81543,-0.5586 0.751953,-0.55859 1.192383,-1.7832 z m -6.348633,-3.12598 h 6.370117 q -0.128906,-1.43945 -0.730469,-2.15918 -0.923828,-1.11718 -2.395507,-1.11718 -1.332032,0 -2.245118,0.8916 -0.902343,0.8916 -0.999023,2.38476 z m 10.774414,6.79981 v -11.40821 h 1.740234 v 1.62207 q 1.256836,-1.87988 3.63086,-1.87988 1.03125,0 1.890625,0.37598 0.870117,0.36523 1.299804,0.9668 0.429688,0.60156 0.601563,1.42871 0.107422,0.53711 0.107422,1.87988 v 7.01465 h -1.933594 v -6.93946 q 0,-1.18164 -0.225586,-1.76171 -0.225586,-0.59082 -0.805664,-0.93457 -0.569336,-0.3545 -1.342773,-0.3545 -1.235352,0 -2.137696,0.78418 -0.891601,0.78418 -0.891601,2.97559 v 6.23047 z m 16.457027,-1.72949 0.2793,1.708 q -0.81641,0.17188 -1.46094,0.17188 -1.05273,0 -1.63281,-0.33301 -0.58008,-0.33301 -0.81641,-0.87012 -0.236323,-0.54785 -0.236323,-2.28808 v -6.56348 h -1.417969 v -1.50391 h 1.417969 v -2.82519 l 1.922853,-1.16016 v 3.98535 h 1.94433 v 1.50391 h -1.94433 v 6.6709 q 0,0.82715 0.0967,1.06348 0.10742,0.23632 0.33301,0.37597 0.23632,0.13965 0.66601,0.13965 0.32227,0 0.84863,-0.0752 z m 1.90137,-11.79493 v -2.22363 h 1.9336 v 2.22363 z m 0,13.52442 v -11.40821 h 1.9336 v 11.40821 z m 9.09863,-1.72949 0.2793,1.708 q -0.81641,0.17188 -1.46094,0.17188 -1.05273,0 -1.63281,-0.33301 -0.58008,-0.33301 -0.81641,-0.87012 -0.23632,-0.54785 -0.23632,-2.28808 v -6.56348 h -1.41797 v -1.50391 h 1.41797 v -2.82519 l 1.92285,-1.16016 v 3.98535 h 1.94433 v 1.50391 h -1.94433 v 6.6709 q 0,0.82715 0.0967,1.06348 0.10742,0.23632 0.33301,0.37597 0.23632,0.13965 0.66601,0.13965 0.32227,0 0.84863,-0.0752 z m 1.80469,6.12304 -0.21484,-1.81543 q 0.63379,0.17188 1.10644,0.17188 0.64453,0 1.03125,-0.21485 0.38672,-0.21484 0.63379,-0.60156 0.18262,-0.29004 0.59082,-1.43945 0.0537,-0.16113 0.17188,-0.47266 l -4.3291,-11.42969 h 2.08398 l 2.37402,6.60645 q 0.46192,1.25684 0.82715,2.64258 0.33301,-1.33203 0.79492,-2.59961 l 2.43848,-6.64942 h 1.93359 l -4.33984,11.60157 q -0.69824,1.87988 -1.08496,2.58886 -0.51563,0.95606 -1.18164,1.39649 -0.66602,0.45117 -1.58984,0.45117 -0.5586,0 -1.2461,-0.23633 z"
       id="flowRoot4266"
       transform="translate(580,240.00001)"
       aria-label="entity" />
    <g
       id="g4274"
       transform="translate(635,-354.01183)">
      <path
         transform="translate(-45,484.01184)"
         id="path4276"
         d="m 90,230 0,-30"
         style="color:#000000;fill:none;stroke:#000000;stroke-width:1px;stroke-linecap:round;stroke-linejoin:round;stroke-miterlimit:4;stroke-opacity:1;stroke-dasharray:none;stroke-dashoffset:0;marker:none;visibility:visible;display:inline;overflow:visible;enable-background:accumulate" />
      <path
         transform="translate(-45,484.01184)"
         id="path4278"
         d="m 80,210 10,-10 10,10"
         style="color:#000000;fill:none;stroke:#000000;stroke-width:1px;stroke-linecap:round;stroke-linejoin:round;stroke-miterlimit:4;stroke-opacity:1;stroke-dasharray:none;stroke-dashoffset:0;marker:none;visibility:visible;display:inline;overflow:visible;enable-background:accumulate" />
    </g>
    <rect
       ry="5"
       rx="4.999999"
       y="420.5"
       x="640.5"
       height="29"
       width="79"
       id="rect4280"
       style="fill:#e9b96e;fill-opacity:1;stroke:#000000;stroke-width:1;stroke-linecap:round;stroke-linejoin:round;stroke-miterlimit:4;stroke-dasharray:none" />
    <path
       style="font-size:22px;line-height:1.25;font-family:'Liberation Sans';-inkscape-font-specification:'Liberation Sans, Normal';text-align:center;text-anchor:middle"
       d="m 82.968262,136.14277 1.998047,0.24707 q -0.472657,1.75098 -1.750977,2.71777 -1.27832,0.9668 -3.265625,0.9668 -2.50293,0 -3.974609,-1.53613 -1.460938,-1.54688 -1.460938,-4.3291 0,-2.87891 1.482422,-4.46875 1.482422,-1.58985 3.845703,-1.58985 2.288086,0 3.738281,1.55762 1.450196,1.55762 1.450196,4.38281 0,0.17188 -0.01074,0.51563 h -8.507813 q 0.107422,1.87988 1.063477,2.8789 0.956054,0.99903 2.384765,0.99903 1.063477,0 1.81543,-0.5586 0.751953,-0.55859 1.192383,-1.7832 z m -6.348633,-3.12598 h 6.370117 q -0.128906,-1.43945 -0.730469,-2.15918 -0.923828,-1.11718 -2.395507,-1.11718 -1.332032,0 -2.245118,0.8916 -0.902343,0.8916 -0.999023,2.38476 z m 10.774414,6.79981 v -11.40821 h 1.740234 v 1.62207 q 1.256836,-1.87988 3.63086,-1.87988 1.03125,0 1.890625,0.37598 0.870117,0.36523 1.299804,0.9668 0.429688,0.60156 0.601563,1.42871 0.107422,0.53711 0.107422,1.87988 v 7.01465 h -1.933594 v -6.93946 q 0,-1.18164 -0.225586,-1.76171 -0.225586,-0.59082 -0.805664,-0.93457 -0.569336,-0.3545 -1.342773,-0.3545 -1.235352,0 -2.137696,0.78418 -0.891601,0.78418 -0.891601,2.97559 v 6.23047 z m 16.457027,-1.72949 0.2793,1.708 q -0.81641,0.17188 -1.46094,0.17188 -1.05273,0 -1.63281,-0.33301 -0.58008,-0.33301 -0.81641,-0.87012 -0.236323,-0.54785 -0.236323,-2.28808 v -6.56348 h -1.417969 v -1.50391 h 1.417969 v -2.82519 l 1.922853,-1.16016 v 3.98535 h 1.94433 v 1.50391 h -1.94433 v 6.6709 q 0,0.82715 0.0967,1.06348 0.10742,0.23632 0.33301,0.37597 0.23632,0.13965 0.66601,0.13965 0.32227,0 0.84863,-0.0752 z m 1.90137,-11.79493 v -2.22363 h 1.9336 v 2.22363 z m 0,13.52442 v -11.40821 h 1.9336 v 11.40821 z m 9.09863,-1.72949 0.2793,1.708 q -0.81641,0.17188 -1.46094,0.17188 -1.05273,0 -1.63281,-0.33301 -0.58008,-0.33301 -0.81641,-0.87012 -0.23632,-0.54785 -0.23632,-2.28808 v -6.56348 h -1.41797 v -1.50391 h 1.41797 v -2.82519 l 1.92285,-1.16016 v 3.98535 h 1.94433 v 1.50391 h -1.94433 v 6.6709 q 0,0.82715 0.0967,1.06348 0.10742,0.23632 0.33301,0.37597 0.23632,0.13965 0.66601,0.13965 0.32227,0 0.84863,-0.0752 z m 1.80469,6.12304 -0.21484,-1.81543 q 0.63379,0.17188 1.10644,0.17188 0.64453,0 1.03125,-0.21485 0.38672,-0.21484 0.63379,-0.60156 0.18262,-0.29004 0.59082,-1.43945 0.0537,-0.16113 0.17188,-0.47266 l -4.3291,-11.42969 h 2.08398 l 2.37402,6.60645 q 0.46192,1.25684 0.82715,2.64258 0.33301,-1.33203 0.79492,-2.59961 l 2.43848,-6.64942 h 1.93359 l -4.33984,11.60157 q -0.69824,1.87988 -1.08496,2.58886 -0.51563,0.95606 -1.18164,1.39649 -0.66602,0.45117 -1.58984,0.45117 -0.5586,0 -1.2461,-0.23633 z"
       id="flowRoot4282"
       transform="translate(580,300.00001)"
       aria-label="entity" />
    <g
       transform="translate(635,-294.01183)"
       id="g4290">
      <path
         style="color:#000000;fill:none;stroke:#000000;stroke-width:1px;stroke-linecap:round;stroke-linejoin:round;stroke-miterlimit:4;stroke-opacity:1;stroke-dasharray:none;stroke-dashoffset:0;marker:none;visibility:visible;display:inline;overflow:visible;enable-background:accumulate"
         d="m 90,230 0,-30"
         id="path4292"
         transform="translate(-45,484.01184)" />
      <path
         style="color:#000000;fill:none;stroke:#000000;stroke-width:1px;stroke-linecap:round;stroke-linejoin:round;stroke-miterlimit:4;stroke-opacity:1;stroke-dasharray:none;stroke-dashoffset:0;marker:none;visibility:visible;display:inline;overflow:visible;enable-background:accumulate"
         d="m 80,210 10,-10 10,10"
         id="path4294"
         transform="translate(-45,484.01184)" />
    </g>
    <rect
       style="fill:#ad7fa8;fill-opacity:1;stroke:#000000;stroke-width:1;stroke-linecap:round;stroke-linejoin:round;stroke-miterlimit:4;stroke-dasharray:none"
       id="rect4296"
       width="79"
       height="29"
       x="640.5"
       y="480.5"
       rx="4.999999"
       ry="5" />
    <path
       style="font-size:22px;line-height:1.25;font-family:'Liberation Sans';-inkscape-font-specification:'Liberation Sans, Normal';text-align:center;text-anchor:middle"
       d="m 82.968262,136.14277 1.998047,0.24707 q -0.472657,1.75098 -1.750977,2.71777 -1.27832,0.9668 -3.265625,0.9668 -2.50293,0 -3.974609,-1.53613 -1.460938,-1.54688 -1.460938,-4.3291 0,-2.87891 1.482422,-4.46875 1.482422,-1.58985 3.845703,-1.58985 2.288086,0 3.738281,1.55762 1.450196,1.55762 1.450196,4.38281 0,0.17188 -0.01074,0.51563 h -8.507813 q 0.107422,1.87988 1.063477,2.8789 0.956054,0.99903 2.384765,0.99903 1.063477,0 1.81543,-0.5586 0.751953,-0.55859 1.192383,-1.7832 z m -6.348633,-3.12598 h 6.370117 q -0.128906,-1.43945 -0.730469,-2.15918 -0.923828,-1.11718 -2.395507,-1.11718 -1.332032,0 -2.245118,0.8916 -0.902343,0.8916 -0.999023,2.38476 z m 10.774414,6.79981 v -11.40821 h 1.740234 v 1.62207 q 1.256836,-1.87988 3.63086,-1.87988 1.03125,0 1.890625,0.37598 0.870117,0.36523 1.299804,0.9668 0.429688,0.60156 0.601563,1.42871 0.107422,0.53711 0.107422,1.87988 v 7.01465 h -1.933594 v -6.93946 q 0,-1.18164 -0.225586,-1.76171 -0.225586,-0.59082 -0.805664,-0.93457 -0.569336,-0.3545 -1.342773,-0.3545 -1.235352,0 -2.137696,0.78418 -0.891601,0.78418 -0.891601,2.97559 v 6.23047 z m 16.457027,-1.72949 0.2793,1.708 q -0.81641,0.17188 -1.46094,0.17188 -1.05273,0 -1.63281,-0.33301 -0.58008,-0.33301 -0.81641,-0.87012 -0.236323,-0.54785 -0.236323,-2.28808 v -6.56348 h -1.417969 v -1.50391 h 1.417969 v -2.82519 l 1.922853,-1.16016 v 3.98535 h 1.94433 v 1.50391 h -1.94433 v 6.6709 q 0,0.82715 0.0967,1.06348 0.10742,0.23632 0.33301,0.37597 0.23632,0.13965 0.66601,0.13965 0.32227,0 0.84863,-0.0752 z m 1.90137,-11.79493 v -2.22363 h 1.9336 v 2.22363 z m 0,13.52442 v -11.40821 h 1.9336 v 11.40821 z m 9.09863,-1.72949 0.2793,1.708 q -0.81641,0.17188 -1.46094,0.17188 -1.05273,0 -1.63281,-0.33301 -0.58008,-0.33301 -0.81641,-0.87012 -0.23632,-0.54785 -0.23632,-2.28808 v -6.56348 h -1.41797 v -1.50391 h 1.41797 v -2.82519 l 1.92285,-1.16016 v 3.98535 h 1.94433 v 1.50391 h -1.94433 v 6.6709 q 0,0.82715 0.0967,1.06348 0.10742,0.23632 0.33301,0.37597 0.23632,0.13965 0.66601,0.13965 0.32227,0 0.84863,-0.0752 z m 1.80469,6.12304 -0.21484,-1.81543 q 0.63379,0.17188 1.10644,0.17188 0.64453,0 1.03125,-0.21485 0.38672,-0.21484 0.63379,-0.60156 0.18262,-0.29004 0.59082,-1.43945 0.0537,-0.16113 0.17188,-0.47266 l -4.3291,-11.42969 h 2.08398 l 2.37402,6.60645 q 0.46192,1.25684 0.82715,2.64258 0.33301,-1.33203 0.79492,-2.59961 l 2.43848,-6.64942 h 1.93359 l -4.33984,11.60157 q -0.69824,1.87988 -1.08496,2.58886 -0.51563,0.95606 -1.18164,1.39649 -0.66602,0.45117 -1.58984,0.45117 -0.5586,0 -1.2461,-0.23633 z"
       id="flowRoot4298"
       transform="translate(580,360.00001)"
       aria-label="entity" />
    <g
       id="g4306"
       transform="translate(635,-234.01183)">
      <path
         transform="translate(-45,484.01184)"
         id="path4308"
         d="m 90,230 0,-30"
         style="color:#000000;fill:none;stroke:#000000;stroke-width:1px;stroke-linecap:round;stroke-linejoin:round;stroke-miterlimit:4;stroke-opacity:1;stroke-dasharray:none;stroke-dashoffset:0;marker:none;visibility:visible;display:inline;overflow:visible;enable-background:accumulate" />
      <path
         transform="translate(-45,484.01184)"
         id="path4310"
         d="m 80,210 10,-10 10,10"
         style="color:#000000;fill:none;stroke:#000000;stroke-width:1px;stroke-linecap:round;stroke-linejoin:round;stroke-miterlimit:4;stroke-opacity:1;stroke-dasharray:none;stroke-dashoffset:0;marker:none;visibility:visible;display:inline;overflow:visible;enable-background:accumulate" />
    </g>
    <g
       transform="translate(85,-354.01184)"
       id="g4324"
       style="stroke:#cc0000">
      <g
         transform="translate(550,180.00001)"
         id="g4312"
         style="stroke:#cc0000">
        <path
           style="color:#000000;fill:none;stroke:#cc0000;stroke-width:1px;stroke-linecap:round;stroke-linejoin:round;stroke-miterlimit:4;stroke-opacity:1;stroke-dasharray:none;stroke-dashoffset:0;marker:none;visibility:visible;display:inline;overflow:visible;enable-background:accumulate"
           d="m 80,210 10,-10 10,10"
           id="path4316"
           transform="translate(-45,484.01184)" />
      </g>
      <path
         style="color:#000000;fill:none;stroke:#cc0000;stroke-width:1px;stroke-linecap:round;stroke-linejoin:round;stroke-miterlimit:4;stroke-opacity:1;stroke-dasharray:none;stroke-dashoffset:0;marker:none;visibility:visible;display:inline;overflow:visible;enable-background:accumulate"
         d="m 640,230 0,-20 60,0 0,250 -60,0 0,-20"
         id="path4322"
         transform="translate(-45,424.01185)" />
    </g>
    <path
       style="font-size:20px;line-height:1.25;font-family:'Liberation Sans';-inkscape-font-specification:'Liberation Sans, Normal';text-align:center;text-anchor:middle;fill:#cc0000"
       d="M 63.369141,138.01509 V 123.69868 H 65.3125 l 7.519531,11.24024 v -11.24024 h 1.816406 v 14.31641 h -1.943359 l -7.519531,-11.25 v 11.25 z m 13.886718,-6.97266 q 0,-3.56445 1.914063,-5.57617 1.914062,-2.02148 4.941406,-2.02148 1.982422,0 3.574219,0.94726 1.591797,0.94727 2.421875,2.64649 0.839844,1.68945 0.839844,3.83789 0,2.17773 -0.878907,3.89648 -0.878906,1.71875 -2.490234,2.60742 -1.611328,0.87891 -3.476563,0.87891 -2.021484,0 -3.613281,-0.97656 -1.591797,-0.97657 -2.412109,-2.66602 -0.820313,-1.68945 -0.820313,-3.57422 z m 1.953125,0.0293 q 0,2.58789 1.386719,4.08203 1.396484,1.48438 3.496094,1.48438 2.138672,0 3.515625,-1.50391 1.386719,-1.50391 1.386719,-4.26758 0,-1.74805 -0.595704,-3.04687 -0.585937,-1.3086 -1.728515,-2.02149 -1.132813,-0.72265 -2.548828,-0.72265 -2.011719,0 -3.466797,1.38671 -1.445313,1.37696 -1.445313,4.60938 z m 17.822266,6.94336 v -12.62695 h -4.716797 v -1.68946 h 11.347657 v 1.68946 h -4.736329 v 12.62695 z m 13.19336,-6.97266 q 0,-3.56445 1.91406,-5.57617 1.91406,-2.02148 4.94141,-2.02148 1.98242,0 3.57422,0.94726 1.59179,0.94727 2.42187,2.64649 0.83985,1.68945 0.83985,3.83789 0,2.17773 -0.87891,3.89648 -0.87891,1.71875 -2.49023,2.60742 -1.61133,0.87891 -3.47657,0.87891 -2.02148,0 -3.61328,-0.97656 -1.5918,-0.97657 -2.41211,-2.66602 -0.82031,-1.68945 -0.82031,-3.57422 z m 1.95312,0.0293 q 0,2.58789 1.38672,4.08203 1.39649,1.48438 3.4961,1.48438 2.13867,0 3.51562,-1.50391 1.38672,-1.50391 1.38672,-4.26758 0,-1.74805 -0.5957,-3.04687 -0.58594,-1.3086 -1.72852,-2.02149 -1.13281,-0.72265 -2.54883,-0.72265 -2.01171,0 -3.46679,1.38671 -1.44532,1.37696 -1.44532,4.60938 z m 14.10157,6.94336 v -14.31641 h 1.89453 v 7.09961 l 7.10937,-7.09961 h 2.56836 l -6.00586,5.80078 6.26953,8.51563 h -2.5 l -5.09765,-7.2461 -2.34375,2.28516 v 4.96094 z"
       id="flowRoot3418"
       transform="translate(580,20.000327)"
       aria-label="NOT OK " />
    <path
       style="font-size:12px;line-height:1.25;font-family:'Liberation Sans';-inkscape-font-specification:'Liberation Sans, Normal';text-align:center;text-anchor:middle;fill:#cc0000"
       d="m -32.46875,90.809053 v -8.589844 h 1.136719 v 7.576172 h 4.230469 v 1.013672 z m 6.193359,-3.111328 q 0,-1.728516 0.960938,-2.560547 0.802734,-0.691406 1.957031,-0.691406 1.283203,0 2.097656,0.84375 0.814454,0.83789 0.814454,2.320312 0,1.201172 -0.363282,1.892578 -0.357422,0.685547 -1.048828,1.066407 -0.685547,0.380859 -1.5,0.380859 -1.30664,0 -2.115234,-0.837891 -0.802735,-0.83789 -0.802735,-2.414062 z m 1.083985,0 q 0,1.195312 0.521484,1.792969 0.521485,0.591797 1.3125,0.591797 0.785156,0 1.306641,-0.597657 0.521484,-0.597656 0.521484,-1.822265 0,-1.154297 -0.527344,-1.746094 -0.521484,-0.597656 -1.300781,-0.597656 -0.791015,0 -1.3125,0.591797 -0.521484,0.591796 -0.521484,1.787109 z m 5.589844,0 q 0,-1.728516 0.960937,-2.560547 0.802734,-0.691406 1.957031,-0.691406 1.283203,0 2.097656,0.84375 0.814454,0.83789 0.814454,2.320312 0,1.201172 -0.363282,1.892578 -0.357422,0.685547 -1.048828,1.066407 -0.685547,0.380859 -1.5,0.380859 -1.30664,0 -2.115234,-0.837891 -0.802734,-0.83789 -0.802734,-2.414062 z m 1.083984,0 q 0,1.195312 0.521484,1.792969 0.521485,0.591797 1.3125,0.591797 0.785156,0 1.306641,-0.597657 0.521484,-0.597656 0.521484,-1.822265 0,-1.154297 -0.527344,-1.746094 -0.521484,-0.597656 -1.300781,-0.597656 -0.791015,0 -1.3125,0.591797 -0.521484,0.591796 -0.521484,1.787109 z m 5.982422,5.496094 v -8.607422 h 0.960937 v 0.808594 q 0.339844,-0.47461 0.767578,-0.708985 0.427735,-0.240234 1.0371097,-0.240234 0.796875,0 1.40625,0.410156 0.6093751,0.410156 0.9199219,1.160156 0.3105469,0.744141 0.3105469,1.634766 0,0.955078 -0.3457031,1.722656 -0.3398438,0.761719 -0.9960938,1.171875 -0.6503906,0.404297 -1.3710937,0.404297 -0.5273439,0 -0.9492189,-0.222656 -0.416016,-0.222656 -0.685547,-0.5625 v 3.029297 z m 0.955078,-5.460938 q 0,1.201172 0.486328,1.775391 0.486328,0.574219 1.1777344,0.574219 0.703125,0 1.2011718,-0.591797 0.5039063,-0.597657 0.5039063,-1.845703 0,-1.189454 -0.4921875,-1.78125 -0.4863281,-0.591797 -1.1660156,-0.591797 -0.6738284,0 -1.1953124,0.632812 -0.515625,0.626953 -0.515625,1.828125 z"
       id="flowRoot3426"
       transform="translate(700,20.000327)"
       aria-label="Loop" />
  </g>
</svg>
