<?xml version="1.0" encoding="UTF-8" standalone="no"?>
<!-- Created with Inkscape (http://www.inkscape.org/) -->

<svg
   width="800"
   height="600"
   id="svg2"
   version="1.1"
   xmlns="http://www.w3.org/2000/svg"
   xmlns:svg="http://www.w3.org/2000/svg"
   xmlns:rdf="http://www.w3.org/1999/02/22-rdf-syntax-ns#"
   xmlns:cc="http://creativecommons.org/ns#"
   xmlns:dc="http://purl.org/dc/elements/1.1/">
  <defs
     id="defs4" />
  <metadata
     id="metadata7">
    <rdf:RDF>
      <cc:Work
         rdf:about="">
        <dc:format>image/svg+xml</dc:format>
        <dc:type
           rdf:resource="http://purl.org/dc/dcmitype/StillImage" />
        <dc:language>en</dc:language>
        <cc:license
           rdf:resource="https://timefold.ai/license" />
      </cc:Work>
    </rdf:RDF>
  </metadata>
  <g
     id="layer2"
     style="display:inline">
    <path
       style="font-size:22px;line-height:1.25;font-family:'Liberation Sans';-inkscape-font-specification:'Liberation Sans, Normal';text-align:center;text-anchor:middle"
       d="m -487.47363,444.29511 2.08398,0.52637 q -0.65527,2.56738 -2.36328,3.9209 -1.69727,1.34277 -4.15723,1.34277 -2.54589,0 -4.14648,-1.03125 -1.58984,-1.04199 -2.42773,-3.00781 -0.82715,-1.96582 -0.82715,-4.22168 0,-2.45996 0.93457,-4.28613 0.94531,-1.83692 2.6748,-2.78223 1.74024,-0.95605 3.82422,-0.95605 2.36328,0 3.97461,1.20312 1.61133,1.20313 2.24512,3.38379 l -2.05176,0.4834 q -0.54785,-1.71875 -1.58984,-2.50293 -1.042,-0.78418 -2.6211,-0.78418 -1.81543,0 -3.04004,0.87012 -1.21386,0.87011 -1.70801,2.34179 -0.49414,1.46094 -0.49414,3.01856 0,2.00879 0.58008,3.51269 0.59082,1.49317 1.82617,2.23438 1.23536,0.74121 2.67481,0.74121 1.75098,0 2.96484,-1.00977 1.21387,-1.00976 1.64356,-2.99707 z m 4.40429,5.52149 v -15.74805 h 1.9336 v 5.65039 q 1.35351,-1.56836 3.41601,-1.56836 1.26758,0 2.20215,0.50488 0.93457,0.49415 1.33203,1.375 0.40821,0.88086 0.40821,2.55665 v 7.22949 h -1.9336 v -7.22949 q 0,-1.4502 -0.63379,-2.10547 -0.62304,-0.66602 -1.77246,-0.66602 -0.85937,0 -1.62207,0.45117 -0.75195,0.44043 -1.07422,1.20313 -0.32226,0.76269 -0.32226,2.10547 v 6.24121 z m 19.67969,-1.40723 q -1.07422,0.91309 -2.07324,1.28906 -0.98828,0.37598 -2.12695,0.37598 -1.87989,0 -2.88965,-0.91309 -1.00977,-0.92382 -1.00977,-2.35254 0,-0.83789 0.37598,-1.52539 0.38672,-0.69824 0.99902,-1.11718 0.62305,-0.41895 1.39649,-0.63379 0.56933,-0.15039 1.71875,-0.29004 2.34179,-0.2793 3.44824,-0.66602 0.0107,-0.39746 0.0107,-0.50488 0,-1.18164 -0.54785,-1.66504 -0.74121,-0.65527 -2.20215,-0.65527 -1.36426,0 -2.01953,0.4834 -0.64453,0.47265 -0.95605,1.68652 l -1.89063,-0.25781 q 0.25781,-1.21387 0.84863,-1.95508 0.59082,-0.75195 1.70801,-1.14942 1.11719,-0.4082 2.58887,-0.4082 1.46094,0 2.37402,0.34375 0.91309,0.34375 1.34277,0.87012 0.42969,0.51562 0.60157,1.31055 0.0967,0.49414 0.0967,1.7832 v 2.57812 q 0,2.69629 0.11816,3.41602 0.12891,0.70898 0.49414,1.36426 h -2.01953 q -0.30078,-0.60157 -0.38672,-1.40723 z m -0.16113,-4.31836 q -1.05274,0.42969 -3.1582,0.73047 -1.19239,0.17188 -1.68653,0.38672 -0.49414,0.21484 -0.76269,0.63379 -0.26856,0.4082 -0.26856,0.91308 0,0.77344 0.58008,1.28907 0.59082,0.51562 1.71875,0.51562 1.11719,0 1.98731,-0.4834 0.87011,-0.49414 1.27832,-1.34277 0.31152,-0.65527 0.31152,-1.93359 z m 4.95215,5.72559 v -11.40821 h 1.74023 v 1.62207 q 1.25684,-1.87988 3.63086,-1.87988 1.03125,0 1.89063,0.37598 0.87011,0.36523 1.2998,0.9668 0.42969,0.60156 0.60156,1.42871 0.10743,0.53711 0.10743,1.87988 v 7.01465 h -1.9336 v -6.93946 q 0,-1.18164 -0.22558,-1.76171 -0.22559,-0.59082 -0.80567,-0.93457 -0.56933,-0.3545 -1.34277,-0.3545 -1.23535,0 -2.1377,0.78418 -0.8916,0.78418 -0.8916,2.97559 v 6.23047 z m 11.88086,0.94531 1.87988,0.2793 q 0.11816,0.87011 0.65527,1.26757 0.71973,0.53711 1.96582,0.53711 1.34278,0 2.07325,-0.53711 0.73046,-0.5371 0.98828,-1.5039 0.15039,-0.59082 0.13965,-2.48145 -1.26758,1.49317 -3.15821,1.49317 -2.35254,0 -3.6416,-1.69727 -1.28906,-1.69726 -1.28906,-4.07129 0,-1.63281 0.59082,-3.00781 0.59082,-1.38574 1.70801,-2.1377 1.12793,-0.75195 2.64257,-0.75195 2.01954,0 3.33008,1.63281 v -1.375 h 1.78321 v 9.86133 q 0,2.66406 -0.54786,3.77051 -0.53711,1.11719 -1.71875,1.76172 -1.17089,0.64453 -2.88964,0.64453 -2.04102,0 -3.29786,-0.92383 -1.25683,-0.91308 -1.21386,-2.76074 z m 1.60058,-6.85352 q 0,2.24512 0.8916,3.27637 0.89161,1.03125 2.23438,1.03125 1.33203,0 2.23437,-1.02051 0.90235,-1.03125 0.90235,-3.22265 0,-2.09473 -0.93457,-3.15821 -0.92383,-1.06347 -2.23438,-1.06347 -1.28906,0 -2.1914,1.05273 -0.90235,1.04199 -0.90235,3.10449 z m 11,-7.61621 v -2.22363 h 1.9336 v 2.22363 z m 0,13.52442 v -11.40821 h 1.9336 v 11.40821 z m 4.87696,0 V 438.40839 H -427.5 v 1.62207 q 1.25684,-1.87988 3.63086,-1.87988 1.03125,0 1.89062,0.37598 0.87012,0.36523 1.29981,0.9668 0.42969,0.60156 0.60156,1.42871 0.10742,0.53711 0.10742,1.87988 v 7.01465 h -1.93359 v -6.93946 q 0,-1.18164 -0.22559,-1.76171 -0.22558,-0.59082 -0.80566,-0.93457 -0.56934,-0.3545 -1.34277,-0.3545 -1.23536,0 -2.1377,0.78418 -0.8916,0.78418 -0.8916,2.97559 v 6.23047 z m 11.88086,0.94531 1.87988,0.2793 q 0.11816,0.87011 0.65527,1.26757 0.71973,0.53711 1.96582,0.53711 1.34278,0 2.07324,-0.53711 0.73047,-0.5371 0.98829,-1.5039 0.15039,-0.59082 0.13964,-2.48145 -1.26757,1.49317 -3.1582,1.49317 -2.35254,0 -3.6416,-1.69727 -1.28906,-1.69726 -1.28906,-4.07129 0,-1.63281 0.59082,-3.00781 0.59082,-1.38574 1.708,-2.1377 1.12793,-0.75195 2.64258,-0.75195 2.01953,0 3.33008,1.63281 v -1.375 h 1.7832 v 9.86133 q 0,2.66406 -0.54785,3.77051 -0.53711,1.11719 -1.71875,1.76172 -1.1709,0.64453 -2.88965,0.64453 -2.04101,0 -3.29785,-0.92383 -1.25683,-0.91308 -1.21386,-2.76074 z m 1.60058,-6.85352 q 0,2.24512 0.8916,3.27637 0.8916,1.03125 2.23438,1.03125 1.33203,0 2.23437,-1.02051 0.90235,-1.03125 0.90235,-3.22265 0,-2.09473 -0.93457,-3.15821 -0.92383,-1.06347 -2.23438,-1.06347 -1.28906,0 -2.19141,1.05273 -0.90234,1.04199 -0.90234,3.10449 z m 23.84766,5.90821 h -1.9336 v -12.32129 q -0.69824,0.66601 -1.83691,1.33203 -1.12793,0.66602 -2.03027,0.99902 v -1.86914 q 1.62207,-0.76269 2.83593,-1.84765 1.21387,-1.08496 1.71875,-2.10547 h 1.2461 z m 11.60156,4.37207 v -15.78028 h 1.76172 v 1.48243 q 0.62305,-0.87012 1.40723,-1.29981 0.78417,-0.44043 1.90136,-0.44043 1.46094,0 2.57813,0.75195 1.11718,0.75196 1.68652,2.12696 0.56934,1.36426 0.56934,2.99707 0,1.75097 -0.63379,3.1582 -0.62305,1.39649 -1.82617,2.14844 -1.19239,0.74121 -2.51368,0.74121 -0.96679,0 -1.74023,-0.4082 -0.7627,-0.40821 -1.25684,-1.03125 v 5.55371 z m 1.75098,-10.01172 q 0,2.20215 0.8916,3.25488 0.8916,1.05274 2.15918,1.05274 1.28906,0 2.20215,-1.08496 0.92382,-1.09571 0.92382,-3.38379 0,-2.18067 -0.90234,-3.26563 -0.8916,-1.08496 -2.13769,-1.08496 -1.23536,0 -2.19141,1.16016 -0.94531,1.14941 -0.94531,3.35156 z m 10.4414,5.63965 v -15.74805 h 1.9336 v 15.74805 z m 12.375,-1.40723 q -1.07422,0.91309 -2.07324,1.28906 -0.98828,0.37598 -2.12695,0.37598 -1.87989,0 -2.88965,-0.91309 -1.00977,-0.92382 -1.00977,-2.35254 0,-0.83789 0.37598,-1.52539 0.38672,-0.69824 0.99902,-1.11718 0.62305,-0.41895 1.39649,-0.63379 0.56933,-0.15039 1.71875,-0.29004 2.34179,-0.2793 3.44824,-0.66602 0.0107,-0.39746 0.0107,-0.50488 0,-1.18164 -0.54785,-1.66504 -0.74121,-0.65527 -2.20215,-0.65527 -1.36426,0 -2.01953,0.4834 -0.64453,0.47265 -0.95605,1.68652 l -1.89063,-0.25781 q 0.25781,-1.21387 0.84863,-1.95508 0.59082,-0.75195 1.70801,-1.14942 1.11719,-0.4082 2.58887,-0.4082 1.46094,0 2.37402,0.34375 0.91309,0.34375 1.34278,0.87012 0.42968,0.51562 0.60156,1.31055 0.0967,0.49414 0.0967,1.7832 v 2.57812 q 0,2.69629 0.11816,3.41602 0.12891,0.70898 0.49414,1.36426 h -2.01953 q -0.30078,-0.60157 -0.38672,-1.40723 z m -0.16113,-4.31836 q -1.05273,0.42969 -3.1582,0.73047 -1.19239,0.17188 -1.68653,0.38672 -0.49414,0.21484 -0.76269,0.63379 -0.26856,0.4082 -0.26856,0.91308 0,0.77344 0.58008,1.28907 0.59082,0.51562 1.71875,0.51562 1.11719,0 1.98731,-0.4834 0.87011,-0.49414 1.27832,-1.34277 0.31152,-0.65527 0.31152,-1.93359 z m 4.95215,5.72559 v -11.40821 h 1.74023 v 1.62207 q 1.25684,-1.87988 3.63086,-1.87988 1.03125,0 1.89063,0.37598 0.87011,0.36523 1.2998,0.9668 0.42969,0.60156 0.60156,1.42871 0.10743,0.53711 0.10743,1.87988 v 7.01465 h -1.9336 v -6.93946 q 0,-1.18164 -0.22558,-1.76171 -0.22559,-0.59082 -0.80567,-0.93457 -0.56933,-0.3545 -1.34277,-0.3545 -1.23535,0 -2.1377,0.78418 -0.8916,0.78418 -0.8916,2.97559 v 6.23047 z m 12.23535,0 v -11.40821 h 1.74023 v 1.62207 q 1.25684,-1.87988 3.63086,-1.87988 1.03125,0 1.89063,0.37598 0.87012,0.36523 1.2998,0.9668 0.42969,0.60156 0.60157,1.42871 0.10742,0.53711 0.10742,1.87988 v 7.01465 h -1.9336 v -6.93946 q 0,-1.18164 -0.22558,-1.76171 -0.22559,-0.59082 -0.80567,-0.93457 -0.56933,-0.3545 -1.34277,-0.3545 -1.23535,0 -2.13769,0.78418 -0.89161,0.78418 -0.89161,2.97559 v 6.23047 z m 12.24609,-13.52442 v -2.22363 h 1.9336 v 2.22363 z m 0,13.52442 v -11.40821 h 1.9336 v 11.40821 z m 4.87696,0 v -11.40821 h 1.74023 v 1.62207 q 1.25684,-1.87988 3.63086,-1.87988 1.03125,0 1.89063,0.37598 0.87011,0.36523 1.2998,0.9668 0.42969,0.60156 0.60156,1.42871 0.10742,0.53711 0.10742,1.87988 v 7.01465 h -1.93359 v -6.93946 q 0,-1.18164 -0.22559,-1.76171 -0.22558,-0.59082 -0.80566,-0.93457 -0.56934,-0.3545 -1.34277,-0.3545 -1.23535,0 -2.1377,0.78418 -0.8916,0.78418 -0.8916,2.97559 v 6.23047 z m 11.88086,0.94531 1.87988,0.2793 q 0.11816,0.87011 0.65527,1.26757 0.71973,0.53711 1.96582,0.53711 1.34278,0 2.07324,-0.53711 0.73047,-0.5371 0.98829,-1.5039 0.15039,-0.59082 0.13964,-2.48145 -1.26757,1.49317 -3.1582,1.49317 -2.35254,0 -3.6416,-1.69727 -1.28906,-1.69726 -1.28906,-4.07129 0,-1.63281 0.59082,-3.00781 0.59082,-1.38574 1.70801,-2.1377 1.12793,-0.75195 2.64257,-0.75195 2.01953,0 3.33008,1.63281 v -1.375 h 1.7832 v 9.86133 q 0,2.66406 -0.54785,3.77051 -0.53711,1.11719 -1.71875,1.76172 -1.1709,0.64453 -2.88965,0.64453 -2.04101,0 -3.29785,-0.92383 -1.25683,-0.91308 -1.21386,-2.76074 z m 1.60058,-6.85352 q 0,2.24512 0.8916,3.27637 0.89161,1.03125 2.23438,1.03125 1.33203,0 2.23437,-1.02051 0.90235,-1.03125 0.90235,-3.22265 0,-2.09473 -0.93457,-3.15821 -0.92383,-1.06347 -2.23438,-1.06347 -1.28906,0 -2.1914,1.05273 -0.90235,1.04199 -0.90235,3.10449 z m 20.27051,5.90821 -4.33984,-11.40821 h 2.04101 l 2.44922,6.83204 q 0.39746,1.10644 0.73047,2.29882 0.25781,-0.90234 0.71973,-2.16992 l 2.53515,-6.96094 h 1.98731 l -4.31836,11.40821 z m 15.27539,-1.40723 q -1.07422,0.91309 -2.07324,1.28906 -0.98828,0.37598 -2.12695,0.37598 -1.87989,0 -2.88965,-0.91309 -1.00977,-0.92382 -1.00977,-2.35254 0,-0.83789 0.37598,-1.52539 0.38672,-0.69824 0.99902,-1.11718 0.62305,-0.41895 1.39649,-0.63379 0.56933,-0.15039 1.71875,-0.29004 2.34179,-0.2793 3.44824,-0.66602 0.0107,-0.39746 0.0107,-0.50488 0,-1.18164 -0.54785,-1.66504 -0.74121,-0.65527 -2.20215,-0.65527 -1.36426,0 -2.01953,0.4834 -0.64453,0.47265 -0.95606,1.68652 l -1.89062,-0.25781 q 0.25781,-1.21387 0.84863,-1.95508 0.59082,-0.75195 1.70801,-1.14942 1.11719,-0.4082 2.58887,-0.4082 1.46093,0 2.37402,0.34375 0.91309,0.34375 1.34277,0.87012 0.42969,0.51562 0.60157,1.31055 0.0967,0.49414 0.0967,1.7832 v 2.57812 q 0,2.69629 0.11816,3.41602 0.12891,0.70898 0.49414,1.36426 h -2.01953 q -0.30078,-0.60157 -0.38672,-1.40723 z m -0.16113,-4.31836 q -1.05274,0.42969 -3.15821,0.73047 -1.19238,0.17188 -1.68652,0.38672 -0.49414,0.21484 -0.76269,0.63379 -0.26856,0.4082 -0.26856,0.91308 0,0.77344 0.58008,1.28907 0.59082,0.51562 1.71875,0.51562 1.11719,0 1.9873,-0.4834 0.87012,-0.49414 1.27832,-1.34277 0.31153,-0.65527 0.31153,-1.93359 z m 4.93066,5.72559 v -11.40821 h 1.74024 v 1.7295 q 0.66601,-1.21387 1.22461,-1.60059 0.56933,-0.38672 1.24609,-0.38672 0.97754,0 1.9873,0.62305 l -0.66601,1.79394 q -0.70899,-0.41894 -1.41797,-0.41894 -0.63379,0 -1.13867,0.38672 -0.50489,0.37597 -0.71973,1.05273 -0.32226,1.03125 -0.32226,2.25586 v 5.97266 z m 7.3584,-13.52442 v -2.22363 h 1.93359 v 2.22363 z m 0,13.52442 v -11.40821 h 1.93359 v 11.40821 z m 12.32129,-1.40723 q -1.07422,0.91309 -2.07324,1.28906 -0.98828,0.37598 -2.12696,0.37598 -1.87988,0 -2.88964,-0.91309 -1.00977,-0.92382 -1.00977,-2.35254 0,-0.83789 0.37598,-1.52539 0.38672,-0.69824 0.99902,-1.11718 0.62305,-0.41895 1.39648,-0.63379 0.56934,-0.15039 1.71875,-0.29004 2.3418,-0.2793 3.44825,-0.66602 0.0107,-0.39746 0.0107,-0.50488 0,-1.18164 -0.54785,-1.66504 -0.74121,-0.65527 -2.20215,-0.65527 -1.36426,0 -2.01953,0.4834 -0.64453,0.47265 -0.95606,1.68652 l -1.89062,-0.25781 q 0.25781,-1.21387 0.84863,-1.95508 0.59082,-0.75195 1.70801,-1.14942 1.11719,-0.4082 2.58887,-0.4082 1.46093,0 2.37402,0.34375 0.91308,0.34375 1.34277,0.87012 0.42969,0.51562 0.60156,1.31055 0.0967,0.49414 0.0967,1.7832 v 2.57812 q 0,2.69629 0.11817,3.41602 0.1289,0.70898 0.49414,1.36426 h -2.01953 q -0.30078,-0.60157 -0.38672,-1.40723 z m -0.16113,-4.31836 q -1.05274,0.42969 -3.15821,0.73047 -1.19238,0.17188 -1.68652,0.38672 -0.49414,0.21484 -0.7627,0.63379 -0.26855,0.4082 -0.26855,0.91308 0,0.77344 0.58008,1.28907 0.59082,0.51562 1.71875,0.51562 1.11719,0 1.9873,-0.4834 0.87012,-0.49414 1.27832,-1.34277 0.31153,-0.65527 0.31153,-1.93359 z m 6.73535,5.72559 h -1.79395 v -15.74805 h 1.9336 v 5.61816 q 1.22461,-1.53613 3.12597,-1.53613 1.05274,0 1.98731,0.42969 0.94531,0.41894 1.54687,1.19238 0.61231,0.7627 0.95606,1.84766 0.34375,1.08496 0.34375,2.32031 0,2.93262 -1.4502,4.5332 -1.45019,1.60059 -3.48047,1.60059 -2.01953,0 -3.16894,-1.68652 z m -0.0215,-5.79004 q 0,2.05176 0.5586,2.96484 0.91308,1.49317 2.4707,1.49317 1.26758,0 2.19141,-1.09571 0.92382,-1.10644 0.92382,-3.28711 0,-2.23437 -0.8916,-3.29785 -0.88086,-1.06347 -2.13769,-1.06347 -1.26758,0 -2.19141,1.10644 -0.92383,1.0957 -0.92383,3.17969 z m 10.43067,5.79004 v -15.74805 h 1.93359 v 15.74805 z m 12.74023,-3.67383 1.99805,0.24707 q -0.47266,1.75098 -1.75098,2.71777 -1.27832,0.9668 -3.26562,0.9668 -2.50293,0 -3.97461,-1.53613 -1.46094,-1.54688 -1.46094,-4.3291 0,-2.87891 1.48242,-4.46875 1.48242,-1.58985 3.84571,-1.58985 2.28808,0 3.73828,1.55762 1.45019,1.55762 1.45019,4.38281 0,0.17188 -0.0107,0.51563 h -8.50781 q 0.10742,1.87988 1.06347,2.8789 0.95606,0.99903 2.38477,0.99903 1.06348,0 1.81543,-0.5586 0.75195,-0.55859 1.19238,-1.7832 z m -6.34863,-3.12598 h 6.37012 q -0.12891,-1.43945 -0.73047,-2.15918 -0.92383,-1.11718 -2.39551,-1.11718 -1.33203,0 -2.24512,0.8916 -0.90234,0.8916 -0.99902,2.38476 z m 16.88672,6.79981 v -11.40821 h 1.72949 v 1.60059 q 0.53711,-0.83789 1.42871,-1.34277 0.8916,-0.51563 2.03027,-0.51563 1.26758,0 2.07325,0.52637 0.8164,0.52637 1.14941,1.47168 1.35352,-1.99805 3.52344,-1.99805 1.69726,0 2.61035,0.94531 0.91309,0.93457 0.91309,2.88965 v 7.83106 h -1.92286 v -7.18653 q 0,-1.16015 -0.19336,-1.66504 -0.18261,-0.51562 -0.67675,-0.82714 -0.49414,-0.31153 -1.16016,-0.31153 -1.20312,0 -1.99805,0.80567 -0.79492,0.79492 -0.79492,2.55664 v 6.62793 h -1.93359 v -7.41211 q 0,-1.28906 -0.47266,-1.9336 -0.47265,-0.64453 -1.54687,-0.64453 -0.81641,0 -1.51465,0.42969 -0.6875,0.42969 -0.99902,1.25684 -0.31153,0.82714 -0.31153,2.38476 v 5.91895 z m 25.77051,-1.40723 q -1.07422,0.91309 -2.07325,1.28906 -0.98828,0.37598 -2.12695,0.37598 -1.87988,0 -2.88965,-0.91309 -1.00976,-0.92382 -1.00976,-2.35254 0,-0.83789 0.37597,-1.52539 0.38672,-0.69824 0.99903,-1.11718 0.62304,-0.41895 1.39648,-0.63379 0.56934,-0.15039 1.71875,-0.29004 2.3418,-0.2793 3.44824,-0.66602 0.0107,-0.39746 0.0107,-0.50488 0,-1.18164 -0.54786,-1.66504 -0.74121,-0.65527 -2.20214,-0.65527 -1.36426,0 -2.01954,0.4834 -0.64453,0.47265 -0.95605,1.68652 l -1.89063,-0.25781 q 0.25782,-1.21387 0.84864,-1.95508 0.59082,-0.75195 1.708,-1.14942 1.11719,-0.4082 2.58887,-0.4082 1.46094,0 2.37403,0.34375 0.91308,0.34375 1.34277,0.87012 0.42969,0.51562 0.60156,1.31055 0.0967,0.49414 0.0967,1.7832 v 2.57812 q 0,2.69629 0.11817,3.41602 0.1289,0.70898 0.49414,1.36426 h -2.01954 q -0.30078,-0.60157 -0.38671,-1.40723 z m -0.16114,-4.31836 q -1.05273,0.42969 -3.1582,0.73047 -1.19238,0.17188 -1.68652,0.38672 -0.49414,0.21484 -0.7627,0.63379 -0.26855,0.4082 -0.26855,0.91308 0,0.77344 0.58007,1.28907 0.59082,0.51562 1.71875,0.51562 1.11719,0 1.98731,-0.4834 0.87012,-0.49414 1.27832,-1.34277 0.31152,-0.65527 0.31152,-1.93359 z m 4.86621,10.11914 -0.21484,-1.81543 q 0.63379,0.17188 1.10645,0.17188 0.64453,0 1.03125,-0.21485 0.38671,-0.21484 0.63378,-0.60156 0.18262,-0.29004 0.59082,-1.43945 0.0537,-0.16113 0.17188,-0.47266 l -4.3291,-11.42969 h 2.08398 l 2.37403,6.60645 q 0.46191,1.25684 0.82714,2.64258 0.33301,-1.33203 0.79493,-2.59961 l 2.43847,-6.64942 h 1.9336 l -4.33985,11.60157 q -0.69824,1.87988 -1.08496,2.58886 -0.51562,0.95606 -1.18164,1.39649 -0.66601,0.45117 -1.58984,0.45117 -0.5586,0 -1.2461,-0.23633 z m 17.20899,-17.91797 v -2.22363 h 1.93359 v 2.22363 z m 0,13.52442 v -11.40821 h 1.93359 v 11.40821 z m 4.87695,0 v -11.40821 h 1.74024 v 1.62207 q 1.25683,-1.87988 3.63086,-1.87988 1.03125,0 1.89062,0.37598 0.87012,0.36523 1.2998,0.9668 0.42969,0.60156 0.60157,1.42871 0.10742,0.53711 0.10742,1.87988 v 7.01465 h -1.93359 v -6.93946 q 0,-1.18164 -0.22559,-1.76171 -0.22559,-0.59082 -0.80566,-0.93457 -0.56934,-0.3545 -1.34278,-0.3545 -1.23535,0 -2.13769,0.78418 -0.8916,0.78418 -0.8916,2.97559 v 6.23047 z m 12.69727,0 v -9.9043 h -1.70801 v -1.50391 h 1.70801 v -1.21386 q 0,-1.14942 0.2041,-1.70801 0.2793,-0.75195 0.97754,-1.21387 0.70898,-0.47265 1.97656,-0.47265 0.81641,0 1.80469,0.19336 l -0.29004,1.68652 q -0.60156,-0.10742 -1.13867,-0.10742 -0.88086,0 -1.2461,0.37597 -0.36523,0.37598 -0.36523,1.40723 v 1.05273 h 2.22363 v 1.50391 h -2.22363 v 9.9043 z m 5.60742,0 v -15.74805 h 1.93359 v 15.74805 z m 4.94141,-13.52442 v -2.22363 h 1.93359 v 2.22363 z m 0,13.52442 v -11.40821 h 1.93359 v 11.40821 z m 12.32128,-4.17871 1.90137,0.24707 q -0.31152,1.96582 -1.60058,3.083 -1.27833,1.10645 -3.14747,1.10645 -2.34179,0 -3.7705,-1.52539 -1.41797,-1.53613 -1.41797,-4.39356 0,-1.84765 0.6123,-3.23339 0.61231,-1.38575 1.8584,-2.07325 1.25684,-0.69824 2.72852,-0.69824 1.85839,0 3.04004,0.94531 1.18164,0.93457 1.51464,2.66407 l -1.87988,0.29004 q -0.26855,-1.14942 -0.95605,-1.7295 -0.67676,-0.58007 -1.64356,-0.58007 -1.46094,0 -2.37402,1.05273 -0.91309,1.04199 -0.91309,3.30859 0,2.29883 0.88086,3.34082 0.88086,1.042 2.29883,1.042 1.13867,0 1.90137,-0.69825 0.76269,-0.69824 0.96679,-2.14843 z m 7.77735,2.44922 0.27929,1.708 q -0.8164,0.17188 -1.46093,0.17188 -1.05274,0 -1.63282,-0.33301 -0.58007,-0.33301 -0.8164,-0.87012 -0.23633,-0.54785 -0.23633,-2.28808 v -6.56348 h -1.41797 v -1.50391 h 1.41797 v -2.82519 l 1.92285,-1.16016 v 3.98535 h 1.94434 v 1.50391 h -1.94434 v 6.6709 q 0,0.82715 0.0967,1.06348 0.10742,0.23632 0.33301,0.37597 0.23633,0.13965 0.66601,0.13965 0.32227,0 0.84864,-0.0752 z m 15.47949,1.72949 v -1.67578 q -1.332031,1.93359 -3.62012,1.93359 -1.00976,0 -1.89062,-0.38672 -0.87012,-0.38672 -1.29981,-0.9668 -0.41894,-0.59082 -0.59082,-1.43945 -0.11816,-0.56933 -0.11816,-1.80469 v -7.06836 h 1.93359 v 6.32715 q 0,1.51465 0.11817,2.04102 0.18261,0.76269 0.77343,1.20312 0.59082,0.42969 1.460942,0.42969 0.870117,0 1.632812,-0.44043 0.762695,-0.45117 1.074219,-1.21387 0.322265,-0.77343 0.322265,-2.23437 v -6.11231 h 1.933594 v 11.40821 z m 4.758789,4.37207 v -15.78028 h 1.761719 v 1.48243 q 0.623047,-0.87012 1.407226,-1.29981 0.78418,-0.44043 1.901368,-0.44043 1.460937,0 2.578125,0.75195 1.117187,0.75196 1.686523,2.12696 0.569336,1.36426 0.569336,2.99707 0,1.75097 -0.633789,3.1582 -0.623047,1.39649 -1.826172,2.14844 -1.192383,0.74121 -2.513672,0.74121 -0.966797,0 -1.740234,-0.4082 -0.762696,-0.40821 -1.256836,-1.03125 v 5.55371 z m 1.750977,-10.01172 q 0,2.20215 0.891601,3.25488 0.891602,1.05274 2.15918,1.05274 1.289062,0 2.202148,-1.08496 0.923828,-1.09571 0.923828,-3.38379 0,-2.18067 -0.902343,-3.26563 -0.891602,-1.08496 -2.137696,-1.08496 -1.235351,0 -2.191406,1.16016 -0.945312,1.14941 -0.945312,3.35156 z m 20.818359,3.91016 0.279297,1.708 q -0.816406,0.17188 -1.460938,0.17188 -1.052734,0 -1.632812,-0.33301 -0.580078,-0.33301 -0.816406,-0.87012 -0.236328,-0.54785 -0.236328,-2.28808 v -6.56348 h -1.417969 v -1.50391 h 1.417969 v -2.82519 l 1.922851,-1.16016 v 3.98535 h 1.944336 v 1.50391 h -1.944336 v 6.6709 q 0,0.82715 0.09668,1.06348 0.107422,0.23632 0.333008,0.37597 0.236328,0.13965 0.666015,0.13965 0.322266,0 0.848633,-0.0752 z m 1.170898,-3.97461 q 0,-3.16895 1.761719,-4.69434 1.47168,-1.26758 3.587891,-1.26758 2.352539,0 3.845703,1.54688 1.493164,1.53613 1.493164,4.2539 0,2.20215 -0.666016,3.46973 -0.655273,1.25684 -1.922851,1.95508 -1.256836,0.69824 -2.75,0.69824 -2.395508,0 -3.87793,-1.53613 -1.47168,-1.53614 -1.47168,-4.42578 z m 1.987305,0 q 0,2.1914 0.956055,3.28711 0.956055,1.08496 2.40625,1.08496 1.439453,0 2.395508,-1.09571 0.956054,-1.0957 0.956054,-3.34082 0,-2.11621 -0.966797,-3.20117 -0.956054,-1.0957 -2.384765,-1.0957 -1.450195,0 -2.40625,1.08496 -0.956055,1.08496 -0.956055,3.27637 z m 26.705078,3.8457 v 1.8584 h -10.409179 q -0.02148,-0.69824 0.225586,-1.34278 0.39746,-1.06347 1.267578,-2.09472 0.880859,-1.03125 2.535156,-2.38477 2.567383,-2.10547 3.469726,-3.33008 0.902344,-1.23535 0.902344,-2.33105 0,-1.14942 -0.827148,-1.93359 -0.816406,-0.79493 -2.137696,-0.79493 -1.396484,0 -2.234375,0.83789 -0.83789,0.83789 -0.848632,2.32032 l -1.987305,-0.20411 q 0.204102,-2.22363 1.536133,-3.38378 1.332031,-1.1709 3.577148,-1.1709 2.266602,0 3.587891,1.25683 1.321289,1.25684 1.321289,3.11524 0,0.94531 -0.386719,1.8584 -0.386719,0.91308 -1.289062,1.92285 -0.891602,1.00976 -2.975586,2.77148 -1.740235,1.46094 -2.234375,1.98731 -0.494141,0.51562 -0.816407,1.04199 z m 16.166992,-2.32031 1.901368,0.24707 q -0.311524,1.96582 -1.600586,3.083 -1.278321,1.10645 -3.147461,1.10645 -2.341797,0 -3.770508,-1.52539 -1.417969,-1.53613 -1.417969,-4.39356 0,-1.84765 0.612305,-3.23339 0.612305,-1.38575 1.858398,-2.07325 1.256836,-0.69824 2.728516,-0.69824 1.858398,0 3.040039,0.94531 1.181641,0.93457 1.514648,2.66407 l -1.879882,0.29004 q -0.268555,-1.14942 -0.956055,-1.7295 -0.676758,-0.58007 -1.643555,-0.58007 -1.460937,0 -2.374023,1.05273 -0.913086,1.04199 -0.913086,3.30859 0,2.29883 0.880859,3.34082 0.88086,1.042 2.298828,1.042 1.138672,0 1.901368,-0.69825 0.762695,-0.69824 0.966796,-2.14843 z m 3.555665,4.17871 v -15.74805 h 1.933593 v 5.65039 q 1.353516,-1.56836 3.416016,-1.56836 1.267578,0 2.202148,0.50488 0.934571,0.49415 1.332032,1.375 0.408203,0.88086 0.408203,2.55665 v 7.22949 h -1.933594 v -7.22949 q 0,-1.4502 -0.633789,-2.10547 -0.623047,-0.66602 -1.772461,-0.66602 -0.859375,0 -1.62207,0.45117 -0.751953,0.44043 -1.074219,1.20313 -0.322266,0.76269 -0.322266,2.10547 v 6.24121 z M 0.125,448.40937 q -1.07421875,0.91309 -2.0732422,1.28906 -0.9882812,0.37598 -2.1269531,0.37598 -1.8798828,0 -2.8896484,-0.91309 -1.0097657,-0.92382 -1.0097657,-2.35254 0,-0.83789 0.3759766,-1.52539 0.3867187,-0.69824 0.9990234,-1.11718 0.6230469,-0.41895 1.3964844,-0.63379 0.5693359,-0.15039 1.71875,-0.29004 2.3417969,-0.2793 3.44824219,-0.66602 0.01074218,-0.39746 0.01074218,-0.50488 0,-1.18164 -0.54785156,-1.66504 -0.74121091,-0.65527 -2.20214841,-0.65527 -1.3642578,0 -2.0195313,0.4834 -0.6445312,0.47265 -0.9560547,1.68652 l -1.890625,-0.25781 q 0.2578125,-1.21387 0.8486329,-1.95508 0.5908203,-0.75195 1.7080078,-1.14942 1.1171875,-0.4082 2.5888671,-0.4082 1.4609376,0 2.37402349,0.34375 0.91308593,0.34375 1.34277341,0.87012 0.4296875,0.51562 0.6015625,1.31055 0.09668,0.49414 0.09668,1.7832 v 2.57812 q 0,2.69629 0.1181641,3.41602 0.1289062,0.70898 0.4941406,1.36426 H 0.51171875 Q 0.2109375,449.21503 0.125,448.40937 Z m -0.16113281,-4.31836 q -1.05273439,0.42969 -3.15820309,0.73047 -1.1923828,0.17188 -1.6865235,0.38672 -0.4941406,0.21484 -0.7626953,0.63379 -0.2685547,0.4082 -0.2685547,0.91308 0,0.77344 0.5800782,1.28907 0.5908203,0.51562 1.7187499,0.51562 1.1171875,0 1.9873047,-0.4834 0.87011723,-0.49414 1.27832035,-1.34277 0.31152344,-0.65527 0.31152344,-1.93359 z m 4.96289061,-7.79883 v -2.22363 h 1.9335938 v 2.22363 z m 0,13.52442 v -11.40821 h 1.9335938 v 11.40821 z m 4.8769531,0 v -11.40821 h 1.7402341 v 1.62207 q 1.256836,-1.87988 3.63086,-1.87988 1.03125,0 1.890625,0.37598 0.870117,0.36523 1.299804,0.9668 0.429688,0.60156 0.601563,1.42871 0.107422,0.53711 0.107422,1.87988 v 7.01465 h -1.933594 v -6.93946 q 0,-1.18164 -0.225586,-1.76171 -0.225586,-0.59082 -0.805664,-0.93457 -0.569336,-0.3545 -1.342773,-0.3545 -1.235352,0 -2.137696,0.78418 -0.891601,0.78418 -0.891601,2.97559 v 6.23047 z m 25.7919921,-4.17871 1.901367,0.24707 q -0.311523,1.96582 -1.600586,3.083 -1.27832,1.10645 -3.147461,1.10645 -2.341796,0 -3.770507,-1.52539 -1.417969,-1.53613 -1.417969,-4.39356 0,-1.84765 0.612305,-3.23339 0.612304,-1.38575 1.858398,-2.07325 1.256836,-0.69824 2.728516,-0.69824 1.858398,0 3.040039,0.94531 1.18164,0.93457 1.514648,2.66407 L 35.43457,442.05 q -0.268554,-1.14942 -0.956054,-1.7295 -0.676758,-0.58007 -1.643555,-0.58007 -1.460938,0 -2.374024,1.05273 -0.913085,1.04199 -0.913085,3.30859 0,2.29883 0.880859,3.34082 0.880859,1.042 2.298828,1.042 1.138672,0 1.901367,-0.69825 0.762696,-0.69824 0.966797,-2.14843 z m 2.835938,-1.52539 q 0,-3.16895 1.761718,-4.69434 1.47168,-1.26758 3.587891,-1.26758 2.352539,0 3.845703,1.54688 1.493164,1.53613 1.493164,4.2539 0,2.20215 -0.666015,3.46973 -0.655274,1.25684 -1.922852,1.95508 -1.256836,0.69824 -2.75,0.69824 -2.395508,0 -3.87793,-1.53613 -1.471679,-1.53614 -1.471679,-4.42578 z m 1.987304,0 q 0,2.1914 0.956055,3.28711 0.956055,1.08496 2.40625,1.08496 1.439453,0 2.395508,-1.09571 0.956054,-1.0957 0.956054,-3.34082 0,-2.11621 -0.966796,-3.20117 -0.956055,-1.0957 -2.384766,-1.0957 -1.450195,0 -2.40625,1.08496 -0.956055,1.08496 -0.956055,3.27637 z m 10.946289,5.7041 v -11.40821 h 1.740235 v 1.7295 q 0.666015,-1.21387 1.224609,-1.60059 0.569336,-0.38672 1.246094,-0.38672 0.977539,0 1.987305,0.62305 l -0.666016,1.79394 q -0.708984,-0.41894 -1.417969,-0.41894 -0.633789,0 -1.138672,0.38672 -0.504883,0.37597 -0.719726,1.05273 -0.322266,1.03125 -0.322266,2.25586 v 5.97266 z m 7.326172,0 v -11.40821 h 1.740235 v 1.7295 q 0.666015,-1.21387 1.224609,-1.60059 0.569336,-0.38672 1.246094,-0.38672 0.977539,0 1.987304,0.62305 l -0.666015,1.79394 q -0.708985,-0.41894 -1.417969,-0.41894 -0.633789,0 -1.138672,0.38672 -0.504883,0.37597 -0.719726,1.05273 -0.322266,1.03125 -0.322266,2.25586 v 5.97266 z m 15.157227,-3.67383 1.998047,0.24707 q -0.472657,1.75098 -1.750977,2.71777 -1.27832,0.9668 -3.265625,0.9668 -2.50293,0 -3.974609,-1.53613 -1.460938,-1.54688 -1.460938,-4.3291 0,-2.87891 1.482422,-4.46875 1.482422,-1.58985 3.845703,-1.58985 2.288086,0 3.738281,1.55762 1.450196,1.55762 1.450196,4.38281 0,0.17188 -0.01074,0.51563 h -8.507813 q 0.107422,1.87988 1.063477,2.8789 0.956054,0.99903 2.384765,0.99903 1.063477,0 1.81543,-0.5586 0.751953,-0.55859 1.192383,-1.7832 z M 67.5,443.01679 h 6.370117 q -0.128906,-1.43945 -0.730469,-2.15918 -0.923828,-1.11718 -2.395507,-1.11718 -1.332032,0 -2.245118,0.8916 -0.902343,0.8916 -0.999023,2.38476 z m 18.21875,2.6211 1.901367,0.24707 q -0.311523,1.96582 -1.600586,3.083 -1.27832,1.10645 -3.147461,1.10645 -2.341797,0 -3.770508,-1.52539 -1.417968,-1.53613 -1.417968,-4.39356 0,-1.84765 0.612304,-3.23339 0.612305,-1.38575 1.858399,-2.07325 1.256836,-0.69824 2.728515,-0.69824 1.858399,0 3.04004,0.94531 1.18164,0.93457 1.514648,2.66407 L 85.557617,442.05 q -0.268555,-1.14942 -0.956055,-1.7295 -0.676757,-0.58007 -1.643554,-0.58007 -1.460938,0 -2.374024,1.05273 -0.913086,1.04199 -0.913086,3.30859 0,2.29883 0.88086,3.34082 0.880859,1.042 2.298828,1.042 1.138672,0 1.901367,-0.69825 0.762695,-0.69824 0.966797,-2.14843 z m 7.777344,2.44922 0.279297,1.708 q -0.816407,0.17188 -1.460938,0.17188 -1.052734,0 -1.632812,-0.33301 -0.580079,-0.33301 -0.816407,-0.87012 -0.236328,-0.54785 -0.236328,-2.28808 v -6.56348 h -1.417969 v -1.50391 h 1.417969 v -2.82519 l 1.922852,-1.16016 v 3.98535 h 1.944336 v 1.50391 h -1.944336 v 6.6709 q 0,0.82715 0.09668,1.06348 0.107422,0.23632 0.333008,0.37597 0.236328,0.13965 0.666016,0.13965 0.322266,0 0.848633,-0.0752 z m 1.901367,-11.79493 v -2.22363 h 1.933594 v 2.22363 z m 0,13.52442 v -11.40821 h 1.933594 v 11.40821 z m 4.157226,-5.7041 q 0,-3.16895 1.761723,-4.69434 1.47168,-1.26758 3.58789,-1.26758 2.35254,0 3.8457,1.54688 1.49316,1.53613 1.49316,4.2539 0,2.20215 -0.66601,3.46973 -0.65527,1.25684 -1.92285,1.95508 -1.25684,0.69824 -2.75,0.69824 -2.39551,0 -3.87793,-1.53613 -1.471683,-1.53614 -1.471683,-4.42578 z m 1.987303,0 q 0,2.1914 0.95606,3.28711 0.95605,1.08496 2.40625,1.08496 1.43945,0 2.3955,-1.09571 0.95606,-1.0957 0.95606,-3.34082 0,-2.11621 -0.9668,-3.20117 -0.95605,-1.0957 -2.38476,-1.0957 -1.4502,0 -2.40625,1.08496 -0.95606,1.08496 -0.95606,3.27637 z m 10.96778,5.7041 V 438.40839 H 114.25 v 1.62207 q 1.25684,-1.87988 3.63086,-1.87988 1.03125,0 1.89062,0.37598 0.87012,0.36523 1.29981,0.9668 0.42969,0.60156 0.60156,1.42871 0.10742,0.53711 0.10742,1.87988 v 7.01465 h -1.93359 v -6.93946 q 0,-1.18164 -0.22559,-1.76171 -0.22558,-0.59082 -0.80566,-0.93457 -0.56934,-0.3545 -1.34277,-0.3545 -1.23536,0 -2.1377,0.78418 -0.8916,0.78418 -0.8916,2.97559 v 6.23047 z m 11.46191,-3.40528 1.91211,-0.30078 q 0.16113,1.14942 0.8916,1.76172 0.74121,0.61231 2.0625,0.61231 1.33203,0 1.97656,-0.53711 0.64453,-0.54785 0.64453,-1.27832 0,-0.65528 -0.56933,-1.03125 -0.39746,-0.25782 -1.97656,-0.65528 -2.12696,-0.53711 -2.95411,-0.92383 -0.8164,-0.39746 -1.24609,-1.08496 -0.41894,-0.69824 -0.41894,-1.53613 0,-0.76269 0.34375,-1.40723 0.35449,-0.65527 0.95605,-1.08496 0.45117,-0.333 1.22461,-0.55859 0.78418,-0.23633 1.67578,-0.23633 1.34277,0 2.35254,0.38672 1.02051,0.38672 1.50391,1.05273 0.48339,0.65528 0.66601,1.76172 l -1.89062,0.25782 q -0.12891,-0.88086 -0.75196,-1.375 -0.6123,-0.49414 -1.74023,-0.49414 -1.33203,0 -1.90137,0.44043 -0.56933,0.44042 -0.56933,1.03125 0,0.37597 0.23632,0.67675 0.23633,0.31153 0.74122,0.51563 0.29003,0.10742 1.708,0.49414 2.05176,0.54785 2.85742,0.90234 0.81641,0.34375 1.27832,1.00977 0.46192,0.66601 0.46192,1.65429 0,0.9668 -0.56934,1.82618 -0.55859,0.84863 -1.62207,1.32129 -1.06347,0.46191 -2.40625,0.46191 -2.22363,0 -3.39453,-0.92383 -1.16015,-0.92383 -1.48242,-2.73926 z m 12.32129,3.40528 v -2.20215 h 2.20215 v 2.20215 z"
       id="flowRoot3418"
       transform="translate(580,40.00044)"
       aria-label="Changing 1 planning variable may inflict up to 2 chain corrections." />
    <g
       transform="translate(555,-414.01182)"
       id="g3432">
      <rect
         style="fill:#fce94f;fill-opacity:1;stroke:#000000;stroke-width:1;stroke-linecap:round;stroke-linejoin:round;stroke-miterlimit:4;stroke-dasharray:none"
         id="rect3434"
         width="79"
         height="29"
         x="5.5000005"
         y="594.51184"
         rx="4.999999"
         ry="5" />
      <path
         style="font-size:22px;line-height:1.25;font-family:'Liberation Sans';-inkscape-font-specification:'Liberation Sans, Normal';text-align:center;text-anchor:middle"
         d="m 75.260742,138.40937 q -1.074219,0.91309 -2.073242,1.28906 -0.988281,0.37598 -2.126953,0.37598 -1.879883,0 -2.889649,-0.91309 -1.009765,-0.92382 -1.009765,-2.35254 0,-0.83789 0.375976,-1.52539 0.386719,-0.69824 0.999024,-1.11718 0.623047,-0.41895 1.396484,-0.63379 0.569336,-0.15039 1.71875,-0.29004 2.341797,-0.2793 3.448242,-0.66602 0.01074,-0.39746 0.01074,-0.50488 0,-1.18164 -0.547852,-1.66504 -0.741211,-0.65527 -2.202148,-0.65527 -1.364258,0 -2.019532,0.4834 -0.644531,0.47265 -0.956054,1.68652 l -1.890625,-0.25781 q 0.257812,-1.21387 0.848632,-1.95508 0.590821,-0.75195 1.708008,-1.14942 1.117188,-0.4082 2.588867,-0.4082 1.460938,0 2.374024,0.34375 0.913086,0.34375 1.342773,0.87012 0.429688,0.51562 0.601563,1.31055 0.09668,0.49414 0.09668,1.7832 v 2.57812 q 0,2.69629 0.118165,3.41602 0.128906,0.70898 0.49414,1.36426 h -2.019531 q -0.300781,-0.60157 -0.386719,-1.40723 z m -0.161133,-4.31836 q -1.052734,0.42969 -3.158203,0.73047 -1.192383,0.17188 -1.686523,0.38672 -0.494141,0.21484 -0.762696,0.63379 -0.268554,0.4082 -0.268554,0.91308 0,0.77344 0.580078,1.28907 0.59082,0.51562 1.71875,0.51562 1.117187,0 1.987305,-0.4834 0.870117,-0.49414 1.27832,-1.34277 0.311523,-0.65527 0.311523,-1.93359 z m 4.952149,5.72559 v -11.40821 h 1.740234 v 1.62207 q 1.256836,-1.87988 3.63086,-1.87988 1.03125,0 1.890625,0.37598 0.870117,0.36523 1.299804,0.9668 0.429688,0.60156 0.601563,1.42871 0.107422,0.53711 0.107422,1.87988 v 7.01465 h -1.933594 v -6.93946 q 0,-1.18164 -0.225586,-1.76171 -0.225586,-0.59082 -0.805664,-0.93457 -0.569336,-0.3545 -1.342774,-0.3545 -1.235351,0 -2.137695,0.78418 -0.891601,0.78418 -0.891601,2.97559 v 6.23047 z m 19.679687,-4.17871 1.901365,0.24707 q -0.31152,1.96582 -1.60058,3.083 -1.278324,1.10645 -3.147464,1.10645 -2.341797,0 -3.770508,-1.52539 -1.417969,-1.53613 -1.417969,-4.39356 0,-1.84765 0.612305,-3.23339 0.612304,-1.38575 1.858398,-2.07325 1.256836,-0.69824 2.728516,-0.69824 1.858398,0 3.040039,0.94531 1.181643,0.93457 1.514653,2.66407 L 99.570312,132.05 q -0.268554,-1.14942 -0.956054,-1.7295 -0.676758,-0.58007 -1.643555,-0.58007 -1.460937,0 -2.374023,1.05273 -0.913086,1.04199 -0.913086,3.30859 0,2.29883 0.880859,3.34082 0.880859,1.042 2.298828,1.042 1.138672,0 1.901367,-0.69825 0.762696,-0.69824 0.966797,-2.14843 z m 3.555665,4.17871 v -15.74805 h 1.93359 v 5.65039 q 1.35352,-1.56836 3.41602,-1.56836 1.26758,0 2.20215,0.50488 0.93457,0.49415 1.33203,1.375 0.4082,0.88086 0.4082,2.55665 v 7.22949 h -1.93359 v -7.22949 q 0,-1.4502 -0.63379,-2.10547 -0.62305,-0.66602 -1.77246,-0.66602 -0.85938,0 -1.62207,0.45117 -0.75196,0.44043 -1.07422,1.20313 -0.32227,0.76269 -0.32227,2.10547 v 6.24121 z m 11.51562,-5.7041 q 0,-3.16895 1.76172,-4.69434 1.47168,-1.26758 3.58789,-1.26758 2.35254,0 3.84571,1.54688 1.49316,1.53613 1.49316,4.2539 0,2.20215 -0.66601,3.46973 -0.65528,1.25684 -1.92286,1.95508 -1.25683,0.69824 -2.75,0.69824 -2.3955,0 -3.87793,-1.53613 -1.47168,-1.53614 -1.47168,-4.42578 z m 1.98731,0 q 0,2.1914 0.95605,3.28711 0.95606,1.08496 2.40625,1.08496 1.43946,0 2.39551,-1.09571 0.95606,-1.0957 0.95606,-3.34082 0,-2.11621 -0.9668,-3.20117 -0.95606,-1.0957 -2.38477,-1.0957 -1.45019,0 -2.40625,1.08496 -0.95605,1.08496 -0.95605,3.27637 z m 10.94629,5.7041 v -11.40821 h 1.74023 v 1.7295 q 0.66602,-1.21387 1.22461,-1.60059 0.56934,-0.38672 1.2461,-0.38672 0.97753,0 1.9873,0.62305 l -0.66602,1.79394 q -0.70898,-0.41894 -1.41796,-0.41894 -0.63379,0 -1.13868,0.38672 -0.50488,0.37597 -0.71972,1.05273 -0.32227,1.03125 -0.32227,2.25586 v 5.97266 z"
         id="flowRoot3436"
         transform="translate(-55,474.01184)"
         aria-label="anchor" />
    </g>
    <rect
       style="fill:#d3d7cf;fill-opacity:1;stroke:#000000;stroke-width:1;stroke-linecap:round;stroke-linejoin:round;stroke-miterlimit:4;stroke-dasharray:none"
       id="rect3444"
       width="79"
       height="29"
       x="560.5"
       y="240.5"
       rx="4.999999"
       ry="5" />
    <path
       style="font-size:22px;line-height:1.25;font-family:'Liberation Sans';-inkscape-font-specification:'Liberation Sans, Normal';text-align:center;text-anchor:middle"
       d="m 82.968262,136.14277 1.998047,0.24707 q -0.472657,1.75098 -1.750977,2.71777 -1.27832,0.9668 -3.265625,0.9668 -2.50293,0 -3.974609,-1.53613 -1.460938,-1.54688 -1.460938,-4.3291 0,-2.87891 1.482422,-4.46875 1.482422,-1.58985 3.845703,-1.58985 2.288086,0 3.738281,1.55762 1.450196,1.55762 1.450196,4.38281 0,0.17188 -0.01074,0.51563 h -8.507813 q 0.107422,1.87988 1.063477,2.8789 0.956054,0.99903 2.384765,0.99903 1.063477,0 1.81543,-0.5586 0.751953,-0.55859 1.192383,-1.7832 z m -6.348633,-3.12598 h 6.370117 q -0.128906,-1.43945 -0.730469,-2.15918 -0.923828,-1.11718 -2.395507,-1.11718 -1.332032,0 -2.245118,0.8916 -0.902343,0.8916 -0.999023,2.38476 z m 10.774414,6.79981 v -11.40821 h 1.740234 v 1.62207 q 1.256836,-1.87988 3.63086,-1.87988 1.03125,0 1.890625,0.37598 0.870117,0.36523 1.299804,0.9668 0.429688,0.60156 0.601563,1.42871 0.107422,0.53711 0.107422,1.87988 v 7.01465 h -1.933594 v -6.93946 q 0,-1.18164 -0.225586,-1.76171 -0.225586,-0.59082 -0.805664,-0.93457 -0.569336,-0.3545 -1.342773,-0.3545 -1.235352,0 -2.137696,0.78418 -0.891601,0.78418 -0.891601,2.97559 v 6.23047 z m 16.457027,-1.72949 0.2793,1.708 q -0.81641,0.17188 -1.46094,0.17188 -1.05273,0 -1.63281,-0.33301 -0.58008,-0.33301 -0.81641,-0.87012 -0.236323,-0.54785 -0.236323,-2.28808 v -6.56348 h -1.417969 v -1.50391 h 1.417969 v -2.82519 l 1.922853,-1.16016 v 3.98535 h 1.94433 v 1.50391 h -1.94433 v 6.6709 q 0,0.82715 0.0967,1.06348 0.10742,0.23632 0.33301,0.37597 0.23632,0.13965 0.66601,0.13965 0.32227,0 0.84863,-0.0752 z m 1.90137,-11.79493 v -2.22363 h 1.9336 v 2.22363 z m 0,13.52442 v -11.40821 h 1.9336 v 11.40821 z m 9.09863,-1.72949 0.2793,1.708 q -0.81641,0.17188 -1.46094,0.17188 -1.05273,0 -1.63281,-0.33301 -0.58008,-0.33301 -0.81641,-0.87012 -0.23632,-0.54785 -0.23632,-2.28808 v -6.56348 h -1.41797 v -1.50391 h 1.41797 v -2.82519 l 1.92285,-1.16016 v 3.98535 h 1.94433 v 1.50391 h -1.94433 v 6.6709 q 0,0.82715 0.0967,1.06348 0.10742,0.23632 0.33301,0.37597 0.23632,0.13965 0.66601,0.13965 0.32227,0 0.84863,-0.0752 z m 1.80469,6.12304 -0.21484,-1.81543 q 0.63379,0.17188 1.10644,0.17188 0.64453,0 1.03125,-0.21485 0.38672,-0.21484 0.63379,-0.60156 0.18262,-0.29004 0.59082,-1.43945 0.0537,-0.16113 0.17188,-0.47266 l -4.3291,-11.42969 h 2.08398 l 2.37402,6.60645 q 0.46192,1.25684 0.82715,2.64258 0.33301,-1.33203 0.79492,-2.59961 l 2.43848,-6.64942 h 1.93359 l -4.33984,11.60157 q -0.69824,1.87988 -1.08496,2.58886 -0.51563,0.95606 -1.18164,1.39649 -0.66602,0.45117 -1.58984,0.45117 -0.5586,0 -1.2461,-0.23633 z"
       id="flowRoot3446"
       transform="translate(500,120.00003)"
       aria-label="entity" />
    <g
       id="g3454"
       transform="translate(555,-474.01181)">
      <path
         transform="translate(-45,484.01184)"
         id="path3456"
         d="m 90,230 0,-30"
         style="color:#000000;fill:none;stroke:#000000;stroke-width:1px;stroke-linecap:round;stroke-linejoin:round;stroke-miterlimit:4;stroke-opacity:1;stroke-dasharray:none;stroke-dashoffset:0;marker:none;visibility:visible;display:inline;overflow:visible;enable-background:accumulate" />
      <path
         transform="translate(-45,484.01184)"
         id="path3458"
         d="m 80,210 10,-10 10,10"
         style="color:#000000;fill:none;stroke:#000000;stroke-width:1px;stroke-linecap:round;stroke-linejoin:round;stroke-miterlimit:4;stroke-opacity:1;stroke-dasharray:none;stroke-dashoffset:0;marker:none;visibility:visible;display:inline;overflow:visible;enable-background:accumulate" />
    </g>
    <rect
       ry="5"
       rx="4.999999"
       y="300.5"
       x="610.5"
       height="29"
       width="79"
       id="rect3460"
       style="fill:#fcaf3e;fill-opacity:1;stroke:#000000;stroke-width:1;stroke-linecap:round;stroke-linejoin:round;stroke-miterlimit:4;stroke-dasharray:none" />
    <path
       style="font-size:22px;line-height:1.25;font-family:'Liberation Sans';-inkscape-font-specification:'Liberation Sans, Normal';text-align:center;text-anchor:middle"
       d="m 82.968262,136.14277 1.998047,0.24707 q -0.472657,1.75098 -1.750977,2.71777 -1.27832,0.9668 -3.265625,0.9668 -2.50293,0 -3.974609,-1.53613 -1.460938,-1.54688 -1.460938,-4.3291 0,-2.87891 1.482422,-4.46875 1.482422,-1.58985 3.845703,-1.58985 2.288086,0 3.738281,1.55762 1.450196,1.55762 1.450196,4.38281 0,0.17188 -0.01074,0.51563 h -8.507813 q 0.107422,1.87988 1.063477,2.8789 0.956054,0.99903 2.384765,0.99903 1.063477,0 1.81543,-0.5586 0.751953,-0.55859 1.192383,-1.7832 z m -6.348633,-3.12598 h 6.370117 q -0.128906,-1.43945 -0.730469,-2.15918 -0.923828,-1.11718 -2.395507,-1.11718 -1.332032,0 -2.245118,0.8916 -0.902343,0.8916 -0.999023,2.38476 z m 10.774414,6.79981 v -11.40821 h 1.740234 v 1.62207 q 1.256836,-1.87988 3.63086,-1.87988 1.03125,0 1.890625,0.37598 0.870117,0.36523 1.299804,0.9668 0.429688,0.60156 0.601563,1.42871 0.107422,0.53711 0.107422,1.87988 v 7.01465 h -1.933594 v -6.93946 q 0,-1.18164 -0.225586,-1.76171 -0.225586,-0.59082 -0.805664,-0.93457 -0.569336,-0.3545 -1.342773,-0.3545 -1.235352,0 -2.137696,0.78418 -0.891601,0.78418 -0.891601,2.97559 v 6.23047 z m 16.457027,-1.72949 0.2793,1.708 q -0.81641,0.17188 -1.46094,0.17188 -1.05273,0 -1.63281,-0.33301 -0.58008,-0.33301 -0.81641,-0.87012 -0.236323,-0.54785 -0.236323,-2.28808 v -6.56348 h -1.417969 v -1.50391 h 1.417969 v -2.82519 l 1.922853,-1.16016 v 3.98535 h 1.94433 v 1.50391 h -1.94433 v 6.6709 q 0,0.82715 0.0967,1.06348 0.10742,0.23632 0.33301,0.37597 0.23632,0.13965 0.66601,0.13965 0.32227,0 0.84863,-0.0752 z m 1.90137,-11.79493 v -2.22363 h 1.9336 v 2.22363 z m 0,13.52442 v -11.40821 h 1.9336 v 11.40821 z m 9.09863,-1.72949 0.2793,1.708 q -0.81641,0.17188 -1.46094,0.17188 -1.05273,0 -1.63281,-0.33301 -0.58008,-0.33301 -0.81641,-0.87012 -0.23632,-0.54785 -0.23632,-2.28808 v -6.56348 h -1.41797 v -1.50391 h 1.41797 v -2.82519 l 1.92285,-1.16016 v 3.98535 h 1.94433 v 1.50391 h -1.94433 v 6.6709 q 0,0.82715 0.0967,1.06348 0.10742,0.23632 0.33301,0.37597 0.23632,0.13965 0.66601,0.13965 0.32227,0 0.84863,-0.0752 z m 1.80469,6.12304 -0.21484,-1.81543 q 0.63379,0.17188 1.10644,0.17188 0.64453,0 1.03125,-0.21485 0.38672,-0.21484 0.63379,-0.60156 0.18262,-0.29004 0.59082,-1.43945 0.0537,-0.16113 0.17188,-0.47266 l -4.3291,-11.42969 h 2.08398 l 2.37402,6.60645 q 0.46192,1.25684 0.82715,2.64258 0.33301,-1.33203 0.79492,-2.59961 l 2.43848,-6.64942 h 1.93359 l -4.33984,11.60157 q -0.69824,1.87988 -1.08496,2.58886 -0.51563,0.95606 -1.18164,1.39649 -0.66602,0.45117 -1.58984,0.45117 -0.5586,0 -1.2461,-0.23633 z"
       id="flowRoot3462"
       transform="translate(550,180.00003)"
       aria-label="entity" />
    <g
       transform="translate(655,-414.01181)"
       id="g3470">
      <rect
         style="fill:#8ae234;fill-opacity:1;stroke:#000000;stroke-width:1;stroke-linecap:round;stroke-linejoin:round;stroke-miterlimit:4;stroke-dasharray:none"
         id="rect3472"
         width="79"
         height="29"
         x="5.5000005"
         y="594.51184"
         rx="4.999999"
         ry="5" />
      <path
         style="font-size:22px;line-height:1.25;font-family:'Liberation Sans';-inkscape-font-specification:'Liberation Sans, Normal';text-align:center;text-anchor:middle"
         d="m 75.260742,138.40937 q -1.074219,0.91309 -2.073242,1.28906 -0.988281,0.37598 -2.126953,0.37598 -1.879883,0 -2.889649,-0.91309 -1.009765,-0.92382 -1.009765,-2.35254 0,-0.83789 0.375976,-1.52539 0.386719,-0.69824 0.999024,-1.11718 0.623047,-0.41895 1.396484,-0.63379 0.569336,-0.15039 1.71875,-0.29004 2.341797,-0.2793 3.448242,-0.66602 0.01074,-0.39746 0.01074,-0.50488 0,-1.18164 -0.547852,-1.66504 -0.741211,-0.65527 -2.202148,-0.65527 -1.364258,0 -2.019532,0.4834 -0.644531,0.47265 -0.956054,1.68652 l -1.890625,-0.25781 q 0.257812,-1.21387 0.848632,-1.95508 0.590821,-0.75195 1.708008,-1.14942 1.117188,-0.4082 2.588867,-0.4082 1.460938,0 2.374024,0.34375 0.913086,0.34375 1.342773,0.87012 0.429688,0.51562 0.601563,1.31055 0.09668,0.49414 0.09668,1.7832 v 2.57812 q 0,2.69629 0.118165,3.41602 0.128906,0.70898 0.49414,1.36426 h -2.019531 q -0.300781,-0.60157 -0.386719,-1.40723 z m -0.161133,-4.31836 q -1.052734,0.42969 -3.158203,0.73047 -1.192383,0.17188 -1.686523,0.38672 -0.494141,0.21484 -0.762696,0.63379 -0.268554,0.4082 -0.268554,0.91308 0,0.77344 0.580078,1.28907 0.59082,0.51562 1.71875,0.51562 1.117187,0 1.987305,-0.4834 0.870117,-0.49414 1.27832,-1.34277 0.311523,-0.65527 0.311523,-1.93359 z m 4.952149,5.72559 v -11.40821 h 1.740234 v 1.62207 q 1.256836,-1.87988 3.63086,-1.87988 1.03125,0 1.890625,0.37598 0.870117,0.36523 1.299804,0.9668 0.429688,0.60156 0.601563,1.42871 0.107422,0.53711 0.107422,1.87988 v 7.01465 h -1.933594 v -6.93946 q 0,-1.18164 -0.225586,-1.76171 -0.225586,-0.59082 -0.805664,-0.93457 -0.569336,-0.3545 -1.342774,-0.3545 -1.235351,0 -2.137695,0.78418 -0.891601,0.78418 -0.891601,2.97559 v 6.23047 z m 19.679687,-4.17871 1.901365,0.24707 q -0.31152,1.96582 -1.60058,3.083 -1.278324,1.10645 -3.147464,1.10645 -2.341797,0 -3.770508,-1.52539 -1.417969,-1.53613 -1.417969,-4.39356 0,-1.84765 0.612305,-3.23339 0.612304,-1.38575 1.858398,-2.07325 1.256836,-0.69824 2.728516,-0.69824 1.858398,0 3.040039,0.94531 1.181643,0.93457 1.514653,2.66407 L 99.570312,132.05 q -0.268554,-1.14942 -0.956054,-1.7295 -0.676758,-0.58007 -1.643555,-0.58007 -1.460937,0 -2.374023,1.05273 -0.913086,1.04199 -0.913086,3.30859 0,2.29883 0.880859,3.34082 0.880859,1.042 2.298828,1.042 1.138672,0 1.901367,-0.69825 0.762696,-0.69824 0.966797,-2.14843 z m 3.555665,4.17871 v -15.74805 h 1.93359 v 5.65039 q 1.35352,-1.56836 3.41602,-1.56836 1.26758,0 2.20215,0.50488 0.93457,0.49415 1.33203,1.375 0.4082,0.88086 0.4082,2.55665 v 7.22949 h -1.93359 v -7.22949 q 0,-1.4502 -0.63379,-2.10547 -0.62305,-0.66602 -1.77246,-0.66602 -0.85938,0 -1.62207,0.45117 -0.75196,0.44043 -1.07422,1.20313 -0.32227,0.76269 -0.32227,2.10547 v 6.24121 z m 11.51562,-5.7041 q 0,-3.16895 1.76172,-4.69434 1.47168,-1.26758 3.58789,-1.26758 2.35254,0 3.84571,1.54688 1.49316,1.53613 1.49316,4.2539 0,2.20215 -0.66601,3.46973 -0.65528,1.25684 -1.92286,1.95508 -1.25683,0.69824 -2.75,0.69824 -2.3955,0 -3.87793,-1.53613 -1.47168,-1.53614 -1.47168,-4.42578 z m 1.98731,0 q 0,2.1914 0.95605,3.28711 0.95606,1.08496 2.40625,1.08496 1.43946,0 2.39551,-1.09571 0.95606,-1.0957 0.95606,-3.34082 0,-2.11621 -0.9668,-3.20117 -0.95606,-1.0957 -2.38477,-1.0957 -1.45019,0 -2.40625,1.08496 -0.95605,1.08496 -0.95605,3.27637 z m 10.94629,5.7041 v -11.40821 h 1.74023 v 1.7295 q 0.66602,-1.21387 1.22461,-1.60059 0.56934,-0.38672 1.2461,-0.38672 0.97753,0 1.9873,0.62305 l -0.66602,1.79394 q -0.70898,-0.41894 -1.41796,-0.41894 -0.63379,0 -1.13868,0.38672 -0.50488,0.37597 -0.71972,1.05273 -0.32227,1.03125 -0.32227,2.25586 v 5.97266 z"
         id="flowRoot3474"
         transform="translate(-55,474.01184)"
         aria-label="anchor" />
    </g>
    <rect
       ry="5"
       rx="4.999999"
       y="240.5"
       x="660.5"
       height="29"
       width="79"
       id="rect3482"
       style="fill:#e9b96e;fill-opacity:1;stroke:#000000;stroke-width:1;stroke-linecap:round;stroke-linejoin:round;stroke-miterlimit:4;stroke-dasharray:none" />
    <path
       style="font-size:22px;line-height:1.25;font-family:'Liberation Sans';-inkscape-font-specification:'Liberation Sans, Normal';text-align:center;text-anchor:middle"
       d="m 82.968262,136.14277 1.998047,0.24707 q -0.472657,1.75098 -1.750977,2.71777 -1.27832,0.9668 -3.265625,0.9668 -2.50293,0 -3.974609,-1.53613 -1.460938,-1.54688 -1.460938,-4.3291 0,-2.87891 1.482422,-4.46875 1.482422,-1.58985 3.845703,-1.58985 2.288086,0 3.738281,1.55762 1.450196,1.55762 1.450196,4.38281 0,0.17188 -0.01074,0.51563 h -8.507813 q 0.107422,1.87988 1.063477,2.8789 0.956054,0.99903 2.384765,0.99903 1.063477,0 1.81543,-0.5586 0.751953,-0.55859 1.192383,-1.7832 z m -6.348633,-3.12598 h 6.370117 q -0.128906,-1.43945 -0.730469,-2.15918 -0.923828,-1.11718 -2.395507,-1.11718 -1.332032,0 -2.245118,0.8916 -0.902343,0.8916 -0.999023,2.38476 z m 10.774414,6.79981 v -11.40821 h 1.740234 v 1.62207 q 1.256836,-1.87988 3.63086,-1.87988 1.03125,0 1.890625,0.37598 0.870117,0.36523 1.299804,0.9668 0.429688,0.60156 0.601563,1.42871 0.107422,0.53711 0.107422,1.87988 v 7.01465 h -1.933594 v -6.93946 q 0,-1.18164 -0.225586,-1.76171 -0.225586,-0.59082 -0.805664,-0.93457 -0.569336,-0.3545 -1.342773,-0.3545 -1.235352,0 -2.137696,0.78418 -0.891601,0.78418 -0.891601,2.97559 v 6.23047 z m 16.457027,-1.72949 0.2793,1.708 q -0.81641,0.17188 -1.46094,0.17188 -1.05273,0 -1.63281,-0.33301 -0.58008,-0.33301 -0.81641,-0.87012 -0.236323,-0.54785 -0.236323,-2.28808 v -6.56348 h -1.417969 v -1.50391 h 1.417969 v -2.82519 l 1.922853,-1.16016 v 3.98535 h 1.94433 v 1.50391 h -1.94433 v 6.6709 q 0,0.82715 0.0967,1.06348 0.10742,0.23632 0.33301,0.37597 0.23632,0.13965 0.66601,0.13965 0.32227,0 0.84863,-0.0752 z m 1.90137,-11.79493 v -2.22363 h 1.9336 v 2.22363 z m 0,13.52442 v -11.40821 h 1.9336 v 11.40821 z m 9.09863,-1.72949 0.2793,1.708 q -0.81641,0.17188 -1.46094,0.17188 -1.05273,0 -1.63281,-0.33301 -0.58008,-0.33301 -0.81641,-0.87012 -0.23632,-0.54785 -0.23632,-2.28808 v -6.56348 h -1.41797 v -1.50391 h 1.41797 v -2.82519 l 1.92285,-1.16016 v 3.98535 h 1.94433 v 1.50391 h -1.94433 v 6.6709 q 0,0.82715 0.0967,1.06348 0.10742,0.23632 0.33301,0.37597 0.23632,0.13965 0.66601,0.13965 0.32227,0 0.84863,-0.0752 z m 1.80469,6.12304 -0.21484,-1.81543 q 0.63379,0.17188 1.10644,0.17188 0.64453,0 1.03125,-0.21485 0.38672,-0.21484 0.63379,-0.60156 0.18262,-0.29004 0.59082,-1.43945 0.0537,-0.16113 0.17188,-0.47266 l -4.3291,-11.42969 h 2.08398 l 2.37402,6.60645 q 0.46192,1.25684 0.82715,2.64258 0.33301,-1.33203 0.79492,-2.59961 l 2.43848,-6.64942 h 1.93359 l -4.33984,11.60157 q -0.69824,1.87988 -1.08496,2.58886 -0.51563,0.95606 -1.18164,1.39649 -0.66602,0.45117 -1.58984,0.45117 -0.5586,0 -1.2461,-0.23633 z"
       id="flowRoot3484"
       transform="translate(600,120.00006)"
       aria-label="entity" />
    <g
       transform="translate(655,-474.01178)"
       id="g3492">
      <path
         style="color:#000000;fill:none;stroke:#000000;stroke-width:1px;stroke-linecap:round;stroke-linejoin:round;stroke-miterlimit:4;stroke-opacity:1;stroke-dasharray:none;stroke-dashoffset:0;marker:none;visibility:visible;display:inline;overflow:visible;enable-background:accumulate"
         d="m 90,230 0,-30"
         id="path3494"
         transform="translate(-45,484.01184)" />
      <path
         style="color:#000000;fill:none;stroke:#000000;stroke-width:1px;stroke-linecap:round;stroke-linejoin:round;stroke-miterlimit:4;stroke-opacity:1;stroke-dasharray:none;stroke-dashoffset:0;marker:none;visibility:visible;display:inline;overflow:visible;enable-background:accumulate"
         d="m 80,210 10,-10 10,10"
         id="path3496"
         transform="translate(-45,484.01184)" />
    </g>
    <rect
       style="fill:#729fcf;fill-opacity:1;stroke:#000000;stroke-width:1;stroke-linecap:round;stroke-linejoin:round;stroke-miterlimit:4;stroke-dasharray:none"
       id="rect3498"
       width="79"
       height="29"
       x="660.5"
       y="360.5"
       rx="4.999999"
       ry="5" />
    <path
       style="font-size:22px;line-height:1.25;font-family:'Liberation Sans';-inkscape-font-specification:'Liberation Sans, Normal';text-align:center;text-anchor:middle"
       d="m 82.968262,136.14277 1.998047,0.24707 q -0.472657,1.75098 -1.750977,2.71777 -1.27832,0.9668 -3.265625,0.9668 -2.50293,0 -3.974609,-1.53613 -1.460938,-1.54688 -1.460938,-4.3291 0,-2.87891 1.482422,-4.46875 1.482422,-1.58985 3.845703,-1.58985 2.288086,0 3.738281,1.55762 1.450196,1.55762 1.450196,4.38281 0,0.17188 -0.01074,0.51563 h -8.507813 q 0.107422,1.87988 1.063477,2.8789 0.956054,0.99903 2.384765,0.99903 1.063477,0 1.81543,-0.5586 0.751953,-0.55859 1.192383,-1.7832 z m -6.348633,-3.12598 h 6.370117 q -0.128906,-1.43945 -0.730469,-2.15918 -0.923828,-1.11718 -2.395507,-1.11718 -1.332032,0 -2.245118,0.8916 -0.902343,0.8916 -0.999023,2.38476 z m 10.774414,6.79981 v -11.40821 h 1.740234 v 1.62207 q 1.256836,-1.87988 3.63086,-1.87988 1.03125,0 1.890625,0.37598 0.870117,0.36523 1.299804,0.9668 0.429688,0.60156 0.601563,1.42871 0.107422,0.53711 0.107422,1.87988 v 7.01465 h -1.933594 v -6.93946 q 0,-1.18164 -0.225586,-1.76171 -0.225586,-0.59082 -0.805664,-0.93457 -0.569336,-0.3545 -1.342773,-0.3545 -1.235352,0 -2.137696,0.78418 -0.891601,0.78418 -0.891601,2.97559 v 6.23047 z m 16.457027,-1.72949 0.2793,1.708 q -0.81641,0.17188 -1.46094,0.17188 -1.05273,0 -1.63281,-0.33301 -0.58008,-0.33301 -0.81641,-0.87012 -0.236323,-0.54785 -0.236323,-2.28808 v -6.56348 h -1.417969 v -1.50391 h 1.417969 v -2.82519 l 1.922853,-1.16016 v 3.98535 h 1.94433 v 1.50391 h -1.94433 v 6.6709 q 0,0.82715 0.0967,1.06348 0.10742,0.23632 0.33301,0.37597 0.23632,0.13965 0.66601,0.13965 0.32227,0 0.84863,-0.0752 z m 1.90137,-11.79493 v -2.22363 h 1.9336 v 2.22363 z m 0,13.52442 v -11.40821 h 1.9336 v 11.40821 z m 9.09863,-1.72949 0.2793,1.708 q -0.81641,0.17188 -1.46094,0.17188 -1.05273,0 -1.63281,-0.33301 -0.58008,-0.33301 -0.81641,-0.87012 -0.23632,-0.54785 -0.23632,-2.28808 v -6.56348 h -1.41797 v -1.50391 h 1.41797 v -2.82519 l 1.92285,-1.16016 v 3.98535 h 1.94433 v 1.50391 h -1.94433 v 6.6709 q 0,0.82715 0.0967,1.06348 0.10742,0.23632 0.33301,0.37597 0.23632,0.13965 0.66601,0.13965 0.32227,0 0.84863,-0.0752 z m 1.80469,6.12304 -0.21484,-1.81543 q 0.63379,0.17188 1.10644,0.17188 0.64453,0 1.03125,-0.21485 0.38672,-0.21484 0.63379,-0.60156 0.18262,-0.29004 0.59082,-1.43945 0.0537,-0.16113 0.17188,-0.47266 l -4.3291,-11.42969 h 2.08398 l 2.37402,6.60645 q 0.46192,1.25684 0.82715,2.64258 0.33301,-1.33203 0.79492,-2.59961 l 2.43848,-6.64942 h 1.93359 l -4.33984,11.60157 q -0.69824,1.87988 -1.08496,2.58886 -0.51563,0.95606 -1.18164,1.39649 -0.66602,0.45117 -1.58984,0.45117 -0.5586,0 -1.2461,-0.23633 z"
       id="flowRoot3500"
       transform="translate(600,240.00006)"
       aria-label="entity" />
    <g
       style="stroke:#ce5c00"
       id="g3508"
       transform="translate(555,-414.01179)">
      <path
         transform="translate(-45,484.01184)"
         id="path3510"
         d="M 90,289.99995 90,200"
         style="color:#000000;fill:none;stroke:#ce5c00;stroke-width:1px;stroke-linecap:round;stroke-linejoin:round;stroke-miterlimit:4;stroke-opacity:1;stroke-dasharray:none;stroke-dashoffset:0;marker:none;visibility:visible;display:inline;overflow:visible;enable-background:accumulate" />
      <path
         transform="translate(-45,484.01184)"
         id="path3512"
         d="m 80,210 10,-10 10,10"
         style="color:#000000;fill:none;stroke:#ce5c00;stroke-width:1px;stroke-linecap:round;stroke-linejoin:round;stroke-miterlimit:4;stroke-opacity:1;stroke-dasharray:none;stroke-dashoffset:0;marker:none;visibility:visible;display:inline;overflow:visible;enable-background:accumulate" />
    </g>
    <rect
       ry="5"
       rx="4.999999"
       y="360.5"
       x="560.5"
       height="29"
       width="79"
       id="rect3514"
       style="fill:#ad7fa8;fill-opacity:1;stroke:#000000;stroke-width:1;stroke-linecap:round;stroke-linejoin:round;stroke-miterlimit:4;stroke-dasharray:none" />
    <path
       style="font-size:22px;line-height:1.25;font-family:'Liberation Sans';-inkscape-font-specification:'Liberation Sans, Normal';text-align:center;text-anchor:middle"
       d="m 82.968262,136.14277 1.998047,0.24707 q -0.472657,1.75098 -1.750977,2.71777 -1.27832,0.9668 -3.265625,0.9668 -2.50293,0 -3.974609,-1.53613 -1.460938,-1.54688 -1.460938,-4.3291 0,-2.87891 1.482422,-4.46875 1.482422,-1.58985 3.845703,-1.58985 2.288086,0 3.738281,1.55762 1.450196,1.55762 1.450196,4.38281 0,0.17188 -0.01074,0.51563 h -8.507813 q 0.107422,1.87988 1.063477,2.8789 0.956054,0.99903 2.384765,0.99903 1.063477,0 1.81543,-0.5586 0.751953,-0.55859 1.192383,-1.7832 z m -6.348633,-3.12598 h 6.370117 q -0.128906,-1.43945 -0.730469,-2.15918 -0.923828,-1.11718 -2.395507,-1.11718 -1.332032,0 -2.245118,0.8916 -0.902343,0.8916 -0.999023,2.38476 z m 10.774414,6.79981 v -11.40821 h 1.740234 v 1.62207 q 1.256836,-1.87988 3.63086,-1.87988 1.03125,0 1.890625,0.37598 0.870117,0.36523 1.299804,0.9668 0.429688,0.60156 0.601563,1.42871 0.107422,0.53711 0.107422,1.87988 v 7.01465 h -1.933594 v -6.93946 q 0,-1.18164 -0.225586,-1.76171 -0.225586,-0.59082 -0.805664,-0.93457 -0.569336,-0.3545 -1.342773,-0.3545 -1.235352,0 -2.137696,0.78418 -0.891601,0.78418 -0.891601,2.97559 v 6.23047 z m 16.457027,-1.72949 0.2793,1.708 q -0.81641,0.17188 -1.46094,0.17188 -1.05273,0 -1.63281,-0.33301 -0.58008,-0.33301 -0.81641,-0.87012 -0.236323,-0.54785 -0.236323,-2.28808 v -6.56348 h -1.417969 v -1.50391 h 1.417969 v -2.82519 l 1.922853,-1.16016 v 3.98535 h 1.94433 v 1.50391 h -1.94433 v 6.6709 q 0,0.82715 0.0967,1.06348 0.10742,0.23632 0.33301,0.37597 0.23632,0.13965 0.66601,0.13965 0.32227,0 0.84863,-0.0752 z m 1.90137,-11.79493 v -2.22363 h 1.9336 v 2.22363 z m 0,13.52442 v -11.40821 h 1.9336 v 11.40821 z m 9.09863,-1.72949 0.2793,1.708 q -0.81641,0.17188 -1.46094,0.17188 -1.05273,0 -1.63281,-0.33301 -0.58008,-0.33301 -0.81641,-0.87012 -0.23632,-0.54785 -0.23632,-2.28808 v -6.56348 h -1.41797 v -1.50391 h 1.41797 v -2.82519 l 1.92285,-1.16016 v 3.98535 h 1.94433 v 1.50391 h -1.94433 v 6.6709 q 0,0.82715 0.0967,1.06348 0.10742,0.23632 0.33301,0.37597 0.23632,0.13965 0.66601,0.13965 0.32227,0 0.84863,-0.0752 z m 1.80469,6.12304 -0.21484,-1.81543 q 0.63379,0.17188 1.10644,0.17188 0.64453,0 1.03125,-0.21485 0.38672,-0.21484 0.63379,-0.60156 0.18262,-0.29004 0.59082,-1.43945 0.0537,-0.16113 0.17188,-0.47266 l -4.3291,-11.42969 h 2.08398 l 2.37402,6.60645 q 0.46192,1.25684 0.82715,2.64258 0.33301,-1.33203 0.79492,-2.59961 l 2.43848,-6.64942 h 1.93359 l -4.33984,11.60157 q -0.69824,1.87988 -1.08496,2.58886 -0.51563,0.95606 -1.18164,1.39649 -0.66602,0.45117 -1.58984,0.45117 -0.5586,0 -1.2461,-0.23633 z"
       id="flowRoot3516"
       transform="translate(500,240.00005)"
       aria-label="entity" />
    <g
       style="stroke:#4e9a06"
       id="g3524"
       transform="translate(190,-452.36218)">
      <path
         style="color:#000000;fill:none;stroke:#4e9a06;stroke-width:1px;stroke-linecap:round;stroke-linejoin:round;stroke-miterlimit:4;stroke-opacity:1;stroke-dasharray:none;stroke-dashoffset:0;marker:none;visibility:visible;display:inline;overflow:visible;enable-background:accumulate"
         d="m 510,722.36221 -10,2.43507"
         id="path3526" />
      <path
         style="color:#000000;fill:none;stroke:#4e9a06;stroke-width:1px;stroke-linecap:round;stroke-linejoin:round;stroke-miterlimit:4;stroke-opacity:1;stroke-dasharray:none;stroke-dashoffset:0;marker:none;visibility:visible;display:inline;overflow:visible;enable-background:accumulate"
         d="m 510,722.36221 -4.67533,7.46753"
         id="path3528" />
      <path
         style="color:#000000;fill:none;stroke:#4e9a06;stroke-width:1px;stroke-linecap:round;stroke-linejoin:round;stroke-miterlimit:4;stroke-opacity:1;stroke-dasharray:none;stroke-dashoffset:0;marker:none;visibility:visible;display:inline;overflow:visible;enable-background:accumulate"
         d="m 460,300 50,-30"
         id="path3530"
         transform="translate(0,452.36218)" />
    </g>
    <g
       style="stroke:#5c3566;stroke-opacity:1"
       id="g3532"
       transform="translate(140,-392.36218)">
      <path
         id="path3534"
         d="m 520,724.79728 -10,-2.43507"
         style="color:#000000;fill:none;stroke:#5c3566;stroke-width:1px;stroke-linecap:round;stroke-linejoin:round;stroke-miterlimit:4;stroke-opacity:1;stroke-dasharray:none;stroke-dashoffset:0;marker:none;visibility:visible;display:inline;overflow:visible;enable-background:accumulate" />
      <path
         id="path3536"
         d="M 515.17533,730.32974 510.5,722.86221"
         style="color:#000000;fill:none;stroke:#5c3566;stroke-width:1px;stroke-linecap:round;stroke-linejoin:round;stroke-miterlimit:4;stroke-opacity:1;stroke-dasharray:none;stroke-dashoffset:0;marker:none;visibility:visible;display:inline;overflow:visible;enable-background:accumulate" />
      <path
         style="color:#000000;fill:none;stroke:#5c3566;stroke-width:1px;stroke-linecap:round;stroke-linejoin:round;stroke-miterlimit:4;stroke-opacity:1;stroke-dasharray:none;stroke-dashoffset:0;marker:none;visibility:visible;display:inline;overflow:visible;enable-background:accumulate"
         d="M 560,300 510,270"
         id="path3538"
         transform="translate(0,452.36218)" />
    </g>
    <path
       style="font-size:22px;line-height:1.25;font-family:'Liberation Sans';-inkscape-font-specification:'Liberation Sans, Normal';text-align:center;text-anchor:middle"
       d="m -203.26221,431.46699 6.04785,-15.74805 h 2.24512 l 6.44531,15.74805 h -2.37402 l -1.83691,-4.76953 h -6.58496 l -1.7295,4.76953 z m 4.54395,-6.4668 h 5.33887 l -1.64356,-4.36133 q -0.75195,-1.9873 -1.11719,-3.26562 -0.30078,1.51465 -0.84863,3.00781 z m 12.07422,6.4668 v -9.9043 h -1.70801 v -1.50391 h 1.70801 v -1.21386 q 0,-1.14942 0.2041,-1.70801 0.2793,-0.75195 0.97754,-1.21387 0.70898,-0.47265 1.97656,-0.47265 0.81641,0 1.80469,0.19336 l -0.29004,1.68652 q -0.60156,-0.10742 -1.13867,-0.10742 -0.88086,0 -1.2461,0.37597 -0.36523,0.37598 -0.36523,1.40723 v 1.05273 h 2.22363 v 1.50391 h -2.22363 v 9.9043 z m 9.87207,-1.72949 0.27929,1.708 q -0.8164,0.17188 -1.46093,0.17188 -1.05274,0 -1.63282,-0.33301 -0.58007,-0.33301 -0.8164,-0.87012 -0.23633,-0.54785 -0.23633,-2.28808 v -6.56348 h -1.41797 v -1.50391 h 1.41797 v -2.82519 l 1.92285,-1.16016 v 3.98535 h 1.94434 v 1.50391 h -1.94434 v 6.6709 q 0,0.82715 0.0967,1.06348 0.10742,0.23632 0.33301,0.37597 0.23633,0.13965 0.66601,0.13965 0.32227,0 0.84864,-0.0752 z m 9.70019,-1.94434 1.99805,0.24707 q -0.47266,1.75098 -1.75098,2.71777 -1.27832,0.9668 -3.26562,0.9668 -2.50293,0 -3.97461,-1.53613 -1.46094,-1.54688 -1.46094,-4.3291 0,-2.87891 1.48242,-4.46875 1.48242,-1.58985 3.84571,-1.58985 2.28808,0 3.73828,1.55762 1.45019,1.55762 1.45019,4.38281 0,0.17188 -0.0107,0.51563 h -8.50781 q 0.10742,1.87988 1.06347,2.8789 0.95606,0.99903 2.38477,0.99903 1.06348,0 1.81543,-0.5586 0.75195,-0.55859 1.19238,-1.7832 z m -6.34863,-3.12598 h 6.37012 q -0.12891,-1.43945 -0.73047,-2.15918 -0.92383,-1.11718 -2.39551,-1.11718 -1.33203,0 -2.24512,0.8916 -0.90234,0.8916 -0.99902,2.38476 z m 10.75293,6.79981 v -11.40821 h 1.74023 v 1.7295 q 0.66602,-1.21387 1.22461,-1.60059 0.56934,-0.38672 1.2461,-0.38672 0.97754,0 1.9873,0.62305 l -0.66601,1.79394 q -0.70899,-0.41894 -1.41797,-0.41894 -0.63379,0 -1.13867,0.38672 -0.50489,0.37597 -0.71973,1.05273 -0.32227,1.03125 -0.32227,2.25586 v 5.97266 z"
       id="flowRoot3418-5-0"
       transform="translate(830,-291.64968)"
       aria-label="After" />
  </g>
</svg>
