<?xml version="1.0" encoding="UTF-8" standalone="no"?>
<!-- Created with Inkscape (http://www.inkscape.org/) -->

<svg
   width="800"
   height="600"
   id="svg2"
   version="1.1"
   xmlns="http://www.w3.org/2000/svg"
   xmlns:svg="http://www.w3.org/2000/svg"
   xmlns:rdf="http://www.w3.org/1999/02/22-rdf-syntax-ns#"
   xmlns:cc="http://creativecommons.org/ns#"
   xmlns:dc="http://purl.org/dc/elements/1.1/">
  <defs
     id="defs4" />
  <metadata
     id="metadata7">
    <rdf:RDF>
      <cc:Work
         rdf:about="">
        <dc:format>image/svg+xml</dc:format>
        <dc:type
           rdf:resource="http://purl.org/dc/dcmitype/StillImage" />
        <dc:language>en</dc:language>
        <cc:license
           rdf:resource="https://timefold.ai/license" />
      </cc:Work>
    </rdf:RDF>
  </metadata>
  <g
     id="layer4"
     style="display:inline">
    <rect
       style="opacity:0.5;fill:#fce94f;stroke:none;display:inline"
       id="rect3202"
       width="199"
       height="29"
       x="410.49979"
       y="540.5"
       rx="4.999999"
       ry="5" />
    <rect
       ry="5"
       rx="4.999999"
       y="400.5"
       x="410.49936"
       height="29"
       width="199"
       id="rect3204"
       style="opacity:0.5;fill:#8ae234;stroke:none;display:inline" />
    <rect
       style="opacity:0.5;fill:#729fcf;stroke:none;display:inline"
       id="rect3232"
       width="199"
       height="29"
       x="410.49936"
       y="460.5"
       rx="4.999999"
       ry="5" />
  </g>
  <g
     id="layer3"
     style="display:inline">
    <path
       style="color:#000000;fill:none;stroke:#ce5c00;stroke-width:0.99999994px;stroke-linecap:round;stroke-linejoin:round;stroke-miterlimit:4;stroke-opacity:1;stroke-dasharray:none;stroke-dashoffset:0;marker:none;visibility:visible;display:inline;overflow:visible;enable-background:accumulate"
       d="M 228.90685,188.62167 C 320.76046,280.6654 350,410 410,410"
       id="path3266" />
    <path
       id="path3234"
       d="m 509.99979,540 0,-50"
       style="color:#000000;fill:none;stroke:#204a87;stroke-width:1px;stroke-linecap:round;stroke-linejoin:round;stroke-miterlimit:4;stroke-opacity:1;stroke-dasharray:none;stroke-dashoffset:0;marker:none;visibility:visible;display:inline;overflow:visible;enable-background:accumulate" />
    <path
       id="path3236"
       d="m 499.99979,500 10,-10 10,10"
       style="color:#000000;fill:none;stroke:#204a87;stroke-width:1px;stroke-linecap:round;stroke-linejoin:round;stroke-miterlimit:4;stroke-opacity:1;stroke-dasharray:none;stroke-dashoffset:0;marker:none;visibility:visible;display:inline;overflow:visible;enable-background:accumulate" />
    <path
       style="font-size:16px;line-height:1.25;font-family:'Liberation Sans';-inkscape-font-specification:'Liberation Sans, Normal';fill:#204a87"
       d="m 4.9453125,120.8066 0.359375,-1.10937 q 1.2421875,0.4375 1.8046875,0.75781 -0.1484375,-1.41406 -0.15625,-1.94531 h 1.1328125 q -0.023437,0.77343 -0.1796875,1.9375 0.8046875,-0.40625 1.84375,-0.75 l 0.359375,1.10937 q -0.9921875,0.32813 -1.9453125,0.4375 0.4765625,0.41406 1.34375,1.47656 l -0.9375,0.66407 Q 8.1171875,122.76754 7.5,121.70504 6.921875,122.8066 6.484375,123.38473 L 5.5625,122.72066 q 0.90625,-1.11718 1.296875,-1.47656 -1.0078125,-0.19531 -1.9140625,-0.4375 z"
       id="flowRoot3238"
       transform="translate(519.99979,374.25478)"
       aria-label=" *" />
    <rect
       ry="5"
       rx="4.999999"
       y="460.5"
       x="410.49979"
       height="29"
       width="199"
       id="rect3246"
       style="fill:none;stroke:#000000;stroke-width:0.99999988;stroke-linecap:round;stroke-linejoin:round;stroke-miterlimit:4;stroke-dasharray:none" />
    <path
       style="font-size:20px;line-height:1.25;font-family:'Liberation Sans';-inkscape-font-specification:'Liberation Sans, Normal';text-align:center;text-anchor:middle"
       d="M 378.10059,51.792432 V 37.476026 h 1.89453 v 12.626953 h 7.05078 v 1.689453 z M 389.08691,39.49751 v -2.021484 h 1.75782 v 2.021484 z m 0,12.294922 V 41.421338 h 1.75782 v 10.371094 z m 3.73047,-3.095703 1.73828,-0.273437 q 0.14649,1.044921 0.81055,1.601562 0.67383,0.556641 1.875,0.556641 1.21094,0 1.79688,-0.488282 0.58593,-0.498046 0.58593,-1.162109 0,-0.595703 -0.51757,-0.9375 -0.36133,-0.234375 -1.79688,-0.595703 -1.93359,-0.488281 -2.68555,-0.839844 -0.74218,-0.361328 -1.13281,-0.986328 -0.38086,-0.634766 -0.38086,-1.396484 0,-0.69336 0.3125,-1.279297 0.32227,-0.595703 0.86914,-0.986328 0.41016,-0.302735 1.11328,-0.507813 0.71289,-0.214844 1.52344,-0.214844 1.2207,0 2.13867,0.351563 0.92774,0.351562 1.36719,0.957031 0.43945,0.595703 0.60547,1.601563 l -1.71875,0.234375 q -0.11719,-0.800782 -0.68359,-1.25 -0.55665,-0.449219 -1.58204,-0.449219 -1.21093,0 -1.72851,0.400391 -0.51758,0.40039 -0.51758,0.9375 0,0.341796 0.21484,0.615234 0.21485,0.283203 0.67383,0.46875 0.26367,0.09766 1.55274,0.449219 1.86523,0.498047 2.59765,0.820312 0.74219,0.3125 1.16211,0.917969 0.41992,0.605469 0.41992,1.503906 0,0.878906 -0.51757,1.660156 -0.50782,0.771485 -1.47461,1.201172 -0.9668,0.419922 -2.1875,0.419922 -2.02149,0 -3.08594,-0.839844 -1.05469,-0.839843 -1.34766,-2.490234 z m 14.54102,1.523438 0.2539,1.552734 q -0.74218,0.15625 -1.32812,0.15625 -0.95703,0 -1.48438,-0.302734 -0.52734,-0.302735 -0.74218,-0.791016 -0.21485,-0.498047 -0.21485,-2.080078 v -5.966797 h -1.28906 v -1.367188 h 1.28906 v -2.568359 l 1.74805,-1.054687 v 3.623046 h 1.76758 v 1.367188 h -1.76758 v 6.064453 q 0,0.751953 0.0879,0.966797 0.0977,0.214844 0.30274,0.341797 0.21484,0.126953 0.60546,0.126953 0.29297,0 0.77149,-0.06836 z m 1.49414,-4.6875 v -1.640625 l 9.48242,-4.003907 v 1.748047 l -7.51953,3.085938 7.51953,3.115234 v 1.748047 z m 12.12891,6.259765 V 37.476026 h 5.40039 q 1.42578,0 2.17773,0.136719 1.05469,0.175781 1.76758,0.673828 0.71289,0.488281 1.14258,1.376953 0.43945,0.888672 0.43945,1.953125 0,1.826172 -1.16211,3.095703 -1.16211,1.259766 -4.19922,1.259766 h -3.67187 v 5.820312 z m 1.89453,-7.509765 h 3.70117 q 1.83594,0 2.60742,-0.683594 0.77148,-0.683594 0.77148,-1.923828 0,-0.898438 -0.45898,-1.533203 -0.44922,-0.644532 -1.19141,-0.84961 -0.47851,-0.126953 -1.76757,-0.126953 h -3.66211 z m 11.20117,7.509765 V 41.421338 h 1.58203 v 1.572266 q 0.60547,-1.103516 1.11328,-1.455078 0.51758,-0.351563 1.13281,-0.351563 0.88868,0 1.80664,0.566407 l -0.60546,1.630859 q -0.64454,-0.380859 -1.28907,-0.380859 -0.57617,0 -1.03515,0.351562 -0.45899,0.341797 -0.6543,0.957031 -0.29297,0.9375 -0.29297,2.050782 v 5.429687 z m 6.02539,-5.185547 q 0,-2.880859 1.60156,-4.267578 1.33789,-1.152344 3.26172,-1.152344 2.13867,0 3.49609,1.40625 1.35743,1.396485 1.35743,3.867188 0,2.001953 -0.60547,3.154297 -0.59571,1.142578 -1.74805,1.777344 -1.14258,0.634765 -2.5,0.634765 -2.17773,0 -3.52539,-1.396484 -1.33789,-1.396485 -1.33789,-4.023438 z m 1.80664,0 q 0,1.992188 0.86914,2.988282 0.86914,0.986328 2.1875,0.986328 1.30859,0 2.17773,-0.996094 0.86915,-0.996094 0.86915,-3.037109 0,-1.923829 -0.87891,-2.910157 -0.86914,-0.996093 -2.16797,-0.996093 -1.31836,0 -2.1875,0.986328 -0.86914,0.986328 -0.86914,2.978515 z m 16.73828,1.386719 1.72852,0.224609 q -0.28321,1.78711 -1.45508,2.802735 -1.16211,1.005859 -2.86133,1.005859 -2.12891,0 -3.42773,-1.386719 -1.28907,-1.396484 -1.28907,-3.99414 0,-1.679688 0.55664,-2.939453 0.55664,-1.259766 1.68946,-1.884766 1.14258,-0.634766 2.48047,-0.634766 1.68945,0 2.76367,0.859375 1.07422,0.84961 1.37695,2.421875 l -1.70898,0.263672 q -0.24414,-1.044922 -0.86914,-1.572265 -0.61524,-0.527344 -1.49414,-0.527344 -1.32813,0 -2.15821,0.957031 -0.83008,0.947266 -0.83008,3.007813 0,2.089843 0.80079,3.037109 0.80078,0.947266 2.08984,0.947266 1.03516,0 1.72851,-0.634766 0.69336,-0.634766 0.87891,-1.953125 z m 10.33203,0.458984 1.81641,0.22461 q -0.42969,1.591797 -1.5918,2.470703 -1.16211,0.878906 -2.96875,0.878906 -2.27539,0 -3.61328,-1.396484 -1.32812,-1.40625 -1.32812,-3.935547 0,-2.617188 1.34765,-4.0625 1.34766,-1.445313 3.4961,-1.445313 2.08007,0 3.39843,1.416016 1.31836,1.416016 1.31836,3.984375 0,0.15625 -0.01,0.46875 h -7.73438 q 0.0977,1.708984 0.9668,2.617188 0.86914,0.908203 2.16797,0.908203 0.96679,0 1.65039,-0.507813 0.68359,-0.507812 1.08398,-1.621094 z m -5.77148,-2.841796 h 5.79101 q -0.11718,-1.308594 -0.66406,-1.962891 -0.83984,-1.015625 -2.17773,-1.015625 -1.21094,0 -2.04102,0.810547 -0.82031,0.810547 -0.9082,2.167969 z m 9.09179,3.085937 1.73829,-0.273437 q 0.14648,1.044921 0.81054,1.601562 0.67383,0.556641 1.875,0.556641 1.21094,0 1.79688,-0.488282 0.58594,-0.498046 0.58594,-1.162109 0,-0.595703 -0.51758,-0.9375 -0.36133,-0.234375 -1.79688,-0.595703 -1.93359,-0.488281 -2.68554,-0.839844 -0.74219,-0.361328 -1.13282,-0.986328 -0.38086,-0.634766 -0.38086,-1.396484 0,-0.69336 0.3125,-1.279297 0.32227,-0.595703 0.86914,-0.986328 0.41016,-0.302735 1.11329,-0.507813 0.71289,-0.214844 1.52343,-0.214844 1.22071,0 2.13867,0.351563 0.92774,0.351562 1.36719,0.957031 0.43946,0.595703 0.60547,1.601563 l -1.71875,0.234375 q -0.11719,-0.800782 -0.68359,-1.25 -0.55664,-0.449219 -1.58203,-0.449219 -1.21094,0 -1.72852,0.400391 -0.51758,0.40039 -0.51758,0.9375 0,0.341796 0.21485,0.615234 0.21484,0.283203 0.67382,0.46875 0.26368,0.09766 1.55274,0.449219 1.86523,0.498047 2.59765,0.820312 0.74219,0.3125 1.16211,0.917969 0.41993,0.605469 0.41993,1.503906 0,0.878906 -0.51758,1.660156 -0.50781,0.771485 -1.47461,1.201172 -0.9668,0.419922 -2.1875,0.419922 -2.02149,0 -3.08594,-0.839844 -1.05469,-0.839843 -1.34766,-2.490234 z m 10,0 1.73829,-0.273437 q 0.14648,1.044921 0.81054,1.601562 0.67383,0.556641 1.875,0.556641 1.21094,0 1.79688,-0.488282 0.58594,-0.498046 0.58594,-1.162109 0,-0.595703 -0.51758,-0.9375 -0.36133,-0.234375 -1.79688,-0.595703 -1.93359,-0.488281 -2.68554,-0.839844 -0.74219,-0.361328 -1.13282,-0.986328 -0.38086,-0.634766 -0.38086,-1.396484 0,-0.69336 0.3125,-1.279297 0.32227,-0.595703 0.86914,-0.986328 0.41016,-0.302735 1.11329,-0.507813 0.71289,-0.214844 1.52343,-0.214844 1.22071,0 2.13867,0.351563 0.92774,0.351562 1.36719,0.957031 0.43946,0.595703 0.60547,1.601563 l -1.71875,0.234375 q -0.11719,-0.800782 -0.68359,-1.25 -0.55664,-0.449219 -1.58203,-0.449219 -1.21094,0 -1.72852,0.400391 -0.51758,0.40039 -0.51758,0.9375 0,0.341796 0.21485,0.615234 0.21484,0.283203 0.67382,0.46875 0.26368,0.09766 1.55274,0.449219 1.86523,0.498047 2.59765,0.820312 0.74219,0.3125 1.16211,0.917969 0.41993,0.605469 0.41993,1.503906 0,0.878906 -0.51758,1.660156 -0.50781,0.771485 -1.47461,1.201172 -0.9668,0.419922 -2.1875,0.419922 -2.02149,0 -3.08594,-0.839844 -1.05469,-0.839843 -1.34766,-2.490234 z m 19.96094,-3.164062 -9.48242,4.052734 v -1.748047 l 7.50977,-3.115234 -7.50977,-3.085938 v -1.748047 l 9.48242,4.003907 z"
       id="flowRoot3248"
       transform="translate(69.99981,426.22293)"
       aria-label="List&lt;Process&gt;" />
    <rect
       style="fill:none;stroke:#000000;stroke-width:0.99999982;stroke-linecap:round;stroke-linejoin:round;stroke-miterlimit:4;stroke-dasharray:none"
       id="rect3256"
       width="199"
       height="29"
       x="410.49936"
       y="400.5"
       rx="4.999999"
       ry="5" />
    <path
       style="font-size:20px;line-height:1.25;font-family:'Liberation Sans';-inkscape-font-specification:'Liberation Sans, Normal';text-align:center;text-anchor:middle"
       d="M 405.41992,51.792432 V 37.476026 h 5.40039 q 1.42578,0 2.17774,0.136719 1.05468,0.175781 1.76757,0.673828 0.7129,0.488281 1.14258,1.376953 0.43946,0.888672 0.43946,1.953125 0,1.826172 -1.16211,3.095703 -1.16211,1.259766 -4.19922,1.259766 h -3.67188 v 5.820312 z m 1.89453,-7.509765 h 3.70117 q 1.83594,0 2.60743,-0.683594 0.77148,-0.683594 0.77148,-1.923828 0,-0.898438 -0.45898,-1.533203 -0.44922,-0.644532 -1.19141,-0.84961 -0.47852,-0.126953 -1.76758,-0.126953 h -3.66211 z m 11.20117,7.509765 V 41.421338 h 1.58204 v 1.572266 q 0.60546,-1.103516 1.11328,-1.455078 0.51758,-0.351563 1.13281,-0.351563 0.88867,0 1.80664,0.566407 l -0.60547,1.630859 q -0.64453,-0.380859 -1.28906,-0.380859 -0.57617,0 -1.03516,0.351562 -0.45898,0.341797 -0.65429,0.957031 -0.29297,0.9375 -0.29297,2.050782 v 5.429687 z m 6.0254,-5.185547 q 0,-2.880859 1.60156,-4.267578 1.33789,-1.152344 3.26172,-1.152344 2.13867,0 3.49609,1.40625 1.35742,1.396485 1.35742,3.867188 0,2.001953 -0.60547,3.154297 -0.5957,1.142578 -1.74804,1.777344 -1.14258,0.634765 -2.5,0.634765 -2.17774,0 -3.52539,-1.396484 -1.33789,-1.396485 -1.33789,-4.023438 z m 1.80664,0 q 0,1.992188 0.86914,2.988282 0.86914,0.986328 2.1875,0.986328 1.30859,0 2.17773,-0.996094 0.86914,-0.996094 0.86914,-3.037109 0,-1.923829 -0.8789,-2.910157 -0.86915,-0.996093 -2.16797,-0.996093 -1.31836,0 -2.1875,0.986328 -0.86914,0.986328 -0.86914,2.978515 z m 16.73828,1.386719 1.72851,0.224609 q -0.2832,1.78711 -1.45508,2.802735 -1.1621,1.005859 -2.86132,1.005859 -2.12891,0 -3.42774,-1.386719 -1.28906,-1.396484 -1.28906,-3.99414 0,-1.679688 0.55664,-2.939453 0.55664,-1.259766 1.68945,-1.884766 1.14258,-0.634766 2.48047,-0.634766 1.68946,0 2.76367,0.859375 1.07422,0.84961 1.37696,2.421875 l -1.70899,0.263672 q -0.24414,-1.044922 -0.86914,-1.572265 -0.61523,-0.527344 -1.49414,-0.527344 -1.32812,0 -2.1582,0.957031 -0.83008,0.947266 -0.83008,3.007813 0,2.089843 0.80078,3.037109 0.80078,0.947266 2.08985,0.947266 1.03515,0 1.72851,-0.634766 0.69336,-0.634766 0.87891,-1.953125 z m 10.33203,0.458984 1.8164,0.22461 q -0.42968,1.591797 -1.59179,2.470703 -1.16211,0.878906 -2.96875,0.878906 -2.27539,0 -3.61328,-1.396484 -1.32813,-1.40625 -1.32813,-3.935547 0,-2.617188 1.34766,-4.0625 1.34765,-1.445313 3.49609,-1.445313 2.08008,0 3.39844,1.416016 1.31836,1.416016 1.31836,3.984375 0,0.15625 -0.01,0.46875 h -7.73437 q 0.0976,1.708984 0.96679,2.617188 0.86915,0.908203 2.16797,0.908203 0.9668,0 1.65039,-0.507813 0.6836,-0.507812 1.08399,-1.621094 z m -5.77149,-2.841796 h 5.79102 q -0.11719,-1.308594 -0.66406,-1.962891 -0.83985,-1.015625 -2.17774,-1.015625 -1.21093,0 -2.04101,0.810547 -0.82032,0.810547 -0.90821,2.167969 z m 9.0918,3.085937 1.73828,-0.273437 q 0.14649,1.044921 0.81055,1.601562 0.67383,0.556641 1.875,0.556641 1.21094,0 1.79687,-0.488282 0.58594,-0.498046 0.58594,-1.162109 0,-0.595703 -0.51758,-0.9375 -0.36132,-0.234375 -1.79687,-0.595703 -1.9336,-0.488281 -2.68555,-0.839844 -0.74219,-0.361328 -1.13281,-0.986328 -0.38086,-0.634766 -0.38086,-1.396484 0,-0.69336 0.3125,-1.279297 0.32227,-0.595703 0.86914,-0.986328 0.41016,-0.302735 1.11328,-0.507813 0.71289,-0.214844 1.52344,-0.214844 1.2207,0 2.13867,0.351563 0.92774,0.351562 1.36719,0.957031 0.43945,0.595703 0.60547,1.601563 l -1.71875,0.234375 q -0.11719,-0.800782 -0.6836,-1.25 -0.55664,-0.449219 -1.58203,-0.449219 -1.21094,0 -1.72851,0.400391 -0.51758,0.40039 -0.51758,0.9375 0,0.341796 0.21484,0.615234 0.21485,0.283203 0.67383,0.46875 0.26367,0.09766 1.55273,0.449219 1.86524,0.498047 2.59766,0.820312 0.74219,0.3125 1.16211,0.917969 0.41992,0.605469 0.41992,1.503906 0,0.878906 -0.51758,1.660156 -0.50781,0.771485 -1.47461,1.201172 -0.96679,0.419922 -2.1875,0.419922 -2.02148,0 -3.08593,-0.839844 -1.05469,-0.839843 -1.34766,-2.490234 z m 10,0 1.73828,-0.273437 q 0.14649,1.044921 0.81055,1.601562 0.67383,0.556641 1.875,0.556641 1.21094,0 1.79687,-0.488282 0.58594,-0.498046 0.58594,-1.162109 0,-0.595703 -0.51758,-0.9375 -0.36132,-0.234375 -1.79687,-0.595703 -1.9336,-0.488281 -2.68555,-0.839844 -0.74219,-0.361328 -1.13281,-0.986328 -0.38086,-0.634766 -0.38086,-1.396484 0,-0.69336 0.3125,-1.279297 0.32227,-0.595703 0.86914,-0.986328 0.41016,-0.302735 1.11328,-0.507813 0.71289,-0.214844 1.52344,-0.214844 1.2207,0 2.13867,0.351563 0.92774,0.351562 1.36719,0.957031 0.43945,0.595703 0.60547,1.601563 l -1.71875,0.234375 q -0.11719,-0.800782 -0.6836,-1.25 -0.55664,-0.449219 -1.58203,-0.449219 -1.21094,0 -1.72851,0.400391 -0.51758,0.40039 -0.51758,0.9375 0,0.341796 0.21484,0.615234 0.21485,0.283203 0.67383,0.46875 0.26367,0.09766 1.55273,0.449219 1.86524,0.498047 2.59766,0.820312 0.74219,0.3125 1.16211,0.917969 0.41992,0.605469 0.41992,1.503906 0,0.878906 -0.51758,1.660156 -0.50781,0.771485 -1.47461,1.201172 -0.96679,0.419922 -2.1875,0.419922 -2.02148,0 -3.08593,-0.839844 -1.05469,-0.839843 -1.34766,-2.490234 z"
       id="flowRoot3258"
       transform="translate(69.99939,366.22293)"
       aria-label="Process" />
    <path
       style="font-size:16px;line-height:1.25;font-family:'Liberation Sans';-inkscape-font-specification:'Liberation Sans, Normal';text-align:center;text-anchor:middle;fill:#ce5c00"
       d="m 17.386719,135.06051 0.359375,-1.10938 q 1.242187,0.4375 1.804687,0.75782 -0.148437,-1.41407 -0.15625,-1.94532 h 1.132813 q -0.02344,0.77344 -0.179688,1.9375 0.804688,-0.40625 1.84375,-0.75 l 0.359375,1.10938 q -0.992187,0.32812 -1.945312,0.4375 0.476562,0.41406 1.34375,1.47656 l -0.9375,0.66406 q -0.453125,-0.61718 -1.070313,-1.67968 -0.578125,1.10156 -1.015625,1.67968 l -0.921875,-0.66406 q 0.90625,-1.11719 1.296875,-1.47656 -1.007812,-0.19531 -1.914062,-0.4375 z"
       id="flowRoot3280"
       transform="translate(369.99937,290.00021)"
       aria-label="*" />
    <rect
       ry="5"
       rx="4.999999"
       y="540.5"
       x="410.49979"
       height="29"
       width="199"
       id="rect3288"
       style="fill:none;stroke:#000000;stroke-width:0.99999988;stroke-linecap:round;stroke-linejoin:round;stroke-miterlimit:4;stroke-dasharray:none" />
    <path
       style="font-size:20px;line-height:1.25;font-family:'Liberation Sans';-inkscape-font-specification:'Liberation Sans, Normal';text-align:center;text-anchor:middle"
       d="m 389.49219,46.772901 1.89453,0.478516 q -0.5957,2.333984 -2.14844,3.564453 -1.54297,1.220703 -3.7793,1.220703 -2.31445,0 -3.76953,-0.9375 -1.44531,-0.947266 -2.20703,-2.734375 -0.75195,-1.78711 -0.75195,-3.837891 0,-2.236328 0.84961,-3.896484 0.85937,-1.669922 2.43164,-2.529297 1.58203,-0.869141 3.47656,-0.869141 2.14844,0 3.61328,1.09375 1.46485,1.09375 2.04102,3.076172 l -1.86524,0.439453 q -0.49804,-1.5625 -1.44531,-2.27539 -0.94726,-0.712891 -2.38281,-0.712891 -1.65039,0 -2.76367,0.791016 -1.10352,0.791015 -1.55274,2.128906 -0.44922,1.328125 -0.44922,2.744141 0,1.826171 0.52735,3.193359 0.53711,1.357422 1.66015,2.03125 1.12305,0.673828 2.43164,0.673828 1.5918,0 2.69532,-0.917969 1.10351,-0.917968 1.49414,-2.724609 z m 3.96484,5.019531 V 37.476026 h 1.75781 v 14.316406 z m 3.82813,-5.185547 q 0,-2.880859 1.60156,-4.267578 1.33789,-1.152344 3.26172,-1.152344 2.13867,0 3.49609,1.40625 1.35742,1.396485 1.35742,3.867188 0,2.001953 -0.60547,3.154297 -0.5957,1.142578 -1.74804,1.777344 -1.14258,0.634765 -2.5,0.634765 -2.17774,0 -3.52539,-1.396484 -1.33789,-1.396485 -1.33789,-4.023438 z m 1.80664,0 q 0,1.992188 0.86914,2.988282 0.86914,0.986328 2.1875,0.986328 1.30859,0 2.17773,-0.996094 0.86914,-0.996094 0.86914,-3.037109 0,-1.923829 -0.8789,-2.910157 -0.86914,-0.996093 -2.16797,-0.996093 -1.31836,0 -2.1875,0.986328 -0.86914,0.986328 -0.86914,2.978515 z m 16.76757,5.185547 v -1.523437 q -1.21093,1.757812 -3.29101,1.757812 -0.91797,0 -1.71875,-0.351562 -0.79102,-0.351563 -1.18164,-0.878907 -0.38086,-0.537109 -0.53711,-1.308593 -0.10742,-0.517578 -0.10742,-1.640625 v -6.425782 h 1.75781 v 5.751954 q 0,1.376953 0.10742,1.855468 0.16602,0.69336 0.70313,1.09375 0.53711,0.390625 1.32812,0.390625 0.79102,0 1.48438,-0.40039 0.69336,-0.410157 0.97656,-1.103516 0.29297,-0.703125 0.29297,-2.03125 v -5.556641 h 1.75781 v 10.371094 z m 11.05469,0 v -1.308594 q -0.98633,1.542969 -2.90039,1.542969 -1.24023,0 -2.28515,-0.683594 -1.03516,-0.683593 -1.61133,-1.904296 -0.56641,-1.230469 -0.56641,-2.822266 0,-1.552734 0.51758,-2.8125 0.51758,-1.269531 1.55273,-1.943359 1.03516,-0.673829 2.31446,-0.673829 0.9375,0 1.66992,0.400391 0.73242,0.390625 1.1914,1.025391 v -5.136719 h 1.74805 v 14.316406 z m -5.55664,-5.175781 q 0,1.992187 0.83985,2.978516 0.83984,0.986328 1.98242,0.986328 1.15234,0 1.95312,-0.9375 0.81055,-0.947266 0.81055,-2.88086 0,-2.128906 -0.82031,-3.125 -0.82032,-0.996093 -2.02149,-0.996093 -1.17187,0 -1.96289,0.957031 -0.78125,0.957031 -0.78125,3.017578 z m 10.09766,5.175781 V 37.476026 h 5.37109 q 1.64063,0 2.62695,0.439453 0.9961,0.429688 1.55274,1.337891 0.56641,0.898437 0.56641,1.884765 0,0.917969 -0.49805,1.728516 -0.49805,0.810547 -1.50391,1.308594 1.29883,0.380859 1.99219,1.298828 0.70312,0.917969 0.70312,2.167969 0,1.005859 -0.42968,1.875 -0.41992,0.859375 -1.04492,1.328125 -0.625,0.46875 -1.57227,0.71289 -0.9375,0.234375 -2.30469,0.234375 z m 1.89453,-8.300781 h 3.0957 q 1.25977,0 1.80664,-0.166016 0.72266,-0.214843 1.08399,-0.71289 0.37109,-0.498047 0.37109,-1.25 0,-0.712891 -0.3418,-1.25 -0.34179,-0.546875 -0.97656,-0.742188 -0.63476,-0.205078 -2.17773,-0.205078 h -2.86133 z m 0,6.611328 h 3.56445 q 0.91797,0 1.28906,-0.06836 0.6543,-0.117188 1.09375,-0.390625 0.43946,-0.273438 0.72266,-0.791016 0.2832,-0.527344 0.2832,-1.210937 0,-0.800782 -0.41015,-1.386719 -0.41016,-0.595703 -1.14258,-0.830078 -0.72266,-0.244141 -2.08984,-0.244141 h -3.31055 z m 18.06641,0.410156 q -0.97657,0.830078 -1.88477,1.171875 -0.89844,0.341797 -1.93359,0.341797 -1.70899,0 -2.62696,-0.830078 -0.91797,-0.839844 -0.91797,-2.138672 0,-0.761719 0.3418,-1.386719 0.35156,-0.634765 0.9082,-1.015625 0.56641,-0.380859 1.26954,-0.576171 0.51757,-0.136719 1.5625,-0.263672 2.1289,-0.253907 3.13476,-0.605469 0.01,-0.361328 0.01,-0.458984 0,-1.074219 -0.49805,-1.513672 -0.67383,-0.595703 -2.00195,-0.595703 -1.24024,0 -1.83594,0.439453 -0.58594,0.429687 -0.86914,1.533203 l -1.71875,-0.234375 q 0.23437,-1.103516 0.77148,-1.777344 0.53711,-0.683594 1.55274,-1.044922 1.01562,-0.371094 2.35351,-0.371094 1.32813,0 2.15821,0.3125 0.83007,0.3125 1.2207,0.791016 0.39062,0.46875 0.54687,1.191406 0.0879,0.449219 0.0879,1.621094 v 2.34375 q 0,2.451172 0.10743,3.105469 0.11718,0.644531 0.44922,1.240234 h -1.83594 q -0.27344,-0.546875 -0.35156,-1.279297 z m -0.14649,-3.925781 q -0.95703,0.390625 -2.87109,0.664063 -1.08399,0.15625 -1.53321,0.351562 -0.44921,0.195313 -0.69336,0.576172 -0.24414,0.371094 -0.24414,0.830078 0,0.703125 0.52735,1.171875 0.53711,0.46875 1.5625,0.46875 1.01562,0 1.80664,-0.439453 0.79101,-0.449219 1.16211,-1.220703 0.2832,-0.595703 0.2832,-1.757813 z m 4.46289,5.205078 V 37.476026 h 1.75781 v 14.316406 z m 11.25,-1.279297 q -0.97656,0.830078 -1.88476,1.171875 -0.89844,0.341797 -1.9336,0.341797 -1.70898,0 -2.62695,-0.830078 -0.91797,-0.839844 -0.91797,-2.138672 0,-0.761719 0.3418,-1.386719 0.35156,-0.634765 0.9082,-1.015625 0.56641,-0.380859 1.26953,-0.576171 0.51758,-0.136719 1.5625,-0.263672 2.12891,-0.253907 3.13477,-0.605469 0.01,-0.361328 0.01,-0.458984 0,-1.074219 -0.49804,-1.513672 -0.67383,-0.595703 -2.00196,-0.595703 -1.24023,0 -1.83593,0.439453 -0.58594,0.429687 -0.86915,1.533203 l -1.71875,-0.234375 q 0.23438,-1.103516 0.77149,-1.777344 0.53711,-0.683594 1.55273,-1.044922 1.01563,-0.371094 2.35352,-0.371094 1.32812,0 2.1582,0.3125 0.83008,0.3125 1.22071,0.791016 0.39062,0.46875 0.54687,1.191406 0.0879,0.449219 0.0879,1.621094 v 2.34375 q 0,2.451172 0.10742,3.105469 0.11719,0.644531 0.44922,1.240234 h -1.83594 q -0.27343,-0.546875 -0.35156,-1.279297 z m -0.14648,-3.925781 q -0.95703,0.390625 -2.8711,0.664063 -1.08398,0.15625 -1.5332,0.351562 -0.44922,0.195313 -0.69336,0.576172 -0.24414,0.371094 -0.24414,0.830078 0,0.703125 0.52734,1.171875 0.53711,0.46875 1.5625,0.46875 1.01563,0 1.80664,-0.439453 0.79102,-0.449219 1.16211,-1.220703 0.28321,-0.595703 0.28321,-1.757813 z m 4.50195,5.205078 V 41.421338 h 1.58203 v 1.47461 q 1.14258,-1.708985 3.30078,-1.708985 0.9375,0 1.71875,0.341797 0.79102,0.332032 1.18164,0.878907 0.39063,0.546875 0.54688,1.298828 0.0976,0.488281 0.0976,1.708984 v 6.376953 h -1.75781 v -6.308594 q 0,-1.074218 -0.20508,-1.601562 -0.20507,-0.537109 -0.73242,-0.849609 -0.51758,-0.322266 -1.2207,-0.322266 -1.12305,0 -1.94336,0.712891 -0.81055,0.71289 -0.81055,2.705078 v 5.664062 z m 17.89063,-3.798828 1.72851,0.224609 q -0.2832,1.78711 -1.45508,2.802735 -1.16211,1.005859 -2.86133,1.005859 -2.1289,0 -3.42773,-1.386719 -1.28906,-1.396484 -1.28906,-3.99414 0,-1.679688 0.55664,-2.939453 0.55664,-1.259766 1.68945,-1.884766 1.14258,-0.634766 2.48047,-0.634766 1.68945,0 2.76367,0.859375 1.07422,0.84961 1.37696,2.421875 l -1.70899,0.263672 q -0.24414,-1.044922 -0.86914,-1.572265 -0.61523,-0.527344 -1.49414,-0.527344 -1.32813,0 -2.1582,0.957031 -0.83008,0.947266 -0.83008,3.007813 0,2.089843 0.80078,3.037109 0.80078,0.947266 2.08984,0.947266 1.03516,0 1.72852,-0.634766 0.69336,-0.634766 0.87891,-1.953125 z m 10.33203,0.458984 1.8164,0.22461 q -0.42968,1.591797 -1.59179,2.470703 -1.16211,0.878906 -2.96875,0.878906 -2.27539,0 -3.61329,-1.396484 -1.32812,-1.40625 -1.32812,-3.935547 0,-2.617188 1.34766,-4.0625 1.34765,-1.445313 3.49609,-1.445313 2.08008,0 3.39844,1.416016 1.31836,1.416016 1.31836,3.984375 0,0.15625 -0.01,0.46875 h -7.73437 q 0.0976,1.708984 0.96679,2.617188 0.86914,0.908203 2.16797,0.908203 0.9668,0 1.65039,-0.507813 0.6836,-0.507812 1.08399,-1.621094 z m -5.77149,-2.841796 h 5.79102 q -0.11719,-1.308594 -0.66406,-1.962891 -0.83985,-1.015625 -2.17774,-1.015625 -1.21094,0 -2.04101,0.810547 -0.82032,0.810547 -0.90821,2.167969 z"
       id="flowRoot3290"
       transform="translate(69.99981,506.22293)"
       aria-label="CloudBalance" />
    <path
       id="path3298"
       d="m 410,550.00002 c -120,0 -320,0 -320,-300.00002"
       style="color:#000000;fill:none;stroke:#000000;stroke-width:1px;stroke-linecap:round;stroke-linejoin:round;stroke-miterlimit:4;stroke-opacity:1;stroke-dasharray:none;stroke-dashoffset:0;marker:none;visibility:visible;display:inline;overflow:visible;enable-background:accumulate" />
    <path
       style="color:#000000;fill:none;stroke:#000000;stroke-width:1px;stroke-linecap:round;stroke-linejoin:round;stroke-miterlimit:4;stroke-opacity:1;stroke-dasharray:none;stroke-dashoffset:0;marker:none;visibility:visible;display:inline;overflow:visible;enable-background:accumulate"
       d="m 510,460 -2.1e-4,-30"
       id="path3300" />
    <path
       style="color:#000000;fill:none;stroke:#000000;stroke-width:1px;stroke-linecap:round;stroke-linejoin:round;stroke-miterlimit:4;stroke-opacity:1;stroke-dasharray:none;stroke-dashoffset:0;marker:none;visibility:visible;display:inline;overflow:visible;enable-background:accumulate"
       d="m 499.99979,440 10,-10 10,10"
       id="path3302" />
    <path
       style="font-size:16px;line-height:1.25;font-family:'Liberation Sans';-inkscape-font-specification:'Liberation Sans, Normal'"
       d="m 4.9453125,120.8066 0.359375,-1.10937 q 1.2421875,0.4375 1.8046875,0.75781 -0.1484375,-1.41406 -0.15625,-1.94531 h 1.1328125 q -0.023437,0.77343 -0.1796875,1.9375 0.8046875,-0.40625 1.84375,-0.75 l 0.359375,1.10937 q -0.9921875,0.32813 -1.9453125,0.4375 0.4765625,0.41406 1.34375,1.47656 l -0.9375,0.66407 Q 8.1171875,122.76754 7.5,121.70504 6.921875,122.8066 6.484375,123.38473 L 5.5625,122.72066 q 0.90625,-1.11718 1.296875,-1.47656 -1.0078125,-0.19531 -1.9140625,-0.4375 z"
       id="flowRoot3304"
       transform="translate(519.99979,314.25478)"
       aria-label=" *" />
    <path
       style="color:#000000;fill:none;stroke:#000000;stroke-width:1px;stroke-linecap:round;stroke-linejoin:round;stroke-miterlimit:4;stroke-opacity:1;stroke-dasharray:none;stroke-dashoffset:0;marker:none;visibility:visible;display:inline;overflow:visible;enable-background:accumulate"
       d="m 80,260 10,-10 10,10"
       id="path3322" />
    <path
       style="font-size:16px;line-height:1.25;font-family:'Liberation Sans';-inkscape-font-specification:'Liberation Sans, Normal'"
       d="m 4.9453125,120.8066 0.359375,-1.10937 q 1.2421875,0.4375 1.8046875,0.75781 -0.1484375,-1.41406 -0.15625,-1.94531 h 1.1328125 q -0.023437,0.77343 -0.1796875,1.9375 0.8046875,-0.40625 1.84375,-0.75 l 0.359375,1.10937 q -0.9921875,0.32813 -1.9453125,0.4375 0.4765625,0.41406 1.34375,1.47656 l -0.9375,0.66407 Q 8.1171875,122.76754 7.5,121.70504 6.921875,122.8066 6.484375,123.38473 L 5.5625,122.72066 q 0.90625,-1.11718 1.296875,-1.47656 -1.0078125,-0.19531 -1.9140625,-0.4375 z"
       id="flowRoot3324"
       transform="translate(100,134.25478)"
       aria-label=" *" />
    <path
       style="color:#000000;fill:none;stroke:#ce5c00;stroke-width:1px;stroke-linecap:round;stroke-linejoin:round;stroke-miterlimit:4;stroke-opacity:1;stroke-dasharray:none;stroke-dashoffset:0;marker:none;visibility:visible;display:inline;overflow:visible;enable-background:accumulate"
       d="m 238.90685,188.62167 -10,0 0,10"
       id="path3332" />
    <path
       style="font-size:16px;line-height:1.25;font-family:'Liberation Sans';-inkscape-font-specification:'Liberation Sans, Normal';text-align:center;text-anchor:middle;fill:#ce5c00"
       d="m 18.800781,148.65816 h -1.40625 v -8.96093 q -0.507812,0.48437 -1.335937,0.96875 -0.820313,0.48437 -1.476563,0.72656 v -1.35938 q 1.179688,-0.55468 2.0625,-1.34375 0.882813,-0.78906 1.25,-1.53125 h 0.90625 z"
       id="flowRoot3334"
       transform="translate(212.71094,65.75478)"
       aria-label="1" />
    <path
       style="font-size:20px;line-height:1.25;font-family:'Liberation Sans';-inkscape-font-specification:'Liberation Sans, Normal';text-align:center;text-anchor:middle"
       d="m 382.82031,296.7729 1.89453,0.47852 q -0.5957,2.33398 -2.14843,3.56445 -1.54297,1.2207 -3.7793,1.2207 -2.31445,0 -3.76953,-0.9375 -1.44531,-0.94726 -2.20703,-2.73437 -0.75196,-1.78711 -0.75196,-3.83789 0,-2.23633 0.84961,-3.89649 0.85938,-1.66992 2.43164,-2.52929 1.58203,-0.86914 3.47657,-0.86914 2.14843,0 3.61328,1.09375 1.46484,1.09375 2.04101,3.07617 l -1.86523,0.43945 q -0.49805,-1.5625 -1.44531,-2.27539 -0.94727,-0.71289 -2.38282,-0.71289 -1.65039,0 -2.76367,0.79101 -1.10351,0.79102 -1.55273,2.12891 -0.44922,1.32813 -0.44922,2.74414 0,1.82617 0.52734,3.19336 0.53711,1.35742 1.66016,2.03125 1.12305,0.67383 2.43164,0.67383 1.5918,0 2.69531,-0.91797 1.10352,-0.91797 1.49414,-2.72461 z m 3.96485,5.01953 v -14.3164 h 1.75781 v 14.3164 z m 3.82812,-5.18554 q 0,-2.88086 1.60156,-4.26758 1.33789,-1.15235 3.26172,-1.15235 2.13867,0 3.4961,1.40625 1.35742,1.39649 1.35742,3.86719 0,2.00195 -0.60547,3.1543 -0.5957,1.14258 -1.74805,1.77734 -1.14258,0.63477 -2.5,0.63477 -2.17773,0 -3.52539,-1.39649 -1.33789,-1.39648 -1.33789,-4.02343 z m 1.80664,0 q 0,1.99218 0.86914,2.98828 0.86914,0.98632 2.1875,0.98632 1.3086,0 2.17774,-0.99609 0.86914,-0.99609 0.86914,-3.03711 0,-1.92383 -0.87891,-2.91015 -0.86914,-0.9961 -2.16797,-0.9961 -1.31836,0 -2.1875,0.98633 -0.86914,0.98633 -0.86914,2.97852 z m 9.9707,5.18554 v -10.37109 h 1.58204 v 1.47461 q 1.14257,-1.70899 3.30078,-1.70899 0.9375,0 1.71875,0.3418 0.79101,0.33203 1.18164,0.87891 0.39062,0.54687 0.54687,1.29882 0.0977,0.48829 0.0977,1.70899 v 6.37695 h -1.75781 v -6.30859 q 0,-1.07422 -0.20508,-1.60156 -0.20508,-0.53711 -0.73242,-0.84961 -0.51758,-0.32227 -1.22071,-0.32227 -1.12304,0 -1.94336,0.71289 -0.81054,0.71289 -0.81054,2.70508 v 5.66406 z m 18.22266,-3.33984 1.81641,0.22461 q -0.42969,1.59179 -1.5918,2.4707 -1.16211,0.87891 -2.96875,0.87891 -2.27539,0 -3.61328,-1.39649 -1.32813,-1.40625 -1.32813,-3.93554 0,-2.61719 1.34766,-4.0625 1.34766,-1.44532 3.49609,-1.44532 2.08008,0 3.39844,1.41602 1.31836,1.41601 1.31836,3.98437 0,0.15625 -0.01,0.46875 h -7.73438 q 0.0977,1.70899 0.9668,2.61719 0.86914,0.9082 2.16797,0.9082 0.96679,0 1.65039,-0.50781 0.68359,-0.50781 1.08398,-1.62109 z m -5.77148,-2.8418 h 5.79101 q -0.11719,-1.30859 -0.66406,-1.96289 -0.83984,-1.01562 -2.17773,-1.01562 -1.21094,0 -2.04102,0.81054 -0.82031,0.81055 -0.9082,2.16797 z m 16.52343,6.18164 v -1.30859 q -0.98632,1.54297 -2.90039,1.54297 -1.24023,0 -2.28515,-0.6836 -1.03516,-0.68359 -1.61133,-1.90429 -0.56641,-1.23047 -0.56641,-2.82227 0,-1.55273 0.51758,-2.8125 0.51758,-1.26953 1.55274,-1.94336 1.03515,-0.67383 2.31445,-0.67383 0.9375,0 1.66992,0.40039 0.73242,0.39063 1.19141,1.02539 v -5.13671 h 1.74804 v 14.3164 z m -5.55664,-5.17578 q 0,1.99219 0.83985,2.97852 0.83984,0.98632 1.98242,0.98632 1.15234,0 1.95312,-0.9375 0.81055,-0.94726 0.81055,-2.88085 0,-2.12891 -0.82031,-3.125 -0.82031,-0.9961 -2.02149,-0.9961 -1.17187,0 -1.96289,0.95703 -0.78125,0.95703 -0.78125,3.01758 z m 14.80469,2.08008 1.73828,-0.27344 q 0.14649,1.04492 0.81055,1.60156 0.67383,0.55664 1.875,0.55664 1.21094,0 1.79687,-0.48828 0.58594,-0.49804 0.58594,-1.16211 0,-0.5957 -0.51758,-0.9375 -0.36132,-0.23437 -1.79687,-0.5957 -1.9336,-0.48828 -2.68555,-0.83984 -0.74219,-0.36133 -1.13281,-0.98633 -0.38086,-0.63477 -0.38086,-1.39649 0,-0.69335 0.3125,-1.27929 0.32227,-0.59571 0.86914,-0.98633 0.41016,-0.30273 1.11328,-0.50781 0.71289,-0.21485 1.52344,-0.21485 1.2207,0 2.13867,0.35157 0.92774,0.35156 1.36719,0.95703 0.43945,0.5957 0.60547,1.60156 l -1.71875,0.23437 q -0.11719,-0.80078 -0.6836,-1.25 -0.55664,-0.44921 -1.58203,-0.44921 -1.21094,0 -1.72851,0.40039 -0.51758,0.40039 -0.51758,0.9375 0,0.34179 0.21484,0.61523 0.21485,0.2832 0.67383,0.46875 0.26367,0.0977 1.55273,0.44922 1.86524,0.49805 2.59766,0.82031 0.74219,0.3125 1.16211,0.91797 0.41992,0.60547 0.41992,1.50391 0,0.8789 -0.51758,1.66015 -0.50781,0.77149 -1.47461,1.20118 -0.96679,0.41992 -2.1875,0.41992 -2.02148,0 -3.08593,-0.83985 -1.05469,-0.83984 -1.34766,-2.49023 z m 10.04883,-2.08984 q 0,-2.88086 1.60156,-4.26758 1.33789,-1.15235 3.26172,-1.15235 2.13867,0 3.49609,1.40625 1.35743,1.39649 1.35743,3.86719 0,2.00195 -0.60547,3.1543 -0.59571,1.14258 -1.74805,1.77734 -1.14258,0.63477 -2.5,0.63477 -2.17773,0 -3.52539,-1.39649 -1.33789,-1.39648 -1.33789,-4.02343 z m 1.80664,0 q 0,1.99218 0.86914,2.98828 0.86914,0.98632 2.1875,0.98632 1.30859,0 2.17773,-0.99609 0.86915,-0.99609 0.86915,-3.03711 0,-1.92383 -0.87891,-2.91015 -0.86914,-0.9961 -2.16797,-0.9961 -1.31836,0 -2.1875,0.98633 -0.86914,0.98633 -0.86914,2.97852 z m 9.93164,5.18554 v -14.3164 h 1.75781 v 14.3164 z m 11.2793,0 v -1.52344 q -1.21094,1.75782 -3.29102,1.75782 -0.91797,0 -1.71875,-0.35157 -0.79101,-0.35156 -1.18164,-0.8789 -0.38086,-0.53711 -0.53711,-1.3086 -0.10742,-0.51757 -0.10742,-1.64062 v -6.42578 h 1.75781 v 5.75195 q 0,1.37695 0.10742,1.85547 0.16602,0.69336 0.70313,1.09375 0.53711,0.39063 1.32812,0.39063 0.79102,0 1.48438,-0.4004 0.69336,-0.41015 0.97656,-1.10351 0.29297,-0.70313 0.29297,-2.03125 v -5.55664 h 1.75781 v 10.37109 z m 8.16406,-1.57226 0.25391,1.55273 q -0.74219,0.15625 -1.32813,0.15625 -0.95703,0 -1.48437,-0.30273 -0.52735,-0.30274 -0.74219,-0.79102 -0.21485,-0.49805 -0.21485,-2.08008 v -5.96679 h -1.28906 v -1.36719 h 1.28906 v -2.56836 l 1.74805,-1.05469 v 3.62305 h 1.76758 v 1.36719 h -1.76758 v 6.06445 q 0,0.75195 0.0879,0.9668 0.0977,0.21484 0.30274,0.34179 0.21484,0.12696 0.60547,0.12696 0.29296,0 0.77148,-0.0684 z m 1.72852,-10.72266 v -2.02148 h 1.75781 v 2.02148 z m 0,12.29492 v -10.37109 h 1.75781 v 10.37109 z m 3.77929,-5.18554 q 0,-2.88086 1.60156,-4.26758 1.3379,-1.15235 3.26172,-1.15235 2.13868,0 3.4961,1.40625 1.35742,1.39649 1.35742,3.86719 0,2.00195 -0.60547,3.1543 -0.5957,1.14258 -1.74805,1.77734 -1.14257,0.63477 -2.5,0.63477 -2.17773,0 -3.52539,-1.39649 -1.33789,-1.39648 -1.33789,-4.02343 z m 1.80664,0 q 0,1.99218 0.86914,2.98828 0.86914,0.98632 2.1875,0.98632 1.3086,0 2.17774,-0.99609 0.86914,-0.99609 0.86914,-3.03711 0,-1.92383 -0.87891,-2.91015 -0.86914,-0.9961 -2.16797,-0.9961 -1.31836,0 -2.1875,0.98633 -0.86914,0.98633 -0.86914,2.97852 z m 9.97071,5.18554 v -10.37109 h 1.58203 v 1.47461 q 1.14258,-1.70899 3.30078,-1.70899 0.9375,0 1.71875,0.3418 0.79101,0.33203 1.18164,0.87891 0.39062,0.54687 0.54687,1.29882 0.0977,0.48829 0.0977,1.70899 v 6.37695 h -1.75781 v -6.30859 q 0,-1.07422 -0.20508,-1.60156 -0.20508,-0.53711 -0.73242,-0.84961 -0.51758,-0.32227 -1.22071,-0.32227 -1.12304,0 -1.94335,0.71289 -0.81055,0.71289 -0.81055,2.70508 v 5.66406 z"
       id="flowRoot3355"
       transform="translate(70.000995,76.22291)"
       aria-label="Cloned solution" />
  </g>
</svg>
