<?xml version="1.0" encoding="UTF-8" standalone="no"?>
<!-- Created with Inkscape (http://www.inkscape.org/) -->

<svg
   id="svg2"
   width="160"
   height="190"
   version="1.0"
   xmlns="http://www.w3.org/2000/svg"
   xmlns:svg="http://www.w3.org/2000/svg"
   xmlns:rdf="http://www.w3.org/1999/02/22-rdf-syntax-ns#"
   xmlns:cc="http://creativecommons.org/ns#"
   xmlns:dc="http://purl.org/dc/elements/1.1/">
  <metadata
     id="metadata7">
    <rdf:RDF>
      <cc:Work
         rdf:about="">
        <dc:format>image/svg+xml</dc:format>
        <dc:type
           rdf:resource="http://purl.org/dc/dcmitype/StillImage" />
        <dc:language>en</dc:language>
        <cc:license
           rdf:resource="https://timefold.ai/license" />
      </cc:Work>
    </rdf:RDF>
  </metadata>
  <defs
     id="defs5" />
  <g
     id="layer8">
    <g
       id="g8089"
       transform="translate(-75,-812.36218)">
      <rect
         y="921.86218"
         x="100.5"
         height="30"
         width="30"
         id="rect2165"
         style="fill:#babdb6;fill-opacity:1;fill-rule:nonzero;stroke:#000000;stroke-width:1;stroke-linecap:round;stroke-linejoin:round;stroke-miterlimit:4;stroke-dasharray:none;stroke-opacity:1" />
      <rect
         y="921.86218"
         x="130.5"
         height="30"
         width="30"
         id="rect4107"
         style="fill:#ffffff;fill-opacity:1;fill-rule:nonzero;stroke:#000000;stroke-width:1;stroke-linecap:round;stroke-linejoin:round;stroke-miterlimit:4;stroke-dasharray:none;stroke-opacity:1" />
      <rect
         y="921.86218"
         x="160.5"
         height="30"
         width="30"
         id="rect5078"
         style="fill:#babdb6;fill-opacity:1;fill-rule:nonzero;stroke:#000000;stroke-width:1;stroke-linecap:round;stroke-linejoin:round;stroke-miterlimit:4;stroke-dasharray:none;stroke-opacity:1" />
      <rect
         y="921.86218"
         x="190.5"
         height="30"
         width="30"
         id="rect5080"
         style="fill:#ffffff;fill-opacity:1;fill-rule:nonzero;stroke:#000000;stroke-width:1;stroke-linecap:round;stroke-linejoin:round;stroke-miterlimit:4;stroke-dasharray:none;stroke-opacity:1" />
      <rect
         y="891.86218"
         x="130.5"
         height="30"
         width="30"
         id="rect5082"
         style="fill:#babdb6;fill-opacity:1;fill-rule:nonzero;stroke:#000000;stroke-width:1;stroke-linecap:round;stroke-linejoin:round;stroke-miterlimit:4;stroke-dasharray:none;stroke-opacity:1" />
      <rect
         y="891.86218"
         x="160.5"
         height="30"
         width="30"
         id="rect5084"
         style="fill:#ffffff;fill-opacity:1;fill-rule:nonzero;stroke:#000000;stroke-width:1;stroke-linecap:round;stroke-linejoin:round;stroke-miterlimit:4;stroke-dasharray:none;stroke-opacity:1" />
      <rect
         y="891.86218"
         x="100.5"
         height="30"
         width="30"
         id="rect5086"
         style="fill:#ffffff;fill-opacity:1;fill-rule:nonzero;stroke:#000000;stroke-width:1;stroke-linecap:round;stroke-linejoin:round;stroke-miterlimit:4;stroke-dasharray:none;stroke-opacity:1" />
      <rect
         y="891.86218"
         x="190.5"
         height="30"
         width="30"
         id="rect5088"
         style="fill:#babdb6;fill-opacity:1;fill-rule:nonzero;stroke:#000000;stroke-width:1;stroke-linecap:round;stroke-linejoin:round;stroke-miterlimit:4;stroke-dasharray:none;stroke-opacity:1" />
      <rect
         y="861.86218"
         x="100.5"
         height="30"
         width="30"
         id="rect5090"
         style="fill:#babdb6;fill-opacity:1;fill-rule:nonzero;stroke:#000000;stroke-width:1;stroke-linecap:round;stroke-linejoin:round;stroke-miterlimit:4;stroke-dasharray:none;stroke-opacity:1" />
      <rect
         y="861.86218"
         x="130.5"
         height="30"
         width="30"
         id="rect5092"
         style="fill:#ffffff;fill-opacity:1;fill-rule:nonzero;stroke:#000000;stroke-width:1;stroke-linecap:round;stroke-linejoin:round;stroke-miterlimit:4;stroke-dasharray:none;stroke-opacity:1" />
      <rect
         y="861.86218"
         x="160.5"
         height="30"
         width="30"
         id="rect5094"
         style="fill:#babdb6;fill-opacity:1;fill-rule:nonzero;stroke:#000000;stroke-width:1;stroke-linecap:round;stroke-linejoin:round;stroke-miterlimit:4;stroke-dasharray:none;stroke-opacity:1" />
      <rect
         y="861.86218"
         x="190.5"
         height="30"
         width="30"
         id="rect5096"
         style="fill:#ffffff;fill-opacity:1;fill-rule:nonzero;stroke:#000000;stroke-width:1;stroke-linecap:round;stroke-linejoin:round;stroke-miterlimit:4;stroke-dasharray:none;stroke-opacity:1" />
      <rect
         y="831.86218"
         x="130.5"
         height="30"
         width="30"
         id="rect5098"
         style="fill:#babdb6;fill-opacity:1;fill-rule:nonzero;stroke:#000000;stroke-width:1;stroke-linecap:round;stroke-linejoin:round;stroke-miterlimit:4;stroke-dasharray:none;stroke-opacity:1" />
      <rect
         y="831.86218"
         x="160.5"
         height="30"
         width="30"
         id="rect5100"
         style="fill:#ffffff;fill-opacity:1;fill-rule:nonzero;stroke:#000000;stroke-width:1;stroke-linecap:round;stroke-linejoin:round;stroke-miterlimit:4;stroke-dasharray:none;stroke-opacity:1" />
      <rect
         y="831.86218"
         x="100.5"
         height="30"
         width="30"
         id="rect5102"
         style="fill:#ffffff;fill-opacity:1;fill-rule:nonzero;stroke:#000000;stroke-width:1;stroke-linecap:round;stroke-linejoin:round;stroke-miterlimit:4;stroke-dasharray:none;stroke-opacity:1" />
      <rect
         y="831.86218"
         x="190.5"
         height="30"
         width="30"
         id="rect5104"
         style="fill:#babdb6;fill-opacity:1;fill-rule:nonzero;stroke:#000000;stroke-width:1;stroke-linecap:round;stroke-linejoin:round;stroke-miterlimit:4;stroke-dasharray:none;stroke-opacity:1" />
    </g>
    <g
       id="g8075"
       transform="translate(65,-852.36218)">
      <rect
         y="871.86218"
         x="50.5"
         height="30"
         width="30"
         id="rect5126"
         style="fill:none;fill-opacity:1;fill-rule:nonzero;stroke:#000000;stroke-width:1;stroke-linecap:round;stroke-linejoin:round;stroke-miterlimit:4;stroke-dasharray:none;stroke-opacity:1" />
      <path
         id="path8065"
         d="M 65,894.0583 60.259168,881.36218 60,894.31116 l 2.432525,0.55102 z"
         style="fill:#fce94f;fill-opacity:1;fill-rule:nonzero;stroke:#000000;stroke-width:1;stroke-linecap:round;stroke-linejoin:round;stroke-miterlimit:4;stroke-opacity:1" />
      <path
         id="path8069"
         d="M 66,894.0583 70.740832,881.36218 71,894.31116 l -2.432525,0.55102 z"
         style="fill:#fce94f;fill-opacity:1;fill-rule:nonzero;stroke:#000000;stroke-width:1;stroke-linecap:round;stroke-linejoin:round;stroke-miterlimit:4;stroke-opacity:1" />
      <path
         id="path8071"
         d="m 62,894.04086 -7,-11.17868 1.843843,11.43703 2.508496,0.56297 z"
         style="fill:#fce94f;fill-opacity:1;fill-rule:nonzero;stroke:#000000;stroke-width:1;stroke-linecap:round;stroke-linejoin:round;stroke-miterlimit:4;stroke-opacity:1" />
      <path
         id="path8073"
         d="m 69,894.04086 7,-11.17868 -1.843843,11.43703 -2.508496,0.56297 z"
         style="fill:#fce94f;fill-opacity:1;fill-rule:nonzero;stroke:#000000;stroke-width:1;stroke-linecap:round;stroke-linejoin:round;stroke-miterlimit:4;stroke-opacity:1" />
      <ellipse
         transform="matrix(0.3254386,0,0,0.2248485,49.68421,684.2765)"
         id="path8037"
         style="fill:#fce94f;fill-opacity:1;fill-rule:nonzero;stroke:#000000;stroke-width:3.69675;stroke-linecap:round;stroke-linejoin:round;stroke-miterlimit:4;stroke-dasharray:none;stroke-opacity:1"
         cx="31.698114"
         cy="874.30286"
         rx="6.1455526"
         ry="8.8948793" />
      <ellipse
         transform="matrix(0.3254386,0,0,0.2248485,60.68421,684.2765)"
         id="path8039"
         style="fill:#fce94f;fill-opacity:1;fill-rule:nonzero;stroke:#000000;stroke-width:3.69675;stroke-linecap:round;stroke-linejoin:round;stroke-miterlimit:4;stroke-dasharray:none;stroke-opacity:1"
         cx="31.698114"
         cy="874.30286"
         rx="6.1455526"
         ry="8.8948793" />
      <ellipse
         transform="matrix(0.3254386,0,0,0.2248485,44.18421,686.2765)"
         id="path8041"
         style="fill:#fce94f;fill-opacity:1;fill-rule:nonzero;stroke:#000000;stroke-width:3.69675;stroke-linecap:round;stroke-linejoin:round;stroke-miterlimit:4;stroke-dasharray:none;stroke-opacity:1"
         cx="31.698114"
         cy="874.30286"
         rx="6.1455526"
         ry="8.8948793" />
      <ellipse
         transform="matrix(0.3254386,0,0,0.2248485,66.18421,686.2765)"
         id="path8043"
         style="fill:#fce94f;fill-opacity:1;fill-rule:nonzero;stroke:#000000;stroke-width:3.69675;stroke-linecap:round;stroke-linejoin:round;stroke-miterlimit:4;stroke-dasharray:none;stroke-opacity:1"
         cx="31.698114"
         cy="874.30286"
         rx="6.1455526"
         ry="8.8948793" />
      <path
         id="path8061"
         d="m 68.000002,894.0957 -2.493104,-13.23349 -2.506896,12.99749 2.368586,1.00251 z"
         style="fill:#fce94f;fill-opacity:1;fill-rule:nonzero;stroke:#000000;stroke-width:1;stroke-linecap:round;stroke-linejoin:round;stroke-miterlimit:4;stroke-opacity:1" />
      <ellipse
         transform="matrix(0.3254386,0,0,0.2248485,55.18421,683.2765)"
         id="path5124"
         style="fill:#fce94f;fill-opacity:1;fill-rule:nonzero;stroke:#000000;stroke-width:3.69675;stroke-linecap:round;stroke-linejoin:round;stroke-miterlimit:4;stroke-dasharray:none;stroke-opacity:1"
         cx="31.698114"
         cy="874.30286"
         rx="6.1455526"
         ry="8.8948793" />
      <ellipse
         transform="matrix(0.9454765,0,0,1.2119233,18.553015,-205.05171)"
         id="path5128"
         style="fill:#fce94f;fill-opacity:1;fill-rule:nonzero;stroke:#000000;stroke-width:0.934194;stroke-linecap:round;stroke-linejoin:round;stroke-miterlimit:4;stroke-dasharray:none;stroke-opacity:1"
         cx="49.654312"
         cy="907.57715"
         rx="10.047844"
         ry="1.6502695" />
    </g>
    <g
       id="g8107"
       transform="translate(35,-852.36218)">
      <rect
         y="871.86218"
         x="50.5"
         height="30"
         width="30"
         id="rect8109"
         style="fill:none;fill-opacity:1;fill-rule:nonzero;stroke:#000000;stroke-width:1;stroke-linecap:round;stroke-linejoin:round;stroke-miterlimit:4;stroke-dasharray:none;stroke-opacity:1" />
      <path
         id="path8111"
         d="M 65,894.0583 60.259168,881.36218 60,894.31116 l 2.432525,0.55102 z"
         style="fill:#fce94f;fill-opacity:1;fill-rule:nonzero;stroke:#000000;stroke-width:1;stroke-linecap:round;stroke-linejoin:round;stroke-miterlimit:4;stroke-opacity:1" />
      <path
         id="path8113"
         d="M 66,894.0583 70.740832,881.36218 71,894.31116 l -2.432525,0.55102 z"
         style="fill:#fce94f;fill-opacity:1;fill-rule:nonzero;stroke:#000000;stroke-width:1;stroke-linecap:round;stroke-linejoin:round;stroke-miterlimit:4;stroke-opacity:1" />
      <path
         id="path8115"
         d="m 62,894.04086 -7,-11.17868 1.843843,11.43703 2.508496,0.56297 z"
         style="fill:#fce94f;fill-opacity:1;fill-rule:nonzero;stroke:#000000;stroke-width:1;stroke-linecap:round;stroke-linejoin:round;stroke-miterlimit:4;stroke-opacity:1" />
      <path
         id="path8117"
         d="m 69,894.04086 7,-11.17868 -1.843843,11.43703 -2.508496,0.56297 z"
         style="fill:#fce94f;fill-opacity:1;fill-rule:nonzero;stroke:#000000;stroke-width:1;stroke-linecap:round;stroke-linejoin:round;stroke-miterlimit:4;stroke-opacity:1" />
      <ellipse
         transform="matrix(0.3254386,0,0,0.2248485,49.68421,684.2765)"
         id="path8119"
         style="fill:#fce94f;fill-opacity:1;fill-rule:nonzero;stroke:#000000;stroke-width:3.69675;stroke-linecap:round;stroke-linejoin:round;stroke-miterlimit:4;stroke-dasharray:none;stroke-opacity:1"
         cx="31.698114"
         cy="874.30286"
         rx="6.1455526"
         ry="8.8948793" />
      <ellipse
         transform="matrix(0.3254386,0,0,0.2248485,60.68421,684.2765)"
         id="path8121"
         style="fill:#fce94f;fill-opacity:1;fill-rule:nonzero;stroke:#000000;stroke-width:3.69675;stroke-linecap:round;stroke-linejoin:round;stroke-miterlimit:4;stroke-dasharray:none;stroke-opacity:1"
         cx="31.698114"
         cy="874.30286"
         rx="6.1455526"
         ry="8.8948793" />
      <ellipse
         transform="matrix(0.3254386,0,0,0.2248485,44.18421,686.2765)"
         id="path8123"
         style="fill:#fce94f;fill-opacity:1;fill-rule:nonzero;stroke:#000000;stroke-width:3.69675;stroke-linecap:round;stroke-linejoin:round;stroke-miterlimit:4;stroke-dasharray:none;stroke-opacity:1"
         cx="31.698114"
         cy="874.30286"
         rx="6.1455526"
         ry="8.8948793" />
      <ellipse
         transform="matrix(0.3254386,0,0,0.2248485,66.18421,686.2765)"
         id="path8125"
         style="fill:#fce94f;fill-opacity:1;fill-rule:nonzero;stroke:#000000;stroke-width:3.69675;stroke-linecap:round;stroke-linejoin:round;stroke-miterlimit:4;stroke-dasharray:none;stroke-opacity:1"
         cx="31.698114"
         cy="874.30286"
         rx="6.1455526"
         ry="8.8948793" />
      <path
         id="path8127"
         d="m 68.000002,894.0957 -2.493104,-13.23349 -2.506896,12.99749 2.368586,1.00251 z"
         style="fill:#fce94f;fill-opacity:1;fill-rule:nonzero;stroke:#000000;stroke-width:1;stroke-linecap:round;stroke-linejoin:round;stroke-miterlimit:4;stroke-opacity:1" />
      <ellipse
         transform="matrix(0.3254386,0,0,0.2248485,55.18421,683.2765)"
         id="path8129"
         style="fill:#fce94f;fill-opacity:1;fill-rule:nonzero;stroke:#000000;stroke-width:3.69675;stroke-linecap:round;stroke-linejoin:round;stroke-miterlimit:4;stroke-dasharray:none;stroke-opacity:1"
         cx="31.698114"
         cy="874.30286"
         rx="6.1455526"
         ry="8.8948793" />
      <ellipse
         transform="matrix(0.9454765,0,0,1.2119233,18.553015,-205.05171)"
         id="path8131"
         style="fill:#fce94f;fill-opacity:1;fill-rule:nonzero;stroke:#000000;stroke-width:0.934194;stroke-linecap:round;stroke-linejoin:round;stroke-miterlimit:4;stroke-dasharray:none;stroke-opacity:1"
         cx="49.654312"
         cy="907.57715"
         rx="10.047844"
         ry="1.6502695" />
    </g>
    <g
       id="g8133"
       transform="translate(4.9999999,-852.36218)">
      <rect
         y="871.86218"
         x="50.5"
         height="30"
         width="30"
         id="rect8135"
         style="fill:none;fill-opacity:1;fill-rule:nonzero;stroke:#000000;stroke-width:1;stroke-linecap:round;stroke-linejoin:round;stroke-miterlimit:4;stroke-dasharray:none;stroke-opacity:1" />
      <path
         id="path8137"
         d="M 65,894.0583 60.259168,881.36218 60,894.31116 l 2.432525,0.55102 z"
         style="fill:#fce94f;fill-opacity:1;fill-rule:nonzero;stroke:#000000;stroke-width:1;stroke-linecap:round;stroke-linejoin:round;stroke-miterlimit:4;stroke-opacity:1" />
      <path
         id="path8139"
         d="M 66,894.0583 70.740832,881.36218 71,894.31116 l -2.432525,0.55102 z"
         style="fill:#fce94f;fill-opacity:1;fill-rule:nonzero;stroke:#000000;stroke-width:1;stroke-linecap:round;stroke-linejoin:round;stroke-miterlimit:4;stroke-opacity:1" />
      <path
         id="path8141"
         d="m 62,894.04086 -7,-11.17868 1.843843,11.43703 2.508496,0.56297 z"
         style="fill:#fce94f;fill-opacity:1;fill-rule:nonzero;stroke:#000000;stroke-width:1;stroke-linecap:round;stroke-linejoin:round;stroke-miterlimit:4;stroke-opacity:1" />
      <path
         id="path8143"
         d="m 69,894.04086 7,-11.17868 -1.843843,11.43703 -2.508496,0.56297 z"
         style="fill:#fce94f;fill-opacity:1;fill-rule:nonzero;stroke:#000000;stroke-width:1;stroke-linecap:round;stroke-linejoin:round;stroke-miterlimit:4;stroke-opacity:1" />
      <ellipse
         transform="matrix(0.3254386,0,0,0.2248485,49.68421,684.2765)"
         id="path8145"
         style="fill:#fce94f;fill-opacity:1;fill-rule:nonzero;stroke:#000000;stroke-width:3.69675;stroke-linecap:round;stroke-linejoin:round;stroke-miterlimit:4;stroke-dasharray:none;stroke-opacity:1"
         cx="31.698114"
         cy="874.30286"
         rx="6.1455526"
         ry="8.8948793" />
      <ellipse
         transform="matrix(0.3254386,0,0,0.2248485,60.68421,684.2765)"
         id="path8147"
         style="fill:#fce94f;fill-opacity:1;fill-rule:nonzero;stroke:#000000;stroke-width:3.69675;stroke-linecap:round;stroke-linejoin:round;stroke-miterlimit:4;stroke-dasharray:none;stroke-opacity:1"
         cx="31.698114"
         cy="874.30286"
         rx="6.1455526"
         ry="8.8948793" />
      <ellipse
         transform="matrix(0.3254386,0,0,0.2248485,44.18421,686.2765)"
         id="path8149"
         style="fill:#fce94f;fill-opacity:1;fill-rule:nonzero;stroke:#000000;stroke-width:3.69675;stroke-linecap:round;stroke-linejoin:round;stroke-miterlimit:4;stroke-dasharray:none;stroke-opacity:1"
         cx="31.698114"
         cy="874.30286"
         rx="6.1455526"
         ry="8.8948793" />
      <ellipse
         transform="matrix(0.3254386,0,0,0.2248485,66.18421,686.2765)"
         id="path8151"
         style="fill:#fce94f;fill-opacity:1;fill-rule:nonzero;stroke:#000000;stroke-width:3.69675;stroke-linecap:round;stroke-linejoin:round;stroke-miterlimit:4;stroke-dasharray:none;stroke-opacity:1"
         cx="31.698114"
         cy="874.30286"
         rx="6.1455526"
         ry="8.8948793" />
      <path
         id="path8153"
         d="m 68.000002,894.0957 -2.493104,-13.23349 -2.506896,12.99749 2.368586,1.00251 z"
         style="fill:#fce94f;fill-opacity:1;fill-rule:nonzero;stroke:#000000;stroke-width:1;stroke-linecap:round;stroke-linejoin:round;stroke-miterlimit:4;stroke-opacity:1" />
      <ellipse
         transform="matrix(0.3254386,0,0,0.2248485,55.18421,683.2765)"
         id="path8155"
         style="fill:#fce94f;fill-opacity:1;fill-rule:nonzero;stroke:#000000;stroke-width:3.69675;stroke-linecap:round;stroke-linejoin:round;stroke-miterlimit:4;stroke-dasharray:none;stroke-opacity:1"
         cx="31.698114"
         cy="874.30286"
         rx="6.1455526"
         ry="8.8948793" />
      <ellipse
         transform="matrix(0.9454765,0,0,1.2119233,18.553015,-205.05171)"
         id="path8157"
         style="fill:#fce94f;fill-opacity:1;fill-rule:nonzero;stroke:#000000;stroke-width:0.934194;stroke-linecap:round;stroke-linejoin:round;stroke-miterlimit:4;stroke-dasharray:none;stroke-opacity:1"
         cx="49.654312"
         cy="907.57715"
         rx="10.047844"
         ry="1.6502695" />
    </g>
    <g
       id="g8159"
       transform="translate(-25,-852.36218)">
      <rect
         y="871.86218"
         x="50.5"
         height="30"
         width="30"
         id="rect8161"
         style="fill:none;fill-opacity:1;fill-rule:nonzero;stroke:#000000;stroke-width:1;stroke-linecap:round;stroke-linejoin:round;stroke-miterlimit:4;stroke-dasharray:none;stroke-opacity:1" />
      <path
         id="path8163"
         d="M 65,894.0583 60.259168,881.36218 60,894.31116 l 2.432525,0.55102 z"
         style="fill:#fce94f;fill-opacity:1;fill-rule:nonzero;stroke:#000000;stroke-width:1;stroke-linecap:round;stroke-linejoin:round;stroke-miterlimit:4;stroke-opacity:1" />
      <path
         id="path8165"
         d="M 66,894.0583 70.740832,881.36218 71,894.31116 l -2.432525,0.55102 z"
         style="fill:#fce94f;fill-opacity:1;fill-rule:nonzero;stroke:#000000;stroke-width:1;stroke-linecap:round;stroke-linejoin:round;stroke-miterlimit:4;stroke-opacity:1" />
      <path
         id="path8167"
         d="m 62,894.04086 -7,-11.17868 1.843843,11.43703 2.508496,0.56297 z"
         style="fill:#fce94f;fill-opacity:1;fill-rule:nonzero;stroke:#000000;stroke-width:1;stroke-linecap:round;stroke-linejoin:round;stroke-miterlimit:4;stroke-opacity:1" />
      <path
         id="path8169"
         d="m 69,894.04086 7,-11.17868 -1.843843,11.43703 -2.508496,0.56297 z"
         style="fill:#fce94f;fill-opacity:1;fill-rule:nonzero;stroke:#000000;stroke-width:1;stroke-linecap:round;stroke-linejoin:round;stroke-miterlimit:4;stroke-opacity:1" />
      <ellipse
         transform="matrix(0.3254386,0,0,0.2248485,49.68421,684.2765)"
         id="path8171"
         style="fill:#fce94f;fill-opacity:1;fill-rule:nonzero;stroke:#000000;stroke-width:3.69675;stroke-linecap:round;stroke-linejoin:round;stroke-miterlimit:4;stroke-dasharray:none;stroke-opacity:1"
         cx="31.698114"
         cy="874.30286"
         rx="6.1455526"
         ry="8.8948793" />
      <ellipse
         transform="matrix(0.3254386,0,0,0.2248485,60.68421,684.2765)"
         id="path8173"
         style="fill:#fce94f;fill-opacity:1;fill-rule:nonzero;stroke:#000000;stroke-width:3.69675;stroke-linecap:round;stroke-linejoin:round;stroke-miterlimit:4;stroke-dasharray:none;stroke-opacity:1"
         cx="31.698114"
         cy="874.30286"
         rx="6.1455526"
         ry="8.8948793" />
      <ellipse
         transform="matrix(0.3254386,0,0,0.2248485,44.18421,686.2765)"
         id="path8175"
         style="fill:#fce94f;fill-opacity:1;fill-rule:nonzero;stroke:#000000;stroke-width:3.69675;stroke-linecap:round;stroke-linejoin:round;stroke-miterlimit:4;stroke-dasharray:none;stroke-opacity:1"
         cx="31.698114"
         cy="874.30286"
         rx="6.1455526"
         ry="8.8948793" />
      <ellipse
         transform="matrix(0.3254386,0,0,0.2248485,66.18421,686.2765)"
         id="path8177"
         style="fill:#fce94f;fill-opacity:1;fill-rule:nonzero;stroke:#000000;stroke-width:3.69675;stroke-linecap:round;stroke-linejoin:round;stroke-miterlimit:4;stroke-dasharray:none;stroke-opacity:1"
         cx="31.698114"
         cy="874.30286"
         rx="6.1455526"
         ry="8.8948793" />
      <path
         id="path8179"
         d="m 68.000002,894.0957 -2.493104,-13.23349 -2.506896,12.99749 2.368586,1.00251 z"
         style="fill:#fce94f;fill-opacity:1;fill-rule:nonzero;stroke:#000000;stroke-width:1;stroke-linecap:round;stroke-linejoin:round;stroke-miterlimit:4;stroke-opacity:1" />
      <ellipse
         transform="matrix(0.3254386,0,0,0.2248485,55.18421,683.2765)"
         id="path8181"
         style="fill:#fce94f;fill-opacity:1;fill-rule:nonzero;stroke:#000000;stroke-width:3.69675;stroke-linecap:round;stroke-linejoin:round;stroke-miterlimit:4;stroke-dasharray:none;stroke-opacity:1"
         cx="31.698114"
         cy="874.30286"
         rx="6.1455526"
         ry="8.8948793" />
      <ellipse
         transform="matrix(0.9454765,0,0,1.2119233,18.553015,-205.05171)"
         id="path8183"
         style="fill:#fce94f;fill-opacity:1;fill-rule:nonzero;stroke:#000000;stroke-width:0.934194;stroke-linecap:round;stroke-linejoin:round;stroke-miterlimit:4;stroke-dasharray:none;stroke-opacity:1"
         cx="49.654312"
         cy="907.57715"
         rx="10.047844"
         ry="1.6502695" />
    </g>
    <g
       id="g6475"
       transform="matrix(1.0050252,0,0,1,-76.055293,-811.86221)">
      <path
         style="font-size:14.3304px;line-height:1.25;font-family:'Bitstream Vera Sans';stroke-width:1px"
         d="m 115.27544,863.81348 h -1.47642 l -1.0216,-2.90387 h -4.50624 l -1.0216,2.90387 h -1.40645 l 3.79252,-10.41893 h 1.84728 z m -2.92485,-4.0934 -1.82629,-5.11501 -1.83328,5.11501 z"
         id="text2242"
         transform="scale(1.0446886,0.9572231)"
         aria-label="A" />
      <path
         style="font-size:16.2874px;line-height:1.25;font-family:'Bitstream Vera Sans';stroke-width:1px"
         d="m 127.25295,978.13959 q 0,0.88276 -0.33402,1.55875 -0.33402,0.67599 -0.89867,1.1134 -0.66804,0.52488 -1.47127,0.74756 -0.79529,0.22268 -2.02797,0.22268 h -4.1991 v -11.84176 h 3.5072 q 1.29631,0 1.94049,0.0954 0.64418,0.0954 1.23269,0.39764 0.65213,0.34197 0.94639,0.88277 0.29425,0.53284 0.29425,1.2804 0,0.843 -0.42945,1.43946 -0.42946,0.58851 -1.14521,0.94639 v 0.0636 q 1.20088,0.24654 1.89277,1.05773 0.6919,0.80324 0.6919,2.03593 z m -2.64829,-5.33635 q 0,-0.42946 -0.14315,-0.72371 -0.14315,-0.29426 -0.46127,-0.47717 -0.37378,-0.21473 -0.90662,-0.26245 -0.53284,-0.0557 -1.32017,-0.0557 h -1.87687 v 3.41972 h 2.03593 q 0.73961,0 1.17701,-0.0716 0.43741,-0.0795 0.81119,-0.31812 0.37379,-0.23858 0.52489,-0.61236 0.15906,-0.38174 0.15906,-0.89867 z m 1.01001,5.39997 q 0,-0.71576 -0.21473,-1.13726 -0.21473,-0.4215 -0.77938,-0.71575 -0.38173,-0.19882 -0.93048,-0.25449 -0.54079,-0.0636 -1.32017,-0.0636 h -2.47333 v 4.40586 h 2.08364 q 1.03387,0 1.69396,-0.10338 0.66008,-0.11134 1.08158,-0.39764 0.44536,-0.31016 0.65213,-0.70781 0.20678,-0.39764 0.20678,-1.02591 z"
         id="text3336"
         transform="scale(1.1873587,0.8422055)"
         aria-label="B" />
      <path
         style="font-size:14.9965px;line-height:1.25;font-family:'Bitstream Vera Sans';stroke-width:1px"
         d="m 159.36162,936.87317 q -0.40274,0.17574 -0.73226,0.32951 -0.32219,0.15378 -0.84941,0.32219 -0.44667,0.13913 -0.97389,0.23432 -0.5199,0.10252 -1.14963,0.10252 -1.18625,0 -2.16015,-0.32951 -0.96657,-0.33684 -1.68417,-1.04712 -0.70296,-0.69564 -1.09838,-1.76473 -0.39541,-1.07641 -0.39541,-2.49697 0,-1.34735 0.38077,-2.40911 0.38077,-1.06176 1.09837,-1.79401 0.69564,-0.71029 1.67686,-1.08374 0.98854,-0.37344 2.18943,-0.37344 0.8787,0 1.75008,0.21235 0.8787,0.21235 1.94779,0.7469 v 1.72079 h -0.10984 q -0.90067,-0.75422 -1.7867,-1.09838 -0.88602,-0.34416 -1.89653,-0.34416 -0.82744,0 -1.49379,0.27093 -0.65902,0.26361 -1.17892,0.82745 -0.50525,0.54919 -0.79083,1.39127 -0.27826,0.83477 -0.27826,1.93315 0,1.14963 0.30755,1.97707 0.31487,0.82745 0.80547,1.34735 0.51258,0.54186 1.19357,0.80547 0.68832,0.25629 1.44986,0.25629 1.04712,0 1.96243,-0.3588 0.91532,-0.35881 1.71347,-1.07641 h 0.10252 z"
         id="text3344"
         transform="scale(1.1342596,0.8816324)"
         aria-label="C" />
      <path
         style="font-size:14.9616px;line-height:1.25;font-family:'Bitstream Vera Sans';stroke-width:1px"
         d="m 192.5503,896.43629 q 0,1.48301 -0.65019,2.68842 -0.64288,1.2054 -1.71678,1.8702 -0.74516,0.46024 -1.66565,0.66479 -0.91318,0.20456 -2.4108,0.20456 h -2.74686 v -10.87785 h 2.71763 q 1.5926,0 2.5277,0.23378 0.9424,0.22647 1.59259,0.62827 1.11043,0.69402 1.73139,1.84828 0.62097,1.15427 0.62097,2.73955 z m -1.51223,-0.0219 q 0,-1.27846 -0.44564,-2.15512 -0.44563,-0.87665 -1.32959,-1.38073 -0.64288,-0.36527 -1.36612,-0.50408 -0.72325,-0.14611 -1.7314,-0.14611 h -1.35882 v 8.39399 h 1.35882 q 1.04468,0 1.81906,-0.15342 0.78169,-0.15341 1.43187,-0.56982 0.81091,-0.51869 1.21271,-1.36613 0.40911,-0.84743 0.40911,-2.11858 z"
         id="text3348"
         transform="scale(1.0907069,0.9168366)"
         aria-label="D" />
    </g>
    <g
       id="g5272"
       transform="matrix(1.0301311,0,0,1.0069611,-79.120349,-818.92902)"
       style="fill:#e9b96e;stroke:#8f5902">
      <path
         style="fill:#e9b96e;fill-opacity:1;fill-rule:nonzero;stroke:#8f5902;stroke-width:0.981855;stroke-linecap:round;stroke-linejoin:round;stroke-miterlimit:4;stroke-opacity:1"
         d="m 176.27372,875.50558 1.98857,4.888 -9.8789,1.4686 3,-2.4576 c -7.41139,-1.7272 -8.26603,-12.2349 0,-26.5424 l 2,0.4915 c -7.40153,14.2897 -8.03072,23.0001 0,24.5763 z"
         id="path2341" />
      <path
         id="rect3222"
         d="m 176.27372,898.92974 1.98857,9.94465 -9.8789,2.98779 3,-5 c -7.41139,-3.51386 -8.26603,-24.89151 0,-54 l 2,1 c -7.40153,29.07205 -8.03072,46.79328 0,50 z"
         style="fill:#e9b96e;fill-opacity:1;fill-rule:nonzero;stroke:#8f5902;stroke-width:0.981855;stroke-linecap:round;stroke-linejoin:round;stroke-miterlimit:4;stroke-opacity:1" />
      <path
         style="fill:#e9b96e;fill-opacity:1;fill-rule:nonzero;stroke:#8f5902;stroke-width:0.981855;stroke-linecap:round;stroke-linejoin:round;stroke-miterlimit:4;stroke-opacity:1"
         d="m 176.27372,923.35392 1.98857,15.00126 -9.8789,4.507 3,-7.54237 c -7.41139,-5.30057 -8.26603,-37.54821 0,-81.45763 l 2,1.50847 c -7.40153,43.85445 -8.03072,70.58648 0,75.42374 z"
         id="path2343" />
      <path
         id="path2345"
         d="m 174.52384,843.1625 1.98857,4.888 -9.8789,1.4686 3,-2.4576 c -8.38339,-1.0424 -6.38339,-22.0424 7.86649,-7.07624 l -2.72806,-0.12307 c -8.52182,-7.84309 -10.52182,3.15691 -3.13843,5.72471 z"
         style="fill:#ef2929;fill-opacity:1;fill-rule:nonzero;stroke:#a40000;stroke-width:0.981855;stroke-linecap:round;stroke-linejoin:round;stroke-miterlimit:4;stroke-opacity:1" />
    </g>
    <g
       id="text3316"
       style="line-height:0%;font-family:'Bitstream Vera Sans';stroke-width:1px"
       aria-label="Not doable move&#10;(no change)">
      <path
         style="font-size:10px;line-height:1.25"
         d="m 56.37207,167.59766 h -1.196289 l -3.447265,-6.50391 v 6.50391 h -0.903321 v -7.27051 h 1.499024 l 3.144531,5.9375 v -5.9375 h 0.90332 z m 6.508789,-2.72461 q 0,1.333 -0.683593,2.10449 -0.683594,0.77148 -1.831055,0.77148 -1.157227,0 -1.84082,-0.77148 -0.678711,-0.77149 -0.678711,-2.10449 0,-1.33301 0.678711,-2.1045 0.683593,-0.77636 1.84082,-0.77636 1.147461,0 1.831055,0.77636 0.683593,0.77149 0.683593,2.1045 z m -0.947265,0 q 0,-1.05957 -0.415039,-1.57227 -0.415039,-0.51758 -1.152344,-0.51758 -0.74707,0 -1.162109,0.51758 -0.410157,0.5127 -0.410157,1.57227 0,1.02539 0.415039,1.55761 0.415039,0.52735 1.157227,0.52735 0.732422,0 1.147461,-0.52246 0.419922,-0.52735 0.419922,-1.5625 z m 5.200195,2.67578 q -0.258789,0.0684 -0.566406,0.1123 -0.302735,0.0439 -0.541992,0.0439 -0.834961,0 -1.269532,-0.44922 -0.43457,-0.44922 -0.43457,-1.44043 v -2.90039 h -0.620117 v -0.77149 h 0.620117 v -1.56738 h 0.917969 v 1.56738 h 1.894531 v 0.77149 h -1.894531 v 2.48535 q 0,0.42969 0.01953,0.67383 0.01953,0.23926 0.136719,0.44922 0.107422,0.19531 0.292969,0.28808 0.190429,0.0879 0.576171,0.0879 0.22461,0 0.46875,-0.0635 0.244141,-0.0684 0.351563,-0.11231 h 0.04883 z m 9.047852,0.0488 h -0.917969 v -0.57129 q -0.395508,0.34179 -0.825195,0.53222 -0.429688,0.19043 -0.932618,0.19043 -0.976562,0 -1.552734,-0.75195 -0.571289,-0.75195 -0.571289,-2.08496 0,-0.69336 0.195312,-1.23535 0.200196,-0.54199 0.53711,-0.92285 0.332031,-0.3711 0.771484,-0.56641 0.444336,-0.19531 0.917969,-0.19531 0.429687,0 0.761719,0.0928 0.332031,0.0879 0.698242,0.27832 V 160 h 0.917969 z m -0.917969,-1.34278 V 163.125 q -0.371094,-0.16602 -0.664063,-0.22949 -0.292968,-0.0635 -0.639648,-0.0635 -0.771484,0 -1.201172,0.53711 -0.429687,0.53711 -0.429687,1.52344 0,0.97168 0.332031,1.47949 0.332031,0.50293 1.064453,0.50293 0.390625,0 0.791016,-0.1709 0.40039,-0.17578 0.74707,-0.44922 z m 7.373047,-1.38183 q 0,1.333 -0.683594,2.10449 -0.683594,0.77148 -1.831055,0.77148 -1.157226,0 -1.84082,-0.77148 -0.678711,-0.77149 -0.678711,-2.10449 0,-1.33301 0.678711,-2.1045 0.683594,-0.77636 1.84082,-0.77636 1.147461,0 1.831055,0.77636 0.683594,0.77149 0.683594,2.1045 z m -0.947266,0 q 0,-1.05957 -0.415039,-1.57227 -0.415039,-0.51758 -1.152344,-0.51758 -0.74707,0 -1.162109,0.51758 -0.410156,0.5127 -0.410156,1.57227 0,1.02539 0.415039,1.55761 0.415039,0.52735 1.157226,0.52735 0.732422,0 1.147461,-0.52246 0.419922,-0.52735 0.419922,-1.5625 z m 6.606445,2.72461 h -0.913086 v -0.58106 q -0.12207,0.083 -0.332031,0.23438 -0.205078,0.14648 -0.40039,0.23437 -0.229493,0.11231 -0.527344,0.18555 -0.297852,0.0781 -0.698242,0.0781 -0.737305,0 -1.25,-0.48828 -0.512696,-0.48828 -0.512696,-1.24512 0,-0.62011 0.263672,-1.00097 0.268555,-0.38574 0.761719,-0.60547 0.498047,-0.21973 1.196289,-0.29785 0.698242,-0.0781 1.499023,-0.11719 v -0.1416 q 0,-0.3125 -0.112304,-0.51758 -0.107422,-0.20508 -0.3125,-0.32226 -0.195313,-0.11231 -0.46875,-0.15137 -0.273438,-0.0391 -0.571289,-0.0391 -0.361328,0 -0.805664,0.0976 -0.444336,0.0928 -0.917969,0.27344 h -0.04883 v -0.93262 q 0.268554,-0.0732 0.776367,-0.16113 0.507812,-0.0879 1.000977,-0.0879 0.576171,0 1.000976,0.0977 0.429688,0.0928 0.742188,0.32227 0.307617,0.22461 0.46875,0.58106 0.161132,0.35644 0.161132,0.88378 z m -0.913086,-1.34278 v -1.51855 q -0.419921,0.0244 -0.99121,0.0732 -0.566407,0.0488 -0.898438,0.1416 -0.395508,0.11231 -0.639648,0.35156 -0.244141,0.23438 -0.244141,0.64942 0,0.46875 0.283203,0.70801 0.283203,0.23437 0.864258,0.23437 0.483398,0 0.883789,-0.18555 0.400391,-0.19043 0.742187,-0.4541 z m 7.480469,-1.42578 q 0,0.6836 -0.195312,1.23047 -0.19043,0.54688 -0.517578,0.91797 -0.34668,0.38574 -0.761719,0.58105 -0.415039,0.19043 -0.913086,0.19043 -0.463867,0 -0.810547,-0.1123 -0.34668,-0.10742 -0.683594,-0.29297 l -0.05859,0.25391 H 90.063477 V 160 h 0.917968 v 2.71484 q 0.385742,-0.31738 0.820313,-0.51757 0.43457,-0.20508 0.976562,-0.20508 0.966797,0 1.523438,0.74218 0.561523,0.74219 0.561523,2.09473 z m -0.947265,0.0244 q 0,-0.97657 -0.322266,-1.4795 -0.322266,-0.50781 -1.040039,-0.50781 -0.400391,0 -0.810547,0.17578 -0.410156,0.1709 -0.761719,0.44434 v 3.125 q 0.390625,0.17578 0.668946,0.24414 0.283203,0.0684 0.639648,0.0684 0.761719,0 1.191406,-0.49805 0.434571,-0.50293 0.434571,-1.57226 z m 3.305664,2.74414 H 96.303711 V 160 h 0.917969 z m 6.38184,-2.63184 h -4.018559 q 0,0.50293 0.151367,0.87891 0.151367,0.37109 0.415042,0.61035 0.2539,0.23437 0.60058,0.35156 0.35157,0.11719 0.77149,0.11719 0.55664,0 1.11816,-0.21973 0.56641,-0.22461 0.80567,-0.43945 h 0.0488 v 1.00097 q -0.46386,0.19532 -0.94726,0.32715 -0.4834,0.13184 -1.01563,0.13184 -1.35742,0 -2.119138,-0.73242 -0.761718,-0.73731 -0.761718,-2.08985 0,-1.33789 0.727539,-2.12402 0.732417,-0.78613 1.923827,-0.78613 1.10352,0 1.69922,0.64453 0.60059,0.64453 0.60059,1.83105 z m -0.89356,-0.70312 q -0.005,-0.72266 -0.36621,-1.11817 -0.35645,-0.39551 -1.08887,-0.39551 -0.7373,0 -1.17675,0.43457 -0.434575,0.43457 -0.493169,1.07911 z m 13.75977,3.33496 h -0.91797 v -3.10547 q 0,-0.35157 -0.0342,-0.67871 -0.0293,-0.32715 -0.13184,-0.52246 -0.1123,-0.20997 -0.32226,-0.31739 -0.20996,-0.10742 -0.60547,-0.10742 -0.38574,0 -0.77149,0.19531 -0.38574,0.19043 -0.77148,0.48828 0.0146,0.11231 0.0244,0.26368 0.01,0.14648 0.01,0.29297 v 3.49121 h -0.91797 v -3.10547 q 0,-0.36133 -0.0342,-0.6836 -0.0293,-0.32714 -0.13184,-0.52246 -0.1123,-0.20996 -0.32226,-0.3125 -0.20996,-0.10742 -0.60547,-0.10742 -0.37598,0 -0.75684,0.18555 -0.37597,0.18554 -0.75195,0.47363 v 4.07227 h -0.91797 v -5.45411 h 0.91797 v 0.60547 q 0.42969,-0.35644 0.85449,-0.55664 0.42969,-0.20019 0.91309,-0.20019 0.55664,0 0.94238,0.23437 0.39063,0.23438 0.58106,0.64942 0.55664,-0.46875 1.01562,-0.67383 0.45899,-0.20996 0.98145,-0.20996 0.89843,0 1.32324,0.54687 0.42969,0.54199 0.42969,1.51856 z m 6.41601,-2.72461 q 0,1.333 -0.68359,2.10449 -0.6836,0.77148 -1.83106,0.77148 -1.15722,0 -1.84082,-0.77148 -0.67871,-0.77149 -0.67871,-2.10449 0,-1.33301 0.67871,-2.1045 0.6836,-0.77636 1.84082,-0.77636 1.14746,0 1.83106,0.77636 0.68359,0.77149 0.68359,2.1045 z m -0.94726,0 q 0,-1.05957 -0.41504,-1.57227 -0.41504,-0.51758 -1.15235,-0.51758 -0.74707,0 -1.16211,0.51758 -0.41015,0.5127 -0.41015,1.57227 0,1.02539 0.41504,1.55761 0.41504,0.52735 1.15722,0.52735 0.73243,0 1.14746,-0.52246 0.41993,-0.52735 0.41993,-1.5625 z m 7.01172,-2.7295 -2.20704,5.45411 h -0.92285 l -2.19238,-5.45411 h 0.99609 l 1.68946,4.34082 1.6748,-4.34082 z m 5.67871,2.82227 h -4.01856 q 0,0.50293 0.15137,0.87891 0.15137,0.37109 0.41504,0.61035 0.2539,0.23437 0.60058,0.35156 0.35157,0.11719 0.77149,0.11719 0.55664,0 1.11816,-0.21973 0.56641,-0.22461 0.80567,-0.43945 h 0.0488 v 1.00097 q -0.46386,0.19532 -0.94726,0.32715 -0.4834,0.13184 -1.01563,0.13184 -1.35742,0 -2.11914,-0.73242 -0.76172,-0.73731 -0.76172,-2.08985 0,-1.33789 0.72754,-2.12402 0.73243,-0.78613 1.92383,-0.78613 1.10352,0 1.69922,0.64453 0.60059,0.64453 0.60059,1.83105 z m -0.89356,-0.70312 q -0.005,-0.72266 -0.36621,-1.11817 -0.35644,-0.39551 -1.08887,-0.39551 -0.7373,0 -1.17675,0.43457 -0.43457,0.43457 -0.49317,1.07911 z"
         id="path1" />
      <path
         style="font-size:10px;line-height:1.25"
         d="m 53.671875,182.10937 h -1.118164 q -0.864258,-0.99121 -1.342774,-2.16308 -0.478515,-1.17188 -0.478515,-2.6416 0,-1.46973 0.478515,-2.6416 0.478516,-1.17188 1.342774,-2.16309 h 1.118164 v 0.0488 q -0.395508,0.35644 -0.756836,0.82519 -0.356445,0.46387 -0.664062,1.08399 -0.292969,0.60058 -0.478516,1.32324 -0.180664,0.72266 -0.180664,1.52344 0,0.83496 0.175781,1.52832 0.180664,0.69336 0.483399,1.31836 0.292968,0.60058 0.668945,1.08398 0.375976,0.48828 0.751953,0.8252 z m 6.181641,-2.01171 h -0.917969 v -3.10547 q 0,-0.37598 -0.04395,-0.70313 -0.04395,-0.33203 -0.161133,-0.51758 -0.122071,-0.20507 -0.351563,-0.30273 -0.229492,-0.10254 -0.595703,-0.10254 -0.375976,0 -0.786133,0.18555 -0.410156,0.18554 -0.786133,0.47363 v 4.07227 h -0.917968 v -5.45411 h 0.917968 v 0.60547 q 0.429688,-0.35644 0.888672,-0.55664 0.458985,-0.20019 0.942383,-0.20019 0.883789,0 1.347656,0.53222 0.463868,0.53223 0.463868,1.53321 z m 6.416015,-2.72461 q 0,1.333 -0.683594,2.10449 -0.683593,0.77148 -1.831054,0.77148 -1.157227,0 -1.840821,-0.77148 -0.67871,-0.77149 -0.67871,-2.10449 0,-1.33301 0.67871,-2.1045 0.683594,-0.77636 1.840821,-0.77636 1.147461,0 1.831054,0.77636 0.683594,0.77149 0.683594,2.1045 z m -0.947265,0 q 0,-1.05957 -0.415039,-1.57227 -0.41504,-0.51758 -1.152344,-0.51758 -0.747071,0 -1.16211,0.51758 -0.410156,0.5127 -0.410156,1.57227 0,1.02539 0.415039,1.55761 0.415039,0.52735 1.157227,0.52735 0.732422,0 1.147461,-0.52246 0.419922,-0.52735 0.419922,-1.5625 z m 9.916992,2.38281 q -0.458985,0.21973 -0.874024,0.3418 -0.410156,0.12207 -0.874023,0.12207 -0.59082,0 -1.083984,-0.1709 -0.493165,-0.17578 -0.844727,-0.52735 -0.356445,-0.35156 -0.551758,-0.88867 -0.195312,-0.53711 -0.195312,-1.25488 0,-1.33789 0.732422,-2.09961 0.737304,-0.76172 1.943359,-0.76172 0.46875,0 0.917969,0.13184 0.454101,0.13183 0.830078,0.32226 v 1.02051 h -0.04883 q -0.419922,-0.32715 -0.869141,-0.50293 -0.444336,-0.17578 -0.869141,-0.17578 -0.78125,0 -1.235351,0.52734 -0.449219,0.52246 -0.449219,1.53809 0,0.98633 0.439453,1.51855 0.444336,0.52735 1.245117,0.52735 0.278321,0 0.566407,-0.0732 0.288086,-0.0733 0.517578,-0.19043 0.200195,-0.10254 0.375976,-0.21485 0.175782,-0.11719 0.278321,-0.20019 h 0.04883 z m 5.737304,0.3418 h -0.917968 v -3.10547 q 0,-0.37598 -0.04395,-0.70313 -0.04394,-0.33203 -0.161132,-0.51758 -0.122071,-0.20507 -0.351563,-0.30273 -0.229492,-0.10254 -0.595703,-0.10254 -0.375977,0 -0.786133,0.18555 -0.410156,0.18554 -0.786133,0.47363 v 4.07227 H 76.416016 V 172.5 h 0.917968 v 2.74902 q 0.429688,-0.35644 0.888672,-0.55664 0.458985,-0.20019 0.942383,-0.20019 0.883789,0 1.347656,0.53222 0.463867,0.53223 0.463867,1.53321 z m 6.00586,0 h -0.913086 v -0.58106 q -0.12207,0.083 -0.332031,0.23438 -0.205078,0.14648 -0.400391,0.23437 -0.229492,0.11231 -0.527344,0.18555 -0.297851,0.0781 -0.698242,0.0781 -0.737305,0 -1.25,-0.48828 -0.512695,-0.48828 -0.512695,-1.24512 0,-0.62011 0.263672,-1.00097 0.268554,-0.38574 0.761718,-0.60547 0.498047,-0.21973 1.196289,-0.29785 0.698243,-0.0781 1.499024,-0.11719 v -0.1416 q 0,-0.3125 -0.112305,-0.51758 -0.107422,-0.20508 -0.3125,-0.32226 -0.195312,-0.11231 -0.46875,-0.15137 -0.273437,-0.0391 -0.571289,-0.0391 -0.361328,0 -0.805664,0.0976 -0.444336,0.0928 -0.917969,0.27344 h -0.04883 v -0.93262 q 0.268555,-0.0732 0.776367,-0.16113 0.507813,-0.0879 1.000977,-0.0879 0.576172,0 1.000977,0.0977 0.429687,0.0928 0.742187,0.32227 0.307617,0.22461 0.46875,0.58106 0.161133,0.35644 0.161133,0.88378 z m -0.913086,-1.34278 v -1.51855 q -0.419922,0.0244 -0.991211,0.0732 -0.566406,0.0488 -0.898438,0.1416 -0.395507,0.11231 -0.639648,0.35156 -0.244141,0.23438 -0.244141,0.64942 0,0.46875 0.283204,0.70801 0.283203,0.23437 0.864257,0.23437 0.483399,0 0.883789,-0.18555 0.400391,-0.19043 0.742188,-0.4541 z m 7.241211,1.34278 h -0.917969 v -3.10547 q 0,-0.37598 -0.04394,-0.70313 -0.04395,-0.33203 -0.161133,-0.51758 -0.12207,-0.20507 -0.351563,-0.30273 -0.229492,-0.10254 -0.595703,-0.10254 -0.375976,0 -0.786132,0.18555 -0.410157,0.18554 -0.786133,0.47363 v 4.07227 H 88.75 v -5.45411 h 0.917969 v 0.60547 q 0.429687,-0.35644 0.888672,-0.55664 0.458984,-0.20019 0.942382,-0.20019 0.883789,0 1.347657,0.53222 0.463867,0.53223 0.463867,1.53321 z m 6.191406,-0.62012 q 0,1.38672 -0.629883,2.03613 -0.629883,0.64942 -1.938476,0.64942 -0.434571,0 -0.84961,-0.0635 -0.410156,-0.0586 -0.810547,-0.1709 v -0.9375 h 0.04883 q 0.224609,0.0879 0.71289,0.21484 0.488281,0.13184 0.976563,0.13184 0.46875,0 0.776367,-0.1123 0.307617,-0.11231 0.478516,-0.3125 0.170898,-0.19043 0.24414,-0.45899 0.07324,-0.26855 0.07324,-0.60058 v -0.49805 q -0.415039,0.33203 -0.795898,0.49805 -0.375977,0.16113 -0.961914,0.16113 -0.976563,0 -1.552735,-0.70313 -0.571289,-0.708 -0.571289,-1.99218 0,-0.70313 0.195313,-1.21094 0.200195,-0.5127 0.541992,-0.88379 0.317383,-0.34668 0.771484,-0.53711 0.454102,-0.19531 0.903321,-0.19531 0.473633,0 0.791015,0.0977 0.322266,0.0928 0.678711,0.28809 l 0.05859,-0.23438 h 0.859375 z m -0.917969,-0.87891 V 175.625 q -0.366211,-0.16602 -0.683593,-0.23438 -0.3125,-0.0732 -0.625,-0.0732 -0.756836,0 -1.191407,0.50782 -0.43457,0.50781 -0.43457,1.4746 0,0.91797 0.322266,1.39161 0.322265,0.47363 1.069336,0.47363 0.40039,0 0.800781,-0.15137 0.405273,-0.15625 0.742187,-0.41504 z m 7.290036,-1.13281 h -4.01855 q 0,0.50293 0.15137,0.87891 0.15136,0.37109 0.41504,0.61035 0.2539,0.23437 0.60058,0.35156 0.35156,0.11719 0.77149,0.11719 0.55664,0 1.11816,-0.21973 0.56641,-0.22461 0.80566,-0.43945 h 0.0488 v 1.00097 q -0.46387,0.19532 -0.94726,0.32715 -0.4834,0.13184 -1.01563,0.13184 -1.35742,0 -2.11914,-0.73242 -0.76172,-0.73731 -0.76172,-2.08985 0,-1.33789 0.72754,-2.12402 0.73242,-0.78613 1.92383,-0.78613 1.10351,0 1.69922,0.64453 0.60058,0.64453 0.60058,1.83105 z m -0.89355,-0.70312 q -0.005,-0.72266 -0.36621,-1.11817 -0.35645,-0.39551 -1.08887,-0.39551 -0.7373,0 -1.17676,0.43457 -0.43457,0.43457 -0.49316,1.07911 z m 5.03906,0.54199 q 0,1.46972 -0.47851,2.6416 -0.47852,1.17187 -1.34278,2.16308 h -1.11816 v -0.0488 q 0.37597,-0.33692 0.75195,-0.8252 0.38086,-0.4834 0.66895,-1.08398 0.30273,-0.625 0.47851,-1.31836 0.18067,-0.69336 0.18067,-1.52832 0,-0.80078 -0.18067,-1.52344 -0.18066,-0.72266 -0.47851,-1.32324 -0.30762,-0.62012 -0.66895,-1.08399 -0.35644,-0.46875 -0.75195,-0.82519 V 172.5 h 1.11816 q 0.86426,0.99121 1.34278,2.16309 0.47851,1.17187 0.47851,2.6416 z"
         id="path2" />
    </g>
    <path
       style="font-size:10px;line-height:1.25;font-family:'Bitstream Vera Sans';stroke-width:1px"
       d="m 56.323242,149.46973 q 0,0.99121 -0.43457,1.79687 -0.429688,0.80567 -1.147461,1.25 -0.498047,0.30762 -1.113281,0.44434 -0.610352,0.13672 -1.611328,0.13672 h -1.835938 v -7.27051 h 1.816406 q 1.064453,0 1.689453,0.15625 0.629883,0.15137 1.064454,0.41992 0.742187,0.46387 1.157226,1.23535 0.415039,0.77149 0.415039,1.83106 z m -1.010742,-0.0146 q 0,-0.85449 -0.297852,-1.44043 -0.297851,-0.58594 -0.888671,-0.92285 -0.429688,-0.24414 -0.913086,-0.33692 -0.483399,-0.0977 -1.157227,-0.0977 h -0.908203 v 5.61035 h 0.908203 q 0.698242,0 1.21582,-0.10254 0.522461,-0.10254 0.957032,-0.38086 0.541992,-0.34668 0.810546,-0.91309 0.273438,-0.5664 0.273438,-1.41601 z m 7.148437,0.91797 q 0,1.333 -0.683593,2.10449 -0.683594,0.77148 -1.831055,0.77148 -1.157227,0 -1.84082,-0.77148 -0.678711,-0.77149 -0.678711,-2.10449 0,-1.33301 0.678711,-2.1045 0.683593,-0.77636 1.84082,-0.77636 1.147461,0 1.831055,0.77636 0.683593,0.77149 0.683593,2.1045 z m -0.947265,0 q 0,-1.05957 -0.415039,-1.57227 -0.415039,-0.51758 -1.152344,-0.51758 -0.74707,0 -1.162109,0.51758 -0.410157,0.5127 -0.410157,1.57227 0,1.02539 0.415039,1.55761 0.41504,0.52735 1.157227,0.52735 0.732422,0 1.147461,-0.52246 0.419922,-0.52735 0.419922,-1.5625 z m 6.606445,2.72461 h -0.913086 v -0.58106 q -0.12207,0.083 -0.332031,0.23438 -0.205078,0.14648 -0.400391,0.23437 -0.229492,0.11231 -0.527343,0.18555 -0.297852,0.0781 -0.698243,0.0781 -0.737304,0 -1.25,-0.48828 -0.512695,-0.48828 -0.512695,-1.24512 0,-0.62011 0.263672,-1.00097 0.268555,-0.38574 0.761719,-0.60547 0.498047,-0.21973 1.196289,-0.29785 0.698242,-0.0781 1.499023,-0.11719 v -0.1416 q 0,-0.3125 -0.112304,-0.51758 -0.107422,-0.20508 -0.3125,-0.32226 -0.195313,-0.11231 -0.46875,-0.15137 -0.273438,-0.0391 -0.57129,-0.0391 -0.361328,0 -0.805664,0.0976 -0.444336,0.0928 -0.917968,0.27344 h -0.04883 v -0.93262 q 0.268554,-0.0732 0.776367,-0.16113 0.507812,-0.0879 1.000976,-0.0879 0.576172,0 1.000977,0.0977 0.429687,0.0928 0.742187,0.32227 0.307618,0.22461 0.46875,0.58106 0.161133,0.35644 0.161133,0.88378 z m -0.913086,-1.34278 v -1.51855 q -0.419922,0.0244 -0.991211,0.0732 -0.566406,0.0488 -0.898437,0.1416 -0.395508,0.11231 -0.639649,0.35156 -0.24414,0.23438 -0.24414,0.64942 0,0.46875 0.283203,0.70801 0.283203,0.23437 0.864258,0.23437 0.483398,0 0.883789,-0.18555 0.40039,-0.19043 0.742187,-0.4541 z M 74.6875,150.3291 q 0,0.6836 -0.195313,1.23047 -0.190429,0.54688 -0.517578,0.91797 -0.346679,0.38574 -0.761718,0.58105 -0.415039,0.19043 -0.913086,0.19043 -0.463868,0 -0.810547,-0.1123 -0.34668,-0.10742 -0.683594,-0.29297 l -0.05859,0.25391 H 69.887695 V 145.5 h 0.917969 v 2.71484 q 0.385742,-0.31738 0.820313,-0.51757 0.43457,-0.20508 0.976562,-0.20508 0.966797,0 1.523438,0.74218 0.561523,0.74219 0.561523,2.09473 z m -0.947266,0.0244 q 0,-0.97657 -0.322265,-1.4795 -0.322266,-0.50781 -1.040039,-0.50781 -0.400391,0 -0.810547,0.17578 -0.410156,0.1709 -0.761719,0.44434 v 3.125 q 0.390625,0.17578 0.668945,0.24414 0.283203,0.0684 0.639649,0.0684 0.761719,0 1.191406,-0.49805 0.43457,-0.50293 0.43457,-1.57226 z m 3.305664,2.74414 H 76.12793 V 145.5 h 0.917968 z m 6.381836,-2.63184 H 79.40918 q 0,0.50293 0.151367,0.87891 0.151367,0.37109 0.415039,0.61035 0.253906,0.23437 0.600586,0.35156 0.351562,0.11719 0.771484,0.11719 0.556641,0 1.118164,-0.21973 0.566407,-0.22461 0.805664,-0.43945 h 0.04883 v 1.00097 q -0.463867,0.19532 -0.947265,0.32715 -0.483399,0.13184 -1.015625,0.13184 -1.357422,0 -2.119141,-0.73242 -0.761719,-0.73731 -0.761719,-2.08985 0,-1.33789 0.72754,-2.12402 0.732421,-0.78613 1.923828,-0.78613 1.103515,0 1.699218,0.64453 0.600586,0.64453 0.600586,1.83105 z M 82.53418,149.7627 q -0.0049,-0.72266 -0.366211,-1.11817 -0.356446,-0.39551 -1.088867,-0.39551 -0.737305,0 -1.176758,0.43457 -0.434571,0.43457 -0.493164,1.07911 z m 13.759765,3.33496 h -0.917968 v -3.10547 q 0,-0.35157 -0.03418,-0.67871 -0.0293,-0.32715 -0.131836,-0.52246 -0.112305,-0.20997 -0.322266,-0.31739 -0.209961,-0.10742 -0.605468,-0.10742 -0.385743,0 -0.771485,0.19531 -0.385742,0.19043 -0.771484,0.48828 0.01465,0.11231 0.02441,0.26368 0.0098,0.14648 0.0098,0.29297 v 3.49121 h -0.917968 v -3.10547 q 0,-0.36133 -0.03418,-0.6836 -0.0293,-0.32714 -0.131836,-0.52246 -0.112305,-0.20996 -0.322266,-0.3125 -0.20996,-0.10742 -0.605468,-0.10742 -0.375977,0 -0.756836,0.18555 -0.375977,0.18554 -0.751953,0.47363 v 4.07227 h -0.917969 v -5.45411 h 0.917969 v 0.60547 q 0.429687,-0.35644 0.854492,-0.55664 0.429687,-0.20019 0.913086,-0.20019 0.55664,0 0.942383,0.23437 0.390625,0.23438 0.581054,0.64942 0.556641,-0.46875 1.015625,-0.67383 0.458985,-0.20996 0.981446,-0.20996 0.898437,0 1.323242,0.54687 0.429687,0.54199 0.429687,1.51856 z m 6.416015,-2.72461 q 0,1.333 -0.68359,2.10449 -0.6836,0.77148 -1.83106,0.77148 -1.157224,0 -1.840818,-0.77148 -0.678711,-0.77149 -0.678711,-2.10449 0,-1.33301 0.678711,-2.1045 0.683594,-0.77636 1.840818,-0.77636 1.14746,0 1.83106,0.77636 0.68359,0.77149 0.68359,2.1045 z m -0.94726,0 q 0,-1.05957 -0.41504,-1.57227 -0.41504,-0.51758 -1.15235,-0.51758 -0.747068,0 -1.162107,0.51758 -0.410156,0.5127 -0.410156,1.57227 0,1.02539 0.415039,1.55761 0.415039,0.52735 1.157224,0.52735 0.73242,0 1.14746,-0.52246 0.41993,-0.52735 0.41993,-1.5625 z m 7.01171,-2.7295 -2.20703,5.45411 h -0.92285 l -2.19238,-5.45411 h 0.99609 l 1.68946,4.34082 1.6748,-4.34082 z m 5.67872,2.82227 h -4.01856 q 0,0.50293 0.15137,0.87891 0.15136,0.37109 0.41504,0.61035 0.2539,0.23437 0.60058,0.35156 0.35157,0.11719 0.77149,0.11719 0.55664,0 1.11816,-0.21973 0.56641,-0.22461 0.80567,-0.43945 h 0.0488 v 1.00097 q -0.46386,0.19532 -0.94726,0.32715 -0.4834,0.13184 -1.01563,0.13184 -1.35742,0 -2.11914,-0.73242 -0.76172,-0.73731 -0.76172,-2.08985 0,-1.33789 0.72754,-2.12402 0.73242,-0.78613 1.92383,-0.78613 1.10352,0 1.69922,0.64453 0.60059,0.64453 0.60059,1.83105 z m -0.89356,-0.70312 q -0.005,-0.72266 -0.36621,-1.11817 -0.35645,-0.39551 -1.08887,-0.39551 -0.7373,0 -1.17676,0.43457 -0.43457,0.43457 -0.49316,1.07911 z"
       id="text3326"
       aria-label="Doable move" />
    <rect
       style="fill:#ef2929;fill-opacity:1;fill-rule:nonzero;stroke:#a40000;stroke-width:1;stroke-linecap:round;stroke-linejoin:round;stroke-miterlimit:4;stroke-dasharray:none;stroke-opacity:1"
       id="rect3330"
       width="10"
       height="10"
       x="34.5"
       y="160.5" />
    <rect
       style="fill:#e9b96e;fill-opacity:1;fill-rule:nonzero;stroke:#8f5902;stroke-width:1;stroke-linecap:round;stroke-linejoin:round;stroke-miterlimit:4;stroke-dasharray:none;stroke-opacity:1"
       id="rect4301"
       width="10"
       height="10"
       x="34.5"
       y="145.5" />
    <g
       id="g5278"
       transform="matrix(1.028194,0,0,1.0069611,-108.80231,-818.92902)"
       style="fill:#e9b96e;stroke:#8f5902">
      <path
         id="path5280"
         d="m 176.27372,875.50558 1.98857,4.888 -9.8789,1.4686 3,-2.4576 c -7.41139,-1.7272 -8.26603,-12.2349 0,-26.5424 l 2,0.4915 c -7.40153,14.2897 -8.03072,23.0001 0,24.5763 z"
         style="fill:#e9b96e;fill-opacity:1;fill-rule:nonzero;stroke:#8f5902;stroke-width:0.98278;stroke-linecap:round;stroke-linejoin:round;stroke-miterlimit:4;stroke-opacity:1" />
      <path
         style="fill:#e9b96e;fill-opacity:1;fill-rule:nonzero;stroke:#8f5902;stroke-width:0.98278;stroke-linecap:round;stroke-linejoin:round;stroke-miterlimit:4;stroke-opacity:1"
         d="m 176.27372,898.92974 1.98857,9.94465 -9.8789,2.98779 3,-5 c -7.41139,-3.51386 -8.26603,-24.89151 0,-54 l 2,1 c -7.40153,29.07205 -8.03072,46.79328 0,50 z"
         id="path5282" />
      <path
         id="path5284"
         d="m 176.27372,923.35392 1.98857,15.00126 -9.8789,4.507 3,-7.54237 c -7.41139,-5.30057 -8.26603,-37.54821 0,-81.45763 l 2,1.50847 c -7.40153,43.85445 -8.03072,70.58648 0,75.42374 z"
         style="fill:#e9b96e;fill-opacity:1;fill-rule:nonzero;stroke:#8f5902;stroke-width:0.98278;stroke-linecap:round;stroke-linejoin:round;stroke-miterlimit:4;stroke-opacity:1" />
      <path
         style="fill:#ef2929;fill-opacity:1;fill-rule:nonzero;stroke:#a40000;stroke-width:0.98278;stroke-linecap:round;stroke-linejoin:round;stroke-miterlimit:4;stroke-opacity:1"
         d="m 174.52384,843.1625 1.98857,4.888 -9.8789,1.4686 3,-2.4576 c -8.38339,-1.0424 -6.38339,-22.0424 7.86649,-7.07624 l -2.72806,-0.12307 c -8.52182,-7.84309 -10.52182,3.15691 -3.13843,5.72471 z"
         id="path5286" />
    </g>
    <g
       transform="matrix(1.0301311,0,0,1.0069611,-139.1354,-818.92902)"
       id="g5288"
       style="fill:#e9b96e;stroke:#8f5902">
      <path
         id="path5290"
         d="m 176.27372,875.50558 1.98857,4.888 -9.8789,1.4686 3,-2.4576 c -7.41139,-1.7272 -8.26603,-12.2349 0,-26.5424 l 2,0.4915 c -7.40153,14.2897 -8.03072,23.0001 0,24.5763 z"
         style="fill:#e9b96e;fill-opacity:1;fill-rule:nonzero;stroke:#8f5902;stroke-width:0.981855;stroke-linecap:round;stroke-linejoin:round;stroke-miterlimit:4;stroke-opacity:1" />
      <path
         style="fill:#e9b96e;fill-opacity:1;fill-rule:nonzero;stroke:#8f5902;stroke-width:0.981855;stroke-linecap:round;stroke-linejoin:round;stroke-miterlimit:4;stroke-opacity:1"
         d="m 176.27372,898.92974 1.98857,9.94465 -9.8789,2.98779 3,-5 c -7.41139,-3.51386 -8.26603,-24.89151 0,-54 l 2,1 c -7.40153,29.07205 -8.03072,46.79328 0,50 z"
         id="path5292" />
      <path
         id="path5294"
         d="m 176.27372,923.35392 1.98857,15.00126 -9.8789,4.507 3,-7.54237 c -7.41139,-5.30057 -8.26603,-37.54821 0,-81.45763 l 2,1.50847 c -7.40153,43.85445 -8.03072,70.58648 0,75.42374 z"
         style="fill:#e9b96e;fill-opacity:1;fill-rule:nonzero;stroke:#8f5902;stroke-width:0.981855;stroke-linecap:round;stroke-linejoin:round;stroke-miterlimit:4;stroke-opacity:1" />
      <path
         style="fill:#ef2929;fill-opacity:1;fill-rule:nonzero;stroke:#a40000;stroke-width:0.981855;stroke-linecap:round;stroke-linejoin:round;stroke-miterlimit:4;stroke-opacity:1"
         d="m 174.52384,843.1625 1.98857,4.888 -9.8789,1.4686 3,-2.4576 c -8.38339,-1.0424 -6.38339,-22.0424 7.86649,-7.07624 l -2.72806,-0.12307 c -8.52182,-7.84309 -10.52182,3.15691 -3.13843,5.72471 z"
         id="path5296" />
    </g>
    <g
       transform="matrix(1.0301311,0,0,1.0069611,-49.1204,-818.92902)"
       id="g5298"
       style="fill:#e9b96e;stroke:#8f5902">
      <path
         id="path5300"
         d="m 176.27372,875.50558 1.98857,4.888 -9.8789,1.4686 3,-2.4576 c -7.41139,-1.7272 -8.26603,-12.2349 0,-26.5424 l 2,0.4915 c -7.40153,14.2897 -8.03072,23.0001 0,24.5763 z"
         style="fill:#e9b96e;fill-opacity:1;fill-rule:nonzero;stroke:#8f5902;stroke-width:0.981855;stroke-linecap:round;stroke-linejoin:round;stroke-miterlimit:4;stroke-opacity:1" />
      <path
         style="fill:#e9b96e;fill-opacity:1;fill-rule:nonzero;stroke:#8f5902;stroke-width:0.981855;stroke-linecap:round;stroke-linejoin:round;stroke-miterlimit:4;stroke-opacity:1"
         d="m 176.27372,898.92974 1.98857,9.94465 -9.8789,2.98779 3,-5 c -7.41139,-3.51386 -8.26603,-24.89151 0,-54 l 2,1 c -7.40153,29.07205 -8.03072,46.79328 0,50 z"
         id="path5302" />
      <path
         id="path5304"
         d="m 176.27372,923.35392 1.98857,15.00126 -9.8789,4.507 3,-7.54237 c -7.41139,-5.30057 -8.26603,-37.54821 0,-81.45763 l 2,1.50847 c -7.40153,43.85445 -8.03072,70.58648 0,75.42374 z"
         style="fill:#e9b96e;fill-opacity:1;fill-rule:nonzero;stroke:#8f5902;stroke-width:0.981855;stroke-linecap:round;stroke-linejoin:round;stroke-miterlimit:4;stroke-opacity:1" />
      <path
         style="fill:#ef2929;fill-opacity:1;fill-rule:nonzero;stroke:#a40000;stroke-width:0.981855;stroke-linecap:round;stroke-linejoin:round;stroke-miterlimit:4;stroke-opacity:1"
         d="m 174.52384,843.1625 1.98857,4.888 -9.8789,1.4686 3,-2.4576 c -8.38339,-1.0424 -6.38339,-22.0424 7.86649,-7.07624 l -2.72806,-0.12307 c -8.52182,-7.84309 -10.52182,3.15691 -3.13843,5.72471 z"
         id="path5306" />
    </g>
    <g
       transform="translate(-74.499994,-813.06014)"
       id="g4074">
      <path
         style="font-size:16.1981px;line-height:1.25;font-family:'Bitstream Vera Sans';stroke-width:1px"
         d="m 77.133985,1038.7546 q 0,3.1716 -0.996563,4.6585 -0.988654,1.4791 -3.07669,1.4791 -2.119673,0 -3.100417,-1.5028 -0.972835,-1.5027 -0.972835,-4.619 0,-3.1399 0.988653,-4.6348 0.988654,-1.5027 3.084599,-1.5027 2.119673,0 3.092508,1.5264 0.980745,1.5186 0.980745,4.5953 z m -2.080127,3.5908 q 0.276823,-0.6407 0.371733,-1.5028 0.10282,-0.87 0.10282,-2.088 0,-1.2022 -0.10282,-2.088 -0.09491,-0.8859 -0.379643,-1.5028 -0.276823,-0.609 -0.759286,-0.9175 -0.474553,-0.3084 -1.22593,-0.3084 -0.743467,0 -1.233839,0.3084 -0.482463,0.3085 -0.767196,0.9333 -0.268913,0.5853 -0.371733,1.5265 -0.09491,0.9412 -0.09491,2.0643 0,1.2339 0.087,2.0643 0.087,0.8305 0.371734,1.487 0.261005,0.6169 0.735558,0.9412 0.482463,0.3242 1.273386,0.3242 0.743468,0 1.23384,-0.3084 0.490372,-0.3085 0.759286,-0.9333 z"
         id="text5236"
         transform="scale(1.2251409,0.8162327)"
         aria-label="0" />
      <path
         style="font-size:17.7766px;line-height:1.25;font-family:'Bitstream Vera Sans';stroke-width:1px"
         d="m 72.660518,1144.1229 h -6.996064 v -1.3193 h 2.690794 v -8.6627 h -2.690794 v -1.1804 q 0.546838,0 1.171797,-0.087 0.624959,-0.096 0.946118,-0.2691 0.399279,-0.217 0.624958,-0.5468 0.23436,-0.3386 0.26908,-0.9028 h 1.345397 v 11.6486 h 2.638714 z"
         id="text5240"
         transform="scale(1.2959246,0.7716499)"
         aria-label="1" />
      <path
         style="font-size:17.0609px;line-height:1.25;font-family:'Bitstream Vera Sans';stroke-width:1px"
         d="m 75.2213,1155.9114 h -8.397161 v -1.7411 q 0.874704,-0.7497 1.749408,-1.4995 0.883035,-0.7497 1.641112,-1.4912 1.59946,-1.5494 2.190926,-2.4575 0.591467,-0.9163 0.591467,-1.9743 0,-0.9663 -0.64145,-1.5078 -0.633119,-0.5498 -1.7744,-0.5498 -0.758077,0 -1.641112,0.2665 -0.883035,0.2666 -1.724417,0.8164 h -0.0833 v -1.7494 q 0.591467,-0.2915 1.574468,-0.5331 0.991331,-0.2416 1.916019,-0.2416 1.907688,0 2.990655,0.9247 1.082968,0.9163 1.082968,2.4908 0,0.7081 -0.183272,1.3246 -0.174941,0.6081 -0.524822,1.1579 -0.32489,0.5165 -0.766408,1.0163 -0.433187,0.4999 -1.057976,1.108 -0.891365,0.8747 -1.841044,1.6994 -0.949679,0.8164 -1.7744,1.5162 H 75.2213 Z"
         id="text5244"
         transform="scale(1.2662496,0.7897337)"
         aria-label="2" />
      <path
         style="font-size:16.7604px;line-height:1.25;font-family:'Bitstream Vera Sans';stroke-width:1px"
         d="m 75.195396,1166.1773 q 0.392822,0.3519 0.646519,0.8838 0.253698,0.532 0.253698,1.3749 0,0.8347 -0.3028,1.5304 -0.302801,0.6956 -0.851114,1.2112 -0.613785,0.5728 -1.448531,0.8511 -0.826563,0.27 -1.816801,0.27 -1.01479,0 -1.996845,-0.2455 -0.982055,-0.2373 -1.612207,-0.5237 v -1.7104 h 0.122757 q 0.695622,0.4582 1.636758,0.761 0.941136,0.3028 1.816801,0.3028 0.515579,0 1.096628,-0.1718 0.581049,-0.1719 0.941136,-0.5074 0.376454,-0.3601 0.556498,-0.7938 0.188227,-0.4338 0.188227,-1.0967 0,-0.6547 -0.212779,-1.0802 -0.204594,-0.4338 -0.572865,-0.6793 -0.368271,-0.2537 -0.892033,-0.3437 -0.523763,-0.098 -1.129363,-0.098 h -0.736541 v -1.3585 h 0.572865 q 1.243936,0 1.980477,-0.5156 0.744725,-0.5238 0.744725,-1.5222 0,-0.4419 -0.188227,-0.7693 -0.188227,-0.3355 -0.523763,-0.5483 -0.351903,-0.2127 -0.752908,-0.2946 -0.401006,-0.082 -0.908401,-0.082 -0.77746,0 -1.653125,0.2782 -0.875666,0.2783 -1.653126,0.7857 h -0.08184 v -1.7104 q 0.581049,-0.2865 1.546737,-0.5238 0.97387,-0.2455 1.882271,-0.2455 0.892033,0 1.571288,0.1637 0.679254,0.1636 1.227568,0.5237 0.589233,0.3928 0.892033,0.9493 0.3028,0.5565 0.3028,1.3013 0,1.0148 -0.720173,1.7758 -0.71199,0.753 -1.685861,0.9494 v 0.1145 q 0.392822,0.066 0.900217,0.2783 0.507395,0.2046 0.859298,0.5156 z"
         id="text5248"
         transform="scale(1.2430621,0.804465)"
         aria-label="3" />
    </g>
  </g>
</svg>
