<?xml version="1.0" encoding="UTF-8" standalone="no"?>
<!-- Created with Inkscape (http://www.inkscape.org/) -->

<svg
   width="800"
   height="600"
   id="svg2"
   version="1.1"
   xmlns="http://www.w3.org/2000/svg"
   xmlns:svg="http://www.w3.org/2000/svg"
   xmlns:rdf="http://www.w3.org/1999/02/22-rdf-syntax-ns#"
   xmlns:cc="http://creativecommons.org/ns#"
   xmlns:dc="http://purl.org/dc/elements/1.1/">
  <defs
     id="defs4" />
  <metadata
     id="metadata7">
    <rdf:RDF>
      <cc:Work
         rdf:about="">
        <dc:format>image/svg+xml</dc:format>
        <dc:type
           rdf:resource="http://purl.org/dc/dcmitype/StillImage" />
        <dc:language>en</dc:language>
        <cc:license
           rdf:resource="https://timefold.ai/license" />
      </cc:Work>
    </rdf:RDF>
  </metadata>
  <g
     id="layer4"
     style="display:inline">
    <path
       style="display:inline;fill:none;stroke:#4e9a06;stroke-width:1px;stroke-linecap:round;stroke-linejoin:miter;stroke-opacity:1"
       d="m 100,189.99985 280,0"
       id="path7072" />
    <path
       id="path7248"
       d="m 100,410 280,10"
       style="display:inline;fill:none;stroke:#4e9a06;stroke-width:1px;stroke-linecap:round;stroke-linejoin:round;stroke-opacity:1" />
    <path
       id="path7514"
       d="M 490,240 770,190"
       style="display:inline;fill:none;stroke:#4e9a06;stroke-width:1px;stroke-linecap:round;stroke-linejoin:miter;stroke-opacity:1" />
    <path
       d="m -65.666667,407.1292 v -9.54427 h 1.901042 l 2.259114,6.75781 q 0.3125,0.94401 0.45573,1.41276 0.16276,-0.52083 0.507812,-1.52995 l 2.285156,-6.64062 h 1.699219 v 9.54427 h -1.217448 v -7.98828 l -2.773437,7.98828 h -1.139323 l -2.760417,-8.125 v 8.125 z m 15.729167,-2.22656 1.210937,0.14974 q -0.286458,1.06119 -1.061198,1.64713 -0.774739,0.58594 -1.979166,0.58594 -1.516928,0 -2.408855,-0.93099 -0.885416,-0.9375 -0.885416,-2.6237 0,-1.74479 0.898437,-2.70833 0.898438,-0.96354 2.330729,-0.96354 1.386719,0 2.265625,0.94401 0.878907,0.94401 0.878907,2.65625 0,0.10416 -0.0065,0.3125 h -5.15625 q 0.0651,1.13932 0.644531,1.74479 0.579428,0.60547 1.445313,0.60547 0.644531,0 1.10026,-0.33854 0.455729,-0.33855 0.722657,-1.08073 z m -3.847657,-1.89453 h 3.860677 q -0.07813,-0.8724 -0.442708,-1.3086 -0.559896,-0.67708 -1.451823,-0.67708 -0.807291,0 -1.360677,0.54036 -0.546875,0.54037 -0.605469,1.44532 z m 9.088542,3.07291 0.169271,1.03516 q -0.494792,0.10417 -0.885417,0.10417 -0.638021,0 -0.989583,-0.20183 -0.351563,-0.20182 -0.494792,-0.52734 -0.143229,-0.33203 -0.143229,-1.38672 v -3.97786 h -0.859375 v -0.91146 h 0.859375 v -1.71224 l 1.165364,-0.70313 v 2.41537 h 1.178386 v 0.91146 h -1.178386 v 4.04296 q 0,0.50131 0.05859,0.64454 0.0651,0.14322 0.201823,0.22786 0.143229,0.0846 0.403646,0.0846 0.195312,0 0.514323,-0.0456 z m 5.657552,0.19531 q -0.651041,0.55339 -1.25651,0.78125 -0.598958,0.22787 -1.289062,0.22787 -1.139323,0 -1.751303,-0.55339 -0.611979,-0.55989 -0.611979,-1.42578 0,-0.50781 0.227865,-0.92448 0.234375,-0.42317 0.605469,-0.67708 0.377604,-0.25391 0.846354,-0.38411 0.345052,-0.0911 1.041666,-0.17579 1.419271,-0.16927 2.089844,-0.40364 0.0065,-0.24089 0.0065,-0.30599 0,-0.71615 -0.332032,-1.00912 -0.449218,-0.39713 -1.334635,-0.39713 -0.826823,0 -1.223958,0.29297 -0.390625,0.28646 -0.579427,1.02213 l -1.145834,-0.15625 q 0.15625,-0.73567 0.514323,-1.18489 0.358073,-0.45573 1.035156,-0.69662 0.677084,-0.24739 1.569011,-0.24739 0.885416,0 1.438802,0.20833 0.553385,0.20833 0.813802,0.52734 0.260417,0.3125 0.364583,0.79427 0.05859,0.29948 0.05859,1.08073 v 1.5625 q 0,1.63412 0.07161,2.07032 0.07813,0.42968 0.299479,0.82682 h -1.223959 q -0.182291,-0.36458 -0.234375,-0.85287 z m -0.09766,-2.61718 q -0.638021,0.26041 -1.914062,0.44271 -0.722657,0.10416 -1.022136,0.23437 -0.299479,0.13021 -0.462239,0.38412 -0.162761,0.24739 -0.162761,0.55338 0,0.46875 0.351563,0.78125 0.358073,0.3125 1.041666,0.3125 0.677084,0 1.204427,-0.29297 0.527344,-0.29948 0.77474,-0.8138 0.188802,-0.39714 0.188802,-1.17188 z m 3.001301,3.47005 v -9.54427 h 1.171875 v 3.42448 q 0.820312,-0.95052 2.070312,-0.95052 0.76823,0 1.334636,0.30599 0.566406,0.29948 0.807291,0.83333 0.247396,0.53385 0.247396,1.54948 v 4.38151 h -1.171875 v -4.38151 q 0,-0.87891 -0.384114,-1.27604 -0.377604,-0.40365 -1.074219,-0.40365 -0.520833,0 -0.983073,0.27344 -0.455729,0.26693 -0.651041,0.72917 -0.195313,0.46224 -0.195313,1.27604 v 3.78255 z m 12.148436,-2.22656 1.210938,0.14974 q -0.286459,1.06119 -1.061198,1.64713 -0.77474,0.58594 -1.979167,0.58594 -1.516927,0 -2.408854,-0.93099 -0.885417,-0.9375 -0.885417,-2.6237 0,-1.74479 0.898438,-2.70833 0.898437,-0.96354 2.330729,-0.96354 1.386719,0 2.265625,0.94401 0.878906,0.94401 0.878906,2.65625 0,0.10416 -0.0065,0.3125 h -5.15625 q 0.0651,1.13932 0.644531,1.74479 0.579427,0.60547 1.445313,0.60547 0.644531,0 1.10026,-0.33854 0.455729,-0.33855 0.722656,-1.08073 z m -3.847656,-1.89453 h 3.860677 q -0.07813,-0.8724 -0.442708,-1.3086 -0.559896,-0.67708 -1.451823,-0.67708 -0.807292,0 -1.360677,0.54036 -0.546875,0.54037 -0.605469,1.44532 z m 11.0612,4.12109 v -1.01563 q -0.807291,1.17188 -2.19401,1.17188 -0.611979,0 -1.145833,-0.23438 -0.527344,-0.23437 -0.787761,-0.58593 -0.253906,-0.35808 -0.358073,-0.8724 -0.07161,-0.34505 -0.07161,-1.09375 v -4.28385 h 1.171875 v 3.83463 q 0,0.91797 0.07161,1.23698 0.110677,0.46224 0.46875,0.72917 0.358073,0.26041 0.885417,0.26041 0.527344,0 0.989583,-0.26692 0.46224,-0.27344 0.651042,-0.73568 0.195312,-0.46875 0.195312,-1.35417 v -3.70442 h 1.171875 v 6.91406 z m 2.871093,0 v -6.91406 h 1.054687 v 1.04817 q 0.403646,-0.73567 0.742188,-0.97005 0.345052,-0.23437 0.755208,-0.23437 0.592448,0 1.204427,0.3776 l -0.403646,1.08724 q -0.429687,-0.25391 -0.859375,-0.25391 -0.384114,0 -0.690104,0.23438 -0.305989,0.22786 -0.436198,0.63802 -0.195312,0.625 -0.195312,1.36719 v 3.61979 z m 4.4596328,-8.19662 v -1.34765 h 1.171875 v 1.34765 z m 0,8.19662 v -6.91406 h 1.171875 v 6.91406 z m 2.4869818,-2.0638 1.1588541,-0.18229 q 0.097656,0.69661 0.5403646,1.0677 0.4492187,0.3711 1.2499999,0.3711 0.8072917,0 1.1979167,-0.32552 0.390625,-0.33203 0.390625,-0.77474 0,-0.39714 -0.3450521,-0.625 -0.2408854,-0.15625 -1.1979167,-0.39714 -1.2890624,-0.32552 -1.7903645,-0.55989 -0.4947916,-0.24089 -0.7552083,-0.65756 -0.2539063,-0.42317 -0.2539063,-0.93099 0,-0.46224 0.2083334,-0.85286 0.2148437,-0.39714 0.579427,-0.65755 0.2734375,-0.20183 0.7421875,-0.33854 0.4752604,-0.14323 1.015625,-0.14323 0.8138021,0 1.4257812,0.23437 0.6184896,0.23438 0.9114583,0.63802 0.2929688,0.39714 0.4036459,1.06771 l -1.1458334,0.15625 q -0.078125,-0.53385 -0.4557291,-0.83333 -0.3710937,-0.29948 -1.0546875,-0.29948 -0.8072916,0 -1.1523437,0.26693 -0.3450521,0.26692 -0.3450521,0.625 0,0.22786 0.1432292,0.41015 0.1432291,0.1888 0.4492187,0.3125 0.1757813,0.0651 1.0351562,0.29948 1.2434896,0.33203 1.7317708,0.54688 0.4947917,0.20833 0.7747396,0.61198 0.2799479,0.40364 0.2799479,1.0026 0,0.58594 -0.3450521,1.10677 -0.3385416,0.51432 -0.9830729,0.80078 -0.6445312,0.27995 -1.4583333,0.27995 -1.3476562,0 -2.0572916,-0.5599 -0.703125,-0.55989 -0.8984374,-1.66015 z m 9.6940116,1.01562 0.1692708,1.03516 q -0.4947917,0.10417 -0.8854166,0.10417 -0.6380209,0 -0.9895834,-0.20183 -0.35156245,-0.20182 -0.49479161,-0.52734 -0.14322917,-0.33203 -0.14322917,-1.38672 v -3.97786 h -0.85937498 v -0.91146 h 0.85937498 v -1.71224 l 1.16536458,-0.70313 v 2.41537 h 1.1783854 v 0.91146 H 1.5598958 v 4.04296 q 0,0.50131 0.058594,0.64454 0.065104,0.14322 0.2018229,0.22786 0.1432292,0.0846 0.4036459,0.0846 0.1953125,0 0.5143229,-0.0456 z m 1.1523387,-7.14844 v -1.34765 h 1.171875 v 1.34765 z m 0,8.19662 v -6.91406 h 1.171875 v 6.91406 z m 7.4674501,-2.53255 1.152344,0.14974 q -0.188802,1.1914 -0.970052,1.86849 -0.77474,0.67057 -1.9075521,0.67057 -1.4192708,0 -2.2851562,-0.92448 -0.859375,-0.93099 -0.859375,-2.66276 0,-1.11979 0.3710937,-1.95964 0.3710938,-0.83984 1.1263021,-1.25651 0.7617187,-0.42317 1.6536458,-0.42317 1.1263017,0 1.8424477,0.57291 0.716146,0.56641 0.917969,1.61459 l -1.139323,0.17578 q -0.16276,-0.69662 -0.579427,-1.04818 -0.410156,-0.35156 -0.9960938,-0.35156 -0.8854166,0 -1.438802,0.63802 -0.5533855,0.63151 -0.5533855,2.00521 0,1.39323 0.5338542,2.02474 0.5338542,0.63151 1.3932291,0.63151 0.690104,0 1.152344,-0.42318 0.462239,-0.42318 0.585937,-1.30208 z m 1.686196,0.46875 1.158854,-0.18229 q 0.09766,0.69661 0.540364,1.0677 0.449219,0.3711 1.25,0.3711 0.807292,0 1.197917,-0.32552 0.390625,-0.33203 0.390625,-0.77474 0,-0.39714 -0.345052,-0.625 -0.240885,-0.15625 -1.197917,-0.39714 -1.289062,-0.32552 -1.790364,-0.55989 -0.494792,-0.24089 -0.755209,-0.65756 -0.253906,-0.42317 -0.253906,-0.93099 0,-0.46224 0.208334,-0.85286 0.214843,-0.39714 0.579427,-0.65755 0.273437,-0.20183 0.742187,-0.33854 0.475261,-0.14323 1.015625,-0.14323 0.813802,0 1.425781,0.23437 0.61849,0.23438 0.911459,0.63802 0.292968,0.39714 0.403645,1.06771 l -1.145833,0.15625 q -0.07813,-0.53385 -0.455729,-0.83333 -0.371094,-0.29948 -1.054687,-0.29948 -0.807292,0 -1.152344,0.26693 -0.345052,0.26692 -0.345052,0.625 0,0.22786 0.143229,0.41015 0.143229,0.1888 0.449219,0.3125 0.175781,0.0651 1.035156,0.29948 1.243489,0.33203 1.731771,0.54688 0.494791,0.20833 0.774739,0.61198 0.279948,0.40364 0.279948,1.0026 0,0.58594 -0.345052,1.10677 -0.338542,0.51432 -0.983073,0.80078 -0.644531,0.27995 -1.458333,0.27995 -1.347656,0 -2.057292,-0.5599 -0.703125,-0.55989 -0.898437,-1.66015 z"
       id="flowRoot4601"
       style="font-size:13.3333px;line-height:125%;font-family:'Liberation Sans';-inkscape-font-specification:'Liberation Sans, Normal';fill:#4e9a06"
       transform="matrix(0.75,0,0,0.75,304.59984,-120.28217)"
       aria-label="Metaheuristics" />
    <path
       d="m -65.666667,407.1292 v -9.54427 h 1.901042 l 2.259114,6.75781 q 0.3125,0.94401 0.45573,1.41276 0.16276,-0.52083 0.507812,-1.52995 l 2.285156,-6.64062 h 1.699219 v 9.54427 h -1.217448 v -7.98828 l -2.773437,7.98828 h -1.139323 l -2.760417,-8.125 v 8.125 z m 15.729167,-2.22656 1.210937,0.14974 q -0.286458,1.06119 -1.061198,1.64713 -0.774739,0.58594 -1.979166,0.58594 -1.516928,0 -2.408855,-0.93099 -0.885416,-0.9375 -0.885416,-2.6237 0,-1.74479 0.898437,-2.70833 0.898438,-0.96354 2.330729,-0.96354 1.386719,0 2.265625,0.94401 0.878907,0.94401 0.878907,2.65625 0,0.10416 -0.0065,0.3125 h -5.15625 q 0.0651,1.13932 0.644531,1.74479 0.579428,0.60547 1.445313,0.60547 0.644531,0 1.10026,-0.33854 0.455729,-0.33855 0.722657,-1.08073 z m -3.847657,-1.89453 h 3.860677 q -0.07813,-0.8724 -0.442708,-1.3086 -0.559896,-0.67708 -1.451823,-0.67708 -0.807291,0 -1.360677,0.54036 -0.546875,0.54037 -0.605469,1.44532 z m 9.088542,3.07291 0.169271,1.03516 q -0.494792,0.10417 -0.885417,0.10417 -0.638021,0 -0.989583,-0.20183 -0.351563,-0.20182 -0.494792,-0.52734 -0.143229,-0.33203 -0.143229,-1.38672 v -3.97786 h -0.859375 v -0.91146 h 0.859375 v -1.71224 l 1.165364,-0.70313 v 2.41537 h 1.178386 v 0.91146 h -1.178386 v 4.04296 q 0,0.50131 0.05859,0.64454 0.0651,0.14322 0.201823,0.22786 0.143229,0.0846 0.403646,0.0846 0.195312,0 0.514323,-0.0456 z m 5.657552,0.19531 q -0.651041,0.55339 -1.25651,0.78125 -0.598958,0.22787 -1.289062,0.22787 -1.139323,0 -1.751303,-0.55339 -0.611979,-0.55989 -0.611979,-1.42578 0,-0.50781 0.227865,-0.92448 0.234375,-0.42317 0.605469,-0.67708 0.377604,-0.25391 0.846354,-0.38411 0.345052,-0.0911 1.041666,-0.17579 1.419271,-0.16927 2.089844,-0.40364 0.0065,-0.24089 0.0065,-0.30599 0,-0.71615 -0.332032,-1.00912 -0.449218,-0.39713 -1.334635,-0.39713 -0.826823,0 -1.223958,0.29297 -0.390625,0.28646 -0.579427,1.02213 l -1.145834,-0.15625 q 0.15625,-0.73567 0.514323,-1.18489 0.358073,-0.45573 1.035156,-0.69662 0.677084,-0.24739 1.569011,-0.24739 0.885416,0 1.438802,0.20833 0.553385,0.20833 0.813802,0.52734 0.260417,0.3125 0.364583,0.79427 0.05859,0.29948 0.05859,1.08073 v 1.5625 q 0,1.63412 0.07161,2.07032 0.07813,0.42968 0.299479,0.82682 h -1.223959 q -0.182291,-0.36458 -0.234375,-0.85287 z m -0.09766,-2.61718 q -0.638021,0.26041 -1.914062,0.44271 -0.722657,0.10416 -1.022136,0.23437 -0.299479,0.13021 -0.462239,0.38412 -0.162761,0.24739 -0.162761,0.55338 0,0.46875 0.351563,0.78125 0.358073,0.3125 1.041666,0.3125 0.677084,0 1.204427,-0.29297 0.527344,-0.29948 0.77474,-0.8138 0.188802,-0.39714 0.188802,-1.17188 z m 3.001301,3.47005 v -9.54427 h 1.171875 v 3.42448 q 0.820312,-0.95052 2.070312,-0.95052 0.76823,0 1.334636,0.30599 0.566406,0.29948 0.807291,0.83333 0.247396,0.53385 0.247396,1.54948 v 4.38151 h -1.171875 v -4.38151 q 0,-0.87891 -0.384114,-1.27604 -0.377604,-0.40365 -1.074219,-0.40365 -0.520833,0 -0.983073,0.27344 -0.455729,0.26693 -0.651041,0.72917 -0.195313,0.46224 -0.195313,1.27604 v 3.78255 z m 12.148436,-2.22656 1.210938,0.14974 q -0.286459,1.06119 -1.061198,1.64713 -0.77474,0.58594 -1.979167,0.58594 -1.516927,0 -2.408854,-0.93099 -0.885417,-0.9375 -0.885417,-2.6237 0,-1.74479 0.898438,-2.70833 0.898437,-0.96354 2.330729,-0.96354 1.386719,0 2.265625,0.94401 0.878906,0.94401 0.878906,2.65625 0,0.10416 -0.0065,0.3125 h -5.15625 q 0.0651,1.13932 0.644531,1.74479 0.579427,0.60547 1.445313,0.60547 0.644531,0 1.10026,-0.33854 0.455729,-0.33855 0.722656,-1.08073 z m -3.847656,-1.89453 h 3.860677 q -0.07813,-0.8724 -0.442708,-1.3086 -0.559896,-0.67708 -1.451823,-0.67708 -0.807292,0 -1.360677,0.54036 -0.546875,0.54037 -0.605469,1.44532 z m 11.0612,4.12109 v -1.01563 q -0.807291,1.17188 -2.19401,1.17188 -0.611979,0 -1.145833,-0.23438 -0.527344,-0.23437 -0.787761,-0.58593 -0.253906,-0.35808 -0.358073,-0.8724 -0.07161,-0.34505 -0.07161,-1.09375 v -4.28385 h 1.171875 v 3.83463 q 0,0.91797 0.07161,1.23698 0.110677,0.46224 0.46875,0.72917 0.358073,0.26041 0.885417,0.26041 0.527344,0 0.989583,-0.26692 0.46224,-0.27344 0.651042,-0.73568 0.195312,-0.46875 0.195312,-1.35417 v -3.70442 h 1.171875 v 6.91406 z m 2.871093,0 v -6.91406 h 1.054687 v 1.04817 q 0.403646,-0.73567 0.742188,-0.97005 0.345052,-0.23437 0.755208,-0.23437 0.592448,0 1.204427,0.3776 l -0.403646,1.08724 q -0.429687,-0.25391 -0.859375,-0.25391 -0.384114,0 -0.690104,0.23438 -0.305989,0.22786 -0.436198,0.63802 -0.195312,0.625 -0.195312,1.36719 v 3.61979 z m 4.4596328,-8.19662 v -1.34765 h 1.171875 v 1.34765 z m 0,8.19662 v -6.91406 h 1.171875 v 6.91406 z m 2.4869818,-2.0638 1.1588541,-0.18229 q 0.097656,0.69661 0.5403646,1.0677 0.4492187,0.3711 1.2499999,0.3711 0.8072917,0 1.1979167,-0.32552 0.390625,-0.33203 0.390625,-0.77474 0,-0.39714 -0.3450521,-0.625 -0.2408854,-0.15625 -1.1979167,-0.39714 -1.2890624,-0.32552 -1.7903645,-0.55989 -0.4947916,-0.24089 -0.7552083,-0.65756 -0.2539063,-0.42317 -0.2539063,-0.93099 0,-0.46224 0.2083334,-0.85286 0.2148437,-0.39714 0.579427,-0.65755 0.2734375,-0.20183 0.7421875,-0.33854 0.4752604,-0.14323 1.015625,-0.14323 0.8138021,0 1.4257812,0.23437 0.6184896,0.23438 0.9114583,0.63802 0.2929688,0.39714 0.4036459,1.06771 l -1.1458334,0.15625 q -0.078125,-0.53385 -0.4557291,-0.83333 -0.3710937,-0.29948 -1.0546875,-0.29948 -0.8072916,0 -1.1523437,0.26693 -0.3450521,0.26692 -0.3450521,0.625 0,0.22786 0.1432292,0.41015 0.1432291,0.1888 0.4492187,0.3125 0.1757813,0.0651 1.0351562,0.29948 1.2434896,0.33203 1.7317708,0.54688 0.4947917,0.20833 0.7747396,0.61198 0.2799479,0.40364 0.2799479,1.0026 0,0.58594 -0.3450521,1.10677 -0.3385416,0.51432 -0.9830729,0.80078 -0.6445312,0.27995 -1.4583333,0.27995 -1.3476562,0 -2.0572916,-0.5599 -0.703125,-0.55989 -0.8984374,-1.66015 z m 9.6940116,1.01562 0.1692708,1.03516 q -0.4947917,0.10417 -0.8854166,0.10417 -0.6380209,0 -0.9895834,-0.20183 -0.35156245,-0.20182 -0.49479161,-0.52734 -0.14322917,-0.33203 -0.14322917,-1.38672 v -3.97786 h -0.85937498 v -0.91146 h 0.85937498 v -1.71224 l 1.16536458,-0.70313 v 2.41537 h 1.1783854 v 0.91146 H 1.5598958 v 4.04296 q 0,0.50131 0.058594,0.64454 0.065104,0.14322 0.2018229,0.22786 0.1432292,0.0846 0.4036459,0.0846 0.1953125,0 0.5143229,-0.0456 z m 1.1523387,-7.14844 v -1.34765 h 1.171875 v 1.34765 z m 0,8.19662 v -6.91406 h 1.171875 v 6.91406 z m 7.4674501,-2.53255 1.152344,0.14974 q -0.188802,1.1914 -0.970052,1.86849 -0.77474,0.67057 -1.9075521,0.67057 -1.4192708,0 -2.2851562,-0.92448 -0.859375,-0.93099 -0.859375,-2.66276 0,-1.11979 0.3710937,-1.95964 0.3710938,-0.83984 1.1263021,-1.25651 0.7617187,-0.42317 1.6536458,-0.42317 1.1263017,0 1.8424477,0.57291 0.716146,0.56641 0.917969,1.61459 l -1.139323,0.17578 q -0.16276,-0.69662 -0.579427,-1.04818 -0.410156,-0.35156 -0.9960938,-0.35156 -0.8854166,0 -1.438802,0.63802 -0.5533855,0.63151 -0.5533855,2.00521 0,1.39323 0.5338542,2.02474 0.5338542,0.63151 1.3932291,0.63151 0.690104,0 1.152344,-0.42318 0.462239,-0.42318 0.585937,-1.30208 z m 1.686196,0.46875 1.158854,-0.18229 q 0.09766,0.69661 0.540364,1.0677 0.449219,0.3711 1.25,0.3711 0.807292,0 1.197917,-0.32552 0.390625,-0.33203 0.390625,-0.77474 0,-0.39714 -0.345052,-0.625 -0.240885,-0.15625 -1.197917,-0.39714 -1.289062,-0.32552 -1.790364,-0.55989 -0.494792,-0.24089 -0.755209,-0.65756 -0.253906,-0.42317 -0.253906,-0.93099 0,-0.46224 0.208334,-0.85286 0.214843,-0.39714 0.579427,-0.65755 0.273437,-0.20183 0.742187,-0.33854 0.475261,-0.14323 1.015625,-0.14323 0.813802,0 1.425781,0.23437 0.61849,0.23438 0.911459,0.63802 0.292968,0.39714 0.403645,1.06771 l -1.145833,0.15625 q -0.07813,-0.53385 -0.455729,-0.83333 -0.371094,-0.29948 -1.054687,-0.29948 -0.807292,0 -1.152344,0.26693 -0.345052,0.26692 -0.345052,0.625 0,0.22786 0.143229,0.41015 0.143229,0.1888 0.449219,0.3125 0.175781,0.0651 1.035156,0.29948 1.243489,0.33203 1.731771,0.54688 0.494791,0.20833 0.774739,0.61198 0.279948,0.40364 0.279948,1.0026 0,0.58594 -0.345052,1.10677 -0.338542,0.51432 -0.983073,0.80078 -0.644531,0.27995 -1.458333,0.27995 -1.347656,0 -2.057292,-0.5599 -0.703125,-0.55989 -0.898437,-1.66015 z"
       id="flowRoot4624"
       style="font-size:13.3333px;line-height:125%;font-family:'Liberation Sans';-inkscape-font-specification:'Liberation Sans, Normal';fill:#4e9a06"
       transform="matrix(0.74924752,0.03358803,-0.03358803,0.74924752,318.13169,121.80471)"
       aria-label="Metaheuristics" />
    <path
       d="m -65.666667,407.1292 v -9.54427 h 1.901042 l 2.259114,6.75781 q 0.3125,0.94401 0.45573,1.41276 0.16276,-0.52083 0.507812,-1.52995 l 2.285156,-6.64062 h 1.699219 v 9.54427 h -1.217448 v -7.98828 l -2.773437,7.98828 h -1.139323 l -2.760417,-8.125 v 8.125 z m 15.729167,-2.22656 1.210937,0.14974 q -0.286458,1.06119 -1.061198,1.64713 -0.774739,0.58594 -1.979166,0.58594 -1.516928,0 -2.408855,-0.93099 -0.885416,-0.9375 -0.885416,-2.6237 0,-1.74479 0.898437,-2.70833 0.898438,-0.96354 2.330729,-0.96354 1.386719,0 2.265625,0.94401 0.878907,0.94401 0.878907,2.65625 0,0.10416 -0.0065,0.3125 h -5.15625 q 0.0651,1.13932 0.644531,1.74479 0.579428,0.60547 1.445313,0.60547 0.644531,0 1.10026,-0.33854 0.455729,-0.33855 0.722657,-1.08073 z m -3.847657,-1.89453 h 3.860677 q -0.07813,-0.8724 -0.442708,-1.3086 -0.559896,-0.67708 -1.451823,-0.67708 -0.807291,0 -1.360677,0.54036 -0.546875,0.54037 -0.605469,1.44532 z m 9.088542,3.07291 0.169271,1.03516 q -0.494792,0.10417 -0.885417,0.10417 -0.638021,0 -0.989583,-0.20183 -0.351563,-0.20182 -0.494792,-0.52734 -0.143229,-0.33203 -0.143229,-1.38672 v -3.97786 h -0.859375 v -0.91146 h 0.859375 v -1.71224 l 1.165364,-0.70313 v 2.41537 h 1.178386 v 0.91146 h -1.178386 v 4.04296 q 0,0.50131 0.05859,0.64454 0.0651,0.14322 0.201823,0.22786 0.143229,0.0846 0.403646,0.0846 0.195312,0 0.514323,-0.0456 z m 5.657552,0.19531 q -0.651041,0.55339 -1.25651,0.78125 -0.598958,0.22787 -1.289062,0.22787 -1.139323,0 -1.751303,-0.55339 -0.611979,-0.55989 -0.611979,-1.42578 0,-0.50781 0.227865,-0.92448 0.234375,-0.42317 0.605469,-0.67708 0.377604,-0.25391 0.846354,-0.38411 0.345052,-0.0911 1.041666,-0.17579 1.419271,-0.16927 2.089844,-0.40364 0.0065,-0.24089 0.0065,-0.30599 0,-0.71615 -0.332032,-1.00912 -0.449218,-0.39713 -1.334635,-0.39713 -0.826823,0 -1.223958,0.29297 -0.390625,0.28646 -0.579427,1.02213 l -1.145834,-0.15625 q 0.15625,-0.73567 0.514323,-1.18489 0.358073,-0.45573 1.035156,-0.69662 0.677084,-0.24739 1.569011,-0.24739 0.885416,0 1.438802,0.20833 0.553385,0.20833 0.813802,0.52734 0.260417,0.3125 0.364583,0.79427 0.05859,0.29948 0.05859,1.08073 v 1.5625 q 0,1.63412 0.07161,2.07032 0.07813,0.42968 0.299479,0.82682 h -1.223959 q -0.182291,-0.36458 -0.234375,-0.85287 z m -0.09766,-2.61718 q -0.638021,0.26041 -1.914062,0.44271 -0.722657,0.10416 -1.022136,0.23437 -0.299479,0.13021 -0.462239,0.38412 -0.162761,0.24739 -0.162761,0.55338 0,0.46875 0.351563,0.78125 0.358073,0.3125 1.041666,0.3125 0.677084,0 1.204427,-0.29297 0.527344,-0.29948 0.77474,-0.8138 0.188802,-0.39714 0.188802,-1.17188 z m 3.001301,3.47005 v -9.54427 h 1.171875 v 3.42448 q 0.820312,-0.95052 2.070312,-0.95052 0.76823,0 1.334636,0.30599 0.566406,0.29948 0.807291,0.83333 0.247396,0.53385 0.247396,1.54948 v 4.38151 h -1.171875 v -4.38151 q 0,-0.87891 -0.384114,-1.27604 -0.377604,-0.40365 -1.074219,-0.40365 -0.520833,0 -0.983073,0.27344 -0.455729,0.26693 -0.651041,0.72917 -0.195313,0.46224 -0.195313,1.27604 v 3.78255 z m 12.148436,-2.22656 1.210938,0.14974 q -0.286459,1.06119 -1.061198,1.64713 -0.77474,0.58594 -1.979167,0.58594 -1.516927,0 -2.408854,-0.93099 -0.885417,-0.9375 -0.885417,-2.6237 0,-1.74479 0.898438,-2.70833 0.898437,-0.96354 2.330729,-0.96354 1.386719,0 2.265625,0.94401 0.878906,0.94401 0.878906,2.65625 0,0.10416 -0.0065,0.3125 h -5.15625 q 0.0651,1.13932 0.644531,1.74479 0.579427,0.60547 1.445313,0.60547 0.644531,0 1.10026,-0.33854 0.455729,-0.33855 0.722656,-1.08073 z m -3.847656,-1.89453 h 3.860677 q -0.07813,-0.8724 -0.442708,-1.3086 -0.559896,-0.67708 -1.451823,-0.67708 -0.807292,0 -1.360677,0.54036 -0.546875,0.54037 -0.605469,1.44532 z m 11.0612,4.12109 v -1.01563 q -0.807291,1.17188 -2.19401,1.17188 -0.611979,0 -1.145833,-0.23438 -0.527344,-0.23437 -0.787761,-0.58593 -0.253906,-0.35808 -0.358073,-0.8724 -0.07161,-0.34505 -0.07161,-1.09375 v -4.28385 h 1.171875 v 3.83463 q 0,0.91797 0.07161,1.23698 0.110677,0.46224 0.46875,0.72917 0.358073,0.26041 0.885417,0.26041 0.527344,0 0.989583,-0.26692 0.46224,-0.27344 0.651042,-0.73568 0.195312,-0.46875 0.195312,-1.35417 v -3.70442 h 1.171875 v 6.91406 z m 2.871093,0 v -6.91406 h 1.054687 v 1.04817 q 0.403646,-0.73567 0.742188,-0.97005 0.345052,-0.23437 0.755208,-0.23437 0.592448,0 1.204427,0.3776 l -0.403646,1.08724 q -0.429687,-0.25391 -0.859375,-0.25391 -0.384114,0 -0.690104,0.23438 -0.305989,0.22786 -0.436198,0.63802 -0.195312,0.625 -0.195312,1.36719 v 3.61979 z m 4.4596328,-8.19662 v -1.34765 h 1.171875 v 1.34765 z m 0,8.19662 v -6.91406 h 1.171875 v 6.91406 z m 2.4869818,-2.0638 1.1588541,-0.18229 q 0.097656,0.69661 0.5403646,1.0677 0.4492187,0.3711 1.2499999,0.3711 0.8072917,0 1.1979167,-0.32552 0.390625,-0.33203 0.390625,-0.77474 0,-0.39714 -0.3450521,-0.625 -0.2408854,-0.15625 -1.1979167,-0.39714 -1.2890624,-0.32552 -1.7903645,-0.55989 -0.4947916,-0.24089 -0.7552083,-0.65756 -0.2539063,-0.42317 -0.2539063,-0.93099 0,-0.46224 0.2083334,-0.85286 0.2148437,-0.39714 0.579427,-0.65755 0.2734375,-0.20183 0.7421875,-0.33854 0.4752604,-0.14323 1.015625,-0.14323 0.8138021,0 1.4257812,0.23437 0.6184896,0.23438 0.9114583,0.63802 0.2929688,0.39714 0.4036459,1.06771 l -1.1458334,0.15625 q -0.078125,-0.53385 -0.4557291,-0.83333 -0.3710937,-0.29948 -1.0546875,-0.29948 -0.8072916,0 -1.1523437,0.26693 -0.3450521,0.26692 -0.3450521,0.625 0,0.22786 0.1432292,0.41015 0.1432291,0.1888 0.4492187,0.3125 0.1757813,0.0651 1.0351562,0.29948 1.2434896,0.33203 1.7317708,0.54688 0.4947917,0.20833 0.7747396,0.61198 0.2799479,0.40364 0.2799479,1.0026 0,0.58594 -0.3450521,1.10677 -0.3385416,0.51432 -0.9830729,0.80078 -0.6445312,0.27995 -1.4583333,0.27995 -1.3476562,0 -2.0572916,-0.5599 -0.703125,-0.55989 -0.8984374,-1.66015 z m 9.6940116,1.01562 0.1692708,1.03516 q -0.4947917,0.10417 -0.8854166,0.10417 -0.6380209,0 -0.9895834,-0.20183 -0.35156245,-0.20182 -0.49479161,-0.52734 -0.14322917,-0.33203 -0.14322917,-1.38672 v -3.97786 h -0.85937498 v -0.91146 h 0.85937498 v -1.71224 l 1.16536458,-0.70313 v 2.41537 h 1.1783854 v 0.91146 H 1.5598958 v 4.04296 q 0,0.50131 0.058594,0.64454 0.065104,0.14322 0.2018229,0.22786 0.1432292,0.0846 0.4036459,0.0846 0.1953125,0 0.5143229,-0.0456 z m 1.1523387,-7.14844 v -1.34765 h 1.171875 v 1.34765 z m 0,8.19662 v -6.91406 h 1.171875 v 6.91406 z m 7.4674501,-2.53255 1.152344,0.14974 q -0.188802,1.1914 -0.970052,1.86849 -0.77474,0.67057 -1.9075521,0.67057 -1.4192708,0 -2.2851562,-0.92448 -0.859375,-0.93099 -0.859375,-2.66276 0,-1.11979 0.3710937,-1.95964 0.3710938,-0.83984 1.1263021,-1.25651 0.7617187,-0.42317 1.6536458,-0.42317 1.1263017,0 1.8424477,0.57291 0.716146,0.56641 0.917969,1.61459 l -1.139323,0.17578 q -0.16276,-0.69662 -0.579427,-1.04818 -0.410156,-0.35156 -0.9960938,-0.35156 -0.8854166,0 -1.438802,0.63802 -0.5533855,0.63151 -0.5533855,2.00521 0,1.39323 0.5338542,2.02474 0.5338542,0.63151 1.3932291,0.63151 0.690104,0 1.152344,-0.42318 0.462239,-0.42318 0.585937,-1.30208 z m 1.686196,0.46875 1.158854,-0.18229 q 0.09766,0.69661 0.540364,1.0677 0.449219,0.3711 1.25,0.3711 0.807292,0 1.197917,-0.32552 0.390625,-0.33203 0.390625,-0.77474 0,-0.39714 -0.345052,-0.625 -0.240885,-0.15625 -1.197917,-0.39714 -1.289062,-0.32552 -1.790364,-0.55989 -0.494792,-0.24089 -0.755209,-0.65756 -0.253906,-0.42317 -0.253906,-0.93099 0,-0.46224 0.208334,-0.85286 0.214843,-0.39714 0.579427,-0.65755 0.273437,-0.20183 0.742187,-0.33854 0.475261,-0.14323 1.015625,-0.14323 0.813802,0 1.425781,0.23437 0.61849,0.23438 0.911459,0.63802 0.292968,0.39714 0.403645,1.06771 l -1.145833,0.15625 q -0.07813,-0.53385 -0.455729,-0.83333 -0.371094,-0.29948 -1.054687,-0.29948 -0.807292,0 -1.152344,0.26693 -0.345052,0.26692 -0.345052,0.625 0,0.22786 0.143229,0.41015 0.143229,0.1888 0.449219,0.3125 0.175781,0.0651 1.035156,0.29948 1.243489,0.33203 1.731771,0.54688 0.494791,0.20833 0.774739,0.61198 0.279948,0.40364 0.279948,1.0026 0,0.58594 -0.345052,1.10677 -0.338542,0.51432 -0.983073,0.80078 -0.644531,0.27995 -1.458333,0.27995 -1.347656,0 -2.057292,-0.5599 -0.703125,-0.55989 -0.898437,-1.66015 z"
       id="flowRoot4669"
       style="font-size:13.3333px;line-height:125%;font-family:'Liberation Sans';-inkscape-font-specification:'Liberation Sans, Normal';fill:#4e9a06"
       transform="matrix(0.74004416,-0.12179753,0.12179753,0.74004416,636.10986,-101.10543)"
       aria-label="Metaheuristics" />
    <g
       id="flowRoot4962"
       style="font-size:21.3333px;line-height:125%;font-family:'Liberation Sans';-inkscape-font-specification:'Liberation Sans, Normal'"
       transform="matrix(0.75,0,0,0.75,529.98437,277.87944)"
       aria-label="&#10;&#10;&#10;&#10;&#10;Metaheuristics deliver good quality in time.&#10;Note: Metaheuristics include a CH to initialize.&#10;">
      <path
         d="m -131.80209,379.37732 v -15.27081 h 4.61458 l 2.77083,10.41665 2.73958,-10.41665 h 4.62499 v 15.27081 h -2.86458 V 367.3565 l -3.03124,12.02082 h -2.96875 l -3.02083,-12.02082 v 12.02082 z"
         id="path1" />
      <path
         style="font-weight:bold;fill:#4e9a06"
         d="m -107.60421,375.85649 2.91666,0.48958 q -0.56249,1.60417 -1.78124,2.44792 -1.20833,0.83333 -3.03125,0.83333 -2.88541,0 -4.27082,-1.88542 -1.09375,-1.51041 -1.09375,-3.81249 0,-2.74999 1.4375,-4.30208 1.43749,-1.56249 3.63541,-1.56249 2.46874,0 3.89582,1.63541 1.42708,1.625 1.36458,4.98958 h -7.33332 q 0.0312,1.30208 0.70834,2.03124 0.67708,0.71875 1.68749,0.71875 0.6875,0 1.15625,-0.375 0.46875,-0.375 0.70833,-1.20833 z m 0.16667,-2.95833 q -0.0312,-1.27083 -0.65625,-1.92708 -0.625,-0.66666 -1.52083,-0.66666 -0.95833,0 -1.58333,0.69791 -0.625,0.69792 -0.61458,1.89583 z m 10.364566,-4.58332 v 2.33333 h -1.999996 v 4.45832 q 0,1.35417 0.05208,1.58333 0.0625,0.21875 0.260416,0.36459 0.208333,0.14583 0.499999,0.14583 0.40625,0 1.177082,-0.28125 l 0.249999,2.27083 q -1.020831,0.4375 -2.312496,0.4375 -0.791665,0 -1.427083,-0.26042 -0.63541,-0.27083 -0.9375,-0.6875 -0.29166,-0.42708 -0.40625,-1.14583 -0.0937,-0.51041 -0.0937,-2.06249 v -4.82291 h -1.34374 v -2.33333 h 1.34374 v -2.19792 l 2.9375,-1.70833 v 3.90625 z m 4.218743,3.37499 -2.656246,-0.47916 q 0.447916,-1.60417 1.541664,-2.375 1.093749,-0.77083 3.249995,-0.77083 1.958331,0 2.916662,0.46875 0.958332,0.45833 1.343748,1.17708 0.395833,0.70833 0.395833,2.61458 l -0.03125,3.41666 q 0,1.45833 0.135416,2.15624 0.145834,0.6875 0.53125,1.47917 h -2.895829 q -0.114583,-0.29167 -0.28125,-0.86458 -0.07292,-0.26042 -0.104166,-0.34375 -0.749999,0.72916 -1.604164,1.09375 -0.854166,0.36458 -1.822914,0.36458 -1.708331,0 -2.697913,-0.92708 -0.979165,-0.92709 -0.979165,-2.34375 0,-0.9375 0.447916,-1.66666 0.447916,-0.73959 1.249998,-1.125 0.812499,-0.39583 2.33333,-0.6875 2.05208,-0.38542 2.843745,-0.71875 v -0.29167 q 0,-0.84374 -0.416666,-1.19791 -0.416666,-0.36458 -1.572914,-0.36458 -0.781249,0 -1.218748,0.3125 -0.437499,0.30208 -0.708332,1.07291 z m 3.91666,2.375 q -0.562499,0.1875 -1.781247,0.44791 -1.218748,0.26042 -1.593747,0.51042 -0.572916,0.40625 -0.572916,1.03125 0,0.61458 0.458333,1.0625 0.458332,0.44791 1.166664,0.44791 0.791666,0 1.510415,-0.52083 0.531249,-0.39583 0.697915,-0.96875 0.114583,-0.375 0.114583,-1.42708 z m 8.677072,-9.95832 v 5.61457 q 1.416665,-1.65624 3.385412,-1.65624 1.010415,0 1.822913,0.375 0.812499,0.375 1.218748,0.95833 0.416666,0.58333 0.5625,1.29166 0.156249,0.70833 0.156249,2.19792 v 6.48957 h -2.927078 v -5.84374 q 0,-1.73958 -0.166667,-2.20833 -0.166666,-0.46875 -0.593749,-0.73958 -0.416666,-0.28125 -1.052082,-0.28125 -0.729165,0 -1.302081,0.35416 -0.572916,0.35417 -0.843748,1.07292 -0.260417,0.70833 -0.260417,2.10416 v 5.54166 h -2.927078 v -15.27081 z m 16.520805,11.74998 2.916662,0.48958 q -0.562499,1.60417 -1.781247,2.44792 -1.208331,0.83333 -3.031245,0.83333 -2.885412,0 -4.270827,-1.88542 -1.093748,-1.51041 -1.093748,-3.81249 0,-2.74999 1.437498,-4.30208 1.437497,-1.56249 3.635411,-1.56249 2.468746,0 3.895827,1.63541 1.427081,1.625 1.364581,4.98958 h -7.333322 q 0.03125,1.30208 0.708332,2.03124 0.677083,0.71875 1.687498,0.71875 0.687499,0 1.156248,-0.375 0.468749,-0.375 0.708332,-1.20833 z m 0.166667,-2.95833 q -0.03125,-1.27083 -0.656249,-1.92708 -0.624999,-0.66666 -1.520831,-0.66666 -0.958332,0 -1.583331,0.69791 -0.624999,0.69792 -0.614582,1.89583 z m 12.572899,6.47916 v -1.65625 q -0.604166,0.88542 -1.593748,1.39583 -0.979165,0.51042 -2.072913,0.51042 -1.114582,0 -1.999997,-0.48958 -0.885415,-0.48959 -1.281248,-1.375 -0.395833,-0.88542 -0.395833,-2.44791 v -6.99999 h 2.927079 v 5.08332 q 0,2.33333 0.15625,2.86458 0.166666,0.52083 0.593749,0.83333 0.427082,0.30209 1.083331,0.30209 0.749999,0 1.343748,-0.40625 0.593749,-0.41667 0.812499,-1.02084 0.21875,-0.61458 0.21875,-2.98957 v -4.66666 h 2.927078 v 11.06248 z m 8.552067,0 h -2.927079 v -11.06248 h 2.718746 v 1.57291 q 0.697916,-1.11458 1.249998,-1.46875 0.562499,-0.35416 1.270832,-0.35416 0.999998,0 1.92708,0.55208 l -0.906249,2.55208 q -0.739582,-0.47917 -1.374998,-0.47917 -0.614582,0 -1.041665,0.34375 -0.427082,0.33333 -0.677082,1.21875 -0.239583,0.88542 -0.239583,3.70833 z m 5.499992,-12.56248 v -2.70833 h 2.927079 v 2.70833 z m 0,12.56248 v -11.06248 h 2.927079 v 11.06248 z m 4.89583,-3.15625 2.937495,-0.44791 q 0.1875,0.85416 0.760416,1.30208 0.572915,0.4375 1.604164,0.4375 1.135415,0 1.70833,-0.41667 0.385416,-0.29166 0.385416,-0.78125 0,-0.33333 -0.208333,-0.55208 -0.218749,-0.20833 -0.979165,-0.38541 -3.541661,-0.78125 -4.489576,-1.42709 -1.312498,-0.89583 -1.312498,-2.48958 0,-1.43749 1.135415,-2.41666 1.135415,-0.97916 3.520828,-0.97916 2.270829,0 3.374994,0.73958 1.104165,0.73958 1.520831,2.1875 l -2.760412,0.51041 q -0.177083,-0.64583 -0.677082,-0.98958 -0.489583,-0.34375 -1.406248,-0.34375 -1.156248,0 -1.656247,0.32292 -0.333333,0.22916 -0.333333,0.59375 0,0.31249 0.291666,0.53124 0.395833,0.29167 2.729162,0.82292 2.343747,0.53125 3.270829,1.30208 0.916665,0.78125 0.916665,2.17708 0,1.52083 -1.270832,2.61458 -1.270831,1.09375 -3.76041,1.09375 -2.260413,0 -3.583328,-0.91667 -1.312498,-0.91666 -1.718747,-2.48958 z m 17.96872,-7.90623 v 2.33333 h -1.999997 v 4.45832 q 0,1.35417 0.05208,1.58333 0.0625,0.21875 0.260416,0.36459 0.208333,0.14583 0.5,0.14583 0.406249,0 1.177081,-0.28125 l 0.25,2.27083 q -1.020832,0.4375 -2.312497,0.4375 -0.791665,0 -1.427081,-0.26042 -0.635415,-0.27083 -0.937498,-0.6875 -0.291666,-0.42708 -0.40625,-1.14583 -0.09375,-0.51041 -0.09375,-2.06249 v -4.82291 h -1.343748 v -2.33333 h 1.343748 v -2.19792 l 2.937495,-1.70833 v 3.90625 z m 2.031248,-1.5 v -2.70833 h 2.9270783 v 2.70833 z m 0,12.56248 v -11.06248 h 2.9270783 v 11.06248 z m 15.5728883,-7.79166 -2.88541209,0.52084 q -0.14583311,-0.86458 -0.66666562,-1.30208 -0.51041586,-0.4375 -1.33333119,-0.4375 -1.0937483,0 -1.7499973,0.76041 -0.6458323,0.75 -0.6458323,2.52083 0,1.96875 0.656249,2.78125 0.6666656,0.8125 1.7812472,0.8125 0.83333198,0 1.36458114,-0.46875 0.53124916,-0.47917 0.74999882,-1.63542 l 2.87499544,0.48958 q -0.4479159,1.97917 -1.7187473,2.98958 -1.27083129,1.01042 -3.4062446,1.01042 -2.4270795,0 -3.8749939,-1.53125 -1.4374977,-1.53125 -1.4374977,-4.23958 0,-2.73957 1.4479144,-4.26041 1.4479144,-1.53124 3.9166605,-1.53124 2.02083011,0 3.2083282,0.875 1.1979148,0.86458 1.7187473,2.64582 z m 1.1874965,4.63541 2.9374954,-0.44791 q 0.1874997,0.85416 0.7604155,1.30208 0.5729157,0.4375 1.6041643,0.4375 1.135415,0 1.70833,-0.41667 0.385416,-0.29166 0.385416,-0.78125 0,-0.33333 -0.208333,-0.55208 -0.218749,-0.20833 -0.979165,-0.38541 -3.5416607,-0.78125 -4.4895759,-1.42709 -1.3124979,-0.89583 -1.3124979,-2.48958 0,-1.43749 1.1354149,-2.41666 1.1354148,-0.97916 3.5208277,-0.97916 2.2708302,0 3.3749952,0.73958 1.104164,0.73958 1.52083,2.1875 l -2.760412,0.51041 q -0.177083,-0.64583 -0.677082,-0.98958 -0.489583,-0.34375 -1.4062479,-0.34375 -1.1562482,0 -1.6562474,0.32292 -0.3333328,0.22916 -0.3333328,0.59375 0,0.31249 0.2916662,0.53124 0.3958327,0.29167 2.7291619,0.82292 2.343747,0.53125 3.270829,1.30208 0.916665,0.78125 0.916665,2.17708 0,1.52083 -1.270831,2.61458 -1.270832,1.09375 -3.760411,1.09375 -2.2604133,0 -3.5833279,-0.91667 -1.3124979,-0.91666 -1.7187473,-2.48958 z m 28.9687072,3.15625 h -2.718746 v -1.625 q -0.677082,0.94792 -1.604164,1.41667 -0.916665,0.45833 -1.854164,0.45833 -1.906247,0 -3.270828,-1.53125 -1.354165,-1.54166 -1.354165,-4.29166 0,-2.81249 1.322915,-4.27083 1.322915,-1.46874 3.343745,-1.46874 1.854164,0 3.208328,1.54166 v -5.49999 h 2.927079 z m -7.812488,-5.77083 q 0,1.77084 0.489583,2.5625 0.708332,1.14583 1.979163,1.14583 1.010415,0 1.718747,-0.85416 0.708333,-0.86459 0.708333,-2.57292 0,-1.90624 -0.687499,-2.73957 -0.687499,-0.84375 -1.760414,-0.84375 -1.041665,0 -1.749997,0.83333 -0.697916,0.82291 -0.697916,2.46874 z m 17.104145,2.25 2.916662,0.48958 q -0.562499,1.60417 -1.781247,2.44792 -1.208331,0.83333 -3.031245,0.83333 -2.885412,0 -4.270827,-1.88542 -1.093748,-1.51041 -1.093748,-3.81249 0,-2.74999 1.437498,-4.30208 1.437497,-1.56249 3.635411,-1.56249 2.468746,0 3.895827,1.63541 1.427081,1.625 1.364581,4.98958 h -7.333322 q 0.03125,1.30208 0.708332,2.03124 0.677083,0.71875 1.687498,0.71875 0.687499,0 1.156248,-0.375 0.468749,-0.375 0.708332,-1.20833 z m 0.166666,-2.95833 q -0.03125,-1.27083 -0.656248,-1.92708 -0.625,-0.66666 -1.520831,-0.66666 -0.958332,0 -1.583331,0.69791 -0.624999,0.69792 -0.614583,1.89583 z m 5.291657,6.47916 v -15.27081 h 2.927079 v 15.27081 z m 5.927078,-12.56248 v -2.70833 h 2.927079 v 2.70833 z m 0,12.56248 v -11.06248 h 2.927079 v 11.06248 z m 8.968725,0 -4.458326,-11.06248 h 3.072912 l 2.08333,5.64582 0.604166,1.88541 q 0.239582,-0.71874 0.302082,-0.94791 0.145834,-0.46875 0.3125,-0.9375 l 2.104163,-5.64582 h 3.010412 l -4.395826,11.06248 z m 15.229141,-3.52083 2.916662,0.48958 q -0.562499,1.60417 -1.781247,2.44792 -1.208331,0.83333 -3.031245,0.83333 -2.885412,0 -4.270827,-1.88542 -1.093748,-1.51041 -1.093748,-3.81249 0,-2.74999 1.437498,-4.30208 1.437498,-1.56249 3.635411,-1.56249 2.468746,0 3.895827,1.63541 1.427081,1.625 1.364581,4.98958 h -7.333322 q 0.03125,1.30208 0.708333,2.03124 0.677082,0.71875 1.687497,0.71875 0.687499,0 1.156248,-0.375 0.468749,-0.375 0.708332,-1.20833 z m 0.166667,-2.95833 q -0.03125,-1.27083 -0.656249,-1.92708 -0.624999,-0.66666 -1.520831,-0.66666 -0.958332,0 -1.583331,0.69791 -0.624999,0.69792 -0.614582,1.89583 z m 8.093735,6.47916 h -2.927078 v -11.06248 h 2.718745 v 1.57291 q 0.697916,-1.11458 1.249998,-1.46875 0.562499,-0.35416 1.270832,-0.35416 0.999998,0 1.92708,0.55208 l -0.906249,2.55208 q -0.739582,-0.47917 -1.374997,-0.47917 -0.614583,0 -1.041665,0.34375 -0.427083,0.33333 -0.677083,1.21875 -0.239583,0.88542 -0.239583,3.70833 z m 11.156245,0.72916 3.343748,0.40625 q 0.0833,0.58334 0.38541,0.80209 0.41667,0.3125 1.3125,0.3125 1.14583,0 1.71875,-0.34375 0.38541,-0.22917 0.58333,-0.73959 0.13542,-0.36458 0.13542,-1.34374 v -1.61458 q -1.3125,1.79166 -3.3125,1.79166 -2.229161,0 -3.531242,-1.88541 -1.020832,-1.48959 -1.020832,-3.70833 0,-2.78125 1.333331,-4.25 1.343753,-1.46874 3.333333,-1.46874 2.05208,0 3.38541,1.80208 v -1.55208 h 2.73958 v 9.92706 q 0,1.95833 -0.32292,2.92708 -0.32292,0.96875 -0.90625,1.52083 -0.58333,0.55209 -1.5625,0.86459 -0.96875,0.3125 -2.45833,0.3125 -2.81249,0 -3.989573,-0.96875 -1.177082,-0.95834 -1.177082,-2.4375 0,-0.14583 0.01042,-0.35417 z m 2.614578,-6.48957 q 0,1.76042 0.67708,2.58333 0.6875,0.8125 1.6875,0.8125 1.07292,0 1.8125,-0.83333 0.73958,-0.84375 0.73958,-2.48958 0,-1.71875 -0.70833,-2.55208 -0.70833,-0.83333 -1.79167,-0.83333 -1.05208,0 -1.73958,0.82291 -0.67708,0.8125 -0.67708,2.48958 z m 10.01039,0.0729 q 0,-1.45833 0.71875,-2.82291 0.71875,-1.36459 2.03125,-2.08333 1.32291,-0.71875 2.94791,-0.71875 2.51041,0 4.11458,1.63541 1.60416,1.625 1.60416,4.11458 0,2.51041 -1.625,4.16666 -1.61458,1.64583 -4.07291,1.64583 -1.52083,0 -2.90624,-0.6875 -1.375,-0.6875 -2.09375,-2.01041 -0.71875,-1.33334 -0.71875,-3.23958 z m 3,0.15625 q 0,1.64583 0.78125,2.52083 0.78124,0.875 1.92708,0.875 1.14583,0 1.91666,-0.875 0.78125,-0.875 0.78125,-2.54167 0,-1.62499 -0.78125,-2.49999 -0.77083,-0.875 -1.91666,-0.875 -1.14584,0 -1.92708,0.875 -0.78125,0.875 -0.78125,2.52083 z m 10.03122,-0.15625 q 0,-1.45833 0.71875,-2.82291 0.71875,-1.36459 2.03125,-2.08333 1.32291,-0.71875 2.94791,-0.71875 2.51041,0 4.11458,1.63541 1.60416,1.625 1.60416,4.11458 0,2.51041 -1.625,4.16666 -1.61458,1.64583 -4.07291,1.64583 -1.52083,0 -2.90624,-0.6875 -1.375,-0.6875 -2.09375,-2.01041 -0.71875,-1.33334 -0.71875,-3.23958 z m 3,0.15625 q 0,1.64583 0.78125,2.52083 0.78124,0.875 1.92708,0.875 1.14583,0 1.91666,-0.875 0.78125,-0.875 0.78125,-2.54167 0,-1.62499 -0.78125,-2.49999 -0.77083,-0.875 -1.91666,-0.875 -1.14584,0 -1.92708,0.875 -0.78125,0.875 -0.78125,2.52083 z m 20.85415,5.53124 h -2.71874 v -1.625 q -0.67709,0.94792 -1.60417,1.41667 -0.91666,0.45833 -1.85416,0.45833 -1.90625,0 -3.27083,-1.53125 -1.35417,-1.54166 -1.35417,-4.29166 0,-2.81249 1.32292,-4.27083 1.32291,-1.46874 3.34374,-1.46874 1.85417,0 3.20833,1.54166 v -5.49999 h 2.92708 z m -7.81249,-5.77083 q 0,1.77084 0.48959,2.5625 0.70833,1.14583 1.97916,1.14583 1.01041,0 1.71875,-0.85416 0.70833,-0.86459 0.70833,-2.57292 0,-1.90624 -0.6875,-2.73957 -0.6875,-0.84375 -1.76041,-0.84375 -1.04167,0 -1.75,0.83333 -0.69792,0.82291 -0.69792,2.46874 z m 23.85411,9.97916 v -5.5625 q -0.57291,0.73959 -1.42708,1.17709 -0.85416,0.42708 -1.84375,0.42708 -1.88541,0 -3.10416,-1.41667 -1.4375,-1.65624 -1.4375,-4.48957 0,-2.66666 1.34375,-4.15625 1.35417,-1.49999 3.35416,-1.49999 1.10417,0 1.90625,0.46875 0.8125,0.46875 1.4375,1.41666 v -1.63541 h 2.69791 v 15.27081 z m 0.0937,-9.87499 q 0,-1.69791 -0.69791,-2.52083 -0.6875,-0.83333 -1.72917,-0.83333 -1.0625,0 -1.78125,0.84375 -0.70833,0.84375 -0.70833,2.67708 0,1.82291 0.6875,2.63541 0.6875,0.80208 1.69792,0.80208 1.01041,0 1.77083,-0.90625 0.76041,-0.90625 0.76041,-2.69791 z m 12.98958,5.66666 v -1.65625 q -0.60416,0.88542 -1.59374,1.39583 -0.97917,0.51042 -2.07292,0.51042 -1.11458,0 -1.99999,-0.48958 -0.88542,-0.48959 -1.28125,-1.375 -0.39583,-0.88542 -0.39583,-2.44791 v -6.99999 h 2.92708 v 5.08332 q 0,2.33333 0.15624,2.86458 0.16667,0.52083 0.59375,0.83333 0.42709,0.30209 1.08334,0.30209 0.74999,0 1.34374,-0.40625 0.59375,-0.41667 0.8125,-1.02084 0.21875,-0.61458 0.21875,-2.98957 v -4.66666 h 2.92708 v 11.06248 z m 7.93748,-7.68749 -2.65624,-0.47916 q 0.44791,-1.60417 1.54166,-2.375 1.09375,-0.77083 3.25,-0.77083 1.95833,0 2.91666,0.46875 0.95833,0.45833 1.34375,1.17708 0.39583,0.70833 0.39583,2.61458 l -0.0312,3.41666 q 0,1.45833 0.13541,2.15624 0.14584,0.6875 0.53125,1.47917 h -2.89582 q -0.11459,-0.29167 -0.28125,-0.86458 -0.0729,-0.26042 -0.10417,-0.34375 -0.75,0.72916 -1.60417,1.09375 -0.85416,0.36458 -1.82291,0.36458 -1.70833,0 -2.69791,-0.92708 -0.97917,-0.92709 -0.97917,-2.34375 0,-0.9375 0.44792,-1.66666 0.44792,-0.73959 1.25,-1.125 0.8125,-0.39583 2.33333,-0.6875 2.05208,-0.38542 2.84374,-0.71875 v -0.29167 q 0,-0.84374 -0.41666,-1.19791 -0.41667,-0.36458 -1.57292,-0.36458 -0.78125,0 -1.21875,0.3125 -0.43749,0.30208 -0.70833,1.07291 z m 3.91666,2.375 q -0.5625,0.1875 -1.78124,0.44791 -1.21875,0.26042 -1.59375,0.51042 -0.57292,0.40625 -0.57292,1.03125 0,0.61458 0.45833,1.0625 0.45834,0.44791 1.16667,0.44791 0.79167,0 1.51041,-0.52083 0.53125,-0.39583 0.69792,-0.96875 0.11458,-0.375 0.11458,-1.42708 z m 5.76041,5.31249 v -15.27081 h 2.92708 v 15.27081 z m 5.92709,-12.56248 v -2.70833 h 2.92708 v 2.70833 z m 0,12.56248 v -11.06248 h 2.92708 v 11.06248 z m 10.99997,-11.06248 v 2.33333 h -1.99999 v 4.45832 q 0,1.35417 0.0521,1.58333 0.0625,0.21875 0.26042,0.36459 0.20833,0.14583 0.5,0.14583 0.40625,0 1.17708,-0.28125 l 0.25,2.27083 q -1.02083,0.4375 -2.3125,0.4375 -0.79166,0 -1.42708,-0.26042 -0.63542,-0.27083 -0.9375,-0.6875 -0.29167,-0.42708 -0.40625,-1.14583 -0.0937,-0.51041 -0.0937,-2.06249 v -4.82291 h -1.34375 v -2.33333 h 1.34375 v -2.19792 l 2.9375,-1.70833 v 3.90625 z m 0.64584,0 h 3.11458 l 2.64582,7.85415 2.58333,-7.85415 h 3.03125 l -3.90624,10.64581 -0.69792,1.92708 q -0.38542,0.96875 -0.73958,1.47917 -0.34375,0.51041 -0.80208,0.82291 -0.44792,0.32292 -1.11459,0.5 -0.65624,0.17709 -1.48958,0.17709 -0.84375,0 -1.65624,-0.17709 l -0.26042,-2.29166 q 0.6875,0.13542 1.23958,0.13542 1.02083,0 1.51042,-0.60417 0.48958,-0.59375 0.74999,-1.52083 z m 19.17704,-1.5 v -2.70833 h 2.92708 v 2.70833 z m 0,12.56248 v -11.06248 h 2.92708 v 11.06248 z m 15.98958,0 h -2.92708 v -5.64583 q 0,-1.79166 -0.1875,-2.31249 -0.1875,-0.53125 -0.61459,-0.82292 -0.41666,-0.29166 -1.01041,-0.29166 -0.76042,0 -1.36458,0.41666 -0.60417,0.41667 -0.83333,1.10417 -0.21875,0.6875 -0.21875,2.54166 v 5.01041 h -2.92708 v -11.06248 h 2.71874 v 1.62499 q 1.44792,-1.87499 3.64583,-1.87499 0.96875,0 1.77083,0.35416 0.80208,0.34375 1.20833,0.88542 0.41667,0.54166 0.57292,1.22916 0.16667,0.6875 0.16667,1.96875 z m 13.9687,-11.06248 v 2.33333 h -1.99999 v 4.45832 q 0,1.35417 0.0521,1.58333 0.0625,0.21875 0.26042,0.36459 0.20833,0.14583 0.49999,0.14583 0.40625,0 1.17709,-0.28125 l 0.25,2.27083 q -1.02084,0.4375 -2.3125,0.4375 -0.79167,0 -1.42708,-0.26042 -0.63542,-0.27083 -0.9375,-0.6875 -0.29167,-0.42708 -0.40625,-1.14583 -0.0938,-0.51041 -0.0938,-2.06249 v -4.82291 h -1.34375 v -2.33333 h 1.34375 v -2.19792 l 2.9375,-1.70833 v 3.90625 z m 2.03125,-1.5 v -2.70833 h 2.92708 v 2.70833 z m 0,12.56248 v -11.06248 h 2.92708 v 11.06248 z m 5.70834,-11.06248 h 2.69792 v 1.51041 q 1.44791,-1.76041 3.44791,-1.76041 1.0625,0 1.84374,0.4375 0.78125,0.4375 1.28125,1.32291 0.72917,-0.88541 1.57292,-1.32291 0.84375,-0.4375 1.80208,-0.4375 1.21875,0 2.06249,0.5 0.84375,0.48958 1.26042,1.44791 0.30208,0.70833 0.30208,2.29166 v 7.07291 h -2.92708 v -6.32291 q 0,-1.64583 -0.30208,-2.12499 -0.40625,-0.625 -1.25,-0.625 -0.61458,0 -1.15625,0.375 -0.54166,0.375 -0.78124,1.10416 -0.23959,0.71875 -0.23959,2.28125 v 5.31249 h -2.92708 v -6.06249 q 0,-1.61458 -0.15625,-2.08333 -0.15625,-0.46875 -0.48958,-0.69792 -0.32291,-0.22916 -0.88541,-0.22916 -0.67709,0 -1.21875,0.36458 -0.54167,0.36458 -0.78125,1.05208 -0.22917,0.6875 -0.22917,2.28125 v 5.37499 h -2.92708 z m 25.59371,7.54165 2.91667,0.48958 q -0.5625,1.60417 -1.78125,2.44792 -1.20833,0.83333 -3.03125,0.83333 -2.88541,0 -4.27082,-1.88542 -1.09375,-1.51041 -1.09375,-3.81249 0,-2.74999 1.4375,-4.30208 1.43749,-1.56249 3.63541,-1.56249 2.46874,0 3.89582,1.63541 1.42708,1.625 1.36458,4.98958 h -7.33332 q 0.0312,1.30208 0.70834,2.03124 0.67708,0.71875 1.68749,0.71875 0.6875,0 1.15625,-0.375 0.46875,-0.375 0.70833,-1.20833 z m 0.16667,-2.95833 q -0.0312,-1.27083 -0.65625,-1.92708 -0.625,-0.66666 -1.52083,-0.66666 -0.95833,0 -1.58333,0.69791 -0.625,0.69792 -0.61458,1.89583 z m 5.29166,6.47916 v -2.92708 h 2.92707 v 2.92708 z"
         id="path2" />
      <path
         style="font-size:18.6667px;fill:#4e9a06"
         d="m -131.89062,406.04394 v -13.362 h 1.8138 l 7.01824,10.49091 v -10.49091 h 1.69532 v 13.362 h -1.81381 l -7.01824,-10.50001 v 10.50001 z m 12.67841,-4.83985 q 0,-2.6888 1.49479,-3.98308 1.2487,-1.07552 3.04428,-1.07552 1.99609,0 3.26302,1.3125 1.26693,1.30339 1.26693,3.60938 0,1.8685 -0.5651,2.94402 -0.55599,1.06641 -1.63152,1.65886 -1.0664,0.59245 -2.33333,0.59245 -2.03256,0 -3.29037,-1.30339 -1.2487,-1.30339 -1.2487,-3.75522 z m 1.6862,0 q 0,1.85938 0.8112,2.78907 0.8112,0.92057 2.04167,0.92057 1.22135,0 2.03255,-0.92968 0.8112,-0.92969 0.8112,-2.83465 0,-1.79557 -0.82031,-2.71615 -0.8112,-0.92969 -2.02344,-0.92969 -1.23047,0 -2.04167,0.92058 -0.8112,0.92057 -0.8112,2.77995 z m 12.88804,3.3724 0.23698,1.44923 q -0.69271,0.14583 -1.23958,0.14583 -0.89324,0 -1.38542,-0.28255 -0.49219,-0.28256 -0.69271,-0.73829 -0.20052,-0.46484 -0.20052,-1.94141 v -5.56902 h -1.20313 v -1.27604 h 1.20313 v -2.39714 l 1.63151,-0.98438 v 3.38152 h 1.64974 v 1.27604 h -1.64974 v 5.66017 q 0,0.70182 0.082,0.90235 0.0911,0.20052 0.28255,0.31901 0.20052,0.11849 0.56511,0.11849 0.27344,0 0.72005,-0.0638 z m 8.230484,-1.64974 1.695316,0.20964 q -0.401043,1.48568 -1.48568,2.30599 -1.084637,0.82032 -2.770838,0.82032 -2.123702,0 -3.372402,-1.30339 -1.23959,-1.3125 -1.23959,-3.67319 0,-2.44271 1.25782,-3.79167 1.25781,-1.34896 3.263026,-1.34896 1.941409,0 3.17188,1.32162 1.230471,1.32161 1.230471,3.71875 0,0.14584 -0.0091,0.4375 h -7.218763 q 0.0911,1.59506 0.90235,2.44272 0.81119,0.84765 2.023436,0.84765 0.902346,0 1.540368,-0.47395 0.638022,-0.47396 1.01172,-1.51303 z m -5.386724,-2.65235 h 5.404953 q -0.109375,-1.22135 -0.619792,-1.83203 -0.783856,-0.94792 -2.032556,-0.94792 -1.130215,0 -1.904955,0.75651 -0.76562,0.75651 -0.84765,2.02344 z m 9.597671,-2.04167 v -1.86849 h 1.868493 v 1.86849 z m 0,7.81121 v -1.86849 h 1.868493 v 1.86849 z m 10.071632,0 v -13.362 h 2.661463 l 3.162766,9.46096 q 0.437501,1.32161 0.638022,1.97786 0.227865,-0.72916 0.710939,-2.14193 l 3.199224,-9.29689 h 2.378911 v 13.362 h -1.70443 v -11.18361 l -3.88282,11.18361 h -1.595055 l -3.86459,-11.37502 v 11.37502 z m 22.020869,-3.11719 1.695316,0.20964 q -0.401043,1.48568 -1.48568,2.30599 -1.084638,0.82032 -2.770839,0.82032 -2.123701,0 -3.372402,-1.30339 -1.239585,-1.3125 -1.239585,-3.67319 0,-2.44271 1.257815,-3.79167 1.257814,-1.34896 3.263026,-1.34896 1.94141,0 3.171881,1.32162 1.230471,1.32161 1.230471,3.71875 0,0.14584 -0.0091,0.4375 h -7.218764 q 0.09115,1.59506 0.902346,2.44272 0.811199,0.84765 2.023441,0.84765 0.902345,0 1.540367,-0.47395 0.638022,-0.47396 1.011721,-1.51303 z m -5.386729,-2.65235 h 5.404958 q -0.109375,-1.22135 -0.619793,-1.83203 -0.783855,-0.94792 -2.032555,-0.94792 -1.130211,0 -1.904952,0.75651 -0.765626,0.75651 -0.847658,2.02344 z m 12.723983,4.30209 0.23698,1.44923 q -0.69271,0.14583 -1.239586,0.14583 -0.89323,0 -1.385419,-0.28255 -0.492188,-0.28256 -0.692709,-0.73829 -0.200522,-0.46484 -0.200522,-1.94141 v -5.56902 h -1.203127 v -1.27604 h 1.203127 v -2.39714 l 1.631514,-0.98438 v 3.38152 h 1.649742 v 1.27604 h -1.649742 v 5.66017 q 0,0.70182 0.08203,0.90235 0.09115,0.20052 0.282553,0.31901 0.200521,0.11849 0.565105,0.11849 0.273438,0 0.720053,-0.0638 z m 7.920591,0.27344 q -0.91146,0.77474 -1.759118,1.09375 -0.838543,0.31902 -1.804691,0.31902 -1.595055,0 -2.451827,-0.77475 -0.856772,-0.78385 -0.856772,-1.99609 0,-0.71094 0.319011,-1.29428 0.328125,-0.59245 0.847657,-0.94791 0.528647,-0.35547 1.184898,-0.53777 0.483074,-0.1276 1.458336,-0.24609 1.986983,-0.23698 2.925787,-0.56511 0.0091,-0.33724 0.0091,-0.42838 0,-1.00261 -0.464845,-1.41276 -0.628907,-0.556 -1.868493,-0.556 -1.157554,0 -1.713545,0.41016 -0.546876,0.40104 -0.811199,1.43099 l -1.60417,-0.21875 q 0.218751,-1.02995 0.720054,-1.65885 0.501303,-0.63803 1.449221,-0.97527 0.947918,-0.34635 2.196619,-0.34635 1.239585,0 2.014326,0.29167 0.774741,0.29166 1.139325,0.73828 0.364584,0.4375 0.510418,1.11198 0.08203,0.41927 0.08203,1.51302 v 2.18751 q 0,2.28776 0.100261,2.89844 0.109375,0.60156 0.419271,1.15755 h -1.713544 q -0.255209,-0.51041 -0.328126,-1.19401 z m -0.136719,-3.66407 q -0.893231,0.36459 -2.679692,0.6198 -1.011721,0.14583 -1.430993,0.32812 -0.419271,0.18229 -0.647136,0.53776 -0.227865,0.34636 -0.227865,0.77474 0,0.65626 0.492188,1.09376 0.501303,0.4375 1.458336,0.4375 0.947919,0 1.686201,-0.41016 0.738283,-0.41927 1.084638,-1.13933 0.264323,-0.55599 0.264323,-1.64062 z m 4.201832,4.85808 v -13.362 h 1.640628 v 4.79428 q 1.14844,-1.33073 2.898443,-1.33073 1.075523,0 1.868493,0.42839 0.79297,0.41927 1.13021,1.16666 0.346355,0.7474 0.346355,2.16928 v 6.13412 h -1.640628 v -6.13412 q 0,-1.23047 -0.537761,-1.78646 -0.528647,-0.56511 -1.503909,-0.56511 -0.729168,0 -1.376305,0.38282 -0.638022,0.37369 -0.91146,1.02083 -0.273438,0.64714 -0.273438,1.78646 v 5.29558 z m 17.007837,-3.11719 1.695316,0.20964 q -0.401043,1.48568 -1.48568,2.30599 -1.084637,0.82032 -2.770838,0.82032 -2.123702,0 -3.372402,-1.30339 -1.239586,-1.3125 -1.239586,-3.67319 0,-2.44271 1.257815,-3.79167 1.257815,-1.34896 3.263027,-1.34896 1.941409,0 3.17188,1.32162 1.230471,1.32161 1.230471,3.71875 0,0.14584 -0.0091,0.4375 h -7.218763 q 0.09115,1.59506 0.902345,2.44272 0.8112,0.84765 2.023441,0.84765 0.902346,0 1.540368,-0.47395 0.638022,-0.47396 1.01172,-1.51303 z m -5.386728,-2.65235 h 5.404957 q -0.109375,-1.22135 -0.619792,-1.83203 -0.783856,-0.94792 -2.032556,-0.94792 -1.13021,0 -1.904951,0.75651 -0.765627,0.75651 -0.847658,2.02344 z m 15.485706,5.76954 v -1.42187 q -1.13021,1.64063 -3.07162,1.64063 -0.856772,0 -1.604169,-0.32813 -0.738283,-0.32813 -1.102867,-0.82031 -0.355469,-0.50131 -0.501303,-1.22136 -0.10026,-0.48307 -0.10026,-1.53125 v -5.99741 h 1.640628 v 5.3685 q 0,1.28516 0.10026,1.73177 0.154948,0.64714 0.656251,1.02084 0.501303,0.36458 1.239586,0.36458 0.738282,0 1.385419,-0.3737 0.647137,-0.38281 0.91146,-1.02995 0.273438,-0.65625 0.273438,-1.89583 v -5.18621 h 1.640628 v 9.6797 z m 4.0195405,0 v -9.6797 h 1.4765652 v 1.46745 q 0.5651052,-1.02995 1.0390644,-1.35807 0.4830738,-0.32813 1.0572935,-0.32813 0.8294286,0 1.686201,0.52865 l -0.5651052,1.52213 q -0.6015636,-0.35546 -1.2031272,-0.35546 -0.5377613,0 -0.9661475,0.32812 -0.4283862,0.31901 -0.6106782,0.89323 -0.273438,0.875 -0.273438,1.91407 v 5.06771 z m 6.2434922,-11.47528 v -1.88672 h 1.640628 v 1.88672 z m 0,11.47528 v -9.6797 h 1.640628 v 9.6797 z m 3.48178998,-2.88932 1.62239872,-0.25521 q 0.136719,0.97526 0.7565118,1.49479 0.6289074,0.51953 1.7500032,0.51953 1.1302104,0 1.6770863,-0.45573 0.546876,-0.46484 0.546876,-1.08463 0,-0.55599 -0.4830738,-0.875 -0.3372402,-0.21875 -1.6770863,-0.556 -1.8046908,-0.45573 -2.506515,-0.78385 -0.6927095,-0.33724 -1.05729354,-0.92058 -0.35546939,-0.59244 -0.35546939,-1.30338 0,-0.64714 0.29166719,-1.19402 0.3007818,-0.55599 0.81119934,-0.92057 0.3828132,-0.28255 1.0390644,-0.47396 0.6653658,-0.20052 1.4218776,-0.20052 1.139325,0 1.9960973,0.32813 0.865887,0.32812 1.276044,0.89323 0.410157,0.55599 0.5651052,1.49479 l -1.6041696,0.21875 q -0.1093752,-0.7474 -0.6380219,-1.16667 -0.5195322,-0.41927 -1.4765652,-0.41927 -1.1302104,0 -1.6132842,0.3737 -0.4830738,0.3737 -0.4830738,0.875 0,0.31901 0.2005212,0.57422 0.2005212,0.26432 0.6289074,0.4375 0.2460942,0.0912 1.4492214,0.41927 1.7408885,0.46485 2.4244835,0.76563 0.6927096,0.29167 1.0846374,0.85677 0.3919278,0.56511 0.3919278,1.40365 0,0.82031 -0.4830738,1.54948 -0.4739592,0.72006 -1.3763046,1.1211 -0.9023453,0.39193 -2.0416703,0.39193 -1.8867222,0 -2.8802136,-0.78386 -0.98437673,-0.78386 -1.25781472,-2.32422 z m 13.57163232,1.42187 0.23698,1.44923 q -0.69271,0.14583 -1.239586,0.14583 -0.893231,0 -1.385419,-0.28255 -0.492188,-0.28256 -0.69271,-0.73829 -0.200521,-0.46484 -0.200521,-1.94141 v -5.56902 H 9.157807 v -1.27604 h 1.203127 v -2.39714 l 1.631514,-0.98438 v 3.38152 h 1.649742 v 1.27604 h -1.649742 v 5.66017 q 0,0.70182 0.08203,0.90235 0.09115,0.20052 0.282553,0.31901 0.200521,0.11849 0.565105,0.11849 0.273438,0 0.720053,-0.0638 z m 1.61328,-10.00783 v -1.88672 h 1.640628 v 1.88672 z m 0,11.47528 v -9.6797 h 1.640628 v 9.6797 z m 10.454444,-3.54557 1.613284,0.20963 q -0.264324,1.66797 -1.358076,2.61589 -1.084637,0.93881 -2.670577,0.93881 -1.986983,0 -3.199225,-1.29428 -1.203127,-1.30339 -1.203127,-3.72787 0,-1.56771 0.519532,-2.74349 0.519532,-1.17579 1.576826,-1.75912 1.066408,-0.59245 2.315108,-0.59245 1.576826,0 2.579432,0.80208 1.002606,0.79297 1.285158,2.26043 l -1.595054,0.24609 q -0.227865,-0.97526 -0.8112,-1.46745 -0.57422,-0.49219 -1.394534,-0.49219 -1.239585,0 -2.014326,0.89323 -0.774741,0.88412 -0.774741,2.8073 0,1.95052 0.747397,2.83464 0.747397,0.88411 1.950524,0.88411 0.966148,0 1.613285,-0.59244 0.647136,-0.59245 0.820314,-1.82292 z m 2.360689,0.65625 1.622399,-0.25521 q 0.136719,0.97526 0.756512,1.49479 0.628907,0.51953 1.750003,0.51953 1.130211,0 1.677087,-0.45573 0.546876,-0.46484 0.546876,-1.08463 0,-0.55599 -0.483074,-0.875 -0.33724,-0.21875 -1.677087,-0.556 -1.80469,-0.45573 -2.506515,-0.78385 -0.692709,-0.33724 -1.057293,-0.92058 -0.35547,-0.59244 -0.35547,-1.30338 0,-0.64714 0.291668,-1.19402 0.300781,-0.55599 0.811199,-0.92057 0.382813,-0.28255 1.039064,-0.47396 0.665366,-0.20052 1.421878,-0.20052 1.139325,0 1.996097,0.32813 0.865887,0.32812 1.276044,0.89323 0.410157,0.55599 0.565105,1.49479 l -1.604169,0.21875 q -0.109375,-0.7474 -0.638022,-1.16667 -0.519532,-0.41927 -1.476565,-0.41927 -1.130211,0 -1.613284,0.3737 -0.483074,0.3737 -0.483074,0.875 0,0.31901 0.200521,0.57422 0.200521,0.26432 0.628907,0.4375 0.246095,0.0912 1.449222,0.41927 1.740888,0.46485 2.424483,0.76563 0.69271,0.29167 1.084638,0.85677 0.391927,0.56511 0.391927,1.40365 0,0.82031 -0.483073,1.54948 -0.47396,0.72006 -1.376305,1.1211 -0.902345,0.39193 -2.04167,0.39193 -1.886722,0 -2.880214,-0.78386 -0.984377,-0.78386 -1.257815,-2.32422 z m 15.184928,-8.58596 v -1.88672 h 1.640628 v 1.88672 z m 0,11.47528 v -9.6797 h 1.640628 v 9.6797 z m 4.138026,0 v -9.6797 h 1.476565 v 1.3763 q 1.066408,-1.59505 3.080735,-1.59505 0.875001,0 1.604169,0.31901 0.738283,0.3099 1.102867,0.82031 0.364584,0.51042 0.510418,1.21225 0.09115,0.45573 0.09115,1.59505 v 5.95183 h -1.640628 v -5.88803 q 0,-1.0026 -0.191407,-1.49479 -0.191407,-0.5013 -0.683595,-0.79297 -0.483074,-0.30078 -1.139325,-0.30078 -1.048179,0 -1.813805,0.66536 -0.756512,0.66537 -0.756512,2.52475 v 5.28646 z m 16.697948,-3.54557 1.613284,0.20963 q -0.264323,1.66797 -1.358075,2.61589 -1.084637,0.93881 -2.670578,0.93881 -1.986982,0 -3.199224,-1.29428 -1.203127,-1.30339 -1.203127,-3.72787 0,-1.56771 0.519532,-2.74349 0.519532,-1.17579 1.576826,-1.75912 1.066408,-0.59245 2.315108,-0.59245 1.576826,0 2.579432,0.80208 1.002606,0.79297 1.285158,2.26043 l -1.595055,0.24609 q -0.227865,-0.97526 -0.811199,-1.46745 -0.57422,-0.49219 -1.394534,-0.49219 -1.239585,0 -2.014326,0.89323 -0.774741,0.88412 -0.774741,2.8073 0,1.95052 0.747397,2.83464 0.747397,0.88411 1.950524,0.88411 0.966148,0 1.613284,-0.59244 0.647137,-0.59245 0.820314,-1.82292 z m 2.980468,3.54557 v -13.362 h 1.640628 v 13.362 z m 10.52736,0 v -1.42187 q -1.13021,1.64063 -3.07162,1.64063 -0.856772,0 -1.60417,-0.32813 -0.738282,-0.32813 -1.102866,-0.82031 -0.35547,-0.50131 -0.501303,-1.22136 -0.100261,-0.48307 -0.100261,-1.53125 v -5.99741 h 1.640628 v 5.3685 q 0,1.28516 0.100261,1.73177 0.154948,0.64714 0.656251,1.02084 0.501303,0.36458 1.239586,0.36458 0.738282,0 1.385419,-0.3737 0.647136,-0.38281 0.91146,-1.02995 0.273438,-0.65625 0.273438,-1.89583 v -5.18621 h 1.640628 v 9.6797 z m 10.317729,0 v -1.22135 q -0.920575,1.44011 -2.707036,1.44011 -1.157555,0 -2.132817,-0.63803 -0.966147,-0.63802 -1.503909,-1.77734 -0.528647,-1.14844 -0.528647,-2.63412 0,-1.44922 0.483074,-2.62501 0.483074,-1.1849 1.449222,-1.8138 0.966147,-0.62891 2.16016,-0.62891 0.875001,0 1.558596,0.3737 0.683595,0.36458 1.111981,0.95703 v -4.79428 H 89.4392 v 13.362 z m -5.186208,-4.83073 q 0,1.85938 0.783856,2.77995 0.783856,0.92057 1.850264,0.92057 1.075523,0 1.82292,-0.875 0.756511,-0.88411 0.756511,-2.6888 0,-1.98699 -0.765626,-2.91668 -0.765626,-0.92969 -1.886722,-0.92969 -1.093752,0 -1.832035,0.89324 -0.729168,0.89323 -0.729168,2.81641 z m 15.914093,1.71354 1.695313,0.20964 q -0.40104,1.48568 -1.485677,2.30599 -1.084637,0.82032 -2.770838,0.82032 -2.123702,0 -3.372402,-1.30339 -1.239586,-1.3125 -1.239586,-3.67319 0,-2.44271 1.257815,-3.79167 1.257815,-1.34896 3.263027,-1.34896 1.941409,0 3.17188,1.32162 1.230471,1.32161 1.230471,3.71875 0,0.14584 -0.009,0.4375 h -7.218767 q 0.09115,1.59506 0.902345,2.44272 0.8112,0.84765 2.023441,0.84765 0.902346,0 1.540368,-0.47395 0.638022,-0.47396 1.01172,-1.51303 z m -5.386728,-2.65235 h 5.404957 q -0.109375,-1.22135 -0.619792,-1.83203 -0.783856,-0.94792 -2.032556,-0.94792 -1.13021,0 -1.904951,0.75651 -0.765627,0.75651 -0.847658,2.02344 z m 20.644561,4.57553 q -0.91146,0.77474 -1.75911,1.09375 -0.83855,0.31902 -1.80469,0.31902 -1.59506,0 -2.45183,-0.77475 -0.85677,-0.78385 -0.85677,-1.99609 0,-0.71094 0.31901,-1.29428 0.32812,-0.59245 0.84766,-0.94791 0.52864,-0.35547 1.18489,-0.53777 0.48308,-0.1276 1.45834,-0.24609 1.98698,-0.23698 2.92579,-0.56511 0.009,-0.33724 0.009,-0.42838 0,-1.00261 -0.46484,-1.41276 -0.62891,-0.556 -1.8685,-0.556 -1.15755,0 -1.71354,0.41016 -0.54688,0.40104 -0.8112,1.43099 l -1.60417,-0.21875 q 0.21875,-1.02995 0.72005,-1.65885 0.50131,-0.63803 1.44922,-0.97527 0.94792,-0.34635 2.19662,-0.34635 1.23959,0 2.01433,0.29167 0.77474,0.29166 1.13932,0.73828 0.36459,0.4375 0.51042,1.11198 0.082,0.41927 0.082,1.51302 v 2.18751 q 0,2.28776 0.10026,2.89844 0.10938,0.60156 0.41927,1.15755 h -1.71354 q -0.25521,-0.51041 -0.32813,-1.19401 z m -0.13671,-3.66407 q -0.89324,0.36459 -2.6797,0.6198 -1.01172,0.14583 -1.43099,0.32812 -0.41927,0.18229 -0.64714,0.53776 -0.22786,0.34636 -0.22786,0.77474 0,0.65626 0.49219,1.09376 0.5013,0.4375 1.45833,0.4375 0.94792,0 1.6862,-0.41016 0.73829,-0.41927 1.08464,-1.13933 0.26433,-0.55599 0.26433,-1.64062 z m 19.13154,0.17318 1.76823,0.44662 q -0.55599,2.17839 -2.00521,3.32682 -1.44011,1.13933 -3.52735,1.13933 -2.16016,0 -3.51824,-0.875 -1.34896,-0.88412 -2.0599,-2.55209 -0.70182,-1.66797 -0.70182,-3.58204 0,-2.08724 0.79297,-3.63672 0.80208,-1.5586 2.26953,-2.36068 1.47657,-0.8112 3.2448,-0.8112 2.00521,0 3.3724,1.02083 1.36719,1.02084 1.90496,2.8711 l -1.74089,0.41016 q -0.46485,-1.45834 -1.34896,-2.1237 -0.88412,-0.66537 -2.22397,-0.66537 -1.54036,0 -2.57943,0.73828 -1.02995,0.73829 -1.44922,1.98699 -0.41927,1.23958 -0.41927,2.5612 0,1.70443 0.49219,2.98047 0.5013,1.26693 1.54948,1.89584 1.04818,0.62891 2.26953,0.62891 1.48568,0 2.51563,-0.85678 1.02995,-0.85677 1.39454,-2.54297 z m 4.0013,4.6849 v -13.362 h 1.76823 v 5.48699 h 6.94533 v -5.48699 h 1.76823 v 13.362 h -1.76823 v -6.29818 h -6.94533 v 6.29818 z m 21.98443,-1.46745 0.23698,1.44923 q -0.69271,0.14583 -1.23959,0.14583 -0.89323,0 -1.38542,-0.28255 -0.49218,-0.28256 -0.6927,-0.73829 -0.20053,-0.46484 -0.20053,-1.94141 v -5.56902 h -1.20312 v -1.27604 h 1.20312 v -2.39714 l 1.63152,-0.98438 v 3.38152 h 1.64974 v 1.27604 h -1.64974 v 5.66017 q 0,0.70182 0.082,0.90235 0.0911,0.20052 0.28255,0.31901 0.20052,0.11849 0.56511,0.11849 0.27343,0 0.72005,-0.0638 z m 0.9935,-3.3724 q 0,-2.6888 1.4948,-3.98308 1.2487,-1.07552 3.04427,-1.07552 1.9961,0 3.26303,1.3125 1.26693,1.30339 1.26693,3.60938 0,1.8685 -0.56511,2.94402 -0.55599,1.06641 -1.63151,1.65886 -1.06641,0.59245 -2.33334,0.59245 -2.03255,0 -3.29037,-1.30339 -1.2487,-1.30339 -1.2487,-3.75522 z m 1.6862,0 q 0,1.85938 0.8112,2.78907 0.8112,0.92057 2.04167,0.92057 1.22136,0 2.03256,-0.92968 0.8112,-0.92969 0.8112,-2.83465 0,-1.79557 -0.82032,-2.71615 -0.8112,-0.92969 -2.02344,-0.92969 -1.23047,0 -2.04167,0.92058 -0.8112,0.92057 -0.8112,2.77995 z m 14.50131,-6.63543 v -1.88672 h 1.64063 v 1.88672 z m 0,11.47528 v -9.6797 h 1.64063 v 9.6797 z m 4.13804,0 v -9.6797 h 1.47657 v 1.3763 q 1.06641,-1.59505 3.08073,-1.59505 0.87501,0 1.60417,0.31901 0.73829,0.3099 1.10287,0.82031 0.36458,0.51042 0.51042,1.21225 0.0911,0.45573 0.0911,1.59505 v 5.95183 h -1.64062 v -5.88803 q 0,-1.0026 -0.19141,-1.49479 -0.19141,-0.5013 -0.6836,-0.79297 -0.48307,-0.30078 -1.13932,-0.30078 -1.04818,0 -1.81381,0.66536 -0.75651,0.66537 -0.75651,2.52475 v 5.28646 z m 10.39065,-11.47528 v -1.88672 h 1.64063 v 1.88672 z m 0,11.47528 v -9.6797 h 1.64063 v 9.6797 z m 7.72005,-1.46745 0.23698,1.44923 q -0.69271,0.14583 -1.23959,0.14583 -0.89323,0 -1.38542,-0.28255 -0.49219,-0.28256 -0.69271,-0.73829 -0.20052,-0.46484 -0.20052,-1.94141 v -5.56902 h -1.20312 v -1.27604 h 1.20312 v -2.39714 l 1.63152,-0.98438 v 3.38152 h 1.64974 v 1.27604 h -1.64974 v 5.66017 q 0,0.70182 0.082,0.90235 0.0911,0.20052 0.28255,0.31901 0.20052,0.11849 0.56511,0.11849 0.27343,0 0.72005,-0.0638 z m 1.61329,-10.00783 v -1.88672 h 1.64063 v 1.88672 z m 0,11.47528 v -9.6797 h 1.64063 v 9.6797 z m 10.45443,-1.19401 q -0.91146,0.77474 -1.75912,1.09375 -0.83854,0.31902 -1.80469,0.31902 -1.59505,0 -2.45182,-0.77475 -0.85678,-0.78385 -0.85678,-1.99609 0,-0.71094 0.31901,-1.29428 0.32813,-0.59245 0.84766,-0.94791 0.52865,-0.35547 1.1849,-0.53777 0.48307,-0.1276 1.45834,-0.24609 1.98698,-0.23698 2.92578,-0.56511 0.009,-0.33724 0.009,-0.42838 0,-1.00261 -0.46485,-1.41276 -0.6289,-0.556 -1.86849,-0.556 -1.15755,0 -1.71354,0.41016 -0.54688,0.40104 -0.8112,1.43099 l -1.60417,-0.21875 q 0.21875,-1.02995 0.72005,-1.65885 0.5013,-0.63803 1.44922,-0.97527 0.94792,-0.34635 2.19662,-0.34635 1.23959,0 2.01433,0.29167 0.77474,0.29166 1.13932,0.73828 0.36459,0.4375 0.51042,1.11198 0.082,0.41927 0.082,1.51302 v 2.18751 q 0,2.28776 0.10026,2.89844 0.10938,0.60156 0.41927,1.15755 h -1.71354 q -0.25521,-0.51041 -0.32813,-1.19401 z m -0.13672,-3.66407 q -0.89323,0.36459 -2.67969,0.6198 -1.01172,0.14583 -1.43099,0.32812 -0.41927,0.18229 -0.64714,0.53776 -0.22786,0.34636 -0.22786,0.77474 0,0.65626 0.49219,1.09376 0.5013,0.4375 1.45833,0.4375 0.94792,0 1.6862,-0.41016 0.73828,-0.41927 1.08464,-1.13933 0.26432,-0.55599 0.26432,-1.64062 z m 4.16538,4.85808 v -13.362 h 1.64062 v 13.362 z m 4.19273,-11.47528 v -1.88672 h 1.64062 v 1.88672 z m 0,11.47528 v -9.6797 h 1.64062 v 9.6797 z m 3.27215,0 v -1.33073 l 6.16147,-7.07293 q -1.04818,0.0547 -1.85026,0.0547 h -3.94663 v -1.33073 h 7.91148 v 1.08464 l -5.2409,6.14324 -1.01172,1.12109 q 1.10287,-0.082 2.06901,-0.082 h 4.47527 v 1.41276 z m 16.82554,-3.11719 1.69532,0.20964 q -0.40104,1.48568 -1.48568,2.30599 -1.08464,0.82032 -2.77084,0.82032 -2.1237,0 -3.3724,-1.30339 -1.23959,-1.3125 -1.23959,-3.67319 0,-2.44271 1.25782,-3.79167 1.25781,-1.34896 3.26303,-1.34896 1.94141,0 3.17188,1.32162 1.23047,1.32161 1.23047,3.71875 0,0.14584 -0.009,0.4375 h -7.21876 q 0.0912,1.59506 0.90235,2.44272 0.81119,0.84765 2.02344,0.84765 0.90234,0 1.54036,-0.47395 0.63803,-0.47396 1.01172,-1.51303 z m -5.38672,-2.65235 h 5.40495 q -0.10937,-1.22135 -0.61979,-1.83203 -0.78386,-0.94792 -2.03256,-0.94792 -1.13021,0 -1.90495,0.75651 -0.76562,0.75651 -0.84765,2.02344 z m 9.60679,5.76954 v -1.86849 h 1.86849 v 1.86849 z"
         id="path3" />
    </g>
  </g>
</svg>
