<?xml version="1.0" encoding="UTF-8" standalone="no"?>
<!-- Created with Inkscape (http://www.inkscape.org/) -->

<svg
   width="800"
   height="600"
   id="svg2"
   version="1.1"
   xmlns="http://www.w3.org/2000/svg"
   xmlns:svg="http://www.w3.org/2000/svg"
   xmlns:rdf="http://www.w3.org/1999/02/22-rdf-syntax-ns#"
   xmlns:cc="http://creativecommons.org/ns#"
   xmlns:dc="http://purl.org/dc/elements/1.1/">
  <defs
     id="defs4" />
  <metadata
     id="metadata7">
    <rdf:RDF>
      <cc:Work
         rdf:about="">
        <dc:format>image/svg+xml</dc:format>
        <dc:type
           rdf:resource="http://purl.org/dc/dcmitype/StillImage" />
        <dc:language>en</dc:language>
        <cc:license
           rdf:resource="https://timefold.ai/license" />
      </cc:Work>
    </rdf:RDF>
  </metadata>
  <g
     id="layer1"
     transform="translate(0,-452.36218)"
     style="display:inline">
    <path
       style="font-size:36px;line-height:1.25;font-family:'Liberation Sans';-inkscape-font-specification:'Liberation Sans, Normal';text-align:center;text-anchor:middle"
       d="m 294.55371,244.14786 3.2168,-0.28125 q 0.22851,1.9336 1.05469,3.18164 0.84375,1.23047 2.60156,2.00391 1.75781,0.75586 3.95508,0.75586 1.95117,0 3.44531,-0.58008 1.49414,-0.58008 2.21484,-1.58203 0.73828,-1.01953 0.73828,-2.21484 0,-1.2129 -0.70312,-2.10938 -0.70313,-0.91406 -2.32031,-1.5293 -1.03711,-0.40429 -4.58789,-1.24804 -3.55079,-0.86133 -4.97461,-1.61719 -1.84571,-0.9668 -2.75977,-2.39063 -0.89648,-1.4414 -0.89648,-3.21679 0,-1.95117 1.10742,-3.63867 1.10742,-1.70508 3.23437,-2.58399 2.12696,-0.87891 4.72852,-0.87891 2.86523,0 5.04492,0.93165 2.19727,0.91406 3.375,2.70703 1.17773,1.79297 1.26563,4.06054 l -3.26954,0.2461 q -0.26367,-2.44336 -1.79296,-3.69141 -1.51172,-1.24805 -4.48243,-1.24805 -3.09375,0 -4.51757,1.14258 -1.40625,1.125 -1.40625,2.72461 0,1.38867 1.00195,2.28516 0.98437,0.89648 5.13281,1.8457 4.16602,0.93164 5.71289,1.63477 2.25,1.03711 3.32227,2.63672 1.07226,1.58203 1.07226,3.65625 0,2.05664 -1.17773,3.88476 -1.17774,1.81055 -3.39258,2.83008 -2.19727,1.00195 -4.95703,1.00195 -3.49805,0 -5.87109,-1.01953 -2.35547,-1.01953 -3.70899,-3.05859 -1.33594,-2.05664 -1.40625,-4.64063 z m 36.94922,1.44141 3.11133,0.4043 q -0.50977,3.21679 -2.61914,5.04492 -2.0918,1.81054 -5.15039,1.81054 -3.83203,0 -6.16993,-2.49609 -2.32031,-2.51367 -2.32031,-7.18945 0,-3.02344 1.00196,-5.29102 1.00195,-2.26758 3.04101,-3.39258 2.05664,-1.14257 4.46484,-1.14257 3.04102,0 4.97461,1.54687 1.9336,1.5293 2.47852,4.35938 l -3.07617,0.4746 q -0.43946,-1.88085 -1.56446,-2.83007 -1.10742,-0.94922 -2.68945,-0.94922 -2.39062,0 -3.88476,1.72265 -1.49414,1.70508 -1.49414,5.41407 0,3.76172 1.4414,5.46679 1.44141,1.70508 3.76172,1.70508 1.86328,0 3.11133,-1.14258 1.24805,-1.14257 1.58203,-3.51562 z m 4.64062,-2.4961 q 0,-5.18554 2.88282,-7.68164 2.4082,-2.07421 5.87109,-2.07421 3.84961,0 6.29297,2.53125 2.44336,2.51367 2.44336,6.96093 0,3.60352 -1.08984,5.67774 -1.07227,2.05664 -3.14649,3.19922 -2.05664,1.14257 -4.5,1.14257 -3.91992,0 -6.3457,-2.51367 -2.40821,-2.51367 -2.40821,-7.24219 z m 3.25196,0 q 0,3.58594 1.56445,5.37891 1.56445,1.77539 3.9375,1.77539 2.35547,0 3.91992,-1.79297 1.56446,-1.79297 1.56446,-5.46679 0,-3.46289 -1.58204,-5.23829 -1.56445,-1.79296 -3.90234,-1.79296 -2.37305,0 -3.9375,1.77539 -1.56445,1.77539 -1.56445,5.36132 z m 17.94726,16.48829 v -25.82227 h 2.88282 v 2.42578 q 1.01953,-1.42383 2.30273,-2.12695 1.2832,-0.7207 3.11133,-0.7207 2.39062,0 4.21875,1.23046 1.82812,1.23047 2.75976,3.48047 0.93164,2.23242 0.93164,4.9043 0,2.86523 -1.0371,5.16797 -1.01954,2.28515 -2.98829,3.51562 -1.95117,1.21289 -4.11328,1.21289 -1.58203,0 -2.84765,-0.66796 -1.24805,-0.66797 -2.05664,-1.6875 v 9.08789 z m 2.86524,-16.38282 q 0,3.60352 1.45898,5.32618 1.45899,1.72265 3.53321,1.72265 2.10937,0 3.60351,-1.77539 1.51172,-1.79297 1.51172,-5.53711 0,-3.56836 -1.47656,-5.34375 -1.45899,-1.77539 -3.49805,-1.77539 -2.02148,0 -3.58594,1.89844 -1.54687,1.88086 -1.54687,5.48437 z m 29.93554,3.2168 3.26954,0.4043 q -0.77344,2.86523 -2.86524,4.44726 -2.0918,1.58203 -5.34375,1.58203 -4.0957,0 -6.5039,-2.51367 -2.39063,-2.53125 -2.39063,-7.08398 0,-4.71094 2.42578,-7.3125 2.42578,-2.60156 6.29297,-2.60156 3.74414,0 6.11719,2.54882 2.37304,2.54883 2.37304,7.17188 0,0.28125 -0.0176,0.84375 H 379.5791 q 0.17578,3.07617 1.74024,4.71094 1.56445,1.63476 3.90234,1.63476 1.74023,0 2.9707,-0.91406 1.23047,-0.91406 1.95117,-2.91797 z m -10.38867,-5.11523 h 10.42383 q -0.21094,-2.35547 -1.19531,-3.53321 -1.51172,-1.82812 -3.91992,-1.82812 -2.17969,0 -3.67383,1.45898 -1.47656,1.45899 -1.63477,3.90235 z m 26.45508,1.79296 q 0,-5.18554 2.88281,-7.68164 2.40821,-2.07421 5.8711,-2.07421 3.84961,0 6.29297,2.53125 2.44336,2.51367 2.44336,6.96093 0,3.60352 -1.08985,5.67774 -1.07226,2.05664 -3.14648,3.19922 -2.05664,1.14257 -4.5,1.14257 -3.91992,0 -6.34571,-2.51367 -2.4082,-2.51367 -2.4082,-7.24219 z m 3.25195,0 q 0,3.58594 1.56446,5.37891 1.56445,1.77539 3.9375,1.77539 2.35547,0 3.91992,-1.79297 1.56445,-1.79297 1.56445,-5.46679 0,-3.46289 -1.58203,-5.23829 -1.56445,-1.79296 -3.90234,-1.79296 -2.37305,0 -3.9375,1.77539 -1.56446,1.77539 -1.56446,5.36132 z m 23.13282,9.33399 -7.10157,-18.66797 h 3.33985 l 4.00781,11.17969 q 0.65039,1.81054 1.19531,3.76172 0.42188,-1.47657 1.17774,-3.55078 l 4.14843,-11.39063 h 3.25196 l -7.06641,18.66797 z m 25.59375,-6.01172 3.26953,0.4043 q -0.77344,2.86523 -2.86524,4.44726 -2.09179,1.58203 -5.34375,1.58203 -4.0957,0 -6.5039,-2.51367 -2.39063,-2.53125 -2.39063,-7.08398 0,-4.71094 2.42578,-7.3125 2.42578,-2.60156 6.29297,-2.60156 3.74414,0 6.11719,2.54882 2.37305,2.54883 2.37305,7.17188 0,0.28125 -0.0176,0.84375 h -13.92188 q 0.17578,3.07617 1.74024,4.71094 1.56445,1.63476 3.90234,1.63476 1.74024,0 2.9707,-0.91406 1.23047,-0.91406 1.95118,-2.91797 z m -10.38868,-5.11523 h 10.42383 q -0.21093,-2.35547 -1.19531,-3.53321 -1.51172,-1.82812 -3.91992,-1.82812 -2.17969,0 -3.67383,1.45898 -1.47656,1.45899 -1.63477,3.90235 z m 17.59571,11.12695 v -18.66797 h 2.84765 v 2.83008 q 1.08985,-1.98633 2.00391,-2.61914 0.93164,-0.63281 2.03906,-0.63281 1.59961,0 3.25196,1.01953 l -1.08985,2.93554 q -1.16015,-0.68554 -2.32031,-0.68554 -1.03711,0 -1.86328,0.63281 -0.82617,0.61523 -1.17774,1.72266 -0.52734,1.6875 -0.52734,3.6914 v 9.77344 z m 17.20898,0 -7.10156,-18.66797 h 3.33984 l 4.00782,11.17969 q 0.65039,1.81054 1.19531,3.76172 0.42187,-1.47657 1.17773,-3.55078 l 4.14844,-11.39063 h 3.25195 l -7.0664,18.66797 z m 12.83203,-22.13086 v -3.63867 h 3.16407 v 3.63867 z m 0,22.13086 v -18.66797 h 3.16407 v 18.66797 z m 20.75977,-6.01172 3.26953,0.4043 q -0.77344,2.86523 -2.86523,4.44726 -2.0918,1.58203 -5.34375,1.58203 -4.09571,0 -6.50391,-2.51367 -2.39063,-2.53125 -2.39063,-7.08398 0,-4.71094 2.42579,-7.3125 2.42578,-2.60156 6.29296,-2.60156 3.74415,0 6.11719,2.54882 2.37305,2.54883 2.37305,7.17188 0,0.28125 -0.0176,0.84375 h -13.92187 q 0.17578,3.07617 1.74023,4.71094 1.56445,1.63476 3.90234,1.63476 1.74024,0 2.97071,-0.91406 1.23047,-0.91406 1.95117,-2.91797 z m -10.38867,-5.11523 h 10.42383 q -0.21094,-2.35547 -1.19532,-3.53321 -1.51172,-1.82812 -3.91992,-1.82812 -2.17969,0 -3.67383,1.45898 -1.47656,1.45899 -1.63476,3.90235 z m 21.07617,11.12695 -5.71289,-18.66797 h 3.26953 l 2.9707,10.77539 1.10742,4.00781 q 0.0703,-0.29882 0.9668,-3.84961 l 2.9707,-10.93359 h 3.25196 l 2.79492,10.82813 0.93164,3.56835 1.07227,-3.60351 3.19921,-10.79297 h 3.07618 l -5.83594,18.66797 h -3.28711 l -2.9707,-11.17969 -0.72071,-3.18164 -3.77929,14.36133 z"
       id="flowRoot4302"
       transform="translate(-20,262.36198)"
       aria-label="Scope overview" />
    <path
       style="font-size:14px;line-height:1.25;font-family:'Liberation Sans';-inkscape-font-specification:'Liberation Sans, Normal';text-align:center;text-anchor:middle"
       d="m 309.83203,162.61056 v -10.02148 h 7.24609 v 1.18261 h -5.91992 v 3.06934 h 5.54395 v 1.17578 h -5.54395 v 3.41113 h 6.15235 v 1.18262 z m 13.89063,-0.89551 q -0.6836,0.58106 -1.31934,0.82032 -0.62891,0.23925 -1.35352,0.23925 -1.19628,0 -1.83886,-0.58105 -0.64258,-0.58789 -0.64258,-1.49707 0,-0.5332 0.23926,-0.9707 0.24609,-0.44434 0.63574,-0.71094 0.39648,-0.2666 0.88867,-0.40332 0.36231,-0.0957 1.09375,-0.18457 1.49024,-0.17774 2.19434,-0.42383 0.007,-0.25293 0.007,-0.32129 0,-0.75195 -0.34863,-1.05957 -0.47168,-0.41699 -1.40137,-0.41699 -0.86816,0 -1.28515,0.30762 -0.41016,0.30078 -0.6084,1.07324 l -1.20313,-0.16406 q 0.16407,-0.77247 0.54004,-1.24415 0.37598,-0.47851 1.08692,-0.73144 0.71093,-0.25977 1.64746,-0.25977 0.92968,0 1.51074,0.21875 0.58105,0.21875 0.85449,0.55371 0.27344,0.32813 0.38281,0.83399 0.0615,0.31445 0.0615,1.13476 v 1.64063 q 0,1.71582 0.0752,2.17383 0.082,0.45117 0.31446,0.86816 h -1.28516 q -0.19141,-0.38281 -0.24609,-0.89551 z m -0.10254,-2.74804 q -0.66992,0.27343 -2.00977,0.46484 -0.75879,0.10938 -1.07324,0.24609 -0.31445,0.13672 -0.48535,0.40333 -0.1709,0.25976 -0.1709,0.58105 0,0.49219 0.36914,0.82031 0.37598,0.32813 1.09375,0.32813 0.71094,0 1.26465,-0.30762 0.55371,-0.31445 0.81347,-0.85449 0.19825,-0.41699 0.19825,-1.23047 z m 7.88867,0.98437 1.20996,0.15723 q -0.19824,1.25098 -1.01855,1.96191 -0.81348,0.7041 -2.00293,0.7041 -1.49024,0 -2.39942,-0.9707 -0.90234,-0.97754 -0.90234,-2.7959 0,-1.17578 0.38965,-2.05761 0.38964,-0.88184 1.18261,-1.31934 0.79981,-0.44434 1.73633,-0.44434 1.18262,0 1.93457,0.60157 0.75195,0.59472 0.96387,1.69531 l -1.19629,0.18457 q -0.1709,-0.73145 -0.6084,-1.10059 -0.43066,-0.36914 -1.0459,-0.36914 -0.92968,0 -1.51074,0.66992 -0.58105,0.66309 -0.58105,2.10547 0,1.46289 0.56054,2.12598 0.56055,0.66309 1.46289,0.66309 0.72461,0 1.20996,-0.44434 0.48536,-0.44434 0.61524,-1.36719 z m 2.26269,2.65918 v -10.02148 h 1.23047 v 3.5957 q 0.86133,-0.99805 2.17383,-0.99805 0.80664,0 1.40137,0.32129 0.59472,0.31446 0.84765,0.875 0.25977,0.56055 0.25977,1.62696 v 4.60058 h -1.23047 v -4.60058 q 0,-0.92286 -0.40332,-1.33985 -0.39648,-0.42383 -1.12793,-0.42383 -0.54687,0 -1.03223,0.28711 -0.47851,0.28028 -0.68359,0.76563 -0.20508,0.48535 -0.20508,1.33984 v 3.97168 z m 11.1836,-2.16699 1.21679,-0.19141 q 0.10254,0.73145 0.56739,1.1211 0.47168,0.38965 1.3125,0.38965 0.84765,0 1.25781,-0.3418 0.41016,-0.34863 0.41016,-0.81348 0,-0.41699 -0.36231,-0.65625 -0.25293,-0.16406 -1.25781,-0.41699 -1.35352,-0.3418 -1.87988,-0.58789 -0.51953,-0.25293 -0.79297,-0.69043 -0.2666,-0.44434 -0.2666,-0.97754 0,-0.48535 0.21875,-0.89551 0.22558,-0.41699 0.60839,-0.69043 0.28711,-0.21191 0.7793,-0.35547 0.49902,-0.15039 1.06641,-0.15039 0.85449,0 1.49707,0.2461 0.64941,0.24609 0.95703,0.66992 0.30762,0.41699 0.42383,1.12109 l -1.20313,0.16407 q -0.082,-0.56055 -0.47851,-0.875 -0.38965,-0.31446 -1.10743,-0.31446 -0.84765,0 -1.20996,0.28028 -0.3623,0.28027 -0.3623,0.65625 0,0.23925 0.15039,0.43066 0.15039,0.19824 0.47168,0.32813 0.18457,0.0684 1.08691,0.31445 1.30567,0.34863 1.81836,0.57422 0.51953,0.21875 0.81348,0.64258 0.29394,0.42382 0.29394,1.05273 0,0.61523 -0.3623,1.16211 -0.35547,0.54004 -1.03223,0.84082 -0.67675,0.29394 -1.53125,0.29394 -1.41504,0 -2.16015,-0.58789 -0.73828,-0.58789 -0.94336,-1.74316 z m 12.22949,-0.49219 1.20996,0.15723 q -0.19824,1.25098 -1.01855,1.96191 -0.81348,0.7041 -2.00293,0.7041 -1.49024,0 -2.39942,-0.9707 -0.90234,-0.97754 -0.90234,-2.7959 0,-1.17578 0.38965,-2.05761 0.38965,-0.88184 1.18261,-1.31934 0.79981,-0.44434 1.73633,-0.44434 1.18262,0 1.93457,0.60157 0.75196,0.59472 0.96387,1.69531 l -1.19629,0.18457 q -0.1709,-0.73145 -0.6084,-1.10059 -0.43066,-0.36914 -1.0459,-0.36914 -0.92968,0 -1.51074,0.66992 -0.58105,0.66309 -0.58105,2.10547 0,1.46289 0.56054,2.12598 0.56055,0.66309 1.46289,0.66309 0.72461,0 1.20997,-0.44434 0.48535,-0.44434 0.61523,-1.36719 z m 1.80469,-0.9707 q 0,-2.0166 1.12109,-2.98731 0.93652,-0.80664 2.2832,-0.80664 1.49707,0 2.44727,0.98438 0.9502,0.97754 0.9502,2.70703 0,1.40137 -0.42383,2.20801 -0.41699,0.7998 -1.22364,1.24414 -0.7998,0.44433 -1.75,0.44433 -1.52441,0 -2.46777,-0.97753 -0.93652,-0.97754 -0.93652,-2.81641 z m 1.26465,0 q 0,1.39453 0.60839,2.0918 0.6084,0.69043 1.53125,0.69043 0.91602,0 1.52442,-0.69727 0.6084,-0.69727 0.6084,-2.12598 0,-1.34668 -0.61524,-2.03711 -0.6084,-0.69726 -1.51758,-0.69726 -0.92285,0 -1.53125,0.69043 -0.60839,0.69043 -0.60839,2.08496 z m 6.97949,6.41211 V 155.3508 h 1.12109 v 0.94336 q 0.39649,-0.55372 0.89551,-0.82715 0.49902,-0.28028 1.20996,-0.28028 0.92969,0 1.64063,0.47852 0.71093,0.47852 1.07324,1.35352 0.3623,0.86816 0.3623,1.90722 0,1.11426 -0.40332,2.00977 -0.39648,0.88867 -1.16211,1.36718 -0.75879,0.47168 -1.59961,0.47168 -0.61523,0 -1.10742,-0.25976 -0.48535,-0.25977 -0.7998,-0.65625 v 3.53418 z m 1.11426,-6.3711 q 0,1.40137 0.56738,2.07129 0.56738,0.66993 1.37402,0.66993 0.82031,0 1.40137,-0.69043 0.58789,-0.69727 0.58789,-2.15332 0,-1.3877 -0.57422,-2.07813 -0.56738,-0.69043 -1.36035,-0.69043 -0.78613,0 -1.39453,0.73828 -0.60156,0.73145 -0.60156,2.13281 z m 11.6416,1.25098 1.27148,0.15723 q -0.30078,1.11426 -1.11426,1.72949 -0.81347,0.61523 -2.07812,0.61523 -1.59277,0 -2.5293,-0.97753 -0.92969,-0.98438 -0.92969,-2.75489 0,-1.83203 0.94336,-2.84375 0.94336,-1.01172 2.44727,-1.01172 1.45605,0 2.37891,0.99121 0.92285,0.99122 0.92285,2.78907 0,0.10937 -0.007,0.32812 h -5.41406 q 0.0684,1.19629 0.67676,1.83203 0.6084,0.63575 1.51758,0.63575 0.67675,0 1.15527,-0.35547 0.47851,-0.35547 0.75879,-1.13477 z m -4.04004,-1.98926 h 4.05371 q -0.082,-0.91601 -0.46484,-1.37402 -0.58789,-0.71094 -1.52442,-0.71094 -0.84765,0 -1.42871,0.56739 -0.57422,0.56738 -0.63574,1.51757 z m 13.43262,3.22657 0.17773,1.08691 q -0.51953,0.10938 -0.92969,0.10938 -0.66992,0 -1.03906,-0.21192 -0.36914,-0.21191 -0.51953,-0.55371 -0.15039,-0.34863 -0.15039,-1.45605 v -4.17676 h -0.90235 v -0.95703 h 0.90235 v -1.79786 l 1.22363,-0.73828 v 2.53614 h 1.23731 v 0.95703 h -1.23731 v 4.24511 q 0,0.52637 0.0615,0.67676 0.0684,0.15039 0.21192,0.23926 0.15039,0.0889 0.42383,0.0889 0.20507,0 0.54004,-0.0478 z m 1.18945,1.10058 v -7.25976 h 1.10742 v 1.10058 q 0.42383,-0.77246 0.7793,-1.01855 0.3623,-0.2461 0.79297,-0.2461 0.62207,0 1.26464,0.39649 l -0.42382,1.1416 q -0.45118,-0.2666 -0.90235,-0.2666 -0.40332,0 -0.72461,0.24609 -0.32129,0.23926 -0.458,0.66992 -0.20508,0.65625 -0.20508,1.43555 v 3.80078 z m 4.68262,-8.60644 v -1.41504 h 1.23046 v 1.41504 z m 0,8.60644 v -7.25976 h 1.23046 v 7.25976 z m 2.87793,0.60156 1.19628,0.17774 q 0.0752,0.55371 0.417,0.80664 0.458,0.3418 1.25097,0.3418 0.8545,0 1.31934,-0.3418 0.46484,-0.3418 0.62891,-0.95703 0.0957,-0.37598 0.0889,-1.5791 -0.80664,0.95019 -2.00976,0.95019 -1.49707,0 -2.31739,-1.08008 -0.82031,-1.08007 -0.82031,-2.59082 0,-1.03906 0.37598,-1.91406 0.37598,-0.88183 1.08691,-1.36035 0.71778,-0.47852 1.68164,-0.47852 1.28516,0 2.11914,1.03907 v -0.875 h 1.13477 v 6.27539 q 0,1.69531 -0.34863,2.39941 -0.3418,0.71094 -1.09375,1.12109 -0.74512,0.41016 -1.83887,0.41016 -1.29883,0 -2.09863,-0.58789 -0.79981,-0.58105 -0.77246,-1.75684 z m 1.01855,-4.36132 q 0,1.42871 0.56738,2.08496 0.56739,0.65625 1.42188,0.65625 0.84765,0 1.42187,-0.64942 0.57422,-0.65625 0.57422,-2.05078 0,-1.33301 -0.59472,-2.00976 -0.5879,-0.67676 -1.42188,-0.67676 -0.82031,0 -1.39453,0.66992 -0.57422,0.66309 -0.57422,1.97559 z m 6.76758,4.36132 1.19629,0.17774 q 0.0752,0.55371 0.41699,0.80664 0.45801,0.3418 1.25098,0.3418 0.85449,0 1.31933,-0.3418 0.46485,-0.3418 0.62891,-0.95703 0.0957,-0.37598 0.0889,-1.5791 -0.80664,0.95019 -2.00977,0.95019 -1.49707,0 -2.31738,-1.08008 -0.82032,-1.08007 -0.82032,-2.59082 0,-1.03906 0.37598,-1.91406 0.37598,-0.88183 1.08692,-1.36035 0.71777,-0.47852 1.68164,-0.47852 1.28515,0 2.11914,1.03907 v -0.875 h 1.13476 v 6.27539 q 0,1.69531 -0.34863,2.39941 -0.3418,0.71094 -1.09375,1.12109 -0.74512,0.41016 -1.83887,0.41016 -1.29883,0 -2.09863,-0.58789 -0.79981,-0.58105 -0.77246,-1.75684 z m 1.01855,-4.36132 q 0,1.42871 0.56739,2.08496 0.56738,0.65625 1.42187,0.65625 0.84766,0 1.42188,-0.64942 0.57421,-0.65625 0.57421,-2.05078 0,-1.33301 -0.59472,-2.00976 -0.58789,-0.67676 -1.42188,-0.67676 -0.82031,0 -1.39453,0.66992 -0.57422,0.66309 -0.57422,1.97559 z m 11.96289,1.42187 1.27149,0.15723 q -0.30078,1.11426 -1.11426,1.72949 -0.81348,0.61523 -2.07812,0.61523 -1.59278,0 -2.5293,-0.97753 -0.92969,-0.98438 -0.92969,-2.75489 0,-1.83203 0.94336,-2.84375 0.94336,-1.01172 2.44727,-1.01172 1.45605,0 2.3789,0.99121 0.92285,0.99122 0.92285,2.78907 0,0.10937 -0.007,0.32812 h -5.41406 q 0.0684,1.19629 0.67675,1.83203 0.6084,0.63575 1.51758,0.63575 0.67676,0 1.15527,-0.35547 0.47852,-0.35547 0.75879,-1.13477 z m -4.04004,-1.98926 h 4.05372 q -0.082,-0.91601 -0.46485,-1.37402 -0.58789,-0.71094 -1.52441,-0.71094 -0.84766,0 -1.42871,0.56739 -0.57422,0.56738 -0.63575,1.51757 z m 6.84278,4.32715 v -7.25976 h 1.10742 v 1.10058 q 0.42383,-0.77246 0.7793,-1.01855 0.3623,-0.2461 0.79297,-0.2461 0.62207,0 1.26464,0.39649 l -0.42382,1.1416 q -0.45118,-0.2666 -0.90235,-0.2666 -0.40332,0 -0.72461,0.24609 -0.32129,0.23926 -0.458,0.66992 -0.20508,0.65625 -0.20508,1.43555 v 3.80078 z m 4.18359,-2.16699 1.2168,-0.19141 q 0.10254,0.73145 0.56738,1.1211 0.47168,0.38965 1.3125,0.38965 0.84766,0 1.25781,-0.3418 0.41016,-0.34863 0.41016,-0.81348 0,-0.41699 -0.3623,-0.65625 -0.25293,-0.16406 -1.25782,-0.41699 -1.35351,-0.3418 -1.87988,-0.58789 -0.51953,-0.25293 -0.79297,-0.69043 -0.2666,-0.44434 -0.2666,-0.97754 0,-0.48535 0.21875,-0.89551 0.22559,-0.41699 0.6084,-0.69043 0.28711,-0.21191 0.7793,-0.35547 0.49902,-0.15039 1.0664,-0.15039 0.85449,0 1.49707,0.2461 0.64942,0.24609 0.95703,0.66992 0.30762,0.41699 0.42383,1.12109 l -1.20312,0.16407 q -0.082,-0.56055 -0.47852,-0.875 -0.38965,-0.31446 -1.10742,-0.31446 -0.84766,0 -1.20996,0.28028 -0.36231,0.28027 -0.36231,0.65625 0,0.23925 0.15039,0.43066 0.15039,0.19824 0.47168,0.32813 0.18457,0.0684 1.08692,0.31445 1.30566,0.34863 1.81836,0.57422 0.51953,0.21875 0.81347,0.64258 0.29395,0.42382 0.29395,1.05273 0,0.61523 -0.36231,1.16211 -0.35546,0.54004 -1.03222,0.84082 -0.67676,0.29394 -1.53125,0.29394 -1.41504,0 -2.16016,-0.58789 -0.73828,-0.58789 -0.94336,-1.74316 z m 11.35449,2.16699 v -10.02148 h 1.23047 v 10.02148 z m 3.14454,-8.60644 v -1.41504 h 1.23046 v 1.41504 z m 0,8.60644 v -7.25976 h 1.23046 v 7.25976 z m 3.39746,0 v -6.30273 h -1.08692 v -0.95703 h 1.08692 v -0.77246 q 0,-0.73145 0.12988,-1.08692 0.17773,-0.47851 0.62207,-0.77246 0.45117,-0.30078 1.25781,-0.30078 0.51953,0 1.14844,0.12305 l -0.18457,1.07324 q -0.38281,-0.0684 -0.72461,-0.0684 -0.56055,0 -0.79297,0.23926 -0.23242,0.23925 -0.23242,0.8955 v 0.66993 h 1.41504 v 0.95703 h -1.41504 v 6.30273 z m 8.56543,-2.33789 1.27148,0.15723 q -0.30078,1.11426 -1.11426,1.72949 -0.81347,0.61523 -2.07812,0.61523 -1.59278,0 -2.5293,-0.97753 -0.92969,-0.98438 -0.92969,-2.75489 0,-1.83203 0.94336,-2.84375 0.94336,-1.01172 2.44727,-1.01172 1.45605,0 2.3789,0.99121 0.92286,0.99122 0.92286,2.78907 0,0.10937 -0.007,0.32812 h -5.41406 q 0.0684,1.19629 0.67676,1.83203 0.60839,0.63575 1.51757,0.63575 0.67676,0 1.15528,-0.35547 0.47851,-0.35547 0.75879,-1.13477 z m -4.04004,-1.98926 h 4.05371 q -0.082,-0.91601 -0.46485,-1.37402 -0.58789,-0.71094 -1.52441,-0.71094 -0.84766,0 -1.42871,0.56739 -0.57422,0.56738 -0.63574,1.51757 z m 11.59375,1.66797 1.20996,0.15723 q -0.19824,1.25098 -1.01856,1.96191 -0.81347,0.7041 -2.00293,0.7041 -1.49023,0 -2.39941,-0.9707 -0.90234,-0.97754 -0.90234,-2.7959 0,-1.17578 0.38964,-2.05761 0.38965,-0.88184 1.18262,-1.31934 0.79981,-0.44434 1.73633,-0.44434 1.18262,0 1.93457,0.60157 0.75195,0.59472 0.96387,1.69531 l -1.19629,0.18457 q -0.1709,-0.73145 -0.6084,-1.10059 -0.43066,-0.36914 -1.0459,-0.36914 -0.92969,0 -1.51074,0.66992 -0.58106,0.66309 -0.58106,2.10547 0,1.46289 0.56055,2.12598 0.56055,0.66309 1.46289,0.66309 0.72461,0 1.20996,-0.44434 0.48535,-0.44434 0.61524,-1.36719 z m 2.208,5.45508 -0.13671,-1.15527 q 0.40332,0.10937 0.7041,0.10937 0.41015,0 0.65625,-0.13672 0.24609,-0.13672 0.40332,-0.38281 0.11621,-0.18457 0.37597,-0.91601 0.0342,-0.10254 0.10938,-0.30079 l -2.75488,-7.27343 h 1.32617 l 1.51074,4.2041 q 0.29395,0.7998 0.52637,1.68164 0.21191,-0.84766 0.50586,-1.6543 l 1.55176,-4.23144 h 1.23046 l -2.76171,7.38281 q -0.44434,1.19629 -0.69043,1.64746 -0.32813,0.6084 -0.75196,0.88867 -0.42383,0.28711 -1.01172,0.28711 -0.35547,0 -0.79297,-0.15039 z m 11.792,-5.45508 1.20996,0.15723 q -0.19824,1.25098 -1.01856,1.96191 -0.81347,0.7041 -2.00293,0.7041 -1.49023,0 -2.39941,-0.9707 -0.90234,-0.97754 -0.90234,-2.7959 0,-1.17578 0.38964,-2.05761 0.38965,-0.88184 1.18262,-1.31934 0.79981,-0.44434 1.73633,-0.44434 1.18262,0 1.93457,0.60157 0.75195,0.59472 0.96387,1.69531 l -1.19629,0.18457 q -0.1709,-0.73145 -0.6084,-1.10059 -0.43066,-0.36914 -1.0459,-0.36914 -0.92969,0 -1.51074,0.66992 -0.58106,0.66309 -0.58106,2.10547 0,1.46289 0.56055,2.12598 0.56055,0.66309 1.46289,0.66309 0.72461,0 1.20996,-0.44434 0.48535,-0.44434 0.61524,-1.36719 z m 2.23535,2.65918 v -10.02148 h 1.23047 v 10.02148 z m 8.10742,-2.33789 1.27148,0.15723 q -0.30078,1.11426 -1.11425,1.72949 -0.81348,0.61523 -2.07813,0.61523 -1.59277,0 -2.52929,-0.97753 -0.92969,-0.98438 -0.92969,-2.75489 0,-1.83203 0.94336,-2.84375 0.94336,-1.01172 2.44726,-1.01172 1.45606,0 2.37891,0.99121 0.92285,0.99122 0.92285,2.78907 0,0.10937 -0.007,0.32812 h -5.41406 q 0.0684,1.19629 0.67676,1.83203 0.6084,0.63575 1.51758,0.63575 0.67676,0 1.15527,-0.35547 0.47852,-0.35547 0.75879,-1.13477 z m -4.04004,-1.98926 h 4.05371 q -0.082,-0.91601 -0.46484,-1.37402 -0.58789,-0.71094 -1.52442,-0.71094 -0.84765,0 -1.42871,0.56739 -0.57422,0.56738 -0.63574,1.51757 z m 15.71582,1.98926 1.27149,0.15723 q -0.30079,1.11426 -1.11426,1.72949 -0.81348,0.61523 -2.07813,0.61523 -1.59277,0 -2.52929,-0.97753 -0.92969,-0.98438 -0.92969,-2.75489 0,-1.83203 0.94336,-2.84375 0.94336,-1.01172 2.44726,-1.01172 1.45606,0 2.37891,0.99121 0.92285,0.99122 0.92285,2.78907 0,0.10937 -0.007,0.32812 h -5.41407 q 0.0684,1.19629 0.67676,1.83203 0.6084,0.63575 1.51758,0.63575 0.67676,0 1.15527,-0.35547 0.47852,-0.35547 0.75879,-1.13477 z m -4.04004,-1.98926 h 4.05371 q -0.082,-0.91601 -0.46484,-1.37402 -0.58789,-0.71094 -1.52441,-0.71094 -0.84766,0 -1.42872,0.56739 -0.57421,0.56738 -0.63574,1.51757 z m 8.87305,4.32715 -2.76172,-7.25976 h 1.29883 l 1.55859,4.34765 q 0.25293,0.7041 0.46485,1.46289 0.16406,-0.57422 0.458,-1.38086 l 1.61329,-4.42968 h 1.26464 l -2.74804,7.25976 z m 9.95312,-2.33789 1.27149,0.15723 q -0.30078,1.11426 -1.11426,1.72949 -0.81348,0.61523 -2.07812,0.61523 -1.59278,0 -2.5293,-0.97753 -0.92969,-0.98438 -0.92969,-2.75489 0,-1.83203 0.94336,-2.84375 0.94336,-1.01172 2.44727,-1.01172 1.45605,0 2.3789,0.99121 0.92285,0.99122 0.92285,2.78907 0,0.10937 -0.007,0.32812 h -5.41406 q 0.0684,1.19629 0.67675,1.83203 0.6084,0.63575 1.51758,0.63575 0.67676,0 1.15528,-0.35547 0.47851,-0.35547 0.75878,-1.13477 z m -4.04003,-1.98926 h 4.05371 q -0.082,-0.91601 -0.46485,-1.37402 -0.58789,-0.71094 -1.52441,-0.71094 -0.84766,0 -1.42871,0.56739 -0.57422,0.56738 -0.63574,1.51757 z m 6.85644,4.32715 v -7.25976 h 1.10742 v 1.03222 q 0.79981,-1.19629 2.31055,-1.19629 0.65625,0 1.20312,0.23926 0.55372,0.23242 0.82715,0.61524 0.27344,0.38281 0.38282,0.90918 0.0684,0.34179 0.0684,1.19628 v 4.46387 h -1.23046 v -4.41601 q 0,-0.75196 -0.14356,-1.1211 -0.14355,-0.37597 -0.51269,-0.59472 -0.36231,-0.22559 -0.8545,-0.22559 -0.78613,0 -1.36035,0.49902 -0.56738,0.49903 -0.56738,1.89356 v 3.96484 z m 10.47266,-1.10058 0.17773,1.08691 q -0.51953,0.10938 -0.92969,0.10938 -0.66992,0 -1.03906,-0.21192 -0.36914,-0.21191 -0.51953,-0.55371 -0.15039,-0.34863 -0.15039,-1.45605 v -4.17676 h -0.90234 v -0.95703 h 0.90234 v -1.79786 l 1.22363,-0.73828 v 2.53614 h 1.23731 v 0.95703 h -1.23731 v 4.24511 q 0,0.52637 0.0615,0.67676 0.0684,0.15039 0.21191,0.23926 0.15039,0.0889 0.42383,0.0889 0.20508,0 0.54004,-0.0478 z m 0.71093,-1.06641 1.2168,-0.19141 q 0.10254,0.73145 0.56738,1.1211 0.47168,0.38965 1.3125,0.38965 0.84766,0 1.25782,-0.3418 0.41015,-0.34863 0.41015,-0.81348 0,-0.41699 -0.3623,-0.65625 -0.25293,-0.16406 -1.25781,-0.41699 -1.35352,-0.3418 -1.87989,-0.58789 -0.51953,-0.25293 -0.79297,-0.69043 -0.2666,-0.44434 -0.2666,-0.97754 0,-0.48535 0.21875,-0.89551 0.22559,-0.41699 0.6084,-0.69043 0.28711,-0.21191 0.7793,-0.35547 0.49902,-0.15039 1.0664,-0.15039 0.8545,0 1.49707,0.2461 0.64942,0.24609 0.95704,0.66992 0.30761,0.41699 0.42382,1.12109 l -1.20312,0.16407 q -0.082,-0.56055 -0.47852,-0.875 -0.38965,-0.31446 -1.10742,-0.31446 -0.84765,0 -1.20996,0.28028 -0.3623,0.28027 -0.3623,0.65625 0,0.23925 0.15039,0.43066 0.15039,0.19824 0.47168,0.32813 0.18457,0.0684 1.08691,0.31445 1.30566,0.34863 1.81836,0.57422 0.51953,0.21875 0.81348,0.64258 0.29394,0.42382 0.29394,1.05273 0,0.61523 -0.3623,1.16211 -0.35547,0.54004 -1.03223,0.84082 -0.67676,0.29394 -1.53125,0.29394 -1.41504,0 -2.16016,-0.58789 -0.73828,-0.58789 -0.94336,-1.74316 z"
       id="flowRoot4302-6"
       transform="translate(-20,372.36182)"
       aria-label="Each scope triggers lifecycle events" />
    <g
       id="g3709"
       transform="translate(0,19.999997)" />
    <flowRoot
       xml:space="preserve"
       id="flowRoot4157"
       style="font-style:normal;font-weight:normal;line-height:0.01%;font-family:sans-serif;letter-spacing:0px;word-spacing:0px;fill:#000000;fill-opacity:1;stroke:none"><flowRegion
         id="flowRegion4159"
         style="font-family:sans-serif"><rect
           id="rect4161"
           width="10.955056"
           height="72.471909"
           x="16.011236"
           y="-53.932568" /></flowRegion><flowPara
         id="flowPara4163"
         style="font-size:40px;line-height:1.25;font-family:sans-serif"> </flowPara></flowRoot>
    <rect
       style="fill:#8ae234;stroke:#4e9a06;stroke-width:0.99999994;stroke-linecap:round;stroke-linejoin:round;stroke-miterlimit:4;stroke-dasharray:none"
       id="rect3182"
       width="739"
       height="449"
       x="30.499998"
       y="572.86218"
       rx="4.9999986"
       ry="5" />
    <path
       style="font-size:13.2778px;line-height:1.25;font-family:'Liberation Sans';-inkscape-font-specification:'Liberation Sans, Normal'"
       d="m 193.9656,81.716949 1.18645,-0.103733 q 0.0843,0.713163 0.389,1.173478 0.31119,0.453831 0.95952,0.739096 0.64833,0.278782 1.45875,0.278782 0.71964,0 1.27072,-0.213949 0.55108,-0.213949 0.8169,-0.583497 0.2723,-0.376032 0.2723,-0.816896 0,-0.447348 -0.25933,-0.777996 -0.25934,-0.337132 -0.8558,-0.564047 -0.38251,-0.149116 -1.69214,-0.460315 -1.30963,-0.317681 -1.83477,-0.596463 -0.68075,-0.356582 -1.01788,-0.881729 -0.33065,-0.531631 -0.33065,-1.186444 0,-0.719647 0.40845,-1.342043 0.40844,-0.628881 1.19292,-0.953046 0.78448,-0.324165 1.74401,-0.324165 1.05678,0 1.86071,0.343615 0.81041,0.337132 1.24479,0.998429 0.43438,0.661296 0.4668,1.497642 l -1.20589,0.09077 q -0.0973,-0.901179 -0.6613,-1.361493 -0.55756,-0.460314 -1.65324,-0.460314 -1.14106,0 -1.66621,0.421414 -0.51866,0.414932 -0.51866,1.004912 0,0.512181 0.36954,0.842829 0.36307,0.330648 1.89313,0.680747 1.53654,0.343615 2.10707,0.602947 0.82986,0.382514 1.22534,0.972495 0.39549,0.583497 0.39549,1.348526 0,0.758546 -0.43439,1.43281 -0.43438,0.66778 -1.25127,1.043811 -0.81041,0.369548 -1.82829,0.369548 -1.29018,0 -2.16543,-0.376031 -0.86876,-0.376032 -1.36797,-1.128095 -0.49273,-0.758546 -0.51867,-1.711591 z m 8.70059,-0.388998 q 0,-1.912574 1.06327,-2.833202 0.88821,-0.76503 2.16542,-0.76503 1.41984,0 2.32102,0.933595 0.90118,0.927112 0.90118,2.567387 0,1.329077 -0.40197,2.094107 -0.39548,0.758546 -1.16051,1.17996 -0.75854,0.421415 -1.65972,0.421415 -1.44578,0 -2.34047,-0.927112 -0.88822,-0.927112 -0.88822,-2.67112 z m 1.19941,0 q 0,1.322593 0.57702,1.98389 0.57701,0.654813 1.45226,0.654813 0.86876,0 1.44577,-0.661296 0.57702,-0.661297 0.57702,-2.016307 0,-1.27721 -0.5835,-1.932023 -0.57701,-0.661297 -1.43929,-0.661297 -0.87525,0 -1.45226,0.654813 -0.57702,0.654814 -0.57702,1.977407 z m 6.59352,3.442633 v -9.504519 h 1.167 v 9.504519 z m 4.88841,0 -2.61925,-6.885266 h 1.23182 l 1.4782,4.12338 q 0.23988,0.66778 0.44086,1.387426 0.1556,-0.544597 0.43438,-1.309627 l 1.53006,-4.201179 h 1.19941 l -2.60628,6.885266 z m 9.43969,-2.217289 1.20589,0.149116 q -0.28527,1.056778 -1.05678,1.640275 -0.77151,0.583497 -1.97092,0.583497 -1.51061,0 -2.39882,-0.927112 -0.88173,-0.933595 -0.88173,-2.61277 0,-1.737525 0.89469,-2.697053 0.8947,-0.959529 2.32102,-0.959529 1.38095,0 2.25619,0.940079 0.87525,0.940078 0.87525,2.645186 0,0.103733 -0.006,0.311199 h -5.13478 q 0.0648,1.134577 0.64185,1.737524 0.57701,0.602947 1.43929,0.602947 0.64185,0 1.09568,-0.337131 0.45383,-0.337132 0.71965,-1.076228 z m -3.83164,-1.886641 h 3.8446 q -0.0778,-0.868762 -0.44086,-1.303143 -0.55757,-0.674263 -1.44578,-0.674263 -0.80393,0 -1.35501,0.538114 -0.5446,0.538114 -0.60295,1.439292 z m 6.48979,4.10393 v -6.885266 h 1.0503 v 1.043812 q 0.40196,-0.732613 0.73909,-0.966012 0.34362,-0.233399 0.75206,-0.233399 0.58998,0 1.19942,0.376032 l -0.40197,1.082711 q -0.4279,-0.252849 -0.8558,-0.252849 -0.38251,0 -0.68723,0.233399 -0.30471,0.226915 -0.43438,0.635363 -0.1945,0.622397 -0.1945,1.361493 v 3.604716 z"
       id="flowRoot3184"
       transform="matrix(1.6568991,0,0,1.6568991,-280.39443,451.72153)"
       aria-label="Solver" />
    <path
       style="font-size:13.2778px;line-height:1.25;font-family:'Liberation Sans';-inkscape-font-specification:'Liberation Sans, Normal';text-align:center;text-anchor:middle;fill:#555753"
       d="m 270.94926,70.645065 1.15402,-0.181533 q 0.0973,0.693714 0.53812,1.063262 0.44735,0.369548 1.24479,0.369548 0.80393,0 1.19293,-0.324165 0.389,-0.330649 0.389,-0.771513 0,-0.395481 -0.34362,-0.622397 -0.23988,-0.155599 -1.19293,-0.395481 -1.28369,-0.324165 -1.7829,-0.557564 -0.49273,-0.239882 -0.75207,-0.654813 -0.25284,-0.421415 -0.25284,-0.927112 0,-0.460315 0.20746,-0.849313 0.21395,-0.395481 0.57701,-0.654813 0.2723,-0.200982 0.7391,-0.337132 0.47328,-0.142632 1.0114,-0.142632 0.81041,0 1.41984,0.233398 0.61591,0.233399 0.90766,0.635364 0.29175,0.395481 0.40197,1.063261 l -1.14107,0.155599 q -0.0778,-0.53163 -0.45383,-0.829862 -0.36954,-0.298232 -1.05029,-0.298232 -0.80393,0 -1.14755,0.265815 -0.34361,0.265816 -0.34361,0.622397 0,0.226916 0.14263,0.408448 0.14263,0.188016 0.44735,0.311199 0.17505,0.06483 1.03084,0.298232 1.23832,0.330648 1.72456,0.544597 0.49273,0.207465 0.77152,0.60943 0.27878,0.401965 0.27878,0.998428 0,0.583497 -0.34362,1.102161 -0.33713,0.512181 -0.97898,0.797446 -0.64184,0.278782 -1.45226,0.278782 -1.34204,0 -2.04872,-0.557564 -0.70019,-0.557563 -0.89469,-1.653241 z m 6.67131,-1.387427 q 0,-1.912573 1.06326,-2.833202 0.88822,-0.765029 2.16543,-0.765029 1.41984,0 2.32102,0.933595 0.90118,0.927112 0.90118,2.567387 0,1.329077 -0.40197,2.094106 -0.39548,0.758546 -1.16051,1.179961 -0.75854,0.421414 -1.65972,0.421414 -1.44578,0 -2.34048,-0.927112 -0.88821,-0.927112 -0.88821,-2.67112 z m 1.19941,0 q 0,1.322594 0.57702,1.98389 0.57701,0.654814 1.45226,0.654814 0.86876,0 1.44577,-0.661297 0.57702,-0.661297 0.57702,-2.016306 0,-1.277211 -0.5835,-1.932024 -0.57701,-0.661297 -1.43929,-0.661297 -0.87525,0 -1.45226,0.654814 -0.57702,0.654813 -0.57702,1.977406 z m 6.59352,3.442633 v -9.504519 h 1.16699 v 9.504519 z m 4.88841,0 -2.61925,-6.885265 h 1.23182 l 1.4782,4.123379 q 0.23988,0.66778 0.44086,1.387426 0.1556,-0.544597 0.43438,-1.309626 l 1.53006,-4.201179 h 1.19941 l -2.60629,6.885265 z m 9.43968,-2.217289 1.2059,0.149116 q -0.28527,1.056778 -1.05678,1.640275 -0.77151,0.583497 -1.97092,0.583497 -1.51061,0 -2.39882,-0.927112 -0.88173,-0.933595 -0.88173,-2.61277 0,-1.737524 0.89469,-2.697053 0.8947,-0.959528 2.32102,-0.959528 1.38095,0 2.25619,0.940078 0.87525,0.940079 0.87525,2.645187 0,0.103733 -0.006,0.311198 h -5.13477 q 0.0648,1.134578 0.64185,1.737525 0.57701,0.602947 1.43929,0.602947 0.64185,0 1.09568,-0.337132 0.45383,-0.337131 0.71964,-1.076228 z m -3.83163,-1.88664 h 3.8446 q -0.0778,-0.868762 -0.44086,-1.303144 -0.55757,-0.674263 -1.44578,-0.674263 -0.80393,0 -1.35501,0.538114 -0.5446,0.538114 -0.60295,1.439293 z m 6.48979,4.103929 v -6.885265 h 1.05029 v 1.043811 q 0.40197,-0.732613 0.7391,-0.966012 0.34361,-0.233398 0.75206,-0.233398 0.58998,0 1.19941,0.376031 l -0.40196,1.082711 q -0.4279,-0.252848 -0.8558,-0.252848 -0.38251,0 -0.68723,0.233398 -0.30471,0.226916 -0.43438,0.635364 -0.1945,0.622397 -0.1945,1.361493 v 3.604715 z m 4.15579,-3.053634 1.18645,-0.103733 q 0.0843,0.713163 0.38899,1.173477 0.3112,0.453831 0.95953,0.739096 0.64833,0.278782 1.45875,0.278782 0.71964,0 1.27072,-0.213949 0.55108,-0.213949 0.8169,-0.583497 0.2723,-0.376031 0.2723,-0.816896 0,-0.447347 -0.25934,-0.777996 -0.25933,-0.337131 -0.85579,-0.564047 -0.38252,-0.149116 -1.69214,-0.460314 -1.30963,-0.317682 -1.83478,-0.596464 -0.68074,-0.356581 -1.01787,-0.881729 -0.33065,-0.53163 -0.33065,-1.186444 0,-0.719646 0.40844,-1.342043 0.40845,-0.62888 1.19293,-0.953045 0.78448,-0.324165 1.74401,-0.324165 1.05678,0 1.86071,0.343615 0.81041,0.337131 1.24479,0.998428 0.43438,0.661297 0.4668,1.497643 l -1.2059,0.09077 q -0.0972,-0.901179 -0.66129,-1.361493 -0.55757,-0.460315 -1.65324,-0.460315 -1.14106,0 -1.66621,0.421415 -0.51867,0.414931 -0.51867,1.004911 0,0.512181 0.36955,0.84283 0.36307,0.330648 1.89313,0.680746 1.53654,0.343615 2.10707,0.602947 0.82986,0.382515 1.22534,0.972495 0.39548,0.583497 0.39548,1.348527 0,0.758546 -0.43438,1.432809 -0.43438,0.66778 -1.25127,1.043811 -0.81042,0.369549 -1.82829,0.369549 -1.29018,0 -2.16543,-0.376032 -0.86876,-0.376031 -1.36797,-1.128094 -0.49273,-0.758546 -0.51867,-1.711591 z m 11.68291,2.009823 0.16857,1.030844 q -0.49273,0.103733 -0.88173,0.103733 -0.63537,0 -0.98546,-0.200982 -0.3501,-0.200982 -0.49273,-0.525147 -0.14264,-0.330649 -0.14264,-1.380943 v -3.961297 h -0.85579 v -0.907662 h 0.85579 v -1.705108 l 1.16051,-0.700197 v 2.405305 h 1.17348 v 0.907662 h -1.17348 v 4.02613 q 0,0.499214 0.0583,0.641846 0.0648,0.142633 0.20099,0.226916 0.14263,0.08428 0.40196,0.08428 0.1945,0 0.51218,-0.04538 z m 5.63399,0.194499 q -0.64833,0.55108 -1.25128,0.777996 -0.59646,0.226915 -1.28369,0.226915 -1.13458,0 -1.74401,-0.55108 -0.60943,-0.557564 -0.60943,-1.419843 0,-0.505698 0.22692,-0.920629 0.2334,-0.421414 0.60294,-0.674263 0.37604,-0.252849 0.84283,-0.382515 0.34362,-0.09077 1.03733,-0.175049 1.41336,-0.168566 2.08114,-0.401965 0.006,-0.239882 0.006,-0.304715 0,-0.713163 -0.33064,-1.004911 -0.44735,-0.395482 -1.32908,-0.395482 -0.82338,0 -1.21886,0.291749 -0.389,0.285265 -0.57702,1.017878 l -1.14106,-0.155599 q 0.1556,-0.732613 0.51218,-1.179961 0.35659,-0.453831 1.03085,-0.693713 0.67426,-0.246365 1.56247,-0.246365 0.88173,0 1.43281,0.207465 0.55108,0.207466 0.81042,0.525148 0.25933,0.311198 0.36306,0.790962 0.0584,0.298232 0.0584,1.076228 v 1.555992 q 0,1.627309 0.0713,2.06169 0.0778,0.427898 0.29823,0.823379 h -1.21886 q -0.18153,-0.363065 -0.2334,-0.849312 z m -0.0972,-2.606287 q -0.63536,0.259332 -1.90609,0.440864 -0.71965,0.103733 -1.01788,0.233399 -0.29823,0.129666 -0.46031,0.382515 -0.16208,0.246365 -0.16208,0.55108 0,0.466798 0.35009,0.777996 0.35659,0.311199 1.03733,0.311199 0.67426,0 1.19941,-0.291749 0.52515,-0.298231 0.77152,-0.810412 0.18801,-0.395482 0.18801,-1.166994 z m 2.97584,3.455599 v -6.885265 h 1.05029 v 1.043811 q 0.40197,-0.732613 0.7391,-0.966012 0.34361,-0.233398 0.75206,-0.233398 0.58998,0 1.19941,0.376031 l -0.40196,1.082711 q -0.4279,-0.252848 -0.8558,-0.252848 -0.38251,0 -0.68723,0.233398 -0.30471,0.226916 -0.43438,0.635364 -0.1945,0.622397 -0.1945,1.361493 v 3.604715 z m 6.98251,-1.043811 0.16856,1.030844 q -0.49273,0.103733 -0.88173,0.103733 -0.63536,0 -0.98546,-0.200982 -0.3501,-0.200982 -0.49273,-0.525147 -0.14263,-0.330649 -0.14263,-1.380943 v -3.961297 h -0.8558 v -0.907662 h 0.8558 v -1.705108 l 1.16051,-0.700197 v 2.405305 h 1.17348 v 0.907662 h -1.17348 v 4.02613 q 0,0.499214 0.0583,0.641846 0.0648,0.142633 0.20098,0.226916 0.14263,0.08428 0.40197,0.08428 0.1945,0 0.51218,-0.04538 z m 5.85442,-1.173478 1.20589,0.149116 q -0.28526,1.056778 -1.05677,1.640275 -0.77152,0.583497 -1.97093,0.583497 -1.51061,0 -2.39882,-0.927112 -0.88173,-0.933595 -0.88173,-2.61277 0,-1.737524 0.8947,-2.697053 0.89469,-0.959528 2.32102,-0.959528 1.38094,0 2.25619,0.940078 0.87524,0.940079 0.87524,2.645187 0,0.103733 -0.006,0.311198 h -5.13477 q 0.0648,1.134578 0.64184,1.737525 0.57702,0.602947 1.4393,0.602947 0.64184,0 1.09567,-0.337132 0.45383,-0.337131 0.71965,-1.076228 z m -3.83163,-1.88664 h 3.8446 q -0.0778,-0.868762 -0.44087,-1.303144 -0.55756,-0.674263 -1.44577,-0.674263 -0.80393,0 -1.35501,0.538114 -0.5446,0.538114 -0.60295,1.439293 z m 10.96974,4.103929 v -0.868762 q -0.65481,1.024361 -1.92554,1.024361 -0.82338,0 -1.51709,-0.453831 -0.68723,-0.453831 -1.06974,-1.264243 -0.37604,-0.816896 -0.37604,-1.873674 0,-1.030845 0.34362,-1.867191 0.34361,-0.842829 1.03084,-1.290177 0.68723,-0.447347 1.53655,-0.447347 0.62239,0 1.10864,0.265815 0.48625,0.259332 0.79096,0.680747 v -3.410217 h 1.16051 v 9.504519 z m -3.68899,-3.436149 q 0,1.322593 0.55756,1.977406 0.55756,0.654814 1.31611,0.654814 0.76503,0 1.29666,-0.622397 0.53811,-0.62888 0.53811,-1.912574 0,-1.413359 -0.54459,-2.074656 -0.5446,-0.661297 -1.34205,-0.661297 -0.77799,0 -1.30314,0.635364 -0.51866,0.635363 -0.51866,2.00334 z m 8.83674,6.230452 q -0.96601,-1.218861 -1.63379,-2.852653 -0.66778,-1.633791 -0.66778,-3.384283 0,-1.543025 0.49921,-2.956385 0.5835,-1.640275 1.80236,-3.267583 h 0.83634 q -0.78448,1.348526 -1.03732,1.92554 -0.39549,0.894696 -0.6224,1.867191 -0.27878,1.212377 -0.27878,2.437721 0,3.118467 1.9385,6.230452 z m 2.95638,0 h -0.83635 q 1.93851,-3.111985 1.93851,-6.230452 0,-1.218861 -0.27878,-2.418271 -0.22043,-0.972495 -0.61591,-1.867191 -0.25285,-0.583497 -1.04382,-1.94499 h 0.83635 q 1.21886,1.627308 1.80236,3.267583 0.49921,1.41336 0.49921,2.956385 0,1.750492 -0.67426,3.384283 -0.66778,1.633792 -1.62731,2.852653 z"
       id="flowRoot3192"
       transform="matrix(1.6568991,0,0,1.6568991,-120.39373,471.72146)"
       aria-label="solverStarted()" />
    <path
       style="font-size:13.2778px;line-height:1.25;font-family:'Liberation Sans';-inkscape-font-specification:'Liberation Sans, Normal';text-align:center;text-anchor:middle;fill:#555753"
       d="m 273.15682,88.750534 1.15403,-0.181533 q 0.0972,0.693713 0.53811,1.063261 0.44735,0.369549 1.2448,0.369549 0.80392,0 1.19292,-0.324165 0.389,-0.330649 0.389,-0.771513 0,-0.395482 -0.34361,-0.622397 -0.23989,-0.155599 -1.19293,-0.395481 -1.2837,-0.324165 -1.78291,-0.557564 -0.49273,-0.239882 -0.75206,-0.654814 -0.25285,-0.421414 -0.25285,-0.927112 0,-0.460314 0.20746,-0.849312 0.21395,-0.395481 0.57702,-0.654813 0.2723,-0.200983 0.73909,-0.337132 0.47329,-0.142633 1.0114,-0.142633 0.81041,0 1.41984,0.233399 0.61592,0.233399 0.90766,0.635364 0.29175,0.395481 0.40197,1.063261 l -1.14106,0.155599 q -0.0778,-0.53163 -0.45383,-0.829862 -0.36955,-0.298232 -1.0503,-0.298232 -0.80393,0 -1.14754,0.265815 -0.34362,0.265816 -0.34362,0.622397 0,0.226916 0.14264,0.408448 0.14263,0.188016 0.44734,0.311198 0.17505,0.06483 1.03085,0.298232 1.23831,0.330649 1.72456,0.544598 0.49273,0.207465 0.77151,0.60943 0.27878,0.401964 0.27878,0.998428 0,0.583497 -0.34361,1.102161 -0.33714,0.512181 -0.97898,0.797446 -0.64185,0.278782 -1.45226,0.278782 -1.34204,0 -2.04872,-0.557564 -0.7002,-0.557564 -0.8947,-1.653241 z m 6.67132,-1.387427 q 0,-1.912573 1.06326,-2.833202 0.88821,-0.76503 2.16542,-0.76503 1.41984,0 2.32102,0.933596 0.90118,0.927112 0.90118,2.567387 0,1.329076 -0.40196,2.094106 -0.39549,0.758546 -1.16051,1.179961 -0.75855,0.421414 -1.65973,0.421414 -1.44578,0 -2.34047,-0.927112 -0.88821,-0.927112 -0.88821,-2.67112 z m 1.19941,0 q 0,1.322594 0.57701,1.98389 0.57701,0.654814 1.45226,0.654814 0.86876,0 1.44578,-0.661297 0.57701,-0.661297 0.57701,-2.016307 0,-1.27721 -0.5835,-1.932023 -0.57701,-0.661297 -1.43929,-0.661297 -0.87525,0 -1.45226,0.654814 -0.57701,0.654813 -0.57701,1.977406 z m 6.59351,3.442633 v -9.504519 h 1.167 v 9.504519 z m 4.88841,0 -2.61925,-6.885265 h 1.23183 l 1.47819,4.123379 q 0.23988,0.66778 0.44086,1.387426 0.1556,-0.544597 0.43439,-1.309627 l 1.53005,-4.201178 h 1.19941 l -2.60628,6.885265 z m 9.43969,-2.217289 1.20589,0.149116 q -0.28526,1.056778 -1.05678,1.640275 -0.77151,0.583497 -1.97092,0.583497 -1.51061,0 -2.39882,-0.927112 -0.88173,-0.933595 -0.88173,-2.61277 0,-1.737525 0.8947,-2.697053 0.89469,-0.959529 2.32102,-0.959529 1.38094,0 2.25619,0.940079 0.87524,0.940079 0.87524,2.645187 0,0.103732 -0.006,0.311198 h -5.13478 q 0.0648,1.134578 0.64185,1.737525 0.57701,0.602947 1.43929,0.602947 0.64185,0 1.09568,-0.337132 0.45383,-0.337132 0.71965,-1.076228 z m -3.83163,-1.88664 h 3.84459 q -0.0778,-0.868763 -0.44086,-1.303144 -0.55756,-0.674263 -1.44578,-0.674263 -0.80393,0 -1.35501,0.538114 -0.54459,0.538114 -0.60294,1.439293 z m 6.48978,4.103929 v -6.885265 h 1.0503 v 1.043811 q 0.40196,-0.732613 0.73909,-0.966012 0.34362,-0.233399 0.75207,-0.233399 0.58998,0 1.19941,0.376032 l -0.40197,1.082711 q -0.4279,-0.252849 -0.85579,-0.252849 -0.38252,0 -0.68723,0.233399 -0.30472,0.226916 -0.43439,0.635364 -0.19449,0.622396 -0.19449,1.361493 v 3.604715 z m 4.60963,0 v -9.504519 h 6.8723 v 1.121611 h -5.61454 v 2.911002 h 5.25795 v 1.115128 h -5.25795 v 3.235167 h 5.83497 v 1.121611 z m 8.68114,0 v -6.885265 h 1.05029 v 0.978978 q 0.75855,-1.134578 2.19136,-1.134578 0.62239,0 1.14106,0.226916 0.52515,0.220432 0.78448,0.583497 0.25933,0.363065 0.36306,0.862279 0.0648,0.324165 0.0648,1.134578 v 4.233595 h -1.167 v -4.188212 q 0,-0.713163 -0.13615,-1.063262 -0.13615,-0.356581 -0.48624,-0.564047 -0.34362,-0.213949 -0.81042,-0.213949 -0.74558,0 -1.29017,0.473281 -0.53812,0.473281 -0.53812,1.795874 v 3.760315 z m 11.85147,0 v -0.868762 q -0.65481,1.024361 -1.92554,1.024361 -0.82338,0 -1.51709,-0.453831 -0.68723,-0.453831 -1.06975,-1.264244 -0.37603,-0.816895 -0.37603,-1.873673 0,-1.030845 0.34362,-1.867191 0.34361,-0.842829 1.03084,-1.290177 0.68723,-0.447348 1.53654,-0.447348 0.6224,0 1.10865,0.265816 0.48625,0.259332 0.79096,0.680746 v -3.410216 h 1.16051 v 9.504519 z m -3.689,-3.436149 q 0,1.322593 0.55757,1.977406 0.55756,0.654814 1.31611,0.654814 0.76503,0 1.29666,-0.622397 0.53811,-0.62888 0.53811,-1.912574 0,-1.413359 -0.5446,-2.074656 -0.54459,-0.661297 -1.34204,-0.661297 -0.778,0 -1.30314,0.635364 -0.51867,0.635363 -0.51867,2.00334 z m 11.31985,1.21886 1.20589,0.149116 q -0.28527,1.056778 -1.05678,1.640275 -0.77151,0.583497 -1.97092,0.583497 -1.51061,0 -2.39882,-0.927112 -0.88173,-0.933595 -0.88173,-2.61277 0,-1.737525 0.89469,-2.697053 0.8947,-0.959529 2.32103,-0.959529 1.38094,0 2.25618,0.940079 0.87525,0.940079 0.87525,2.645187 0,0.103732 -0.006,0.311198 h -5.13478 q 0.0648,1.134578 0.64185,1.737525 0.57701,0.602947 1.43929,0.602947 0.64185,0 1.09568,-0.337132 0.45383,-0.337132 0.71965,-1.076228 z m -3.83163,-1.88664 h 3.84459 q -0.0778,-0.868763 -0.44086,-1.303144 -0.55757,-0.674263 -1.44578,-0.674263 -0.80393,0 -1.35501,0.538114 -0.54459,0.538114 -0.60294,1.439293 z m 10.96974,4.103929 v -0.868762 q -0.65481,1.024361 -1.92554,1.024361 -0.82338,0 -1.51709,-0.453831 -0.68723,-0.453831 -1.06974,-1.264244 -0.37603,-0.816895 -0.37603,-1.873673 0,-1.030845 0.34361,-1.867191 0.34362,-0.842829 1.03085,-1.290177 0.68723,-0.447348 1.53654,-0.447348 0.62239,0 1.10864,0.265816 0.48625,0.259332 0.79096,0.680746 v -3.410216 h 1.16052 v 9.504519 z m -3.68899,-3.436149 q 0,1.322593 0.55756,1.977406 0.55756,0.654814 1.31611,0.654814 0.76503,0 1.29666,-0.622397 0.53811,-0.62888 0.53811,-1.912574 0,-1.413359 -0.54459,-2.074656 -0.5446,-0.661297 -1.34205,-0.661297 -0.77799,0 -1.30314,0.635364 -0.51866,0.635363 -0.51866,2.00334 z m 8.83673,6.230451 q -0.96601,-1.21886 -1.63379,-2.852652 -0.66778,-1.633792 -0.66778,-3.384283 0,-1.543025 0.49921,-2.956385 0.5835,-1.640275 1.80236,-3.267583 h 0.83635 q -0.78448,1.348526 -1.03733,1.92554 -0.39548,0.894695 -0.6224,1.867191 -0.27878,1.212377 -0.27878,2.437721 0,3.118467 1.93851,6.230451 z m 2.95638,0 h -0.83634 q 1.9385,-3.111984 1.9385,-6.230451 0,-1.218861 -0.27878,-2.418272 -0.22043,-0.972495 -0.61591,-1.86719 -0.25285,-0.583497 -1.04381,-1.94499 h 0.83634 q 1.21886,1.627308 1.80236,3.267583 0.49921,1.41336 0.49921,2.956385 0,1.750491 -0.67426,3.384283 -0.66778,1.633792 -1.62731,2.852652 z"
       id="flowRoot3200"
       transform="matrix(1.6568991,0,0,1.6568991,-120.39373,861.72148)"
       aria-label="solverEnded()" />
  </g>
  <g
     id="layer2"
     style="display:inline">
    <rect
       ry="5"
       rx="4.9999986"
       y="150.5"
       x="60.499996"
       height="359"
       width="679"
       id="rect3148"
       style="fill:#ad7fa8;stroke:#5c3566;stroke-width:0.99999994;stroke-linecap:round;stroke-linejoin:round;stroke-miterlimit:4;stroke-dasharray:none;display:inline" />
    <path
       style="font-size:13.2778px;line-height:1.25;font-family:'Liberation Sans';-inkscape-font-specification:'Liberation Sans, Normal'"
       d="m 194.3935,84.770584 v -9.504519 h 3.58527 q 0.94656,0 1.44577,0.09077 0.7002,0.1167 1.17348,0.447348 0.47328,0.324165 0.75855,0.914145 0.29175,0.589981 0.29175,1.29666 0,1.212378 -0.77152,2.055207 -0.77151,0.836345 -2.78782,0.836345 h -2.43772 v 3.864048 z m 1.25776,-4.985659 h 2.45717 q 1.21886,0 1.73104,-0.453831 0.51219,-0.453831 0.51219,-1.27721 0,-0.596463 -0.30472,-1.017878 -0.29823,-0.427898 -0.79096,-0.564047 -0.31768,-0.08428 -1.17348,-0.08428 h -2.43124 z m 7.44931,4.985659 v -9.504519 h 1.167 v 3.410216 q 0.81689,-0.946562 2.06169,-0.946562 0.76503,0 1.32908,0.304715 0.56404,0.298232 0.80392,0.829863 0.24637,0.53163 0.24637,1.543025 v 4.363262 h -1.16699 v -4.363262 q 0,-0.875245 -0.38252,-1.270727 -0.37603,-0.401964 -1.06974,-0.401964 -0.51867,0 -0.97898,0.272298 -0.45383,0.265816 -0.64833,0.72613 -0.1945,0.460314 -0.1945,1.270727 v 3.766798 z m 11.87741,-0.849313 q -0.64833,0.551081 -1.25127,0.777996 -0.59647,0.226916 -1.2837,0.226916 -1.13458,0 -1.74401,-0.551081 -0.60943,-0.557564 -0.60943,-1.419843 0,-0.505697 0.22692,-0.920628 0.2334,-0.421415 0.60295,-0.674264 0.37603,-0.252848 0.84283,-0.382514 0.34361,-0.09077 1.03732,-0.175049 1.41336,-0.168566 2.08114,-0.401965 0.006,-0.239882 0.006,-0.304715 0,-0.713163 -0.33065,-1.004912 -0.44735,-0.395481 -1.32908,-0.395481 -0.82338,0 -1.21886,0.291748 -0.389,0.285266 -0.57701,1.017879 l -1.14106,-0.1556 q 0.1556,-0.732613 0.51218,-1.17996 0.35658,-0.453831 1.03084,-0.693713 0.67427,-0.246366 1.56248,-0.246366 0.88173,0 1.43281,0.207466 0.55108,0.207465 0.81041,0.525147 0.25933,0.311199 0.36306,0.790963 0.0583,0.298232 0.0583,1.076228 v 1.555992 q 0,1.627308 0.0713,2.061689 0.0778,0.427898 0.29823,0.82338 h -1.21886 q -0.18153,-0.363065 -0.2334,-0.849313 z m -0.0973,-2.606287 q -0.63536,0.259332 -1.90609,0.440865 -0.71964,0.103733 -1.01788,0.233399 -0.29823,0.129666 -0.46031,0.382514 -0.16208,0.246366 -0.16208,0.551081 0,0.466798 0.3501,0.777996 0.35658,0.311198 1.03732,0.311198 0.67427,0 1.19941,-0.291748 0.52515,-0.298232 0.77152,-0.810413 0.18801,-0.395481 0.18801,-1.166994 z m 2.52201,1.400393 1.15402,-0.181532 q 0.0973,0.693713 0.53812,1.063261 0.44735,0.369548 1.24479,0.369548 0.80393,0 1.19293,-0.324165 0.389,-0.330648 0.389,-0.771512 0,-0.395482 -0.34362,-0.622397 -0.23988,-0.1556 -1.19292,-0.395482 -1.2837,-0.324165 -1.78291,-0.557564 -0.49273,-0.239882 -0.75206,-0.654813 -0.25285,-0.421414 -0.25285,-0.927112 0,-0.460314 0.20746,-0.849312 0.21395,-0.395482 0.57702,-0.654814 0.27229,-0.200982 0.73909,-0.337131 0.47328,-0.142633 1.0114,-0.142633 0.81041,0 1.41984,0.233399 0.61591,0.233399 0.90766,0.635363 0.29175,0.395482 0.40197,1.063262 l -1.14106,0.155599 q -0.0778,-0.531631 -0.45384,-0.829863 -0.36954,-0.298231 -1.05029,-0.298231 -0.80393,0 -1.14754,0.265815 -0.34362,0.265815 -0.34362,0.622397 0,0.226915 0.14263,0.408448 0.14264,0.188015 0.44735,0.311198 0.17505,0.06483 1.03085,0.298232 1.23831,0.330648 1.72455,0.544597 0.49273,0.207466 0.77152,0.609431 0.27878,0.401964 0.27878,0.998428 0,0.583497 -0.34362,1.102161 -0.33713,0.512181 -0.97897,0.797446 -0.64185,0.278782 -1.45226,0.278782 -1.34205,0 -2.04873,-0.557564 -0.70019,-0.557564 -0.89469,-1.653242 z m 11.81905,-0.162082 1.2059,0.149116 q -0.28527,1.056778 -1.05678,1.640275 -0.77151,0.583497 -1.97092,0.583497 -1.51061,0 -2.39883,-0.927112 -0.88172,-0.933595 -0.88172,-2.61277 0,-1.737525 0.89469,-2.697053 0.8947,-0.959529 2.32102,-0.959529 1.38095,0 2.25619,0.940079 0.87525,0.940078 0.87525,2.645186 0,0.103733 -0.006,0.311199 h -5.13477 q 0.0648,1.134577 0.64185,1.737524 0.57701,0.602947 1.43929,0.602947 0.64185,0 1.09568,-0.337131 0.45383,-0.337132 0.71964,-1.076228 z m -3.83163,-1.886641 h 3.8446 q -0.0778,-0.868762 -0.44086,-1.303143 -0.55757,-0.674263 -1.44578,-0.674263 -0.80393,0 -1.35501,0.538114 -0.5446,0.538114 -0.60295,1.439292 z m 9.86759,-0.583497 q 0,-1.685658 0.34361,-2.710019 0.3501,-1.030845 1.03085,-1.588409 0.68723,-0.557564 1.72455,-0.557564 0.76503,0 1.34205,0.311199 0.57701,0.304715 0.95304,0.888212 0.37603,0.577013 0.58998,1.413359 0.21395,0.829863 0.21395,2.243222 0,1.672692 -0.34361,2.703537 -0.34362,1.024361 -1.03085,1.588408 -0.68075,0.557564 -1.72456,0.557564 -1.37446,0 -2.15894,-0.985462 -0.94007,-1.186444 -0.94007,-3.864047 z m 1.19941,0 q 0,2.340472 0.54459,3.118468 0.55108,0.771513 1.35501,0.771513 0.80393,0 1.34853,-0.777996 0.55108,-0.777997 0.55108,-3.111985 0,-2.346955 -0.55108,-3.118467 -0.5446,-0.771513 -1.36149,-0.771513 -0.80393,0 -1.2837,0.680746 -0.60294,0.868763 -0.60294,3.209234 z"
       id="flowRoot3150"
       transform="matrix(1.6568991,0,0,1.6568991,-250.39443,29.35935)"
       aria-label="Phase 0" />
    <path
       style="font-size:13.2778px;line-height:1.25;font-family:'Liberation Sans';-inkscape-font-specification:'Liberation Sans, Normal';text-align:center;text-anchor:middle;fill:#555753"
       d="m 252.93131,75.338974 v -9.523968 h 1.06326 v 0.894695 q 0.37603,-0.525147 0.84932,-0.784479 0.47328,-0.265815 1.14754,-0.265815 0.88173,0 1.55599,0.453831 0.67427,0.453831 1.01788,1.283693 0.34362,0.823379 0.34362,1.808841 0,1.056778 -0.38252,1.90609 -0.37603,0.84283 -1.10216,1.296661 -0.71965,0.447347 -1.51709,0.447347 -0.5835,0 -1.0503,-0.246365 -0.46031,-0.246366 -0.75854,-0.622397 v 3.351866 z m 1.05678,-6.042436 q 0,1.329077 0.53811,1.96444 0.53812,0.635364 1.30315,0.635364 0.77799,0 1.32907,-0.654814 0.55757,-0.661296 0.55757,-2.042239 0,-1.31611 -0.5446,-1.970924 -0.53811,-0.654813 -1.29018,-0.654813 -0.74558,0 -1.32259,0.700196 -0.57053,0.693714 -0.57053,2.02279 z m 6.3277,3.403733 v -9.504519 h 1.167 v 3.410217 q 0.81689,-0.946562 2.06169,-0.946562 0.76502,0 1.32907,0.304715 0.56405,0.298232 0.80393,0.829862 0.24637,0.531631 0.24637,1.543026 v 4.363261 h -1.167 V 68.33701 q 0,-0.875246 -0.38251,-1.270727 -0.37603,-0.401965 -1.06975,-0.401965 -0.51866,0 -0.97898,0.272299 -0.45383,0.265815 -0.64833,0.72613 -0.19449,0.460314 -0.19449,1.270726 v 3.766798 z m 11.87741,-0.849312 q -0.64833,0.55108 -1.25128,0.777996 -0.59646,0.226915 -1.28369,0.226915 -1.13458,0 -1.74401,-0.55108 -0.60943,-0.557564 -0.60943,-1.419843 0,-0.505698 0.22692,-0.920629 0.23339,-0.421414 0.60294,-0.674263 0.37603,-0.252849 0.84283,-0.382515 0.34362,-0.09077 1.03733,-0.175049 1.41336,-0.168566 2.08114,-0.401965 0.006,-0.239882 0.006,-0.304715 0,-0.713163 -0.33065,-1.004911 -0.44734,-0.395482 -1.32907,-0.395482 -0.82338,0 -1.21886,0.291749 -0.389,0.285265 -0.57702,1.017878 l -1.14106,-0.155599 q 0.1556,-0.732613 0.51218,-1.179961 0.35658,-0.453831 1.03085,-0.693713 0.67426,-0.246365 1.56247,-0.246365 0.88173,0 1.43281,0.207465 0.55108,0.207466 0.81042,0.525148 0.25933,0.311198 0.36306,0.790962 0.0584,0.298232 0.0584,1.076228 v 1.555992 q 0,1.627309 0.0713,2.06169 0.0778,0.427898 0.29823,0.823379 h -1.21886 q -0.18154,-0.363065 -0.2334,-0.849312 z m -0.0972,-2.606287 q -0.63536,0.259332 -1.90609,0.440864 -0.71965,0.103733 -1.01788,0.233399 -0.29823,0.129666 -0.46031,0.382515 -0.16209,0.246365 -0.16209,0.55108 0,0.466798 0.3501,0.777996 0.35658,0.311199 1.03733,0.311199 0.67426,0 1.19941,-0.291749 0.52515,-0.298231 0.77151,-0.810412 0.18802,-0.395482 0.18802,-1.166994 z m 2.522,1.400393 1.15403,-0.181533 q 0.0973,0.693714 0.53811,1.063262 0.44735,0.369548 1.2448,0.369548 0.80393,0 1.19293,-0.324165 0.38899,-0.330649 0.38899,-0.771513 0,-0.395481 -0.34361,-0.622397 -0.23988,-0.155599 -1.19293,-0.395481 -1.28369,-0.324165 -1.78291,-0.557564 -0.49273,-0.239882 -0.75206,-0.654813 -0.25285,-0.421415 -0.25285,-0.927112 0,-0.460315 0.20747,-0.849313 0.21395,-0.395481 0.57701,-0.654813 0.2723,-0.200982 0.7391,-0.337132 0.47328,-0.142632 1.01139,-0.142632 0.81042,0 1.41985,0.233398 0.61591,0.233399 0.90766,0.635364 0.29175,0.395481 0.40196,1.063261 l -1.14106,0.155599 q -0.0778,-0.53163 -0.45383,-0.829862 -0.36955,-0.298232 -1.05029,-0.298232 -0.80393,0 -1.14755,0.265815 -0.34361,0.265816 -0.34361,0.622397 0,0.226916 0.14263,0.408448 0.14263,0.188016 0.44735,0.311199 0.17505,0.06483 1.03084,0.298232 1.23831,0.330648 1.72456,0.544597 0.49273,0.207465 0.77151,0.60943 0.27878,0.401965 0.27878,0.998428 0,0.583497 -0.34361,1.102161 -0.33713,0.512181 -0.97898,0.797446 -0.64185,0.278782 -1.45226,0.278782 -1.34204,0 -2.04872,-0.557564 -0.7002,-0.557563 -0.8947,-1.653241 z m 11.81906,-0.162083 1.20589,0.149116 q -0.28526,1.056778 -1.05677,1.640275 -0.77152,0.583497 -1.97093,0.583497 -1.51061,0 -2.39882,-0.927112 -0.88173,-0.933595 -0.88173,-2.61277 0,-1.737524 0.8947,-2.697053 0.89469,-0.959528 2.32102,-0.959528 1.38094,0 2.25619,0.940078 0.87524,0.940079 0.87524,2.645187 0,0.103733 -0.006,0.311198 h -5.13477 q 0.0648,1.134578 0.64184,1.737525 0.57702,0.602947 1.4393,0.602947 0.64184,0 1.09567,-0.337132 0.45384,-0.337131 0.71965,-1.076228 z m -3.83163,-1.88664 h 3.8446 q -0.0778,-0.868762 -0.44087,-1.303144 -0.55756,-0.674263 -1.44577,-0.674263 -0.80393,0 -1.35501,0.538114 -0.5446,0.538114 -0.60295,1.439293 z m 6.22397,1.050295 1.18644,-0.103733 q 0.0843,0.713163 0.389,1.173477 0.3112,0.453831 0.95953,0.739096 0.64833,0.278782 1.45874,0.278782 0.71965,0 1.27073,-0.213949 0.55108,-0.213949 0.8169,-0.583497 0.27229,-0.376031 0.27229,-0.816896 0,-0.447347 -0.25933,-0.777996 -0.25933,-0.337131 -0.85579,-0.564047 -0.38252,-0.149116 -1.69215,-0.460314 -1.30962,-0.317682 -1.83477,-0.596464 -0.68075,-0.356581 -1.01788,-0.881729 -0.33065,-0.53163 -0.33065,-1.186444 0,-0.719646 0.40845,-1.342043 0.40845,-0.62888 1.19293,-0.953045 0.78448,-0.324165 1.74401,-0.324165 1.05678,0 1.8607,0.343615 0.81042,0.337131 1.2448,0.998428 0.43438,0.661297 0.4668,1.497643 l -1.2059,0.09077 q -0.0973,-0.901179 -0.66129,-1.361493 -0.55757,-0.460315 -1.65325,-0.460315 -1.14106,0 -1.6662,0.421415 -0.51867,0.414931 -0.51867,1.004911 0,0.512181 0.36955,0.84283 0.36306,0.330648 1.89312,0.680746 1.53655,0.343615 2.10708,0.602947 0.82986,0.382515 1.22534,0.972495 0.39548,0.583497 0.39548,1.348527 0,0.758546 -0.43438,1.432809 -0.43438,0.66778 -1.25128,1.043811 -0.81041,0.369549 -1.82829,0.369549 -1.29017,0 -2.16542,-0.376032 -0.86876,-0.376031 -1.36798,-1.128094 -0.49273,-0.758546 -0.51866,-1.711591 z m 11.6829,2.009823 0.16857,1.030844 q -0.49273,0.103733 -0.88173,0.103733 -0.63536,0 -0.98546,-0.200982 -0.3501,-0.200982 -0.49273,-0.525147 -0.14263,-0.330649 -0.14263,-1.380943 v -3.961297 h -0.8558 v -0.907662 h 0.8558 v -1.705108 l 1.16051,-0.700197 v 2.405305 h 1.17347 v 0.907662 h -1.17347 v 4.02613 q 0,0.499214 0.0584,0.641846 0.0648,0.142633 0.20098,0.226916 0.14263,0.08428 0.40196,0.08428 0.1945,0 0.51218,-0.04538 z m 5.63399,0.194499 q -0.64833,0.55108 -1.25127,0.777996 -0.59647,0.226915 -1.2837,0.226915 -1.13457,0 -1.744,-0.55108 -0.60944,-0.557564 -0.60944,-1.419843 0,-0.505698 0.22692,-0.920629 0.2334,-0.421414 0.60295,-0.674263 0.37603,-0.252849 0.84283,-0.382515 0.34361,-0.09077 1.03732,-0.175049 1.41336,-0.168566 2.08114,-0.401965 0.006,-0.239882 0.006,-0.304715 0,-0.713163 -0.33065,-1.004911 -0.44735,-0.395482 -1.32908,-0.395482 -0.82338,0 -1.21886,0.291749 -0.389,0.285265 -0.57701,1.017878 l -1.14106,-0.155599 q 0.1556,-0.732613 0.51218,-1.179961 0.35658,-0.453831 1.03084,-0.693713 0.67427,-0.246365 1.56248,-0.246365 0.88173,0 1.43281,0.207465 0.55108,0.207466 0.81041,0.525148 0.25933,0.311198 0.36306,0.790962 0.0584,0.298232 0.0584,1.076228 v 1.555992 q 0,1.627309 0.0713,2.06169 0.0778,0.427898 0.29823,0.823379 h -1.21886 q -0.18153,-0.363065 -0.2334,-0.849312 z m -0.0972,-2.606287 q -0.63536,0.259332 -1.90609,0.440864 -0.71964,0.103733 -1.01787,0.233399 -0.29824,0.129666 -0.46032,0.382515 -0.16208,0.246365 -0.16208,0.55108 0,0.466798 0.3501,0.777996 0.35658,0.311199 1.03732,0.311199 0.67427,0 1.19942,-0.291749 0.52514,-0.298231 0.77151,-0.810412 0.18801,-0.395482 0.18801,-1.166994 z m 2.97584,3.455599 v -6.885265 h 1.05029 v 1.043811 q 0.40197,-0.732613 0.7391,-0.966012 0.34361,-0.233398 0.75206,-0.233398 0.58998,0 1.19941,0.376031 l -0.40196,1.082711 q -0.4279,-0.252848 -0.8558,-0.252848 -0.38251,0 -0.68723,0.233398 -0.30471,0.226916 -0.43438,0.635364 -0.1945,0.622397 -0.1945,1.361493 v 3.604715 z m 6.98251,-1.043811 0.16857,1.030844 q -0.49273,0.103733 -0.88173,0.103733 -0.63536,0 -0.98546,-0.200982 -0.3501,-0.200982 -0.49273,-0.525147 -0.14263,-0.330649 -0.14263,-1.380943 v -3.961297 h -0.8558 v -0.907662 h 0.8558 v -1.705108 l 1.16051,-0.700197 v 2.405305 h 1.17347 v 0.907662 h -1.17347 v 4.02613 q 0,0.499214 0.0584,0.641846 0.0648,0.142633 0.20098,0.226916 0.14263,0.08428 0.40196,0.08428 0.1945,0 0.51218,-0.04538 z m 5.85443,-1.173478 1.20589,0.149116 q -0.28527,1.056778 -1.05678,1.640275 -0.77151,0.583497 -1.97092,0.583497 -1.51061,0 -2.39882,-0.927112 -0.88173,-0.933595 -0.88173,-2.61277 0,-1.737524 0.89469,-2.697053 0.8947,-0.959528 2.32103,-0.959528 1.38094,0 2.25618,0.940078 0.87525,0.940079 0.87525,2.645187 0,0.103733 -0.006,0.311198 h -5.13478 q 0.0648,1.134578 0.64185,1.737525 0.57701,0.602947 1.43929,0.602947 0.64185,0 1.09568,-0.337132 0.45383,-0.337131 0.71965,-1.076228 z m -3.83163,-1.88664 h 3.84459 q -0.0778,-0.868762 -0.44086,-1.303144 -0.55757,-0.674263 -1.44578,-0.674263 -0.80393,0 -1.35501,0.538114 -0.54459,0.538114 -0.60294,1.439293 z m 10.96974,4.103929 v -0.868762 q -0.65482,1.024361 -1.92554,1.024361 -0.82338,0 -1.5171,-0.453831 -0.68723,-0.453831 -1.06974,-1.264243 -0.37603,-0.816896 -0.37603,-1.873674 0,-1.030845 0.34361,-1.867191 0.34362,-0.842829 1.03085,-1.290177 0.68723,-0.447347 1.53654,-0.447347 0.6224,0 1.10864,0.265815 0.48625,0.259332 0.79097,0.680747 v -3.410217 h 1.16051 v 9.504519 z m -3.689,-3.436149 q 0,1.322593 0.55756,1.977406 0.55757,0.654814 1.31611,0.654814 0.76503,0 1.29666,-0.622397 0.53812,-0.62888 0.53812,-1.912574 0,-1.413359 -0.5446,-2.074656 -0.5446,-0.661297 -1.34204,-0.661297 -0.778,0 -1.30315,0.635364 -0.51866,0.635363 -0.51866,2.00334 z m 8.83674,6.230452 q -0.96601,-1.218861 -1.63379,-2.852653 -0.66778,-1.633791 -0.66778,-3.384283 0,-1.543025 0.49921,-2.956385 0.5835,-1.640275 1.80236,-3.267583 h 0.83635 q -0.78448,1.348526 -1.03733,1.92554 -0.39548,0.894696 -0.6224,1.867191 -0.27878,1.212377 -0.27878,2.437721 0,3.118467 1.93851,6.230452 z m 2.95638,0 h -0.83634 q 1.9385,-3.111985 1.9385,-6.230452 0,-1.218861 -0.27878,-2.418271 -0.22043,-0.972495 -0.61591,-1.867191 -0.25285,-0.583497 -1.04381,-1.94499 h 0.83634 q 1.21886,1.627308 1.80236,3.267583 0.49921,1.41336 0.49921,2.956385 0,1.750492 -0.67426,3.384283 -0.66778,1.633792 -1.62731,2.852653 z"
       id="flowRoot3166"
       transform="matrix(1.6568991,0,0,1.6568991,-90.393734,49.35928)"
       aria-label="phaseStarted()" />
    <path
       style="font-size:13.2778px;line-height:1.25;font-family:'Liberation Sans';-inkscape-font-specification:'Liberation Sans, Normal';text-align:center;text-anchor:middle;fill:#555753"
       d="m 255.13888,93.444443 v -9.523968 h 1.06326 v 0.894695 q 0.37603,-0.525147 0.84931,-0.784479 0.47328,-0.265816 1.14754,-0.265816 0.88173,0 1.556,0.453831 0.67426,0.453831 1.01787,1.283694 0.34362,0.823379 0.34362,1.808841 0,1.056778 -0.38252,1.90609 -0.37603,0.842829 -1.10216,1.29666 -0.71964,0.447348 -1.51709,0.447348 -0.5835,0 -1.05029,-0.246365 -0.46032,-0.246366 -0.75855,-0.622397 v 3.351866 z m 1.05677,-6.042436 q 0,1.329077 0.53812,1.96444 0.53811,0.635364 1.30314,0.635364 0.778,0 1.32908,-0.654814 0.55756,-0.661296 0.55756,-2.042239 0,-1.31611 -0.5446,-1.970924 -0.53811,-0.654813 -1.29017,-0.654813 -0.74558,0 -1.3226,0.700196 -0.57053,0.693713 -0.57053,2.02279 z m 6.32771,3.403733 v -9.504519 h 1.16699 v 3.410216 q 0.8169,-0.946562 2.06169,-0.946562 0.76503,0 1.32908,0.304716 0.56404,0.298231 0.80393,0.829862 0.24636,0.531631 0.24636,1.543026 v 4.363261 h -1.16699 v -4.363261 q 0,-0.875246 -0.38252,-1.270727 -0.37603,-0.401965 -1.06974,-0.401965 -0.51867,0 -0.97898,0.272299 -0.45383,0.265815 -0.64833,0.726129 -0.1945,0.460315 -0.1945,1.270727 v 3.766798 z m 11.8774,-0.849313 q -0.64833,0.551081 -1.25127,0.777997 -0.59647,0.226915 -1.2837,0.226915 -1.13458,0 -1.74401,-0.55108 -0.60943,-0.557564 -0.60943,-1.419843 0,-0.505698 0.22692,-0.920629 0.2334,-0.421415 0.60295,-0.674263 0.37603,-0.252849 0.84283,-0.382515 0.34361,-0.09077 1.03732,-0.175049 1.41336,-0.168566 2.08114,-0.401965 0.006,-0.239882 0.006,-0.304715 0,-0.713163 -0.33065,-1.004911 -0.44735,-0.395482 -1.32908,-0.395482 -0.82338,0 -1.21886,0.291749 -0.389,0.285265 -0.57701,1.017878 l -1.14106,-0.155599 q 0.1556,-0.732613 0.51218,-1.179961 0.35658,-0.453831 1.03084,-0.693713 0.67426,-0.246366 1.56248,-0.246366 0.88173,0 1.43281,0.207466 0.55108,0.207466 0.81041,0.525147 0.25933,0.311199 0.36306,0.790963 0.0584,0.298232 0.0584,1.076228 v 1.555992 q 0,1.627309 0.0713,2.06169 0.0778,0.427898 0.29823,0.823379 h -1.21886 q -0.18153,-0.363065 -0.2334,-0.849313 z m -0.0972,-2.606286 q -0.63536,0.259332 -1.90609,0.440864 -0.71964,0.103733 -1.01788,0.233399 -0.29823,0.129666 -0.46031,0.382515 -0.16208,0.246365 -0.16208,0.55108 0,0.466798 0.3501,0.777996 0.35658,0.311199 1.03732,0.311199 0.67427,0 1.19941,-0.291749 0.52515,-0.298232 0.77152,-0.810412 0.18801,-0.395482 0.18801,-1.166995 z m 2.52201,1.400393 1.15402,-0.181533 q 0.0973,0.693713 0.53812,1.063261 0.44735,0.369549 1.24479,0.369549 0.80393,0 1.19293,-0.324165 0.389,-0.330649 0.389,-0.771513 0,-0.395482 -0.34362,-0.622397 -0.23988,-0.155599 -1.19292,-0.395481 -1.2837,-0.324165 -1.78291,-0.557564 -0.49273,-0.239882 -0.75207,-0.654814 -0.25284,-0.421414 -0.25284,-0.927112 0,-0.460314 0.20746,-0.849312 0.21395,-0.395481 0.57702,-0.654813 0.27229,-0.200983 0.73909,-0.337132 0.47328,-0.142633 1.0114,-0.142633 0.81041,0 1.41984,0.233399 0.61591,0.233399 0.90766,0.635364 0.29175,0.395481 0.40197,1.063261 l -1.14106,0.155599 q -0.0778,-0.53163 -0.45384,-0.829862 -0.36954,-0.298232 -1.05029,-0.298232 -0.80393,0 -1.14754,0.265815 -0.34362,0.265816 -0.34362,0.622397 0,0.226916 0.14263,0.408448 0.14264,0.188016 0.44735,0.311198 0.17505,0.06483 1.03085,0.298232 1.23831,0.330649 1.72455,0.544598 0.49273,0.207465 0.77152,0.60943 0.27878,0.401964 0.27878,0.998428 0,0.583497 -0.34362,1.102161 -0.33713,0.512181 -0.97898,0.797446 -0.64184,0.278782 -1.45225,0.278782 -1.34205,0 -2.04873,-0.557564 -0.70019,-0.557564 -0.89469,-1.653241 z m 11.81905,-0.162083 1.2059,0.149116 q -0.28527,1.056778 -1.05678,1.640275 -0.77151,0.583497 -1.97092,0.583497 -1.51061,0 -2.39882,-0.927112 -0.88173,-0.933595 -0.88173,-2.61277 0,-1.737525 0.89469,-2.697053 0.8947,-0.959529 2.32102,-0.959529 1.38095,0 2.25619,0.940079 0.87525,0.940079 0.87525,2.645187 0,0.103732 -0.006,0.311198 h -5.13478 q 0.0648,1.134578 0.64185,1.737525 0.57701,0.602947 1.43929,0.602947 0.64185,0 1.09568,-0.337132 0.45383,-0.337132 0.71964,-1.076228 z m -3.83163,-1.88664 h 3.8446 q -0.0778,-0.868763 -0.44086,-1.303144 -0.55757,-0.674263 -1.44578,-0.674263 -0.80393,0 -1.35501,0.538114 -0.5446,0.538114 -0.60295,1.439293 z m 6.6778,4.103929 v -9.504519 h 6.8723 v 1.121611 h -5.61454 v 2.911002 h 5.25796 v 1.115128 h -5.25796 v 3.235167 h 5.83497 v 1.121611 z m 8.68114,0 v -6.885265 h 1.0503 v 0.978978 q 0.75854,-1.134578 2.19135,-1.134578 0.6224,0 1.14106,0.226916 0.52515,0.220432 0.78448,0.583497 0.25933,0.363065 0.36307,0.862279 0.0648,0.324165 0.0648,1.134578 v 4.233595 h -1.16699 v -4.188212 q 0,-0.713163 -0.13615,-1.063262 -0.13615,-0.356581 -0.48625,-0.564047 -0.34362,-0.213949 -0.81041,-0.213949 -0.74558,0 -1.29018,0.473281 -0.53812,0.473281 -0.53812,1.795874 v 3.760315 z m 11.85148,0 v -0.868762 q -0.65482,1.024361 -1.92554,1.024361 -0.82338,0 -1.51709,-0.453831 -0.68723,-0.453831 -1.06975,-1.264244 -0.37603,-0.816895 -0.37603,-1.873673 0,-1.030845 0.34361,-1.867191 0.34362,-0.842829 1.03085,-1.290177 0.68723,-0.447348 1.53654,-0.447348 0.6224,0 1.10865,0.265816 0.48624,0.259332 0.79096,0.680746 v -3.410216 h 1.16051 v 9.504519 z m -3.689,-3.436149 q 0,1.322593 0.55756,1.977406 0.55757,0.654814 1.31611,0.654814 0.76503,0 1.29666,-0.622397 0.53812,-0.62888 0.53812,-1.912574 0,-1.413359 -0.5446,-2.074656 -0.5446,-0.661297 -1.34204,-0.661297 -0.778,0 -1.30315,0.635364 -0.51866,0.635363 -0.51866,2.00334 z m 11.31984,1.21886 1.20589,0.149116 q -0.28526,1.056778 -1.05677,1.640275 -0.77152,0.583497 -1.97093,0.583497 -1.51061,0 -2.39882,-0.927112 -0.88173,-0.933595 -0.88173,-2.61277 0,-1.737525 0.8947,-2.697053 0.89469,-0.959529 2.32102,-0.959529 1.38094,0 2.25619,0.940079 0.87524,0.940079 0.87524,2.645187 0,0.103732 -0.006,0.311198 h -5.13477 q 0.0648,1.134578 0.64184,1.737525 0.57702,0.602947 1.4393,0.602947 0.64184,0 1.09567,-0.337132 0.45383,-0.337132 0.71965,-1.076228 z m -3.83163,-1.88664 h 3.8446 q -0.0778,-0.868763 -0.44087,-1.303144 -0.55756,-0.674263 -1.44577,-0.674263 -0.80393,0 -1.35501,0.538114 -0.5446,0.538114 -0.60295,1.439293 z m 10.96975,4.103929 v -0.868762 q -0.65482,1.024361 -1.92554,1.024361 -0.82338,0 -1.5171,-0.453831 -0.68723,-0.453831 -1.06974,-1.264244 -0.37603,-0.816895 -0.37603,-1.873673 0,-1.030845 0.34361,-1.867191 0.34362,-0.842829 1.03085,-1.290177 0.68723,-0.447348 1.53654,-0.447348 0.6224,0 1.10864,0.265816 0.48625,0.259332 0.79097,0.680746 v -3.410216 h 1.16051 v 9.504519 z m -3.689,-3.436149 q 0,1.322593 0.55756,1.977406 0.55757,0.654814 1.31611,0.654814 0.76503,0 1.29666,-0.622397 0.53812,-0.62888 0.53812,-1.912574 0,-1.413359 -0.5446,-2.074656 -0.5446,-0.661297 -1.34204,-0.661297 -0.778,0 -1.30315,0.635364 -0.51866,0.635363 -0.51866,2.00334 z m 8.83673,6.230451 q -0.96601,-1.21886 -1.63379,-2.852652 -0.66778,-1.633792 -0.66778,-3.384283 0,-1.543025 0.49922,-2.956385 0.58349,-1.640275 1.80235,-3.267583 h 0.83635 q -0.78448,1.348526 -1.03733,1.92554 -0.39548,0.894695 -0.62239,1.867191 -0.27879,1.212377 -0.27879,2.437721 0,3.118467 1.93851,6.230451 z m 2.95639,0 h -0.83634 q 1.93851,-3.111984 1.93851,-6.230451 0,-1.218861 -0.27879,-2.418272 -0.22043,-0.972495 -0.61591,-1.86719 -0.25285,-0.583497 -1.04381,-1.94499 h 0.83634 q 1.21886,1.627308 1.80236,3.267583 0.49922,1.41336 0.49922,2.956385 0,1.750491 -0.67427,3.384283 -0.66778,1.633792 -1.62731,2.852652 z"
       id="flowRoot3174"
       transform="matrix(1.6568991,0,0,1.6568991,-90.393734,349.3593)"
       aria-label="phaseEnded()" />
    <rect
       style="fill:#ad7fa8;stroke:#5c3566;stroke-width:1;stroke-linecap:round;stroke-linejoin:round;stroke-miterlimit:4;stroke-dasharray:none;display:inline"
       id="rect3324"
       width="679"
       height="29"
       x="60.499996"
       y="510.5"
       rx="4.9999986"
       ry="5" />
    <path
       style="font-size:13.2778px;line-height:1.25;font-family:'Liberation Sans';-inkscape-font-specification:'Liberation Sans, Normal'"
       d="m 194.3935,84.770584 v -9.504519 h 3.58527 q 0.94656,0 1.44577,0.09077 0.7002,0.1167 1.17348,0.447348 0.47328,0.324165 0.75855,0.914145 0.29175,0.589981 0.29175,1.29666 0,1.212378 -0.77152,2.055207 -0.77151,0.836345 -2.78782,0.836345 h -2.43772 v 3.864048 z m 1.25776,-4.985659 h 2.45717 q 1.21886,0 1.73104,-0.453831 0.51219,-0.453831 0.51219,-1.27721 0,-0.596463 -0.30472,-1.017878 -0.29823,-0.427898 -0.79096,-0.564047 -0.31768,-0.08428 -1.17348,-0.08428 h -2.43124 z m 7.44931,4.985659 v -9.504519 h 1.167 v 3.410216 q 0.81689,-0.946562 2.06169,-0.946562 0.76503,0 1.32908,0.304715 0.56404,0.298232 0.80392,0.829863 0.24637,0.53163 0.24637,1.543025 v 4.363262 h -1.16699 v -4.363262 q 0,-0.875245 -0.38252,-1.270727 -0.37603,-0.401964 -1.06974,-0.401964 -0.51867,0 -0.97898,0.272298 -0.45383,0.265816 -0.64833,0.72613 -0.1945,0.460314 -0.1945,1.270727 v 3.766798 z m 11.87741,-0.849313 q -0.64833,0.551081 -1.25127,0.777996 -0.59647,0.226916 -1.2837,0.226916 -1.13458,0 -1.74401,-0.551081 -0.60943,-0.557564 -0.60943,-1.419843 0,-0.505697 0.22692,-0.920628 0.2334,-0.421415 0.60295,-0.674264 0.37603,-0.252848 0.84283,-0.382514 0.34361,-0.09077 1.03732,-0.175049 1.41336,-0.168566 2.08114,-0.401965 0.006,-0.239882 0.006,-0.304715 0,-0.713163 -0.33065,-1.004912 -0.44735,-0.395481 -1.32908,-0.395481 -0.82338,0 -1.21886,0.291748 -0.389,0.285266 -0.57701,1.017879 l -1.14106,-0.1556 q 0.1556,-0.732613 0.51218,-1.17996 0.35658,-0.453831 1.03084,-0.693713 0.67427,-0.246366 1.56248,-0.246366 0.88173,0 1.43281,0.207466 0.55108,0.207465 0.81041,0.525147 0.25933,0.311199 0.36306,0.790963 0.0583,0.298232 0.0583,1.076228 v 1.555992 q 0,1.627308 0.0713,2.061689 0.0778,0.427898 0.29823,0.82338 h -1.21886 q -0.18153,-0.363065 -0.2334,-0.849313 z m -0.0973,-2.606287 q -0.63536,0.259332 -1.90609,0.440865 -0.71964,0.103733 -1.01788,0.233399 -0.29823,0.129666 -0.46031,0.382514 -0.16208,0.246366 -0.16208,0.551081 0,0.466798 0.3501,0.777996 0.35658,0.311198 1.03732,0.311198 0.67427,0 1.19941,-0.291748 0.52515,-0.298232 0.77152,-0.810413 0.18801,-0.395481 0.18801,-1.166994 z m 2.52201,1.400393 1.15402,-0.181532 q 0.0973,0.693713 0.53812,1.063261 0.44735,0.369548 1.24479,0.369548 0.80393,0 1.19293,-0.324165 0.389,-0.330648 0.389,-0.771512 0,-0.395482 -0.34362,-0.622397 -0.23988,-0.1556 -1.19292,-0.395482 -1.2837,-0.324165 -1.78291,-0.557564 -0.49273,-0.239882 -0.75206,-0.654813 -0.25285,-0.421414 -0.25285,-0.927112 0,-0.460314 0.20746,-0.849312 0.21395,-0.395482 0.57702,-0.654814 0.27229,-0.200982 0.73909,-0.337131 0.47328,-0.142633 1.0114,-0.142633 0.81041,0 1.41984,0.233399 0.61591,0.233399 0.90766,0.635363 0.29175,0.395482 0.40197,1.063262 l -1.14106,0.155599 q -0.0778,-0.531631 -0.45384,-0.829863 -0.36954,-0.298231 -1.05029,-0.298231 -0.80393,0 -1.14754,0.265815 -0.34362,0.265815 -0.34362,0.622397 0,0.226915 0.14263,0.408448 0.14264,0.188015 0.44735,0.311198 0.17505,0.06483 1.03085,0.298232 1.23831,0.330648 1.72455,0.544597 0.49273,0.207466 0.77152,0.609431 0.27878,0.401964 0.27878,0.998428 0,0.583497 -0.34362,1.102161 -0.33713,0.512181 -0.97897,0.797446 -0.64185,0.278782 -1.45226,0.278782 -1.34205,0 -2.04873,-0.557564 -0.70019,-0.557564 -0.89469,-1.653242 z m 11.81905,-0.162082 1.2059,0.149116 q -0.28527,1.056778 -1.05678,1.640275 -0.77151,0.583497 -1.97092,0.583497 -1.51061,0 -2.39883,-0.927112 -0.88172,-0.933595 -0.88172,-2.61277 0,-1.737525 0.89469,-2.697053 0.8947,-0.959529 2.32102,-0.959529 1.38095,0 2.25619,0.940079 0.87525,0.940078 0.87525,2.645186 0,0.103733 -0.006,0.311199 h -5.13477 q 0.0648,1.134577 0.64185,1.737524 0.57701,0.602947 1.43929,0.602947 0.64185,0 1.09568,-0.337131 0.45383,-0.337132 0.71964,-1.076228 z m -3.83163,-1.886641 h 3.8446 q -0.0778,-0.868762 -0.44086,-1.303143 -0.55757,-0.674263 -1.44578,-0.674263 -0.80393,0 -1.35501,0.538114 -0.5446,0.538114 -0.60295,1.439292 z m 10.5224,4.10393 v -1.329077 h 1.32908 v 1.329077 z m 3.689,0 v -1.329077 h 1.32907 v 1.329077 z m 3.689,0 v -1.329077 h 1.32907 v 1.329077 z"
       id="flowRoot3326"
       transform="matrix(1.6568991,0,0,1.6568991,-250.39443,389.35889)"
       aria-label="Phase ..." />
    <path
       style="font-size:13.2778px;line-height:1.25;font-family:'Liberation Sans';-inkscape-font-specification:'Liberation Sans, Normal';text-align:center;text-anchor:middle;fill:#555753"
       d="m 291.6431,72.700271 v -1.329077 h 1.32908 v 1.329077 z m 3.689,0 v -1.329077 h 1.32907 v 1.329077 z m 3.689,0 v -1.329077 h 1.32907 v 1.329077 z"
       id="flowRoot3334"
       transform="matrix(1.6568991,0,0,1.6568991,-90.393734,409.35882)"
       aria-label="..." />
  </g>
</svg>
