<?xml version="1.0" encoding="UTF-8" standalone="no"?>
<!-- Created with Inkscape (http://www.inkscape.org/) -->

<svg
   width="800"
   height="600"
   id="svg2"
   version="1.1"
   xmlns="http://www.w3.org/2000/svg"
   xmlns:svg="http://www.w3.org/2000/svg"
   xmlns:rdf="http://www.w3.org/1999/02/22-rdf-syntax-ns#"
   xmlns:cc="http://creativecommons.org/ns#"
   xmlns:dc="http://purl.org/dc/elements/1.1/">
  <defs
     id="defs4" />
  <metadata
     id="metadata7">
    <rdf:RDF>
      <cc:Work
         rdf:about="">
        <dc:format>image/svg+xml</dc:format>
        <dc:type
           rdf:resource="http://purl.org/dc/dcmitype/StillImage" />
        <dc:language>en</dc:language>
        <cc:license
           rdf:resource="https://timefold.ai/license" />
      </cc:Work>
    </rdf:RDF>
  </metadata>
  <g
     id="layer1"
     transform="translate(0,-452.36218)">
    <path
       style="font-size:36px;line-height:1.25;font-family:'Liberation Sans';-inkscape-font-specification:'Liberation Sans, Normal';text-align:center;text-anchor:middle"
       d="m 319.56738,244.14786 3.2168,-0.28125 q 0.22852,1.9336 1.05469,3.18164 0.84375,1.23047 2.60156,2.00391 1.75781,0.75586 3.95508,0.75586 1.95117,0 3.44531,-0.58008 1.49414,-0.58008 2.21484,-1.58203 0.73829,-1.01953 0.73829,-2.21484 0,-1.2129 -0.70313,-2.10938 -0.70312,-0.91406 -2.32031,-1.5293 -1.03711,-0.40429 -4.58789,-1.24804 -3.55078,-0.86133 -4.97461,-1.61719 -1.84571,-0.9668 -2.75977,-2.39063 -0.89648,-1.4414 -0.89648,-3.21679 0,-1.95117 1.10742,-3.63867 1.10742,-1.70508 3.23437,-2.58399 2.12696,-0.87891 4.72852,-0.87891 2.86523,0 5.04492,0.93165 2.19727,0.91406 3.375,2.70703 1.17774,1.79297 1.26563,4.06054 l -3.26953,0.2461 q -0.26368,-2.44336 -1.79297,-3.69141 -1.51172,-1.24805 -4.48242,-1.24805 -3.09375,0 -4.51758,1.14258 -1.40625,1.125 -1.40625,2.72461 0,1.38867 1.00195,2.28516 0.98438,0.89648 5.13281,1.8457 4.16602,0.93164 5.71289,1.63477 2.25,1.03711 3.32227,2.63672 1.07226,1.58203 1.07226,3.65625 0,2.05664 -1.17773,3.88476 -1.17773,1.81055 -3.39258,2.83008 -2.19726,1.00195 -4.95703,1.00195 -3.49805,0 -5.87109,-1.01953 -2.35547,-1.01953 -3.70899,-3.05859 -1.33593,-2.05664 -1.40625,-4.64063 z m 37.54688,2.26758 3.26953,0.4043 q -0.77344,2.86523 -2.86524,4.44726 -2.09179,1.58203 -5.34375,1.58203 -4.0957,0 -6.5039,-2.51367 -2.39063,-2.53125 -2.39063,-7.08398 0,-4.71094 2.42578,-7.3125 2.42579,-2.60156 6.29297,-2.60156 3.74414,0 6.11719,2.54882 2.37305,2.54883 2.37305,7.17188 0,0.28125 -0.0176,0.84375 H 346.5498 q 0.17579,3.07617 1.74024,4.71094 1.56445,1.63476 3.90234,1.63476 1.74024,0 2.97071,-0.91406 1.23046,-0.91406 1.95117,-2.91797 z m -10.38867,-5.11523 h 10.42382 q -0.21093,-2.35547 -1.19531,-3.53321 -1.51172,-1.82812 -3.91992,-1.82812 -2.17969,0 -3.67383,1.45898 -1.47656,1.45899 -1.63476,3.90235 z m 17.56054,11.12695 v -25.76953 h 3.16407 v 25.76953 z m 20.84766,-6.01172 3.26953,0.4043 q -0.77344,2.86523 -2.86523,4.44726 -2.0918,1.58203 -5.34375,1.58203 -4.09571,0 -6.50391,-2.51367 -2.39063,-2.53125 -2.39063,-7.08398 0,-4.71094 2.42579,-7.3125 2.42578,-2.60156 6.29296,-2.60156 3.74415,0 6.11719,2.54882 2.37305,2.54883 2.37305,7.17188 0,0.28125 -0.0176,0.84375 h -13.92187 q 0.17578,3.07617 1.74023,4.71094 1.56445,1.63476 3.90234,1.63476 1.74024,0 2.97071,-0.91406 1.23047,-0.91406 1.95117,-2.91797 z m -10.38867,-5.11523 h 10.42383 q -0.21094,-2.35547 -1.19532,-3.53321 -1.51172,-1.82812 -3.91992,-1.82812 -2.17969,0 -3.67383,1.45898 -1.47656,1.45899 -1.63476,3.90235 z m 29.8125,4.28906 3.11133,0.4043 q -0.50977,3.21679 -2.61915,5.04492 -2.09179,1.81054 -5.15039,1.81054 -3.83203,0 -6.16992,-2.49609 -2.32031,-2.51367 -2.32031,-7.18945 0,-3.02344 1.00195,-5.29102 1.00196,-2.26758 3.04102,-3.39258 2.05664,-1.14257 4.46484,-1.14257 3.04102,0 4.97461,1.54687 1.9336,1.5293 2.47852,4.35938 l -3.07617,0.4746 q -0.43946,-1.88085 -1.56446,-2.83007 -1.10742,-0.94922 -2.68945,-0.94922 -2.39063,0 -3.88477,1.72265 -1.49414,1.70508 -1.49414,5.41407 0,3.76172 1.44141,5.46679 1.44141,1.70508 3.76172,1.70508 1.86328,0 3.11133,-1.14258 1.24804,-1.14257 1.58203,-3.51562 z m 12.72656,4.00781 0.45703,2.79492 q -1.33594,0.28125 -2.39062,0.28125 -1.72266,0 -2.67188,-0.54492 -0.94922,-0.54492 -1.33594,-1.42383 -0.38672,-0.89648 -0.38672,-3.74414 v -10.74023 h -2.32031 v -2.46094 h 2.32031 v -4.62305 l 3.14649,-1.89843 v 6.52148 h 3.18164 v 2.46094 h -3.18164 v 10.91601 q 0,1.35352 0.1582,1.74024 0.17578,0.38672 0.54492,0.61523 0.38672,0.22852 1.08985,0.22852 0.52734,0 1.38867,-0.12305 z m 1.91602,-6.50391 q 0,-5.18554 2.88281,-7.68164 2.4082,-2.07421 5.87109,-2.07421 3.84961,0 6.29297,2.53125 2.44336,2.51367 2.44336,6.96093 0,3.60352 -1.08984,5.67774 -1.07227,2.05664 -3.14649,3.19922 -2.05664,1.14257 -4.5,1.14257 -3.91992,0 -6.3457,-2.51367 -2.4082,-2.51367 -2.4082,-7.24219 z m 3.25195,0 q 0,3.58594 1.56445,5.37891 1.56445,1.77539 3.9375,1.77539 2.35547,0 3.91992,-1.79297 1.56446,-1.79297 1.56446,-5.46679 0,-3.46289 -1.58203,-5.23829 -1.56446,-1.79296 -3.90235,-1.79296 -2.37305,0 -3.9375,1.77539 -1.56445,1.77539 -1.56445,5.36132 z m 17.91211,9.33399 v -18.66797 h 2.84765 v 2.83008 q 1.08985,-1.98633 2.00391,-2.61914 0.93164,-0.63281 2.03906,-0.63281 1.59961,0 3.25196,1.01953 l -1.08985,2.93554 q -1.16015,-0.68554 -2.32031,-0.68554 -1.03711,0 -1.86328,0.63281 -0.82617,0.61523 -1.17774,1.72266 -0.52734,1.6875 -0.52734,3.6914 v 9.77344 z m 28.93359,-2.83008 0.45703,2.79492 q -1.33593,0.28125 -2.39062,0.28125 -1.72266,0 -2.67188,-0.54492 -0.94922,-0.54492 -1.33593,-1.42383 -0.38672,-0.89648 -0.38672,-3.74414 v -10.74023 h -2.32032 v -2.46094 h 2.32032 v -4.62305 l 3.14648,-1.89843 v 6.52148 h 3.18164 v 2.46094 h -3.18164 v 10.91601 q 0,1.35352 0.1582,1.74024 0.17579,0.38672 0.54493,0.61523 0.38671,0.22852 1.08984,0.22852 0.52734,0 1.38867,-0.12305 z m 3.0586,2.83008 v -18.66797 h 2.84765 v 2.83008 q 1.08985,-1.98633 2.00391,-2.61914 0.93164,-0.63281 2.03906,-0.63281 1.59961,0 3.25195,1.01953 l -1.08984,2.93554 q -1.16016,-0.68554 -2.32031,-0.68554 -1.03711,0 -1.86328,0.63281 -0.82618,0.61523 -1.17774,1.72266 -0.52734,1.6875 -0.52734,3.6914 v 9.77344 z m 24.80273,-6.01172 3.26953,0.4043 q -0.77344,2.86523 -2.86523,4.44726 -2.0918,1.58203 -5.34375,1.58203 -4.09571,0 -6.50391,-2.51367 -2.39062,-2.53125 -2.39062,-7.08398 0,-4.71094 2.42578,-7.3125 2.42578,-2.60156 6.29297,-2.60156 3.74414,0 6.11718,2.54882 2.37305,2.54883 2.37305,7.17188 0,0.28125 -0.0176,0.84375 h -13.92187 q 0.17578,3.07617 1.74023,4.71094 1.56445,1.63476 3.90234,1.63476 1.74024,0 2.97071,-0.91406 1.23047,-0.91406 1.95117,-2.91797 z m -10.38867,-5.11523 h 10.42383 q -0.21094,-2.35547 -1.19532,-3.53321 -1.51172,-1.82812 -3.91992,-1.82812 -2.17969,0 -3.67383,1.45898 -1.47656,1.45899 -1.63476,3.90235 z m 30.41015,5.11523 3.26954,0.4043 q -0.77344,2.86523 -2.86524,4.44726 -2.0918,1.58203 -5.34375,1.58203 -4.0957,0 -6.50391,-2.51367 -2.39062,-2.53125 -2.39062,-7.08398 0,-4.71094 2.42578,-7.3125 2.42578,-2.60156 6.29297,-2.60156 3.74414,0 6.11719,2.54882 2.37304,2.54883 2.37304,7.17188 0,0.28125 -0.0176,0.84375 h -13.92188 q 0.17578,3.07617 1.74024,4.71094 1.56445,1.63476 3.90234,1.63476 1.74023,0 2.9707,-0.91406 1.23047,-0.91406 1.95117,-2.91797 z m -10.38867,-5.11523 h 10.42383 q -0.21094,-2.35547 -1.19531,-3.53321 -1.51172,-1.82812 -3.91992,-1.82812 -2.17969,0 -3.67383,1.45898 -1.47656,1.45899 -1.63477,3.90235 z"
       id="flowRoot4302"
       transform="translate(-20,262.36198)"
       aria-label="Selector tree" />
    <path
       style="font-size:14px;line-height:1.25;font-family:'Liberation Sans';-inkscape-font-specification:'Liberation Sans, Normal';text-align:center;text-anchor:middle"
       d="m 105.33154,162.61056 3.84864,-10.02148 h 1.42871 l 4.10156,10.02148 h -1.51074 l -1.16895,-3.03515 h -4.19043 l -1.10058,3.03515 z m 2.8916,-4.11523 h 3.39747 l -1.0459,-2.77539 q -0.47852,-1.26465 -0.71094,-2.07813 -0.19141,0.96387 -0.54004,1.91406 z m 10.62305,4.11523 v -10.02148 h 1.9961 l 2.37207,7.0957 q 0.32812,0.99121 0.47851,1.4834 0.1709,-0.54688 0.5332,-1.60645 l 2.39942,-6.97265 h 1.78418 v 10.02148 h -1.27832 v -8.38769 l -2.91211,8.38769 h -1.19629 l -2.89844,-8.53125 v 8.53125 z m 11.08789,-3.62988 q 0,-2.0166 1.1211,-2.98731 0.93652,-0.80664 2.2832,-0.80664 1.49707,0 2.44726,0.98438 0.9502,0.97754 0.9502,2.70703 0,1.40137 -0.42383,2.20801 -0.41699,0.7998 -1.22363,1.24414 -0.79981,0.44433 -1.75,0.44433 -1.52442,0 -2.46777,-0.97753 -0.93653,-0.97754 -0.93653,-2.81641 z m 1.26465,0 q 0,1.39453 0.6084,2.0918 0.6084,0.69043 1.53125,0.69043 0.91601,0 1.52441,-0.69727 0.6084,-0.69727 0.6084,-2.12598 0,-1.34668 -0.61523,-2.03711 -0.6084,-0.69726 -1.51758,-0.69726 -0.92285,0 -1.53125,0.69043 -0.6084,0.69043 -0.6084,2.08496 z m 8.99609,3.62988 -2.76171,-7.25976 h 1.29882 l 1.5586,4.34765 q 0.25293,0.7041 0.46484,1.46289 0.16406,-0.57422 0.45801,-1.38086 l 1.61328,-4.42968 h 1.26465 l -2.74805,7.25976 z m 9.95313,-2.33789 1.27148,0.15723 q -0.30078,1.11426 -1.11425,1.72949 -0.81348,0.61523 -2.07813,0.61523 -1.59277,0 -2.5293,-0.97753 -0.92968,-0.98438 -0.92968,-2.75489 0,-1.83203 0.94336,-2.84375 0.94336,-1.01172 2.44726,-1.01172 1.45606,0 2.37891,0.99121 0.92285,0.99122 0.92285,2.78907 0,0.10937 -0.007,0.32812 h -5.41406 q 0.0684,1.19629 0.67676,1.83203 0.6084,0.63575 1.51758,0.63575 0.67675,0 1.15527,-0.35547 0.47852,-0.35547 0.75879,-1.13477 z m -4.04004,-1.98926 h 4.05371 q -0.082,-0.91601 -0.46484,-1.37402 -0.58789,-0.71094 -1.52442,-0.71094 -0.84765,0 -1.42871,0.56739 -0.57422,0.56738 -0.63574,1.51757 z m 6.5625,1.10743 1.25098,-0.10938 q 0.0889,0.75195 0.41015,1.23731 0.32813,0.47851 1.01172,0.77929 0.6836,0.29395 1.53809,0.29395 0.75879,0 1.33984,-0.22559 0.58106,-0.22558 0.86133,-0.61523 0.28711,-0.39649 0.28711,-0.86133 0,-0.47168 -0.27344,-0.82031 -0.27344,-0.35547 -0.90234,-0.59473 -0.40332,-0.15723 -1.78418,-0.48535 -1.38086,-0.33496 -1.93457,-0.62891 -0.71778,-0.37597 -1.07324,-0.92969 -0.34864,-0.56054 -0.34864,-1.25097 0,-0.75879 0.43067,-1.41504 0.43066,-0.66309 1.25781,-1.00488 0.82715,-0.3418 1.83887,-0.3418 1.11425,0 1.96191,0.3623 0.85449,0.35547 1.3125,1.05274 0.45801,0.69726 0.49219,1.5791 l -1.27149,0.0957 q -0.10254,-0.95019 -0.69726,-1.43554 -0.58789,-0.48536 -1.74317,-0.48536 -1.20312,0 -1.75683,0.44434 -0.54688,0.4375 -0.54688,1.05957 0,0.54004 0.38965,0.88867 0.38281,0.34864 1.9961,0.71778 1.62011,0.3623 2.22167,0.63574 0.875,0.40332 1.292,1.02539 0.41699,0.61523 0.41699,1.42187 0,0.79981 -0.45801,1.51075 -0.45801,0.7041 -1.31933,1.10058 -0.8545,0.38965 -1.92774,0.38965 -1.36035,0 -2.2832,-0.39648 -0.91602,-0.39649 -1.44238,-1.18946 -0.51954,-0.7998 -0.54688,-1.80468 z m 14.60156,0.88183 1.27149,0.15723 q -0.30078,1.11426 -1.11426,1.72949 -0.81348,0.61523 -2.07813,0.61523 -1.59277,0 -2.52929,-0.97753 -0.92969,-0.98438 -0.92969,-2.75489 0,-1.83203 0.94336,-2.84375 0.94336,-1.01172 2.44726,-1.01172 1.45606,0 2.37891,0.99121 0.92285,0.99122 0.92285,2.78907 0,0.10937 -0.007,0.32812 h -5.41407 q 0.0684,1.19629 0.67676,1.83203 0.6084,0.63575 1.51758,0.63575 0.67676,0 1.15527,-0.35547 0.47852,-0.35547 0.75879,-1.13477 z m -4.04004,-1.98926 h 4.05371 q -0.082,-0.91601 -0.46484,-1.37402 -0.58789,-0.71094 -1.52441,-0.71094 -0.84766,0 -1.42871,0.56739 -0.57422,0.56738 -0.63575,1.51757 z m 6.82911,4.32715 v -10.02148 h 1.23046 v 10.02148 z m 8.10742,-2.33789 1.27148,0.15723 q -0.30078,1.11426 -1.11426,1.72949 -0.81347,0.61523 -2.07812,0.61523 -1.59277,0 -2.5293,-0.97753 -0.92969,-0.98438 -0.92969,-2.75489 0,-1.83203 0.94336,-2.84375 0.94336,-1.01172 2.44727,-1.01172 1.45605,0 2.37891,0.99121 0.92285,0.99122 0.92285,2.78907 0,0.10937 -0.007,0.32812 h -5.41406 q 0.0684,1.19629 0.67676,1.83203 0.60839,0.63575 1.51757,0.63575 0.67676,0 1.15528,-0.35547 0.47851,-0.35547 0.75879,-1.13477 z m -4.04004,-1.98926 h 4.05371 q -0.082,-0.91601 -0.46484,-1.37402 -0.5879,-0.71094 -1.52442,-0.71094 -0.84766,0 -1.42871,0.56739 -0.57422,0.56738 -0.63574,1.51757 z m 11.59375,1.66797 1.20996,0.15723 q -0.19824,1.25098 -1.01856,1.96191 -0.81347,0.7041 -2.00293,0.7041 -1.49023,0 -2.39941,-0.9707 -0.90234,-0.97754 -0.90234,-2.7959 0,-1.17578 0.38965,-2.05761 0.38964,-0.88184 1.18261,-1.31934 0.79981,-0.44434 1.73633,-0.44434 1.18262,0 1.93457,0.60157 0.75195,0.59472 0.96387,1.69531 l -1.19629,0.18457 q -0.1709,-0.73145 -0.6084,-1.10059 -0.43066,-0.36914 -1.0459,-0.36914 -0.92969,0 -1.51074,0.66992 -0.58105,0.66309 -0.58105,2.10547 0,1.46289 0.56054,2.12598 0.56055,0.66309 1.46289,0.66309 0.72461,0 1.20996,-0.44434 0.48536,-0.44434 0.61524,-1.36719 z m 4.94922,1.5586 0.17773,1.08691 q -0.51953,0.10938 -0.92969,0.10938 -0.66992,0 -1.03906,-0.21192 -0.36914,-0.21191 -0.51953,-0.55371 -0.15039,-0.34863 -0.15039,-1.45605 v -4.17676 h -0.90234 v -0.95703 h 0.90234 v -1.79786 l 1.22363,-0.73828 v 2.53614 h 1.23731 v 0.95703 h -1.23731 v 4.24511 q 0,0.52637 0.0615,0.67676 0.0684,0.15039 0.21191,0.23926 0.15039,0.0889 0.42383,0.0889 0.20508,0 0.54004,-0.0478 z m 0.74511,-2.5293 q 0,-2.0166 1.1211,-2.98731 0.93652,-0.80664 2.2832,-0.80664 1.49707,0 2.44727,0.98438 0.95019,0.97754 0.95019,2.70703 0,1.40137 -0.42383,2.20801 -0.41699,0.7998 -1.22363,1.24414 -0.7998,0.44433 -1.75,0.44433 -1.52441,0 -2.46777,-0.97753 -0.93653,-0.97754 -0.93653,-2.81641 z m 1.26465,0 q 0,1.39453 0.6084,2.0918 0.6084,0.69043 1.53125,0.69043 0.91602,0 1.52441,-0.69727 0.6084,-0.69727 0.6084,-2.12598 0,-1.34668 -0.61523,-2.03711 -0.6084,-0.69726 -1.51758,-0.69726 -0.92285,0 -1.53125,0.69043 -0.6084,0.69043 -0.6084,2.08496 z m 6.96582,3.62988 v -7.25976 h 1.10742 v 1.10058 q 0.42383,-0.77246 0.7793,-1.01855 0.36231,-0.2461 0.79297,-0.2461 0.62207,0 1.26465,0.39649 l -0.42383,1.1416 q -0.45117,-0.2666 -0.90234,-0.2666 -0.40332,0 -0.72461,0.24609 -0.32129,0.23926 -0.45801,0.66992 -0.20508,0.65625 -0.20508,1.43555 v 3.80078 z m 13.30274,-2.65918 1.20996,0.15723 q -0.19824,1.25098 -1.01856,1.96191 -0.81347,0.7041 -2.00293,0.7041 -1.49023,0 -2.39941,-0.9707 -0.90234,-0.97754 -0.90234,-2.7959 0,-1.17578 0.38964,-2.05761 0.38965,-0.88184 1.18262,-1.31934 0.79981,-0.44434 1.73633,-0.44434 1.18262,0 1.93457,0.60157 0.75195,0.59472 0.96387,1.69531 l -1.19629,0.18457 q -0.1709,-0.73145 -0.6084,-1.10059 -0.43066,-0.36914 -1.0459,-0.36914 -0.92969,0 -1.51074,0.66992 -0.58106,0.66309 -0.58106,2.10547 0,1.46289 0.56055,2.12598 0.56055,0.66309 1.46289,0.66309 0.72461,0 1.20996,-0.44434 0.48535,-0.44434 0.61524,-1.36719 z m 7,1.76367 q -0.6836,0.58106 -1.31934,0.82032 -0.62891,0.23925 -1.35351,0.23925 -1.19629,0 -1.83887,-0.58105 -0.64258,-0.58789 -0.64258,-1.49707 0,-0.5332 0.23926,-0.9707 0.24609,-0.44434 0.63574,-0.71094 0.39648,-0.2666 0.88867,-0.40332 0.36231,-0.0957 1.09375,-0.18457 1.49024,-0.17774 2.19434,-0.42383 0.007,-0.25293 0.007,-0.32129 0,-0.75195 -0.34863,-1.05957 -0.47168,-0.41699 -1.40137,-0.41699 -0.86816,0 -1.28515,0.30762 -0.41016,0.30078 -0.6084,1.07324 l -1.20313,-0.16406 q 0.16407,-0.77247 0.54004,-1.24415 0.37598,-0.47851 1.08692,-0.73144 0.71093,-0.25977 1.64746,-0.25977 0.92969,0 1.51074,0.21875 0.58106,0.21875 0.85449,0.55371 0.27344,0.32813 0.38282,0.83399 0.0615,0.31445 0.0615,1.13476 v 1.64063 q 0,1.71582 0.0752,2.17383 0.082,0.45117 0.31446,0.86816 h -1.28516 q -0.19141,-0.38281 -0.24609,-0.89551 z m -0.10254,-2.74804 q -0.66992,0.27343 -2.00977,0.46484 -0.75879,0.10938 -1.07324,0.24609 -0.31445,0.13672 -0.48535,0.40333 -0.1709,0.25976 -0.1709,0.58105 0,0.49219 0.36914,0.82031 0.37598,0.32813 1.09375,0.32813 0.71094,0 1.26465,-0.30762 0.55371,-0.31445 0.81348,-0.85449 0.19824,-0.41699 0.19824,-1.23047 z m 3.15137,3.64355 v -7.25976 h 1.10742 v 1.03222 q 0.7998,-1.19629 2.31054,-1.19629 0.65625,0 1.20313,0.23926 0.55371,0.23242 0.82715,0.61524 0.27343,0.38281 0.38281,0.90918 0.0684,0.34179 0.0684,1.19628 v 4.46387 h -1.23047 v -4.41601 q 0,-0.75196 -0.14355,-1.1211 -0.14356,-0.37597 -0.5127,-0.59472 -0.3623,-0.22559 -0.85449,-0.22559 -0.78613,0 -1.36035,0.49902 -0.56739,0.49903 -0.56739,1.89356 v 3.96484 z m 12.81054,0 h -1.1416 v -10.02148 h 1.23047 v 3.57519 q 0.7793,-0.97754 1.98926,-0.97754 0.66992,0 1.26465,0.27344 0.60156,0.2666 0.98437,0.75879 0.38965,0.48535 0.6084,1.17578 0.21875,0.69043 0.21875,1.47656 0,1.86622 -0.92285,2.88477 -0.92285,1.01855 -2.21485,1.01855 -1.28515,0 -2.0166,-1.07324 z m -0.0137,-3.68457 q 0,1.30567 0.35547,1.88672 0.58105,0.9502 1.57226,0.9502 0.80665,0 1.39454,-0.69727 0.58789,-0.7041 0.58789,-2.0918 0,-1.42187 -0.56739,-2.09863 -0.56054,-0.67676 -1.36035,-0.67676 -0.80664,0 -1.39453,0.7041 -0.58789,0.69727 -0.58789,2.02344 z m 11.63477,1.34668 1.27148,0.15723 q -0.30078,1.11426 -1.11426,1.72949 -0.81347,0.61523 -2.07812,0.61523 -1.59278,0 -2.5293,-0.97753 -0.92969,-0.98438 -0.92969,-2.75489 0,-1.83203 0.94336,-2.84375 0.94336,-1.01172 2.44727,-1.01172 1.45605,0 2.3789,0.99121 0.92286,0.99122 0.92286,2.78907 0,0.10937 -0.007,0.32812 h -5.41406 q 0.0684,1.19629 0.67676,1.83203 0.60839,0.63575 1.51757,0.63575 0.67676,0 1.15528,-0.35547 0.47851,-0.35547 0.75879,-1.13477 z m -4.04004,-1.98926 h 4.05371 q -0.082,-0.91601 -0.46485,-1.37402 -0.58789,-0.71094 -1.52441,-0.71094 -0.84766,0 -1.42871,0.56739 -0.57422,0.56738 -0.63574,1.51757 z m 15.4834,1.66797 1.20996,0.15723 q -0.19825,1.25098 -1.01856,1.96191 -0.81348,0.7041 -2.00293,0.7041 -1.49023,0 -2.39941,-0.9707 -0.90235,-0.97754 -0.90235,-2.7959 0,-1.17578 0.38965,-2.05761 0.38965,-0.88184 1.18262,-1.31934 0.7998,-0.44434 1.73633,-0.44434 1.18261,0 1.93457,0.60157 0.75195,0.59472 0.96387,1.69531 l -1.19629,0.18457 q -0.1709,-0.73145 -0.6084,-1.10059 -0.43067,-0.36914 -1.0459,-0.36914 -0.92969,0 -1.51074,0.66992 -0.58106,0.66309 -0.58106,2.10547 0,1.46289 0.56055,2.12598 0.56055,0.66309 1.46289,0.66309 0.72461,0 1.20996,-0.44434 0.48535,-0.44434 0.61524,-1.36719 z m 1.80468,-0.9707 q 0,-2.0166 1.1211,-2.98731 0.93652,-0.80664 2.2832,-0.80664 1.49707,0 2.44727,0.98438 0.95019,0.97754 0.95019,2.70703 0,1.40137 -0.42383,2.20801 -0.41699,0.7998 -1.22363,1.24414 -0.79981,0.44433 -1.75,0.44433 -1.52441,0 -2.46777,-0.97753 -0.93653,-0.97754 -0.93653,-2.81641 z m 1.26465,0 q 0,1.39453 0.6084,2.0918 0.6084,0.69043 1.53125,0.69043 0.91602,0 1.52441,-0.69727 0.6084,-0.69727 0.6084,-2.12598 0,-1.34668 -0.61523,-2.03711 -0.6084,-0.69726 -1.51758,-0.69726 -0.92285,0 -1.53125,0.69043 -0.6084,0.69043 -0.6084,2.08496 z m 6.97949,3.62988 v -7.25976 h 1.10059 v 1.01855 q 0.3418,-0.5332 0.90918,-0.85449 0.56738,-0.32813 1.29199,-0.32813 0.80664,0 1.31934,0.33496 0.51953,0.33497 0.73144,0.93653 0.86133,-1.27149 2.24219,-1.27149 1.08008,0 1.66113,0.60157 0.58106,0.59472 0.58106,1.83886 v 4.9834 h -1.22364 v -4.57324 q 0,-0.73828 -0.12304,-1.05957 -0.11621,-0.32813 -0.43067,-0.52637 -0.31445,-0.19824 -0.73828,-0.19824 -0.76562,0 -1.27148,0.5127 -0.50586,0.50585 -0.50586,1.62695 v 4.21777 h -1.23047 v -4.71679 q 0,-0.82032 -0.30078,-1.23047 -0.30078,-0.41016 -0.98438,-0.41016 -0.51953,0 -0.96386,0.27344 -0.4375,0.27344 -0.63575,0.7998 -0.19824,0.52637 -0.19824,1.51758 v 3.7666 z m 11.66211,2.78223 V 155.3508 h 1.1211 v 0.94336 q 0.39648,-0.55372 0.8955,-0.82715 0.49903,-0.28028 1.20997,-0.28028 0.92968,0 1.64062,0.47852 0.71094,0.47852 1.07324,1.35352 0.36231,0.86816 0.36231,1.90722 0,1.11426 -0.40332,2.00977 -0.39649,0.88867 -1.16211,1.36718 -0.75879,0.47168 -1.59961,0.47168 -0.61524,0 -1.10742,-0.25976 -0.48536,-0.25977 -0.79981,-0.65625 v 3.53418 z m 1.11426,-6.3711 q 0,1.40137 0.56738,2.07129 0.56739,0.66993 1.37403,0.66993 0.82031,0 1.40136,-0.69043 0.58789,-0.69727 0.58789,-2.15332 0,-1.3877 -0.57421,-2.07813 -0.56739,-0.69043 -1.36036,-0.69043 -0.78613,0 -1.39453,0.73828 -0.60156,0.73145 -0.60156,2.13281 z m 6.21387,-0.041 q 0,-2.0166 1.12109,-2.98731 0.93652,-0.80664 2.2832,-0.80664 1.49707,0 2.44727,0.98438 0.9502,0.97754 0.9502,2.70703 0,1.40137 -0.42383,2.20801 -0.41699,0.7998 -1.22364,1.24414 -0.7998,0.44433 -1.75,0.44433 -1.52441,0 -2.46777,-0.97753 -0.93652,-0.97754 -0.93652,-2.81641 z m 1.26465,0 q 0,1.39453 0.60839,2.0918 0.6084,0.69043 1.53125,0.69043 0.91602,0 1.52442,-0.69727 0.6084,-0.69727 0.6084,-2.12598 0,-1.34668 -0.61524,-2.03711 -0.6084,-0.69726 -1.51758,-0.69726 -0.92285,0 -1.53125,0.69043 -0.60839,0.69043 -0.60839,2.08496 z m 6.4873,1.46289 1.2168,-0.19141 q 0.10254,0.73145 0.56738,1.1211 0.47168,0.38965 1.3125,0.38965 0.84766,0 1.25781,-0.3418 0.41016,-0.34863 0.41016,-0.81348 0,-0.41699 -0.36231,-0.65625 -0.25293,-0.16406 -1.25781,-0.41699 -1.35351,-0.3418 -1.87988,-0.58789 -0.51953,-0.25293 -0.79297,-0.69043 -0.2666,-0.44434 -0.2666,-0.97754 0,-0.48535 0.21875,-0.89551 0.22558,-0.41699 0.6084,-0.69043 0.28711,-0.21191 0.77929,-0.35547 0.49903,-0.15039 1.06641,-0.15039 0.85449,0 1.49707,0.2461 0.64941,0.24609 0.95703,0.66992 0.30762,0.41699 0.42383,1.12109 l -1.20312,0.16407 q -0.082,-0.56055 -0.47852,-0.875 -0.38965,-0.31446 -1.10742,-0.31446 -0.84766,0 -1.20996,0.28028 -0.36231,0.28027 -0.36231,0.65625 0,0.23925 0.15039,0.43066 0.15039,0.19824 0.47168,0.32813 0.18457,0.0684 1.08692,0.31445 1.30566,0.34863 1.81836,0.57422 0.51953,0.21875 0.81347,0.64258 0.29395,0.42382 0.29395,1.05273 0,0.61523 -0.36231,1.16211 -0.35547,0.54004 -1.03222,0.84082 -0.67676,0.29394 -1.53125,0.29394 -1.41504,0 -2.16016,-0.58789 -0.73828,-0.58789 -0.94336,-1.74316 z m 12.46191,-0.1709 1.27149,0.15723 q -0.30078,1.11426 -1.11426,1.72949 -0.81348,0.61523 -2.07812,0.61523 -1.59278,0 -2.5293,-0.97753 -0.92969,-0.98438 -0.92969,-2.75489 0,-1.83203 0.94336,-2.84375 0.94336,-1.01172 2.44727,-1.01172 1.45605,0 2.3789,0.99121 0.92285,0.99122 0.92285,2.78907 0,0.10937 -0.007,0.32812 h -5.41406 q 0.0684,1.19629 0.67675,1.83203 0.6084,0.63575 1.51758,0.63575 0.67676,0 1.15528,-0.35547 0.47851,-0.35547 0.75878,-1.13477 z m -4.04003,-1.98926 h 4.05371 q -0.082,-0.91601 -0.46485,-1.37402 -0.58789,-0.71094 -1.52441,-0.71094 -0.84766,0 -1.42871,0.56739 -0.57422,0.56738 -0.63574,1.51757 z m 11.5664,4.32715 v -0.91601 q -0.69043,1.08007 -2.03027,1.08007 -0.86817,0 -1.59961,-0.47851 -0.72461,-0.47852 -1.12793,-1.33301 -0.39648,-0.86133 -0.39648,-1.97558 0,-1.08692 0.3623,-1.96875 0.3623,-0.88868 1.08691,-1.36036 0.72461,-0.47168 1.62012,-0.47168 0.65625,0 1.16895,0.28028 0.51269,0.27343 0.83398,0.71777 v -3.5957 h 1.22363 v 10.02148 z m -3.88965,-3.62304 q 0,1.39453 0.58789,2.08496 0.58789,0.69043 1.3877,0.69043 0.80664,0 1.36719,-0.65625 0.56738,-0.66309 0.56738,-2.01661 0,-1.49023 -0.57422,-2.1875 -0.57422,-0.69726 -1.41504,-0.69726 -0.82031,0 -1.37402,0.66992 -0.54688,0.66992 -0.54688,2.11231 z m 10.39746,-0.007 q 0,-2.0166 1.1211,-2.98731 0.93652,-0.80664 2.2832,-0.80664 1.49707,0 2.44727,0.98438 0.95019,0.97754 0.95019,2.70703 0,1.40137 -0.42383,2.20801 -0.41699,0.7998 -1.22363,1.24414 -0.7998,0.44433 -1.75,0.44433 -1.52441,0 -2.46777,-0.97753 -0.93653,-0.97754 -0.93653,-2.81641 z m 1.26465,0 q 0,1.39453 0.6084,2.0918 0.6084,0.69043 1.53125,0.69043 0.91602,0 1.52442,-0.69727 0.60839,-0.69727 0.60839,-2.12598 0,-1.34668 -0.61523,-2.03711 -0.6084,-0.69726 -1.51758,-0.69726 -0.92285,0 -1.53125,0.69043 -0.6084,0.69043 -0.6084,2.08496 z m 11.73731,3.62988 v -1.0664 q -0.84766,1.23046 -2.30371,1.23046 -0.64258,0 -1.20313,-0.24609 -0.55371,-0.24609 -0.82715,-0.61523 -0.2666,-0.37598 -0.37597,-0.91602 -0.0752,-0.3623 -0.0752,-1.14844 v -4.49804 h 1.23047 v 4.02636 q 0,0.96387 0.0752,1.29883 0.11621,0.48535 0.49218,0.76563 0.37598,0.27343 0.92969,0.27343 0.55371,0 1.03906,-0.28027 0.48535,-0.28711 0.6836,-0.77246 0.20507,-0.49219 0.20507,-1.42188 v -3.88964 h 1.23047 v 7.25976 z m 5.71484,-1.10058 0.17774,1.08691 q -0.51954,0.10938 -0.92969,0.10938 -0.66992,0 -1.03906,-0.21192 -0.36914,-0.21191 -0.51954,-0.55371 -0.15039,-0.34863 -0.15039,-1.45605 v -4.17676 h -0.90234 v -0.95703 h 0.90234 v -1.79786 l 1.22364,-0.73828 v 2.53614 h 1.2373 v 0.95703 h -1.2373 v 4.24511 q 0,0.52637 0.0615,0.67676 0.0684,0.15039 0.21191,0.23926 0.15039,0.0889 0.42383,0.0889 0.20508,0 0.54004,-0.0478 z m 4.63477,-2.5293 q 0,-2.0166 1.12109,-2.98731 0.93652,-0.80664 2.2832,-0.80664 1.49707,0 2.44727,0.98438 0.95019,0.97754 0.95019,2.70703 0,1.40137 -0.42382,2.20801 -0.417,0.7998 -1.22364,1.24414 -0.7998,0.44433 -1.75,0.44433 -1.52441,0 -2.46777,-0.97753 -0.93652,-0.97754 -0.93652,-2.81641 z m 1.26465,0 q 0,1.39453 0.60839,2.0918 0.6084,0.69043 1.53125,0.69043 0.91602,0 1.52442,-0.69727 0.6084,-0.69727 0.6084,-2.12598 0,-1.34668 -0.61524,-2.03711 -0.6084,-0.69726 -1.51758,-0.69726 -0.92285,0 -1.53125,0.69043 -0.60839,0.69043 -0.60839,2.08496 z m 7.27343,3.62988 v -6.30273 h -1.08691 v -0.95703 h 1.08691 v -0.77246 q 0,-0.73145 0.12989,-1.08692 0.17773,-0.47851 0.62207,-0.77246 0.45117,-0.30078 1.25781,-0.30078 0.51953,0 1.14844,0.12305 l -0.18457,1.07324 q -0.38282,-0.0684 -0.72461,-0.0684 -0.56055,0 -0.79297,0.23926 -0.23242,0.23925 -0.23242,0.8955 v 0.66993 h 1.41503 v 0.95703 h -1.41503 v 6.30273 z m 7.02735,-3.62988 q 0,-2.0166 1.12109,-2.98731 0.93652,-0.80664 2.2832,-0.80664 1.49707,0 2.44727,0.98438 0.95019,0.97754 0.95019,2.70703 0,1.40137 -0.42382,2.20801 -0.417,0.7998 -1.22364,1.24414 -0.7998,0.44433 -1.75,0.44433 -1.52441,0 -2.46777,-0.97753 -0.93652,-0.97754 -0.93652,-2.81641 z m 1.26465,0 q 0,1.39453 0.60839,2.0918 0.6084,0.69043 1.53125,0.69043 0.91602,0 1.52442,-0.69727 0.6084,-0.69727 0.6084,-2.12598 0,-1.34668 -0.61524,-2.03711 -0.6084,-0.69726 -1.51758,-0.69726 -0.92285,0 -1.53125,0.69043 -0.60839,0.69043 -0.60839,2.08496 z m 9.66601,2.5293 0.17774,1.08691 q -0.51954,0.10938 -0.92969,0.10938 -0.66992,0 -1.03906,-0.21192 -0.36915,-0.21191 -0.51954,-0.55371 -0.15039,-0.34863 -0.15039,-1.45605 v -4.17676 h -0.90234 v -0.95703 h 0.90234 v -1.79786 l 1.22364,-0.73828 v 2.53614 h 1.2373 v 0.95703 h -1.2373 v 4.24511 q 0,0.52637 0.0615,0.67676 0.0684,0.15039 0.21191,0.23926 0.15039,0.0889 0.42383,0.0889 0.20508,0 0.54004,-0.0478 z m 1.20313,1.10058 v -10.02148 h 1.23046 v 3.5957 q 0.86133,-0.99805 2.17383,-0.99805 0.80664,0 1.40137,0.32129 0.59473,0.31446 0.84766,0.875 0.25976,0.56055 0.25976,1.62696 v 4.60058 h -1.23047 v -4.60058 q 0,-0.92286 -0.40332,-1.33985 -0.39648,-0.42383 -1.12793,-0.42383 -0.54687,0 -1.03222,0.28711 -0.47852,0.28028 -0.6836,0.76563 -0.20508,0.48535 -0.20508,1.33984 v 3.97168 z m 12.75586,-2.33789 1.27148,0.15723 q -0.30078,1.11426 -1.11426,1.72949 -0.81347,0.61523 -2.07812,0.61523 -1.59278,0 -2.5293,-0.97753 -0.92969,-0.98438 -0.92969,-2.75489 0,-1.83203 0.94336,-2.84375 0.94336,-1.01172 2.44727,-1.01172 1.45605,0 2.3789,0.99121 0.92286,0.99122 0.92286,2.78907 0,0.10937 -0.007,0.32812 h -5.41406 q 0.0684,1.19629 0.67675,1.83203 0.6084,0.63575 1.51758,0.63575 0.67676,0 1.15528,-0.35547 0.47851,-0.35547 0.75879,-1.13477 z m -4.04004,-1.98926 h 4.05371 q -0.082,-0.91601 -0.46485,-1.37402 -0.58789,-0.71094 -1.52441,-0.71094 -0.84766,0 -1.42871,0.56739 -0.57422,0.56738 -0.63574,1.51757 z m 6.84277,4.32715 v -7.25976 h 1.10742 v 1.10058 q 0.42383,-0.77246 0.7793,-1.01855 0.3623,-0.2461 0.79297,-0.2461 0.62207,0 1.26465,0.39649 l -0.42383,1.1416 q -0.45117,-0.2666 -0.90235,-0.2666 -0.40332,0 -0.72461,0.24609 -0.32128,0.23926 -0.458,0.66992 -0.20508,0.65625 -0.20508,1.43555 v 3.80078 z m 8.68164,0 v -10.02148 h 1.99609 l 2.37207,7.0957 q 0.32813,0.99121 0.47852,1.4834 0.1709,-0.54688 0.5332,-1.60645 l 2.39942,-6.97265 h 1.78418 v 10.02148 h -1.27832 v -8.38769 l -2.91211,8.38769 h -1.19629 l -2.89844,-8.53125 v 8.53125 z m 11.08789,-3.62988 q 0,-2.0166 1.12109,-2.98731 0.93653,-0.80664 2.28321,-0.80664 1.49707,0 2.44726,0.98438 0.9502,0.97754 0.9502,2.70703 0,1.40137 -0.42383,2.20801 -0.41699,0.7998 -1.22363,1.24414 -0.79981,0.44433 -1.75,0.44433 -1.52442,0 -2.46778,-0.97753 -0.93652,-0.97754 -0.93652,-2.81641 z m 1.26465,0 q 0,1.39453 0.6084,2.0918 0.6084,0.69043 1.53125,0.69043 0.91601,0 1.52441,-0.69727 0.6084,-0.69727 0.6084,-2.12598 0,-1.34668 -0.61523,-2.03711 -0.6084,-0.69726 -1.51758,-0.69726 -0.92285,0 -1.53125,0.69043 -0.6084,0.69043 -0.6084,2.08496 z m 8.99609,3.62988 -2.76172,-7.25976 h 1.29883 l 1.5586,4.34765 q 0.25293,0.7041 0.46484,1.46289 0.16406,-0.57422 0.45801,-1.38086 l 1.61328,-4.42968 h 1.26465 l -2.74805,7.25976 z m 9.95313,-2.33789 1.27148,0.15723 q -0.30078,1.11426 -1.11426,1.72949 -0.81347,0.61523 -2.07812,0.61523 -1.59277,0 -2.5293,-0.97753 -0.92968,-0.98438 -0.92968,-2.75489 0,-1.83203 0.94335,-2.84375 0.94336,-1.01172 2.44727,-1.01172 1.45605,0 2.37891,0.99121 0.92285,0.99122 0.92285,2.78907 0,0.10937 -0.007,0.32812 h -5.41406 q 0.0684,1.19629 0.67676,1.83203 0.6084,0.63575 1.51758,0.63575 0.67675,0 1.15527,-0.35547 0.47851,-0.35547 0.75879,-1.13477 z m -4.04004,-1.98926 h 4.05371 q -0.082,-0.91601 -0.46484,-1.37402 -0.58789,-0.71094 -1.52442,-0.71094 -0.84765,0 -1.42871,0.56739 -0.57422,0.56738 -0.63574,1.51757 z m 6.5625,1.10743 1.25098,-0.10938 q 0.0889,0.75195 0.41015,1.23731 0.32813,0.47851 1.01172,0.77929 0.68359,0.29395 1.53809,0.29395 0.75879,0 1.33984,-0.22559 0.58105,-0.22558 0.86133,-0.61523 0.28711,-0.39649 0.28711,-0.86133 0,-0.47168 -0.27344,-0.82031 -0.27344,-0.35547 -0.90234,-0.59473 -0.40332,-0.15723 -1.78418,-0.48535 -1.38086,-0.33496 -1.93457,-0.62891 -0.71778,-0.37597 -1.07325,-0.92969 -0.34863,-0.56054 -0.34863,-1.25097 0,-0.75879 0.43067,-1.41504 0.43066,-0.66309 1.25781,-1.00488 0.82715,-0.3418 1.83887,-0.3418 1.11425,0 1.96191,0.3623 0.85449,0.35547 1.3125,1.05274 0.45801,0.69726 0.49219,1.5791 l -1.27149,0.0957 q -0.10254,-0.95019 -0.69726,-1.43554 -0.58789,-0.48536 -1.74317,-0.48536 -1.20312,0 -1.75683,0.44434 -0.54688,0.4375 -0.54688,1.05957 0,0.54004 0.38965,0.88867 0.38281,0.34864 1.99609,0.71778 1.62012,0.3623 2.22168,0.63574 0.875,0.40332 1.292,1.02539 0.41699,0.61523 0.41699,1.42187 0,0.79981 -0.45801,1.51075 -0.45801,0.7041 -1.31934,1.10058 -0.85449,0.38965 -1.92773,0.38965 -1.36035,0 -2.2832,-0.39648 -0.91602,-0.39649 -1.44239,-1.18946 -0.51953,-0.7998 -0.54687,-1.80468 z m 14.60156,0.88183 1.27149,0.15723 q -0.30079,1.11426 -1.11426,1.72949 -0.81348,0.61523 -2.07813,0.61523 -1.59277,0 -2.52929,-0.97753 -0.92969,-0.98438 -0.92969,-2.75489 0,-1.83203 0.94336,-2.84375 0.94336,-1.01172 2.44726,-1.01172 1.45606,0 2.37891,0.99121 0.92285,0.99122 0.92285,2.78907 0,0.10937 -0.007,0.32812 h -5.41407 q 0.0684,1.19629 0.67676,1.83203 0.6084,0.63575 1.51758,0.63575 0.67676,0 1.15527,-0.35547 0.47852,-0.35547 0.75879,-1.13477 z m -4.04004,-1.98926 h 4.05371 q -0.082,-0.91601 -0.46484,-1.37402 -0.58789,-0.71094 -1.52441,-0.71094 -0.84766,0 -1.42872,0.56739 -0.57421,0.56738 -0.63574,1.51757 z m 6.8291,4.32715 v -10.02148 h 1.23047 v 10.02148 z m 8.10743,-2.33789 1.27148,0.15723 q -0.30078,1.11426 -1.11426,1.72949 -0.81347,0.61523 -2.07812,0.61523 -1.59278,0 -2.5293,-0.97753 -0.92969,-0.98438 -0.92969,-2.75489 0,-1.83203 0.94336,-2.84375 0.94336,-1.01172 2.44727,-1.01172 1.45605,0 2.3789,0.99121 0.92286,0.99122 0.92286,2.78907 0,0.10937 -0.007,0.32812 h -5.41406 q 0.0684,1.19629 0.67676,1.83203 0.60839,0.63575 1.51757,0.63575 0.67676,0 1.15528,-0.35547 0.47851,-0.35547 0.75879,-1.13477 z m -4.04004,-1.98926 h 4.05371 q -0.082,-0.91601 -0.46485,-1.37402 -0.58789,-0.71094 -1.52441,-0.71094 -0.84766,0 -1.42871,0.56739 -0.57422,0.56738 -0.63574,1.51757 z m 11.59375,1.66797 1.20996,0.15723 q -0.19824,1.25098 -1.01856,1.96191 -0.81347,0.7041 -2.00293,0.7041 -1.49023,0 -2.39941,-0.9707 -0.90234,-0.97754 -0.90234,-2.7959 0,-1.17578 0.38964,-2.05761 0.38965,-0.88184 1.18262,-1.31934 0.79981,-0.44434 1.73633,-0.44434 1.18262,0 1.93457,0.60157 0.75195,0.59472 0.96387,1.69531 l -1.19629,0.18457 q -0.1709,-0.73145 -0.6084,-1.10059 -0.43066,-0.36914 -1.0459,-0.36914 -0.92969,0 -1.51074,0.66992 -0.58106,0.66309 -0.58106,2.10547 0,1.46289 0.56055,2.12598 0.56055,0.66309 1.46289,0.66309 0.72461,0 1.20996,-0.44434 0.48535,-0.44434 0.61524,-1.36719 z m 4.94922,1.5586 0.17773,1.08691 q -0.51953,0.10938 -0.92969,0.10938 -0.66992,0 -1.03906,-0.21192 -0.36914,-0.21191 -0.51953,-0.55371 -0.15039,-0.34863 -0.15039,-1.45605 v -4.17676 h -0.90235 v -0.95703 h 0.90235 v -1.79786 l 1.22363,-0.73828 v 2.53614 h 1.23731 v 0.95703 h -1.23731 v 4.24511 q 0,0.52637 0.0615,0.67676 0.0684,0.15039 0.21192,0.23926 0.15039,0.0889 0.42383,0.0889 0.20507,0 0.54004,-0.0478 z m 0.74511,-2.5293 q 0,-2.0166 1.1211,-2.98731 0.93652,-0.80664 2.2832,-0.80664 1.49707,0 2.44727,0.98438 0.95019,0.97754 0.95019,2.70703 0,1.40137 -0.42383,2.20801 -0.41699,0.7998 -1.22363,1.24414 -0.79981,0.44433 -1.75,0.44433 -1.52441,0 -2.46777,-0.97753 -0.93653,-0.97754 -0.93653,-2.81641 z m 1.26465,0 q 0,1.39453 0.6084,2.0918 0.6084,0.69043 1.53125,0.69043 0.91602,0 1.52441,-0.69727 0.6084,-0.69727 0.6084,-2.12598 0,-1.34668 -0.61523,-2.03711 -0.6084,-0.69726 -1.51758,-0.69726 -0.92285,0 -1.53125,0.69043 -0.6084,0.69043 -0.6084,2.08496 z m 6.96582,3.62988 v -7.25976 h 1.10742 v 1.10058 q 0.42383,-0.77246 0.7793,-1.01855 0.3623,-0.2461 0.79297,-0.2461 0.62207,0 1.26465,0.39649 l -0.42383,1.1416 q -0.45117,-0.2666 -0.90234,-0.2666 -0.40332,0 -0.72461,0.24609 -0.32129,0.23926 -0.45801,0.66992 -0.20508,0.65625 -0.20508,1.43555 v 3.80078 z m 4.1836,-2.16699 1.21679,-0.19141 q 0.10254,0.73145 0.56738,1.1211 0.47168,0.38965 1.3125,0.38965 0.84766,0 1.25782,-0.3418 0.41015,-0.34863 0.41015,-0.81348 0,-0.41699 -0.3623,-0.65625 -0.25293,-0.16406 -1.25781,-0.41699 -1.35352,-0.3418 -1.87989,-0.58789 -0.51953,-0.25293 -0.79297,-0.69043 -0.2666,-0.44434 -0.2666,-0.97754 0,-0.48535 0.21875,-0.89551 0.22559,-0.41699 0.6084,-0.69043 0.28711,-0.21191 0.7793,-0.35547 0.49902,-0.15039 1.0664,-0.15039 0.8545,0 1.49708,0.2461 0.64941,0.24609 0.95703,0.66992 0.30761,0.41699 0.42382,1.12109 l -1.20312,0.16407 q -0.082,-0.56055 -0.47852,-0.875 -0.38964,-0.31446 -1.10742,-0.31446 -0.84765,0 -1.20996,0.28028 -0.3623,0.28027 -0.3623,0.65625 0,0.23925 0.15039,0.43066 0.15039,0.19824 0.47168,0.32813 0.18457,0.0684 1.08691,0.31445 1.30566,0.34863 1.81836,0.57422 0.51953,0.21875 0.81348,0.64258 0.29394,0.42382 0.29394,1.05273 0,0.61523 -0.3623,1.16211 -0.35547,0.54004 -1.03223,0.84082 -0.67676,0.29394 -1.53125,0.29394 -1.41504,0 -2.16016,-0.58789 -0.73828,-0.58789 -0.94335,-1.74316 z m 7.81347,2.16699 v -1.40137 h 1.40137 v 1.40137 q 0,0.77246 -0.27344,1.24414 -0.27344,0.47852 -0.86816,0.73828 l -0.3418,-0.52636 q 0.38965,-0.1709 0.57422,-0.50586 0.18457,-0.32813 0.20508,-0.9502 z m 7.64258,0 v -10.02148 h 7.24609 v 1.18261 h -5.91992 v 3.06934 h 5.54395 v 1.17578 h -5.54395 v 3.41113 h 6.15235 v 1.18262 z m 9.15332,0 v -7.25976 h 1.10742 v 1.03222 q 0.79981,-1.19629 2.31055,-1.19629 0.65625,0 1.20312,0.23926 0.55371,0.23242 0.82715,0.61524 0.27344,0.38281 0.38281,0.90918 0.0684,0.34179 0.0684,1.19628 v 4.46387 h -1.23046 v -4.41601 q 0,-0.75196 -0.14356,-1.1211 -0.14355,-0.37597 -0.51269,-0.59472 -0.36231,-0.22559 -0.8545,-0.22559 -0.78613,0 -1.36035,0.49902 -0.56738,0.49903 -0.56738,1.89356 v 3.96484 z m 10.47266,-1.10058 0.17773,1.08691 q -0.51953,0.10938 -0.92969,0.10938 -0.66992,0 -1.03906,-0.21192 -0.36914,-0.21191 -0.51953,-0.55371 -0.15039,-0.34863 -0.15039,-1.45605 v -4.17676 h -0.90234 v -0.95703 h 0.90234 v -1.79786 l 1.22363,-0.73828 v 2.53614 h 1.23731 v 0.95703 h -1.23731 v 4.24511 q 0,0.52637 0.0615,0.67676 0.0683,0.15039 0.21191,0.23926 0.15039,0.0889 0.42383,0.0889 0.20508,0 0.54004,-0.0478 z m 1.20996,-7.50586 v -1.41504 h 1.23047 v 1.41504 z m 0,8.60644 v -7.25976 h 1.23047 v 7.25976 z m 5.79004,-1.10058 0.17773,1.08691 q -0.51953,0.10938 -0.92969,0.10938 -0.66992,0 -1.03906,-0.21192 -0.36914,-0.21191 -0.51953,-0.55371 -0.15039,-0.34863 -0.15039,-1.45605 v -4.17676 h -0.90234 v -0.95703 h 0.90234 v -1.79786 l 1.22363,-0.73828 v 2.53614 h 1.23731 v 0.95703 h -1.23731 v 4.24511 q 0,0.52637 0.0615,0.67676 0.0683,0.15039 0.21191,0.23926 0.15039,0.0889 0.42383,0.0889 0.20508,0 0.54004,-0.0478 z m 1.14843,3.89648 -0.13671,-1.15527 q 0.40332,0.10937 0.7041,0.10937 0.41015,0 0.65625,-0.13672 0.24609,-0.13672 0.40332,-0.38281 0.11621,-0.18457 0.37597,-0.91601 0.0342,-0.10254 0.10938,-0.30079 l -2.75488,-7.27343 h 1.32617 l 1.51074,4.2041 q 0.29395,0.7998 0.52637,1.68164 0.21191,-0.84766 0.50586,-1.6543 l 1.55175,-4.23144 h 1.23047 l -2.76172,7.38281 q -0.44433,1.19629 -0.69043,1.64746 -0.32812,0.6084 -0.75195,0.88867 -0.42383,0.28711 -1.01172,0.28711 -0.35547,0 -0.79297,-0.15039 z m 6.76075,-6.01562 1.25097,-0.10938 q 0.0889,0.75195 0.41016,1.23731 0.32812,0.47851 1.01172,0.77929 0.68359,0.29395 1.53808,0.29395 0.75879,0 1.33985,-0.22559 0.58105,-0.22558 0.86133,-0.61523 0.2871,-0.39649 0.2871,-0.86133 0,-0.47168 -0.27343,-0.82031 -0.27344,-0.35547 -0.90235,-0.59473 -0.40332,-0.15723 -1.78418,-0.48535 -1.38086,-0.33496 -1.93457,-0.62891 -0.71777,-0.37597 -1.07324,-0.92969 -0.34863,-0.56054 -0.34863,-1.25097 0,-0.75879 0.43066,-1.41504 0.43067,-0.66309 1.25782,-1.00488 0.82714,-0.3418 1.83886,-0.3418 1.11426,0 1.96192,0.3623 0.85449,0.35547 1.3125,1.05274 0.458,0.69726 0.49218,1.5791 l -1.27148,0.0957 q -0.10254,-0.95019 -0.69727,-1.43554 -0.58789,-0.48536 -1.74316,-0.48536 -1.20313,0 -1.75684,0.44434 -0.54687,0.4375 -0.54687,1.05957 0,0.54004 0.38965,0.88867 0.38281,0.34864 1.99609,0.71778 1.62012,0.3623 2.22168,0.63574 0.875,0.40332 1.29199,1.02539 0.417,0.61523 0.417,1.42187 0,0.79981 -0.45801,1.51075 -0.45801,0.7041 -1.31934,1.10058 -0.85449,0.38965 -1.92773,0.38965 -1.36035,0 -2.28321,-0.39648 -0.91601,-0.39649 -1.44238,-1.18946 -0.51953,-0.7998 -0.54687,-1.80468 z m 14.60156,0.88183 1.27148,0.15723 q -0.30078,1.11426 -1.11425,1.72949 -0.81348,0.61523 -2.07813,0.61523 -1.59277,0 -2.5293,-0.97753 -0.92968,-0.98438 -0.92968,-2.75489 0,-1.83203 0.94336,-2.84375 0.94335,-1.01172 2.44726,-1.01172 1.45606,0 2.37891,0.99121 0.92285,0.99122 0.92285,2.78907 0,0.10937 -0.007,0.32812 h -5.41406 q 0.0684,1.19629 0.67676,1.83203 0.6084,0.63575 1.51758,0.63575 0.67675,0 1.15527,-0.35547 0.47852,-0.35547 0.75879,-1.13477 z m -4.04004,-1.98926 h 4.05371 q -0.082,-0.91601 -0.46484,-1.37402 -0.58789,-0.71094 -1.52442,-0.71094 -0.84765,0 -1.42871,0.56739 -0.57422,0.56738 -0.63574,1.51757 z m 6.8291,4.32715 v -10.02148 h 1.23047 v 10.02148 z m 8.10742,-2.33789 1.27149,0.15723 q -0.30078,1.11426 -1.11426,1.72949 -0.81348,0.61523 -2.07813,0.61523 -1.59277,0 -2.52929,-0.97753 -0.92969,-0.98438 -0.92969,-2.75489 0,-1.83203 0.94336,-2.84375 0.94336,-1.01172 2.44727,-1.01172 1.45605,0 2.3789,0.99121 0.92285,0.99122 0.92285,2.78907 0,0.10937 -0.007,0.32812 h -5.41407 q 0.0684,1.19629 0.67676,1.83203 0.6084,0.63575 1.51758,0.63575 0.67676,0 1.15527,-0.35547 0.47852,-0.35547 0.75879,-1.13477 z m -4.04004,-1.98926 h 4.05371 q -0.082,-0.91601 -0.46484,-1.37402 -0.58789,-0.71094 -1.52441,-0.71094 -0.84766,0 -1.42871,0.56739 -0.57422,0.56738 -0.63575,1.51757 z m 11.59375,1.66797 1.20996,0.15723 q -0.19824,1.25098 -1.01855,1.96191 -0.81348,0.7041 -2.00293,0.7041 -1.49023,0 -2.39941,-0.9707 -0.90235,-0.97754 -0.90235,-2.7959 0,-1.17578 0.38965,-2.05761 0.38965,-0.88184 1.18262,-1.31934 0.7998,-0.44434 1.73633,-0.44434 1.18261,0 1.93457,0.60157 0.75195,0.59472 0.96386,1.69531 l -1.19629,0.18457 q -0.17089,-0.73145 -0.60839,-1.10059 -0.43067,-0.36914 -1.0459,-0.36914 -0.92969,0 -1.51074,0.66992 -0.58106,0.66309 -0.58106,2.10547 0,1.46289 0.56055,2.12598 0.56054,0.66309 1.46289,0.66309 0.72461,0 1.20996,-0.44434 0.48535,-0.44434 0.61523,-1.36719 z m 4.94922,1.5586 0.17774,1.08691 q -0.51953,0.10938 -0.92969,0.10938 -0.66992,0 -1.03906,-0.21192 -0.36914,-0.21191 -0.51953,-0.55371 -0.15039,-0.34863 -0.15039,-1.45605 v -4.17676 h -0.90235 v -0.95703 h 0.90235 v -1.79786 l 1.22363,-0.73828 v 2.53614 h 1.2373 v 0.95703 h -1.2373 v 4.24511 q 0,0.52637 0.0615,0.67676 0.0684,0.15039 0.21192,0.23926 0.15039,0.0889 0.42382,0.0889 0.20508,0 0.54004,-0.0478 z m 0.74512,-2.5293 q 0,-2.0166 1.12109,-2.98731 0.93653,-0.80664 2.28321,-0.80664 1.49707,0 2.44726,0.98438 0.9502,0.97754 0.9502,2.70703 0,1.40137 -0.42383,2.20801 -0.41699,0.7998 -1.22363,1.24414 -0.79981,0.44433 -1.75,0.44433 -1.52442,0 -2.46778,-0.97753 -0.93652,-0.97754 -0.93652,-2.81641 z m 1.26465,0 q 0,1.39453 0.6084,2.0918 0.6084,0.69043 1.53125,0.69043 0.91601,0 1.52441,-0.69727 0.6084,-0.69727 0.6084,-2.12598 0,-1.34668 -0.61524,-2.03711 -0.60839,-0.69726 -1.51757,-0.69726 -0.92285,0 -1.53125,0.69043 -0.6084,0.69043 -0.6084,2.08496 z m 6.96582,3.62988 v -7.25976 h 1.10742 v 1.10058 q 0.42383,-0.77246 0.7793,-1.01855 0.3623,-0.2461 0.79297,-0.2461 0.62207,0 1.26464,0.39649 l -0.42382,1.1416 q -0.45118,-0.2666 -0.90235,-0.2666 -0.40332,0 -0.72461,0.24609 -0.32129,0.23926 -0.458,0.66992 -0.20508,0.65625 -0.20508,1.43555 v 3.80078 z m 4.18359,-2.16699 1.2168,-0.19141 q 0.10254,0.73145 0.56738,1.1211 0.47168,0.38965 1.3125,0.38965 0.84766,0 1.25781,-0.3418 0.41016,-0.34863 0.41016,-0.81348 0,-0.41699 -0.3623,-0.65625 -0.25293,-0.16406 -1.25782,-0.41699 -1.35351,-0.3418 -1.87988,-0.58789 -0.51953,-0.25293 -0.79297,-0.69043 -0.2666,-0.44434 -0.2666,-0.97754 0,-0.48535 0.21875,-0.89551 0.22559,-0.41699 0.6084,-0.69043 0.28711,-0.21191 0.7793,-0.35547 0.49902,-0.15039 1.0664,-0.15039 0.85449,0 1.49707,0.2461 0.64942,0.24609 0.95703,0.66992 0.30762,0.41699 0.42383,1.12109 l -1.20312,0.16407 q -0.082,-0.56055 -0.47852,-0.875 -0.38965,-0.31446 -1.10742,-0.31446 -0.84766,0 -1.20996,0.28028 -0.36231,0.28027 -0.36231,0.65625 0,0.23925 0.15039,0.43066 0.15039,0.19824 0.47168,0.32813 0.18457,0.0684 1.08692,0.31445 1.30566,0.34863 1.81836,0.57422 0.51953,0.21875 0.81347,0.64258 0.29395,0.42382 0.29395,1.05273 0,0.61523 -0.36231,1.16211 -0.35546,0.54004 -1.03222,0.84082 -0.67676,0.29394 -1.53125,0.29394 -1.41504,0 -2.16016,-0.58789 -0.73828,-0.58789 -0.94336,-1.74316 z m 16.11914,1.27148 q -0.68359,0.58106 -1.31933,0.82032 -0.62891,0.23925 -1.35352,0.23925 -1.19629,0 -1.83887,-0.58105 -0.64257,-0.58789 -0.64257,-1.49707 0,-0.5332 0.23925,-0.9707 0.2461,-0.44434 0.63575,-0.71094 0.39648,-0.2666 0.88867,-0.40332 0.3623,-0.0957 1.09375,-0.18457 1.49023,-0.17774 2.19433,-0.42383 0.007,-0.25293 0.007,-0.32129 0,-0.75195 -0.34863,-1.05957 -0.47168,-0.41699 -1.40137,-0.41699 -0.86816,0 -1.28516,0.30762 -0.41015,0.30078 -0.60839,1.07324 l -1.20313,-0.16406 q 0.16406,-0.77247 0.54004,-1.24415 0.37598,-0.47851 1.08691,-0.73144 0.71094,-0.25977 1.64746,-0.25977 0.92969,0 1.51075,0.21875 0.58105,0.21875 0.85449,0.55371 0.27344,0.32813 0.38281,0.83399 0.0615,0.31445 0.0615,1.13476 v 1.64063 q 0,1.71582 0.0752,2.17383 0.082,0.45117 0.31445,0.86816 h -1.28515 q -0.19141,-0.38281 -0.2461,-0.89551 z m -0.10254,-2.74804 q -0.66992,0.27343 -2.00976,0.46484 -0.75879,0.10938 -1.07324,0.24609 -0.31446,0.13672 -0.48536,0.40333 -0.17089,0.25976 -0.17089,0.58105 0,0.49219 0.36914,0.82031 0.37597,0.32813 1.09375,0.32813 0.71093,0 1.26465,-0.30762 0.55371,-0.31445 0.81347,-0.85449 0.19824,-0.41699 0.19824,-1.23047 z m 3.15137,3.64355 v -7.25976 h 1.10742 v 1.03222 q 0.79981,-1.19629 2.31055,-1.19629 0.65625,0 1.20312,0.23926 0.55372,0.23242 0.82715,0.61524 0.27344,0.38281 0.38282,0.90918 0.0684,0.34179 0.0684,1.19628 v 4.46387 h -1.23047 v -4.41601 q 0,-0.75196 -0.14356,-1.1211 -0.14355,-0.37597 -0.51269,-0.59472 -0.36231,-0.22559 -0.8545,-0.22559 -0.78613,0 -1.36035,0.49902 -0.56738,0.49903 -0.56738,1.89356 v 3.96484 z m 12.49609,0 v -0.91601 q -0.69042,1.08007 -2.03027,1.08007 -0.86816,0 -1.59961,-0.47851 -0.72461,-0.47852 -1.12793,-1.33301 -0.39648,-0.86133 -0.39648,-1.97558 0,-1.08692 0.3623,-1.96875 0.36231,-0.88868 1.08692,-1.36036 0.72461,-0.47168 1.62011,-0.47168 0.65625,0 1.16895,0.28028 0.51269,0.27343 0.83398,0.71777 v -3.5957 h 1.22364 v 10.02148 z m -3.88964,-3.62304 q 0,1.39453 0.58789,2.08496 0.58789,0.69043 1.38769,0.69043 0.80664,0 1.36719,-0.65625 0.56738,-0.66309 0.56738,-2.01661 0,-1.49023 -0.57422,-2.1875 -0.57421,-0.69726 -1.41504,-0.69726 -0.82031,0 -1.37402,0.66992 -0.54687,0.66992 -0.54687,2.11231 z m 6.04297,3.79394 2.90527,-10.36328 h 0.98437 l -2.89843,10.36328 z m 4.35449,-3.80078 q 0,-2.0166 1.12109,-2.98731 0.93652,-0.80664 2.2832,-0.80664 1.49707,0 2.44727,0.98438 0.9502,0.97754 0.9502,2.70703 0,1.40137 -0.42383,2.20801 -0.417,0.7998 -1.22364,1.24414 -0.7998,0.44433 -1.75,0.44433 -1.52441,0 -2.46777,-0.97753 -0.93652,-0.97754 -0.93652,-2.81641 z m 1.26465,0 q 0,1.39453 0.60839,2.0918 0.6084,0.69043 1.53125,0.69043 0.91602,0 1.52442,-0.69727 0.6084,-0.69727 0.6084,-2.12598 0,-1.34668 -0.61524,-2.03711 -0.6084,-0.69726 -1.51758,-0.69726 -0.92285,0 -1.53125,0.69043 -0.60839,0.69043 -0.60839,2.08496 z m 6.96582,3.62988 v -7.25976 h 1.10742 v 1.10058 q 0.42383,-0.77246 0.77929,-1.01855 0.36231,-0.2461 0.79297,-0.2461 0.62207,0 1.26465,0.39649 l -0.42383,1.1416 q -0.45117,-0.2666 -0.90234,-0.2666 -0.40332,0 -0.72461,0.24609 -0.32129,0.23926 -0.45801,0.66992 -0.20508,0.65625 -0.20508,1.43555 v 3.80078 z m 11.58691,0 -3.88281,-10.02148 h 1.43554 l 2.6045,7.28027 q 0.31445,0.875 0.52636,1.64063 0.23243,-0.82032 0.54004,-1.64063 l 2.70703,-7.28027 h 1.35352 l -3.92383,10.02148 z m 10.01465,-0.89551 q -0.6836,0.58106 -1.31934,0.82032 -0.6289,0.23925 -1.35351,0.23925 -1.19629,0 -1.83887,-0.58105 -0.64258,-0.58789 -0.64258,-1.49707 0,-0.5332 0.23926,-0.9707 0.24609,-0.44434 0.63574,-0.71094 0.39649,-0.2666 0.88867,-0.40332 0.36231,-0.0957 1.09375,-0.18457 1.49024,-0.17774 2.19434,-0.42383 0.007,-0.25293 0.007,-0.32129 0,-0.75195 -0.34864,-1.05957 -0.47168,-0.41699 -1.40136,-0.41699 -0.86817,0 -1.28516,0.30762 -0.41016,0.30078 -0.6084,1.07324 l -1.20312,-0.16406 q 0.16406,-0.77247 0.54003,-1.24415 0.37598,-0.47851 1.08692,-0.73144 0.71094,-0.25977 1.64746,-0.25977 0.92969,0 1.51074,0.21875 0.58106,0.21875 0.85449,0.55371 0.27344,0.32813 0.38282,0.83399 0.0615,0.31445 0.0615,1.13476 v 1.64063 q 0,1.71582 0.0752,2.17383 0.082,0.45117 0.31445,0.86816 h -1.28516 q -0.1914,-0.38281 -0.24609,-0.89551 z m -0.10254,-2.74804 q -0.66992,0.27343 -2.00977,0.46484 -0.75879,0.10938 -1.07324,0.24609 -0.31445,0.13672 -0.48535,0.40333 -0.1709,0.25976 -0.1709,0.58105 0,0.49219 0.36914,0.82031 0.37598,0.32813 1.09375,0.32813 0.71094,0 1.26465,-0.30762 0.55371,-0.31445 0.81348,-0.85449 0.19824,-0.41699 0.19824,-1.23047 z m 3.12402,3.64355 v -10.02148 h 1.23047 v 10.02148 z m 7.89551,0 v -1.0664 q -0.84766,1.23046 -2.30371,1.23046 -0.64258,0 -1.20313,-0.24609 -0.55371,-0.24609 -0.82714,-0.61523 -0.26661,-0.37598 -0.37598,-0.91602 -0.0752,-0.3623 -0.0752,-1.14844 v -4.49804 h 1.23047 v 4.02636 q 0,0.96387 0.0752,1.29883 0.11621,0.48535 0.49219,0.76563 0.37597,0.27343 0.92968,0.27343 0.55371,0 1.03907,-0.28027 0.48535,-0.28711 0.68359,-0.77246 0.20508,-0.49219 0.20508,-1.42188 v -3.88964 h 1.23047 v 7.25976 z m 7.99805,-2.33789 1.27148,0.15723 q -0.30078,1.11426 -1.11426,1.72949 -0.81347,0.61523 -2.07812,0.61523 -1.59277,0 -2.5293,-0.97753 -0.92969,-0.98438 -0.92969,-2.75489 0,-1.83203 0.94336,-2.84375 0.94336,-1.01172 2.44727,-1.01172 1.45605,0 2.37891,0.99121 0.92285,0.99122 0.92285,2.78907 0,0.10937 -0.007,0.32812 h -5.41406 q 0.0684,1.19629 0.67676,1.83203 0.6084,0.63575 1.51758,0.63575 0.67675,0 1.15527,-0.35547 0.47851,-0.35547 0.75879,-1.13477 z m -4.04004,-1.98926 h 4.05371 q -0.082,-0.91601 -0.46484,-1.37402 -0.58789,-0.71094 -1.52442,-0.71094 -0.84765,0 -1.42871,0.56739 -0.57422,0.56738 -0.63574,1.51757 z m 6.5625,1.10743 1.25098,-0.10938 q 0.0889,0.75195 0.41015,1.23731 0.32813,0.47851 1.01172,0.77929 0.68359,0.29395 1.53809,0.29395 0.75879,0 1.33984,-0.22559 0.58105,-0.22558 0.86133,-0.61523 0.28711,-0.39649 0.28711,-0.86133 0,-0.47168 -0.27344,-0.82031 -0.27344,-0.35547 -0.90234,-0.59473 -0.40332,-0.15723 -1.78418,-0.48535 -1.38086,-0.33496 -1.93457,-0.62891 -0.71778,-0.37597 -1.07325,-0.92969 -0.34863,-0.56054 -0.34863,-1.25097 0,-0.75879 0.43067,-1.41504 0.43066,-0.66309 1.25781,-1.00488 0.82715,-0.3418 1.83886,-0.3418 1.11426,0 1.96192,0.3623 0.85449,0.35547 1.3125,1.05274 0.45801,0.69726 0.49219,1.5791 l -1.27149,0.0957 q -0.10254,-0.95019 -0.69726,-1.43554 -0.58789,-0.48536 -1.74317,-0.48536 -1.20312,0 -1.75683,0.44434 -0.54688,0.4375 -0.54688,1.05957 0,0.54004 0.38965,0.88867 0.38281,0.34864 1.99609,0.71778 1.62012,0.3623 2.22168,0.63574 0.875,0.40332 1.292,1.02539 0.41699,0.61523 0.41699,1.42187 0,0.79981 -0.45801,1.51075 -0.45801,0.7041 -1.31934,1.10058 -0.85449,0.38965 -1.92773,0.38965 -1.36035,0 -2.2832,-0.39648 -0.91602,-0.39649 -1.44239,-1.18946 -0.51953,-0.7998 -0.54687,-1.80468 z m 14.60156,0.88183 1.27149,0.15723 q -0.30079,1.11426 -1.11426,1.72949 -0.81348,0.61523 -2.07813,0.61523 -1.59277,0 -2.52929,-0.97753 -0.92969,-0.98438 -0.92969,-2.75489 0,-1.83203 0.94336,-2.84375 0.94336,-1.01172 2.44726,-1.01172 1.45606,0 2.37891,0.99121 0.92285,0.99122 0.92285,2.78907 0,0.10937 -0.007,0.32812 h -5.41407 q 0.0684,1.19629 0.67676,1.83203 0.6084,0.63575 1.51758,0.63575 0.67676,0 1.15527,-0.35547 0.47852,-0.35547 0.75879,-1.13477 z m -4.04004,-1.98926 h 4.05371 q -0.082,-0.91601 -0.46484,-1.37402 -0.58789,-0.71094 -1.52441,-0.71094 -0.84766,0 -1.42872,0.56739 -0.57421,0.56738 -0.63574,1.51757 z m 6.8291,4.32715 v -10.02148 h 1.23047 v 10.02148 z m 8.10743,-2.33789 1.27148,0.15723 q -0.30078,1.11426 -1.11426,1.72949 -0.81347,0.61523 -2.07812,0.61523 -1.59278,0 -2.5293,-0.97753 -0.92969,-0.98438 -0.92969,-2.75489 0,-1.83203 0.94336,-2.84375 0.94336,-1.01172 2.44727,-1.01172 1.45605,0 2.3789,0.99121 0.92286,0.99122 0.92286,2.78907 0,0.10937 -0.007,0.32812 h -5.41406 q 0.0684,1.19629 0.67675,1.83203 0.6084,0.63575 1.51758,0.63575 0.67676,0 1.15528,-0.35547 0.47851,-0.35547 0.75879,-1.13477 z m -4.04004,-1.98926 h 4.05371 q -0.082,-0.91601 -0.46485,-1.37402 -0.58789,-0.71094 -1.52441,-0.71094 -0.84766,0 -1.42871,0.56739 -0.57422,0.56738 -0.63574,1.51757 z m 11.59375,1.66797 1.20996,0.15723 q -0.19824,1.25098 -1.01856,1.96191 -0.81347,0.7041 -2.00293,0.7041 -1.49023,0 -2.39941,-0.9707 -0.90234,-0.97754 -0.90234,-2.7959 0,-1.17578 0.38964,-2.05761 0.38965,-0.88184 1.18262,-1.31934 0.79981,-0.44434 1.73633,-0.44434 1.18262,0 1.93457,0.60157 0.75195,0.59472 0.96387,1.69531 l -1.19629,0.18457 q -0.1709,-0.73145 -0.6084,-1.10059 -0.43067,-0.36914 -1.0459,-0.36914 -0.92969,0 -1.51074,0.66992 -0.58106,0.66309 -0.58106,2.10547 0,1.46289 0.56055,2.12598 0.56055,0.66309 1.46289,0.66309 0.72461,0 1.20996,-0.44434 0.48535,-0.44434 0.61524,-1.36719 z m 4.94922,1.5586 0.17773,1.08691 q -0.51953,0.10938 -0.92969,0.10938 -0.66992,0 -1.03906,-0.21192 -0.36914,-0.21191 -0.51953,-0.55371 -0.15039,-0.34863 -0.15039,-1.45605 v -4.17676 h -0.90235 v -0.95703 h 0.90235 v -1.79786 l 1.22363,-0.73828 v 2.53614 h 1.23731 v 0.95703 h -1.23731 v 4.24511 q 0,0.52637 0.0615,0.67676 0.0684,0.15039 0.21192,0.23926 0.15039,0.0889 0.42383,0.0889 0.20507,0 0.54004,-0.0478 z m 0.74511,-2.5293 q 0,-2.0166 1.1211,-2.98731 0.93652,-0.80664 2.2832,-0.80664 1.49707,0 2.44726,0.98438 0.9502,0.97754 0.9502,2.70703 0,1.40137 -0.42383,2.20801 -0.41699,0.7998 -1.22363,1.24414 -0.79981,0.44433 -1.75,0.44433 -1.52441,0 -2.46777,-0.97753 -0.93653,-0.97754 -0.93653,-2.81641 z m 1.26465,0 q 0,1.39453 0.6084,2.0918 0.6084,0.69043 1.53125,0.69043 0.91601,0 1.52441,-0.69727 0.6084,-0.69727 0.6084,-2.12598 0,-1.34668 -0.61523,-2.03711 -0.6084,-0.69726 -1.51758,-0.69726 -0.92285,0 -1.53125,0.69043 -0.6084,0.69043 -0.6084,2.08496 z m 6.96582,3.62988 v -7.25976 h 1.10742 v 1.10058 q 0.42383,-0.77246 0.7793,-1.01855 0.3623,-0.2461 0.79297,-0.2461 0.62207,0 1.26465,0.39649 l -0.42383,1.1416 q -0.45117,-0.2666 -0.90234,-0.2666 -0.40333,0 -0.72461,0.24609 -0.32129,0.23926 -0.45801,0.66992 -0.20508,0.65625 -0.20508,1.43555 v 3.80078 z m 4.18359,-2.16699 1.2168,-0.19141 q 0.10254,0.73145 0.56738,1.1211 0.47168,0.38965 1.3125,0.38965 0.84766,0 1.25782,-0.3418 0.41015,-0.34863 0.41015,-0.81348 0,-0.41699 -0.3623,-0.65625 -0.25293,-0.16406 -1.25781,-0.41699 -1.35352,-0.3418 -1.87989,-0.58789 -0.51953,-0.25293 -0.79297,-0.69043 -0.2666,-0.44434 -0.2666,-0.97754 0,-0.48535 0.21875,-0.89551 0.22559,-0.41699 0.6084,-0.69043 0.28711,-0.21191 0.7793,-0.35547 0.49902,-0.15039 1.0664,-0.15039 0.8545,0 1.49707,0.2461 0.64942,0.24609 0.95704,0.66992 0.30761,0.41699 0.42382,1.12109 l -1.20312,0.16407 q -0.082,-0.56055 -0.47852,-0.875 -0.38964,-0.31446 -1.10742,-0.31446 -0.84765,0 -1.20996,0.28028 -0.3623,0.28027 -0.3623,0.65625 0,0.23925 0.15039,0.43066 0.15039,0.19824 0.47168,0.32813 0.18457,0.0684 1.08691,0.31445 1.30566,0.34863 1.81836,0.57422 0.51953,0.21875 0.81348,0.64258 0.29394,0.42382 0.29394,1.05273 0,0.61523 -0.3623,1.16211 -0.35547,0.54004 -1.03223,0.84082 -0.67676,0.29394 -1.53125,0.29394 -1.41504,0 -2.16016,-0.58789 -0.73828,-0.58789 -0.94336,-1.74316 z m 7.84083,2.16699 v -1.40137 h 1.40136 v 1.40137 z"
       id="flowRoot4302-6"
       transform="translate(-20,372.36182)"
       aria-label="A MoveSelector can be composed out of other MoveSelectors, EntitySelectors and/or ValueSelectors." />
    <g
       id="g3709"
       transform="translate(0,19.999997)" />
    <flowRoot
       xml:space="preserve"
       id="flowRoot4157"
       style="font-style:normal;font-weight:normal;line-height:0.01%;font-family:sans-serif;letter-spacing:0px;word-spacing:0px;fill:#000000;fill-opacity:1;stroke:none;stroke-width:1px;stroke-linecap:butt;stroke-linejoin:miter;stroke-opacity:1"><flowRegion
         id="flowRegion4159"
         style="font-family:sans-serif"><rect
           id="rect4161"
           width="10.955056"
           height="72.471909"
           x="16.011236"
           y="-53.932568" /></flowRegion><flowPara
         id="flowPara4163"
         style="font-size:40px;line-height:1.25;font-family:sans-serif"></flowPara></flowRoot>
    <path
       style="opacity:0.4;color:#000000;fill:#8ae234;stroke:#4e9a06;stroke-width:1;stroke-linecap:round;stroke-linejoin:round;stroke-miterlimit:4;stroke-opacity:1;stroke-dasharray:none;stroke-dashoffset:0;marker:none;visibility:visible;display:inline;overflow:visible;enable-background:accumulate"
       d="m 35,540 c 5,-70 55,-50 65,-80 l -10,0 20,-10 20,10 -10,0 c 10,30 60,10 65,80"
       id="path3748"
       transform="translate(0,452.36218)" />
    <rect
       style="fill:#8ae234;stroke:#000000;stroke-width:1;stroke-linecap:round;stroke-linejoin:round;stroke-miterlimit:4;stroke-dasharray:none"
       id="rect3505"
       width="159"
       height="29"
       x="30.5"
       y="992.86218"
       rx="4.9999986"
       ry="5" />
    <path
       style="font-size:14.4849px;line-height:1.25;font-family:'Liberation Sans';-inkscape-font-specification:'Liberation Sans, Normal';text-align:center;text-anchor:middle"
       d="m 234.04769,83.43902 1.31552,0.162672 q -0.3112,1.152851 -1.15285,1.789394 -0.84165,0.636544 -2.1501,0.636544 -1.64794,0 -2.6169,-1.011397 -0.96189,-1.018469 -0.96189,-2.8503 0,-1.895485 0.97603,-2.942246 0.97603,-1.04676 2.53203,-1.04676 1.50649,0 2.4613,1.025542 0.95482,1.025543 0.95482,2.885664 0,0.113163 -0.007,0.33949 h -5.60158 q 0.0707,1.237723 0.7002,1.895485 0.62947,0.657762 1.57014,0.657762 0.7002,0 1.19529,-0.367781 0.49509,-0.367781 0.78507,-1.174069 z m -4.17997,-2.058157 h 4.19411 q -0.0849,-0.947743 -0.48094,-1.421614 -0.60825,-0.735562 -1.57722,-0.735562 -0.87701,0 -1.47819,0.587035 -0.59411,0.587035 -0.65776,1.570141 z m 7.09392,4.477022 v -7.511213 h 1.14578 v 1.067978 q 0.82751,-1.237723 2.39057,-1.237723 0.67898,0 1.2448,0.247545 0.57289,0.240472 0.8558,0.636543 0.2829,0.396072 0.39607,0.94067 0.0707,0.353635 0.0707,1.237723 v 4.618477 h -1.27309 v -4.568968 q 0,-0.777997 -0.14853,-1.159923 -0.14853,-0.388999 -0.53045,-0.615326 -0.37485,-0.233399 -0.88409,-0.233399 -0.81336,0 -1.40747,0.516308 -0.58703,0.516307 -0.58703,1.959139 v 4.102169 z m 10.83538,-1.138706 0.18389,1.124561 q -0.53752,0.113163 -0.96188,0.113163 -0.69313,0 -1.07505,-0.219254 -0.38193,-0.219254 -0.53753,-0.572889 -0.1556,-0.360708 -0.1556,-1.506486 v -4.321423 h -0.9336 v -0.990179 h 0.9336 v -1.860121 l 1.26601,-0.763853 v 2.623974 h 1.28016 v 0.990179 h -1.28016 v 4.39215 q 0,0.544598 0.0637,0.700198 0.0707,0.155599 0.21925,0.247544 0.1556,0.09194 0.43851,0.09194 0.21218,0 0.55874,-0.04951 z m 1.25187,-7.76583 v -1.46405 h 1.27309 v 1.46405 z m 0,8.904536 v -7.511213 h 1.27309 v 7.511213 z m 5.99059,-1.138706 0.18389,1.124561 q -0.53753,0.113163 -0.96189,0.113163 -0.69313,0 -1.07505,-0.219254 -0.38193,-0.219254 -0.53753,-0.572889 -0.1556,-0.360708 -0.1556,-1.506486 v -4.321423 h -0.9336 v -0.990179 h 0.9336 v -1.860121 l 1.26602,-0.763853 v 2.623974 h 1.28016 v 0.990179 h -1.28016 v 4.39215 q 0,0.544598 0.0636,0.700198 0.0707,0.155599 0.21925,0.247544 0.1556,0.09194 0.43851,0.09194 0.21218,0 0.55875,-0.04951 z m 1.18821,4.031443 -0.14146,-1.195288 q 0.41729,0.113164 0.72849,0.113164 0.42437,0 0.67898,-0.141455 0.25462,-0.141454 0.41729,-0.396071 0.12024,-0.190963 0.389,-0.947743 0.0354,-0.10609 0.11316,-0.311199 l -2.8503,-7.525358 h 1.37211 l 1.56307,4.349714 q 0.30412,0.827506 0.5446,1.739885 0.21925,-0.877015 0.52338,-1.711594 l 1.6055,-4.378005 h 1.27309 l -2.85738,7.638522 q -0.45972,1.237723 -0.71434,1.704522 -0.33949,0.62947 -0.778,0.919451 -0.4385,0.297054 -1.04676,0.297054 -0.36778,0 -0.82043,-0.155599 z m 6.9949,-6.223981 1.29431,-0.113163 q 0.0919,0.777997 0.42436,1.280159 0.33949,0.49509 1.04676,0.806289 0.70727,0.304126 1.59136,0.304126 0.78507,0 1.38625,-0.233399 0.60118,-0.2334 0.89116,-0.636544 0.29706,-0.410217 0.29706,-0.891161 0,-0.488016 -0.28291,-0.848724 -0.28291,-0.367781 -0.9336,-0.615326 -0.41729,-0.162672 -1.84598,-0.502162 -1.42868,-0.346562 -2.00157,-0.650689 -0.74264,-0.388998 -1.11042,-0.961888 -0.3607,-0.579961 -0.3607,-1.294305 0,-0.78507 0.44558,-1.46405 0.44558,-0.686052 1.30137,-1.039687 0.8558,-0.353636 1.90256,-0.353636 1.15285,0 2.02987,0.374854 0.88409,0.36778 1.35796,1.089196 0.47387,0.721416 0.50923,1.633795 l -1.31552,0.09902 q -0.10609,-0.983106 -0.72142,-1.485268 -0.60825,-0.502162 -1.80354,-0.502162 -1.24479,0 -1.81768,0.459726 -0.56582,0.452653 -0.56582,1.096269 0,0.558744 0.40315,0.919452 0.39607,0.360708 2.06523,0.742634 1.67623,0.374853 2.29863,0.657762 0.9053,0.417289 1.33674,1.060905 0.43143,0.636544 0.43143,1.471123 0,0.827507 -0.47387,1.563068 -0.47387,0.728489 -1.36503,1.138705 -0.88409,0.403145 -1.9945,0.403145 -1.40747,0 -2.36229,-0.410217 -0.94774,-0.410217 -1.49234,-1.230651 -0.53752,-0.827506 -0.56582,-1.867194 z m 15.1073,0.912379 1.31553,0.162672 q -0.3112,1.152851 -1.15285,1.789394 -0.84166,0.636544 -2.15011,0.636544 -1.64794,0 -2.6169,-1.011397 -0.96189,-1.018469 -0.96189,-2.8503 0,-1.895485 0.97604,-2.942246 0.97603,-1.04676 2.53203,-1.04676 1.50648,0 2.4613,1.025542 0.95481,1.025543 0.95481,2.885664 0,0.113163 -0.007,0.33949 h -5.60158 q 0.0707,1.237723 0.7002,1.895485 0.62947,0.657762 1.57014,0.657762 0.70019,0 1.19528,-0.367781 0.49509,-0.367781 0.78507,-1.174069 z m -4.17996,-2.058157 h 4.19411 q -0.0849,-0.947743 -0.48094,-1.421614 -0.60826,-0.735562 -1.57722,-0.735562 -0.87701,0 -1.47819,0.587035 -0.59411,0.587035 -0.65776,1.570141 z m 7.06563,4.477022 V 75.489299 h 1.27309 v 10.368586 z m 8.38823,-2.418865 1.31552,0.162672 q -0.3112,1.152851 -1.15285,1.789394 -0.84165,0.636544 -2.1501,0.636544 -1.64795,0 -2.61691,-1.011397 -0.96188,-1.018469 -0.96188,-2.8503 0,-1.895485 0.97603,-2.942246 0.97603,-1.04676 2.53203,-1.04676 1.50648,0 2.4613,1.025542 0.95481,1.025543 0.95481,2.885664 0,0.113163 -0.007,0.33949 h -5.60158 q 0.0707,1.237723 0.7002,1.895485 0.62947,0.657762 1.57014,0.657762 0.7002,0 1.19529,-0.367781 0.49508,-0.367781 0.78507,-1.174069 z m -4.17997,-2.058157 h 4.19411 q -0.0849,-0.947743 -0.48094,-1.421614 -0.60826,-0.735562 -1.57722,-0.735562 -0.87701,0 -1.47819,0.587035 -0.59411,0.587035 -0.65776,1.570141 z m 11.99531,1.72574 1.25186,0.162672 q -0.2051,1.294305 -1.05383,2.029866 -0.84165,0.728489 -2.0723,0.728489 -1.54185,0 -2.48252,-1.004324 -0.9336,-1.011397 -0.9336,-2.892737 0,-1.216505 0.40315,-2.128884 0.40314,-0.912379 1.22357,-1.365032 0.82751,-0.459726 1.79647,-0.459726 1.22358,0 2.00158,0.622398 0.778,0.615325 0.99725,1.754031 l -1.23772,0.190963 q -0.17682,-0.756779 -0.62948,-1.138705 -0.44558,-0.381927 -1.08212,-0.381927 -0.96189,0 -1.56307,0.693126 -0.60118,0.686052 -0.60118,2.178393 0,1.513559 0.57996,2.199611 0.57997,0.686053 1.51356,0.686053 0.74971,0 1.25187,-0.459726 0.50216,-0.459726 0.63655,-1.414541 z m 5.12064,1.612576 0.18389,1.124561 q -0.53753,0.113163 -0.96189,0.113163 -0.69313,0 -1.07505,-0.219254 -0.38193,-0.219254 -0.53753,-0.572889 -0.1556,-0.360708 -0.1556,-1.506486 v -4.321423 h -0.9336 v -0.990179 h 0.9336 v -1.860121 l 1.26602,-0.763853 v 2.623974 h 1.28016 v 0.990179 h -1.28016 v 4.39215 q 0,0.544598 0.0636,0.700198 0.0707,0.155599 0.21925,0.247544 0.1556,0.09194 0.43851,0.09194 0.21218,0 0.55875,-0.04951 z m 0.77092,-2.6169 q 0,-2.086449 1.15992,-3.090773 0.96896,-0.834579 2.36229,-0.834579 1.54892,0 2.53202,1.01847 0.98311,1.011396 0.98311,2.800791 0,1.449905 -0.43851,2.284484 -0.43143,0.827506 -1.26601,1.287232 -0.82751,0.459726 -1.81061,0.459726 -1.57722,0 -2.55325,-1.011397 -0.96896,-1.011397 -0.96896,-2.913954 z m 1.30845,0 q 0,1.442831 0.62947,2.164247 0.62947,0.714344 1.58429,0.714344 0.94774,0 1.57721,-0.721416 0.62947,-0.721416 0.62947,-2.199612 0,-1.393323 -0.63654,-2.107666 -0.62947,-0.721416 -1.57014,-0.721416 -0.95482,0 -1.58429,0.714343 -0.62947,0.714344 -0.62947,2.157176 z m 7.20708,3.755606 v -7.511213 h 1.14578 v 1.138706 q 0.43851,-0.799216 0.80629,-1.053834 0.37485,-0.254617 0.82043,-0.254617 0.64362,0 1.30845,0.410217 l -0.4385,1.181142 q -0.4668,-0.275836 -0.9336,-0.275836 -0.41729,0 -0.74971,0.254618 -0.33241,0.247544 -0.47387,0.693125 -0.21218,0.678979 -0.21218,1.485268 v 3.932424 z"
       id="flowRoot3507"
       transform="matrix(1.6568991,0,0,1.6568991,-340.39408,871.72152)"
       aria-label="entitySelector" />
    <path
       style="font-size:14.4849px;line-height:1.25;font-family:'Liberation Sans';-inkscape-font-specification:'Liberation Sans, Normal';text-align:center;text-anchor:middle"
       d="m 229.55298,85.857885 3.98194,-10.368586 h 1.47819 l 4.24362,10.368586 h -1.56306 l -1.20944,-3.140281 h -4.33557 l -1.1387,3.140281 z m 2.99176,-4.257769 h 3.51513 l -1.08212,-2.871518 q -0.49509,-1.30845 -0.73556,-2.150102 -0.19804,0.997251 -0.55875,1.980357 z m 7.97801,4.257769 V 84.40798 h 1.4499 v 1.449905 q 0,0.799216 -0.28291,1.287232 -0.2829,0.49509 -0.89823,0.763853 l -0.35363,-0.544599 q 0.40314,-0.176817 0.5941,-0.52338 0.19097,-0.33949 0.21218,-0.983106 z m 7.82241,0 V 75.489299 h 3.88999 q 1.18821,0 1.90256,0.318272 0.72141,0.311199 1.12456,0.96896 0.41021,0.650689 0.41021,1.365033 0,0.664834 -0.3607,1.251868 -0.36071,0.587035 -1.0892,0.947743 0.94067,0.275835 1.44283,0.94067 0.50924,0.664834 0.50924,1.57014 0,0.728489 -0.3112,1.35796 -0.30413,0.622398 -0.75678,0.961888 -0.45266,0.339489 -1.13871,0.516307 -0.67898,0.169745 -1.66916,0.169745 z m 1.37211,-6.011799 h 2.24204 q 0.91238,0 1.30845,-0.120236 0.52338,-0.1556 0.78507,-0.516308 0.26877,-0.360708 0.26877,-0.905306 0,-0.516308 -0.24755,-0.905307 -0.24754,-0.396071 -0.70727,-0.537525 -0.45972,-0.148527 -1.57721,-0.148527 h -2.0723 z m 0,4.788221 h 2.58153 q 0.66484,0 0.9336,-0.04951 0.47387,-0.08487 0.79214,-0.282908 0.31827,-0.198036 0.52338,-0.572889 0.20511,-0.381926 0.20511,-0.877016 0,-0.579962 -0.29705,-1.004324 -0.29706,-0.431435 -0.82751,-0.60118 -0.52338,-0.176817 -1.51356,-0.176817 h -2.39764 z m 8.51553,1.223578 V 84.40798 h 1.44991 v 1.449905 q 0,0.799216 -0.28291,1.287232 -0.28291,0.49509 -0.89823,0.763853 l -0.35364,-0.544599 q 0.40314,-0.176817 0.59411,-0.52338 0.19096,-0.33949 0.21218,-0.983106 z m 15.27705,-3.63537 1.3721,0.346562 q -0.43143,1.690377 -1.55599,2.581538 -1.11749,0.884088 -2.73714,0.884088 -1.67623,0 -2.73007,-0.67898 -1.04676,-0.686052 -1.59843,-1.980358 -0.5446,-1.294305 -0.5446,-2.779573 0,-1.619649 0.61533,-2.822009 0.6224,-1.209433 1.7611,-1.831831 1.14578,-0.629471 2.51789,-0.629471 1.55599,0 2.6169,0.792143 1.0609,0.792143 1.47819,2.227903 l -1.35088,0.318271 q -0.36071,-1.131633 -1.04676,-1.64794 -0.68606,-0.516307 -1.72574,-0.516307 -1.19529,0 -2.00158,0.572889 -0.79922,0.572889 -1.12456,1.541849 -0.32534,0.961888 -0.32534,1.987431 0,1.322595 0.38192,2.312774 0.389,0.983106 1.20236,1.471123 0.81336,0.488017 1.76111,0.488017 1.15285,0 1.95206,-0.664835 0.79922,-0.664834 1.08213,-1.973284 z m 3.23222,3.63537 V 84.40798 h 1.44991 v 1.449905 q 0,0.799216 -0.28291,1.287232 -0.28291,0.49509 -0.89824,0.763853 l -0.35363,-0.544599 q 0.40314,-0.176817 0.59411,-0.52338 0.19096,-0.33949 0.21218,-0.983106 z m 7.879,0 V 75.489299 h 3.57171 q 1.20943,0 1.84598,0.148527 0.89116,0.205108 1.52063,0.742634 0.82043,0.693125 1.22358,1.775249 0.41022,1.075051 0.41022,2.461301 0,1.181142 -0.27584,2.093521 -0.27584,0.912379 -0.70727,1.513559 -0.43144,0.594107 -0.94774,0.94067 -0.50924,0.33949 -1.23773,0.516307 -0.72141,0.176818 -1.66208,0.176818 z m 1.3721,-1.223578 h 2.21376 q 1.02554,0 1.6055,-0.190963 0.58704,-0.190963 0.9336,-0.537526 0.48802,-0.488016 0.75678,-1.30845 0.27583,-0.827507 0.27583,-2.001576 0,-1.626722 -0.53752,-2.496665 -0.53045,-0.877015 -1.29431,-1.174069 -0.55167,-0.212181 -1.77525,-0.212181 h -2.17839 z m 9.25817,1.223578 V 84.40798 h 1.44991 v 1.449905 q 0,0.799216 -0.28291,1.287232 -0.28291,0.49509 -0.89824,0.763853 l -0.35363,-0.544599 q 0.40314,-0.176817 0.59411,-0.52338 0.19096,-0.33949 0.21218,-0.983106 z m 8.07703,0 V 84.40798 h 1.4499 v 1.449905 z m 4.02437,0 V 84.40798 h 1.44991 v 1.449905 z m 4.02437,0 V 84.40798 h 1.44991 v 1.449905 z"
       id="flowRoot3577"
       transform="matrix(1.6568991,0,0,1.6568991,-340.39408,841.72161)"
       aria-label="A, B, C, D, ..." />
  </g>
</svg>
