<?xml version="1.0" encoding="UTF-8" standalone="no"?>
<!-- Created with Inkscape (http://www.inkscape.org/) -->

<svg
   id="svg2"
   width="310"
   height="150"
   version="1.0"
   xmlns="http://www.w3.org/2000/svg"
   xmlns:svg="http://www.w3.org/2000/svg"
   xmlns:rdf="http://www.w3.org/1999/02/22-rdf-syntax-ns#"
   xmlns:cc="http://creativecommons.org/ns#"
   xmlns:dc="http://purl.org/dc/elements/1.1/">
  <metadata
     id="metadata7">
    <rdf:RDF>
      <cc:Work
         rdf:about="">
        <dc:format>image/svg+xml</dc:format>
        <dc:type
           rdf:resource="http://purl.org/dc/dcmitype/StillImage" />
        <dc:language>en</dc:language>
        <cc:license
           rdf:resource="https://timefold.ai/license" />
      </cc:Work>
    </rdf:RDF>
  </metadata>
  <defs
     id="defs5" />
  <g
     id="layer10">
    <g
       id="g8089"
       transform="translate(-75,-812.36218)">
      <rect
         y="921.86218"
         x="100.5"
         height="30"
         width="30"
         id="rect2165"
         style="fill:#babdb6;fill-opacity:1;fill-rule:nonzero;stroke:#000000;stroke-width:1;stroke-linecap:round;stroke-linejoin:round;stroke-miterlimit:4;stroke-dasharray:none;stroke-opacity:1" />
      <rect
         y="921.86218"
         x="130.5"
         height="30"
         width="30"
         id="rect4107"
         style="fill:#ffffff;fill-opacity:1;fill-rule:nonzero;stroke:#000000;stroke-width:1;stroke-linecap:round;stroke-linejoin:round;stroke-miterlimit:4;stroke-dasharray:none;stroke-opacity:1" />
      <rect
         y="921.86218"
         x="160.5"
         height="30"
         width="30"
         id="rect5078"
         style="fill:#babdb6;fill-opacity:1;fill-rule:nonzero;stroke:#000000;stroke-width:1;stroke-linecap:round;stroke-linejoin:round;stroke-miterlimit:4;stroke-dasharray:none;stroke-opacity:1" />
      <rect
         y="921.86218"
         x="190.5"
         height="30"
         width="30"
         id="rect5080"
         style="fill:#ffffff;fill-opacity:1;fill-rule:nonzero;stroke:#000000;stroke-width:1;stroke-linecap:round;stroke-linejoin:round;stroke-miterlimit:4;stroke-dasharray:none;stroke-opacity:1" />
      <rect
         y="891.86218"
         x="130.5"
         height="30"
         width="30"
         id="rect5082"
         style="fill:#babdb6;fill-opacity:1;fill-rule:nonzero;stroke:#000000;stroke-width:1;stroke-linecap:round;stroke-linejoin:round;stroke-miterlimit:4;stroke-dasharray:none;stroke-opacity:1" />
      <rect
         y="891.86218"
         x="160.5"
         height="30"
         width="30"
         id="rect5084"
         style="fill:#ffffff;fill-opacity:1;fill-rule:nonzero;stroke:#000000;stroke-width:1;stroke-linecap:round;stroke-linejoin:round;stroke-miterlimit:4;stroke-dasharray:none;stroke-opacity:1" />
      <rect
         y="891.86218"
         x="100.5"
         height="30"
         width="30"
         id="rect5086"
         style="fill:#ffffff;fill-opacity:1;fill-rule:nonzero;stroke:#000000;stroke-width:1;stroke-linecap:round;stroke-linejoin:round;stroke-miterlimit:4;stroke-dasharray:none;stroke-opacity:1" />
      <rect
         y="891.86218"
         x="190.5"
         height="30"
         width="30"
         id="rect5088"
         style="fill:#babdb6;fill-opacity:1;fill-rule:nonzero;stroke:#000000;stroke-width:1;stroke-linecap:round;stroke-linejoin:round;stroke-miterlimit:4;stroke-dasharray:none;stroke-opacity:1" />
      <rect
         y="861.86218"
         x="100.5"
         height="30"
         width="30"
         id="rect5090"
         style="fill:#babdb6;fill-opacity:1;fill-rule:nonzero;stroke:#000000;stroke-width:1;stroke-linecap:round;stroke-linejoin:round;stroke-miterlimit:4;stroke-dasharray:none;stroke-opacity:1" />
      <rect
         y="861.86218"
         x="130.5"
         height="30"
         width="30"
         id="rect5092"
         style="fill:#ffffff;fill-opacity:1;fill-rule:nonzero;stroke:#000000;stroke-width:1;stroke-linecap:round;stroke-linejoin:round;stroke-miterlimit:4;stroke-dasharray:none;stroke-opacity:1" />
      <rect
         y="861.86218"
         x="160.5"
         height="30"
         width="30"
         id="rect5094"
         style="fill:#babdb6;fill-opacity:1;fill-rule:nonzero;stroke:#000000;stroke-width:1;stroke-linecap:round;stroke-linejoin:round;stroke-miterlimit:4;stroke-dasharray:none;stroke-opacity:1" />
      <rect
         y="861.86218"
         x="190.5"
         height="30"
         width="30"
         id="rect5096"
         style="fill:#ffffff;fill-opacity:1;fill-rule:nonzero;stroke:#000000;stroke-width:1;stroke-linecap:round;stroke-linejoin:round;stroke-miterlimit:4;stroke-dasharray:none;stroke-opacity:1" />
      <rect
         y="831.86218"
         x="130.5"
         height="30"
         width="30"
         id="rect5098"
         style="fill:#babdb6;fill-opacity:1;fill-rule:nonzero;stroke:#000000;stroke-width:1;stroke-linecap:round;stroke-linejoin:round;stroke-miterlimit:4;stroke-dasharray:none;stroke-opacity:1" />
      <rect
         y="831.86218"
         x="160.5"
         height="30"
         width="30"
         id="rect5100"
         style="fill:#ffffff;fill-opacity:1;fill-rule:nonzero;stroke:#000000;stroke-width:1;stroke-linecap:round;stroke-linejoin:round;stroke-miterlimit:4;stroke-dasharray:none;stroke-opacity:1" />
      <rect
         y="831.86218"
         x="100.5"
         height="30"
         width="30"
         id="rect5102"
         style="fill:#ffffff;fill-opacity:1;fill-rule:nonzero;stroke:#000000;stroke-width:1;stroke-linecap:round;stroke-linejoin:round;stroke-miterlimit:4;stroke-dasharray:none;stroke-opacity:1" />
      <rect
         y="831.86218"
         x="190.5"
         height="30"
         width="30"
         id="rect5104"
         style="fill:#babdb6;fill-opacity:1;fill-rule:nonzero;stroke:#000000;stroke-width:1;stroke-linecap:round;stroke-linejoin:round;stroke-miterlimit:4;stroke-dasharray:none;stroke-opacity:1" />
    </g>
    <g
       id="g8075"
       transform="translate(65,-852.36218)">
      <rect
         y="871.86218"
         x="50.5"
         height="30"
         width="30"
         id="rect5126"
         style="fill:none;fill-opacity:1;fill-rule:nonzero;stroke:#000000;stroke-width:1;stroke-linecap:round;stroke-linejoin:round;stroke-miterlimit:4;stroke-dasharray:none;stroke-opacity:1" />
      <path
         id="path8065"
         d="M 65,894.0583 L 60.259168,881.36218 L 60,894.31116 L 62.432525,894.86218 L 65,894.0583 z"
         style="fill:#fce94f;fill-opacity:1;fill-rule:nonzero;stroke:#000000;stroke-width:0.99999994;stroke-linecap:round;stroke-linejoin:round;stroke-miterlimit:4;stroke-opacity:1" />
      <path
         id="path8069"
         d="M 66,894.0583 L 70.740832,881.36218 L 71,894.31116 L 68.567475,894.86218 L 66,894.0583 z"
         style="fill:#fce94f;fill-opacity:1;fill-rule:nonzero;stroke:#000000;stroke-width:0.99999994;stroke-linecap:round;stroke-linejoin:round;stroke-miterlimit:4;stroke-opacity:1" />
      <path
         id="path8071"
         d="M 62,894.04086 L 55,882.86218 L 56.843843,894.29921 L 59.352339,894.86218 L 62,894.04086 z"
         style="fill:#fce94f;fill-opacity:1;fill-rule:nonzero;stroke:#000000;stroke-width:0.99999994;stroke-linecap:round;stroke-linejoin:round;stroke-miterlimit:4;stroke-opacity:1" />
      <path
         id="path8073"
         d="M 69,894.04086 L 76,882.86218 L 74.156157,894.29921 L 71.647661,894.86218 L 69,894.04086 z"
         style="fill:#fce94f;fill-opacity:1;fill-rule:nonzero;stroke:#000000;stroke-width:0.99999994;stroke-linecap:round;stroke-linejoin:round;stroke-miterlimit:4;stroke-opacity:1" />
      <path
         transform="matrix(0.3254386,0,0,0.2248485,49.68421,684.2765)"
         d="m 37.843667,874.30286 c 0,4.9125 -2.751458,8.89488 -6.145553,8.89488 -3.394095,0 -6.145552,-3.98238 -6.145552,-8.89488 0,-4.91251 2.751457,-8.89488 6.145552,-8.89488 3.394095,0 6.145553,3.98237 6.145553,8.89488 z"
         id="path8037"
         style="fill:#fce94f;fill-opacity:1;fill-rule:nonzero;stroke:#000000;stroke-width:3.69675326;stroke-linecap:round;stroke-linejoin:round;stroke-miterlimit:4;stroke-dasharray:none;stroke-opacity:1" />
      <path
         transform="matrix(0.3254386,0,0,0.2248485,60.68421,684.2765)"
         d="m 37.843667,874.30286 c 0,4.9125 -2.751458,8.89488 -6.145553,8.89488 -3.394095,0 -6.145552,-3.98238 -6.145552,-8.89488 0,-4.91251 2.751457,-8.89488 6.145552,-8.89488 3.394095,0 6.145553,3.98237 6.145553,8.89488 z"
         id="path8039"
         style="fill:#fce94f;fill-opacity:1;fill-rule:nonzero;stroke:#000000;stroke-width:3.69675326;stroke-linecap:round;stroke-linejoin:round;stroke-miterlimit:4;stroke-dasharray:none;stroke-opacity:1" />
      <path
         transform="matrix(0.3254386,0,0,0.2248485,44.18421,686.2765)"
         d="m 37.843667,874.30286 c 0,4.9125 -2.751458,8.89488 -6.145553,8.89488 -3.394095,0 -6.145552,-3.98238 -6.145552,-8.89488 0,-4.91251 2.751457,-8.89488 6.145552,-8.89488 3.394095,0 6.145553,3.98237 6.145553,8.89488 z"
         id="path8041"
         style="fill:#fce94f;fill-opacity:1;fill-rule:nonzero;stroke:#000000;stroke-width:3.69675326;stroke-linecap:round;stroke-linejoin:round;stroke-miterlimit:4;stroke-dasharray:none;stroke-opacity:1" />
      <path
         transform="matrix(0.3254386,0,0,0.2248485,66.18421,686.2765)"
         d="m 37.843667,874.30286 c 0,4.9125 -2.751458,8.89488 -6.145553,8.89488 -3.394095,0 -6.145552,-3.98238 -6.145552,-8.89488 0,-4.91251 2.751457,-8.89488 6.145552,-8.89488 3.394095,0 6.145553,3.98237 6.145553,8.89488 z"
         id="path8043"
         style="fill:#fce94f;fill-opacity:1;fill-rule:nonzero;stroke:#000000;stroke-width:3.69675326;stroke-linecap:round;stroke-linejoin:round;stroke-miterlimit:4;stroke-dasharray:none;stroke-opacity:1" />
      <path
         id="path8061"
         d="M 68.000002,894.0957 L 65.506898,880.86221 L 63.000002,893.8597 L 65.368588,894.86221 L 68.000002,894.0957 z"
         style="fill:#fce94f;fill-opacity:1;fill-rule:nonzero;stroke:#000000;stroke-width:1;stroke-linecap:round;stroke-linejoin:round;stroke-miterlimit:4;stroke-opacity:1" />
      <path
         transform="matrix(0.3254386,0,0,0.2248485,55.18421,683.2765)"
         d="m 37.843667,874.30286 c 0,4.9125 -2.751458,8.89488 -6.145553,8.89488 -3.394095,0 -6.145552,-3.98238 -6.145552,-8.89488 0,-4.91251 2.751457,-8.89488 6.145552,-8.89488 3.394095,0 6.145553,3.98237 6.145553,8.89488 z"
         id="path5124"
         style="fill:#fce94f;fill-opacity:1;fill-rule:nonzero;stroke:#000000;stroke-width:3.69675326;stroke-linecap:round;stroke-linejoin:round;stroke-miterlimit:4;stroke-dasharray:none;stroke-opacity:1" />
      <path
         transform="matrix(0.9454765,0,0,1.2119233,18.553015,-205.05171)"
         d="m 59.702156,907.57715 c 0,0.91142 -4.498573,1.65027 -10.047844,1.65027 -5.549271,0 -10.047844,-0.73885 -10.047844,-1.65027 0,-0.91142 4.498573,-1.65027 10.047844,-1.65027 5.549271,0 10.047844,0.73885 10.047844,1.65027 z"
         id="path5128"
         style="fill:#fce94f;fill-opacity:1;fill-rule:nonzero;stroke:#000000;stroke-width:0.93419403;stroke-linecap:round;stroke-linejoin:round;stroke-miterlimit:4;stroke-dasharray:none;stroke-opacity:1" />
    </g>
    <g
       id="g8107"
       transform="translate(35,-852.36218)">
      <rect
         y="871.86218"
         x="50.5"
         height="30"
         width="30"
         id="rect8109"
         style="fill:none;fill-opacity:1;fill-rule:nonzero;stroke:#000000;stroke-width:1;stroke-linecap:round;stroke-linejoin:round;stroke-miterlimit:4;stroke-dasharray:none;stroke-opacity:1" />
      <path
         id="path8111"
         d="M 65,894.0583 L 60.259168,881.36218 L 60,894.31116 L 62.432525,894.86218 L 65,894.0583 z"
         style="fill:#fce94f;fill-opacity:1;fill-rule:nonzero;stroke:#000000;stroke-width:0.99999994;stroke-linecap:round;stroke-linejoin:round;stroke-miterlimit:4;stroke-opacity:1" />
      <path
         id="path8113"
         d="M 66,894.0583 L 70.740832,881.36218 L 71,894.31116 L 68.567475,894.86218 L 66,894.0583 z"
         style="fill:#fce94f;fill-opacity:1;fill-rule:nonzero;stroke:#000000;stroke-width:0.99999994;stroke-linecap:round;stroke-linejoin:round;stroke-miterlimit:4;stroke-opacity:1" />
      <path
         id="path8115"
         d="M 62,894.04086 L 55,882.86218 L 56.843843,894.29921 L 59.352339,894.86218 L 62,894.04086 z"
         style="fill:#fce94f;fill-opacity:1;fill-rule:nonzero;stroke:#000000;stroke-width:0.99999994;stroke-linecap:round;stroke-linejoin:round;stroke-miterlimit:4;stroke-opacity:1" />
      <path
         id="path8117"
         d="M 69,894.04086 L 76,882.86218 L 74.156157,894.29921 L 71.647661,894.86218 L 69,894.04086 z"
         style="fill:#fce94f;fill-opacity:1;fill-rule:nonzero;stroke:#000000;stroke-width:0.99999994;stroke-linecap:round;stroke-linejoin:round;stroke-miterlimit:4;stroke-opacity:1" />
      <path
         transform="matrix(0.3254386,0,0,0.2248485,49.68421,684.2765)"
         d="m 37.843667,874.30286 c 0,4.9125 -2.751458,8.89488 -6.145553,8.89488 -3.394095,0 -6.145552,-3.98238 -6.145552,-8.89488 0,-4.91251 2.751457,-8.89488 6.145552,-8.89488 3.394095,0 6.145553,3.98237 6.145553,8.89488 z"
         id="path8119"
         style="fill:#fce94f;fill-opacity:1;fill-rule:nonzero;stroke:#000000;stroke-width:3.69675326;stroke-linecap:round;stroke-linejoin:round;stroke-miterlimit:4;stroke-dasharray:none;stroke-opacity:1" />
      <path
         transform="matrix(0.3254386,0,0,0.2248485,60.68421,684.2765)"
         d="m 37.843667,874.30286 c 0,4.9125 -2.751458,8.89488 -6.145553,8.89488 -3.394095,0 -6.145552,-3.98238 -6.145552,-8.89488 0,-4.91251 2.751457,-8.89488 6.145552,-8.89488 3.394095,0 6.145553,3.98237 6.145553,8.89488 z"
         id="path8121"
         style="fill:#fce94f;fill-opacity:1;fill-rule:nonzero;stroke:#000000;stroke-width:3.69675326;stroke-linecap:round;stroke-linejoin:round;stroke-miterlimit:4;stroke-dasharray:none;stroke-opacity:1" />
      <path
         transform="matrix(0.3254386,0,0,0.2248485,44.18421,686.2765)"
         d="m 37.843667,874.30286 c 0,4.9125 -2.751458,8.89488 -6.145553,8.89488 -3.394095,0 -6.145552,-3.98238 -6.145552,-8.89488 0,-4.91251 2.751457,-8.89488 6.145552,-8.89488 3.394095,0 6.145553,3.98237 6.145553,8.89488 z"
         id="path8123"
         style="fill:#fce94f;fill-opacity:1;fill-rule:nonzero;stroke:#000000;stroke-width:3.69675326;stroke-linecap:round;stroke-linejoin:round;stroke-miterlimit:4;stroke-dasharray:none;stroke-opacity:1" />
      <path
         transform="matrix(0.3254386,0,0,0.2248485,66.18421,686.2765)"
         d="m 37.843667,874.30286 c 0,4.9125 -2.751458,8.89488 -6.145553,8.89488 -3.394095,0 -6.145552,-3.98238 -6.145552,-8.89488 0,-4.91251 2.751457,-8.89488 6.145552,-8.89488 3.394095,0 6.145553,3.98237 6.145553,8.89488 z"
         id="path8125"
         style="fill:#fce94f;fill-opacity:1;fill-rule:nonzero;stroke:#000000;stroke-width:3.69675326;stroke-linecap:round;stroke-linejoin:round;stroke-miterlimit:4;stroke-dasharray:none;stroke-opacity:1" />
      <path
         id="path8127"
         d="M 68.000002,894.0957 L 65.506898,880.86221 L 63.000002,893.8597 L 65.368588,894.86221 L 68.000002,894.0957 z"
         style="fill:#fce94f;fill-opacity:1;fill-rule:nonzero;stroke:#000000;stroke-width:1;stroke-linecap:round;stroke-linejoin:round;stroke-miterlimit:4;stroke-opacity:1" />
      <path
         transform="matrix(0.3254386,0,0,0.2248485,55.18421,683.2765)"
         d="m 37.843667,874.30286 c 0,4.9125 -2.751458,8.89488 -6.145553,8.89488 -3.394095,0 -6.145552,-3.98238 -6.145552,-8.89488 0,-4.91251 2.751457,-8.89488 6.145552,-8.89488 3.394095,0 6.145553,3.98237 6.145553,8.89488 z"
         id="path8129"
         style="fill:#fce94f;fill-opacity:1;fill-rule:nonzero;stroke:#000000;stroke-width:3.69675326;stroke-linecap:round;stroke-linejoin:round;stroke-miterlimit:4;stroke-dasharray:none;stroke-opacity:1" />
      <path
         transform="matrix(0.9454765,0,0,1.2119233,18.553015,-205.05171)"
         d="m 59.702156,907.57715 c 0,0.91142 -4.498573,1.65027 -10.047844,1.65027 -5.549271,0 -10.047844,-0.73885 -10.047844,-1.65027 0,-0.91142 4.498573,-1.65027 10.047844,-1.65027 5.549271,0 10.047844,0.73885 10.047844,1.65027 z"
         id="path8131"
         style="fill:#fce94f;fill-opacity:1;fill-rule:nonzero;stroke:#000000;stroke-width:0.93419403;stroke-linecap:round;stroke-linejoin:round;stroke-miterlimit:4;stroke-dasharray:none;stroke-opacity:1" />
    </g>
    <g
       id="g8133"
       transform="translate(4.9999999,-852.36218)">
      <rect
         y="871.86218"
         x="50.5"
         height="30"
         width="30"
         id="rect8135"
         style="fill:none;fill-opacity:1;fill-rule:nonzero;stroke:#000000;stroke-width:1;stroke-linecap:round;stroke-linejoin:round;stroke-miterlimit:4;stroke-dasharray:none;stroke-opacity:1" />
      <path
         id="path8137"
         d="M 65,894.0583 L 60.259168,881.36218 L 60,894.31116 L 62.432525,894.86218 L 65,894.0583 z"
         style="fill:#fce94f;fill-opacity:1;fill-rule:nonzero;stroke:#000000;stroke-width:0.99999994;stroke-linecap:round;stroke-linejoin:round;stroke-miterlimit:4;stroke-opacity:1" />
      <path
         id="path8139"
         d="M 66,894.0583 L 70.740832,881.36218 L 71,894.31116 L 68.567475,894.86218 L 66,894.0583 z"
         style="fill:#fce94f;fill-opacity:1;fill-rule:nonzero;stroke:#000000;stroke-width:0.99999994;stroke-linecap:round;stroke-linejoin:round;stroke-miterlimit:4;stroke-opacity:1" />
      <path
         id="path8141"
         d="M 62,894.04086 L 55,882.86218 L 56.843843,894.29921 L 59.352339,894.86218 L 62,894.04086 z"
         style="fill:#fce94f;fill-opacity:1;fill-rule:nonzero;stroke:#000000;stroke-width:0.99999994;stroke-linecap:round;stroke-linejoin:round;stroke-miterlimit:4;stroke-opacity:1" />
      <path
         id="path8143"
         d="M 69,894.04086 L 76,882.86218 L 74.156157,894.29921 L 71.647661,894.86218 L 69,894.04086 z"
         style="fill:#fce94f;fill-opacity:1;fill-rule:nonzero;stroke:#000000;stroke-width:0.99999994;stroke-linecap:round;stroke-linejoin:round;stroke-miterlimit:4;stroke-opacity:1" />
      <path
         transform="matrix(0.3254386,0,0,0.2248485,49.68421,684.2765)"
         d="m 37.843667,874.30286 c 0,4.9125 -2.751458,8.89488 -6.145553,8.89488 -3.394095,0 -6.145552,-3.98238 -6.145552,-8.89488 0,-4.91251 2.751457,-8.89488 6.145552,-8.89488 3.394095,0 6.145553,3.98237 6.145553,8.89488 z"
         id="path8145"
         style="fill:#fce94f;fill-opacity:1;fill-rule:nonzero;stroke:#000000;stroke-width:3.69675326;stroke-linecap:round;stroke-linejoin:round;stroke-miterlimit:4;stroke-dasharray:none;stroke-opacity:1" />
      <path
         transform="matrix(0.3254386,0,0,0.2248485,60.68421,684.2765)"
         d="m 37.843667,874.30286 c 0,4.9125 -2.751458,8.89488 -6.145553,8.89488 -3.394095,0 -6.145552,-3.98238 -6.145552,-8.89488 0,-4.91251 2.751457,-8.89488 6.145552,-8.89488 3.394095,0 6.145553,3.98237 6.145553,8.89488 z"
         id="path8147"
         style="fill:#fce94f;fill-opacity:1;fill-rule:nonzero;stroke:#000000;stroke-width:3.69675326;stroke-linecap:round;stroke-linejoin:round;stroke-miterlimit:4;stroke-dasharray:none;stroke-opacity:1" />
      <path
         transform="matrix(0.3254386,0,0,0.2248485,44.18421,686.2765)"
         d="m 37.843667,874.30286 c 0,4.9125 -2.751458,8.89488 -6.145553,8.89488 -3.394095,0 -6.145552,-3.98238 -6.145552,-8.89488 0,-4.91251 2.751457,-8.89488 6.145552,-8.89488 3.394095,0 6.145553,3.98237 6.145553,8.89488 z"
         id="path8149"
         style="fill:#fce94f;fill-opacity:1;fill-rule:nonzero;stroke:#000000;stroke-width:3.69675326;stroke-linecap:round;stroke-linejoin:round;stroke-miterlimit:4;stroke-dasharray:none;stroke-opacity:1" />
      <path
         transform="matrix(0.3254386,0,0,0.2248485,66.18421,686.2765)"
         d="m 37.843667,874.30286 c 0,4.9125 -2.751458,8.89488 -6.145553,8.89488 -3.394095,0 -6.145552,-3.98238 -6.145552,-8.89488 0,-4.91251 2.751457,-8.89488 6.145552,-8.89488 3.394095,0 6.145553,3.98237 6.145553,8.89488 z"
         id="path8151"
         style="fill:#fce94f;fill-opacity:1;fill-rule:nonzero;stroke:#000000;stroke-width:3.69675326;stroke-linecap:round;stroke-linejoin:round;stroke-miterlimit:4;stroke-dasharray:none;stroke-opacity:1" />
      <path
         id="path8153"
         d="M 68.000002,894.0957 L 65.506898,880.86221 L 63.000002,893.8597 L 65.368588,894.86221 L 68.000002,894.0957 z"
         style="fill:#fce94f;fill-opacity:1;fill-rule:nonzero;stroke:#000000;stroke-width:1;stroke-linecap:round;stroke-linejoin:round;stroke-miterlimit:4;stroke-opacity:1" />
      <path
         transform="matrix(0.3254386,0,0,0.2248485,55.18421,683.2765)"
         d="m 37.843667,874.30286 c 0,4.9125 -2.751458,8.89488 -6.145553,8.89488 -3.394095,0 -6.145552,-3.98238 -6.145552,-8.89488 0,-4.91251 2.751457,-8.89488 6.145552,-8.89488 3.394095,0 6.145553,3.98237 6.145553,8.89488 z"
         id="path8155"
         style="fill:#fce94f;fill-opacity:1;fill-rule:nonzero;stroke:#000000;stroke-width:3.69675326;stroke-linecap:round;stroke-linejoin:round;stroke-miterlimit:4;stroke-dasharray:none;stroke-opacity:1" />
      <path
         transform="matrix(0.9454765,0,0,1.2119233,18.553015,-205.05171)"
         d="m 59.702156,907.57715 c 0,0.91142 -4.498573,1.65027 -10.047844,1.65027 -5.549271,0 -10.047844,-0.73885 -10.047844,-1.65027 0,-0.91142 4.498573,-1.65027 10.047844,-1.65027 5.549271,0 10.047844,0.73885 10.047844,1.65027 z"
         id="path8157"
         style="fill:#fce94f;fill-opacity:1;fill-rule:nonzero;stroke:#000000;stroke-width:0.93419403;stroke-linecap:round;stroke-linejoin:round;stroke-miterlimit:4;stroke-dasharray:none;stroke-opacity:1" />
    </g>
    <g
       id="g8159"
       transform="translate(-25,-852.36218)">
      <rect
         y="871.86218"
         x="50.5"
         height="30"
         width="30"
         id="rect8161"
         style="fill:none;fill-opacity:1;fill-rule:nonzero;stroke:#000000;stroke-width:1;stroke-linecap:round;stroke-linejoin:round;stroke-miterlimit:4;stroke-dasharray:none;stroke-opacity:1" />
      <path
         id="path8163"
         d="M 65,894.0583 L 60.259168,881.36218 L 60,894.31116 L 62.432525,894.86218 L 65,894.0583 z"
         style="fill:#fce94f;fill-opacity:1;fill-rule:nonzero;stroke:#000000;stroke-width:0.99999994;stroke-linecap:round;stroke-linejoin:round;stroke-miterlimit:4;stroke-opacity:1" />
      <path
         id="path8165"
         d="M 66,894.0583 L 70.740832,881.36218 L 71,894.31116 L 68.567475,894.86218 L 66,894.0583 z"
         style="fill:#fce94f;fill-opacity:1;fill-rule:nonzero;stroke:#000000;stroke-width:0.99999994;stroke-linecap:round;stroke-linejoin:round;stroke-miterlimit:4;stroke-opacity:1" />
      <path
         id="path8167"
         d="M 62,894.04086 L 55,882.86218 L 56.843843,894.29921 L 59.352339,894.86218 L 62,894.04086 z"
         style="fill:#fce94f;fill-opacity:1;fill-rule:nonzero;stroke:#000000;stroke-width:0.99999994;stroke-linecap:round;stroke-linejoin:round;stroke-miterlimit:4;stroke-opacity:1" />
      <path
         id="path8169"
         d="M 69,894.04086 L 76,882.86218 L 74.156157,894.29921 L 71.647661,894.86218 L 69,894.04086 z"
         style="fill:#fce94f;fill-opacity:1;fill-rule:nonzero;stroke:#000000;stroke-width:0.99999994;stroke-linecap:round;stroke-linejoin:round;stroke-miterlimit:4;stroke-opacity:1" />
      <path
         transform="matrix(0.3254386,0,0,0.2248485,49.68421,684.2765)"
         d="m 37.843667,874.30286 c 0,4.9125 -2.751458,8.89488 -6.145553,8.89488 -3.394095,0 -6.145552,-3.98238 -6.145552,-8.89488 0,-4.91251 2.751457,-8.89488 6.145552,-8.89488 3.394095,0 6.145553,3.98237 6.145553,8.89488 z"
         id="path8171"
         style="fill:#fce94f;fill-opacity:1;fill-rule:nonzero;stroke:#000000;stroke-width:3.69675326;stroke-linecap:round;stroke-linejoin:round;stroke-miterlimit:4;stroke-dasharray:none;stroke-opacity:1" />
      <path
         transform="matrix(0.3254386,0,0,0.2248485,60.68421,684.2765)"
         d="m 37.843667,874.30286 c 0,4.9125 -2.751458,8.89488 -6.145553,8.89488 -3.394095,0 -6.145552,-3.98238 -6.145552,-8.89488 0,-4.91251 2.751457,-8.89488 6.145552,-8.89488 3.394095,0 6.145553,3.98237 6.145553,8.89488 z"
         id="path8173"
         style="fill:#fce94f;fill-opacity:1;fill-rule:nonzero;stroke:#000000;stroke-width:3.69675326;stroke-linecap:round;stroke-linejoin:round;stroke-miterlimit:4;stroke-dasharray:none;stroke-opacity:1" />
      <path
         transform="matrix(0.3254386,0,0,0.2248485,44.18421,686.2765)"
         d="m 37.843667,874.30286 c 0,4.9125 -2.751458,8.89488 -6.145553,8.89488 -3.394095,0 -6.145552,-3.98238 -6.145552,-8.89488 0,-4.91251 2.751457,-8.89488 6.145552,-8.89488 3.394095,0 6.145553,3.98237 6.145553,8.89488 z"
         id="path8175"
         style="fill:#fce94f;fill-opacity:1;fill-rule:nonzero;stroke:#000000;stroke-width:3.69675326;stroke-linecap:round;stroke-linejoin:round;stroke-miterlimit:4;stroke-dasharray:none;stroke-opacity:1" />
      <path
         transform="matrix(0.3254386,0,0,0.2248485,66.18421,686.2765)"
         d="m 37.843667,874.30286 c 0,4.9125 -2.751458,8.89488 -6.145553,8.89488 -3.394095,0 -6.145552,-3.98238 -6.145552,-8.89488 0,-4.91251 2.751457,-8.89488 6.145552,-8.89488 3.394095,0 6.145553,3.98237 6.145553,8.89488 z"
         id="path8177"
         style="fill:#fce94f;fill-opacity:1;fill-rule:nonzero;stroke:#000000;stroke-width:3.69675326;stroke-linecap:round;stroke-linejoin:round;stroke-miterlimit:4;stroke-dasharray:none;stroke-opacity:1" />
      <path
         id="path8179"
         d="M 68.000002,894.0957 L 65.506898,880.86221 L 63.000002,893.8597 L 65.368588,894.86221 L 68.000002,894.0957 z"
         style="fill:#fce94f;fill-opacity:1;fill-rule:nonzero;stroke:#000000;stroke-width:1;stroke-linecap:round;stroke-linejoin:round;stroke-miterlimit:4;stroke-opacity:1" />
      <path
         transform="matrix(0.3254386,0,0,0.2248485,55.18421,683.2765)"
         d="m 37.843667,874.30286 c 0,4.9125 -2.751458,8.89488 -6.145553,8.89488 -3.394095,0 -6.145552,-3.98238 -6.145552,-8.89488 0,-4.91251 2.751457,-8.89488 6.145552,-8.89488 3.394095,0 6.145553,3.98237 6.145553,8.89488 z"
         id="path8181"
         style="fill:#fce94f;fill-opacity:1;fill-rule:nonzero;stroke:#000000;stroke-width:3.69675326;stroke-linecap:round;stroke-linejoin:round;stroke-miterlimit:4;stroke-dasharray:none;stroke-opacity:1" />
      <path
         transform="matrix(0.9454765,0,0,1.2119233,18.553015,-205.05171)"
         d="m 59.702156,907.57715 c 0,0.91142 -4.498573,1.65027 -10.047844,1.65027 -5.549271,0 -10.047844,-0.73885 -10.047844,-1.65027 0,-0.91142 4.498573,-1.65027 10.047844,-1.65027 5.549271,0 10.047844,0.73885 10.047844,1.65027 z"
         id="path8183"
         style="fill:#fce94f;fill-opacity:1;fill-rule:nonzero;stroke:#000000;stroke-width:0.93419403;stroke-linecap:round;stroke-linejoin:round;stroke-miterlimit:4;stroke-dasharray:none;stroke-opacity:1" />
    </g>
    <path
       style="fill:#e9b96e;fill-opacity:1;fill-rule:nonzero;stroke:#8f5902;stroke-width:1;stroke-linecap:round;stroke-linejoin:round;stroke-miterlimit:4;stroke-opacity:1"
       d="M 101.27372,86.567557 L 103.26229,96.512207 L 93.38339,99.499997 L 96.38339,94.499997 C 88.972,90.986137 88.11736,69.608487 96.38339,40.499997 L 98.38339,41.499997 C 90.98186,70.572047 90.35267,88.293277 98.38339,91.499997 L 101.27372,86.567557 z"
       id="rect3222" />
    <g
       id="g3228"
       transform="translate(75,-812.36218)">
      <rect
         y="921.86218"
         x="100.5"
         height="30"
         width="30"
         id="rect3230"
         style="fill:#babdb6;fill-opacity:1;fill-rule:nonzero;stroke:#000000;stroke-width:1;stroke-linecap:round;stroke-linejoin:round;stroke-miterlimit:4;stroke-dasharray:none;stroke-opacity:1" />
      <rect
         y="921.86218"
         x="130.5"
         height="30"
         width="30"
         id="rect3232"
         style="fill:#ffffff;fill-opacity:1;fill-rule:nonzero;stroke:#000000;stroke-width:1;stroke-linecap:round;stroke-linejoin:round;stroke-miterlimit:4;stroke-dasharray:none;stroke-opacity:1" />
      <rect
         y="921.86218"
         x="160.5"
         height="30"
         width="30"
         id="rect3234"
         style="fill:#babdb6;fill-opacity:1;fill-rule:nonzero;stroke:#000000;stroke-width:1;stroke-linecap:round;stroke-linejoin:round;stroke-miterlimit:4;stroke-dasharray:none;stroke-opacity:1" />
      <rect
         y="921.86218"
         x="190.5"
         height="30"
         width="30"
         id="rect3236"
         style="fill:#ffffff;fill-opacity:1;fill-rule:nonzero;stroke:#000000;stroke-width:1;stroke-linecap:round;stroke-linejoin:round;stroke-miterlimit:4;stroke-dasharray:none;stroke-opacity:1" />
      <rect
         y="891.86218"
         x="130.5"
         height="30"
         width="30"
         id="rect3238"
         style="fill:#babdb6;fill-opacity:1;fill-rule:nonzero;stroke:#000000;stroke-width:1;stroke-linecap:round;stroke-linejoin:round;stroke-miterlimit:4;stroke-dasharray:none;stroke-opacity:1" />
      <rect
         y="891.86218"
         x="160.5"
         height="30"
         width="30"
         id="rect3240"
         style="fill:#ffffff;fill-opacity:1;fill-rule:nonzero;stroke:#000000;stroke-width:1;stroke-linecap:round;stroke-linejoin:round;stroke-miterlimit:4;stroke-dasharray:none;stroke-opacity:1" />
      <rect
         y="891.86218"
         x="100.5"
         height="30"
         width="30"
         id="rect3242"
         style="fill:#ffffff;fill-opacity:1;fill-rule:nonzero;stroke:#000000;stroke-width:1;stroke-linecap:round;stroke-linejoin:round;stroke-miterlimit:4;stroke-dasharray:none;stroke-opacity:1" />
      <rect
         y="891.86218"
         x="190.5"
         height="30"
         width="30"
         id="rect3244"
         style="fill:#babdb6;fill-opacity:1;fill-rule:nonzero;stroke:#000000;stroke-width:1;stroke-linecap:round;stroke-linejoin:round;stroke-miterlimit:4;stroke-dasharray:none;stroke-opacity:1" />
      <rect
         y="861.86218"
         x="100.5"
         height="30"
         width="30"
         id="rect3246"
         style="fill:#babdb6;fill-opacity:1;fill-rule:nonzero;stroke:#000000;stroke-width:1;stroke-linecap:round;stroke-linejoin:round;stroke-miterlimit:4;stroke-dasharray:none;stroke-opacity:1" />
      <rect
         y="861.86218"
         x="130.5"
         height="30"
         width="30"
         id="rect3248"
         style="fill:#ffffff;fill-opacity:1;fill-rule:nonzero;stroke:#000000;stroke-width:1;stroke-linecap:round;stroke-linejoin:round;stroke-miterlimit:4;stroke-dasharray:none;stroke-opacity:1" />
      <rect
         y="861.86218"
         x="160.5"
         height="30"
         width="30"
         id="rect3250"
         style="fill:#babdb6;fill-opacity:1;fill-rule:nonzero;stroke:#000000;stroke-width:1;stroke-linecap:round;stroke-linejoin:round;stroke-miterlimit:4;stroke-dasharray:none;stroke-opacity:1" />
      <rect
         y="861.86218"
         x="190.5"
         height="30"
         width="30"
         id="rect3252"
         style="fill:#ffffff;fill-opacity:1;fill-rule:nonzero;stroke:#000000;stroke-width:1;stroke-linecap:round;stroke-linejoin:round;stroke-miterlimit:4;stroke-dasharray:none;stroke-opacity:1" />
      <rect
         y="831.86218"
         x="130.5"
         height="30"
         width="30"
         id="rect3254"
         style="fill:#babdb6;fill-opacity:1;fill-rule:nonzero;stroke:#000000;stroke-width:1;stroke-linecap:round;stroke-linejoin:round;stroke-miterlimit:4;stroke-dasharray:none;stroke-opacity:1" />
      <rect
         y="831.86218"
         x="160.5"
         height="30"
         width="30"
         id="rect3256"
         style="fill:#ffffff;fill-opacity:1;fill-rule:nonzero;stroke:#000000;stroke-width:1;stroke-linecap:round;stroke-linejoin:round;stroke-miterlimit:4;stroke-dasharray:none;stroke-opacity:1" />
      <rect
         y="831.86218"
         x="100.5"
         height="30"
         width="30"
         id="rect3258"
         style="fill:#ffffff;fill-opacity:1;fill-rule:nonzero;stroke:#000000;stroke-width:1;stroke-linecap:round;stroke-linejoin:round;stroke-miterlimit:4;stroke-dasharray:none;stroke-opacity:1" />
      <rect
         y="831.86218"
         x="190.5"
         height="30"
         width="30"
         id="rect3260"
         style="fill:#babdb6;fill-opacity:1;fill-rule:nonzero;stroke:#000000;stroke-width:1;stroke-linecap:round;stroke-linejoin:round;stroke-miterlimit:4;stroke-dasharray:none;stroke-opacity:1" />
    </g>
    <g
       id="g3262"
       transform="translate(215,-852.36218)">
      <rect
         y="871.86218"
         x="50.5"
         height="30"
         width="30"
         id="rect3264"
         style="fill:none;fill-opacity:1;fill-rule:nonzero;stroke:#000000;stroke-width:1;stroke-linecap:round;stroke-linejoin:round;stroke-miterlimit:4;stroke-dasharray:none;stroke-opacity:1" />
      <path
         id="path3266"
         d="M 65,894.0583 L 60.259168,881.36218 L 60,894.31116 L 62.432525,894.86218 L 65,894.0583 z"
         style="fill:#fce94f;fill-opacity:1;fill-rule:nonzero;stroke:#000000;stroke-width:0.99999994;stroke-linecap:round;stroke-linejoin:round;stroke-miterlimit:4;stroke-opacity:1" />
      <path
         id="path3268"
         d="M 66,894.0583 L 70.740832,881.36218 L 71,894.31116 L 68.567475,894.86218 L 66,894.0583 z"
         style="fill:#fce94f;fill-opacity:1;fill-rule:nonzero;stroke:#000000;stroke-width:0.99999994;stroke-linecap:round;stroke-linejoin:round;stroke-miterlimit:4;stroke-opacity:1" />
      <path
         id="path3270"
         d="M 62,894.04086 L 55,882.86218 L 56.843843,894.29921 L 59.352339,894.86218 L 62,894.04086 z"
         style="fill:#fce94f;fill-opacity:1;fill-rule:nonzero;stroke:#000000;stroke-width:0.99999994;stroke-linecap:round;stroke-linejoin:round;stroke-miterlimit:4;stroke-opacity:1" />
      <path
         id="path3272"
         d="M 69,894.04086 L 76,882.86218 L 74.156157,894.29921 L 71.647661,894.86218 L 69,894.04086 z"
         style="fill:#fce94f;fill-opacity:1;fill-rule:nonzero;stroke:#000000;stroke-width:0.99999994;stroke-linecap:round;stroke-linejoin:round;stroke-miterlimit:4;stroke-opacity:1" />
      <path
         transform="matrix(0.3254386,0,0,0.2248485,49.68421,684.2765)"
         d="m 37.843667,874.30286 c 0,4.9125 -2.751458,8.89488 -6.145553,8.89488 -3.394095,0 -6.145552,-3.98238 -6.145552,-8.89488 0,-4.91251 2.751457,-8.89488 6.145552,-8.89488 3.394095,0 6.145553,3.98237 6.145553,8.89488 z"
         id="path3274"
         style="fill:#fce94f;fill-opacity:1;fill-rule:nonzero;stroke:#000000;stroke-width:3.69675326;stroke-linecap:round;stroke-linejoin:round;stroke-miterlimit:4;stroke-dasharray:none;stroke-opacity:1" />
      <path
         transform="matrix(0.3254386,0,0,0.2248485,60.68421,684.2765)"
         d="m 37.843667,874.30286 c 0,4.9125 -2.751458,8.89488 -6.145553,8.89488 -3.394095,0 -6.145552,-3.98238 -6.145552,-8.89488 0,-4.91251 2.751457,-8.89488 6.145552,-8.89488 3.394095,0 6.145553,3.98237 6.145553,8.89488 z"
         id="path3276"
         style="fill:#fce94f;fill-opacity:1;fill-rule:nonzero;stroke:#000000;stroke-width:3.69675326;stroke-linecap:round;stroke-linejoin:round;stroke-miterlimit:4;stroke-dasharray:none;stroke-opacity:1" />
      <path
         transform="matrix(0.3254386,0,0,0.2248485,44.18421,686.2765)"
         d="m 37.843667,874.30286 c 0,4.9125 -2.751458,8.89488 -6.145553,8.89488 -3.394095,0 -6.145552,-3.98238 -6.145552,-8.89488 0,-4.91251 2.751457,-8.89488 6.145552,-8.89488 3.394095,0 6.145553,3.98237 6.145553,8.89488 z"
         id="path3278"
         style="fill:#fce94f;fill-opacity:1;fill-rule:nonzero;stroke:#000000;stroke-width:3.69675326;stroke-linecap:round;stroke-linejoin:round;stroke-miterlimit:4;stroke-dasharray:none;stroke-opacity:1" />
      <path
         transform="matrix(0.3254386,0,0,0.2248485,66.18421,686.2765)"
         d="m 37.843667,874.30286 c 0,4.9125 -2.751458,8.89488 -6.145553,8.89488 -3.394095,0 -6.145552,-3.98238 -6.145552,-8.89488 0,-4.91251 2.751457,-8.89488 6.145552,-8.89488 3.394095,0 6.145553,3.98237 6.145553,8.89488 z"
         id="path3280"
         style="fill:#fce94f;fill-opacity:1;fill-rule:nonzero;stroke:#000000;stroke-width:3.69675326;stroke-linecap:round;stroke-linejoin:round;stroke-miterlimit:4;stroke-dasharray:none;stroke-opacity:1" />
      <path
         id="path3282"
         d="M 68.000002,894.0957 L 65.506898,880.86221 L 63.000002,893.8597 L 65.368588,894.86221 L 68.000002,894.0957 z"
         style="fill:#fce94f;fill-opacity:1;fill-rule:nonzero;stroke:#000000;stroke-width:1;stroke-linecap:round;stroke-linejoin:round;stroke-miterlimit:4;stroke-opacity:1" />
      <path
         transform="matrix(0.3254386,0,0,0.2248485,55.18421,683.2765)"
         d="m 37.843667,874.30286 c 0,4.9125 -2.751458,8.89488 -6.145553,8.89488 -3.394095,0 -6.145552,-3.98238 -6.145552,-8.89488 0,-4.91251 2.751457,-8.89488 6.145552,-8.89488 3.394095,0 6.145553,3.98237 6.145553,8.89488 z"
         id="path3284"
         style="fill:#fce94f;fill-opacity:1;fill-rule:nonzero;stroke:#000000;stroke-width:3.69675326;stroke-linecap:round;stroke-linejoin:round;stroke-miterlimit:4;stroke-dasharray:none;stroke-opacity:1" />
      <path
         transform="matrix(0.9454765,0,0,1.2119233,18.553015,-205.05171)"
         d="m 59.702156,907.57715 c 0,0.91142 -4.498573,1.65027 -10.047844,1.65027 -5.549271,0 -10.047844,-0.73885 -10.047844,-1.65027 0,-0.91142 4.498573,-1.65027 10.047844,-1.65027 5.549271,0 10.047844,0.73885 10.047844,1.65027 z"
         id="path3286"
         style="fill:#fce94f;fill-opacity:1;fill-rule:nonzero;stroke:#000000;stroke-width:0.93419403;stroke-linecap:round;stroke-linejoin:round;stroke-miterlimit:4;stroke-dasharray:none;stroke-opacity:1" />
    </g>
    <g
       id="g3288"
       transform="translate(185,-792.36218)">
      <rect
         y="871.86218"
         x="50.5"
         height="30"
         width="30"
         id="rect3290"
         style="fill:none;fill-opacity:1;fill-rule:nonzero;stroke:#000000;stroke-width:1;stroke-linecap:round;stroke-linejoin:round;stroke-miterlimit:4;stroke-dasharray:none;stroke-opacity:1" />
      <path
         id="path3292"
         d="M 65,894.0583 L 60.259168,881.36218 L 60,894.31116 L 62.432525,894.86218 L 65,894.0583 z"
         style="fill:#fce94f;fill-opacity:1;fill-rule:nonzero;stroke:#000000;stroke-width:0.99999994;stroke-linecap:round;stroke-linejoin:round;stroke-miterlimit:4;stroke-opacity:1" />
      <path
         id="path3294"
         d="M 66,894.0583 L 70.740832,881.36218 L 71,894.31116 L 68.567475,894.86218 L 66,894.0583 z"
         style="fill:#fce94f;fill-opacity:1;fill-rule:nonzero;stroke:#000000;stroke-width:0.99999994;stroke-linecap:round;stroke-linejoin:round;stroke-miterlimit:4;stroke-opacity:1" />
      <path
         id="path3296"
         d="M 62,894.04086 L 55,882.86218 L 56.843843,894.29921 L 59.352339,894.86218 L 62,894.04086 z"
         style="fill:#fce94f;fill-opacity:1;fill-rule:nonzero;stroke:#000000;stroke-width:0.99999994;stroke-linecap:round;stroke-linejoin:round;stroke-miterlimit:4;stroke-opacity:1" />
      <path
         id="path3298"
         d="M 69,894.04086 L 76,882.86218 L 74.156157,894.29921 L 71.647661,894.86218 L 69,894.04086 z"
         style="fill:#fce94f;fill-opacity:1;fill-rule:nonzero;stroke:#000000;stroke-width:0.99999994;stroke-linecap:round;stroke-linejoin:round;stroke-miterlimit:4;stroke-opacity:1" />
      <path
         transform="matrix(0.3254386,0,0,0.2248485,49.68421,684.2765)"
         d="m 37.843667,874.30286 c 0,4.9125 -2.751458,8.89488 -6.145553,8.89488 -3.394095,0 -6.145552,-3.98238 -6.145552,-8.89488 0,-4.91251 2.751457,-8.89488 6.145552,-8.89488 3.394095,0 6.145553,3.98237 6.145553,8.89488 z"
         id="path3300"
         style="fill:#fce94f;fill-opacity:1;fill-rule:nonzero;stroke:#000000;stroke-width:3.69675326;stroke-linecap:round;stroke-linejoin:round;stroke-miterlimit:4;stroke-dasharray:none;stroke-opacity:1" />
      <path
         transform="matrix(0.3254386,0,0,0.2248485,60.68421,684.2765)"
         d="m 37.843667,874.30286 c 0,4.9125 -2.751458,8.89488 -6.145553,8.89488 -3.394095,0 -6.145552,-3.98238 -6.145552,-8.89488 0,-4.91251 2.751457,-8.89488 6.145552,-8.89488 3.394095,0 6.145553,3.98237 6.145553,8.89488 z"
         id="path3302"
         style="fill:#fce94f;fill-opacity:1;fill-rule:nonzero;stroke:#000000;stroke-width:3.69675326;stroke-linecap:round;stroke-linejoin:round;stroke-miterlimit:4;stroke-dasharray:none;stroke-opacity:1" />
      <path
         transform="matrix(0.3254386,0,0,0.2248485,44.18421,686.2765)"
         d="m 37.843667,874.30286 c 0,4.9125 -2.751458,8.89488 -6.145553,8.89488 -3.394095,0 -6.145552,-3.98238 -6.145552,-8.89488 0,-4.91251 2.751457,-8.89488 6.145552,-8.89488 3.394095,0 6.145553,3.98237 6.145553,8.89488 z"
         id="path3304"
         style="fill:#fce94f;fill-opacity:1;fill-rule:nonzero;stroke:#000000;stroke-width:3.69675326;stroke-linecap:round;stroke-linejoin:round;stroke-miterlimit:4;stroke-dasharray:none;stroke-opacity:1" />
      <path
         transform="matrix(0.3254386,0,0,0.2248485,66.18421,686.2765)"
         d="m 37.843667,874.30286 c 0,4.9125 -2.751458,8.89488 -6.145553,8.89488 -3.394095,0 -6.145552,-3.98238 -6.145552,-8.89488 0,-4.91251 2.751457,-8.89488 6.145552,-8.89488 3.394095,0 6.145553,3.98237 6.145553,8.89488 z"
         id="path3306"
         style="fill:#fce94f;fill-opacity:1;fill-rule:nonzero;stroke:#000000;stroke-width:3.69675326;stroke-linecap:round;stroke-linejoin:round;stroke-miterlimit:4;stroke-dasharray:none;stroke-opacity:1" />
      <path
         id="path3308"
         d="M 68.000002,894.0957 L 65.506898,880.86221 L 63.000002,893.8597 L 65.368588,894.86221 L 68.000002,894.0957 z"
         style="fill:#fce94f;fill-opacity:1;fill-rule:nonzero;stroke:#000000;stroke-width:1;stroke-linecap:round;stroke-linejoin:round;stroke-miterlimit:4;stroke-opacity:1" />
      <path
         transform="matrix(0.3254386,0,0,0.2248485,55.18421,683.2765)"
         d="m 37.843667,874.30286 c 0,4.9125 -2.751458,8.89488 -6.145553,8.89488 -3.394095,0 -6.145552,-3.98238 -6.145552,-8.89488 0,-4.91251 2.751457,-8.89488 6.145552,-8.89488 3.394095,0 6.145553,3.98237 6.145553,8.89488 z"
         id="path3310"
         style="fill:#fce94f;fill-opacity:1;fill-rule:nonzero;stroke:#000000;stroke-width:3.69675326;stroke-linecap:round;stroke-linejoin:round;stroke-miterlimit:4;stroke-dasharray:none;stroke-opacity:1" />
      <path
         transform="matrix(0.9454765,0,0,1.2119233,18.553015,-205.05171)"
         d="m 59.702156,907.57715 c 0,0.91142 -4.498573,1.65027 -10.047844,1.65027 -5.549271,0 -10.047844,-0.73885 -10.047844,-1.65027 0,-0.91142 4.498573,-1.65027 10.047844,-1.65027 5.549271,0 10.047844,0.73885 10.047844,1.65027 z"
         id="path3312"
         style="fill:#fce94f;fill-opacity:1;fill-rule:nonzero;stroke:#000000;stroke-width:0.93419403;stroke-linecap:round;stroke-linejoin:round;stroke-miterlimit:4;stroke-dasharray:none;stroke-opacity:1" />
    </g>
    <g
       id="g3314"
       transform="translate(155,-852.36218)">
      <rect
         y="871.86218"
         x="50.5"
         height="30"
         width="30"
         id="rect3316"
         style="fill:none;fill-opacity:1;fill-rule:nonzero;stroke:#000000;stroke-width:1;stroke-linecap:round;stroke-linejoin:round;stroke-miterlimit:4;stroke-dasharray:none;stroke-opacity:1" />
      <path
         id="path3318"
         d="M 65,894.0583 L 60.259168,881.36218 L 60,894.31116 L 62.432525,894.86218 L 65,894.0583 z"
         style="fill:#fce94f;fill-opacity:1;fill-rule:nonzero;stroke:#000000;stroke-width:0.99999994;stroke-linecap:round;stroke-linejoin:round;stroke-miterlimit:4;stroke-opacity:1" />
      <path
         id="path3320"
         d="M 66,894.0583 L 70.740832,881.36218 L 71,894.31116 L 68.567475,894.86218 L 66,894.0583 z"
         style="fill:#fce94f;fill-opacity:1;fill-rule:nonzero;stroke:#000000;stroke-width:0.99999994;stroke-linecap:round;stroke-linejoin:round;stroke-miterlimit:4;stroke-opacity:1" />
      <path
         id="path3322"
         d="M 62,894.04086 L 55,882.86218 L 56.843843,894.29921 L 59.352339,894.86218 L 62,894.04086 z"
         style="fill:#fce94f;fill-opacity:1;fill-rule:nonzero;stroke:#000000;stroke-width:0.99999994;stroke-linecap:round;stroke-linejoin:round;stroke-miterlimit:4;stroke-opacity:1" />
      <path
         id="path3324"
         d="M 69,894.04086 L 76,882.86218 L 74.156157,894.29921 L 71.647661,894.86218 L 69,894.04086 z"
         style="fill:#fce94f;fill-opacity:1;fill-rule:nonzero;stroke:#000000;stroke-width:0.99999994;stroke-linecap:round;stroke-linejoin:round;stroke-miterlimit:4;stroke-opacity:1" />
      <path
         transform="matrix(0.3254386,0,0,0.2248485,49.68421,684.2765)"
         d="m 37.843667,874.30286 c 0,4.9125 -2.751458,8.89488 -6.145553,8.89488 -3.394095,0 -6.145552,-3.98238 -6.145552,-8.89488 0,-4.91251 2.751457,-8.89488 6.145552,-8.89488 3.394095,0 6.145553,3.98237 6.145553,8.89488 z"
         id="path3326"
         style="fill:#fce94f;fill-opacity:1;fill-rule:nonzero;stroke:#000000;stroke-width:3.69675326;stroke-linecap:round;stroke-linejoin:round;stroke-miterlimit:4;stroke-dasharray:none;stroke-opacity:1" />
      <path
         transform="matrix(0.3254386,0,0,0.2248485,60.68421,684.2765)"
         d="m 37.843667,874.30286 c 0,4.9125 -2.751458,8.89488 -6.145553,8.89488 -3.394095,0 -6.145552,-3.98238 -6.145552,-8.89488 0,-4.91251 2.751457,-8.89488 6.145552,-8.89488 3.394095,0 6.145553,3.98237 6.145553,8.89488 z"
         id="path3328"
         style="fill:#fce94f;fill-opacity:1;fill-rule:nonzero;stroke:#000000;stroke-width:3.69675326;stroke-linecap:round;stroke-linejoin:round;stroke-miterlimit:4;stroke-dasharray:none;stroke-opacity:1" />
      <path
         transform="matrix(0.3254386,0,0,0.2248485,44.18421,686.2765)"
         d="m 37.843667,874.30286 c 0,4.9125 -2.751458,8.89488 -6.145553,8.89488 -3.394095,0 -6.145552,-3.98238 -6.145552,-8.89488 0,-4.91251 2.751457,-8.89488 6.145552,-8.89488 3.394095,0 6.145553,3.98237 6.145553,8.89488 z"
         id="path3330"
         style="fill:#fce94f;fill-opacity:1;fill-rule:nonzero;stroke:#000000;stroke-width:3.69675326;stroke-linecap:round;stroke-linejoin:round;stroke-miterlimit:4;stroke-dasharray:none;stroke-opacity:1" />
      <path
         transform="matrix(0.3254386,0,0,0.2248485,66.18421,686.2765)"
         d="m 37.843667,874.30286 c 0,4.9125 -2.751458,8.89488 -6.145553,8.89488 -3.394095,0 -6.145552,-3.98238 -6.145552,-8.89488 0,-4.91251 2.751457,-8.89488 6.145552,-8.89488 3.394095,0 6.145553,3.98237 6.145553,8.89488 z"
         id="path3332"
         style="fill:#fce94f;fill-opacity:1;fill-rule:nonzero;stroke:#000000;stroke-width:3.69675326;stroke-linecap:round;stroke-linejoin:round;stroke-miterlimit:4;stroke-dasharray:none;stroke-opacity:1" />
      <path
         id="path3334"
         d="M 68.000002,894.0957 L 65.506898,880.86221 L 63.000002,893.8597 L 65.368588,894.86221 L 68.000002,894.0957 z"
         style="fill:#fce94f;fill-opacity:1;fill-rule:nonzero;stroke:#000000;stroke-width:1;stroke-linecap:round;stroke-linejoin:round;stroke-miterlimit:4;stroke-opacity:1" />
      <path
         transform="matrix(0.3254386,0,0,0.2248485,55.18421,683.2765)"
         d="m 37.843667,874.30286 c 0,4.9125 -2.751458,8.89488 -6.145553,8.89488 -3.394095,0 -6.145552,-3.98238 -6.145552,-8.89488 0,-4.91251 2.751457,-8.89488 6.145552,-8.89488 3.394095,0 6.145553,3.98237 6.145553,8.89488 z"
         id="path3336"
         style="fill:#fce94f;fill-opacity:1;fill-rule:nonzero;stroke:#000000;stroke-width:3.69675326;stroke-linecap:round;stroke-linejoin:round;stroke-miterlimit:4;stroke-dasharray:none;stroke-opacity:1" />
      <path
         transform="matrix(0.9454765,0,0,1.2119233,18.553015,-205.05171)"
         d="m 59.702156,907.57715 c 0,0.91142 -4.498573,1.65027 -10.047844,1.65027 -5.549271,0 -10.047844,-0.73885 -10.047844,-1.65027 0,-0.91142 4.498573,-1.65027 10.047844,-1.65027 5.549271,0 10.047844,0.73885 10.047844,1.65027 z"
         id="path3338"
         style="fill:#fce94f;fill-opacity:1;fill-rule:nonzero;stroke:#000000;stroke-width:0.93419403;stroke-linecap:round;stroke-linejoin:round;stroke-miterlimit:4;stroke-dasharray:none;stroke-opacity:1" />
    </g>
    <g
       id="g3340"
       transform="translate(125,-852.36218)">
      <rect
         y="871.86218"
         x="50.5"
         height="30"
         width="30"
         id="rect3342"
         style="fill:none;fill-opacity:1;fill-rule:nonzero;stroke:#000000;stroke-width:1;stroke-linecap:round;stroke-linejoin:round;stroke-miterlimit:4;stroke-dasharray:none;stroke-opacity:1" />
      <path
         id="path3344"
         d="M 65,894.0583 L 60.259168,881.36218 L 60,894.31116 L 62.432525,894.86218 L 65,894.0583 z"
         style="fill:#fce94f;fill-opacity:1;fill-rule:nonzero;stroke:#000000;stroke-width:0.99999994;stroke-linecap:round;stroke-linejoin:round;stroke-miterlimit:4;stroke-opacity:1" />
      <path
         id="path3346"
         d="M 66,894.0583 L 70.740832,881.36218 L 71,894.31116 L 68.567475,894.86218 L 66,894.0583 z"
         style="fill:#fce94f;fill-opacity:1;fill-rule:nonzero;stroke:#000000;stroke-width:0.99999994;stroke-linecap:round;stroke-linejoin:round;stroke-miterlimit:4;stroke-opacity:1" />
      <path
         id="path3348"
         d="M 62,894.04086 L 55,882.86218 L 56.843843,894.29921 L 59.352339,894.86218 L 62,894.04086 z"
         style="fill:#fce94f;fill-opacity:1;fill-rule:nonzero;stroke:#000000;stroke-width:0.99999994;stroke-linecap:round;stroke-linejoin:round;stroke-miterlimit:4;stroke-opacity:1" />
      <path
         id="path3350"
         d="M 69,894.04086 L 76,882.86218 L 74.156157,894.29921 L 71.647661,894.86218 L 69,894.04086 z"
         style="fill:#fce94f;fill-opacity:1;fill-rule:nonzero;stroke:#000000;stroke-width:0.99999994;stroke-linecap:round;stroke-linejoin:round;stroke-miterlimit:4;stroke-opacity:1" />
      <path
         transform="matrix(0.3254386,0,0,0.2248485,49.68421,684.2765)"
         d="m 37.843667,874.30286 c 0,4.9125 -2.751458,8.89488 -6.145553,8.89488 -3.394095,0 -6.145552,-3.98238 -6.145552,-8.89488 0,-4.91251 2.751457,-8.89488 6.145552,-8.89488 3.394095,0 6.145553,3.98237 6.145553,8.89488 z"
         id="path3352"
         style="fill:#fce94f;fill-opacity:1;fill-rule:nonzero;stroke:#000000;stroke-width:3.69675326;stroke-linecap:round;stroke-linejoin:round;stroke-miterlimit:4;stroke-dasharray:none;stroke-opacity:1" />
      <path
         transform="matrix(0.3254386,0,0,0.2248485,60.68421,684.2765)"
         d="m 37.843667,874.30286 c 0,4.9125 -2.751458,8.89488 -6.145553,8.89488 -3.394095,0 -6.145552,-3.98238 -6.145552,-8.89488 0,-4.91251 2.751457,-8.89488 6.145552,-8.89488 3.394095,0 6.145553,3.98237 6.145553,8.89488 z"
         id="path3354"
         style="fill:#fce94f;fill-opacity:1;fill-rule:nonzero;stroke:#000000;stroke-width:3.69675326;stroke-linecap:round;stroke-linejoin:round;stroke-miterlimit:4;stroke-dasharray:none;stroke-opacity:1" />
      <path
         transform="matrix(0.3254386,0,0,0.2248485,44.18421,686.2765)"
         d="m 37.843667,874.30286 c 0,4.9125 -2.751458,8.89488 -6.145553,8.89488 -3.394095,0 -6.145552,-3.98238 -6.145552,-8.89488 0,-4.91251 2.751457,-8.89488 6.145552,-8.89488 3.394095,0 6.145553,3.98237 6.145553,8.89488 z"
         id="path3356"
         style="fill:#fce94f;fill-opacity:1;fill-rule:nonzero;stroke:#000000;stroke-width:3.69675326;stroke-linecap:round;stroke-linejoin:round;stroke-miterlimit:4;stroke-dasharray:none;stroke-opacity:1" />
      <path
         transform="matrix(0.3254386,0,0,0.2248485,66.18421,686.2765)"
         d="m 37.843667,874.30286 c 0,4.9125 -2.751458,8.89488 -6.145553,8.89488 -3.394095,0 -6.145552,-3.98238 -6.145552,-8.89488 0,-4.91251 2.751457,-8.89488 6.145552,-8.89488 3.394095,0 6.145553,3.98237 6.145553,8.89488 z"
         id="path3358"
         style="fill:#fce94f;fill-opacity:1;fill-rule:nonzero;stroke:#000000;stroke-width:3.69675326;stroke-linecap:round;stroke-linejoin:round;stroke-miterlimit:4;stroke-dasharray:none;stroke-opacity:1" />
      <path
         id="path3360"
         d="M 68.000002,894.0957 L 65.506898,880.86221 L 63.000002,893.8597 L 65.368588,894.86221 L 68.000002,894.0957 z"
         style="fill:#fce94f;fill-opacity:1;fill-rule:nonzero;stroke:#000000;stroke-width:1;stroke-linecap:round;stroke-linejoin:round;stroke-miterlimit:4;stroke-opacity:1" />
      <path
         transform="matrix(0.3254386,0,0,0.2248485,55.18421,683.2765)"
         d="m 37.843667,874.30286 c 0,4.9125 -2.751458,8.89488 -6.145553,8.89488 -3.394095,0 -6.145552,-3.98238 -6.145552,-8.89488 0,-4.91251 2.751457,-8.89488 6.145552,-8.89488 3.394095,0 6.145553,3.98237 6.145553,8.89488 z"
         id="path3362"
         style="fill:#fce94f;fill-opacity:1;fill-rule:nonzero;stroke:#000000;stroke-width:3.69675326;stroke-linecap:round;stroke-linejoin:round;stroke-miterlimit:4;stroke-dasharray:none;stroke-opacity:1" />
      <path
         transform="matrix(0.9454765,0,0,1.2119233,18.553015,-205.05171)"
         d="m 59.702156,907.57715 c 0,0.91142 -4.498573,1.65027 -10.047844,1.65027 -5.549271,0 -10.047844,-0.73885 -10.047844,-1.65027 0,-0.91142 4.498573,-1.65027 10.047844,-1.65027 5.549271,0 10.047844,0.73885 10.047844,1.65027 z"
         id="path3364"
         style="fill:#fce94f;fill-opacity:1;fill-rule:nonzero;stroke:#000000;stroke-width:0.93419403;stroke-linecap:round;stroke-linejoin:round;stroke-miterlimit:4;stroke-dasharray:none;stroke-opacity:1" />
    </g>
    <g
       id="g6475"
       transform="matrix(1.0050252,0,0,1,-76.055293,-811.86221)">
      <path
         style="font-size:14.3304px;line-height:1.25;font-family:'Bitstream Vera Sans';stroke-width:1px"
         d="m 115.27544,863.81348 h -1.47642 l -1.0216,-2.90387 h -4.50624 l -1.0216,2.90387 h -1.40645 l 3.79252,-10.41893 h 1.84728 z m -2.92485,-4.0934 -1.82629,-5.11501 -1.83328,5.11501 z"
         id="text2242"
         transform="scale(1.0446886,0.9572231)"
         aria-label="A" />
      <path
         style="font-size:16.2874px;line-height:1.25;font-family:'Bitstream Vera Sans';stroke-width:1px"
         d="m 127.25295,978.13959 q 0,0.88276 -0.33402,1.55875 -0.33402,0.67599 -0.89867,1.1134 -0.66804,0.52488 -1.47127,0.74756 -0.79529,0.22268 -2.02797,0.22268 h -4.1991 v -11.84176 h 3.5072 q 1.29631,0 1.94049,0.0954 0.64418,0.0954 1.23269,0.39764 0.65213,0.34197 0.94639,0.88277 0.29425,0.53284 0.29425,1.2804 0,0.843 -0.42945,1.43946 -0.42946,0.58851 -1.14521,0.94639 v 0.0636 q 1.20088,0.24654 1.89277,1.05773 0.6919,0.80324 0.6919,2.03593 z m -2.64829,-5.33635 q 0,-0.42946 -0.14315,-0.72371 -0.14315,-0.29426 -0.46127,-0.47717 -0.37378,-0.21473 -0.90662,-0.26245 -0.53284,-0.0557 -1.32017,-0.0557 h -1.87687 v 3.41972 h 2.03593 q 0.73961,0 1.17701,-0.0716 0.43741,-0.0795 0.81119,-0.31812 0.37379,-0.23858 0.52489,-0.61236 0.15906,-0.38174 0.15906,-0.89867 z m 1.01001,5.39997 q 0,-0.71576 -0.21473,-1.13726 -0.21473,-0.4215 -0.77938,-0.71575 -0.38173,-0.19882 -0.93048,-0.25449 -0.54079,-0.0636 -1.32017,-0.0636 h -2.47333 v 4.40586 h 2.08364 q 1.03387,0 1.69396,-0.10338 0.66008,-0.11134 1.08158,-0.39764 0.44536,-0.31016 0.65213,-0.70781 0.20678,-0.39764 0.20678,-1.02591 z"
         id="text3336"
         transform="scale(1.1873587,0.8422055)"
         aria-label="B" />
      <path
         style="font-size:14.9965px;line-height:1.25;font-family:'Bitstream Vera Sans';stroke-width:1px"
         d="m 159.36162,936.87317 q -0.40274,0.17574 -0.73226,0.32951 -0.32219,0.15378 -0.84941,0.32219 -0.44667,0.13913 -0.97389,0.23432 -0.5199,0.10252 -1.14963,0.10252 -1.18625,0 -2.16015,-0.32951 -0.96657,-0.33684 -1.68417,-1.04712 -0.70296,-0.69564 -1.09838,-1.76473 -0.39541,-1.07641 -0.39541,-2.49697 0,-1.34735 0.38077,-2.40911 0.38077,-1.06176 1.09837,-1.79401 0.69564,-0.71029 1.67686,-1.08374 0.98854,-0.37344 2.18943,-0.37344 0.8787,0 1.75008,0.21235 0.8787,0.21235 1.94779,0.7469 v 1.72079 h -0.10984 q -0.90067,-0.75422 -1.7867,-1.09838 -0.88602,-0.34416 -1.89653,-0.34416 -0.82744,0 -1.49379,0.27093 -0.65902,0.26361 -1.17892,0.82745 -0.50525,0.54919 -0.79083,1.39127 -0.27826,0.83477 -0.27826,1.93315 0,1.14963 0.30755,1.97707 0.31487,0.82745 0.80547,1.34735 0.51258,0.54186 1.19357,0.80547 0.68832,0.25629 1.44986,0.25629 1.04712,0 1.96243,-0.3588 0.91532,-0.35881 1.71347,-1.07641 h 0.10252 z"
         id="text3344"
         transform="scale(1.1342596,0.8816324)"
         aria-label="C" />
      <path
         style="font-size:14.9616px;line-height:1.25;font-family:'Bitstream Vera Sans';stroke-width:1px"
         d="m 192.5503,896.43629 q 0,1.48301 -0.65019,2.68842 -0.64288,1.2054 -1.71678,1.8702 -0.74516,0.46024 -1.66565,0.66479 -0.91318,0.20456 -2.4108,0.20456 h -2.74686 v -10.87785 h 2.71763 q 1.5926,0 2.5277,0.23378 0.9424,0.22647 1.59259,0.62827 1.11043,0.69402 1.73139,1.84828 0.62097,1.15427 0.62097,2.73955 z m -1.51223,-0.0219 q 0,-1.27846 -0.44564,-2.15512 -0.44563,-0.87665 -1.32959,-1.38073 -0.64288,-0.36527 -1.36612,-0.50408 -0.72325,-0.14611 -1.7314,-0.14611 h -1.35882 v 8.39399 h 1.35882 q 1.04468,0 1.81906,-0.15342 0.78169,-0.15341 1.43187,-0.56982 0.81091,-0.51869 1.21271,-1.36613 0.40911,-0.84743 0.40911,-2.11858 z"
         id="text3348"
         transform="scale(1.0907069,0.9168366)"
         aria-label="D" />
    </g>
    <g
       id="g6485"
       transform="matrix(1.0050252,0,0,1,73.9447,-811.86221)">
      <path
         style="font-size:14.3304px;line-height:1.25;font-family:'Bitstream Vera Sans';stroke-width:1px"
         d="m 115.27544,863.81348 h -1.47642 l -1.0216,-2.90387 h -4.50624 l -1.0216,2.90387 h -1.40645 l 3.79252,-10.41893 h 1.84728 z m -2.92485,-4.0934 -1.82629,-5.11501 -1.83328,5.11501 z"
         id="text6487"
         transform="scale(1.0446886,0.9572231)"
         aria-label="A" />
      <path
         style="font-size:16.2874px;line-height:1.25;font-family:'Bitstream Vera Sans';stroke-width:1px"
         d="m 127.25295,978.13959 q 0,0.88276 -0.33402,1.55875 -0.33402,0.67599 -0.89867,1.1134 -0.66804,0.52488 -1.47127,0.74756 -0.79529,0.22268 -2.02797,0.22268 h -4.1991 v -11.84176 h 3.5072 q 1.29631,0 1.94049,0.0954 0.64418,0.0954 1.23269,0.39764 0.65213,0.34197 0.94639,0.88277 0.29425,0.53284 0.29425,1.2804 0,0.843 -0.42945,1.43946 -0.42946,0.58851 -1.14521,0.94639 v 0.0636 q 1.20088,0.24654 1.89277,1.05773 0.6919,0.80324 0.6919,2.03593 z m -2.64829,-5.33635 q 0,-0.42946 -0.14315,-0.72371 -0.14315,-0.29426 -0.46127,-0.47717 -0.37378,-0.21473 -0.90662,-0.26245 -0.53284,-0.0557 -1.32017,-0.0557 h -1.87687 v 3.41972 h 2.03593 q 0.73961,0 1.17701,-0.0716 0.43741,-0.0795 0.81119,-0.31812 0.37379,-0.23858 0.52489,-0.61236 0.15906,-0.38174 0.15906,-0.89867 z m 1.01001,5.39997 q 0,-0.71576 -0.21473,-1.13726 -0.21473,-0.4215 -0.77938,-0.71575 -0.38173,-0.19882 -0.93048,-0.25449 -0.54079,-0.0636 -1.32017,-0.0636 h -2.47333 v 4.40586 h 2.08364 q 1.03387,0 1.69396,-0.10338 0.66008,-0.11134 1.08158,-0.39764 0.44536,-0.31016 0.65213,-0.70781 0.20678,-0.39764 0.20678,-1.02591 z"
         id="text6491"
         transform="scale(1.1873587,0.8422055)"
         aria-label="B" />
      <path
         style="font-size:14.9965px;line-height:1.25;font-family:'Bitstream Vera Sans';stroke-width:1px"
         d="m 159.36162,936.87317 q -0.40274,0.17574 -0.73226,0.32951 -0.32219,0.15378 -0.84941,0.32219 -0.44667,0.13913 -0.97389,0.23432 -0.5199,0.10252 -1.14963,0.10252 -1.18625,0 -2.16015,-0.32951 -0.96657,-0.33684 -1.68417,-1.04712 -0.70296,-0.69564 -1.09838,-1.76473 -0.39541,-1.07641 -0.39541,-2.49697 0,-1.34735 0.38077,-2.40911 0.38077,-1.06176 1.09837,-1.79401 0.69564,-0.71029 1.67686,-1.08374 0.98854,-0.37344 2.18943,-0.37344 0.8787,0 1.75008,0.21235 0.8787,0.21235 1.94779,0.7469 v 1.72079 h -0.10984 q -0.90067,-0.75422 -1.7867,-1.09838 -0.88602,-0.34416 -1.89653,-0.34416 -0.82744,0 -1.49379,0.27093 -0.65902,0.26361 -1.17892,0.82745 -0.50525,0.54919 -0.79083,1.39127 -0.27826,0.83477 -0.27826,1.93315 0,1.14963 0.30755,1.97707 0.31487,0.82745 0.80547,1.34735 0.51258,0.54186 1.19357,0.80547 0.68832,0.25629 1.44986,0.25629 1.04712,0 1.96243,-0.3588 0.91532,-0.35881 1.71347,-1.07641 h 0.10252 z"
         id="text6495"
         transform="scale(1.1342596,0.8816324)"
         aria-label="C" />
      <path
         style="font-size:14.9616px;line-height:1.25;font-family:'Bitstream Vera Sans';stroke-width:1px"
         d="m 192.5503,896.43629 q 0,1.48301 -0.65019,2.68842 -0.64288,1.2054 -1.71678,1.8702 -0.74516,0.46024 -1.66565,0.66479 -0.91318,0.20456 -2.4108,0.20456 h -2.74686 v -10.87785 h 2.71763 q 1.5926,0 2.5277,0.23378 0.9424,0.22647 1.59259,0.62827 1.11043,0.69402 1.73139,1.84828 0.62097,1.15427 0.62097,2.73955 z m -1.51223,-0.0219 q 0,-1.27846 -0.44564,-2.15512 -0.44563,-0.87665 -1.32959,-1.38073 -0.64288,-0.36527 -1.36612,-0.50408 -0.72325,-0.14611 -1.7314,-0.14611 h -1.35882 v 8.39399 h 1.35882 q 1.04468,0 1.81906,-0.15342 0.78169,-0.15341 1.43187,-0.56982 0.81091,-0.51869 1.21271,-1.36613 0.40911,-0.84743 0.40911,-2.11858 z"
         id="text6499"
         transform="scale(1.0907069,0.9168366)"
         aria-label="D" />
    </g>
    <g
       transform="translate(75.49999,-812.86224)"
       id="g4074">
      <path
         style="font-size:16.1981px;line-height:1.25;font-family:'Bitstream Vera Sans';stroke-width:1px"
         d="m 77.133985,1038.7546 q 0,3.1716 -0.996563,4.6585 -0.988654,1.4791 -3.07669,1.4791 -2.119673,0 -3.100417,-1.5028 -0.972835,-1.5027 -0.972835,-4.619 0,-3.1399 0.988653,-4.6348 0.988654,-1.5027 3.084599,-1.5027 2.119673,0 3.092508,1.5264 0.980745,1.5186 0.980745,4.5953 z m -2.080127,3.5908 q 0.276823,-0.6407 0.371733,-1.5028 0.10282,-0.87 0.10282,-2.088 0,-1.2022 -0.10282,-2.088 -0.09491,-0.8859 -0.379643,-1.5028 -0.276823,-0.609 -0.759286,-0.9175 -0.474553,-0.3084 -1.22593,-0.3084 -0.743467,0 -1.233839,0.3084 -0.482463,0.3085 -0.767196,0.9333 -0.268913,0.5853 -0.371733,1.5265 -0.09491,0.9412 -0.09491,2.0643 0,1.2339 0.087,2.0643 0.087,0.8305 0.371734,1.487 0.261005,0.6169 0.735558,0.9412 0.482463,0.3242 1.273386,0.3242 0.743468,0 1.23384,-0.3084 0.490372,-0.3085 0.759286,-0.9333 z"
         id="text3352"
         transform="scale(1.2251409,0.8162327)"
         aria-label="0" />
      <path
         style="font-size:17.7766px;line-height:1.25;font-family:'Bitstream Vera Sans';stroke-width:1px"
         d="m 72.660518,1144.1229 h -6.996064 v -1.3193 h 2.690794 v -8.6627 h -2.690794 v -1.1804 q 0.546838,0 1.171797,-0.087 0.624959,-0.096 0.946118,-0.2691 0.399279,-0.217 0.624958,-0.5468 0.23436,-0.3386 0.26908,-0.9028 h 1.345397 v 11.6486 h 2.638714 z"
         id="text3356"
         transform="scale(1.2959246,0.7716499)"
         aria-label="1" />
      <path
         style="font-size:17.0609px;line-height:1.25;font-family:'Bitstream Vera Sans';stroke-width:1px"
         d="m 75.2213,1155.9114 h -8.397161 v -1.7411 q 0.874704,-0.7497 1.749408,-1.4995 0.883035,-0.7497 1.641112,-1.4912 1.59946,-1.5494 2.190926,-2.4575 0.591467,-0.9163 0.591467,-1.9743 0,-0.9663 -0.64145,-1.5078 -0.633119,-0.5498 -1.7744,-0.5498 -0.758077,0 -1.641112,0.2665 -0.883035,0.2666 -1.724417,0.8164 h -0.0833 v -1.7494 q 0.591467,-0.2915 1.574468,-0.5331 0.991331,-0.2416 1.916019,-0.2416 1.907688,0 2.990655,0.9247 1.082968,0.9163 1.082968,2.4908 0,0.7081 -0.183272,1.3246 -0.174941,0.6081 -0.524822,1.1579 -0.32489,0.5165 -0.766408,1.0163 -0.433187,0.4999 -1.057976,1.108 -0.891365,0.8747 -1.841044,1.6994 -0.949679,0.8164 -1.7744,1.5162 H 75.2213 Z"
         id="text3360"
         transform="scale(1.2662496,0.7897337)"
         aria-label="2" />
      <path
         style="font-size:16.7604px;line-height:1.25;font-family:'Bitstream Vera Sans';stroke-width:1px"
         d="m 75.195396,1166.1773 q 0.392822,0.3519 0.646519,0.8838 0.253698,0.532 0.253698,1.3749 0,0.8347 -0.3028,1.5304 -0.302801,0.6956 -0.851114,1.2112 -0.613785,0.5728 -1.448531,0.8511 -0.826563,0.27 -1.816801,0.27 -1.01479,0 -1.996845,-0.2455 -0.982055,-0.2373 -1.612207,-0.5237 v -1.7104 h 0.122757 q 0.695622,0.4582 1.636758,0.761 0.941136,0.3028 1.816801,0.3028 0.515579,0 1.096628,-0.1718 0.581049,-0.1719 0.941136,-0.5074 0.376454,-0.3601 0.556498,-0.7938 0.188227,-0.4338 0.188227,-1.0967 0,-0.6547 -0.212779,-1.0802 -0.204594,-0.4338 -0.572865,-0.6793 -0.368271,-0.2537 -0.892033,-0.3437 -0.523763,-0.098 -1.129363,-0.098 h -0.736541 v -1.3585 h 0.572865 q 1.243936,0 1.980477,-0.5156 0.744725,-0.5238 0.744725,-1.5222 0,-0.4419 -0.188227,-0.7693 -0.188227,-0.3355 -0.523763,-0.5483 -0.351903,-0.2127 -0.752908,-0.2946 -0.401006,-0.082 -0.908401,-0.082 -0.77746,0 -1.653125,0.2782 -0.875666,0.2783 -1.653126,0.7857 h -0.08184 v -1.7104 q 0.581049,-0.2865 1.546737,-0.5238 0.97387,-0.2455 1.882271,-0.2455 0.892033,0 1.571288,0.1637 0.679254,0.1636 1.227568,0.5237 0.589233,0.3928 0.892033,0.9493 0.3028,0.5565 0.3028,1.3013 0,1.0148 -0.720173,1.7758 -0.71199,0.753 -1.685861,0.9494 v 0.1145 q 0.392822,0.066 0.900217,0.2783 0.507395,0.2046 0.859298,0.5156 z"
         id="text3364"
         transform="scale(1.2430621,0.804465)"
         aria-label="3" />
    </g>
    <g
       transform="translate(-74.499994,-813.06014)"
       id="g4916">
      <path
         style="font-size:16.1981px;line-height:1.25;font-family:'Bitstream Vera Sans';stroke-width:1px"
         d="m 77.133985,1038.7546 q 0,3.1716 -0.996563,4.6585 -0.988654,1.4791 -3.07669,1.4791 -2.119673,0 -3.100417,-1.5028 -0.972835,-1.5027 -0.972835,-4.619 0,-3.1399 0.988653,-4.6348 0.988654,-1.5027 3.084599,-1.5027 2.119673,0 3.092508,1.5264 0.980745,1.5186 0.980745,4.5953 z m -2.080127,3.5908 q 0.276823,-0.6407 0.371733,-1.5028 0.10282,-0.87 0.10282,-2.088 0,-1.2022 -0.10282,-2.088 -0.09491,-0.8859 -0.379643,-1.5028 -0.276823,-0.609 -0.759286,-0.9175 -0.474553,-0.3084 -1.22593,-0.3084 -0.743467,0 -1.233839,0.3084 -0.482463,0.3085 -0.767196,0.9333 -0.268913,0.5853 -0.371733,1.5265 -0.09491,0.9412 -0.09491,2.0643 0,1.2339 0.087,2.0643 0.087,0.8305 0.371734,1.487 0.261005,0.6169 0.735558,0.9412 0.482463,0.3242 1.273386,0.3242 0.743468,0 1.23384,-0.3084 0.490372,-0.3085 0.759286,-0.9333 z"
         id="text4918"
         transform="scale(1.2251409,0.8162327)"
         aria-label="0" />
      <path
         style="font-size:17.7766px;line-height:1.25;font-family:'Bitstream Vera Sans';stroke-width:1px"
         d="m 72.660518,1144.1229 h -6.996064 v -1.3193 h 2.690794 v -8.6627 h -2.690794 v -1.1804 q 0.546838,0 1.171797,-0.087 0.624959,-0.096 0.946118,-0.2691 0.399279,-0.217 0.624958,-0.5468 0.23436,-0.3386 0.26908,-0.9028 h 1.345397 v 11.6486 h 2.638714 z"
         id="text4922"
         transform="scale(1.2959246,0.7716499)"
         aria-label="1" />
      <path
         style="font-size:17.0609px;line-height:1.25;font-family:'Bitstream Vera Sans';stroke-width:1px"
         d="m 75.2213,1155.9114 h -8.397161 v -1.7411 q 0.874704,-0.7497 1.749408,-1.4995 0.883035,-0.7497 1.641112,-1.4912 1.59946,-1.5494 2.190926,-2.4575 0.591467,-0.9163 0.591467,-1.9743 0,-0.9663 -0.64145,-1.5078 -0.633119,-0.5498 -1.7744,-0.5498 -0.758077,0 -1.641112,0.2665 -0.883035,0.2666 -1.724417,0.8164 h -0.0833 v -1.7494 q 0.591467,-0.2915 1.574468,-0.5331 0.991331,-0.2416 1.916019,-0.2416 1.907688,0 2.990655,0.9247 1.082968,0.9163 1.082968,2.4908 0,0.7081 -0.183272,1.3246 -0.174941,0.6081 -0.524822,1.1579 -0.32489,0.5165 -0.766408,1.0163 -0.433187,0.4999 -1.057976,1.108 -0.891365,0.8747 -1.841044,1.6994 -0.949679,0.8164 -1.7744,1.5162 H 75.2213 Z"
         id="text4926"
         transform="scale(1.2662496,0.7897337)"
         aria-label="2" />
      <path
         style="font-size:16.7604px;line-height:1.25;font-family:'Bitstream Vera Sans';stroke-width:1px"
         d="m 75.195396,1166.1773 q 0.392822,0.3519 0.646519,0.8838 0.253698,0.532 0.253698,1.3749 0,0.8347 -0.3028,1.5304 -0.302801,0.6956 -0.851114,1.2112 -0.613785,0.5728 -1.448531,0.8511 -0.826563,0.27 -1.816801,0.27 -1.01479,0 -1.996845,-0.2455 -0.982055,-0.2373 -1.612207,-0.5237 v -1.7104 h 0.122757 q 0.695622,0.4582 1.636758,0.761 0.941136,0.3028 1.816801,0.3028 0.515579,0 1.096628,-0.1718 0.581049,-0.1719 0.941136,-0.5074 0.376454,-0.3601 0.556498,-0.7938 0.188227,-0.4338 0.188227,-1.0967 0,-0.6547 -0.212779,-1.0802 -0.204594,-0.4338 -0.572865,-0.6793 -0.368271,-0.2537 -0.892033,-0.3437 -0.523763,-0.098 -1.129363,-0.098 h -0.736541 v -1.3585 h 0.572865 q 1.243936,0 1.980477,-0.5156 0.744725,-0.5238 0.744725,-1.5222 0,-0.4419 -0.188227,-0.7693 -0.188227,-0.3355 -0.523763,-0.5483 -0.351903,-0.2127 -0.752908,-0.2946 -0.401006,-0.082 -0.908401,-0.082 -0.77746,0 -1.653125,0.2782 -0.875666,0.2783 -1.653126,0.7857 h -0.08184 v -1.7104 q 0.581049,-0.2865 1.546737,-0.5238 0.97387,-0.2455 1.882271,-0.2455 0.892033,0 1.571288,0.1637 0.679254,0.1636 1.227568,0.5237 0.589233,0.3928 0.892033,0.9493 0.3028,0.5565 0.3028,1.3013 0,1.0148 -0.720173,1.7758 -0.71199,0.753 -1.685861,0.9494 v 0.1145 q 0.392822,0.066 0.900217,0.2783 0.507395,0.2046 0.859298,0.5156 z"
         id="text4930"
         transform="scale(1.2430621,0.804465)"
         aria-label="3" />
    </g>
  </g>
</svg>
