<?xml version="1.0" encoding="UTF-8" standalone="no"?>
<!-- Created with Inkscape (http://www.inkscape.org/) -->

<svg
   width="800"
   height="600"
   id="svg2"
   version="1.1"
   xmlns="http://www.w3.org/2000/svg"
   xmlns:svg="http://www.w3.org/2000/svg"
   xmlns:rdf="http://www.w3.org/1999/02/22-rdf-syntax-ns#"
   xmlns:cc="http://creativecommons.org/ns#"
   xmlns:dc="http://purl.org/dc/elements/1.1/">
  <defs
     id="defs4" />
  <metadata
     id="metadata7">
    <rdf:RDF>
      <cc:Work
         rdf:about="">
        <dc:format>image/svg+xml</dc:format>
        <dc:type
           rdf:resource="http://purl.org/dc/dcmitype/StillImage" />
        <dc:language>en</dc:language>
        <cc:license
           rdf:resource="https://timefold.ai/license" />
      </cc:Work>
    </rdf:RDF>
  </metadata>
  <g
     id="layer3"
     style="display:inline">
    <path
       style="font-size:15px;line-height:1.25;font-family:'Liberation Sans';-inkscape-font-specification:'Liberation Sans, Normal';text-align:end;text-anchor:end"
       d="m 676.17822,125.20663 v -10.73731 h 7.24365 v 1.26709 h -5.82275 v 3.3252 h 5.03906 v 1.26709 h -5.03906 v 4.87793 z m 8.92823,-9.22119 v -1.51612 h 1.31835 v 1.51612 z m 0,9.22119 v -7.77832 h 1.31835 v 7.77832 z m 3.32519,0 v -7.77832 h 1.18652 v 1.10596 q 0.85694,-1.28174 2.47559,-1.28174 0.70312,0 1.28906,0.25634 0.59326,0.24903 0.88623,0.65918 0.29297,0.41016 0.41016,0.97413 0.0732,0.36621 0.0732,1.28173 v 4.78272 h -1.31836 v -4.73145 q 0,-0.80566 -0.15381,-1.20117 -0.15381,-0.40283 -0.54931,-0.63721 -0.38819,-0.24169 -0.91553,-0.24169 -0.84229,0 -1.45752,0.53466 -0.60791,0.53467 -0.60791,2.02881 v 4.24805 z m 13.41797,-0.95947 q -0.73242,0.62255 -1.41357,0.8789 -0.67383,0.25635 -1.4502,0.25635 -1.28174,0 -1.97022,-0.62256 -0.68847,-0.62988 -0.68847,-1.604 0,-0.57129 0.25635,-1.04004 0.26367,-0.47608 0.68115,-0.76172 0.4248,-0.28564 0.95215,-0.43213 0.38818,-0.10254 1.17187,-0.19775 1.59668,-0.19043 2.35108,-0.4541 0.007,-0.271 0.007,-0.34424 0,-0.80567 -0.37353,-1.13526 -0.50538,-0.44677 -1.50147,-0.44677 -0.93018,0 -1.37695,0.32959 -0.43946,0.32226 -0.65186,1.1499 l -1.28906,-0.17578 q 0.17578,-0.82764 0.57861,-1.33301 0.40283,-0.5127 1.16455,-0.78369 0.76172,-0.27832 1.76514,-0.27832 0.99609,0 1.61865,0.23437 0.62256,0.23438 0.91553,0.59326 0.29297,0.35157 0.41016,0.89356 0.0659,0.33691 0.0659,1.21582 v 1.75781 q 0,1.83838 0.0806,2.3291 0.0879,0.4834 0.33691,0.93018 h -1.37695 q -0.20508,-0.41016 -0.26367,-0.95947 z m -0.10986,-2.94434 q -0.71778,0.29297 -2.15332,0.49805 -0.81299,0.11718 -1.14991,0.26367 -0.33691,0.14648 -0.52002,0.43213 -0.1831,0.27832 -0.1831,0.62256 0,0.52734 0.39551,0.8789 0.40283,0.35157 1.17187,0.35157 0.76172,0 1.35498,-0.32959 0.59326,-0.33692 0.87158,-0.91553 0.21241,-0.44678 0.21241,-1.31836 z m 3.37646,3.90381 v -7.77832 h 1.18652 v 1.10596 q 0.85694,-1.28174 2.47559,-1.28174 0.70313,0 1.28906,0.25634 0.59326,0.24903 0.88623,0.65918 0.29297,0.41016 0.41016,0.97413 0.0732,0.36621 0.0732,1.28173 v 4.78272 h -1.31836 v -4.73145 q 0,-0.80566 -0.15381,-1.20117 -0.1538,-0.40283 -0.54931,-0.63721 -0.38819,-0.24169 -0.91553,-0.24169 -0.84229,0 -1.45752,0.53466 -0.60791,0.53467 -0.60791,2.02881 v 4.24805 z m 13.41797,-2.84912 1.29639,0.16845 q -0.21241,1.34034 -1.09131,2.10206 -0.87158,0.75439 -2.146,0.75439 -1.59668,0 -2.5708,-1.04004 -0.9668,-1.04736 -0.9668,-2.9956 0,-1.25977 0.41748,-2.20459 0.41748,-0.94483 1.26709,-1.41358 0.85694,-0.47607 1.86036,-0.47607 1.26709,0 2.07275,0.64453 0.80566,0.63721 1.03271,1.8164 l -1.28173,0.19776 q -0.18311,-0.78369 -0.65186,-1.1792 -0.46142,-0.39551 -1.1206,-0.39551 -0.9961,0 -1.61866,0.71778 -0.62256,0.71044 -0.62256,2.25585 0,1.56739 0.60059,2.27784 0.60059,0.71045 1.56738,0.71045 0.77637,0 1.29639,-0.47608 0.52002,-0.47607 0.65918,-1.46484 z m 2.43164,-6.37207 v -1.51612 h 1.31836 v 1.51612 z m 0,9.22119 v -7.77832 h 1.31836 v 7.77832 z m 8.40088,-0.95947 q -0.73242,0.62255 -1.41358,0.8789 -0.67382,0.25635 -1.45019,0.25635 -1.28174,0 -1.97022,-0.62256 -0.68847,-0.62988 -0.68847,-1.604 0,-0.57129 0.25635,-1.04004 0.26367,-0.47608 0.68115,-0.76172 0.4248,-0.28564 0.95215,-0.43213 0.38818,-0.10254 1.17187,-0.19775 1.59668,-0.19043 2.35108,-0.4541 0.007,-0.271 0.007,-0.34424 0,-0.80567 -0.37354,-1.13526 -0.50537,-0.44677 -1.50146,-0.44677 -0.93018,0 -1.37695,0.32959 -0.43946,0.32226 -0.65186,1.1499 l -1.28906,-0.17578 q 0.17578,-0.82764 0.57861,-1.33301 0.40283,-0.5127 1.16455,-0.78369 0.76172,-0.27832 1.76514,-0.27832 0.99609,0 1.61865,0.23437 0.62256,0.23438 0.91553,0.59326 0.29297,0.35157 0.41016,0.89356 0.0659,0.33691 0.0659,1.21582 v 1.75781 q 0,1.83838 0.0806,2.3291 0.0879,0.4834 0.33691,0.93018 h -1.37695 q -0.20508,-0.41016 -0.26367,-0.95947 z m -0.10986,-2.94434 q -0.71778,0.29297 -2.15332,0.49805 -0.81299,0.11718 -1.14991,0.26367 -0.33691,0.14648 -0.52002,0.43213 -0.1831,0.27832 -0.1831,0.62256 0,0.52734 0.39551,0.8789 0.40283,0.35157 1.17187,0.35157 0.76172,0 1.35498,-0.32959 0.59326,-0.33692 0.87158,-0.91553 0.21241,-0.44678 0.21241,-1.31836 z m 3.34716,3.90381 v -10.73731 h 1.31836 v 10.73731 z m 7.00196,-2.32178 1.30371,-0.20508 q 0.10986,0.78369 0.60791,1.20118 0.50537,0.41748 1.40625,0.41748 0.9082,0 1.34765,-0.36622 0.43946,-0.37353 0.43946,-0.87158 0,-0.44677 -0.38819,-0.70312 -0.27099,-0.17578 -1.34765,-0.44678 -1.4502,-0.36621 -2.01416,-0.62988 -0.55664,-0.271 -0.84961,-0.73975 -0.28565,-0.47607 -0.28565,-1.04736 0,-0.52002 0.23438,-0.95947 0.2417,-0.44678 0.65185,-0.73975 0.30762,-0.22705 0.83496,-0.38086 0.53467,-0.16113 1.14258,-0.16113 0.91553,0 1.60401,0.26367 0.6958,0.26367 1.02539,0.71777 0.32959,0.44678 0.4541,1.20117 l -1.28906,0.17579 q -0.0879,-0.60059 -0.5127,-0.9375 -0.41748,-0.33692 -1.18652,-0.33692 -0.90821,0 -1.29639,0.30029 -0.38818,0.3003 -0.38818,0.70313 0,0.25635 0.16113,0.46143 0.16113,0.2124 0.50537,0.35156 0.19776,0.0732 1.16455,0.33691 1.39893,0.37354 1.94824,0.61524 0.55665,0.23437 0.87159,0.68847 0.31494,0.4541 0.31494,1.12793 0,0.65918 -0.38819,1.24512 -0.38086,0.57861 -1.10595,0.90088 -0.7251,0.31494 -1.64063,0.31494 -1.51611,0 -2.31445,-0.62988 -0.79102,-0.62989 -1.01074,-1.86768 z m 10.90576,1.14258 0.19043,1.16455 q -0.55664,0.11719 -0.9961,0.11719 -0.71777,0 -1.11328,-0.22705 -0.3955,-0.22705 -0.55664,-0.59326 -0.16113,-0.37354 -0.16113,-1.56006 v -4.4751 h -0.9668 v -1.02539 h 0.9668 v -1.92627 l 1.31104,-0.79102 v 2.71729 h 1.32568 v 1.02539 h -1.32568 v 4.54834 q 0,0.56396 0.0659,0.7251 0.0733,0.16113 0.22705,0.25634 0.16114,0.0952 0.45411,0.0952 0.21972,0 0.57861,-0.0513 z m 6.36474,0.21973 q -0.73242,0.62255 -1.41357,0.8789 -0.67383,0.25635 -1.45019,0.25635 -1.28174,0 -1.97022,-0.62256 -0.68848,-0.62988 -0.68848,-1.604 0,-0.57129 0.25635,-1.04004 0.26367,-0.47608 0.68115,-0.76172 0.42481,-0.28564 0.95215,-0.43213 0.38819,-0.10254 1.17188,-0.19775 1.59668,-0.19043 2.35107,-0.4541 0.007,-0.271 0.007,-0.34424 0,-0.80567 -0.37354,-1.13526 -0.50537,-0.44677 -1.50146,-0.44677 -0.93018,0 -1.37696,0.32959 -0.43945,0.32226 -0.65185,1.1499 l -1.28907,-0.17578 q 0.17579,-0.82764 0.57862,-1.33301 0.40283,-0.5127 1.16455,-0.78369 0.76172,-0.27832 1.76514,-0.27832 0.99609,0 1.61865,0.23437 0.62256,0.23438 0.91553,0.59326 0.29296,0.35157 0.41015,0.89356 0.0659,0.33691 0.0659,1.21582 v 1.75781 q 0,1.83838 0.0806,2.3291 0.0879,0.4834 0.33691,0.93018 h -1.37695 q -0.20508,-0.41016 -0.26368,-0.95947 z m -0.10986,-2.94434 q -0.71777,0.29297 -2.15332,0.49805 -0.81299,0.11718 -1.1499,0.26367 -0.33692,0.14648 -0.52002,0.43213 -0.18311,0.27832 -0.18311,0.62256 0,0.52734 0.39551,0.8789 0.40283,0.35157 1.17188,0.35157 0.76172,0 1.35498,-0.32959 0.59326,-0.33692 0.87158,-0.91553 0.2124,-0.44678 0.2124,-1.31836 z m 3.38379,3.90381 v -10.73731 h 1.31836 v 6.12305 l 3.12012,-3.16406 h 1.70654 l -2.97363,2.88574 3.27392,4.89258 h -1.62597 l -2.5708,-3.97705 -0.93018,0.89355 v 3.0835 z m 12.81738,-2.50488 1.36231,0.16845 q -0.32227,1.19385 -1.19385,1.85303 -0.87158,0.65918 -2.22656,0.65918 -1.70655,0 -2.70996,-1.04736 -0.9961,-1.05469 -0.9961,-2.95166 0,-1.96289 1.01075,-3.04688 1.01074,-1.08398 2.62207,-1.08398 1.56005,0 2.54882,1.06201 0.98877,1.06201 0.98877,2.98828 0,0.11719 -0.007,0.35156 h -5.80078 q 0.0732,1.28174 0.7251,1.96289 0.65185,0.68116 1.62597,0.68116 0.7251,0 1.2378,-0.38086 0.51269,-0.38086 0.81298,-1.21582 z m -4.32861,-2.13135 h 4.34326 q -0.0879,-0.98145 -0.49805,-1.47217 -0.62988,-0.76172 -1.6333,-0.76172 -0.9082,0 -1.53076,0.60791 -0.61523,0.60791 -0.68115,1.62598 z m 7.34619,4.63623 v -10.73731 h 1.31836 v 3.85254 q 0.92285,-1.06933 2.3291,-1.06933 0.86426,0 1.50147,0.34424 0.6372,0.33691 0.9082,0.9375 0.27832,0.60058 0.27832,1.74316 v 4.9292 h -1.31836 v -4.9292 q 0,-0.98877 -0.43213,-1.43555 -0.4248,-0.4541 -1.20849,-0.4541 -0.58594,0 -1.10596,0.30762 -0.5127,0.30029 -0.73242,0.82031 -0.21973,0.52002 -0.21973,1.43555 v 4.25537 z m 7.85156,-3.88916 q 0,-2.16065 1.20118,-3.20068 1.00341,-0.86426 2.44628,-0.86426 1.60401,0 2.62208,1.05468 1.01806,1.04737 1.01806,2.9004 0,1.50146 -0.4541,2.36572 -0.44678,0.85693 -1.31104,1.33301 -0.85693,0.47607 -1.875,0.47607 -1.6333,0 -2.64404,-1.04736 -1.00342,-1.04737 -1.00342,-3.01758 z m 1.35498,0 q 0,1.49414 0.65186,2.24121 0.65186,0.73975 1.64062,0.73975 0.98145,0 1.63331,-0.74707 0.65185,-0.74707 0.65185,-2.27784 0,-1.44287 -0.65918,-2.18261 -0.65185,-0.74707 -1.62598,-0.74707 -0.98876,0 -1.64062,0.73974 -0.65186,0.73975 -0.65186,2.23389 z m 7.44873,3.88916 v -10.73731 h 1.31836 v 10.73731 z m 8.40821,0 v -0.98145 q -0.73975,1.15723 -2.17529,1.15723 -0.93018,0 -1.71387,-0.5127 -0.77637,-0.51269 -1.2085,-1.42822 -0.4248,-0.92285 -0.4248,-2.1167 0,-1.16455 0.38818,-2.10937 0.38818,-0.95215 1.16455,-1.45752 0.77637,-0.50537 1.73584,-0.50537 0.70313,0 1.25244,0.30029 0.54932,0.29297 0.89356,0.76904 v -3.85254 h 1.31103 v 10.73731 z m -4.16748,-3.88184 q 0,1.49414 0.62988,2.23389 0.62988,0.73975 1.48682,0.73975 0.86425,0 1.46484,-0.70313 0.60791,-0.71045 0.60791,-2.16064 0,-1.59668 -0.61523,-2.34375 -0.61524,-0.74707 -1.51612,-0.74707 -0.8789,0 -1.47216,0.71777 -0.58594,0.71777 -0.58594,2.26318 z m 12.78808,1.37696 1.36231,0.16845 q -0.32227,1.19385 -1.19385,1.85303 -0.87158,0.65918 -2.22656,0.65918 -1.70654,0 -2.70996,-1.04736 -0.9961,-1.05469 -0.9961,-2.95166 0,-1.96289 1.01075,-3.04688 1.01074,-1.08398 2.62207,-1.08398 1.56005,0 2.54882,1.06201 0.98877,1.06201 0.98877,2.98828 0,0.11719 -0.007,0.35156 h -5.80078 q 0.0732,1.28174 0.7251,1.96289 0.65185,0.68116 1.62597,0.68116 0.7251,0 1.2378,-0.38086 0.51269,-0.38086 0.81298,-1.21582 z m -4.32861,-2.13135 h 4.34326 q -0.0879,-0.98145 -0.49804,-1.47217 -0.62989,-0.76172 -1.63331,-0.76172 -0.9082,0 -1.53076,0.60791 -0.61523,0.60791 -0.68115,1.62598 z m 7.33154,4.63623 v -7.77832 h 1.18653 v 1.1792 q 0.4541,-0.82764 0.83496,-1.09131 0.38818,-0.26367 0.84961,-0.26367 0.6665,0 1.35498,0.4248 l -0.4541,1.22315 q -0.4834,-0.28565 -0.9668,-0.28565 -0.43213,0 -0.77637,0.26367 -0.34424,0.25635 -0.49072,0.71778 -0.21973,0.70312 -0.21973,1.53808 v 4.07227 z m 4.48243,-2.32178 1.30371,-0.20508 q 0.10986,0.78369 0.60791,1.20118 0.50537,0.41748 1.40625,0.41748 0.9082,0 1.34765,-0.36622 0.43946,-0.37353 0.43946,-0.87158 0,-0.44677 -0.38819,-0.70312 -0.27099,-0.17578 -1.34765,-0.44678 -1.4502,-0.36621 -2.01416,-0.62988 -0.55665,-0.271 -0.84961,-0.73975 -0.28565,-0.47607 -0.28565,-1.04736 0,-0.52002 0.23438,-0.95947 0.2417,-0.44678 0.65185,-0.73975 0.30762,-0.22705 0.83496,-0.38086 0.53467,-0.16113 1.14258,-0.16113 0.91553,0 1.60401,0.26367 0.6958,0.26367 1.02539,0.71777 0.32959,0.44678 0.4541,1.20117 l -1.28907,0.17579 q -0.0879,-0.60059 -0.51269,-0.9375 -0.41748,-0.33692 -1.18652,-0.33692 -0.90821,0 -1.29639,0.30029 -0.38818,0.3003 -0.38818,0.70313 0,0.25635 0.16113,0.46143 0.16113,0.2124 0.50537,0.35156 0.19775,0.0732 1.16455,0.33691 1.39893,0.37354 1.94824,0.61524 0.55664,0.23437 0.87158,0.68847 0.31495,0.4541 0.31495,1.12793 0,0.65918 -0.38819,1.24512 -0.38086,0.57861 -1.10595,0.90088 -0.7251,0.31494 -1.64063,0.31494 -1.51611,0 -2.31445,-0.62988 -0.79102,-0.62989 -1.01074,-1.86768 z"
       id="flowRoot5975"
       transform="translate(-94.193841,318.3048)"
       aria-label="Financial stakeholders" />
    <path
       style="color:#000000;display:inline;overflow:visible;visibility:visible;opacity:1;fill:none;fill-opacity:1;fill-rule:nonzero;stroke:#000000;stroke-width:1;stroke-linecap:round;stroke-linejoin:round;stroke-miterlimit:4;stroke-dasharray:none;stroke-dashoffset:1;stroke-opacity:1;marker:none;enable-background:accumulate"
       d="m 50,420.00003 700,0"
       id="path3666" />
    <path
       id="path4468"
       d="m 740,410.00003 10,10"
       style="color:#000000;display:inline;overflow:visible;visibility:visible;opacity:1;fill:none;fill-opacity:1;fill-rule:nonzero;stroke:#000000;stroke-width:1;stroke-linecap:round;stroke-linejoin:round;stroke-miterlimit:4;stroke-dasharray:none;stroke-dashoffset:1;stroke-opacity:1;marker:none;enable-background:accumulate" />
    <path
       style="color:#000000;display:inline;overflow:visible;visibility:visible;opacity:1;fill:none;fill-opacity:1;fill-rule:nonzero;stroke:#000000;stroke-width:1;stroke-linecap:round;stroke-linejoin:round;stroke-miterlimit:4;stroke-dasharray:none;stroke-dashoffset:1;stroke-opacity:1;marker:none;enable-background:accumulate"
       d="m 740,430.00003 10,-10"
       id="path4470" />
    <path
       id="path4472"
       d="m 50,420.00003 10,10"
       style="color:#000000;display:inline;overflow:visible;visibility:visible;opacity:1;fill:none;fill-opacity:1;fill-rule:nonzero;stroke:#000000;stroke-width:1;stroke-linecap:round;stroke-linejoin:round;stroke-miterlimit:4;stroke-dasharray:none;stroke-dashoffset:1;stroke-opacity:1;marker:none;enable-background:accumulate" />
    <path
       style="color:#000000;display:inline;overflow:visible;visibility:visible;opacity:1;fill:none;fill-opacity:1;fill-rule:nonzero;stroke:#000000;stroke-width:1;stroke-linecap:round;stroke-linejoin:round;stroke-miterlimit:4;stroke-dasharray:none;stroke-dashoffset:1;stroke-opacity:1;marker:none;enable-background:accumulate"
       d="m 50,420.00003 10,-10"
       id="path4474" />
    <path
       style="font-size:15px;line-height:1.25;font-family:'Liberation Sans';-inkscape-font-specification:'Liberation Sans, Normal'"
       d="m 173.48779,124.05673 q 0.98877,0.68115 1.82373,0.99609 l -0.41748,0.98877 q -1.15722,-0.41748 -2.30713,-1.31836 -1.19384,0.6665 -2.63671,0.6665 -1.45752,0 -2.64405,-0.70312 -1.18652,-0.70313 -1.83105,-1.97754 -0.63721,-1.27441 -0.63721,-2.87109 0,-1.58936 0.64453,-2.89307 0.64453,-1.30371 1.83106,-1.98486 1.19384,-0.68116 2.66601,-0.68116 1.48682,0 2.68067,0.71045 1.19384,0.70313 1.8164,1.97754 0.62989,1.26709 0.62989,2.86377 0,1.32569 -0.40284,2.3877 -0.40283,1.05469 -1.21582,1.83838 z m -3.12744,-1.81641 q 1.23047,0.34424 2.02881,1.02539 1.25244,-1.14258 1.25244,-3.43506 0,-1.30371 -0.44678,-2.27783 -0.43945,-0.97412 -1.29638,-1.50879 -0.84961,-0.54199 -1.91162,-0.54199 -1.58936,0 -2.63672,1.09131 -1.04737,1.08398 -1.04737,3.24463 0,2.09472 1.03272,3.21533 1.04004,1.1206 2.65137,1.1206 0.76172,0 1.43554,-0.28564 -0.6665,-0.43213 -1.40625,-0.61523 z m 11.58692,2.96631 v -1.14258 q -0.90821,1.31836 -2.46827,1.31836 -0.68847,0 -1.28906,-0.26367 -0.59326,-0.26367 -0.88623,-0.65918 -0.28564,-0.40283 -0.40283,-0.98145 -0.0806,-0.38818 -0.0806,-1.23047 v -4.81933 h 1.31836 v 4.31396 q 0,1.03272 0.0806,1.3916 0.12451,0.52002 0.52734,0.82032 0.40283,0.29297 0.9961,0.29297 0.59326,0 1.11328,-0.3003 0.52002,-0.30761 0.73242,-0.82763 0.21973,-0.52735 0.21973,-1.52344 v -4.16748 h 1.31835 v 7.77832 z m 8.32031,-0.95947 q -0.73242,0.62255 -1.41358,0.8789 -0.67382,0.25635 -1.45019,0.25635 -1.28174,0 -1.97022,-0.62256 -0.68847,-0.62988 -0.68847,-1.604 0,-0.57129 0.25634,-1.04004 0.26368,-0.47608 0.68116,-0.76172 0.4248,-0.28564 0.95215,-0.43213 0.38818,-0.10254 1.17187,-0.19775 1.59668,-0.19043 2.35107,-0.4541 0.007,-0.271 0.007,-0.34424 0,-0.80567 -0.37354,-1.13526 -0.50537,-0.44677 -1.50146,-0.44677 -0.93018,0 -1.37695,0.32959 -0.43946,0.32226 -0.65186,1.1499 l -1.28906,-0.17578 q 0.17578,-0.82764 0.57861,-1.33301 0.40283,-0.5127 1.16455,-0.78369 0.76172,-0.27832 1.76514,-0.27832 0.99609,0 1.61865,0.23437 0.62256,0.23438 0.91553,0.59326 0.29297,0.35157 0.41015,0.89356 0.0659,0.33691 0.0659,1.21582 v 1.75781 q 0,1.83838 0.0806,2.3291 0.0879,0.4834 0.33691,0.93018 h -1.37695 q -0.20508,-0.41016 -0.26367,-0.95947 z m -0.10987,-2.94434 q -0.71777,0.29297 -2.15332,0.49805 -0.81298,0.11718 -1.1499,0.26367 -0.33691,0.14648 -0.52002,0.43213 -0.1831,0.27832 -0.1831,0.62256 0,0.52734 0.3955,0.8789 0.40284,0.35157 1.17188,0.35157 0.76172,0 1.35498,-0.32959 0.59326,-0.33692 0.87158,-0.91553 0.2124,-0.44678 0.2124,-1.31836 z m 3.34717,3.90381 v -10.73731 h 1.31836 v 10.73731 z m 3.36914,-9.22119 v -1.51612 h 1.31836 v 1.51612 z m 0,9.22119 v -7.77832 h 1.31836 v 7.77832 z m 6.20362,-1.1792 0.19043,1.16455 q -0.55664,0.11719 -0.9961,0.11719 -0.71777,0 -1.11328,-0.22705 -0.39551,-0.22705 -0.55664,-0.59326 -0.16113,-0.37354 -0.16113,-1.56006 v -4.4751 h -0.9668 v -1.02539 h 0.9668 v -1.92627 l 1.31103,-0.79102 v 2.71729 h 1.32569 v 1.02539 h -1.32569 v 4.54834 q 0,0.56396 0.0659,0.7251 0.0732,0.16113 0.22705,0.25634 0.16113,0.0952 0.4541,0.0952 0.21973,0 0.57862,-0.0513 z m 1.23047,4.1748 -0.14649,-1.23779 q 0.43213,0.11719 0.7544,0.11719 0.43945,0 0.70312,-0.14649 0.26367,-0.14648 0.43213,-0.41015 0.12451,-0.19776 0.40283,-0.98145 0.0366,-0.10986 0.11719,-0.32226 l -2.95166,-7.79297 h 1.4209 l 1.61865,4.50439 q 0.31494,0.85694 0.56396,1.80176 0.22706,-0.9082 0.542,-1.77246 l 1.66259,-4.53369 h 1.31836 l -2.95898,7.91015 q -0.47607,1.28174 -0.73975,1.76514 -0.35156,0.65186 -0.80566,0.95215 -0.4541,0.30762 -1.08399,0.30762 -0.38085,0 -0.8496,-0.16114 z m 11.19873,-5.31738 1.30371,-0.20508 q 0.10986,0.78369 0.60791,1.20118 0.50537,0.41748 1.40625,0.41748 0.9082,0 1.34765,-0.36622 0.43946,-0.37353 0.43946,-0.87158 0,-0.44677 -0.38819,-0.70312 -0.27099,-0.17578 -1.34765,-0.44678 -1.4502,-0.36621 -2.01416,-0.62988 -0.55664,-0.271 -0.84961,-0.73975 -0.28565,-0.47607 -0.28565,-1.04736 0,-0.52002 0.23438,-0.95947 0.2417,-0.44678 0.65185,-0.73975 0.30762,-0.22705 0.83496,-0.38086 0.53467,-0.16113 1.14258,-0.16113 0.91553,0 1.60401,0.26367 0.6958,0.26367 1.02539,0.71777 0.32959,0.44678 0.4541,1.20117 l -1.28906,0.17579 q -0.0879,-0.60059 -0.5127,-0.9375 -0.41748,-0.33692 -1.18652,-0.33692 -0.90821,0 -1.29639,0.30029 -0.38818,0.3003 -0.38818,0.70313 0,0.25635 0.16113,0.46143 0.16113,0.2124 0.50537,0.35156 0.19775,0.0732 1.16455,0.33691 1.39893,0.37354 1.94824,0.61524 0.55664,0.23437 0.87159,0.68847 0.31494,0.4541 0.31494,1.12793 0,0.65918 -0.38819,1.24512 -0.38086,0.57861 -1.10595,0.90088 -0.7251,0.31494 -1.64063,0.31494 -1.51611,0 -2.31445,-0.62988 -0.79102,-0.62989 -1.01074,-1.86768 z m 10.90576,1.14258 0.19043,1.16455 q -0.55664,0.11719 -0.9961,0.11719 -0.71777,0 -1.11328,-0.22705 -0.39551,-0.22705 -0.55664,-0.59326 -0.16113,-0.37354 -0.16113,-1.56006 v -4.4751 h -0.9668 v -1.02539 h 0.9668 v -1.92627 l 1.31103,-0.79102 v 2.71729 h 1.32569 v 1.02539 h -1.32569 v 4.54834 q 0,0.56396 0.0659,0.7251 0.0732,0.16113 0.22705,0.25634 0.16114,0.0952 0.4541,0.0952 0.21973,0 0.57862,-0.0513 z m 6.36474,0.21973 q -0.73242,0.62255 -1.41357,0.8789 -0.67383,0.25635 -1.4502,0.25635 -1.28173,0 -1.97021,-0.62256 -0.68848,-0.62988 -0.68848,-1.604 0,-0.57129 0.25635,-1.04004 0.26367,-0.47608 0.68115,-0.76172 0.42481,-0.28564 0.95215,-0.43213 0.38818,-0.10254 1.17188,-0.19775 1.59668,-0.19043 2.35107,-0.4541 0.007,-0.271 0.007,-0.34424 0,-0.80567 -0.37353,-1.13526 -0.50537,-0.44677 -1.50147,-0.44677 -0.93017,0 -1.37695,0.32959 -0.43945,0.32226 -0.65185,1.1499 l -1.28907,-0.17578 q 0.17578,-0.82764 0.57862,-1.33301 0.40283,-0.5127 1.16455,-0.78369 0.76172,-0.27832 1.76513,-0.27832 0.9961,0 1.61866,0.23437 0.62256,0.23438 0.91552,0.59326 0.29297,0.35157 0.41016,0.89356 0.0659,0.33691 0.0659,1.21582 v 1.75781 q 0,1.83838 0.0806,2.3291 0.0879,0.4834 0.33692,0.93018 h -1.37695 q -0.20508,-0.41016 -0.26368,-0.95947 z m -0.10986,-2.94434 q -0.71777,0.29297 -2.15332,0.49805 -0.81299,0.11718 -1.1499,0.26367 -0.33692,0.14648 -0.52002,0.43213 -0.18311,0.27832 -0.18311,0.62256 0,0.52734 0.39551,0.8789 0.40283,0.35157 1.17188,0.35157 0.76171,0 1.35498,-0.32959 0.59326,-0.33692 0.87158,-0.91553 0.2124,-0.44678 0.2124,-1.31836 z m 3.38379,3.90381 v -10.73731 h 1.31836 v 6.12305 l 3.12012,-3.16406 h 1.70654 l -2.97363,2.88574 3.27392,4.89258 h -1.62597 l -2.57081,-3.97705 -0.93017,0.89355 v 3.0835 z m 12.81738,-2.50488 1.36231,0.16845 q -0.32227,1.19385 -1.19385,1.85303 -0.87158,0.65918 -2.22656,0.65918 -1.70655,0 -2.70996,-1.04736 -0.9961,-1.05469 -0.9961,-2.95166 0,-1.96289 1.01074,-3.04688 1.01075,-1.08398 2.62207,-1.08398 1.56006,0 2.54883,1.06201 0.98877,1.06201 0.98877,2.98828 0,0.11719 -0.007,0.35156 h -5.80078 q 0.0732,1.28174 0.72509,1.96289 0.65186,0.68116 1.62598,0.68116 0.7251,0 1.23779,-0.38086 0.5127,-0.38086 0.81299,-1.21582 z m -4.32861,-2.13135 h 4.34326 q -0.0879,-0.98145 -0.49805,-1.47217 -0.62988,-0.76172 -1.6333,-0.76172 -0.9082,0 -1.53076,0.60791 -0.61523,0.60791 -0.68115,1.62598 z m 7.34619,4.63623 v -10.73731 h 1.31836 v 3.85254 q 0.92285,-1.06933 2.3291,-1.06933 0.86426,0 1.50147,0.34424 0.6372,0.33691 0.9082,0.9375 0.27832,0.60058 0.27832,1.74316 v 4.9292 h -1.31836 v -4.9292 q 0,-0.98877 -0.43213,-1.43555 -0.4248,-0.4541 -1.20849,-0.4541 -0.58594,0 -1.10596,0.30762 -0.5127,0.30029 -0.73242,0.82031 -0.21973,0.52002 -0.21973,1.43555 v 4.25537 z m 7.85156,-3.88916 q 0,-2.16065 1.20117,-3.20068 1.00342,-0.86426 2.44629,-0.86426 1.60401,0 2.62207,1.05468 1.01807,1.04737 1.01807,2.9004 0,1.50146 -0.4541,2.36572 -0.44678,0.85693 -1.31104,1.33301 -0.85693,0.47607 -1.875,0.47607 -1.6333,0 -2.64404,-1.04736 -1.00342,-1.04737 -1.00342,-3.01758 z m 1.35498,0 q 0,1.49414 0.65186,2.24121 0.65185,0.73975 1.64062,0.73975 0.98145,0 1.6333,-0.74707 0.65186,-0.74707 0.65186,-2.27784 0,-1.44287 -0.65918,-2.18261 -0.65186,-0.74707 -1.62598,-0.74707 -0.98877,0 -1.64062,0.73974 -0.65186,0.73975 -0.65186,2.23389 z m 7.44873,3.88916 v -10.73731 h 1.31836 v 10.73731 z m 8.40821,0 v -0.98145 q -0.73975,1.15723 -2.1753,1.15723 -0.93017,0 -1.71386,-0.5127 -0.77637,-0.51269 -1.2085,-1.42822 -0.4248,-0.92285 -0.4248,-2.1167 0,-1.16455 0.38818,-2.10937 0.38818,-0.95215 1.16455,-1.45752 0.77637,-0.50537 1.73584,-0.50537 0.70313,0 1.25244,0.30029 0.54932,0.29297 0.89356,0.76904 v -3.85254 h 1.31103 v 10.73731 z m -4.16748,-3.88184 q 0,1.49414 0.62988,2.23389 0.62988,0.73975 1.48682,0.73975 0.86425,0 1.46484,-0.70313 0.60791,-0.71045 0.60791,-2.16064 0,-1.59668 -0.61523,-2.34375 -0.61524,-0.74707 -1.51612,-0.74707 -0.8789,0 -1.47217,0.71777 -0.58593,0.71777 -0.58593,2.26318 z m 12.78808,1.37696 1.36231,0.16845 q -0.32227,1.19385 -1.19385,1.85303 -0.87158,0.65918 -2.22656,0.65918 -1.70655,0 -2.70996,-1.04736 -0.9961,-1.05469 -0.9961,-2.95166 0,-1.96289 1.01074,-3.04688 1.01075,-1.08398 2.62207,-1.08398 1.56006,0 2.54883,1.06201 0.98877,1.06201 0.98877,2.98828 0,0.11719 -0.007,0.35156 h -5.80078 q 0.0732,1.28174 0.72509,1.96289 0.65186,0.68116 1.62598,0.68116 0.7251,0 1.23779,-0.38086 0.5127,-0.38086 0.81299,-1.21582 z m -4.32861,-2.13135 h 4.34326 q -0.0879,-0.98145 -0.49805,-1.47217 -0.62988,-0.76172 -1.6333,-0.76172 -0.9082,0 -1.53076,0.60791 -0.61523,0.60791 -0.68115,1.62598 z m 7.33154,4.63623 v -7.77832 h 1.18653 v 1.1792 q 0.4541,-0.82764 0.83496,-1.09131 0.38818,-0.26367 0.84961,-0.26367 0.6665,0 1.35498,0.4248 l -0.45411,1.22315 q -0.48339,-0.28565 -0.96679,-0.28565 -0.43213,0 -0.77637,0.26367 -0.34424,0.25635 -0.49072,0.71778 -0.21973,0.70312 -0.21973,1.53808 v 4.07227 z m 4.48242,-2.32178 1.30371,-0.20508 q 0.10987,0.78369 0.60792,1.20118 0.50537,0.41748 1.40625,0.41748 0.9082,0 1.34765,-0.36622 0.43945,-0.37353 0.43945,-0.87158 0,-0.44677 -0.38818,-0.70312 -0.271,-0.17578 -1.34766,-0.44678 -1.45019,-0.36621 -2.01416,-0.62988 -0.55664,-0.271 -0.8496,-0.73975 -0.28565,-0.47607 -0.28565,-1.04736 0,-0.52002 0.23438,-0.95947 0.24169,-0.44678 0.65185,-0.73975 0.30762,-0.22705 0.83496,-0.38086 0.53467,-0.16113 1.14258,-0.16113 0.91553,0 1.604,0.26367 0.6958,0.26367 1.02539,0.71777 0.32959,0.44678 0.45411,1.20117 l -1.28907,0.17579 q -0.0879,-0.60059 -0.51269,-0.9375 -0.41748,-0.33692 -1.18653,-0.33692 -0.9082,0 -1.29638,0.30029 -0.38819,0.3003 -0.38819,0.70313 0,0.25635 0.16114,0.46143 0.16113,0.2124 0.50537,0.35156 0.19775,0.0732 1.16455,0.33691 1.39893,0.37354 1.94824,0.61524 0.55664,0.23437 0.87158,0.68847 0.31494,0.4541 0.31494,1.12793 0,0.65918 -0.38818,1.24512 -0.38086,0.57861 -1.10596,0.90088 -0.72509,0.31494 -1.64062,0.31494 -1.51611,0 -2.31445,-0.62988 -0.79102,-0.62989 -1.01075,-1.86768 z"
       id="flowRoot4476"
       transform="translate(-94.193841,318.3048)"
       aria-label="Quality stakeholders" />
    <g
       id="flowRoot4490"
       style="line-height:0.01%;font-family:'Liberation Sans';-inkscape-font-specification:'Liberation Sans, Normal';text-align:center;text-anchor:middle"
       transform="translate(-94.193841,318.3048)"
       aria-label="the user&#10;(not the developer)">
      <path
         style="font-size:15px;line-height:1.25"
         d="m 470.96094,144.02743 0.19043,1.16455 q -0.55664,0.11719 -0.9961,0.11719 -0.71777,0 -1.11328,-0.22705 -0.39551,-0.22705 -0.55664,-0.59326 -0.16113,-0.37354 -0.16113,-1.56006 v -4.4751 h -0.9668 v -1.02539 h 0.9668 v -1.92627 l 1.31103,-0.79102 v 2.71729 h 1.32569 v 1.02539 h -1.32569 v 4.54834 q 0,0.56396 0.0659,0.7251 0.0732,0.16113 0.22705,0.25634 0.16114,0.0952 0.4541,0.0952 0.21973,0 0.57862,-0.0513 z m 1.28906,1.1792 v -10.73731 h 1.31836 v 3.85254 q 0.92285,-1.06933 2.3291,-1.06933 0.86426,0 1.50147,0.34424 0.6372,0.33691 0.9082,0.9375 0.27832,0.60058 0.27832,1.74316 v 4.9292 h -1.31836 v -4.9292 q 0,-0.98877 -0.43213,-1.43555 -0.4248,-0.4541 -1.2085,-0.4541 -0.58593,0 -1.10595,0.30762 -0.5127,0.30029 -0.73242,0.82031 -0.21973,0.52002 -0.21973,1.43555 v 4.25537 z m 13.66699,-2.50488 1.36231,0.16845 q -0.32227,1.19385 -1.19385,1.85303 -0.87158,0.65918 -2.22656,0.65918 -1.70655,0 -2.70996,-1.04736 -0.9961,-1.05469 -0.9961,-2.95166 0,-1.96289 1.01074,-3.04688 1.01075,-1.08398 2.62207,-1.08398 1.56006,0 2.54883,1.06201 0.98877,1.06201 0.98877,2.98828 0,0.11719 -0.007,0.35156 h -5.80078 q 0.0732,1.28174 0.72509,1.96289 0.65186,0.68116 1.62598,0.68116 0.7251,0 1.23779,-0.38086 0.5127,-0.38086 0.81299,-1.21582 z m -4.32861,-2.13135 h 4.34326 q -0.0879,-0.98145 -0.49805,-1.47217 -0.62988,-0.76172 -1.6333,-0.76172 -0.9082,0 -1.53076,0.60791 -0.61523,0.60791 -0.68115,1.62598 z m 16.61133,4.63623 v -1.14258 q -0.90821,1.31836 -2.46826,1.31836 -0.68848,0 -1.28907,-0.26367 -0.59326,-0.26367 -0.88623,-0.65918 -0.28564,-0.40283 -0.40283,-0.98145 -0.0806,-0.38818 -0.0806,-1.23047 v -4.81933 h 1.31836 v 4.31396 q 0,1.03272 0.0806,1.3916 0.12451,0.52002 0.52734,0.82032 0.40284,0.29297 0.9961,0.29297 0.59326,0 1.11328,-0.3003 0.52002,-0.30761 0.73242,-0.82763 0.21973,-0.52735 0.21973,-1.52344 v -4.16748 h 1.31836 v 7.77832 z m 2.71728,-2.32178 1.30371,-0.20508 q 0.10987,0.78369 0.60791,1.20118 0.50537,0.41748 1.40625,0.41748 0.90821,0 1.34766,-0.36622 0.43945,-0.37353 0.43945,-0.87158 0,-0.44677 -0.38818,-0.70312 -0.271,-0.17578 -1.34766,-0.44678 -1.45019,-0.36621 -2.01416,-0.62988 -0.55664,-0.271 -0.84961,-0.73975 -0.28564,-0.47607 -0.28564,-1.04736 0,-0.52002 0.23437,-0.95947 0.2417,-0.44678 0.65186,-0.73975 0.30762,-0.22705 0.83496,-0.38086 0.53467,-0.16113 1.14258,-0.16113 0.91553,0 1.604,0.26367 0.6958,0.26367 1.02539,0.71777 0.32959,0.44678 0.4541,1.20117 l -1.28906,0.17579 q -0.0879,-0.60059 -0.51269,-0.9375 -0.41748,-0.33692 -1.18653,-0.33692 -0.9082,0 -1.29638,0.30029 -0.38819,0.3003 -0.38819,0.70313 0,0.25635 0.16114,0.46143 0.16113,0.2124 0.50537,0.35156 0.19775,0.0732 1.16455,0.33691 1.39892,0.37354 1.94824,0.61524 0.55664,0.23437 0.87158,0.68847 0.31494,0.4541 0.31494,1.12793 0,0.65918 -0.38818,1.24512 -0.38086,0.57861 -1.10596,0.90088 -0.7251,0.31494 -1.64062,0.31494 -1.51612,0 -2.31446,-0.62988 -0.79101,-0.62989 -1.01074,-1.86768 z m 13.35205,-0.1831 1.36231,0.16845 q -0.32227,1.19385 -1.19385,1.85303 -0.87158,0.65918 -2.22656,0.65918 -1.70655,0 -2.70996,-1.04736 -0.9961,-1.05469 -0.9961,-2.95166 0,-1.96289 1.01074,-3.04688 1.01075,-1.08398 2.62208,-1.08398 1.56005,0 2.54882,1.06201 0.98877,1.06201 0.98877,2.98828 0,0.11719 -0.007,0.35156 h -5.80078 q 0.0732,1.28174 0.7251,1.96289 0.65185,0.68116 1.62597,0.68116 0.7251,0 1.23779,-0.38086 0.5127,-0.38086 0.81299,-1.21582 z m -4.32861,-2.13135 h 4.34326 q -0.0879,-0.98145 -0.49805,-1.47217 -0.62988,-0.76172 -1.6333,-0.76172 -0.9082,0 -1.53076,0.60791 -0.61523,0.60791 -0.68115,1.62598 z m 7.33154,4.63623 v -7.77832 h 1.18653 v 1.1792 q 0.4541,-0.82764 0.83496,-1.09131 0.38818,-0.26367 0.84961,-0.26367 0.6665,0 1.35498,0.4248 l -0.4541,1.22315 q -0.4834,-0.28565 -0.9668,-0.28565 -0.43213,0 -0.77637,0.26367 -0.34424,0.25635 -0.49072,0.71778 -0.21973,0.70312 -0.21973,1.53808 v 4.07227 z"
         id="path1" />
      <path
         style="font-size:15px;line-height:1.25"
         d="m 434.74634,167.11337 q -1.09131,-1.37696 -1.84571,-3.22266 -0.75439,-1.8457 -0.75439,-3.82324 0,-1.74317 0.56397,-3.33985 0.65917,-1.85302 2.03613,-3.6914 h 0.94482 q -0.88623,1.52344 -1.17187,2.17529 -0.44678,1.01074 -0.70313,2.10938 -0.31494,1.36963 -0.31494,2.7539 0,3.52295 2.18994,7.03858 z m 2.47558,-3.15674 v -7.77832 h 1.18653 v 1.10596 q 0.85693,-1.28174 2.47558,-1.28174 0.70313,0 1.28907,0.25634 0.59326,0.24903 0.88623,0.65918 0.29296,0.41016 0.41015,0.97413 0.0732,0.36621 0.0732,1.28173 v 4.78272 h -1.31835 v -4.73145 q 0,-0.80566 -0.15381,-1.20117 -0.15381,-0.40283 -0.54932,-0.63721 -0.38818,-0.24169 -0.91553,-0.24169 -0.84228,0 -1.45752,0.53466 -0.60791,0.53467 -0.60791,2.02881 v 4.24805 z m 7.85157,-3.88916 q 0,-2.16065 1.20117,-3.20068 1.00342,-0.86426 2.44629,-0.86426 1.604,0 2.62207,1.05468 1.01806,1.04737 1.01806,2.9004 0,1.50146 -0.4541,2.36572 -0.44677,0.85693 -1.31103,1.33301 -0.85694,0.47607 -1.875,0.47607 -1.6333,0 -2.64405,-1.04736 -1.00341,-1.04737 -1.00341,-3.01758 z m 1.35498,0 q 0,1.49414 0.65185,2.24121 0.65186,0.73975 1.64063,0.73975 0.98144,0 1.6333,-0.74707 0.65185,-0.74707 0.65185,-2.27784 0,-1.44287 -0.65918,-2.18261 -0.65185,-0.74707 -1.62597,-0.74707 -0.98877,0 -1.64063,0.73974 -0.65185,0.73975 -0.65185,2.23389 z m 10.35644,2.70996 0.19043,1.16455 q -0.55664,0.11719 -0.99609,0.11719 -0.71778,0 -1.11328,-0.22705 -0.39551,-0.22705 -0.55664,-0.59326 -0.16114,-0.37354 -0.16114,-1.56006 v -4.4751 h -0.96679 v -1.02539 h 0.96679 v -1.92627 l 1.31104,-0.79102 v 2.71729 h 1.32568 v 1.02539 h -1.32568 v 4.54834 q 0,0.56396 0.0659,0.7251 0.0732,0.16113 0.22705,0.25634 0.16113,0.0952 0.4541,0.0952 0.21973,0 0.57861,-0.0513 z m 8.33496,0 0.19043,1.16455 q -0.55664,0.11719 -0.99609,0.11719 -0.71777,0 -1.11328,-0.22705 -0.39551,-0.22705 -0.55664,-0.59326 -0.16114,-0.37354 -0.16114,-1.56006 v -4.4751 h -0.96679 v -1.02539 h 0.96679 v -1.92627 l 1.31104,-0.79102 v 2.71729 h 1.32568 v 1.02539 h -1.32568 v 4.54834 q 0,0.56396 0.0659,0.7251 0.0732,0.16113 0.22705,0.25634 0.16113,0.0952 0.4541,0.0952 0.21973,0 0.57861,-0.0513 z m 1.28907,1.1792 v -10.73731 h 1.31835 v 3.85254 q 0.92286,-1.06933 2.32911,-1.06933 0.86425,0 1.50146,0.34424 0.63721,0.33691 0.9082,0.9375 0.27832,0.60058 0.27832,1.74316 v 4.9292 h -1.31835 v -4.9292 q 0,-0.98877 -0.43213,-1.43555 -0.42481,-0.4541 -1.2085,-0.4541 -0.58594,0 -1.10596,0.30762 -0.51269,0.30029 -0.73242,0.82031 -0.21973,0.52002 -0.21973,1.43555 v 4.25537 z m 13.66699,-2.50488 1.3623,0.16845 q -0.32226,1.19385 -1.19385,1.85303 -0.87158,0.65918 -2.22656,0.65918 -1.70654,0 -2.70996,-1.04736 -0.99609,-1.05469 -0.99609,-2.95166 0,-1.96289 1.01074,-3.04688 1.01074,-1.08398 2.62207,-1.08398 1.56006,0 2.54883,1.06201 0.98877,1.06201 0.98877,2.98828 0,0.11719 -0.007,0.35156 h -5.80078 q 0.0732,1.28174 0.7251,1.96289 0.65186,0.68116 1.62598,0.68116 0.72509,0 1.23779,-0.38086 0.51269,-0.38086 0.81299,-1.21582 z m -4.32862,-2.13135 h 4.34327 q -0.0879,-0.98145 -0.49805,-1.47217 -0.62988,-0.76172 -1.6333,-0.76172 -0.9082,0 -1.53076,0.60791 -0.61524,0.60791 -0.68116,1.62598 z m 16.56006,4.63623 v -0.98145 q -0.73974,1.15723 -2.17529,1.15723 -0.93018,0 -1.71387,-0.5127 -0.77636,-0.51269 -1.20849,-1.42822 -0.42481,-0.92285 -0.42481,-2.1167 0,-1.16455 0.38819,-2.10937 0.38818,-0.95215 1.16455,-1.45752 0.77636,-0.50537 1.73584,-0.50537 0.70312,0 1.25244,0.30029 0.54931,0.29297 0.89355,0.76904 v -3.85254 h 1.31104 v 10.73731 z m -4.16748,-3.88184 q 0,1.49414 0.62989,2.23389 0.62988,0.73975 1.48681,0.73975 0.86426,0 1.46485,-0.70313 0.60791,-0.71045 0.60791,-2.16064 0,-1.59668 -0.61524,-2.34375 -0.61523,-0.74707 -1.51611,-0.74707 -0.87891,0 -1.47217,0.71777 -0.58594,0.71777 -0.58594,2.26318 z m 12.78809,1.37696 1.3623,0.16845 q -0.32226,1.19385 -1.19384,1.85303 -0.87159,0.65918 -2.22657,0.65918 -1.70654,0 -2.70996,-1.04736 -0.99609,-1.05469 -0.99609,-2.95166 0,-1.96289 1.01074,-3.04688 1.01074,-1.08398 2.62207,-1.08398 1.56006,0 2.54883,1.06201 0.98877,1.06201 0.98877,2.98828 0,0.11719 -0.007,0.35156 h -5.80078 q 0.0733,1.28174 0.7251,1.96289 0.65186,0.68116 1.62598,0.68116 0.72509,0 1.23779,-0.38086 0.5127,-0.38086 0.81299,-1.21582 z m -4.32861,-2.13135 h 4.34326 q -0.0879,-0.98145 -0.49805,-1.47217 -0.62988,-0.76172 -1.6333,-0.76172 -0.9082,0 -1.53076,0.60791 -0.61524,0.60791 -0.68115,1.62598 z m 9.50683,4.63623 -2.95898,-7.77832 h 1.3916 l 1.66992,4.6582 q 0.271,0.7544 0.49805,1.56738 0.17578,-0.61523 0.49072,-1.47949 l 1.72852,-4.74609 h 1.35498 l -2.94434,7.77832 z m 10.66406,-2.50488 1.36231,0.16845 q -0.32227,1.19385 -1.19385,1.85303 -0.87158,0.65918 -2.22656,0.65918 -1.70654,0 -2.70996,-1.04736 -0.9961,-1.05469 -0.9961,-2.95166 0,-1.96289 1.01075,-3.04688 1.01074,-1.08398 2.62207,-1.08398 1.56005,0 2.54882,1.06201 0.98877,1.06201 0.98877,2.98828 0,0.11719 -0.007,0.35156 h -5.80078 q 0.0732,1.28174 0.7251,1.96289 0.65185,0.68116 1.62597,0.68116 0.7251,0 1.2378,-0.38086 0.51269,-0.38086 0.81298,-1.21582 z m -4.32861,-2.13135 h 4.34326 q -0.0879,-0.98145 -0.49804,-1.47217 -0.62989,-0.76172 -1.63331,-0.76172 -0.9082,0 -1.53076,0.60791 -0.61523,0.60791 -0.68115,1.62598 z m 7.31689,4.63623 v -10.73731 h 1.31836 v 10.73731 z m 2.8711,-3.88916 q 0,-2.16065 1.20117,-3.20068 1.00342,-0.86426 2.44629,-0.86426 1.604,0 2.62207,1.05468 1.01807,1.04737 1.01807,2.9004 0,1.50146 -0.45411,2.36572 -0.44677,0.85693 -1.31103,1.33301 -0.85693,0.47607 -1.875,0.47607 -1.6333,0 -2.64404,-1.04736 -1.00342,-1.04737 -1.00342,-3.01758 z m 1.35498,0 q 0,1.49414 0.65185,2.24121 0.65186,0.73975 1.64063,0.73975 0.98144,0 1.6333,-0.74707 0.65186,-0.74707 0.65186,-2.27784 0,-1.44287 -0.65918,-2.18261 -0.65186,-0.74707 -1.62598,-0.74707 -0.98877,0 -1.64063,0.73974 -0.65185,0.73975 -0.65185,2.23389 z m 7.47803,6.87012 v -10.75928 h 1.20117 v 1.01074 q 0.4248,-0.59326 0.95947,-0.88623 0.53467,-0.30029 1.29639,-0.30029 0.99609,0 1.75781,0.51269 0.76172,0.5127 1.1499,1.4502 0.38819,0.93017 0.38819,2.04345 0,1.19385 -0.43213,2.15333 -0.42481,0.95214 -1.24512,1.46484 -0.81299,0.50537 -1.71387,0.50537 -0.65918,0 -1.18652,-0.27832 -0.52002,-0.27832 -0.85693,-0.70313 v 3.78663 z m 1.19384,-6.82618 q 0,1.50147 0.60791,2.21924 0.60791,0.71778 1.47217,0.71778 0.87891,0 1.50147,-0.73975 0.62988,-0.74707 0.62988,-2.30713 0,-1.48682 -0.61523,-2.22656 -0.60791,-0.73975 -1.45752,-0.73975 -0.84229,0 -1.49414,0.79102 -0.64454,0.78369 -0.64454,2.28515 z m 12.47315,1.34034 1.3623,0.16845 q -0.32226,1.19385 -1.19384,1.85303 -0.87159,0.65918 -2.22657,0.65918 -1.70654,0 -2.70996,-1.04736 -0.99609,-1.05469 -0.99609,-2.95166 0,-1.96289 1.01074,-3.04688 1.01074,-1.08398 2.62207,-1.08398 1.56006,0 2.54883,1.06201 0.98877,1.06201 0.98877,2.98828 0,0.11719 -0.007,0.35156 h -5.80078 q 0.0732,1.28174 0.7251,1.96289 0.65186,0.68116 1.62598,0.68116 0.7251,0 1.23779,-0.38086 0.5127,-0.38086 0.81299,-1.21582 z m -4.32861,-2.13135 h 4.34326 q -0.0879,-0.98145 -0.49805,-1.47217 -0.62988,-0.76172 -1.6333,-0.76172 -0.9082,0 -1.53076,0.60791 -0.61524,0.60791 -0.68115,1.62598 z m 7.33154,4.63623 v -7.77832 h 1.18652 v 1.1792 q 0.4541,-0.82764 0.83496,-1.09131 0.38819,-0.26367 0.84961,-0.26367 0.66651,0 1.35498,0.4248 l -0.4541,1.22315 q -0.4834,-0.28565 -0.9668,-0.28565 -0.43212,0 -0.77636,0.26367 -0.34424,0.25635 -0.49073,0.71778 -0.21972,0.70312 -0.21972,1.53808 v 4.07227 z m 5.87402,3.15674 h -0.94482 q 2.18994,-3.51563 2.18994,-7.03858 0,-1.37695 -0.31494,-2.73193 -0.24903,-1.09863 -0.6958,-2.10938 -0.28565,-0.65918 -1.1792,-2.19726 h 0.94482 q 1.37695,1.83838 2.03613,3.6914 0.56397,1.59668 0.56397,3.33985 0,1.97754 -0.76172,3.82324 -0.75439,1.8457 -1.83838,3.22266 z"
         id="path2" />
    </g>
    <circle
       style="color:#000000;display:inline;overflow:visible;visibility:visible;opacity:1;fill:none;fill-opacity:1;fill-rule:nonzero;stroke:#000000;stroke-width:1;stroke-linecap:round;stroke-linejoin:round;stroke-miterlimit:4;stroke-dasharray:none;stroke-dashoffset:1;stroke-opacity:1;marker:none;enable-background:accumulate"
       id="path4484"
       cx="400"
       cy="412"
       r="5" />
    <path
       style="color:#000000;display:inline;overflow:visible;visibility:visible;opacity:1;fill:none;fill-opacity:1;fill-rule:nonzero;stroke:#000000;stroke-width:1;stroke-linecap:round;stroke-linejoin:round;stroke-miterlimit:4;stroke-dasharray:none;stroke-dashoffset:1;stroke-opacity:1;marker:none;enable-background:accumulate"
       d="M 400,417.02363 400,430 l 9.76608,9.7995"
       id="path4486" />
    <path
       style="color:#000000;display:inline;overflow:visible;visibility:visible;opacity:1;fill:none;fill-opacity:1;fill-rule:nonzero;stroke:#000000;stroke-width:1;stroke-linecap:round;stroke-linejoin:round;stroke-miterlimit:4;stroke-dasharray:none;stroke-dashoffset:1;stroke-opacity:1;marker:none;enable-background:accumulate"
       d="m 400,430 -10,10"
       id="path4488" />
  </g>
</svg>
