<?xml version="1.0" encoding="UTF-8" standalone="no"?>
<!-- Created with Inkscape (http://www.inkscape.org/) -->

<svg
   width="800"
   height="600"
   id="svg2"
   version="1.1"
   xmlns:xlink="http://www.w3.org/1999/xlink"
   xmlns="http://www.w3.org/2000/svg"
   xmlns:svg="http://www.w3.org/2000/svg"
   xmlns:rdf="http://www.w3.org/1999/02/22-rdf-syntax-ns#"
   xmlns:cc="http://creativecommons.org/ns#"
   xmlns:dc="http://purl.org/dc/elements/1.1/">
  <defs
     id="defs4">
    <linearGradient
       id="linearGradient3824">
      <stop
         style="stop-color:#fffcde;stop-opacity:1.0000000;"
         offset="0.0000000"
         id="stop3826" />
      <stop
         id="stop3828"
         offset="0.50194836"
         style="stop-color:#f6e76a;stop-opacity:1.0000000;" />
      <stop
         style="stop-color:#ffb738;stop-opacity:1.0000000;"
         offset="1.0000000"
         id="stop3830" />
    </linearGradient>
    <radialGradient
       gradientTransform="matrix(1.25,0,0,1.25,-6.479446,-13.37211)"
       id="aigrd2-9-3"
       cx="25.0527"
       cy="39.5928"
       r="15.7572"
       fx="25.0527"
       fy="39.5928"
       gradientUnits="userSpaceOnUse">
      <stop
         offset="0"
         style="stop-color:#babdb6;stop-opacity:1;"
         id="stop8602-4-8" />
      <stop
         offset="1"
         style="stop-color:#55575f;stop-opacity:0.94117647;"
         id="stop8604-1-6" />
    </radialGradient>
    <radialGradient
       xlink:href="#aigrd2-9-5"
       id="radialGradient4686"
       gradientUnits="userSpaceOnUse"
       gradientTransform="matrix(0.95255526,0.90127397,-2.0579542,2.1750488,9.5507916,-0.5623596)"
       cx="-3.1020749"
       cy="1.7363698"
       fx="-3.1020749"
       fy="1.7363698"
       r="4" />
    <radialGradient
       gradientTransform="matrix(1.25,0,0,1.25,-6.479446,-13.37211)"
       id="aigrd2-9-5"
       cx="25.0527"
       cy="39.5928"
       r="15.7572"
       fx="25.0527"
       fy="39.5928"
       gradientUnits="userSpaceOnUse">
      <stop
         offset="0"
         style="stop-color:#babdb6;stop-opacity:1;"
         id="stop8602-4-4" />
      <stop
         offset="1"
         style="stop-color:#55575f;stop-opacity:0.94117647;"
         id="stop8604-1-8" />
    </radialGradient>
    <linearGradient
       xlink:href="#linearGradient3824"
       id="linearGradient4688"
       gradientUnits="userSpaceOnUse"
       x1="1.4254791"
       y1="7.9280777"
       x2="12.058061"
       y2="12.621321" />
    <radialGradient
       gradientTransform="matrix(1.25,0,0,1.25,-6.479446,-13.37211)"
       id="aigrd2-9-3-4"
       cx="25.0527"
       cy="39.5928"
       r="15.7572"
       fx="25.0527"
       fy="39.5928"
       gradientUnits="userSpaceOnUse">
      <stop
         offset="0"
         style="stop-color:#babdb6;stop-opacity:1;"
         id="stop8602-4-8-7" />
      <stop
         offset="1"
         style="stop-color:#55575f;stop-opacity:0.94117647;"
         id="stop8604-1-6-4" />
    </radialGradient>
  </defs>
  <metadata
     id="metadata7">
    <rdf:RDF>
      <cc:Work
         rdf:about="">
        <dc:format>image/svg+xml</dc:format>
        <dc:type
           rdf:resource="http://purl.org/dc/dcmitype/StillImage" />
        <dc:language>en</dc:language>
        <cc:license
           rdf:resource="https://timefold.ai/license" />
      </cc:Work>
    </rdf:RDF>
  </metadata>
  <g
     id="layer2"
     style="display:inline">
    <g
       id="flowRoot3985-0"
       style="line-height:0.01%;font-family:'Liberation Sans';-inkscape-font-specification:'Liberation Sans, Normal';text-align:center;text-anchor:middle"
       transform="translate(226.47364,96.222868)"
       aria-label="Respect the user">
      <path
         style="font-size:17.5px;line-height:1.25"
         d="M 381.67517,49.540546 V 37.013691 h 5.5542 q 1.6748,0 2.54639,0.341797 0.87158,0.333252 1.39282,1.187744 0.52124,0.854492 0.52124,1.888427 0,1.333008 -0.86304,2.247315 -0.86303,0.914307 -2.66601,1.162109 0.65796,0.316162 0.99975,0.62378 0.72632,0.666503 1.37573,1.666259 l 2.17896,3.409424 h -2.08496 l -1.65772,-2.606201 q -0.72631,-1.12793 -1.19628,-1.726074 -0.46998,-0.598145 -0.84595,-0.837403 -0.36743,-0.239257 -0.75196,-0.333252 -0.28198,-0.05981 -0.92285,-0.05981 h -1.9226 v 5.562744 z m 1.65772,-6.998291 h 3.56323 q 1.13647,0 1.77734,-0.230713 0.64087,-0.239258 0.97412,-0.751953 0.33325,-0.52124 0.33325,-1.12793 0,-0.888671 -0.64941,-1.461181 -0.64087,-0.57251 -2.03369,-0.57251 h -3.96484 z m 16.97021,4.075928 1.58936,0.196533 q -0.37598,1.392822 -1.39283,2.161865 -1.01684,0.769043 -2.59765,0.769043 -1.99097,0 -3.16162,-1.221924 -1.16211,-1.230468 -1.16211,-3.443603 0,-2.290039 1.1792,-3.554688 1.1792,-1.264648 3.05908,-1.264648 1.82007,0 2.97363,1.239014 1.15357,1.239013 1.15357,3.486328 0,0.136719 -0.009,0.410156 h -6.76758 q 0.0854,1.495361 0.84595,2.290039 0.7605,0.794678 1.89697,0.794678 0.84595,0 1.44409,-0.444336 0.59815,-0.444336 0.94849,-1.418457 z m -5.05005,-2.486572 h 5.06714 q -0.10254,-1.14502 -0.58105,-1.71753 -0.73487,-0.888672 -1.90552,-0.888672 -1.05957,0 -1.78589,0.709229 -0.71777,0.709228 -0.79468,1.896973 z m 7.95532,2.700195 1.521,-0.239258 q 0.12817,0.914307 0.70923,1.401367 0.5896,0.487061 1.64062,0.487061 1.05957,0 1.57227,-0.427246 0.51269,-0.435791 0.51269,-1.016846 0,-0.52124 -0.45288,-0.820312 -0.31616,-0.205079 -1.57226,-0.521241 -1.6919,-0.427246 -2.34986,-0.734863 -0.64941,-0.316162 -0.99121,-0.863037 -0.33325,-0.55542 -0.33325,-1.221924 0,-0.606689 0.27344,-1.119385 0.28198,-0.52124 0.7605,-0.863037 0.35888,-0.264892 0.97412,-0.444336 0.62378,-0.187988 1.33301,-0.187988 1.06811,0 1.87133,0.307617 0.81177,0.307617 1.19629,0.837403 0.38452,0.52124 0.52979,1.401367 l -1.50391,0.205078 q -0.10254,-0.700684 -0.59814,-1.09375 -0.48706,-0.393067 -1.38428,-0.393067 -1.05957,0 -1.51245,0.350342 -0.45288,0.350342 -0.45288,0.820313 0,0.299072 0.18799,0.53833 0.18798,0.247803 0.5896,0.410156 0.23071,0.08545 1.35864,0.393066 1.63208,0.435791 2.27295,0.717774 0.64941,0.273437 1.01684,0.803223 0.36744,0.529785 0.36744,1.315918 0,0.769042 -0.45289,1.452636 -0.44433,0.675049 -1.29028,1.051026 -0.84595,0.367431 -1.91406,0.367431 -1.7688,0 -2.7002,-0.734863 -0.92285,-0.734863 -1.1792,-2.178955 z m 9.36524,6.186523 v -12.55249 h 1.40137 v 1.179199 q 0.4956,-0.692138 1.11938,-1.033935 0.62378,-0.350342 1.51245,-0.350342 1.16211,0 2.05078,0.598145 0.88867,0.598144 1.34156,1.691894 0.45288,1.085205 0.45288,2.384033 0,1.392823 -0.50415,2.512207 -0.49561,1.11084 -1.45264,1.708985 -0.94849,0.589599 -1.99951,0.589599 -0.76905,0 -1.38428,-0.324707 -0.60669,-0.324707 -0.99976,-0.820312 v 4.417724 z m 1.39282,-7.963867 q 0,1.751709 0.70923,2.589111 0.70923,0.837403 1.71753,0.837403 1.02539,0 1.75171,-0.863037 0.73486,-0.871582 0.73486,-2.691651 0,-1.734619 -0.71777,-2.597656 -0.70923,-0.863037 -1.70044,-0.863037 -0.98267,0 -1.74317,0.922852 -0.75195,0.914306 -0.75195,2.666015 z m 14.552,1.563721 1.58936,0.196533 q -0.37598,1.392822 -1.39282,2.161865 -1.01685,0.769043 -2.59766,0.769043 -1.99097,0 -3.16162,-1.221924 -1.16211,-1.230468 -1.16211,-3.443603 0,-2.290039 1.1792,-3.554688 1.1792,-1.264648 3.05908,-1.264648 1.82007,0 2.97363,1.239014 1.15357,1.239013 1.15357,3.486328 0,0.136719 -0.009,0.410156 h -6.76758 q 0.0855,1.495361 0.84595,2.290039 0.7605,0.794678 1.89697,0.794678 0.84595,0 1.4441,-0.444336 0.59814,-0.444336 0.94848,-1.418457 z m -5.05005,-2.486572 h 5.06714 q -0.10254,-1.14502 -0.58105,-1.71753 -0.73487,-0.888672 -1.90552,-0.888672 -1.05957,0 -1.78589,0.709229 -0.71777,0.709228 -0.79468,1.896973 z m 14.49219,2.084961 1.51245,0.196533 q -0.2478,1.56372 -1.27319,2.452392 -1.01685,0.880127 -2.50366,0.880127 -1.8628,0 -2.99927,-1.213379 -1.12793,-1.221923 -1.12793,-3.494873 0,-1.469726 0.48706,-2.572021 0.48706,-1.102295 1.47827,-1.64917 0.99976,-0.55542 2.17041,-0.55542 1.47827,0 2.41821,0.751953 0.93995,0.743408 1.20484,2.119141 l -1.49536,0.230713 q -0.21363,-0.914307 -0.7605,-1.375733 -0.53833,-0.461426 -1.30737,-0.461426 -1.16211,0 -1.88843,0.837403 -0.72632,0.828857 -0.72632,2.631836 0,1.828613 0.70068,2.65747 0.70069,0.828858 1.82862,0.828858 0.90576,0 1.51245,-0.55542 0.60669,-0.55542 0.76904,-1.708984 z m 6.18652,1.948242 0.22217,1.358642 q -0.64941,0.136719 -1.16211,0.136719 -0.8374,0 -1.29882,-0.264893 -0.46143,-0.264892 -0.64942,-0.692138 -0.18799,-0.435791 -0.18799,-1.820069 v -5.220947 h -1.12793 v -1.196289 h 1.12793 v -2.247314 l 1.52954,-0.922852 v 3.170166 h 1.54663 v 1.196289 h -1.54663 v 5.306397 q 0,0.657959 0.0769,0.845947 0.0854,0.187988 0.26489,0.299072 0.18799,0.111084 0.52979,0.111084 0.25634,0 0.67504,-0.05981 z"
         id="path1" />
      <path
         style="font-size:16px;line-height:1.25"
         d="m 453.06775,48.282734 0.20312,1.242187 q -0.59375,0.125 -1.0625,0.125 -0.76562,0 -1.1875,-0.242187 -0.42187,-0.242188 -0.59375,-0.632813 -0.17187,-0.398437 -0.17187,-1.664062 V 42.337421 H 449.224 v -1.09375 h 1.03125 v -2.054687 l 1.39844,-0.84375 v 2.898437 h 1.41406 v 1.09375 h -1.41406 v 4.851563 q 0,0.601562 0.0703,0.773437 0.0781,0.171875 0.24219,0.273438 0.17187,0.101562 0.48437,0.101562 0.23438,0 0.61719,-0.05469 z m 1.375,1.257812 V 38.087421 h 1.40625 v 4.109375 q 0.98437,-1.140625 2.48437,-1.140625 0.92188,0 1.60157,0.367188 0.67968,0.359375 0.96875,1 0.29687,0.640625 0.29687,1.859375 v 5.257812 h -1.40625 v -5.257812 q 0,-1.054688 -0.46094,-1.53125 -0.45312,-0.484375 -1.28906,-0.484375 -0.625,0 -1.17969,0.328125 -0.54687,0.320312 -0.78125,0.875 -0.23437,0.554687 -0.23437,1.53125 v 4.539062 z m 14.57812,-2.671875 1.45313,0.179688 q -0.34375,1.273437 -1.27344,1.976562 -0.92969,0.703125 -2.375,0.703125 -1.82031,0 -2.89062,-1.117187 -1.0625,-1.125 -1.0625,-3.148438 0,-2.09375 1.07812,-3.25 1.07813,-1.15625 2.79688,-1.15625 1.66406,0 2.71875,1.132813 1.05468,1.132812 1.05468,3.1875 0,0.125 -0.008,0.375 h -6.1875 q 0.0781,1.367187 0.77344,2.09375 0.69531,0.726562 1.73437,0.726562 0.77344,0 1.32032,-0.40625 0.54687,-0.40625 0.86718,-1.296875 z m -4.61718,-2.273437 h 4.63281 q -0.0937,-1.046875 -0.53125,-1.570313 -0.67188,-0.8125 -1.74219,-0.8125 -0.96875,0 -1.63281,0.648438 -0.65625,0.648437 -0.72656,1.734375 z m 17.71875,4.945312 v -1.21875 q -0.96875,1.40625 -2.63282,1.40625 -0.73437,0 -1.375,-0.28125 -0.63281,-0.28125 -0.94531,-0.703125 -0.30469,-0.429687 -0.42969,-1.046875 -0.0859,-0.414062 -0.0859,-1.3125 v -5.140625 h 1.40625 v 4.601563 q 0,1.101562 0.0859,1.484375 0.13282,0.554687 0.5625,0.875 0.42969,0.3125 1.0625,0.3125 0.63282,0 1.1875,-0.320313 0.55469,-0.328125 0.78125,-0.882812 0.23438,-0.5625 0.23438,-1.625 v -4.445313 h 1.40625 v 8.296875 z m 2.89843,-2.476562 1.39063,-0.21875 q 0.11719,0.835937 0.64844,1.28125 0.53906,0.445312 1.5,0.445312 0.96875,0 1.4375,-0.390625 0.46875,-0.398437 0.46875,-0.929687 0,-0.476563 -0.41407,-0.75 -0.28906,-0.1875 -1.4375,-0.476563 -1.54687,-0.390625 -2.14843,-0.671875 -0.59375,-0.289062 -0.90625,-0.789062 -0.30469,-0.507813 -0.30469,-1.117188 0,-0.554687 0.25,-1.023437 0.25781,-0.476563 0.69531,-0.789063 0.32813,-0.242187 0.89063,-0.40625 0.57031,-0.171875 1.21875,-0.171875 0.97656,0 1.71093,0.28125 0.74219,0.28125 1.09375,0.765625 0.35157,0.476563 0.48438,1.28125 l -1.375,0.1875 q -0.0937,-0.640625 -0.54688,-1 -0.44531,-0.359375 -1.26562,-0.359375 -0.96875,0 -1.38281,0.320313 -0.41407,0.320312 -0.41407,0.75 0,0.273437 0.17188,0.492187 0.17187,0.226563 0.53906,0.375 0.21094,0.07813 1.24219,0.359375 1.49219,0.398438 2.07812,0.65625 0.59375,0.25 0.92969,0.734375 0.33594,0.484375 0.33594,1.203125 0,0.703125 -0.41406,1.328125 -0.40625,0.617188 -1.17969,0.960938 -0.77344,0.335937 -1.75,0.335937 -1.61719,0 -2.46875,-0.671875 -0.84375,-0.671875 -1.07813,-1.992187 z m 14.24219,-0.195313 1.45313,0.179688 q -0.34375,1.273437 -1.27344,1.976562 -0.92969,0.703125 -2.375,0.703125 -1.82031,0 -2.89063,-1.117187 -1.0625,-1.125 -1.0625,-3.148438 0,-2.09375 1.07813,-3.25 1.07812,-1.15625 2.79687,-1.15625 1.66407,0 2.71875,1.132813 1.05469,1.132812 1.05469,3.1875 0,0.125 -0.008,0.375 h -6.1875 q 0.0781,1.367187 0.77344,2.09375 0.69531,0.726562 1.73437,0.726562 0.77344,0 1.32031,-0.40625 0.54688,-0.40625 0.86719,-1.296875 z m -4.61719,-2.273437 h 4.63282 q -0.0937,-1.046875 -0.53125,-1.570313 -0.67188,-0.8125 -1.74219,-0.8125 -0.96875,0 -1.63281,0.648438 -0.65625,0.648437 -0.72657,1.734375 z m 7.82032,4.945312 v -8.296875 h 1.26562 v 1.257813 q 0.48438,-0.882813 0.89063,-1.164063 0.41406,-0.28125 0.90625,-0.28125 0.71093,0 1.44531,0.453125 l -0.48438,1.304688 q -0.51562,-0.304688 -1.03125,-0.304688 -0.46093,0 -0.82812,0.28125 -0.36719,0.273438 -0.52344,0.765625 -0.23437,0.75 -0.23437,1.640625 v 4.34375 z"
         id="path2" />
    </g>
    <path
       style="color:#000000;display:inline;overflow:visible;visibility:visible;opacity:0.5;fill:none;stroke:#d3d7cf;stroke-width:1px;stroke-linecap:round;stroke-linejoin:round;stroke-miterlimit:4;stroke-dasharray:none;stroke-dashoffset:0;stroke-opacity:1;marker:none;enable-background:accumulate"
       d="M 670,180.99996 670,210"
       id="path4629" />
    <path
       id="path4631"
       d="M 700,180.99996 700,210"
       style="color:#000000;display:inline;overflow:visible;visibility:visible;opacity:0.5;fill:none;stroke:#d3d7cf;stroke-width:1px;stroke-linecap:round;stroke-linejoin:round;stroke-miterlimit:4;stroke-dasharray:none;stroke-dashoffset:0;stroke-opacity:1;marker:none;enable-background:accumulate" />
    <path
       style="color:#000000;display:inline;overflow:visible;visibility:visible;opacity:0.5;fill:none;stroke:#d3d7cf;stroke-width:1px;stroke-linecap:round;stroke-linejoin:round;stroke-miterlimit:4;stroke-dasharray:none;stroke-dashoffset:0;stroke-opacity:1;marker:none;enable-background:accumulate"
       d="M 640,300.99996 640,330"
       id="path3616" />
    <path
       id="path3618"
       d="M 670,300.99996 670,330"
       style="color:#000000;display:inline;overflow:visible;visibility:visible;opacity:0.5;fill:none;stroke:#d3d7cf;stroke-width:1px;stroke-linecap:round;stroke-linejoin:round;stroke-miterlimit:4;stroke-dasharray:none;stroke-dashoffset:0;stroke-opacity:1;marker:none;enable-background:accumulate" />
    <path
       style="color:#000000;display:inline;overflow:visible;visibility:visible;opacity:0.5;fill:none;stroke:#d3d7cf;stroke-width:1px;stroke-linecap:round;stroke-linejoin:round;stroke-miterlimit:4;stroke-dasharray:none;stroke-dashoffset:0;stroke-opacity:1;marker:none;enable-background:accumulate"
       d="M 700,300.99996 700,330"
       id="path3620" />
    <path
       id="path3628"
       d="m 610,300 0,29.00004"
       style="color:#000000;display:inline;overflow:visible;visibility:visible;opacity:0.5;fill:none;stroke:#d3d7cf;stroke-width:1px;stroke-linecap:round;stroke-linejoin:round;stroke-miterlimit:4;stroke-dasharray:none;stroke-dashoffset:0;stroke-opacity:1;marker:none;enable-background:accumulate" />
    <path
       style="color:#000000;display:inline;overflow:visible;visibility:visible;opacity:0.5;fill:none;stroke:#d3d7cf;stroke-width:1px;stroke-linecap:round;stroke-linejoin:round;stroke-miterlimit:4;stroke-dasharray:none;stroke-dashoffset:0;stroke-opacity:1;marker:none;enable-background:accumulate"
       d="m 580,300 0,29.00004"
       id="path4627" />
    <rect
       style="display:inline;fill:none;stroke:#000000;stroke-width:0.99999994;stroke-linecap:round;stroke-linejoin:round;stroke-miterlimit:4;stroke-dasharray:none"
       id="rect3630"
       width="149"
       height="29"
       x="580.5"
       y="260.5"
       rx="4.999999"
       ry="5" />
    <rect
       style="display:inline;fill:none;stroke:#000000;stroke-width:1;stroke-linecap:round;stroke-linejoin:round;stroke-miterlimit:4;stroke-dasharray:none"
       id="rect3632"
       width="119.00001"
       height="29"
       x="610.50018"
       y="220.5"
       rx="4.999999"
       ry="5" />
    <path
       style="font-size:14px;line-height:1.25;font-family:'Liberation Sans';-inkscape-font-specification:'Liberation Sans, Normal';text-align:center;text-anchor:middle"
       d="m 350.39258,97.719937 3.87597,-5.222656 -3.41796,-4.798828 h 1.5791 l 1.81836,2.570312 q 0.56738,0.799805 0.80664,1.230469 0.33496,-0.546875 0.79297,-1.141602 l 2.0166,-2.659179 h 1.44238 l -3.52051,4.723632 3.79395,5.297852 h -1.64063 l -2.52246,-3.575195 q -0.21191,-0.307618 -0.4375,-0.669922 -0.33496,0.546875 -0.47851,0.751953 l -2.51563,3.493164 z"
       id="flowRoot3634"
       transform="translate(385.03116,141.10864)"
       aria-label="X" />
    <path
       style="font-size:14px;line-height:1.25;font-family:'Liberation Sans';-inkscape-font-specification:'Liberation Sans, Normal';text-align:center;text-anchor:middle"
       d="M 354.23437,97.719937 V 93.47482 l -3.8623,-5.776367 h 1.61328 l 1.97559,3.021484 q 0.54687,0.847656 1.01855,1.695312 0.45117,-0.786132 1.09375,-1.770507 l 1.94141,-2.946289 h 1.54492 l -3.99902,5.776367 v 4.245117 z"
       id="flowRoot3642"
       transform="translate(385.03116,181.10891)"
       aria-label="Y" />
    <path
       style="font-size:14px;line-height:1.25;font-family:'Liberation Sans';-inkscape-font-specification:'Liberation Sans, Normal';fill:#ce5c00"
       d="m 359.82715,96.53732 v 1.182617 h -6.62403 q -0.0137,-0.444336 0.14356,-0.854492 0.25293,-0.676758 0.80664,-1.333008 0.56055,-0.65625 1.61328,-1.517578 1.63379,-1.339844 2.20801,-2.119141 0.57422,-0.786133 0.57422,-1.483398 0,-0.731446 -0.52637,-1.230469 -0.51953,-0.505859 -1.36035,-0.505859 -0.88867,0 -1.42188,0.533203 -0.5332,0.533203 -0.54003,1.476562 l -1.26465,-0.129883 q 0.12988,-1.415039 0.97754,-2.15332 0.84765,-0.745117 2.27636,-0.745117 1.44239,0 2.28321,0.799805 0.84082,0.799804 0.84082,1.982421 0,0.601563 -0.2461,1.182618 -0.24609,0.581054 -0.82031,1.223632 -0.56738,0.642579 -1.89355,1.763672 -1.10743,0.929688 -1.42188,1.264649 -0.31445,0.328125 -0.51953,0.663086 z m 1.31933,-3.759766 q 0,-1.777344 0.36231,-2.857422 0.36914,-1.086914 1.08691,-1.674804 0.72461,-0.587891 1.81836,-0.587891 0.80664,0 1.41504,0.328125 0.6084,0.321289 1.00488,0.936523 0.39649,0.608399 0.62207,1.490235 0.22559,0.875 0.22559,2.365234 0,1.763672 -0.3623,2.850586 -0.36231,1.080078 -1.08692,1.674805 -0.71777,0.58789 -1.81836,0.58789 -1.44922,0 -2.27636,-1.039062 -0.99122,-1.250977 -0.99122,-4.074219 z m 1.26465,0 q 0,2.467774 0.57422,3.288086 0.58106,0.813477 1.42871,0.813477 0.84766,0 1.42188,-0.820313 0.58105,-0.820312 0.58105,-3.28125 0,-2.474609 -0.58105,-3.288086 -0.57422,-0.813476 -1.43555,-0.813476 -0.84766,0 -1.35352,0.717773 -0.63574,0.916016 -0.63574,3.383789 z m 6.52149,0 q 0,-1.777344 0.3623,-2.857422 0.36914,-1.086914 1.08692,-1.674804 0.72461,-0.587891 1.81836,-0.587891 0.80664,0 1.41503,0.328125 0.6084,0.321289 1.00489,0.936523 0.39648,0.608399 0.62207,1.490235 0.22558,0.875 0.22558,2.365234 0,1.763672 -0.3623,2.850586 -0.36231,1.080078 -1.08692,1.674805 -0.71777,0.58789 -1.81835,0.58789 -1.44922,0 -2.27637,-1.039062 -0.99121,-1.250977 -0.99121,-4.074219 z m 1.26465,0 q 0,2.467774 0.57421,3.288086 0.58106,0.813477 1.42872,0.813477 0.84765,0 1.42187,-0.820313 0.58105,-0.820312 0.58105,-3.28125 0,-2.474609 -0.58105,-3.288086 -0.57422,-0.813476 -1.43555,-0.813476 -0.84765,0 -1.35351,0.717773 -0.63574,0.916016 -0.63574,3.383789 z m 13.3164,6.384766 v -1.230469 q -0.92285,-0.116211 -1.5039,-0.410156 -0.57422,-0.300782 -0.99805,-0.963867 -0.41699,-0.663086 -0.48535,-1.620118 l 1.2373,-0.232422 q 0.14356,0.991211 0.50586,1.456055 0.51953,0.65625 1.24414,0.731445 v -3.916992 q -0.75879,-0.143554 -1.55176,-0.58789 -0.58789,-0.328125 -0.90918,-0.90918 -0.31445,-0.581055 -0.31445,-1.319336 0,-1.3125 0.92969,-2.125977 0.62207,-0.546875 1.8457,-0.669921 v -0.587891 h 0.72461 v 0.587891 q 1.07324,0.102539 1.70215,0.628906 0.80664,0.669922 0.9707,1.838867 l -1.27148,0.191406 q -0.10938,-0.724609 -0.45801,-1.107422 -0.3418,-0.389648 -0.94336,-0.512695 v 3.547852 q 0.92969,0.232422 1.23047,0.362304 0.57422,0.25293 0.93652,0.615235 0.36231,0.362304 0.55371,0.861328 0.19825,0.499023 0.19825,1.080078 0,1.27832 -0.81348,2.132812 -0.81348,0.854493 -2.10547,0.916016 v 1.244141 z m 0,-10.773438 q -0.71777,0.109375 -1.13476,0.574219 -0.41016,0.464844 -0.41016,1.100586 0,0.628906 0.34863,1.052734 0.35547,0.423828 1.19629,0.676758 z m 0.72461,8.503906 q 0.71777,-0.08887 1.18262,-0.62207 0.47168,-0.533203 0.47168,-1.319336 0,-0.669922 -0.33496,-1.073242 -0.32813,-0.410156 -1.31934,-0.731445 z"
       id="flowRoot3650"
       transform="translate(395,141.10864)"
       aria-label="  200 $" />
    <path
       style="font-size:14px;line-height:1.25;font-family:'Liberation Sans';-inkscape-font-specification:'Liberation Sans, Normal';fill:#ce5c00"
       d="m 345.58789,95.074429 1.23047,-0.164062 q 0.21191,1.045898 0.71777,1.510742 0.5127,0.458008 1.24414,0.458008 0.86817,0 1.46289,-0.601563 0.60157,-0.601562 0.60157,-1.490234 0,-0.847657 -0.55371,-1.394532 -0.55372,-0.55371 -1.40821,-0.55371 -0.34863,0 -0.86816,0.136718 l 0.13672,-1.080078 q 0.12304,0.01367 0.19824,0.01367 0.78613,0 1.41504,-0.410156 0.6289,-0.410156 0.6289,-1.264649 0,-0.676757 -0.458,-1.121093 -0.45801,-0.444336 -1.18262,-0.444336 -0.71777,0 -1.19629,0.451172 -0.47852,0.451171 -0.61523,1.353515 l -1.23047,-0.21875 q 0.22558,-1.237305 1.02539,-1.914062 0.7998,-0.683594 1.98926,-0.683594 0.82031,0 1.51074,0.355469 0.69043,0.348632 1.05273,0.957031 0.36914,0.608398 0.36914,1.291992 0,0.649414 -0.34863,1.182617 -0.34863,0.533203 -1.03223,0.847657 0.88868,0.205078 1.38086,0.854492 0.49219,0.642578 0.49219,1.613281 0,1.3125 -0.95703,2.228516 -0.95703,0.909179 -2.41992,0.909179 -1.31934,0 -2.19434,-0.786133 -0.86816,-0.786132 -0.99121,-2.037109 z m 7.7793,0.02051 1.29199,-0.109375 q 0.14355,0.943359 0.66309,1.421875 0.52636,0.47168 1.26464,0.47168 0.88868,0 1.50391,-0.669922 0.61523,-0.669922 0.61523,-1.777344 0,-1.052734 -0.59472,-1.661133 -0.58789,-0.608398 -1.54492,-0.608398 -0.59473,0 -1.07325,0.273437 -0.47851,0.266602 -0.75195,0.697266 l -1.15527,-0.150391 0.9707,-5.147461 h 4.9834 v 1.175782 h -3.99902 l -0.54004,2.693359 q 0.90234,-0.628906 1.89355,-0.628906 1.3125,0 2.21484,0.909179 0.90235,0.90918 0.90235,2.337891 0,1.360352 -0.79297,2.351562 -0.96387,1.216797 -2.63184,1.216797 -1.36718,0 -2.23535,-0.765625 -0.86133,-0.765625 -0.98437,-2.030273 z m 7.78613,-2.317383 q 0,-1.777344 0.3623,-2.857422 0.36915,-1.086914 1.08692,-1.674804 0.72461,-0.587891 1.81836,-0.587891 0.80664,0 1.41504,0.328125 0.6084,0.321289 1.00488,0.936523 0.39648,0.608399 0.62207,1.490235 0.22559,0.875 0.22559,2.365234 0,1.763672 -0.36231,2.850586 -0.3623,1.080078 -1.08691,1.674805 -0.71778,0.58789 -1.81836,0.58789 -1.44922,0 -2.27637,-1.039062 -0.99121,-1.250977 -0.99121,-4.074219 z m 1.26465,0 q 0,2.467774 0.57422,3.288086 0.58105,0.813477 1.42871,0.813477 0.84765,0 1.42187,-0.820313 0.58106,-0.820312 0.58106,-3.28125 0,-2.474609 -0.58106,-3.288086 -0.57422,-0.813476 -1.43554,-0.813476 -0.84766,0 -1.35352,0.717773 -0.63574,0.916016 -0.63574,3.383789 z m 13.3164,6.384766 v -1.230469 q -0.92285,-0.116211 -1.5039,-0.410156 -0.57422,-0.300782 -0.99805,-0.963867 -0.41699,-0.663086 -0.48535,-1.620118 l 1.2373,-0.232422 q 0.14356,0.991211 0.50586,1.456055 0.51954,0.65625 1.24414,0.731445 v -3.916992 q -0.75878,-0.143554 -1.55175,-0.58789 -0.58789,-0.328125 -0.90918,-0.90918 -0.31446,-0.581055 -0.31446,-1.319336 0,-1.3125 0.92969,-2.125977 0.62207,-0.546875 1.8457,-0.669921 v -0.587891 h 0.72461 v 0.587891 q 1.07325,0.102539 1.70215,0.628906 0.80664,0.669922 0.97071,1.838867 l -1.27149,0.191406 q -0.10937,-0.724609 -0.45801,-1.107422 -0.34179,-0.389648 -0.94336,-0.512695 v 3.547852 q 0.92969,0.232422 1.23047,0.362304 0.57422,0.25293 0.93653,0.615235 0.3623,0.362304 0.55371,0.861328 0.19824,0.499023 0.19824,1.080078 0,1.27832 -0.81348,2.132812 -0.81347,0.854493 -2.10547,0.916016 v 1.244141 z m 0,-10.773438 q -0.71777,0.109375 -1.13476,0.574219 -0.41016,0.464844 -0.41016,1.100586 0,0.628906 0.34864,1.052734 0.35546,0.423828 1.19628,0.676758 z m 0.72461,8.503906 q 0.71778,-0.08887 1.18262,-0.62207 0.47168,-0.533203 0.47168,-1.319336 0,-0.669922 -0.33496,-1.073242 -0.32812,-0.410156 -1.31934,-0.731445 z"
       id="flowRoot3658"
       transform="translate(402.76562,181.10891)"
       aria-label="350 $" />
    <rect
       ry="5"
       rx="4.999999"
       y="300.5"
       x="550.5"
       height="29"
       width="179"
       id="rect3667"
       style="display:inline;opacity:0.5;fill:none;stroke:#000000;stroke-width:0.99999994;stroke-linecap:round;stroke-linejoin:round;stroke-miterlimit:4;stroke-dasharray:none" />
    <path
       style="font-size:14px;line-height:1.25;font-family:'Liberation Sans';-inkscape-font-specification:'Liberation Sans, Normal';text-align:center;text-anchor:middle;opacity:0.5"
       d="m 351.00439,97.719937 v -1.230469 l 5.13379,-6.418945 q 0.54688,-0.683594 1.03907,-1.189453 h -5.5918 v -1.182617 h 7.17773 v 1.182617 l -5.62597,6.952148 -0.6084,0.704102 h 6.39844 v 1.182617 z"
       id="flowRoot3669"
       transform="translate(385.03116,221.10891)"
       aria-label="Z" />
    <path
       style="font-size:14px;line-height:1.25;font-family:'Liberation Sans';-inkscape-font-specification:'Liberation Sans, Normal';opacity:0.5"
       d="m 349.52539,97.719937 v -2.399414 h -4.34766 v -1.12793 l 4.57325,-6.49414 h 1.00488 v 6.49414 h 1.35351 v 1.12793 h -1.35351 v 2.399414 z m 0,-3.527344 v -4.518555 l -3.13769,4.518555 z m 3.8418,-1.415039 q 0,-1.777344 0.3623,-2.857422 0.36914,-1.086914 1.08692,-1.674804 0.72461,-0.587891 1.81836,-0.587891 0.80664,0 1.41503,0.328125 0.6084,0.321289 1.00489,0.936523 0.39648,0.608399 0.62207,1.490235 0.22558,0.875 0.22558,2.365234 0,1.763672 -0.3623,2.850586 -0.36231,1.080078 -1.08692,1.674805 -0.71777,0.58789 -1.81835,0.58789 -1.44922,0 -2.27637,-1.039062 -0.99121,-1.250977 -0.99121,-4.074219 z m 1.26465,0 q 0,2.467774 0.57421,3.288086 0.58106,0.813477 1.42872,0.813477 0.84765,0 1.42187,-0.820313 0.58106,-0.820312 0.58106,-3.28125 0,-2.474609 -0.58106,-3.288086 -0.57422,-0.813476 -1.43555,-0.813476 -0.84765,0 -1.35351,0.717773 -0.63574,0.916016 -0.63574,3.383789 z m 6.52148,0 q 0,-1.777344 0.3623,-2.857422 0.36915,-1.086914 1.08692,-1.674804 0.72461,-0.587891 1.81836,-0.587891 0.80664,0 1.41504,0.328125 0.6084,0.321289 1.00488,0.936523 0.39648,0.608399 0.62207,1.490235 0.22559,0.875 0.22559,2.365234 0,1.763672 -0.36231,2.850586 -0.3623,1.080078 -1.08691,1.674805 -0.71778,0.58789 -1.81836,0.58789 -1.44922,0 -2.27637,-1.039062 -0.99121,-1.250977 -0.99121,-4.074219 z m 1.26465,0 q 0,2.467774 0.57422,3.288086 0.58105,0.813477 1.42871,0.813477 0.84765,0 1.42187,-0.820313 0.58106,-0.820312 0.58106,-3.28125 0,-2.474609 -0.58106,-3.288086 -0.57422,-0.813476 -1.43554,-0.813476 -0.84766,0 -1.35352,0.717773 -0.63574,0.916016 -0.63574,3.383789 z m 13.3164,6.384766 v -1.230469 q -0.92285,-0.116211 -1.5039,-0.410156 -0.57422,-0.300782 -0.99805,-0.963867 -0.41699,-0.663086 -0.48535,-1.620118 l 1.2373,-0.232422 q 0.14356,0.991211 0.50586,1.456055 0.51954,0.65625 1.24414,0.731445 v -3.916992 q -0.75878,-0.143554 -1.55175,-0.58789 -0.58789,-0.328125 -0.90918,-0.90918 -0.31446,-0.581055 -0.31446,-1.319336 0,-1.3125 0.92969,-2.125977 0.62207,-0.546875 1.8457,-0.669921 v -0.587891 h 0.72461 v 0.587891 q 1.07325,0.102539 1.70215,0.628906 0.80664,0.669922 0.97071,1.838867 l -1.27149,0.191406 q -0.10937,-0.724609 -0.45801,-1.107422 -0.34179,-0.389648 -0.94336,-0.512695 v 3.547852 q 0.92969,0.232422 1.23047,0.362304 0.57422,0.25293 0.93653,0.615235 0.3623,0.362304 0.55371,0.861328 0.19824,0.499023 0.19824,1.080078 0,1.27832 -0.81348,2.132812 -0.81347,0.854493 -2.10547,0.916016 v 1.244141 z m 0,-10.773438 q -0.71777,0.109375 -1.13476,0.574219 -0.41016,0.464844 -0.41016,1.100586 0,0.628906 0.34864,1.052734 0.35546,0.423828 1.19628,0.676758 z m 0.72461,8.503906 q 0.71778,-0.08887 1.18262,-0.62207 0.47168,-0.533203 0.47168,-1.319336 0,-0.669922 -0.33496,-1.073242 -0.32812,-0.410156 -1.31934,-0.731445 z"
       id="flowRoot3677"
       transform="translate(402.76562,221.10891)"
       aria-label="400 $" />
    <g
       id="g3685"
       transform="translate(590,-382.36218)"
       style="display:inline">
      <rect
         ry="5"
         rx="4.999999"
         y="602.86218"
         x="80.5"
         height="29"
         width="59"
         id="rect3687"
         style="fill:#fce94f;stroke:#000000;stroke-width:0.99999988;stroke-linecap:round;stroke-linejoin:round;stroke-miterlimit:4;stroke-dasharray:none" />
      <path
         style="font-size:14.4849px;line-height:1.25;font-family:'Liberation Sans';-inkscape-font-specification:'Liberation Sans, Normal';text-align:center;text-anchor:middle"
         d="m 281.12831,84.634307 v 1.223578 h -6.85345 q -0.0141,-0.459726 0.14853,-0.884088 0.26169,-0.700198 0.83458,-1.379178 0.57996,-0.678979 1.66915,-1.57014 1.69038,-1.38625 2.28449,-2.192539 0.59411,-0.813361 0.59411,-1.534777 0,-0.756779 -0.5446,-1.273087 -0.53753,-0.52338 -1.40747,-0.52338 -0.91945,0 -1.47112,0.551671 -0.55167,0.551671 -0.55875,1.527704 l -1.30845,-0.134381 q 0.13438,-1.46405 1.0114,-2.227902 0.87701,-0.770925 2.35521,-0.770925 1.49234,0 2.36228,0.827506 0.86995,0.827507 0.86995,2.051085 0,0.622398 -0.25462,1.223578 -0.25462,0.60118 -0.84873,1.266014 -0.58703,0.664834 -1.95914,1.824758 -1.14577,0.961888 -1.47112,1.308451 -0.32534,0.339489 -0.53752,0.686052 z"
         id="flowRoot3689"
         transform="matrix(1.6568991,0,0,1.6568991,-350.39408,481.72151)"
         aria-label="2&#10; " />
    </g>
    <rect
       ry="5"
       rx="4.999999"
       y="180.5"
       x="640.5"
       height="29"
       width="89"
       id="rect3701"
       style="display:inline;opacity:0.5;fill:none;stroke:#000000;stroke-width:0.99999994;stroke-linecap:round;stroke-linejoin:round;stroke-miterlimit:4;stroke-dasharray:none" />
    <g
       transform="translate(530,-382.36218)"
       id="g3703"
       style="display:inline">
      <rect
         style="fill:#ad7fa8;stroke:#000000;stroke-width:0.99999988;stroke-linecap:round;stroke-linejoin:round;stroke-miterlimit:4;stroke-dasharray:none"
         id="rect3705"
         width="59"
         height="29"
         x="80.5"
         y="602.86218"
         rx="4.999999"
         ry="5" />
      <path
         style="font-size:14.4849px;line-height:1.25;font-family:'Liberation Sans';-inkscape-font-specification:'Liberation Sans, Normal';text-align:center;text-anchor:middle"
         d="m 281.12831,84.634307 v 1.223578 h -6.85345 q -0.0141,-0.459726 0.14853,-0.884088 0.26169,-0.700198 0.83458,-1.379178 0.57996,-0.678979 1.66915,-1.57014 1.69038,-1.38625 2.28449,-2.192539 0.59411,-0.813361 0.59411,-1.534777 0,-0.756779 -0.5446,-1.273087 -0.53753,-0.52338 -1.40747,-0.52338 -0.91945,0 -1.47112,0.551671 -0.55167,0.551671 -0.55875,1.527704 l -1.30845,-0.134381 q 0.13438,-1.46405 1.0114,-2.227902 0.87701,-0.770925 2.35521,-0.770925 1.49234,0 2.36228,0.827506 0.86995,0.827507 0.86995,2.051085 0,0.622398 -0.25462,1.223578 -0.25462,0.60118 -0.84873,1.266014 -0.58703,0.664834 -1.95914,1.824758 -1.14577,0.961888 -1.47112,1.308451 -0.32534,0.339489 -0.53752,0.686052 z"
         id="flowRoot3707"
         transform="matrix(1.6568991,0,0,1.6568991,-350.39408,481.72151)"
         aria-label="2&#10; " />
    </g>
    <path
       style="font-size:14px;line-height:1.25;font-family:'Liberation Sans';-inkscape-font-specification:'Liberation Sans, Normal';text-align:center;text-anchor:middle;opacity:0.5"
       d="m 350.39258,97.719937 3.87597,-5.222656 -3.41796,-4.798828 h 1.5791 l 1.81836,2.570312 q 0.56738,0.799805 0.80664,1.230469 0.33496,-0.546875 0.79297,-1.141602 l 2.0166,-2.659179 h 1.44238 l -3.52051,4.723632 3.79395,5.297852 h -1.64063 l -2.52246,-3.575195 q -0.21191,-0.307618 -0.4375,-0.669922 -0.33496,0.546875 -0.47851,0.751953 l -2.51563,3.493164 z"
       id="flowRoot3717"
       transform="translate(385.03116,101.10864)"
       aria-label="X" />
    <path
       style="font-size:14px;line-height:1.25;font-family:'Liberation Sans';-inkscape-font-specification:'Liberation Sans, Normal';opacity:0.5"
       d="m 357.99512,97.719937 h -1.23047 v -7.84082 q -0.44434,0.423828 -1.16895,0.847656 -0.71777,0.423828 -1.29199,0.635742 v -1.189453 q 1.03223,-0.485352 1.80469,-1.175781 0.77246,-0.69043 1.09375,-1.339844 h 0.79297 z m 3.15136,-4.942383 q 0,-1.777344 0.36231,-2.857422 0.36914,-1.086914 1.08691,-1.674804 0.72461,-0.587891 1.81836,-0.587891 0.80664,0 1.41504,0.328125 0.6084,0.321289 1.00488,0.936523 0.39649,0.608399 0.62207,1.490235 0.22559,0.875 0.22559,2.365234 0,1.763672 -0.3623,2.850586 -0.36231,1.080078 -1.08692,1.674805 -0.71777,0.58789 -1.81836,0.58789 -1.44922,0 -2.27636,-1.039062 -0.99122,-1.250977 -0.99122,-4.074219 z m 1.26465,0 q 0,2.467774 0.57422,3.288086 0.58106,0.813477 1.42871,0.813477 0.84766,0 1.42188,-0.820313 0.58105,-0.820312 0.58105,-3.28125 0,-2.474609 -0.58105,-3.288086 -0.57422,-0.813476 -1.43555,-0.813476 -0.84766,0 -1.35352,0.717773 -0.63574,0.916016 -0.63574,3.383789 z m 6.52149,0 q 0,-1.777344 0.3623,-2.857422 0.36914,-1.086914 1.08692,-1.674804 0.72461,-0.587891 1.81836,-0.587891 0.80664,0 1.41503,0.328125 0.6084,0.321289 1.00489,0.936523 0.39648,0.608399 0.62207,1.490235 0.22558,0.875 0.22558,2.365234 0,1.763672 -0.3623,2.850586 -0.36231,1.080078 -1.08692,1.674805 -0.71777,0.58789 -1.81835,0.58789 -1.44922,0 -2.27637,-1.039062 -0.99121,-1.250977 -0.99121,-4.074219 z m 1.26465,0 q 0,2.467774 0.57421,3.288086 0.58106,0.813477 1.42872,0.813477 0.84765,0 1.42187,-0.820313 0.58105,-0.820312 0.58105,-3.28125 0,-2.474609 -0.58105,-3.288086 -0.57422,-0.813476 -1.43555,-0.813476 -0.84765,0 -1.35351,0.717773 -0.63574,0.916016 -0.63574,3.383789 z m 13.3164,6.384766 v -1.230469 q -0.92285,-0.116211 -1.5039,-0.410156 -0.57422,-0.300782 -0.99805,-0.963867 -0.41699,-0.663086 -0.48535,-1.620118 l 1.2373,-0.232422 q 0.14356,0.991211 0.50586,1.456055 0.51953,0.65625 1.24414,0.731445 v -3.916992 q -0.75879,-0.143554 -1.55176,-0.58789 -0.58789,-0.328125 -0.90918,-0.90918 -0.31445,-0.581055 -0.31445,-1.319336 0,-1.3125 0.92969,-2.125977 0.62207,-0.546875 1.8457,-0.669921 v -0.587891 h 0.72461 v 0.587891 q 1.07324,0.102539 1.70215,0.628906 0.80664,0.669922 0.9707,1.838867 l -1.27148,0.191406 q -0.10938,-0.724609 -0.45801,-1.107422 -0.3418,-0.389648 -0.94336,-0.512695 v 3.547852 q 0.92969,0.232422 1.23047,0.362304 0.57422,0.25293 0.93652,0.615235 0.36231,0.362304 0.55371,0.861328 0.19825,0.499023 0.19825,1.080078 0,1.27832 -0.81348,2.132812 -0.81348,0.854493 -2.10547,0.916016 v 1.244141 z m 0,-10.773438 q -0.71777,0.109375 -1.13476,0.574219 -0.41016,0.464844 -0.41016,1.100586 0,0.628906 0.34863,1.052734 0.35547,0.423828 1.19629,0.676758 z m 0.72461,8.503906 q 0.71777,-0.08887 1.18262,-0.62207 0.47168,-0.533203 0.47168,-1.319336 0,-0.669922 -0.33496,-1.073242 -0.32813,-0.410156 -1.31934,-0.731445 z"
       id="flowRoot3725"
       transform="translate(395,101.10864)"
       aria-label="  100 $" />
    <g
       transform="translate(500,-342.36218)"
       id="g3733"
       style="display:inline">
      <rect
         style="fill:#8ae234;stroke:#000000;stroke-width:1;stroke-linecap:round;stroke-linejoin:round;stroke-miterlimit:4;stroke-dasharray:none"
         id="rect3735"
         width="119.00001"
         height="29"
         x="80.5"
         y="602.86218"
         rx="4.999999"
         ry="5" />
      <path
         style="font-size:14.4849px;line-height:1.25;font-family:'Liberation Sans';-inkscape-font-specification:'Liberation Sans, Normal';text-align:center;text-anchor:middle"
         d="m 296.62493,85.857885 v -2.48252 h -4.49824 v -1.166996 l 4.73164,-6.71907 h 1.03969 v 6.71907 h 1.40039 v 1.166996 h -1.40039 v 2.48252 z m 0,-3.649516 v -4.675058 l -3.24637,4.675058 z"
         id="flowRoot3737"
         transform="matrix(1.6568991,0,0,1.6568991,-350.39408,481.72151)"
         aria-label="4&#10; " />
    </g>
    <g
       id="g3747"
       transform="translate(620,-342.36218)"
       style="display:inline">
      <rect
         ry="5"
         rx="4.999999"
         y="602.86218"
         x="80.5"
         height="29"
         width="29"
         id="rect3749"
         style="fill:#729fcf;stroke:#000000;stroke-width:0.99999994;stroke-linecap:round;stroke-linejoin:round;stroke-miterlimit:4;stroke-dasharray:none" />
      <path
         style="font-size:14.4849px;line-height:1.25;font-family:'Liberation Sans';-inkscape-font-specification:'Liberation Sans, Normal';text-align:center;text-anchor:middle"
         d="M 270.18009,85.857885 H 268.907 v -8.112393 q -0.45972,0.438508 -1.20943,0.877016 -0.74263,0.438507 -1.33674,0.657761 v -1.230651 q 1.06798,-0.502162 1.8672,-1.216505 0.79921,-0.714343 1.13163,-1.38625 h 0.82043 z"
         id="flowRoot3751"
         transform="matrix(1.6568991,0,0,1.6568991,-350.39408,481.72151)"
         aria-label="1&#10; " />
    </g>
    <g
       id="g4605"
       transform="translate(678,267.28662)"
       style="display:inline">
      <path
         style="fill:none;stroke:url(#radialGradient4686);stroke-width:2;stroke-linecap:butt;stroke-linejoin:miter;stroke-miterlimit:4;stroke-dasharray:none;stroke-opacity:1"
         d="m 4,7.2187504 c 0,0 0,-1.7569843 0,-2.8141598 0,-3.3207391 6,-3.2867261 6,0 0,1.2356676 0,2.5954098 0,2.5954098"
         id="path4607" />
      <rect
         ry="1"
         rx="1"
         style="fill:url(#linearGradient4688);fill-opacity:1;stroke:#8f5902;stroke-width:1;stroke-linecap:round;stroke-linejoin:round;stroke-miterlimit:4;stroke-dasharray:none;stroke-opacity:1"
         id="rect4609"
         width="10"
         height="7"
         x="2.0000033"
         y="7" />
    </g>
    <g
       style="display:inline"
       transform="translate(678.23374,265.76019)"
       id="g3340">
      <path
         id="path1377-7"
         d="M 2.7741065,6.774 7,13.225893"
         style="color:#000000;display:inline;overflow:visible;visibility:visible;fill:none;stroke:#4e9a06;stroke-width:2;stroke-linecap:round;stroke-linejoin:round;stroke-miterlimit:4;stroke-dasharray:none;stroke-dashoffset:0;stroke-opacity:1;marker:none" />
      <path
         style="color:#000000;display:inline;overflow:visible;visibility:visible;fill:none;stroke:#4e9a06;stroke-width:2;stroke-linecap:round;stroke-linejoin:round;stroke-miterlimit:4;stroke-dasharray:none;stroke-dashoffset:0;stroke-opacity:1;marker:none"
         d="M 13.225893,2.7741064 C 8.7208781,6.5150236 7.6694836,10.162841 7,13.225893"
         id="path2252-1" />
    </g>
    <g
       id="flowRoot5993"
       style="line-height:0.01%;font-family:'Liberation Sans';-inkscape-font-specification:'Liberation Sans, Normal';text-align:center;text-anchor:middle;fill:#4e9a06"
       transform="translate(196.19068,298.30477)"
       aria-label="What user wants&#10;(higher $ cost)">
      <path
         style="font-size:15px;line-height:1.25"
         d="m 390.70508,47.28866 -2.84912,-10.737305 h 1.45752 l 1.6333,7.038575 q 0.26367,1.105957 0.4541,2.197265 0.41016,-1.721191 0.4834,-1.984863 l 2.04345,-7.250977 h 1.71387 l 1.53809,5.434571 q 0.57861,2.021484 0.83496,3.801269 0.20508,-1.018066 0.53467,-2.336426 l 1.68457,-6.899414 h 1.42822 l -2.94434,10.737305 h -1.36963 l -2.26318,-8.181152 q -0.28564,-1.025391 -0.33691,-1.259766 -0.16846,0.739746 -0.31494,1.259766 l -2.27784,8.181152 z m 12.11426,0 V 36.551355 h 1.31836 v 3.852539 q 0.92285,-1.069335 2.3291,-1.069335 0.86425,0 1.50146,0.344238 0.63721,0.336914 0.9082,0.9375 0.27833,0.600586 0.27833,1.743164 v 4.929199 h -1.31836 v -4.929199 q 0,-0.98877 -0.43213,-1.435547 -0.42481,-0.454102 -1.2085,-0.454102 -0.58594,0 -1.10596,0.307618 -0.51269,0.300293 -0.73242,0.820312 -0.21972,0.52002 -0.21972,1.435547 v 4.255371 z m 13.41796,-0.959473 q -0.73242,0.622559 -1.41357,0.878907 -0.67383,0.256347 -1.45019,0.256347 -1.28174,0 -1.97022,-0.622558 -0.68848,-0.629883 -0.68848,-1.604004 0,-0.571289 0.25635,-1.040039 0.26367,-0.476074 0.68115,-0.761719 0.42481,-0.285645 0.95215,-0.432129 0.38819,-0.102539 1.17188,-0.197754 1.59668,-0.190429 2.35107,-0.454101 0.007,-0.270996 0.007,-0.344239 0,-0.805664 -0.37354,-1.135254 -0.50537,-0.446777 -1.50146,-0.446777 -0.93018,0 -1.37696,0.32959 -0.43945,0.322266 -0.65185,1.149902 l -1.28907,-0.175781 q 0.17579,-0.827637 0.57862,-1.333008 0.40283,-0.512695 1.16455,-0.783691 0.76172,-0.27832 1.76514,-0.27832 0.99609,0 1.61865,0.234375 0.62256,0.234375 0.91552,0.593261 0.29297,0.351563 0.41016,0.893555 0.0659,0.336914 0.0659,1.21582 v 1.757813 q 0,1.838379 0.0806,2.329101 0.0879,0.483399 0.33691,0.930176 h -1.37695 q -0.20508,-0.410156 -0.26368,-0.959473 z m -0.10986,-2.944336 q -0.71777,0.292969 -2.15332,0.498047 -0.81299,0.117188 -1.1499,0.263672 -0.33692,0.146485 -0.52002,0.432129 -0.18311,0.27832 -0.18311,0.622559 0,0.527343 0.39551,0.878906 0.40283,0.351562 1.17188,0.351562 0.76172,0 1.35498,-0.329589 0.59326,-0.336914 0.87158,-0.915528 0.2124,-0.446777 0.2124,-1.318359 z m 6.25488,2.72461 0.19043,1.164551 q -0.55664,0.117187 -0.99609,0.117187 -0.71777,0 -1.11328,-0.227051 -0.39551,-0.22705 -0.55664,-0.593261 -0.16113,-0.373536 -0.16113,-1.560059 V 40.53573 h -0.9668 v -1.02539 h 0.9668 v -1.92627 l 1.31103,-0.791015 v 2.717285 h 1.32568 v 1.02539 h -1.32568 v 4.54834 q 0,0.563965 0.0659,0.725098 0.0732,0.161133 0.22705,0.256348 0.16113,0.09521 0.4541,0.09521 0.21973,0 0.57861,-0.05127 z m 10.5542,1.179199 v -1.142578 q -0.9082,1.318359 -2.46826,1.318359 -0.68847,0 -1.28906,-0.263672 -0.59326,-0.263671 -0.88623,-0.659179 -0.28565,-0.402832 -0.40283,-0.981446 -0.0806,-0.388183 -0.0806,-1.230468 V 39.51034 h 1.31836 v 4.313965 q 0,1.032714 0.0806,1.391601 0.12451,0.52002 0.52734,0.820313 0.40283,0.292968 0.99609,0.292968 0.59327,0 1.11328,-0.300293 0.52002,-0.307617 0.73243,-0.827636 0.21972,-0.527344 0.21972,-1.523438 v -4.16748 h 1.31836 v 7.77832 z m 2.71729,-2.321777 1.30371,-0.205078 q 0.10986,0.783691 0.60791,1.201171 0.50537,0.417481 1.40625,0.417481 0.9082,0 1.34766,-0.366211 0.43945,-0.373535 0.43945,-0.871582 0,-0.446777 -0.38818,-0.703125 -0.271,-0.175781 -1.34766,-0.446777 -1.4502,-0.366211 -2.01416,-0.629883 -0.55664,-0.270996 -0.84961,-0.739746 -0.28564,-0.476074 -0.28564,-1.047364 0,-0.520019 0.23437,-0.959472 0.2417,-0.446778 0.65186,-0.739746 0.30761,-0.227051 0.83496,-0.38086 0.53466,-0.161132 1.14257,-0.161132 0.91553,0 1.60401,0.263671 0.6958,0.263672 1.02539,0.717774 0.32959,0.446777 0.4541,1.201172 l -1.28906,0.175781 q -0.0879,-0.600586 -0.5127,-0.9375 -0.41748,-0.336914 -1.18652,-0.336914 -0.9082,0 -1.29639,0.300293 -0.38818,0.300293 -0.38818,0.703125 0,0.256348 0.16113,0.461426 0.16113,0.212402 0.50537,0.351562 0.19776,0.07324 1.16455,0.336914 1.39893,0.373535 1.94825,0.615235 0.55664,0.234375 0.87158,0.688476 0.31494,0.454102 0.31494,1.12793 0,0.65918 -0.38818,1.245117 -0.38086,0.578613 -1.10596,0.900879 -0.7251,0.314941 -1.64063,0.314941 -1.51611,0 -2.31445,-0.629882 -0.79101,-0.629883 -1.01074,-1.867676 z m 13.35205,-0.183106 1.3623,0.168457 q -0.32226,1.193848 -1.19384,1.853028 -0.87159,0.659179 -2.22657,0.659179 -1.70654,0 -2.70996,-1.047363 -0.99609,-1.054687 -0.99609,-2.95166 0,-1.962891 1.01074,-3.046875 1.01074,-1.083984 2.62207,-1.083984 1.56006,0 2.54883,1.062011 0.98877,1.062012 0.98877,2.988281 0,0.117188 -0.007,0.351563 H 444.604 q 0.0733,1.281738 0.7251,1.962891 0.65186,0.681152 1.62598,0.681152 0.7251,0 1.23779,-0.380859 0.5127,-0.38086 0.81299,-1.215821 z m -4.32861,-2.131347 h 4.34326 q -0.0879,-0.981446 -0.49805,-1.472168 -0.62988,-0.761719 -1.6333,-0.761719 -0.9082,0 -1.53076,0.60791 -0.61524,0.60791 -0.68115,1.625977 z m 7.33154,4.63623 v -7.77832 h 1.18652 v 1.179199 q 0.4541,-0.827637 0.83496,-1.091309 0.38819,-0.263671 0.84961,-0.263671 0.66651,0 1.35498,0.424804 l -0.4541,1.223145 q -0.4834,-0.285645 -0.9668,-0.285645 -0.43212,0 -0.77636,0.263672 -0.34424,0.256348 -0.49073,0.717774 -0.21972,0.703125 -0.21972,1.538085 v 4.072266 z m 10.61279,0 -2.38037,-7.77832 h 1.36231 l 1.23779,4.489746 0.46142,1.669922 q 0.0293,-0.124512 0.40284,-1.604004 l 1.23779,-4.555664 h 1.35498 l 1.16455,4.511719 0.38818,1.486816 0.44678,-1.501465 1.33301,-4.49707 h 1.28174 l -2.43164,7.77832 h -1.36963 l -1.23779,-4.658203 -0.3003,-1.325684 -1.5747,5.983887 z m 14.47266,-0.959473 q -0.73242,0.622559 -1.41358,0.878907 -0.67382,0.256347 -1.45019,0.256347 -1.28174,0 -1.97022,-0.622558 -0.68847,-0.629883 -0.68847,-1.604004 0,-0.571289 0.25634,-1.040039 0.26368,-0.476074 0.68116,-0.761719 0.4248,-0.285645 0.95215,-0.432129 0.38818,-0.102539 1.17187,-0.197754 1.59668,-0.190429 2.35107,-0.454101 0.007,-0.270996 0.007,-0.344239 0,-0.805664 -0.37354,-1.135254 -0.50537,-0.446777 -1.50146,-0.446777 -0.93018,0 -1.37695,0.32959 -0.43946,0.322266 -0.65186,1.149902 l -1.28906,-0.175781 q 0.17578,-0.827637 0.57861,-1.333008 0.40283,-0.512695 1.16455,-0.783691 0.76172,-0.27832 1.76514,-0.27832 0.99609,0 1.61865,0.234375 0.62256,0.234375 0.91553,0.593261 0.29297,0.351563 0.41015,0.893555 0.0659,0.336914 0.0659,1.21582 v 1.757813 q 0,1.838379 0.0806,2.329101 0.0879,0.483399 0.33691,0.930176 h -1.37695 q -0.20508,-0.410156 -0.26367,-0.959473 z m -0.10987,-2.944336 q -0.71777,0.292969 -2.15332,0.498047 -0.81298,0.117188 -1.1499,0.263672 -0.33691,0.146485 -0.52002,0.432129 -0.1831,0.27832 -0.1831,0.622559 0,0.527343 0.39551,0.878906 0.40283,0.351562 1.17187,0.351562 0.76172,0 1.35498,-0.329589 0.59326,-0.336914 0.87158,-0.915528 0.2124,-0.446777 0.2124,-1.318359 z m 3.37647,3.903809 v -7.77832 h 1.18652 v 1.105957 q 0.85694,-1.281738 2.47559,-1.281738 0.70312,0 1.28906,0.256347 0.59326,0.249024 0.88623,0.65918 0.29297,0.410156 0.41016,0.974121 0.0732,0.366211 0.0732,1.281738 v 4.782715 h -1.31836 v -4.731445 q 0,-0.805664 -0.15381,-1.201172 -0.15381,-0.402832 -0.54931,-0.637207 -0.38819,-0.241699 -0.91553,-0.241699 -0.84229,0 -1.45752,0.534668 -0.60791,0.534668 -0.60791,2.028808 v 4.248047 z m 11.2207,-1.179199 0.19043,1.164551 q -0.55664,0.117187 -0.99609,0.117187 -0.71777,0 -1.11328,-0.227051 -0.39551,-0.22705 -0.55664,-0.593261 -0.16114,-0.373536 -0.16114,-1.560059 V 40.53573 h -0.96679 v -1.02539 h 0.96679 v -1.92627 l 1.31104,-0.791015 v 2.717285 h 1.32568 v 1.02539 h -1.32568 v 4.54834 q 0,0.563965 0.0659,0.725098 0.0732,0.161133 0.22705,0.256348 0.16113,0.09521 0.4541,0.09521 0.21973,0 0.57861,-0.05127 z m 0.76172,-1.142578 1.30371,-0.205078 q 0.10987,0.783691 0.60791,1.201171 0.50537,0.417481 1.40625,0.417481 0.90821,0 1.34766,-0.366211 0.43945,-0.373535 0.43945,-0.871582 0,-0.446777 -0.38818,-0.703125 -0.271,-0.175781 -1.34766,-0.446777 -1.45019,-0.366211 -2.01416,-0.629883 -0.55664,-0.270996 -0.84961,-0.739746 -0.28564,-0.476074 -0.28564,-1.047364 0,-0.520019 0.23437,-0.959472 0.2417,-0.446778 0.65186,-0.739746 0.30762,-0.227051 0.83496,-0.38086 0.53467,-0.161132 1.14258,-0.161132 0.91553,0 1.604,0.263671 0.6958,0.263672 1.02539,0.717774 0.32959,0.446777 0.4541,1.201172 l -1.28906,0.175781 q -0.0879,-0.600586 -0.51269,-0.9375 -0.41748,-0.336914 -1.18653,-0.336914 -0.9082,0 -1.29638,0.300293 -0.38819,0.300293 -0.38819,0.703125 0,0.256348 0.16114,0.461426 0.16113,0.212402 0.50537,0.351562 0.19775,0.07324 1.16455,0.336914 1.39892,0.373535 1.94824,0.615235 0.55664,0.234375 0.87158,0.688476 0.31494,0.454102 0.31494,1.12793 0,0.65918 -0.38818,1.245117 -0.38086,0.578613 -1.10596,0.900879 -0.7251,0.314941 -1.64062,0.314941 -1.51612,0 -2.31446,-0.629882 -0.79101,-0.629883 -1.01074,-1.867676 z"
         id="path3" />
      <path
         style="font-size:15px;line-height:1.25"
         d="m 399.09863,69.195398 q -1.09131,-1.376953 -1.8457,-3.222656 -0.75439,-1.845703 -0.75439,-3.823242 0,-1.743164 0.56396,-3.339844 0.65918,-1.853027 2.03613,-3.691406 h 0.94483 q -0.88623,1.523437 -1.17188,2.175293 -0.44678,1.010742 -0.70312,2.109375 -0.31494,1.369629 -0.31494,2.753906 0,3.522949 2.18994,7.038574 z m 2.47559,-3.156738 V 55.301355 h 1.31836 v 3.852539 q 0.92285,-1.069335 2.3291,-1.069335 0.86426,0 1.50146,0.344238 0.63721,0.336914 0.90821,0.9375 0.27832,0.600586 0.27832,1.743164 v 4.929199 h -1.31836 v -4.929199 q 0,-0.98877 -0.43213,-1.435547 -0.42481,-0.454102 -1.2085,-0.454102 -0.58593,0 -1.10595,0.307618 -0.5127,0.300293 -0.73243,0.820312 -0.21972,0.52002 -0.21972,1.435547 v 4.255371 z m 8.34961,-9.221191 v -1.516114 h 1.31836 v 1.516114 z m 0,9.221191 v -7.77832 h 1.31836 v 7.77832 z m 3.08349,0.644531 1.28174,0.19043 q 0.0806,0.593262 0.44678,0.864258 0.49072,0.366211 1.34033,0.366211 0.91553,0 1.41358,-0.366211 0.49804,-0.366211 0.67382,-1.025391 0.10254,-0.402832 0.0952,-1.691894 -0.86426,1.018066 -2.15332,1.018066 -1.60401,0 -2.48291,-1.157226 -0.87891,-1.157227 -0.87891,-2.775879 0,-1.113282 0.40283,-2.050782 0.40284,-0.944824 1.16456,-1.457519 0.76904,-0.512695 1.80175,-0.512695 1.37696,0 2.27051,1.113281 v -0.9375 h 1.21582 v 6.723633 q 0,1.816406 -0.37353,2.5708 -0.36622,0.761719 -1.17188,1.201172 -0.79834,0.439453 -1.97021,0.439453 -1.39161,0 -2.24854,-0.629882 -0.85693,-0.622559 -0.82764,-1.882325 z m 1.09131,-4.672851 q 0,1.530761 0.60791,2.233886 0.60791,0.703125 1.52344,0.703125 0.9082,0 1.52344,-0.6958 0.61523,-0.703125 0.61523,-2.197266 0,-1.428223 -0.6372,-2.15332 -0.62989,-0.725098 -1.52344,-0.725098 -0.87891,0 -1.49414,0.717774 -0.61524,0.710449 -0.61524,2.116699 z m 7.49268,4.02832 V 55.301355 h 1.31836 v 3.852539 q 0.92285,-1.069335 2.3291,-1.069335 0.86426,0 1.50146,0.344238 0.63721,0.336914 0.90821,0.9375 0.27832,0.600586 0.27832,1.743164 v 4.929199 h -1.31836 v -4.929199 q 0,-0.98877 -0.43213,-1.435547 -0.42481,-0.454102 -1.2085,-0.454102 -0.58593,0 -1.10595,0.307618 -0.5127,0.300293 -0.73243,0.820312 -0.21972,0.52002 -0.21972,1.435547 v 4.255371 z m 13.66699,-2.504883 1.36231,0.168457 q -0.32227,1.193848 -1.19385,1.853028 -0.87158,0.659179 -2.22656,0.659179 -1.70655,0 -2.70997,-1.047363 -0.99609,-1.054687 -0.99609,-2.95166 0,-1.962891 1.01074,-3.046875 1.01074,-1.083984 2.62207,-1.083984 1.56006,0 2.54883,1.062011 0.98877,1.062012 0.98877,2.988281 0,0.117188 -0.007,0.351563 h -5.80078 q 0.0732,1.281738 0.72509,1.962891 0.65186,0.681152 1.62598,0.681152 0.7251,0 1.23779,-0.380859 0.5127,-0.38086 0.81299,-1.215821 z m -4.32861,-2.131347 h 4.34326 q -0.0879,-0.981446 -0.49805,-1.472168 -0.62988,-0.761719 -1.6333,-0.761719 -0.9082,0 -1.53076,0.60791 -0.61523,0.60791 -0.68115,1.625977 z m 7.33154,4.63623 v -7.77832 h 1.18652 v 1.179199 q 0.45411,-0.827637 0.83496,-1.091309 0.38819,-0.263671 0.84961,-0.263671 0.66651,0 1.35498,0.424804 l -0.4541,1.223145 q -0.4834,-0.285645 -0.96679,-0.285645 -0.43213,0 -0.77637,0.263672 -0.34424,0.256348 -0.49072,0.717774 -0.21973,0.703125 -0.21973,1.538085 v 4.072266 z m 11.92383,1.54541 v -1.318359 q -0.98877,-0.124512 -1.61133,-0.439453 -0.61523,-0.322266 -1.06934,-1.032715 -0.44677,-0.710449 -0.52002,-1.73584 l 1.32569,-0.249023 q 0.15381,1.062011 0.54199,1.560058 0.55664,0.703125 1.33301,0.783692 v -4.196778 q -0.81299,-0.153808 -1.6626,-0.629883 -0.62988,-0.351562 -0.97412,-0.974121 -0.33691,-0.622558 -0.33691,-1.413574 0,-1.40625 0.99609,-2.277832 0.6665,-0.585937 1.97754,-0.717773 v -0.629883 h 0.77637 v 0.629883 q 1.1499,0.109863 1.82373,0.673828 0.86425,0.717773 1.04004,1.970215 l -1.36231,0.205078 q -0.11719,-0.776367 -0.49072,-1.186524 -0.36621,-0.41748 -1.01074,-0.549316 v 3.801269 q 0.99609,0.249024 1.31836,0.388184 0.61523,0.270996 1.00341,0.65918 0.38819,0.388183 0.59326,0.922851 0.21241,0.534668 0.21241,1.157227 0,1.369629 -0.87158,2.285156 -0.87159,0.915527 -2.25586,0.981445 v 1.333008 z m 0,-11.542969 q -0.76904,0.117188 -1.21582,0.615235 -0.43945,0.498047 -0.43945,1.179199 0,0.673828 0.37353,1.12793 0.38086,0.454101 1.28174,0.725097 z m 0.77637,9.111329 q 0.76904,-0.09521 1.26709,-0.666504 0.50537,-0.571289 0.50537,-1.413575 0,-0.717773 -0.35889,-1.149902 -0.35156,-0.439453 -1.41357,-0.783691 z m 14.0625,-1.962891 1.29638,0.168457 q -0.2124,1.340332 -1.09131,2.102051 -0.87158,0.754394 -2.14599,0.754394 -1.59668,0 -2.5708,-1.040039 -0.9668,-1.047363 -0.9668,-2.995605 0,-1.259766 0.41748,-2.20459 0.41748,-0.944824 1.26709,-1.413574 0.85693,-0.476074 1.86035,-0.476074 1.26709,0 2.07276,0.644531 0.80566,0.637207 1.03271,1.816406 l -1.28174,0.197754 q -0.1831,-0.783691 -0.65185,-1.179199 -0.46143,-0.395508 -1.12061,-0.395508 -0.99609,0 -1.61865,0.717773 -0.62256,0.71045 -0.62256,2.25586 0,1.567383 0.60059,2.277832 0.60058,0.710449 1.56738,0.710449 0.77637,0 1.29639,-0.476074 0.52002,-0.476074 0.65918,-1.464844 z m 1.93359,-1.040039 q 0,-2.160645 1.20117,-3.200684 1.00342,-0.864257 2.44629,-0.864257 1.604,0 2.62207,1.054687 1.01807,1.047363 1.01807,2.900391 0,1.501464 -0.4541,2.365722 -0.44678,0.856934 -1.31104,1.333008 -0.85693,0.476074 -1.875,0.476074 -1.6333,0 -2.64404,-1.047363 -1.00342,-1.047363 -1.00342,-3.017578 z m 1.35498,0 q 0,1.494141 0.65186,2.241211 0.65185,0.739746 1.64062,0.739746 0.98145,0 1.6333,-0.74707 0.65186,-0.747071 0.65186,-2.277832 0,-1.442871 -0.65918,-2.182618 -0.65186,-0.74707 -1.62598,-0.74707 -0.98877,0 -1.64062,0.739746 -0.65186,0.739746 -0.65186,2.233887 z m 6.95068,1.567383 1.30371,-0.205078 q 0.10987,0.783691 0.60791,1.201171 0.50538,0.417481 1.40625,0.417481 0.90821,0 1.34766,-0.366211 0.43945,-0.373535 0.43945,-0.871582 0,-0.446777 -0.38818,-0.703125 -0.271,-0.175781 -1.34766,-0.446777 -1.45019,-0.366211 -2.01416,-0.629883 -0.55664,-0.270996 -0.84961,-0.739746 -0.28564,-0.476074 -0.28564,-1.047364 0,-0.520019 0.23438,-0.959472 0.24169,-0.446778 0.65185,-0.739746 0.30762,-0.227051 0.83496,-0.38086 0.53467,-0.161132 1.14258,-0.161132 0.91553,0 1.604,0.263671 0.6958,0.263672 1.02539,0.717774 0.32959,0.446777 0.45411,1.201172 l -1.28907,0.175781 q -0.0879,-0.600586 -0.51269,-0.9375 -0.41748,-0.336914 -1.18653,-0.336914 -0.9082,0 -1.29638,0.300293 -0.38819,0.300293 -0.38819,0.703125 0,0.256348 0.16114,0.461426 0.16113,0.212402 0.50537,0.351562 0.19775,0.07324 1.16455,0.336914 1.39892,0.373535 1.94824,0.615235 0.55664,0.234375 0.87158,0.688476 0.31494,0.454102 0.31494,1.12793 0,0.65918 -0.38818,1.245117 -0.38086,0.578613 -1.10596,0.900879 -0.72509,0.314941 -1.64062,0.314941 -1.51611,0 -2.31445,-0.629882 -0.79102,-0.629883 -1.01075,-1.867676 z m 10.90577,1.142578 0.19042,1.164551 q -0.55664,0.117187 -0.99609,0.117187 -0.71777,0 -1.11328,-0.227051 -0.39551,-0.22705 -0.55664,-0.593261 -0.16113,-0.373536 -0.16113,-1.560059 V 59.28573 h -0.9668 v -1.02539 h 0.9668 v -1.92627 l 1.31103,-0.791015 v 2.717285 h 1.32569 v 1.02539 h -1.32569 v 4.54834 q 0,0.563965 0.0659,0.725098 0.0732,0.161133 0.22705,0.256348 0.16113,0.09521 0.4541,0.09521 0.21973,0 0.57862,-0.05127 z m 2.15332,4.335937 h -0.94483 q 2.18994,-3.515625 2.18994,-7.038574 0,-1.376953 -0.31494,-2.731933 -0.24902,-1.098633 -0.6958,-2.109375 -0.28564,-0.65918 -1.1792,-2.197266 h 0.94483 q 1.37695,1.838379 2.03613,3.691406 0.56396,1.59668 0.56396,3.339844 0,1.977539 -0.76172,3.823242 -0.75439,1.845703 -1.83837,3.222656 z"
         id="path4" />
    </g>
  </g>
</svg>
