<?xml version="1.0" encoding="UTF-8" standalone="no"?>
<!-- Created with Inkscape (http://www.inkscape.org/) -->

<svg
   width="800"
   height="600"
   id="svg2"
   version="1.1"
   xmlns="http://www.w3.org/2000/svg"
   xmlns:svg="http://www.w3.org/2000/svg"
   xmlns:rdf="http://www.w3.org/1999/02/22-rdf-syntax-ns#"
   xmlns:cc="http://creativecommons.org/ns#"
   xmlns:dc="http://purl.org/dc/elements/1.1/">
  <defs
     id="defs4" />
  <metadata
     id="metadata7">
    <rdf:RDF>
      <cc:Work
         rdf:about="">
        <dc:format>image/svg+xml</dc:format>
        <dc:type
           rdf:resource="http://purl.org/dc/dcmitype/StillImage" />
        <dc:language>en</dc:language>
        <cc:license
           rdf:resource="https://timefold.ai/license" />
      </cc:Work>
    </rdf:RDF>
  </metadata>
  <g
     id="layer3"
     style="display:inline">
    <g
       id="g6493"
       transform="translate(0,-320.00009)">
      <path
         style="color:#000000;display:inline;overflow:visible;visibility:visible;fill:#fce94f;fill-opacity:1;fill-rule:nonzero;stroke:#c4a000;stroke-width:1;stroke-linecap:round;stroke-linejoin:round;stroke-miterlimit:4;stroke-dasharray:none;stroke-dashoffset:0;stroke-opacity:1;marker:none;enable-background:accumulate"
         d="m 79.999999,540.00002 10,-49.99363 10,-10 10.000001,5 10,-10 10,5 10,60 h 140 l 10,-50 10,-5 10,-10 10,10 10,-10 L 340,540"
         id="path7075" />
      <path
         style="color:#000000;display:inline;overflow:visible;visibility:visible;fill:none;stroke:#000000;stroke-width:1px;stroke-linecap:round;stroke-linejoin:round;stroke-miterlimit:4;stroke-dasharray:none;stroke-dashoffset:0;stroke-opacity:1;marker:none;enable-background:accumulate"
         d="M 79.999999,540.00002 H 375.00254"
         id="path7077" />
      <path
         style="color:#000000;display:inline;overflow:visible;visibility:visible;fill:none;stroke:#000000;stroke-width:1px;stroke-linecap:round;stroke-linejoin:round;stroke-miterlimit:4;stroke-dasharray:none;stroke-dashoffset:0;stroke-opacity:1;marker:none;enable-background:accumulate"
         d="m 365.00254,530.00003 10,9.99999 -10,10"
         id="path7079" />
      <path
         style="font-weight:bold;font-size:15px;line-height:1.25;font-family:'Liberation Sans';-inkscape-font-specification:'Arial Bold'"
         d="m 376.02539,-211.36759 v -10.7373 h 2.16797 v 10.7373 z m 3.12012,0.18311 2.65869,-11.10352 h 1.54541 l -2.68799,11.10352 z m 4.84131,-5.48584 q 0,-1.64063 0.49072,-2.75391 0.36621,-0.82031 0.99609,-1.47217 0.63721,-0.65185 1.3916,-0.9668 1.00342,-0.4248 2.31446,-0.4248 2.37304,0 3.79394,1.47217 1.42823,1.47217 1.42823,4.09424 0,2.60009 -1.41358,4.07226 -1.41357,1.46485 -3.7793,1.46485 -2.39502,0 -3.80859,-1.45752 -1.41357,-1.46485 -1.41357,-4.02832 z m 2.23388,-0.0733 q 0,1.82373 0.84229,2.76856 0.84228,0.9375 2.13867,0.9375 1.29639,0 2.12402,-0.93018 0.83496,-0.9375 0.83496,-2.80517 0,-1.84571 -0.81298,-2.75391 -0.80567,-0.9082 -2.146,-0.9082 -1.34033,0 -2.16064,0.92285 -0.82032,0.91553 -0.82032,2.76855 z m 17.43897,8.53272 h -1.41358 q -1.1206,-1.6919 -1.70654,-3.51563 -0.58594,-1.82373 -0.58594,-3.53027 0,-2.1167 0.7251,-4.00635 0.62988,-1.64062 1.59668,-3.0249 h 1.40625 q -1.00342,2.21924 -1.38428,3.7793 -0.37353,1.55273 -0.37353,3.2959 0,1.20117 0.21972,2.46093 0.22706,1.25977 0.61524,2.39502 0.25635,0.74707 0.90088,2.146 z m 1.61865,-3.15674 v -10.7373 h 2.10938 l 4.39453,7.17041 v -7.17041 h 2.01416 v 10.7373 h -2.1753 l -4.32861,-7.00195 v 7.00195 z m 15.30029,-2.47559 2.05078,0.34424 q -0.3955,1.12793 -1.25244,1.72119 -0.84961,0.58594 -2.13134,0.58594 -2.02881,0 -3.00293,-1.32568 -0.76905,-1.06201 -0.76905,-2.68067 0,-1.93359 1.01074,-3.0249 1.01075,-1.09863 2.55616,-1.09863 1.73584,0 2.73926,1.1499 1.00341,1.14258 0.95947,3.5083 h -5.15625 q 0.022,0.91553 0.49804,1.42822 0.47608,0.50538 1.18653,0.50538 0.4834,0 0.81299,-0.26368 0.32959,-0.26367 0.49804,-0.84961 z m 0.11719,-2.08007 q -0.022,-0.89356 -0.46143,-1.35498 -0.43945,-0.46875 -1.06933,-0.46875 -0.67383,0 -1.11328,0.49072 -0.43946,0.49072 -0.43213,1.33301 z m 7.2876,-3.22266 v 1.64062 h -1.40625 v 3.13477 q 0,0.95215 0.0366,1.11328 0.0439,0.15381 0.1831,0.25635 0.14649,0.10254 0.35157,0.10254 0.28564,0 0.82763,-0.19776 l 0.17579,1.59668 q -0.71778,0.30762 -1.62598,0.30762 -0.55664,0 -1.00342,-0.1831 -0.44678,-0.19043 -0.65918,-0.4834 -0.20508,-0.3003 -0.28564,-0.80567 -0.0659,-0.35888 -0.0659,-1.45019 v -3.39112 h -0.94483 v -1.64062 h 0.94483 v -1.54541 l 2.06543,-1.20117 v 2.74658 z m 2.87842,7.77832 -2.46094,-7.77832 h 1.99951 l 1.45752,5.09766 1.34033,-5.09766 h 1.98487 l 1.29638,5.09766 1.48682,-5.09766 h 2.02881 l -2.49756,7.77832 h -1.97754 l -1.34033,-5.00244 -1.31836,5.00244 z m 9.74121,-3.99902 q 0,-1.02539 0.50537,-1.98487 0.50537,-0.95947 1.42822,-1.46484 0.93018,-0.50537 2.07275,-0.50537 1.76514,0 2.89307,1.1499 1.12793,1.14258 1.12793,2.89307 0,1.76513 -1.14258,2.92968 -1.13525,1.15723 -2.86377,1.15723 -1.06933,0 -2.04345,-0.4834 -0.9668,-0.4834 -1.47217,-1.41357 -0.50537,-0.9375 -0.50537,-2.27783 z m 2.10937,0.10986 q 0,1.15723 0.54932,1.77246 0.54932,0.61524 1.35498,0.61524 0.80566,0 1.34766,-0.61524 0.54931,-0.61523 0.54931,-1.78711 0,-1.14258 -0.54931,-1.75781 -0.542,-0.61524 -1.34766,-0.61524 -0.80566,0 -1.35498,0.61524 -0.54932,0.61523 -0.54932,1.77246 z m 9.49951,3.88916 h -2.0581 v -7.77832 h 1.91162 v 1.10596 q 0.49072,-0.78369 0.87891,-1.03272 0.3955,-0.24902 0.89355,-0.24902 0.70313,0 1.35498,0.38818 l -0.63721,1.79444 q -0.52002,-0.33692 -0.96679,-0.33692 -0.43213,0 -0.73242,0.2417 -0.3003,0.23438 -0.47608,0.85693 -0.16846,0.62256 -0.16846,2.60743 z m 3.79395,0 v -10.7373 h 2.0581 v 5.69824 l 2.40967,-2.73926 h 2.53418 l -2.65869,2.8418 2.84912,4.93652 H 460.979 l -1.95556,-3.49365 -0.95948,1.00342 v 2.49023 z m 8.36426,-2.05811 h 2.0581 v 1.47217 q 0,0.89356 -0.15381,1.40625 -0.1538,0.52002 -0.58593,0.93018 -0.42481,0.41015 -1.08399,0.64453 l -0.40283,-0.84961 q 0.62256,-0.20508 0.88623,-0.56396 0.26367,-0.35889 0.27832,-0.98145 h -0.99609 z m 8.39355,-8.67919 h 3.9624 q 1.34034,0 2.04346,0.20507 0.94483,0.27832 1.61865,0.98877 0.67383,0.71045 1.02539,1.74317 0.35157,1.02539 0.35157,2.53418 0,1.32568 -0.32959,2.28515 -0.40284,1.17188 -1.14991,1.89698 -0.56396,0.54931 -1.52343,0.85693 -0.71778,0.22705 -1.91895,0.22705 h -4.07959 z m 2.16797,1.8164 v 7.11182 h 1.61865 q 0.90821,0 1.31104,-0.10254 0.52734,-0.13184 0.87158,-0.44678 0.35156,-0.31494 0.57129,-1.03271 0.21973,-0.7251 0.21973,-1.97022 0,-1.24512 -0.21973,-1.91162 -0.21973,-0.6665 -0.61524,-1.04004 -0.3955,-0.37353 -1.00341,-0.50537 -0.4541,-0.10254 -1.77979,-0.10254 z m 8.65723,0.0879 v -1.90429 h 2.0581 v 1.90429 z m 0,8.83301 v -7.77832 h 2.0581 v 7.77832 z m 3.44238,-2.21924 2.06543,-0.31494 q 0.13184,0.60059 0.53467,0.91553 0.40283,0.30761 1.12793,0.30761 0.79834,0 1.20117,-0.29296 0.271,-0.20508 0.271,-0.54932 0,-0.23438 -0.14649,-0.38818 -0.15381,-0.14649 -0.68848,-0.271 -2.49023,-0.54932 -3.15673,-1.00342 -0.92286,-0.62988 -0.92286,-1.75049 0,-1.01074 0.79834,-1.69921 0.79834,-0.68848 2.47559,-0.68848 1.59668,0 2.37305,0.52002 0.77636,0.52002 1.06933,1.53808 l -1.94091,0.35889 q -0.12452,-0.4541 -0.47608,-0.6958 -0.34424,-0.2417 -0.98877,-0.2417 -0.81299,0 -1.16455,0.22705 -0.23437,0.16113 -0.23437,0.41748 0,0.21973 0.20507,0.37354 0.27832,0.20508 1.91895,0.57861 1.64795,0.37354 2.2998,0.91553 0.64453,0.54931 0.64453,1.53076 0,1.06934 -0.89355,1.83838 -0.89355,0.76904 -2.64404,0.76904 -1.58936,0 -2.51953,-0.64453 -0.92286,-0.64453 -1.2085,-1.75049 z m 8.99414,2.21924 v -10.7373 h 2.05811 v 5.69824 l 2.40966,-2.73926 h 2.53418 l -2.65869,2.8418 2.84912,4.93652 h -2.21923 l -1.95557,-3.49365 -0.95947,1.00342 v 2.49023 z m 8.36426,-2.05811 h 2.0581 v 1.47217 q 0,0.89356 -0.1538,1.40625 -0.15381,0.52002 -0.58594,0.93018 -0.42481,0.41015 -1.08399,0.64453 l -0.40283,-0.84961 q 0.62256,-0.20508 0.88623,-0.56396 0.26367,-0.35889 0.27832,-0.98145 h -0.99609 z m 8.38623,2.05811 v -2.05811 h 2.0581 v 2.05811 z m 4.16748,0 v -2.05811 h 2.0581 v 2.05811 z m 4.16748,0 v -2.05811 h 2.05811 v 2.05811 z m 3.59619,3.15674 q 0.60791,-1.30371 0.85693,-1.99951 0.24903,-0.6958 0.46143,-1.60401 0.2124,-0.9082 0.31494,-1.72119 0.10254,-0.82031 0.10254,-1.67724 0,-1.74317 -0.37353,-3.2959 -0.37354,-1.56006 -1.37696,-3.7793 h 1.39893 q 1.10596,1.57471 1.71387,3.33984 0.61523,1.76514 0.61523,3.58155 0,1.53076 -0.4834,3.28125 -0.54931,1.96289 -1.80908,3.87451 z"
         id="flowRoot7081"
         transform="translate(-354.99958,654.87882)"
         aria-label="I/O (Network, Disk, ...)" />
      <path
         style="color:#000000;display:inline;overflow:visible;visibility:visible;fill:none;fill-opacity:1;fill-rule:nonzero;stroke:#000000;stroke-width:1;stroke-linecap:round;stroke-linejoin:round;stroke-miterlimit:4;stroke-dasharray:none;stroke-dashoffset:0.2;stroke-opacity:1;marker:none;enable-background:accumulate"
         d="M 79.999999,540.00002 V 460.00003"
         id="path7089" />
      <path
         style="font-size:12.5px;line-height:1.25;font-family:'Liberation Sans';-inkscape-font-specification:'Liberation Sans, Normal';text-align:end;text-anchor:end"
         d="m 37.686768,755.7067 h -1.098633 v -7.00074 q -0.396729,0.37842 -1.043701,0.75684 -0.64087,0.37842 -1.153565,0.56763 v -1.06202 q 0.921631,-0.43334 1.611328,-1.0498 0.689698,-0.61646 0.976563,-1.19629 h 0.708008 z m 2.81372,-4.41285 q 0,-1.58691 0.323487,-2.55127 0.329589,-0.97045 0.970459,-1.49536 0.646972,-0.5249 1.623535,-0.5249 0.720215,0 1.263427,0.29297 0.543213,0.28686 0.897217,0.83618 0.354004,0.54321 0.55542,1.33057 0.201416,0.78125 0.201416,2.11181 0,1.57471 -0.323486,2.54517 -0.323486,0.96436 -0.970459,1.49536 -0.640869,0.5249 -1.623535,0.5249 -1.293946,0 -2.032471,-0.92773 -0.88501,-1.11694 -0.88501,-3.6377 z m 1.129151,0 q 0,2.20337 0.512695,2.9358 0.518799,0.72631 1.275635,0.72631 0.756836,0 1.269531,-0.73242 0.518799,-0.73242 0.518799,-2.92969 0,-2.20947 -0.518799,-2.93579 -0.512695,-0.72632 -1.281738,-0.72632 -0.756836,0 -1.208496,0.64087 -0.567627,0.81787 -0.567627,3.02124 z m 5.822754,0 q 0,-1.58691 0.323486,-2.55127 0.32959,-0.97045 0.970459,-1.49536 0.646973,-0.5249 1.623535,-0.5249 0.720215,0 1.263428,0.29297 0.543213,0.28686 0.897217,0.83618 0.354003,0.54321 0.555419,1.33057 0.201417,0.78125 0.201417,2.11181 0,1.57471 -0.323487,2.54517 -0.323486,0.96436 -0.970459,1.49536 -0.640869,0.5249 -1.623535,0.5249 -1.293945,0 -2.032471,-0.92773 -0.885009,-1.11694 -0.885009,-3.6377 z m 1.12915,0 q 0,2.20337 0.512695,2.9358 0.518799,0.72631 1.275635,0.72631 0.756836,0 1.269531,-0.73242 0.518799,-0.73242 0.518799,-2.92969 0,-2.20947 -0.518799,-2.93579 -0.512695,-0.72632 -1.281738,-0.72632 -0.756836,0 -1.208496,0.64087 -0.567627,0.81787 -0.567627,3.02124 z m 6.030273,-2.38647 q 0,-0.95825 0.482178,-1.62964 0.482178,-0.67139 1.397705,-0.67139 0.842285,0 1.391602,0.60425 0.55542,0.59815 0.55542,1.76392 0,1.13525 -0.561524,1.75171 -0.55542,0.61035 -1.373291,0.61035 -0.811767,0 -1.35498,-0.60425 -0.53711,-0.60425 -0.53711,-1.82495 z m 1.910401,-1.54419 q -0.408936,0 -0.683594,0.354 -0.268555,0.35401 -0.268555,1.30005 0,0.8606 0.274659,1.2146 0.274658,0.3479 0.67749,0.3479 0.415039,0 0.683594,-0.354 0.274658,-0.35401 0.274658,-1.29395 0,-0.8667 -0.274658,-1.2146 -0.274659,-0.354 -0.683594,-0.354 z m 0.0061,8.6731 4.89502,-9.42994 h 0.891113 l -4.876709,9.42994 z m 3.869629,-2.4292 q 0,-0.96436 0.482178,-1.62964 0.482178,-0.67139 1.403809,-0.67139 0.842285,0 1.391601,0.60425 0.55542,0.59814 0.55542,1.76392 0,1.13525 -0.561523,1.7517 -0.55542,0.61036 -1.379395,0.61036 -0.811768,0 -1.35498,-0.60425 -0.53711,-0.61035 -0.53711,-1.82495 z m 1.916504,-1.54419 q -0.415039,0 -0.689697,0.354 -0.268555,0.354 -0.268555,1.30005 0,0.85449 0.274658,1.2085 0.274659,0.354 0.677491,0.354 0.421142,0 0.689697,-0.354 0.274658,-0.35401 0.274658,-1.29395 0,-0.8667 -0.274658,-1.2146 -0.274658,-0.354 -0.683594,-0.354 z"
         id="flowRoot7091"
         transform="translate(-6.2499998e-7,-282.36219)"
         aria-label="100%" />
      <path
         id="path7099"
         d="m 79.999999,470.00003 h -10"
         style="color:#000000;display:inline;overflow:visible;visibility:visible;fill:none;fill-opacity:1;fill-rule:nonzero;stroke:#000000;stroke-width:1;stroke-linecap:round;stroke-linejoin:round;stroke-miterlimit:4;stroke-dasharray:none;stroke-dashoffset:0.2;stroke-opacity:1;marker:none;enable-background:accumulate" />
      <path
         style="color:#000000;display:inline;overflow:visible;visibility:visible;fill:none;fill-opacity:1;fill-rule:nonzero;stroke:#000000;stroke-width:1;stroke-linecap:round;stroke-linejoin:round;stroke-miterlimit:4;stroke-dasharray:none;stroke-dashoffset:0.2;stroke-opacity:1;marker:none;enable-background:accumulate"
         d="m 79.999999,470.00003 h -10"
         id="path7109" />
      <path
         id="path7111"
         d="M 140,560.00002 V 470.00003"
         style="color:#000000;display:inline;overflow:visible;visibility:visible;fill:none;fill-opacity:1;fill-rule:nonzero;stroke:#000000;stroke-width:1;stroke-linecap:round;stroke-linejoin:round;stroke-miterlimit:4;stroke-dasharray:2, 2;stroke-dashoffset:0;stroke-opacity:1;marker:none;enable-background:accumulate" />
      <path
         style="color:#000000;display:inline;overflow:visible;visibility:visible;fill:none;fill-opacity:1;fill-rule:nonzero;stroke:#000000;stroke-width:1;stroke-linecap:round;stroke-linejoin:round;stroke-miterlimit:4;stroke-dasharray:2, 2;stroke-dashoffset:0;stroke-opacity:1;marker:none;enable-background:accumulate"
         d="M 280,560.00002 V 470.00003"
         id="path7113" />
      <path
         style="font-size:15px;line-height:1.25;font-family:'Liberation Sans';-inkscape-font-specification:'Liberation Sans, Normal';text-align:center;text-anchor:middle"
         d="m 166.28174,736.14071 1.30371,-0.20508 q 0.10986,0.78369 0.60791,1.20117 0.50537,0.41749 1.40625,0.41749 0.9082,0 1.34766,-0.36622 0.43945,-0.37353 0.43945,-0.87158 0,-0.44678 -0.38818,-0.70312 -0.271,-0.17578 -1.34766,-0.44678 -1.4502,-0.36621 -2.01416,-0.62988 -0.55664,-0.271 -0.84961,-0.73975 -0.28565,-0.47607 -0.28565,-1.04736 0,-0.52002 0.23438,-0.95948 0.2417,-0.44677 0.65186,-0.73974 0.30761,-0.22705 0.83496,-0.38086 0.53466,-0.16113 1.14257,-0.16113 0.91553,0 1.60401,0.26367 0.6958,0.26367 1.02539,0.71777 0.32959,0.44678 0.4541,1.20117 l -1.28906,0.17579 q -0.0879,-0.60059 -0.5127,-0.9375 -0.41748,-0.33692 -1.18652,-0.33692 -0.9082,0 -1.29639,0.30029 -0.38818,0.3003 -0.38818,0.70313 0,0.25635 0.16113,0.46142 0.16113,0.21241 0.50537,0.35157 0.19776,0.0732 1.16455,0.33691 1.39893,0.37354 1.94825,0.61524 0.55664,0.23437 0.87158,0.68847 0.31494,0.4541 0.31494,1.12793 0,0.65918 -0.38818,1.24512 -0.38086,0.57861 -1.10596,0.90088 -0.7251,0.31494 -1.64063,0.31494 -1.51611,0 -2.31445,-0.62988 -0.79102,-0.62989 -1.01074,-1.86768 z m 7.53662,-1.56738 q 0,-2.16065 1.20117,-3.20069 1.00342,-0.86425 2.44629,-0.86425 1.604,0 2.62207,1.05468 1.01807,1.04737 1.01807,2.90039 0,1.50147 -0.4541,2.36573 -0.44678,0.85693 -1.31104,1.33301 -0.85693,0.47607 -1.875,0.47607 -1.6333,0 -2.64404,-1.04736 -1.00342,-1.04737 -1.00342,-3.01758 z m 1.35498,0 q 0,1.49414 0.65186,2.24121 0.65185,0.73975 1.64062,0.73975 0.98145,0 1.6333,-0.74708 0.65186,-0.74707 0.65186,-2.27783 0,-1.44287 -0.65918,-2.18261 -0.65186,-0.74707 -1.62598,-0.74707 -0.98877,0 -1.64062,0.73974 -0.65186,0.73975 -0.65186,2.23389 z m 7.44873,3.88916 v -10.73731 h 1.31836 v 10.73731 z m 5.52246,0 -2.95898,-7.77832 h 1.3916 l 1.66992,4.6582 q 0.271,0.7544 0.49805,1.56738 0.17578,-0.61523 0.49072,-1.47949 l 1.72852,-4.74609 h 1.35498 l -2.94434,7.77832 z m 10.66406,-2.50488 1.36231,0.16845 q -0.32227,1.19385 -1.19385,1.85303 -0.87158,0.65918 -2.22656,0.65918 -1.70654,0 -2.70996,-1.04736 -0.9961,-1.05469 -0.9961,-2.95166 0,-1.96289 1.01075,-3.04688 1.01074,-1.08398 2.62207,-1.08398 1.56005,0 2.54882,1.06201 0.98877,1.06201 0.98877,2.98828 0,0.11719 -0.007,0.35156 h -5.80078 q 0.0732,1.28174 0.7251,1.96289 0.65185,0.68116 1.62597,0.68116 0.7251,0 1.2378,-0.38086 0.51269,-0.38086 0.81298,-1.21582 z m -4.32861,-2.13135 h 4.34326 q -0.0879,-0.98145 -0.49804,-1.47217 -0.62989,-0.76172 -1.63331,-0.76172 -0.9082,0 -1.53076,0.60791 -0.61523,0.60791 -0.68115,1.62598 z m 7.33154,4.63623 v -7.77832 h 1.18653 v 1.1792 q 0.4541,-0.82764 0.83496,-1.09131 0.38818,-0.26367 0.84961,-0.26367 0.6665,0 1.35498,0.4248 l -0.4541,1.22315 q -0.4834,-0.28565 -0.9668,-0.28565 -0.43213,0 -0.77637,0.26367 -0.34424,0.25635 -0.49072,0.71778 -0.21973,0.70312 -0.21973,1.53808 v 4.07227 z m 4.55567,0 v -1.50147 h 1.50146 v 1.50147 z m 3.2666,-2.32178 1.30371,-0.20508 q 0.10986,0.78369 0.60791,1.20117 0.50537,0.41749 1.40625,0.41749 0.9082,0 1.34766,-0.36622 0.43945,-0.37353 0.43945,-0.87158 0,-0.44678 -0.38818,-0.70312 -0.271,-0.17578 -1.34766,-0.44678 -1.4502,-0.36621 -2.01416,-0.62988 -0.55664,-0.271 -0.84961,-0.73975 -0.28564,-0.47607 -0.28564,-1.04736 0,-0.52002 0.23437,-0.95948 0.2417,-0.44677 0.65186,-0.73974 0.30761,-0.22705 0.83496,-0.38086 0.53466,-0.16113 1.14258,-0.16113 0.91552,0 1.604,0.26367 0.6958,0.26367 1.02539,0.71777 0.32959,0.44678 0.4541,1.20117 l -1.28906,0.17579 q -0.0879,-0.60059 -0.5127,-0.9375 -0.41748,-0.33692 -1.18652,-0.33692 -0.9082,0 -1.29639,0.30029 -0.38818,0.3003 -0.38818,0.70313 0,0.25635 0.16113,0.46142 0.16114,0.21241 0.50537,0.35157 0.19776,0.0732 1.16455,0.33691 1.39893,0.37354 1.94825,0.61524 0.55664,0.23437 0.87158,0.68847 0.31494,0.4541 0.31494,1.12793 0,0.65918 -0.38818,1.24512 -0.38086,0.57861 -1.10596,0.90088 -0.7251,0.31494 -1.64063,0.31494 -1.51611,0 -2.31445,-0.62988 -0.79101,-0.62989 -1.01074,-1.86768 z m 7.53662,-1.56738 q 0,-2.16065 1.20117,-3.20069 1.00342,-0.86425 2.44629,-0.86425 1.604,0 2.62207,1.05468 1.01807,1.04737 1.01807,2.90039 0,1.50147 -0.4541,2.36573 -0.44678,0.85693 -1.31104,1.33301 -0.85693,0.47607 -1.875,0.47607 -1.6333,0 -2.64404,-1.04736 -1.00342,-1.04737 -1.00342,-3.01758 z m 1.35498,0 q 0,1.49414 0.65186,2.24121 0.65185,0.73975 1.64062,0.73975 0.98145,0 1.6333,-0.74708 0.65186,-0.74707 0.65186,-2.27783 0,-1.44287 -0.65918,-2.18261 -0.65186,-0.74707 -1.62598,-0.74707 -0.98877,0 -1.64062,0.73974 -0.65186,0.73975 -0.65186,2.23389 z m 7.44873,3.88916 v -10.73731 h 1.31836 v 10.73731 z m 5.52246,0 -2.95898,-7.77832 h 1.3916 l 1.66992,4.6582 q 0.271,0.7544 0.49805,1.56738 0.17578,-0.61523 0.49072,-1.47949 l 1.72852,-4.74609 h 1.35498 l -2.94434,7.77832 z m 10.66406,-2.50488 1.36231,0.16845 q -0.32227,1.19385 -1.19385,1.85303 -0.87158,0.65918 -2.22656,0.65918 -1.70654,0 -2.70996,-1.04736 -0.9961,-1.05469 -0.9961,-2.95166 0,-1.96289 1.01075,-3.04688 1.01074,-1.08398 2.62207,-1.08398 1.56006,0 2.54882,1.06201 0.98877,1.06201 0.98877,2.98828 0,0.11719 -0.007,0.35156 h -5.80078 q 0.0732,1.28174 0.7251,1.96289 0.65185,0.68116 1.62597,0.68116 0.7251,0 1.2378,-0.38086 0.51269,-0.38086 0.81298,-1.21582 z m -4.32861,-2.13135 h 4.34326 q -0.0879,-0.98145 -0.49804,-1.47217 -0.62989,-0.76172 -1.6333,-0.76172 -0.90821,0 -1.53077,0.60791 -0.61523,0.60791 -0.68115,1.62598 z m 9.86572,7.79297 q -1.0913,-1.37696 -1.8457,-3.22266 -0.75439,-1.8457 -0.75439,-3.82324 0,-1.74317 0.56396,-3.33985 0.65918,-1.85302 2.03613,-3.6914 h 0.94483 q -0.88623,1.52344 -1.17188,2.17529 -0.44677,1.01074 -0.70312,2.10938 -0.31494,1.36962 -0.31494,2.7539 0,3.52295 2.18994,7.03858 z m 3.33985,0 h -0.94483 q 2.18994,-3.51563 2.18994,-7.03858 0,-1.37695 -0.31494,-2.73193 -0.24902,-1.09863 -0.6958,-2.10938 -0.28564,-0.65918 -1.1792,-2.19726 h 0.94483 q 1.37695,1.83838 2.03613,3.6914 0.56397,1.59668 0.56397,3.33985 0,1.97754 -0.76172,3.82324 -0.7544,1.8457 -1.83838,3.22266 z"
         id="flowRoot7115"
         transform="translate(-6.2499998e-7,-182.36215)"
         aria-label="solver.solve()" />
      <g
         id="flowRoot7123"
         style="line-height:0.01%;font-family:'Liberation Sans';-inkscape-font-specification:'Liberation Sans, Normal';text-align:center;text-anchor:middle"
         transform="translate(-6.2499998e-7,-189.95541)"
         aria-label="Read&#10; problem">
        <path
           style="font-size:12.5px;line-height:1.25"
           d="M 96.04126,743.62076 V 734.673 h 3.96728 q 1.19629,0 1.81885,0.24415 0.62256,0.23803 0.99488,0.84838 0.37231,0.61036 0.37231,1.34888 0,0.95215 -0.61645,1.60523 -0.61646,0.65307 -1.9043,0.83007 0.46997,0.22583 0.71411,0.44556 0.5188,0.47607 0.98267,1.19019 l 1.55639,2.4353 h -1.48926 l -1.18408,-1.86157 q -0.5188,-0.80567 -0.85449,-1.23291 -0.33569,-0.42725 -0.604248,-0.59815 -0.262451,-0.1709 -0.53711,-0.23804 -0.201416,-0.0427 -0.659179,-0.0427 h -1.373291 v 3.97339 z m 1.184082,-4.99878 h 2.545166 q 0.811772,0 1.269532,-0.1648 0.45776,-0.17089 0.6958,-0.53711 0.23804,-0.37231 0.23804,-0.80566 0,-0.63476 -0.46387,-1.0437 -0.45776,-0.40894 -1.45264,-0.40894 h -2.832028 z m 12.121578,2.91138 1.13526,0.14038 q -0.26856,0.99487 -0.99488,1.54419 -0.72631,0.54931 -1.85546,0.54931 -1.42212,0 -2.2583,-0.8728 -0.83008,-0.87891 -0.83008,-2.45972 0,-1.63574 0.84228,-2.53906 0.84229,-0.90332 2.18506,-0.90332 1.30005,0 2.12402,0.88501 0.82398,0.88501 0.82398,2.49023 0,0.0977 -0.006,0.29297 h -4.83399 q 0.061,1.06812 0.60425,1.63575 0.54321,0.56762 1.35498,0.56762 0.60425,0 1.03149,-0.31738 0.42725,-0.31738 0.67749,-1.01318 z m -3.60717,-1.77613 h 3.61938 q -0.0732,-0.81787 -0.41504,-1.2268 -0.5249,-0.63477 -1.36108,-0.63477 -0.75684,0 -1.27564,0.50659 -0.51269,0.50659 -0.56762,1.35498 z m 10.35156,3.06397 q -0.61035,0.5188 -1.17798,0.73242 -0.56152,0.21362 -1.2085,0.21362 -1.06811,0 -1.64184,-0.5188 -0.57373,-0.5249 -0.57373,-1.33667 0,-0.47607 0.21362,-0.8667 0.21973,-0.39672 0.56763,-0.63476 0.354,-0.23804 0.79345,-0.36011 0.32349,-0.0855 0.97657,-0.16479 1.33056,-0.15869 1.95923,-0.37842 0.006,-0.22583 0.006,-0.28687 0,-0.67138 -0.31128,-0.94604 -0.42114,-0.37232 -1.25122,-0.37232 -0.77515,0 -1.14746,0.27466 -0.36621,0.26856 -0.54321,0.95825 l -1.07422,-0.14648 q 0.14648,-0.6897 0.48217,-1.11084 0.3357,-0.42725 0.97046,-0.65308 0.63477,-0.23193 1.47095,-0.23193 0.83008,0 1.34888,0.19531 0.5188,0.19532 0.76294,0.49439 0.24414,0.29297 0.34179,0.74463 0.0549,0.28076 0.0549,1.01318 v 1.46484 q 0,1.53199 0.0671,1.94092 0.0733,0.40283 0.28077,0.77515 h -1.14746 q -0.1709,-0.3418 -0.21973,-0.79956 z m -0.0915,-2.45362 q -0.59815,0.24415 -1.79444,0.41504 -0.67749,0.0977 -0.95825,0.21973 -0.28076,0.12207 -0.43335,0.36011 -0.15259,0.23193 -0.15259,0.5188 0,0.43945 0.32959,0.73242 0.3357,0.29297 0.97657,0.29297 0.63476,0 1.12915,-0.27466 0.49438,-0.28076 0.72631,-0.76294 0.17701,-0.37232 0.17701,-1.09863 z m 7.01904,3.25318 v -0.81787 q -0.61646,0.96435 -1.81275,0.96435 -0.77514,0 -1.42822,-0.42724 -0.64697,-0.42725 -1.00708,-1.19019 -0.354,-0.76904 -0.354,-1.76391 0,-0.97046 0.32348,-1.75782 0.32349,-0.79345 0.97046,-1.2146 0.64698,-0.42114 1.44654,-0.42114 0.58593,0 1.0437,0.25024 0.45776,0.24415 0.74463,0.64087 V 734.673 h 1.09253 v 8.94776 z m -3.4729,-3.23486 q 0,1.24511 0.5249,1.86157 0.5249,0.61645 1.23901,0.61645 0.72022,0 1.22071,-0.58594 0.50659,-0.59204 0.50659,-1.80053 0,-1.33057 -0.5127,-1.95313 -0.51269,-0.62256 -1.26342,-0.62256 -0.73243,0 -1.22681,0.59815 -0.48828,0.59814 -0.48828,1.88599 z"
           id="path1" />
        <path
           style="font-size:12.5px;line-height:1.25"
           d="m 89.980469,761.72989 v -8.96607 h 1.000976 v 0.84229 q 0.354004,-0.49438 0.799561,-0.73853 0.445556,-0.25024 1.080322,-0.25024 0.830078,0 1.464844,0.42725 0.634765,0.42724 0.958252,1.20849 0.323486,0.77515 0.323486,1.70288 0,0.99488 -0.360107,1.79444 -0.354004,0.79345 -1.037598,1.2207 -0.67749,0.42114 -1.428223,0.42114 -0.549316,0 -0.988769,-0.23193 -0.43335,-0.23193 -0.714111,-0.58594 v 3.15552 z m 0.994873,-5.68848 q 0,1.25122 0.506592,1.84937 0.506591,0.59814 1.226806,0.59814 0.732422,0 1.251221,-0.61645 0.524902,-0.62256 0.524902,-1.92261 0,-1.23901 -0.512695,-1.85547 -0.506592,-0.61645 -1.2146,-0.61645 -0.701904,0 -1.245117,0.65918 -0.537109,0.65307 -0.537109,1.90429 z m 5.944824,3.20435 v -6.48194 h 0.98877 v 0.98267 q 0.378418,-0.6897 0.6958,-0.90942 0.323487,-0.21973 0.708008,-0.21973 0.55542,0 1.129146,0.354 l -0.37841,1.01929 q -0.402835,-0.23804 -0.805668,-0.23804 -0.360107,0 -0.646972,0.21973 -0.286865,0.21362 -0.408936,0.59815 -0.183105,0.58593 -0.183105,1.28173 v 3.39356 z m 3.765874,-3.24097 q 0,-1.80054 1.00097,-2.66723 0.83618,-0.72022 2.03858,-0.72022 1.33667,0 2.18505,0.87891 0.84839,0.8728 0.84839,2.41699 0,1.25122 -0.37841,1.97143 -0.37232,0.71412 -1.09253,1.11084 -0.71412,0.39673 -1.5625,0.39673 -1.36109,0 -2.20337,-0.8728 -0.83618,-0.8728 -0.83618,-2.51465 z m 1.12915,0 q 0,1.24512 0.54321,1.86768 0.54321,0.61645 1.36719,0.61645 0.81787,0 1.36108,-0.62256 0.54321,-0.62255 0.54321,-1.89819 0,-1.20239 -0.54931,-1.81885 -0.54322,-0.62256 -1.35498,-0.62256 -0.82398,0 -1.36719,0.61646 -0.54321,0.61645 -0.54321,1.86157 z m 7.24487,3.24097 h -1.01929 V 750.298 h 1.09863 v 3.19214 q 0.69581,-0.8728 1.77613,-0.8728 0.59814,0 1.12915,0.24414 0.53711,0.23804 0.8789,0.67749 0.3479,0.43335 0.54322,1.04981 0.19531,0.61645 0.19531,1.31836 0,1.66626 -0.82398,2.57568 -0.82397,0.90942 -1.97753,0.90942 -1.14747,0 -1.80054,-0.95825 z m -0.0122,-3.2898 q 0,1.16577 0.31738,1.68457 0.5188,0.84839 1.40381,0.84839 0.72022,0 1.24512,-0.62256 0.5249,-0.62866 0.5249,-1.86767 0,-1.26953 -0.50659,-1.87378 -0.50049,-0.60425 -1.2146,-0.60425 -0.72021,0 -1.24512,0.62866 -0.5249,0.62256 -0.5249,1.80664 z m 5.92652,3.2898 V 750.298 h 1.09863 v 8.94776 z m 7.23876,-2.0874 1.13526,0.14038 q -0.26856,0.99487 -0.99487,1.54419 -0.72632,0.54931 -1.85547,0.54931 -1.42212,0 -2.2583,-0.8728 -0.83008,-0.87891 -0.83008,-2.45972 0,-1.63574 0.84228,-2.53906 0.84229,-0.90332 2.18506,-0.90332 1.30005,0 2.12403,0.88501 0.82397,0.88501 0.82397,2.49023 0,0.0977 -0.006,0.29297 h -4.83399 q 0.061,1.06812 0.60425,1.63575 0.54321,0.56762 1.35498,0.56762 0.60425,0 1.03149,-0.31738 0.42725,-0.31738 0.67749,-1.01318 z m -3.60717,-1.77613 h 3.61938 q -0.0732,-0.81787 -0.41504,-1.2268 -0.5249,-0.63477 -1.36108,-0.63477 -0.75684,0 -1.27564,0.50659 -0.51269,0.50659 -0.56762,1.35498 z m 6.12182,3.86353 v -6.48194 h 0.98267 v 0.90943 q 0.30518,-0.47608 0.81177,-0.76294 0.50659,-0.29297 1.15356,-0.29297 0.72022,0 1.17798,0.29907 0.46387,0.29907 0.65308,0.83618 0.76904,-1.13525 2.00195,-1.13525 0.96435,0 1.48315,0.53711 0.5188,0.53101 0.5188,1.64185 v 4.44946 h -1.09253 v -4.08325 q 0,-0.65918 -0.10986,-0.94605 -0.10376,-0.29297 -0.38452,-0.46997 -0.28076,-0.177 -0.65918,-0.177 -0.6836,0 -1.13526,0.45776 -0.45166,0.45166 -0.45166,1.45264 v 3.76587 h -1.09863 v -4.21143 q 0,-0.73242 -0.26855,-1.09863 -0.26856,-0.36621 -0.87891,-0.36621 -0.46387,0 -0.8606,0.24414 -0.39062,0.24414 -0.56762,0.71411 -0.177,0.46997 -0.177,1.35498 v 3.36304 z"
           id="path2" />
      </g>
      <g
         id="flowRoot7133"
         style="line-height:0.01%;font-family:'Liberation Sans';-inkscape-font-specification:'Liberation Sans, Normal';text-align:center;text-anchor:middle"
         transform="translate(199.99963,-189.77231)"
         aria-label="Write&#10; solution">
        <path
           style="font-size:12.5px;line-height:1.25"
           d="M 98.058472,743.62076 95.684204,734.673 h 1.2146 l 1.361084,5.86548 q 0.219726,0.92163 0.378418,1.83106 0.341797,-1.43433 0.402832,-1.65406 l 1.702882,-6.04248 h 1.42822 l 1.28174,4.52881 q 0.48218,1.68457 0.6958,3.16773 0.1709,-0.84839 0.44556,-1.94702 l 1.40381,-5.74952 h 1.19018 l -2.45361,8.94776 h -1.14136 l -1.88599,-6.81763 q -0.23803,-0.85449 -0.28076,-1.0498 -0.14038,0.61645 -0.26245,1.0498 l -1.898192,6.81763 z m 9.857178,0 v -6.48194 h 0.98877 v 0.98267 q 0.37842,-0.6897 0.6958,-0.90942 0.32349,-0.21973 0.70801,-0.21973 0.55542,0 1.12915,0.354 l -0.37842,1.01929 q -0.40283,-0.23804 -0.80566,-0.23804 -0.36011,0 -0.64698,0.21973 -0.28686,0.21362 -0.40893,0.59815 -0.18311,0.58593 -0.18311,1.28173 v 3.39356 z m 4.18091,-7.68433 V 734.673 h 1.09863 v 1.26343 z m 0,7.68433 v -6.48194 h 1.09863 v 6.48194 z m 5.16968,-0.98267 0.15869,0.97046 q -0.46387,0.0977 -0.83008,0.0977 -0.59815,0 -0.92774,-0.18921 -0.32959,-0.18921 -0.46386,-0.49439 -0.13428,-0.31128 -0.13428,-1.30004 v -3.72925 h -0.80566 v -0.8545 h 0.80566 v -1.60522 l 1.09253,-0.65918 v 2.2644 h 1.10474 v 0.8545 h -1.10474 v 3.79028 q 0,0.46997 0.0549,0.60425 0.061,0.13428 0.18921,0.21362 0.13428,0.0794 0.37842,0.0794 0.1831,0 0.48218,-0.0427 z m 5.51147,-1.10473 1.13525,0.14038 q -0.26855,0.99487 -0.99487,1.54419 -0.72632,0.54931 -1.85547,0.54931 -1.42212,0 -2.2583,-0.8728 -0.83008,-0.87891 -0.83008,-2.45972 0,-1.63574 0.84229,-2.53906 0.84228,-0.90332 2.18506,-0.90332 1.30005,0 2.12402,0.88501 0.82397,0.88501 0.82397,2.49023 0,0.0977 -0.006,0.29297 h -4.83398 q 0.061,1.06812 0.60425,1.63575 0.54321,0.56762 1.35498,0.56762 0.60424,0 1.03149,-0.31738 0.42725,-0.31738 0.67749,-1.01318 z m -3.60718,-1.77613 h 3.61939 q -0.0733,-0.81787 -0.41504,-1.2268 -0.5249,-0.63477 -1.36109,-0.63477 -0.75683,0 -1.27563,0.50659 -0.5127,0.50659 -0.56763,1.35498 z"
           id="path3" />
        <path
           style="font-size:12.5px;line-height:1.25"
           d="m 90.578613,757.31094 1.086426,-0.17089 q 0.09155,0.65307 0.506592,1.00097 0.421142,0.3479 1.171875,0.3479 0.756836,0 1.123047,-0.30517 0.366211,-0.31128 0.366211,-0.72632 0,-0.37232 -0.323487,-0.58594 -0.22583,-0.14648 -1.123047,-0.37231 -1.208496,-0.30518 -1.678466,-0.52491 -0.463868,-0.22583 -0.708008,-0.61645 -0.238037,-0.39673 -0.238037,-0.8728 0,-0.43335 0.195312,-0.79956 0.201416,-0.37232 0.543213,-0.61646 0.256348,-0.18921 0.695801,-0.31738 0.445557,-0.13428 0.952148,-0.13428 0.76294,0 1.33667,0.21973 0.579834,0.21972 0.854492,0.59814 0.274659,0.37232 0.378418,1.00098 l -1.074218,0.14648 q -0.07324,-0.50049 -0.427246,-0.78125 -0.347901,-0.28076 -0.98877,-0.28076 -0.756836,0 -1.080322,0.25024 -0.323487,0.25025 -0.323487,0.58594 0,0.21363 0.134278,0.38452 0.134277,0.17701 0.421142,0.29297 0.164795,0.061 0.970459,0.28076 1.165772,0.31128 1.623536,0.5127 0.463867,0.19531 0.726318,0.57373 0.262451,0.37842 0.262451,0.93994 0,0.54932 -0.323486,1.0376 -0.317383,0.48218 -0.921631,0.75073 -0.604248,0.26245 -1.367188,0.26245 -1.263427,0 -1.928711,-0.5249 -0.659179,-0.5249 -0.842285,-1.5564 z m 6.280518,-1.30615 q 0,-1.80054 1.000976,-2.66723 0.836182,-0.72022 2.038575,-0.72022 1.336668,0 2.185058,0.87891 0.84839,0.8728 0.84839,2.41699 0,1.25122 -0.37842,1.97143 -0.37231,0.71412 -1.09253,1.11084 -0.71411,0.39673 -1.562498,0.39673 -1.361084,0 -2.20337,-0.8728 -0.836181,-0.8728 -0.836181,-2.51465 z m 1.12915,0 q 0,1.24512 0.543213,1.86768 0.543213,0.61645 1.367188,0.61645 0.817868,0 1.361088,-0.62256 0.54321,-0.62255 0.54321,-1.89819 0,-1.20239 -0.54932,-1.81885 -0.54321,-0.62256 -1.354978,-0.62256 -0.823975,0 -1.367188,0.61646 -0.543213,0.61645 -0.543213,1.86157 z m 6.207279,3.24097 V 750.298 h 1.09863 v 8.94776 z m 7.04956,0 v -0.95215 q -0.75684,1.09863 -2.05689,1.09863 -0.57373,0 -1.07422,-0.21972 -0.49438,-0.21973 -0.73852,-0.54932 -0.23804,-0.33569 -0.3357,-0.81787 -0.0671,-0.32349 -0.0671,-1.02539 v -4.01612 h 1.09863 v 3.59498 q 0,0.86059 0.0671,1.15966 0.10376,0.43335 0.43945,0.6836 0.33569,0.24414 0.83008,0.24414 0.49438,0 0.92773,-0.25025 0.43335,-0.25634 0.61035,-0.68969 0.18311,-0.43946 0.18311,-1.26953 v -3.47291 h 1.09863 v 6.48194 z m 5.10254,-0.98267 0.15869,0.97046 q -0.46387,0.0977 -0.83008,0.0977 -0.59814,0 -0.92773,-0.18921 -0.32959,-0.18921 -0.46387,-0.49439 -0.13428,-0.31128 -0.13428,-1.30004 v -3.72925 h -0.80566 v -0.8545 h 0.80566 v -1.60522 l 1.09253,-0.65918 v 2.2644 h 1.10474 v 0.8545 h -1.10474 v 3.79028 q 0,0.46997 0.0549,0.60425 0.061,0.13428 0.18921,0.21362 0.13428,0.0794 0.37842,0.0794 0.1831,0 0.48218,-0.0427 z m 1.08032,-6.70166 V 750.298 h 1.09863 v 1.26343 z m 0,7.68433 v -6.48194 h 1.09863 v 6.48194 z m 2.36206,-3.24097 q 0,-1.80054 1.00098,-2.66723 0.83618,-0.72022 2.03857,-0.72022 1.33667,0 2.18506,0.87891 0.84839,0.8728 0.84839,2.41699 0,1.25122 -0.37842,1.97143 -0.37232,0.71412 -1.09253,1.11084 -0.71411,0.39673 -1.5625,0.39673 -1.36108,0 -2.20337,-0.8728 -0.83618,-0.8728 -0.83618,-2.51465 z m 1.12915,0 q 0,1.24512 0.54321,1.86768 0.54322,0.61645 1.36719,0.61645 0.81787,0 1.36108,-0.62256 0.54322,-0.62255 0.54322,-1.89819 0,-1.20239 -0.54932,-1.81885 -0.54321,-0.62256 -1.35498,-0.62256 -0.82397,0 -1.36719,0.61646 -0.54321,0.61645 -0.54321,1.86157 z m 6.23169,3.24097 v -6.48194 h 0.98877 v 0.92164 q 0.71411,-1.06812 2.06299,-1.06812 0.58593,0 1.07422,0.21362 0.49438,0.20752 0.73852,0.54932 0.24414,0.3418 0.3418,0.81177 0.061,0.30517 0.061,1.06811 v 3.9856 h -1.09863 v -3.94287 q 0,-0.67139 -0.12817,-1.00098 -0.12818,-0.33569 -0.45777,-0.53101 -0.32348,-0.20141 -0.76294,-0.20141 -0.7019,0 -1.2146,0.44556 -0.50659,0.44555 -0.50659,1.69067 v 3.54004 z"
           id="path4" />
      </g>
      <g
         id="flowRoot7178"
         style="font-weight:bold;line-height:0.01%;font-family:'Liberation Sans';-inkscape-font-specification:'Arial Bold'"
         transform="translate(162.79291,689.48602)"
         aria-label="During solving, there is no I/O&#10;with the disk nor the network.&#10;">
        <path
           style="font-weight:normal;font-size:17.5px;line-height:1.25"
           d="m 278.55713,-207.84617 v -12.52686 h 4.31518 q 1.46119,0 2.23023,0.17945 1.07666,0.2478 1.83716,0.89721 0.99121,0.8374 1.47827,2.14478 0.4956,1.29883 0.4956,2.97363 0,1.427 -0.33325,2.5293 -0.33325,1.10229 -0.85449,1.82861 -0.52124,0.71777 -1.14502,1.13648 -0.61523,0.41015 -1.49536,0.62377 -0.87158,0.21363 -2.00806,0.21363 z m 1.65771,-1.47827 h 2.67456 q 1.23902,0 1.9397,-0.23072 0.70923,-0.23071 1.12793,-0.64941 0.5896,-0.5896 0.91431,-1.58081 0.33325,-0.99976 0.33325,-2.41821 0,-1.96534 -0.64941,-3.01636 -0.64087,-1.05957 -1.56372,-1.41846 -0.66651,-0.25635 -2.14478,-0.25635 h -2.63184 z m 16.73096,1.47827 v -1.33301 q -1.05957,1.53809 -2.87964,1.53809 -0.80322,0 -1.5039,-0.30762 -0.69214,-0.30762 -1.03394,-0.76904 -0.33325,-0.46998 -0.46997,-1.14502 -0.094,-0.45289 -0.094,-1.43555 v -5.62256 h 1.53808 v 5.03296 q 0,1.20483 0.094,1.62353 0.14526,0.60669 0.61523,0.95704 0.46997,0.34179 1.16211,0.34179 0.69214,0 1.29883,-0.35034 0.60669,-0.35889 0.85449,-0.96558 0.25635,-0.61523 0.25635,-1.77734 v -4.86206 h 1.53808 v 9.07471 z m 3.76831,0 v -9.07471 h 1.38428 v 1.37573 q 0.52978,-0.96557 0.97412,-1.27319 0.45288,-0.30762 0.99121,-0.30762 0.77759,0 1.58081,0.49561 l -0.52978,1.427 q -0.56397,-0.33325 -1.12793,-0.33325 -0.50415,0 -0.90577,0.30761 -0.40161,0.29908 -0.57251,0.83741 -0.25634,0.82031 -0.25634,1.79443 v 4.75098 z m 5.85327,-10.75806 v -1.7688 h 1.53809 v 1.7688 z m 0,10.75806 v -9.07471 h 1.53809 v 9.07471 z m 3.8794,0 v -9.07471 h 1.38427 v 1.29028 q 0.99976,-1.49536 2.88819,-1.49536 0.82031,0 1.5039,0.29907 0.69214,0.29053 1.03394,0.76905 0.3418,0.47851 0.47852,1.13647 0.0854,0.42725 0.0854,1.49536 v 5.57984 h -1.53808 v -5.52002 q 0,-0.93994 -0.17944,-1.40137 -0.17945,-0.46997 -0.64087,-0.74341 -0.45288,-0.28198 -1.06812,-0.28198 -0.98266,0 -1.70044,0.62378 -0.70923,0.62378 -0.70923,2.36694 v 4.95606 z m 9.45068,0.75195 1.49536,0.22217 q 0.094,0.69214 0.52124,1.0083 0.57251,0.42725 1.56372,0.42725 1.06812,0 1.64917,-0.42725 0.58106,-0.42725 0.78614,-1.19629 0.11962,-0.46997 0.11108,-1.97388 -1.0083,1.18775 -2.51221,1.18775 -1.87134,0 -2.89673,-1.3501 -1.02539,-1.3501 -1.02539,-3.23853 0,-1.29882 0.46997,-2.39257 0.46998,-1.1023 1.35865,-1.70044 0.89721,-0.59815 2.10205,-0.59815 1.60644,0 2.64892,1.29883 v -1.09375 h 1.41846 v 7.84424 q 0,2.11914 -0.43579,2.99927 -0.42725,0.88867 -1.36719,1.40136 -0.93139,0.5127 -2.29858,0.5127 -1.62354,0 -2.62329,-0.73486 -0.99976,-0.72632 -0.96558,-2.19605 z m 1.27319,-5.45166 q 0,1.78589 0.70923,2.6062 0.70923,0.82031 1.77735,0.82031 1.05957,0 1.77734,-0.81176 0.71777,-0.82032 0.71777,-2.56348 0,-1.66626 -0.7434,-2.51221 -0.73487,-0.84594 -1.77735,-0.84594 -1.02539,0 -1.74316,0.8374 -0.71778,0.82886 -0.71778,2.46948 z m 12.98829,1.99097 1.52099,-0.23926 q 0.12818,0.91431 0.70923,1.40137 0.5896,0.48706 1.64063,0.48706 1.05957,0 1.57226,-0.42725 0.5127,-0.43579 0.5127,-1.01684 0,-0.52124 -0.45288,-0.82032 -0.31617,-0.20508 -1.57227,-0.52124 -1.69189,-0.42724 -2.34985,-0.73486 -0.64942,-0.31616 -0.99121,-0.86304 -0.33326,-0.55542 -0.33326,-1.22192 0,-0.60669 0.27344,-1.11939 0.28198,-0.52124 0.7605,-0.86303 0.35889,-0.2649 0.97412,-0.44434 0.62378,-0.18799 1.33301,-0.18799 1.06811,0 1.87134,0.30762 0.81176,0.30762 1.19628,0.8374 0.38453,0.52124 0.52979,1.40137 l -1.50391,0.20508 q -0.10254,-0.70069 -0.59814,-1.09375 -0.48706,-0.39307 -1.38428,-0.39307 -1.05957,0 -1.51245,0.35034 -0.45288,0.35034 -0.45288,0.82031 0,0.29908 0.18799,0.53834 0.18799,0.2478 0.5896,0.41015 0.23071,0.0854 1.35864,0.39307 1.63208,0.43579 2.27295,0.71777 0.64941,0.27344 1.01684,0.80322 0.36744,0.52979 0.36744,1.31592 0,0.76904 -0.45288,1.45264 -0.44434,0.67505 -1.29029,1.05102 -0.84594,0.36744 -1.91406,0.36744 -1.7688,0 -2.7002,-0.73487 -0.92285,-0.73486 -1.17919,-2.17895 z m 8.79272,-1.82862 q 0,-2.52075 1.40137,-3.73413 1.17065,-1.0083 2.854,-1.0083 1.87134,0 3.05908,1.23047 1.18775,1.22192 1.18775,3.38379 0,1.75171 -0.52979,2.76001 -0.52124,0.99976 -1.52954,1.55518 -0.99975,0.55542 -2.1875,0.55542 -1.90552,0 -3.08472,-1.22193 -1.17065,-1.22192 -1.17065,-3.52051 z m 1.58081,0 q 0,1.74317 0.7605,2.61475 0.7605,0.86304 1.91406,0.86304 1.14502,0 1.90552,-0.87158 0.7605,-0.87159 0.7605,-2.65748 0,-1.68335 -0.76905,-2.54638 -0.76049,-0.87158 -1.89697,-0.87158 -1.15356,0 -1.91406,0.86303 -0.7605,0.86304 -0.7605,2.6062 z m 8.69019,4.53736 v -12.52686 h 1.53808 v 12.52686 z m 6.44287,0 -3.45215,-9.07471 h 1.62353 l 1.94825,5.43457 q 0.31616,0.88013 0.58105,1.82861 0.20508,-0.71777 0.57251,-1.72607 l 2.0166,-5.53711 h 1.58081 l -3.43506,9.07471 z m 6.23779,-10.75806 v -1.7688 h 1.53809 v 1.7688 z m 0,10.75806 v -9.07471 h 1.53809 v 9.07471 z m 3.87939,0 v -9.07471 h 1.38428 v 1.29028 q 0.99976,-1.49536 2.88819,-1.49536 0.82031,0 1.5039,0.29907 0.69214,0.29053 1.03394,0.76905 0.34179,0.47851 0.47851,1.13647 0.0854,0.42725 0.0854,1.49536 v 5.57984 h -1.53808 v -5.52002 q 0,-0.93994 -0.17945,-1.40137 -0.17944,-0.46997 -0.64087,-0.74341 -0.45288,-0.28198 -1.06811,-0.28198 -0.98267,0 -1.70044,0.62378 -0.70923,0.62378 -0.70923,2.36694 v 4.95606 z m 9.45069,0.75195 1.49536,0.22217 q 0.094,0.69214 0.52124,1.0083 0.57251,0.42725 1.56372,0.42725 1.06812,0 1.64917,-0.42725 0.58106,-0.42725 0.78613,-1.19629 0.11963,-0.46997 0.11109,-1.97388 -1.0083,1.18775 -2.51221,1.18775 -1.87134,0 -2.89673,-1.3501 -1.02539,-1.3501 -1.02539,-3.23853 0,-1.29882 0.46997,-2.39257 0.46997,-1.1023 1.35864,-1.70044 0.89722,-0.59815 2.10206,-0.59815 1.60644,0 2.64892,1.29883 v -1.09375 h 1.41846 v 7.84424 q 0,2.11914 -0.43579,2.99927 -0.42725,0.88867 -1.36719,1.40136 -0.9314,0.5127 -2.29858,0.5127 -1.62354,0 -2.6233,-0.73486 -0.99975,-0.72632 -0.96557,-2.19605 z m 1.27319,-5.45166 q 0,1.78589 0.70923,2.6062 0.70923,0.82031 1.77734,0.82031 1.05957,0 1.77735,-0.81176 0.71777,-0.82032 0.71777,-2.56348 0,-1.66626 -0.74341,-2.51221 -0.73486,-0.84594 -1.77734,-0.84594 -1.02539,0 -1.74316,0.8374 -0.71778,0.82886 -0.71778,2.46948 z m 9.14307,4.69971 v -1.75171 h 1.75171 v 1.75171 q 0,0.96557 -0.3418,1.55517 -0.3418,0.59815 -1.0852,0.92285 l -0.42725,-0.65795 q 0.48706,-0.21363 0.71777,-0.63233 0.23072,-0.41015 0.25635,-1.18774 z m 12.68066,-1.37574 0.22217,1.35865 q -0.64941,0.13672 -1.16211,0.13672 -0.8374,0 -1.29883,-0.2649 -0.46142,-0.26489 -0.64941,-0.69213 -0.18799,-0.4358 -0.18799,-1.82007 v -5.22095 h -1.12793 v -1.19629 h 1.12793 v -2.24731 l 1.52954,-0.92286 v 3.17017 h 1.54663 v 1.19629 h -1.54663 v 5.3064 q 0,0.65795 0.0769,0.84594 0.0854,0.18799 0.26489,0.29908 0.18799,0.11108 0.52978,0.11108 0.25635,0 0.67505,-0.0598 z m 1.50391,1.37574 v -12.52686 h 1.53808 v 4.49463 q 1.07666,-1.24756 2.71729,-1.24756 1.0083,0 1.75171,0.40161 0.74341,0.39307 1.05957,1.09375 0.32471,0.70069 0.32471,2.03369 v 5.75074 h -1.53809 v -5.75074 q 0,-1.15356 -0.50415,-1.6748 -0.49561,-0.52978 -1.40991,-0.52978 -0.6836,0 -1.29029,0.35888 -0.59814,0.35034 -0.85449,0.95703 -0.25635,0.60669 -0.25635,1.67481 v 4.9646 z m 15.94482,-2.92237 1.58936,0.19654 q -0.37598,1.39282 -1.39282,2.16186 -1.01685,0.76905 -2.59766,0.76905 -1.99097,0 -3.16162,-1.22193 -1.16211,-1.23047 -1.16211,-3.4436 0,-2.29004 1.1792,-3.55469 1.1792,-1.26465 3.05908,-1.26465 1.82007,0 2.97363,1.23902 1.15357,1.23901 1.15357,3.48632 0,0.13672 -0.009,0.41016 h -6.76758 q 0.0854,1.49536 0.84595,2.29004 0.7605,0.79468 1.89697,0.79468 0.84595,0 1.4441,-0.44434 0.59814,-0.44433 0.94848,-1.41846 z m -5.05005,-2.48657 h 5.06714 q -0.10254,-1.14502 -0.58105,-1.71753 -0.73487,-0.88867 -1.90552,-0.88867 -1.05957,0 -1.78589,0.70923 -0.71777,0.70923 -0.79468,1.89697 z m 8.55347,5.40894 v -9.07471 h 1.38428 v 1.37573 q 0.52978,-0.96557 0.97412,-1.27319 0.45288,-0.30762 0.99121,-0.30762 0.77759,0 1.58081,0.49561 l -0.52978,1.427 q -0.56397,-0.33325 -1.12793,-0.33325 -0.50415,0 -0.90577,0.30761 -0.40161,0.29908 -0.57251,0.83741 -0.25634,0.82031 -0.25634,1.79443 v 4.75098 z m 12.05689,-2.92237 1.58935,0.19654 q -0.37598,1.39282 -1.39282,2.16186 -1.01685,0.76905 -2.59766,0.76905 -1.99096,0 -3.16162,-1.22193 -1.16211,-1.23047 -1.16211,-3.4436 0,-2.29004 1.1792,-3.55469 1.1792,-1.26465 3.05908,-1.26465 1.82007,0 2.97364,1.23902 1.15356,1.23901 1.15356,3.48632 0,0.13672 -0.009,0.41016 h -6.76758 q 0.0854,1.49536 0.84594,2.29004 0.7605,0.79468 1.89698,0.79468 0.84594,0 1.44409,-0.44434 0.59814,-0.44433 0.94849,-1.41846 z m -5.05005,-2.48657 h 5.06714 q -0.10254,-1.14502 -0.58106,-1.71753 -0.73486,-0.88867 -1.90552,-0.88867 -1.05957,0 -1.78589,0.70923 -0.71777,0.70923 -0.79467,1.89697 z m 13.44116,-5.34912 v -1.7688 h 1.53808 v 1.7688 z m 0,10.75806 v -9.07471 h 1.53808 v 9.07471 z m 3.26416,-2.70874 1.52099,-0.23926 q 0.12818,0.91431 0.70923,1.40137 0.5896,0.48706 1.64063,0.48706 1.05957,0 1.57226,-0.42725 0.5127,-0.43579 0.5127,-1.01684 0,-0.52124 -0.45288,-0.82032 -0.31616,-0.20508 -1.57227,-0.52124 -1.69189,-0.42724 -2.34985,-0.73486 -0.64941,-0.31616 -0.99121,-0.86304 -0.33325,-0.55542 -0.33325,-1.22192 0,-0.60669 0.27343,-1.11939 0.28199,-0.52124 0.7605,-0.86303 0.35889,-0.2649 0.97412,-0.44434 0.62378,-0.18799 1.33301,-0.18799 1.06812,0 1.87134,0.30762 0.81177,0.30762 1.19629,0.8374 0.38452,0.52124 0.52978,1.40137 l -1.5039,0.20508 q -0.10254,-0.70069 -0.59815,-1.09375 -0.48706,-0.39307 -1.38428,-0.39307 -1.05957,0 -1.51245,0.35034 -0.45288,0.35034 -0.45288,0.82031 0,0.29908 0.18799,0.53834 0.18799,0.2478 0.5896,0.41015 0.23071,0.0854 1.35864,0.39307 1.63208,0.43579 2.27295,0.71777 0.64942,0.27344 1.01685,0.80322 0.36743,0.52979 0.36743,1.31592 0,0.76904 -0.45288,1.45264 -0.44434,0.67505 -1.29028,1.05102 -0.84595,0.36744 -1.91407,0.36744 -1.7688,0 -2.70019,-0.73487 -0.92285,-0.73486 -1.1792,-2.17895 z m 14.22729,2.70874 v -9.07471 h 1.38428 v 1.29028 q 0.99976,-1.49536 2.88818,-1.49536 0.82032,0 1.50391,0.29907 0.69214,0.29053 1.03394,0.76905 0.34179,0.47851 0.47851,1.13647 0.0854,0.42725 0.0854,1.49536 v 5.57984 h -1.53808 v -5.52002 q 0,-0.93994 -0.17945,-1.40137 -0.17944,-0.46997 -0.64087,-0.74341 -0.45288,-0.28198 -1.06811,-0.28198 -0.98267,0 -1.70044,0.62378 -0.70923,0.62378 -0.70923,2.36694 v 4.95606 z m 9.16016,-4.53736 q 0,-2.52075 1.40137,-3.73413 1.17065,-1.0083 2.854,-1.0083 1.87134,0 3.05908,1.23047 1.18775,1.22192 1.18775,3.38379 0,1.75171 -0.52979,2.76001 -0.52124,0.99976 -1.52954,1.55518 -0.99975,0.55542 -2.1875,0.55542 -1.90552,0 -3.08472,-1.22193 -1.17065,-1.22192 -1.17065,-3.52051 z m 1.58081,0 q 0,1.74317 0.7605,2.61475 0.7605,0.86304 1.91406,0.86304 1.14502,0 1.90552,-0.87158 0.7605,-0.87159 0.7605,-2.65748 0,-1.68335 -0.76905,-2.54638 -0.76049,-0.87158 -1.89697,-0.87158 -1.15356,0 -1.91406,0.86303 -0.7605,0.86304 -0.7605,2.6062 z m 14.06494,4.53736 v -12.52686 h 1.65772 v 12.52686 z m 3.22998,0.21362 3.63159,-12.9541 h 1.23047 l -3.62304,12.9541 z m 5.70801,-6.3147 q 0,-3.11889 1.6748,-4.87915 1.67481,-1.7688 4.32374,-1.7688 1.73461,0 3.12744,0.82886 1.39282,0.82886 2.11914,2.31568 0.73486,1.47827 0.73486,3.35815 0,1.90552 -0.76904,3.40942 -0.76905,1.50391 -2.17896,2.2815 -1.40991,0.76904 -3.04199,0.76904 -1.7688,0 -3.16162,-0.85449 -1.39282,-0.85449 -2.1106,-2.33277 -0.71777,-1.47827 -0.71777,-3.12744 z m 1.70898,0.0256 q 0,2.2644 1.21338,3.57178 1.22193,1.29882 3.05909,1.29882 1.87133,0 3.07617,-1.31591 1.21338,-1.31592 1.21338,-3.73414 0,-1.52954 -0.52124,-2.66601 -0.5127,-1.14502 -1.51246,-1.7688 -0.99121,-0.63232 -2.23022,-0.63232 -1.76025,0 -3.03345,1.21337 -1.26465,1.20484 -1.26465,4.03321 z"
           id="path5" />
        <path
           style="font-weight:normal;font-size:17.5px;line-height:1.25"
           d="m 280.0354,-185.97117 -2.7771,-9.07471 h 1.58936 l 1.44409,5.23804 0.53833,1.94824 q 0.0342,-0.14526 0.46997,-1.87134 l 1.44409,-5.31494 h 1.58081 l 1.35864,5.26367 0.45288,1.73462 0.52124,-1.75171 1.55518,-5.24658 h 1.49536 l -2.83691,9.07471 h -1.5979 l -1.44409,-5.43457 -0.35035,-1.54663 -1.83715,6.9812 z m 10.97168,-10.75806 v -1.7688 h 1.53809 v 1.7688 z m 0,10.75806 v -9.07471 h 1.53809 v 9.07471 z m 7.23755,-1.37574 0.22217,1.35865 q -0.64942,0.13672 -1.16211,0.13672 -0.8374,0 -1.29883,-0.2649 -0.46143,-0.26489 -0.64941,-0.69213 -0.18799,-0.4358 -0.18799,-1.82007 v -5.22095 h -1.12793 v -1.19629 h 1.12793 v -2.24731 l 1.52954,-0.92286 v 3.17017 h 1.54663 v 1.19629 H 296.698 v 5.3064 q 0,0.65795 0.0769,0.84594 0.0854,0.18799 0.26489,0.29908 0.18799,0.11108 0.52979,0.11108 0.25635,0 0.67505,-0.0598 z m 1.50391,1.37574 v -12.52686 h 1.53808 v 4.49463 q 1.07666,-1.24756 2.71729,-1.24756 1.0083,0 1.75171,0.40161 0.7434,0.39307 1.05957,1.09375 0.3247,0.70069 0.3247,2.03369 v 5.75074 h -1.53808 v -5.75074 q 0,-1.15356 -0.50415,-1.6748 -0.49561,-0.52978 -1.40992,-0.52978 -0.68359,0 -1.29028,0.35888 -0.59814,0.35034 -0.85449,0.95703 -0.25635,0.60669 -0.25635,1.67481 v 4.9646 z m 17.95288,-1.37574 0.22216,1.35865 q -0.64941,0.13672 -1.16211,0.13672 -0.8374,0 -1.29882,-0.2649 -0.46143,-0.26489 -0.64942,-0.69213 -0.18799,-0.4358 -0.18799,-1.82007 v -5.22095 h -1.12793 v -1.19629 h 1.12793 v -2.24731 l 1.52955,-0.92286 v 3.17017 h 1.54663 v 1.19629 h -1.54663 v 5.3064 q 0,0.65795 0.0769,0.84594 0.0854,0.18799 0.26489,0.29908 0.18799,0.11108 0.52979,0.11108 0.25634,0 0.67505,-0.0598 z m 1.5039,1.37574 v -12.52686 h 1.53809 v 4.49463 q 1.07666,-1.24756 2.71728,-1.24756 1.0083,0 1.75171,0.40161 0.74341,0.39307 1.05957,1.09375 0.32471,0.70069 0.32471,2.03369 v 5.75074 h -1.53809 v -5.75074 q 0,-1.15356 -0.50415,-1.6748 -0.4956,-0.52978 -1.40991,-0.52978 -0.68359,0 -1.29028,0.35888 -0.59815,0.35034 -0.85449,0.95703 -0.25635,0.60669 -0.25635,1.67481 v 4.9646 z m 15.94483,-2.92237 1.58935,0.19654 q -0.37597,1.39282 -1.39282,2.16186 -1.01685,0.76905 -2.59766,0.76905 -1.99096,0 -3.16162,-1.22193 -1.16211,-1.23047 -1.16211,-3.4436 0,-2.29004 1.1792,-3.55469 1.1792,-1.26465 3.05908,-1.26465 1.82007,0 2.97364,1.23902 1.15356,1.23901 1.15356,3.48632 0,0.13672 -0.009,0.41016 h -6.76758 q 0.0854,1.49536 0.84595,2.29004 0.76049,0.79468 1.89697,0.79468 0.84595,0 1.44409,-0.44434 0.59814,-0.44433 0.94849,-1.41846 z m -5.05005,-2.48657 h 5.06714 q -0.10254,-1.14502 -0.58106,-1.71753 -0.73486,-0.88867 -1.90552,-0.88867 -1.05957,0 -1.78588,0.70923 -0.71778,0.70923 -0.79468,1.89697 z m 19.32007,5.40894 v -1.14502 q -0.86304,1.3501 -2.53785,1.3501 -1.0852,0 -1.99951,-0.59815 -0.90576,-0.59814 -1.40991,-1.66626 -0.49561,-1.07666 -0.49561,-2.46948 0,-1.35864 0.45289,-2.46094 0.45288,-1.11084 1.35864,-1.70044 0.90576,-0.5896 2.02514,-0.5896 0.82032,0 1.46119,0.35034 0.64087,0.3418 1.04248,0.89722 v -4.49463 h 1.52954 v 12.52686 z m -4.86206,-4.52881 q 0,1.74316 0.73486,2.6062 0.73486,0.86304 1.73462,0.86304 1.0083,0 1.70898,-0.82032 0.70923,-0.82885 0.70923,-2.52075 0,-1.86279 -0.71777,-2.73437 -0.71778,-0.87158 -1.7688,-0.87158 -1.02539,0 -1.71753,0.8374 -0.68359,0.8374 -0.68359,2.64038 z m 8.71582,-6.22925 v -1.7688 h 1.53808 v 1.7688 z m 0,10.75806 v -9.07471 h 1.53808 v 9.07471 z m 3.26416,-2.70874 1.52099,-0.23926 q 0.12818,0.91431 0.70923,1.40137 0.5896,0.48706 1.64063,0.48706 1.05957,0 1.57226,-0.42725 0.5127,-0.43579 0.5127,-1.01684 0,-0.52124 -0.45288,-0.82032 -0.31617,-0.20508 -1.57227,-0.52124 -1.69189,-0.42724 -2.34985,-0.73486 -0.64942,-0.31616 -0.99121,-0.86304 -0.33326,-0.55542 -0.33326,-1.22192 0,-0.60669 0.27344,-1.11939 0.28198,-0.52124 0.7605,-0.86303 0.35889,-0.2649 0.97412,-0.44434 0.62378,-0.18799 1.33301,-0.18799 1.06811,0 1.87134,0.30762 0.81176,0.30762 1.19628,0.8374 0.38453,0.52124 0.52979,1.40137 l -1.50391,0.20508 q -0.10254,-0.70069 -0.59814,-1.09375 -0.48706,-0.39307 -1.38428,-0.39307 -1.05957,0 -1.51245,0.35034 -0.45288,0.35034 -0.45288,0.82031 0,0.29908 0.18799,0.53834 0.18799,0.2478 0.5896,0.41015 0.23071,0.0854 1.35864,0.39307 1.63208,0.43579 2.27295,0.71777 0.64941,0.27344 1.01685,0.80322 0.36743,0.52979 0.36743,1.31592 0,0.76904 -0.45288,1.45264 -0.44434,0.67505 -1.29029,1.05102 -0.84594,0.36744 -1.91406,0.36744 -1.7688,0 -2.70019,-0.73487 -0.92286,-0.73486 -1.1792,-2.17895 z m 9.37378,2.70874 v -12.52686 h 1.53808 v 7.14356 l 3.64014,-3.69141 h 1.99096 l -3.46923,3.3667 3.81958,5.70801 h -1.89698 l -2.99926,-4.6399 -1.08521,1.04249 v 3.59741 z m 13.60351,0 v -9.07471 h 1.38428 v 1.29028 q 0.99975,-1.49536 2.88818,-1.49536 0.82031,0 1.50391,0.29907 0.69214,0.29053 1.03393,0.76905 0.3418,0.47851 0.47852,1.13647 0.0855,0.42725 0.0855,1.49536 v 5.57984 h -1.53809 v -5.52002 q 0,-0.93994 -0.17944,-1.40137 -0.17944,-0.46997 -0.64087,-0.74341 -0.45288,-0.28198 -1.06812,-0.28198 -0.98266,0 -1.70043,0.62378 -0.70923,0.62378 -0.70923,2.36694 v 4.95606 z m 9.16016,-4.53736 q 0,-2.52075 1.40136,-3.73413 1.17066,-1.0083 2.85401,-1.0083 1.87134,0 3.05908,1.23047 1.18774,1.22192 1.18774,3.38379 0,1.75171 -0.52978,2.76001 -0.52124,0.99976 -1.52954,1.55518 -0.99976,0.55542 -2.1875,0.55542 -1.90552,0 -3.08472,-1.22193 -1.17065,-1.22192 -1.17065,-3.52051 z m 1.58081,0 q 0,1.74317 0.7605,2.61475 0.76049,0.86304 1.91406,0.86304 1.14502,0 1.90552,-0.87158 0.76049,-0.87159 0.76049,-2.65748 0,-1.68335 -0.76904,-2.54638 -0.7605,-0.87158 -1.89697,-0.87158 -1.15357,0 -1.91406,0.86303 -0.7605,0.86304 -0.7605,2.6062 z m 8.70727,4.53736 v -9.07471 h 1.38428 v 1.37573 q 0.52979,-0.96557 0.97412,-1.27319 0.45288,-0.30762 0.99121,-0.30762 0.77759,0 1.58081,0.49561 l -0.52978,1.427 q -0.56397,-0.33325 -1.12793,-0.33325 -0.50415,0 -0.90576,0.30761 -0.40161,0.29908 -0.57251,0.83741 -0.25635,0.82031 -0.25635,1.79443 v 4.75098 z m 14.06494,-1.37574 0.22217,1.35865 q -0.64941,0.13672 -1.16211,0.13672 -0.8374,0 -1.29883,-0.2649 -0.46142,-0.26489 -0.64941,-0.69213 -0.18799,-0.4358 -0.18799,-1.82007 v -5.22095 h -1.12793 v -1.19629 h 1.12793 v -2.24731 l 1.52954,-0.92286 v 3.17017 h 1.54663 v 1.19629 h -1.54663 v 5.3064 q 0,0.65795 0.0769,0.84594 0.0855,0.18799 0.26489,0.29908 0.18799,0.11108 0.52979,0.11108 0.25634,0 0.67504,-0.0598 z m 1.50391,1.37574 v -12.52686 h 1.53809 v 4.49463 q 1.07666,-1.24756 2.71728,-1.24756 1.0083,0 1.75171,0.40161 0.74341,0.39307 1.05957,1.09375 0.32471,0.70069 0.32471,2.03369 v 5.75074 h -1.53809 v -5.75074 q 0,-1.15356 -0.50415,-1.6748 -0.4956,-0.52978 -1.40991,-0.52978 -0.68359,0 -1.29028,0.35888 -0.59815,0.35034 -0.8545,0.95703 -0.25634,0.60669 -0.25634,1.67481 v 4.9646 z m 15.94482,-2.92237 1.58936,0.19654 q -0.37598,1.39282 -1.39282,2.16186 -1.01685,0.76905 -2.59766,0.76905 -1.99096,0 -3.16162,-1.22193 -1.16211,-1.23047 -1.16211,-3.4436 0,-2.29004 1.1792,-3.55469 1.1792,-1.26465 3.05908,-1.26465 1.82007,0 2.97364,1.23902 1.15356,1.23901 1.15356,3.48632 0,0.13672 -0.009,0.41016 h -6.76757 q 0.0855,1.49536 0.84594,2.29004 0.7605,0.79468 1.89698,0.79468 0.84594,0 1.44409,-0.44434 0.59814,-0.44433 0.94848,-1.41846 z m -5.05004,-2.48657 h 5.06713 q -0.10253,-1.14502 -0.58105,-1.71753 -0.73486,-0.88867 -1.90552,-0.88867 -1.05957,0 -1.78589,0.70923 -0.71777,0.70923 -0.79467,1.89697 z m 13.43261,5.40894 v -9.07471 h 1.38428 v 1.29028 q 0.99976,-1.49536 2.88818,-1.49536 0.82032,0 1.50391,0.29907 0.69214,0.29053 1.03394,0.76905 0.34179,0.47851 0.47851,1.13647 0.0854,0.42725 0.0854,1.49536 v 5.57984 h -1.53809 v -5.52002 q 0,-0.93994 -0.17944,-1.40137 -0.17944,-0.46997 -0.64087,-0.74341 -0.45288,-0.28198 -1.06811,-0.28198 -0.98267,0 -1.70044,0.62378 -0.70923,0.62378 -0.70923,2.36694 v 4.95606 z m 15.94483,-2.92237 1.58935,0.19654 q -0.37597,1.39282 -1.39282,2.16186 -1.01685,0.76905 -2.59766,0.76905 -1.99096,0 -3.16162,-1.22193 -1.16211,-1.23047 -1.16211,-3.4436 0,-2.29004 1.1792,-3.55469 1.1792,-1.26465 3.05909,-1.26465 1.82006,0 2.97363,1.23902 1.15356,1.23901 1.15356,3.48632 0,0.13672 -0.009,0.41016 h -6.76758 q 0.0854,1.49536 0.84595,2.29004 0.76049,0.79468 1.89697,0.79468 0.84595,0 1.44409,-0.44434 0.59815,-0.44433 0.94849,-1.41846 z m -5.05005,-2.48657 h 5.06714 q -0.10254,-1.14502 -0.58106,-1.71753 -0.73486,-0.88867 -1.90551,-0.88867 -1.05958,0 -1.78589,0.70923 -0.71778,0.70923 -0.79468,1.89697 z m 11.92871,4.0332 0.22217,1.35865 q -0.64942,0.13672 -1.16211,0.13672 -0.8374,0 -1.29883,-0.2649 -0.46143,-0.26489 -0.64941,-0.69213 -0.18799,-0.4358 -0.18799,-1.82007 v -5.22095 h -1.12793 v -1.19629 h 1.12793 v -2.24731 l 1.52954,-0.92286 v 3.17017 h 1.54663 v 1.19629 h -1.54663 v 5.3064 q 0,0.65795 0.0769,0.84594 0.0854,0.18799 0.2649,0.29908 0.18798,0.11108 0.52978,0.11108 0.25635,0 0.67505,-0.0598 z m 3.17871,1.37574 -2.7771,-9.07471 h 1.58936 l 1.44409,5.23804 0.53833,1.94824 q 0.0342,-0.14526 0.46997,-1.87134 l 1.44409,-5.31494 h 1.58081 l 1.35864,5.26367 0.45288,1.73462 0.52124,-1.75171 1.55518,-5.24658 h 1.49536 l -2.83691,9.07471 h -1.5979 l -1.44409,-5.43457 -0.35035,-1.54663 -1.83715,6.9812 z m 10.39063,-4.53736 q 0,-2.52075 1.40136,-3.73413 1.17066,-1.0083 2.85401,-1.0083 1.87133,0 3.05908,1.23047 1.18774,1.22192 1.18774,3.38379 0,1.75171 -0.52978,2.76001 -0.52124,0.99976 -1.52954,1.55518 -0.99976,0.55542 -2.1875,0.55542 -1.90552,0 -3.08472,-1.22193 -1.17065,-1.22192 -1.17065,-3.52051 z m 1.58081,0 q 0,1.74317 0.76049,2.61475 0.7605,0.86304 1.91407,0.86304 1.14502,0 1.90551,-0.87158 0.7605,-0.87159 0.7605,-2.65748 0,-1.68335 -0.76904,-2.54638 -0.7605,-0.87158 -1.89697,-0.87158 -1.15357,0 -1.91407,0.86303 -0.76049,0.86304 -0.76049,2.6062 z m 8.70727,4.53736 v -9.07471 h 1.38428 v 1.37573 q 0.52978,-0.96557 0.97412,-1.27319 0.45288,-0.30762 0.99121,-0.30762 0.77759,0 1.58081,0.49561 l -0.52978,1.427 q -0.56397,-0.33325 -1.12793,-0.33325 -0.50415,0 -0.90577,0.30761 -0.40161,0.29908 -0.5725,0.83741 -0.25635,0.82031 -0.25635,1.79443 v 4.75098 z m 5.85327,0 v -12.52686 h 1.53809 v 7.14356 l 3.64014,-3.69141 h 1.99096 l -3.46924,3.3667 3.81958,5.70801 h -1.89697 l -2.99927,-4.6399 -1.0852,1.04249 v 3.59741 z m 9.17725,0 v -1.75171 h 1.75171 v 1.75171 z"
           id="path6" />
      </g>
    </g>
    <path
       style="font-size:35px;line-height:1.25;font-family:'Liberation Sans';-inkscape-font-specification:'Liberation Sans, Normal';text-align:center;text-anchor:middle"
       d="m 296.09009,233.47709 3.12744,-0.27344 q 0.22217,1.87988 1.02539,3.09326 0.82031,1.19629 2.5293,1.94824 1.70898,0.73487 3.84521,0.73487 1.89697,0 3.34961,-0.56397 1.45264,-0.56396 2.15332,-1.53808 0.71777,-0.99121 0.71777,-2.15332 0,-1.1792 -0.68359,-2.05078 -0.68359,-0.88868 -2.25586,-1.48682 -1.0083,-0.39307 -4.46045,-1.21338 -3.45215,-0.8374 -4.83642,-1.57227 -1.79444,-0.93994 -2.68311,-2.32421 -0.87158,-1.40137 -0.87158,-3.12745 0,-1.89697 1.07666,-3.53759 1.07666,-1.65772 3.14453,-2.51221 2.06787,-0.85449 4.59717,-0.85449 2.78564,0 4.90478,0.90576 2.13623,0.88867 3.28125,2.63184 1.14502,1.74316 1.23047,3.94775 l -3.17871,0.23926 q -0.25635,-2.37549 -1.74316,-3.58887 -1.46973,-1.21338 -4.35791,-1.21338 -3.00782,0 -4.39209,1.11084 -1.36719,1.09375 -1.36719,2.64893 0,1.35009 0.97412,2.22168 0.95703,0.87158 4.99024,1.79443 4.05029,0.90576 5.55419,1.58936 2.1875,1.0083 3.22999,2.56347 1.04248,1.53809 1.04248,3.55469 0,1.99951 -1.14502,3.77685 -1.14502,1.76026 -3.29834,2.75147 -2.13623,0.97412 -4.81934,0.97412 -3.40088,0 -5.70801,-0.99121 -2.29004,-0.99121 -3.60595,-2.97363 -1.29883,-1.99951 -1.36719,-4.51172 z m 24.09668,-13.4668 v -3.5376 h 3.07617 v 3.5376 z m 0,21.51611 v -18.14941 h 3.07617 v 18.14941 z m 6.13525,0 v -2.49511 l 11.55274,-13.26172 q -1.96534,0.10254 -3.46924,0.10254 h -7.3999 v -2.49512 h 14.83398 v 2.03369 l -9.82666,11.51856 -1.89697,2.10205 q 2.06787,-0.15381 3.87939,-0.15381 h 8.39111 v 2.64892 z m 19.14063,-21.51611 v -3.5376 h 3.07617 v 3.5376 z m 0,21.51611 v -18.14941 h 3.07617 v 18.14941 z m 7.75879,0 v -18.14941 h 2.76855 v 2.58057 q 1.99951,-2.99073 5.77637,-2.99073 1.64062,0 3.00781,0.59815 1.38428,0.58105 2.06787,1.53808 0.68359,0.95704 0.95703,2.27295 0.1709,0.8545 0.1709,2.99073 v 11.15966 h -3.07617 v -11.04003 q 0,-1.87989 -0.35889,-2.80274 -0.35888,-0.93994 -1.28174,-1.48682 -0.90576,-0.56396 -2.13623,-0.56396 -1.96533,0 -3.40088,1.24756 -1.41845,1.24756 -1.41845,4.73389 v 9.9121 z m 18.90136,1.50391 2.99073,0.44434 q 0.18798,1.38427 1.04248,2.0166 1.14502,0.85449 3.12744,0.85449 2.13623,0 3.29834,-0.85449 1.16211,-0.85449 1.57226,-2.39258 0.23926,-0.93994 0.22217,-3.94775 -2.0166,2.37548 -5.02441,2.37548 -3.74268,0 -5.79346,-2.70019 -2.05078,-2.7002 -2.05078,-6.47705 0,-2.59766 0.93994,-4.78516 0.93994,-2.20459 2.71728,-3.40088 1.79444,-1.19629 4.20411,-1.19629 3.21289,0 5.29785,2.59766 v -2.1875 h 2.83691 v 15.68848 q 0,4.23828 -0.87158,5.99853 -0.85449,1.77735 -2.73437,2.80274 -1.8628,1.02539 -4.59717,1.02539 -3.24707,0 -5.24658,-1.46973 -1.99952,-1.45264 -1.93116,-4.39209 z m 2.54639,-10.90332 q 0,3.57178 1.41846,5.2124 1.41845,1.64063 3.55468,1.64063 2.11914,0 3.55469,-1.62354 1.43555,-1.64062 1.43555,-5.12695 0,-3.33252 -1.48682,-5.02441 -1.46972,-1.6919 -3.55469,-1.6919 -2.05078,0 -3.48632,1.67481 -1.43555,1.65771 -1.43555,4.93896 z m 27.20703,9.39941 v -25.05371 h 3.07617 v 8.98926 q 2.15332,-2.49512 5.43457,-2.49512 2.0166,0 3.50342,0.80323 1.48682,0.78613 2.11914,2.1875 0.64942,1.40136 0.64942,4.06738 v 11.50146 h -3.07618 v -11.50146 q 0,-2.30713 -1.0083,-3.34961 -0.99121,-1.05957 -2.81982,-1.05957 -1.36719,0 -2.58057,0.71777 -1.19629,0.70069 -1.70898,1.91407 -0.5127,1.21338 -0.5127,3.34961 v 9.92919 z m 31.30859,-2.23876 q -1.70898,1.45263 -3.29834,2.05078 -1.57226,0.59814 -3.38378,0.59814 -2.99073,0 -4.59717,-1.45264 -1.60645,-1.46972 -1.60645,-3.74267 0,-1.33301 0.59815,-2.42676 0.61523,-1.11084 1.58935,-1.77734 0.99121,-0.66651 2.22168,-1.0083 0.90576,-0.23926 2.73438,-0.46143 3.72558,-0.44434 5.48584,-1.05957 0.0171,-0.63232 0.0171,-0.80322 0,-1.87989 -0.87159,-2.64893 -1.17919,-1.04248 -3.50341,-1.04248 -2.17041,0 -3.21289,0.76904 -1.02539,0.75196 -1.521,2.68311 l -3.00781,-0.41016 q 0.41015,-1.93115 1.3501,-3.11035 0.93994,-1.19629 2.71728,-1.82861 1.77734,-0.64942 4.11865,-0.64942 2.32422,0 3.77686,0.54688 1.45263,0.54687 2.13623,1.38428 0.68359,0.82031 0.95703,2.08496 0.15381,0.78613 0.15381,2.83691 v 4.10156 q 0,4.28956 0.18799,5.43457 0.20507,1.12793 0.78613,2.17041 h -3.21289 q -0.47852,-0.95703 -0.61524,-2.23876 z m -0.25634,-6.87012 q -1.67481,0.68359 -5.02442,1.16211 -1.89697,0.27343 -2.6831,0.61523 -0.78614,0.3418 -1.21338,1.0083 -0.42725,0.64942 -0.42725,1.45264 0,1.23047 0.92285,2.05078 0.93995,0.82031 2.73438,0.82031 1.77734,0 3.16162,-0.76904 1.38428,-0.78613 2.03369,-2.13623 0.49561,-1.04248 0.49561,-3.07617 z m 7.84424,9.10888 v -18.14941 h 2.76855 v 2.75147 q 1.05957,-1.93116 1.94824,-2.54639 0.90576,-0.61524 1.98242,-0.61524 1.55518,0 3.16162,0.99122 l -1.05957,2.854 q -1.12793,-0.6665 -2.25585,-0.6665 -1.00831,0 -1.81153,0.61523 -0.80322,0.59814 -1.14502,1.6748 -0.51269,1.64063 -0.51269,3.58887 v 9.50195 z m 23.46435,0 v -2.29003 q -1.72607,2.70019 -5.07568,2.70019 -2.17041,0 -3.99903,-1.19629 -1.81152,-1.19629 -2.81982,-3.33252 -0.99121,-2.15332 -0.99121,-4.93896 0,-2.71729 0.90576,-4.92188 0.90576,-2.22168 2.71729,-3.40088 1.81152,-1.1792 4.05029,-1.1792 1.64062,0 2.92236,0.70069 1.28174,0.68359 2.08496,1.79443 v -8.98926 h 3.05908 v 25.05371 z m -9.72412,-9.05761 q 0,3.48633 1.46973,5.2124 1.46972,1.72607 3.46923,1.72607 2.01661,0 3.41797,-1.64062 1.41846,-1.65772 1.41846,-5.0415 0,-3.72559 -1.43555,-5.46875 -1.43554,-1.74317 -3.53759,-1.74317 -2.05079,0 -3.43506,1.67481 -1.36719,1.6748 -1.36719,5.28076 z m 20.76416,9.05761 -5.5542,-18.14941 h 3.17871 l 2.88818,10.47607 1.07667,3.89649 q 0.0684,-0.29053 0.93994,-3.74268 l 2.88818,-10.62988 h 3.16162 l 2.71729,10.52734 0.90576,3.46924 1.04248,-3.50342 3.11035,-10.49316 h 2.99072 l -5.67383,18.14941 h -3.1958 l -2.88818,-10.86914 -0.70068,-3.09326 -3.67432,13.9624 z m 33.76953,-2.23876 q -1.70898,1.45263 -3.29834,2.05078 -1.57226,0.59814 -3.38379,0.59814 -2.99072,0 -4.59717,-1.45264 -1.60644,-1.46972 -1.60644,-3.74267 0,-1.33301 0.59814,-2.42676 0.61524,-1.11084 1.58936,-1.77734 0.99121,-0.66651 2.22168,-1.0083 0.90576,-0.23926 2.73437,-0.46143 3.72559,-0.44434 5.48584,-1.05957 0.0171,-0.63232 0.0171,-0.80322 0,-1.87989 -0.87158,-2.64893 -1.1792,-1.04248 -3.50342,-1.04248 -2.17041,0 -3.21289,0.76904 -1.02539,0.75196 -1.52099,2.68311 l -3.00782,-0.41016 q 0.41016,-1.93115 1.3501,-3.11035 0.93994,-1.19629 2.71729,-1.82861 1.77734,-0.64942 4.11865,-0.64942 2.32422,0 3.77685,0.54688 1.45264,0.54687 2.13623,1.38428 0.6836,0.82031 0.95704,2.08496 0.1538,0.78613 0.1538,2.83691 v 4.10156 q 0,4.28956 0.18799,5.43457 0.20508,1.12793 0.78614,2.17041 h -3.21289 q -0.47852,-0.95703 -0.61524,-2.23876 z m -0.25635,-6.87012 q -1.6748,0.68359 -5.02441,1.16211 -1.89697,0.27343 -2.68311,0.61523 -0.78613,0.3418 -1.21338,1.0083 -0.42724,0.64942 -0.42724,1.45264 0,1.23047 0.92285,2.05078 0.93994,0.82031 2.73438,0.82031 1.77734,0 3.16162,-0.76904 1.38427,-0.78613 2.03369,-2.13623 0.4956,-1.04248 0.4956,-3.07617 z m 7.84424,9.10888 v -18.14941 h 2.76856 v 2.75147 q 1.05957,-1.93116 1.94824,-2.54639 0.90576,-0.61524 1.98242,-0.61524 1.55518,0 3.16162,0.99122 l -1.05957,2.854 q -1.12793,-0.6665 -2.25586,-0.6665 -1.0083,0 -1.81152,0.61523 -0.80322,0.59814 -1.14502,1.6748 -0.5127,1.64063 -0.5127,3.58887 v 9.50195 z m 24.11377,-5.84472 3.17871,0.39306 q -0.75195,2.78565 -2.78564,4.32374 -2.03369,1.53808 -5.19532,1.53808 -3.98193,0 -6.32324,-2.44385 -2.32422,-2.46093 -2.32422,-6.8872 0,-4.58008 2.3584,-7.10938 2.3584,-2.5293 6.11817,-2.5293 3.64013,0 5.94726,2.47803 2.30713,2.47803 2.30713,6.97266 0,0.27344 -0.0171,0.82031 h -13.53516 q 0.1709,2.99072 1.6919,4.58008 1.521,1.58935 3.79394,1.58935 1.6919,0 2.88819,-0.88867 1.19629,-0.88867 1.89697,-2.83691 z m -10.1001,-4.97315 h 10.13428 q -0.20508,-2.29004 -1.16211,-3.43505 -1.46973,-1.77735 -3.81103,-1.77735 -2.11914,0 -3.57178,1.41846 -1.43555,1.41846 -1.58936,3.79394 z"
       id="flowRoot4302-3"
       transform="translate(-20.000005,-190.0002)"
       aria-label="Sizing hardware" />
    <path
       style="font-size:15px;line-height:1.25;font-family:'Liberation Sans';-inkscape-font-specification:'Liberation Sans, Normal';text-align:center;text-anchor:middle"
       d="m 161.45874,153.51132 v -10.73731 h 3.69873 q 1.25244,0 1.91162,0.15381 0.92285,0.2124 1.57471,0.76904 0.84961,0.71778 1.26709,1.83838 0.4248,1.11328 0.4248,2.54883 0,1.22314 -0.28564,2.16797 -0.28565,0.94482 -0.73242,1.56738 -0.44678,0.61524 -0.98145,0.97412 -0.52734,0.35157 -1.28174,0.53467 -0.74707,0.18311 -1.72119,0.18311 z m 1.4209,-1.26709 h 2.29248 q 1.06201,0 1.6626,-0.19776 0.60791,-0.19775 0.96679,-0.55664 0.50537,-0.50537 0.7837,-1.35498 0.28564,-0.85693 0.28564,-2.07275 0,-1.68457 -0.55664,-2.58545 -0.54932,-0.9082 -1.34033,-1.21582 -0.57129,-0.21973 -1.83838,-0.21973 h -2.25586 z m 14.34082,1.26709 v -1.14258 q -0.9082,1.31836 -2.46826,1.31836 -0.68848,0 -1.28907,-0.26367 -0.59326,-0.26368 -0.88623,-0.65918 -0.28564,-0.40284 -0.40283,-0.98145 -0.0806,-0.38818 -0.0806,-1.23047 V 145.733 h 1.31836 v 4.31396 q 0,1.03272 0.0806,1.3916 0.12451,0.52002 0.52735,0.82031 0.40283,0.29297 0.99609,0.29297 0.59326,0 1.11328,-0.30029 0.52002,-0.30762 0.73242,-0.82764 0.21973,-0.52734 0.21973,-1.52343 V 145.733 h 1.31836 v 7.77832 z m 3.22998,0 V 145.733 h 1.18652 v 1.1792 q 0.4541,-0.82764 0.83496,-1.09131 0.38819,-0.26368 0.84961,-0.26368 0.66651,0 1.35498,0.42481 l -0.4541,1.22314 q -0.4834,-0.28564 -0.96679,-0.28564 -0.43213,0 -0.77637,0.26367 -0.34424,0.25635 -0.49072,0.71777 -0.21973,0.70313 -0.21973,1.53809 v 4.07227 z m 5.01709,-9.2212 v -1.51611 h 1.31836 v 1.51611 z m 0,9.2212 V 145.733 h 1.31836 v 7.77832 z m 3.32519,0 V 145.733 h 1.18653 v 1.10595 q 0.85693,-1.28174 2.47558,-1.28174 0.70313,0 1.28907,0.25635 0.59326,0.24903 0.88623,0.65918 0.29297,0.41016 0.41015,0.97412 0.0733,0.36621 0.0733,1.28174 v 4.78272 h -1.31836 v -4.73145 q 0,-0.80566 -0.15381,-1.20117 -0.15381,-0.40283 -0.54932,-0.63721 -0.38818,-0.2417 -0.91553,-0.2417 -0.84228,0 -1.45752,0.53467 -0.60791,0.53467 -0.60791,2.02881 v 4.24805 z m 8.10059,0.64453 1.28174,0.19043 q 0.0806,0.59326 0.44678,0.86426 0.49072,0.36621 1.34033,0.36621 0.91553,0 1.41357,-0.36621 0.49805,-0.36622 0.67383,-1.0254 0.10254,-0.40283 0.0952,-1.69189 -0.86426,1.01807 -2.15332,1.01807 -1.60401,0 -2.48292,-1.15723 -0.8789,-1.15723 -0.8789,-2.77588 0,-1.11328 0.40283,-2.05078 0.40283,-0.94482 1.16455,-1.45752 0.76904,-0.5127 1.80176,-0.5127 1.37695,0 2.27051,1.11329 v -0.9375 h 1.21582 v 6.72363 q 0,1.81641 -0.37354,2.5708 -0.36621,0.76172 -1.17187,1.20117 -0.79834,0.43945 -1.97022,0.43945 -1.3916,0 -2.24853,-0.62988 -0.85694,-0.62256 -0.82764,-1.88232 z m 1.09131,-4.67285 q 0,1.53076 0.60791,2.23388 0.60791,0.70313 1.52344,0.70313 0.9082,0 1.52343,-0.6958 0.61524,-0.70313 0.61524,-2.19727 0,-1.42822 -0.63721,-2.15332 -0.62988,-0.7251 -1.52344,-0.7251 -0.8789,0 -1.49414,0.71778 -0.61523,0.71045 -0.61523,2.1167 z m 11.13281,1.70654 1.30371,-0.20508 q 0.10987,0.78369 0.60791,1.20117 0.50537,0.41748 1.40625,0.41748 0.90821,0 1.34766,-0.36621 0.43945,-0.37353 0.43945,-0.87158 0,-0.44678 -0.38818,-0.70312 -0.271,-0.17579 -1.34766,-0.44678 -1.45019,-0.36621 -2.01416,-0.62988 -0.55664,-0.271 -0.84961,-0.73975 -0.28564,-0.47608 -0.28564,-1.04736 0,-0.52002 0.23437,-0.95948 0.2417,-0.44677 0.65186,-0.73974 0.30762,-0.22705 0.83496,-0.38086 0.53467,-0.16114 1.14258,-0.16114 0.91553,0 1.604,0.26368 0.6958,0.26367 1.02539,0.71777 0.32959,0.44678 0.4541,1.20117 l -1.28906,0.17578 q -0.0879,-0.60058 -0.51269,-0.9375 -0.41748,-0.33691 -1.18653,-0.33691 -0.9082,0 -1.29638,0.30029 -0.38819,0.3003 -0.38819,0.70313 0,0.25634 0.16114,0.46142 0.16113,0.21241 0.50537,0.35157 0.19775,0.0732 1.16455,0.33691 1.39892,0.37353 1.94824,0.61523 0.55664,0.23438 0.87158,0.68848 0.31494,0.4541 0.31494,1.12793 0,0.65918 -0.38818,1.24512 -0.38086,0.57861 -1.10596,0.90088 -0.7251,0.31494 -1.64062,0.31494 -1.51612,0 -2.31446,-0.62989 -0.79101,-0.62988 -1.01074,-1.86767 z m 7.53662,-1.56738 q 0,-2.16065 1.20117,-3.20069 1.00342,-0.86426 2.44629,-0.86426 1.60401,0 2.62207,1.05469 1.01807,1.04737 1.01807,2.90039 0,1.50147 -0.4541,2.36573 -0.44678,0.85693 -1.31104,1.333 -0.85693,0.47608 -1.875,0.47608 -1.6333,0 -2.64404,-1.04737 -1.00342,-1.04736 -1.00342,-3.01757 z m 1.35498,0 q 0,1.49414 0.65186,2.24121 0.65185,0.73974 1.64062,0.73974 0.98145,0 1.6333,-0.74707 0.65186,-0.74707 0.65186,-2.27783 0,-1.44287 -0.65918,-2.18262 -0.65186,-0.74707 -1.62598,-0.74707 -0.98877,0 -1.64062,0.73975 -0.65186,0.73975 -0.65186,2.23389 z m 7.44873,3.88916 v -10.73731 h 1.31836 v 10.73731 z m 5.52246,0 -2.95898,-7.77832 h 1.3916 l 1.66992,4.6582 q 0.271,0.75439 0.49805,1.56738 0.17578,-0.61523 0.49072,-1.47949 l 1.72852,-4.74609 h 1.35498 l -2.94434,7.77832 z m 5.34668,-9.2212 v -1.51611 h 1.31836 v 1.51611 z m 0,9.2212 V 145.733 h 1.31836 v 7.77832 z m 3.3252,0 V 145.733 h 1.18652 v 1.10595 q 0.85694,-1.28174 2.47559,-1.28174 0.70312,0 1.28906,0.25635 0.59326,0.24903 0.88623,0.65918 0.29297,0.41016 0.41016,0.97412 0.0732,0.36621 0.0732,1.28174 v 4.78272 h -1.31836 v -4.73145 q 0,-0.80566 -0.15381,-1.20117 -0.15381,-0.40283 -0.54931,-0.63721 -0.38819,-0.2417 -0.91553,-0.2417 -0.84229,0 -1.45752,0.53467 -0.60791,0.53467 -0.60791,2.02881 v 4.24805 z m 8.10059,0.64453 1.28173,0.19043 q 0.0806,0.59326 0.44678,0.86426 0.49072,0.36621 1.34033,0.36621 0.91553,0 1.41358,-0.36621 0.49804,-0.36622 0.67383,-1.0254 0.10253,-0.40283 0.0952,-1.69189 -0.86426,1.01807 -2.15332,1.01807 -1.604,0 -2.48291,-1.15723 -0.87891,-1.15723 -0.87891,-2.77588 0,-1.11328 0.40284,-2.05078 0.40283,-0.94482 1.16455,-1.45752 0.76904,-0.5127 1.80175,-0.5127 1.37696,0 2.27051,1.11329 v -0.9375 h 1.21582 v 6.72363 q 0,1.81641 -0.37353,2.5708 -0.36621,0.76172 -1.17188,1.20117 -0.79834,0.43945 -1.97021,0.43945 -1.3916,0 -2.24854,-0.62988 -0.85693,-0.62256 -0.82763,-1.88232 z m 1.0913,-4.67285 q 0,1.53076 0.60791,2.23388 0.60791,0.70313 1.52344,0.70313 0.9082,0 1.52344,-0.6958 0.61523,-0.70313 0.61523,-2.19727 0,-1.42822 -0.6372,-2.15332 -0.62989,-0.7251 -1.52344,-0.7251 -0.87891,0 -1.49414,0.71778 -0.61524,0.71045 -0.61524,2.1167 z m 7.83692,4.02832 v -1.50147 h 1.50146 v 1.50147 q 0,0.82763 -0.29297,1.333 -0.29296,0.5127 -0.93017,0.79102 l -0.36621,-0.56397 q 0.41748,-0.1831 0.61523,-0.54199 0.19776,-0.35156 0.21973,-1.01806 z m 10.86914,-1.1792 0.19043,1.16455 q -0.55664,0.11719 -0.9961,0.11719 -0.71777,0 -1.11328,-0.22706 -0.3955,-0.22705 -0.55664,-0.59326 -0.16113,-0.37353 -0.16113,-1.56006 v -4.47509 h -0.9668 V 145.733 h 0.9668 v -1.92627 l 1.31104,-0.79102 v 2.71729 h 1.32568 v 1.02539 h -1.32568 v 4.54834 q 0,0.56396 0.0659,0.72509 0.0733,0.16114 0.22705,0.25635 0.16114,0.0952 0.45411,0.0952 0.21972,0 0.57861,-0.0513 z m 1.28906,1.1792 v -10.73731 h 1.31836 v 3.85254 q 0.92285,-1.06934 2.3291,-1.06934 0.86426,0 1.50147,0.34424 0.6372,0.33692 0.9082,0.9375 0.27832,0.60059 0.27832,1.74317 v 4.9292 h -1.31836 v -4.9292 q 0,-0.98877 -0.43213,-1.43555 -0.4248,-0.4541 -1.20849,-0.4541 -0.58594,0 -1.10596,0.30762 -0.5127,0.30029 -0.73242,0.82031 -0.21973,0.52002 -0.21973,1.43555 v 4.25537 z m 13.66699,-2.50489 1.36231,0.16846 q -0.32227,1.19385 -1.19385,1.85303 -0.87158,0.65918 -2.22656,0.65918 -1.70654,0 -2.70996,-1.04737 -0.9961,-1.05468 -0.9961,-2.95166 0,-1.96289 1.01075,-3.04687 1.01074,-1.08399 2.62207,-1.08399 1.56005,0 2.54882,1.06202 0.98877,1.06201 0.98877,2.98828 0,0.11719 -0.007,0.35156 h -5.80078 q 0.0732,1.28174 0.7251,1.96289 0.65185,0.68115 1.62597,0.68115 0.7251,0 1.2378,-0.38086 0.51269,-0.38086 0.81298,-1.21582 z m -4.32861,-2.13134 h 4.34326 q -0.0879,-0.98145 -0.49804,-1.47217 -0.62989,-0.76172 -1.63331,-0.76172 -0.9082,0 -1.53076,0.60791 -0.61523,0.60791 -0.68115,1.62598 z m 7.33154,4.63623 V 145.733 h 1.18653 v 1.1792 q 0.4541,-0.82764 0.83496,-1.09131 0.38818,-0.26368 0.84961,-0.26368 0.6665,0 1.35498,0.42481 l -0.4541,1.22314 q -0.4834,-0.28564 -0.9668,-0.28564 -0.43213,0 -0.77637,0.26367 -0.34424,0.25635 -0.49072,0.71777 -0.21973,0.70313 -0.21973,1.53809 v 4.07227 z m 10.33448,-2.50489 1.3623,0.16846 q -0.32227,1.19385 -1.19385,1.85303 -0.87158,0.65918 -2.22656,0.65918 -1.70654,0 -2.70996,-1.04737 -0.99609,-1.05468 -0.99609,-2.95166 0,-1.96289 1.01074,-3.04687 1.01074,-1.08399 2.62207,-1.08399 1.56006,0 2.54883,1.06202 0.98877,1.06201 0.98877,2.98828 0,0.11719 -0.007,0.35156 h -5.80078 q 0.0732,1.28174 0.7251,1.96289 0.65185,0.68115 1.62597,0.68115 0.7251,0 1.2378,-0.38086 0.51269,-0.38086 0.81299,-1.21582 z m -4.32862,-2.13134 h 4.34326 q -0.0879,-0.98145 -0.49804,-1.47217 -0.62989,-0.76172 -1.6333,-0.76172 -0.90821,0 -1.53077,0.60791 -0.61523,0.60791 -0.68115,1.62598 z m 11.521,-4.58497 v -1.51611 h 1.31836 v 1.51611 z m 0,9.2212 V 145.733 h 1.31836 v 7.77832 z m 2.79785,-2.32178 1.30371,-0.20508 q 0.10986,0.78369 0.60791,1.20117 0.50537,0.41748 1.40625,0.41748 0.9082,0 1.34766,-0.36621 0.43945,-0.37353 0.43945,-0.87158 0,-0.44678 -0.38818,-0.70312 -0.271,-0.17579 -1.34766,-0.44678 -1.45019,-0.36621 -2.01416,-0.62988 -0.55664,-0.271 -0.84961,-0.73975 -0.28564,-0.47608 -0.28564,-1.04736 0,-0.52002 0.23437,-0.95948 0.2417,-0.44677 0.65186,-0.73974 0.30761,-0.22705 0.83496,-0.38086 0.53467,-0.16114 1.14258,-0.16114 0.91552,0 1.604,0.26368 0.6958,0.26367 1.02539,0.71777 0.32959,0.44678 0.4541,1.20117 l -1.28906,0.17578 q -0.0879,-0.60058 -0.5127,-0.9375 -0.41748,-0.33691 -1.18652,-0.33691 -0.9082,0 -1.29639,0.30029 -0.38818,0.3003 -0.38818,0.70313 0,0.25634 0.16113,0.46142 0.16114,0.21241 0.50537,0.35157 0.19776,0.0732 1.16456,0.33691 1.39892,0.37353 1.94824,0.61523 0.55664,0.23438 0.87158,0.68848 0.31494,0.4541 0.31494,1.12793 0,0.65918 -0.38818,1.24512 -0.38086,0.57861 -1.10596,0.90088 -0.7251,0.31494 -1.64062,0.31494 -1.51612,0 -2.31446,-0.62989 -0.79101,-0.62988 -1.01074,-1.86767 z m 12.19482,2.32178 V 145.733 h 1.18653 v 1.10595 q 0.85693,-1.28174 2.47558,-1.28174 0.70313,0 1.28907,0.25635 0.59326,0.24903 0.88623,0.65918 0.29297,0.41016 0.41015,0.97412 0.0733,0.36621 0.0733,1.28174 v 4.78272 h -1.31836 v -4.73145 q 0,-0.80566 -0.15381,-1.20117 -0.15381,-0.40283 -0.54932,-0.63721 -0.38818,-0.2417 -0.91553,-0.2417 -0.84228,0 -1.45752,0.53467 -0.60791,0.53467 -0.60791,2.02881 v 4.24805 z m 7.85157,-3.88916 q 0,-2.16065 1.20117,-3.20069 1.00342,-0.86426 2.44629,-0.86426 1.604,0 2.62207,1.05469 1.01806,1.04737 1.01806,2.90039 0,1.50147 -0.4541,2.36573 -0.44677,0.85693 -1.31103,1.333 -0.85694,0.47608 -1.875,0.47608 -1.6333,0 -2.64405,-1.04737 -1.00341,-1.04736 -1.00341,-3.01757 z m 1.35498,0 q 0,1.49414 0.65185,2.24121 0.65186,0.73974 1.64063,0.73974 0.98144,0 1.6333,-0.74707 0.65185,-0.74707 0.65185,-2.27783 0,-1.44287 -0.65918,-2.18262 -0.65185,-0.74707 -1.62597,-0.74707 -0.98877,0 -1.64063,0.73975 -0.65185,0.73975 -0.65185,2.23389 z m 12.05566,3.88916 v -10.73731 h 1.4209 v 10.73731 z m 2.76856,0.1831 3.11279,-11.10351 h 1.05469 l -3.10547,11.10351 z m 4.89257,-5.4126 q 0,-2.67334 1.43555,-4.18212 1.43555,-1.51612 3.70606,-1.51612 1.48681,0 2.68066,0.71045 1.19385,0.71045 1.81641,1.98486 0.62988,1.26709 0.62988,2.87842 0,1.6333 -0.65918,2.92237 -0.65918,1.28906 -1.86768,1.95556 -1.20849,0.65918 -2.60742,0.65918 -1.51611,0 -2.70996,-0.73242 -1.19385,-0.73242 -1.80908,-1.99951 -0.61524,-1.26709 -0.61524,-2.68067 z m 1.46485,0.022 q 0,1.94091 1.04004,3.06152 1.04736,1.11328 2.62207,1.11328 1.604,0 2.63672,-1.12793 1.04004,-1.12793 1.04004,-3.20068 0,-1.31104 -0.44678,-2.28516 -0.43946,-0.98144 -1.29639,-1.51611 -0.84961,-0.54199 -1.91162,-0.54199 -1.50879,0 -2.6001,1.04004 -1.08398,1.03271 -1.08398,3.45703 z m 10.81054,5.20752 v -1.50147 h 1.50147 v 1.50147 q 0,0.82763 -0.29297,1.333 -0.29297,0.5127 -0.93017,0.79102 l -0.36622,-0.56397 q 0.41748,-0.1831 0.61524,-0.54199 0.19775,-0.35156 0.21973,-1.01806 z m 8.18116,0 v -10.73731 h 4.76074 q 1.43555,0 2.18262,0.29297 0.74707,0.28564 1.19384,1.01807 0.44678,0.73242 0.44678,1.61865 0,1.14258 -0.73974,1.92627 -0.73975,0.78369 -2.28516,0.99609 0.56396,0.271 0.85693,0.53467 0.62256,0.57129 1.1792,1.42822 l 1.86768,2.92237 h -1.78711 l -1.4209,-2.23389 q -0.62256,-0.9668 -1.02539,-1.47949 -0.40283,-0.5127 -0.7251,-0.71778 -0.31494,-0.20507 -0.64453,-0.28564 -0.2417,-0.0513 -0.79102,-0.0513 h -1.64794 v 4.76807 z m 1.4209,-5.99854 h 3.05419 q 0.97413,0 1.52344,-0.19775 0.54932,-0.20508 0.83496,-0.64453 0.28565,-0.44678 0.28565,-0.9668 0,-0.76172 -0.55664,-1.25244 -0.54932,-0.49072 -1.74317,-0.49072 h -3.39843 z m 8.21044,5.99854 4.12354,-10.73731 h 1.53076 l 4.39453,10.73731 h -1.61865 l -1.25244,-3.25196 h -4.48975 l -1.1792,3.25196 z m 3.09815,-4.40918 h 3.64014 l -1.12061,-2.97364 q -0.51269,-1.35498 -0.76172,-2.22656 -0.20508,1.03272 -0.57861,2.05078 z m 8.04199,4.40918 v -10.73731 h 2.13867 l 2.54151,7.60254 q 0.35156,1.06201 0.51269,1.58936 0.18311,-0.58594 0.57129,-1.7212 l 2.5708,-7.4707 h 1.91162 v 10.73731 h -1.36963 v -8.98682 l -3.12011,8.98682 h -1.28174 l -3.10547,-9.14063 v 9.14063 z m 16.54541,-9.2212 v -1.51611 h 1.31836 v 1.51611 z m 0,9.2212 V 145.733 h 1.31836 v 7.77832 z m 2.79785,-2.32178 1.30371,-0.20508 q 0.10987,0.78369 0.60791,1.20117 0.50538,0.41748 1.40625,0.41748 0.90821,0 1.34766,-0.36621 0.43945,-0.37353 0.43945,-0.87158 0,-0.44678 -0.38818,-0.70312 -0.271,-0.17579 -1.34766,-0.44678 -1.45019,-0.36621 -2.01416,-0.62988 -0.55664,-0.271 -0.84961,-0.73975 -0.28564,-0.47608 -0.28564,-1.04736 0,-0.52002 0.23437,-0.95948 0.2417,-0.44677 0.65186,-0.73974 0.30762,-0.22705 0.83496,-0.38086 0.53467,-0.16114 1.14258,-0.16114 0.91553,0 1.604,0.26368 0.6958,0.26367 1.02539,0.71777 0.32959,0.44678 0.45411,1.20117 l -1.28907,0.17578 q -0.0879,-0.60058 -0.51269,-0.9375 -0.41748,-0.33691 -1.18653,-0.33691 -0.9082,0 -1.29638,0.30029 -0.38819,0.3003 -0.38819,0.70313 0,0.25634 0.16114,0.46142 0.16113,0.21241 0.50537,0.35157 0.19775,0.0732 1.16455,0.33691 1.39892,0.37353 1.94824,0.61523 0.55664,0.23438 0.87158,0.68848 0.31494,0.4541 0.31494,1.12793 0,0.65918 -0.38818,1.24512 -0.38086,0.57861 -1.10596,0.90088 -0.72509,0.31494 -1.64062,0.31494 -1.51611,0 -2.31445,-0.62989 -0.79102,-0.62988 -1.01075,-1.86767 z m 12.18018,2.32178 V 145.733 h 1.18652 v 1.1792 q 0.4541,-0.82764 0.83496,-1.09131 0.38819,-0.26368 0.84961,-0.26368 0.66651,0 1.35498,0.42481 l -0.4541,1.22314 q -0.4834,-0.28564 -0.9668,-0.28564 -0.43212,0 -0.77636,0.26367 -0.34424,0.25635 -0.49072,0.71777 -0.21973,0.70313 -0.21973,1.53809 v 4.07227 z m 10.33447,-2.50489 1.36231,0.16846 q -0.32227,1.19385 -1.19385,1.85303 -0.87158,0.65918 -2.22656,0.65918 -1.70655,0 -2.70996,-1.04737 -0.9961,-1.05468 -0.9961,-2.95166 0,-1.96289 1.01074,-3.04687 1.01075,-1.08399 2.62207,-1.08399 1.56006,0 2.54883,1.06202 0.98877,1.06201 0.98877,2.98828 0,0.11719 -0.007,0.35156 h -5.80078 q 0.0732,1.28174 0.72509,1.96289 0.65186,0.68115 1.62598,0.68115 0.7251,0 1.23779,-0.38086 0.5127,-0.38086 0.81299,-1.21582 z m -4.32861,-2.13134 h 4.34326 q -0.0879,-0.98145 -0.49805,-1.47217 -0.62988,-0.76172 -1.6333,-0.76172 -0.9082,0 -1.53076,0.60791 -0.61523,0.60791 -0.68115,1.62598 z m 7.31689,4.63623 v -10.73731 h 1.31836 v 10.73731 z m 8.4375,-0.95948 q -0.73242,0.62256 -1.41357,0.87891 -0.67383,0.25635 -1.4502,0.25635 -1.28173,0 -1.97021,-0.62256 -0.68848,-0.62988 -0.68848,-1.604 0,-0.57129 0.25635,-1.04004 0.26367,-0.47608 0.68115,-0.76172 0.42481,-0.28565 0.95215,-0.43213 0.38818,-0.10254 1.17188,-0.19776 1.59668,-0.19043 2.35107,-0.4541 0.007,-0.27099 0.007,-0.34424 0,-0.80566 -0.37353,-1.13525 -0.50537,-0.44678 -1.50147,-0.44678 -0.93017,0 -1.37695,0.32959 -0.43945,0.32227 -0.65185,1.14991 l -1.28907,-0.17579 q 0.17578,-0.82763 0.57862,-1.333 0.40283,-0.5127 1.16455,-0.78369 0.76172,-0.27833 1.76513,-0.27833 0.9961,0 1.61866,0.23438 0.62255,0.23437 0.91552,0.59326 0.29297,0.35156 0.41016,0.89356 0.0659,0.33691 0.0659,1.21582 v 1.75781 q 0,1.83838 0.0806,2.3291 0.0879,0.4834 0.33692,0.93018 h -1.37696 q -0.20507,-0.41016 -0.26367,-0.95948 z m -0.10986,-2.94433 q -0.71777,0.29297 -2.15332,0.49804 -0.81299,0.11719 -1.1499,0.26368 -0.33692,0.14648 -0.52002,0.43213 -0.18311,0.27832 -0.18311,0.62255 0,0.52735 0.39551,0.87891 0.40283,0.35156 1.17187,0.35156 0.76172,0 1.35499,-0.32959 0.59326,-0.33691 0.87158,-0.91552 0.2124,-0.44678 0.2124,-1.31836 z m 6.25488,2.72461 0.19043,1.16455 q -0.55664,0.11719 -0.99609,0.11719 -0.71777,0 -1.11328,-0.22706 -0.39551,-0.22705 -0.55664,-0.59326 -0.16114,-0.37353 -0.16114,-1.56006 v -4.47509 h -0.96679 V 145.733 h 0.96679 v -1.92627 l 1.31104,-0.79102 v 2.71729 h 1.32568 v 1.02539 h -1.32568 v 4.54834 q 0,0.56396 0.0659,0.72509 0.0732,0.16114 0.22705,0.25635 0.16113,0.0952 0.4541,0.0952 0.21973,0 0.57861,-0.0513 z m 1.29639,-8.042 v -1.51611 h 1.31836 v 1.51611 z m 0,9.2212 V 145.733 h 1.31836 v 7.77832 z m 5.48584,0 -2.95899,-7.77832 h 1.39161 l 1.66992,4.6582 q 0.27099,0.75439 0.49805,1.56738 0.17578,-0.61523 0.49072,-1.47949 l 1.72851,-4.74609 h 1.35498 l -2.94433,7.77832 z m 10.66406,-2.50489 1.36231,0.16846 q -0.32227,1.19385 -1.19385,1.85303 -0.87158,0.65918 -2.22656,0.65918 -1.70655,0 -2.70996,-1.04737 -0.9961,-1.05468 -0.9961,-2.95166 0,-1.96289 1.01074,-3.04687 1.01075,-1.08399 2.62207,-1.08399 1.56006,0 2.54883,1.06202 0.98877,1.06201 0.98877,2.98828 0,0.11719 -0.007,0.35156 h -5.80078 q 0.0732,1.28174 0.72509,1.96289 0.65186,0.68115 1.62598,0.68115 0.7251,0 1.23779,-0.38086 0.5127,-0.38086 0.81299,-1.21582 z m -4.32861,-2.13134 h 4.34326 q -0.0879,-0.98145 -0.49805,-1.47217 -0.62988,-0.76172 -1.6333,-0.76172 -0.9082,0 -1.53076,0.60791 -0.61523,0.60791 -0.68115,1.62598 z m 7.31689,4.63623 v -10.73731 h 1.31836 v 10.73731 z m 3.30323,2.9956 -0.14649,-1.23779 q 0.43213,0.11719 0.7544,0.11719 0.43945,0 0.70312,-0.14649 0.26367,-0.14648 0.43213,-0.41015 0.12451,-0.19776 0.40283,-0.98145 0.0366,-0.10986 0.11719,-0.32227 l -2.95166,-7.79296 h 1.4209 l 1.61865,4.50439 q 0.31494,0.85693 0.56396,1.80176 0.22706,-0.9082 0.542,-1.77246 l 1.66259,-4.53369 h 1.31836 l -2.95898,7.91015 q -0.47607,1.28174 -0.73975,1.76514 -0.35156,0.65185 -0.80566,0.95215 -0.4541,0.30761 -1.08399,0.30761 -0.38085,0 -0.8496,-0.16113 z m 11.19873,-5.31738 1.30371,-0.20508 q 0.10986,0.78369 0.60791,1.20117 0.50537,0.41748 1.40625,0.41748 0.9082,0 1.34765,-0.36621 0.43946,-0.37353 0.43946,-0.87158 0,-0.44678 -0.38819,-0.70312 -0.27099,-0.17579 -1.34765,-0.44678 -1.4502,-0.36621 -2.01416,-0.62988 -0.55664,-0.271 -0.84961,-0.73975 -0.28565,-0.47608 -0.28565,-1.04736 0,-0.52002 0.23438,-0.95948 0.2417,-0.44677 0.65185,-0.73974 0.30762,-0.22705 0.83496,-0.38086 0.53467,-0.16114 1.14258,-0.16114 0.91553,0 1.60401,0.26368 0.6958,0.26367 1.02539,0.71777 0.32959,0.44678 0.4541,1.20117 l -1.28906,0.17578 q -0.0879,-0.60058 -0.5127,-0.9375 -0.41748,-0.33691 -1.18652,-0.33691 -0.90821,0 -1.29639,0.30029 -0.38818,0.3003 -0.38818,0.70313 0,0.25634 0.16113,0.46142 0.16113,0.21241 0.50537,0.35157 0.19775,0.0732 1.16455,0.33691 1.39893,0.37353 1.94824,0.61523 0.55664,0.23438 0.87159,0.68848 0.31494,0.4541 0.31494,1.12793 0,0.65918 -0.38819,1.24512 -0.38086,0.57861 -1.10595,0.90088 -0.7251,0.31494 -1.64063,0.31494 -1.51611,0 -2.31445,-0.62989 -0.79102,-0.62988 -1.01074,-1.86767 z m 10.90576,1.14258 0.19043,1.16455 q -0.55664,0.11719 -0.9961,0.11719 -0.71777,0 -1.11328,-0.22706 -0.39551,-0.22705 -0.55664,-0.59326 -0.16113,-0.37353 -0.16113,-1.56006 v -4.47509 h -0.9668 V 145.733 h 0.9668 v -1.92627 l 1.31103,-0.79102 v 2.71729 h 1.32569 v 1.02539 h -1.32569 v 4.54834 q 0,0.56396 0.0659,0.72509 0.0732,0.16114 0.22705,0.25635 0.16114,0.0952 0.4541,0.0952 0.21973,0 0.57862,-0.0513 z m 6.36474,0.21972 q -0.73242,0.62256 -1.41357,0.87891 -0.67383,0.25635 -1.4502,0.25635 -1.28173,0 -1.97021,-0.62256 -0.68848,-0.62988 -0.68848,-1.604 0,-0.57129 0.25635,-1.04004 0.26367,-0.47608 0.68115,-0.76172 0.42481,-0.28565 0.95215,-0.43213 0.38818,-0.10254 1.17188,-0.19776 1.59668,-0.19043 2.35107,-0.4541 0.007,-0.27099 0.007,-0.34424 0,-0.80566 -0.37353,-1.13525 -0.50537,-0.44678 -1.50147,-0.44678 -0.93017,0 -1.37695,0.32959 -0.43945,0.32227 -0.65185,1.14991 l -1.28907,-0.17579 q 0.17578,-0.82763 0.57862,-1.333 0.40283,-0.5127 1.16455,-0.78369 0.76172,-0.27833 1.76513,-0.27833 0.9961,0 1.61866,0.23438 0.62256,0.23437 0.91552,0.59326 0.29297,0.35156 0.41016,0.89356 0.0659,0.33691 0.0659,1.21582 v 1.75781 q 0,1.83838 0.0806,2.3291 0.0879,0.4834 0.33692,0.93018 h -1.37695 q -0.20508,-0.41016 -0.26368,-0.95948 z m -0.10986,-2.94433 q -0.71777,0.29297 -2.15332,0.49804 -0.81299,0.11719 -1.1499,0.26368 -0.33692,0.14648 -0.52002,0.43213 -0.18311,0.27832 -0.18311,0.62255 0,0.52735 0.39551,0.87891 0.40283,0.35156 1.17188,0.35156 0.76171,0 1.35498,-0.32959 0.59326,-0.33691 0.87158,-0.91552 0.2124,-0.44678 0.2124,-1.31836 z m 4.59229,3.90381 h -1.22315 v -10.73731 h 1.31836 v 3.83057 q 0.83496,-1.04737 2.13135,-1.04737 0.71777,0 1.35498,0.29297 0.64453,0.28565 1.05469,0.81299 0.41748,0.52002 0.65185,1.25977 0.23438,0.73974 0.23438,1.58203 0,1.99951 -0.98877,3.09082 -0.98877,1.09131 -2.37305,1.09131 -1.37695,0 -2.16064,-1.1499 z m -0.0146,-3.94776 q 0,1.39893 0.38086,2.02149 0.62256,1.01806 1.68457,1.01806 0.86425,0 1.49414,-0.74707 0.62988,-0.75439 0.62988,-2.24121 0,-1.52344 -0.60791,-2.24853 -0.60059,-0.7251 -1.45752,-0.7251 -0.86426,0 -1.49414,0.75439 -0.62988,0.74707 -0.62988,2.16797 z m 7.11181,3.94776 v -10.73731 h 1.31836 v 10.73731 z m 8.68653,-2.50489 1.3623,0.16846 q -0.32226,1.19385 -1.19385,1.85303 -0.87158,0.65918 -2.22656,0.65918 -1.70654,0 -2.70996,-1.04737 -0.99609,-1.05468 -0.99609,-2.95166 0,-1.96289 1.01074,-3.04687 1.01074,-1.08399 2.62207,-1.08399 1.56006,0 2.54883,1.06202 0.98877,1.06201 0.98877,2.98828 0,0.11719 -0.007,0.35156 h -5.80078 q 0.0732,1.28174 0.7251,1.96289 0.65185,0.68115 1.62598,0.68115 0.72509,0 1.23779,-0.38086 0.51269,-0.38086 0.81299,-1.21582 z m -4.32862,-2.13134 h 4.34327 q -0.0879,-0.98145 -0.49805,-1.47217 -0.62988,-0.76172 -1.6333,-0.76172 -0.90821,0 -1.53076,0.60791 -0.61524,0.60791 -0.68116,1.62598 z m 16.58936,3.67675 q -0.73242,0.62256 -1.41357,0.87891 -0.67383,0.25635 -1.4502,0.25635 -1.28174,0 -1.97022,-0.62256 -0.68847,-0.62988 -0.68847,-1.604 0,-0.57129 0.25635,-1.04004 0.26367,-0.47608 0.68115,-0.76172 0.4248,-0.28565 0.95215,-0.43213 0.38818,-0.10254 1.17187,-0.19776 1.59668,-0.19043 2.35108,-0.4541 0.007,-0.27099 0.007,-0.34424 0,-0.80566 -0.37353,-1.13525 -0.50538,-0.44678 -1.50147,-0.44678 -0.93018,0 -1.37695,0.32959 -0.43946,0.32227 -0.65186,1.14991 l -1.28906,-0.17579 q 0.17578,-0.82763 0.57861,-1.333 0.40283,-0.5127 1.16455,-0.78369 0.76172,-0.27833 1.76514,-0.27833 0.99609,0 1.61865,0.23438 0.62256,0.23437 0.91553,0.59326 0.29297,0.35156 0.41016,0.89356 0.0659,0.33691 0.0659,1.21582 v 1.75781 q 0,1.83838 0.0806,2.3291 0.0879,0.4834 0.33691,0.93018 h -1.37695 q -0.20508,-0.41016 -0.26367,-0.95948 z m -0.10986,-2.94433 q -0.71778,0.29297 -2.15332,0.49804 -0.81299,0.11719 -1.14991,0.26368 -0.33691,0.14648 -0.52002,0.43213 -0.1831,0.27832 -0.1831,0.62255 0,0.52735 0.39551,0.87891 0.40283,0.35156 1.17187,0.35156 0.76172,0 1.35498,-0.32959 0.59326,-0.33691 0.87158,-0.91552 0.21241,-0.44678 0.21241,-1.31836 z m 3.37646,3.90381 V 145.733 h 1.18652 v 1.10595 q 0.85694,-1.28174 2.47559,-1.28174 0.70313,0 1.28906,0.25635 0.59326,0.24903 0.88623,0.65918 0.29297,0.41016 0.41016,0.97412 0.0732,0.36621 0.0732,1.28174 v 4.78272 h -1.31836 v -4.73145 q 0,-0.80566 -0.15381,-1.20117 -0.1538,-0.40283 -0.54931,-0.63721 -0.38819,-0.2417 -0.91553,-0.2417 -0.84229,0 -1.45752,0.53467 -0.60791,0.53467 -0.60791,2.02881 v 4.24805 z m 13.38867,0 v -0.98145 q -0.73974,1.15723 -2.17529,1.15723 -0.93018,0 -1.71387,-0.5127 -0.77636,-0.51269 -1.20849,-1.42822 -0.42481,-0.92285 -0.42481,-2.1167 0,-1.16455 0.38819,-2.10937 0.38818,-0.95215 1.16455,-1.45752 0.77636,-0.50538 1.73584,-0.50538 0.70312,0 1.25244,0.3003 0.54931,0.29297 0.89355,0.76904 v -3.85254 h 1.31104 v 10.73731 z m -4.16748,-3.88184 q 0,1.49414 0.62989,2.23389 0.62988,0.73974 1.48681,0.73974 0.86426,0 1.46485,-0.70312 0.60791,-0.71045 0.60791,-2.16065 0,-1.59668 -0.61524,-2.34375 -0.61523,-0.74707 -1.51611,-0.74707 -0.87891,0 -1.47217,0.71778 -0.58594,0.71777 -0.58594,2.26318 z m 19.46045,0.11719 1.4209,0.35888 q -0.44678,1.75049 -1.61133,2.67334 -1.15722,0.91553 -2.83447,0.91553 -1.73584,0 -2.82715,-0.70312 -1.08398,-0.71045 -1.65527,-2.05078 -0.56397,-1.34034 -0.56397,-2.87842 0,-1.67725 0.63721,-2.92237 0.64453,-1.25244 1.82373,-1.89697 1.18652,-0.65185 2.60742,-0.65185 1.61133,0 2.70996,0.82031 1.09864,0.82031 1.53076,2.30713 l -1.39892,0.32959 q -0.37354,-1.17188 -1.08399,-1.70655 -0.71044,-0.53466 -1.78711,-0.53466 -1.23779,0 -2.07275,0.59326 -0.82764,0.59326 -1.16455,1.59668 -0.33691,0.99609 -0.33691,2.0581 0,1.36963 0.3955,2.39502 0.40284,1.01807 1.24512,1.52344 0.84229,0.50537 1.82373,0.50537 1.19385,0 2.02149,-0.68848 0.82763,-0.68847 1.1206,-2.04345 z m 3.17139,3.76465 v -10.73731 h 4.05029 q 1.06934,0 1.6333,0.10254 0.79102,0.13184 1.32569,0.50537 0.53466,0.36621 0.85693,1.03272 0.32959,0.6665 0.32959,1.46484 0,1.36963 -0.87158,2.32178 -0.87159,0.94482 -3.14942,0.94482 h -2.7539 v 4.36524 z m 1.4209,-5.63233 h 2.77588 q 1.37695,0 1.95556,-0.51269 0.57862,-0.5127 0.57862,-1.44287 0,-0.67383 -0.34424,-1.14991 -0.33692,-0.4834 -0.89356,-0.6372 -0.35888,-0.0952 -1.32568,-0.0952 h -2.74658 z m 15.62988,-5.10498 h 1.4209 v 6.20361 q 0,1.61866 -0.36621,2.57081 -0.36621,0.95214 -1.32569,1.55273 -0.95215,0.59326 -2.50488,0.59326 -1.50879,0 -2.46826,-0.52002 -0.95947,-0.52002 -1.36963,-1.50146 -0.41016,-0.98877 -0.41016,-2.69532 v -6.20361 h 1.4209 v 6.19629 q 0,1.39893 0.25635,2.06543 0.26367,0.65918 0.89355,1.01807 0.63721,0.35888 1.55274,0.35888 1.56738,0 2.23389,-0.71045 0.6665,-0.71044 0.6665,-2.73193 z m 7.79297,1.51611 v -1.51611 h 1.31836 v 1.51611 z m 0,9.2212 V 145.733 h 1.31836 v 7.77832 z m 2.79785,-2.32178 1.30371,-0.20508 q 0.10986,0.78369 0.60791,1.20117 0.50537,0.41748 1.40625,0.41748 0.9082,0 1.34766,-0.36621 0.43945,-0.37353 0.43945,-0.87158 0,-0.44678 -0.38818,-0.70312 -0.271,-0.17579 -1.34766,-0.44678 -1.45019,-0.36621 -2.01416,-0.62988 -0.55664,-0.271 -0.84961,-0.73975 -0.28564,-0.47608 -0.28564,-1.04736 0,-0.52002 0.23437,-0.95948 0.2417,-0.44677 0.65186,-0.73974 0.30761,-0.22705 0.83496,-0.38086 0.53467,-0.16114 1.14258,-0.16114 0.91552,0 1.604,0.26368 0.6958,0.26367 1.02539,0.71777 0.32959,0.44678 0.4541,1.20117 l -1.28906,0.17578 q -0.0879,-0.60058 -0.5127,-0.9375 -0.41748,-0.33691 -1.18652,-0.33691 -0.9082,0 -1.29639,0.30029 -0.38818,0.3003 -0.38818,0.70313 0,0.25634 0.16113,0.46142 0.16114,0.21241 0.50537,0.35157 0.19776,0.0732 1.16456,0.33691 1.39892,0.37353 1.94824,0.61523 0.55664,0.23438 0.87158,0.68848 0.31494,0.4541 0.31494,1.12793 0,0.65918 -0.38818,1.24512 -0.38086,0.57861 -1.10596,0.90088 -0.7251,0.31494 -1.64062,0.31494 -1.51612,0 -2.31446,-0.62989 -0.79101,-0.62988 -1.01074,-1.86767 z m 17.51953,-0.18311 1.36231,0.16846 q -0.32227,1.19385 -1.19385,1.85303 -0.87158,0.65918 -2.22656,0.65918 -1.70655,0 -2.70997,-1.04737 -0.99609,-1.05468 -0.99609,-2.95166 0,-1.96289 1.01074,-3.04687 1.01075,-1.08399 2.62207,-1.08399 1.56006,0 2.54883,1.06202 0.98877,1.06201 0.98877,2.98828 0,0.11719 -0.007,0.35156 h -5.80078 q 0.0732,1.28174 0.72509,1.96289 0.65186,0.68115 1.62598,0.68115 0.7251,0 1.23779,-0.38086 0.5127,-0.38086 0.81299,-1.21582 z m -4.32861,-2.13134 h 4.34326 q -0.0879,-0.98145 -0.49805,-1.47217 -0.62988,-0.76172 -1.6333,-0.76172 -0.9082,0 -1.53076,0.60791 -0.61523,0.60791 -0.68115,1.62598 z m 6.46728,4.63623 2.8418,-4.04297 -2.62939,-3.73535 h 1.64794 l 1.19385,1.82373 q 0.33692,0.52002 0.54199,0.87158 0.32227,-0.4834 0.59327,-0.85694 l 1.31103,-1.83837 h 1.57471 l -2.68799,3.66211 2.89307,4.11621 h -1.61866 l -1.59668,-2.417 -0.4248,-0.65185 -2.04346,3.06885 z m 8.37891,0 v -10.73731 h 1.31836 v 3.85254 q 0.92285,-1.06934 2.3291,-1.06934 0.86426,0 1.50146,0.34424 0.63721,0.33692 0.90821,0.9375 0.27832,0.60059 0.27832,1.74317 v 4.9292 h -1.31836 v -4.9292 q 0,-0.98877 -0.43213,-1.43555 -0.4248,-0.4541 -1.2085,-0.4541 -0.58593,0 -1.10595,0.30762 -0.5127,0.30029 -0.73242,0.82031 -0.21973,0.52002 -0.21973,1.43555 v 4.25537 z m 13.41797,-0.95948 q -0.73242,0.62256 -1.41358,0.87891 -0.67382,0.25635 -1.45019,0.25635 -1.28174,0 -1.97022,-0.62256 -0.68847,-0.62988 -0.68847,-1.604 0,-0.57129 0.25634,-1.04004 0.26368,-0.47608 0.68116,-0.76172 0.4248,-0.28565 0.95215,-0.43213 0.38818,-0.10254 1.17187,-0.19776 1.59668,-0.19043 2.35107,-0.4541 0.007,-0.27099 0.007,-0.34424 0,-0.80566 -0.37354,-1.13525 -0.50537,-0.44678 -1.50146,-0.44678 -0.93018,0 -1.37695,0.32959 -0.43946,0.32227 -0.65186,1.14991 l -1.28906,-0.17579 q 0.17578,-0.82763 0.57861,-1.333 0.40283,-0.5127 1.16455,-0.78369 0.76172,-0.27833 1.76514,-0.27833 0.99609,0 1.61865,0.23438 0.62256,0.23437 0.91553,0.59326 0.29297,0.35156 0.41015,0.89356 0.0659,0.33691 0.0659,1.21582 v 1.75781 q 0,1.83838 0.0806,2.3291 0.0879,0.4834 0.33691,0.93018 h -1.37695 q -0.20508,-0.41016 -0.26367,-0.95948 z m -0.10987,-2.94433 q -0.71777,0.29297 -2.15332,0.49804 -0.81298,0.11719 -1.1499,0.26368 -0.33691,0.14648 -0.52002,0.43213 -0.1831,0.27832 -0.1831,0.62255 0,0.52735 0.3955,0.87891 0.40284,0.35156 1.17188,0.35156 0.76172,0 1.35498,-0.32959 0.59326,-0.33691 0.87158,-0.91552 0.2124,-0.44678 0.2124,-1.31836 z m 8.47413,3.90381 v -1.14258 q -0.90821,1.31836 -2.46827,1.31836 -0.68847,0 -1.28906,-0.26367 -0.59326,-0.26368 -0.88623,-0.65918 -0.28564,-0.40284 -0.40283,-0.98145 -0.0806,-0.38818 -0.0806,-1.23047 V 145.733 h 1.31836 v 4.31396 q 0,1.03272 0.0806,1.3916 0.12451,0.52002 0.52734,0.82031 0.40283,0.29297 0.9961,0.29297 0.59326,0 1.11328,-0.30029 0.52002,-0.30762 0.73242,-0.82764 0.21973,-0.52734 0.21973,-1.52343 V 145.733 h 1.31835 v 7.77832 z m 2.71728,-2.32178 1.30371,-0.20508 q 0.10987,0.78369 0.60791,1.20117 0.50537,0.41748 1.40625,0.41748 0.90821,0 1.34766,-0.36621 0.43945,-0.37353 0.43945,-0.87158 0,-0.44678 -0.38818,-0.70312 -0.271,-0.17579 -1.34766,-0.44678 -1.45019,-0.36621 -2.01416,-0.62988 -0.55664,-0.271 -0.84961,-0.73975 -0.28564,-0.47608 -0.28564,-1.04736 0,-0.52002 0.23437,-0.95948 0.2417,-0.44677 0.65186,-0.73974 0.30762,-0.22705 0.83496,-0.38086 0.53467,-0.16114 1.14258,-0.16114 0.91552,0 1.604,0.26368 0.6958,0.26367 1.02539,0.71777 0.32959,0.44678 0.4541,1.20117 l -1.28906,0.17578 q -0.0879,-0.60058 -0.51269,-0.9375 -0.41749,-0.33691 -1.18653,-0.33691 -0.9082,0 -1.29638,0.30029 -0.38819,0.3003 -0.38819,0.70313 0,0.25634 0.16113,0.46142 0.16114,0.21241 0.50538,0.35157 0.19775,0.0732 1.16455,0.33691 1.39892,0.37353 1.94824,0.61523 0.55664,0.23438 0.87158,0.68848 0.31494,0.4541 0.31494,1.12793 0,0.65918 -0.38818,1.24512 -0.38086,0.57861 -1.10596,0.90088 -0.7251,0.31494 -1.64062,0.31494 -1.51612,0 -2.31446,-0.62989 -0.79101,-0.62988 -1.01074,-1.86767 z m 10.90576,1.14258 0.19043,1.16455 q -0.55664,0.11719 -0.99609,0.11719 -0.71777,0 -1.11328,-0.22706 -0.39551,-0.22705 -0.55664,-0.59326 -0.16114,-0.37353 -0.16114,-1.56006 v -4.47509 h -0.96679 V 145.733 h 0.96679 v -1.92627 l 1.31104,-0.79102 v 2.71729 h 1.32568 v 1.02539 h -1.32568 v 4.54834 q 0,0.56396 0.0659,0.72509 0.0732,0.16114 0.22705,0.25635 0.16113,0.0952 0.4541,0.0952 0.21973,0 0.57861,-0.0513 z m 6.61377,-1.32569 1.36231,0.16846 q -0.32227,1.19385 -1.19385,1.85303 -0.87158,0.65918 -2.22656,0.65918 -1.70655,0 -2.70996,-1.04737 -0.9961,-1.05468 -0.9961,-2.95166 0,-1.96289 1.01074,-3.04687 1.01075,-1.08399 2.62207,-1.08399 1.56006,0 2.54883,1.06202 0.98877,1.06201 0.98877,2.98828 0,0.11719 -0.007,0.35156 h -5.80078 q 0.0732,1.28174 0.72509,1.96289 0.65186,0.68115 1.62598,0.68115 0.7251,0 1.23779,-0.38086 0.5127,-0.38086 0.81299,-1.21582 z m -4.32861,-2.13134 h 4.34326 q -0.0879,-0.98145 -0.49805,-1.47217 -0.62988,-0.76172 -1.6333,-0.76172 -0.9082,0 -1.53076,0.60791 -0.61523,0.60791 -0.68115,1.62598 z m 12.39258,4.63623 v -0.98145 q -0.73975,1.15723 -2.1753,1.15723 -0.93017,0 -1.71386,-0.5127 -0.77637,-0.51269 -1.2085,-1.42822 -0.4248,-0.92285 -0.4248,-2.1167 0,-1.16455 0.38818,-2.10937 0.38818,-0.95215 1.16455,-1.45752 0.77637,-0.50538 1.73584,-0.50538 0.70313,0 1.25244,0.3003 0.54932,0.29297 0.89356,0.76904 v -3.85254 h 1.31103 v 10.73731 z m -4.16748,-3.88184 q 0,1.49414 0.62988,2.23389 0.62988,0.73974 1.48682,0.73974 0.86425,0 1.46484,-0.70312 0.60791,-0.71045 0.60791,-2.16065 0,-1.59668 -0.61523,-2.34375 -0.61524,-0.74707 -1.51612,-0.74707 -0.8789,0 -1.47217,0.71778 -0.58593,0.71777 -0.58593,2.26318 z m 7.83691,3.88184 v -1.50147 h 1.50147 v 1.50147 z"
       id="flowRoot4302-6-5"
       transform="translate(-20.000005,-70.00013)"
       aria-label="During solving, there is no I/O, RAM is relatively stable and CPU is exhausted." />
  </g>
</svg>
