<?xml version="1.0" encoding="UTF-8" standalone="no"?>
<svg
   width="800"
   height="600"
   id="svg2"
   version="1.1"
   xml:space="preserve"
   xmlns="http://www.w3.org/2000/svg"
   xmlns:svg="http://www.w3.org/2000/svg"
   xmlns:rdf="http://www.w3.org/1999/02/22-rdf-syntax-ns#"
   xmlns:cc="http://creativecommons.org/ns#"
   xmlns:dc="http://purl.org/dc/elements/1.1/"><defs
     id="defs4" /><metadata
     id="metadata7"><rdf:RDF><cc:Work
         rdf:about=""><dc:format>image/svg+xml</dc:format><dc:type
           rdf:resource="http://purl.org/dc/dcmitype/StillImage" /><dc:language>en</dc:language><cc:license
           rdf:resource="https://timefold.ai/product/license/" /></cc:Work></rdf:RDF></metadata><g
     id="layer1"
     transform="translate(0,-452.36218)"
     style="display:inline"><path
       d="m 271.97929,253.62814 v -23.5703 h -8.80468 v -3.15364 h 21.18228 v 3.15364 h -8.84114 v 23.5703 z m 15.58593,0 V 226.9042 h 3.28124 v 9.58853 q 2.29688,-2.66145 5.79687,-2.66145 2.15104,0 3.73698,0.85677 1.58594,0.83854 2.26042,2.33333 0.6927,1.49479 0.6927,4.33854 v 12.26822 h -3.28124 v -12.26822 q 0,-2.46094 -1.07552,-3.57292 -1.05729,-1.1302 -3.00781,-1.1302 -1.45834,0 -2.75261,0.76562 -1.27604,0.7474 -1.82291,2.04167 -0.54688,1.29427 -0.54688,3.57291 v 10.59114 z m 34.01559,-6.23437 3.39063,0.41927 q -0.80209,2.97135 -2.97136,4.61197 -2.16926,1.64063 -5.54166,1.64063 -4.24739,0 -6.74478,-2.60677 -2.47917,-2.625 -2.47917,-7.34635 0,-4.88541 2.51563,-7.58333 2.51562,-2.69791 6.52603,-2.69791 3.88281,0 6.34375,2.64323 2.46093,2.64322 2.46093,7.43749 0,0.29167 -0.0182,0.875 h -14.43749 q 0.1823,3.1901 1.80469,4.88541 1.6224,1.69531 4.04687,1.69531 1.80469,0 3.08073,-0.94791 1.27604,-0.94792 2.02343,-3.02604 z m -10.77342,-5.30469 h 10.80988 q -0.21875,-2.4427 -1.23958,-3.66406 -1.56771,-1.89583 -4.0651,-1.89583 -2.26041,0 -3.80989,1.51302 -1.53125,1.51302 -1.69531,4.04687 z m 35.20048,11.53906 v -23.5703 h -8.80468 v -3.15364 h 21.18228 v 3.15364 h -8.84114 v 23.5703 z m 14.21874,-22.9505 v -3.77344 h 3.28125 v 3.77344 z m 0,22.9505 v -19.35936 h 3.28125 v 19.35936 z m 8.27603,0 v -19.35936 h 2.9349 v 2.71614 q 0.91146,-1.42187 2.42448,-2.27864 1.51301,-0.875 3.4453,-0.875 2.15104,0 3.51823,0.89323 1.38542,0.89323 1.95052,2.49739 2.29687,-3.39062 5.97916,-3.39062 2.88021,0 4.42969,1.60416 1.54947,1.58594 1.54947,4.90365 v 13.28905 h -3.26301 v -12.19531 q 0,-1.96874 -0.32813,-2.82551 -0.3099,-0.875 -1.14844,-1.40365 -0.83854,-0.52864 -1.96874,-0.52864 -2.04167,0 -3.39063,1.36718 -1.34895,1.34896 -1.34895,4.33854 v 11.24739 h -3.28125 v -12.57812 q 0,-2.1875 -0.80208,-3.28125 -0.80209,-1.09374 -2.625,-1.09374 -1.38542,0 -2.57031,0.72916 -1.16667,0.72917 -1.69531,2.13281 -0.52865,1.40365 -0.52865,4.04687 v 10.04427 z m 44.35154,-6.23437 3.39062,0.41927 q -0.80208,2.97135 -2.97135,4.61197 -2.16927,1.64063 -5.54167,1.64063 -4.24739,0 -6.74478,-2.60677 -2.47917,-2.625 -2.47917,-7.34635 0,-4.88541 2.51563,-7.58333 2.51562,-2.69791 6.52603,-2.69791 3.88281,0 6.34375,2.64323 2.46093,2.64322 2.46093,7.43749 0,0.29167 -0.0182,0.875 h -14.43748 q 0.18229,3.1901 1.80468,4.88541 1.6224,1.69531 4.04687,1.69531 1.80469,0 3.08073,-0.94791 1.27604,-0.94792 2.02344,-3.02604 z m -10.77343,-5.30469 h 10.80988 q -0.21875,-2.4427 -1.23958,-3.66406 -1.56771,-1.89583 -4.0651,-1.89583 -2.26041,0 -3.80989,1.51302 -1.53125,1.51302 -1.69531,4.04687 z m 19.06769,11.53906 V 236.82086 H 418.25 v -2.55208 h 2.89844 v -2.0599 q 0,-1.95052 0.34635,-2.89843 0.47396,-1.27604 1.65885,-2.0599 1.20313,-0.80208 3.35417,-0.80208 1.38541,0 3.06249,0.32813 l -0.49218,2.86197 q -1.02083,-0.18229 -1.93229,-0.18229 -1.49479,0 -2.11458,0.63802 -0.6198,0.63802 -0.6198,2.38802 v 1.78646 h 3.77344 v 2.55208 h -3.77344 v 16.80728 z m 8.36718,-9.67968 q 0,-5.3776 2.98958,-7.96614 2.4974,-2.15104 6.08854,-2.15104 3.99218,0 6.52603,2.625 2.53386,2.60676 2.53386,7.21874 0,3.73698 -1.13021,5.88802 -1.11198,2.13281 -3.26302,3.3177 -2.13281,1.1849 -4.66666,1.1849 -4.0651,0 -6.58073,-2.60677 -2.49739,-2.60677 -2.49739,-7.51041 z m 3.37239,0 q 0,3.71874 1.6224,5.57812 1.62239,1.84114 4.08333,1.84114 2.4427,0 4.0651,-1.85937 1.62239,-1.85938 1.62239,-5.66927 0,-3.59114 -1.64062,-5.43228 -1.62239,-1.85938 -4.04687,-1.85938 -2.46094,0 -4.08333,1.84115 -1.6224,1.84114 -1.6224,5.55989 z m 18.53905,9.67968 V 226.9042 h 3.28125 v 26.72394 z m 20.92707,0 v -2.44271 q -1.84115,2.88021 -5.41406,2.88021 -2.3151,0 -4.26562,-1.27604 -1.93229,-1.27605 -3.00781,-3.55469 -1.05729,-2.29687 -1.05729,-5.26822 0,-2.89844 0.96614,-5.25 0.96615,-2.36979 2.89844,-3.6276 1.93229,-1.25781 4.3203,-1.25781 1.75,0 3.11719,0.74739 1.36719,0.72917 2.22396,1.91406 v -9.58853 h 3.26301 v 26.72394 z m -10.37239,-9.66145 q 0,3.71874 1.56771,5.55989 1.5677,1.84114 3.70051,1.84114 2.15104,0 3.64583,-1.75 1.51302,-1.76822 1.51302,-5.3776 0,-3.97395 -1.53125,-5.83332 -1.53124,-1.85938 -3.77343,-1.85938 -2.1875,0 -3.66406,1.78646 -1.45833,1.78646 -1.45833,5.63281 z m 29.73173,9.66145 v -16.80728 h -2.89844 v -2.55208 h 2.89844 v -2.0599 q 0,-1.95052 0.34635,-2.89843 0.47396,-1.27604 1.65886,-2.0599 1.20312,-0.80208 3.35416,-0.80208 1.38542,0 3.0625,0.32813 l -0.49219,2.86197 q -1.02083,-0.18229 -1.93229,-0.18229 -1.49479,0 -2.11458,0.63802 -0.61979,0.63802 -0.61979,2.38802 v 1.78646 h 3.77343 v 2.55208 h -3.77343 v 16.80728 z m 8.36718,-9.67968 q 0,-5.3776 2.98958,-7.96614 2.4974,-2.15104 6.08854,-2.15104 3.99219,0 6.52604,2.625 2.53385,2.60676 2.53385,7.21874 0,3.73698 -1.13021,5.88802 -1.11198,2.13281 -3.26302,3.3177 -2.13281,1.1849 -4.66666,1.1849 -4.0651,0 -6.58072,-2.60677 -2.4974,-2.60677 -2.4974,-7.51041 z m 3.3724,0 q 0,3.71874 1.62239,5.57812 1.6224,1.84114 4.08333,1.84114 2.44271,0 4.0651,-1.85937 1.6224,-1.85938 1.6224,-5.66927 0,-3.59114 -1.64063,-5.43228 -1.62239,-1.85938 -4.04687,-1.85938 -2.46093,0 -4.08333,1.84115 -1.62239,1.84114 -1.62239,5.55989 z m 31.24477,2.58854 3.22656,0.41927 q -0.52864,3.33593 -2.71614,5.23176 -2.16927,1.87761 -5.34114,1.87761 -3.97396,0 -6.39843,-2.58854 -2.40625,-2.60677 -2.40625,-7.45573 0,-3.13541 1.03906,-5.48697 1.03906,-2.35156 3.15364,-3.51823 2.13281,-1.18489 4.63021,-1.18489 3.15364,0 5.15885,1.60416 2.0052,1.58594 2.57031,4.52083 l -3.1901,0.49219 q -0.45573,-1.95052 -1.6224,-2.93489 -1.14843,-0.98438 -2.78906,-0.98438 -2.47916,0 -4.02864,1.78646 -1.54948,1.76823 -1.54948,5.61458 0,3.90104 1.49479,5.66926 1.49479,1.76823 3.90104,1.76823 1.93229,0 3.22656,-1.18489 1.29427,-1.1849 1.64062,-3.64583 z m 18.72135,7.09114 v -2.84375 q -2.26042,3.28125 -6.14323,3.28125 -1.71354,0 -3.20833,-0.65625 -1.47656,-0.65625 -2.20572,-1.64063 -0.71094,-1.0026 -1.00261,-2.4427 -0.20052,-0.96615 -0.20052,-3.0625 v -11.99478 h 3.28125 v 10.73697 q 0,2.57031 0.20052,3.46354 0.3099,1.29427 1.3125,2.04166 1.0026,0.72917 2.47916,0.72917 1.47657,0 2.77083,-0.7474 1.29427,-0.76562 1.82292,-2.05989 0.54687,-1.3125 0.54687,-3.79167 v -10.37238 h 3.28125 v 19.35936 z m 6.76301,-5.77864 3.24479,-0.51042 q 0.27344,1.95052 1.51302,2.98958 1.25781,1.03906 3.5,1.03906 2.26041,0 3.35416,-0.91146 1.09375,-0.92968 1.09375,-2.16926 0,-1.11198 -0.96615,-1.75 -0.67447,-0.4375 -3.35416,-1.11198 -3.60937,-0.91146 -5.01302,-1.56771 -1.38541,-0.67448 -2.11458,-1.84114 -0.71093,-1.1849 -0.71093,-2.60677 0,-1.29427 0.58333,-2.38802 0.60156,-1.11198 1.62239,-1.84114 0.76563,-0.56511 2.07813,-0.94792 1.33072,-0.40104 2.84374,-0.40104 2.27865,0 3.99219,0.65625 1.73177,0.65625 2.55208,1.78645 0.82031,1.11198 1.13021,2.98959 l -3.20833,0.43749 q -0.21875,-1.49479 -1.27605,-2.33333 -1.03906,-0.83854 -2.95312,-0.83854 -2.26041,0 -3.22656,0.7474 -0.96614,0.74739 -0.96614,1.75 0,0.63802 0.40104,1.14843 0.40104,0.52865 1.25781,0.875 0.49219,0.18229 2.89844,0.83854 3.48176,0.92969 4.84895,1.53125 1.38542,0.58333 2.16927,1.71354 0.78385,1.13021 0.78385,2.80729 0,1.64062 -0.96614,3.09896 -0.94792,1.4401 -2.7526,2.24218 -1.80469,0.78386 -4.08333,0.78386 -3.77344,0 -5.76042,-1.56771 -1.96874,-1.56771 -2.51562,-4.64843 z"
       id="flowRoot4302"
       style="fill:currentColor;text-align:center;text-anchor:middle"
       transform="translate(-20,252.36213)"
       aria-label="The Timefold focus" /><g
       id="g3709"
       transform="translate(0,19.999997)" /><flowRoot
       xml:space="preserve"
       id="flowRoot937"
       style="color:currentColor;font-style:normal;font-variant:normal;font-weight:normal;font-stretch:normal;font-size:16px;font-family:Arial;-inkscape-font-specification:Arial;text-align:center;writing-mode:lr-tb;text-anchor:middle;display:inline;overflow:visible;visibility:visible;opacity:1;vector-effect:none;fill:#a40000;fill-opacity:1;fill-rule:nonzero;stroke:#8f5902;stroke-width:3;stroke-linecap:round;stroke-linejoin:round;stroke-miterlimit:4;stroke-dasharray:none;stroke-dashoffset:0;stroke-opacity:1;marker:none;enable-background:accumulate"><flowRegion
         id="flowRegion939"><rect
           id="rect941"
           width="52.987019"
           height="116.1039"
           x="-94.285713"
           y="141.03894" /></flowRegion><flowPara
         id="flowPara943" /></flowRoot><g
       id="g2"
       transform="translate(-241.68434,-40.247633)"><path
         style="fill:#5c3566;fill-opacity:1;stroke-width:1"
         d="m 655.76991,841.86261 c -19.11731,-0.74794 -38.68772,-2.11852 -56.74681,-8.88698 -16.59123,-6.83742 -29.26007,-20.5102 -38.20101,-35.73537 -3.31322,-3.02644 -10.49037,-15.77673 -0.53738,-10.25637 7.58176,3.58031 16.12791,5.05052 24.45076,5.4591 2.00074,-2.99495 -10.01103,-7.25784 -13.08329,-10.77357 -5.27373,-2.43105 -6.53063,-9.16165 1.08708,-7.37469 4.49325,-0.60985 11.68269,3.39857 14.53402,1.5227 -3.4471,-2.27117 -13.85436,-11.13385 -3.73035,-8.59894 4.09359,1.83703 15.31111,0.19801 7.30982,-4.63434 -3.30884,-2.2729 -11.65757,-9.60443 -2.40724,-7.91665 10.00007,0.008 19.30397,4.59097 29.26071,4.71586 -6.9649,-4.16506 -15.57182,-7.9052 -20.79575,-14.7955 3.87505,-6.74387 15.13553,2.27103 21.89755,2.34668 14.06303,3.81561 47.5153,-0.12739 60.04801,8.15014 10.48554,6.23919 20.53117,14.15846 25.69946,25.53806 2.0697,5.86633 -6.50967,23.1338 -1.91043,12.96179 0.55085,-9.97132 -5.6579,-18.69485 -10.08896,-27.16737 -6.86958,-12.08189 -7.85849,-8.43419 -11.52585,-21.95682 -3.52299,-13.27671 4.52419,-29.81155 18.89127,-31.75993 9.38448,-1.34837 18.53608,6.18832 20.40118,15.22423 3.74702,4.83115 -3.57308,11.51959 1.54499,16.9862 1.69211,2.90748 2.96621,10.04362 -1.34612,4.22803 -4.38054,-6.50583 -10.50314,-11.2068 -16.8325,-15.60467 -4.42003,-9.09117 -12.16032,-0.11333 -9.24819,6.61503 0.84596,10.53682 7.04442,11.76318 12.06579,19.72909 8.21061,12.11011 17.60037,24.31011 20.11072,39.11475 2.41794,10.51858 2.81764,22.85248 -4.9583,31.34191 -7.79904,8.90579 -20.69296,7.47956 -31.28222,9.38509 -11.47485,1.45036 -23.03337,2.39594 -34.60696,2.14254 z"
         id="path20" /><path
         d="m 121.2825,244.02015 v -16.83596 h -6.28907 v -2.25261 h 15.13022 v 2.25261 h -6.31511 v 16.83596 z m 10.15626,-16.39325 v -2.69532 h 2.34375 v 2.69532 z m 0,16.39325 v -13.82814 h 2.34375 v 13.82814 z m 5.91147,0 v -13.82814 h 2.09635 v 1.9401 q 0.65105,-1.01562 1.73178,-1.6276 1.08073,-0.625 2.46094,-0.625 1.53646,0 2.51302,0.63802 0.98959,0.63802 1.39323,1.78385 1.64063,-2.42187 4.27084,-2.42187 2.05729,0 3.16407,1.14583 1.10677,1.13281 1.10677,3.50261 v 9.4922 h -2.33073 v -8.71095 q 0,-1.40625 -0.23438,-2.01823 -0.22135,-0.625 -0.82031,-1.00261 -0.59896,-0.3776 -1.40625,-0.3776 -1.45834,0 -2.42188,0.97656 -0.96354,0.96354 -0.96354,3.09896 v 8.03387 h -2.34376 v -8.98439 q 0,-1.5625 -0.57292,-2.34375 -0.57291,-0.78125 -1.875,-0.78125 -0.98958,0 -1.83594,0.52083 -0.83333,0.52084 -1.21094,1.52344 -0.3776,1.00261 -0.3776,2.89063 v 7.17449 z m 31.67972,-4.45313 2.42188,0.29948 q -0.57292,2.1224 -2.1224,3.29427 -1.54948,1.17188 -3.95834,1.17188 -3.03386,0 -4.81771,-1.86198 -1.77084,-1.87501 -1.77084,-5.24741 0,-3.48958 1.79688,-5.41667 1.79688,-1.92708 4.66146,-1.92708 2.77345,0 4.53126,1.88802 1.75781,1.88802 1.75781,5.31251 0,0.20833 -0.013,0.625 h -10.31251 q 0.13021,2.27864 1.28906,3.48958 1.15886,1.21094 2.89063,1.21094 1.28907,0 2.20053,-0.67708 0.91146,-0.67709 1.44531,-2.16146 z m -7.69532,-3.78907 h 7.72136 q -0.15625,-1.74479 -0.88541,-2.61719 -1.1198,-1.35417 -2.90365,-1.35417 -1.61459,0 -2.72136,1.08073 -1.09375,1.08073 -1.21094,2.89063 z m 13.61981,8.2422 v -12.00523 h -2.07032 v -1.82291 h 2.07032 v -1.47136 q 0,-1.39323 0.2474,-2.07032 0.33854,-0.91145 1.18489,-1.47135 0.85938,-0.57292 2.39584,-0.57292 0.98958,0 2.1875,0.23438 l -0.35156,2.04427 q -0.72917,-0.13021 -1.38021,-0.13021 -1.06771,0 -1.51042,0.45573 -0.44271,0.45573 -0.44271,1.70573 v 1.27605 h 2.69532 v 1.82291 h -2.69532 v 12.00523 z m 5.97657,-6.91407 q 0,-3.84115 2.13542,-5.69011 1.78386,-1.53646 4.34897,-1.53646 2.85156,0 4.66146,1.875 1.8099,1.86198 1.8099,5.15625 0,2.66928 -0.80729,4.20574 -0.79428,1.52344 -2.33074,2.36979 -1.52344,0.84636 -3.33333,0.84636 -2.90365,0 -4.70053,-1.86198 -1.78386,-1.86198 -1.78386,-5.36459 z m 2.40886,0 q 0,2.65625 1.15886,3.98438 1.15885,1.3151 2.91667,1.3151 1.74479,0 2.90365,-1.32812 1.15885,-1.32813 1.15885,-4.04949 0,-2.56511 -1.17187,-3.88021 -1.15886,-1.32813 -2.89063,-1.32813 -1.75782,0 -2.91667,1.31511 -1.15886,1.3151 -1.15886,3.97136 z m 13.2422,6.91407 v -19.08857 h 2.34375 v 19.08857 z m 14.94794,0 v -1.7448 q -1.31511,2.0573 -3.86719,2.0573 -1.65365,0 -3.04688,-0.91146 -1.38021,-0.91146 -2.14844,-2.53907 -0.75521,-1.64062 -0.75521,-3.76302 0,-2.07032 0.6901,-3.75001 0.69011,-1.69271 2.07032,-2.59115 1.38021,-0.89843 3.08594,-0.89843 1.25,0 2.22657,0.53385 0.97656,0.52083 1.58854,1.36719 v -6.84897 h 2.33073 v 19.08857 z m -7.40886,-6.90105 q 0,2.65625 1.11979,3.97136 1.11979,1.3151 2.64323,1.3151 1.53646,0 2.60417,-1.25 1.08073,-1.26302 1.08073,-3.84115 0,-2.83854 -1.09375,-4.16667 -1.09375,-1.32813 -2.69532,-1.32813 -1.5625,0 -2.61719,1.27605 -1.04166,1.27604 -1.04166,4.02344 z"
         id="flowRoot35"
         style="font-size:26.6667px;font-family:'Liberation Sans';-inkscape-font-specification:'Liberation Sans, Normal';text-align:center;text-anchor:middle;fill:#ffffff"
         transform="translate(484.88984,571.30813)"
         aria-label="Timefold" /></g></g><g
     id="layer2"
     style="display:inline" /><g
     id="layer3"
     style="display:inline"><g
       id="flowRoot2"
       style="font-size:37.3333px;font-family:'Liberation Sans';-inkscape-font-specification:'Liberation Sans, Normal';text-align:center;text-anchor:middle"
       transform="translate(111.42025,173.0089)"
       aria-label="Ease of Use&#10;Scalability"><path
         d="M 189.14885,253.62814 V 226.9042 h 19.3229 v 3.15364 H 192.6853 v 8.18489 h 14.78384 v 3.13542 H 192.6853 v 9.09634 h 16.40624 v 3.15365 z m 37.04163,-2.38802 q -1.82291,1.54948 -3.51822,2.1875 -1.67709,0.63802 -3.60938,0.63802 -3.1901,0 -4.90364,-1.54948 -1.71354,-1.56771 -1.71354,-3.99219 0,-1.42187 0.63802,-2.58854 0.65625,-1.18489 1.69531,-1.89583 1.05729,-0.71093 2.36979,-1.07552 0.96615,-0.25521 2.91667,-0.49218 3.97395,-0.47396 5.85155,-1.13021 0.0182,-0.67448 0.0182,-0.85677 0,-2.00521 -0.92968,-2.82552 -1.25781,-1.11198 -3.73698,-1.11198 -2.3151,0 -3.42708,0.82031 -1.09375,0.80209 -1.62239,2.86198 l -3.20833,-0.4375 q 0.4375,-2.05989 1.4401,-3.3177 1.0026,-1.27605 2.89843,-1.95052 1.89584,-0.69271 4.39323,-0.69271 2.47916,0 4.02864,0.58333 1.54948,0.58333 2.27865,1.47656 0.72916,0.875 1.02083,2.22396 0.16406,0.83854 0.16406,3.02604 v 4.37499 q 0,4.57552 0.20052,5.79687 0.21875,1.20313 0.83854,2.31511 h -3.42708 q -0.51041,-1.02084 -0.65625,-2.38802 z m -0.27344,-7.32812 q -1.78645,0.72916 -5.35937,1.23958 -2.02343,0.29167 -2.86197,0.65625 -0.83854,0.36458 -1.29427,1.07552 -0.45573,0.69271 -0.45573,1.54948 0,1.3125 0.98437,2.1875 1.00261,0.875 2.91667,0.875 1.89583,0 3.37239,-0.82032 1.47656,-0.83854 2.16927,-2.27864 0.52864,-1.11198 0.52864,-3.28125 z m 7.09115,3.9375 3.24478,-0.51042 q 0.27344,1.95052 1.51302,2.98958 1.25782,1.03906 3.5,1.03906 2.26042,0 3.35416,-0.91146 1.09375,-0.92968 1.09375,-2.16926 0,-1.11198 -0.96614,-1.75 -0.67448,-0.4375 -3.35416,-1.11198 -3.60938,-0.91146 -5.01302,-1.56771 -1.38542,-0.67448 -2.11458,-1.84114 -0.71094,-1.1849 -0.71094,-2.60677 0,-1.29427 0.58333,-2.38802 0.60156,-1.11198 1.6224,-1.84114 0.76562,-0.56511 2.07812,-0.94792 1.33073,-0.40104 2.84375,-0.40104 2.27864,0 3.99218,0.65625 1.73177,0.65625 2.55208,1.78645 0.82032,1.11198 1.13021,2.98959 l -3.20833,0.43749 q -0.21875,-1.49479 -1.27604,-2.33333 -1.03906,-0.83854 -2.95312,-0.83854 -2.26042,0 -3.22656,0.7474 -0.96615,0.74739 -0.96615,1.75 0,0.63802 0.40104,1.14843 0.40104,0.52865 1.25782,0.875 0.49218,0.18229 2.89843,0.83854 3.48177,0.92969 4.84895,1.53125 1.38542,0.58333 2.16927,1.71354 0.78386,1.13021 0.78386,2.80729 0,1.64062 -0.96615,3.09896 -0.94791,1.4401 -2.7526,2.24218 -1.80469,0.78386 -4.08333,0.78386 -3.77343,0 -5.76041,-1.56771 -1.96875,-1.56771 -2.51562,-4.64843 z m 33.23174,-0.45573 3.39062,0.41927 q -0.80208,2.97135 -2.97135,4.61197 -2.16927,1.64063 -5.54167,1.64063 -4.24739,0 -6.74478,-2.60677 -2.47917,-2.625 -2.47917,-7.34635 0,-4.88541 2.51563,-7.58333 2.51562,-2.69791 6.52603,-2.69791 3.88281,0 6.34375,2.64323 2.46093,2.64322 2.46093,7.43749 0,0.29167 -0.0182,0.875 h -14.43748 q 0.18229,3.1901 1.80468,4.88541 1.6224,1.69531 4.04687,1.69531 1.80469,0 3.08073,-0.94791 1.27604,-0.94792 2.02344,-3.02604 z m -10.77343,-5.30469 h 10.80988 q -0.21875,-2.4427 -1.23958,-3.66406 -1.5677,-1.89583 -4.0651,-1.89583 -2.26041,0 -3.80989,1.51302 -1.53125,1.51302 -1.69531,4.04687 z m 27.43487,1.85938 q 0,-5.3776 2.98958,-7.96614 2.4974,-2.15104 6.08854,-2.15104 3.99218,0 6.52603,2.625 2.53386,2.60676 2.53386,7.21874 0,3.73698 -1.13021,5.88802 -1.11198,2.13281 -3.26302,3.3177 -2.13281,1.1849 -4.66666,1.1849 -4.0651,0 -6.58072,-2.60677 -2.4974,-2.60677 -2.4974,-7.51041 z m 3.37239,0 q 0,3.71874 1.6224,5.57812 1.62239,1.84114 4.08333,1.84114 2.4427,0 4.0651,-1.85937 1.62239,-1.85938 1.62239,-5.66927 0,-3.59114 -1.64062,-5.43228 -1.62239,-1.85938 -4.04687,-1.85938 -2.46094,0 -4.08333,1.84115 -1.6224,1.84114 -1.6224,5.55989 z m 19.39582,9.67968 v -16.80728 h -2.89844 v -2.55208 h 2.89844 v -2.0599 q 0,-1.95052 0.34635,-2.89843 0.47396,-1.27604 1.65886,-2.0599 1.20312,-0.80208 3.35416,-0.80208 1.38541,0 3.0625,0.32813 l -0.49219,2.86197 q -1.02083,-0.18229 -1.93229,-0.18229 -1.49479,0 -2.11458,0.63802 -0.61979,0.63802 -0.61979,2.38802 v 1.78646 h 3.77343 v 2.55208 h -3.77343 v 16.80728 z m 37.91664,-26.72394 h 3.53646 v 15.44009 q 0,4.02864 -0.91146,6.39843 -0.91146,2.36979 -3.29948,3.86458 -2.36979,1.47657 -6.23437,1.47657 -3.7552,0 -6.14322,-1.29427 -2.38802,-1.29427 -3.40885,-3.73698 -1.02084,-2.46094 -1.02084,-6.70833 V 226.9042 h 3.53646 v 15.42186 q 0,3.48177 0.63802,5.14062 0.65625,1.64063 2.22396,2.53386 1.58593,0.89322 3.86458,0.89322 3.90103,0 5.55989,-1.76822 1.65885,-1.76823 1.65885,-6.79948 z m 7.69269,20.9453 3.24479,-0.51042 q 0.27344,1.95052 1.51302,2.98958 1.25781,1.03906 3.5,1.03906 2.26041,0 3.35416,-0.91146 1.09375,-0.92968 1.09375,-2.16926 0,-1.11198 -0.96614,-1.75 -0.67448,-0.4375 -3.35417,-1.11198 -3.60937,-0.91146 -5.01301,-1.56771 -1.38542,-0.67448 -2.11458,-1.84114 -0.71094,-1.1849 -0.71094,-2.60677 0,-1.29427 0.58333,-2.38802 0.60156,-1.11198 1.6224,-1.84114 0.76562,-0.56511 2.07812,-0.94792 1.33073,-0.40104 2.84375,-0.40104 2.27864,0 3.99218,0.65625 1.73177,0.65625 2.55208,1.78645 0.82031,1.11198 1.13021,2.98959 l -3.20833,0.43749 q -0.21875,-1.49479 -1.27604,-2.33333 -1.03906,-0.83854 -2.95312,-0.83854 -2.26042,0 -3.22656,0.7474 -0.96615,0.74739 -0.96615,1.75 0,0.63802 0.40104,1.14843 0.40104,0.52865 1.25781,0.875 0.49219,0.18229 2.89844,0.83854 3.48177,0.92969 4.84895,1.53125 1.38542,0.58333 2.16927,1.71354 0.78386,1.13021 0.78386,2.80729 0,1.64062 -0.96615,3.09896 -0.94792,1.4401 -2.7526,2.24218 -1.80469,0.78386 -4.08333,0.78386 -3.77344,0 -5.76041,-1.56771 -1.96875,-1.56771 -2.51563,-4.64843 z m 33.23175,-0.45573 3.39062,0.41927 q -0.80208,2.97135 -2.97135,4.61197 -2.16927,1.64063 -5.54166,1.64063 -4.24739,0 -6.74478,-2.60677 -2.47917,-2.625 -2.47917,-7.34635 0,-4.88541 2.51562,-7.58333 2.51563,-2.69791 6.52604,-2.69791 3.88281,0 6.34374,2.64323 2.46094,2.64322 2.46094,7.43749 0,0.29167 -0.0182,0.875 h -14.43749 q 0.18229,3.1901 1.80469,4.88541 1.62239,1.69531 4.04687,1.69531 1.80469,0 3.08073,-0.94791 1.27604,-0.94792 2.02343,-3.02604 z m -10.77343,-5.30469 h 10.80989 q -0.21875,-2.4427 -1.23958,-3.66406 -1.56771,-1.89583 -4.0651,-1.89583 -2.26042,0 -3.80989,1.51302 -1.53125,1.51302 -1.69532,4.04687 z"
         id="path1" /><path
         d="m 205.51862,291.70883 3.33594,-0.29166 q 0.23698,2.0052 1.09375,3.29947 0.875,1.27604 2.69791,2.07813 1.82292,0.78385 4.10156,0.78385 2.02344,0 3.57292,-0.60156 1.54947,-0.60157 2.29687,-1.64063 0.76562,-1.05729 0.76562,-2.29687 0,-1.25781 -0.72916,-2.1875 -0.72917,-0.94791 -2.40625,-1.58593 -1.07552,-0.41927 -4.75781,-1.29427 -3.68229,-0.89323 -5.15885,-1.67709 -1.91406,-1.0026 -2.86198,-2.47916 -0.92968,-1.49479 -0.92968,-3.33593 0,-2.02344 1.14843,-3.77344 1.14844,-1.76823 3.35417,-2.67968 2.20572,-0.91146 4.90364,-0.91146 2.97135,0 5.23177,0.96614 2.27864,0.94792 3.49999,2.80729 1.22136,1.85938 1.3125,4.21094 l -3.39062,0.2552 q -0.27344,-2.53385 -1.85937,-3.82812 -1.56771,-1.29427 -4.64844,-1.29427 -3.20833,0 -4.68489,1.1849 -1.45833,1.16666 -1.45833,2.82552 0,1.4401 1.03906,2.36979 1.02083,0.92968 5.32291,1.91406 4.32031,0.96614 5.92448,1.69531 2.33333,1.07552 3.44531,2.73437 1.11197,1.64062 1.11197,3.79166 0,2.13281 -1.22135,4.02865 -1.22135,1.8776 -3.51823,2.93489 -2.27864,1.03906 -5.14062,1.03906 -3.6276,0 -6.08853,-1.05729 -2.44271,-1.05729 -3.84635,-3.17187 -1.38542,-2.13281 -1.45834,-4.8125 z m 38.31768,1.49479 3.22656,0.41927 q -0.52865,3.33594 -2.71614,5.23177 -2.16927,1.8776 -5.34114,1.8776 -3.97396,0 -6.39844,-2.58854 -2.40624,-2.60677 -2.40624,-7.45572 0,-3.13541 1.03906,-5.48697 1.03906,-2.35157 3.15364,-3.51823 2.13281,-1.1849 4.6302,-1.1849 3.15365,0 5.15885,1.60417 2.00521,1.58594 2.57031,4.52083 l -3.1901,0.49219 q -0.45573,-1.95052 -1.62239,-2.9349 -1.14844,-0.98437 -2.78906,-0.98437 -2.47917,0 -4.02864,1.78646 -1.54948,1.76822 -1.54948,5.61457 0,3.90104 1.49479,5.66927 1.49479,1.76823 3.90104,1.76823 1.93229,0 3.22656,-1.1849 1.29427,-1.18489 1.64062,-3.64583 z m 18.66665,4.70312 q -1.82291,1.54948 -3.51822,2.1875 -1.67709,0.63802 -3.60938,0.63802 -3.1901,0 -4.90364,-1.54948 -1.71354,-1.5677 -1.71354,-3.99218 0,-1.42187 0.63802,-2.58854 0.65625,-1.18489 1.69531,-1.89583 1.05729,-0.71094 2.36979,-1.07552 0.96615,-0.25521 2.91667,-0.49219 3.97395,-0.47396 5.85156,-1.13021 0.0182,-0.67447 0.0182,-0.85677 0,-2.0052 -0.92968,-2.82551 -1.25781,-1.11198 -3.73698,-1.11198 -2.3151,0 -3.42708,0.82031 -1.09375,0.80208 -1.62239,2.86198 l -3.20833,-0.4375 q 0.4375,-2.0599 1.4401,-3.31771 1.0026,-1.27604 2.89843,-1.95052 1.89584,-0.69271 4.39323,-0.69271 2.47916,0 4.02864,0.58334 1.54948,0.58333 2.27865,1.47656 0.72916,0.875 1.02083,2.22395 0.16406,0.83855 0.16406,3.02604 v 4.375 q 0,4.57552 0.20052,5.79687 0.21875,1.20312 0.83854,2.3151 h -3.42708 q -0.51041,-1.02083 -0.65625,-2.38802 z m -0.27343,-7.32812 q -1.78646,0.72917 -5.35937,1.23959 -2.02344,0.29166 -2.86198,0.65625 -0.83854,0.36458 -1.29427,1.07552 -0.45573,0.6927 -0.45573,1.54947 0,1.3125 0.98437,2.1875 1.00261,0.875 2.91667,0.875 1.89583,0 3.37239,-0.82031 1.47656,-0.83854 2.16927,-2.27864 0.52865,-1.11198 0.52865,-3.28125 z m 8.33071,9.71614 v -26.72393 h 3.28125 v 26.72393 z m 20.99999,-2.38802 q -1.82292,1.54948 -3.51823,2.1875 -1.67708,0.63802 -3.60937,0.63802 -3.1901,0 -4.90364,-1.54948 -1.71354,-1.5677 -1.71354,-3.99218 0,-1.42187 0.63802,-2.58854 0.65625,-1.18489 1.69531,-1.89583 1.05729,-0.71094 2.36979,-1.07552 0.96615,-0.25521 2.91666,-0.49219 3.97396,-0.47396 5.85156,-1.13021 0.0182,-0.67447 0.0182,-0.85677 0,-2.0052 -0.92969,-2.82551 -1.25781,-1.11198 -3.73697,-1.11198 -2.3151,0 -3.42708,0.82031 -1.09375,0.80208 -1.6224,2.86198 l -3.20833,-0.4375 q 0.4375,-2.0599 1.44011,-3.31771 1.0026,-1.27604 2.89843,-1.95052 1.89583,-0.69271 4.39323,-0.69271 2.47916,0 4.02864,0.58334 1.54948,0.58333 2.27864,1.47656 0.72917,0.875 1.02083,2.22395 0.16407,0.83855 0.16407,3.02604 v 4.375 q 0,4.57552 0.20052,5.79687 0.21875,1.20312 0.83854,2.3151 h -3.42708 q -0.51042,-1.02083 -0.65625,-2.38802 z m -0.27344,-7.32812 q -1.78646,0.72917 -5.35937,1.23959 -2.02343,0.29166 -2.86198,0.65625 -0.83854,0.36458 -1.29427,1.07552 -0.45572,0.6927 -0.45572,1.54947 0,1.3125 0.98437,2.1875 1.0026,0.875 2.91666,0.875 1.89584,0 3.3724,-0.82031 1.47656,-0.83854 2.16927,-2.27864 0.52864,-1.11198 0.52864,-3.28125 z m 11.42968,9.71614 h -3.04427 v -26.72393 h 3.28125 v 9.53384 q 2.07812,-2.60677 5.30468,-2.60677 1.78646,0 3.37239,0.72917 1.60417,0.71094 2.625,2.02344 1.03906,1.29427 1.62239,3.13541 0.58334,1.84114 0.58334,3.9375 0,4.97656 -2.46094,7.6927 -2.46093,2.71614 -5.90624,2.71614 -3.42708,0 -5.3776,-2.86197 z m -0.0365,-9.82551 q 0,3.48177 0.94791,5.03125 1.54948,2.53385 4.19271,2.53385 2.15104,0 3.71875,-1.85938 1.5677,-1.8776 1.5677,-5.57812 0,-3.79166 -1.51302,-5.59635 -1.49479,-1.80468 -3.6276,-1.80468 -2.15104,0 -3.71874,1.8776 -1.56771,1.85937 -1.56771,5.39583 z m 17.79165,-13.12499 v -3.77343 h 3.28124 v 3.77343 z m 0,22.9505 V 280.9354 h 3.28124 v 19.35936 z m 8.20312,0 v -26.72393 h 3.28124 v 26.72393 z m 8.38541,-22.9505 v -3.77343 h 3.28125 v 3.77343 z m 0,22.9505 V 280.9354 h 3.28125 v 19.35936 z m 15.44009,-2.93489 0.47396,2.89843 q -1.38542,0.29167 -2.47916,0.29167 -1.78646,0 -2.77084,-0.5651 -0.98437,-0.56511 -1.38541,-1.47656 -0.40104,-0.92969 -0.40104,-3.88281 v -11.13801 h -2.40625 v -2.55209 h 2.40625 v -4.79426 l 3.26302,-1.96875 v 6.76301 h 3.29947 v 2.55209 h -3.29947 v 11.3203 q 0,1.40364 0.16406,1.80468 0.18229,0.40105 0.5651,0.63802 0.40104,0.23698 1.13021,0.23698 0.54687,0 1.4401,-0.1276 z m 3.0625,10.39062 -0.36458,-3.08073 q 1.07552,0.29167 1.8776,0.29167 1.09375,0 1.75,-0.36459 0.65625,-0.36458 1.07552,-1.02083 0.3099,-0.49219 1.0026,-2.44271 0.0912,-0.27343 0.29167,-0.80208 l -7.34635,-19.39582 h 3.53646 l 4.02864,11.21093 q 0.78385,2.13281 1.40365,4.48437 0.5651,-2.26041 1.34895,-4.41145 l 4.13802,-11.28385 h 3.28125 l -7.36458,19.68749 q -1.18489,3.1901 -1.84114,4.39322 -0.875,1.6224 -2.00521,2.36979 -1.13021,0.76563 -2.69792,0.76563 -0.94791,0 -2.11458,-0.40104 z"
         id="path2" /></g></g></svg>
