<?xml version="1.0" encoding="UTF-8" standalone="no"?>
<!-- Created with Inkscape (http://www.inkscape.org/) -->

<svg
   id="svg2"
   width="156"
   height="156"
   version="1.0"
   xmlns="http://www.w3.org/2000/svg"
   xmlns:svg="http://www.w3.org/2000/svg"
   xmlns:rdf="http://www.w3.org/1999/02/22-rdf-syntax-ns#"
   xmlns:cc="http://creativecommons.org/ns#"
   xmlns:dc="http://purl.org/dc/elements/1.1/">
  <metadata
     id="metadata7">
    <rdf:RDF>
      <cc:Work
         rdf:about="">
        <dc:format>image/svg+xml</dc:format>
        <dc:type
           rdf:resource="http://purl.org/dc/dcmitype/StillImage" />
        <dc:language>en</dc:language>
        <cc:license
           rdf:resource="https://timefold.ai/product/license/" />
      </cc:Work>
    </rdf:RDF>
  </metadata>
  <defs
     id="defs5" />
  <g
     id="layer11">
    <g
       id="g8089"
       transform="translate(-79.5,-811.86218)">
      <rect
         y="921.86218"
         x="100.5"
         height="30"
         width="30"
         id="rect2165"
         style="fill: #E5E5E6;fill-opacity:1;fill-rule:nonzero;stroke: #E5E5E6;stroke-width:1;stroke-linecap:round;stroke-linejoin:round;stroke-miterlimit:4;stroke-dasharray:none;stroke-opacity:1" /> rx="5" ry="5"
      <rect
         y="921.86218"
         x="130.5"
         height="30"
         width="30"
         id="rect4107"
         style="fill:#ffffff;fill-opacity:1;fill-rule:nonzero;stroke: currentColor;stroke-width:1;stroke-linecap:round;stroke-linejoin:round;stroke-miterlimit:4;stroke-dasharray:none;stroke-opacity:1" /> rx="5" ry="5" rx="5" ry="5"
      <rect
         y="921.86218"
         x="160.5"
         height="30"
         width="30"
         id="rect5078"
         style="fill: #E5E5E6;fill-opacity:1;fill-rule:nonzero;stroke: #E5E5E6;stroke-width:1;stroke-linecap:round;stroke-linejoin:round;stroke-miterlimit:4;stroke-dasharray:none;stroke-opacity:1" /> rx="5" ry="5"
      <rect
         y="921.86218"
         x="190.5"
         height="30"
         width="30"
         id="rect5080"
         style="fill:#ffffff;fill-opacity:1;fill-rule:nonzero;stroke: currentColor;stroke-width:1;stroke-linecap:round;stroke-linejoin:round;stroke-miterlimit:4;stroke-dasharray:none;stroke-opacity:1" /> rx="5" ry="5" rx="5" ry="5"
      <rect
         y="891.86218"
         x="130.5"
         height="30"
         width="30"
         id="rect5082"
         style="fill: #E5E5E6;fill-opacity:1;fill-rule:nonzero;stroke: #E5E5E6;stroke-width:1;stroke-linecap:round;stroke-linejoin:round;stroke-miterlimit:4;stroke-dasharray:none;stroke-opacity:1" /> rx="5" ry="5"
      <rect
         y="891.86218"
         x="160.5"
         height="30"
         width="30"
         id="rect5084"
         style="fill:#ffffff;fill-opacity:1;fill-rule:nonzero;stroke: currentColor;stroke-width:1;stroke-linecap:round;stroke-linejoin:round;stroke-miterlimit:4;stroke-dasharray:none;stroke-opacity:1" /> rx="5" ry="5" rx="5" ry="5"
      <rect
         y="891.86218"
         x="100.5"
         height="30"
         width="30"
         id="rect5086"
         style="fill:#ffffff;fill-opacity:1;fill-rule:nonzero;stroke: currentColor;stroke-width:1;stroke-linecap:round;stroke-linejoin:round;stroke-miterlimit:4;stroke-dasharray:none;stroke-opacity:1" /> rx="5" ry="5" rx="5" ry="5"
      <rect
         y="891.86218"
         x="190.5"
         height="30"
         width="30"
         id="rect5088"
         style="fill: #E5E5E6;fill-opacity:1;fill-rule:nonzero;stroke: #E5E5E6;stroke-width:1;stroke-linecap:round;stroke-linejoin:round;stroke-miterlimit:4;stroke-dasharray:none;stroke-opacity:1" /> rx="5" ry="5"
      <rect
         y="861.86218"
         x="100.5"
         height="30"
         width="30"
         id="rect5090"
         style="fill: #E5E5E6;fill-opacity:1;fill-rule:nonzero;stroke: #E5E5E6;stroke-width:1;stroke-linecap:round;stroke-linejoin:round;stroke-miterlimit:4;stroke-dasharray:none;stroke-opacity:1" /> rx="5" ry="5"
      <rect
         y="861.86218"
         x="130.5"
         height="30"
         width="30"
         id="rect5092"
         style="fill:#ffffff;fill-opacity:1;fill-rule:nonzero;stroke: currentColor;stroke-width:1;stroke-linecap:round;stroke-linejoin:round;stroke-miterlimit:4;stroke-dasharray:none;stroke-opacity:1" /> rx="5" ry="5" rx="5" ry="5"
      <rect
         y="861.86218"
         x="160.5"
         height="30"
         width="30"
         id="rect5094"
         style="fill: #E5E5E6;fill-opacity:1;fill-rule:nonzero;stroke: #E5E5E6;stroke-width:1;stroke-linecap:round;stroke-linejoin:round;stroke-miterlimit:4;stroke-dasharray:none;stroke-opacity:1" /> rx="5" ry="5"
      <rect
         y="861.86218"
         x="190.5"
         height="30"
         width="30"
         id="rect5096"
         style="fill:#ffffff;fill-opacity:1;fill-rule:nonzero;stroke: currentColor;stroke-width:1;stroke-linecap:round;stroke-linejoin:round;stroke-miterlimit:4;stroke-dasharray:none;stroke-opacity:1" /> rx="5" ry="5" rx="5" ry="5"
      <rect
         y="831.86218"
         x="130.5"
         height="30"
         width="30"
         id="rect5098"
         style="fill: #E5E5E6;fill-opacity:1;fill-rule:nonzero;stroke: #E5E5E6;stroke-width:1;stroke-linecap:round;stroke-linejoin:round;stroke-miterlimit:4;stroke-dasharray:none;stroke-opacity:1" /> rx="5" ry="5"
      <rect
         y="831.86218"
         x="160.5"
         height="30"
         width="30"
         id="rect5100"
         style="fill:#ffffff;fill-opacity:1;fill-rule:nonzero;stroke: currentColor;stroke-width:1;stroke-linecap:round;stroke-linejoin:round;stroke-miterlimit:4;stroke-dasharray:none;stroke-opacity:1" /> rx="5" ry="5" rx="5" ry="5"
      <rect
         y="831.86218"
         x="100.5"
         height="30"
         width="30"
         id="rect5102"
         style="fill:#ffffff;fill-opacity:1;fill-rule:nonzero;stroke: currentColor;stroke-width:1;stroke-linecap:round;stroke-linejoin:round;stroke-miterlimit:4;stroke-dasharray:none;stroke-opacity:1" /> rx="5" ry="5" rx="5" ry="5"
      <rect
         y="831.86218"
         x="190.5"
         height="30"
         width="30"
         id="rect5104"
         style="fill: #E5E5E6;fill-opacity:1;fill-rule:nonzero;stroke: #E5E5E6;stroke-width:1;stroke-linecap:round;stroke-linejoin:round;stroke-miterlimit:4;stroke-dasharray:none;stroke-opacity:1" /> rx="5" ry="5"
    </g>
    <circle
       style="fill:#ef2929;fill-opacity:1;fill-rule:nonzero;stroke:#a40000;stroke-width:1;stroke-linecap:round;stroke-linejoin:round;stroke-miterlimit:4;stroke-dasharray:none;stroke-opacity:1"
       id="path5169"
       cx="36"
       cy="65"
       r="12" />
    <circle
       id="path3430"
       style="fill:#ef2929;fill-opacity:1;fill-rule:nonzero;stroke:#a40000;stroke-width:1;stroke-linecap:round;stroke-linejoin:round;stroke-miterlimit:4;stroke-dasharray:none;stroke-opacity:1"
       cx="126"
       cy="35.000019"
       r="12" />
    <g
       id="g2236"
       transform="translate(-79.5,-811.86218)">
      <path
         id="path2249"
         d="m 101.06653,847.36213 46.19398,0 72.59054,0 0,0"
         style="fill:none;fill-opacity:0.75;fill-rule:evenodd;stroke:#a40000;stroke-width:1px;stroke-linecap:round;stroke-linejoin:round;stroke-opacity:1" />
      <path
         id="path3221"
         d="m 145.00005,831.86632 0,46.66343 0,73.32823 0,0"
         style="fill:none;fill-opacity:0.75;fill-rule:evenodd;stroke:#a40000;stroke-width:1px;stroke-linecap:round;stroke-linejoin:round;stroke-opacity:1" />
      <path
         id="path3223"
         d="m 130.50005,832.86214 c 88.99999,88.99999 88.99999,88.99999 88.99999,88.99999"
         style="fill:none;fill-opacity:0.75;fill-rule:evenodd;stroke:#a40000;stroke-width:0.99999994px;stroke-linecap:round;stroke-linejoin:round;stroke-opacity:1" />
      <path
         id="path4198"
         d="M 100.5,891.86218 C 159.5,832.86218 159.5,832.86218 159.5,832.86218 L 159.5,832.86218"
         style="fill:none;fill-opacity:0.75000000000000000;fill-rule:evenodd;stroke:#a40000;stroke-width:1px;stroke-linecap:round;stroke-linejoin:round;stroke-opacity:1" />
    </g>
    <g
       id="g8107"
       transform="translate(-29.5,-821.86218)">
      <rect
         y="871.86218"
         x="50.5"
         height="30"
         width="30"
         id="rect8109"
         style="fill:none;fill-opacity:1;fill-rule:nonzero;stroke:currentColor;stroke-width:1;stroke-linecap:round;stroke-linejoin:round;stroke-miterlimit:4;stroke-dasharray:none;stroke-opacity:1" />
      <path
         id="path8111"
         d="M 65,894.0583 L 60.259168,881.36218 L 60,894.31116 L 62.432525,894.86218 L 65,894.0583 z"
         style="fill: #F5B200;fill-opacity:1;fill-rule:nonzero;stroke: #F5B200;stroke-width:0.99999994000000003;stroke-linecap:round;stroke-linejoin:round;stroke-miterlimit:4;stroke-opacity:1" /> rx="5" ry="5"
      <path
         id="path8113"
         d="M 66,894.0583 L 70.740832,881.36218 L 71,894.31116 L 68.567475,894.86218 L 66,894.0583 z"
         style="fill: #F5B200;fill-opacity:1;fill-rule:nonzero;stroke: #F5B200;stroke-width:0.99999994000000003;stroke-linecap:round;stroke-linejoin:round;stroke-miterlimit:4;stroke-opacity:1" /> rx="5" ry="5"
      <path
         id="path8115"
         d="M 62,894.04086 L 55,882.86218 L 56.843843,894.29921 L 59.352339,894.86218 L 62,894.04086 z"
         style="fill: #F5B200;fill-opacity:1;fill-rule:nonzero;stroke: #F5B200;stroke-width:0.99999994000000003;stroke-linecap:round;stroke-linejoin:round;stroke-miterlimit:4;stroke-opacity:1" /> rx="5" ry="5"
      <path
         id="path8117"
         d="M 69,894.04086 L 76,882.86218 L 74.156157,894.29921 L 71.647661,894.86218 L 69,894.04086 z"
         style="fill: #F5B200;fill-opacity:1;fill-rule:nonzero;stroke: #F5B200;stroke-width:0.99999994000000003;stroke-linecap:round;stroke-linejoin:round;stroke-miterlimit:4;stroke-opacity:1" /> rx="5" ry="5"
      <path
         transform="matrix(0.3254386,0,0,0.2248485,49.68421,684.2765)"
         d="m 37.843667,874.30286 a 6.1455526,8.8948793 0 0 1 -6.145553,8.89488 6.1455526,8.8948793 0 0 1 -6.145552,-8.89488 6.1455526,8.8948793 0 0 1 6.145552,-8.89488 6.1455526,8.8948793 0 0 1 6.145553,8.89488 z"
         id="path8119"
         style="fill: #F5B200;fill-opacity:1;fill-rule:nonzero;stroke: #F5B200;stroke-width:3.69675325999999993;stroke-linecap:round;stroke-linejoin:round;stroke-miterlimit:4;stroke-dasharray:none;stroke-opacity:1" /> rx="5" ry="5"
      <path
         transform="matrix(0.3254386,0,0,0.2248485,60.68421,684.2765)"
         d="m 37.843667,874.30286 a 6.1455526,8.8948793 0 0 1 -6.145553,8.89488 6.1455526,8.8948793 0 0 1 -6.145552,-8.89488 6.1455526,8.8948793 0 0 1 6.145552,-8.89488 6.1455526,8.8948793 0 0 1 6.145553,8.89488 z"
         id="path8121"
         style="fill: #F5B200;fill-opacity:1;fill-rule:nonzero;stroke: #F5B200;stroke-width:3.69675325999999993;stroke-linecap:round;stroke-linejoin:round;stroke-miterlimit:4;stroke-dasharray:none;stroke-opacity:1" /> rx="5" ry="5"
      <path
         transform="matrix(0.3254386,0,0,0.2248485,44.18421,686.2765)"
         d="m 37.843667,874.30286 a 6.1455526,8.8948793 0 0 1 -6.145553,8.89488 6.1455526,8.8948793 0 0 1 -6.145552,-8.89488 6.1455526,8.8948793 0 0 1 6.145552,-8.89488 6.1455526,8.8948793 0 0 1 6.145553,8.89488 z"
         id="path8123"
         style="fill: #F5B200;fill-opacity:1;fill-rule:nonzero;stroke: #F5B200;stroke-width:3.69675325999999993;stroke-linecap:round;stroke-linejoin:round;stroke-miterlimit:4;stroke-dasharray:none;stroke-opacity:1" /> rx="5" ry="5"
      <path
         transform="matrix(0.3254386,0,0,0.2248485,66.18421,686.2765)"
         d="m 37.843667,874.30286 a 6.1455526,8.8948793 0 0 1 -6.145553,8.89488 6.1455526,8.8948793 0 0 1 -6.145552,-8.89488 6.1455526,8.8948793 0 0 1 6.145552,-8.89488 6.1455526,8.8948793 0 0 1 6.145553,8.89488 z"
         id="path8125"
         style="fill: #F5B200;fill-opacity:1;fill-rule:nonzero;stroke: #F5B200;stroke-width:3.69675325999999993;stroke-linecap:round;stroke-linejoin:round;stroke-miterlimit:4;stroke-dasharray:none;stroke-opacity:1" /> rx="5" ry="5"
      <path
         id="path8127"
         d="M 68.000002,894.0957 L 65.506898,880.86221 L 63.000002,893.8597 L 65.368588,894.86221 L 68.000002,894.0957 z"
         style="fill: #F5B200;fill-opacity:1;fill-rule:nonzero;stroke: #F5B200;stroke-width:1;stroke-linecap:round;stroke-linejoin:round;stroke-miterlimit:4;stroke-opacity:1" /> rx="5" ry="5"
      <path
         transform="matrix(0.3254386,0,0,0.2248485,55.18421,683.2765)"
         d="m 37.843667,874.30286 a 6.1455526,8.8948793 0 0 1 -6.145553,8.89488 6.1455526,8.8948793 0 0 1 -6.145552,-8.89488 6.1455526,8.8948793 0 0 1 6.145552,-8.89488 6.1455526,8.8948793 0 0 1 6.145553,8.89488 z"
         id="path8129"
         style="fill: #F5B200;fill-opacity:1;fill-rule:nonzero;stroke: #F5B200;stroke-width:3.69675325999999993;stroke-linecap:round;stroke-linejoin:round;stroke-miterlimit:4;stroke-dasharray:none;stroke-opacity:1" /> rx="5" ry="5"
      <path
         transform="matrix(0.9454765,0,0,1.2119233,18.553015,-205.05171)"
         d="m 59.702156,907.57715 a 10.047844,1.6502695 0 0 1 -10.047844,1.65027 10.047844,1.6502695 0 0 1 -10.047844,-1.65027 10.047844,1.6502695 0 0 1 10.047844,-1.65027 10.047844,1.6502695 0 0 1 10.047844,1.65027 z"
         id="path8131"
         style="fill: #F5B200;fill-opacity:1;fill-rule:nonzero;stroke: #F5B200;stroke-width:0.93419403000000001;stroke-linecap:round;stroke-linejoin:round;stroke-miterlimit:4;stroke-dasharray:none;stroke-opacity:1" /> rx="5" ry="5"
    </g>
    <g
       id="g8133"
       transform="translate(60.5,-851.86218)">
      <rect
         y="871.86218"
         x="50.5"
         height="30"
         width="30"
         id="rect8135"
         style="fill:none;fill-opacity:1;fill-rule:nonzero;stroke:currentColor;stroke-width:1;stroke-linecap:round;stroke-linejoin:round;stroke-miterlimit:4;stroke-dasharray:none;stroke-opacity:1" />
      <path
         id="path8137"
         d="M 65,894.0583 L 60.259168,881.36218 L 60,894.31116 L 62.432525,894.86218 L 65,894.0583 z"
         style="fill: #F5B200;fill-opacity:1;fill-rule:nonzero;stroke: #F5B200;stroke-width:0.99999994000000003;stroke-linecap:round;stroke-linejoin:round;stroke-miterlimit:4;stroke-opacity:1" /> rx="5" ry="5"
      <path
         id="path8139"
         d="M 66,894.0583 L 70.740832,881.36218 L 71,894.31116 L 68.567475,894.86218 L 66,894.0583 z"
         style="fill: #F5B200;fill-opacity:1;fill-rule:nonzero;stroke: #F5B200;stroke-width:0.99999994000000003;stroke-linecap:round;stroke-linejoin:round;stroke-miterlimit:4;stroke-opacity:1" /> rx="5" ry="5"
      <path
         id="path8141"
         d="M 62,894.04086 L 55,882.86218 L 56.843843,894.29921 L 59.352339,894.86218 L 62,894.04086 z"
         style="fill: #F5B200;fill-opacity:1;fill-rule:nonzero;stroke: #F5B200;stroke-width:0.99999994000000003;stroke-linecap:round;stroke-linejoin:round;stroke-miterlimit:4;stroke-opacity:1" /> rx="5" ry="5"
      <path
         id="path8143"
         d="M 69,894.04086 L 76,882.86218 L 74.156157,894.29921 L 71.647661,894.86218 L 69,894.04086 z"
         style="fill: #F5B200;fill-opacity:1;fill-rule:nonzero;stroke: #F5B200;stroke-width:0.99999994000000003;stroke-linecap:round;stroke-linejoin:round;stroke-miterlimit:4;stroke-opacity:1" /> rx="5" ry="5"
      <path
         transform="matrix(0.3254386,0,0,0.2248485,49.68421,684.2765)"
         d="m 37.843667,874.30286 a 6.1455526,8.8948793 0 0 1 -6.145553,8.89488 6.1455526,8.8948793 0 0 1 -6.145552,-8.89488 6.1455526,8.8948793 0 0 1 6.145552,-8.89488 6.1455526,8.8948793 0 0 1 6.145553,8.89488 z"
         id="path8145"
         style="fill: #F5B200;fill-opacity:1;fill-rule:nonzero;stroke: #F5B200;stroke-width:3.69675325999999993;stroke-linecap:round;stroke-linejoin:round;stroke-miterlimit:4;stroke-dasharray:none;stroke-opacity:1" /> rx="5" ry="5"
      <path
         transform="matrix(0.3254386,0,0,0.2248485,60.68421,684.2765)"
         d="m 37.843667,874.30286 a 6.1455526,8.8948793 0 0 1 -6.145553,8.89488 6.1455526,8.8948793 0 0 1 -6.145552,-8.89488 6.1455526,8.8948793 0 0 1 6.145552,-8.89488 6.1455526,8.8948793 0 0 1 6.145553,8.89488 z"
         id="path8147"
         style="fill: #F5B200;fill-opacity:1;fill-rule:nonzero;stroke: #F5B200;stroke-width:3.69675325999999993;stroke-linecap:round;stroke-linejoin:round;stroke-miterlimit:4;stroke-dasharray:none;stroke-opacity:1" /> rx="5" ry="5"
      <path
         transform="matrix(0.3254386,0,0,0.2248485,44.18421,686.2765)"
         d="m 37.843667,874.30286 a 6.1455526,8.8948793 0 0 1 -6.145553,8.89488 6.1455526,8.8948793 0 0 1 -6.145552,-8.89488 6.1455526,8.8948793 0 0 1 6.145552,-8.89488 6.1455526,8.8948793 0 0 1 6.145553,8.89488 z"
         id="path8149"
         style="fill: #F5B200;fill-opacity:1;fill-rule:nonzero;stroke: #F5B200;stroke-width:3.69675325999999993;stroke-linecap:round;stroke-linejoin:round;stroke-miterlimit:4;stroke-dasharray:none;stroke-opacity:1" /> rx="5" ry="5"
      <path
         transform="matrix(0.3254386,0,0,0.2248485,66.18421,686.2765)"
         d="m 37.843667,874.30286 a 6.1455526,8.8948793 0 0 1 -6.145553,8.89488 6.1455526,8.8948793 0 0 1 -6.145552,-8.89488 6.1455526,8.8948793 0 0 1 6.145552,-8.89488 6.1455526,8.8948793 0 0 1 6.145553,8.89488 z"
         id="path8151"
         style="fill: #F5B200;fill-opacity:1;fill-rule:nonzero;stroke: #F5B200;stroke-width:3.69675325999999993;stroke-linecap:round;stroke-linejoin:round;stroke-miterlimit:4;stroke-dasharray:none;stroke-opacity:1" /> rx="5" ry="5"
      <path
         id="path8153"
         d="M 68.000002,894.0957 L 65.506898,880.86221 L 63.000002,893.8597 L 65.368588,894.86221 L 68.000002,894.0957 z"
         style="fill: #F5B200;fill-opacity:1;fill-rule:nonzero;stroke: #F5B200;stroke-width:1;stroke-linecap:round;stroke-linejoin:round;stroke-miterlimit:4;stroke-opacity:1" /> rx="5" ry="5"
      <path
         transform="matrix(0.3254386,0,0,0.2248485,55.18421,683.2765)"
         d="m 37.843667,874.30286 a 6.1455526,8.8948793 0 0 1 -6.145553,8.89488 6.1455526,8.8948793 0 0 1 -6.145552,-8.89488 6.1455526,8.8948793 0 0 1 6.145552,-8.89488 6.1455526,8.8948793 0 0 1 6.145553,8.89488 z"
         id="path8155"
         style="fill: #F5B200;fill-opacity:1;fill-rule:nonzero;stroke: #F5B200;stroke-width:3.69675325999999993;stroke-linecap:round;stroke-linejoin:round;stroke-miterlimit:4;stroke-dasharray:none;stroke-opacity:1" /> rx="5" ry="5"
      <path
         transform="matrix(0.9454765,0,0,1.2119233,18.553015,-205.05171)"
         d="m 59.702156,907.57715 a 10.047844,1.6502695 0 0 1 -10.047844,1.65027 10.047844,1.6502695 0 0 1 -10.047844,-1.65027 10.047844,1.6502695 0 0 1 10.047844,-1.65027 10.047844,1.6502695 0 0 1 10.047844,1.65027 z"
         id="path8157"
         style="fill: #F5B200;fill-opacity:1;fill-rule:nonzero;stroke: #F5B200;stroke-width:0.93419403000000001;stroke-linecap:round;stroke-linejoin:round;stroke-miterlimit:4;stroke-dasharray:none;stroke-opacity:1" /> rx="5" ry="5"
    </g>
    <g
       id="g8159"
       transform="translate(30.5,-791.86218)">
      <rect
         y="871.86218"
         x="50.5"
         height="30"
         width="30"
         id="rect8161"
         style="fill:none;fill-opacity:1;fill-rule:nonzero;stroke:currentColor;stroke-width:1;stroke-linecap:round;stroke-linejoin:round;stroke-miterlimit:4;stroke-dasharray:none;stroke-opacity:1" />
      <path
         id="path8163"
         d="M 65,894.0583 L 60.259168,881.36218 L 60,894.31116 L 62.432525,894.86218 L 65,894.0583 z"
         style="fill: #F5B200;fill-opacity:1;fill-rule:nonzero;stroke: #F5B200;stroke-width:0.99999994000000003;stroke-linecap:round;stroke-linejoin:round;stroke-miterlimit:4;stroke-opacity:1" /> rx="5" ry="5"
      <path
         id="path8165"
         d="M 66,894.0583 L 70.740832,881.36218 L 71,894.31116 L 68.567475,894.86218 L 66,894.0583 z"
         style="fill: #F5B200;fill-opacity:1;fill-rule:nonzero;stroke: #F5B200;stroke-width:0.99999994000000003;stroke-linecap:round;stroke-linejoin:round;stroke-miterlimit:4;stroke-opacity:1" /> rx="5" ry="5"
      <path
         id="path8167"
         d="M 62,894.04086 L 55,882.86218 L 56.843843,894.29921 L 59.352339,894.86218 L 62,894.04086 z"
         style="fill: #F5B200;fill-opacity:1;fill-rule:nonzero;stroke: #F5B200;stroke-width:0.99999994000000003;stroke-linecap:round;stroke-linejoin:round;stroke-miterlimit:4;stroke-opacity:1" /> rx="5" ry="5"
      <path
         id="path8169"
         d="M 69,894.04086 L 76,882.86218 L 74.156157,894.29921 L 71.647661,894.86218 L 69,894.04086 z"
         style="fill: #F5B200;fill-opacity:1;fill-rule:nonzero;stroke: #F5B200;stroke-width:0.99999994000000003;stroke-linecap:round;stroke-linejoin:round;stroke-miterlimit:4;stroke-opacity:1" /> rx="5" ry="5"
      <path
         transform="matrix(0.3254386,0,0,0.2248485,49.68421,684.2765)"
         d="m 37.843667,874.30286 a 6.1455526,8.8948793 0 0 1 -6.145553,8.89488 6.1455526,8.8948793 0 0 1 -6.145552,-8.89488 6.1455526,8.8948793 0 0 1 6.145552,-8.89488 6.1455526,8.8948793 0 0 1 6.145553,8.89488 z"
         id="path8171"
         style="fill: #F5B200;fill-opacity:1;fill-rule:nonzero;stroke: #F5B200;stroke-width:3.69675325999999993;stroke-linecap:round;stroke-linejoin:round;stroke-miterlimit:4;stroke-dasharray:none;stroke-opacity:1" /> rx="5" ry="5"
      <path
         transform="matrix(0.3254386,0,0,0.2248485,60.68421,684.2765)"
         d="m 37.843667,874.30286 a 6.1455526,8.8948793 0 0 1 -6.145553,8.89488 6.1455526,8.8948793 0 0 1 -6.145552,-8.89488 6.1455526,8.8948793 0 0 1 6.145552,-8.89488 6.1455526,8.8948793 0 0 1 6.145553,8.89488 z"
         id="path8173"
         style="fill: #F5B200;fill-opacity:1;fill-rule:nonzero;stroke: #F5B200;stroke-width:3.69675325999999993;stroke-linecap:round;stroke-linejoin:round;stroke-miterlimit:4;stroke-dasharray:none;stroke-opacity:1" /> rx="5" ry="5"
      <path
         transform="matrix(0.3254386,0,0,0.2248485,44.18421,686.2765)"
         d="m 37.843667,874.30286 a 6.1455526,8.8948793 0 0 1 -6.145553,8.89488 6.1455526,8.8948793 0 0 1 -6.145552,-8.89488 6.1455526,8.8948793 0 0 1 6.145552,-8.89488 6.1455526,8.8948793 0 0 1 6.145553,8.89488 z"
         id="path8175"
         style="fill: #F5B200;fill-opacity:1;fill-rule:nonzero;stroke: #F5B200;stroke-width:3.69675325999999993;stroke-linecap:round;stroke-linejoin:round;stroke-miterlimit:4;stroke-dasharray:none;stroke-opacity:1" /> rx="5" ry="5"
      <path
         transform="matrix(0.3254386,0,0,0.2248485,66.18421,686.2765)"
         d="m 37.843667,874.30286 a 6.1455526,8.8948793 0 0 1 -6.145553,8.89488 6.1455526,8.8948793 0 0 1 -6.145552,-8.89488 6.1455526,8.8948793 0 0 1 6.145552,-8.89488 6.1455526,8.8948793 0 0 1 6.145553,8.89488 z"
         id="path8177"
         style="fill: #F5B200;fill-opacity:1;fill-rule:nonzero;stroke: #F5B200;stroke-width:3.69675325999999993;stroke-linecap:round;stroke-linejoin:round;stroke-miterlimit:4;stroke-dasharray:none;stroke-opacity:1" /> rx="5" ry="5"
      <path
         id="path8179"
         d="M 68.000002,894.0957 L 65.506898,880.86221 L 63.000002,893.8597 L 65.368588,894.86221 L 68.000002,894.0957 z"
         style="fill: #F5B200;fill-opacity:1;fill-rule:nonzero;stroke: #F5B200;stroke-width:1;stroke-linecap:round;stroke-linejoin:round;stroke-miterlimit:4;stroke-opacity:1" /> rx="5" ry="5"
      <path
         transform="matrix(0.3254386,0,0,0.2248485,55.18421,683.2765)"
         d="m 37.843667,874.30286 a 6.1455526,8.8948793 0 0 1 -6.145553,8.89488 6.1455526,8.8948793 0 0 1 -6.145552,-8.89488 6.1455526,8.8948793 0 0 1 6.145552,-8.89488 6.1455526,8.8948793 0 0 1 6.145553,8.89488 z"
         id="path8181"
         style="fill: #F5B200;fill-opacity:1;fill-rule:nonzero;stroke: #F5B200;stroke-width:3.69675325999999993;stroke-linecap:round;stroke-linejoin:round;stroke-miterlimit:4;stroke-dasharray:none;stroke-opacity:1" /> rx="5" ry="5"
      <path
         transform="matrix(0.9454765,0,0,1.2119233,18.553015,-205.05171)"
         d="m 59.702156,907.57715 a 10.047844,1.6502695 0 0 1 -10.047844,1.65027 10.047844,1.6502695 0 0 1 -10.047844,-1.65027 10.047844,1.6502695 0 0 1 10.047844,-1.65027 10.047844,1.6502695 0 0 1 10.047844,1.65027 z"
         id="path8183"
         style="fill: #F5B200;fill-opacity:1;fill-rule:nonzero;stroke: #F5B200;stroke-width:0.93419403000000001;stroke-linecap:round;stroke-linejoin:round;stroke-miterlimit:4;stroke-dasharray:none;stroke-opacity:1" /> rx="5" ry="5"
    </g>
    <g
       id="g8075"
       transform="translate(0.5,-851.86218)">
      <rect
         y="871.86218"
         x="50.5"
         height="30"
         width="30"
         id="rect5126"
         style="fill:none;fill-opacity:1;fill-rule:nonzero;stroke:currentColor;stroke-width:1;stroke-linecap:round;stroke-linejoin:round;stroke-miterlimit:4;stroke-dasharray:none;stroke-opacity:1" />
      <path
         id="path8065"
         d="M 65,894.0583 L 60.259168,881.36218 L 60,894.31116 L 62.432525,894.86218 L 65,894.0583 z"
         style="fill: #F5B200;fill-opacity:1;fill-rule:nonzero;stroke: #F5B200;stroke-width:0.99999994000000003;stroke-linecap:round;stroke-linejoin:round;stroke-miterlimit:4;stroke-opacity:1" /> rx="5" ry="5"
      <path
         id="path8069"
         d="M 66,894.0583 L 70.740832,881.36218 L 71,894.31116 L 68.567475,894.86218 L 66,894.0583 z"
         style="fill: #F5B200;fill-opacity:1;fill-rule:nonzero;stroke: #F5B200;stroke-width:0.99999994000000003;stroke-linecap:round;stroke-linejoin:round;stroke-miterlimit:4;stroke-opacity:1" /> rx="5" ry="5"
      <path
         id="path8071"
         d="M 62,894.04086 L 55,882.86218 L 56.843843,894.29921 L 59.352339,894.86218 L 62,894.04086 z"
         style="fill: #F5B200;fill-opacity:1;fill-rule:nonzero;stroke: #F5B200;stroke-width:0.99999994000000003;stroke-linecap:round;stroke-linejoin:round;stroke-miterlimit:4;stroke-opacity:1" /> rx="5" ry="5"
      <path
         id="path8073"
         d="M 69,894.04086 L 76,882.86218 L 74.156157,894.29921 L 71.647661,894.86218 L 69,894.04086 z"
         style="fill: #F5B200;fill-opacity:1;fill-rule:nonzero;stroke: #F5B200;stroke-width:0.99999994000000003;stroke-linecap:round;stroke-linejoin:round;stroke-miterlimit:4;stroke-opacity:1" /> rx="5" ry="5"
      <path
         transform="matrix(0.3254386,0,0,0.2248485,49.68421,684.2765)"
         d="m 37.843667,874.30286 a 6.1455526,8.8948793 0 0 1 -6.145553,8.89488 6.1455526,8.8948793 0 0 1 -6.145552,-8.89488 6.1455526,8.8948793 0 0 1 6.145552,-8.89488 6.1455526,8.8948793 0 0 1 6.145553,8.89488 z"
         id="path8037"
         style="fill: #F5B200;fill-opacity:1;fill-rule:nonzero;stroke: #F5B200;stroke-width:3.69675325999999993;stroke-linecap:round;stroke-linejoin:round;stroke-miterlimit:4;stroke-dasharray:none;stroke-opacity:1" /> rx="5" ry="5"
      <path
         transform="matrix(0.3254386,0,0,0.2248485,60.68421,684.2765)"
         d="m 37.843667,874.30286 a 6.1455526,8.8948793 0 0 1 -6.145553,8.89488 6.1455526,8.8948793 0 0 1 -6.145552,-8.89488 6.1455526,8.8948793 0 0 1 6.145552,-8.89488 6.1455526,8.8948793 0 0 1 6.145553,8.89488 z"
         id="path8039"
         style="fill: #F5B200;fill-opacity:1;fill-rule:nonzero;stroke: #F5B200;stroke-width:3.69675325999999993;stroke-linecap:round;stroke-linejoin:round;stroke-miterlimit:4;stroke-dasharray:none;stroke-opacity:1" /> rx="5" ry="5"
      <path
         transform="matrix(0.3254386,0,0,0.2248485,44.18421,686.2765)"
         d="m 37.843667,874.30286 a 6.1455526,8.8948793 0 0 1 -6.145553,8.89488 6.1455526,8.8948793 0 0 1 -6.145552,-8.89488 6.1455526,8.8948793 0 0 1 6.145552,-8.89488 6.1455526,8.8948793 0 0 1 6.145553,8.89488 z"
         id="path8041"
         style="fill: #F5B200;fill-opacity:1;fill-rule:nonzero;stroke: #F5B200;stroke-width:3.69675325999999993;stroke-linecap:round;stroke-linejoin:round;stroke-miterlimit:4;stroke-dasharray:none;stroke-opacity:1" /> rx="5" ry="5"
      <path
         transform="matrix(0.3254386,0,0,0.2248485,66.18421,686.2765)"
         d="m 37.843667,874.30286 a 6.1455526,8.8948793 0 0 1 -6.145553,8.89488 6.1455526,8.8948793 0 0 1 -6.145552,-8.89488 6.1455526,8.8948793 0 0 1 6.145552,-8.89488 6.1455526,8.8948793 0 0 1 6.145553,8.89488 z"
         id="path8043"
         style="fill: #F5B200;fill-opacity:1;fill-rule:nonzero;stroke: #F5B200;stroke-width:3.69675325999999993;stroke-linecap:round;stroke-linejoin:round;stroke-miterlimit:4;stroke-dasharray:none;stroke-opacity:1" /> rx="5" ry="5"
      <path
         id="path8061"
         d="M 68.000002,894.0957 L 65.506898,880.86221 L 63.000002,893.8597 L 65.368588,894.86221 L 68.000002,894.0957 z"
         style="fill: #F5B200;fill-opacity:1;fill-rule:nonzero;stroke: #F5B200;stroke-width:1;stroke-linecap:round;stroke-linejoin:round;stroke-miterlimit:4;stroke-opacity:1" /> rx="5" ry="5"
      <path
         transform="matrix(0.3254386,0,0,0.2248485,55.18421,683.2765)"
         d="m 37.843667,874.30286 a 6.1455526,8.8948793 0 0 1 -6.145553,8.89488 6.1455526,8.8948793 0 0 1 -6.145552,-8.89488 6.1455526,8.8948793 0 0 1 6.145552,-8.89488 6.1455526,8.8948793 0 0 1 6.145553,8.89488 z"
         id="path5124"
         style="fill: #F5B200;fill-opacity:1;fill-rule:nonzero;stroke: #F5B200;stroke-width:3.69675325999999993;stroke-linecap:round;stroke-linejoin:round;stroke-miterlimit:4;stroke-dasharray:none;stroke-opacity:1" /> rx="5" ry="5"
      <path
         transform="matrix(0.9454765,0,0,1.2119233,18.553015,-205.05171)"
         d="m 59.702156,907.57715 a 10.047844,1.6502695 0 0 1 -10.047844,1.65027 10.047844,1.6502695 0 0 1 -10.047844,-1.65027 10.047844,1.6502695 0 0 1 10.047844,-1.65027 10.047844,1.6502695 0 0 1 10.047844,1.65027 z"
         id="path5128"
         style="fill: #F5B200;fill-opacity:1;fill-rule:nonzero;stroke: #F5B200;stroke-width:0.93419403000000001;stroke-linecap:round;stroke-linejoin:round;stroke-miterlimit:4;stroke-dasharray:none;stroke-opacity:1" /> rx="5" ry="5"
    </g>
    <g
       id="g3220"
       transform="translate(-79.5,-811.86218)" />
    <g
       id="g3277"
       transform="translate(-79.5,-811.86218)">
      <path
         transform="scale(1.0397801,0.9617418)"
         style="font-size:14.26302528px;font-style:normal;font-weight:normal;opacity:0.09090899;fill:currentColor;fill-opacity:1;stroke:none;stroke-width:1px;stroke-linecap:butt;stroke-linejoin:miter;stroke-opacity:1;font-family:Bitstream Vera Sans"
         d=""
         id="text3304" />
      <path
         style="font-size:14.26302528px;font-style:normal;font-weight:normal;opacity:0.09090899;fill:currentColor;fill-opacity:1;stroke:none;stroke-width:1px;stroke-linecap:butt;stroke-linejoin:miter;stroke-opacity:1;font-family:Bitstream Vera Sans"
         d=""
         id="text3324"
         transform="scale(1.0397801,0.9617418)" />
    </g>
    <g
       id="g5308"
       transform="translate(-79.5,-811.86218)">
      <path
         style="fill:currentColor;line-height:1.25;stroke-width:1px"
         d="m 114.79683,864.33582 h -1.47642 l -1.0216,-2.90387 h -4.50624 l -1.0216,2.90387 h -1.40645 l 3.79251,-10.41893 h 1.84728 z m -2.92486,-4.09341 -1.82628,-5.115 -1.83329,5.115 z"
         id="text2242"
         transform="scale(1.0446886,0.9572231)"
         aria-label="A" />
      <path
         style="fill:currentColor;line-height:1.25;stroke-width:1px"
         d="m 126.83185,978.73327 q 0,0.88277 -0.33402,1.55876 -0.33402,0.67599 -0.89867,1.1134 -0.66804,0.52488 -1.47128,0.74756 -0.79528,0.22268 -2.02797,0.22268 h -4.19909 v -11.84176 h 3.50719 q 1.29632,0 1.9405,0.0954 0.64417,0.0954 1.23268,0.39764 0.65214,0.34197 0.94639,0.88276 0.29426,0.53284 0.29426,1.28041 0,0.843 -0.42946,1.43946 -0.42945,0.58851 -1.1452,0.94639 v 0.0636 q 1.20087,0.24654 1.89277,1.05773 0.6919,0.80324 0.6919,2.03592 z m -2.6483,-5.33635 q 0,-0.42945 -0.14315,-0.7237 -0.14315,-0.29426 -0.46126,-0.47717 -0.37379,-0.21473 -0.90663,-0.26245 -0.53284,-0.0557 -1.32017,-0.0557 h -1.87686 v 3.41972 h 2.03592 q 0.73961,0 1.17702,-0.0716 0.43741,-0.0795 0.81119,-0.31812 0.37378,-0.23858 0.52489,-0.61237 0.15905,-0.38173 0.15905,-0.89867 z m 1.01001,5.39998 q 0,-0.71576 -0.21472,-1.13726 -0.21473,-0.4215 -0.77938,-0.71575 -0.38174,-0.19882 -0.93048,-0.25449 -0.5408,-0.0636 -1.32017,-0.0636 h -2.47333 v 4.40587 h 2.08364 q 1.03387,0 1.69395,-0.10338 0.66009,-0.11134 1.08159,-0.39765 0.44536,-0.31016 0.65213,-0.7078 0.20677,-0.39764 0.20677,-1.02591 z"
         id="text3336"
         transform="scale(1.1873587,0.8422055)"
         aria-label="B" />
      <path
         style="fill:currentColor;line-height:1.25;stroke-width:1px"
         d="m 158.9208,937.44031 q -0.40273,0.17574 -0.73225,0.32951 -0.32219,0.15377 -0.84941,0.32219 -0.44667,0.13913 -0.97389,0.23432 -0.5199,0.10252 -1.14964,0.10252 -1.18624,0 -2.16014,-0.32952 -0.96657,-0.33683 -1.68417,-1.04711 -0.70296,-0.69564 -1.09838,-1.76473 -0.39542,-1.07641 -0.39542,-2.49697 0,-1.34735 0.38077,-2.40911 0.38078,-1.06176 1.09838,-1.79402 0.69564,-0.71028 1.67686,-1.08373 0.98853,-0.37344 2.18943,-0.37344 0.8787,0 1.75008,0.21235 0.8787,0.21235 1.94778,0.74689 v 1.72079 h -0.10983 q -0.90067,-0.75421 -1.7867,-1.09837 -0.88602,-0.34416 -1.89653,-0.34416 -0.82744,0 -1.49379,0.27093 -0.65902,0.26361 -1.17892,0.82745 -0.50526,0.54918 -0.79083,1.39127 -0.27826,0.83477 -0.27826,1.93315 0,1.14963 0.30755,1.97707 0.31486,0.82745 0.80547,1.34734 0.51258,0.54187 1.19357,0.80548 0.68832,0.25629 1.44986,0.25629 1.04712,0 1.96243,-0.3588 0.91532,-0.35881 1.71347,-1.07641 h 0.10251 z"
         id="text3344"
         transform="scale(1.1342596,0.8816324)"
         aria-label="C" />
      <path
         style="fill:currentColor;line-height:1.25;stroke-width:1px"
         d="m 192.5503,896.98164 q 0,1.48301 -0.65019,2.68842 -0.64288,1.2054 -1.71678,1.8702 -0.74516,0.46024 -1.66565,0.66479 -0.91318,0.20456 -2.4108,0.20456 h -2.74686 v -10.87785 h 2.71763 q 1.5926,0 2.5277,0.23378 0.9424,0.22647 1.59259,0.62827 1.11043,0.69402 1.73139,1.84828 0.62097,1.15427 0.62097,2.73955 z m -1.51223,-0.0219 q 0,-1.27846 -0.44564,-2.15512 -0.44563,-0.87665 -1.32959,-1.38073 -0.64288,-0.36527 -1.36612,-0.50408 -0.72325,-0.14611 -1.7314,-0.14611 h -1.35882 v 8.39399 h 1.35882 q 1.04468,0 1.81906,-0.15342 0.78169,-0.15341 1.43187,-0.56982 0.81091,-0.51869 1.21271,-1.36613 0.40911,-0.84743 0.40911,-2.11858 z"
         id="text3348"
         transform="scale(1.0907069,0.9168366)"
         aria-label="D" />
      <g
         transform="translate(0.4999876,-0.5000605)"
         id="g4074">
        <path
           style="fill:currentColor;line-height:1.25;stroke-width:1px"
           d="m 77.133985,1038.7546 q 0,3.1716 -0.996563,4.6585 -0.988654,1.4791 -3.07669,1.4791 -2.119673,0 -3.100417,-1.5028 -0.972835,-1.5027 -0.972835,-4.619 0,-3.1399 0.988653,-4.6348 0.988654,-1.5027 3.084599,-1.5027 2.119673,0 3.092508,1.5264 0.980745,1.5186 0.980745,4.5953 z m -2.080127,3.5908 q 0.276823,-0.6407 0.371733,-1.5028 0.10282,-0.87 0.10282,-2.088 0,-1.2022 -0.10282,-2.088 -0.09491,-0.8859 -0.379643,-1.5028 -0.276823,-0.609 -0.759286,-0.9175 -0.474553,-0.3084 -1.22593,-0.3084 -0.743467,0 -1.233839,0.3084 -0.482463,0.3085 -0.767196,0.9333 -0.268913,0.5853 -0.371733,1.5265 -0.09491,0.9412 -0.09491,2.0643 0,1.2339 0.087,2.0643 0.087,0.8305 0.371734,1.487 0.261005,0.6169 0.735558,0.9412 0.482463,0.3242 1.273386,0.3242 0.743468,0 1.23384,-0.3084 0.490372,-0.3085 0.759286,-0.9333 z"
           id="text3352"
           transform="scale(1.2251409,0.8162327)"
           aria-label="0" />
        <path
           style="fill:currentColor;line-height:1.25;stroke-width:1px"
           d="m 72.660518,1144.1229 h -6.996064 v -1.3193 h 2.690794 v -8.6627 h -2.690794 v -1.1804 q 0.546838,0 1.171797,-0.087 0.624959,-0.096 0.946118,-0.2691 0.399279,-0.217 0.624958,-0.5468 0.23436,-0.3386 0.26908,-0.9028 h 1.345397 v 11.6486 h 2.638714 z"
           id="text3356"
           transform="scale(1.2959246,0.7716499)"
           aria-label="1" />
        <path
           style="fill:currentColor;line-height:1.25;stroke-width:1px"
           d="m 75.2213,1155.9114 h -8.397161 v -1.7411 q 0.874704,-0.7497 1.749408,-1.4995 0.883035,-0.7497 1.641112,-1.4912 1.59946,-1.5494 2.190926,-2.4575 0.591467,-0.9163 0.591467,-1.9743 0,-0.9663 -0.64145,-1.5078 -0.633119,-0.5498 -1.7744,-0.5498 -0.758077,0 -1.641112,0.2665 -0.883035,0.2666 -1.724417,0.8164 h -0.0833 v -1.7494 q 0.591467,-0.2915 1.574468,-0.5331 0.991331,-0.2416 1.916019,-0.2416 1.907688,0 2.990655,0.9247 1.082968,0.9163 1.082968,2.4908 0,0.7081 -0.183272,1.3246 -0.174941,0.6081 -0.524822,1.1579 -0.32489,0.5165 -0.766408,1.0163 -0.433187,0.4999 -1.057976,1.108 -0.891365,0.8747 -1.841044,1.6994 -0.949679,0.8164 -1.7744,1.5162 H 75.2213 Z"
           id="text3360"
           transform="scale(1.2662496,0.7897337)"
           aria-label="2" />
        <path
           style="fill:currentColor;line-height:1.25;stroke-width:1px"
           d="m 75.195396,1166.1773 q 0.392822,0.3519 0.646519,0.8838 0.253698,0.532 0.253698,1.3749 0,0.8347 -0.3028,1.5304 -0.302801,0.6956 -0.851114,1.2112 -0.613785,0.5728 -1.448531,0.8511 -0.826563,0.27 -1.816801,0.27 -1.01479,0 -1.996845,-0.2455 -0.982055,-0.2373 -1.612207,-0.5237 v -1.7104 h 0.122757 q 0.695622,0.4582 1.636758,0.761 0.941136,0.3028 1.816801,0.3028 0.515579,0 1.096628,-0.1718 0.581049,-0.1719 0.941136,-0.5074 0.376454,-0.3601 0.556498,-0.7938 0.188227,-0.4338 0.188227,-1.0967 0,-0.6547 -0.212779,-1.0802 -0.204594,-0.4338 -0.572865,-0.6793 -0.368271,-0.2537 -0.892033,-0.3437 -0.523763,-0.098 -1.129363,-0.098 h -0.736541 v -1.3585 h 0.572865 q 1.243936,0 1.980477,-0.5156 0.744725,-0.5238 0.744725,-1.5222 0,-0.4419 -0.188227,-0.7693 -0.188227,-0.3355 -0.523763,-0.5483 -0.351903,-0.2127 -0.752908,-0.2946 -0.401006,-0.082 -0.908401,-0.082 -0.77746,0 -1.653125,0.2782 -0.875666,0.2783 -1.653126,0.7857 h -0.08184 v -1.7104 q 0.581049,-0.2865 1.546737,-0.5238 0.97387,-0.2455 1.882271,-0.2455 0.892033,0 1.571288,0.1637 0.679254,0.1636 1.227568,0.5237 0.589233,0.3928 0.892033,0.9493 0.3028,0.5565 0.3028,1.3013 0,1.0148 -0.720173,1.7758 -0.71199,0.753 -1.685861,0.9494 v 0.1145 q 0.392822,0.066 0.900217,0.2783 0.507395,0.2046 0.859298,0.5156 z"
           id="text3364"
           transform="scale(1.2430621,0.804465)"
           aria-label="3" />
      </g>
    </g>
  </g>
</svg>
