<?xml version="1.0" encoding="UTF-8" standalone="no"?>
<svg
   width="800"
   height="600"
   id="svg2"
   version="1.1"
   xml:space="preserve"
   xmlns="http://www.w3.org/2000/svg"
   xmlns:svg="http://www.w3.org/2000/svg"
   xmlns:rdf="http://www.w3.org/1999/02/22-rdf-syntax-ns#"
   xmlns:cc="http://creativecommons.org/ns#"
   xmlns:dc="http://purl.org/dc/elements/1.1/"><defs
     id="defs4" /><metadata
     id="metadata7"><rdf:RDF><cc:Work
         rdf:about=""><dc:format>image/svg+xml</dc:format><dc:type
           rdf:resource="http://purl.org/dc/dcmitype/StillImage" /><dc:language>en</dc:language><cc:license
           rdf:resource="https://timefold.ai/product/license/" /></cc:Work></rdf:RDF></metadata><g
     id="layer1"
     transform="translate(0,-378.8106)"
     style="display:inline"><path
       style="font-size:37.3333px;font-family:Arial;-inkscape-font-specification:Arial;text-align:center;text-anchor:middle"
       d="M 101.89221,253.62814 V 226.9042 h 11.84895 q 3.57291,0 5.43228,0.72917 1.85938,0.71093 2.97136,2.53385 1.11197,1.82291 1.11197,4.02864 0,2.84375 -1.84114,4.79427 -1.84114,1.95052 -5.6875,2.47916 1.40365,0.67448 2.13282,1.33073 1.54947,1.42187 2.93489,3.55469 l 4.64843,7.27343 h -4.44791 l -3.53646,-5.55989 q -1.54947,-2.40625 -2.55208,-3.68229 -1.0026,-1.27604 -1.80468,-1.78646 -0.78386,-0.51042 -1.60417,-0.71094 -0.60156,-0.1276 -1.96875,-0.1276 h -4.10156 v 11.86718 z m 3.53645,-14.92968 h 7.60156 q 2.42448,0 3.79166,-0.49219 1.36719,-0.51041 2.07813,-1.60416 0.71093,-1.11198 0.71093,-2.40625 0,-1.89583 -1.38541,-3.11718 -1.36719,-1.22136 -4.33854,-1.22136 h -8.45833 z m 36.2031,8.69531 3.39062,0.41927 q -0.80208,2.97135 -2.97135,4.61197 -2.16927,1.64063 -5.54166,1.64063 -4.2474,0 -6.74479,-2.60677 -2.47916,-2.625 -2.47916,-7.34635 0,-4.88541 2.51562,-7.58333 2.51562,-2.69791 6.52604,-2.69791 3.8828,0 6.34374,2.64323 2.46094,2.64322 2.46094,7.43749 0,0.29167 -0.0182,0.875 h -14.43749 q 0.18229,3.1901 1.80468,4.88541 1.6224,1.69531 4.04688,1.69531 1.80468,0 3.08072,-0.94791 1.27604,-0.94792 2.02344,-3.02604 z m -10.77343,-5.30469 h 10.80989 q -0.21875,-2.4427 -1.23959,-3.66406 -1.5677,-1.89583 -4.0651,-1.89583 -2.26041,0 -3.80989,1.51302 -1.53125,1.51302 -1.69531,4.04687 z m 30.62497,18.95832 v -9.47916 q -0.76562,1.07552 -2.15104,1.78646 -1.36718,0.71094 -2.91666,0.71094 -3.44531,0 -5.94271,-2.75261 -2.47916,-2.7526 -2.47916,-7.54686 0,-2.91667 1.0026,-5.23177 1.02084,-2.3151 2.9349,-3.5 1.93229,-1.20312 4.22916,-1.20312 3.59114,0 5.65104,3.02604 v -2.58854 h 2.95312 v 26.77862 z m -10.11718,-17.15363 q 0,3.73698 1.56771,5.61458 1.56771,1.85937 3.7552,1.85937 2.09636,0 3.60938,-1.76823 1.51302,-1.78645 1.51302,-5.41405 0,-3.86458 -1.60417,-5.8151 -1.58594,-1.95052 -3.73697,-1.95052 -2.13282,0 -3.62761,1.82291 -1.47656,1.80469 -1.47656,5.65104 z m 31.22654,9.73437 v -2.84375 q -2.26041,3.28125 -6.14322,3.28125 -1.71354,0 -3.20833,-0.65625 -1.47656,-0.65625 -2.20573,-1.64063 -0.71094,-1.0026 -1.0026,-2.4427 -0.20052,-0.96615 -0.20052,-3.0625 v -11.99478 h 3.28124 v 10.73697 q 0,2.57031 0.20053,3.46354 0.30989,1.29427 1.31249,2.04166 1.00261,0.72917 2.47917,0.72917 1.47656,0 2.77083,-0.7474 1.29427,-0.76562 1.82292,-2.05989 0.54687,-1.3125 0.54687,-3.79167 v -10.37238 h 3.28125 v 19.35936 z m 8.09374,-22.9505 v -3.77344 h 3.28125 v 3.77344 z m 0,22.9505 v -19.35936 h 3.28125 v 19.35936 z m 8.23958,0 v -19.35936 h 2.95312 v 2.93489 q 1.13021,-2.05989 2.07813,-2.71614 0.96614,-0.65625 2.11458,-0.65625 1.65885,0 3.37239,1.05729 l -1.1302,3.04427 q -1.20313,-0.71094 -2.40625,-0.71094 -1.07552,0 -1.93229,0.65625 -0.85677,0.63802 -1.22136,1.78646 -0.54687,1.75 -0.54687,3.82812 v 10.13541 z m 25.72133,-6.23437 3.39063,0.41927 q -0.80209,2.97135 -2.97135,4.61197 -2.16927,1.64063 -5.54167,1.64063 -4.24739,0 -6.74478,-2.60677 -2.47917,-2.625 -2.47917,-7.34635 0,-4.88541 2.51563,-7.58333 2.51562,-2.69791 6.52603,-2.69791 3.88281,0 6.34375,2.64323 2.46093,2.64322 2.46093,7.43749 0,0.29167 -0.0182,0.875 H 213.6916 q 0.18229,3.1901 1.80468,4.88541 1.6224,1.69531 4.04687,1.69531 1.80469,0 3.08073,-0.94791 1.27604,-0.94792 2.02343,-3.02604 z m -10.77342,-5.30469 h 10.80988 q -0.21875,-2.4427 -1.23958,-3.66406 -1.56771,-1.89583 -4.0651,-1.89583 -2.26041,0 -3.80989,1.51302 -1.53125,1.51302 -1.69531,4.04687 z m 30.84372,11.53906 v -2.44271 q -1.84115,2.88021 -5.41406,2.88021 -2.3151,0 -4.26562,-1.27604 -1.93229,-1.27605 -3.00781,-3.55469 -1.05729,-2.29687 -1.05729,-5.26822 0,-2.89844 0.96614,-5.25 0.96615,-2.36979 2.89844,-3.6276 1.93229,-1.25781 4.32031,-1.25781 1.75,0 3.11718,0.74739 1.36719,0.72917 2.22396,1.91406 v -9.58853 h 3.26302 v 26.72394 z m -10.37239,-9.66145 q 0,3.71874 1.56771,5.55989 1.5677,1.84114 3.70052,1.84114 2.15104,0 3.64583,-1.75 1.51302,-1.76822 1.51302,-5.3776 0,-3.97395 -1.53125,-5.83332 -1.53125,-1.85938 -3.77344,-1.85938 -2.1875,0 -3.66406,1.78646 -1.45833,1.78646 -1.45833,5.63281 z m 41.5807,2.57031 3.22656,0.41927 q -0.52865,3.33593 -2.71615,5.23176 -2.16927,1.87761 -5.34114,1.87761 -3.97395,0 -6.39843,-2.58854 -2.40625,-2.60677 -2.40625,-7.45573 0,-3.13541 1.03906,-5.48697 1.03906,-2.35156 3.15365,-3.51823 2.13281,-1.18489 4.6302,-1.18489 3.15364,0 5.15885,1.60416 2.00521,1.58594 2.57031,4.52083 l -3.1901,0.49219 q -0.45573,-1.95052 -1.6224,-2.93489 -1.14843,-0.98438 -2.78906,-0.98438 -2.47916,0 -4.02864,1.78646 -1.54948,1.76823 -1.54948,5.61458 0,3.90104 1.49479,5.66926 1.49479,1.76823 3.90104,1.76823 1.93229,0 3.22656,-1.18489 1.29427,-1.1849 1.64063,-3.64583 z m 4.81248,-2.58854 q 0,-5.3776 2.98958,-7.96614 2.4974,-2.15104 6.08854,-2.15104 3.99218,0 6.52604,2.625 2.53385,2.60676 2.53385,7.21874 0,3.73698 -1.13021,5.88802 -1.11198,2.13281 -3.26302,3.3177 -2.13281,1.1849 -4.66666,1.1849 -4.0651,0 -6.58072,-2.60677 -2.4974,-2.60677 -2.4974,-7.51041 z m 3.37239,0 q 0,3.71874 1.6224,5.57812 1.62239,1.84114 4.08333,1.84114 2.44271,0 4.0651,-1.85937 1.62239,-1.85938 1.62239,-5.66927 0,-3.59114 -1.64062,-5.43228 -1.62239,-1.85938 -4.04687,-1.85938 -2.46094,0 -4.08333,1.84115 -1.6224,1.84114 -1.6224,5.55989 z m 18.61197,9.67968 v -19.35936 h 2.95312 v 2.7526 q 2.13281,-3.1901 6.16145,-3.1901 1.75,0 3.20833,0.63802 1.47656,0.61979 2.20573,1.64062 0.72917,1.02083 1.02083,2.42448 0.18229,0.91146 0.18229,3.1901 v 11.90364 h -3.28124 V 241.8521 q 0,-2.0052 -0.38282,-2.98958 -0.38281,-1.0026 -1.36718,-1.58593 -0.96615,-0.60156 -2.27865,-0.60156 -2.09635,0 -3.6276,1.33072 -1.51302,1.33073 -1.51302,5.04948 v 10.57291 z m 19.45051,-5.77864 3.24479,-0.51042 q 0.27344,1.95052 1.51302,2.98958 1.25781,1.03906 3.5,1.03906 2.26041,0 3.35416,-0.91146 1.09375,-0.92968 1.09375,-2.16926 0,-1.11198 -0.96614,-1.75 -0.67448,-0.4375 -3.35417,-1.11198 -3.60937,-0.91146 -5.01301,-1.56771 -1.38542,-0.67448 -2.11459,-1.84114 -0.71093,-1.1849 -0.71093,-2.60677 0,-1.29427 0.58333,-2.38802 0.60156,-1.11198 1.62239,-1.84114 0.76563,-0.56511 2.07813,-0.94792 1.33073,-0.40104 2.84375,-0.40104 2.27864,0 3.99218,0.65625 1.73177,0.65625 2.55208,1.78645 0.82031,1.11198 1.13021,2.98959 l -3.20833,0.43749 q -0.21875,-1.49479 -1.27604,-2.33333 -1.03907,-0.83854 -2.95313,-0.83854 -2.26041,0 -3.22656,0.7474 -0.96614,0.74739 -0.96614,1.75 0,0.63802 0.40104,1.14843 0.40104,0.52865 1.25781,0.875 0.49219,0.18229 2.89844,0.83854 3.48176,0.92969 4.84895,1.53125 1.38542,0.58333 2.16927,1.71354 0.78385,1.13021 0.78385,2.80729 0,1.64062 -0.96614,3.09896 -0.94792,1.4401 -2.7526,2.24218 -1.80469,0.78386 -4.08333,0.78386 -3.77344,0 -5.76041,-1.56771 -1.96875,-1.56771 -2.51563,-4.64843 z m 33.23174,-0.45573 3.39062,0.41927 q -0.80209,2.97135 -2.97135,4.61197 -2.16927,1.64063 -5.54167,1.64063 -4.24739,0 -6.74478,-2.60677 -2.47917,-2.625 -2.47917,-7.34635 0,-4.88541 2.51563,-7.58333 2.51562,-2.69791 6.52603,-2.69791 3.88281,0 6.34375,2.64323 2.46093,2.64322 2.46093,7.43749 0,0.29167 -0.0182,0.875 h -14.43748 q 0.18229,3.1901 1.80468,4.88541 1.6224,1.69531 4.04687,1.69531 1.80469,0 3.08073,-0.94791 1.27604,-0.94792 2.02344,-3.02604 z m -10.77343,-5.30469 h 10.80988 q -0.21875,-2.4427 -1.23958,-3.66406 -1.56771,-1.89583 -4.0651,-1.89583 -2.26041,0 -3.80989,1.51302 -1.53125,1.51302 -1.69531,4.04687 z m 30.91663,4.44792 3.22656,0.41927 q -0.52864,3.33593 -2.71614,5.23176 -2.16927,1.87761 -5.34114,1.87761 -3.97396,0 -6.39843,-2.58854 -2.40625,-2.60677 -2.40625,-7.45573 0,-3.13541 1.03906,-5.48697 1.03906,-2.35156 3.15364,-3.51823 2.13282,-1.18489 4.63021,-1.18489 3.15364,0 5.15885,1.60416 2.00521,1.58594 2.57031,4.52083 l -3.1901,0.49219 q -0.45573,-1.95052 -1.6224,-2.93489 -1.14843,-0.98438 -2.78906,-0.98438 -2.47916,0 -4.02864,1.78646 -1.54948,1.76823 -1.54948,5.61458 0,3.90104 1.49479,5.66926 1.49479,1.76823 3.90104,1.76823 1.93229,0 3.22656,-1.18489 1.29427,-1.1849 1.64062,-3.64583 z m 18.72135,7.09114 v -2.84375 q -2.26042,3.28125 -6.14323,3.28125 -1.71354,0 -3.20833,-0.65625 -1.47656,-0.65625 -2.20572,-1.64063 -0.71094,-1.0026 -1.00261,-2.4427 -0.20052,-0.96615 -0.20052,-3.0625 v -11.99478 h 3.28125 v 10.73697 q 0,2.57031 0.20052,3.46354 0.3099,1.29427 1.3125,2.04166 1.0026,0.72917 2.47916,0.72917 1.47657,0 2.77084,-0.7474 1.29426,-0.76562 1.82291,-2.05989 0.54687,-1.3125 0.54687,-3.79167 v -10.37238 h 3.28125 v 19.35936 z m 15.23957,-2.9349 0.47395,2.89844 q -1.38541,0.29166 -2.47916,0.29166 -1.78646,0 -2.77083,-0.5651 -0.98438,-0.5651 -1.38542,-1.47656 -0.40104,-0.92969 -0.40104,-3.88281 v -11.13801 h -2.40625 v -2.55208 h 2.40625 v -4.79427 l 3.26302,-1.96875 v 6.76302 h 3.29948 v 2.55208 h -3.29948 v 11.3203 q 0,1.40365 0.16406,1.80469 0.18229,0.40104 0.56511,0.63802 0.40104,0.23698 1.1302,0.23698 0.54688,0 1.44011,-0.12761 z m 3.22654,-20.0156 v -3.77344 h 3.28125 v 3.77344 z m 0,22.9505 v -19.35936 h 3.28125 v 19.35936 z m 13.65366,0 -7.36458,-19.35936 h 3.46354 l 4.15624,11.59374 q 0.67448,1.8776 1.23959,3.90104 0.4375,-1.53125 1.22135,-3.68229 l 4.30208,-11.81249 h 3.37239 l -7.32812,19.35936 z m 26.54165,-6.23437 3.39062,0.41927 q -0.80208,2.97135 -2.97135,4.61197 -2.16927,1.64063 -5.54167,1.64063 -4.24739,0 -6.74478,-2.60677 -2.47917,-2.625 -2.47917,-7.34635 0,-4.88541 2.51563,-7.58333 2.51562,-2.69791 6.52603,-2.69791 3.88281,0 6.34375,2.64323 2.46093,2.64322 2.46093,7.43749 0,0.29167 -0.0182,0.875 h -14.43748 q 0.18229,3.1901 1.80468,4.88541 1.6224,1.69531 4.04687,1.69531 1.80469,0 3.08073,-0.94791 1.27604,-0.94792 2.02344,-3.02604 z m -10.77343,-5.30469 h 10.80988 q -0.21875,-2.4427 -1.23958,-3.66406 -1.56771,-1.89583 -4.0651,-1.89583 -2.26041,0 -3.80989,1.51302 -1.53125,1.51302 -1.69531,4.04687 z m 32.22912,11.53906 -5.92447,-19.35936 h 3.39062 l 3.08073,11.17447 1.14843,4.15624 q 0.0729,-0.30989 1.00261,-3.99218 l 3.08072,-11.33853 h 3.3724 l 2.89843,11.22916 0.96615,3.70051 1.11197,-3.73697 3.31771,-11.1927 h 3.1901 l -6.05208,19.35936 h -3.40885 l -3.08072,-11.59374 -0.7474,-3.29948 -3.91927,14.89322 z m 36.64059,-6.23437 3.39062,0.41927 q -0.80208,2.97135 -2.97135,4.61197 -2.16927,1.64063 -5.54166,1.64063 -4.24739,0 -6.74479,-2.60677 -2.47916,-2.625 -2.47916,-7.34635 0,-4.88541 2.51562,-7.58333 2.51562,-2.69791 6.52604,-2.69791 3.88281,0 6.34374,2.64323 2.46094,2.64322 2.46094,7.43749 0,0.29167 -0.0182,0.875 h -14.43749 q 0.18229,3.1901 1.80468,4.88541 1.6224,1.69531 4.04688,1.69531 1.80468,0 3.08072,-0.94791 1.27604,-0.94792 2.02344,-3.02604 z m -10.77343,-5.30469 h 10.80989 q -0.21875,-2.4427 -1.23959,-3.66406 -1.5677,-1.89583 -4.0651,-1.89583 -2.26041,0 -3.80989,1.51302 -1.53125,1.51302 -1.69531,4.04687 z m 31.53643,5.30469 3.39062,0.41927 q -0.80208,2.97135 -2.97135,4.61197 -2.16927,1.64063 -5.54166,1.64063 -4.24739,0 -6.74479,-2.60677 -2.47916,-2.625 -2.47916,-7.34635 0,-4.88541 2.51562,-7.58333 2.51562,-2.69791 6.52604,-2.69791 3.88281,0 6.34374,2.64323 2.46094,2.64322 2.46094,7.43749 0,0.29167 -0.0182,0.875 h -14.43749 q 0.18229,3.1901 1.80469,4.88541 1.62239,1.69531 4.04687,1.69531 1.80468,0 3.08072,-0.94791 1.27604,-0.94792 2.02344,-3.02604 z m -10.77343,-5.30469 h 10.80989 q -0.21875,-2.4427 -1.23958,-3.66406 -1.56771,-1.89583 -4.06511,-1.89583 -2.26041,0 -3.80989,1.51302 -1.53125,1.51302 -1.69531,4.04687 z m 18.3021,11.53906 V 226.9042 h 3.28124 v 15.23957 l 7.76562,-7.87499 h 4.24739 l -7.40103,7.18228 8.14843,12.17708 h -4.04687 l -6.39843,-9.89843 -2.31511,2.22395 v 7.67448 z m 31.90099,-6.23437 3.39062,0.41927 q -0.80208,2.97135 -2.97135,4.61197 -2.16927,1.64063 -5.54167,1.64063 -4.24739,0 -6.74478,-2.60677 -2.47917,-2.625 -2.47917,-7.34635 0,-4.88541 2.51563,-7.58333 2.51562,-2.69791 6.52603,-2.69791 3.88281,0 6.34375,2.64323 2.46093,2.64322 2.46093,7.43749 0,0.29167 -0.0182,0.875 H 560.2642 q 0.18229,3.1901 1.80468,4.88541 1.6224,1.69531 4.04687,1.69531 1.80469,0 3.08073,-0.94791 1.27604,-0.94792 2.02344,-3.02604 z m -10.77343,-5.30469 h 10.80988 q -0.21875,-2.4427 -1.23958,-3.66406 -1.5677,-1.89583 -4.0651,-1.89583 -2.26041,0 -3.80989,1.51302 -1.53125,1.51302 -1.69531,4.04687 z m 18.28383,11.53906 v -19.35936 h 2.95313 v 2.7526 q 2.13281,-3.1901 6.16145,-3.1901 1.75,0 3.20833,0.63802 1.47656,0.61979 2.20573,1.64062 0.72916,1.02083 1.02083,2.42448 0.18229,0.91146 0.18229,3.1901 v 11.90364 h -3.28125 V 241.8521 q 0,-2.0052 -0.38281,-2.98958 -0.38281,-1.0026 -1.36718,-1.58593 -0.96615,-0.60156 -2.27865,-0.60156 -2.09635,0 -3.6276,1.33072 -1.51302,1.33073 -1.51302,5.04948 v 10.57291 z m 33.32289,0 v -2.44271 q -1.84114,2.88021 -5.41406,2.88021 -2.3151,0 -4.26562,-1.27604 -1.93229,-1.27605 -3.00781,-3.55469 -1.05729,-2.29687 -1.05729,-5.26822 0,-2.89844 0.96614,-5.25 0.96615,-2.36979 2.89844,-3.6276 1.93229,-1.25781 4.32031,-1.25781 1.75,0 3.11718,0.74739 1.36719,0.72917 2.22396,1.91406 v -9.58853 h 3.26302 v 26.72394 z m -10.37239,-9.66145 q 0,3.71874 1.56771,5.55989 1.56771,1.84114 3.70052,1.84114 2.15104,0 3.64583,-1.75 1.51302,-1.76822 1.51302,-5.3776 0,-3.97395 -1.53125,-5.83332 -1.53125,-1.85938 -3.77344,-1.85938 -2.18749,0 -3.66406,1.78646 -1.45833,1.78646 -1.45833,5.63281 z m 17.26301,3.88281 3.24478,-0.51042 q 0.27344,1.95052 1.51302,2.98958 1.25782,1.03906 3.5,1.03906 2.26042,0 3.35417,-0.91146 1.09374,-0.92968 1.09374,-2.16926 0,-1.11198 -0.96614,-1.75 -0.67448,-0.4375 -3.35416,-1.11198 -3.60938,-0.91146 -5.01302,-1.56771 -1.38542,-0.67448 -2.11458,-1.84114 -0.71094,-1.1849 -0.71094,-2.60677 0,-1.29427 0.58333,-2.38802 0.60157,-1.11198 1.6224,-1.84114 0.76562,-0.56511 2.07812,-0.94792 1.33073,-0.40104 2.84375,-0.40104 2.27864,0 3.99218,0.65625 1.73177,0.65625 2.55208,1.78645 0.82032,1.11198 1.13021,2.98959 l -3.20833,0.43749 q -0.21875,-1.49479 -1.27604,-2.33333 -1.03906,-0.83854 -2.95312,-0.83854 -2.26042,0 -3.22656,0.7474 -0.96615,0.74739 -0.96615,1.75 0,0.63802 0.40104,1.14843 0.40105,0.52865 1.25782,0.875 0.49218,0.18229 2.89843,0.83854 3.48177,0.92969 4.84895,1.53125 1.38542,0.58333 2.16927,1.71354 0.78386,1.13021 0.78386,2.80729 0,1.64062 -0.96615,3.09896 -0.94791,1.4401 -2.7526,2.24218 -1.80469,0.78386 -4.08333,0.78386 -3.77343,0 -5.76041,-1.56771 -1.96875,-1.56771 -2.51562,-4.64843 z m 33.92447,5.77864 -5.92447,-19.35936 h 3.39062 l 3.08073,11.17447 1.14843,4.15624 q 0.0729,-0.30989 1.00261,-3.99218 l 3.08072,-11.33853 h 3.37239 l 2.89844,11.22916 0.96614,3.70051 1.11198,-3.73697 3.31771,-11.1927 h 3.1901 l -6.05208,19.35936 h -3.40885 l -3.08073,-11.59374 -0.74739,-3.29948 -3.91927,14.89322 z m 22.16661,-9.67968 q 0,-5.3776 2.98958,-7.96614 2.4974,-2.15104 6.08854,-2.15104 3.99218,0 6.52603,2.625 2.53386,2.60676 2.53386,7.21874 0,3.73698 -1.13021,5.88802 -1.11198,2.13281 -3.26302,3.3177 -2.13281,1.1849 -4.66666,1.1849 -4.0651,0 -6.58073,-2.60677 -2.49739,-2.60677 -2.49739,-7.51041 z m 3.37239,0 q 0,3.71874 1.6224,5.57812 1.62239,1.84114 4.08333,1.84114 2.4427,0 4.0651,-1.85937 1.62239,-1.85938 1.62239,-5.66927 0,-3.59114 -1.64062,-5.43228 -1.62239,-1.85938 -4.04687,-1.85938 -2.46094,0 -4.08333,1.84115 -1.6224,1.84114 -1.6224,5.55989 z m 18.57557,9.67968 v -19.35936 h 2.95312 v 2.93489 q 1.13021,-2.05989 2.07812,-2.71614 0.96615,-0.65625 2.11458,-0.65625 1.65886,0 3.3724,1.05729 l -1.13021,3.04427 q -1.20312,-0.71094 -2.40625,-0.71094 -1.07552,0 -1.93229,0.65625 -0.85677,0.63802 -1.22135,1.78646 -0.54688,1.75 -0.54688,3.82812 v 10.13541 z m 12.48694,0 V 226.9042 h 3.28124 v 15.23957 l 7.76562,-7.87499 h 4.24739 l -7.40103,7.18228 8.14843,12.17708 h -4.04687 l -6.39844,-9.89843 -2.3151,2.22395 v 7.67448 z m 31.90099,-6.23437 3.39062,0.41927 q -0.80209,2.97135 -2.97135,4.61197 -2.16927,1.64063 -5.54167,1.64063 -4.24739,0 -6.74478,-2.60677 -2.47917,-2.625 -2.47917,-7.34635 0,-4.88541 2.51563,-7.58333 2.51562,-2.69791 6.52603,-2.69791 3.88281,0 6.34375,2.64323 2.46093,2.64322 2.46093,7.43749 0,0.29167 -0.0182,0.875 h -14.43748 q 0.18229,3.1901 1.80468,4.88541 1.6224,1.69531 4.04687,1.69531 1.80469,0 3.08073,-0.94791 1.27604,-0.94792 2.02344,-3.02604 z m -10.77343,-5.30469 h 10.80988 q -0.21875,-2.4427 -1.23958,-3.66406 -1.56771,-1.89583 -4.0651,-1.89583 -2.26041,0 -3.80989,1.51302 -1.53125,1.51302 -1.69531,4.04687 z m 30.84372,11.53906 v -2.44271 q -1.84115,2.88021 -5.41406,2.88021 -2.3151,0 -4.26562,-1.27604 -1.93229,-1.27605 -3.00781,-3.55469 -1.05729,-2.29687 -1.05729,-5.26822 0,-2.89844 0.96614,-5.25 0.96615,-2.36979 2.89844,-3.6276 1.93229,-1.25781 4.32031,-1.25781 1.75,0 3.11718,0.74739 1.36719,0.72917 2.22396,1.91406 v -9.58853 h 3.26302 v 26.72394 z m -10.37239,-9.66145 q 0,3.71874 1.56771,5.55989 1.5677,1.84114 3.70052,1.84114 2.15104,0 3.64583,-1.75 1.51302,-1.76822 1.51302,-5.3776 0,-3.97395 -1.53125,-5.83332 -1.53125,-1.85938 -3.77344,-1.85938 -2.1875,0 -3.66406,1.78646 -1.45833,1.78646 -1.45833,5.63281 z"
       id="flowRoot4302"
       transform="translate(-33.188782,194.36213)"
       aria-label="Required consecutive weekends worked" /><g
       id="g3709"
       transform="translate(0,19.999997)" /><path
       style="font-size:16px;line-height:1.25;font-family:Arial;-inkscape-font-specification:Arial;text-align:center;text-anchor:middle"
       d="m 207.86719,164.41207 4.39843,-11.45312 h 1.63282 l 4.6875,11.45312 h -1.72657 l -1.33593,-3.46875 h -4.78907 l -1.25781,3.46875 z m 3.30468,-4.70312 h 3.88282 l -1.19532,-3.17188 q -0.54687,-1.44531 -0.8125,-2.375 -0.21875,1.10156 -0.61718,2.1875 z m 7.88282,2.22656 1.39062,-0.21875 q 0.11719,0.83594 0.64844,1.28125 0.53906,0.44531 1.5,0.44531 0.96875,0 1.4375,-0.39062 0.46875,-0.39844 0.46875,-0.92969 0,-0.47656 -0.41406,-0.75 -0.28907,-0.1875 -1.4375,-0.47656 -1.54688,-0.39063 -2.14844,-0.67188 -0.59375,-0.28906 -0.90625,-0.78906 -0.30469,-0.50781 -0.30469,-1.11719 0,-0.55469 0.25,-1.02344 0.25781,-0.47656 0.69531,-0.78906 0.32813,-0.24219 0.89063,-0.40625 0.57031,-0.17187 1.21875,-0.17187 0.97656,0 1.71094,0.28125 0.74218,0.28125 1.09375,0.76562 0.35156,0.47656 0.48437,1.28125 l -1.375,0.1875 q -0.0937,-0.64062 -0.54687,-1 -0.44532,-0.35937 -1.26563,-0.35937 -0.96875,0 -1.38281,0.32031 -0.41406,0.32031 -0.41406,0.75 0,0.27344 0.17187,0.49219 0.17188,0.22656 0.53906,0.375 0.21094,0.0781 1.24219,0.35937 1.49219,0.39844 2.07813,0.65625 0.59375,0.25 0.92968,0.73438 0.33594,0.48437 0.33594,1.20312 0,0.70313 -0.41406,1.32813 -0.40625,0.61718 -1.17969,0.96093 -0.77344,0.33594 -1.75,0.33594 -1.61719,0 -2.46875,-0.67187 -0.84375,-0.67188 -1.07812,-1.99219 z m 8,0 1.39062,-0.21875 q 0.11719,0.83594 0.64844,1.28125 0.53906,0.44531 1.5,0.44531 0.96875,0 1.4375,-0.39062 0.46875,-0.39844 0.46875,-0.92969 0,-0.47656 -0.41406,-0.75 -0.28907,-0.1875 -1.4375,-0.47656 -1.54688,-0.39063 -2.14844,-0.67188 -0.59375,-0.28906 -0.90625,-0.78906 -0.30469,-0.50781 -0.30469,-1.11719 0,-0.55469 0.25,-1.02344 0.25781,-0.47656 0.69531,-0.78906 0.32813,-0.24219 0.89063,-0.40625 0.57031,-0.17187 1.21875,-0.17187 0.97656,0 1.71094,0.28125 0.74218,0.28125 1.09375,0.76562 0.35156,0.47656 0.48437,1.28125 l -1.375,0.1875 q -0.0937,-0.64062 -0.54687,-1 -0.44532,-0.35937 -1.26563,-0.35937 -0.96875,0 -1.38281,0.32031 -0.41406,0.32031 -0.41406,0.75 0,0.27344 0.17187,0.49219 0.17188,0.22656 0.53906,0.375 0.21094,0.0781 1.24219,0.35937 1.49219,0.39844 2.07813,0.65625 0.59375,0.25 0.92968,0.73438 0.33594,0.48437 0.33594,1.20312 0,0.70313 -0.41406,1.32813 -0.40625,0.61718 -1.17969,0.96093 -0.77344,0.33594 -1.75,0.33594 -1.61719,0 -2.46875,-0.67187 -0.84375,-0.67188 -1.07812,-1.99219 z m 8.57031,-7.35938 v -1.61718 h 1.40625 v 1.61718 z m 0,9.83594 v -8.29687 h 1.40625 v 8.29687 z m 3.28906,0.6875 1.36719,0.20313 q 0.0859,0.63281 0.47656,0.92187 0.52344,0.39063 1.42969,0.39063 0.97656,0 1.50781,-0.39063 0.53125,-0.39062 0.71875,-1.09375 0.10938,-0.42969 0.10156,-1.80469 -0.92187,1.08594 -2.29687,1.08594 -1.71094,0 -2.64844,-1.23437 -0.9375,-1.23438 -0.9375,-2.96094 0,-1.1875 0.42969,-2.1875 0.42969,-1.00781 1.24219,-1.55469 0.82031,-0.54687 1.92187,-0.54687 1.46875,0 2.42188,1.1875 v -1 h 1.29687 v 7.17187 q 0,1.9375 -0.39844,2.74219 -0.39062,0.8125 -1.25,1.28125 -0.85156,0.46875 -2.10156,0.46875 -1.48437,0 -2.39844,-0.67188 -0.91406,-0.66406 -0.88281,-2.00781 z m 1.16406,-4.98437 q 0,1.63281 0.64844,2.38281 0.64844,0.75 1.625,0.75 0.96875,0 1.625,-0.74219 0.65625,-0.75 0.65625,-2.34375 0,-1.52344 -0.67969,-2.29687 -0.67187,-0.77344 -1.625,-0.77344 -0.9375,0 -1.59375,0.76562 -0.65625,0.75782 -0.65625,2.25782 z m 7.99219,4.29687 v -8.29687 h 1.26563 v 1.17968 q 0.91406,-1.36718 2.64062,-1.36718 0.75,0 1.375,0.27343 0.63281,0.26563 0.94531,0.70313 0.3125,0.4375 0.4375,1.03906 0.0781,0.39063 0.0781,1.36719 v 5.10156 h -1.40625 v -5.04687 q 0,-0.85938 -0.16406,-1.28125 -0.16407,-0.42969 -0.58594,-0.67969 -0.41406,-0.25781 -0.97656,-0.25781 -0.89844,0 -1.55469,0.57031 -0.64844,0.57031 -0.64844,2.16406 v 4.53125 z m 11.38281,0 4.39844,-11.45312 h 1.63281 l 4.6875,11.45312 h -1.72656 l -1.33594,-3.46875 h -4.78906 l -1.25781,3.46875 z m 3.30469,-4.70312 h 3.88281 l -1.19531,-3.17188 q -0.54687,-1.44531 -0.8125,-2.375 -0.21875,1.10156 -0.61719,2.1875 z m 8.44531,4.70312 v -8.29687 h 1.26563 v 1.17968 q 0.91406,-1.36718 2.64062,-1.36718 0.75,0 1.375,0.27343 0.63282,0.26563 0.94532,0.70313 0.3125,0.4375 0.4375,1.03906 0.0781,0.39063 0.0781,1.36719 v 5.10156 h -1.40625 v -5.04687 q 0,-0.85938 -0.16406,-1.28125 -0.16406,-0.42969 -0.58594,-0.67969 -0.41406,-0.25781 -0.97656,-0.25781 -0.89844,0 -1.55469,0.57031 -0.64844,0.57031 -0.64844,2.16406 v 4.53125 z m 8.89844,0 v -8.29687 h 1.26563 v 1.17968 q 0.91406,-1.36718 2.64062,-1.36718 0.75,0 1.375,0.27343 0.63281,0.26563 0.94531,0.70313 0.3125,0.4375 0.4375,1.03906 0.0781,0.39063 0.0781,1.36719 v 5.10156 h -1.40625 v -5.04687 q 0,-0.85938 -0.16406,-1.28125 -0.16407,-0.42969 -0.58594,-0.67969 -0.41406,-0.25781 -0.97656,-0.25781 -0.89844,0 -1.55469,0.57031 -0.64844,0.57031 -0.64844,2.16406 v 4.53125 z m 12.78125,-2.47656 1.39063,-0.21875 q 0.11718,0.83594 0.64843,1.28125 0.53907,0.44531 1.5,0.44531 0.96875,0 1.4375,-0.39062 0.46875,-0.39844 0.46875,-0.92969 0,-0.47656 -0.41406,-0.75 -0.28906,-0.1875 -1.4375,-0.47656 -1.54687,-0.39063 -2.14844,-0.67188 -0.59375,-0.28906 -0.90625,-0.78906 -0.30468,-0.50781 -0.30468,-1.11719 0,-0.55469 0.25,-1.02344 0.25781,-0.47656 0.69531,-0.78906 0.32812,-0.24219 0.89062,-0.40625 0.57032,-0.17187 1.21875,-0.17187 0.97657,0 1.71094,0.28125 0.74219,0.28125 1.09375,0.76562 0.35156,0.47656 0.48438,1.28125 l -1.375,0.1875 q -0.0937,-0.64062 -0.54688,-1 -0.44531,-0.35937 -1.26562,-0.35937 -0.96875,0 -1.38282,0.32031 -0.41406,0.32031 -0.41406,0.75 0,0.27344 0.17188,0.49219 0.17187,0.22656 0.53906,0.375 0.21094,0.0781 1.24219,0.35937 1.49218,0.39844 2.07812,0.65625 0.59375,0.25 0.92969,0.73438 0.33594,0.48437 0.33594,1.20312 0,0.70313 -0.41407,1.32813 -0.40625,0.61718 -1.17968,0.96093 -0.77344,0.33594 -1.75,0.33594 -1.61719,0 -2.46875,-0.67187 -0.84375,-0.67188 -1.07813,-1.99219 z m 8.5625,2.47656 v -11.45312 h 1.40625 v 4.10937 q 0.98438,-1.14062 2.48438,-1.14062 0.92187,0 1.60156,0.36718 0.67969,0.35938 0.96875,1 0.29687,0.64063 0.29687,1.85938 v 5.25781 h -1.40625 v -5.25781 q 0,-1.05469 -0.46093,-1.53125 -0.45313,-0.48438 -1.28907,-0.48438 -0.625,0 -1.17968,0.32813 -0.54688,0.32031 -0.78125,0.875 -0.23438,0.55469 -0.23438,1.53125 v 4.53906 z m 8.90625,-9.83594 v -1.61718 h 1.40625 v 1.61718 z m 0,9.83594 v -8.29687 h 1.40625 v 8.29687 z m 3.88281,0 v -7.20312 h -1.24218 v -1.09375 h 1.24218 v -0.88282 q 0,-0.83593 0.14844,-1.24218 0.20313,-0.54688 0.71094,-0.88282 0.51562,-0.34375 1.4375,-0.34375 0.59375,0 1.3125,0.14063 l -0.21094,1.22656 q -0.4375,-0.0781 -0.82812,-0.0781 -0.64063,0 -0.90625,0.27343 -0.26563,0.27344 -0.26563,1.02344 v 0.76563 H 317.25 v 1.09375 h -1.61719 v 7.20312 z m 7.17969,-1.25781 0.20313,1.24219 q -0.59375,0.125 -1.0625,0.125 -0.76563,0 -1.1875,-0.24219 -0.42188,-0.24219 -0.59375,-0.63281 -0.17188,-0.39844 -0.17188,-1.66407 v -4.77343 h -1.03125 v -1.09375 h 1.03125 v -2.05469 L 320,153.21676 v 2.89844 h 1.41406 v 1.09375 H 320 v 4.85156 q 0,0.60156 0.0703,0.77344 0.0781,0.17187 0.24219,0.27343 0.17187,0.10157 0.48437,0.10157 0.23438,0 0.61719,-0.0547 z m 0.8125,-1.21875 1.39063,-0.21875 q 0.11718,0.83594 0.64843,1.28125 0.53907,0.44531 1.5,0.44531 0.96875,0 1.4375,-0.39062 0.46875,-0.39844 0.46875,-0.92969 0,-0.47656 -0.41406,-0.75 -0.28906,-0.1875 -1.4375,-0.47656 -1.54687,-0.39063 -2.14844,-0.67188 -0.59375,-0.28906 -0.90625,-0.78906 -0.30468,-0.50781 -0.30468,-1.11719 0,-0.55469 0.25,-1.02344 0.25781,-0.47656 0.69531,-0.78906 0.32812,-0.24219 0.89062,-0.40625 0.57032,-0.17187 1.21875,-0.17187 0.97657,0 1.71094,0.28125 0.74219,0.28125 1.09375,0.76562 0.35156,0.47656 0.48438,1.28125 l -1.375,0.1875 q -0.0937,-0.64062 -0.54688,-1 -0.44531,-0.35937 -1.26562,-0.35937 -0.96875,0 -1.38282,0.32031 -0.41406,0.32031 -0.41406,0.75 0,0.27344 0.17188,0.49219 0.17187,0.22656 0.53906,0.375 0.21094,0.0781 1.24219,0.35937 1.49218,0.39844 2.07812,0.65625 0.59375,0.25 0.92969,0.73438 0.33594,0.48437 0.33594,1.20312 0,0.70313 -0.41407,1.32813 -0.40625,0.61718 -1.17968,0.96093 -0.77344,0.33594 -1.75,0.33594 -1.61719,0 -2.46875,-0.67187 -0.84375,-0.67188 -1.07813,-1.99219 z m 12.48438,-1.67188 q 0,-2.30468 1.28125,-3.41406 1.07031,-0.92187 2.60937,-0.92187 1.71094,0 2.79688,1.125 1.08593,1.11718 1.08593,3.09375 0,1.60156 -0.48437,2.52343 -0.47656,0.91407 -1.39844,1.42188 -0.91406,0.50781 -2,0.50781 -1.74219,0 -2.82031,-1.11719 -1.07031,-1.11718 -1.07031,-3.21875 z m 1.44531,0 q 0,1.59375 0.69531,2.39063 0.69531,0.78906 1.75,0.78906 1.04688,0 1.74219,-0.79687 0.69531,-0.79688 0.69531,-2.42969 0,-1.53906 -0.70312,-2.32813 -0.69532,-0.79687 -1.73438,-0.79687 -1.05469,0 -1.75,0.78906 -0.69531,0.78906 -0.69531,2.38281 z m 7.97656,4.14844 v -8.29687 h 1.26563 v 1.17968 q 0.91406,-1.36718 2.64062,-1.36718 0.75,0 1.375,0.27343 0.63281,0.26563 0.94531,0.70313 0.3125,0.4375 0.4375,1.03906 0.0781,0.39063 0.0781,1.36719 v 5.10156 h -1.40625 v -5.04687 q 0,-0.85938 -0.16406,-1.28125 -0.16407,-0.42969 -0.58594,-0.67969 -0.41406,-0.25781 -0.97656,-0.25781 -0.89844,0 -1.55469,0.57031 -0.64844,0.57031 -0.64844,2.16406 v 4.53125 z m 18.75781,-1.02344 q -0.78125,0.66407 -1.50781,0.9375 -0.71875,0.27344 -1.54687,0.27344 -1.36719,0 -2.10157,-0.66406 Q 357,163.26363 357,162.22457 q 0,-0.60937 0.27344,-1.10937 0.28125,-0.50782 0.72656,-0.8125 0.45312,-0.30469 1.01562,-0.46094 0.41407,-0.10938 1.25,-0.21094 1.70313,-0.20312 2.50782,-0.48437 0.008,-0.28907 0.008,-0.36719 0,-0.85938 -0.39844,-1.21094 -0.53906,-0.47656 -1.60156,-0.47656 -0.99219,0 -1.46875,0.35156 -0.46875,0.34375 -0.69531,1.22656 l -1.375,-0.1875 q 0.1875,-0.88281 0.61718,-1.42187 0.42969,-0.54688 1.24219,-0.83594 0.8125,-0.29687 1.88281,-0.29687 1.0625,0 1.72657,0.25 0.66406,0.25 0.97656,0.63281 0.3125,0.375 0.4375,0.95312 0.0703,0.35938 0.0703,1.29688 v 1.875 q 0,1.96094 0.0859,2.48437 0.0937,0.51563 0.35937,0.99219 h -1.46875 q -0.21875,-0.4375 -0.28125,-1.02344 z m -0.11718,-3.14062 q -0.76563,0.3125 -2.29688,0.53125 -0.86719,0.125 -1.22656,0.28125 -0.35938,0.15625 -0.55469,0.46094 -0.19531,0.29687 -0.19531,0.66406 0,0.5625 0.42187,0.9375 0.42969,0.375 1.25,0.375 0.8125,0 1.44532,-0.35156 0.63281,-0.35938 0.92968,-0.97657 0.22657,-0.47656 0.22657,-1.40625 z m 8.04687,4.16406 v -8.29687 h 1.25781 v 1.16406 q 0.39063,-0.60938 1.03907,-0.97656 0.64843,-0.375 1.47656,-0.375 0.92187,0 1.50781,0.38281 0.59375,0.38281 0.83594,1.07031 0.98437,-1.45312 2.5625,-1.45312 1.23437,0 1.89844,0.6875 0.66406,0.67968 0.66406,2.10156 v 5.69531 h -1.39844 v -5.22656 q 0,-0.84375 -0.14062,-1.21094 -0.13282,-0.375 -0.49219,-0.60156 -0.35938,-0.22656 -0.84375,-0.22656 -0.875,0 -1.45313,0.58593 -0.57812,0.57813 -0.57812,1.85938 v 4.82031 H 375.75 v -5.39062 q 0,-0.9375 -0.34375,-1.40625 -0.34375,-0.46875 -1.125,-0.46875 -0.59375,0 -1.10156,0.3125 -0.5,0.3125 -0.72657,0.91406 -0.22656,0.60156 -0.22656,1.73437 v 4.30469 z m 18.74219,-1.02344 q -0.78125,0.66407 -1.50781,0.9375 -0.71875,0.27344 -1.54688,0.27344 -1.36719,0 -2.10156,-0.66406 -0.73438,-0.67188 -0.73438,-1.71094 0,-0.60937 0.27344,-1.10937 0.28125,-0.50782 0.72656,-0.8125 0.45313,-0.30469 1.01563,-0.46094 0.41406,-0.10938 1.25,-0.21094 1.70312,-0.20312 2.50781,-0.48437 0.008,-0.28907 0.008,-0.36719 0,-0.85938 -0.39843,-1.21094 -0.53907,-0.47656 -1.60157,-0.47656 -0.99218,0 -1.46875,0.35156 -0.46875,0.34375 -0.69531,1.22656 l -1.375,-0.1875 q 0.1875,-0.88281 0.61719,-1.42187 0.42969,-0.54688 1.24219,-0.83594 0.8125,-0.29687 1.88281,-0.29687 1.0625,0 1.72656,0.25 0.66406,0.25 0.97656,0.63281 0.3125,0.375 0.4375,0.95312 0.0703,0.35938 0.0703,1.29688 v 1.875 q 0,1.96094 0.0859,2.48437 0.0937,0.51563 0.35938,0.99219 h -1.46875 q -0.21875,-0.4375 -0.28125,-1.02344 z m -0.11719,-3.14062 q -0.76562,0.3125 -2.29687,0.53125 -0.86719,0.125 -1.22657,0.28125 -0.35937,0.15625 -0.55468,0.46094 -0.19532,0.29687 -0.19532,0.66406 0,0.5625 0.42188,0.9375 0.42969,0.375 1.25,0.375 0.8125,0 1.44531,-0.35156 0.63281,-0.35938 0.92969,-0.97657 0.22656,-0.47656 0.22656,-1.40625 z m 2.66406,4.16406 3.03125,-4.3125 -2.80468,-3.98437 h 1.75781 l 1.27344,1.94531 q 0.35937,0.55469 0.57812,0.92969 0.34375,-0.51563 0.63281,-0.91407 l 1.39844,-1.96093 h 1.67969 l -2.86719,3.90625 3.08594,4.39062 h -1.72656 l -1.70313,-2.57812 -0.45312,-0.69532 -2.17969,3.27344 z m 8.94532,-9.83594 v -1.61718 h 1.40625 v 1.61718 z m 0,9.83594 v -8.29687 h 1.40625 v 8.29687 z m 3.54687,0 v -8.29687 h 1.25781 v 1.16406 q 0.39063,-0.60938 1.03907,-0.97656 0.64843,-0.375 1.47656,-0.375 0.92187,0 1.50781,0.38281 0.59375,0.38281 0.83594,1.07031 0.98437,-1.45312 2.5625,-1.45312 1.23437,0 1.89844,0.6875 0.66406,0.67968 0.66406,2.10156 v 5.69531 h -1.39844 v -5.22656 q 0,-0.84375 -0.14062,-1.21094 -0.13282,-0.375 -0.49219,-0.60156 -0.35938,-0.22656 -0.84375,-0.22656 -0.875,0 -1.45313,0.58593 -0.57812,0.57813 -0.57812,1.85938 v 4.82031 h -1.40625 v -5.39062 q 0,-0.9375 -0.34375,-1.40625 -0.34375,-0.46875 -1.125,-0.46875 -0.59375,0 -1.10156,0.3125 -0.5,0.3125 -0.72657,0.91406 -0.22656,0.60156 -0.22656,1.73437 v 4.30469 z m 18.76563,0 v -1.21875 q -0.96875,1.40625 -2.63282,1.40625 -0.73437,0 -1.375,-0.28125 -0.63281,-0.28125 -0.94531,-0.70312 -0.30469,-0.42969 -0.42969,-1.04688 -0.0859,-0.41406 -0.0859,-1.3125 v -5.14062 h 1.40625 v 4.60156 q 0,1.10156 0.0859,1.48437 0.13282,0.55469 0.5625,0.875 0.42969,0.3125 1.0625,0.3125 0.63282,0 1.1875,-0.32031 0.55469,-0.32812 0.78125,-0.88281 0.23438,-0.5625 0.23438,-1.625 v -4.44531 h 1.40625 v 8.29687 z m 3.46093,0 v -8.29687 h 1.25782 v 1.16406 q 0.39062,-0.60938 1.03906,-0.97656 0.64844,-0.375 1.47656,-0.375 0.92188,0 1.50781,0.38281 0.59375,0.38281 0.83594,1.07031 0.98438,-1.45312 2.5625,-1.45312 1.23438,0 1.89844,0.6875 0.66406,0.67968 0.66406,2.10156 v 5.69531 h -1.39844 v -5.22656 q 0,-0.84375 -0.14062,-1.21094 -0.13281,-0.375 -0.49219,-0.60156 -0.35937,-0.22656 -0.84375,-0.22656 -0.875,0 -1.45312,0.58593 -0.57813,0.57813 -0.57813,1.85938 v 4.82031 h -1.40625 v -5.39062 q 0,-0.9375 -0.34375,-1.40625 -0.34375,-0.46875 -1.125,-0.46875 -0.59375,0 -1.10156,0.3125 -0.5,0.3125 -0.72656,0.91406 -0.22657,0.60156 -0.22657,1.73437 v 4.30469 z m 17.25,-4.14844 q 0,-2.30468 1.28125,-3.41406 1.07032,-0.92187 2.60938,-0.92187 1.71094,0 2.79687,1.125 1.08594,1.11718 1.08594,3.09375 0,1.60156 -0.48437,2.52343 -0.47657,0.91407 -1.39844,1.42188 -0.91406,0.50781 -2,0.50781 -1.74219,0 -2.82031,-1.11719 -1.07032,-1.11718 -1.07032,-3.21875 z m 1.44532,0 q 0,1.59375 0.69531,2.39063 0.69531,0.78906 1.75,0.78906 1.04687,0 1.74219,-0.79687 0.69531,-0.79688 0.69531,-2.42969 0,-1.53906 -0.70313,-2.32813 -0.69531,-0.79687 -1.73437,-0.79687 -1.05469,0 -1.75,0.78906 -0.69531,0.78906 -0.69531,2.38281 z m 8.3125,4.14844 v -7.20312 h -1.24219 v -1.09375 h 1.24219 v -0.88282 q 0,-0.83593 0.14843,-1.24218 0.20313,-0.54688 0.71094,-0.88282 0.51563,-0.34375 1.4375,-0.34375 0.59375,0 1.3125,0.14063 l -0.21094,1.22656 q -0.4375,-0.0781 -0.82812,-0.0781 -0.64063,0 -0.90625,0.27343 -0.26563,0.27344 -0.26563,1.02344 v 0.76563 h 1.61719 v 1.09375 h -1.61719 v 7.20312 z m 13.46093,0 h -1.40625 v -8.96094 q -0.50781,0.48438 -1.33593,0.96875 -0.82032,0.48438 -1.47657,0.72657 v -1.35938 q 1.17969,-0.55469 2.0625,-1.34375 0.88282,-0.78906 1.25,-1.53125 h 0.90625 z m 13.85157,-3.03906 1.38281,0.17969 q -0.22656,1.42968 -1.16406,2.24218 -0.92969,0.80469 -2.28907,0.80469 -1.70312,0 -2.74218,-1.10937 -1.03125,-1.11719 -1.03125,-3.19532 0,-1.34375 0.44531,-2.35156 0.44531,-1.00781 1.35156,-1.50781 0.91406,-0.50781 1.98438,-0.50781 1.35156,0 2.21093,0.6875 0.85938,0.67968 1.10157,1.9375 l -1.36719,0.21093 q -0.19531,-0.83593 -0.69531,-1.25781 -0.49219,-0.42187 -1.19532,-0.42187 -1.0625,0 -1.72656,0.76562 -0.66406,0.75781 -0.66406,2.40625 0,1.67188 0.64062,2.42969 0.64063,0.75781 1.67188,0.75781 0.82812,0 1.38281,-0.50781 0.55469,-0.50781 0.70313,-1.5625 z m 2.0625,-1.10938 q 0,-2.30468 1.28125,-3.41406 1.07031,-0.92187 2.60937,-0.92187 1.71094,0 2.79688,1.125 1.08593,1.11718 1.08593,3.09375 0,1.60156 -0.48437,2.52343 -0.47656,0.91407 -1.39844,1.42188 -0.91406,0.50781 -2,0.50781 -1.74219,0 -2.82031,-1.11719 -1.07031,-1.11718 -1.07031,-3.21875 z m 1.44531,0 q 0,1.59375 0.69531,2.39063 0.69531,0.78906 1.75,0.78906 1.04688,0 1.74219,-0.79687 0.69531,-0.79688 0.69531,-2.42969 0,-1.53906 -0.70312,-2.32813 -0.69532,-0.79687 -1.73438,-0.79687 -1.05469,0 -1.75,0.78906 -0.69531,0.78906 -0.69531,2.38281 z m 7.97656,4.14844 v -8.29687 h 1.26563 v 1.17968 q 0.91406,-1.36718 2.64062,-1.36718 0.75,0 1.375,0.27343 0.63281,0.26563 0.94531,0.70313 0.3125,0.4375 0.4375,1.03906 0.0781,0.39063 0.0781,1.36719 v 5.10156 h -1.40625 v -5.04687 q 0,-0.85938 -0.16406,-1.28125 -0.16407,-0.42969 -0.58594,-0.67969 -0.41406,-0.25781 -0.97656,-0.25781 -0.89844,0 -1.55469,0.57031 -0.64844,0.57031 -0.64844,2.16406 v 4.53125 z m 8.33594,-2.47656 1.39062,-0.21875 q 0.11719,0.83594 0.64844,1.28125 0.53906,0.44531 1.5,0.44531 0.96875,0 1.4375,-0.39062 0.46875,-0.39844 0.46875,-0.92969 0,-0.47656 -0.41406,-0.75 -0.28906,-0.1875 -1.4375,-0.47656 -1.54688,-0.39063 -2.14844,-0.67188 -0.59375,-0.28906 -0.90625,-0.78906 -0.30469,-0.50781 -0.30469,-1.11719 0,-0.55469 0.25,-1.02344 0.25782,-0.47656 0.69532,-0.78906 0.32812,-0.24219 0.89062,-0.40625 0.57031,-0.17187 1.21875,-0.17187 0.97656,0 1.71094,0.28125 0.74219,0.28125 1.09375,0.76562 0.35156,0.47656 0.48437,1.28125 l -1.375,0.1875 q -0.0937,-0.64062 -0.54687,-1 -0.44531,-0.35937 -1.26563,-0.35937 -0.96875,0 -1.38281,0.32031 -0.41406,0.32031 -0.41406,0.75 0,0.27344 0.17187,0.49219 0.17188,0.22656 0.53907,0.375 0.21093,0.0781 1.24218,0.35937 1.49219,0.39844 2.07813,0.65625 0.59375,0.25 0.92969,0.73438 0.33593,0.48437 0.33593,1.20312 0,0.70313 -0.41406,1.32813 -0.40625,0.61718 -1.17969,0.96093 -0.77343,0.33594 -1.75,0.33594 -1.61718,0 -2.46875,-0.67187 -0.84375,-0.67188 -1.07812,-1.99219 z m 14.24219,-0.19531 1.45312,0.17968 q -0.34375,1.27344 -1.27344,1.97657 -0.92968,0.70312 -2.375,0.70312 -1.82031,0 -2.89062,-1.11719 -1.0625,-1.125 -1.0625,-3.14843 0,-2.09375 1.07812,-3.25 1.07813,-1.15625 2.79688,-1.15625 1.66406,0 2.71875,1.13281 1.05469,1.13281 1.05469,3.1875 0,0.125 -0.008,0.375 h -6.1875 q 0.0781,1.36719 0.77344,2.09375 0.69531,0.72656 1.73438,0.72656 0.77343,0 1.32031,-0.40625 0.54687,-0.40625 0.86719,-1.29687 z m -4.61719,-2.27344 h 4.63281 q -0.0937,-1.04688 -0.53125,-1.57031 -0.67187,-0.8125 -1.74219,-0.8125 -0.96875,0 -1.63281,0.64843 -0.65625,0.64844 -0.72656,1.73438 z m 13.25,1.90625 1.38281,0.17969 q -0.22656,1.42968 -1.16406,2.24218 -0.92969,0.80469 -2.28906,0.80469 -1.70313,0 -2.74219,-1.10937 Q 518,162.37301 518,160.29488 q 0,-1.34375 0.44531,-2.35156 0.44531,-1.00781 1.35156,-1.50781 0.91407,-0.50781 1.98438,-0.50781 1.35156,0 2.21094,0.6875 0.85937,0.67968 1.10156,1.9375 l -1.36719,0.21093 q -0.19531,-0.83593 -0.69531,-1.25781 -0.49219,-0.42187 -1.19531,-0.42187 -1.0625,0 -1.72657,0.76562 -0.66406,0.75781 -0.66406,2.40625 0,1.67188 0.64063,2.42969 0.64062,0.75781 1.67187,0.75781 0.82813,0 1.38281,-0.50781 0.55469,-0.50781 0.70313,-1.5625 z m 8.02344,3.03906 v -1.21875 q -0.96875,1.40625 -2.63282,1.40625 -0.73437,0 -1.375,-0.28125 -0.63281,-0.28125 -0.94531,-0.70312 -0.30469,-0.42969 -0.42969,-1.04688 -0.0859,-0.41406 -0.0859,-1.3125 v -5.14062 h 1.40625 v 4.60156 q 0,1.10156 0.0859,1.48437 0.13282,0.55469 0.5625,0.875 0.42969,0.3125 1.0625,0.3125 0.63282,0 1.1875,-0.32031 0.55469,-0.32812 0.78125,-0.88281 0.23438,-0.5625 0.23438,-1.625 v -4.44531 h 1.40625 v 8.29687 z m 6.53125,-1.25781 0.20312,1.24219 q -0.59375,0.125 -1.0625,0.125 -0.76562,0 -1.1875,-0.24219 -0.42187,-0.24219 -0.59375,-0.63281 -0.17187,-0.39844 -0.17187,-1.66407 v -4.77343 h -1.03125 v -1.09375 h 1.03125 v -2.05469 l 1.39843,-0.84375 v 2.89844 h 1.41407 v 1.09375 h -1.41407 v 4.85156 q 0,0.60156 0.0703,0.77344 0.0781,0.17187 0.24218,0.27343 0.17188,0.10157 0.48438,0.10157 0.23437,0 0.61719,-0.0547 z m 1.38281,-8.57813 v -1.61718 h 1.40625 v 1.61718 z m 0,9.83594 v -8.29687 h 1.40625 v 8.29687 z m 5.85156,0 -3.15625,-8.29687 h 1.48438 l 1.78125,4.96875 q 0.28906,0.80468 0.53125,1.67187 0.1875,-0.65625 0.52343,-1.57812 l 1.84375,-5.0625 h 1.44532 l -3.14063,8.29687 z m 11.375,-2.67187 1.45313,0.17968 q -0.34375,1.27344 -1.27344,1.97657 -0.92969,0.70312 -2.375,0.70312 -1.82031,0 -2.89063,-1.11719 -1.0625,-1.125 -1.0625,-3.14843 0,-2.09375 1.07813,-3.25 1.07812,-1.15625 2.79687,-1.15625 1.66407,0 2.71875,1.13281 1.05469,1.13281 1.05469,3.1875 0,0.125 -0.008,0.375 h -6.1875 q 0.0781,1.36719 0.77344,2.09375 0.69531,0.72656 1.73437,0.72656 0.77344,0 1.32031,-0.40625 0.54688,-0.40625 0.86719,-1.29687 z m -4.61719,-2.27344 h 4.63282 q -0.0937,-1.04688 -0.53125,-1.57031 -0.67188,-0.8125 -1.74219,-0.8125 -0.96875,0 -1.63281,0.64843 -0.65625,0.64844 -0.72657,1.73438 z m 13.8125,4.94531 -2.53906,-8.29687 h 1.45313 l 1.32031,4.78906 0.49219,1.78125 q 0.0312,-0.13281 0.42968,-1.71094 l 1.32032,-4.85937 h 1.44531 l 1.24219,4.8125 0.41406,1.58593 0.47656,-1.60156 1.42188,-4.79687 h 1.36718 l -2.59375,8.29687 h -1.46093 l -1.32032,-4.96875 -0.32031,-1.41406 -1.67969,6.38281 z m 15.70313,-2.67187 1.45312,0.17968 q -0.34375,1.27344 -1.27343,1.97657 -0.92969,0.70312 -2.375,0.70312 -1.82032,0 -2.89063,-1.11719 -1.0625,-1.125 -1.0625,-3.14843 0,-2.09375 1.07813,-3.25 1.07812,-1.15625 2.79687,-1.15625 1.66406,0 2.71875,1.13281 1.05469,1.13281 1.05469,3.1875 0,0.125 -0.008,0.375 h -6.1875 q 0.0781,1.36719 0.77343,2.09375 0.69532,0.72656 1.73438,0.72656 0.77344,0 1.32031,-0.40625 0.54688,-0.40625 0.86719,-1.29687 z m -4.61719,-2.27344 h 4.63281 q -0.0937,-1.04688 -0.53125,-1.57031 -0.67187,-0.8125 -1.74218,-0.8125 -0.96875,0 -1.63282,0.64843 -0.65625,0.64844 -0.72656,1.73438 z m 13.51563,2.27344 1.45312,0.17968 q -0.34375,1.27344 -1.27344,1.97657 -0.92968,0.70312 -2.375,0.70312 -1.82031,0 -2.89062,-1.11719 -1.0625,-1.125 -1.0625,-3.14843 0,-2.09375 1.07812,-3.25 1.07813,-1.15625 2.79688,-1.15625 1.66406,0 2.71875,1.13281 1.05469,1.13281 1.05469,3.1875 0,0.125 -0.008,0.375 h -6.1875 q 0.0781,1.36719 0.77344,2.09375 0.69531,0.72656 1.73438,0.72656 0.77343,0 1.32031,-0.40625 0.54687,-0.40625 0.86719,-1.29687 z m -4.61719,-2.27344 h 4.63281 q -0.0937,-1.04688 -0.53125,-1.57031 -0.67187,-0.8125 -1.74219,-0.8125 -0.96875,0 -1.63281,0.64843 -0.65625,0.64844 -0.72656,1.73438 z m 7.84375,4.94531 v -11.45312 h 1.40625 v 6.53125 l 3.32812,-3.375 h 1.82032 l -3.17188,3.07812 3.49219,5.21875 h -1.73438 l -2.74218,-4.24219 -0.99219,0.95313 v 3.28906 z m 13.67187,-2.67187 1.45313,0.17968 q -0.34375,1.27344 -1.27344,1.97657 -0.92969,0.70312 -2.375,0.70312 -1.82031,0 -2.89062,-1.11719 -1.0625,-1.125 -1.0625,-3.14843 0,-2.09375 1.07812,-3.25 1.07813,-1.15625 2.79688,-1.15625 1.66406,0 2.71875,1.13281 1.05468,1.13281 1.05468,3.1875 0,0.125 -0.008,0.375 h -6.1875 q 0.0781,1.36719 0.77344,2.09375 0.69531,0.72656 1.73437,0.72656 0.77344,0 1.32032,-0.40625 0.54687,-0.40625 0.86718,-1.29687 z m -4.61718,-2.27344 h 4.63281 q -0.0937,-1.04688 -0.53125,-1.57031 -0.67188,-0.8125 -1.74219,-0.8125 -0.96875,0 -1.63281,0.64843 -0.65625,0.64844 -0.72656,1.73438 z m 7.83593,4.94531 v -8.29687 h 1.26563 v 1.17968 q 0.91406,-1.36718 2.64062,-1.36718 0.75,0 1.375,0.27343 0.63282,0.26563 0.94532,0.70313 0.3125,0.4375 0.4375,1.03906 0.0781,0.39063 0.0781,1.36719 v 5.10156 h -1.40625 v -5.04687 q 0,-0.85938 -0.16406,-1.28125 -0.16406,-0.42969 -0.58594,-0.67969 -0.41406,-0.25781 -0.97656,-0.25781 -0.89844,0 -1.55469,0.57031 -0.64844,0.57031 -0.64844,2.16406 v 4.53125 z m 14.28125,0 v -1.04687 q -0.78906,1.23437 -2.32031,1.23437 -0.99219,0 -1.82812,-0.54687 -0.82813,-0.54688 -1.28907,-1.52344 -0.45312,-0.98438 -0.45312,-2.25781 0,-1.24219 0.41406,-2.25 0.41406,-1.01563 1.24219,-1.55469 0.82812,-0.53906 1.85156,-0.53906 0.75,0 1.33594,0.32031 0.58594,0.3125 0.95312,0.82031 v -4.10937 h 1.39844 v 11.45312 z m -4.44531,-4.14062 q 0,1.59375 0.67188,2.38281 0.67187,0.78906 1.58593,0.78906 0.92188,0 1.5625,-0.75 0.64844,-0.75781 0.64844,-2.30469 0,-1.70312 -0.65625,-2.5 -0.65625,-0.79687 -1.61719,-0.79687 -0.9375,0 -1.57031,0.76562 -0.625,0.76563 -0.625,2.41407 z m 8.35938,4.14062 v -1.60156 h 1.60156 v 1.60156 z"
       id="flowRoot4302-6"
       transform="translate(-20,314.36182)"
       aria-label="Assign Ann shifts on a maximum of 1 consecutive weekend." /><flowRoot
       xml:space="preserve"
       id="flowRoot937"
       style="color:#000000;font-style:normal;font-variant:normal;font-weight:normal;font-stretch:normal;font-size:16px;font-family:Arial;-inkscape-font-specification:Arial;text-align:center;writing-mode:lr-tb;text-anchor:middle;display:inline;overflow:visible;visibility:visible;opacity:1;vector-effect:none;fill:#a40000;fill-opacity:1;fill-rule:nonzero;stroke:#8f5902;stroke-width:3;stroke-linecap:round;stroke-linejoin:round;stroke-miterlimit:4;stroke-dasharray:none;stroke-dashoffset:0;stroke-opacity:1;marker:none;enable-background:accumulate"><flowRegion
         id="flowRegion939"><rect
           id="rect941"
           width="52.987019"
           height="116.1039"
           x="-94.285713"
           y="141.03894" /></flowRegion><flowPara
         id="flowPara943" /></flowRoot><g
       id="g80"
       transform="translate(-0.86929902,86.928291)"
       style="display:inline" /></g><g
     id="layer2"
     style="display:inline"><path
       style="font-size:16px;line-height:1.25;font-family:Arial;-inkscape-font-specification:Arial;text-align:center;text-anchor:middle"
       d="m 210.38281,164.41207 v -2.74219 h -4.96875 v -1.28906 l 5.22656,-7.42187 h 1.14844 v 7.42187 h 1.54688 v 1.28906 h -1.54688 v 2.74219 z m 0,-4.03125 v -5.16406 l -3.58594,5.16406 z m 8.66406,1.55469 1.39063,-0.21875 q 0.11719,0.83594 0.64844,1.28125 0.53906,0.44531 1.5,0.44531 0.96875,0 1.4375,-0.39062 0.46875,-0.39844 0.46875,-0.92969 0,-0.47656 -0.41407,-0.75 -0.28906,-0.1875 -1.4375,-0.47656 -1.54687,-0.39063 -2.14843,-0.67188 -0.59375,-0.28906 -0.90625,-0.78906 -0.30469,-0.50781 -0.30469,-1.11719 0,-0.55469 0.25,-1.02344 0.25781,-0.47656 0.69531,-0.78906 0.32813,-0.24219 0.89063,-0.40625 0.57031,-0.17187 1.21875,-0.17187 0.97656,0 1.71093,0.28125 0.74219,0.28125 1.09375,0.76562 0.35157,0.47656 0.48438,1.28125 l -1.375,0.1875 q -0.0937,-0.64062 -0.54688,-1 -0.44531,-0.35937 -1.26562,-0.35937 -0.96875,0 -1.38281,0.32031 -0.41407,0.32031 -0.41407,0.75 0,0.27344 0.17188,0.49219 0.17187,0.22656 0.53906,0.375 0.21094,0.0781 1.24219,0.35937 1.49219,0.39844 2.07812,0.65625 0.59375,0.25 0.92969,0.73438 0.33594,0.48437 0.33594,1.20312 0,0.70313 -0.41406,1.32813 -0.40625,0.61718 -1.17969,0.96093 -0.77344,0.33594 -1.75,0.33594 -1.61719,0 -2.46875,-0.67187 -0.84375,-0.67188 -1.07813,-1.99219 z m 8.5625,2.47656 v -11.45312 h 1.40625 v 4.10937 Q 230,155.9277 231.5,155.9277 q 0.92187,0 1.60156,0.36718 0.67969,0.35938 0.96875,1 0.29688,0.64063 0.29688,1.85938 v 5.25781 h -1.40625 v -5.25781 q 0,-1.05469 -0.46094,-1.53125 -0.45313,-0.48438 -1.28906,-0.48438 -0.625,0 -1.17969,0.32813 -0.54688,0.32031 -0.78125,0.875 -0.23438,0.55469 -0.23438,1.53125 v 4.53906 z m 8.90625,-9.83594 v -1.61718 h 1.40625 v 1.61718 z m 0,9.83594 v -8.29687 h 1.40625 v 8.29687 z m 3.88282,0 v -7.20312 h -1.24219 v -1.09375 h 1.24219 v -0.88282 q 0,-0.83593 0.14843,-1.24218 0.20313,-0.54688 0.71094,-0.88282 0.51563,-0.34375 1.4375,-0.34375 0.59375,0 1.3125,0.14063 l -0.21094,1.22656 q -0.4375,-0.0781 -0.82812,-0.0781 -0.64063,0 -0.90625,0.27343 -0.26563,0.27344 -0.26563,1.02344 v 0.76563 h 1.61719 v 1.09375 h -1.61719 v 7.20312 z m 7.17968,-1.25781 0.20313,1.24219 q -0.59375,0.125 -1.0625,0.125 -0.76563,0 -1.1875,-0.24219 -0.42188,-0.24219 -0.59375,-0.63281 -0.17188,-0.39844 -0.17188,-1.66407 v -4.77343 h -1.03125 v -1.09375 h 1.03125 v -2.05469 l 1.39844,-0.84375 v 2.89844 h 1.41406 v 1.09375 h -1.41406 v 4.85156 q 0,0.60156 0.0703,0.77344 0.0781,0.17187 0.24219,0.27343 0.17188,0.10157 0.48438,0.10157 0.23437,0 0.61718,-0.0547 z m 0.8125,-1.21875 1.39063,-0.21875 q 0.11719,0.83594 0.64844,1.28125 0.53906,0.44531 1.5,0.44531 0.96875,0 1.4375,-0.39062 0.46875,-0.39844 0.46875,-0.92969 0,-0.47656 -0.41407,-0.75 -0.28906,-0.1875 -1.4375,-0.47656 -1.54687,-0.39063 -2.14843,-0.67188 -0.59375,-0.28906 -0.90625,-0.78906 -0.30469,-0.50781 -0.30469,-1.11719 0,-0.55469 0.25,-1.02344 0.25781,-0.47656 0.69531,-0.78906 0.32813,-0.24219 0.89063,-0.40625 0.57031,-0.17187 1.21875,-0.17187 0.97656,0 1.71093,0.28125 0.74219,0.28125 1.09375,0.76562 0.35157,0.47656 0.48438,1.28125 l -1.375,0.1875 q -0.0937,-0.64062 -0.54688,-1 -0.44531,-0.35937 -1.26562,-0.35937 -0.96875,0 -1.38281,0.32031 -0.41407,0.32031 -0.41407,0.75 0,0.27344 0.17188,0.49219 0.17187,0.22656 0.53906,0.375 0.21094,0.0781 1.24219,0.35937 1.49219,0.39844 2.07812,0.65625 0.59375,0.25 0.92969,0.73438 0.33594,0.48437 0.33594,1.20312 0,0.70313 -0.41406,1.32813 -0.40625,0.61718 -1.17969,0.96093 -0.77344,0.33594 -1.75,0.33594 -1.61719,0 -2.46875,-0.67187 -0.84375,-0.67188 -1.07813,-1.99219 z m 14.53907,2.47656 -2.53907,-8.29687 h 1.45313 l 1.32031,4.78906 0.49219,1.78125 q 0.0312,-0.13281 0.42969,-1.71094 l 1.32031,-4.85937 h 1.44531 l 1.24219,4.8125 0.41406,1.58593 0.47656,-1.60156 1.42188,-4.79687 h 1.36719 l -2.59375,8.29687 h -1.46094 l -1.32031,-4.96875 -0.32032,-1.41406 -1.67968,6.38281 z m 15.70312,-2.67187 1.45313,0.17968 q -0.34375,1.27344 -1.27344,1.97657 -0.92969,0.70312 -2.375,0.70312 -1.82031,0 -2.89063,-1.11719 -1.0625,-1.125 -1.0625,-3.14843 0,-2.09375 1.07813,-3.25 1.07812,-1.15625 2.79687,-1.15625 1.66407,0 2.71875,1.13281 1.05469,1.13281 1.05469,3.1875 0,0.125 -0.008,0.375 h -6.1875 q 0.0781,1.36719 0.77344,2.09375 0.69531,0.72656 1.73437,0.72656 0.77344,0 1.32031,-0.40625 0.54688,-0.40625 0.86719,-1.29687 z m -4.61719,-2.27344 h 4.63282 q -0.0937,-1.04688 -0.53125,-1.57031 -0.67188,-0.8125 -1.74219,-0.8125 -0.96875,0 -1.63281,0.64843 -0.65625,0.64844 -0.72657,1.73438 z m 7.82032,4.94531 v -8.29687 h 1.26562 v 1.25781 q 0.48438,-0.88281 0.89063,-1.16406 0.41406,-0.28125 0.90625,-0.28125 0.71093,0 1.44531,0.45312 l -0.48438,1.30469 q -0.51562,-0.30469 -1.03125,-0.30469 -0.46093,0 -0.82812,0.28125 -0.36719,0.27344 -0.52344,0.76563 -0.23437,0.75 -0.23437,1.64062 v 4.34375 z m 11.02343,-2.67187 1.45313,0.17968 q -0.34375,1.27344 -1.27344,1.97657 -0.92969,0.70312 -2.375,0.70312 -1.82031,0 -2.89062,-1.11719 -1.0625,-1.125 -1.0625,-3.14843 0,-2.09375 1.07812,-3.25 1.07813,-1.15625 2.79688,-1.15625 1.66406,0 2.71875,1.13281 1.05468,1.13281 1.05468,3.1875 0,0.125 -0.008,0.375 h -6.1875 q 0.0781,1.36719 0.77344,2.09375 0.69531,0.72656 1.73437,0.72656 0.77344,0 1.32032,-0.40625 0.54687,-0.40625 0.86718,-1.29687 z m -4.61718,-2.27344 h 4.63281 q -0.0937,-1.04688 -0.53125,-1.57031 -0.67188,-0.8125 -1.74219,-0.8125 -0.96875,0 -1.63281,0.64843 -0.65625,0.64844 -0.72656,1.73438 z m 12.28125,4.94531 v -8.29687 h 1.26562 v 1.17968 q 0.91406,-1.36718 2.64063,-1.36718 0.75,0 1.375,0.27343 0.63281,0.26563 0.94531,0.70313 0.3125,0.4375 0.4375,1.03906 0.0781,0.39063 0.0781,1.36719 v 5.10156 h -1.40625 v -5.04687 q 0,-0.85938 -0.16406,-1.28125 -0.16406,-0.42969 -0.58594,-0.67969 -0.41406,-0.25781 -0.97656,-0.25781 -0.89844,0 -1.55469,0.57031 -0.64843,0.57031 -0.64843,2.16406 v 4.53125 z m 8.375,-4.14844 q 0,-2.30468 1.28125,-3.41406 1.07031,-0.92187 2.60937,-0.92187 1.71094,0 2.79688,1.125 1.08593,1.11718 1.08593,3.09375 0,1.60156 -0.48437,2.52343 -0.47656,0.91407 -1.39844,1.42188 -0.91406,0.50781 -2,0.50781 -1.74219,0 -2.82031,-1.11719 -1.07031,-1.11718 -1.07031,-3.21875 z m 1.44531,0 q 0,1.59375 0.69531,2.39063 0.69531,0.78906 1.75,0.78906 1.04688,0 1.74219,-0.79687 0.69531,-0.79688 0.69531,-2.42969 0,-1.53906 -0.70312,-2.32813 -0.69532,-0.79687 -1.73438,-0.79687 -1.05469,0 -1.75,0.78906 -0.69531,0.78906 -0.69531,2.38281 z m 11.04687,2.89063 0.20313,1.24219 q -0.59375,0.125 -1.0625,0.125 -0.76563,0 -1.1875,-0.24219 -0.42188,-0.24219 -0.59375,-0.63281 -0.17188,-0.39844 -0.17188,-1.66407 v -4.77343 h -1.03125 v -1.09375 h 1.03125 v -2.05469 l 1.39844,-0.84375 v 2.89844 h 1.41406 v 1.09375 h -1.41406 v 4.85156 q 0,0.60156 0.0703,0.77344 0.0781,0.17187 0.24219,0.27343 0.17188,0.10157 0.48438,0.10157 0.23437,0 0.61718,-0.0547 z m 11.23438,0.23437 q -0.78125,0.66407 -1.50781,0.9375 -0.71875,0.27344 -1.54688,0.27344 -1.36719,0 -2.10156,-0.66406 -0.73438,-0.67188 -0.73438,-1.71094 0,-0.60937 0.27344,-1.10937 0.28125,-0.50782 0.72656,-0.8125 0.45313,-0.30469 1.01563,-0.46094 0.41406,-0.10938 1.25,-0.21094 1.70312,-0.20312 2.50781,-0.48437 0.008,-0.28907 0.008,-0.36719 0,-0.85938 -0.39843,-1.21094 -0.53907,-0.47656 -1.60157,-0.47656 -0.99218,0 -1.46875,0.35156 -0.46875,0.34375 -0.69531,1.22656 l -1.375,-0.1875 q 0.1875,-0.88281 0.61719,-1.42187 0.42969,-0.54688 1.24219,-0.83594 0.8125,-0.29687 1.88281,-0.29687 1.0625,0 1.72656,0.25 0.66406,0.25 0.97656,0.63281 0.3125,0.375 0.4375,0.95312 0.0703,0.35938 0.0703,1.29688 v 1.875 q 0,1.96094 0.0859,2.48437 0.0937,0.51563 0.35938,0.99219 h -1.46875 q -0.21875,-0.4375 -0.28125,-1.02344 z m -0.11719,-3.14062 q -0.76562,0.3125 -2.29687,0.53125 -0.86719,0.125 -1.22657,0.28125 -0.35937,0.15625 -0.55468,0.46094 -0.19532,0.29687 -0.19532,0.66406 0,0.5625 0.42188,0.9375 0.42969,0.375 1.25,0.375 0.8125,0 1.44531,-0.35156 0.63281,-0.35938 0.92969,-0.97657 0.22656,-0.47656 0.22656,-1.40625 z m 3.03906,1.6875 1.39063,-0.21875 q 0.11719,0.83594 0.64844,1.28125 0.53906,0.44531 1.5,0.44531 0.96875,0 1.4375,-0.39062 0.46875,-0.39844 0.46875,-0.92969 0,-0.47656 -0.41407,-0.75 -0.28906,-0.1875 -1.4375,-0.47656 -1.54687,-0.39063 -2.14843,-0.67188 -0.59375,-0.28906 -0.90625,-0.78906 -0.30469,-0.50781 -0.30469,-1.11719 0,-0.55469 0.25,-1.02344 0.25781,-0.47656 0.69531,-0.78906 0.32813,-0.24219 0.89063,-0.40625 0.57031,-0.17187 1.21875,-0.17187 0.97656,0 1.71093,0.28125 0.74219,0.28125 1.09375,0.76562 0.35157,0.47656 0.48438,1.28125 l -1.375,0.1875 q -0.0937,-0.64062 -0.54688,-1 -0.44531,-0.35937 -1.26562,-0.35937 -0.96875,0 -1.38281,0.32031 -0.41407,0.32031 -0.41407,0.75 0,0.27344 0.17188,0.49219 0.17187,0.22656 0.53906,0.375 0.21094,0.0781 1.24219,0.35937 1.49219,0.39844 2.07812,0.65625 0.59375,0.25 0.92969,0.73438 0.33594,0.48437 0.33594,1.20312 0,0.70313 -0.41406,1.32813 -0.40625,0.61718 -1.17969,0.96093 -0.77344,0.33594 -1.75,0.33594 -1.61719,0 -2.46875,-0.67187 -0.84375,-0.67188 -1.07813,-1.99219 z m 8,0 1.39063,-0.21875 q 0.11719,0.83594 0.64844,1.28125 0.53906,0.44531 1.5,0.44531 0.96875,0 1.4375,-0.39062 0.46875,-0.39844 0.46875,-0.92969 0,-0.47656 -0.41407,-0.75 -0.28906,-0.1875 -1.4375,-0.47656 -1.54687,-0.39063 -2.14843,-0.67188 -0.59375,-0.28906 -0.90625,-0.78906 -0.30469,-0.50781 -0.30469,-1.11719 0,-0.55469 0.25,-1.02344 0.25781,-0.47656 0.69531,-0.78906 0.32813,-0.24219 0.89063,-0.40625 0.57031,-0.17187 1.21875,-0.17187 0.97656,0 1.71093,0.28125 0.74219,0.28125 1.09375,0.76562 0.35157,0.47656 0.48438,1.28125 l -1.375,0.1875 q -0.0937,-0.64062 -0.54688,-1 -0.44531,-0.35937 -1.26562,-0.35937 -0.96875,0 -1.38281,0.32031 -0.41407,0.32031 -0.41407,0.75 0,0.27344 0.17188,0.49219 0.17187,0.22656 0.53906,0.375 0.21094,0.0781 1.24219,0.35937 1.49219,0.39844 2.07812,0.65625 0.59375,0.25 0.92969,0.73438 0.33594,0.48437 0.33594,1.20312 0,0.70313 -0.41406,1.32813 -0.40625,0.61718 -1.17969,0.96093 -0.77344,0.33594 -1.75,0.33594 -1.61719,0 -2.46875,-0.67187 -0.84375,-0.67188 -1.07813,-1.99219 z m 8.57032,-7.35938 v -1.61718 h 1.40625 v 1.61718 z m 0,9.83594 v -8.29687 h 1.40625 v 8.29687 z m 3.28906,0.6875 1.36719,0.20313 q 0.0859,0.63281 0.47656,0.92187 0.52344,0.39063 1.42969,0.39063 0.97656,0 1.50781,-0.39063 0.53125,-0.39062 0.71875,-1.09375 0.10937,-0.42969 0.10156,-1.80469 -0.92187,1.08594 -2.29687,1.08594 -1.71094,0 -2.64844,-1.23437 -0.9375,-1.23438 -0.9375,-2.96094 0,-1.1875 0.42969,-2.1875 0.42968,-1.00781 1.24218,-1.55469 0.82032,-0.54687 1.92188,-0.54687 1.46875,0 2.42187,1.1875 v -1 h 1.29688 v 7.17187 q 0,1.9375 -0.39844,2.74219 -0.39062,0.8125 -1.25,1.28125 -0.85156,0.46875 -2.10156,0.46875 -1.48438,0 -2.39844,-0.67188 -0.91406,-0.66406 -0.88281,-2.00781 z m 1.16406,-4.98437 q 0,1.63281 0.64844,2.38281 0.64844,0.75 1.625,0.75 0.96875,0 1.625,-0.74219 0.65625,-0.75 0.65625,-2.34375 0,-1.52344 -0.67969,-2.29687 -0.67187,-0.77344 -1.625,-0.77344 -0.9375,0 -1.59375,0.76562 -0.65625,0.75782 -0.65625,2.25782 z m 7.99219,4.29687 v -8.29687 h 1.26562 v 1.17968 q 0.91407,-1.36718 2.64063,-1.36718 0.75,0 1.375,0.27343 0.63281,0.26563 0.94531,0.70313 0.3125,0.4375 0.4375,1.03906 0.0781,0.39063 0.0781,1.36719 v 5.10156 h -1.40625 v -5.04687 q 0,-0.85938 -0.16407,-1.28125 -0.16406,-0.42969 -0.58593,-0.67969 -0.41407,-0.25781 -0.97657,-0.25781 -0.89843,0 -1.55468,0.57031 -0.64844,0.57031 -0.64844,2.16406 v 4.53125 z m 14.57812,-2.67187 1.45313,0.17968 q -0.34375,1.27344 -1.27344,1.97657 -0.92969,0.70312 -2.375,0.70312 -1.82031,0 -2.89062,-1.11719 -1.0625,-1.125 -1.0625,-3.14843 0,-2.09375 1.07812,-3.25 1.07813,-1.15625 2.79688,-1.15625 1.66406,0 2.71875,1.13281 1.05468,1.13281 1.05468,3.1875 0,0.125 -0.008,0.375 h -6.1875 q 0.0781,1.36719 0.77344,2.09375 0.69531,0.72656 1.73437,0.72656 0.77344,0 1.32032,-0.40625 0.54687,-0.40625 0.86718,-1.29687 z m -4.61718,-2.27344 h 4.63281 q -0.0937,-1.04688 -0.53125,-1.57031 -0.67188,-0.8125 -1.74219,-0.8125 -0.96875,0 -1.63281,0.64843 -0.65625,0.64844 -0.72656,1.73438 z m 13.21875,4.94531 v -1.04687 q -0.78907,1.23437 -2.32032,1.23437 -0.99218,0 -1.82812,-0.54687 -0.82813,-0.54688 -1.28906,-1.52344 -0.45313,-0.98438 -0.45313,-2.25781 0,-1.24219 0.41406,-2.25 0.41407,-1.01563 1.24219,-1.55469 0.82813,-0.53906 1.85156,-0.53906 0.75,0 1.33594,0.32031 0.58594,0.3125 0.95313,0.82031 v -4.10937 h 1.39843 v 11.45312 z m -4.44532,-4.14062 q 0,1.59375 0.67188,2.38281 0.67187,0.78906 1.58594,0.78906 0.92187,0 1.5625,-0.75 0.64843,-0.75781 0.64843,-2.30469 0,-1.70312 -0.65625,-2.5 -0.65625,-0.79687 -1.61718,-0.79687 -0.9375,0 -1.57032,0.76562 -0.625,0.76563 -0.625,2.41407 z m 15.47657,2.88281 0.20312,1.24219 q -0.59375,0.125 -1.0625,0.125 -0.76562,0 -1.1875,-0.24219 -0.42187,-0.24219 -0.59375,-0.63281 -0.17187,-0.39844 -0.17187,-1.66407 v -4.77343 h -1.03125 v -1.09375 h 1.03125 v -2.05469 l 1.39843,-0.84375 v 2.89844 h 1.41407 v 1.09375 h -1.41407 v 4.85156 q 0,0.60156 0.0703,0.77344 0.0781,0.17187 0.24218,0.27343 0.17188,0.10157 0.48438,0.10157 0.23437,0 0.61719,-0.0547 z m 0.85156,-2.89063 q 0,-2.30468 1.28125,-3.41406 1.07031,-0.92187 2.60937,-0.92187 1.71094,0 2.79688,1.125 1.08594,1.11718 1.08594,3.09375 0,1.60156 -0.48438,2.52343 -0.47656,0.91407 -1.39844,1.42188 -0.91406,0.50781 -2,0.50781 -1.74218,0 -2.82031,-1.11719 -1.07031,-1.11718 -1.07031,-3.21875 z m 1.44531,0 q 0,1.59375 0.69531,2.39063 0.69532,0.78906 1.75,0.78906 1.04688,0 1.74219,-0.79687 0.69531,-0.79688 0.69531,-2.42969 0,-1.53906 -0.70312,-2.32813 -0.69531,-0.79687 -1.73438,-0.79687 -1.05468,0 -1.75,0.78906 -0.69531,0.78906 -0.69531,2.38281 z m 17.83594,3.125 q -0.78125,0.66407 -1.50781,0.9375 -0.71875,0.27344 -1.54688,0.27344 -1.36719,0 -2.10156,-0.66406 -0.73438,-0.67188 -0.73438,-1.71094 0,-0.60937 0.27344,-1.10937 0.28125,-0.50782 0.72656,-0.8125 0.45313,-0.30469 1.01563,-0.46094 0.41406,-0.10938 1.25,-0.21094 1.70312,-0.20312 2.50781,-0.48437 0.008,-0.28907 0.008,-0.36719 0,-0.85938 -0.39843,-1.21094 -0.53907,-0.47656 -1.60157,-0.47656 -0.99218,0 -1.46875,0.35156 -0.46875,0.34375 -0.69531,1.22656 l -1.375,-0.1875 q 0.1875,-0.88281 0.61719,-1.42187 0.42969,-0.54688 1.24219,-0.83594 0.8125,-0.29687 1.88281,-0.29687 1.0625,0 1.72656,0.25 0.66406,0.25 0.97656,0.63281 0.3125,0.375 0.4375,0.95312 0.0703,0.35938 0.0703,1.29688 v 1.875 q 0,1.96094 0.0859,2.48437 0.0937,0.51563 0.35938,0.99219 h -1.46875 q -0.21875,-0.4375 -0.28125,-1.02344 z m -0.11719,-3.14062 q -0.76562,0.3125 -2.29687,0.53125 -0.86719,0.125 -1.22657,0.28125 -0.35937,0.15625 -0.55468,0.46094 -0.19532,0.29687 -0.19532,0.66406 0,0.5625 0.42188,0.9375 0.42969,0.375 1.25,0.375 0.8125,0 1.44531,-0.35156 0.63281,-0.35938 0.92969,-0.97657 0.22656,-0.47656 0.22656,-1.40625 z m 5.90625,4.16406 -3.15625,-8.29687 h 1.48438 l 1.78125,4.96875 q 0.28906,0.80468 0.53125,1.67187 0.1875,-0.65625 0.52343,-1.57812 l 1.84375,-5.0625 h 1.44532 l -3.14063,8.29687 z m 5.17188,-4.14844 q 0,-2.30468 1.28125,-3.41406 1.07031,-0.92187 2.60937,-0.92187 1.71094,0 2.79688,1.125 1.08593,1.11718 1.08593,3.09375 0,1.60156 -0.48437,2.52343 -0.47656,0.91407 -1.39844,1.42188 -0.91406,0.50781 -2,0.50781 -1.74219,0 -2.82031,-1.11719 -1.07031,-1.11718 -1.07031,-3.21875 z m 1.44531,0 q 0,1.59375 0.69531,2.39063 0.69531,0.78906 1.75,0.78906 1.04688,0 1.74219,-0.79687 0.69531,-0.79688 0.69531,-2.42969 0,-1.53906 -0.70312,-2.32813 -0.69532,-0.79687 -1.73438,-0.79687 -1.05469,0 -1.75,0.78906 -0.69531,0.78906 -0.69531,2.38281 z m 7.98437,-5.6875 v -1.61718 h 1.40625 v 1.61718 z m 0,9.83594 v -8.29687 h 1.40625 v 8.29687 z m 8.92969,0 v -1.04687 q -0.78906,1.23437 -2.32031,1.23437 -0.99219,0 -1.82813,-0.54687 -0.82812,-0.54688 -1.28906,-1.52344 -0.45312,-0.98438 -0.45312,-2.25781 0,-1.24219 0.41406,-2.25 0.41406,-1.01563 1.24219,-1.55469 0.82812,-0.53906 1.85156,-0.53906 0.75,0 1.33594,0.32031 0.58593,0.3125 0.95312,0.82031 v -4.10937 h 1.39844 v 11.45312 z m -4.44531,-4.14062 q 0,1.59375 0.67187,2.38281 0.67188,0.78906 1.58594,0.78906 0.92188,0 1.5625,-0.75 0.64844,-0.75781 0.64844,-2.30469 0,-1.70312 -0.65625,-2.5 -0.65625,-0.79687 -1.61719,-0.79687 -0.9375,0 -1.57031,0.76562 -0.625,0.76563 -0.625,2.41407 z m 13.70312,4.14062 h -1.30468 v -11.45312 h 1.40625 v 4.08593 q 0.89062,-1.11718 2.27343,-1.11718 0.76563,0 1.44532,0.3125 0.6875,0.30468 1.125,0.86718 0.44531,0.55469 0.69531,1.34375 0.25,0.78907 0.25,1.6875 0,2.13282 -1.05469,3.29688 -1.05469,1.16406 -2.53125,1.16406 -1.46875,0 -2.30469,-1.22656 z m -0.0156,-4.21094 q 0,1.49219 0.40625,2.15625 0.66406,1.08594 1.79687,1.08594 0.92188,0 1.59375,-0.79687 0.67188,-0.80469 0.67188,-2.39063 0,-1.625 -0.64844,-2.39844 -0.64062,-0.77343 -1.55469,-0.77343 -0.92187,0 -1.59375,0.80468 -0.67187,0.79688 -0.67187,2.3125 z m 7.60156,4.21094 v -8.29687 h 1.26563 v 1.25781 q 0.48437,-0.88281 0.89062,-1.16406 0.41406,-0.28125 0.90625,-0.28125 0.71094,0 1.44531,0.45312 l -0.48437,1.30469 q -0.51563,-0.30469 -1.03125,-0.30469 -0.46094,0 -0.82813,0.28125 -0.36718,0.27344 -0.52343,0.76563 -0.23438,0.75 -0.23438,1.64062 v 4.34375 z m 11.02344,-2.67187 1.45312,0.17968 q -0.34375,1.27344 -1.27343,1.97657 -0.92969,0.70312 -2.375,0.70312 -1.82032,0 -2.89063,-1.11719 -1.0625,-1.125 -1.0625,-3.14843 0,-2.09375 1.07813,-3.25 1.07812,-1.15625 2.79687,-1.15625 1.66406,0 2.71875,1.13281 1.05469,1.13281 1.05469,3.1875 0,0.125 -0.008,0.375 h -6.1875 q 0.0781,1.36719 0.77343,2.09375 0.69532,0.72656 1.73438,0.72656 0.77344,0 1.32031,-0.40625 0.54688,-0.40625 0.86719,-1.29687 z m -4.61719,-2.27344 h 4.63281 q -0.0937,-1.04688 -0.53125,-1.57031 -0.67187,-0.8125 -1.74218,-0.8125 -0.96875,0 -1.63282,0.64843 -0.65625,0.64844 -0.72656,1.73438 z m 13.25,3.92187 q -0.78125,0.66407 -1.50781,0.9375 -0.71875,0.27344 -1.54688,0.27344 -1.36718,0 -2.10156,-0.66406 -0.73437,-0.67188 -0.73437,-1.71094 0,-0.60937 0.27343,-1.10937 0.28125,-0.50782 0.72657,-0.8125 0.45312,-0.30469 1.01562,-0.46094 0.41406,-0.10938 1.25,-0.21094 1.70313,-0.20312 2.50781,-0.48437 0.008,-0.28907 0.008,-0.36719 0,-0.85938 -0.39844,-1.21094 -0.53906,-0.47656 -1.60156,-0.47656 -0.99219,0 -1.46875,0.35156 -0.46875,0.34375 -0.69532,1.22656 l -1.375,-0.1875 q 0.1875,-0.88281 0.61719,-1.42187 0.42969,-0.54688 1.24219,-0.83594 0.8125,-0.29687 1.88281,-0.29687 1.0625,0 1.72656,0.25 0.66407,0.25 0.97657,0.63281 0.3125,0.375 0.4375,0.95312 0.0703,0.35938 0.0703,1.29688 v 1.875 q 0,1.96094 0.0859,2.48437 0.0937,0.51563 0.35937,0.99219 h -1.46875 q -0.21875,-0.4375 -0.28125,-1.02344 z m -0.11719,-3.14062 q -0.76562,0.3125 -2.29687,0.53125 -0.86719,0.125 -1.22656,0.28125 -0.35938,0.15625 -0.55469,0.46094 -0.19531,0.29687 -0.19531,0.66406 0,0.5625 0.42187,0.9375 0.42969,0.375 1.25,0.375 0.8125,0 1.44531,-0.35156 0.63282,-0.35938 0.92969,-0.97657 0.22656,-0.47656 0.22656,-1.40625 z m 3.60938,4.16406 v -11.45312 h 1.40625 v 6.53125 l 3.32812,-3.375 h 1.82032 l -3.17188,3.07812 3.49219,5.21875 h -1.73438 l -2.74218,-4.24219 -0.99219,0.95313 v 3.28906 z m 8,-9.83594 v -1.61718 h 1.40625 v 1.61718 z m 0,9.83594 v -8.29687 h 1.40625 v 8.29687 z m 3.54687,0 v -8.29687 h 1.26563 v 1.17968 q 0.91406,-1.36718 2.64062,-1.36718 0.75,0 1.375,0.27343 0.63282,0.26563 0.94532,0.70313 0.3125,0.4375 0.4375,1.03906 0.0781,0.39063 0.0781,1.36719 v 5.10156 h -1.40625 v -5.04687 q 0,-0.85938 -0.16406,-1.28125 -0.16406,-0.42969 -0.58594,-0.67969 -0.41406,-0.25781 -0.97656,-0.25781 -0.89844,0 -1.55469,0.57031 -0.64844,0.57031 -0.64844,2.16406 v 4.53125 z m 8.64063,0.6875 1.36719,0.20313 q 0.0859,0.63281 0.47656,0.92187 0.52344,0.39063 1.42969,0.39063 0.97656,0 1.50781,-0.39063 0.53125,-0.39062 0.71875,-1.09375 0.10937,-0.42969 0.10156,-1.80469 -0.92187,1.08594 -2.29687,1.08594 -1.71094,0 -2.64844,-1.23437 -0.9375,-1.23438 -0.9375,-2.96094 0,-1.1875 0.42969,-2.1875 0.42968,-1.00781 1.24218,-1.55469 0.82032,-0.54687 1.92188,-0.54687 1.46875,0 2.42187,1.1875 v -1 h 1.29688 v 7.17187 q 0,1.9375 -0.39844,2.74219 -0.39062,0.8125 -1.25,1.28125 -0.85156,0.46875 -2.10156,0.46875 -1.48438,0 -2.39844,-0.67188 -0.91406,-0.66406 -0.88281,-2.00781 z m 1.16406,-4.98437 q 0,1.63281 0.64844,2.38281 0.64844,0.75 1.625,0.75 0.96875,0 1.625,-0.74219 0.65625,-0.75 0.65625,-2.34375 0,-1.52344 -0.67969,-2.29687 -0.67187,-0.77344 -1.625,-0.77344 -0.9375,0 -1.59375,0.76562 -0.65625,0.75782 -0.65625,2.25782 z m 12.4375,4.29687 v -11.45312 h 1.40625 v 4.10937 q 0.98438,-1.14062 2.48438,-1.14062 0.92187,0 1.60156,0.36718 0.67969,0.35938 0.96875,1 0.29687,0.64063 0.29687,1.85938 v 5.25781 h -1.40625 v -5.25781 q 0,-1.05469 -0.46093,-1.53125 -0.45313,-0.48438 -1.28907,-0.48438 -0.625,0 -1.17968,0.32813 -0.54688,0.32031 -0.78125,0.875 -0.23438,0.55469 -0.23438,1.53125 v 4.53906 z m 14.3125,-1.02344 q -0.78125,0.66407 -1.50781,0.9375 -0.71875,0.27344 -1.54688,0.27344 -1.36718,0 -2.10156,-0.66406 -0.73437,-0.67188 -0.73437,-1.71094 0,-0.60937 0.27343,-1.10937 0.28125,-0.50782 0.72657,-0.8125 0.45312,-0.30469 1.01562,-0.46094 0.41406,-0.10938 1.25,-0.21094 1.70313,-0.20312 2.50781,-0.48437 0.008,-0.28907 0.008,-0.36719 0,-0.85938 -0.39844,-1.21094 -0.53906,-0.47656 -1.60156,-0.47656 -0.99219,0 -1.46875,0.35156 -0.46875,0.34375 -0.69532,1.22656 l -1.375,-0.1875 q 0.1875,-0.88281 0.61719,-1.42187 0.42969,-0.54688 1.24219,-0.83594 0.8125,-0.29687 1.88281,-0.29687 1.0625,0 1.72656,0.25 0.66407,0.25 0.97657,0.63281 0.3125,0.375 0.4375,0.95312 0.0703,0.35938 0.0703,1.29688 v 1.875 q 0,1.96094 0.0859,2.48437 0.0937,0.51563 0.35937,0.99219 h -1.46875 q -0.21875,-0.4375 -0.28125,-1.02344 z m -0.11719,-3.14062 q -0.76562,0.3125 -2.29687,0.53125 -0.86719,0.125 -1.22656,0.28125 -0.35938,0.15625 -0.55469,0.46094 -0.19531,0.29687 -0.19531,0.66406 0,0.5625 0.42187,0.9375 0.42969,0.375 1.25,0.375 0.8125,0 1.44531,-0.35156 0.63282,-0.35938 0.92969,-0.97657 0.22656,-0.47656 0.22656,-1.40625 z m 3.58594,4.16406 v -8.29687 h 1.26563 v 1.25781 q 0.48437,-0.88281 0.89062,-1.16406 0.41406,-0.28125 0.90625,-0.28125 0.71094,0 1.44531,0.45312 l -0.48437,1.30469 q -0.51563,-0.30469 -1.03125,-0.30469 -0.46094,0 -0.82813,0.28125 -0.36718,0.27344 -0.52343,0.76563 -0.23438,0.75 -0.23438,1.64062 v 4.34375 z m 10.72656,0 v -1.04687 q -0.78906,1.23437 -2.32031,1.23437 -0.99219,0 -1.82812,-0.54687 -0.82813,-0.54688 -1.28907,-1.52344 -0.45312,-0.98438 -0.45312,-2.25781 0,-1.24219 0.41406,-2.25 0.41406,-1.01563 1.24219,-1.55469 0.82812,-0.53906 1.85156,-0.53906 0.75,0 1.33594,0.32031 0.58594,0.3125 0.95312,0.82031 v -4.10937 h 1.39844 v 11.45312 z m -4.44531,-4.14062 q 0,1.59375 0.67188,2.38281 0.67187,0.78906 1.58593,0.78906 0.92188,0 1.5625,-0.75 0.64844,-0.75781 0.64844,-2.30469 0,-1.70312 -0.65625,-2.5 -0.65625,-0.79687 -1.61719,-0.79687 -0.9375,0 -1.57031,0.76562 -0.625,0.76563 -0.625,2.41407 z m 17.82031,1.10156 1.38282,0.17969 q -0.22657,1.42968 -1.16407,2.24218 -0.92968,0.80469 -2.28906,0.80469 -1.70312,0 -2.74219,-1.10937 -1.03125,-1.11719 -1.03125,-3.19532 0,-1.34375 0.44532,-2.35156 0.44531,-1.00781 1.35156,-1.50781 0.91406,-0.50781 1.98437,-0.50781 1.35157,0 2.21094,0.6875 0.85938,0.67968 1.10156,1.9375 l -1.36718,0.21093 q -0.19532,-0.83593 -0.69532,-1.25781 -0.49218,-0.42187 -1.19531,-0.42187 -1.0625,0 -1.72656,0.76562 -0.66406,0.75781 -0.66406,2.40625 0,1.67188 0.64062,2.42969 0.64063,0.75781 1.67188,0.75781 0.82812,0 1.38281,-0.50781 0.55469,-0.50781 0.70312,-1.5625 z m 2.0625,-1.10938 q 0,-2.30468 1.28125,-3.41406 1.07032,-0.92187 2.60938,-0.92187 1.71094,0 2.79687,1.125 1.08594,1.11718 1.08594,3.09375 0,1.60156 -0.48437,2.52343 -0.47657,0.91407 -1.39844,1.42188 -0.91406,0.50781 -2,0.50781 -1.74219,0 -2.82031,-1.11719 -1.07032,-1.11718 -1.07032,-3.21875 z m 1.44532,0 q 0,1.59375 0.69531,2.39063 0.69531,0.78906 1.75,0.78906 1.04687,0 1.74219,-0.79687 0.69531,-0.79688 0.69531,-2.42969 0,-1.53906 -0.70313,-2.32813 -0.69531,-0.79687 -1.73437,-0.79687 -1.05469,0 -1.75,0.78906 -0.69531,0.78906 -0.69531,2.38281 z m 7.97656,4.14844 v -8.29687 h 1.26562 v 1.17968 q 0.91407,-1.36718 2.64063,-1.36718 0.75,0 1.375,0.27343 0.63281,0.26563 0.94531,0.70313 0.3125,0.4375 0.4375,1.03906 0.0781,0.39063 0.0781,1.36719 v 5.10156 h -1.40625 v -5.04687 q 0,-0.85938 -0.16407,-1.28125 -0.16406,-0.42969 -0.58593,-0.67969 -0.41407,-0.25781 -0.97657,-0.25781 -0.89843,0 -1.55468,0.57031 -0.64844,0.57031 -0.64844,2.16406 v 4.53125 z m 8.33594,-2.47656 1.39062,-0.21875 q 0.11719,0.83594 0.64844,1.28125 0.53906,0.44531 1.5,0.44531 0.96875,0 1.4375,-0.39062 0.46875,-0.39844 0.46875,-0.92969 0,-0.47656 -0.41406,-0.75 -0.28907,-0.1875 -1.4375,-0.47656 -1.54688,-0.39063 -2.14844,-0.67188 -0.59375,-0.28906 -0.90625,-0.78906 -0.30469,-0.50781 -0.30469,-1.11719 0,-0.55469 0.25,-1.02344 0.25781,-0.47656 0.69531,-0.78906 0.32813,-0.24219 0.89063,-0.40625 0.57031,-0.17187 1.21875,-0.17187 0.97656,0 1.71094,0.28125 0.74218,0.28125 1.09375,0.76562 0.35156,0.47656 0.48437,1.28125 l -1.375,0.1875 q -0.0937,-0.64062 -0.54687,-1 -0.44532,-0.35937 -1.26563,-0.35937 -0.96875,0 -1.38281,0.32031 -0.41406,0.32031 -0.41406,0.75 0,0.27344 0.17187,0.49219 0.17188,0.22656 0.53906,0.375 0.21094,0.0781 1.24219,0.35937 1.49219,0.39844 2.07813,0.65625 0.59375,0.25 0.92968,0.73438 0.33594,0.48437 0.33594,1.20312 0,0.70313 -0.41406,1.32813 -0.40625,0.61718 -1.17969,0.96093 -0.77344,0.33594 -1.75,0.33594 -1.61719,0 -2.46875,-0.67187 -0.84375,-0.67188 -1.07812,-1.99219 z m 11.63281,1.21875 0.20312,1.24219 q -0.59375,0.125 -1.0625,0.125 -0.76562,0 -1.1875,-0.24219 -0.42187,-0.24219 -0.59375,-0.63281 -0.17187,-0.39844 -0.17187,-1.66407 v -4.77343 H 591.5 v -1.09375 h 1.03125 v -2.05469 l 1.39844,-0.84375 v 2.89844 h 1.41406 v 1.09375 h -1.41406 v 4.85156 q 0,0.60156 0.0703,0.77344 0.0781,0.17187 0.24219,0.27343 0.17187,0.10157 0.48437,0.10157 0.23438,0 0.61719,-0.0547 z m 1.35937,1.25781 v -8.29687 h 1.26563 v 1.25781 q 0.48437,-0.88281 0.89062,-1.16406 0.41407,-0.28125 0.90625,-0.28125 0.71094,0 1.44532,0.45312 l -0.48438,1.30469 q -0.51562,-0.30469 -1.03125,-0.30469 -0.46094,0 -0.82812,0.28125 -0.36719,0.27344 -0.52344,0.76563 -0.23438,0.75 -0.23438,1.64062 v 4.34375 z m 10.75782,-1.02344 q -0.78125,0.66407 -1.50782,0.9375 -0.71875,0.27344 -1.54687,0.27344 -1.36719,0 -2.10156,-0.66406 -0.73438,-0.67188 -0.73438,-1.71094 0,-0.60937 0.27344,-1.10937 0.28125,-0.50782 0.72656,-0.8125 0.45313,-0.30469 1.01563,-0.46094 0.41406,-0.10938 1.25,-0.21094 1.70312,-0.20312 2.50781,-0.48437 0.008,-0.28907 0.008,-0.36719 0,-0.85938 -0.39844,-1.21094 -0.53906,-0.47656 -1.60156,-0.47656 -0.99219,0 -1.46875,0.35156 -0.46875,0.34375 -0.69531,1.22656 l -1.375,-0.1875 q 0.1875,-0.88281 0.61719,-1.42187 0.42968,-0.54688 1.24218,-0.83594 0.8125,-0.29687 1.88282,-0.29687 1.0625,0 1.72656,0.25 0.66406,0.25 0.97656,0.63281 0.3125,0.375 0.4375,0.95312 0.0703,0.35938 0.0703,1.29688 v 1.875 q 0,1.96094 0.0859,2.48437 0.0937,0.51563 0.35938,0.99219 h -1.46875 q -0.21875,-0.4375 -0.28125,-1.02344 z m -0.11719,-3.14062 q -0.76563,0.3125 -2.29688,0.53125 -0.86718,0.125 -1.22656,0.28125 -0.35937,0.15625 -0.55469,0.46094 -0.19531,0.29687 -0.19531,0.66406 0,0.5625 0.42188,0.9375 0.42968,0.375 1.25,0.375 0.8125,0 1.44531,-0.35156 0.63281,-0.35938 0.92969,-0.97657 0.22656,-0.47656 0.22656,-1.40625 z m 3.60937,-5.67188 v -1.61718 h 1.40625 v 1.61718 z m 0,9.83594 v -8.29687 h 1.40625 v 8.29687 z m 3.54688,0 v -8.29687 h 1.26562 v 1.17968 q 0.91407,-1.36718 2.64063,-1.36718 0.75,0 1.375,0.27343 0.63281,0.26563 0.94531,0.70313 0.3125,0.4375 0.4375,1.03906 0.0781,0.39063 0.0781,1.36719 v 5.10156 h -1.40625 v -5.04687 q 0,-0.85938 -0.16407,-1.28125 -0.16406,-0.42969 -0.58593,-0.67969 -0.41407,-0.25781 -0.97657,-0.25781 -0.89843,0 -1.55468,0.57031 -0.64844,0.57031 -0.64844,2.16406 v 4.53125 z m 11.96875,-1.25781 0.20312,1.24219 q -0.59375,0.125 -1.0625,0.125 -0.76562,0 -1.1875,-0.24219 -0.42187,-0.24219 -0.59375,-0.63281 -0.17187,-0.39844 -0.17187,-1.66407 v -4.77343 H 622.625 v -1.09375 h 1.03125 v -2.05469 l 1.39844,-0.84375 v 2.89844 h 1.41406 v 1.09375 h -1.41406 v 4.85156 q 0,0.60156 0.0703,0.77344 0.0781,0.17187 0.24219,0.27343 0.17187,0.10157 0.48437,0.10157 0.23438,0 0.61719,-0.0547 z m 0.8125,-1.21875 1.39062,-0.21875 q 0.11719,0.83594 0.64844,1.28125 0.53906,0.44531 1.5,0.44531 0.96875,0 1.4375,-0.39062 0.46875,-0.39844 0.46875,-0.92969 0,-0.47656 -0.41406,-0.75 -0.28906,-0.1875 -1.4375,-0.47656 -1.54688,-0.39063 -2.14844,-0.67188 -0.59375,-0.28906 -0.90625,-0.78906 -0.30469,-0.50781 -0.30469,-1.11719 0,-0.55469 0.25,-1.02344 0.25782,-0.47656 0.69532,-0.78906 0.32812,-0.24219 0.89062,-0.40625 0.57031,-0.17187 1.21875,-0.17187 0.97656,0 1.71094,0.28125 0.74219,0.28125 1.09375,0.76562 0.35156,0.47656 0.48437,1.28125 l -1.375,0.1875 q -0.0937,-0.64062 -0.54687,-1 -0.44531,-0.35937 -1.26563,-0.35937 -0.96875,0 -1.38281,0.32031 -0.41406,0.32031 -0.41406,0.75 0,0.27344 0.17187,0.49219 0.17188,0.22656 0.53907,0.375 0.21093,0.0781 1.24218,0.35937 1.49219,0.39844 2.07813,0.65625 0.59375,0.25 0.92969,0.73438 0.33593,0.48437 0.33593,1.20312 0,0.70313 -0.41406,1.32813 -0.40625,0.61718 -1.17969,0.96093 -0.77343,0.33594 -1.75,0.33594 -1.61718,0 -2.46875,-0.67187 -0.84375,-0.67188 -1.07812,-1.99219 z"
       id="flowRoot4302-6-9-1"
       transform="translate(-14.61113,348.1906)"
       aria-label="4 shifts were not assigned to avoid breaking hard constraints " /></g></svg>
