<?xml version="1.0" encoding="UTF-8" standalone="no"?>
<!-- Created with Inkscape (http://www.inkscape.org/) -->

<svg
   width="800"
   height="600"
   id="svg2"
   version="1.1"
   xmlns="http://www.w3.org/2000/svg"
   xmlns:svg="http://www.w3.org/2000/svg"
   xmlns:rdf="http://www.w3.org/1999/02/22-rdf-syntax-ns#"
   xmlns:cc="http://creativecommons.org/ns#"
   xmlns:dc="http://purl.org/dc/elements/1.1/">
  <defs
     id="defs4" />
  <metadata
     id="metadata7">
    <rdf:RDF>
      <cc:Work
         rdf:about="">
        <dc:format>image/svg+xml</dc:format>
        <dc:type
           rdf:resource="http://purl.org/dc/dcmitype/StillImage" />
        <dc:language>en</dc:language>
        <cc:license
           rdf:resource="https://timefold.ai/license" />
      </cc:Work>
    </rdf:RDF>
  </metadata>
  <g
     id="layer1"
     transform="translate(0,-452.36218)"
     style="display:inline">
    <g
       id="g3709"
       transform="translate(0,19.999997)" />
    <flowRoot
       xml:space="preserve"
       id="flowRoot4157"
       style="font-style:normal;font-weight:normal;line-height:0.01%;font-family:sans-serif;letter-spacing:0px;word-spacing:0px;fill:#000000;fill-opacity:1;stroke:none"><flowRegion
         id="flowRegion4159"
         style="font-family:sans-serif"><rect
           id="rect4161"
           width="10.955056"
           height="72.471909"
           x="16.011236"
           y="-53.932568" /></flowRegion><flowPara
         id="flowPara4163"
         style="font-size:40px;line-height:1.25;font-family:sans-serif"> </flowPara></flowRoot>
    <path
       style="font-size:36px;line-height:1.25;font-family:'Liberation Sans';-inkscape-font-specification:'Liberation Sans, Normal';text-align:center;text-anchor:middle"
       d="m 221.87695,242.42716 v -25.76953 h 17.38477 v 3.04101 h -13.97461 v 7.98047 h 12.09375 v 3.04102 h -12.09375 v 11.70703 z m 33.5918,-2.30274 q -1.75781,1.49415 -3.39258,2.10938 -1.61719,0.61523 -3.48047,0.61523 -3.07617,0 -4.72851,-1.49414 -1.65235,-1.51172 -1.65235,-3.84961 0,-1.37109 0.61524,-2.49609 0.63281,-1.14258 1.63476,-1.82812 1.01953,-0.68555 2.28516,-1.03711 0.93164,-0.2461 2.8125,-0.47461 3.83203,-0.45703 5.64258,-1.08985 0.0176,-0.65039 0.0176,-0.82617 0,-1.93359 -0.89649,-2.72461 -1.21289,-1.07226 -3.60351,-1.07226 -2.23243,0 -3.30469,0.79101 -1.05469,0.77344 -1.56445,2.75977 l -3.09375,-0.42188 q 0.42187,-1.98633 1.38867,-3.19922 0.96679,-1.23047 2.79492,-1.88086 1.82812,-0.66796 4.23633,-0.66796 2.39062,0 3.88476,0.5625 1.49414,0.5625 2.19727,1.42382 0.70312,0.84375 0.98437,2.14453 0.15821,0.8086 0.15821,2.91797 v 4.21875 q 0,4.41211 0.19336,5.58985 0.21093,1.16015 0.80859,2.23242 h -3.30469 q -0.49219,-0.98438 -0.63281,-2.30274 z m -0.26367,-7.0664 q -1.72266,0.70312 -5.16797,1.19531 -1.95117,0.28125 -2.75977,0.63281 -0.80859,0.35157 -1.24804,1.03711 -0.43946,0.66797 -0.43946,1.49414 0,1.26563 0.94922,2.10938 0.9668,0.84375 2.8125,0.84375 1.82813,0 3.25196,-0.79102 1.42382,-0.80859 2.09179,-2.19726 0.50977,-1.07227 0.50977,-3.16407 z m 8.12109,-12.76172 v -3.63867 h 3.16406 v 3.63867 z m 0,22.13086 v -18.66797 h 3.16406 v 18.66797 z m 7.94531,0 v -18.66797 h 2.84766 v 2.83008 q 1.08984,-1.98633 2.00391,-2.61914 0.93164,-0.63281 2.03906,-0.63281 1.59961,0 3.25195,1.01953 l -1.08984,2.93554 q -1.16016,-0.68554 -2.32031,-0.68554 -1.03711,0 -1.86329,0.63281 -0.82617,0.61523 -1.17773,1.72266 -0.52734,1.6875 -0.52734,3.6914 v 9.77344 z m 12.02344,0 v -18.66797 h 2.84766 v 2.6543 q 2.05664,-3.07617 5.9414,-3.07617 1.6875,0 3.09375,0.61523 1.42383,0.59766 2.12696,1.58203 0.70312,0.98438 0.98437,2.33789 0.17578,0.87891 0.17578,3.07617 v 11.47852 h -3.16406 v -11.35547 q 0,-1.93359 -0.36914,-2.88281 -0.36914,-0.9668 -1.31836,-1.5293 -0.93164,-0.58008 -2.19726,-0.58008 -2.02149,0 -3.49805,1.28321 -1.45899,1.2832 -1.45899,4.86914 v 10.19531 z m 32.80078,-6.01172 3.26953,0.4043 q -0.77343,2.86523 -2.86523,4.44726 -2.0918,1.58203 -5.34375,1.58203 -4.0957,0 -6.50391,-2.51367 -2.39062,-2.53125 -2.39062,-7.08398 0,-4.71094 2.42578,-7.3125 2.42578,-2.60156 6.29297,-2.60156 3.74414,0 6.11719,2.54882 2.37304,2.54883 2.37304,7.17188 0,0.28125 -0.0176,0.84375 h -13.92187 q 0.17578,3.07617 1.74023,4.71094 1.56446,1.63476 3.90235,1.63476 1.74023,0 2.9707,-0.91406 1.23047,-0.91406 1.95117,-2.91797 z m -10.38867,-5.11523 h 10.42383 q -0.21094,-2.35547 -1.19531,-3.53321 -1.51172,-1.82812 -3.91993,-1.82812 -2.17968,0 -3.67382,1.45898 -1.47657,1.45899 -1.63477,3.90235 z m 16.36524,5.55468 3.1289,-0.49218 q 0.26367,1.88086 1.45899,2.88281 1.21289,1.00195 3.375,1.00195 2.17968,0 3.23437,-0.8789 1.05469,-0.89649 1.05469,-2.0918 0,-1.07227 -0.93164,-1.6875 -0.65039,-0.42188 -3.23438,-1.07227 -3.48047,-0.8789 -4.83398,-1.51172 -1.33594,-0.65039 -2.03906,-1.77539 -0.68555,-1.14257 -0.68555,-2.51367 0,-1.24805 0.5625,-2.30273 0.58008,-1.07227 1.56445,-1.77539 0.73828,-0.54493 2.00391,-0.91407 1.2832,-0.38671 2.74219,-0.38671 2.19726,0 3.84961,0.63281 1.66992,0.63281 2.46093,1.72265 0.79102,1.07227 1.08985,2.88282 l -3.09375,0.42187 q -0.21094,-1.4414 -1.23047,-2.25 -1.00196,-0.80859 -2.84766,-0.80859 -2.17969,0 -3.11133,0.7207 -0.93164,0.7207 -0.93164,1.6875 0,0.61524 0.38672,1.10742 0.38672,0.50977 1.21289,0.84375 0.47461,0.17578 2.79492,0.8086 3.35743,0.89648 4.67579,1.47656 1.33593,0.5625 2.09179,1.65234 0.75586,1.08985 0.75586,2.70703 0,1.58204 -0.93164,2.98829 -0.91406,1.38867 -2.6543,2.1621 -1.74023,0.75586 -3.9375,0.75586 -3.63867,0 -5.55468,-1.51171 -1.89844,-1.51172 -2.42578,-4.48243 z m 18,0 3.1289,-0.49218 q 0.26367,1.88086 1.45899,2.88281 1.21289,1.00195 3.375,1.00195 2.17968,0 3.23437,-0.8789 1.05469,-0.89649 1.05469,-2.0918 0,-1.07227 -0.93164,-1.6875 -0.65039,-0.42188 -3.23438,-1.07227 -3.48047,-0.8789 -4.83398,-1.51172 -1.33594,-0.65039 -2.03906,-1.77539 -0.68555,-1.14257 -0.68555,-2.51367 0,-1.24805 0.5625,-2.30273 0.58008,-1.07227 1.56445,-1.77539 0.73828,-0.54493 2.00391,-0.91407 1.2832,-0.38671 2.74219,-0.38671 2.19726,0 3.84961,0.63281 1.66992,0.63281 2.46093,1.72265 0.79102,1.07227 1.08985,2.88282 l -3.09375,0.42187 q -0.21094,-1.4414 -1.23047,-2.25 -1.00196,-0.80859 -2.84766,-0.80859 -2.17969,0 -3.11133,0.7207 -0.93164,0.7207 -0.93164,1.6875 0,0.61524 0.38672,1.10742 0.38672,0.50977 1.21289,0.84375 0.47461,0.17578 2.79492,0.8086 3.35743,0.89648 4.67579,1.47656 1.33593,0.5625 2.09179,1.65234 0.75586,1.08985 0.75586,2.70703 0,1.58204 -0.93164,2.98829 -0.91406,1.38867 -2.6543,2.1621 -1.74023,0.75586 -3.9375,0.75586 -3.63867,0 -5.55468,-1.51171 -1.89844,-1.51172 -2.42578,-4.48243 z m 28.00195,0 3.1289,-0.49218 q 0.26368,1.88086 1.45899,2.88281 1.21289,1.00195 3.375,1.00195 2.17969,0 3.23437,-0.8789 1.05469,-0.89649 1.05469,-2.0918 0,-1.07227 -0.93164,-1.6875 -0.65039,-0.42188 -3.23437,-1.07227 -3.48047,-0.8789 -4.83399,-1.51172 -1.33594,-0.65039 -2.03906,-1.77539 -0.68555,-1.14257 -0.68555,-2.51367 0,-1.24805 0.5625,-2.30273 0.58008,-1.07227 1.56446,-1.77539 0.73828,-0.54493 2.0039,-0.91407 1.2832,-0.38671 2.74219,-0.38671 2.19726,0 3.84961,0.63281 1.66992,0.63281 2.46094,1.72265 0.79101,1.07227 1.08984,2.88282 l -3.09375,0.42187 q -0.21094,-1.4414 -1.23047,-2.25 -1.00195,-0.80859 -2.84766,-0.80859 -2.17968,0 -3.11132,0.7207 -0.93164,0.7207 -0.93164,1.6875 0,0.61524 0.38671,1.10742 0.38672,0.50977 1.2129,0.84375 0.4746,0.17578 2.79492,0.8086 3.35742,0.89648 4.67578,1.47656 1.33594,0.5625 2.0918,1.65234 0.75585,1.08985 0.75585,2.70703 0,1.58204 -0.93164,2.98829 -0.91406,1.38867 -2.65429,2.1621 -1.74024,0.75586 -3.9375,0.75586 -3.63867,0 -5.55469,-1.51171 -1.89844,-1.51172 -2.42578,-4.48243 z m 31.44726,-1.26562 3.11133,0.4043 q -0.50976,3.21679 -2.61914,5.04492 -2.0918,1.81054 -5.15039,1.81054 -3.83203,0 -6.16992,-2.49609 -2.32031,-2.51367 -2.32031,-7.18945 0,-3.02344 1.00195,-5.29102 1.00195,-2.26758 3.04102,-3.39258 2.05664,-1.14257 4.46484,-1.14257 3.04101,0 4.97461,1.54687 1.93359,1.5293 2.47851,4.35938 l -3.07617,0.4746 q -0.43945,-1.88085 -1.56445,-2.83007 -1.10742,-0.94922 -2.68945,-0.94922 -2.39063,0 -3.88477,1.72265 -1.49414,1.70508 -1.49414,5.41407 0,3.76172 1.44141,5.46679 1.4414,1.70508 3.76171,1.70508 1.86329,0 3.11133,-1.14258 1.24805,-1.14257 1.58203,-3.51562 z m 4.64063,-2.4961 q 0,-5.18554 2.88281,-7.68164 2.4082,-2.07421 5.8711,-2.07421 3.8496,0 6.29296,2.53125 2.44336,2.51367 2.44336,6.96093 0,3.60352 -1.08984,5.67774 -1.07227,2.05664 -3.14648,3.19922 -2.05665,1.14257 -4.5,1.14257 -3.91993,0 -6.34571,-2.51367 -2.4082,-2.51367 -2.4082,-7.24219 z m 3.25195,0 q 0,3.58594 1.56446,5.37891 1.56445,1.77539 3.9375,1.77539 2.35546,0 3.91992,-1.79297 1.56445,-1.79297 1.56445,-5.46679 0,-3.46289 -1.58203,-5.23829 -1.56445,-1.79296 -3.90234,-1.79296 -2.37305,0 -3.9375,1.77539 -1.56446,1.77539 -1.56446,5.36132 z m 17.91211,9.33399 v -18.66797 h 2.84766 v 2.83008 q 1.08984,-1.98633 2.0039,-2.61914 0.93164,-0.63281 2.03907,-0.63281 1.59961,0 3.25195,1.01953 l -1.08984,2.93554 q -1.16016,-0.68554 -2.32032,-0.68554 -1.03711,0 -1.86328,0.63281 -0.82617,0.61523 -1.17773,1.72266 -0.52735,1.6875 -0.52735,3.6914 v 9.77344 z m 24.80274,-6.01172 3.26953,0.4043 q -0.77344,2.86523 -2.86524,4.44726 -2.09179,1.58203 -5.34375,1.58203 -4.0957,0 -6.5039,-2.51367 -2.39063,-2.53125 -2.39063,-7.08398 0,-4.71094 2.42578,-7.3125 2.42578,-2.60156 6.29297,-2.60156 3.74414,0 6.11719,2.54882 2.37305,2.54883 2.37305,7.17188 0,0.28125 -0.0176,0.84375 h -13.92188 q 0.17578,3.07617 1.74024,4.71094 1.56445,1.63476 3.90234,1.63476 1.74024,0 2.9707,-0.91406 1.23047,-0.91406 1.95118,-2.91797 z m -10.38868,-5.11523 h 10.42383 q -0.21094,-2.35547 -1.19531,-3.53321 -1.51172,-1.82812 -3.91992,-1.82812 -2.17969,0 -3.67383,1.45898 -1.47656,1.45899 -1.63477,3.90235 z m 39.81446,4.28906 3.11133,0.4043 q -0.50977,3.21679 -2.61915,5.04492 -2.09179,1.81054 -5.15039,1.81054 -3.83203,0 -6.16992,-2.49609 -2.32031,-2.51367 -2.32031,-7.18945 0,-3.02344 1.00195,-5.29102 1.00196,-2.26758 3.04102,-3.39258 2.05664,-1.14257 4.46484,-1.14257 3.04102,0 4.97461,1.54687 1.9336,1.5293 2.47852,4.35938 l -3.07617,0.4746 q -0.43946,-1.88085 -1.56446,-2.83007 -1.10742,-0.94922 -2.68945,-0.94922 -2.39063,0 -3.88477,1.72265 -1.49414,1.70508 -1.49414,5.41407 0,3.76172 1.44141,5.46679 1.44141,1.70508 3.76172,1.70508 1.86328,0 3.11133,-1.14258 1.24804,-1.14257 1.58203,-3.51562 z m 4.64062,-2.4961 q 0,-5.18554 2.88281,-7.68164 2.40821,-2.07421 5.8711,-2.07421 3.84961,0 6.29297,2.53125 2.44336,2.51367 2.44336,6.96093 0,3.60352 -1.08985,5.67774 -1.07226,2.05664 -3.14648,3.19922 -2.05664,1.14257 -4.5,1.14257 -3.91992,0 -6.3457,-2.51367 -2.40821,-2.51367 -2.40821,-7.24219 z m 3.25196,0 q 0,3.58594 1.56445,5.37891 1.56445,1.77539 3.9375,1.77539 2.35547,0 3.91992,-1.79297 1.56445,-1.79297 1.56445,-5.46679 0,-3.46289 -1.58203,-5.23829 -1.56445,-1.79296 -3.90234,-1.79296 -2.37305,0 -3.9375,1.77539 -1.56445,1.77539 -1.56445,5.36132 z m 17.94726,9.33399 v -18.66797 h 2.84766 v 2.6543 q 2.05664,-3.07617 5.9414,-3.07617 1.6875,0 3.09375,0.61523 1.42383,0.59766 2.12696,1.58203 0.70312,0.98438 0.98437,2.33789 0.17578,0.87891 0.17578,3.07617 v 11.47852 h -3.16406 v -11.35547 q 0,-1.93359 -0.36914,-2.88281 -0.36914,-0.9668 -1.31836,-1.5293 -0.93164,-0.58008 -2.19727,-0.58008 -2.02148,0 -3.49804,1.28321 -1.45899,1.2832 -1.45899,4.86914 v 10.19531 z m 18.75586,-5.57227 3.12891,-0.49218 q 0.26367,1.88086 1.45898,2.88281 1.21289,1.00195 3.375,1.00195 2.17969,0 3.23438,-0.8789 1.05468,-0.89649 1.05468,-2.0918 0,-1.07227 -0.93164,-1.6875 -0.65039,-0.42188 -3.23437,-1.07227 -3.48047,-0.8789 -4.83399,-1.51172 -1.33593,-0.65039 -2.03906,-1.77539 -0.68555,-1.14257 -0.68555,-2.51367 0,-1.24805 0.5625,-2.30273 0.58008,-1.07227 1.56446,-1.77539 0.73828,-0.54493 2.0039,-0.91407 1.28321,-0.38671 2.74219,-0.38671 2.19727,0 3.84961,0.63281 1.66992,0.63281 2.46094,1.72265 0.79101,1.07227 1.08984,2.88282 l -3.09375,0.42187 q -0.21094,-1.4414 -1.23047,-2.25 -1.00195,-0.80859 -2.84765,-0.80859 -2.17969,0 -3.11133,0.7207 -0.93164,0.7207 -0.93164,1.6875 0,0.61524 0.38672,1.10742 0.38672,0.50977 1.21289,0.84375 0.47461,0.17578 2.79492,0.8086 3.35742,0.89648 4.67578,1.47656 1.33594,0.5625 2.0918,1.65234 0.75586,1.08985 0.75586,2.70703 0,1.58204 -0.93164,2.98829 -0.91407,1.38867 -2.6543,2.1621 -1.74024,0.75586 -3.9375,0.75586 -3.63867,0 -5.55469,-1.51171 -1.89844,-1.51172 -2.42578,-4.48243 z m 26.17383,2.74219 0.45703,2.79492 q -1.33594,0.28125 -2.39063,0.28125 -1.72265,0 -2.67187,-0.54492 -0.94922,-0.54492 -1.33594,-1.42383 -0.38672,-0.89648 -0.38672,-3.74414 v -10.74023 h -2.32031 v -2.46094 h 2.32031 v -4.62305 l 3.14649,-1.89843 v 6.52148 h 3.18164 v 2.46094 h -3.18164 v 10.91601 q 0,1.35352 0.1582,1.74024 0.17578,0.38672 0.54492,0.61523 0.38672,0.22852 1.08985,0.22852 0.52734,0 1.38867,-0.12305 z m 3.05859,2.83008 v -18.66797 h 2.84766 v 2.83008 q 1.08984,-1.98633 2.0039,-2.61914 0.93165,-0.63281 2.03907,-0.63281 1.59961,0 3.25195,1.01953 l -1.08984,2.93554 q -1.16016,-0.68554 -2.32032,-0.68554 -1.03711,0 -1.86328,0.63281 -0.82617,0.61523 -1.17773,1.72266 -0.52735,1.6875 -0.52735,3.6914 v 9.77344 z m 24.20508,-2.30274 q -1.75781,1.49415 -3.39258,2.10938 -1.61719,0.61523 -3.48047,0.61523 -3.07617,0 -4.72851,-1.49414 -1.65235,-1.51172 -1.65235,-3.84961 0,-1.37109 0.61524,-2.49609 0.63281,-1.14258 1.63476,-1.82812 1.01954,-0.68555 2.28516,-1.03711 0.93164,-0.2461 2.8125,-0.47461 3.83203,-0.45703 5.64258,-1.08985 0.0176,-0.65039 0.0176,-0.82617 0,-1.93359 -0.89649,-2.72461 -1.21289,-1.07226 -3.60351,-1.07226 -2.23243,0 -3.30469,0.79101 -1.05469,0.77344 -1.56445,2.75977 l -3.09375,-0.42188 q 0.42187,-1.98633 1.38867,-3.19922 0.96679,-1.23047 2.79492,-1.88086 1.82812,-0.66796 4.23633,-0.66796 2.39062,0 3.88476,0.5625 1.49414,0.5625 2.19727,1.42382 0.70312,0.84375 0.98437,2.14453 0.15821,0.8086 0.15821,2.91797 v 4.21875 q 0,4.41211 0.19336,5.58985 0.21093,1.16015 0.80859,2.23242 h -3.30469 q -0.49218,-0.98438 -0.63281,-2.30274 z m -0.26367,-7.0664 q -1.72266,0.70312 -5.16797,1.19531 -1.95117,0.28125 -2.75977,0.63281 -0.80859,0.35157 -1.24804,1.03711 -0.43946,0.66797 -0.43946,1.49414 0,1.26563 0.94922,2.10938 0.9668,0.84375 2.8125,0.84375 1.82813,0 3.25196,-0.79102 1.42382,-0.80859 2.09179,-2.19726 0.50977,-1.07227 0.50977,-3.16407 z m 8.12109,-12.76172 v -3.63867 h 3.16406 v 3.63867 z m 0,22.13086 v -18.66797 h 3.16406 v 18.66797 z m 7.98047,0 v -18.66797 h 2.84766 v 2.6543 q 2.05664,-3.07617 5.9414,-3.07617 1.6875,0 3.09375,0.61523 1.42383,0.59766 2.12696,1.58203 0.70312,0.98438 0.98437,2.33789 0.17578,0.87891 0.17578,3.07617 v 11.47852 h -3.16406 v -11.35547 q 0,-1.93359 -0.36914,-2.88281 -0.36914,-0.9668 -1.31836,-1.5293 -0.93164,-0.58008 -2.19727,-0.58008 -2.02148,0 -3.49804,1.28321 -1.45899,1.2832 -1.45899,4.86914 v 10.19531 z m 26.92969,-2.83008 0.45703,2.79492 q -1.33594,0.28125 -2.39063,0.28125 -1.72265,0 -2.67187,-0.54492 -0.94922,-0.54492 -1.33594,-1.42383 -0.38672,-0.89648 -0.38672,-3.74414 v -10.74023 h -2.32031 v -2.46094 h 2.32031 v -4.62305 l 3.14649,-1.89843 v 6.52148 h 3.18164 v 2.46094 h -3.18164 v 10.91601 q 0,1.35352 0.1582,1.74024 0.17578,0.38672 0.54492,0.61523 0.38672,0.22852 1.08985,0.22852 0.52734,0 1.38867,-0.12305 z"
       id="flowRoot4302"
       transform="translate(-20,262.36198)"
       aria-label="Fairness score constraint" />
    <path
       style="font-size:16px;line-height:1.25;font-family:'Liberation Sans';-inkscape-font-specification:'Liberation Sans, Normal';text-align:center;text-anchor:middle"
       d="m 90.863281,154.41207 v -11.45312 h 3.945313 q 1.335937,0 2.039062,0.16406 0.984375,0.22656 1.679688,0.82031 0.90625,0.76563 1.351562,1.96094 0.453124,1.1875 0.453124,2.71875 0,1.30469 -0.30469,2.3125 -0.304684,1.00781 -0.781246,1.67187 -0.476563,0.65625 -1.046875,1.03907 -0.5625,0.375 -1.367188,0.57031 -0.796875,0.19531 -1.835937,0.19531 z m 1.515625,-1.35156 h 2.445313 q 1.132812,0 1.773437,-0.21094 0.648438,-0.21094 1.03125,-0.59375 0.539063,-0.53906 0.835938,-1.44531 0.304687,-0.91406 0.304687,-2.21094 0,-1.79687 -0.59375,-2.75781 -0.585937,-0.96875 -1.429687,-1.29688 -0.609375,-0.23437 -1.960938,-0.23437 h -2.40625 z m 9.867184,-8.48438 v -1.61718 h 1.40625 v 1.61718 z m 0,9.83594 v -8.29687 h 1.40625 v 8.29687 z m 2.98438,-2.47656 1.39062,-0.21875 q 0.11719,0.83594 0.64844,1.28125 0.53906,0.44531 1.5,0.44531 0.96875,0 1.4375,-0.39062 0.46875,-0.39844 0.46875,-0.92969 0,-0.47656 -0.41406,-0.75 -0.28906,-0.1875 -1.4375,-0.47656 -1.54688,-0.39063 -2.14844,-0.67188 -0.59375,-0.28906 -0.90625,-0.78906 -0.30469,-0.50781 -0.30469,-1.11719 0,-0.55469 0.25,-1.02344 0.25782,-0.47656 0.69532,-0.78906 0.32812,-0.24219 0.89062,-0.40625 0.57031,-0.17187 1.21875,-0.17187 0.97656,0 1.71094,0.28125 0.74219,0.28125 1.09375,0.76562 0.35156,0.47656 0.48437,1.28125 l -1.375,0.1875 q -0.0937,-0.64062 -0.54687,-1 -0.44531,-0.35937 -1.26563,-0.35937 -0.96875,0 -1.38281,0.32031 -0.41406,0.32031 -0.41406,0.75 0,0.27344 0.17187,0.49219 0.17188,0.22656 0.53907,0.375 0.21093,0.0781 1.24218,0.35937 1.49219,0.39844 2.07813,0.65625 0.59375,0.25 0.92969,0.73438 0.33593,0.48437 0.33593,1.20312 0,0.70313 -0.41406,1.32813 -0.40625,0.61718 -1.17969,0.96093 -0.77343,0.33594 -1.75,0.33594 -1.61718,0 -2.46875,-0.67187 -0.84375,-0.67188 -1.07812,-1.99219 z m 11.63281,1.21875 0.20313,1.24219 q -0.59375,0.125 -1.0625,0.125 -0.76563,0 -1.1875,-0.24219 -0.42188,-0.24219 -0.59375,-0.63281 -0.17188,-0.39844 -0.17188,-1.66407 v -4.77343 h -1.03125 v -1.09375 h 1.03125 v -2.05469 l 1.39844,-0.84375 v 2.89844 h 1.41406 v 1.09375 h -1.41406 v 4.85156 q 0,0.60156 0.0703,0.77344 0.0781,0.17187 0.24219,0.27343 0.17187,0.10157 0.48437,0.10157 0.23438,0 0.61719,-0.0547 z m 1.35938,1.25781 v -8.29687 h 1.26562 v 1.25781 q 0.48438,-0.88281 0.89063,-1.16406 0.41406,-0.28125 0.90625,-0.28125 0.71093,0 1.44531,0.45312 l -0.48438,1.30469 q -0.51562,-0.30469 -1.03125,-0.30469 -0.46093,0 -0.82812,0.28125 -0.36719,0.27344 -0.52344,0.76563 -0.23437,0.75 -0.23437,1.64062 v 4.34375 z m 5.35156,-9.83594 v -1.61718 h 1.40625 v 1.61718 z m 0,9.83594 v -8.29687 h 1.40625 v 8.29687 z m 4.84375,0 h -1.30469 v -11.45312 h 1.40625 v 4.08593 q 0.89063,-1.11718 2.27344,-1.11718 0.76562,0 1.44531,0.3125 0.6875,0.30468 1.125,0.86718 0.44531,0.55469 0.69531,1.34375 0.25,0.78907 0.25,1.6875 0,2.13282 -1.05468,3.29688 -1.05469,1.16406 -2.53125,1.16406 -1.46875,0 -2.30469,-1.22656 z m -0.0156,-4.21094 q 0,1.49219 0.40625,2.15625 0.66407,1.08594 1.79688,1.08594 0.92187,0 1.59375,-0.79687 0.67187,-0.80469 0.67187,-2.39063 0,-1.625 -0.64843,-2.39844 -0.64063,-0.77343 -1.55469,-0.77343 -0.92188,0 -1.59375,0.80468 -0.67188,0.79688 -0.67188,2.3125 z m 13.05469,4.21094 v -1.21875 q -0.96875,1.40625 -2.63281,1.40625 -0.73438,0 -1.375,-0.28125 -0.63281,-0.28125 -0.94531,-0.70312 -0.30469,-0.42969 -0.42969,-1.04688 -0.0859,-0.41406 -0.0859,-1.3125 v -5.14062 h 1.40625 v 4.60156 q 0,1.10156 0.0859,1.48437 0.13281,0.55469 0.5625,0.875 0.42969,0.3125 1.0625,0.3125 0.63281,0 1.1875,-0.32031 0.55469,-0.32812 0.78125,-0.88281 0.23437,-0.5625 0.23437,-1.625 v -4.44531 h 1.40625 v 8.29687 z m 6.53125,-1.25781 0.20313,1.24219 q -0.59375,0.125 -1.0625,0.125 -0.76563,0 -1.1875,-0.24219 -0.42188,-0.24219 -0.59375,-0.63281 -0.17188,-0.39844 -0.17188,-1.66407 v -4.77343 h -1.03125 v -1.09375 h 1.03125 v -2.05469 l 1.39844,-0.84375 v 2.89844 h 1.41406 v 1.09375 h -1.41406 v 4.85156 q 0,0.60156 0.0703,0.77344 0.0781,0.17187 0.24219,0.27343 0.17187,0.10157 0.48437,0.10157 0.23438,0 0.61719,-0.0547 z m 7.05469,-1.41406 1.45312,0.17968 q -0.34375,1.27344 -1.27343,1.97657 -0.92969,0.70312 -2.375,0.70312 -1.82032,0 -2.89063,-1.11719 -1.0625,-1.125 -1.0625,-3.14843 0,-2.09375 1.07813,-3.25 1.07812,-1.15625 2.79687,-1.15625 1.66406,0 2.71875,1.13281 1.05469,1.13281 1.05469,3.1875 0,0.125 -0.008,0.375 h -6.1875 q 0.0781,1.36719 0.77343,2.09375 0.69532,0.72656 1.73438,0.72656 0.77344,0 1.32031,-0.40625 0.54688,-0.40625 0.86719,-1.29687 z m -4.61719,-2.27344 h 4.63281 q -0.0937,-1.04688 -0.53125,-1.57031 -0.67187,-0.8125 -1.74218,-0.8125 -0.96875,0 -1.63282,0.64843 -0.65625,0.64844 -0.72656,1.73438 z m 15.35156,3.6875 0.20313,1.24219 q -0.59375,0.125 -1.0625,0.125 -0.76563,0 -1.1875,-0.24219 -0.42188,-0.24219 -0.59375,-0.63281 -0.17188,-0.39844 -0.17188,-1.66407 v -4.77343 h -1.03125 v -1.09375 h 1.03125 v -2.05469 l 1.39844,-0.84375 v 2.89844 h 1.41406 v 1.09375 h -1.41406 v 4.85156 q 0,0.60156 0.0703,0.77344 0.0781,0.17187 0.24219,0.27343 0.17188,0.10157 0.48438,0.10157 0.23437,0 0.61718,-0.0547 z m 1.375,1.25781 v -11.45312 h 1.40625 v 4.10937 q 0.98438,-1.14062 2.48438,-1.14062 0.92187,0 1.60156,0.36718 0.67969,0.35938 0.96875,1 0.29688,0.64063 0.29688,1.85938 v 5.25781 h -1.40625 v -5.25781 q 0,-1.05469 -0.46094,-1.53125 -0.45313,-0.48438 -1.28906,-0.48438 -0.625,0 -1.17969,0.32813 -0.54688,0.32031 -0.78125,0.875 -0.23438,0.55469 -0.23438,1.53125 v 4.53906 z m 14.57813,-2.67187 1.45312,0.17968 q -0.34375,1.27344 -1.27343,1.97657 -0.92969,0.70312 -2.375,0.70312 -1.82032,0 -2.89063,-1.11719 -1.0625,-1.125 -1.0625,-3.14843 0,-2.09375 1.07813,-3.25 1.07812,-1.15625 2.79687,-1.15625 1.66406,0 2.71875,1.13281 1.05469,1.13281 1.05469,3.1875 0,0.125 -0.008,0.375 h -6.1875 q 0.0781,1.36719 0.77343,2.09375 0.69532,0.72656 1.73438,0.72656 0.77344,0 1.32031,-0.40625 0.54688,-0.40625 0.86719,-1.29687 z m -4.61719,-2.27344 h 4.63281 q -0.0937,-1.04688 -0.53125,-1.57031 -0.67187,-0.8125 -1.74218,-0.8125 -0.96875,0 -1.63282,0.64843 -0.65625,0.64844 -0.72656,1.73438 z m 11.71875,2.46875 1.39063,-0.21875 q 0.11718,0.83594 0.64843,1.28125 0.53907,0.44531 1.5,0.44531 0.96875,0 1.4375,-0.39062 0.46875,-0.39844 0.46875,-0.92969 0,-0.47656 -0.41406,-0.75 -0.28906,-0.1875 -1.4375,-0.47656 -1.54687,-0.39063 -2.14844,-0.67188 -0.59375,-0.28906 -0.90625,-0.78906 -0.30468,-0.50781 -0.30468,-1.11719 0,-0.55469 0.25,-1.02344 0.25781,-0.47656 0.69531,-0.78906 0.32812,-0.24219 0.89062,-0.40625 0.57032,-0.17187 1.21875,-0.17187 0.97657,0 1.71094,0.28125 0.74219,0.28125 1.09375,0.76562 0.35156,0.47656 0.48438,1.28125 l -1.375,0.1875 q -0.0937,-0.64062 -0.54688,-1 -0.44531,-0.35937 -1.26562,-0.35937 -0.96875,0 -1.38282,0.32031 -0.41406,0.32031 -0.41406,0.75 0,0.27344 0.17188,0.49219 0.17187,0.22656 0.53906,0.375 0.21094,0.0781 1.24219,0.35937 1.49218,0.39844 2.07812,0.65625 0.59375,0.25 0.92969,0.73438 0.33594,0.48437 0.33594,1.20312 0,0.70313 -0.41407,1.32813 -0.40625,0.61718 -1.17968,0.96093 -0.77344,0.33594 -1.75,0.33594 -1.61719,0 -2.46875,-0.67187 -0.84375,-0.67188 -1.07813,-1.99219 z m 8.5625,2.47656 v -11.45312 h 1.40625 v 4.10937 q 0.98438,-1.14062 2.48438,-1.14062 0.92187,0 1.60156,0.36718 0.67969,0.35938 0.96875,1 0.29687,0.64063 0.29687,1.85938 v 5.25781 h -1.40625 v -5.25781 q 0,-1.05469 -0.46093,-1.53125 -0.45313,-0.48438 -1.28907,-0.48438 -0.625,0 -1.17968,0.32813 -0.54688,0.32031 -0.78125,0.875 -0.23438,0.55469 -0.23438,1.53125 v 4.53906 z m 8.90625,-9.83594 v -1.61718 h 1.40625 v 1.61718 z m 0,9.83594 v -8.29687 h 1.40625 v 8.29687 z m 3.88281,0 v -7.20312 h -1.24218 v -1.09375 h 1.24218 v -0.88282 q 0,-0.83593 0.14844,-1.24218 0.20313,-0.54688 0.71094,-0.88282 0.51562,-0.34375 1.4375,-0.34375 0.59375,0 1.3125,0.14063 l -0.21094,1.22656 q -0.4375,-0.0781 -0.82812,-0.0781 -0.64063,0 -0.90625,0.27343 -0.26563,0.27344 -0.26563,1.02344 v 0.76563 h 1.61719 v 1.09375 h -1.61719 v 7.20312 z m 7.17969,-1.25781 0.20313,1.24219 q -0.59375,0.125 -1.0625,0.125 -0.76563,0 -1.1875,-0.24219 -0.42188,-0.24219 -0.59375,-0.63281 -0.17188,-0.39844 -0.17188,-1.66407 v -4.77343 h -1.03125 v -1.09375 h 1.03125 v -2.05469 l 1.39844,-0.84375 v 2.89844 h 1.41406 v 1.09375 h -1.41406 v 4.85156 q 0,0.60156 0.0703,0.77344 0.0781,0.17187 0.24219,0.27343 0.17187,0.10157 0.48437,0.10157 0.23438,0 0.61719,-0.0547 z m 7.35156,1.25781 -2.53906,-8.29687 h 1.45313 l 1.32031,4.78906 0.49219,1.78125 q 0.0312,-0.13281 0.42968,-1.71094 l 1.32032,-4.85937 h 1.44531 l 1.24219,4.8125 0.41406,1.58593 0.47656,-1.60156 1.42188,-4.79687 h 1.36718 l -2.59375,8.29687 h -1.46093 l -1.32032,-4.96875 -0.32031,-1.41406 -1.67969,6.38281 z m 9.5,-4.14844 q 0,-2.30468 1.28125,-3.41406 1.07032,-0.92187 2.60938,-0.92187 1.71094,0 2.79687,1.125 1.08594,1.11718 1.08594,3.09375 0,1.60156 -0.48437,2.52343 -0.47657,0.91407 -1.39844,1.42188 -0.91406,0.50781 -2,0.50781 -1.74219,0 -2.82031,-1.11719 -1.07032,-1.11718 -1.07032,-3.21875 z m 1.44532,0 q 0,1.59375 0.69531,2.39063 0.69531,0.78906 1.75,0.78906 1.04687,0 1.74219,-0.79687 0.69531,-0.79688 0.69531,-2.42969 0,-1.53906 -0.70313,-2.32813 -0.69531,-0.79687 -1.73437,-0.79687 -1.05469,0 -1.75,0.78906 -0.69531,0.78906 -0.69531,2.38281 z m 7.96093,4.14844 v -8.29687 h 1.26563 v 1.25781 q 0.48437,-0.88281 0.89062,-1.16406 0.41407,-0.28125 0.90625,-0.28125 0.71094,0 1.44532,0.45312 l -0.48438,1.30469 q -0.51562,-0.30469 -1.03125,-0.30469 -0.46094,0 -0.82812,0.28125 -0.36719,0.27344 -0.52344,0.76563 -0.23438,0.75 -0.23438,1.64062 v 4.34375 z m 5.35157,0 v -11.45312 h 1.40625 v 6.53125 l 3.32812,-3.375 h 1.82031 l -3.17187,3.07812 3.49219,5.21875 h -1.73438 l -2.74219,-4.24219 -0.99218,0.95313 v 3.28906 z m 7.96093,0 v -11.45312 h 1.40625 v 11.45312 z m 3.0625,-4.14844 q 0,-2.30468 1.28125,-3.41406 1.07032,-0.92187 2.60938,-0.92187 1.71094,0 2.79687,1.125 1.08594,1.11718 1.08594,3.09375 0,1.60156 -0.48437,2.52343 -0.47657,0.91407 -1.39844,1.42188 -0.91406,0.50781 -2,0.50781 -1.74219,0 -2.82031,-1.11719 -1.07032,-1.11718 -1.07032,-3.21875 z m 1.44532,0 q 0,1.59375 0.69531,2.39063 0.69531,0.78906 1.75,0.78906 1.04687,0 1.74219,-0.79687 0.69531,-0.79688 0.69531,-2.42969 0,-1.53906 -0.70313,-2.32813 -0.69531,-0.79687 -1.73437,-0.79687 -1.05469,0 -1.75,0.78906 -0.69531,0.78906 -0.69531,2.38281 z m 13.39062,3.125 q -0.78125,0.66407 -1.50781,0.9375 -0.71875,0.27344 -1.54688,0.27344 -1.36718,0 -2.10156,-0.66406 -0.73437,-0.67188 -0.73437,-1.71094 0,-0.60937 0.27343,-1.10937 0.28125,-0.50782 0.72657,-0.8125 0.45312,-0.30469 1.01562,-0.46094 0.41406,-0.10938 1.25,-0.21094 1.70313,-0.20312 2.50781,-0.48437 0.008,-0.28907 0.008,-0.36719 0,-0.85938 -0.39844,-1.21094 -0.53906,-0.47656 -1.60156,-0.47656 -0.99219,0 -1.46875,0.35156 -0.46875,0.34375 -0.69532,1.22656 l -1.375,-0.1875 q 0.1875,-0.88281 0.61719,-1.42187 0.42969,-0.54688 1.24219,-0.83594 0.8125,-0.29687 1.88281,-0.29687 1.0625,0 1.72656,0.25 0.66407,0.25 0.97657,0.63281 0.3125,0.375 0.4375,0.95312 0.0703,0.35938 0.0703,1.29688 v 1.875 q 0,1.96094 0.0859,2.48437 0.0937,0.51563 0.35937,0.99219 h -1.46875 q -0.21875,-0.4375 -0.28125,-1.02344 z m -0.11719,-3.14062 q -0.76562,0.3125 -2.29687,0.53125 -0.86719,0.125 -1.22656,0.28125 -0.35938,0.15625 -0.55469,0.46094 -0.19531,0.29687 -0.19531,0.66406 0,0.5625 0.42187,0.9375 0.42969,0.375 1.25,0.375 0.8125,0 1.44531,-0.35156 0.63282,-0.35938 0.92969,-0.97657 0.22656,-0.47656 0.22656,-1.40625 z m 8.98438,4.16406 v -1.04687 q -0.78906,1.23437 -2.32031,1.23437 -0.99219,0 -1.82813,-0.54687 -0.82812,-0.54688 -1.28906,-1.52344 -0.45313,-0.98438 -0.45313,-2.25781 0,-1.24219 0.41407,-2.25 0.41406,-1.01563 1.24218,-1.55469 0.82813,-0.53906 1.85157,-0.53906 0.75,0 1.33593,0.32031 0.58594,0.3125 0.95313,0.82031 v -4.10937 h 1.39844 v 11.45312 z m -4.44531,-4.14062 q 0,1.59375 0.67187,2.38281 0.67188,0.78906 1.58594,0.78906 0.92187,0 1.5625,-0.75 0.64844,-0.75781 0.64844,-2.30469 0,-1.70312 -0.65625,-2.5 -0.65625,-0.79687 -1.61719,-0.79687 -0.9375,0 -1.57031,0.76562 -0.625,0.76563 -0.625,2.41407 z m 12.74218,4.14062 v -7.20312 h -1.24218 v -1.09375 h 1.24218 v -0.88282 q 0,-0.83593 0.14844,-1.24218 0.20313,-0.54688 0.71094,-0.88282 0.51562,-0.34375 1.4375,-0.34375 0.59375,0 1.3125,0.14063 l -0.21094,1.22656 q -0.4375,-0.0781 -0.82812,-0.0781 -0.64063,0 -0.90625,0.27343 -0.26563,0.27344 -0.26563,1.02344 v 0.76563 h 1.61719 v 1.09375 h -1.61719 v 7.20312 z m 9.52344,-1.02344 q -0.78125,0.66407 -1.50781,0.9375 -0.71875,0.27344 -1.54688,0.27344 -1.36718,0 -2.10156,-0.66406 -0.73437,-0.67188 -0.73437,-1.71094 0,-0.60937 0.27343,-1.10937 0.28125,-0.50782 0.72657,-0.8125 0.45312,-0.30469 1.01562,-0.46094 0.41406,-0.10938 1.25,-0.21094 1.70313,-0.20312 2.50781,-0.48437 0.008,-0.28907 0.008,-0.36719 0,-0.85938 -0.39844,-1.21094 -0.53906,-0.47656 -1.60156,-0.47656 -0.99219,0 -1.46875,0.35156 -0.46875,0.34375 -0.69532,1.22656 l -1.375,-0.1875 q 0.1875,-0.88281 0.61719,-1.42187 0.42969,-0.54688 1.24219,-0.83594 0.8125,-0.29687 1.88281,-0.29687 1.0625,0 1.72656,0.25 0.66407,0.25 0.97657,0.63281 0.3125,0.375 0.4375,0.95312 0.0703,0.35938 0.0703,1.29688 v 1.875 q 0,1.96094 0.0859,2.48437 0.0937,0.51563 0.35937,0.99219 h -1.46875 q -0.21875,-0.4375 -0.28125,-1.02344 z m -0.11719,-3.14062 q -0.76562,0.3125 -2.29687,0.53125 -0.86719,0.125 -1.22656,0.28125 -0.35938,0.15625 -0.55469,0.46094 -0.19531,0.29687 -0.19531,0.66406 0,0.5625 0.42187,0.9375 0.42969,0.375 1.25,0.375 0.8125,0 1.44531,-0.35156 0.63282,-0.35938 0.92969,-0.97657 0.22656,-0.47656 0.22656,-1.40625 z m 3.60938,-5.67188 v -1.61718 h 1.40625 v 1.61718 z m 0,9.83594 v -8.29687 h 1.40625 v 8.29687 z m 3.53125,0 v -8.29687 h 1.26562 v 1.25781 q 0.48438,-0.88281 0.89063,-1.16406 0.41406,-0.28125 0.90625,-0.28125 0.71094,0 1.44531,0.45312 l -0.48437,1.30469 q -0.51563,-0.30469 -1.03125,-0.30469 -0.46094,0 -0.82813,0.28125 -0.36719,0.27344 -0.52344,0.76563 -0.23437,0.75 -0.23437,1.64062 v 4.34375 z m 5.3125,0 v -11.45312 h 1.40625 v 11.45312 z m 3.52344,3.19531 -0.15625,-1.32031 q 0.46093,0.125 0.80468,0.125 0.46875,0 0.75,-0.15625 0.28125,-0.15625 0.46094,-0.4375 0.13281,-0.21094 0.42969,-1.04687 0.0391,-0.11719 0.125,-0.34375 l -3.14844,-8.3125 h 1.51563 l 1.72656,4.80468 q 0.33594,0.91407 0.60156,1.92188 0.24219,-0.96875 0.57813,-1.89063 l 1.77343,-4.83593 h 1.40625 l -3.15625,8.4375 q -0.50781,1.36718 -0.78906,1.88281 -0.375,0.69531 -0.85937,1.01562 -0.48438,0.32813 -1.15625,0.32813 -0.40625,0 -0.90625,-0.17188 z m 17.92187,-4.21875 q -0.78125,0.66407 -1.50781,0.9375 -0.71875,0.27344 -1.54688,0.27344 -1.36718,0 -2.10156,-0.66406 -0.73437,-0.67188 -0.73437,-1.71094 0,-0.60937 0.27343,-1.10937 0.28125,-0.50782 0.72657,-0.8125 0.45312,-0.30469 1.01562,-0.46094 0.41406,-0.10938 1.25,-0.21094 1.70313,-0.20312 2.50781,-0.48437 0.008,-0.28907 0.008,-0.36719 0,-0.85938 -0.39844,-1.21094 -0.53906,-0.47656 -1.60156,-0.47656 -0.99219,0 -1.46875,0.35156 -0.46875,0.34375 -0.69532,1.22656 l -1.375,-0.1875 q 0.1875,-0.88281 0.61719,-1.42187 0.42969,-0.54688 1.24219,-0.83594 0.8125,-0.29687 1.88281,-0.29687 1.0625,0 1.72656,0.25 0.66407,0.25 0.97657,0.63281 0.3125,0.375 0.4375,0.95312 0.0703,0.35938 0.0703,1.29688 v 1.875 q 0,1.96094 0.0859,2.48437 0.0937,0.51563 0.35937,0.99219 h -1.46875 q -0.21875,-0.4375 -0.28125,-1.02344 z m -0.11719,-3.14062 q -0.76562,0.3125 -2.29687,0.53125 -0.86719,0.125 -1.22656,0.28125 -0.35938,0.15625 -0.55469,0.46094 -0.19531,0.29687 -0.19531,0.66406 0,0.5625 0.42187,0.9375 0.42969,0.375 1.25,0.375 0.8125,0 1.44531,-0.35156 0.63282,-0.35938 0.92969,-0.97657 0.22656,-0.47656 0.22656,-1.40625 z m 9.01563,1.125 1.38281,0.17969 q -0.22656,1.42968 -1.16406,2.24218 -0.92969,0.80469 -2.28906,0.80469 -1.70313,0 -2.74219,-1.10937 -1.03125,-1.11719 -1.03125,-3.19532 0,-1.34375 0.44531,-2.35156 0.44531,-1.00781 1.35156,-1.50781 0.91407,-0.50781 1.98438,-0.50781 1.35156,0 2.21094,0.6875 0.85937,0.67968 1.10156,1.9375 l -1.36719,0.21093 q -0.19531,-0.83593 -0.69531,-1.25781 -0.49219,-0.42187 -1.19531,-0.42187 -1.0625,0 -1.72657,0.76562 -0.66406,0.75781 -0.66406,2.40625 0,1.67188 0.64063,2.42969 0.64062,0.75781 1.67187,0.75781 0.82813,0 1.38281,-0.50781 0.55469,-0.50781 0.70313,-1.5625 z m 2.57031,3.03906 v -8.29687 h 1.26563 v 1.25781 q 0.48437,-0.88281 0.89062,-1.16406 0.41406,-0.28125 0.90625,-0.28125 0.71094,0 1.44531,0.45312 l -0.48437,1.30469 q -0.51563,-0.30469 -1.03125,-0.30469 -0.46094,0 -0.82813,0.28125 -0.36718,0.27344 -0.52343,0.76563 -0.23438,0.75 -0.23438,1.64062 v 4.34375 z m 4.82031,-4.14844 q 0,-2.30468 1.28125,-3.41406 1.07032,-0.92187 2.60938,-0.92187 1.71094,0 2.79687,1.125 1.08594,1.11718 1.08594,3.09375 0,1.60156 -0.48437,2.52343 -0.47657,0.91407 -1.39844,1.42188 -0.91406,0.50781 -2,0.50781 -1.74219,0 -2.82031,-1.11719 -1.07032,-1.11718 -1.07032,-3.21875 z m 1.44532,0 q 0,1.59375 0.69531,2.39063 0.69531,0.78906 1.75,0.78906 1.04687,0 1.74219,-0.79687 0.69531,-0.79688 0.69531,-2.42969 0,-1.53906 -0.70313,-2.32813 -0.69531,-0.79687 -1.73437,-0.79687 -1.05469,0 -1.75,0.78906 -0.69531,0.78906 -0.69531,2.38281 z m 7.41406,1.67188 1.39062,-0.21875 q 0.11719,0.83594 0.64844,1.28125 0.53906,0.44531 1.5,0.44531 0.96875,0 1.4375,-0.39062 0.46875,-0.39844 0.46875,-0.92969 0,-0.47656 -0.41406,-0.75 -0.28906,-0.1875 -1.4375,-0.47656 -1.54688,-0.39063 -2.14844,-0.67188 -0.59375,-0.28906 -0.90625,-0.78906 -0.30469,-0.50781 -0.30469,-1.11719 0,-0.55469 0.25,-1.02344 0.25782,-0.47656 0.69532,-0.78906 0.32812,-0.24219 0.89062,-0.40625 0.57031,-0.17187 1.21875,-0.17187 0.97656,0 1.71094,0.28125 0.74219,0.28125 1.09375,0.76562 0.35156,0.47656 0.48437,1.28125 l -1.375,0.1875 q -0.0937,-0.64062 -0.54687,-1 -0.44531,-0.35937 -1.26563,-0.35937 -0.96875,0 -1.38281,0.32031 -0.41406,0.32031 -0.41406,0.75 0,0.27344 0.17187,0.49219 0.17188,0.22656 0.53907,0.375 0.21093,0.0781 1.24218,0.35937 1.49219,0.39844 2.07813,0.65625 0.59375,0.25 0.92969,0.73438 0.33593,0.48437 0.33593,1.20312 0,0.70313 -0.41406,1.32813 -0.40625,0.61718 -1.17969,0.96093 -0.77343,0.33594 -1.75,0.33594 -1.61718,0 -2.46875,-0.67187 -0.84375,-0.67188 -1.07812,-1.99219 z m 8,0 1.39062,-0.21875 q 0.11719,0.83594 0.64844,1.28125 0.53906,0.44531 1.5,0.44531 0.96875,0 1.4375,-0.39062 0.46875,-0.39844 0.46875,-0.92969 0,-0.47656 -0.41406,-0.75 -0.28906,-0.1875 -1.4375,-0.47656 -1.54688,-0.39063 -2.14844,-0.67188 -0.59375,-0.28906 -0.90625,-0.78906 -0.30469,-0.50781 -0.30469,-1.11719 0,-0.55469 0.25,-1.02344 0.25782,-0.47656 0.69532,-0.78906 0.32812,-0.24219 0.89062,-0.40625 0.57031,-0.17187 1.21875,-0.17187 0.97656,0 1.71094,0.28125 0.74219,0.28125 1.09375,0.76562 0.35156,0.47656 0.48437,1.28125 l -1.375,0.1875 q -0.0937,-0.64062 -0.54687,-1 -0.44531,-0.35937 -1.26563,-0.35937 -0.96875,0 -1.38281,0.32031 -0.41406,0.32031 -0.41406,0.75 0,0.27344 0.17187,0.49219 0.17188,0.22656 0.53907,0.375 0.21093,0.0781 1.24218,0.35937 1.49219,0.39844 2.07813,0.65625 0.59375,0.25 0.92969,0.73438 0.33593,0.48437 0.33593,1.20312 0,0.70313 -0.41406,1.32813 -0.40625,0.61718 -1.17969,0.96093 -0.77343,0.33594 -1.75,0.33594 -1.61718,0 -2.46875,-0.67187 -0.84375,-0.67188 -1.07812,-1.99219 z m 18.42187,1.45312 q -0.78125,0.66407 -1.50781,0.9375 -0.71875,0.27344 -1.54687,0.27344 -1.36719,0 -2.10157,-0.66406 -0.73437,-0.67188 -0.73437,-1.71094 0,-0.60937 0.27344,-1.10937 0.28125,-0.50782 0.72656,-0.8125 0.45312,-0.30469 1.01562,-0.46094 0.41407,-0.10938 1.25,-0.21094 1.70313,-0.20312 2.50782,-0.48437 0.008,-0.28907 0.008,-0.36719 0,-0.85938 -0.39844,-1.21094 -0.53906,-0.47656 -1.60156,-0.47656 -0.99219,0 -1.46875,0.35156 -0.46875,0.34375 -0.69531,1.22656 l -1.375,-0.1875 q 0.1875,-0.88281 0.61718,-1.42187 0.42969,-0.54688 1.24219,-0.83594 0.8125,-0.29687 1.88281,-0.29687 1.0625,0 1.72657,0.25 0.66406,0.25 0.97656,0.63281 0.3125,0.375 0.4375,0.95312 0.0703,0.35938 0.0703,1.29688 v 1.875 q 0,1.96094 0.0859,2.48437 0.0937,0.51563 0.35937,0.99219 h -1.46875 q -0.21875,-0.4375 -0.28125,-1.02344 z m -0.11718,-3.14062 q -0.76563,0.3125 -2.29688,0.53125 -0.86719,0.125 -1.22656,0.28125 -0.35938,0.15625 -0.55469,0.46094 -0.19531,0.29687 -0.19531,0.66406 0,0.5625 0.42187,0.9375 0.42969,0.375 1.25,0.375 0.8125,0 1.44532,-0.35156 0.63281,-0.35938 0.92968,-0.97657 0.22657,-0.47656 0.22657,-1.40625 z m 3.57031,4.16406 v -11.45312 h 1.40625 v 11.45312 z m 3.55469,0 v -11.45312 h 1.40625 v 11.45312 z m 13.71093,-2.67187 1.45313,0.17968 q -0.34375,1.27344 -1.27344,1.97657 -0.92969,0.70312 -2.375,0.70312 -1.82031,0 -2.89062,-1.11719 -1.0625,-1.125 -1.0625,-3.14843 0,-2.09375 1.07812,-3.25 1.07813,-1.15625 2.79688,-1.15625 1.66406,0 2.71875,1.13281 1.05468,1.13281 1.05468,3.1875 0,0.125 -0.008,0.375 h -6.1875 q 0.0781,1.36719 0.77344,2.09375 0.69531,0.72656 1.73437,0.72656 0.77344,0 1.32032,-0.40625 0.54687,-0.40625 0.86718,-1.29687 z m -4.61718,-2.27344 h 4.63281 q -0.0937,-1.04688 -0.53125,-1.57031 -0.67188,-0.8125 -1.74219,-0.8125 -0.96875,0 -1.63281,0.64843 -0.65625,0.64844 -0.72656,1.73438 z m 7.83593,4.94531 v -8.29687 h 1.25782 v 1.16406 q 0.39062,-0.60938 1.03906,-0.97656 0.64844,-0.375 1.47656,-0.375 0.92188,0 1.50781,0.38281 0.59375,0.38281 0.83594,1.07031 0.98438,-1.45312 2.5625,-1.45312 1.23438,0 1.89844,0.6875 0.66406,0.67968 0.66406,2.10156 v 5.69531 h -1.39844 v -5.22656 q 0,-0.84375 -0.14062,-1.21094 -0.13281,-0.375 -0.49219,-0.60156 -0.35937,-0.22656 -0.84375,-0.22656 -0.875,0 -1.45312,0.58593 -0.57813,0.57813 -0.57813,1.85938 v 4.82031 h -1.40625 v -5.39062 q 0,-0.9375 -0.34375,-1.40625 -0.34375,-0.46875 -1.125,-0.46875 -0.59375,0 -1.10156,0.3125 -0.5,0.3125 -0.72656,0.91406 -0.22657,0.60156 -0.22657,1.73437 v 4.30469 z m 13.32813,3.17969 V 146.1152 h 1.28125 v 1.07812 q 0.45312,-0.63281 1.02344,-0.94531 0.57031,-0.32031 1.38281,-0.32031 1.0625,0 1.875,0.54687 0.8125,0.54688 1.22656,1.54688 0.41406,0.99218 0.41406,2.17968 0,1.27344 -0.46093,2.29688 -0.45313,1.01562 -1.32813,1.5625 -0.86719,0.53906 -1.82812,0.53906 -0.70313,0 -1.26563,-0.29687 -0.55469,-0.29688 -0.91406,-0.75 v 4.03906 z m 1.27344,-7.28125 q 0,1.60156 0.64843,2.36719 0.64844,0.76562 1.57032,0.76562 0.9375,0 1.60156,-0.78906 0.67187,-0.79688 0.67187,-2.46094 0,-1.58594 -0.65625,-2.375 -0.64843,-0.78906 -1.55468,-0.78906 -0.89844,0 -1.59375,0.84375 -0.6875,0.83594 -0.6875,2.4375 z m 7.59375,4.10156 v -11.45312 h 1.40625 v 11.45312 z m 3.0625,-4.14844 q 0,-2.30468 1.28125,-3.41406 1.07031,-0.92187 2.60937,-0.92187 1.71094,0 2.79688,1.125 1.08593,1.11718 1.08593,3.09375 0,1.60156 -0.48437,2.52343 -0.47656,0.91407 -1.39844,1.42188 -0.91406,0.50781 -2,0.50781 -1.74219,0 -2.82031,-1.11719 -1.07031,-1.11718 -1.07031,-3.21875 z m 1.44531,0 q 0,1.59375 0.69531,2.39063 0.69531,0.78906 1.75,0.78906 1.04688,0 1.74219,-0.79687 0.69531,-0.79688 0.69531,-2.42969 0,-1.53906 -0.70312,-2.32813 -0.69532,-0.79687 -1.73438,-0.79687 -1.05469,0 -1.75,0.78906 -0.69531,0.78906 -0.69531,2.38281 z m 7.91406,7.34375 -0.15625,-1.32031 q 0.46094,0.125 0.80469,0.125 0.46875,0 0.75,-0.15625 0.28125,-0.15625 0.46094,-0.4375 0.13281,-0.21094 0.42968,-1.04687 0.0391,-0.11719 0.125,-0.34375 l -3.14843,-8.3125 h 1.51562 l 1.72656,4.80468 q 0.33594,0.91407 0.60157,1.92188 0.24218,-0.96875 0.57812,-1.89063 l 1.77344,-4.83593 h 1.40625 l -3.15625,8.4375 q -0.50781,1.36718 -0.78906,1.88281 -0.375,0.69531 -0.85938,1.01562 -0.48437,0.32813 -1.15625,0.32813 -0.40625,0 -0.90625,-0.17188 z m 13.74219,-5.86718 1.45312,0.17968 q -0.34375,1.27344 -1.27343,1.97657 -0.92969,0.70312 -2.375,0.70312 -1.82032,0 -2.89063,-1.11719 -1.0625,-1.125 -1.0625,-3.14843 0,-2.09375 1.07813,-3.25 1.07812,-1.15625 2.79687,-1.15625 1.66406,0 2.71875,1.13281 1.05469,1.13281 1.05469,3.1875 0,0.125 -0.008,0.375 h -6.1875 q 0.0781,1.36719 0.77343,2.09375 0.69532,0.72656 1.73438,0.72656 0.77344,0 1.32031,-0.40625 0.54688,-0.40625 0.86719,-1.29687 z m -4.61719,-2.27344 h 4.63281 q -0.0937,-1.04688 -0.53125,-1.57031 -0.67187,-0.8125 -1.74218,-0.8125 -0.96875,0 -1.63282,0.64843 -0.65625,0.64844 -0.72656,1.73438 z m 13.51563,2.27344 1.45312,0.17968 q -0.34375,1.27344 -1.27344,1.97657 -0.92968,0.70312 -2.375,0.70312 -1.82031,0 -2.89062,-1.11719 -1.0625,-1.125 -1.0625,-3.14843 0,-2.09375 1.07812,-3.25 1.07813,-1.15625 2.79688,-1.15625 1.66406,0 2.71875,1.13281 1.05469,1.13281 1.05469,3.1875 0,0.125 -0.008,0.375 h -6.1875 q 0.0781,1.36719 0.77344,2.09375 0.69531,0.72656 1.73438,0.72656 0.77343,0 1.32031,-0.40625 0.54687,-0.40625 0.86719,-1.29687 z m -4.61719,-2.27344 h 4.63281 q -0.0937,-1.04688 -0.53125,-1.57031 -0.67187,-0.8125 -1.74219,-0.8125 -0.96875,0 -1.63281,0.64843 -0.65625,0.64844 -0.72656,1.73438 z m 7.27344,2.46875 1.39062,-0.21875 q 0.11719,0.83594 0.64844,1.28125 0.53906,0.44531 1.5,0.44531 0.96875,0 1.4375,-0.39062 0.46875,-0.39844 0.46875,-0.92969 0,-0.47656 -0.41406,-0.75 -0.28907,-0.1875 -1.4375,-0.47656 -1.54688,-0.39063 -2.14844,-0.67188 -0.59375,-0.28906 -0.90625,-0.78906 -0.30469,-0.50781 -0.30469,-1.11719 0,-0.55469 0.25,-1.02344 0.25781,-0.47656 0.69531,-0.78906 0.32813,-0.24219 0.89063,-0.40625 0.57031,-0.17187 1.21875,-0.17187 0.97656,0 1.71094,0.28125 0.74218,0.28125 1.09375,0.76562 0.35156,0.47656 0.48437,1.28125 l -1.375,0.1875 q -0.0937,-0.64062 -0.54687,-1 -0.44532,-0.35937 -1.26563,-0.35937 -0.96875,0 -1.38281,0.32031 -0.41406,0.32031 -0.41406,0.75 0,0.27344 0.17187,0.49219 0.17188,0.22656 0.53906,0.375 0.21094,0.0781 1.24219,0.35937 1.49219,0.39844 2.07813,0.65625 0.59375,0.25 0.92968,0.73438 0.33594,0.48437 0.33594,1.20312 0,0.70313 -0.41406,1.32813 -0.40625,0.61718 -1.17969,0.96093 -0.77344,0.33594 -1.75,0.33594 -1.61719,0 -2.46875,-0.67187 -0.84375,-0.67188 -1.07812,-1.99219 z m 14.30468,2.47656 h -1.30468 v -11.45312 h 1.40625 v 4.08593 q 0.89062,-1.11718 2.27343,-1.11718 0.76563,0 1.44532,0.3125 0.6875,0.30468 1.125,0.86718 0.44531,0.55469 0.69531,1.34375 0.25,0.78907 0.25,1.6875 0,2.13282 -1.05469,3.29688 -1.05469,1.16406 -2.53125,1.16406 -1.46875,0 -2.30469,-1.22656 z m -0.0156,-4.21094 q 0,1.49219 0.40625,2.15625 0.66406,1.08594 1.79687,1.08594 0.92188,0 1.59375,-0.79687 0.67188,-0.80469 0.67188,-2.39063 0,-1.625 -0.64844,-2.39844 -0.64062,-0.77343 -1.55469,-0.77343 -0.92187,0 -1.59375,0.80468 -0.67187,0.79688 -0.67187,2.3125 z m 7.55469,7.40625 -0.15625,-1.32031 q 0.46093,0.125 0.80468,0.125 0.46875,0 0.75,-0.15625 0.28125,-0.15625 0.46094,-0.4375 0.13281,-0.21094 0.42969,-1.04687 0.0391,-0.11719 0.125,-0.34375 l -3.14844,-8.3125 h 1.51563 l 1.72656,4.80468 q 0.33594,0.91407 0.60156,1.92188 0.24219,-0.96875 0.57813,-1.89063 l 1.77343,-4.83593 h 1.40625 l -3.15625,8.4375 q -0.50781,1.36718 -0.78906,1.88281 -0.375,0.69531 -0.85937,1.01562 -0.48438,0.32813 -1.15625,0.32813 -0.40625,0 -0.90625,-0.17188 z m 11.94531,-5.67187 1.39062,-0.21875 q 0.11719,0.83594 0.64844,1.28125 0.53906,0.44531 1.5,0.44531 0.96875,0 1.4375,-0.39062 0.46875,-0.39844 0.46875,-0.92969 0,-0.47656 -0.41406,-0.75 -0.28906,-0.1875 -1.4375,-0.47656 -1.54688,-0.39063 -2.14844,-0.67188 -0.59375,-0.28906 -0.90625,-0.78906 -0.30469,-0.50781 -0.30469,-1.11719 0,-0.55469 0.25,-1.02344 0.25782,-0.47656 0.69532,-0.78906 0.32812,-0.24219 0.89062,-0.40625 0.57031,-0.17187 1.21875,-0.17187 0.97656,0 1.71094,0.28125 0.74219,0.28125 1.09375,0.76562 0.35156,0.47656 0.48437,1.28125 l -1.375,0.1875 q -0.0937,-0.64062 -0.54687,-1 -0.44531,-0.35937 -1.26563,-0.35937 -0.96875,0 -1.38281,0.32031 -0.41406,0.32031 -0.41406,0.75 0,0.27344 0.17187,0.49219 0.17188,0.22656 0.53907,0.375 0.21093,0.0781 1.24218,0.35937 1.49219,0.39844 2.07813,0.65625 0.59375,0.25 0.92969,0.73438 0.33593,0.48437 0.33593,1.20312 0,0.70313 -0.41406,1.32813 -0.40625,0.61718 -1.17969,0.96093 -0.77343,0.33594 -1.75,0.33594 -1.61718,0 -2.46875,-0.67187 -0.84375,-0.67188 -1.07812,-1.99219 z m 13.85156,5.65625 v -4.0625 q -0.32812,0.46094 -0.92187,0.76562 -0.58594,0.30469 -1.25,0.30469 -1.47657,0 -2.54688,-1.17969 -1.0625,-1.17968 -1.0625,-3.23437 0,-1.25 0.42969,-2.24219 0.4375,-0.99219 1.25781,-1.5 0.82813,-0.51562 1.8125,-0.51562 1.53906,0 2.42188,1.29687 v -1.10937 h 1.26562 v 11.47656 z m -4.33594,-7.35156 q 0,1.60156 0.67188,2.40625 0.67187,0.79687 1.60937,0.79687 0.89844,0 1.54688,-0.75781 0.64844,-0.76563 0.64844,-2.32031 0,-1.65625 -0.6875,-2.49219 -0.67969,-0.83594 -1.60157,-0.83594 -0.91406,0 -1.55468,0.78125 -0.63282,0.77344 -0.63282,2.42188 z m 13.38282,4.17187 v -1.21875 q -0.96875,1.40625 -2.63282,1.40625 -0.73437,0 -1.375,-0.28125 -0.63281,-0.28125 -0.94531,-0.70312 -0.30469,-0.42969 -0.42969,-1.04688 -0.0859,-0.41406 -0.0859,-1.3125 v -5.14062 h 1.40625 v 4.60156 q 0,1.10156 0.0859,1.48437 0.13282,0.55469 0.5625,0.875 0.42969,0.3125 1.0625,0.3125 0.63282,0 1.1875,-0.32031 0.55469,-0.32812 0.78125,-0.88281 0.23438,-0.5625 0.23438,-1.625 v -4.44531 h 1.40625 v 8.29687 z m 8.875,-1.02344 q -0.78125,0.66407 -1.50782,0.9375 -0.71875,0.27344 -1.54687,0.27344 -1.36719,0 -2.10156,-0.66406 -0.73438,-0.67188 -0.73438,-1.71094 0,-0.60937 0.27344,-1.10937 0.28125,-0.50782 0.72656,-0.8125 0.45313,-0.30469 1.01563,-0.46094 0.41406,-0.10938 1.25,-0.21094 1.70312,-0.20312 2.50781,-0.48437 0.008,-0.28907 0.008,-0.36719 0,-0.85938 -0.39844,-1.21094 -0.53906,-0.47656 -1.60156,-0.47656 -0.99219,0 -1.46875,0.35156 -0.46875,0.34375 -0.69531,1.22656 l -1.375,-0.1875 q 0.1875,-0.88281 0.61719,-1.42187 0.42968,-0.54688 1.24218,-0.83594 0.8125,-0.29687 1.88282,-0.29687 1.0625,0 1.72656,0.25 0.66406,0.25 0.97656,0.63281 0.3125,0.375 0.4375,0.95312 0.0703,0.35938 0.0703,1.29688 v 1.875 q 0,1.96094 0.0859,2.48437 0.0937,0.51563 0.35938,0.99219 h -1.46875 q -0.21875,-0.4375 -0.28125,-1.02344 z m -0.11719,-3.14062 q -0.76563,0.3125 -2.29688,0.53125 -0.86718,0.125 -1.22656,0.28125 -0.35937,0.15625 -0.55469,0.46094 -0.19531,0.29687 -0.19531,0.66406 0,0.5625 0.42188,0.9375 0.42968,0.375 1.25,0.375 0.8125,0 1.44531,-0.35156 0.63281,-0.35938 0.92969,-0.97657 0.22656,-0.47656 0.22656,-1.40625 z m 3.58594,4.16406 v -8.29687 h 1.26562 v 1.25781 q 0.48438,-0.88281 0.89063,-1.16406 0.41406,-0.28125 0.90625,-0.28125 0.71093,0 1.44531,0.45312 l -0.48438,1.30469 q -0.51562,-0.30469 -1.03125,-0.30469 -0.46093,0 -0.82812,0.28125 -0.36719,0.27344 -0.52344,0.76563 -0.23437,0.75 -0.23437,1.64062 v 4.34375 z m 5.35156,-9.83594 v -1.61718 h 1.40625 v 1.61718 z m 0,9.83594 v -8.29687 h 1.40625 v 8.29687 z m 3.54687,0 v -8.29687 h 1.26563 v 1.17968 q 0.91406,-1.36718 2.64062,-1.36718 0.75,0 1.375,0.27343 0.63282,0.26563 0.94532,0.70313 0.3125,0.4375 0.4375,1.03906 0.0781,0.39063 0.0781,1.36719 v 5.10156 h -1.40625 v -5.04687 q 0,-0.85938 -0.16406,-1.28125 -0.16406,-0.42969 -0.58594,-0.67969 -0.41406,-0.25781 -0.97656,-0.25781 -0.89844,0 -1.55469,0.57031 -0.64844,0.57031 -0.64844,2.16406 v 4.53125 z m 8.64063,0.6875 1.36719,0.20313 q 0.0859,0.63281 0.47656,0.92187 0.52344,0.39063 1.42969,0.39063 0.97656,0 1.50781,-0.39063 0.53125,-0.39062 0.71875,-1.09375 0.10937,-0.42969 0.10156,-1.80469 -0.92187,1.08594 -2.29687,1.08594 -1.71094,0 -2.64844,-1.23437 -0.9375,-1.23438 -0.9375,-2.96094 0,-1.1875 0.42969,-2.1875 0.42968,-1.00781 1.24218,-1.55469 0.82032,-0.54687 1.92188,-0.54687 1.46875,0 2.42187,1.1875 v -1 h 1.29688 v 7.17187 q 0,1.9375 -0.39844,2.74219 -0.39062,0.8125 -1.25,1.28125 -0.85156,0.46875 -2.10156,0.46875 -1.48438,0 -2.39844,-0.67188 -0.91406,-0.66406 -0.88281,-2.00781 z m 1.16406,-4.98437 q 0,1.63281 0.64844,2.38281 0.64844,0.75 1.625,0.75 0.96875,0 1.625,-0.74219 0.65625,-0.75 0.65625,-2.34375 0,-1.52344 -0.67969,-2.29687 -0.67187,-0.77344 -1.625,-0.77344 -0.9375,0 -1.59375,0.76562 -0.65625,0.75782 -0.65625,2.25782 z m 15.50781,3.03906 0.20313,1.24219 q -0.59375,0.125 -1.0625,0.125 -0.76563,0 -1.1875,-0.24219 -0.42188,-0.24219 -0.59375,-0.63281 -0.17188,-0.39844 -0.17188,-1.66407 v -4.77343 h -1.03125 v -1.09375 h 1.03125 v -2.05469 l 1.39844,-0.84375 v 2.89844 h 1.41406 v 1.09375 h -1.41406 v 4.85156 q 0,0.60156 0.0703,0.77344 0.0781,0.17187 0.24219,0.27343 0.17188,0.10157 0.48438,0.10157 0.23437,0 0.61718,-0.0547 z m 1.375,1.25781 v -11.45312 h 1.40625 v 4.10937 q 0.98438,-1.14062 2.48438,-1.14062 0.92187,0 1.60156,0.36718 0.67969,0.35938 0.96875,1 0.29688,0.64063 0.29688,1.85938 v 5.25781 h -1.40625 v -5.25781 q 0,-1.05469 -0.46094,-1.53125 -0.45313,-0.48438 -1.28906,-0.48438 -0.625,0 -1.17969,0.32813 -0.54688,0.32031 -0.78125,0.875 -0.23438,0.55469 -0.23438,1.53125 v 4.53906 z m 14.57813,-2.67187 1.45312,0.17968 q -0.34375,1.27344 -1.27343,1.97657 -0.92969,0.70312 -2.375,0.70312 -1.82032,0 -2.89063,-1.11719 -1.0625,-1.125 -1.0625,-3.14843 0,-2.09375 1.07813,-3.25 1.07812,-1.15625 2.79687,-1.15625 1.66406,0 2.71875,1.13281 1.05469,1.13281 1.05469,3.1875 0,0.125 -0.008,0.375 h -6.1875 q 0.0781,1.36719 0.77343,2.09375 0.69532,0.72656 1.73438,0.72656 0.77344,0 1.32031,-0.40625 0.54688,-0.40625 0.86719,-1.29687 z m -4.61719,-2.27344 h 4.63281 q -0.0937,-1.04688 -0.53125,-1.57031 -0.67187,-0.8125 -1.74218,-0.8125 -0.96875,0 -1.63282,0.64843 -0.65625,0.64844 -0.72656,1.73438 z m 12.28125,4.94531 v -8.29687 h 1.26563 v 1.17968 q 0.91406,-1.36718 2.64062,-1.36718 0.75,0 1.375,0.27343 0.63281,0.26563 0.94531,0.70313 0.3125,0.4375 0.4375,1.03906 0.0781,0.39063 0.0781,1.36719 v 5.10156 h -1.40625 v -5.04687 q 0,-0.85938 -0.16406,-1.28125 -0.16407,-0.42969 -0.58594,-0.67969 -0.41406,-0.25781 -0.97656,-0.25781 -0.89844,0 -1.55469,0.57031 -0.64844,0.57031 -0.64844,2.16406 v 4.53125 z m 14.33594,0 v -1.21875 q -0.96875,1.40625 -2.63281,1.40625 -0.73438,0 -1.375,-0.28125 -0.63282,-0.28125 -0.94532,-0.70312 -0.30468,-0.42969 -0.42968,-1.04688 -0.0859,-0.41406 -0.0859,-1.3125 v -5.14062 h 1.40625 v 4.60156 q 0,1.10156 0.0859,1.48437 0.13281,0.55469 0.5625,0.875 0.42968,0.3125 1.0625,0.3125 0.63281,0 1.1875,-0.32031 0.55468,-0.32812 0.78125,-0.88281 0.23437,-0.5625 0.23437,-1.625 v -4.44531 h 1.40625 v 8.29687 z m 3.46094,0 v -8.29687 h 1.25781 v 1.16406 q 0.39062,-0.60938 1.03906,-0.97656 0.64844,-0.375 1.47656,-0.375 0.92188,0 1.50782,0.38281 0.59375,0.38281 0.83593,1.07031 0.98438,-1.45312 2.5625,-1.45312 1.23438,0 1.89844,0.6875 0.66406,0.67968 0.66406,2.10156 v 5.69531 h -1.39843 v -5.22656 q 0,-0.84375 -0.14063,-1.21094 -0.13281,-0.375 -0.49219,-0.60156 -0.35937,-0.22656 -0.84375,-0.22656 -0.875,0 -1.45312,0.58593 -0.57813,0.57813 -0.57813,1.85938 v 4.82031 h -1.40625 v -5.39062 q 0,-0.9375 -0.34375,-1.40625 -0.34375,-0.46875 -1.125,-0.46875 -0.59375,0 -1.10156,0.3125 -0.5,0.3125 -0.72656,0.91406 -0.22656,0.60156 -0.22656,1.73437 v 4.30469 z m 14.625,0 h -1.30469 v -11.45312 h 1.40625 v 4.08593 q 0.89062,-1.11718 2.27344,-1.11718 0.76562,0 1.44531,0.3125 0.6875,0.30468 1.125,0.86718 0.44531,0.55469 0.69531,1.34375 0.25,0.78907 0.25,1.6875 0,2.13282 -1.05469,3.29688 -1.05468,1.16406 -2.53125,1.16406 -1.46875,0 -2.30468,-1.22656 z m -0.0156,-4.21094 q 0,1.49219 0.40625,2.15625 0.66406,1.08594 1.79688,1.08594 0.92187,0 1.59375,-0.79687 0.67187,-0.80469 0.67187,-2.39063 0,-1.625 -0.64844,-2.39844 -0.64062,-0.77343 -1.55468,-0.77343 -0.92188,0 -1.59375,0.80468 -0.67188,0.79688 -0.67188,2.3125 z m 13.29688,1.53907 1.45312,0.17968 q -0.34375,1.27344 -1.27344,1.97657 -0.92968,0.70312 -2.375,0.70312 -1.82031,0 -2.89062,-1.11719 -1.0625,-1.125 -1.0625,-3.14843 0,-2.09375 1.07812,-3.25 1.07813,-1.15625 2.79688,-1.15625 1.66406,0 2.71875,1.13281 1.05469,1.13281 1.05469,3.1875 0,0.125 -0.008,0.375 h -6.1875 q 0.0781,1.36719 0.77344,2.09375 0.69531,0.72656 1.73438,0.72656 0.77343,0 1.32031,-0.40625 0.54687,-0.40625 0.86719,-1.29687 z m -4.61719,-2.27344 h 4.63281 q -0.0937,-1.04688 -0.53125,-1.57031 -0.67187,-0.8125 -1.74219,-0.8125 -0.96875,0 -1.63281,0.64843 -0.65625,0.64844 -0.72656,1.73438 z m 7.82031,4.94531 v -8.29687 h 1.26563 v 1.25781 q 0.48437,-0.88281 0.89062,-1.16406 0.41406,-0.28125 0.90625,-0.28125 0.71094,0 1.44531,0.45312 l -0.48437,1.30469 q -0.51563,-0.30469 -1.03125,-0.30469 -0.46094,0 -0.82813,0.28125 -0.36718,0.27344 -0.52343,0.76563 -0.23438,0.75 -0.23438,1.64062 v 4.34375 z m 9.26563,-4.14844 q 0,-2.30468 1.28125,-3.41406 1.07031,-0.92187 2.60937,-0.92187 1.71094,0 2.79688,1.125 1.08593,1.11718 1.08593,3.09375 0,1.60156 -0.48437,2.52343 -0.47656,0.91407 -1.39844,1.42188 -0.91406,0.50781 -2,0.50781 -1.74219,0 -2.82031,-1.11719 -1.07031,-1.11718 -1.07031,-3.21875 z m 1.44531,0 q 0,1.59375 0.69531,2.39063 0.69531,0.78906 1.75,0.78906 1.04688,0 1.74219,-0.79687 0.69531,-0.79688 0.69531,-2.42969 0,-1.53906 -0.70312,-2.32813 -0.69532,-0.79687 -1.73438,-0.79687 -1.05469,0 -1.75,0.78906 -0.69531,0.78906 -0.69531,2.38281 z m 8.3125,4.14844 v -7.20312 h -1.24219 v -1.09375 h 1.24219 v -0.88282 q 0,-0.83593 0.14844,-1.24218 0.20312,-0.54688 0.71093,-0.88282 0.51563,-0.34375 1.4375,-0.34375 0.59375,0 1.3125,0.14063 l -0.21093,1.22656 q -0.4375,-0.0781 -0.82813,-0.0781 -0.64062,0 -0.90625,0.27343 -0.26562,0.27344 -0.26562,1.02344 v 0.76563 h 1.61718 v 1.09375 h -1.61718 v 7.20312 z m 11.625,-1.25781 0.20312,1.24219 q -0.59375,0.125 -1.0625,0.125 -0.76562,0 -1.1875,-0.24219 -0.42187,-0.24219 -0.59375,-0.63281 -0.17187,-0.39844 -0.17187,-1.66407 v -4.77343 h -1.03125 v -1.09375 h 1.03125 v -2.05469 l 1.39844,-0.84375 v 2.89844 h 1.41406 v 1.09375 h -1.41406 v 4.85156 q 0,0.60156 0.0703,0.77344 0.0781,0.17187 0.24219,0.27343 0.17187,0.10157 0.48437,0.10157 0.23438,0 0.61719,-0.0547 z m 1.375,1.25781 v -11.45312 h 1.40625 v 4.10937 q 0.98437,-1.14062 2.48437,-1.14062 0.92188,0 1.60157,0.36718 0.67968,0.35938 0.96875,1 0.29687,0.64063 0.29687,1.85938 v 5.25781 h -1.40625 v -5.25781 q 0,-1.05469 -0.46094,-1.53125 -0.45312,-0.48438 -1.28906,-0.48438 -0.625,0 -1.17969,0.32813 -0.54687,0.32031 -0.78125,0.875 -0.23437,0.55469 -0.23437,1.53125 v 4.53906 z m 14.57812,-2.67187 1.45313,0.17968 q -0.34375,1.27344 -1.27344,1.97657 -0.92969,0.70312 -2.375,0.70312 -1.82031,0 -2.89062,-1.11719 -1.0625,-1.125 -1.0625,-3.14843 0,-2.09375 1.07812,-3.25 1.07813,-1.15625 2.79688,-1.15625 1.66406,0 2.71875,1.13281 1.05468,1.13281 1.05468,3.1875 0,0.125 -0.008,0.375 h -6.1875 q 0.0781,1.36719 0.77344,2.09375 0.69531,0.72656 1.73437,0.72656 0.77344,0 1.32032,-0.40625 0.54687,-0.40625 0.86718,-1.29687 z m -4.61718,-2.27344 h 4.63281 q -0.0937,-1.04688 -0.53125,-1.57031 -0.67188,-0.8125 -1.74219,-0.8125 -0.96875,0 -1.63281,0.64843 -0.65625,0.64844 -0.72656,1.73438 z m 7.84375,-4.89063 v -1.61718 h 1.40625 v 1.61718 z m 0,9.83594 v -8.29687 h 1.40625 v 8.29687 z m 3.53125,0 v -8.29687 h 1.26562 v 1.25781 q 0.48438,-0.88281 0.89063,-1.16406 0.41406,-0.28125 0.90625,-0.28125 0.71093,0 1.44531,0.45312 l -0.48438,1.30469 q -0.51562,-0.30469 -1.03125,-0.30469 -0.46093,0 -0.82812,0.28125 -0.36719,0.27344 -0.52344,0.76563 -0.23437,0.75 -0.23437,1.64062 v 4.34375 z m 9.22656,-2.47656 1.39062,-0.21875 q 0.11719,0.83594 0.64844,1.28125 0.53906,0.44531 1.5,0.44531 0.96875,0 1.4375,-0.39062 0.46875,-0.39844 0.46875,-0.92969 0,-0.47656 -0.41406,-0.75 -0.28906,-0.1875 -1.4375,-0.47656 -1.54688,-0.39063 -2.14844,-0.67188 -0.59375,-0.28906 -0.90625,-0.78906 -0.30469,-0.50781 -0.30469,-1.11719 0,-0.55469 0.25,-1.02344 0.25782,-0.47656 0.69532,-0.78906 0.32812,-0.24219 0.89062,-0.40625 0.57031,-0.17187 1.21875,-0.17187 0.97656,0 1.71094,0.28125 0.74219,0.28125 1.09375,0.76562 0.35156,0.47656 0.48437,1.28125 l -1.375,0.1875 q -0.0937,-0.64062 -0.54687,-1 -0.44531,-0.35937 -1.26563,-0.35937 -0.96875,0 -1.38281,0.32031 -0.41406,0.32031 -0.41406,0.75 0,0.27344 0.17187,0.49219 0.17188,0.22656 0.53907,0.375 0.21093,0.0781 1.24218,0.35937 1.49219,0.39844 2.07813,0.65625 0.59375,0.25 0.92969,0.73438 0.33593,0.48437 0.33593,1.20312 0,0.70313 -0.41406,1.32813 -0.40625,0.61718 -1.17969,0.96093 -0.77343,0.33594 -1.75,0.33594 -1.61718,0 -2.46875,-0.67187 -0.84375,-0.67188 -1.07812,-1.99219 z m 8.5625,2.47656 v -11.45312 h 1.40625 v 4.10937 q 0.98437,-1.14062 2.48437,-1.14062 0.92188,0 1.60157,0.36718 0.67968,0.35938 0.96875,1 0.29687,0.64063 0.29687,1.85938 v 5.25781 h -1.40625 v -5.25781 q 0,-1.05469 -0.46094,-1.53125 -0.45312,-0.48438 -1.28906,-0.48438 -0.625,0 -1.17969,0.32813 -0.54687,0.32031 -0.78125,0.875 -0.23437,0.55469 -0.23437,1.53125 v 4.53906 z m 8.90625,-9.83594 v -1.61718 h 1.40625 v 1.61718 z m 0,9.83594 v -8.29687 h 1.40625 v 8.29687 z m 3.88281,0 v -7.20312 h -1.24219 v -1.09375 h 1.24219 v -0.88282 q 0,-0.83593 0.14844,-1.24218 0.20312,-0.54688 0.71094,-0.88282 0.51562,-0.34375 1.4375,-0.34375 0.59375,0 1.3125,0.14063 l -0.21094,1.22656 q -0.4375,-0.0781 -0.82813,-0.0781 -0.64062,0 -0.90625,0.27343 -0.26562,0.27344 -0.26562,1.02344 v 0.76563 h 1.61719 v 1.09375 h -1.61719 v 7.20312 z m 7.17969,-1.25781 0.20312,1.24219 q -0.59375,0.125 -1.0625,0.125 -0.76562,0 -1.1875,-0.24219 -0.42187,-0.24219 -0.59375,-0.63281 -0.17187,-0.39844 -0.17187,-1.66407 v -4.77343 h -1.03125 v -1.09375 h 1.03125 v -2.05469 l 1.39844,-0.84375 v 2.89844 h 1.41406 v 1.09375 h -1.41406 v 4.85156 q 0,0.60156 0.0703,0.77344 0.0781,0.17187 0.24219,0.27343 0.17187,0.10157 0.48437,0.10157 0.23438,0 0.61719,-0.0547 z m 0.8125,-1.21875 1.39062,-0.21875 q 0.11719,0.83594 0.64844,1.28125 0.53906,0.44531 1.5,0.44531 0.96875,0 1.4375,-0.39062 0.46875,-0.39844 0.46875,-0.92969 0,-0.47656 -0.41406,-0.75 -0.28906,-0.1875 -1.4375,-0.47656 -1.54688,-0.39063 -2.14844,-0.67188 -0.59375,-0.28906 -0.90625,-0.78906 -0.30469,-0.50781 -0.30469,-1.11719 0,-0.55469 0.25,-1.02344 0.25782,-0.47656 0.69532,-0.78906 0.32812,-0.24219 0.89062,-0.40625 0.57031,-0.17187 1.21875,-0.17187 0.97656,0 1.71094,0.28125 0.74219,0.28125 1.09375,0.76562 0.35156,0.47656 0.48437,1.28125 l -1.375,0.1875 q -0.0937,-0.64062 -0.54687,-1 -0.44531,-0.35937 -1.26563,-0.35937 -0.96875,0 -1.38281,0.32031 -0.41406,0.32031 -0.41406,0.75 0,0.27344 0.17187,0.49219 0.17188,0.22656 0.53907,0.375 0.21093,0.0781 1.24218,0.35937 1.49219,0.39844 2.07813,0.65625 0.59375,0.25 0.92969,0.73438 0.33593,0.48437 0.33593,1.20312 0,0.70313 -0.41406,1.32813 -0.40625,0.61718 -1.17969,0.96093 -0.77343,0.33594 -1.75,0.33594 -1.61718,0 -2.46875,-0.67187 -0.84375,-0.67188 -1.07812,-1.99219 z m 8.96094,2.47656 v -1.60156 h 1.60156 v 1.60156 z"
       id="flowRoot4302-6"
       transform="translate(-20,382.36205)"
       aria-label="Distribute the shift workload fairly across all employees by squaring the number of their shifts." />
    <path
       style="font-weight:bold;font-size:14px;line-height:1.25;font-family:'Liberation Sans';-inkscape-font-specification:'\'Liberation Sans, Normal\' Bold';text-align:center;text-anchor:middle"
       d="m 156.33594,136.38791 v -10.02149 h 7.43066 v 1.69531 h -5.40723 v 2.22168 h 5.03125 v 1.68848 h -5.03125 v 2.72754 h 5.59864 v 1.68848 z m 9.18066,-7.25977 h 1.77051 v 0.99121 q 0.95019,-1.15527 2.26269,-1.15527 0.69727,0 1.20997,0.28711 0.51269,0.28711 0.84082,0.86816 0.47851,-0.58105 1.03222,-0.86816 0.55371,-0.28711 1.18262,-0.28711 0.7998,0 1.35352,0.32812 0.55371,0.32129 0.82714,0.9502 0.19825,0.46484 0.19825,1.5039 v 4.64161 h -1.9209 v -4.14942 q 0,-1.08008 -0.19824,-1.39453 -0.26661,-0.41016 -0.82032,-0.41016 -0.40332,0 -0.75879,0.2461 -0.35547,0.24609 -0.51269,0.72461 -0.15723,0.47168 -0.15723,1.49707 v 3.48633 h -1.9209 v -3.97852 q 0,-1.05957 -0.10254,-1.36719 -0.10253,-0.30761 -0.32128,-0.45801 -0.21192,-0.15039 -0.58106,-0.15039 -0.44434,0 -0.7998,0.23926 -0.35547,0.23926 -0.5127,0.69043 -0.15039,0.45117 -0.15039,1.49707 v 3.52735 h -1.9209 z m 12.53711,0 h 1.79102 v 1.06641 q 0.34863,-0.54688 0.94336,-0.88868 0.59472,-0.34179 1.31933,-0.34179 1.26465,0 2.14649,0.99121 0.88183,0.99121 0.88183,2.76172 0,1.81836 -0.88867,2.83008 -0.88867,1.00488 -2.15332,1.00488 -0.60156,0 -1.09375,-0.23926 -0.48535,-0.23926 -1.02539,-0.82031 v 3.65722 h -1.9209 z m 1.90039,3.50684 q 0,1.22363 0.48535,1.81152 0.48535,0.58105 1.18262,0.58105 0.66992,0 1.11426,-0.5332 0.44433,-0.54004 0.44433,-1.76367 0,-1.1416 -0.458,-1.69531 -0.45801,-0.55371 -1.13477,-0.55371 -0.7041,0 -1.16894,0.54687 -0.46485,0.54004 -0.46485,1.60645 z m 6.70606,3.75293 v -10.02149 h 1.92089 v 10.02149 z m 3.44531,-3.73243 q 0,-0.95703 0.47168,-1.85254 0.47168,-0.8955 1.33301,-1.36718 0.86816,-0.47168 1.93457,-0.47168 1.64746,0 2.70019,1.07324 1.05274,1.06641 1.05274,2.7002 0,1.64746 -1.06641,2.73437 -1.05957,1.08008 -2.67285,1.08008 -0.99805,0 -1.90723,-0.45117 -0.90234,-0.45118 -1.37402,-1.31934 -0.47168,-0.875 -0.47168,-2.12598 z m 1.96875,0.10254 q 0,1.08008 0.51269,1.6543 0.5127,0.57422 1.26465,0.57422 0.75196,0 1.25781,-0.57422 0.5127,-0.57422 0.5127,-1.66797 0,-1.06641 -0.5127,-1.64062 -0.50585,-0.57422 -1.25781,-0.57422 -0.75195,0 -1.26465,0.57422 -0.51269,0.57421 -0.51269,1.65429 z m 6.11816,-3.62988 h 2.04395 l 1.73633,5.1543 1.69531,-5.1543 h 1.98926 l -2.56348,6.98633 -0.45801,1.26465 q -0.25293,0.63574 -0.48535,0.9707 -0.22559,0.33496 -0.52637,0.54004 -0.29394,0.21191 -0.73144,0.32812 -0.43067,0.11621 -0.97754,0.11621 -0.55371,0 -1.08692,-0.11621 l -0.17089,-1.5039 q 0.45117,0.0889 0.81347,0.0889 0.66992,0 0.99121,-0.39648 0.32129,-0.38965 0.49219,-0.99805 z m 12.89942,4.94922 1.91406,0.32129 q -0.36914,1.05273 -1.16895,1.60644 -0.79296,0.54688 -1.98925,0.54688 -1.89356,0 -2.80274,-1.23731 -0.71777,-0.99121 -0.71777,-2.50195 0,-1.80469 0.94336,-2.82324 0.94336,-1.02539 2.38574,-1.02539 1.62012,0 2.55664,1.07324 0.93652,1.06641 0.89551,3.27441 h -4.8125 q 0.0205,0.8545 0.46484,1.33301 0.44434,0.47168 1.10742,0.47168 0.45118,0 0.75879,-0.24609 0.30762,-0.2461 0.46485,-0.79297 z m 0.10937,-1.94141 q -0.0205,-0.83398 -0.43066,-1.26465 -0.41016,-0.4375 -0.99805,-0.4375 -0.62891,0 -1.03906,0.45801 -0.41016,0.45801 -0.40332,1.24414 z m 7.67676,1.94141 1.91406,0.32129 q -0.36914,1.05273 -1.16894,1.60644 -0.79297,0.54688 -1.98926,0.54688 -1.89356,0 -2.80274,-1.23731 -0.71777,-0.99121 -0.71777,-2.50195 0,-1.80469 0.94336,-2.82324 0.94336,-1.02539 2.38574,-1.02539 1.62012,0 2.55664,1.07324 0.93653,1.06641 0.89551,3.27441 h -4.8125 q 0.0205,0.8545 0.46484,1.33301 0.44434,0.47168 1.10743,0.47168 0.45117,0 0.75879,-0.24609 0.30761,-0.2461 0.46484,-0.79297 z m 0.10937,-1.94141 q -0.0205,-0.83398 -0.43066,-1.26465 -0.41016,-0.4375 -0.99805,-0.4375 -0.6289,0 -1.03906,0.45801 -0.41016,0.45801 -0.40332,1.24414 z m 6.35743,4.25196 3.4248,-5.2295 -3.10351,-4.79199 h 2.36523 l 2.00977,3.21973 1.96875,-3.21973 h 2.34472 l -3.11719,4.86719 3.42481,5.1543 h -2.44043 L 230,132.92209 l -2.22852,3.46582 z"
       id="flowRoot3472-8"
       transform="translate(-90.000167,438.58511)"
       aria-label="Employee X" />
    <path
       style="font-size:14px;line-height:1.25;font-family:'Liberation Sans';-inkscape-font-specification:'Liberation Sans, Normal';text-align:center;text-anchor:middle"
       d="m 343.79199,68.866421 1.29199,-0.109375 q 0.14356,0.94336 0.66309,1.421875 0.52637,0.47168 1.26465,0.47168 0.88867,0 1.5039,-0.669922 0.61524,-0.669922 0.61524,-1.777344 0,-1.052734 -0.59473,-1.661132 -0.58789,-0.608399 -1.54492,-0.608399 -0.59473,0 -1.07324,0.273438 -0.47852,0.266601 -0.75195,0.697265 l -1.15528,-0.15039 0.97071,-5.147461 h 4.98339 v 1.175781 h -3.99902 l -0.54004,2.693359 q 0.90234,-0.628906 1.89356,-0.628906 1.3125,0 2.21484,0.90918 0.90234,0.909179 0.90234,2.33789 0,1.360352 -0.79297,2.351563 -0.96386,1.216797 -2.63183,1.216797 -1.36719,0 -2.23535,-0.765625 -0.86133,-0.765625 -0.98438,-2.030274 z m 11.52539,0.458008 1.2168,-0.191406 q 0.10254,0.731445 0.56738,1.121094 0.47168,0.389648 1.3125,0.389648 0.84766,0 1.25781,-0.341797 0.41016,-0.348633 0.41016,-0.813476 0,-0.416993 -0.3623,-0.65625 -0.25293,-0.164063 -1.25782,-0.416993 -1.35351,-0.341796 -1.87988,-0.58789 -0.51953,-0.25293 -0.79297,-0.69043 -0.2666,-0.444336 -0.2666,-0.977539 0,-0.485352 0.21875,-0.895508 0.22559,-0.416992 0.6084,-0.690429 0.28711,-0.211915 0.7793,-0.355469 0.49902,-0.150391 1.0664,-0.150391 0.85449,0 1.49707,0.246094 0.64942,0.246094 0.95703,0.669922 0.30762,0.416992 0.42383,1.121094 l -1.20312,0.164062 q -0.082,-0.560547 -0.47852,-0.875 -0.38965,-0.314453 -1.10742,-0.314453 -0.84766,0 -1.20996,0.280273 -0.36231,0.280274 -0.36231,0.65625 0,0.239258 0.15039,0.430664 0.1504,0.198243 0.47168,0.328125 0.18457,0.06836 1.08692,0.314454 1.30566,0.348632 1.81836,0.574218 0.51953,0.21875 0.81347,0.642578 0.29395,0.423829 0.29395,1.052735 0,0.615234 -0.36231,1.162109 -0.35546,0.540039 -1.03222,0.84082 -0.67676,0.293946 -1.53125,0.293946 -1.41504,0 -2.16016,-0.587891 -0.73828,-0.58789 -0.94336,-1.743164 z m 7.49219,2.166992 V 61.469937 h 1.23047 v 3.595703 q 0.86133,-0.998047 2.17383,-0.998047 0.80664,0 1.40136,0.321289 0.59473,0.314453 0.84766,0.875 0.25977,0.560547 0.25977,1.626953 v 4.600586 h -1.23047 v -4.600586 q 0,-0.922851 -0.40332,-1.339843 -0.39649,-0.423829 -1.12793,-0.423829 -0.54688,0 -1.03223,0.28711 -0.47851,0.280273 -0.68359,0.765625 -0.20508,0.485351 -0.20508,1.339844 v 3.971679 z m 7.79297,-8.606445 v -1.415039 h 1.23047 v 1.415039 z m 0,8.606445 v -7.259765 h 1.23047 v 7.259765 z m 3.39746,0 v -6.302734 h -1.08691 V 64.231656 H 374 v -0.772461 q 0,-0.731446 0.12988,-1.086914 0.17774,-0.478516 0.62207,-0.772461 0.45117,-0.300782 1.25782,-0.300782 0.51953,0 1.14843,0.123047 l -0.18457,1.073243 q -0.38281,-0.06836 -0.72461,-0.06836 -0.56054,0 -0.79297,0.239258 -0.23242,0.239258 -0.23242,0.895508 v 0.669922 h 1.41504 v 0.957031 h -1.41504 v 6.302734 z m 6.28223,-1.100586 0.17773,1.086914 q -0.51953,0.109375 -0.92969,0.109375 -0.66992,0 -1.03906,-0.211914 -0.36914,-0.211914 -0.51953,-0.553711 -0.15039,-0.348632 -0.15039,-1.456054 v -4.176758 h -0.90234 v -0.957031 h 0.90234 v -1.797852 l 1.22363,-0.738281 v 2.536133 h 1.23731 v 0.957031 h -1.23731 v 4.245117 q 0,0.526367 0.0615,0.676758 0.0684,0.150391 0.21191,0.239258 0.15039,0.08887 0.42383,0.08887 0.20508,0 0.54004,-0.04785 z m 0.71093,-1.066406 1.2168,-0.191406 q 0.10254,0.731445 0.56738,1.121094 0.47168,0.389648 1.3125,0.389648 0.84766,0 1.25782,-0.341797 0.41015,-0.348633 0.41015,-0.813476 0,-0.416993 -0.3623,-0.65625 -0.25293,-0.164063 -1.25781,-0.416993 -1.35352,-0.341796 -1.87989,-0.58789 -0.51953,-0.25293 -0.79297,-0.69043 -0.2666,-0.444336 -0.2666,-0.977539 0,-0.485352 0.21875,-0.895508 0.22559,-0.416992 0.6084,-0.690429 0.28711,-0.211915 0.7793,-0.355469 0.49902,-0.150391 1.0664,-0.150391 0.8545,0 1.49707,0.246094 0.64942,0.246094 0.95704,0.669922 0.30761,0.416992 0.42382,1.121094 l -1.20312,0.164062 q -0.082,-0.560547 -0.47852,-0.875 -0.38965,-0.314453 -1.10742,-0.314453 -0.84766,0 -1.20996,0.280273 -0.3623,0.280274 -0.3623,0.65625 0,0.239258 0.15039,0.430664 0.15039,0.198243 0.47168,0.328125 0.18457,0.06836 1.08691,0.314454 1.30566,0.348632 1.81836,0.574218 0.51953,0.21875 0.81348,0.642578 0.29394,0.423829 0.29394,1.052735 0,0.615234 -0.3623,1.162109 -0.35547,0.540039 -1.03223,0.84082 -0.67676,0.293946 -1.53125,0.293946 -1.41504,0 -2.16016,-0.587891 -0.73828,-0.58789 -0.94336,-1.743164 z"
       id="flowRoot3718"
       transform="translate(-260.38574,583.48159)"
       aria-label="5 shifts" />
    <g
       id="g3317"
       transform="translate(-50,-3.1261941e-6)"
       style="display:inline">
      <rect
         ry="5"
         rx="4.999999"
         y="602.86218"
         x="80.5"
         height="29"
         width="29"
         id="rect3319"
         style="fill:#ad7fa8;stroke:#000000;stroke-width:0.99999994;stroke-linecap:round;stroke-linejoin:round;stroke-miterlimit:4;stroke-dasharray:none" />
      <path
         style="font-size:14.4849px;line-height:1.25;font-family:'Liberation Sans';-inkscape-font-specification:'Liberation Sans, Normal';text-align:center;text-anchor:middle"
         d="m 263.95965,85.857885 3.98193,-10.368586 h 1.4782 l 4.24362,10.368586 h -1.56307 l -1.20943,-3.140281 h -4.33557 l -1.13871,3.140281 z m 2.99175,-4.257769 h 3.51514 l -1.08213,-2.871518 q -0.49509,-1.30845 -0.73556,-2.150102 -0.19803,0.997251 -0.55874,1.980357 z"
         id="flowRoot3321"
         transform="matrix(1.6568991,0,0,1.6568991,-350.39408,481.72151)"
         aria-label="A&#10; " />
    </g>
    <g
       style="display:inline"
       transform="translate(-20.00015,-3.1261941e-6)"
       id="g3331">
      <rect
         style="fill:#ad7fa8;stroke:#000000;stroke-width:0.99999994;stroke-linecap:round;stroke-linejoin:round;stroke-miterlimit:4;stroke-dasharray:none"
         id="rect3333"
         width="29"
         height="29"
         x="80.5"
         y="602.86218"
         rx="4.999999"
         ry="5" />
      <path
         style="font-size:14.4849px;line-height:1.25;font-family:'Liberation Sans';-inkscape-font-specification:'Liberation Sans, Normal';text-align:center;text-anchor:middle"
         d="M 265.04177,85.857885 V 75.489299 h 3.88999 q 1.18821,0 1.90256,0.318272 0.72141,0.311199 1.12456,0.96896 0.41021,0.650689 0.41021,1.365033 0,0.664834 -0.3607,1.251868 -0.36071,0.587035 -1.0892,0.947743 0.94067,0.275835 1.44283,0.94067 0.50924,0.664834 0.50924,1.57014 0,0.728489 -0.3112,1.35796 -0.30413,0.622398 -0.75678,0.961888 -0.45266,0.339489 -1.13871,0.516307 -0.67898,0.169745 -1.66916,0.169745 z m 1.37211,-6.011799 h 2.24204 q 0.91238,0 1.30845,-0.120236 0.52338,-0.1556 0.78507,-0.516308 0.26877,-0.360708 0.26877,-0.905306 0,-0.516308 -0.24755,-0.905307 -0.24754,-0.396071 -0.70727,-0.537525 -0.45972,-0.148527 -1.57721,-0.148527 h -2.0723 z m 0,4.788221 h 2.58153 q 0.66484,0 0.9336,-0.04951 0.47387,-0.08487 0.79214,-0.282908 0.31828,-0.198036 0.52338,-0.572889 0.20511,-0.381926 0.20511,-0.877016 0,-0.579962 -0.29705,-1.004324 -0.29705,-0.431435 -0.82751,-0.60118 -0.52338,-0.176817 -1.51356,-0.176817 h -2.39764 z"
         id="flowRoot3335"
         transform="matrix(1.6568991,0,0,1.6568991,-350.39408,481.72151)"
         aria-label="B&#10; " />
    </g>
    <g
       style="display:inline"
       transform="translate(9.99985,-3.1261941e-6)"
       id="g3345">
      <rect
         style="fill:#ad7fa8;stroke:#000000;stroke-width:0.99999994;stroke-linecap:round;stroke-linejoin:round;stroke-miterlimit:4;stroke-dasharray:none"
         id="rect3347"
         width="29"
         height="29"
         x="80.5"
         y="602.86218"
         rx="4.999999"
         ry="5" />
      <path
         style="font-size:14.4849px;line-height:1.25;font-family:'Liberation Sans';-inkscape-font-specification:'Liberation Sans, Normal';text-align:center;text-anchor:middle"
         d="m 272.0968,82.222515 1.3721,0.346562 q -0.43144,1.690377 -1.556,2.581538 -1.11748,0.884088 -2.73713,0.884088 -1.67623,0 -2.73007,-0.67898 -1.04676,-0.686052 -1.59843,-1.980358 -0.5446,-1.294305 -0.5446,-2.779573 0,-1.619649 0.61533,-2.822009 0.6224,-1.209433 1.7611,-1.831831 1.14578,-0.629471 2.51789,-0.629471 1.55599,0 2.6169,0.792143 1.0609,0.792143 1.47819,2.227903 l -1.35088,0.318271 q -0.36071,-1.131633 -1.04676,-1.64794 -0.68606,-0.516307 -1.72574,-0.516307 -1.19529,0 -2.00158,0.572889 -0.79922,0.572889 -1.12456,1.541849 -0.32535,0.961888 -0.32535,1.987431 0,1.322595 0.38193,2.312774 0.389,0.983106 1.20236,1.471123 0.81336,0.488017 1.7611,0.488017 1.15286,0 1.95207,-0.664835 0.79922,-0.664834 1.08213,-1.973284 z"
         id="flowRoot3349"
         transform="matrix(1.6568991,0,0,1.6568991,-350.39408,481.72151)"
         aria-label="C&#10; " />
    </g>
    <g
       id="g3359"
       transform="translate(39.9997,-3.1261941e-6)"
       style="display:inline">
      <rect
         ry="5"
         rx="4.999999"
         y="602.86218"
         x="80.5"
         height="29"
         width="29"
         id="rect3361"
         style="fill:#ad7fa8;stroke:#000000;stroke-width:0.99999994;stroke-linecap:round;stroke-linejoin:round;stroke-miterlimit:4;stroke-dasharray:none" />
      <path
         style="font-size:14.4849px;line-height:1.25;font-family:'Liberation Sans';-inkscape-font-specification:'Liberation Sans, Normal';text-align:center;text-anchor:middle"
         d="M 264.69875,85.857885 V 75.489299 h 3.57171 q 1.20943,0 1.84598,0.148527 0.89116,0.205108 1.52063,0.742634 0.82043,0.693125 1.22358,1.775249 0.41021,1.075051 0.41021,2.461301 0,1.181142 -0.27583,2.093521 -0.27584,0.912379 -0.70727,1.513559 -0.43144,0.594107 -0.94774,0.94067 -0.50924,0.33949 -1.23773,0.516307 -0.72141,0.176818 -1.66208,0.176818 z m 1.3721,-1.223578 h 2.21376 q 1.02554,0 1.6055,-0.190963 0.58704,-0.190963 0.9336,-0.537526 0.48801,-0.488016 0.75678,-1.30845 0.27583,-0.827507 0.27583,-2.001576 0,-1.626722 -0.53752,-2.496665 -0.53046,-0.877015 -1.29431,-1.174069 -0.55167,-0.212181 -1.77525,-0.212181 h -2.17839 z"
         id="flowRoot3363"
         transform="matrix(1.6568991,0,0,1.6568991,-350.39408,481.72151)"
         aria-label="D&#10; " />
    </g>
    <g
       id="g3373"
       transform="translate(69.99985,-3.1261941e-6)"
       style="display:inline">
      <rect
         ry="5"
         rx="4.999999"
         y="602.86218"
         x="80.5"
         height="29"
         width="29"
         id="rect3375"
         style="fill:#ad7fa8;stroke:#000000;stroke-width:0.99999994;stroke-linecap:round;stroke-linejoin:round;stroke-miterlimit:4;stroke-dasharray:none" />
      <path
         style="font-size:14.4849px;line-height:1.25;font-family:'Liberation Sans';-inkscape-font-specification:'Liberation Sans, Normal';text-align:center;text-anchor:middle"
         d="M 265.12664,85.857885 V 75.489299 h 7.49707 v 1.223578 h -6.12496 v 3.175645 h 5.73596 v 1.216505 h -5.73596 v 3.52928 h 6.36543 v 1.223578 z"
         id="flowRoot3377"
         transform="matrix(1.6568991,0,0,1.6568991,-350.39408,481.72151)"
         aria-label="E&#10; " />
    </g>
    <g
       style="display:inline"
       transform="translate(125,-3.1261941e-6)"
       id="g3387">
      <rect
         style="fill:#fce94f;stroke:#000000;stroke-width:0.99999994;stroke-linecap:round;stroke-linejoin:round;stroke-miterlimit:4;stroke-dasharray:none"
         id="rect3389"
         width="29"
         height="29"
         x="80.5"
         y="602.86218"
         rx="4.999999"
         ry="5" />
      <path
         style="font-size:14.4849px;line-height:1.25;font-family:'Liberation Sans';-inkscape-font-specification:'Liberation Sans, Normal';text-align:center;text-anchor:middle"
         d="M 265.57576,85.857885 V 75.489299 h 6.99491 v 1.223578 h -5.6228 v 3.211008 h 4.86602 v 1.223578 h -4.86602 v 4.710422 z"
         id="flowRoot3391"
         transform="matrix(1.6568991,0,0,1.6568991,-350.39408,481.72151)"
         aria-label="F&#10; " />
    </g>
    <g
       style="display:inline"
       transform="translate(155.00015,-3.1261941e-6)"
       id="g3401">
      <rect
         style="fill:#fce94f;stroke:#000000;stroke-width:0.99999994;stroke-linecap:round;stroke-linejoin:round;stroke-miterlimit:4;stroke-dasharray:none"
         id="rect3403"
         width="29"
         height="29"
         x="80.5"
         y="602.86218"
         rx="4.999999"
         ry="5" />
      <path
         style="font-size:14.4849px;line-height:1.25;font-family:'Liberation Sans';-inkscape-font-specification:'Liberation Sans, Normal';text-align:center;text-anchor:middle"
         d="m 269.14748,81.791079 v -1.216505 l 4.39215,-0.0071 v 3.847552 q -1.0114,0.806289 -2.08645,1.216505 -1.07505,0.403145 -2.20669,0.403145 -1.5277,0 -2.77957,-0.650689 -1.24479,-0.657762 -1.88134,-1.895485 -0.63654,-1.237724 -0.63654,-2.765428 0,-1.513559 0.62947,-2.822009 0.63654,-1.315524 1.82476,-1.952067 1.18821,-0.636544 2.73713,-0.636544 1.12456,0 2.02987,0.367781 0.91238,0.360708 1.42869,1.011397 0.5163,0.650689 0.78507,1.697449 l -1.23773,0.33949 q -0.2334,-0.792143 -0.57996,-1.244796 -0.34656,-0.452653 -0.99018,-0.721416 -0.64361,-0.275835 -1.42868,-0.275835 -0.94067,0 -1.62673,0.28998 -0.68605,0.282909 -1.11041,0.749707 -0.41729,0.466799 -0.65069,1.025542 -0.39607,0.961888 -0.39607,2.086449 0,1.38625 0.47387,2.319847 0.48094,0.933597 1.39332,1.38625 0.91238,0.452653 1.93793,0.452653 0.89116,0 1.73988,-0.33949 0.84873,-0.346562 1.28723,-0.735561 v -1.930849 z"
         id="flowRoot3405"
         transform="matrix(1.6568991,0,0,1.6568991,-350.39408,481.72151)"
         aria-label="G&#10; " />
    </g>
    <g
       id="g3415"
       transform="translate(185,-3.1261941e-6)"
       style="display:inline">
      <rect
         ry="5"
         rx="4.999999"
         y="602.86218"
         x="80.5"
         height="29"
         width="29"
         id="rect3417"
         style="fill:#fce94f;stroke:#000000;stroke-width:0.99999994;stroke-linecap:round;stroke-linejoin:round;stroke-miterlimit:4;stroke-dasharray:none" />
      <path
         style="font-size:14.4849px;line-height:1.25;font-family:'Liberation Sans';-inkscape-font-specification:'Liberation Sans, Normal';text-align:center;text-anchor:middle"
         d="M 264.74118,85.857885 V 75.489299 h 1.37211 v 4.257769 h 5.3894 v -4.257769 h 1.3721 v 10.368586 h -1.3721 v -4.887239 h -5.3894 v 4.887239 z"
         id="flowRoot3419"
         transform="matrix(1.6568991,0,0,1.6568991,-350.39408,481.72151)"
         aria-label="H&#10; " />
    </g>
    <g
       id="g3429"
       transform="translate(215.00015,-3.1261941e-6)"
       style="display:inline">
      <rect
         ry="5"
         rx="4.999999"
         y="602.86218"
         x="80.5"
         height="29"
         width="29"
         id="rect3431"
         style="fill:#fce94f;stroke:#000000;stroke-width:0.99999994;stroke-linecap:round;stroke-linejoin:round;stroke-miterlimit:4;stroke-dasharray:none" />
      <path
         style="font-size:14.4849px;line-height:1.25;font-family:'Liberation Sans';-inkscape-font-specification:'Liberation Sans, Normal';text-align:center;text-anchor:middle"
         d="M 268.15023,85.857885 V 75.489299 h 1.3721 v 10.368586 z"
         id="flowRoot3433"
         transform="matrix(1.6568991,0,0,1.6568991,-350.39408,481.72151)"
         aria-label="I&#10; " />
    </g>
    <g
       style="display:inline"
       transform="translate(299.99956,-3.1261941e-6)"
       id="g3443">
      <rect
         style="fill:#729fcf;stroke:#000000;stroke-width:0.99999994;stroke-linecap:round;stroke-linejoin:round;stroke-miterlimit:4;stroke-dasharray:none"
         id="rect3445"
         width="29"
         height="29"
         x="80.5"
         y="602.86218"
         rx="4.999999"
         ry="5" />
      <path
         style="font-size:14.4849px;line-height:1.25;font-family:'Liberation Sans';-inkscape-font-specification:'Liberation Sans, Normal';text-align:center;text-anchor:middle"
         d="m 265.60759,82.91564 1.23772,-0.169745 q 0.0495,1.188214 0.44558,1.626722 0.39607,0.438508 1.09627,0.438508 0.51631,0 0.89116,-0.2334 0.37486,-0.240472 0.51631,-0.643616 0.14145,-0.410217 0.14145,-1.301378 v -7.143432 h 1.37211 v 7.065633 q 0,1.301377 -0.31827,2.015721 -0.3112,0.714343 -0.99725,1.089196 -0.67898,0.374854 -1.59844,0.374854 -1.36503,0 -2.09352,-0.785071 -0.72141,-0.78507 -0.69312,-2.333992 z"
         id="flowRoot3447"
         transform="matrix(1.6568991,0,0,1.6568991,-350.39408,481.72151)"
         aria-label="J&#10; " />
    </g>
    <flowRoot
       xml:space="preserve"
       id="flowRoot3457"
       style="font-style:normal;font-variant:normal;font-weight:normal;font-stretch:normal;line-height:0.01%;font-family:serif;-inkscape-font-specification:Serif;letter-spacing:0px;word-spacing:0px;fill:#000000;fill-opacity:1;stroke:none"><flowRegion
         id="flowRegion3459"
         style="font-family:serif"><rect
           id="rect3461"
           width="9.885932"
           height="25.095057"
           x="172.62358"
           y="301.90115" /></flowRegion><flowPara
         id="flowPara3463"
         style="font-size:20px;line-height:1.25;font-family:serif"> </flowPara></flowRoot>
    <path
       style="font-size:14px;line-height:1.25;font-family:'Liberation Sans';-inkscape-font-specification:'Liberation Sans, Normal';text-align:center;text-anchor:middle"
       d="m 517.73633,71.491421 v -2.399414 h -4.34766 v -1.127929 l 4.57324,-6.494141 h 1.00489 v 6.494141 h 1.35351 v 1.127929 h -1.35351 v 2.399414 z m 0,-3.527343 v -4.518555 l -3.1377,4.518555 z m 7.58105,1.360351 1.2168,-0.191406 q 0.10254,0.731445 0.56738,1.121094 0.47168,0.389648 1.3125,0.389648 0.84766,0 1.25781,-0.341797 0.41016,-0.348633 0.41016,-0.813476 0,-0.416993 -0.3623,-0.65625 -0.25293,-0.164063 -1.25782,-0.416993 -1.35351,-0.341796 -1.87988,-0.58789 -0.51953,-0.25293 -0.79297,-0.69043 -0.2666,-0.444336 -0.2666,-0.977539 0,-0.485352 0.21875,-0.895508 0.22559,-0.416992 0.6084,-0.690429 0.28711,-0.211915 0.7793,-0.355469 0.49902,-0.150391 1.0664,-0.150391 0.85449,0 1.49707,0.246094 0.64942,0.246094 0.95703,0.669922 0.30762,0.416992 0.42383,1.121094 l -1.20312,0.164062 q -0.082,-0.560547 -0.47852,-0.875 -0.38965,-0.314453 -1.10742,-0.314453 -0.84766,0 -1.20996,0.280273 -0.36231,0.280274 -0.36231,0.65625 0,0.239258 0.15039,0.430664 0.1504,0.198243 0.47168,0.328125 0.18457,0.06836 1.08692,0.314454 1.30566,0.348632 1.81836,0.574218 0.51953,0.21875 0.81347,0.642578 0.29395,0.423829 0.29395,1.052735 0,0.615234 -0.36231,1.162109 -0.35546,0.540039 -1.03222,0.84082 -0.67676,0.293946 -1.53125,0.293946 -1.41504,0 -2.16016,-0.587891 -0.73828,-0.58789 -0.94336,-1.743164 z m 7.49219,2.166992 V 61.469937 h 1.23047 v 3.595703 q 0.86133,-0.998047 2.17383,-0.998047 0.80664,0 1.40136,0.321289 0.59473,0.314453 0.84766,0.875 0.25977,0.560547 0.25977,1.626953 v 4.600586 h -1.23047 v -4.600586 q 0,-0.922851 -0.40332,-1.339843 -0.39649,-0.423829 -1.12793,-0.423829 -0.54688,0 -1.03223,0.28711 -0.47851,0.280273 -0.68359,0.765625 -0.20508,0.485351 -0.20508,1.339844 v 3.971679 z m 7.79297,-8.606445 v -1.415039 h 1.23047 v 1.415039 z m 0,8.606445 v -7.259765 h 1.23047 v 7.259765 z m 3.39746,0 v -6.302734 h -1.08691 V 64.231656 H 544 v -0.772461 q 0,-0.731446 0.12988,-1.086914 0.17774,-0.478516 0.62207,-0.772461 0.45117,-0.300782 1.25782,-0.300782 0.51953,0 1.14843,0.123047 l -0.18457,1.073243 q -0.38281,-0.06836 -0.72461,-0.06836 -0.56054,0 -0.79297,0.239258 -0.23242,0.239258 -0.23242,0.895508 v 0.669922 h 1.41504 v 0.957031 h -1.41504 v 6.302734 z m 6.28223,-1.100586 0.17773,1.086914 q -0.51953,0.109375 -0.92969,0.109375 -0.66992,0 -1.03906,-0.211914 -0.36914,-0.211914 -0.51953,-0.553711 -0.15039,-0.348632 -0.15039,-1.456054 v -4.176758 h -0.90234 v -0.957031 h 0.90234 v -1.797852 l 1.22363,-0.738281 v 2.536133 h 1.23731 v 0.957031 h -1.23731 v 4.245117 q 0,0.526367 0.0615,0.676758 0.0684,0.150391 0.21191,0.239258 0.15039,0.08887 0.42383,0.08887 0.20508,0 0.54004,-0.04785 z m 0.71093,-1.066406 1.2168,-0.191406 q 0.10254,0.731445 0.56738,1.121094 0.47168,0.389648 1.3125,0.389648 0.84766,0 1.25782,-0.341797 0.41015,-0.348633 0.41015,-0.813476 0,-0.416993 -0.3623,-0.65625 -0.25293,-0.164063 -1.25781,-0.416993 -1.35352,-0.341796 -1.87989,-0.58789 -0.51953,-0.25293 -0.79297,-0.69043 -0.2666,-0.444336 -0.2666,-0.977539 0,-0.485352 0.21875,-0.895508 0.22559,-0.416992 0.6084,-0.690429 0.28711,-0.211915 0.7793,-0.355469 0.49902,-0.150391 1.0664,-0.150391 0.8545,0 1.49707,0.246094 0.64942,0.246094 0.95704,0.669922 0.30761,0.416992 0.42382,1.121094 l -1.20312,0.164062 q -0.082,-0.560547 -0.47852,-0.875 -0.38965,-0.314453 -1.10742,-0.314453 -0.84766,0 -1.20996,0.280273 -0.3623,0.280274 -0.3623,0.65625 0,0.239258 0.15039,0.430664 0.15039,0.198243 0.47168,0.328125 0.18457,0.06836 1.08691,0.314454 1.30566,0.348632 1.81836,0.574218 0.51953,0.21875 0.81348,0.642578 0.29394,0.423829 0.29394,1.052735 0,0.615234 -0.3623,1.162109 -0.35547,0.540039 -1.03223,0.84082 -0.67676,0.293946 -1.53125,0.293946 -1.41504,0 -2.16016,-0.587891 -0.73828,-0.58789 -0.94336,-1.743164 z"
       id="flowRoot3465"
       transform="translate(-270.38574,583.48159)"
       aria-label="4 shifts" />
    <path
       style="font-size:14px;line-height:1.25;font-family:'Liberation Sans';-inkscape-font-specification:'Liberation Sans, Normal';text-align:center;text-anchor:middle"
       d="m 521.92676,71.491421 h -1.23047 v -7.84082 q -0.44434,0.423828 -1.16895,0.847656 -0.71777,0.423828 -1.29199,0.635742 v -1.189453 q 1.03223,-0.485351 1.80469,-1.175781 0.77246,-0.69043 1.09375,-1.339844 h 0.79297 z m 6.89062,-2.166992 1.2168,-0.191406 q 0.10254,0.731445 0.56738,1.121094 0.47168,0.389648 1.3125,0.389648 0.84766,0 1.25781,-0.341797 0.41016,-0.348633 0.41016,-0.813476 0,-0.416993 -0.3623,-0.65625 -0.25293,-0.164063 -1.25782,-0.416993 -1.35351,-0.341796 -1.87988,-0.58789 -0.51953,-0.25293 -0.79297,-0.69043 -0.2666,-0.444336 -0.2666,-0.977539 0,-0.485352 0.21875,-0.895508 0.22559,-0.416992 0.6084,-0.690429 0.28711,-0.211915 0.7793,-0.355469 0.49902,-0.150391 1.0664,-0.150391 0.85449,0 1.49707,0.246094 0.64942,0.246094 0.95703,0.669922 0.30762,0.416992 0.42383,1.121094 l -1.20312,0.164062 q -0.082,-0.560547 -0.47852,-0.875 -0.38965,-0.314453 -1.10742,-0.314453 -0.84766,0 -1.20996,0.280273 -0.36231,0.280274 -0.36231,0.65625 0,0.239258 0.15039,0.430664 0.1504,0.198243 0.47168,0.328125 0.18457,0.06836 1.08692,0.314454 1.30566,0.348632 1.81836,0.574218 0.51953,0.21875 0.81347,0.642578 0.29395,0.423829 0.29395,1.052735 0,0.615234 -0.36231,1.162109 -0.35546,0.540039 -1.03222,0.84082 -0.67676,0.293946 -1.53125,0.293946 -1.41504,0 -2.16016,-0.587891 -0.73828,-0.58789 -0.94336,-1.743164 z m 7.49219,2.166992 V 61.469937 h 1.23047 v 3.595703 q 0.86133,-0.998047 2.17383,-0.998047 0.80664,0 1.40136,0.321289 0.59473,0.314453 0.84766,0.875 0.25977,0.560547 0.25977,1.626953 v 4.600586 h -1.23047 v -4.600586 q 0,-0.922851 -0.40332,-1.339843 -0.39649,-0.423829 -1.12793,-0.423829 -0.54688,0 -1.03223,0.28711 -0.47851,0.280273 -0.68359,0.765625 -0.20508,0.485351 -0.20508,1.339844 v 3.971679 z m 7.79297,-8.606445 v -1.415039 h 1.23047 v 1.415039 z m 0,8.606445 v -7.259765 h 1.23047 v 7.259765 z m 3.39746,0 v -6.302734 h -1.08691 V 64.231656 H 547.5 v -0.772461 q 0,-0.731446 0.12988,-1.086914 0.17774,-0.478516 0.62207,-0.772461 0.45117,-0.300782 1.25782,-0.300782 0.51953,0 1.14843,0.123047 l -0.18457,1.073243 q -0.38281,-0.06836 -0.72461,-0.06836 -0.56054,0 -0.79297,0.239258 -0.23242,0.239258 -0.23242,0.895508 v 0.669922 h 1.41504 v 0.957031 h -1.41504 v 6.302734 z m 6.28223,-1.100586 0.17773,1.086914 q -0.51953,0.109375 -0.92969,0.109375 -0.66992,0 -1.03906,-0.211914 -0.36914,-0.211914 -0.51953,-0.553711 -0.15039,-0.348632 -0.15039,-1.456054 v -4.176758 h -0.90234 v -0.957031 h 0.90234 v -1.797852 l 1.22363,-0.738281 v 2.536133 h 1.23731 v 0.957031 h -1.23731 v 4.245117 q 0,0.526367 0.0615,0.676758 0.0684,0.150391 0.21191,0.239258 0.15039,0.08887 0.42383,0.08887 0.20508,0 0.54004,-0.04785 z"
       id="flowRoot3487"
       transform="translate(-140.38618,583.48159)"
       aria-label="1 shift" />
    <path
       style="font-weight:bold;font-size:14px;line-height:1.25;font-family:'Liberation Sans';-inkscape-font-specification:'\'Liberation Sans, Normal\' Bold';text-align:center;text-anchor:middle"
       d="m 316.4624,136.38791 v -10.02149 h 7.43067 v 1.69531 h -5.40723 v 2.22168 h 5.03125 v 1.68848 h -5.03125 v 2.72754 h 5.59863 v 1.68848 z m 9.18067,-7.25977 h 1.7705 v 0.99121 q 0.9502,-1.15527 2.2627,-1.15527 0.69727,0 1.20996,0.28711 0.5127,0.28711 0.84082,0.86816 0.47852,-0.58105 1.03223,-0.86816 0.55371,-0.28711 1.18261,-0.28711 0.79981,0 1.35352,0.32812 0.55371,0.32129 0.82715,0.9502 0.19824,0.46484 0.19824,1.5039 v 4.64161 h -1.9209 v -4.14942 q 0,-1.08008 -0.19824,-1.39453 -0.2666,-0.41016 -0.82031,-0.41016 -0.40332,0 -0.75879,0.2461 -0.35547,0.24609 -0.5127,0.72461 -0.15722,0.47168 -0.15722,1.49707 v 3.48633 h -1.9209 v -3.97852 q 0,-1.05957 -0.10254,-1.36719 -0.10254,-0.30761 -0.32129,-0.45801 -0.21191,-0.15039 -0.58105,-0.15039 -0.44434,0 -0.79981,0.23926 -0.35547,0.23926 -0.51269,0.69043 -0.1504,0.45117 -0.1504,1.49707 v 3.52735 h -1.92089 z m 12.53711,0 h 1.79101 v 1.06641 q 0.34863,-0.54688 0.94336,-0.88868 0.59473,-0.34179 1.31934,-0.34179 1.26465,0 2.14648,0.99121 0.88184,0.99121 0.88184,2.76172 0,1.81836 -0.88867,2.83008 -0.88868,1.00488 -2.15333,1.00488 -0.60156,0 -1.09375,-0.23926 -0.48535,-0.23926 -1.02539,-0.82031 v 3.65722 h -1.92089 z m 1.90039,3.50684 q 0,1.22363 0.48535,1.81152 0.48535,0.58105 1.18262,0.58105 0.66992,0 1.11425,-0.5332 0.44434,-0.54004 0.44434,-1.76367 0,-1.1416 -0.45801,-1.69531 -0.45801,-0.55371 -1.13476,-0.55371 -0.70411,0 -1.16895,0.54687 -0.46484,0.54004 -0.46484,1.60645 z m 6.70605,3.75293 v -10.02149 h 1.9209 v 10.02149 z m 3.44531,-3.73243 q 0,-0.95703 0.47168,-1.85254 0.47168,-0.8955 1.33301,-1.36718 0.86817,-0.47168 1.93457,-0.47168 1.64746,0 2.7002,1.07324 1.05273,1.06641 1.05273,2.7002 0,1.64746 -1.06641,2.73437 -1.05957,1.08008 -2.67285,1.08008 -0.99804,0 -1.90722,-0.45117 -0.90235,-0.45118 -1.37403,-1.31934 -0.47168,-0.875 -0.47168,-2.12598 z m 1.96875,0.10254 q 0,1.08008 0.5127,1.6543 0.51269,0.57422 1.26465,0.57422 0.75195,0 1.25781,-0.57422 0.5127,-0.57422 0.5127,-1.66797 0,-1.06641 -0.5127,-1.64062 -0.50586,-0.57422 -1.25781,-0.57422 -0.75196,0 -1.26465,0.57422 -0.5127,0.57421 -0.5127,1.65429 z m 6.11817,-3.62988 h 2.04394 l 1.73633,5.1543 1.69531,-5.1543 h 1.98926 l -2.56348,6.98633 -0.458,1.26465 q -0.25293,0.63574 -0.48535,0.9707 -0.22559,0.33496 -0.52637,0.54004 -0.29395,0.21191 -0.73145,0.32812 -0.43066,0.11621 -0.97754,0.11621 -0.55371,0 -1.08691,-0.11621 l -0.1709,-1.5039 q 0.45117,0.0889 0.81348,0.0889 0.66992,0 0.99121,-0.39648 0.32129,-0.38965 0.49219,-0.99805 z m 12.89941,4.94922 1.91406,0.32129 q -0.36914,1.05273 -1.16894,1.60644 -0.79297,0.54688 -1.98926,0.54688 -1.89355,0 -2.80273,-1.23731 -0.71778,-0.99121 -0.71778,-2.50195 0,-1.80469 0.94336,-2.82324 0.94336,-1.02539 2.38574,-1.02539 1.62012,0 2.55665,1.07324 0.93652,1.06641 0.8955,3.27441 h -4.8125 q 0.0205,0.8545 0.46485,1.33301 0.44433,0.47168 1.10742,0.47168 0.45117,0 0.75879,-0.24609 0.30762,-0.2461 0.46484,-0.79297 z m 0.10938,-1.94141 q -0.0205,-0.83398 -0.43067,-1.26465 -0.41015,-0.4375 -0.99804,-0.4375 -0.62891,0 -1.03907,0.45801 -0.41015,0.45801 -0.40332,1.24414 z m 7.67675,1.94141 1.91407,0.32129 q -0.36914,1.05273 -1.16895,1.60644 -0.79297,0.54688 -1.98926,0.54688 -1.89355,0 -2.80273,-1.23731 -0.71777,-0.99121 -0.71777,-2.50195 0,-1.80469 0.94336,-2.82324 0.94335,-1.02539 2.38574,-1.02539 1.62011,0 2.55664,1.07324 0.93652,1.06641 0.89551,3.27441 h -4.8125 q 0.0205,0.8545 0.46484,1.33301 0.44434,0.47168 1.10742,0.47168 0.45117,0 0.75879,-0.24609 0.30762,-0.2461 0.46484,-0.79297 z m 0.10938,-1.94141 q -0.0205,-0.83398 -0.43066,-1.26465 -0.41016,-0.4375 -0.99805,-0.4375 -0.62891,0 -1.03906,0.45801 -0.41016,0.45801 -0.40332,1.24414 z m 9.75488,4.25196 v -4.21778 l -3.6709,-5.80371 h 2.37207 l 2.3584,3.96485 2.31055,-3.96485 h 2.33105 l -3.68457,5.81738 v 4.20411 z"
       id="flowRoot3802"
       transform="translate(-90.000167,438.58511)"
       aria-label="Employee Y" />
    <path
       style="font-weight:bold;font-size:14px;line-height:1.25;font-family:'Liberation Sans';-inkscape-font-specification:'\'Liberation Sans, Normal\' Bold';text-align:center;text-anchor:middle"
       d="m 476.729,136.38791 v -10.02149 h 7.43067 v 1.69531 h -5.40723 v 2.22168 h 5.03125 v 1.68848 h -5.03125 v 2.72754 h 5.59863 v 1.68848 z m 9.18067,-7.25977 h 1.77051 v 0.99121 q 0.95019,-1.15527 2.26269,-1.15527 0.69727,0 1.20996,0.28711 0.5127,0.28711 0.84082,0.86816 0.47852,-0.58105 1.03223,-0.86816 0.55371,-0.28711 1.18262,-0.28711 0.7998,0 1.35351,0.32812 0.55371,0.32129 0.82715,0.9502 0.19824,0.46484 0.19824,1.5039 v 4.64161 h -1.9209 v -4.14942 q 0,-1.08008 -0.19824,-1.39453 -0.2666,-0.41016 -0.82031,-0.41016 -0.40332,0 -0.75879,0.2461 -0.35547,0.24609 -0.5127,0.72461 -0.15722,0.47168 -0.15722,1.49707 v 3.48633 h -1.9209 v -3.97852 q 0,-1.05957 -0.10254,-1.36719 -0.10254,-0.30761 -0.32129,-0.45801 -0.21191,-0.15039 -0.58105,-0.15039 -0.44434,0 -0.79981,0.23926 -0.35547,0.23926 -0.51269,0.69043 -0.15039,0.45117 -0.15039,1.49707 v 3.52735 h -1.9209 z m 12.53711,0 h 1.79101 v 1.06641 q 0.34864,-0.54688 0.94336,-0.88868 0.59473,-0.34179 1.31934,-0.34179 1.26465,0 2.14648,0.99121 0.88184,0.99121 0.88184,2.76172 0,1.81836 -0.88867,2.83008 -0.88868,1.00488 -2.15332,1.00488 -0.60157,0 -1.09375,-0.23926 -0.48536,-0.23926 -1.02539,-0.82031 v 3.65722 h -1.9209 z m 1.90039,3.50684 q 0,1.22363 0.48535,1.81152 0.48535,0.58105 1.18262,0.58105 0.66992,0 1.11425,-0.5332 0.44434,-0.54004 0.44434,-1.76367 0,-1.1416 -0.45801,-1.69531 -0.45801,-0.55371 -1.13476,-0.55371 -0.7041,0 -1.16895,0.54687 -0.46484,0.54004 -0.46484,1.60645 z m 6.70605,3.75293 v -10.02149 h 1.9209 v 10.02149 z m 3.44532,-3.73243 q 0,-0.95703 0.47167,-1.85254 0.47168,-0.8955 1.33301,-1.36718 0.86817,-0.47168 1.93457,-0.47168 1.64746,0 2.7002,1.07324 1.05273,1.06641 1.05273,2.7002 0,1.64746 -1.0664,2.73437 -1.05957,1.08008 -2.67286,1.08008 -0.99804,0 -1.90722,-0.45117 -0.90235,-0.45118 -1.37403,-1.31934 -0.47167,-0.875 -0.47167,-2.12598 z m 1.96875,0.10254 q 0,1.08008 0.51269,1.6543 0.5127,0.57422 1.26465,0.57422 0.75195,0 1.25781,-0.57422 0.5127,-0.57422 0.5127,-1.66797 0,-1.06641 -0.5127,-1.64062 -0.50586,-0.57422 -1.25781,-0.57422 -0.75195,0 -1.26465,0.57422 -0.51269,0.57421 -0.51269,1.65429 z m 6.11816,-3.62988 h 2.04394 l 1.73633,5.1543 1.69532,-5.1543 h 1.98925 l -2.56347,6.98633 -0.45801,1.26465 q -0.25293,0.63574 -0.48535,0.9707 -0.22559,0.33496 -0.52637,0.54004 -0.29395,0.21191 -0.73145,0.32812 -0.43066,0.11621 -0.97753,0.11621 -0.55372,0 -1.08692,-0.11621 l -0.1709,-1.5039 q 0.45117,0.0889 0.81348,0.0889 0.66992,0 0.99121,-0.39648 0.32129,-0.38965 0.49219,-0.99805 z m 12.89941,4.94922 1.91407,0.32129 q -0.36914,1.05273 -1.16895,1.60644 -0.79297,0.54688 -1.98926,0.54688 -1.89355,0 -2.80273,-1.23731 -0.71778,-0.99121 -0.71778,-2.50195 0,-1.80469 0.94336,-2.82324 0.94336,-1.02539 2.38575,-1.02539 1.62011,0 2.55664,1.07324 0.93652,1.06641 0.8955,3.27441 h -4.8125 q 0.0205,0.8545 0.46485,1.33301 0.44433,0.47168 1.10742,0.47168 0.45117,0 0.75879,-0.24609 0.30762,-0.2461 0.46484,-0.79297 z m 0.10938,-1.94141 q -0.0205,-0.83398 -0.43067,-1.26465 -0.41015,-0.4375 -0.99804,-0.4375 -0.62891,0 -1.03907,0.45801 -0.41015,0.45801 -0.40332,1.24414 z m 7.67676,1.94141 1.91406,0.32129 q -0.36914,1.05273 -1.16895,1.60644 -0.79297,0.54688 -1.98925,0.54688 -1.89356,0 -2.80274,-1.23731 -0.71777,-0.99121 -0.71777,-2.50195 0,-1.80469 0.94336,-2.82324 0.94336,-1.02539 2.38574,-1.02539 1.62012,0 2.55664,1.07324 0.93652,1.06641 0.89551,3.27441 h -4.8125 q 0.0205,0.8545 0.46484,1.33301 0.44434,0.47168 1.10742,0.47168 0.45118,0 0.75879,-0.24609 0.30762,-0.2461 0.46485,-0.79297 z m 0.10937,-1.94141 q -0.0205,-0.83398 -0.43066,-1.26465 -0.41016,-0.4375 -0.99805,-0.4375 -0.62891,0 -1.03906,0.45801 -0.41016,0.45801 -0.40332,1.24414 z m 6.50781,4.25196 v -1.8252 l 5.26368,-6.50098 h -4.66895 v -1.69531 h 7.33496 v 1.57227 l -5.48926,6.76074 h 5.70118 v 1.68848 z"
       id="flowRoot3810"
       transform="translate(-120.00061,438.58511)"
       aria-label="Employee Z" />
    <path
       style="font-size:16px;line-height:1.25;font-family:'Liberation Sans';-inkscape-font-specification:'Liberation Sans, Normal';text-align:center;text-anchor:middle"
       d="m 419.82031,44.509727 1.42969,-0.125 q 0.10156,0.859375 0.46875,1.414063 0.375,0.546875 1.15625,0.890625 0.78125,0.335937 1.75781,0.335937 0.86719,0 1.53125,-0.257812 0.66406,-0.257813 0.98438,-0.703125 0.32812,-0.453125 0.32812,-0.984375 0,-0.539063 -0.3125,-0.9375 -0.3125,-0.40625 -1.03125,-0.679688 -0.46094,-0.179687 -2.03906,-0.554687 -1.57813,-0.382813 -2.21094,-0.71875 -0.82031,-0.429688 -1.22656,-1.0625 -0.39844,-0.640625 -0.39844,-1.429688 0,-0.867187 0.49219,-1.617187 0.49219,-0.757813 1.4375,-1.148438 0.94531,-0.390625 2.10156,-0.390625 1.27344,0 2.24219,0.414063 0.97656,0.40625 1.5,1.203125 0.52344,0.796875 0.5625,1.804687 l -1.45313,0.109375 q -0.11718,-1.085937 -0.79687,-1.640625 -0.67188,-0.554687 -1.99219,-0.554687 -1.375,0 -2.00781,0.507812 -0.625,0.5 -0.625,1.210938 0,0.617187 0.44531,1.015625 0.4375,0.398437 2.28125,0.820312 1.85156,0.414063 2.53906,0.726563 1,0.460937 1.47657,1.171875 0.47656,0.703125 0.47656,1.625 0,0.914062 -0.52344,1.726562 -0.52344,0.804688 -1.50781,1.257813 -0.97656,0.445312 -2.20313,0.445312 -1.55468,0 -2.60937,-0.453125 -1.04688,-0.453125 -1.64844,-1.359375 -0.59375,-0.914062 -0.625,-2.0625 z m 16.42188,0.640625 1.38281,0.179688 q -0.22656,1.429687 -1.16406,2.242187 -0.92969,0.804688 -2.28907,0.804688 -1.70312,0 -2.74218,-1.109375 -1.03125,-1.117188 -1.03125,-3.195313 0,-1.34375 0.44531,-2.351562 0.44531,-1.007813 1.35156,-1.507813 0.91406,-0.507812 1.98438,-0.507812 1.35156,0 2.21093,0.6875 0.85938,0.679687 1.10157,1.9375 l -1.36719,0.210937 q -0.19531,-0.835937 -0.69531,-1.257812 -0.49219,-0.421875 -1.19532,-0.421875 -1.0625,0 -1.72656,0.765625 -0.66406,0.757812 -0.66406,2.40625 0,1.671875 0.64062,2.429687 0.64063,0.757813 1.67188,0.757813 0.82812,0 1.38281,-0.507813 0.55469,-0.507812 0.70313,-1.5625 z m 2.0625,-1.109375 q 0,-2.304687 1.28125,-3.414062 1.07031,-0.921875 2.60937,-0.921875 1.71094,0 2.79688,1.125 1.08593,1.117187 1.08593,3.09375 0,1.601562 -0.48437,2.523437 -0.47656,0.914063 -1.39844,1.421875 -0.91406,0.507813 -2,0.507813 -1.74219,0 -2.82031,-1.117188 -1.07031,-1.117187 -1.07031,-3.21875 z m 1.44531,0 q 0,1.59375 0.69531,2.390625 0.69531,0.789063 1.75,0.789063 1.04688,0 1.74219,-0.796875 0.69531,-0.796875 0.69531,-2.429688 0,-1.539062 -0.70312,-2.328125 -0.69532,-0.796875 -1.73438,-0.796875 -1.05469,0 -1.75,0.789063 -0.69531,0.789062 -0.69531,2.382812 z m 7.96094,4.148438 V 39.89254 h 1.26562 v 1.257812 q 0.48438,-0.882812 0.89063,-1.164062 0.41406,-0.28125 0.90625,-0.28125 0.71093,0 1.44531,0.453125 l -0.48438,1.304687 q -0.51562,-0.304687 -1.03125,-0.304687 -0.46093,0 -0.82812,0.28125 -0.36719,0.273437 -0.52344,0.765625 -0.23437,0.75 -0.23437,1.640625 v 4.34375 z m 11.02343,-2.671875 1.45313,0.179687 q -0.34375,1.273438 -1.27344,1.976563 -0.92969,0.703125 -2.375,0.703125 -1.82031,0 -2.89062,-1.117188 -1.0625,-1.125 -1.0625,-3.148437 0,-2.09375 1.07812,-3.25 1.07813,-1.15625 2.79688,-1.15625 1.66406,0 2.71875,1.132812 1.05468,1.132813 1.05468,3.1875 0,0.125 -0.008,0.375 h -6.1875 q 0.0781,1.367188 0.77344,2.09375 0.69531,0.726563 1.73437,0.726563 0.77344,0 1.32032,-0.40625 0.54687,-0.40625 0.86718,-1.296875 z m -4.61718,-2.273438 H 458.75 q -0.0937,-1.046875 -0.53125,-1.570312 -0.67188,-0.8125 -1.74219,-0.8125 -0.96875,0 -1.63281,0.648437 -0.65625,0.648438 -0.72656,1.734375 z"
       id="flowRoot3532"
       transform="translate(104.79808,528.58509)"
       aria-label="Score" />
  </g>
</svg>
