<svg width="164" height="35" viewBox="0 0 164 35" fill="none" xmlns="http://www.w3.org/2000/svg">
<g clip-path="url(#clip0_50_1809)">
<path d="M73.5466 23.042L72.8207 25.0242C72.605 25.609 72.047 25.9966 71.4204 25.9966H68.25C67.4283 25.9966 66.764 25.337 66.764 24.521V15.171H64.542V12.7332H66.764V8.99316H70.4309V12.7332H73.1186V15.171H70.4309V23.0386H73.5466V23.042Z" fill="black"/>
<path d="M126.766 10.2578H124.236V12.7398H126.766V15.1776H124.236V26.0032H120.569V15.1776H118.347V12.7398H120.569V8.7754C120.569 7.9594 121.233 7.2998 122.055 7.2998H127.852L126.77 10.2578H126.766Z" fill="black"/>
<path d="M74.9778 10.6998V7.2998H78.6447V10.6998H74.9778ZM78.6447 12.7398V25.9998H74.9778V12.7398H78.6447Z" fill="black"/>
<path d="M85.1018 12.7398V14.535H85.1532C85.636 13.8516 86.2146 13.3212 86.8959 12.9438C87.5773 12.5664 88.3545 12.3794 89.2344 12.3794C90.1143 12.3794 90.8504 12.5426 91.5454 12.8656C92.2439 13.192 92.7712 13.7632 93.1341 14.5826C93.5312 14.0012 94.0688 13.4878 94.7501 13.0424C95.4314 12.597 96.236 12.376 97.1639 12.376C97.8692 12.376 98.5231 12.461 99.1257 12.6344C99.7283 12.8044 100.245 13.0798 100.677 13.4538C101.108 13.8312 101.444 14.3208 101.683 14.9294C101.923 15.538 102.046 16.269 102.046 17.1224V25.9964H98.3793V18.4824C98.3793 18.037 98.3622 17.6188 98.328 17.2244C98.2937 16.83 98.1979 16.49 98.0438 16.1976C97.8897 15.9086 97.6603 15.6774 97.359 15.504C97.0577 15.334 96.6469 15.249 96.1333 15.249C95.6198 15.249 95.1986 15.3476 94.8802 15.5448C94.5618 15.742 94.3119 15.997 94.1304 16.3132C93.9489 16.6294 93.8291 16.9898 93.7675 17.391C93.7058 17.7922 93.6785 18.2002 93.6785 18.6082V25.9964H90.0116V18.5572C90.0116 18.1628 90.0013 17.7752 89.9842 17.391C89.9671 17.0068 89.8952 16.6532 89.7651 16.3268C89.635 16.0038 89.4193 15.742 89.118 15.5448C88.8167 15.3476 88.3716 15.249 87.7861 15.249C87.6149 15.249 87.3855 15.2864 87.1013 15.3646C86.8172 15.4428 86.5433 15.5856 86.2762 15.7998C86.0092 16.014 85.7798 16.32 85.5914 16.7212C85.4031 17.1224 85.3073 17.6494 85.3073 18.2988V25.993H81.6404V12.733H85.1018V12.7398Z" fill="black"/>
<path d="M108.866 22.8174C109.418 23.3478 110.209 23.613 111.243 23.613C111.982 23.613 112.619 23.4294 113.153 23.0622C113.687 22.695 114.012 22.3074 114.136 21.896H117.364C116.847 23.4872 116.056 24.6228 114.988 25.3062C113.92 25.9896 112.629 26.333 111.112 26.333C110.061 26.333 109.113 26.1664 108.271 25.8332C107.425 25.5 106.713 25.024 106.127 24.4086C105.542 23.7932 105.09 23.0588 104.772 22.202C104.453 21.3486 104.292 20.4068 104.292 19.38C104.292 18.3532 104.457 17.4658 104.782 16.609C105.107 15.7556 105.573 15.0144 106.175 14.3888C106.778 13.7666 107.497 13.2736 108.332 12.9132C109.168 12.5528 110.092 12.3726 111.109 12.3726C112.246 12.3726 113.235 12.5902 114.081 13.0254C114.923 13.4606 115.618 14.0488 116.159 14.7832C116.7 15.5176 117.094 16.3574 117.333 17.2958C117.573 18.2376 117.659 19.2202 117.59 20.247H107.956C108.007 21.4268 108.308 22.2836 108.86 22.8106L108.866 22.8174ZM113.013 15.8406C112.574 15.3612 111.907 15.1232 111.01 15.1232C110.424 15.1232 109.938 15.2218 109.551 15.419C109.164 15.6162 108.853 15.861 108.62 16.15C108.387 16.4424 108.223 16.7484 108.13 17.0748C108.034 17.4012 107.98 17.6902 107.963 17.9486H113.93C113.759 17.0238 113.451 16.3234 113.013 15.844V15.8406Z" fill="black"/>
<path d="M128.447 16.4968C128.773 15.6332 129.238 14.8988 129.841 14.2902C130.443 13.6816 131.166 13.2124 132.012 12.8792C132.854 12.546 133.802 12.3794 134.853 12.3794C135.904 12.3794 136.856 12.546 137.709 12.8792C138.561 13.2124 139.287 13.6816 139.89 14.2902C140.492 14.8988 140.958 15.6332 141.283 16.4968C141.608 17.3604 141.773 18.3226 141.773 19.3834C141.773 20.4442 141.608 21.403 141.283 22.2564C140.955 23.1098 140.492 23.8408 139.89 24.4494C139.287 25.058 138.558 25.5238 137.709 25.8468C136.856 26.1732 135.904 26.333 134.853 26.333C133.802 26.333 132.854 26.1698 132.012 25.8468C131.166 25.5238 130.443 25.0546 129.841 24.4494C129.238 23.8408 128.773 23.1098 128.447 22.2564C128.119 21.403 127.958 20.4442 127.958 19.3834C127.958 18.3226 128.122 17.3604 128.447 16.4968ZM131.779 20.9338C131.881 21.437 132.059 21.8926 132.309 22.2938C132.559 22.695 132.891 23.018 133.302 23.256C133.717 23.494 134.234 23.6164 134.853 23.6164C135.473 23.6164 135.993 23.4974 136.415 23.256C136.836 23.018 137.171 22.695 137.421 22.2938C137.671 21.8926 137.846 21.4404 137.952 20.9338C138.055 20.4306 138.106 19.9138 138.106 19.38C138.106 18.8462 138.055 18.3294 137.952 17.816C137.849 17.3026 137.671 16.8504 137.421 16.456C137.171 16.0616 136.836 15.742 136.415 15.4938C135.993 15.2456 135.473 15.1232 134.853 15.1232C134.234 15.1232 133.717 15.249 133.302 15.4938C132.888 15.742 132.556 16.0616 132.309 16.456C132.059 16.8504 131.881 17.3026 131.779 17.816C131.676 18.3294 131.625 18.8496 131.625 19.38C131.625 19.9104 131.676 20.4272 131.779 20.9338Z" fill="black"/>
<path d="M147.922 7.2998V25.9998H144.255V7.2998H147.922Z" fill="black"/>
<path d="M160.295 24.3066C159.864 25.024 159.303 25.5408 158.604 25.857C157.906 26.1732 157.118 26.333 156.242 26.333C155.242 26.333 154.365 26.1392 153.609 25.755C152.852 25.3708 152.226 24.8506 151.736 24.191C151.246 23.5314 150.873 22.7766 150.627 21.9198C150.377 21.0664 150.253 20.1756 150.253 19.2508C150.253 18.326 150.377 17.5032 150.627 16.6736C150.877 15.844 151.246 15.113 151.736 14.4806C152.226 13.8482 152.842 13.3382 153.581 12.954C154.321 12.5698 155.184 12.376 156.163 12.376C156.954 12.376 157.707 12.5426 158.423 12.8758C159.138 13.209 159.7 13.702 160.114 14.3514H160.165V7.29639H163.832V25.9964H160.347V24.3032H160.295V24.3066ZM160.141 17.7514C160.039 17.2482 159.861 16.8028 159.611 16.4186C159.361 16.0344 159.039 15.7216 158.642 15.4836C158.245 15.2456 157.745 15.1232 157.142 15.1232C156.54 15.1232 156.033 15.2422 155.619 15.4836C155.204 15.725 154.872 16.0378 154.626 16.4322C154.376 16.8266 154.194 17.2754 154.085 17.7786C153.972 18.2818 153.917 18.8088 153.917 19.3562C153.917 19.8696 153.979 20.383 154.098 20.8964C154.218 21.4098 154.413 21.8688 154.68 22.27C154.947 22.6712 155.283 22.9976 155.687 23.2458C156.091 23.494 156.577 23.6164 157.146 23.6164C157.748 23.6164 158.251 23.4974 158.655 23.256C159.059 23.018 159.381 22.695 159.624 22.2938C159.864 21.8926 160.039 21.4336 160.141 20.9202C160.244 20.4068 160.295 19.8764 160.295 19.329C160.295 18.7816 160.244 18.2546 160.141 17.7514Z" fill="black"/>
<path d="M17.8038 9V0.5H8.5595V9H3.11566L0 17.5H8.5595V34.5H18.266C20.0635 34.5 21.6727 33.3814 22.2889 31.7052L24.1583 26.6018C24.1583 26.6018 24.3775 26.0034 25.0211 26.0034H38.5862L41.7019 17.5034H30.4889C28.6914 17.5034 27.0823 18.622 26.466 20.2982L24.5966 25.4016C24.5966 25.4016 24.3775 26 23.7338 26H17.8003V17.5H24.4939C26.2914 17.5 27.9005 16.3814 28.5168 14.7052L30.3862 9.6018C30.3862 9.6018 30.6053 9.0034 31.249 9.0034H46.526L49.6451 0.5H36.7202C34.9228 0.5 33.3136 1.6186 32.6973 3.2948L30.8279 8.3982C30.8279 8.3982 30.6088 8.9966 29.9651 8.9966H17.8003L17.8038 9Z" fill="black"/>
</g>
<defs>
<clipPath id="clip0_50_1809">
<rect width="164" height="34" fill="white" transform="translate(0 0.5)"/>
</clipPath>
</defs>
</svg>