<?xml version="1.0" encoding="UTF-8" standalone="no"?>
<!-- Created with Inkscape (http://www.inkscape.org/) -->

<svg
   width="800"
   height="600"
   id="svg2"
   version="1.1"
   xmlns="http://www.w3.org/2000/svg"
   xmlns:svg="http://www.w3.org/2000/svg"
   xmlns:rdf="http://www.w3.org/1999/02/22-rdf-syntax-ns#"
   xmlns:cc="http://creativecommons.org/ns#"
   xmlns:dc="http://purl.org/dc/elements/1.1/">
  <defs
     id="defs4" />
  <metadata
     id="metadata7">
    <rdf:RDF>
      <cc:Work
         rdf:about="">
        <dc:format>image/svg+xml</dc:format>
        <dc:type
           rdf:resource="http://purl.org/dc/dcmitype/StillImage" />
        <dc:language>en</dc:language>
        <cc:license
           rdf:resource="https://timefold.ai/product/license/" />
      </cc:Work>
    </rdf:RDF>
  </metadata>
  <g
     id="layer1"
     transform="translate(0,-452.36218)">
    <path
       style="fill:currentColor;line-height:1.25;text-align:center;text-anchor:middle"
       d="m 328.60254,252.42716 v -25.76953 h 9.66797 q 2.95312,0 4.72851,0.79101 1.79297,0.77344 2.79493,2.40821 1.01953,1.61718 1.01953,3.39257 0,1.65235 -0.89649,3.11133 -0.89648,1.45899 -2.70703,2.35547 2.33789,0.68555 3.58594,2.33789 1.26562,1.65235 1.26562,3.90235 0,1.81054 -0.77343,3.375 -0.75586,1.54687 -1.88086,2.39062 -1.125,0.84375 -2.83008,1.2832 -1.6875,0.42188 -4.14844,0.42188 z m 3.41016,-14.94141 h 5.57226 q 2.26758,0 3.25195,-0.29883 1.30079,-0.38671 1.95118,-1.2832 0.66796,-0.89648 0.66796,-2.25 0,-1.2832 -0.61523,-2.25 -0.61523,-0.98437 -1.75781,-1.33594 -1.14258,-0.36914 -3.91992,-0.36914 h -5.15039 z m 0,11.90039 h 6.41601 q 1.65234,0 2.32031,-0.12304 1.17774,-0.21094 1.96875,-0.70313 0.79102,-0.49219 1.30078,-1.42383 0.50977,-0.94922 0.50977,-2.17968 0,-1.44141 -0.73828,-2.4961 -0.73828,-1.07226 -2.05664,-1.49414 -1.30078,-0.43945 -3.76172,-0.43945 h -5.95898 z m 20.30273,3.04102 v -18.66797 h 2.84766 v 2.83008 q 1.08984,-1.98633 2.0039,-2.61914 0.93164,-0.63281 2.03906,-0.63281 1.59961,0 3.25196,1.01953 l -1.08985,2.93554 q -1.16015,-0.68554 -2.32031,-0.68554 -1.03711,0 -1.86328,0.63281 -0.82617,0.61523 -1.17773,1.72266 -0.52735,1.6875 -0.52735,3.6914 v 9.77344 z m 24.25781,0 v -2.74219 q -2.17969,3.16406 -5.92383,3.16406 -1.65234,0 -3.09375,-0.63281 -1.42382,-0.63281 -2.12695,-1.58203 -0.68555,-0.9668 -0.9668,-2.35547 -0.19336,-0.93164 -0.19336,-2.95312 v -11.56641 h 3.16407 v 10.35352 q 0,2.47851 0.19336,3.33984 0.29882,1.24805 1.26562,1.96875 0.9668,0.70312 2.39063,0.70312 1.42382,0 2.67187,-0.7207 1.24805,-0.73828 1.75781,-1.98633 0.52735,-1.26562 0.52735,-3.65625 v -10.00195 h 3.16406 v 18.66797 z m 14.69531,-2.83008 0.45704,2.79492 q -1.33594,0.28125 -2.39063,0.28125 -1.72266,0 -2.67187,-0.54492 -0.94922,-0.54492 -1.33594,-1.42383 -0.38672,-0.89648 -0.38672,-3.74414 v -10.74023 h -2.32031 v -2.46094 h 2.32031 v -4.62305 l 3.14648,-1.89843 v 6.52148 h 3.18164 v 2.46094 h -3.18164 v 10.91601 q 0,1.35352 0.15821,1.74024 0.17578,0.38672 0.54492,0.61523 0.38672,0.22852 1.08984,0.22852 0.52735,0 1.38867,-0.12305 z m 15.87305,-3.18164 3.26953,0.4043 q -0.77343,2.86523 -2.86523,4.44726 -2.0918,1.58203 -5.34375,1.58203 -4.0957,0 -6.50391,-2.51367 -2.39062,-2.53125 -2.39062,-7.08398 0,-4.71094 2.42578,-7.3125 2.42578,-2.60156 6.29297,-2.60156 3.74414,0 6.11718,2.54882 2.37305,2.54883 2.37305,7.17188 0,0.28125 -0.0176,0.84375 h -13.92187 q 0.17578,3.07617 1.74023,4.71094 1.56446,1.63476 3.90235,1.63476 1.74023,0 2.9707,-0.91406 1.23047,-0.91406 1.95117,-2.91797 z m -10.38867,-5.11523 h 10.42383 q -0.21094,-2.35547 -1.19531,-3.53321 -1.51172,-1.82812 -3.91993,-1.82812 -2.17968,0 -3.67382,1.45898 -1.47657,1.45899 -1.63477,3.90235 z m 28.21289,11.12695 v -25.76953 h 17.38477 v 3.04101 h -13.97461 v 7.98047 h 12.09375 v 3.04102 h -12.09375 v 11.70703 z m 20.23242,-9.33399 q 0,-5.18554 2.88281,-7.68164 2.40821,-2.07421 5.8711,-2.07421 3.84961,0 6.29297,2.53125 2.44336,2.51367 2.44336,6.96093 0,3.60352 -1.08985,5.67774 -1.07226,2.05664 -3.14648,3.19922 -2.05664,1.14257 -4.5,1.14257 -3.91992,0 -6.3457,-2.51367 -2.40821,-2.51367 -2.40821,-7.24219 z m 3.25196,0 q 0,3.58594 1.56445,5.37891 1.56445,1.77539 3.9375,1.77539 2.35547,0 3.91992,-1.79297 1.56445,-1.79297 1.56445,-5.46679 0,-3.46289 -1.58203,-5.23829 -1.56445,-1.79296 -3.90234,-1.79296 -2.37305,0 -3.9375,1.77539 -1.56445,1.77539 -1.56445,5.36132 z m 17.9121,9.33399 v -18.66797 h 2.84766 v 2.83008 q 1.08984,-1.98633 2.00391,-2.61914 0.93164,-0.63281 2.03906,-0.63281 1.59961,0 3.25195,1.01953 l -1.08984,2.93554 q -1.16016,-0.68554 -2.32031,-0.68554 -1.03711,0 -1.86328,0.63281 -0.82618,0.61523 -1.17774,1.72266 -0.52734,1.6875 -0.52734,3.6914 v 9.77344 z m 24.20508,-6.83789 3.11133,0.4043 q -0.50976,3.21679 -2.61914,5.04492 -2.0918,1.81054 -5.15039,1.81054 -3.83203,0 -6.16992,-2.49609 -2.32031,-2.51367 -2.32031,-7.18945 0,-3.02344 1.00195,-5.29102 1.00195,-2.26758 3.04101,-3.39258 2.05664,-1.14257 4.46485,-1.14257 3.04101,0 4.97461,1.54687 1.93359,1.5293 2.47851,4.35938 l -3.07617,0.4746 q -0.43945,-1.88085 -1.56445,-2.83007 -1.10742,-0.94922 -2.68946,-0.94922 -2.39062,0 -3.88476,1.72265 -1.49414,1.70508 -1.49414,5.41407 0,3.76172 1.4414,5.46679 1.44141,1.70508 3.76172,1.70508 1.86328,0 3.11133,-1.14258 1.24805,-1.14257 1.58203,-3.51562 z m 18.59766,0.82617 3.26953,0.4043 q -0.77344,2.86523 -2.86523,4.44726 -2.0918,1.58203 -5.34375,1.58203 -4.09571,0 -6.50391,-2.51367 -2.39063,-2.53125 -2.39063,-7.08398 0,-4.71094 2.42579,-7.3125 2.42578,-2.60156 6.29296,-2.60156 3.74415,0 6.11719,2.54882 2.37305,2.54883 2.37305,7.17188 0,0.28125 -0.0176,0.84375 h -13.92187 q 0.17578,3.07617 1.74023,4.71094 1.56445,1.63476 3.90234,1.63476 1.74024,0 2.97071,-0.91406 1.23047,-0.91406 1.95117,-2.91797 z m -10.38867,-5.11523 h 10.42383 q -0.21094,-2.35547 -1.19532,-3.53321 -1.51172,-1.82812 -3.91992,-1.82812 -2.17969,0 -3.67383,1.45898 -1.47656,1.45899 -1.63476,3.90235 z"
       id="flowRoot4302"
       transform="translate(-20,262.36198)"
       aria-label="Brute Force" />
    <g
       id="g3709"
       transform="translate(0,19.999997)" />
    <flowRoot
       xml:space="preserve"
       id="flowRoot4157"
       style="font-style:normal;font-weight:normal;line-height:0.01%;font-family:sans-serif;letter-spacing:0px;word-spacing:0px;fill:currentColor;fill-opacity:1;stroke:none;stroke-width:1px;stroke-linecap:butt;stroke-linejoin:miter;stroke-opacity:1"><flowRegion
         id="flowRegion4159"
         style="font-family:sans-serif"><rect
           id="rect4161"
           width="10.955056"
           height="72.471909"
           x="16.011236"
           y="-53.932568" /></flowRegion><flowPara
         id="flowPara4163"
         style="font-size:40px;line-height:1.25;font-family:sans-serif"> </flowPara></flowRoot>
    <g
       id="g3942"
       style="stroke:#4e9a06" />
    <g
       id="g3904"
       transform="matrix(1.3036173,0,0,1.3036173,-76.890237,-162.82883)">
      <path
         id="path3122"
         d="m 435.47791,899.13425 c -7.04935,-10.41112 -34.7542,-45.61414 -26.84297,-56.40546 -23.4528,19.11582 -110.83382,29.28039 -145.38084,-10.63602 -21.73943,1.08407 -46.04246,12.30376 -45.86771,-55.67649 0.13578,-52.82749 29.53787,-131.21281 52.96067,-144.38141 6.07811,-3.41718 1.76235,-27.51442 31.20895,-45.29612 19.45206,-11.74636 49.16819,-24.09643 68.56513,-18.87339 14.8082,3.98743 18.92281,27.22692 17.49595,42.46511 -0.69954,7.47081 -6.68611,13.87505 -12.29444,18.8734 -4.73157,4.21695 -10.68139,8.66865 -17.02307,8.49302 -7.62175,-0.21111 -19.86025,-11.32403 -19.86025,-11.32403"
         style="color:currentColor;fill:none;stroke:currentColor;stroke-width:3.06838512;stroke-linecap:round;stroke-linejoin:round;stroke-miterlimit:4;stroke-opacity:1;stroke-dasharray:none;stroke-dashoffset:0;marker:none;visibility:visible;display:inline;overflow:visible;enable-background:accumulate" />
      <path
         id="path3124"
         d="m 344.5638,610.96465 c 4.43775,2.319 9.12646,11.86242 6.09482,10.73658 -2.64192,-0.98111 -7.98131,-5.3147 -10.56911,-4.57978 -1.4946,0.42446 -0.70404,7.52785 -2.4898,8.10579 m 7.30715,-14.20551 c -6.56613,1.28736 -36.24061,40.26676 -37.67649,51.21056 -3.52996,26.90417 10.73435,64.45763 -0.94572,83.98658 40.93509,-46.65687 98.55207,-36.76057 126.72729,-1.88735"
         style="color:currentColor;fill:none;stroke:currentColor;stroke-width:3.06838512;stroke-linecap:round;stroke-linejoin:round;stroke-miterlimit:4;stroke-opacity:1;stroke-dasharray:none;stroke-dashoffset:0;marker:none;visibility:visible;display:inline;overflow:visible;enable-background:accumulate" />
      <path
         id="path3126"
         d="m 415.04315,728.28915 c 22.55301,-12.17464 46.18605,-3.87321 69.98372,7.54936"
         style="color:currentColor;fill:none;stroke:currentColor;stroke-width:3.06838512;stroke-linecap:round;stroke-linejoin:round;stroke-miterlimit:4;stroke-opacity:1;stroke-dasharray:none;stroke-dashoffset:0;marker:none;visibility:visible;display:inline;overflow:visible;enable-background:accumulate" />
      <path
         id="path3896"
         d="m 354.98954,801.89536 c 17.26614,6.57686 33.51324,14.79623 66.67369,-4.24652"
         style="color:currentColor;fill:none;stroke:currentColor;stroke-width:3.06838512;stroke-linecap:round;stroke-linejoin:round;stroke-miterlimit:4;stroke-opacity:1;stroke-dasharray:none;stroke-dashoffset:0;marker:none;visibility:visible;display:inline;overflow:visible;enable-background:accumulate" />
      <path
         id="path3898"
         d="m 354.62511,602.96181 c 11.93609,18.23939 4.67937,27.98398 3.07815,33.46533"
         style="color:currentColor;fill:none;stroke:currentColor;stroke-width:3.06838512;stroke-linecap:round;stroke-linejoin:round;stroke-miterlimit:4;stroke-opacity:1;stroke-dasharray:none;stroke-dashoffset:0;marker:none;visibility:visible;display:inline;overflow:visible;enable-background:accumulate" />
      <path
         style="color:currentColor;fill:none;stroke:currentColor;stroke-width:3.06838512;stroke-linecap:round;stroke-linejoin:round;stroke-miterlimit:4;stroke-opacity:1;stroke-dasharray:none;stroke-dashoffset:0;marker:none;visibility:visible;display:inline;overflow:visible;enable-background:accumulate"
         d="m 365.77388,597.01358 c 11.93233,18.22059 4.25798,25.77112 3.71027,36.51998"
         id="path3900" />
      <path
         id="path3902"
         d="m 374.74435,591.34174 c 10.76027,19.39265 5.83459,21.57401 5.54572,32.06404"
         style="color:currentColor;fill:none;stroke:currentColor;stroke-width:3.06838512;stroke-linecap:round;stroke-linejoin:round;stroke-miterlimit:4;stroke-opacity:1;stroke-dasharray:none;stroke-dashoffset:0;marker:none;visibility:visible;display:inline;overflow:visible;enable-background:accumulate" />
    </g>
  </g>
</svg>
