<?xml version="1.0" encoding="UTF-8" standalone="no"?>
<!-- Created with Inkscape (http://www.inkscape.org/) -->

<svg
   width="800"
   height="600"
   id="svg2"
   version="1.1"
   xmlns="http://www.w3.org/2000/svg"
   xmlns:svg="http://www.w3.org/2000/svg"
   xmlns:rdf="http://www.w3.org/1999/02/22-rdf-syntax-ns#"
   xmlns:cc="http://creativecommons.org/ns#"
   xmlns:dc="http://purl.org/dc/elements/1.1/">
  <defs
     id="defs4" />
  <metadata
     id="metadata7">
    <rdf:RDF>
      <cc:Work
         rdf:about="">
        <dc:format>image/svg+xml</dc:format>
        <dc:type
           rdf:resource="http://purl.org/dc/dcmitype/StillImage" />
        <dc:language>en</dc:language>
        <cc:license
           rdf:resource="https://timefold.ai/product/license/" />
      </cc:Work>
    </rdf:RDF>
  </metadata>
  <g
     id="layer1"
     transform="translate(0,-452.36218)">
    <rect
       style="fill:#d3d7cf;fill-opacity:1;stroke:none"
       id="rect3726"
       width="230"
       height="60"
       x="450"
       y="472.36218"
       
        />
    <rect
       
       
       y="492.86218"
       x="460.5"
       height="29"
       width="209.00002"
       id="rect3728"
       style="fill:#ffffff;fill-opacity:1;stroke:none" /> rx="5" ry="5"
    <path
       id="path4169"
       d="m 520.5,492.86214 0,29.00004"
       style="color:currentColor;fill:none;stroke:#d3d7cf;stroke-width:1px;stroke-linecap:round;stroke-linejoin:round;stroke-miterlimit:4;stroke-opacity:1;stroke-dasharray:none;stroke-dashoffset:0;marker:none;visibility:visible;display:inline;overflow:visible;enable-background:accumulate" />
    <path
       style="color:currentColor;fill:none;stroke:#d3d7cf;stroke-width:1px;stroke-linecap:round;stroke-linejoin:round;stroke-miterlimit:4;stroke-opacity:1;stroke-dasharray:none;stroke-dashoffset:0;marker:none;visibility:visible;display:inline;overflow:visible;enable-background:accumulate"
       d="m 550.5,492.86214 0,29.00004"
       id="path4171" />
    <path
       id="path4173"
       d="m 580.5,492.86214 0,29.00004"
       style="color:currentColor;fill:none;stroke:#d3d7cf;stroke-width:1px;stroke-linecap:round;stroke-linejoin:round;stroke-miterlimit:4;stroke-opacity:1;stroke-dasharray:none;stroke-dashoffset:0;marker:none;visibility:visible;display:inline;overflow:visible;enable-background:accumulate" />
    <path
       style="color:currentColor;fill:none;stroke:#d3d7cf;stroke-width:1px;stroke-linecap:round;stroke-linejoin:round;stroke-miterlimit:4;stroke-opacity:1;stroke-dasharray:none;stroke-dashoffset:0;marker:none;visibility:visible;display:inline;overflow:visible;enable-background:accumulate"
       d="m 610.5,492.86214 0,29.00004"
       id="path4175" />
    <path
       id="path4177"
       d="m 640.5,492.86214 0,29.00004"
       style="color:currentColor;fill:none;stroke:#d3d7cf;stroke-width:1px;stroke-linecap:round;stroke-linejoin:round;stroke-miterlimit:4;stroke-opacity:1;stroke-dasharray:none;stroke-dashoffset:0;marker:none;visibility:visible;display:inline;overflow:visible;enable-background:accumulate" />
    <g
       id="g3667"
       transform="translate(90,10.000155)">
      <rect
         
         
         y="602.86218"
         x="20.5"
         height="29"
         width="149"
         id="rect2851-41"
         style="fill: #9353C9;stroke: #9353C9;stroke-width:1;stroke-linecap:round;stroke-linejoin:round;stroke-miterlimit:4;stroke-dasharray:none" /> rx="5" ry="5"
      <path
         style="fill:white;line-height:1.25;text-align:center;text-anchor:middle"
         d="m 265.3848,83.141966 1.33674,-0.113163 q 0.14853,0.976033 0.68605,1.471123 0.5446,0.488016 1.30845,0.488016 0.91945,0 1.556,-0.693125 0.63654,-0.693125 0.63654,-1.838903 0,-1.089197 -0.61532,-1.718668 -0.60826,-0.62947 -1.59844,-0.62947 -0.61532,0 -1.11041,0.282908 -0.49509,0.275835 -0.778,0.721416 l -1.19529,-0.1556 1.00433,-5.325747 h 5.156 v 1.216505 h -4.13753 l -0.55875,2.786646 q 0.9336,-0.650689 1.95914,-0.650689 1.35796,0 2.29156,0.94067 0.9336,0.94067 0.9336,2.418865 0,1.407469 -0.82044,2.433011 -0.99725,1.258942 -2.72299,1.258942 -1.41454,0 -2.31277,-0.792143 -0.89116,-0.792143 -1.01847,-2.100594 z"
         id="flowRoot3154-5"
         transform="matrix(1.6568991,0,0,1.6568991,-350.39408,481.72151)"
         aria-label="5" />
    </g>
    <g
       id="g3271"
       transform="translate(0,1.6040764e-4)">
      <g
         transform="matrix(0.75,0,0,1,132.5,9.9999944)"
         id="g3250">
        <rect
           
           
           y="692.86218"
           x="50.666668"
           height="29"
           width="118.66666"
           id="rect3202"
           style="fill: #00C85E;stroke: #00C85E;stroke-width:1.15470052;stroke-linecap:round;stroke-linejoin:round;stroke-miterlimit:4;stroke-dasharray:none" /> rx="5" ry="5"
      </g>
      <path
         style="fill:black;line-height:1.25;text-align:center;text-anchor:middle"
         d="m 265.39187,83.120748 1.27309,-0.169745 q 0.21925,1.082124 0.74263,1.563068 0.53045,0.473871 1.28723,0.473871 0.89824,0 1.51356,-0.622398 0.6224,-0.622398 0.6224,-1.54185 0,-0.877015 -0.57289,-1.442831 -0.57289,-0.57289 -1.45698,-0.57289 -0.3607,0 -0.89823,0.141455 l 0.14145,-1.117488 q 0.12731,0.01415 0.20511,0.01415 0.81336,0 1.46405,-0.424363 0.65069,-0.424362 0.65069,-1.30845 0,-0.700198 -0.47387,-1.159924 -0.47387,-0.459726 -1.22358,-0.459726 -0.74263,0 -1.23772,0.466799 -0.49509,0.466798 -0.63654,1.400395 l -1.27309,-0.226326 q 0.2334,-1.28016 1.0609,-1.980358 0.82751,-0.70727 2.05816,-0.70727 0.84873,0 1.56307,0.36778 0.71434,0.360708 1.0892,0.990179 0.38192,0.629471 0.38192,1.336742 0,0.671907 -0.36071,1.223578 -0.3607,0.551671 -1.06797,0.877015 0.91945,0.212181 1.42868,0.884088 0.50924,0.664834 0.50924,1.669159 0,1.357959 -0.99018,2.305702 -0.99018,0.940669 -2.50374,0.940669 -1.36503,0 -2.27034,-0.813361 -0.89823,-0.813361 -1.02554,-2.107666 z"
         id="flowRoot3224"
         transform="matrix(1.6568991,0,0,1.6568991,-230.39408,581.7215)"
         aria-label="3" />
    </g>
    <g
       id="g3681"
       transform="translate(90,10.000155)">
      <rect
         
         
         y="782.86218"
         x="110.5"
         height="29"
         width="59"
         id="rect3232"
         style="fill: #4F625F;stroke: #4F625F;stroke-width:1;stroke-linecap:round;stroke-linejoin:round;stroke-miterlimit:4;stroke-dasharray:none" /> rx="5" ry="5"
      <path
         style="fill:white;line-height:1.25;text-align:center;text-anchor:middle"
         d="m 244.9164,84.634307 v 1.223578 h -6.85345 q -0.0142,-0.459726 0.14852,-0.884088 0.26169,-0.700198 0.83458,-1.379178 0.57996,-0.678979 1.66916,-1.57014 1.69038,-1.38625 2.28448,-2.192539 0.59411,-0.813361 0.59411,-1.534777 0,-0.756779 -0.5446,-1.273087 -0.53752,-0.52338 -1.40747,-0.52338 -0.91945,0 -1.47112,0.551671 -0.55167,0.551671 -0.55874,1.527704 l -1.30845,-0.134381 q 0.13438,-1.46405 1.01139,-2.227902 0.87702,-0.770925 2.35522,-0.770925 1.49234,0 2.36228,0.827506 0.86994,0.827507 0.86994,2.051085 0,0.622398 -0.25462,1.223578 -0.25461,0.60118 -0.84872,1.266014 -0.58703,0.664834 -1.95914,1.824758 -1.14578,0.961888 -1.47112,1.308451 -0.32535,0.339489 -0.53753,0.686052 z"
         id="flowRoot3254"
         transform="matrix(1.6568991,0,0,1.6568991,-260.39408,661.72151)"
         aria-label="2" />
    </g>
    <g
       id="g3264"
       transform="translate(0,1.6040764e-4)">
      <rect
         style="fill: #F5B200;stroke: #F5B200;stroke-width:1;stroke-linecap:round;stroke-linejoin:round;stroke-miterlimit:4;stroke-dasharray:none" rx="5" ry="5"
         id="rect3262"
         width="29"
         height="29"
         x="230.5"
         y="882.86218"
         
          />
      <path
         style="fill:black;line-height:1.25;text-align:center;text-anchor:middle"
         d="m 252.07365,85.857885 h -1.27309 v -8.112393 q -0.45973,0.438508 -1.20943,0.877016 -0.74264,0.438507 -1.33674,0.657761 v -1.230651 q 1.06797,-0.502162 1.86719,-1.216505 0.79922,-0.714343 1.13163,-1.38625 h 0.82044 z"
         id="flowRoot3284"
         transform="matrix(1.6568991,0,0,1.6568991,-170.39408,761.7215)"
         aria-label="1" />
    </g>
    <path
       style="color:currentColor;fill:none;stroke:#d3d7cf;stroke-width:1px;stroke-linecap:round;stroke-linejoin:round;stroke-miterlimit:4;stroke-opacity:1;stroke-dasharray:none;stroke-dashoffset:0;marker:none;visibility:visible;display:inline;overflow:visible;enable-background:accumulate"
       d="m 490.5,492.86214 0,29.00004"
       id="path4165" />
    <rect
       style="fill:none;stroke:currentColor;stroke-width:1;stroke-linecap:round;stroke-linejoin:round;stroke-miterlimit:4;stroke-dasharray:none"
       id="rect3324"
       width="209.00002"
       height="29"
       x="460.5"
       y="492.86218"
       
        />
    <path
       style="fill:currentColor;line-height:1.25;text-align:center;text-anchor:middle"
       d="M 277.54096,76.847258 V 75.62368 h 6.712 v 0.990179 q -0.99018,1.053833 -1.96622,2.800791 -0.96896,1.746959 -1.49941,3.592935 -0.38193,1.301378 -0.48802,2.8503 h -1.30845 q 0.0212,-1.223578 0.48095,-2.956391 0.45972,-1.732813 1.31552,-3.338317 0.86287,-1.612576 1.83183,-2.715919 z"
       id="flowRoot3328"
       transform="matrix(1.6568991,0,0,1.6568991,99.60592,371.72151)"
       aria-label="7" />
    <path
       style="fill:currentColor;line-height:1.25;text-align:center;text-anchor:middle"
       d="m 395.77197,72.874234 1.32617,0.334961 q -0.41699,1.633789 -1.5039,2.495117 -1.08008,0.854492 -2.64551,0.854492 -1.62012,0 -2.63867,-0.65625 -1.01172,-0.663086 -1.54492,-1.914062 -0.52637,-1.250977 -0.52637,-2.686524 0,-1.56543 0.59473,-2.727539 0.60156,-1.168945 1.70214,-1.770508 1.10743,-0.608398 2.4336,-0.608398 1.5039,0 2.5293,0.765625 1.02539,0.765625 1.42871,2.15332 l -1.30567,0.307617 q -0.34863,-1.09375 -1.01172,-1.592773 -0.66308,-0.499024 -1.66797,-0.499024 -1.15527,0 -1.93457,0.553711 -0.77246,0.553711 -1.08691,1.490235 -0.31445,0.929687 -0.31445,1.920898 0,1.278321 0.36914,2.235352 0.37597,0.950195 1.16211,1.421875 0.78613,0.471679 1.70215,0.471679 1.11425,0 1.88671,-0.642578 0.77247,-0.642578 1.0459,-1.907226 z m 2.34473,-0.116211 q 0,-2.016602 1.12109,-2.987305 0.93653,-0.80664 2.28321,-0.80664 1.49707,0 2.44726,0.984375 0.9502,0.977539 0.9502,2.707031 0,1.401367 -0.42383,2.208008 -0.41699,0.799804 -1.22363,1.24414 -0.79981,0.444336 -1.75,0.444336 -1.52442,0 -2.46778,-0.977539 -0.93652,-0.977539 -0.93652,-2.816406 z m 1.26465,0 q 0,1.394531 0.6084,2.091797 0.60839,0.690429 1.53125,0.690429 0.91601,0 1.52441,-0.697265 0.6084,-0.697266 0.6084,-2.125977 0,-1.346679 -0.61524,-2.037109 -0.60839,-0.697266 -1.51757,-0.697266 -0.92286,0 -1.53125,0.69043 -0.6084,0.69043 -0.6084,2.084961 z m 6.97949,3.629883 V 69.12814 h 1.10059 v 1.018555 q 0.34179,-0.533203 0.90918,-0.854492 0.56738,-0.328125 1.29199,-0.328125 0.80664,0 1.31933,0.33496 0.51953,0.334961 0.73145,0.936524 0.86133,-1.271484 2.24219,-1.271484 1.08007,0 1.66113,0.601562 0.58105,0.594727 0.58105,1.838867 v 4.983399 h -1.22363 v -4.573243 q 0,-0.738281 -0.12305,-1.05957 -0.11621,-0.328125 -0.43066,-0.526367 -0.31445,-0.198242 -0.73828,-0.198242 -0.76563,0 -1.27149,0.512695 -0.50585,0.505859 -0.50585,1.626953 v 4.217774 h -1.23047 v -4.716797 q 0,-0.820313 -0.30078,-1.230469 -0.30079,-0.410156 -0.98438,-0.410156 -0.51953,0 -0.96387,0.273437 -0.4375,0.273438 -0.63574,0.799805 -0.19824,0.526367 -0.19824,1.517578 v 3.766602 z m 11.66211,2.782226 V 69.12814 h 1.12109 v 0.943359 q 0.39649,-0.553711 0.89551,-0.827148 0.49902,-0.280273 1.20996,-0.280273 0.92969,0 1.64063,0.478515 0.71093,0.478516 1.07324,1.353516 0.3623,0.868164 0.3623,1.907226 0,1.114258 -0.40332,2.009766 -0.39648,0.888672 -1.16211,1.367187 -0.75879,0.47168 -1.59961,0.47168 -0.61523,0 -1.10742,-0.259765 -0.48535,-0.259766 -0.7998,-0.65625 v 3.534179 z m 1.11426,-6.371094 q 0,1.401368 0.56738,2.07129 0.56738,0.669921 1.37402,0.669921 0.82032,0 1.40137,-0.690429 0.58789,-0.697266 0.58789,-2.153321 0,-1.387695 -0.57422,-2.078125 -0.56738,-0.690429 -1.36035,-0.690429 -0.78613,0 -1.39453,0.738281 -0.60156,0.731445 -0.60156,2.132812 z m 11.42968,3.588868 v -1.066407 q -0.84765,1.230469 -2.30371,1.230469 -0.64257,0 -1.20312,-0.246094 -0.55371,-0.246093 -0.82715,-0.615234 -0.2666,-0.375977 -0.37598,-0.916016 -0.0752,-0.362304 -0.0752,-1.148437 V 69.12814 h 1.23047 v 4.026367 q 0,0.963867 0.0752,1.298828 0.11621,0.485352 0.49219,0.765625 0.37598,0.273438 0.92969,0.273438 0.55371,0 1.03906,-0.280274 0.48535,-0.287109 0.68359,-0.772461 0.20508,-0.492187 0.20508,-1.421875 V 69.12814 h 1.23047 v 7.259766 z m 5.71485,-1.100586 0.17773,1.086914 q -0.51953,0.109375 -0.92968,0.109375 -0.66993,0 -1.03907,-0.211914 -0.36914,-0.211914 -0.51953,-0.553711 -0.15039,-0.348633 -0.15039,-1.456055 v -4.176758 h -0.90234 V 69.12814 h 0.90234 v -1.797852 l 1.22363,-0.738281 v 2.536133 h 1.23731 v 0.957031 h -1.23731 v 4.245117 q 0,0.526368 0.0615,0.676758 0.0684,0.150391 0.21191,0.239258 0.15039,0.08887 0.42383,0.08887 0.20508,0 0.54004,-0.04785 z m 6.17285,-1.237305 1.27148,0.157227 q -0.30078,1.114257 -1.11425,1.729492 -0.81348,0.615234 -2.07813,0.615234 -1.59277,0 -2.5293,-0.977539 -0.92968,-0.984375 -0.92968,-2.754883 0,-1.832031 0.94336,-2.84375 0.94336,-1.011718 2.44726,-1.011718 1.45606,0 2.37891,0.99121 0.92285,0.991211 0.92285,2.789063 0,0.109375 -0.007,0.328125 h -5.41406 q 0.0684,1.196289 0.67676,1.832031 0.6084,0.635742 1.51758,0.635742 0.67676,0 1.15527,-0.355468 0.47852,-0.355469 0.75879,-1.134766 z m -4.04004,-1.989258 h 4.05371 q -0.082,-0.916015 -0.46484,-1.374023 -0.58789,-0.710938 -1.52442,-0.710938 -0.84765,0 -1.42871,0.567383 -0.57422,0.567383 -0.63574,1.517578 z m 6.84277,4.327149 V 69.12814 h 1.10743 v 1.100586 q 0.42382,-0.772461 0.77929,-1.018555 0.36231,-0.246093 0.79297,-0.246093 0.62207,0 1.26465,0.396484 l -0.42383,1.141601 q -0.45117,-0.266601 -0.90234,-0.266601 -0.40332,0 -0.72461,0.246094 -0.32129,0.239257 -0.45801,0.669922 -0.20508,0.65625 -0.20508,1.435546 v 3.800782 z m 15.87305,-3.513672 1.32617,0.334961 q -0.41699,1.633789 -1.5039,2.495117 -1.08008,0.854492 -2.64551,0.854492 -1.62012,0 -2.63867,-0.65625 -1.01172,-0.663086 -1.54492,-1.914062 -0.52637,-1.250977 -0.52637,-2.686524 0,-1.56543 0.59472,-2.727539 0.60157,-1.168945 1.70215,-1.770508 1.10742,-0.608398 2.4336,-0.608398 1.5039,0 2.52929,0.765625 1.02539,0.765625 1.42871,2.15332 l -1.30566,0.307617 q -0.34863,-1.09375 -1.01172,-1.592773 -0.66308,-0.499024 -1.66797,-0.499024 -1.15527,0 -1.93457,0.553711 -0.77246,0.553711 -1.08691,1.490235 -0.31445,0.929687 -0.31445,1.920898 0,1.278321 0.36914,2.235352 0.37597,0.950195 1.16211,1.421875 0.78613,0.471679 1.70214,0.471679 1.11426,0 1.88672,-0.642578 0.77246,-0.642578 1.0459,-1.907226 z m 2.95996,3.513672 V 66.366421 h 3.78028 q 0.99804,0 1.52441,0.0957 0.73828,0.123047 1.2373,0.47168 0.49903,0.341797 0.79981,0.963867 0.30762,0.622071 0.30762,1.367188 0,1.27832 -0.81348,2.166992 -0.81348,0.881836 -2.93945,0.881836 h -2.57032 v 4.074219 z m 1.32617,-5.256836 h 2.59082 q 1.28516,0 1.8252,-0.478516 0.54004,-0.478516 0.54004,-1.34668 0,-0.628906 -0.32129,-1.073242 -0.31445,-0.451172 -0.83398,-0.594726 -0.33497,-0.08887 -1.23731,-0.08887 h -2.56348 z m 14.58789,-4.764649 h 1.32618 v 5.790039 q 0,1.510743 -0.3418,2.399414 -0.3418,0.888672 -1.23731,1.449219 -0.88867,0.553711 -2.33789,0.553711 -1.4082,0 -2.30371,-0.485351 -0.8955,-0.485352 -1.27832,-1.401368 -0.38281,-0.922851 -0.38281,-2.515625 v -5.790039 h 1.32617 v 5.783203 q 0,1.305664 0.23926,1.927735 0.24609,0.615234 0.83398,0.950195 0.59473,0.334961 1.44922,0.334961 1.46289,0 2.08496,-0.663086 0.62207,-0.663086 0.62207,-2.549805 z"
       id="flowRoot3472-8"
       transform="translate(130,408.58511)"
       aria-label="Computer CPU" />
    <g
       id="g3709"
       transform="translate(0,19.999997)" />
    <path
       style="fill:currentColor;line-height:1.25;text-align:center;text-anchor:middle"
       d="M 356.67676,66.387906 V 56.366421 h 3.78027 q 0.99805,0 1.52442,0.0957 0.73828,0.123047 1.2373,0.47168 0.49902,0.341797 0.7998,0.963867 0.30762,0.622071 0.30762,1.367188 0,1.27832 -0.81347,2.166992 -0.81348,0.881836 -2.93946,0.881836 h -2.57031 v 4.074219 z m 1.32617,-5.256836 h 2.59082 q 1.28516,0 1.8252,-0.478516 0.54003,-0.478516 0.54003,-1.34668 0,-0.628906 -0.32128,-1.073242 -0.31446,-0.451172 -0.83399,-0.594726 -0.33496,-0.08887 -1.2373,-0.08887 h -2.56348 z m 7.84082,5.256836 V 59.12814 h 1.10742 v 1.100586 q 0.42383,-0.772461 0.7793,-1.018555 0.3623,-0.246093 0.79297,-0.246093 0.62207,0 1.26465,0.396484 l -0.42383,1.141601 q -0.45117,-0.266601 -0.90235,-0.266601 -0.40332,0 -0.72461,0.246094 -0.32128,0.239257 -0.458,0.669922 -0.20508,0.65625 -0.20508,1.435546 v 3.800782 z m 4.21777,-3.629883 q 0,-2.016602 1.1211,-2.987305 0.93652,-0.80664 2.2832,-0.80664 1.49707,0 2.44727,0.984375 0.95019,0.977539 0.95019,2.707031 0,1.401367 -0.42383,2.208008 -0.41699,0.799804 -1.22363,1.24414 -0.7998,0.444336 -1.75,0.444336 -1.52441,0 -2.46777,-0.977539 -0.93653,-0.977539 -0.93653,-2.816406 z m 1.26465,0 q 0,1.394531 0.6084,2.091797 0.6084,0.690429 1.53125,0.690429 0.91602,0 1.52441,-0.697265 0.6084,-0.697266 0.6084,-2.125977 0,-1.346679 -0.61523,-2.037109 -0.6084,-0.697266 -1.51758,-0.697266 -0.92285,0 -1.53125,0.69043 -0.6084,0.69043 -0.6084,2.084961 z m 11.7168,0.970703 1.20996,0.157227 q -0.19824,1.250976 -1.01856,1.961914 -0.81347,0.704101 -2.00292,0.704101 -1.49024,0 -2.39942,-0.970703 -0.90234,-0.977539 -0.90234,-2.795898 0,-1.175782 0.38965,-2.057618 0.38964,-0.881836 1.18261,-1.319336 0.79981,-0.444335 1.73633,-0.444335 1.18262,0 1.93457,0.601562 0.75195,0.594727 0.96387,1.695313 l -1.19629,0.18457 q -0.1709,-0.731445 -0.6084,-1.100586 -0.43066,-0.369141 -1.0459,-0.369141 -0.92968,0 -1.51074,0.669922 -0.58105,0.663086 -0.58105,2.105469 0,1.462891 0.56054,2.125976 0.56055,0.663086 1.46289,0.663086 0.72461,0 1.20996,-0.444336 0.48536,-0.444335 0.61524,-1.367187 z m 7.23242,0.321289 1.27148,0.157227 q -0.30078,1.114257 -1.11425,1.729492 -0.81348,0.615234 -2.07813,0.615234 -1.59277,0 -2.52929,-0.977539 -0.92969,-0.984375 -0.92969,-2.754883 0,-1.832031 0.94336,-2.84375 0.94336,-1.011718 2.44726,-1.011718 1.45606,0 2.37891,0.99121 0.92285,0.991211 0.92285,2.789063 0,0.109375 -0.007,0.328125 h -5.41406 q 0.0684,1.196289 0.67676,1.832031 0.6084,0.635742 1.51758,0.635742 0.67676,0 1.15527,-0.355468 0.47852,-0.355469 0.75879,-1.134766 z m -4.04004,-1.989258 h 4.05371 q -0.082,-0.916015 -0.46484,-1.374023 -0.58789,-0.710938 -1.52442,-0.710938 -0.84765,0 -1.42871,0.567383 -0.57422,0.567383 -0.63574,1.517578 z m 6.36426,2.160156 1.2168,-0.191406 q 0.10254,0.731446 0.56738,1.121094 0.47168,0.389648 1.3125,0.389648 0.84766,0 1.25781,-0.341796 0.41016,-0.348633 0.41016,-0.813477 0,-0.416992 -0.36231,-0.65625 -0.25293,-0.164063 -1.25781,-0.416992 -1.35352,-0.341797 -1.87988,-0.587891 -0.51953,-0.25293 -0.79297,-0.69043 -0.2666,-0.444335 -0.2666,-0.977539 0,-0.485351 0.21875,-0.895507 0.22558,-0.416993 0.6084,-0.69043 0.28711,-0.211914 0.77929,-0.355469 0.49903,-0.15039 1.06641,-0.15039 0.85449,0 1.49707,0.246093 0.64941,0.246094 0.95703,0.669922 0.30762,0.416992 0.42383,1.121094 l -1.20313,0.164062 q -0.082,-0.560546 -0.47851,-0.875 -0.38965,-0.314453 -1.10742,-0.314453 -0.84766,0 -1.20996,0.280274 -0.36231,0.280273 -0.36231,0.65625 0,0.239258 0.15039,0.430664 0.15039,0.198242 0.47168,0.328125 0.18457,0.06836 1.08691,0.314453 1.30567,0.348633 1.81836,0.574219 0.51954,0.21875 0.81348,0.642578 0.29395,0.423828 0.29395,1.052734 0,0.615235 -0.36231,1.16211 -0.35547,0.540039 -1.03223,0.84082 -0.67675,0.293945 -1.53125,0.293945 -1.41503,0 -2.16015,-0.58789 -0.73828,-0.587891 -0.94336,-1.743165 z m 7,0 1.2168,-0.191406 q 0.10254,0.731446 0.56738,1.121094 0.47168,0.389648 1.3125,0.389648 0.84766,0 1.25781,-0.341796 0.41016,-0.348633 0.41016,-0.813477 0,-0.416992 -0.36231,-0.65625 -0.25293,-0.164063 -1.25781,-0.416992 -1.35352,-0.341797 -1.87988,-0.587891 -0.51953,-0.25293 -0.79297,-0.69043 -0.2666,-0.444335 -0.2666,-0.977539 0,-0.485351 0.21875,-0.895507 0.22558,-0.416993 0.6084,-0.69043 0.28711,-0.211914 0.77929,-0.355469 0.49903,-0.15039 1.06641,-0.15039 0.85449,0 1.49707,0.246093 0.64941,0.246094 0.95703,0.669922 0.30762,0.416992 0.42383,1.121094 l -1.20313,0.164062 q -0.082,-0.560546 -0.47851,-0.875 -0.38965,-0.314453 -1.10742,-0.314453 -0.84766,0 -1.20996,0.280274 -0.36231,0.280273 -0.36231,0.65625 0,0.239258 0.15039,0.430664 0.15039,0.198242 0.47168,0.328125 0.18457,0.06836 1.08691,0.314453 1.30567,0.348633 1.81836,0.574219 0.51954,0.21875 0.81348,0.642578 0.29395,0.423828 0.29395,1.052734 0,0.615235 -0.36231,1.16211 -0.35547,0.540039 -1.03223,0.84082 -0.67675,0.293945 -1.53125,0.293945 -1.41503,0 -2.16015,-0.58789 -0.73828,-0.587891 -0.94336,-1.743165 z m 12.46191,-0.170898 1.27149,0.157227 q -0.30078,1.114257 -1.11426,1.729492 -0.81348,0.615234 -2.07813,0.615234 -1.59277,0 -2.52929,-0.977539 -0.92969,-0.984375 -0.92969,-2.754883 0,-1.832031 0.94336,-2.84375 0.94336,-1.011718 2.44727,-1.011718 1.45605,0 2.3789,0.99121 0.92285,0.991211 0.92285,2.789063 0,0.109375 -0.007,0.328125 h -5.41407 q 0.0684,1.196289 0.67676,1.832031 0.6084,0.635742 1.51758,0.635742 0.67676,0 1.15527,-0.355468 0.47852,-0.355469 0.75879,-1.134766 z m -4.04004,-1.989258 h 4.05372 q -0.082,-0.916015 -0.46485,-1.374023 -0.58789,-0.710938 -1.52441,-0.710938 -0.84766,0 -1.42871,0.567383 -0.57422,0.567383 -0.63575,1.517578 z m 6.36426,2.160156 1.2168,-0.191406 q 0.10254,0.731446 0.56738,1.121094 0.47168,0.389648 1.3125,0.389648 0.84766,0 1.25781,-0.341796 0.41016,-0.348633 0.41016,-0.813477 0,-0.416992 -0.3623,-0.65625 -0.25293,-0.164063 -1.25782,-0.416992 -1.35351,-0.341797 -1.87988,-0.587891 -0.51953,-0.25293 -0.79297,-0.69043 -0.2666,-0.444335 -0.2666,-0.977539 0,-0.485351 0.21875,-0.895507 0.22559,-0.416993 0.6084,-0.69043 0.28711,-0.211914 0.7793,-0.355469 0.49902,-0.15039 1.0664,-0.15039 0.85449,0 1.49707,0.246093 0.64942,0.246094 0.95703,0.669922 0.30762,0.416992 0.42383,1.121094 l -1.20312,0.164062 q -0.082,-0.560546 -0.47852,-0.875 -0.38965,-0.314453 -1.10742,-0.314453 -0.84766,0 -1.20996,0.280274 -0.36231,0.280273 -0.36231,0.65625 0,0.239258 0.15039,0.430664 0.15039,0.198242 0.47168,0.328125 0.18457,0.06836 1.08692,0.314453 1.30566,0.348633 1.81836,0.574219 0.51953,0.21875 0.81347,0.642578 0.29395,0.423828 0.29395,1.052734 0,0.615235 -0.36231,1.16211 -0.35546,0.540039 -1.03222,0.84082 -0.67676,0.293945 -1.53125,0.293945 -1.41504,0 -2.16016,-0.58789 -0.73828,-0.587891 -0.94336,-1.743165 z m 18.68946,-1.346679 1.32617,0.334961 q -0.417,1.633789 -1.50391,2.495117 -1.08008,0.854492 -2.64551,0.854492 -1.62011,0 -2.63867,-0.65625 -1.01172,-0.663086 -1.54492,-1.914062 -0.52637,-1.250977 -0.52637,-2.686524 0,-1.56543 0.59473,-2.727539 0.60156,-1.168945 1.70215,-1.770508 1.10742,-0.608398 2.43359,-0.608398 1.50391,0 2.5293,0.765625 1.02539,0.765625 1.42871,2.15332 l -1.30567,0.307617 q -0.34863,-1.09375 -1.01171,-1.592773 -0.66309,-0.499024 -1.66797,-0.499024 -1.15528,0 -1.93457,0.553711 -0.77246,0.553711 -1.08692,1.490235 -0.31445,0.929687 -0.31445,1.920898 0,1.278321 0.36914,2.235352 0.37598,0.950195 1.16211,1.421875 0.78613,0.471679 1.70215,0.471679 1.11426,0 1.88672,-0.642578 0.77246,-0.642578 1.0459,-1.907226 z m 2.95996,3.513672 V 56.366421 h 3.78027 q 0.99805,0 1.52441,0.0957 0.73828,0.123047 1.23731,0.47168 0.49902,0.341797 0.7998,0.963867 0.30762,0.622071 0.30762,1.367188 0,1.27832 -0.81348,2.166992 -0.81347,0.881836 -2.93945,0.881836 h -2.57031 v 4.074219 z m 1.32617,-5.256836 h 2.59082 q 1.28515,0 1.82519,-0.478516 0.54004,-0.478516 0.54004,-1.34668 0,-0.628906 -0.32129,-1.073242 -0.31445,-0.451172 -0.83398,-0.594726 -0.33496,-0.08887 -1.23731,-0.08887 h -2.56347 z m 14.58789,-4.764649 h 1.32617 v 5.790039 q 0,1.510743 -0.3418,2.399414 -0.34179,0.888672 -1.2373,1.449219 -0.88867,0.553711 -2.33789,0.553711 -1.4082,0 -2.30371,-0.485351 -0.89551,-0.485352 -1.27832,-1.401368 -0.38282,-0.922851 -0.38282,-2.515625 v -5.790039 h 1.32618 v 5.783203 q 0,1.305664 0.23925,1.927735 0.2461,0.615234 0.83399,0.950195 0.59473,0.334961 1.44922,0.334961 1.46289,0 2.08496,-0.663086 0.62207,-0.663086 0.62207,-2.549805 z"
       id="flowRoot3985"
       transform="translate(-220,518.58527)"
       aria-label="Processes CPU" />
    <flowRoot
       xml:space="preserve"
       id="flowRoot4157"
       style="font-style:normal;font-weight:normal;line-height:0.01%;font-family:sans-serif;letter-spacing:0px;word-spacing:0px;fill:currentColor;fill-opacity:1;stroke:none;stroke-width:1px;stroke-linecap:butt;stroke-linejoin:miter;stroke-opacity:1"><flowRegion
         id="flowRegion4159"
         style="font-family:sans-serif"><rect
           id="rect4161"
           width="10.955056"
           height="72.471909"
           x="16.011236"
           y="-53.932568" /></flowRegion><flowPara
         id="flowPara4163"
         style="font-size:40px;line-height:1.25;font-family:sans-serif"> </flowPara></flowRoot>
    <path
       style="fill:currentColor;line-height:1.25;text-align:center;text-anchor:middle"
       d="m 350.31055,103.93869 3.84863,-10.021487 h 1.42871 l 4.10156,10.021487 h -1.51074 l -1.16894,-3.03516 h -4.19043 l -1.10059,3.03516 z m 2.8916,-4.115237 h 3.39746 l -1.0459,-2.775391 q -0.47851,-1.264649 -0.71094,-2.078125 -0.1914,0.963867 -0.54004,1.914062 z"
       id="flowRoot4120-3"
       transform="translate(-85,527.25226)"
       aria-label="A" />
    <path
       style="fill:currentColor;line-height:1.25;text-align:center;text-anchor:middle"
       d="M 351.35645,103.93869 V 93.917203 h 3.75976 q 1.14844,0 1.83887,0.307617 0.69726,0.300781 1.08691,0.936523 0.39649,0.628906 0.39649,1.319336 0,0.642578 -0.34864,1.209961 -0.34863,0.567383 -1.05273,0.916016 0.90918,0.266601 1.39453,0.909179 0.49219,0.642575 0.49219,1.517575 0,0.70411 -0.30078,1.3125 -0.29395,0.60157 -0.73145,0.92969 -0.4375,0.32813 -1.10058,0.49902 -0.65625,0.16407 -1.61329,0.16407 z m 1.32617,-5.81055 h 2.16699 q 0.88184,0 1.26465,-0.116211 0.50586,-0.150391 0.75879,-0.499023 0.25976,-0.348633 0.25976,-0.875 0,-0.499024 -0.23926,-0.875 -0.23925,-0.382813 -0.68359,-0.519532 -0.44434,-0.143554 -1.52441,-0.143554 h -2.00293 z m 0,4.62793 h 2.49511 q 0.64258,0 0.90235,-0.0478 0.45801,-0.082 0.76562,-0.27344 0.30762,-0.19141 0.50586,-0.55371 0.19824,-0.36914 0.19824,-0.84766 0,-0.56054 -0.2871,-0.9707 -0.28711,-0.416992 -0.79981,-0.581054 Q 355.95703,99.310757 355,99.310757 h -2.31738 z"
       id="flowRoot3585"
       transform="translate(-85,617.25252)"
       aria-label="B" />
    <path
       style="fill:currentColor;line-height:1.25;text-align:center;text-anchor:middle"
       d="m 358.17529,100.42502 1.32617,0.33496 q -0.41699,1.63379 -1.5039,2.49511 -1.08008,0.8545 -2.64551,0.8545 -1.62012,0 -2.63867,-0.65625 -1.01172,-0.66309 -1.54492,-1.91407 -0.52637,-1.25097 -0.52637,-2.686521 0,-1.565429 0.59473,-2.727539 0.60156,-1.168945 1.70214,-1.770507 1.10743,-0.608399 2.4336,-0.608399 1.5039,0 2.5293,0.765625 1.02539,0.765625 1.42871,2.15332 l -1.30567,0.307618 q -0.34863,-1.09375 -1.01172,-1.592774 -0.66308,-0.499023 -1.66797,-0.499023 -1.15527,0 -1.93457,0.553711 -0.77246,0.553711 -1.08691,1.490234 -0.31445,0.929688 -0.31445,1.920898 0,1.278317 0.36914,2.235357 0.37597,0.95019 1.16211,1.42187 0.78613,0.47168 1.70215,0.47168 1.11425,0 1.88671,-0.64258 0.77247,-0.64258 1.0459,-1.90722 z"
       id="flowRoot3593"
       transform="translate(-85,707.25252)"
       aria-label="C" />
    <path
       style="fill:currentColor;line-height:1.25;text-align:center;text-anchor:middle"
       d="M 351.0249,103.93869 V 93.917203 h 3.45215 q 1.16895,0 1.78418,0.143554 0.86133,0.198242 1.46973,0.717774 0.79297,0.669922 1.18261,1.71582 0.39649,1.039062 0.39649,2.378906 0,1.141603 -0.2666,2.023433 -0.2666,0.88184 -0.6836,1.4629 -0.41699,0.57421 -0.91601,0.90918 -0.49219,0.32812 -1.19629,0.49902 -0.69727,0.1709 -1.60645,0.1709 z m 1.32617,-1.18262 h 2.13965 q 0.99121,0 1.55176,-0.18457 0.56738,-0.18457 0.90234,-0.51953 0.47168,-0.47168 0.73145,-1.26465 0.2666,-0.799805 0.2666,-1.934571 0,-1.572265 -0.51953,-2.413086 -0.5127,-0.847656 -1.25098,-1.134765 -0.5332,-0.205078 -1.71582,-0.205078 h -2.10547 z"
       id="flowRoot3601"
       transform="translate(-85,797.25262)"
       aria-label="D" />
    <g
       id="flowRoot4302"
       style="line-height:0.01%;font-family:Arial;-inkscape-font-specification:Arial;text-align:center;text-anchor:middle"
       transform="translate(10.53614,326.2432)"
       aria-label="Which processes&#10;fill up this computer&#10; as much as possible?">
      <path
         style="fill:currentColor;line-height:1.25"
         d="m 425.22949,352.42716 -6.83789,-25.76953 h 3.49805 l 3.91992,16.89258 q 0.63281,2.65429 1.08984,5.27343 0.98438,-4.13086 1.16016,-4.76367 l 4.9043,-17.40234 h 4.11328 l 3.6914,13.04297 q 1.38868,4.85156 2.00391,9.12304 0.49219,-2.44336 1.2832,-5.60742 l 4.04297,-16.55859 h 3.42774 l -7.06641,25.76953 h -3.28711 l -5.43164,-19.63477 q -0.68555,-2.46093 -0.80859,-3.02343 -0.4043,1.77539 -0.75586,3.02343 l -5.4668,19.63477 z m 29.07422,0 v -25.76953 h 3.16406 v 9.24609 q 2.21485,-2.5664 5.58985,-2.5664 2.07422,0 3.60351,0.82617 1.5293,0.80859 2.17969,2.25 0.66797,1.4414 0.66797,4.18359 v 11.83008 h -3.16406 v -11.83008 q 0,-2.37305 -1.03711,-3.44531 -1.01953,-1.08985 -2.90039,-1.08985 -1.40625,0 -2.6543,0.73829 -1.23047,0.7207 -1.75781,1.96875 -0.52735,1.24804 -0.52735,3.44531 v 10.21289 z m 20.03906,-22.13086 v -3.63867 h 3.16407 v 3.63867 z m 0,22.13086 v -18.66797 h 3.16407 v 18.66797 z m 20.16211,-6.83789 3.11133,0.4043 q -0.50976,3.21679 -2.61914,5.04492 -2.0918,1.81054 -5.15039,1.81054 -3.83203,0 -6.16992,-2.49609 -2.32031,-2.51367 -2.32031,-7.18945 0,-3.02344 1.00195,-5.29102 1.00195,-2.26758 3.04101,-3.39258 2.05664,-1.14257 4.46485,-1.14257 3.04101,0 4.97461,1.54687 1.93359,1.5293 2.47851,4.35938 l -3.07617,0.4746 q -0.43945,-1.88085 -1.56445,-2.83007 -1.10742,-0.94922 -2.68946,-0.94922 -2.39062,0 -3.88476,1.72265 -1.49414,1.70508 -1.49414,5.41407 0,3.76172 1.4414,5.46679 1.44141,1.70508 3.76172,1.70508 1.86328,0 3.11133,-1.14258 1.24805,-1.14257 1.58203,-3.51562 z m 5.81836,6.83789 v -25.76953 h 3.16406 v 9.24609 q 2.21485,-2.5664 5.58985,-2.5664 2.07422,0 3.60351,0.82617 1.5293,0.80859 2.17969,2.25 0.66797,1.4414 0.66797,4.18359 v 11.83008 h -3.16406 v -11.83008 q 0,-2.37305 -1.03711,-3.44531 -1.01953,-1.08985 -2.90039,-1.08985 -1.40625,0 -2.6543,0.73829 -1.23047,0.7207 -1.75781,1.96875 -0.52735,1.24804 -0.52735,3.44531 v 10.21289 z m 30.02344,7.1543 v -25.82227 h 2.88281 v 2.42578 q 1.01953,-1.42383 2.30274,-2.12695 1.2832,-0.7207 3.11132,-0.7207 2.39063,0 4.21875,1.23046 1.82813,1.23047 2.75977,3.48047 0.93164,2.23242 0.93164,4.9043 0,2.86523 -1.03711,5.16797 -1.01953,2.28515 -2.98828,3.51562 -1.95117,1.21289 -4.11328,1.21289 -1.58203,0 -2.84766,-0.66796 -1.24804,-0.66797 -2.05664,-1.6875 v 9.08789 z m 2.86523,-16.38282 q 0,3.60352 1.45899,5.32618 1.45898,1.72265 3.5332,1.72265 2.10938,0 3.60352,-1.77539 1.51172,-1.79297 1.51172,-5.53711 0,-3.56836 -1.47657,-5.34375 -1.45898,-1.77539 -3.49804,-1.77539 -2.02149,0 -3.58594,1.89844 -1.54688,1.88086 -1.54688,5.48437 z m 17.1211,9.22852 v -18.66797 h 2.84765 v 2.83008 q 1.08985,-1.98633 2.00391,-2.61914 0.93164,-0.63281 2.03906,-0.63281 1.59961,0 3.25196,1.01953 l -1.08985,2.93554 q -1.16015,-0.68554 -2.32031,-0.68554 -1.03711,0 -1.86328,0.63281 -0.82617,0.61523 -1.17774,1.72266 -0.52734,1.6875 -0.52734,3.6914 v 9.77344 z m 10.8457,-9.33399 q 0,-5.18554 2.88281,-7.68164 2.40821,-2.07421 5.8711,-2.07421 3.84961,0 6.29297,2.53125 2.44336,2.51367 2.44336,6.96093 0,3.60352 -1.08985,5.67774 -1.07226,2.05664 -3.14648,3.19922 -2.05664,1.14257 -4.5,1.14257 -3.91992,0 -6.34571,-2.51367 -2.4082,-2.51367 -2.4082,-7.24219 z m 3.25195,0 q 0,3.58594 1.56446,5.37891 1.56445,1.77539 3.9375,1.77539 2.35547,0 3.91992,-1.79297 1.56445,-1.79297 1.56445,-5.46679 0,-3.46289 -1.58203,-5.23829 -1.56445,-1.79296 -3.90234,-1.79296 -2.37305,0 -3.9375,1.77539 -1.56446,1.77539 -1.56446,5.36132 z m 30.12891,2.4961 3.11133,0.4043 q -0.50977,3.21679 -2.61914,5.04492 -2.0918,1.81054 -5.15039,1.81054 -3.83203,0 -6.16992,-2.49609 -2.32032,-2.51367 -2.32032,-7.18945 0,-3.02344 1.00196,-5.29102 1.00195,-2.26758 3.04101,-3.39258 2.05664,-1.14257 4.46485,-1.14257 3.04101,0 4.9746,1.54687 1.9336,1.5293 2.47852,4.35938 l -3.07617,0.4746 q -0.43945,-1.88085 -1.56445,-2.83007 -1.10743,-0.94922 -2.68946,-0.94922 -2.39062,0 -3.88476,1.72265 -1.49414,1.70508 -1.49414,5.41407 0,3.76172 1.4414,5.46679 1.44141,1.70508 3.76172,1.70508 1.86328,0 3.11133,-1.14258 1.24805,-1.14257 1.58203,-3.51562 z m 18.59766,0.82617 3.26953,0.4043 q -0.77344,2.86523 -2.86524,4.44726 -2.09179,1.58203 -5.34375,1.58203 -4.0957,0 -6.5039,-2.51367 -2.39063,-2.53125 -2.39063,-7.08398 0,-4.71094 2.42578,-7.3125 2.42578,-2.60156 6.29297,-2.60156 3.74414,0 6.11719,2.54882 2.37305,2.54883 2.37305,7.17188 0,0.28125 -0.0176,0.84375 h -13.92188 q 0.17578,3.07617 1.74024,4.71094 1.56445,1.63476 3.90234,1.63476 1.74024,0 2.9707,-0.91406 1.23047,-0.91406 1.95118,-2.91797 z m -10.38868,-5.11523 h 10.42383 q -0.21093,-2.35547 -1.19531,-3.53321 -1.51172,-1.82812 -3.91992,-1.82812 -2.17969,0 -3.67383,1.45898 -1.47656,1.45899 -1.63477,3.90235 z m 16.36524,5.55468 3.12891,-0.49218 q 0.26367,1.88086 1.45898,2.88281 1.21289,1.00195 3.375,1.00195 2.17969,0 3.23437,-0.8789 1.05469,-0.89649 1.05469,-2.0918 0,-1.07227 -0.93164,-1.6875 -0.65039,-0.42188 -3.23437,-1.07227 -3.48047,-0.8789 -4.83399,-1.51172 -1.33594,-0.65039 -2.03906,-1.77539 -0.68555,-1.14257 -0.68555,-2.51367 0,-1.24805 0.5625,-2.30273 0.58008,-1.07227 1.56446,-1.77539 0.73828,-0.54493 2.0039,-0.91407 1.28321,-0.38671 2.74219,-0.38671 2.19727,0 3.84961,0.63281 1.66992,0.63281 2.46094,1.72265 0.79101,1.07227 1.08984,2.88282 l -3.09375,0.42187 q -0.21094,-1.4414 -1.23047,-2.25 -1.00195,-0.80859 -2.84765,-0.80859 -2.17969,0 -3.11133,0.7207 -0.93164,0.7207 -0.93164,1.6875 0,0.61524 0.38672,1.10742 0.38671,0.50977 1.21289,0.84375 0.47461,0.17578 2.79492,0.8086 3.35742,0.89648 4.67578,1.47656 1.33594,0.5625 2.0918,1.65234 0.75586,1.08985 0.75586,2.70703 0,1.58204 -0.93165,2.98829 -0.91406,1.38867 -2.65429,2.1621 -1.74024,0.75586 -3.9375,0.75586 -3.63867,0 -5.55469,-1.51171 -1.89844,-1.51172 -2.42578,-4.48243 z m 18,0 3.12891,-0.49218 q 0.26367,1.88086 1.45898,2.88281 1.21289,1.00195 3.375,1.00195 2.17969,0 3.23437,-0.8789 1.05469,-0.89649 1.05469,-2.0918 0,-1.07227 -0.93164,-1.6875 -0.65039,-0.42188 -3.23437,-1.07227 -3.48047,-0.8789 -4.83399,-1.51172 -1.33594,-0.65039 -2.03906,-1.77539 -0.68555,-1.14257 -0.68555,-2.51367 0,-1.24805 0.5625,-2.30273 0.58008,-1.07227 1.56446,-1.77539 0.73828,-0.54493 2.0039,-0.91407 1.28321,-0.38671 2.74219,-0.38671 2.19727,0 3.84961,0.63281 1.66992,0.63281 2.46094,1.72265 0.79101,1.07227 1.08984,2.88282 l -3.09375,0.42187 q -0.21094,-1.4414 -1.23047,-2.25 -1.00195,-0.80859 -2.84765,-0.80859 -2.17969,0 -3.11133,0.7207 -0.93164,0.7207 -0.93164,1.6875 0,0.61524 0.38672,1.10742 0.38671,0.50977 1.21289,0.84375 0.47461,0.17578 2.79492,0.8086 3.35742,0.89648 4.67578,1.47656 1.33594,0.5625 2.0918,1.65234 0.75586,1.08985 0.75586,2.70703 0,1.58204 -0.93165,2.98829 -0.91406,1.38867 -2.65429,2.1621 -1.74024,0.75586 -3.9375,0.75586 -3.63867,0 -5.55469,-1.51171 -1.89844,-1.51172 -2.42578,-4.48243 z m 32.04492,-0.43945 3.26953,0.4043 q -0.77344,2.86523 -2.86523,4.44726 -2.0918,1.58203 -5.34375,1.58203 -4.09571,0 -6.50391,-2.51367 -2.39062,-2.53125 -2.39062,-7.08398 0,-4.71094 2.42578,-7.3125 2.42578,-2.60156 6.29297,-2.60156 3.74414,0 6.11718,2.54882 2.37305,2.54883 2.37305,7.17188 0,0.28125 -0.0176,0.84375 h -13.92187 q 0.17578,3.07617 1.74023,4.71094 1.56446,1.63476 3.90235,1.63476 1.74023,0 2.9707,-0.91406 1.23047,-0.91406 1.95117,-2.91797 z m -10.38867,-5.11523 h 10.42383 q -0.21094,-2.35547 -1.19532,-3.53321 -1.51171,-1.82812 -3.91992,-1.82812 -2.17968,0 -3.67383,1.45898 -1.47656,1.45899 -1.63476,3.90235 z m 16.36523,5.55468 3.12891,-0.49218 q 0.26367,1.88086 1.45898,2.88281 1.21289,1.00195 3.375,1.00195 2.17969,0 3.23438,-0.8789 1.05469,-0.89649 1.05469,-2.0918 0,-1.07227 -0.93164,-1.6875 -0.65039,-0.42188 -3.23438,-1.07227 -3.48047,-0.8789 -4.83398,-1.51172 -1.33594,-0.65039 -2.03907,-1.77539 -0.68554,-1.14257 -0.68554,-2.51367 0,-1.24805 0.5625,-2.30273 0.58008,-1.07227 1.56445,-1.77539 0.73828,-0.54493 2.00391,-0.91407 1.2832,-0.38671 2.74218,-0.38671 2.19727,0 3.84961,0.63281 1.66993,0.63281 2.46094,1.72265 0.79102,1.07227 1.08984,2.88282 l -3.09375,0.42187 q -0.21093,-1.4414 -1.23046,-2.25 -1.00196,-0.80859 -2.84766,-0.80859 -2.17969,0 -3.11133,0.7207 -0.93164,0.7207 -0.93164,1.6875 0,0.61524 0.38672,1.10742 0.38672,0.50977 1.21289,0.84375 0.47461,0.17578 2.79492,0.8086 3.35742,0.89648 4.67578,1.47656 1.33594,0.5625 2.0918,1.65234 0.75586,1.08985 0.75586,2.70703 0,1.58204 -0.93164,2.98829 -0.91406,1.38867 -2.6543,2.1621 -1.74023,0.75586 -3.9375,0.75586 -3.63867,0 -5.55469,-1.51171 -1.89843,-1.51172 -2.42578,-4.48243 z"
         id="path1" />
      <path
         style="fill:currentColor;line-height:1.25"
         d="m 403.06348,397.42716 v -16.20703 h -2.79493 v -2.46094 h 2.79493 v -1.98633 q 0,-1.88086 0.33398,-2.79492 0.45703,-1.23047 1.59961,-1.98633 1.16016,-0.77344 3.23438,-0.77344 1.33593,0 2.95312,0.31641 l -0.47461,2.75977 q -0.98437,-0.17578 -1.86328,-0.17578 -1.44141,0 -2.03906,0.61523 -0.59766,0.61523 -0.59766,2.30273 v 1.72266 h 3.63867 v 2.46094 h -3.63867 v 16.20703 z m 9.26367,-22.13086 v -3.63867 h 3.16406 v 3.63867 z m 0,22.13086 v -18.66797 h 3.16406 v 18.66797 z m 7.91015,0 v -25.76953 h 3.16407 v 25.76953 z m 7.99805,0 v -25.76953 h 3.16406 v 25.76953 z m 30.30469,0 v -2.74219 q -2.17969,3.16406 -5.92383,3.16406 -1.65234,0 -3.09375,-0.63281 -1.42383,-0.63281 -2.12695,-1.58203 -0.68555,-0.9668 -0.9668,-2.35547 -0.19336,-0.93164 -0.19336,-2.95312 v -11.56641 h 3.16406 v 10.35352 q 0,2.47851 0.19336,3.33984 0.29883,1.24805 1.26563,1.96875 0.9668,0.70312 2.39062,0.70312 1.42383,0 2.67188,-0.7207 1.24805,-0.73828 1.75781,-1.98633 0.52734,-1.26562 0.52734,-3.65625 v -10.00195 h 3.16407 v 18.66797 z m 7.78711,7.1543 v -25.82227 h 2.88281 v 2.42578 q 1.01953,-1.42383 2.30274,-2.12695 1.2832,-0.7207 3.11132,-0.7207 2.39063,0 4.21875,1.23046 1.82813,1.23047 2.75977,3.48047 0.93164,2.23242 0.93164,4.9043 0,2.86523 -1.03711,5.16797 -1.01953,2.28515 -2.98828,3.51562 -1.95117,1.21289 -4.11328,1.21289 -1.58203,0 -2.84766,-0.66796 -1.24805,-0.66797 -2.05664,-1.6875 v 9.08789 z m 2.86523,-16.38282 q 0,3.60352 1.45899,5.32618 1.45898,1.72265 3.5332,1.72265 2.10938,0 3.60352,-1.77539 1.51171,-1.79297 1.51171,-5.53711 0,-3.56836 -1.47656,-5.34375 -1.45898,-1.77539 -3.49804,-1.77539 -2.02149,0 -3.58594,1.89844 -1.54688,1.88086 -1.54688,5.48437 z m 34.06641,6.39844 0.45703,2.79492 q -1.33594,0.28125 -2.39062,0.28125 -1.72266,0 -2.67188,-0.54492 -0.94922,-0.54492 -1.33594,-1.42383 -0.38672,-0.89648 -0.38672,-3.74414 v -10.74023 h -2.32031 v -2.46094 h 2.32031 v -4.62305 l 3.14649,-1.89843 v 6.52148 h 3.18164 v 2.46094 h -3.18164 v 10.91601 q 0,1.35352 0.1582,1.74024 0.17578,0.38672 0.54492,0.61523 0.38672,0.22852 1.08985,0.22852 0.52734,0 1.38867,-0.12305 z m 3.09375,2.83008 v -25.76953 h 3.16406 v 9.24609 q 2.21485,-2.5664 5.58985,-2.5664 2.07421,0 3.60351,0.82617 1.5293,0.80859 2.17969,2.25 0.66797,1.4414 0.66797,4.18359 v 11.83008 h -3.16407 v -11.83008 q 0,-2.37305 -1.0371,-3.44531 -1.01954,-1.08985 -2.9004,-1.08985 -1.40625,0 -2.65429,0.73829 -1.23047,0.7207 -1.75781,1.96875 -0.52735,1.24804 -0.52735,3.44531 v 10.21289 z M 526.3916,375.2963 v -3.63867 h 3.16406 v 3.63867 z m 0,22.13086 v -18.66797 h 3.16406 v 18.66797 z m 6.71485,-5.57227 3.1289,-0.49218 q 0.26367,1.88086 1.45899,2.88281 1.21289,1.00195 3.375,1.00195 2.17968,0 3.23437,-0.8789 1.05469,-0.89649 1.05469,-2.0918 0,-1.07227 -0.93164,-1.6875 -0.65039,-0.42188 -3.23438,-1.07227 -3.48047,-0.8789 -4.83398,-1.51172 -1.33594,-0.65039 -2.03906,-1.77539 -0.68555,-1.14257 -0.68555,-2.51367 0,-1.24805 0.5625,-2.30273 0.58008,-1.07227 1.56445,-1.77539 0.73828,-0.54493 2.00391,-0.91407 1.2832,-0.38671 2.74219,-0.38671 2.19726,0 3.84961,0.63281 1.66992,0.63281 2.46093,1.72265 0.79102,1.07227 1.08985,2.88282 l -3.09375,0.42187 q -0.21094,-1.4414 -1.23047,-2.25 -1.00196,-0.80859 -2.84766,-0.80859 -2.17969,0 -3.11133,0.7207 -0.93164,0.7207 -0.93164,1.6875 0,0.61524 0.38672,1.10742 0.38672,0.50977 1.21289,0.84375 0.47461,0.17578 2.79492,0.8086 3.35743,0.89648 4.67579,1.47656 1.33593,0.5625 2.09179,1.65234 0.75586,1.08985 0.75586,2.70703 0,1.58204 -0.93164,2.98829 -0.91406,1.38867 -2.6543,2.1621 -1.74023,0.75586 -3.9375,0.75586 -3.63867,0 -5.55468,-1.51171 -1.89844,-1.51172 -2.42578,-4.48243 z m 41.44921,-1.26562 3.11133,0.4043 q -0.50976,3.21679 -2.61914,5.04492 -2.0918,1.81054 -5.15039,1.81054 -3.83203,0 -6.16992,-2.49609 -2.32031,-2.51367 -2.32031,-7.18945 0,-3.02344 1.00195,-5.29102 1.00195,-2.26758 3.04102,-3.39258 2.05664,-1.14257 4.46484,-1.14257 3.04101,0 4.97461,1.54687 1.93359,1.5293 2.47851,4.35938 l -3.07617,0.4746 q -0.43945,-1.88085 -1.56445,-2.83007 -1.10742,-0.94922 -2.68945,-0.94922 -2.39063,0 -3.88477,1.72265 -1.49414,1.70508 -1.49414,5.41407 0,3.76172 1.44141,5.46679 1.4414,1.70508 3.76171,1.70508 1.86329,0 3.11133,-1.14258 1.24805,-1.14257 1.58203,-3.51562 z m 4.64063,-2.4961 q 0,-5.18554 2.88281,-7.68164 2.4082,-2.07421 5.8711,-2.07421 3.8496,0 6.29296,2.53125 2.44336,2.51367 2.44336,6.96093 0,3.60352 -1.08984,5.67774 -1.07227,2.05664 -3.14648,3.19922 -2.05665,1.14257 -4.5,1.14257 -3.91993,0 -6.34571,-2.51367 -2.4082,-2.51367 -2.4082,-7.24219 z m 3.25195,0 q 0,3.58594 1.56446,5.37891 1.56445,1.77539 3.9375,1.77539 2.35546,0 3.91992,-1.79297 1.56445,-1.79297 1.56445,-5.46679 0,-3.46289 -1.58203,-5.23829 -1.56445,-1.79296 -3.90234,-1.79296 -2.37305,0 -3.9375,1.77539 -1.56446,1.77539 -1.56446,5.36132 z m 17.94727,9.33399 v -18.66797 h 2.83008 v 2.61914 q 0.8789,-1.37109 2.33789,-2.19726 1.45898,-0.84375 3.32226,-0.84375 2.07422,0 3.39258,0.86132 1.33594,0.86133 1.88086,2.40821 2.21484,-3.26953 5.76562,-3.26953 2.77735,0 4.27149,1.54687 1.49414,1.5293 1.49414,4.72852 v 12.81445 h -3.14648 v -11.75977 q 0,-1.89843 -0.31641,-2.72461 -0.29883,-0.84375 -1.10742,-1.35351 -0.8086,-0.50977 -1.89844,-0.50977 -1.96875,0 -3.26953,1.31836 -1.30078,1.30078 -1.30078,4.1836 v 10.8457 h -3.16407 v -12.12891 q 0,-2.10937 -0.77343,-3.16406 -0.77344,-1.05469 -2.53125,-1.05469 -1.33594,0 -2.47852,0.70313 -1.125,0.70312 -1.63476,2.05664 -0.50977,1.35351 -0.50977,3.90234 v 9.68555 z m 29.98828,7.1543 v -25.82227 h 2.88281 v 2.42578 q 1.01953,-1.42383 2.30274,-2.12695 1.2832,-0.7207 3.11132,-0.7207 2.39063,0 4.21875,1.23046 1.82813,1.23047 2.75977,3.48047 0.93164,2.23242 0.93164,4.9043 0,2.86523 -1.03711,5.16797 -1.01953,2.28515 -2.98828,3.51562 -1.95117,1.21289 -4.11328,1.21289 -1.58203,0 -2.84766,-0.66796 -1.24804,-0.66797 -2.05664,-1.6875 v 9.08789 z m 2.86523,-16.38282 q 0,3.60352 1.45899,5.32618 1.45898,1.72265 3.5332,1.72265 2.10938,0 3.60352,-1.77539 1.51172,-1.79297 1.51172,-5.53711 0,-3.56836 -1.47657,-5.34375 -1.45898,-1.77539 -3.49804,-1.77539 -2.02149,0 -3.58594,1.89844 -1.54688,1.88086 -1.54688,5.48437 z m 29.39063,9.22852 v -2.74219 q -2.17969,3.16406 -5.92383,3.16406 -1.65234,0 -3.09375,-0.63281 -1.42383,-0.63281 -2.12695,-1.58203 -0.68555,-0.9668 -0.9668,-2.35547 -0.19336,-0.93164 -0.19336,-2.95312 v -11.56641 h 3.16406 v 10.35352 q 0,2.47851 0.19336,3.33984 0.29883,1.24805 1.26563,1.96875 0.96679,0.70312 2.39062,0.70312 1.42383,0 2.67188,-0.7207 1.24804,-0.73828 1.75781,-1.98633 0.52734,-1.26562 0.52734,-3.65625 v -10.00195 h 3.16407 v 18.66797 z m 14.69531,-2.83008 0.45703,2.79492 q -1.33594,0.28125 -2.39062,0.28125 -1.72266,0 -2.67188,-0.54492 -0.94922,-0.54492 -1.33594,-1.42383 -0.38671,-0.89648 -0.38671,-3.74414 v -10.74023 h -2.32032 v -2.46094 h 2.32032 v -4.62305 l 3.14648,-1.89843 v 6.52148 h 3.18164 v 2.46094 h -3.18164 v 10.91601 q 0,1.35352 0.1582,1.74024 0.17578,0.38672 0.54493,0.61523 0.38671,0.22852 1.08984,0.22852 0.52734,0 1.38867,-0.12305 z m 15.87305,-3.18164 3.26953,0.4043 q -0.77344,2.86523 -2.86524,4.44726 -2.09179,1.58203 -5.34375,1.58203 -4.0957,0 -6.5039,-2.51367 -2.39063,-2.53125 -2.39063,-7.08398 0,-4.71094 2.42578,-7.3125 2.42579,-2.60156 6.29297,-2.60156 3.74414,0 6.11719,2.54882 2.37305,2.54883 2.37305,7.17188 0,0.28125 -0.0176,0.84375 h -13.92188 q 0.17579,3.07617 1.74024,4.71094 1.56445,1.63476 3.90234,1.63476 1.74024,0 2.97071,-0.91406 1.23046,-0.91406 1.95117,-2.91797 z m -10.38867,-5.11523 h 10.42382 q -0.21093,-2.35547 -1.19531,-3.53321 -1.51172,-1.82812 -3.91992,-1.82812 -2.17969,0 -3.67383,1.45898 -1.47656,1.45899 -1.63476,3.90235 z m 17.5957,11.12695 v -18.66797 h 2.84766 v 2.83008 q 1.08984,-1.98633 2.0039,-2.61914 0.93164,-0.63281 2.03906,-0.63281 1.59961,0 3.25196,1.01953 l -1.08985,2.93554 q -1.16015,-0.68554 -2.32031,-0.68554 -1.03711,0 -1.86328,0.63281 -0.82617,0.61523 -1.17773,1.72266 -0.52735,1.6875 -0.52735,3.6914 v 9.77344 z"
         id="path2" />
      <path
         style="fill:currentColor;line-height:1.25"
         d="m 401.46387,440.12442 q -1.75782,1.49415 -3.39258,2.10938 -1.61719,0.61523 -3.48047,0.61523 -3.07617,0 -4.72852,-1.49414 -1.65234,-1.51172 -1.65234,-3.84961 0,-1.37109 0.61524,-2.49609 0.63281,-1.14258 1.63476,-1.82812 1.01953,-0.68555 2.28516,-1.03711 0.93164,-0.2461 2.8125,-0.47461 3.83203,-0.45703 5.64258,-1.08985 0.0176,-0.65039 0.0176,-0.82617 0,-1.93359 -0.89648,-2.72461 -1.21289,-1.07226 -3.60352,-1.07226 -2.23242,0 -3.30468,0.79101 -1.05469,0.77344 -1.56446,2.75977 l -3.09375,-0.42188 q 0.42188,-1.98633 1.38867,-3.19922 0.9668,-1.23047 2.79493,-1.88086 1.82812,-0.66796 4.23632,-0.66796 2.39063,0 3.88477,0.5625 1.49414,0.5625 2.19727,1.42382 0.70312,0.84375 0.98437,2.14453 0.1582,0.8086 0.1582,2.91797 v 4.21875 q 0,4.41211 0.19336,5.58985 0.21094,1.16015 0.8086,2.23242 h -3.30469 q -0.49219,-0.98438 -0.63281,-2.30274 z m -0.26367,-7.0664 q -1.72266,0.70312 -5.16797,1.19531 -1.95118,0.28125 -2.75977,0.63281 -0.80859,0.35157 -1.24805,1.03711 -0.43945,0.66797 -0.43945,1.49414 0,1.26563 0.94922,2.10938 0.9668,0.84375 2.8125,0.84375 1.82812,0 3.25195,-0.79102 1.42383,-0.80859 2.0918,-2.19726 0.50977,-1.07227 0.50977,-3.16407 z m 6.83789,3.79687 3.1289,-0.49218 q 0.26367,1.88086 1.45899,2.88281 1.21289,1.00195 3.375,1.00195 2.17968,0 3.23437,-0.8789 1.05469,-0.89649 1.05469,-2.0918 0,-1.07227 -0.93164,-1.6875 -0.65039,-0.42188 -3.23438,-1.07227 -3.48047,-0.8789 -4.83398,-1.51172 -1.33594,-0.65039 -2.03906,-1.77539 -0.68555,-1.14257 -0.68555,-2.51367 0,-1.24805 0.5625,-2.30273 0.58008,-1.07227 1.56445,-1.77539 0.73828,-0.54493 2.00391,-0.91407 1.2832,-0.38671 2.74219,-0.38671 2.19726,0 3.84961,0.63281 1.66992,0.63281 2.46093,1.72265 0.79102,1.07227 1.08985,2.88282 l -3.09375,0.42187 q -0.21094,-1.4414 -1.23047,-2.25 -1.00195,-0.80859 -2.84766,-0.80859 -2.17969,0 -3.11133,0.7207 -0.93164,0.7207 -0.93164,1.6875 0,0.61524 0.38672,1.10742 0.38672,0.50977 1.21289,0.84375 0.47461,0.17578 2.79492,0.8086 3.35743,0.89648 4.67579,1.47656 1.33593,0.5625 2.09179,1.65234 0.75586,1.08985 0.75586,2.70703 0,1.58204 -0.93164,2.98829 -0.91406,1.38867 -2.6543,2.1621 -1.74023,0.75586 -3.9375,0.75586 -3.63867,0 -5.55468,-1.51171 -1.89844,-1.51172 -2.42578,-4.48243 z m 29.26757,5.57227 v -18.66797 h 2.83008 v 2.61914 q 0.87891,-1.37109 2.33789,-2.19726 1.45899,-0.84375 3.32227,-0.84375 2.07422,0 3.39258,0.86132 1.33593,0.86133 1.88086,2.40821 2.21484,-3.26953 5.76562,-3.26953 2.77734,0 4.27149,1.54687 1.49414,1.5293 1.49414,4.72852 v 12.81445 h -3.14649 v -11.75977 q 0,-1.89843 -0.3164,-2.72461 -0.29883,-0.84375 -1.10743,-1.35351 -0.80859,-0.50977 -1.89843,-0.50977 -1.96875,0 -3.26954,1.31836 -1.30078,1.30078 -1.30078,4.1836 v 10.8457 h -3.16406 v -12.12891 q 0,-2.10937 -0.77344,-3.16406 -0.77343,-1.05469 -2.53125,-1.05469 -1.33593,0 -2.47851,0.70313 -1.125,0.70312 -1.63477,2.05664 -0.50976,1.35351 -0.50976,3.90234 v 9.68555 z m 42.22266,0 v -2.74219 q -2.17969,3.16406 -5.92383,3.16406 -1.65234,0 -3.09375,-0.63281 -1.42383,-0.63281 -2.12695,-1.58203 -0.68555,-0.9668 -0.9668,-2.35547 -0.19336,-0.93164 -0.19336,-2.95312 v -11.56641 h 3.16407 v 10.35352 q 0,2.47851 0.19335,3.33984 0.29883,1.24805 1.26563,1.96875 0.9668,0.70312 2.39062,0.70312 1.42383,0 2.67188,-0.7207 1.24805,-0.73828 1.75781,-1.98633 0.52735,-1.26562 0.52735,-3.65625 v -10.00195 h 3.16406 v 18.66797 z m 19.96875,-6.83789 3.11133,0.4043 q -0.50977,3.21679 -2.61914,5.04492 -2.0918,1.81054 -5.15039,1.81054 -3.83203,0 -6.16992,-2.49609 -2.32032,-2.51367 -2.32032,-7.18945 0,-3.02344 1.00196,-5.29102 1.00195,-2.26758 3.04101,-3.39258 2.05664,-1.14257 4.46485,-1.14257 3.04101,0 4.9746,1.54687 1.9336,1.5293 2.47852,4.35938 l -3.07617,0.4746 q -0.43945,-1.88085 -1.56445,-2.83007 -1.10743,-0.94922 -2.68946,-0.94922 -2.39062,0 -3.88476,1.72265 -1.49414,1.70508 -1.49414,5.41407 0,3.76172 1.4414,5.46679 1.44141,1.70508 3.76172,1.70508 1.86328,0 3.11133,-1.14258 1.24805,-1.14257 1.58203,-3.51562 z m 5.81836,6.83789 v -25.76953 h 3.16406 v 9.24609 q 2.21485,-2.5664 5.58985,-2.5664 2.07421,0 3.60351,0.82617 1.5293,0.80859 2.17969,2.25 0.66797,1.4414 0.66797,4.18359 v 11.83008 h -3.16406 v -11.83008 q 0,-2.37305 -1.03711,-3.44531 -1.01954,-1.08985 -2.90039,-1.08985 -1.40625,0 -2.6543,0.73829 -1.23047,0.7207 -1.75781,1.96875 -0.52735,1.24804 -0.52735,3.44531 v 10.21289 z m 42.20508,-2.30274 q -1.75781,1.49415 -3.39258,2.10938 -1.61719,0.61523 -3.48047,0.61523 -3.07617,0 -4.72851,-1.49414 -1.65235,-1.51172 -1.65235,-3.84961 0,-1.37109 0.61524,-2.49609 0.63281,-1.14258 1.63476,-1.82812 1.01953,-0.68555 2.28516,-1.03711 0.93164,-0.2461 2.8125,-0.47461 3.83203,-0.45703 5.64258,-1.08985 0.0176,-0.65039 0.0176,-0.82617 0,-1.93359 -0.89648,-2.72461 -1.21289,-1.07226 -3.60352,-1.07226 -2.23242,0 -3.30468,0.79101 -1.05469,0.77344 -1.56446,2.75977 l -3.09375,-0.42188 q 0.42188,-1.98633 1.38868,-3.19922 0.96679,-1.23047 2.79492,-1.88086 1.82812,-0.66796 4.23633,-0.66796 2.39062,0 3.88476,0.5625 1.49414,0.5625 2.19727,1.42382 0.70312,0.84375 0.98437,2.14453 0.1582,0.8086 0.1582,2.91797 v 4.21875 q 0,4.41211 0.19336,5.58985 0.21094,1.16015 0.8086,2.23242 h -3.30469 q -0.49219,-0.98438 -0.63281,-2.30274 z m -0.26367,-7.0664 q -1.72266,0.70312 -5.16797,1.19531 -1.95117,0.28125 -2.75977,0.63281 -0.80859,0.35157 -1.24805,1.03711 -0.43945,0.66797 -0.43945,1.49414 0,1.26563 0.94922,2.10938 0.9668,0.84375 2.8125,0.84375 1.82813,0 3.25195,-0.79102 1.42383,-0.80859 2.0918,-2.19726 0.50977,-1.07227 0.50977,-3.16407 z m 6.83789,3.79687 3.1289,-0.49218 q 0.26367,1.88086 1.45899,2.88281 1.21289,1.00195 3.375,1.00195 2.17968,0 3.23437,-0.8789 1.05469,-0.89649 1.05469,-2.0918 0,-1.07227 -0.93164,-1.6875 -0.65039,-0.42188 -3.23438,-1.07227 -3.48046,-0.8789 -4.83398,-1.51172 -1.33594,-0.65039 -2.03906,-1.77539 -0.68555,-1.14257 -0.68555,-2.51367 0,-1.24805 0.5625,-2.30273 0.58008,-1.07227 1.56445,-1.77539 0.73828,-0.54493 2.00391,-0.91407 1.2832,-0.38671 2.74219,-0.38671 2.19726,0 3.84961,0.63281 1.66992,0.63281 2.46093,1.72265 0.79102,1.07227 1.08985,2.88282 l -3.09375,0.42187 q -0.21094,-1.4414 -1.23047,-2.25 -1.00195,-0.80859 -2.84766,-0.80859 -2.17968,0 -3.11133,0.7207 -0.93164,0.7207 -0.93164,1.6875 0,0.61524 0.38672,1.10742 0.38672,0.50977 1.21289,0.84375 0.47461,0.17578 2.79493,0.8086 3.35742,0.89648 4.67578,1.47656 1.33593,0.5625 2.09179,1.65234 0.75586,1.08985 0.75586,2.70703 0,1.58204 -0.93164,2.98829 -0.91406,1.38867 -2.65429,2.1621 -1.74024,0.75586 -3.9375,0.75586 -3.63868,0 -5.55469,-1.51171 -1.89844,-1.51172 -2.42578,-4.48243 z m 29.26757,12.72657 v -25.82227 h 2.88282 v 2.42578 q 1.01953,-1.42383 2.30273,-2.12695 1.2832,-0.7207 3.11133,-0.7207 2.39062,0 4.21875,1.23046 1.82812,1.23047 2.75977,3.48047 0.93164,2.23242 0.93164,4.9043 0,2.86523 -1.03711,5.16797 -1.01953,2.28515 -2.98828,3.51562 -1.95118,1.21289 -4.11329,1.21289 -1.58203,0 -2.84765,-0.66796 -1.24805,-0.66797 -2.05664,-1.6875 v 9.08789 z m 2.86524,-16.38282 q 0,3.60352 1.45898,5.32618 1.45899,1.72265 3.53321,1.72265 2.10937,0 3.60351,-1.77539 1.51172,-1.79297 1.51172,-5.53711 0,-3.56836 -1.47656,-5.34375 -1.45899,-1.77539 -3.49805,-1.77539 -2.02148,0 -3.58594,1.89844 -1.54687,1.88086 -1.54687,5.48437 z m 15.97851,-0.10547 q 0,-5.18554 2.88282,-7.68164 2.4082,-2.07421 5.87109,-2.07421 3.84961,0 6.29297,2.53125 2.44336,2.51367 2.44336,6.96093 0,3.60352 -1.08984,5.67774 -1.07227,2.05664 -3.14649,3.19922 -2.05664,1.14257 -4.5,1.14257 -3.91992,0 -6.3457,-2.51367 -2.40821,-2.51367 -2.40821,-7.24219 z m 3.25196,0 q 0,3.58594 1.56445,5.37891 1.56445,1.77539 3.9375,1.77539 2.35547,0 3.91992,-1.79297 1.56446,-1.79297 1.56446,-5.46679 0,-3.46289 -1.58204,-5.23829 -1.56445,-1.79296 -3.90234,-1.79296 -2.37305,0 -3.9375,1.77539 -1.56445,1.77539 -1.56445,5.36132 z m 16.68164,3.76172 3.1289,-0.49218 q 0.26368,1.88086 1.45899,2.88281 1.21289,1.00195 3.375,1.00195 2.17969,0 3.23437,-0.8789 1.05469,-0.89649 1.05469,-2.0918 0,-1.07227 -0.93164,-1.6875 -0.65039,-0.42188 -3.23437,-1.07227 -3.48047,-0.8789 -4.83399,-1.51172 -1.33594,-0.65039 -2.03906,-1.77539 -0.68555,-1.14257 -0.68555,-2.51367 0,-1.24805 0.5625,-2.30273 0.58008,-1.07227 1.56446,-1.77539 0.73828,-0.54493 2.0039,-0.91407 1.2832,-0.38671 2.74219,-0.38671 2.19726,0 3.84961,0.63281 1.66992,0.63281 2.46094,1.72265 0.79101,1.07227 1.08984,2.88282 l -3.09375,0.42187 q -0.21094,-1.4414 -1.23047,-2.25 -1.00195,-0.80859 -2.84766,-0.80859 -2.17968,0 -3.11132,0.7207 -0.93164,0.7207 -0.93164,1.6875 0,0.61524 0.38671,1.10742 0.38672,0.50977 1.2129,0.84375 0.4746,0.17578 2.79492,0.8086 3.35742,0.89648 4.67578,1.47656 1.33594,0.5625 2.0918,1.65234 0.75585,1.08985 0.75585,2.70703 0,1.58204 -0.93164,2.98829 -0.91406,1.38867 -2.65429,2.1621 -1.74024,0.75586 -3.9375,0.75586 -3.63867,0 -5.55469,-1.51171 -1.89844,-1.51172 -2.42578,-4.48243 z m 18,0 3.1289,-0.49218 q 0.26368,1.88086 1.45899,2.88281 1.21289,1.00195 3.375,1.00195 2.17969,0 3.23437,-0.8789 1.05469,-0.89649 1.05469,-2.0918 0,-1.07227 -0.93164,-1.6875 -0.65039,-0.42188 -3.23437,-1.07227 -3.48047,-0.8789 -4.83399,-1.51172 -1.33594,-0.65039 -2.03906,-1.77539 -0.68555,-1.14257 -0.68555,-2.51367 0,-1.24805 0.5625,-2.30273 0.58008,-1.07227 1.56446,-1.77539 0.73828,-0.54493 2.0039,-0.91407 1.2832,-0.38671 2.74219,-0.38671 2.19726,0 3.84961,0.63281 1.66992,0.63281 2.46094,1.72265 0.79101,1.07227 1.08984,2.88282 l -3.09375,0.42187 q -0.21094,-1.4414 -1.23047,-2.25 -1.00195,-0.80859 -2.84766,-0.80859 -2.17968,0 -3.11132,0.7207 -0.93164,0.7207 -0.93164,1.6875 0,0.61524 0.38671,1.10742 0.38672,0.50977 1.2129,0.84375 0.4746,0.17578 2.79492,0.8086 3.35742,0.89648 4.67578,1.47656 1.33594,0.5625 2.0918,1.65234 0.75585,1.08985 0.75585,2.70703 0,1.58204 -0.93164,2.98829 -0.91406,1.38867 -2.65429,2.1621 -1.74024,0.75586 -3.9375,0.75586 -3.63867,0 -5.55469,-1.51171 -1.89844,-1.51172 -2.42578,-4.48243 z m 19.2832,-16.55859 v -3.63867 h 3.16406 v 3.63867 z m 0,22.13086 v -18.66797 h 3.16406 v 18.66797 z m 10.89844,0 h -2.93555 v -25.76953 h 3.16406 v 9.19336 q 2.00391,-2.51367 5.11524,-2.51367 1.72266,0 3.25195,0.70312 1.54688,0.68555 2.53125,1.95117 1.00196,1.24805 1.56446,3.02344 0.5625,1.77539 0.5625,3.79687 0,4.79883 -2.37305,7.41797 -2.37305,2.61914 -5.69531,2.61914 -3.30469,0 -5.18555,-2.75976 z m -0.0352,-9.47461 q 0,3.35742 0.91407,4.85156 1.49414,2.44336 4.04296,2.44336 2.07422,0 3.58594,-1.79297 1.51172,-1.81054 1.51172,-5.3789 0,-3.65625 -1.45898,-5.39649 -1.44141,-1.74023 -3.49805,-1.74023 -2.07422,0 -3.58594,1.81054 -1.51172,1.79297 -1.51172,5.20313 z m 17.06836,9.47461 v -25.76953 h 3.16406 v 25.76953 z m 20.84766,-6.01172 3.26953,0.4043 q -0.77344,2.86523 -2.86523,4.44726 -2.0918,1.58203 -5.34375,1.58203 -4.09571,0 -6.50391,-2.51367 -2.39063,-2.53125 -2.39063,-7.08398 0,-4.71094 2.42579,-7.3125 2.42578,-2.60156 6.29296,-2.60156 3.74414,0 6.11719,2.54882 2.37305,2.54883 2.37305,7.17188 0,0.28125 -0.0176,0.84375 H 697.6377 q 0.17578,3.07617 1.74023,4.71094 1.56445,1.63476 3.90234,1.63476 1.74024,0 2.97071,-0.91406 1.23047,-0.91406 1.95117,-2.91797 z m -10.38867,-5.11523 h 10.42382 q -0.21093,-2.35547 -1.19531,-3.53321 -1.51172,-1.82812 -3.91992,-1.82812 -2.17969,0 -3.67383,1.45898 -1.47656,1.45899 -1.63476,3.90235 z m 23.55468,4.78125 q -0.0176,-0.63282 -0.0176,-0.94922 0,-1.86328 0.52734,-3.2168 0.38672,-1.01953 1.24805,-2.05664 0.63281,-0.75586 2.26757,-2.19727 1.65235,-1.45898 2.14454,-2.32031 0.49218,-0.86133 0.49218,-1.88086 0,-1.8457 -1.4414,-3.23437 -1.44141,-1.40625 -3.53321,-1.40625 -2.02148,0 -3.375,1.26562 -1.35351,1.26563 -1.77539,3.95508 l -3.25195,-0.38672 q 0.43945,-3.60351 2.60156,-5.51953 2.17969,-1.91602 5.74805,-1.91602 3.7793,0 6.0293,2.05665 2.25,2.05664 2.25,4.9746 0,1.6875 -0.79102,3.11133 -0.79101,1.42383 -3.09375,3.46289 -1.54687,1.3711 -2.02148,2.02149 -0.47461,0.65039 -0.70313,1.49414 -0.22851,0.84375 -0.26367,2.74219 z m -0.19336,6.3457 v -3.60352 h 3.60352 v 3.60352 z"
         id="path3" />
    </g>
  </g>
  <g
     id="layer2"
     style="display:inline">
    <rect
       
       
       y="420"
       x="450"
       height="50"
       width="230"
       id="rect3746"
       style="opacity:0.3;fill:#8ae234;fill-opacity:1;stroke:none" />
    <rect
       style="fill:#ffffff;fill-opacity:1;stroke:none" rx="5" ry="5"
       id="rect3748"
       width="209.00002"
       height="29"
       x="460.5"
       y="430.5"
       
        />
    <rect
       
       
       y="430.5"
       x="460.5"
       height="29"
       width="209.00002"
       id="rect3294"
       style="fill:none;stroke:currentColor;stroke-width:1;stroke-linecap:round;stroke-linejoin:round;stroke-miterlimit:4;stroke-dasharray:none" />
    <g
       id="g3819"
       transform="translate(500,-172.36218)">
      <rect
         
         
         y="602.86218"
         x="20.5"
         height="29"
         width="149"
         id="rect3821"
         style="fill: #9353C9;stroke: #9353C9;stroke-width:1;stroke-linecap:round;stroke-linejoin:round;stroke-miterlimit:4;stroke-dasharray:none" /> rx="5" ry="5"
      <path
         style="fill:white;line-height:1.25;text-align:center;text-anchor:middle"
         d="m 265.3848,83.141966 1.33674,-0.113163 q 0.14853,0.976033 0.68605,1.471123 0.5446,0.488016 1.30845,0.488016 0.91945,0 1.556,-0.693125 0.63654,-0.693125 0.63654,-1.838903 0,-1.089197 -0.61532,-1.718668 -0.60826,-0.62947 -1.59844,-0.62947 -0.61532,0 -1.11041,0.282908 -0.49509,0.275835 -0.778,0.721416 l -1.19529,-0.1556 1.00433,-5.325747 h 5.156 v 1.216505 h -4.13753 l -0.55875,2.786646 q 0.9336,-0.650689 1.95914,-0.650689 1.35796,0 2.29156,0.94067 0.9336,0.94067 0.9336,2.418865 0,1.407469 -0.82044,2.433011 -0.99725,1.258942 -2.72299,1.258942 -1.41454,0 -2.31277,-0.792143 -0.89116,-0.792143 -1.01847,-2.100594 z"
         id="flowRoot3823"
         transform="matrix(1.6568991,0,0,1.6568991,-350.39408,481.72151)"
         aria-label="5" />
    </g>
    <path
       style="fill:currentColor;line-height:1.25;text-align:end;text-anchor:end;fill:#4e9a06"
       d="m 305.29785,95.288296 q 0,-2.495117 1.33985,-3.90332 1.33984,-1.415039 3.45898,-1.415039 1.38769,0 2.50195,0.663086 1.11426,0.663086 1.69532,1.852539 0.58789,1.182617 0.58789,2.686523 0,1.524414 -0.61524,2.727539 -0.61523,1.203125 -1.74316,1.825196 -1.12793,0.61523 -2.4336,0.61523 -1.41504,0 -2.52929,-0.68359 -1.11426,-0.683593 -1.68848,-1.866211 -0.57422,-1.182617 -0.57422,-2.501953 z m 1.36719,0.02051 q 0,1.811524 0.9707,2.857422 0.97754,1.039062 2.44727,1.039062 1.49707,0 2.46094,-1.052734 0.9707,-1.052734 0.9707,-2.987305 0,-1.223632 -0.41699,-2.132812 -0.41016,-0.916016 -1.20996,-1.415039 -0.79297,-0.50586 -1.78418,-0.50586 -1.40821,0 -2.42676,0.970704 -1.01172,0.963867 -1.01172,3.226562 z m 9.76855,7.642576 V 92.90939 h 1.1211 v 0.943359 q 0.39648,-0.553711 0.89551,-0.827148 0.49902,-0.280273 1.20996,-0.280273 0.92968,0 1.64062,0.478515 0.71094,0.478516 1.07324,1.353516 0.36231,0.868164 0.36231,1.907226 0,1.114258 -0.40332,2.009766 -0.39649,0.888672 -1.16211,1.367187 -0.75879,0.471682 -1.59961,0.471682 -0.61524,0 -1.10742,-0.25977 -0.48535,-0.259763 -0.79981,-0.656247 v 3.534177 z m 1.11426,-6.371092 q 0,1.401368 0.56738,2.07129 0.56739,0.669921 1.37403,0.669921 0.82031,0 1.40136,-0.690429 0.5879,-0.697266 0.5879,-2.153321 0,-1.387695 -0.57422,-2.078125 -0.56739,-0.690429 -1.36035,-0.690429 -0.78614,0 -1.39454,0.738281 -0.60156,0.731445 -0.60156,2.132812 z m 9.3584,2.488282 0.17773,1.08691 q -0.51953,0.10938 -0.92968,0.10938 -0.66993,0 -1.03907,-0.21192 -0.36914,-0.211909 -0.51953,-0.553706 -0.15039,-0.348633 -0.15039,-1.456055 v -4.176758 h -0.90234 V 92.90939 h 0.90234 v -1.797852 l 1.22364,-0.738281 v 2.536133 h 1.2373 v 0.957031 h -1.2373 v 4.245117 q 0,0.526368 0.0615,0.676758 0.0684,0.150391 0.21191,0.239258 0.15039,0.08887 0.42383,0.08887 0.20508,0 0.54004,-0.04785 z m 1.20996,-7.50586 v -1.415039 h 1.23047 v 1.415039 z m 0,8.60645 v -7.25977 h 1.23047 v 7.25977 z m 3.10352,0 v -7.25977 h 1.10058 v 1.018555 q 0.3418,-0.533203 0.90918,-0.854492 0.56738,-0.328125 1.29199,-0.328125 0.80664,0 1.31934,0.33496 0.51953,0.334961 0.73145,0.936524 0.86132,-1.271484 2.24218,-1.271484 1.08008,0 1.66114,0.601562 0.58105,0.594727 0.58105,1.838867 v 4.983403 h -1.22363 v -4.573247 q 0,-0.738281 -0.12305,-1.05957 -0.11621,-0.328125 -0.43066,-0.526367 -0.31446,-0.198242 -0.73828,-0.198242 -0.76563,0 -1.27149,0.512695 -0.50586,0.505859 -0.50586,1.626953 v 4.217778 h -1.23047 v -4.716801 q 0,-0.820313 -0.30078,-1.230469 -0.30078,-0.410156 -0.98437,-0.410156 -0.51953,0 -0.96387,0.273437 -0.4375,0.273438 -0.63574,0.799805 -0.19824,0.526367 -0.19824,1.517578 v 3.766606 z m 16.39941,-0.895512 q -0.68359,0.581055 -1.31934,0.820312 -0.6289,0.23926 -1.35351,0.23926 -1.19629,0 -1.83887,-0.581057 -0.64258,-0.58789 -0.64258,-1.49707 0,-0.533203 0.23926,-0.970703 0.2461,-0.444336 0.63574,-0.710937 0.39649,-0.266602 0.88868,-0.403321 0.3623,-0.0957 1.09375,-0.18457 1.49023,-0.177734 2.19433,-0.423828 0.007,-0.25293 0.007,-0.321289 0,-0.751953 -0.34864,-1.059571 -0.47168,-0.416992 -1.40136,-0.416992 -0.86817,0 -1.28516,0.307617 -0.41016,0.300782 -0.6084,1.073243 l -1.20312,-0.164063 q 0.16406,-0.772461 0.54004,-1.244141 0.37597,-0.478515 1.08691,-0.731445 0.71094,-0.259765 1.64746,-0.259765 0.92969,0 1.51074,0.21875 0.58106,0.21875 0.8545,0.55371 0.27343,0.328125 0.38281,0.833985 0.0615,0.314453 0.0615,1.134765 v 1.640625 q 0,1.715821 0.0752,2.173829 0.082,0.451171 0.31445,0.868168 h -1.28516 q -0.1914,-0.382817 -0.24609,-0.895512 z m -0.10254,-2.748047 q -0.66992,0.273437 -2.00976,0.464844 -0.75879,0.109375 -1.07325,0.246093 -0.31445,0.136719 -0.48535,0.403321 -0.1709,0.259765 -0.1709,0.581054 0,0.492188 0.36914,0.820313 0.37598,0.328125 1.09375,0.328125 0.71094,0 1.26465,-0.307617 0.55371,-0.314453 0.81348,-0.854492 0.19824,-0.416993 0.19824,-1.230469 z m 3.12402,3.643559 V 90.147671 h 1.23047 v 10.021489 z m 6.53516,-2.166997 1.2168,-0.191406 q 0.10254,0.731446 0.56738,1.121094 0.47168,0.389648 1.3125,0.389648 0.84766,0 1.25781,-0.341796 0.41016,-0.348633 0.41016,-0.813477 0,-0.416992 -0.36231,-0.65625 -0.25292,-0.164063 -1.25781,-0.416992 -1.35351,-0.341797 -1.87988,-0.587891 -0.51953,-0.25293 -0.79297,-0.69043 -0.2666,-0.444335 -0.2666,-0.977539 0,-0.485351 0.21875,-0.895507 0.22559,-0.416993 0.6084,-0.69043 0.28711,-0.211914 0.77929,-0.355469 0.49903,-0.15039 1.06641,-0.15039 0.85449,0 1.49707,0.246093 0.64942,0.246094 0.95703,0.669922 0.30762,0.416992 0.42383,1.121094 l -1.20312,0.164062 q -0.082,-0.560546 -0.47852,-0.875 -0.38965,-0.314453 -1.10742,-0.314453 -0.84766,0 -1.20996,0.280274 -0.36231,0.280273 -0.36231,0.65625 0,0.239258 0.15039,0.430664 0.15039,0.198242 0.47168,0.328125 0.18457,0.06836 1.08692,0.314453 1.30566,0.348633 1.81836,0.574219 0.51953,0.21875 0.81347,0.642578 0.29395,0.423828 0.29395,1.052734 0,0.615235 -0.36231,1.16211 -0.35547,0.540039 -1.03222,0.840817 -0.67676,0.29395 -1.53125,0.29395 -1.41504,0 -2.16016,-0.587892 -0.73828,-0.587891 -0.94336,-1.743165 z m 7.03418,-1.46289 q 0,-2.016602 1.12109,-2.987305 0.93653,-0.80664 2.28321,-0.80664 1.49707,0 2.44726,0.984375 0.9502,0.977539 0.9502,2.707031 0,1.401367 -0.42383,2.208008 -0.41699,0.799804 -1.22363,1.24414 -0.79981,0.444338 -1.75,0.444338 -1.52442,0 -2.46778,-0.977541 -0.93652,-0.977539 -0.93652,-2.816406 z m 1.26465,0 q 0,1.394531 0.6084,2.091797 0.6084,0.690429 1.53125,0.690429 0.91601,0 1.52441,-0.697265 0.6084,-0.697266 0.6084,-2.125977 0,-1.346679 -0.61523,-2.037109 -0.6084,-0.697266 -1.51758,-0.697266 -0.92285,0 -1.53125,0.69043 -0.6084,0.69043 -0.6084,2.084961 z m 6.95215,3.629887 V 90.147671 h 1.23047 v 10.021489 z m 7.89551,0 v -1.066411 q -0.84766,1.230471 -2.30372,1.230471 -0.64257,0 -1.20312,-0.2461 -0.55371,-0.246089 -0.82715,-0.61523 -0.2666,-0.375977 -0.37598,-0.916016 -0.0752,-0.362304 -0.0752,-1.148437 V 92.90939 h 1.23047 v 4.026367 q 0,0.963867 0.0752,1.298828 0.11621,0.485352 0.49219,0.765625 0.37598,0.273438 0.92969,0.273438 0.55371,0 1.03906,-0.280274 0.48535,-0.287109 0.68359,-0.772461 0.20508,-0.492187 0.20508,-1.421875 V 92.90939 h 1.23047 v 7.25977 z m 5.71484,-1.10059 0.17773,1.08691 q -0.51953,0.10938 -0.92968,0.10938 -0.66993,0 -1.03907,-0.21192 -0.36914,-0.211909 -0.51953,-0.553706 -0.15039,-0.348633 -0.15039,-1.456055 v -4.176758 h -0.90234 V 92.90939 h 0.90234 v -1.797852 l 1.22363,-0.738281 v 2.536133 h 1.23731 v 0.957031 h -1.23731 v 4.245117 q 0,0.526368 0.0615,0.676758 0.0684,0.150391 0.21191,0.239258 0.15039,0.08887 0.42383,0.08887 0.20508,0 0.54004,-0.04785 z m 1.20996,-7.50586 v -1.415039 h 1.23047 v 1.415039 z m 0,8.60645 v -7.25977 h 1.23047 v 7.25977 z m 2.64551,-3.629887 q 0,-2.016602 1.12109,-2.987305 0.93653,-0.80664 2.2832,-0.80664 1.49708,0 2.44727,0.984375 0.9502,0.977539 0.9502,2.707031 0,1.401367 -0.42383,2.208008 -0.41699,0.799804 -1.22364,1.24414 -0.7998,0.444338 -1.75,0.444338 -1.52441,0 -2.46777,-0.977541 -0.93652,-0.977539 -0.93652,-2.816406 z m 1.26465,0 q 0,1.394531 0.60839,2.091797 0.6084,0.690429 1.53125,0.690429 0.91602,0 1.52442,-0.697265 0.6084,-0.697266 0.6084,-2.125977 0,-1.346679 -0.61524,-2.037109 -0.6084,-0.697266 -1.51758,-0.697266 -0.92285,0 -1.53125,0.69043 -0.60839,0.69043 -0.60839,2.084961 z m 6.97949,3.629887 v -7.25977 h 1.10742 v 1.032227 q 0.79981,-1.196289 2.31055,-1.196289 0.65625,0 1.20312,0.239257 0.55371,0.232422 0.82715,0.615235 0.27344,0.382812 0.38281,0.909179 0.0684,0.341797 0.0684,1.196289 v 4.463872 h -1.23047 v -4.41602 q 0,-0.751953 -0.14355,-1.121094 -0.14356,-0.375976 -0.5127,-0.594726 -0.3623,-0.225586 -0.85449,-0.225586 -0.78613,0 -1.36035,0.499023 -0.56738,0.499024 -0.56738,1.893555 v 3.964848 z"
       id="flowRoot4120-4"
       transform="translate(35.000006,347.36893)"
       aria-label="Optimal solution" />
    <g
       transform="translate(350,-352.36218)"
       id="g3279">
      <rect
         style="fill: #4F625F;stroke: #4F625F;stroke-width:1;stroke-linecap:round;stroke-linejoin:round;stroke-miterlimit:4;stroke-dasharray:none" rx="5" ry="5"
         id="rect3281"
         width="59"
         height="29"
         x="110.5"
         y="782.86218"
         
          />
      <path
         style="fill:white;line-height:1.25;text-align:center;text-anchor:middle"
         d="m 244.9164,84.634307 v 1.223578 h -6.85345 q -0.0142,-0.459726 0.14852,-0.884088 0.26169,-0.700198 0.83458,-1.379178 0.57996,-0.678979 1.66916,-1.57014 1.69038,-1.38625 2.28448,-2.192539 0.59411,-0.813361 0.59411,-1.534777 0,-0.756779 -0.5446,-1.273087 -0.53752,-0.52338 -1.40747,-0.52338 -0.91945,0 -1.47112,0.551671 -0.55167,0.551671 -0.55874,1.527704 l -1.30845,-0.134381 q 0.13438,-1.46405 1.01139,-2.227902 0.87702,-0.770925 2.35522,-0.770925 1.49234,0 2.36228,0.827506 0.86994,0.827507 0.86994,2.051085 0,0.622398 -0.25462,1.223578 -0.25461,0.60118 -0.84872,1.266014 -0.58703,0.664834 -1.95914,1.824758 -1.14578,0.961888 -1.47112,1.308451 -0.32535,0.339489 -0.53753,0.686052 z"
         id="flowRoot3283"
         transform="matrix(1.6568991,0,0,1.6568991,-260.39408,661.72151)"
         aria-label="2" />
    </g>
    <g
       id="flowRoot3215"
       style="line-height:0.01%;font-family:Arial;-inkscape-font-specification:Arial;text-align:center;text-anchor:middle"
       transform="translate(11.012706,163.88137)"
       aria-label="How did we&#10;find this solution?">
      <path
         style="fill:currentColor;line-height:1.25"
         d="m 464.57422,352.42716 v -25.76953 h 3.41015 v 10.58203 h 13.39454 v -10.58203 h 3.41015 v 25.76953 h -3.41015 v -12.14649 h -13.39454 v 12.14649 z m 24.31055,-9.33399 q 0,-5.18554 2.88281,-7.68164 2.4082,-2.07421 5.87109,-2.07421 3.84961,0 6.29297,2.53125 2.44336,2.51367 2.44336,6.96093 0,3.60352 -1.08984,5.67774 -1.07227,2.05664 -3.14649,3.19922 -2.05664,1.14257 -4.5,1.14257 -3.91992,0 -6.3457,-2.51367 -2.4082,-2.51367 -2.4082,-7.24219 z m 3.25195,0 q 0,3.58594 1.56445,5.37891 1.56445,1.77539 3.9375,1.77539 2.35547,0 3.91992,-1.79297 1.56446,-1.79297 1.56446,-5.46679 0,-3.46289 -1.58203,-5.23829 -1.56446,-1.79296 -3.90235,-1.79296 -2.37305,0 -3.9375,1.77539 -1.56445,1.77539 -1.56445,5.36132 z m 21.39258,9.33399 -5.71289,-18.66797 h 3.26953 l 2.9707,10.77539 1.10742,4.00781 q 0.0703,-0.29882 0.9668,-3.84961 l 2.9707,-10.93359 h 3.25196 l 2.79492,10.82813 0.93164,3.56835 1.07226,-3.60351 3.19922,-10.79297 h 3.07617 l -5.83593,18.66797 h -3.28711 l -2.97071,-11.17969 -0.7207,-3.18164 -3.7793,14.36133 z m 44.66601,0 v -2.35547 q -1.77539,2.77734 -5.2207,2.77734 -2.23242,0 -4.11328,-1.23046 -1.86328,-1.23047 -2.90039,-3.42774 -1.01953,-2.21484 -1.01953,-5.08008 0,-2.79492 0.93164,-5.0625 0.93164,-2.28515 2.79492,-3.49804 1.86328,-1.21289 4.16601,-1.21289 1.6875,0 3.00586,0.7207 1.31836,0.70312 2.14453,1.8457 v -9.24609 h 3.14649 v 25.76953 z m -10.00195,-9.31641 q 0,3.58594 1.51172,5.36133 1.51172,1.77539 3.56836,1.77539 2.07422,0 3.51562,-1.6875 1.45899,-1.70508 1.45899,-5.18555 0,-3.83203 -1.47657,-5.625 -1.47656,-1.79296 -3.63867,-1.79296 -2.10937,0 -3.5332,1.72265 -1.40625,1.72266 -1.40625,5.43164 z m 17.92969,-12.81445 v -3.63867 h 3.16406 v 3.63867 z m 0,22.13086 v -18.66797 h 3.16406 v 18.66797 z m 20.09179,0 v -2.35547 q -1.77539,2.77734 -5.2207,2.77734 -2.23242,0 -4.11328,-1.23046 -1.86328,-1.23047 -2.90039,-3.42774 -1.01953,-2.21484 -1.01953,-5.08008 0,-2.79492 0.93164,-5.0625 0.93164,-2.28515 2.79492,-3.49804 1.86328,-1.21289 4.16602,-1.21289 1.6875,0 3.00585,0.7207 1.31836,0.70312 2.14454,1.8457 v -9.24609 h 3.14648 v 25.76953 z m -10.00195,-9.31641 q 0,3.58594 1.51172,5.36133 1.51172,1.77539 3.56836,1.77539 2.07422,0 3.51562,-1.6875 1.45899,-1.70508 1.45899,-5.18555 0,-3.83203 -1.47656,-5.625 -1.47657,-1.79296 -3.63868,-1.79296 -2.10937,0 -3.5332,1.72265 -1.40625,1.72266 -1.40625,5.43164 z m 31.35938,9.31641 -5.7129,-18.66797 h 3.26954 l 2.9707,10.77539 1.10742,4.00781 q 0.0703,-0.29882 0.9668,-3.84961 l 2.9707,-10.93359 h 3.25195 l 2.79493,10.82813 0.93164,3.56835 1.07226,-3.60351 3.19922,-10.79297 h 3.07617 l -5.83593,18.66797 h -3.28711 l -2.97071,-11.17969 -0.7207,-3.18164 -3.7793,14.36133 z m 35.33203,-6.01172 3.26953,0.4043 q -0.77344,2.86523 -2.86524,4.44726 -2.09179,1.58203 -5.34375,1.58203 -4.0957,0 -6.5039,-2.51367 -2.39063,-2.53125 -2.39063,-7.08398 0,-4.71094 2.42578,-7.3125 2.42578,-2.60156 6.29297,-2.60156 3.74414,0 6.11719,2.54882 2.37305,2.54883 2.37305,7.17188 0,0.28125 -0.0176,0.84375 h -13.92188 q 0.17578,3.07617 1.74024,4.71094 1.56445,1.63476 3.90234,1.63476 1.74024,0 2.9707,-0.91406 1.23047,-0.91406 1.95118,-2.91797 z m -10.38868,-5.11523 h 10.42383 q -0.21093,-2.35547 -1.19531,-3.53321 -1.51172,-1.82812 -3.91992,-1.82812 -2.17969,0 -3.67383,1.45898 -1.47656,1.45899 -1.63477,3.90235 z"
         id="path4" />
      <path
         style="fill:currentColor;line-height:1.25"
         d="m 418.77441,397.42716 v -16.20703 h -2.79492 v -2.46094 h 2.79492 v -1.98633 q 0,-1.88086 0.33399,-2.79492 0.45703,-1.23047 1.59961,-1.98633 1.16015,-0.77344 3.23437,-0.77344 1.33594,0 2.95313,0.31641 l -0.47461,2.75977 q -0.98438,-0.17578 -1.86328,-0.17578 -1.44141,0 -2.03907,0.61523 -0.59765,0.61523 -0.59765,2.30273 v 1.72266 h 3.63867 v 2.46094 h -3.63867 v 16.20703 z m 9.26368,-22.13086 v -3.63867 h 3.16406 v 3.63867 z m 0,22.13086 v -18.66797 h 3.16406 v 18.66797 z m 7.98046,0 v -18.66797 h 2.84766 v 2.6543 q 2.05664,-3.07617 5.94141,-3.07617 1.6875,0 3.09375,0.61523 1.42383,0.59766 2.12695,1.58203 0.70313,0.98438 0.98438,2.33789 0.17578,0.87891 0.17578,3.07617 v 11.47852 h -3.16407 v -11.35547 q 0,-1.93359 -0.36914,-2.88281 -0.36914,-0.9668 -1.31836,-1.5293 -0.93164,-0.58008 -2.19726,-0.58008 -2.02149,0 -3.49805,1.28321 -1.45898,1.2832 -1.45898,4.86914 v 10.19531 z m 32.13282,0 v -2.35547 q -1.77539,2.77734 -5.22071,2.77734 -2.23242,0 -4.11328,-1.23046 -1.86328,-1.23047 -2.90039,-3.42774 -1.01953,-2.21484 -1.01953,-5.08008 0,-2.79492 0.93164,-5.0625 0.93164,-2.28515 2.79492,-3.49804 1.86328,-1.21289 4.16602,-1.21289 1.6875,0 3.00586,0.7207 1.31836,0.70312 2.14453,1.8457 v -9.24609 h 3.14648 v 25.76953 z m -10.00196,-9.31641 q 0,3.58594 1.51172,5.36133 1.51172,1.77539 3.56836,1.77539 2.07422,0 3.51563,-1.6875 1.45898,-1.70508 1.45898,-5.18555 0,-3.83203 -1.47656,-5.625 -1.47656,-1.79296 -3.63867,-1.79296 -2.10938,0 -3.53321,1.72265 -1.40625,1.72266 -1.40625,5.43164 z m 34.82227,6.48633 0.45703,2.79492 q -1.33594,0.28125 -2.39062,0.28125 -1.72266,0 -2.67188,-0.54492 -0.94922,-0.54492 -1.33594,-1.42383 -0.38672,-0.89648 -0.38672,-3.74414 v -10.74023 h -2.32031 v -2.46094 h 2.32031 v -4.62305 l 3.14649,-1.89843 v 6.52148 h 3.18164 v 2.46094 h -3.18164 v 10.91601 q 0,1.35352 0.1582,1.74024 0.17578,0.38672 0.54492,0.61523 0.38672,0.22852 1.08985,0.22852 0.52734,0 1.38867,-0.12305 z m 3.09375,2.83008 v -25.76953 h 3.16406 v 9.24609 q 2.21485,-2.5664 5.58985,-2.5664 2.07421,0 3.60351,0.82617 1.5293,0.80859 2.17969,2.25 0.66797,1.4414 0.66797,4.18359 v 11.83008 h -3.16406 v -11.83008 q 0,-2.37305 -1.03711,-3.44531 -1.01954,-1.08985 -2.90039,-1.08985 -1.40625,0 -2.6543,0.73829 -1.23047,0.7207 -1.75781,1.96875 -0.52735,1.24804 -0.52735,3.44531 v 10.21289 z m 20.03906,-22.13086 v -3.63867 h 3.16406 v 3.63867 z m 0,22.13086 v -18.66797 h 3.16406 v 18.66797 z m 6.71485,-5.57227 3.1289,-0.49218 q 0.26367,1.88086 1.45899,2.88281 1.21289,1.00195 3.375,1.00195 2.17968,0 3.23437,-0.8789 1.05469,-0.89649 1.05469,-2.0918 0,-1.07227 -0.93164,-1.6875 -0.65039,-0.42188 -3.23438,-1.07227 -3.48047,-0.8789 -4.83398,-1.51172 -1.33594,-0.65039 -2.03906,-1.77539 -0.68555,-1.14257 -0.68555,-2.51367 0,-1.24805 0.5625,-2.30273 0.58008,-1.07227 1.56445,-1.77539 0.73828,-0.54493 2.00391,-0.91407 1.2832,-0.38671 2.74219,-0.38671 2.19726,0 3.84961,0.63281 1.66992,0.63281 2.46093,1.72265 0.79102,1.07227 1.08985,2.88282 l -3.09375,0.42187 q -0.21094,-1.4414 -1.23047,-2.25 -1.00195,-0.80859 -2.84766,-0.80859 -2.17969,0 -3.11133,0.7207 -0.93164,0.7207 -0.93164,1.6875 0,0.61524 0.38672,1.10742 0.38672,0.50977 1.21289,0.84375 0.47461,0.17578 2.79492,0.8086 3.35743,0.89648 4.67579,1.47656 1.33593,0.5625 2.09179,1.65234 0.75586,1.08985 0.75586,2.70703 0,1.58204 -0.93164,2.98829 -0.91406,1.38867 -2.6543,2.1621 -1.74023,0.75586 -3.9375,0.75586 -3.63867,0 -5.55468,-1.51171 -1.89844,-1.51172 -2.42578,-4.48243 z m 28.00195,0 3.12891,-0.49218 q 0.26367,1.88086 1.45898,2.88281 1.21289,1.00195 3.375,1.00195 2.17969,0 3.23437,-0.8789 1.05469,-0.89649 1.05469,-2.0918 0,-1.07227 -0.93164,-1.6875 -0.65039,-0.42188 -3.23437,-1.07227 -3.48047,-0.8789 -4.83399,-1.51172 -1.33594,-0.65039 -2.03906,-1.77539 -0.68555,-1.14257 -0.68555,-2.51367 0,-1.24805 0.5625,-2.30273 0.58008,-1.07227 1.56446,-1.77539 0.73828,-0.54493 2.0039,-0.91407 1.28321,-0.38671 2.74219,-0.38671 2.19727,0 3.84961,0.63281 1.66992,0.63281 2.46094,1.72265 0.79101,1.07227 1.08984,2.88282 l -3.09375,0.42187 q -0.21094,-1.4414 -1.23047,-2.25 -1.00195,-0.80859 -2.84765,-0.80859 -2.17969,0 -3.11133,0.7207 -0.93164,0.7207 -0.93164,1.6875 0,0.61524 0.38672,1.10742 0.38671,0.50977 1.21289,0.84375 0.47461,0.17578 2.79492,0.8086 3.35742,0.89648 4.67578,1.47656 1.33594,0.5625 2.0918,1.65234 0.75586,1.08985 0.75586,2.70703 0,1.58204 -0.93165,2.98829 -0.91406,1.38867 -2.65429,2.1621 -1.74024,0.75586 -3.9375,0.75586 -3.63867,0 -5.55469,-1.51171 -1.89844,-1.51172 -2.42578,-4.48243 z m 18.08789,-3.76172 q 0,-5.18554 2.88281,-7.68164 2.40821,-2.07421 5.8711,-2.07421 3.84961,0 6.29296,2.53125 2.44336,2.51367 2.44336,6.96093 0,3.60352 -1.08984,5.67774 -1.07227,2.05664 -3.14648,3.19922 -2.05664,1.14257 -4.5,1.14257 -3.91993,0 -6.34571,-2.51367 -2.4082,-2.51367 -2.4082,-7.24219 z m 3.25195,0 q 0,3.58594 1.56446,5.37891 1.56445,1.77539 3.9375,1.77539 2.35546,0 3.91992,-1.79297 1.56445,-1.79297 1.56445,-5.46679 0,-3.46289 -1.58203,-5.23829 -1.56445,-1.79296 -3.90234,-1.79296 -2.37305,0 -3.9375,1.77539 -1.56446,1.77539 -1.56446,5.36132 z m 17.87696,9.33399 v -25.76953 h 3.16406 v 25.76953 z m 20.30273,0 v -2.74219 q -2.17969,3.16406 -5.92383,3.16406 -1.65234,0 -3.09375,-0.63281 -1.42383,-0.63281 -2.12695,-1.58203 -0.68555,-0.9668 -0.9668,-2.35547 -0.19336,-0.93164 -0.19336,-2.95312 v -11.56641 h 3.16407 v 10.35352 q 0,2.47851 0.19335,3.33984 0.29883,1.24805 1.26563,1.96875 0.9668,0.70312 2.39062,0.70312 1.42383,0 2.67188,-0.7207 1.24805,-0.73828 1.75781,-1.98633 0.52735,-1.26562 0.52735,-3.65625 v -10.00195 h 3.16406 v 18.66797 z m 14.69531,-2.83008 0.45703,2.79492 q -1.33593,0.28125 -2.39062,0.28125 -1.72266,0 -2.67188,-0.54492 -0.94921,-0.54492 -1.33593,-1.42383 -0.38672,-0.89648 -0.38672,-3.74414 v -10.74023 h -2.32031 v -2.46094 h 2.32031 v -4.62305 l 3.14648,-1.89843 v 6.52148 h 3.18164 v 2.46094 h -3.18164 v 10.91601 q 0,1.35352 0.15821,1.74024 0.17578,0.38672 0.54492,0.61523 0.38672,0.22852 1.08984,0.22852 0.52734,0 1.38867,-0.12305 z m 3.11133,-19.30078 v -3.63867 h 3.16406 v 3.63867 z m 0,22.13086 v -18.66797 h 3.16406 v 18.66797 z m 6.80274,-9.33399 q 0,-5.18554 2.88281,-7.68164 2.4082,-2.07421 5.87109,-2.07421 3.84961,0 6.29297,2.53125 2.44336,2.51367 2.44336,6.96093 0,3.60352 -1.08984,5.67774 -1.07227,2.05664 -3.14649,3.19922 -2.05664,1.14257 -4.5,1.14257 -3.91992,0 -6.3457,-2.51367 -2.4082,-2.51367 -2.4082,-7.24219 z m 3.25195,0 q 0,3.58594 1.56445,5.37891 1.56445,1.77539 3.9375,1.77539 2.35547,0 3.91992,-1.79297 1.56446,-1.79297 1.56446,-5.46679 0,-3.46289 -1.58203,-5.23829 -1.56446,-1.79296 -3.90235,-1.79296 -2.37305,0 -3.9375,1.77539 -1.56445,1.77539 -1.56445,5.36132 z m 17.94726,9.33399 v -18.66797 h 2.84766 v 2.6543 q 2.05664,-3.07617 5.94141,-3.07617 1.6875,0 3.09375,0.61523 1.42382,0.59766 2.12695,1.58203 0.70312,0.98438 0.98437,2.33789 0.17579,0.87891 0.17579,3.07617 v 11.47852 h -3.16407 v -11.35547 q 0,-1.93359 -0.36914,-2.88281 -0.36914,-0.9668 -1.31836,-1.5293 -0.93164,-0.58008 -2.19726,-0.58008 -2.02149,0 -3.49805,1.28321 -1.45898,1.2832 -1.45898,4.86914 v 10.19531 z m 25.94532,-6.3457 q -0.0176,-0.63282 -0.0176,-0.94922 0,-1.86328 0.52734,-3.2168 0.38672,-1.01953 1.24805,-2.05664 0.63281,-0.75586 2.26758,-2.19727 1.65234,-1.45898 2.14453,-2.32031 0.49219,-0.86133 0.49219,-1.88086 0,-1.8457 -1.44141,-3.23437 -1.44141,-1.40625 -3.5332,-1.40625 -2.02149,0 -3.375,1.26562 -1.35352,1.26563 -1.77539,3.95508 l -3.25196,-0.38672 q 0.43946,-3.60351 2.60157,-5.51953 2.17968,-1.91602 5.74804,-1.91602 3.7793,0 6.0293,2.05665 2.25,2.05664 2.25,4.9746 0,1.6875 -0.79102,3.11133 -0.79101,1.42383 -3.09375,3.46289 -1.54687,1.3711 -2.02148,2.02149 -0.47461,0.65039 -0.70313,1.49414 -0.22851,0.84375 -0.26367,2.74219 z m -0.19336,6.3457 v -3.60352 h 3.60351 v 3.60352 z"
         id="path5" />
    </g>
  </g>
</svg>
