<?xml version="1.0" encoding="UTF-8" standalone="no"?>
<!-- Created with Inkscape (http://www.inkscape.org/) -->

<svg
   width="800"
   height="600"
   id="svg2"
   version="1.1"
   xmlns="http://www.w3.org/2000/svg"
   xmlns:svg="http://www.w3.org/2000/svg"
   xmlns:rdf="http://www.w3.org/1999/02/22-rdf-syntax-ns#"
   xmlns:cc="http://creativecommons.org/ns#"
   xmlns:dc="http://purl.org/dc/elements/1.1/">
  <defs
     id="defs4" />
  <metadata
     id="metadata7">
    <rdf:RDF>
      <cc:Work
         rdf:about="">
        <dc:format>image/svg+xml</dc:format>
        <dc:type
           rdf:resource="http://purl.org/dc/dcmitype/StillImage" />
        <dc:language>en</dc:language>
        <cc:license
           rdf:resource="https://timefold.ai/product/license/" />
      </cc:Work>
    </rdf:RDF>
  </metadata>
  <g
     id="layer1"
     transform="translate(0,-452.36218)">
    <rect
       style="fill:#d3d7cf;fill-opacity:1;stroke:none"
       id="rect3726"
       width="230"
       height="60"
       x="450"
       y="472.36218"
       
        />
    <rect
       
       
       y="492.86218"
       x="460.5"
       height="29"
       width="209.00002"
       id="rect3728"
       style="fill:#ffffff;fill-opacity:1;stroke:none" /> rx="5" ry="5"
    <path
       id="path4169"
       d="m 520.5,492.86214 0,29.00004"
       style="color:currentColor;fill:none;stroke:#d3d7cf;stroke-width:1px;stroke-linecap:round;stroke-linejoin:round;stroke-miterlimit:4;stroke-opacity:1;stroke-dasharray:none;stroke-dashoffset:0;marker:none;visibility:visible;display:inline;overflow:visible;enable-background:accumulate" />
    <path
       style="color:currentColor;fill:none;stroke:#d3d7cf;stroke-width:1px;stroke-linecap:round;stroke-linejoin:round;stroke-miterlimit:4;stroke-opacity:1;stroke-dasharray:none;stroke-dashoffset:0;marker:none;visibility:visible;display:inline;overflow:visible;enable-background:accumulate"
       d="m 550.5,492.86214 0,29.00004"
       id="path4171" />
    <path
       id="path4173"
       d="m 580.5,492.86214 0,29.00004"
       style="color:currentColor;fill:none;stroke:#d3d7cf;stroke-width:1px;stroke-linecap:round;stroke-linejoin:round;stroke-miterlimit:4;stroke-opacity:1;stroke-dasharray:none;stroke-dashoffset:0;marker:none;visibility:visible;display:inline;overflow:visible;enable-background:accumulate" />
    <path
       style="color:currentColor;fill:none;stroke:#d3d7cf;stroke-width:1px;stroke-linecap:round;stroke-linejoin:round;stroke-miterlimit:4;stroke-opacity:1;stroke-dasharray:none;stroke-dashoffset:0;marker:none;visibility:visible;display:inline;overflow:visible;enable-background:accumulate"
       d="m 610.5,492.86214 0,29.00004"
       id="path4175" />
    <path
       id="path4177"
       d="m 640.5,492.86214 0,29.00004"
       style="color:currentColor;fill:none;stroke:#d3d7cf;stroke-width:1px;stroke-linecap:round;stroke-linejoin:round;stroke-miterlimit:4;stroke-opacity:1;stroke-dasharray:none;stroke-dashoffset:0;marker:none;visibility:visible;display:inline;overflow:visible;enable-background:accumulate" />
    <g
       id="g3667"
       transform="translate(90,10.000148)">
      <rect
         
         
         y="602.86218"
         x="20.5"
         height="29"
         width="149"
         id="rect2851-41"
         style="fill: #9353C9;stroke: #9353C9;stroke-width:1;stroke-linecap:round;stroke-linejoin:round;stroke-miterlimit:4;stroke-dasharray:none" /> rx="5" ry="5"
      <path
         style="fill:white;line-height:1.25;text-align:center;text-anchor:middle"
         d="m 265.3848,83.141966 1.33674,-0.113163 q 0.14853,0.976033 0.68605,1.471123 0.5446,0.488016 1.30845,0.488016 0.91945,0 1.556,-0.693125 0.63654,-0.693125 0.63654,-1.838903 0,-1.089197 -0.61532,-1.718668 -0.60826,-0.62947 -1.59844,-0.62947 -0.61532,0 -1.11041,0.282908 -0.49509,0.275835 -0.778,0.721416 l -1.19529,-0.1556 1.00433,-5.325747 h 5.156 v 1.216505 h -4.13753 l -0.55875,2.786646 q 0.9336,-0.650689 1.95914,-0.650689 1.35796,0 2.29156,0.94067 0.9336,0.94067 0.9336,2.418865 0,1.407469 -0.82044,2.433011 -0.99725,1.258942 -2.72299,1.258942 -1.41454,0 -2.31277,-0.792143 -0.89116,-0.792143 -1.01847,-2.100594 z"
         id="flowRoot3154-5"
         transform="matrix(1.6568991,0,0,1.6568991,-350.39408,481.72151)"
         aria-label="5" />
    </g>
    <g
       id="g3165"
       transform="translate(0,19.999997)">
      <g
         transform="matrix(0.99719922,0,0,1,90.308089,-9.9998486)"
         id="g3250">
        <rect
           
           
           y="692.86218"
           x="50.332878"
           height="29"
           width="119.33422"
           id="rect3202"
           style="fill: #00C85E;stroke: #00C85E;stroke-width:1.00140333;stroke-linecap:round;stroke-linejoin:round;stroke-miterlimit:4;stroke-dasharray:none" /> rx="5" ry="5"
      </g>
      <path
         style="fill:black;line-height:1.25;text-align:center;text-anchor:middle"
         d="m 260.41301,85.857885 v -2.48252 h -4.49824 v -1.166996 l 4.73164,-6.71907 h 1.03969 v 6.71907 h 1.4004 v 1.166996 h -1.4004 v 2.48252 z m 0,-3.649516 v -4.675058 l -3.24637,4.675058 z"
         id="flowRoot3224"
         transform="matrix(1.6568991,0,0,1.6568991,-230.39408,561.72166)"
         aria-label="4" />
    </g>
    <g
       id="g3173"
       transform="translate(0,19.999997)">
      <rect
         
         
         y="772.86218"
         x="170.5"
         height="29"
         width="89"
         id="rect3232"
         style="fill: #4F625F;stroke: #4F625F;stroke-width:1;stroke-linecap:round;stroke-linejoin:round;stroke-miterlimit:4;stroke-dasharray:none" /> rx="5" ry="5"
      <path
         style="fill:white;line-height:1.25;text-align:center;text-anchor:middle"
         d="m 229.17996,83.120748 1.27308,-0.169745 q 0.21926,1.082124 0.74264,1.563068 0.53045,0.473871 1.28723,0.473871 0.89823,0 1.51356,-0.622398 0.6224,-0.622398 0.6224,-1.54185 0,-0.877015 -0.57289,-1.442831 -0.57289,-0.57289 -1.45698,-0.57289 -0.36071,0 -0.89823,0.141455 l 0.14145,-1.117488 q 0.12731,0.01415 0.20511,0.01415 0.81336,0 1.46405,-0.424363 0.65069,-0.424362 0.65069,-1.30845 0,-0.700198 -0.47387,-1.159924 -0.47387,-0.459726 -1.22358,-0.459726 -0.74264,0 -1.23772,0.466799 -0.49509,0.466798 -0.63655,1.400395 l -1.27308,-0.226326 q 0.23339,-1.28016 1.0609,-1.980358 0.82751,-0.70727 2.05816,-0.70727 0.84872,0 1.56307,0.36778 0.71434,0.360708 1.08919,0.990179 0.38193,0.629471 0.38193,1.336742 0,0.671907 -0.36071,1.223578 -0.36071,0.551671 -1.06798,0.877015 0.91945,0.212181 1.42869,0.884088 0.50923,0.664834 0.50923,1.669159 0,1.357959 -0.99018,2.305702 -0.99017,0.940669 -2.50373,0.940669 -1.36504,0 -2.27034,-0.813361 -0.89823,-0.813361 -1.02554,-2.107666 z"
         id="flowRoot3254"
         transform="matrix(1.6568991,0,0,1.6568991,-170.39408,651.72166)"
         aria-label="3" />
    </g>
    <g
       id="g3264"
       transform="translate(0,1.5438281e-4)">
      <rect
         style="fill: #F5B200;stroke: #F5B200;stroke-width:1;stroke-linecap:round;stroke-linejoin:round;stroke-miterlimit:4;stroke-dasharray:none" rx="5" ry="5"
         id="rect3262"
         width="29"
         height="29"
         x="230.5"
         y="882.86218"
         
          />
      <path
         style="fill:black;line-height:1.25;text-align:center;text-anchor:middle"
         d="m 252.07365,85.857885 h -1.27309 v -8.112393 q -0.45973,0.438508 -1.20943,0.877016 -0.74264,0.438507 -1.33674,0.657761 v -1.230651 q 1.06797,-0.502162 1.86719,-1.216505 0.79922,-0.714343 1.13163,-1.38625 h 0.82044 z"
         id="flowRoot3284"
         transform="matrix(1.6568991,0,0,1.6568991,-170.39408,761.7215)"
         aria-label="1" />
    </g>
    <path
       style="color:currentColor;fill:none;stroke:#d3d7cf;stroke-width:1px;stroke-linecap:round;stroke-linejoin:round;stroke-miterlimit:4;stroke-opacity:1;stroke-dasharray:none;stroke-dashoffset:0;marker:none;visibility:visible;display:inline;overflow:visible;enable-background:accumulate"
       d="m 490.5,492.86214 0,29.00004"
       id="path4165" />
    <rect
       style="fill:none;stroke:currentColor;stroke-width:1;stroke-linecap:round;stroke-linejoin:round;stroke-miterlimit:4;stroke-dasharray:none"
       id="rect3324"
       width="209.00002"
       height="29"
       x="460.5"
       y="492.86218"
       
        />
    <path
       style="fill:currentColor;line-height:1.25;text-align:center;text-anchor:middle"
       d="M 277.54096,76.847258 V 75.62368 h 6.712 v 0.990179 q -0.99018,1.053833 -1.96622,2.800791 -0.96896,1.746959 -1.49941,3.592935 -0.38193,1.301378 -0.48802,2.8503 h -1.30845 q 0.0212,-1.223578 0.48095,-2.956391 0.45972,-1.732813 1.31552,-3.338317 0.86287,-1.612576 1.83183,-2.715919 z"
       id="flowRoot3328"
       transform="matrix(1.6568991,0,0,1.6568991,99.60592,371.72151)"
       aria-label="7" />
    <path
       style="fill:currentColor;line-height:1.25;text-align:center;text-anchor:middle"
       d="m 395.77197,72.874234 1.32617,0.334961 q -0.41699,1.633789 -1.5039,2.495117 -1.08008,0.854492 -2.64551,0.854492 -1.62012,0 -2.63867,-0.65625 -1.01172,-0.663086 -1.54492,-1.914062 -0.52637,-1.250977 -0.52637,-2.686524 0,-1.56543 0.59473,-2.727539 0.60156,-1.168945 1.70214,-1.770508 1.10743,-0.608398 2.4336,-0.608398 1.5039,0 2.5293,0.765625 1.02539,0.765625 1.42871,2.15332 l -1.30567,0.307617 q -0.34863,-1.09375 -1.01172,-1.592773 -0.66308,-0.499024 -1.66797,-0.499024 -1.15527,0 -1.93457,0.553711 -0.77246,0.553711 -1.08691,1.490235 -0.31445,0.929687 -0.31445,1.920898 0,1.278321 0.36914,2.235352 0.37597,0.950195 1.16211,1.421875 0.78613,0.471679 1.70215,0.471679 1.11425,0 1.88671,-0.642578 0.77247,-0.642578 1.0459,-1.907226 z m 2.34473,-0.116211 q 0,-2.016602 1.12109,-2.987305 0.93653,-0.80664 2.28321,-0.80664 1.49707,0 2.44726,0.984375 0.9502,0.977539 0.9502,2.707031 0,1.401367 -0.42383,2.208008 -0.41699,0.799804 -1.22363,1.24414 -0.79981,0.444336 -1.75,0.444336 -1.52442,0 -2.46778,-0.977539 -0.93652,-0.977539 -0.93652,-2.816406 z m 1.26465,0 q 0,1.394531 0.6084,2.091797 0.60839,0.690429 1.53125,0.690429 0.91601,0 1.52441,-0.697265 0.6084,-0.697266 0.6084,-2.125977 0,-1.346679 -0.61524,-2.037109 -0.60839,-0.697266 -1.51757,-0.697266 -0.92286,0 -1.53125,0.69043 -0.6084,0.69043 -0.6084,2.084961 z m 6.97949,3.629883 V 69.12814 h 1.10059 v 1.018555 q 0.34179,-0.533203 0.90918,-0.854492 0.56738,-0.328125 1.29199,-0.328125 0.80664,0 1.31933,0.33496 0.51953,0.334961 0.73145,0.936524 0.86133,-1.271484 2.24219,-1.271484 1.08007,0 1.66113,0.601562 0.58105,0.594727 0.58105,1.838867 v 4.983399 h -1.22363 v -4.573243 q 0,-0.738281 -0.12305,-1.05957 -0.11621,-0.328125 -0.43066,-0.526367 -0.31445,-0.198242 -0.73828,-0.198242 -0.76563,0 -1.27149,0.512695 -0.50585,0.505859 -0.50585,1.626953 v 4.217774 h -1.23047 v -4.716797 q 0,-0.820313 -0.30078,-1.230469 -0.30079,-0.410156 -0.98438,-0.410156 -0.51953,0 -0.96387,0.273437 -0.4375,0.273438 -0.63574,0.799805 -0.19824,0.526367 -0.19824,1.517578 v 3.766602 z m 11.66211,2.782226 V 69.12814 h 1.12109 v 0.943359 q 0.39649,-0.553711 0.89551,-0.827148 0.49902,-0.280273 1.20996,-0.280273 0.92969,0 1.64063,0.478515 0.71093,0.478516 1.07324,1.353516 0.3623,0.868164 0.3623,1.907226 0,1.114258 -0.40332,2.009766 -0.39648,0.888672 -1.16211,1.367187 -0.75879,0.47168 -1.59961,0.47168 -0.61523,0 -1.10742,-0.259765 -0.48535,-0.259766 -0.7998,-0.65625 v 3.534179 z m 1.11426,-6.371094 q 0,1.401368 0.56738,2.07129 0.56738,0.669921 1.37402,0.669921 0.82032,0 1.40137,-0.690429 0.58789,-0.697266 0.58789,-2.153321 0,-1.387695 -0.57422,-2.078125 -0.56738,-0.690429 -1.36035,-0.690429 -0.78613,0 -1.39453,0.738281 -0.60156,0.731445 -0.60156,2.132812 z m 11.42968,3.588868 v -1.066407 q -0.84765,1.230469 -2.30371,1.230469 -0.64257,0 -1.20312,-0.246094 -0.55371,-0.246093 -0.82715,-0.615234 -0.2666,-0.375977 -0.37598,-0.916016 -0.0752,-0.362304 -0.0752,-1.148437 V 69.12814 h 1.23047 v 4.026367 q 0,0.963867 0.0752,1.298828 0.11621,0.485352 0.49219,0.765625 0.37598,0.273438 0.92969,0.273438 0.55371,0 1.03906,-0.280274 0.48535,-0.287109 0.68359,-0.772461 0.20508,-0.492187 0.20508,-1.421875 V 69.12814 h 1.23047 v 7.259766 z m 5.71485,-1.100586 0.17773,1.086914 q -0.51953,0.109375 -0.92968,0.109375 -0.66993,0 -1.03907,-0.211914 -0.36914,-0.211914 -0.51953,-0.553711 -0.15039,-0.348633 -0.15039,-1.456055 v -4.176758 h -0.90234 V 69.12814 h 0.90234 v -1.797852 l 1.22363,-0.738281 v 2.536133 h 1.23731 v 0.957031 h -1.23731 v 4.245117 q 0,0.526368 0.0615,0.676758 0.0684,0.150391 0.21191,0.239258 0.15039,0.08887 0.42383,0.08887 0.20508,0 0.54004,-0.04785 z m 6.17285,-1.237305 1.27148,0.157227 q -0.30078,1.114257 -1.11425,1.729492 -0.81348,0.615234 -2.07813,0.615234 -1.59277,0 -2.5293,-0.977539 -0.92968,-0.984375 -0.92968,-2.754883 0,-1.832031 0.94336,-2.84375 0.94336,-1.011718 2.44726,-1.011718 1.45606,0 2.37891,0.99121 0.92285,0.991211 0.92285,2.789063 0,0.109375 -0.007,0.328125 h -5.41406 q 0.0684,1.196289 0.67676,1.832031 0.6084,0.635742 1.51758,0.635742 0.67676,0 1.15527,-0.355468 0.47852,-0.355469 0.75879,-1.134766 z m -4.04004,-1.989258 h 4.05371 q -0.082,-0.916015 -0.46484,-1.374023 -0.58789,-0.710938 -1.52442,-0.710938 -0.84765,0 -1.42871,0.567383 -0.57422,0.567383 -0.63574,1.517578 z m 6.84277,4.327149 V 69.12814 h 1.10743 v 1.100586 q 0.42382,-0.772461 0.77929,-1.018555 0.36231,-0.246093 0.79297,-0.246093 0.62207,0 1.26465,0.396484 l -0.42383,1.141601 q -0.45117,-0.266601 -0.90234,-0.266601 -0.40332,0 -0.72461,0.246094 -0.32129,0.239257 -0.45801,0.669922 -0.20508,0.65625 -0.20508,1.435546 v 3.800782 z m 15.87305,-3.513672 1.32617,0.334961 q -0.41699,1.633789 -1.5039,2.495117 -1.08008,0.854492 -2.64551,0.854492 -1.62012,0 -2.63867,-0.65625 -1.01172,-0.663086 -1.54492,-1.914062 -0.52637,-1.250977 -0.52637,-2.686524 0,-1.56543 0.59472,-2.727539 0.60157,-1.168945 1.70215,-1.770508 1.10742,-0.608398 2.4336,-0.608398 1.5039,0 2.52929,0.765625 1.02539,0.765625 1.42871,2.15332 l -1.30566,0.307617 q -0.34863,-1.09375 -1.01172,-1.592773 -0.66308,-0.499024 -1.66797,-0.499024 -1.15527,0 -1.93457,0.553711 -0.77246,0.553711 -1.08691,1.490235 -0.31445,0.929687 -0.31445,1.920898 0,1.278321 0.36914,2.235352 0.37597,0.950195 1.16211,1.421875 0.78613,0.471679 1.70214,0.471679 1.11426,0 1.88672,-0.642578 0.77246,-0.642578 1.0459,-1.907226 z m 2.95996,3.513672 V 66.366421 h 3.78028 q 0.99804,0 1.52441,0.0957 0.73828,0.123047 1.2373,0.47168 0.49903,0.341797 0.79981,0.963867 0.30762,0.622071 0.30762,1.367188 0,1.27832 -0.81348,2.166992 -0.81348,0.881836 -2.93945,0.881836 h -2.57032 v 4.074219 z m 1.32617,-5.256836 h 2.59082 q 1.28516,0 1.8252,-0.478516 0.54004,-0.478516 0.54004,-1.34668 0,-0.628906 -0.32129,-1.073242 -0.31445,-0.451172 -0.83398,-0.594726 -0.33497,-0.08887 -1.23731,-0.08887 h -2.56348 z m 14.58789,-4.764649 h 1.32618 v 5.790039 q 0,1.510743 -0.3418,2.399414 -0.3418,0.888672 -1.23731,1.449219 -0.88867,0.553711 -2.33789,0.553711 -1.4082,0 -2.30371,-0.485351 -0.8955,-0.485352 -1.27832,-1.401368 -0.38281,-0.922851 -0.38281,-2.515625 v -5.790039 h 1.32617 v 5.783203 q 0,1.305664 0.23926,1.927735 0.24609,0.615234 0.83398,0.950195 0.59473,0.334961 1.44922,0.334961 1.46289,0 2.08496,-0.663086 0.62207,-0.663086 0.62207,-2.549805 z"
       id="flowRoot3472-8"
       transform="translate(130,408.58511)"
       aria-label="Computer CPU" />
    <g
       id="g3709"
       transform="translate(0,19.999997)" />
    <path
       style="fill:currentColor;line-height:1.25;text-align:center;text-anchor:middle"
       d="M 356.67676,66.387906 V 56.366421 h 3.78027 q 0.99805,0 1.52442,0.0957 0.73828,0.123047 1.2373,0.47168 0.49902,0.341797 0.7998,0.963867 0.30762,0.622071 0.30762,1.367188 0,1.27832 -0.81347,2.166992 -0.81348,0.881836 -2.93946,0.881836 h -2.57031 v 4.074219 z m 1.32617,-5.256836 h 2.59082 q 1.28516,0 1.8252,-0.478516 0.54003,-0.478516 0.54003,-1.34668 0,-0.628906 -0.32128,-1.073242 -0.31446,-0.451172 -0.83399,-0.594726 -0.33496,-0.08887 -1.2373,-0.08887 h -2.56348 z m 7.84082,5.256836 V 59.12814 h 1.10742 v 1.100586 q 0.42383,-0.772461 0.7793,-1.018555 0.3623,-0.246093 0.79297,-0.246093 0.62207,0 1.26465,0.396484 l -0.42383,1.141601 q -0.45117,-0.266601 -0.90235,-0.266601 -0.40332,0 -0.72461,0.246094 -0.32128,0.239257 -0.458,0.669922 -0.20508,0.65625 -0.20508,1.435546 v 3.800782 z m 4.21777,-3.629883 q 0,-2.016602 1.1211,-2.987305 0.93652,-0.80664 2.2832,-0.80664 1.49707,0 2.44727,0.984375 0.95019,0.977539 0.95019,2.707031 0,1.401367 -0.42383,2.208008 -0.41699,0.799804 -1.22363,1.24414 -0.7998,0.444336 -1.75,0.444336 -1.52441,0 -2.46777,-0.977539 -0.93653,-0.977539 -0.93653,-2.816406 z m 1.26465,0 q 0,1.394531 0.6084,2.091797 0.6084,0.690429 1.53125,0.690429 0.91602,0 1.52441,-0.697265 0.6084,-0.697266 0.6084,-2.125977 0,-1.346679 -0.61523,-2.037109 -0.6084,-0.697266 -1.51758,-0.697266 -0.92285,0 -1.53125,0.69043 -0.6084,0.69043 -0.6084,2.084961 z m 11.7168,0.970703 1.20996,0.157227 q -0.19824,1.250976 -1.01856,1.961914 -0.81347,0.704101 -2.00292,0.704101 -1.49024,0 -2.39942,-0.970703 -0.90234,-0.977539 -0.90234,-2.795898 0,-1.175782 0.38965,-2.057618 0.38964,-0.881836 1.18261,-1.319336 0.79981,-0.444335 1.73633,-0.444335 1.18262,0 1.93457,0.601562 0.75195,0.594727 0.96387,1.695313 l -1.19629,0.18457 q -0.1709,-0.731445 -0.6084,-1.100586 -0.43066,-0.369141 -1.0459,-0.369141 -0.92968,0 -1.51074,0.669922 -0.58105,0.663086 -0.58105,2.105469 0,1.462891 0.56054,2.125976 0.56055,0.663086 1.46289,0.663086 0.72461,0 1.20996,-0.444336 0.48536,-0.444335 0.61524,-1.367187 z m 7.23242,0.321289 1.27148,0.157227 q -0.30078,1.114257 -1.11425,1.729492 -0.81348,0.615234 -2.07813,0.615234 -1.59277,0 -2.52929,-0.977539 -0.92969,-0.984375 -0.92969,-2.754883 0,-1.832031 0.94336,-2.84375 0.94336,-1.011718 2.44726,-1.011718 1.45606,0 2.37891,0.99121 0.92285,0.991211 0.92285,2.789063 0,0.109375 -0.007,0.328125 h -5.41406 q 0.0684,1.196289 0.67676,1.832031 0.6084,0.635742 1.51758,0.635742 0.67676,0 1.15527,-0.355468 0.47852,-0.355469 0.75879,-1.134766 z m -4.04004,-1.989258 h 4.05371 q -0.082,-0.916015 -0.46484,-1.374023 -0.58789,-0.710938 -1.52442,-0.710938 -0.84765,0 -1.42871,0.567383 -0.57422,0.567383 -0.63574,1.517578 z m 6.36426,2.160156 1.2168,-0.191406 q 0.10254,0.731446 0.56738,1.121094 0.47168,0.389648 1.3125,0.389648 0.84766,0 1.25781,-0.341796 0.41016,-0.348633 0.41016,-0.813477 0,-0.416992 -0.36231,-0.65625 -0.25293,-0.164063 -1.25781,-0.416992 -1.35352,-0.341797 -1.87988,-0.587891 -0.51953,-0.25293 -0.79297,-0.69043 -0.2666,-0.444335 -0.2666,-0.977539 0,-0.485351 0.21875,-0.895507 0.22558,-0.416993 0.6084,-0.69043 0.28711,-0.211914 0.77929,-0.355469 0.49903,-0.15039 1.06641,-0.15039 0.85449,0 1.49707,0.246093 0.64941,0.246094 0.95703,0.669922 0.30762,0.416992 0.42383,1.121094 l -1.20313,0.164062 q -0.082,-0.560546 -0.47851,-0.875 -0.38965,-0.314453 -1.10742,-0.314453 -0.84766,0 -1.20996,0.280274 -0.36231,0.280273 -0.36231,0.65625 0,0.239258 0.15039,0.430664 0.15039,0.198242 0.47168,0.328125 0.18457,0.06836 1.08691,0.314453 1.30567,0.348633 1.81836,0.574219 0.51954,0.21875 0.81348,0.642578 0.29395,0.423828 0.29395,1.052734 0,0.615235 -0.36231,1.16211 -0.35547,0.540039 -1.03223,0.84082 -0.67675,0.293945 -1.53125,0.293945 -1.41503,0 -2.16015,-0.58789 -0.73828,-0.587891 -0.94336,-1.743165 z m 7,0 1.2168,-0.191406 q 0.10254,0.731446 0.56738,1.121094 0.47168,0.389648 1.3125,0.389648 0.84766,0 1.25781,-0.341796 0.41016,-0.348633 0.41016,-0.813477 0,-0.416992 -0.36231,-0.65625 -0.25293,-0.164063 -1.25781,-0.416992 -1.35352,-0.341797 -1.87988,-0.587891 -0.51953,-0.25293 -0.79297,-0.69043 -0.2666,-0.444335 -0.2666,-0.977539 0,-0.485351 0.21875,-0.895507 0.22558,-0.416993 0.6084,-0.69043 0.28711,-0.211914 0.77929,-0.355469 0.49903,-0.15039 1.06641,-0.15039 0.85449,0 1.49707,0.246093 0.64941,0.246094 0.95703,0.669922 0.30762,0.416992 0.42383,1.121094 l -1.20313,0.164062 q -0.082,-0.560546 -0.47851,-0.875 -0.38965,-0.314453 -1.10742,-0.314453 -0.84766,0 -1.20996,0.280274 -0.36231,0.280273 -0.36231,0.65625 0,0.239258 0.15039,0.430664 0.15039,0.198242 0.47168,0.328125 0.18457,0.06836 1.08691,0.314453 1.30567,0.348633 1.81836,0.574219 0.51954,0.21875 0.81348,0.642578 0.29395,0.423828 0.29395,1.052734 0,0.615235 -0.36231,1.16211 -0.35547,0.540039 -1.03223,0.84082 -0.67675,0.293945 -1.53125,0.293945 -1.41503,0 -2.16015,-0.58789 -0.73828,-0.587891 -0.94336,-1.743165 z m 12.46191,-0.170898 1.27149,0.157227 q -0.30078,1.114257 -1.11426,1.729492 -0.81348,0.615234 -2.07813,0.615234 -1.59277,0 -2.52929,-0.977539 -0.92969,-0.984375 -0.92969,-2.754883 0,-1.832031 0.94336,-2.84375 0.94336,-1.011718 2.44727,-1.011718 1.45605,0 2.3789,0.99121 0.92285,0.991211 0.92285,2.789063 0,0.109375 -0.007,0.328125 h -5.41407 q 0.0684,1.196289 0.67676,1.832031 0.6084,0.635742 1.51758,0.635742 0.67676,0 1.15527,-0.355468 0.47852,-0.355469 0.75879,-1.134766 z m -4.04004,-1.989258 h 4.05372 q -0.082,-0.916015 -0.46485,-1.374023 -0.58789,-0.710938 -1.52441,-0.710938 -0.84766,0 -1.42871,0.567383 -0.57422,0.567383 -0.63575,1.517578 z m 6.36426,2.160156 1.2168,-0.191406 q 0.10254,0.731446 0.56738,1.121094 0.47168,0.389648 1.3125,0.389648 0.84766,0 1.25781,-0.341796 0.41016,-0.348633 0.41016,-0.813477 0,-0.416992 -0.3623,-0.65625 -0.25293,-0.164063 -1.25782,-0.416992 -1.35351,-0.341797 -1.87988,-0.587891 -0.51953,-0.25293 -0.79297,-0.69043 -0.2666,-0.444335 -0.2666,-0.977539 0,-0.485351 0.21875,-0.895507 0.22559,-0.416993 0.6084,-0.69043 0.28711,-0.211914 0.7793,-0.355469 0.49902,-0.15039 1.0664,-0.15039 0.85449,0 1.49707,0.246093 0.64942,0.246094 0.95703,0.669922 0.30762,0.416992 0.42383,1.121094 l -1.20312,0.164062 q -0.082,-0.560546 -0.47852,-0.875 -0.38965,-0.314453 -1.10742,-0.314453 -0.84766,0 -1.20996,0.280274 -0.36231,0.280273 -0.36231,0.65625 0,0.239258 0.15039,0.430664 0.15039,0.198242 0.47168,0.328125 0.18457,0.06836 1.08692,0.314453 1.30566,0.348633 1.81836,0.574219 0.51953,0.21875 0.81347,0.642578 0.29395,0.423828 0.29395,1.052734 0,0.615235 -0.36231,1.16211 -0.35546,0.540039 -1.03222,0.84082 -0.67676,0.293945 -1.53125,0.293945 -1.41504,0 -2.16016,-0.58789 -0.73828,-0.587891 -0.94336,-1.743165 z m 18.68946,-1.346679 1.32617,0.334961 q -0.417,1.633789 -1.50391,2.495117 -1.08008,0.854492 -2.64551,0.854492 -1.62011,0 -2.63867,-0.65625 -1.01172,-0.663086 -1.54492,-1.914062 -0.52637,-1.250977 -0.52637,-2.686524 0,-1.56543 0.59473,-2.727539 0.60156,-1.168945 1.70215,-1.770508 1.10742,-0.608398 2.43359,-0.608398 1.50391,0 2.5293,0.765625 1.02539,0.765625 1.42871,2.15332 l -1.30567,0.307617 q -0.34863,-1.09375 -1.01171,-1.592773 -0.66309,-0.499024 -1.66797,-0.499024 -1.15528,0 -1.93457,0.553711 -0.77246,0.553711 -1.08692,1.490235 -0.31445,0.929687 -0.31445,1.920898 0,1.278321 0.36914,2.235352 0.37598,0.950195 1.16211,1.421875 0.78613,0.471679 1.70215,0.471679 1.11426,0 1.88672,-0.642578 0.77246,-0.642578 1.0459,-1.907226 z m 2.95996,3.513672 V 56.366421 h 3.78027 q 0.99805,0 1.52441,0.0957 0.73828,0.123047 1.23731,0.47168 0.49902,0.341797 0.7998,0.963867 0.30762,0.622071 0.30762,1.367188 0,1.27832 -0.81348,2.166992 -0.81347,0.881836 -2.93945,0.881836 h -2.57031 v 4.074219 z m 1.32617,-5.256836 h 2.59082 q 1.28515,0 1.82519,-0.478516 0.54004,-0.478516 0.54004,-1.34668 0,-0.628906 -0.32129,-1.073242 -0.31445,-0.451172 -0.83398,-0.594726 -0.33496,-0.08887 -1.23731,-0.08887 h -2.56347 z m 14.58789,-4.764649 h 1.32617 v 5.790039 q 0,1.510743 -0.3418,2.399414 -0.34179,0.888672 -1.2373,1.449219 -0.88867,0.553711 -2.33789,0.553711 -1.4082,0 -2.30371,-0.485351 -0.89551,-0.485352 -1.27832,-1.401368 -0.38282,-0.922851 -0.38282,-2.515625 v -5.790039 h 1.32618 v 5.783203 q 0,1.305664 0.23925,1.927735 0.2461,0.615234 0.83399,0.950195 0.59473,0.334961 1.44922,0.334961 1.46289,0 2.08496,-0.663086 0.62207,-0.663086 0.62207,-2.549805 z"
       id="flowRoot3985"
       transform="translate(-220,518.58527)"
       aria-label="Processes CPU" />
    <flowRoot
       xml:space="preserve"
       id="flowRoot4157"
       style="font-style:normal;font-weight:normal;line-height:0.01%;font-family:sans-serif;letter-spacing:0px;word-spacing:0px;fill:currentColor;fill-opacity:1;stroke:none;stroke-width:1px;stroke-linecap:butt;stroke-linejoin:miter;stroke-opacity:1"><flowRegion
         id="flowRegion4159"
         style="font-family:sans-serif"><rect
           id="rect4161"
           width="10.955056"
           height="72.471909"
           x="16.011236"
           y="-53.932568" /></flowRegion><flowPara
         id="flowPara4163"
         style="font-size:40px;line-height:1.25;font-family:sans-serif"> </flowPara></flowRoot>
    <path
       style="fill:currentColor;line-height:1.25;text-align:center;text-anchor:middle"
       d="m 350.31055,103.93869 3.84863,-10.021487 h 1.42871 l 4.10156,10.021487 h -1.51074 l -1.16894,-3.03516 h -4.19043 l -1.10059,3.03516 z m 2.8916,-4.115237 h 3.39746 l -1.0459,-2.775391 q -0.47851,-1.264649 -0.71094,-2.078125 -0.1914,0.963867 -0.54004,1.914062 z"
       id="flowRoot4120-3"
       transform="translate(-85,527.25226)"
       aria-label="A" />
    <path
       style="fill:currentColor;line-height:1.25;text-align:center;text-anchor:middle"
       d="M 351.35645,103.93869 V 93.917203 h 3.75976 q 1.14844,0 1.83887,0.307617 0.69726,0.300781 1.08691,0.936523 0.39649,0.628906 0.39649,1.319336 0,0.642578 -0.34864,1.209961 -0.34863,0.567383 -1.05273,0.916016 0.90918,0.266601 1.39453,0.909179 0.49219,0.642575 0.49219,1.517575 0,0.70411 -0.30078,1.3125 -0.29395,0.60157 -0.73145,0.92969 -0.4375,0.32813 -1.10058,0.49902 -0.65625,0.16407 -1.61329,0.16407 z m 1.32617,-5.81055 h 2.16699 q 0.88184,0 1.26465,-0.116211 0.50586,-0.150391 0.75879,-0.499023 0.25976,-0.348633 0.25976,-0.875 0,-0.499024 -0.23926,-0.875 -0.23925,-0.382813 -0.68359,-0.519532 -0.44434,-0.143554 -1.52441,-0.143554 h -2.00293 z m 0,4.62793 h 2.49511 q 0.64258,0 0.90235,-0.0478 0.45801,-0.082 0.76562,-0.27344 0.30762,-0.19141 0.50586,-0.55371 0.19824,-0.36914 0.19824,-0.84766 0,-0.56054 -0.2871,-0.9707 -0.28711,-0.416992 -0.79981,-0.581054 Q 355.95703,99.310757 355,99.310757 h -2.31738 z"
       id="flowRoot3585"
       transform="translate(-85,617.25252)"
       aria-label="B" />
    <path
       style="fill:currentColor;line-height:1.25;text-align:center;text-anchor:middle"
       d="m 358.17529,100.42502 1.32617,0.33496 q -0.41699,1.63379 -1.5039,2.49511 -1.08008,0.8545 -2.64551,0.8545 -1.62012,0 -2.63867,-0.65625 -1.01172,-0.66309 -1.54492,-1.91407 -0.52637,-1.25097 -0.52637,-2.686521 0,-1.565429 0.59473,-2.727539 0.60156,-1.168945 1.70214,-1.770507 1.10743,-0.608399 2.4336,-0.608399 1.5039,0 2.5293,0.765625 1.02539,0.765625 1.42871,2.15332 l -1.30567,0.307618 q -0.34863,-1.09375 -1.01172,-1.592774 -0.66308,-0.499023 -1.66797,-0.499023 -1.15527,0 -1.93457,0.553711 -0.77246,0.553711 -1.08691,1.490234 -0.31445,0.929688 -0.31445,1.920898 0,1.278317 0.36914,2.235357 0.37597,0.95019 1.16211,1.42187 0.78613,0.47168 1.70215,0.47168 1.11425,0 1.88671,-0.64258 0.77247,-0.64258 1.0459,-1.90722 z"
       id="flowRoot3593"
       transform="translate(-85,707.25252)"
       aria-label="C" />
    <path
       style="fill:currentColor;line-height:1.25;text-align:center;text-anchor:middle"
       d="M 351.0249,103.93869 V 93.917203 h 3.45215 q 1.16895,0 1.78418,0.143554 0.86133,0.198242 1.46973,0.717774 0.79297,0.669922 1.18261,1.71582 0.39649,1.039062 0.39649,2.378906 0,1.141603 -0.2666,2.023433 -0.2666,0.88184 -0.6836,1.4629 -0.41699,0.57421 -0.91601,0.90918 -0.49219,0.32812 -1.19629,0.49902 -0.69727,0.1709 -1.60645,0.1709 z m 1.32617,-1.18262 h 2.13965 q 0.99121,0 1.55176,-0.18457 0.56738,-0.18457 0.90234,-0.51953 0.47168,-0.47168 0.73145,-1.26465 0.2666,-0.799805 0.2666,-1.934571 0,-1.572265 -0.51953,-2.413086 -0.5127,-0.847656 -1.25098,-1.134765 -0.5332,-0.205078 -1.71582,-0.205078 h -2.10547 z"
       id="flowRoot3601"
       transform="translate(-85,797.25262)"
       aria-label="D" />
    <path
       style="fill:currentColor;line-height:1.25;-inkscape-font-specification:Arial"
       d="m 397.03125,330.64691 v -20.04297 h 13.52148 v 2.36523 h -10.86914 v 6.20703 h 9.40625 v 2.36524 h -9.40625 v 9.10547 z m 16.66602,-17.2129 v -2.83007 h 2.46093 v 2.83007 z m 0,17.2129 v -14.51954 h 2.46093 v 14.51954 z m 6.17968,0 v -14.51954 h 2.21485 v 2.20118 q 0.84765,-1.54493 1.55859,-2.03711 0.72461,-0.49219 1.58594,-0.49219 1.24414,0 2.52929,0.79297 l -0.84765,2.2832 q -0.90235,-0.5332 -1.80469,-0.5332 -0.80664,0 -1.44922,0.49219 -0.64258,0.47851 -0.91601,1.33984 -0.41016,1.3125 -0.41016,2.87109 v 7.60157 z m 8.36719,-4.33399 2.43359,-0.38281 q 0.20508,1.46289 1.13477,2.24219 0.94336,0.77929 2.625,0.77929 1.69531,0 2.51562,-0.68359 0.82032,-0.69727 0.82032,-1.62695 0,-0.83399 -0.72461,-1.3125 -0.50586,-0.32813 -2.51563,-0.83399 -2.70703,-0.68359 -3.75976,-1.17578 -1.03907,-0.50586 -1.58594,-1.38086 -0.5332,-0.88867 -0.5332,-1.95508 0,-0.9707 0.4375,-1.79101 0.45117,-0.83399 1.21679,-1.38086 0.57422,-0.42383 1.5586,-0.71094 0.99804,-0.30078 2.13281,-0.30078 1.70898,0 2.99414,0.49219 1.29883,0.49218 1.91406,1.33984 0.61524,0.83398 0.84766,2.24219 l -2.40625,0.32812 q -0.16406,-1.12109 -0.95703,-1.75 -0.7793,-0.6289 -2.21485,-0.6289 -1.69531,0 -2.41992,0.56054 -0.72461,0.56055 -0.72461,1.3125 0,0.47852 0.30078,0.86133 0.30079,0.39649 0.94336,0.65625 0.36914,0.13672 2.17383,0.62891 2.61133,0.69726 3.63672,1.14844 1.03906,0.4375 1.62695,1.28515 0.58789,0.84766 0.58789,2.10547 0,1.23047 -0.72461,2.32422 -0.71093,1.08008 -2.06445,1.68164 -1.35351,0.58789 -3.0625,0.58789 -2.83008,0 -4.32031,-1.17578 -1.47656,-1.17578 -1.88672,-3.48633 z m 20.35742,2.13281 0.35547,2.17383 q -1.03906,0.21875 -1.85937,0.21875 -1.33985,0 -2.07813,-0.42383 -0.73828,-0.42382 -1.03906,-1.10742 -0.30078,-0.69726 -0.30078,-2.91211 v -8.35351 H 441.875 v -1.91407 h 1.80469 v -3.5957 l 2.44726,-1.47656 v 5.07226 h 2.47461 v 1.91407 h -2.47461 v 8.49023 q 0,1.05274 0.12305,1.35352 0.13672,0.30078 0.42383,0.47851 0.30078,0.17774 0.84765,0.17774 0.41016,0 1.08008,-0.0957 z m 10.63672,2.20118 v -20.04297 h 13.52149 v 2.36523 h -10.86915 v 6.20703 h 9.40625 v 2.36524 h -9.40625 v 9.10547 z m 16.66602,-17.2129 v -2.83007 h 2.46093 v 2.83007 z m 0,17.2129 v -14.51954 h 2.46093 v 14.51954 z m 11.58007,-2.20118 0.35547,2.17383 q -1.03906,0.21875 -1.85937,0.21875 -1.33985,0 -2.07813,-0.42383 -0.73828,-0.42382 -1.03906,-1.10742 -0.30078,-0.69726 -0.30078,-2.91211 v -8.35351 h -1.80469 v -1.91407 h 1.80469 v -3.5957 l 2.44727,-1.47656 v 5.07226 h 2.4746 v 1.91407 h -2.4746 v 8.49023 q 0,1.05274 0.12304,1.35352 0.13672,0.30078 0.42383,0.47851 0.30078,0.17774 0.84766,0.17774 0.41015,0 1.08007,-0.0957 z m 10.5,2.20118 v -20.04297 h 6.9043 q 2.33789,0 3.56836,0.28711 1.72266,0.39648 2.93945,1.43554 1.58594,1.33985 2.36524,3.43164 0.79297,2.07813 0.79297,4.75782 0,2.2832 -0.53321,4.04687 -0.5332,1.76367 -1.36718,2.92578 -0.83399,1.14844 -1.83203,1.81836 -0.98438,0.65625 -2.39258,0.99805 -1.39453,0.3418 -3.21289,0.3418 z m 2.65235,-2.36524 h 4.2793 q 1.98242,0 3.10351,-0.36914 1.13477,-0.36914 1.80469,-1.03906 0.94336,-0.94336 1.46289,-2.5293 0.5332,-1.59961 0.5332,-3.86914 0,-3.14453 -1.03906,-4.82617 -1.02539,-1.69531 -2.50195,-2.26953 -1.06641,-0.41016 -3.43164,-0.41016 h -4.21094 z m 27.19336,-2.31055 2.54297,0.31446 q -0.60157,2.22851 -2.22852,3.45898 -1.62695,1.23047 -4.15625,1.23047 -3.18555,0 -5.05859,-1.95508 -1.85938,-1.96875 -1.85938,-5.50976 0,-3.66407 1.88672,-5.6875 1.88672,-2.02344 4.89453,-2.02344 2.91211,0 4.75781,1.98242 1.84571,1.98242 1.84571,5.57813 0,0.21875 -0.0137,0.65625 h -10.82813 q 0.13672,2.39257 1.35352,3.66406 1.21679,1.27148 3.03515,1.27148 1.35352,0 2.31055,-0.71093 0.95703,-0.71094 1.51758,-2.26954 z M 519.75,321.99261 h 8.10742 q -0.16406,-1.83203 -0.92969,-2.74805 -1.17578,-1.42187 -3.04882,-1.42187 -1.69532,0 -2.85743,1.13476 -1.14843,1.13477 -1.27148,3.03516 z m 23.1875,3.33594 2.41992,0.31445 q -0.39648,2.50195 -2.03711,3.92383 -1.62695,1.4082 -4.00586,1.4082 -2.98047,0 -4.79883,-1.94141 -1.80468,-1.95507 -1.80468,-5.59179 0,-2.35157 0.77929,-4.11524 0.7793,-1.76367 2.36524,-2.63867 1.59961,-0.88867 3.47265,-0.88867 2.36524,0 3.86915,1.20312 1.5039,1.18946 1.92773,3.39063 l -2.39258,0.36914 q -0.3418,-1.46289 -1.2168,-2.20117 -0.86132,-0.73828 -2.09179,-0.73828 -1.85938,0 -3.02149,1.33984 -1.16211,1.32617 -1.16211,4.21094 0,2.92578 1.1211,4.25195 1.12109,1.32617 2.92578,1.32617 1.44922,0 2.41992,-0.88867 0.9707,-0.88867 1.23047,-2.73437 z m 4.49805,5.31836 v -14.51954 h 2.21484 v 2.20118 q 0.84766,-1.54493 1.55859,-2.03711 0.72461,-0.49219 1.58594,-0.49219 1.24414,0 2.5293,0.79297 l -0.84766,2.2832 q -0.90234,-0.5332 -1.80469,-0.5332 -0.80664,0 -1.44921,0.49219 -0.64258,0.47851 -0.91602,1.33984 -0.41016,1.3125 -0.41016,2.87109 v 7.60157 z m 19.29101,-4.67579 2.54297,0.31446 q -0.60156,2.22851 -2.22851,3.45898 -1.62696,1.23047 -4.15625,1.23047 -3.18555,0 -5.0586,-1.95508 -1.85937,-1.96875 -1.85937,-5.50976 0,-3.66407 1.88672,-5.6875 1.88671,-2.02344 4.89453,-2.02344 2.91211,0 4.75781,1.98242 1.8457,1.98242 1.8457,5.57813 0,0.21875 -0.0137,0.65625 h -10.82812 q 0.13671,2.39257 1.35351,3.66406 1.2168,1.27148 3.03516,1.27148 1.35351,0 2.31054,-0.71093 0.95704,-0.71094 1.51758,-2.26954 z m -8.08008,-3.97851 h 8.10743 q -0.16407,-1.83203 -0.92969,-2.74805 -1.17578,-1.42187 -3.04883,-1.42187 -1.69531,0 -2.85742,1.13476 -1.14844,1.13477 -1.27149,3.03516 z m 23.1875,6.86328 q -1.36718,1.16211 -2.63867,1.64062 -1.25781,0.47852 -2.70703,0.47852 -2.39258,0 -3.67773,-1.16211 -1.28516,-1.17578 -1.28516,-2.99414 0,-1.06641 0.47852,-1.94141 0.49218,-0.88867 1.27148,-1.42187 0.79297,-0.5332 1.77734,-0.80664 0.72461,-0.19141 2.1875,-0.36914 2.98047,-0.35547 4.38868,-0.84766 0.0137,-0.50586 0.0137,-0.64258 0,-1.5039 -0.69727,-2.11914 -0.94336,-0.83398 -2.80273,-0.83398 -1.73633,0 -2.57031,0.61523 -0.82032,0.60157 -1.2168,2.14649 l -2.40625,-0.32813 q 0.32812,-1.54492 1.08008,-2.48828 0.75195,-0.95703 2.17382,-1.46289 1.42188,-0.51953 3.29493,-0.51953 1.85937,0 3.02148,0.4375 1.16211,0.4375 1.70899,1.10742 0.54687,0.65625 0.76562,1.66797 0.12305,0.62891 0.12305,2.26953 v 3.28125 q 0,3.43164 0.15039,4.34766 0.16406,0.90234 0.6289,1.73633 h -2.57031 q -0.38281,-0.76563 -0.49219,-1.79102 z m -0.20507,-5.49609 q -1.33985,0.54687 -4.01954,0.92968 -1.51757,0.21875 -2.14648,0.49219 -0.62891,0.27344 -0.9707,0.80664 -0.3418,0.51953 -0.3418,1.16211 0,0.98438 0.73828,1.64063 0.75195,0.65625 2.1875,0.65625 1.42188,0 2.5293,-0.61524 1.10742,-0.6289 1.62695,-1.70898 0.39649,-0.83399 0.39649,-2.46094 z m 5.31836,2.95312 2.43359,-0.38281 q 0.20508,1.46289 1.13476,2.24219 0.94336,0.77929 2.625,0.77929 1.69532,0 2.51563,-0.68359 0.82031,-0.69727 0.82031,-1.62695 0,-0.83399 -0.72461,-1.3125 -0.50586,-0.32813 -2.51562,-0.83399 -2.70703,-0.68359 -3.75977,-1.17578 -1.03906,-0.50586 -1.58594,-1.38086 -0.5332,-0.88867 -0.5332,-1.95508 0,-0.9707 0.4375,-1.79101 0.45117,-0.83399 1.2168,-1.38086 0.57422,-0.42383 1.55859,-0.71094 0.99805,-0.30078 2.13281,-0.30078 1.70899,0 2.99415,0.49219 1.29882,0.49218 1.91406,1.33984 0.61523,0.83398 0.84765,2.24219 l -2.40625,0.32812 q -0.16406,-1.12109 -0.95703,-1.75 -0.77929,-0.6289 -2.21484,-0.6289 -1.69531,0 -2.41992,0.56054 -0.72461,0.56055 -0.72461,1.3125 0,0.47852 0.30078,0.86133 0.30078,0.39649 0.94336,0.65625 0.36914,0.13672 2.17383,0.62891 2.61132,0.69726 3.63672,1.14844 1.03906,0.4375 1.62695,1.28515 0.58789,0.84766 0.58789,2.10547 0,1.23047 -0.72461,2.32422 -0.71094,1.08008 -2.06445,1.68164 -1.35352,0.58789 -3.0625,0.58789 -2.83008,0 -4.32032,-1.17578 -1.47656,-1.17578 -1.88671,-3.48633 z m 14.99804,-12.87891 v -2.83007 h 2.46094 v 2.83007 z m 0,17.2129 v -14.51954 h 2.46094 v 14.51954 z m 6.20703,0 v -14.51954 h 2.21485 v 2.06446 q 1.59961,-2.39258 4.62109,-2.39258 1.3125,0 2.40625,0.47851 1.10742,0.46485 1.6543,1.23047 0.54687,0.76563 0.76562,1.81836 0.13672,0.6836 0.13672,2.39258 v 8.92774 h -2.46094 v -8.83204 q 0,-1.5039 -0.28711,-2.24218 -0.2871,-0.75196 -1.02539,-1.18946 -0.72461,-0.45117 -1.70898,-0.45117 -1.57227,0 -2.7207,0.99805 -1.13477,0.99805 -1.13477,3.78711 v 7.92969 z m 15.1211,1.20312 2.39258,0.35547 q 0.15039,1.10742 0.83398,1.61328 0.91602,0.68359 2.50195,0.68359 1.70899,0 2.63867,-0.68359 0.92969,-0.68359 1.25782,-1.91406 0.1914,-0.75196 0.17773,-3.15821 -1.61328,1.9004 -4.01953,1.9004 -2.99414,0 -4.63477,-2.16016 -1.64062,-2.16016 -1.64062,-5.18164 0,-2.07813 0.75195,-3.82813 0.75196,-1.76367 2.17383,-2.7207 1.43555,-0.95703 3.36328,-0.95703 2.57031,0 4.23828,2.07812 v -1.75 h 2.26953 v 12.55079 q 0,3.39062 -0.69726,4.79882 -0.68359,1.42188 -2.1875,2.24219 -1.49024,0.82031 -3.67774,0.82031 -2.59765,0 -4.19726,-1.17578 -1.59961,-1.16211 -1.54492,-3.51367 z m 2.03711,-8.72266 q 0,2.85743 1.13476,4.16993 1.13477,1.3125 2.84375,1.3125 1.69531,0 2.84375,-1.29883 1.14844,-1.3125 1.14844,-4.10156 0,-2.66602 -1.18945,-4.01954 -1.17578,-1.35351 -2.84375,-1.35351 -1.64063,0 -2.78907,1.33984 -1.14843,1.32617 -1.14843,3.95117 z m 31.24023,5.72852 q -1.36719,1.16211 -2.63867,1.64062 -1.25781,0.47852 -2.70703,0.47852 -2.39258,0 -3.67774,-1.16211 -1.28515,-1.17578 -1.28515,-2.99414 0,-1.06641 0.47851,-1.94141 0.49219,-0.88867 1.27149,-1.42187 0.79297,-0.5332 1.77734,-0.80664 0.72461,-0.19141 2.1875,-0.36914 2.98047,-0.35547 4.38867,-0.84766 0.0137,-0.50586 0.0137,-0.64258 0,-1.5039 -0.69726,-2.11914 -0.94336,-0.83398 -2.80274,-0.83398 -1.73632,0 -2.57031,0.61523 -0.82031,0.60157 -1.21679,2.14649 l -2.40625,-0.32813 q 0.32812,-1.54492 1.08007,-2.48828 0.75196,-0.95703 2.17383,-1.46289 1.42188,-0.51953 3.29492,-0.51953 1.85938,0 3.02149,0.4375 1.16211,0.4375 1.70898,1.10742 0.54688,0.65625 0.76563,1.66797 0.12304,0.62891 0.12304,2.26953 v 3.28125 q 0,3.43164 0.15039,4.34766 0.16407,0.90234 0.62891,1.73633 h -2.57031 q -0.38281,-0.76563 -0.49219,-1.79102 z m -0.20508,-5.49609 q -1.33984,0.54687 -4.01953,0.92968 -1.51758,0.21875 -2.14648,0.49219 -0.62891,0.27344 -0.97071,0.80664 -0.34179,0.51953 -0.34179,1.16211 0,0.98438 0.73828,1.64063 0.75195,0.65625 2.1875,0.65625 1.42187,0 2.5293,-0.61524 1.10742,-0.6289 1.62695,-1.70898 0.39648,-0.83399 0.39648,-2.46094 z m 5.85157,8.49023 2.39257,0.35547 q 0.15039,1.10742 0.83399,1.61328 0.91601,0.68359 2.50195,0.68359 1.70899,0 2.63867,-0.68359 0.92969,-0.68359 1.25782,-1.91406 0.1914,-0.75196 0.17773,-3.15821 -1.61328,1.9004 -4.01953,1.9004 -2.99414,0 -4.63477,-2.16016 -1.64062,-2.16016 -1.64062,-5.18164 0,-2.07813 0.75195,-3.82813 0.75195,-1.76367 2.17383,-2.7207 1.43555,-0.95703 3.36328,-0.95703 2.57031,0 4.23828,2.07812 v -1.75 h 2.26953 v 12.55079 q 0,3.39062 -0.69726,4.79882 -0.6836,1.42188 -2.1875,2.24219 -1.49024,0.82031 -3.67774,0.82031 -2.59765,0 -4.19726,-1.17578 -1.59961,-1.16211 -1.54492,-3.51367 z m 2.0371,-8.72266 q 0,2.85743 1.13477,4.16993 1.13477,1.3125 2.84375,1.3125 1.69531,0 2.84375,-1.29883 1.14844,-1.3125 1.14844,-4.10156 0,-2.66602 -1.18946,-4.01954 -1.17578,-1.35351 -2.84375,-1.35351 -1.64062,0 -2.78906,1.33984 -1.14844,1.32617 -1.14844,3.95117 z m 23.46094,5.72852 q -1.36719,1.16211 -2.63867,1.64062 -1.25781,0.47852 -2.70703,0.47852 -2.39258,0 -3.67774,-1.16211 -1.28515,-1.17578 -1.28515,-2.99414 0,-1.06641 0.47851,-1.94141 0.49219,-0.88867 1.27149,-1.42187 0.79297,-0.5332 1.77734,-0.80664 0.72461,-0.19141 2.1875,-0.36914 2.98047,-0.35547 4.38867,-0.84766 0.0137,-0.50586 0.0137,-0.64258 0,-1.5039 -0.69727,-2.11914 -0.94336,-0.83398 -2.80273,-0.83398 -1.73633,0 -2.57032,0.61523 -0.82031,0.60157 -1.21679,2.14649 l -2.40625,-0.32813 q 0.32812,-1.54492 1.08007,-2.48828 0.75196,-0.95703 2.17383,-1.46289 1.42188,-0.51953 3.29492,-0.51953 1.85938,0 3.02149,0.4375 1.16211,0.4375 1.70898,1.10742 0.54688,0.65625 0.76563,1.66797 0.12305,0.62891 0.12305,2.26953 v 3.28125 q 0,3.43164 0.15039,4.34766 0.16406,0.90234 0.6289,1.73633 h -2.57031 q -0.38281,-0.76563 -0.49219,-1.79102 z m -0.20508,-5.49609 q -1.33984,0.54687 -4.01953,0.92968 -1.51758,0.21875 -2.14648,0.49219 -0.62891,0.27344 -0.9707,0.80664 -0.3418,0.51953 -0.3418,1.16211 0,0.98438 0.73828,1.64063 0.75195,0.65625 2.1875,0.65625 1.42187,0 2.5293,-0.61524 1.10742,-0.6289 1.62695,-1.70898 0.39648,-0.83399 0.39648,-2.46094 z m 6.31641,-9.92579 v -2.83007 h 2.46094 v 2.83007 z m 0,17.2129 v -14.51954 h 2.46094 v 14.51954 z m 6.20703,0 v -14.51954 h 2.21485 v 2.06446 q 1.5996,-2.39258 4.62109,-2.39258 1.3125,0 2.40625,0.47851 1.10742,0.46485 1.6543,1.23047 0.54687,0.76563 0.76562,1.81836 0.13672,0.6836 0.13672,2.39258 v 8.92774 h -2.46094 v -8.83204 q 0,-1.5039 -0.28711,-2.24218 -0.28711,-0.75196 -1.02539,-1.18946 -0.72461,-0.45117 -1.70898,-0.45117 -1.57227,0 -2.72071,0.99805 -1.13476,0.99805 -1.13476,3.78711 v 7.92969 z m 16.26953,0 v -2.80274 h 2.80274 v 2.80274 z m 7.7793,0 v -2.80274 h 2.80273 v 2.80274 z m 7.7793,0 v -2.80274 h 2.80273 v 2.80274 z"
       id="flowRoot3215"
       transform="translate(-364.73437,166.93543)"
       aria-label="First Fit Decreasing again..." />
  </g>
  <g
     id="layer2"
     style="display:inline">
    <path
       id="path4229"
       d="m 490.5,160.49996 0,29.00004"
       style="color:currentColor;fill:none;stroke:#d3d7cf;stroke-width:1px;stroke-linecap:round;stroke-linejoin:round;stroke-miterlimit:4;stroke-opacity:1;stroke-dasharray:none;stroke-dashoffset:0;marker:none;visibility:visible;display:inline;overflow:visible;enable-background:accumulate" />
    <rect
       
       
       y="160.5"
       x="460.5"
       height="29"
       width="209.00002"
       id="rect3231"
       style="fill:none;stroke:currentColor;stroke-width:1;stroke-linecap:round;stroke-linejoin:round;stroke-miterlimit:4;stroke-dasharray:none" />
    <g
       transform="translate(500,-442.36203)"
       id="g3291">
      <rect
         style="fill: #9353C9;stroke: #9353C9;stroke-width:1;stroke-linecap:round;stroke-linejoin:round;stroke-miterlimit:4;stroke-dasharray:none" rx="5" ry="5"
         id="rect3293"
         width="149"
         height="29"
         x="20.5"
         y="602.86218"
         
          />
      <path
         style="fill:white;line-height:1.25;text-align:center;text-anchor:middle"
         d="m 265.3848,83.141966 1.33674,-0.113163 q 0.14853,0.976033 0.68605,1.471123 0.5446,0.488016 1.30845,0.488016 0.91945,0 1.556,-0.693125 0.63654,-0.693125 0.63654,-1.838903 0,-1.089197 -0.61532,-1.718668 -0.60826,-0.62947 -1.59844,-0.62947 -0.61532,0 -1.11041,0.282908 -0.49509,0.275835 -0.778,0.721416 l -1.19529,-0.1556 1.00433,-5.325747 h 5.156 v 1.216505 h -4.13753 l -0.55875,2.786646 q 0.9336,-0.650689 1.95914,-0.650689 1.35796,0 2.29156,0.94067 0.9336,0.94067 0.9336,2.418865 0,1.407469 -0.82044,2.433011 -0.99725,1.258942 -2.72299,1.258942 -1.41454,0 -2.31277,-0.792143 -0.89116,-0.792143 -1.01847,-2.100594 z"
         id="flowRoot3295"
         transform="matrix(1.6568991,0,0,1.6568991,-350.39408,481.72151)"
         aria-label="5" />
    </g>
  </g>
  <g
     id="layer3"
     style="display:inline">
    <path
       style="color:currentColor;fill:none;stroke:#d3d7cf;stroke-width:1px;stroke-linecap:round;stroke-linejoin:round;stroke-miterlimit:4;stroke-opacity:1;stroke-dasharray:none;stroke-dashoffset:0;marker:none;visibility:visible;display:inline;overflow:visible;enable-background:accumulate"
       d="m 490.5,250.49996 0,29.00004"
       id="path4237" />
    <rect
       style="fill:none;stroke:currentColor;stroke-width:1;stroke-linecap:round;stroke-linejoin:round;stroke-miterlimit:4;stroke-dasharray:none"
       id="rect3204"
       width="209.00002"
       height="29"
       x="460.5"
       y="250.5"
       
        />
    <g
       id="g3747"
       transform="translate(500,-352.36219)"
       style="opacity:0.4">
      <rect
         
         
         y="602.86218"
         x="20.5"
         height="29"
         width="149"
         id="rect3749"
         style="fill: #9353C9;stroke: #9353C9;stroke-width:1;stroke-linecap:round;stroke-linejoin:round;stroke-miterlimit:4;stroke-dasharray:none" /> rx="5" ry="5"
      <path
         style="fill:white;line-height:1.25;text-align:center;text-anchor:middle"
         d="m 265.3848,83.141966 1.33674,-0.113163 q 0.14853,0.976033 0.68605,1.471123 0.5446,0.488016 1.30845,0.488016 0.91945,0 1.556,-0.693125 0.63654,-0.693125 0.63654,-1.838903 0,-1.089197 -0.61532,-1.718668 -0.60826,-0.62947 -1.59844,-0.62947 -0.61532,0 -1.11041,0.282908 -0.49509,0.275835 -0.778,0.721416 l -1.19529,-0.1556 1.00433,-5.325747 h 5.156 v 1.216505 h -4.13753 l -0.55875,2.786646 q 0.9336,-0.650689 1.95914,-0.650689 1.35796,0 2.29156,0.94067 0.9336,0.94067 0.9336,2.418865 0,1.407469 -0.82044,2.433011 -0.99725,1.258942 -2.72299,1.258942 -1.41454,0 -2.31277,-0.792143 -0.89116,-0.792143 -1.01847,-2.100594 z"
         id="flowRoot3751"
         transform="matrix(1.6568991,0,0,1.6568991,-350.39408,481.72151)"
         aria-label="5" />
    </g>
    <path
       style="fill:currentColor;line-height:1.25;text-align:end;text-anchor:end;fill:#a40000"
       d="M 408.29492,59.990923 V 47.106158 h 1.74903 l 6.76757,10.116211 V 47.106158 h 1.63477 v 12.884765 h -1.74902 l -6.76758,-10.125 v 10.125 z m 12.22559,-4.666992 q 0,-2.592773 1.4414,-3.84082 1.20411,-1.03711 2.93555,-1.03711 1.92481,0 3.14649,1.265625 1.22167,1.256836 1.22167,3.480469 0,1.801758 -0.54492,2.838867 -0.53613,1.028321 -1.57324,1.59961 -1.02832,0.571289 -2.25,0.571289 -1.95996,0 -3.17285,-1.256836 -1.2041,-1.256836 -1.2041,-3.621094 z m 1.62597,0 q 0,1.792969 0.78223,2.689453 0.78223,0.887696 1.96875,0.887696 1.17774,0 1.95996,-0.896485 0.78223,-0.896484 0.78223,-2.733398 0,-1.731446 -0.79102,-2.619141 -0.78222,-0.896484 -1.95117,-0.896484 -1.18652,0 -1.96875,0.887695 -0.78223,0.887695 -0.78223,2.680664 z m 12.42774,3.251953 0.22851,1.397461 q -0.66796,0.140625 -1.19531,0.140625 -0.86133,0 -1.33594,-0.272461 -0.47461,-0.272461 -0.66796,-0.711914 -0.19336,-0.448242 -0.19336,-1.87207 V 51.887408 H 430.25 v -1.230469 h 1.16016 v -2.311523 l 1.57324,-0.949219 v 3.260742 h 1.59082 v 1.230469 h -1.59082 v 5.458008 q 0,0.676757 0.0791,0.870117 0.0879,0.193359 0.27246,0.307617 0.19336,0.114258 0.54492,0.114258 0.26367,0 0.69434,-0.06152 z m 12.9375,-1.59082 1.63476,0.202148 q -0.38671,1.432618 -1.43261,2.223633 -1.0459,0.791016 -2.67188,0.791016 -2.04785,0 -3.25195,-1.256836 -1.19531,-1.265625 -1.19531,-3.541992 0,-2.355469 1.21289,-3.65625 1.21289,-1.300782 3.14648,-1.300782 1.87207,0 3.0586,1.274415 1.18652,1.274414 1.18652,3.585937 0,0.140625 -0.009,0.421875 h -6.96094 q 0.0879,1.538086 0.87012,2.355469 0.78223,0.817383 1.95117,0.817383 0.87012,0 1.48535,-0.457032 0.61524,-0.457031 0.97559,-1.458984 z m -5.19434,-2.557617 h 5.21192 q -0.10547,-1.177735 -0.59766,-1.766602 -0.75586,-0.914062 -1.95996,-0.914062 -1.08984,0 -1.83691,0.729492 -0.73829,0.729492 -0.81739,1.951172 z m 8.81543,5.563476 v -9.333984 h 1.42383 v 1.327148 q 1.02832,-1.538086 2.9707,-1.538086 0.84375,0 1.54688,0.307618 0.71191,0.298828 1.06348,0.791015 0.35156,0.492188 0.49218,1.168946 0.0879,0.439453 0.0879,1.538086 v 5.739257 h -1.58203 v -5.677734 q 0,-0.966797 -0.18457,-1.441406 -0.18457,-0.483399 -0.65918,-0.764649 -0.46582,-0.290039 -1.09863,-0.290039 -1.01074,0 -1.74902,0.641602 -0.7295,0.641601 -0.7295,2.43457 v 5.097656 z m 9.42188,-4.666992 q 0,-2.592773 1.4414,-3.84082 1.20411,-1.03711 2.93555,-1.03711 1.92481,0 3.14648,1.265625 1.22168,1.256836 1.22168,3.480469 0,1.801758 -0.54492,2.838867 -0.53613,1.028321 -1.57324,1.59961 -1.02832,0.571289 -2.25,0.571289 -1.95996,0 -3.17285,-1.256836 -1.2041,-1.256836 -1.2041,-3.621094 z m 1.62597,0 q 0,1.792969 0.78223,2.689453 0.78223,0.887696 1.96875,0.887696 1.17773,0 1.95996,-0.896485 0.78223,-0.896484 0.78223,-2.733398 0,-1.731446 -0.79102,-2.619141 -0.78222,-0.896484 -1.95117,-0.896484 -1.18652,0 -1.96875,0.887695 -0.78223,0.887695 -0.78223,2.680664 z m 15.09082,4.666992 V 58.61983 q -1.08984,1.582031 -2.96191,1.582031 -0.82617,0 -1.54687,-0.316406 -0.71192,-0.316407 -1.06348,-0.791016 -0.34277,-0.483398 -0.4834,-1.177734 -0.0967,-0.465821 -0.0967,-1.476563 v -5.783203 h 1.58203 v 5.176758 q 0,1.239258 0.0967,1.669922 0.14942,0.624023 0.63281,0.984375 0.4834,0.351562 1.19532,0.351562 0.71191,0 1.33593,-0.360351 0.62403,-0.369141 0.87891,-0.993164 0.26367,-0.632813 0.26367,-1.828125 v -5.000977 h 1.58203 v 9.333984 z m 3.60352,0.773438 1.53809,0.228515 q 0.0967,0.711915 0.53613,1.03711 0.58887,0.439453 1.6084,0.439453 1.09863,0 1.69629,-0.439453 0.59765,-0.439453 0.80859,-1.230469 0.12305,-0.483398 0.11426,-2.030273 -1.03711,1.221679 -2.58399,1.221679 -1.9248,0 -2.97949,-1.388672 -1.05469,-1.388671 -1.05469,-3.331054 0,-1.335938 0.4834,-2.460938 0.4834,-1.133789 1.39746,-1.749023 0.92285,-0.615235 2.16211,-0.615235 1.65235,0 2.72461,1.335938 v -1.125 h 1.45899 v 8.068359 q 0,2.179688 -0.44825,3.084961 -0.43945,0.914063 -1.40625,1.441407 -0.958,0.527343 -2.36425,0.527343 -1.66993,0 -2.69825,-0.755859 -1.02832,-0.74707 -0.99316,-2.258789 z m 1.30957,-5.607422 q 0,1.836914 0.72949,2.680664 0.72949,0.84375 1.82813,0.84375 1.08984,0 1.82812,-0.834961 0.73828,-0.84375 0.73828,-2.636719 0,-1.713867 -0.76464,-2.583984 -0.75586,-0.870117 -1.82813,-0.870117 -1.05469,0 -1.79297,0.861328 -0.73828,0.852539 -0.73828,2.540039 z m 8.99121,4.833984 V 47.106158 h 1.58203 v 4.623047 q 1.10742,-1.283204 2.79492,-1.283204 1.03711,0 1.80176,0.413086 0.76465,0.404297 1.08985,1.125 0.33398,0.720704 0.33398,2.091797 v 5.915039 h -1.58203 v -5.915039 q 0,-1.186523 -0.51856,-1.722656 -0.50976,-0.544922 -1.45019,-0.544922 -0.70313,0 -1.32715,0.369141 -0.61523,0.360351 -0.87891,0.984375 -0.26367,0.624023 -0.26367,1.722656 v 5.106445 z m -31.0166,22.5 v -9.333984 h 1.42383 v 1.415039 q 0.54492,-0.993164 1.00195,-1.30957 0.46582,-0.316407 1.01953,-0.316407 0.79981,0 1.62598,0.509766 l -0.54492,1.467774 q -0.58008,-0.342774 -1.16016,-0.342774 -0.51855,0 -0.93164,0.316406 -0.41309,0.307618 -0.58887,0.861328 -0.26367,0.84375 -0.26367,1.845704 v 4.886718 z m 5.42285,-4.666992 q 0,-2.592773 1.44141,-3.84082 1.2041,-1.03711 2.93554,-1.03711 1.92481,0 3.14649,1.265625 1.22168,1.256836 1.22168,3.480469 0,1.801758 -0.54492,2.838867 -0.53614,1.028321 -1.57325,1.59961 -1.02832,0.571289 -2.25,0.571289 -1.95996,0 -3.17285,-1.256836 -1.2041,-1.256836 -1.2041,-3.621094 z m 1.62598,0 q 0,1.792969 0.78222,2.689453 0.78223,0.887696 1.96875,0.887696 1.17774,0 1.95997,-0.896485 0.78222,-0.896484 0.78222,-2.733398 0,-1.731446 -0.79101,-2.619141 -0.78223,-0.896484 -1.95118,-0.896484 -1.18652,0 -1.96875,0.887695 -0.78222,0.887695 -0.78222,2.680664 z m 8.38476,0 q 0,-2.592773 1.44141,-3.84082 1.2041,-1.03711 2.93555,-1.03711 1.9248,0 3.14648,1.265625 1.22168,1.256836 1.22168,3.480469 0,1.801758 -0.54492,2.838867 -0.53613,1.028321 -1.57324,1.59961 -1.02832,0.571289 -2.25,0.571289 -1.95996,0 -3.17286,-1.256836 -1.2041,-1.256836 -1.2041,-3.621094 z m 1.62598,0 q 0,1.792969 0.78223,2.689453 0.78222,0.887696 1.96875,0.887696 1.17773,0 1.95996,-0.896485 0.78222,-0.896484 0.78222,-2.733398 0,-1.731446 -0.79101,-2.619141 -0.78223,-0.896484 -1.95117,-0.896484 -1.18653,0 -1.96875,0.887695 -0.78223,0.887695 -0.78223,2.680664 z m 8.97363,4.666992 v -9.333984 h 1.41504 v 1.30957 q 0.43945,-0.685547 1.16895,-1.098633 0.72949,-0.421875 1.66113,-0.421875 1.03711,0 1.69629,0.430665 0.66797,0.430664 0.94043,1.204101 1.10742,-1.634766 2.88281,-1.634766 1.38867,0 2.13574,0.773438 0.74707,0.764648 0.74707,2.364258 v 6.407226 h -1.57324 v -5.879882 q 0,-0.949219 -0.1582,-1.362305 -0.14942,-0.421875 -0.55371,-0.676758 -0.4043,-0.254883 -0.94922,-0.254883 -0.98438,0 -1.63477,0.65918 -0.65039,0.650391 -0.65039,2.091797 v 5.422851 h -1.58203 V 76.42647 q 0,-1.054687 -0.38672,-1.582031 -0.38672,-0.527344 -1.26562,-0.527344 -0.66797,0 -1.23926,0.351563 -0.5625,0.351562 -0.81738,1.02832 -0.25489,0.676758 -0.25489,1.951172 v 4.842773 z"
       id="flowRoot3329"
       transform="translate(-49.999998,198.59244)"
       aria-label="Not enough room" />
  </g>
  <g
     id="layer4"
     style="display:inline">
    <path
       id="path3145"
       d="m 490.5,340.49996 0,29.00004"
       style="color:currentColor;fill:none;stroke:#d3d7cf;stroke-width:1px;stroke-linecap:round;stroke-linejoin:round;stroke-miterlimit:4;stroke-opacity:1;stroke-dasharray:none;stroke-dashoffset:0;marker:none;visibility:visible;display:inline;overflow:visible;enable-background:accumulate" />
    <rect
       
       
       y="340.5"
       x="460.5"
       height="29"
       width="209.00002"
       id="rect3234"
       style="fill:none;stroke:currentColor;stroke-width:1;stroke-linecap:round;stroke-linejoin:round;stroke-miterlimit:4;stroke-dasharray:none" />
    <g
       transform="translate(500,-262.36218)"
       id="g3807"
       style="opacity:0.4">
      <rect
         style="fill: #9353C9;stroke: #9353C9;stroke-width:1;stroke-linecap:round;stroke-linejoin:round;stroke-miterlimit:4;stroke-dasharray:none" rx="5" ry="5"
         id="rect3809"
         width="149"
         height="29"
         x="20.5"
         y="602.86218"
         
          />
      <path
         style="fill:white;line-height:1.25;text-align:center;text-anchor:middle"
         d="m 265.3848,83.141966 1.33674,-0.113163 q 0.14853,0.976033 0.68605,1.471123 0.5446,0.488016 1.30845,0.488016 0.91945,0 1.556,-0.693125 0.63654,-0.693125 0.63654,-1.838903 0,-1.089197 -0.61532,-1.718668 -0.60826,-0.62947 -1.59844,-0.62947 -0.61532,0 -1.11041,0.282908 -0.49509,0.275835 -0.778,0.721416 l -1.19529,-0.1556 1.00433,-5.325747 h 5.156 v 1.216505 h -4.13753 l -0.55875,2.786646 q 0.9336,-0.650689 1.95914,-0.650689 1.35796,0 2.29156,0.94067 0.9336,0.94067 0.9336,2.418865 0,1.407469 -0.82044,2.433011 -0.99725,1.258942 -2.72299,1.258942 -1.41454,0 -2.31277,-0.792143 -0.89116,-0.792143 -1.01847,-2.100594 z"
         id="flowRoot3811"
         transform="matrix(1.6568991,0,0,1.6568991,-350.39408,481.72151)"
         aria-label="5" />
    </g>
    <path
       style="fill:currentColor;line-height:1.25;text-align:end;text-anchor:end;fill:#a40000"
       d="M 408.29492,59.990923 V 47.106158 h 1.74903 l 6.76757,10.116211 V 47.106158 h 1.63477 v 12.884765 h -1.74902 l -6.76758,-10.125 v 10.125 z m 12.22559,-4.666992 q 0,-2.592773 1.4414,-3.84082 1.20411,-1.03711 2.93555,-1.03711 1.92481,0 3.14649,1.265625 1.22167,1.256836 1.22167,3.480469 0,1.801758 -0.54492,2.838867 -0.53613,1.028321 -1.57324,1.59961 -1.02832,0.571289 -2.25,0.571289 -1.95996,0 -3.17285,-1.256836 -1.2041,-1.256836 -1.2041,-3.621094 z m 1.62597,0 q 0,1.792969 0.78223,2.689453 0.78223,0.887696 1.96875,0.887696 1.17774,0 1.95996,-0.896485 0.78223,-0.896484 0.78223,-2.733398 0,-1.731446 -0.79102,-2.619141 -0.78222,-0.896484 -1.95117,-0.896484 -1.18652,0 -1.96875,0.887695 -0.78223,0.887695 -0.78223,2.680664 z m 12.42774,3.251953 0.22851,1.397461 q -0.66796,0.140625 -1.19531,0.140625 -0.86133,0 -1.33594,-0.272461 -0.47461,-0.272461 -0.66796,-0.711914 -0.19336,-0.448242 -0.19336,-1.87207 V 51.887408 H 430.25 v -1.230469 h 1.16016 v -2.311523 l 1.57324,-0.949219 v 3.260742 h 1.59082 v 1.230469 h -1.59082 v 5.458008 q 0,0.676757 0.0791,0.870117 0.0879,0.193359 0.27246,0.307617 0.19336,0.114258 0.54492,0.114258 0.26367,0 0.69434,-0.06152 z m 12.9375,-1.59082 1.63476,0.202148 q -0.38671,1.432618 -1.43261,2.223633 -1.0459,0.791016 -2.67188,0.791016 -2.04785,0 -3.25195,-1.256836 -1.19531,-1.265625 -1.19531,-3.541992 0,-2.355469 1.21289,-3.65625 1.21289,-1.300782 3.14648,-1.300782 1.87207,0 3.0586,1.274415 1.18652,1.274414 1.18652,3.585937 0,0.140625 -0.009,0.421875 h -6.96094 q 0.0879,1.538086 0.87012,2.355469 0.78223,0.817383 1.95117,0.817383 0.87012,0 1.48535,-0.457032 0.61524,-0.457031 0.97559,-1.458984 z m -5.19434,-2.557617 h 5.21192 q -0.10547,-1.177735 -0.59766,-1.766602 -0.75586,-0.914062 -1.95996,-0.914062 -1.08984,0 -1.83691,0.729492 -0.73829,0.729492 -0.81739,1.951172 z m 8.81543,5.563476 v -9.333984 h 1.42383 v 1.327148 q 1.02832,-1.538086 2.9707,-1.538086 0.84375,0 1.54688,0.307618 0.71191,0.298828 1.06348,0.791015 0.35156,0.492188 0.49218,1.168946 0.0879,0.439453 0.0879,1.538086 v 5.739257 h -1.58203 v -5.677734 q 0,-0.966797 -0.18457,-1.441406 -0.18457,-0.483399 -0.65918,-0.764649 -0.46582,-0.290039 -1.09863,-0.290039 -1.01074,0 -1.74902,0.641602 -0.7295,0.641601 -0.7295,2.43457 v 5.097656 z m 9.42188,-4.666992 q 0,-2.592773 1.4414,-3.84082 1.20411,-1.03711 2.93555,-1.03711 1.92481,0 3.14648,1.265625 1.22168,1.256836 1.22168,3.480469 0,1.801758 -0.54492,2.838867 -0.53613,1.028321 -1.57324,1.59961 -1.02832,0.571289 -2.25,0.571289 -1.95996,0 -3.17285,-1.256836 -1.2041,-1.256836 -1.2041,-3.621094 z m 1.62597,0 q 0,1.792969 0.78223,2.689453 0.78223,0.887696 1.96875,0.887696 1.17773,0 1.95996,-0.896485 0.78223,-0.896484 0.78223,-2.733398 0,-1.731446 -0.79102,-2.619141 -0.78222,-0.896484 -1.95117,-0.896484 -1.18652,0 -1.96875,0.887695 -0.78223,0.887695 -0.78223,2.680664 z m 15.09082,4.666992 V 58.61983 q -1.08984,1.582031 -2.96191,1.582031 -0.82617,0 -1.54687,-0.316406 -0.71192,-0.316407 -1.06348,-0.791016 -0.34277,-0.483398 -0.4834,-1.177734 -0.0967,-0.465821 -0.0967,-1.476563 v -5.783203 h 1.58203 v 5.176758 q 0,1.239258 0.0967,1.669922 0.14942,0.624023 0.63281,0.984375 0.4834,0.351562 1.19532,0.351562 0.71191,0 1.33593,-0.360351 0.62403,-0.369141 0.87891,-0.993164 0.26367,-0.632813 0.26367,-1.828125 v -5.000977 h 1.58203 v 9.333984 z m 3.60352,0.773438 1.53809,0.228515 q 0.0967,0.711915 0.53613,1.03711 0.58887,0.439453 1.6084,0.439453 1.09863,0 1.69629,-0.439453 0.59765,-0.439453 0.80859,-1.230469 0.12305,-0.483398 0.11426,-2.030273 -1.03711,1.221679 -2.58399,1.221679 -1.9248,0 -2.97949,-1.388672 -1.05469,-1.388671 -1.05469,-3.331054 0,-1.335938 0.4834,-2.460938 0.4834,-1.133789 1.39746,-1.749023 0.92285,-0.615235 2.16211,-0.615235 1.65235,0 2.72461,1.335938 v -1.125 h 1.45899 v 8.068359 q 0,2.179688 -0.44825,3.084961 -0.43945,0.914063 -1.40625,1.441407 -0.958,0.527343 -2.36425,0.527343 -1.66993,0 -2.69825,-0.755859 -1.02832,-0.74707 -0.99316,-2.258789 z m 1.30957,-5.607422 q 0,1.836914 0.72949,2.680664 0.72949,0.84375 1.82813,0.84375 1.08984,0 1.82812,-0.834961 0.73828,-0.84375 0.73828,-2.636719 0,-1.713867 -0.76464,-2.583984 -0.75586,-0.870117 -1.82813,-0.870117 -1.05469,0 -1.79297,0.861328 -0.73828,0.852539 -0.73828,2.540039 z m 8.99121,4.833984 V 47.106158 h 1.58203 v 4.623047 q 1.10742,-1.283204 2.79492,-1.283204 1.03711,0 1.80176,0.413086 0.76465,0.404297 1.08985,1.125 0.33398,0.720704 0.33398,2.091797 v 5.915039 h -1.58203 v -5.915039 q 0,-1.186523 -0.51856,-1.722656 -0.50976,-0.544922 -1.45019,-0.544922 -0.70313,0 -1.32715,0.369141 -0.61523,0.360351 -0.87891,0.984375 -0.26367,0.624023 -0.26367,1.722656 v 5.106445 z m -31.0166,22.5 v -9.333984 h 1.42383 v 1.415039 q 0.54492,-0.993164 1.00195,-1.30957 0.46582,-0.316407 1.01953,-0.316407 0.79981,0 1.62598,0.509766 l -0.54492,1.467774 q -0.58008,-0.342774 -1.16016,-0.342774 -0.51855,0 -0.93164,0.316406 -0.41309,0.307618 -0.58887,0.861328 -0.26367,0.84375 -0.26367,1.845704 v 4.886718 z m 5.42285,-4.666992 q 0,-2.592773 1.44141,-3.84082 1.2041,-1.03711 2.93554,-1.03711 1.92481,0 3.14649,1.265625 1.22168,1.256836 1.22168,3.480469 0,1.801758 -0.54492,2.838867 -0.53614,1.028321 -1.57325,1.59961 -1.02832,0.571289 -2.25,0.571289 -1.95996,0 -3.17285,-1.256836 -1.2041,-1.256836 -1.2041,-3.621094 z m 1.62598,0 q 0,1.792969 0.78222,2.689453 0.78223,0.887696 1.96875,0.887696 1.17774,0 1.95997,-0.896485 0.78222,-0.896484 0.78222,-2.733398 0,-1.731446 -0.79101,-2.619141 -0.78223,-0.896484 -1.95118,-0.896484 -1.18652,0 -1.96875,0.887695 -0.78222,0.887695 -0.78222,2.680664 z m 8.38476,0 q 0,-2.592773 1.44141,-3.84082 1.2041,-1.03711 2.93555,-1.03711 1.9248,0 3.14648,1.265625 1.22168,1.256836 1.22168,3.480469 0,1.801758 -0.54492,2.838867 -0.53613,1.028321 -1.57324,1.59961 -1.02832,0.571289 -2.25,0.571289 -1.95996,0 -3.17286,-1.256836 -1.2041,-1.256836 -1.2041,-3.621094 z m 1.62598,0 q 0,1.792969 0.78223,2.689453 0.78222,0.887696 1.96875,0.887696 1.17773,0 1.95996,-0.896485 0.78222,-0.896484 0.78222,-2.733398 0,-1.731446 -0.79101,-2.619141 -0.78223,-0.896484 -1.95117,-0.896484 -1.18653,0 -1.96875,0.887695 -0.78223,0.887695 -0.78223,2.680664 z m 8.97363,4.666992 v -9.333984 h 1.41504 v 1.30957 q 0.43945,-0.685547 1.16895,-1.098633 0.72949,-0.421875 1.66113,-0.421875 1.03711,0 1.69629,0.430665 0.66797,0.430664 0.94043,1.204101 1.10742,-1.634766 2.88281,-1.634766 1.38867,0 2.13574,0.773438 0.74707,0.764648 0.74707,2.364258 v 6.407226 h -1.57324 v -5.879882 q 0,-0.949219 -0.1582,-1.362305 -0.14942,-0.421875 -0.55371,-0.676758 -0.4043,-0.254883 -0.94922,-0.254883 -0.98438,0 -1.63477,0.65918 -0.65039,0.650391 -0.65039,2.091797 v 5.422851 h -1.58203 V 76.42647 q 0,-1.054687 -0.38672,-1.582031 -0.38672,-0.527344 -1.26562,-0.527344 -0.66797,0 -1.23926,0.351563 -0.5625,0.351562 -0.81738,1.02832 -0.25489,0.676758 -0.25489,1.951172 v 4.842773 z"
       id="flowRoot3472-8-3"
       transform="translate(-49.999998,288.59244)"
       aria-label="Not enough room" />
  </g>
  <g
     id="layer5"
     style="display:inline">
    <rect
       style="fill:none;stroke:currentColor;stroke-width:1;stroke-linecap:round;stroke-linejoin:round;stroke-miterlimit:4;stroke-dasharray:none"
       id="rect3303"
       width="209.00002"
       height="29"
       x="460.5"
       y="430.5"
       
        />
    <g
       style="opacity:0.4"
       id="g3317"
       transform="translate(500,-172.36218)">
      <rect
         
         
         y="602.86218"
         x="20.5"
         height="29"
         width="149"
         id="rect3319"
         style="fill: #9353C9;stroke: #9353C9;stroke-width:1;stroke-linecap:round;stroke-linejoin:round;stroke-miterlimit:4;stroke-dasharray:none" /> rx="5" ry="5"
      <path
         style="fill:white;line-height:1.25;text-align:center;text-anchor:middle"
         d="m 265.3848,83.141966 1.33674,-0.113163 q 0.14853,0.976033 0.68605,1.471123 0.5446,0.488016 1.30845,0.488016 0.91945,0 1.556,-0.693125 0.63654,-0.693125 0.63654,-1.838903 0,-1.089197 -0.61532,-1.718668 -0.60826,-0.62947 -1.59844,-0.62947 -0.61532,0 -1.11041,0.282908 -0.49509,0.275835 -0.778,0.721416 l -1.19529,-0.1556 1.00433,-5.325747 h 5.156 v 1.216505 h -4.13753 l -0.55875,2.786646 q 0.9336,-0.650689 1.95914,-0.650689 1.35796,0 2.29156,0.94067 0.9336,0.94067 0.9336,2.418865 0,1.407469 -0.82044,2.433011 -0.99725,1.258942 -2.72299,1.258942 -1.41454,0 -2.31277,-0.792143 -0.89116,-0.792143 -1.01847,-2.100594 z"
         id="flowRoot3321"
         transform="matrix(1.6568991,0,0,1.6568991,-350.39408,481.72151)"
         aria-label="5" />
    </g>
    <g
       transform="translate(260,-452.36203)"
       id="g3180">
      <rect
         
         
         y="882.86218"
         x="230.5"
         height="29"
         width="29"
         id="rect3182"
         style="fill: #F5B200;stroke: #F5B200;stroke-width:1;stroke-linecap:round;stroke-linejoin:round;stroke-miterlimit:4;stroke-dasharray:none" /> rx="5" ry="5"
      <path
         style="fill:black;line-height:1.25;text-align:center;text-anchor:middle"
         d="m 252.07365,85.857885 h -1.27309 v -8.112393 q -0.45973,0.438508 -1.20943,0.877016 -0.74264,0.438507 -1.33674,0.657761 v -1.230651 q 1.06797,-0.502162 1.86719,-1.216505 0.79922,-0.714343 1.13163,-1.38625 h 0.82044 z"
         id="flowRoot3184"
         transform="matrix(1.6568991,0,0,1.6568991,-170.39408,761.7215)"
         aria-label="1" />
    </g>
  </g>
  <g
     id="layer6"
     style="display:inline">
    <rect
       
       
       y="520"
       x="450"
       height="50"
       width="230"
       id="rect3746"
       style="opacity:0.3;fill:#8ae234;fill-opacity:1;stroke:none" />
    <rect
       style="fill:#ffffff;fill-opacity:1;stroke:none" rx="5" ry="5"
       id="rect3748"
       width="209.00002"
       height="29"
       x="460.5"
       y="530.5"
       
        />
    <rect
       
       
       y="530.5"
       x="460.5"
       height="29"
       width="209.00002"
       id="rect3294"
       style="fill:none;stroke:currentColor;stroke-width:1;stroke-linecap:round;stroke-linejoin:round;stroke-miterlimit:4;stroke-dasharray:none" />
    <path
       style="fill:currentColor;line-height:1.25;text-align:end;text-anchor:end;fill:#4e9a06"
       d="m 305.29785,95.288296 q 0,-2.495117 1.33985,-3.90332 1.33984,-1.415039 3.45898,-1.415039 1.38769,0 2.50195,0.663086 1.11426,0.663086 1.69532,1.852539 0.58789,1.182617 0.58789,2.686523 0,1.524414 -0.61524,2.727539 -0.61523,1.203125 -1.74316,1.825196 -1.12793,0.61523 -2.4336,0.61523 -1.41504,0 -2.52929,-0.68359 -1.11426,-0.683593 -1.68848,-1.866211 -0.57422,-1.182617 -0.57422,-2.501953 z m 1.36719,0.02051 q 0,1.811524 0.9707,2.857422 0.97754,1.039062 2.44727,1.039062 1.49707,0 2.46094,-1.052734 0.9707,-1.052734 0.9707,-2.987305 0,-1.223632 -0.41699,-2.132812 -0.41016,-0.916016 -1.20996,-1.415039 -0.79297,-0.50586 -1.78418,-0.50586 -1.40821,0 -2.42676,0.970704 -1.01172,0.963867 -1.01172,3.226562 z m 9.76855,7.642576 V 92.90939 h 1.1211 v 0.943359 q 0.39648,-0.553711 0.89551,-0.827148 0.49902,-0.280273 1.20996,-0.280273 0.92968,0 1.64062,0.478515 0.71094,0.478516 1.07324,1.353516 0.36231,0.868164 0.36231,1.907226 0,1.114258 -0.40332,2.009766 -0.39649,0.888672 -1.16211,1.367187 -0.75879,0.471682 -1.59961,0.471682 -0.61524,0 -1.10742,-0.25977 -0.48535,-0.259763 -0.79981,-0.656247 v 3.534177 z m 1.11426,-6.371092 q 0,1.401368 0.56738,2.07129 0.56739,0.669921 1.37403,0.669921 0.82031,0 1.40136,-0.690429 0.5879,-0.697266 0.5879,-2.153321 0,-1.387695 -0.57422,-2.078125 -0.56739,-0.690429 -1.36035,-0.690429 -0.78614,0 -1.39454,0.738281 -0.60156,0.731445 -0.60156,2.132812 z m 9.3584,2.488282 0.17773,1.08691 q -0.51953,0.10938 -0.92968,0.10938 -0.66993,0 -1.03907,-0.21192 -0.36914,-0.211909 -0.51953,-0.553706 -0.15039,-0.348633 -0.15039,-1.456055 v -4.176758 h -0.90234 V 92.90939 h 0.90234 v -1.797852 l 1.22364,-0.738281 v 2.536133 h 1.2373 v 0.957031 h -1.2373 v 4.245117 q 0,0.526368 0.0615,0.676758 0.0684,0.150391 0.21191,0.239258 0.15039,0.08887 0.42383,0.08887 0.20508,0 0.54004,-0.04785 z m 1.20996,-7.50586 v -1.415039 h 1.23047 v 1.415039 z m 0,8.60645 v -7.25977 h 1.23047 v 7.25977 z m 3.10352,0 v -7.25977 h 1.10058 v 1.018555 q 0.3418,-0.533203 0.90918,-0.854492 0.56738,-0.328125 1.29199,-0.328125 0.80664,0 1.31934,0.33496 0.51953,0.334961 0.73145,0.936524 0.86132,-1.271484 2.24218,-1.271484 1.08008,0 1.66114,0.601562 0.58105,0.594727 0.58105,1.838867 v 4.983403 h -1.22363 v -4.573247 q 0,-0.738281 -0.12305,-1.05957 -0.11621,-0.328125 -0.43066,-0.526367 -0.31446,-0.198242 -0.73828,-0.198242 -0.76563,0 -1.27149,0.512695 -0.50586,0.505859 -0.50586,1.626953 v 4.217778 h -1.23047 v -4.716801 q 0,-0.820313 -0.30078,-1.230469 -0.30078,-0.410156 -0.98437,-0.410156 -0.51953,0 -0.96387,0.273437 -0.4375,0.273438 -0.63574,0.799805 -0.19824,0.526367 -0.19824,1.517578 v 3.766606 z m 16.39941,-0.895512 q -0.68359,0.581055 -1.31934,0.820312 -0.6289,0.23926 -1.35351,0.23926 -1.19629,0 -1.83887,-0.581057 -0.64258,-0.58789 -0.64258,-1.49707 0,-0.533203 0.23926,-0.970703 0.2461,-0.444336 0.63574,-0.710937 0.39649,-0.266602 0.88868,-0.403321 0.3623,-0.0957 1.09375,-0.18457 1.49023,-0.177734 2.19433,-0.423828 0.007,-0.25293 0.007,-0.321289 0,-0.751953 -0.34864,-1.059571 -0.47168,-0.416992 -1.40136,-0.416992 -0.86817,0 -1.28516,0.307617 -0.41016,0.300782 -0.6084,1.073243 l -1.20312,-0.164063 q 0.16406,-0.772461 0.54004,-1.244141 0.37597,-0.478515 1.08691,-0.731445 0.71094,-0.259765 1.64746,-0.259765 0.92969,0 1.51074,0.21875 0.58106,0.21875 0.8545,0.55371 0.27343,0.328125 0.38281,0.833985 0.0615,0.314453 0.0615,1.134765 v 1.640625 q 0,1.715821 0.0752,2.173829 0.082,0.451171 0.31445,0.868168 h -1.28516 q -0.1914,-0.382817 -0.24609,-0.895512 z m -0.10254,-2.748047 q -0.66992,0.273437 -2.00976,0.464844 -0.75879,0.109375 -1.07325,0.246093 -0.31445,0.136719 -0.48535,0.403321 -0.1709,0.259765 -0.1709,0.581054 0,0.492188 0.36914,0.820313 0.37598,0.328125 1.09375,0.328125 0.71094,0 1.26465,-0.307617 0.55371,-0.314453 0.81348,-0.854492 0.19824,-0.416993 0.19824,-1.230469 z m 3.12402,3.643559 V 90.147671 h 1.23047 v 10.021489 z m 6.53516,-2.166997 1.2168,-0.191406 q 0.10254,0.731446 0.56738,1.121094 0.47168,0.389648 1.3125,0.389648 0.84766,0 1.25781,-0.341796 0.41016,-0.348633 0.41016,-0.813477 0,-0.416992 -0.36231,-0.65625 -0.25292,-0.164063 -1.25781,-0.416992 -1.35351,-0.341797 -1.87988,-0.587891 -0.51953,-0.25293 -0.79297,-0.69043 -0.2666,-0.444335 -0.2666,-0.977539 0,-0.485351 0.21875,-0.895507 0.22559,-0.416993 0.6084,-0.69043 0.28711,-0.211914 0.77929,-0.355469 0.49903,-0.15039 1.06641,-0.15039 0.85449,0 1.49707,0.246093 0.64942,0.246094 0.95703,0.669922 0.30762,0.416992 0.42383,1.121094 l -1.20312,0.164062 q -0.082,-0.560546 -0.47852,-0.875 -0.38965,-0.314453 -1.10742,-0.314453 -0.84766,0 -1.20996,0.280274 -0.36231,0.280273 -0.36231,0.65625 0,0.239258 0.15039,0.430664 0.15039,0.198242 0.47168,0.328125 0.18457,0.06836 1.08692,0.314453 1.30566,0.348633 1.81836,0.574219 0.51953,0.21875 0.81347,0.642578 0.29395,0.423828 0.29395,1.052734 0,0.615235 -0.36231,1.16211 -0.35547,0.540039 -1.03222,0.840817 -0.67676,0.29395 -1.53125,0.29395 -1.41504,0 -2.16016,-0.587892 -0.73828,-0.587891 -0.94336,-1.743165 z m 7.03418,-1.46289 q 0,-2.016602 1.12109,-2.987305 0.93653,-0.80664 2.28321,-0.80664 1.49707,0 2.44726,0.984375 0.9502,0.977539 0.9502,2.707031 0,1.401367 -0.42383,2.208008 -0.41699,0.799804 -1.22363,1.24414 -0.79981,0.444338 -1.75,0.444338 -1.52442,0 -2.46778,-0.977541 -0.93652,-0.977539 -0.93652,-2.816406 z m 1.26465,0 q 0,1.394531 0.6084,2.091797 0.6084,0.690429 1.53125,0.690429 0.91601,0 1.52441,-0.697265 0.6084,-0.697266 0.6084,-2.125977 0,-1.346679 -0.61523,-2.037109 -0.6084,-0.697266 -1.51758,-0.697266 -0.92285,0 -1.53125,0.69043 -0.6084,0.69043 -0.6084,2.084961 z m 6.95215,3.629887 V 90.147671 h 1.23047 v 10.021489 z m 7.89551,0 v -1.066411 q -0.84766,1.230471 -2.30372,1.230471 -0.64257,0 -1.20312,-0.2461 -0.55371,-0.246089 -0.82715,-0.61523 -0.2666,-0.375977 -0.37598,-0.916016 -0.0752,-0.362304 -0.0752,-1.148437 V 92.90939 h 1.23047 v 4.026367 q 0,0.963867 0.0752,1.298828 0.11621,0.485352 0.49219,0.765625 0.37598,0.273438 0.92969,0.273438 0.55371,0 1.03906,-0.280274 0.48535,-0.287109 0.68359,-0.772461 0.20508,-0.492187 0.20508,-1.421875 V 92.90939 h 1.23047 v 7.25977 z m 5.71484,-1.10059 0.17773,1.08691 q -0.51953,0.10938 -0.92968,0.10938 -0.66993,0 -1.03907,-0.21192 -0.36914,-0.211909 -0.51953,-0.553706 -0.15039,-0.348633 -0.15039,-1.456055 v -4.176758 h -0.90234 V 92.90939 h 0.90234 v -1.797852 l 1.22363,-0.738281 v 2.536133 h 1.23731 v 0.957031 h -1.23731 v 4.245117 q 0,0.526368 0.0615,0.676758 0.0684,0.150391 0.21191,0.239258 0.15039,0.08887 0.42383,0.08887 0.20508,0 0.54004,-0.04785 z m 1.20996,-7.50586 v -1.415039 h 1.23047 v 1.415039 z m 0,8.60645 v -7.25977 h 1.23047 v 7.25977 z m 2.64551,-3.629887 q 0,-2.016602 1.12109,-2.987305 0.93653,-0.80664 2.2832,-0.80664 1.49708,0 2.44727,0.984375 0.9502,0.977539 0.9502,2.707031 0,1.401367 -0.42383,2.208008 -0.41699,0.799804 -1.22364,1.24414 -0.7998,0.444338 -1.75,0.444338 -1.52441,0 -2.46777,-0.977541 -0.93652,-0.977539 -0.93652,-2.816406 z m 1.26465,0 q 0,1.394531 0.60839,2.091797 0.6084,0.690429 1.53125,0.690429 0.91602,0 1.52442,-0.697265 0.6084,-0.697266 0.6084,-2.125977 0,-1.346679 -0.61524,-2.037109 -0.6084,-0.697266 -1.51758,-0.697266 -0.92285,0 -1.53125,0.69043 -0.60839,0.69043 -0.60839,2.084961 z m 6.97949,3.629887 v -7.25977 h 1.10742 v 1.032227 q 0.79981,-1.196289 2.31055,-1.196289 0.65625,0 1.20312,0.239257 0.55371,0.232422 0.82715,0.615235 0.27344,0.382812 0.38281,0.909179 0.0684,0.341797 0.0684,1.196289 v 4.463872 h -1.23047 v -4.41602 q 0,-0.751953 -0.14355,-1.121094 -0.14356,-0.375976 -0.5127,-0.594726 -0.3623,-0.225586 -0.85449,-0.225586 -0.78613,0 -1.36035,0.499023 -0.56738,0.499024 -0.56738,1.893555 v 3.964848 z"
       id="flowRoot4120-4"
       transform="translate(35.000006,447.36893)"
       aria-label="Optimal solution" />
    <g
       id="g3207"
       transform="translate(410,-152.36233)">
      <g
         id="g3209"
         transform="matrix(0.99719922,0,0,1,90.308089,-9.9998486)">
        <rect
           style="fill: #00C85E;stroke: #00C85E;stroke-width:1.00140333;stroke-linecap:round;stroke-linejoin:round;stroke-miterlimit:4;stroke-dasharray:none" rx="5" ry="5"
           id="rect3211"
           width="119.33422"
           height="29"
           x="50.332878"
           y="692.86218"
           
            />
      </g>
      <path
         style="fill:black;line-height:1.25;text-align:center;text-anchor:middle"
         d="m 260.41301,85.857885 v -2.48252 h -4.49824 v -1.166996 l 4.73164,-6.71907 h 1.03969 v 6.71907 h 1.4004 v 1.166996 h -1.4004 v 2.48252 z m 0,-3.649516 v -4.675058 l -3.24637,4.675058 z"
         id="flowRoot3213"
         transform="matrix(1.6568991,0,0,1.6568991,-230.39408,561.72166)"
         aria-label="4" />
    </g>
    <g
       id="g3221"
       transform="translate(290,-242.36218)">
      <rect
         style="fill: #4F625F;stroke: #4F625F;stroke-width:1;stroke-linecap:round;stroke-linejoin:round;stroke-miterlimit:4;stroke-dasharray:none" rx="5" ry="5"
         id="rect3223"
         width="89"
         height="29"
         x="170.5"
         y="772.86218"
         
          />
      <path
         style="fill:white;line-height:1.25;text-align:center;text-anchor:middle"
         d="m 229.17996,83.120748 1.27308,-0.169745 q 0.21926,1.082124 0.74264,1.563068 0.53045,0.473871 1.28723,0.473871 0.89823,0 1.51356,-0.622398 0.6224,-0.622398 0.6224,-1.54185 0,-0.877015 -0.57289,-1.442831 -0.57289,-0.57289 -1.45698,-0.57289 -0.36071,0 -0.89823,0.141455 l 0.14145,-1.117488 q 0.12731,0.01415 0.20511,0.01415 0.81336,0 1.46405,-0.424363 0.65069,-0.424362 0.65069,-1.30845 0,-0.700198 -0.47387,-1.159924 -0.47387,-0.459726 -1.22358,-0.459726 -0.74264,0 -1.23772,0.466799 -0.49509,0.466798 -0.63655,1.400395 l -1.27308,-0.226326 q 0.23339,-1.28016 1.0609,-1.980358 0.82751,-0.70727 2.05816,-0.70727 0.84872,0 1.56307,0.36778 0.71434,0.360708 1.08919,0.990179 0.38193,0.629471 0.38193,1.336742 0,0.671907 -0.36071,1.223578 -0.36071,0.551671 -1.06798,0.877015 0.91945,0.212181 1.42869,0.884088 0.50923,0.664834 0.50923,1.669159 0,1.357959 -0.99018,2.305702 -0.99017,0.940669 -2.50373,0.940669 -1.36504,0 -2.27034,-0.813361 -0.89823,-0.813361 -1.02554,-2.107666 z"
         id="flowRoot3225"
         transform="matrix(1.6568991,0,0,1.6568991,-170.39408,651.72166)"
         aria-label="3" />
    </g>
    <path
       style="fill:currentColor;line-height:1.25;fill:#a40000"
       d="M 381.37109,59.990923 V 47.106158 h 1.74903 l 6.76758,10.116211 V 47.106158 h 1.63476 v 12.884765 h -1.74902 l -6.76758,-10.125 v 10.125 z m 12.22559,-4.666992 q 0,-2.592773 1.44141,-3.84082 1.2041,-1.03711 2.93554,-1.03711 1.92481,0 3.14649,1.265625 1.22168,1.256836 1.22168,3.480469 0,1.801758 -0.54493,2.838867 -0.53613,1.028321 -1.57324,1.59961 -1.02832,0.571289 -2.25,0.571289 -1.95996,0 -3.17285,-1.256836 -1.2041,-1.256836 -1.2041,-3.621094 z m 1.62598,0 q 0,1.792969 0.78222,2.689453 0.78223,0.887696 1.96875,0.887696 1.17774,0 1.95996,-0.896485 0.78223,-0.896484 0.78223,-2.733398 0,-1.731446 -0.79102,-2.619141 -0.78222,-0.896484 -1.95117,-0.896484 -1.18652,0 -1.96875,0.887695 -0.78222,0.887695 -0.78222,2.680664 z m 12.42773,3.251953 0.22852,1.397461 q -0.66797,0.140625 -1.19532,0.140625 -0.86132,0 -1.33593,-0.272461 -0.47461,-0.272461 -0.66797,-0.711914 -0.19336,-0.448242 -0.19336,-1.87207 v -5.370117 h -1.16016 v -1.230469 h 1.16016 v -2.311523 l 1.57324,-0.949219 v 3.260742 h 1.59082 v 1.230469 h -1.59082 v 5.458008 q 0,0.676757 0.0791,0.870117 0.0879,0.193359 0.27246,0.307617 0.19336,0.114258 0.54492,0.114258 0.26368,0 0.69434,-0.06152 z m 5.95898,-3.251953 q 0,-2.592773 1.44141,-3.84082 1.2041,-1.03711 2.93555,-1.03711 1.9248,0 3.14648,1.265625 1.22168,1.256836 1.22168,3.480469 0,1.801758 -0.54492,2.838867 -0.53613,1.028321 -1.57324,1.59961 -1.02832,0.571289 -2.25,0.571289 -1.95996,0 -3.17285,-1.256836 -1.20411,-1.256836 -1.20411,-3.621094 z m 1.62598,0 q 0,1.792969 0.78223,2.689453 0.78222,0.887696 1.96875,0.887696 1.17773,0 1.95996,-0.896485 0.78223,-0.896484 0.78223,-2.733398 0,-1.731446 -0.79102,-2.619141 -0.78223,-0.896484 -1.95117,-0.896484 -1.18653,0 -1.96875,0.887695 -0.78223,0.887695 -0.78223,2.680664 z m 8.97363,8.244141 V 50.656939 h 1.44141 v 1.212891 q 0.50977,-0.711914 1.15137,-1.063477 0.6416,-0.360352 1.55566,-0.360352 1.19531,0 2.10938,0.615235 0.91406,0.615234 1.37988,1.740234 0.46582,1.116211 0.46582,2.452149 0,1.432617 -0.51855,2.583984 -0.50977,1.142578 -1.49415,1.757813 -0.97558,0.606445 -2.05664,0.606445 -0.79101,0 -1.42382,-0.333985 -0.62403,-0.333984 -1.02832,-0.84375 v 4.543946 z m 1.43262,-8.191406 q 0,1.801757 0.72949,2.663085 0.7295,0.861329 1.76661,0.861329 1.05468,0 1.80175,-0.887696 0.75586,-0.896484 0.75586,-2.768554 0,-1.78418 -0.73828,-2.671875 -0.72949,-0.887696 -1.74902,-0.887696 -1.01074,0 -1.79297,0.949219 -0.77344,0.94043 -0.77344,2.742188 z m 12.03223,3.199218 0.22851,1.397461 q -0.66797,0.140625 -1.19531,0.140625 -0.86133,0 -1.33594,-0.272461 -0.47461,-0.272461 -0.66797,-0.711914 -0.19335,-0.448242 -0.19335,-1.87207 v -5.370117 h -1.16016 v -1.230469 h 1.16016 v -2.311523 l 1.57324,-0.949219 v 3.260742 h 1.59082 v 1.230469 h -1.59082 v 5.458008 q 0,0.676757 0.0791,0.870117 0.0879,0.193359 0.27246,0.307617 0.19336,0.114258 0.54492,0.114258 0.26367,0 0.69434,-0.06152 z m 1.55566,-9.65039 v -1.819336 h 1.58203 v 1.819336 z m 0,11.065429 v -9.333984 h 1.58203 v 9.333984 z m 3.99024,0 v -9.333984 h 1.41504 v 1.30957 q 0.43945,-0.685547 1.16894,-1.098633 0.72949,-0.421875 1.66113,-0.421875 1.03711,0 1.69629,0.430665 0.66797,0.430664 0.94043,1.204101 1.10742,-1.634766 2.88281,-1.634766 1.38868,0 2.13575,0.773438 0.74707,0.764648 0.74707,2.364258 v 6.407226 h -1.57324 v -5.879882 q 0,-0.949219 -0.15821,-1.362305 -0.14941,-0.421875 -0.55371,-0.676758 -0.4043,-0.254883 -0.94922,-0.254883 -0.98437,0 -1.63476,0.65918 -0.65039,0.650391 -0.65039,2.091797 v 5.422851 h -1.58204 V 53.92647 q 0,-1.054687 -0.38671,-1.582031 -0.38672,-0.527344 -1.26563,-0.527344 -0.66797,0 -1.23926,0.351563 -0.5625,0.351562 -0.81738,1.02832 -0.25488,0.676758 -0.25488,1.951172 v 4.842773 z m 21.08496,-1.151367 q -0.87891,0.74707 -1.69629,1.054688 -0.8086,0.307617 -1.74024,0.307617 -1.53808,0 -2.36425,-0.74707 -0.82618,-0.75586 -0.82618,-1.924805 0,-0.685547 0.30762,-1.248047 0.31641,-0.571289 0.81738,-0.914063 0.50977,-0.342773 1.14258,-0.518554 0.46582,-0.123047 1.40625,-0.237305 1.91602,-0.228516 2.82129,-0.544922 0.009,-0.325195 0.009,-0.413086 0,-0.966797 -0.44824,-1.362304 -0.60645,-0.536133 -1.80176,-0.536133 -1.11621,0 -1.65234,0.395508 -0.52735,0.386718 -0.78223,1.379882 l -1.54687,-0.210937 q 0.21093,-0.993164 0.69433,-1.599609 0.4834,-0.615235 1.39746,-0.94043 0.91406,-0.333985 2.11817,-0.333985 1.19531,0 1.94238,0.28125 0.74707,0.28125 1.09863,0.711915 0.35156,0.421875 0.49219,1.072265 0.0791,0.404297 0.0791,1.458985 v 2.109375 q 0,2.206054 0.0967,2.794921 0.10547,0.580079 0.4043,1.116211 h -1.65235 q -0.24609,-0.492187 -0.3164,-1.151367 z m -0.13184,-3.533203 q -0.86133,0.351563 -2.58398,0.597656 -0.97559,0.140625 -1.37989,0.316407 -0.40429,0.175781 -0.62402,0.518554 -0.21973,0.333985 -0.21973,0.747071 0,0.632812 0.47461,1.054687 0.4834,0.421875 1.40625,0.421875 0.91407,0 1.62598,-0.395508 0.71191,-0.404297 1.0459,-1.098633 0.25488,-0.536132 0.25488,-1.582031 z m 4.0166,4.68457 V 47.106158 h 1.58203 v 12.884765 z m 4.87793,-3.199218 -0.4834,-6.829102 v -2.856445 h 1.95997 v 2.856445 l -0.45704,6.829102 z m -0.41308,3.199218 v -1.801757 h 1.81933 v 1.801757 z"
       id="flowRoot3438"
       transform="translate(298.62891,388.15918)"
       aria-label="Not optimal!" />
    <path
       style="fill:currentColor;line-height:1.25;text-align:center;text-anchor:middle"
       d="m 548.23828,830.64691 v -20.04297 h 13.52149 v 2.36523 h -10.86915 v 6.20703 h 9.40625 v 2.36524 h -9.40625 v 9.10547 z m 13.2207,0 7.69727,-20.04297 h 2.85742 l 8.20313,20.04297 h -3.02149 l -2.33789,-6.07032 h -8.38086 l -2.20117,6.07032 z m 5.78321,-8.23047 h 6.79492 l -2.0918,-5.55078 q -0.95703,-2.5293 -1.42187,-4.15625 -0.38282,1.92773 -1.08008,3.82812 z m 15.54492,8.23047 v -20.04297 h 2.65234 v 20.04297 z m 7.21875,0 v -20.04297 h 2.65234 v 17.67773 h 9.8711 v 2.36524 z"
       id="flowRoot3473"
       transform="translate(-374.18457,-277.96332)"
       aria-label="FAIL" />
  </g>
</svg>
