<?xml version="1.0" encoding="UTF-8" standalone="no"?>
<!-- Created with Inkscape (http://www.inkscape.org/) -->

<svg
   width="800"
   height="600"
   id="svg2"
   version="1.1"
   xmlns="http://www.w3.org/2000/svg"
   xmlns:svg="http://www.w3.org/2000/svg"
   xmlns:rdf="http://www.w3.org/1999/02/22-rdf-syntax-ns#"
   xmlns:cc="http://creativecommons.org/ns#"
   xmlns:dc="http://purl.org/dc/elements/1.1/">
  <defs
     id="defs4" />
  <metadata
     id="metadata7">
    <rdf:RDF>
      <cc:Work
         rdf:about="">
        <dc:format>image/svg+xml</dc:format>
        <dc:type
           rdf:resource="http://purl.org/dc/dcmitype/StillImage" />
        <dc:language>en</dc:language>
        <cc:license
           rdf:resource="https://timefold.ai/product/license/" />
      </cc:Work>
    </rdf:RDF>
  </metadata>
  <g
     id="layer1"
     transform="translate(0,-452.36218)">
    <g
       id="g3709"
       transform="translate(0,19.999997)" />
    <flowRoot
       xml:space="preserve"
       id="flowRoot4157"
       style="font-style:normal;font-weight:normal;line-height:0.01%;font-family:sans-serif;letter-spacing:0px;word-spacing:0px;fill:currentColor;fill-opacity:1;stroke:none;stroke-width:1px;stroke-linecap:butt;stroke-linejoin:miter;stroke-opacity:1"><flowRegion
         id="flowRegion4159"
         style="font-family:sans-serif"><rect
           id="rect4161"
           width="10.955056"
           height="72.471909"
           x="16.011236"
           y="-53.932568" /></flowRegion><flowPara
         id="flowPara4163"
         style="font-size:40px;line-height:1.25;font-family:sans-serif"> </flowPara></flowRoot>
    <rect
       
       
       y="782.86218"
       x="300.49985"
       height="29"
       width="209.00002"
       id="rect3163"
       style="fill:none;stroke:currentColor;stroke-width:1;stroke-linecap:round;stroke-linejoin:round;stroke-miterlimit:4;stroke-dasharray:none" />
    <rect
       style="fill:none;stroke:currentColor;stroke-width:0.99999994;stroke-linecap:round;stroke-linejoin:round;stroke-miterlimit:4;stroke-dasharray:none"
       id="rect3165"
       width="179"
       height="29"
       x="330.49985"
       y="822.86218"
       
        />
    <g
       id="g3167"
       transform="translate(339.99983,89.999987)">
      <rect
         style="fill: #00C85E;stroke: #00C85E;stroke-width:1;stroke-linecap:round;stroke-linejoin:round;stroke-miterlimit:4;stroke-dasharray:none" rx="5" ry="5"
         id="rect3169"
         width="119"
         height="29"
         x="50.5"
         y="692.86218"
         
          />
      <path
         style="fill:black;line-height:1.25;text-align:center;text-anchor:middle"
         d="m 260.41301,85.857885 v -2.48252 h -4.49824 v -1.166996 l 4.73164,-6.71907 h 1.03969 v 6.71907 h 1.4004 v 1.166996 h -1.4004 v 2.48252 z m 0,-3.649516 v -4.675058 l -3.24637,4.675058 z"
         id="flowRoot3171"
         transform="matrix(1.6568991,0,0,1.6568991,-320.39408,571.72151)"
         aria-label="4" />
    </g>
    <g
       transform="translate(339.99983,220)"
       id="g3191">
      <rect
         style="fill: #9353C9;stroke: #9353C9;stroke-width:1;stroke-linecap:round;stroke-linejoin:round;stroke-miterlimit:4;stroke-dasharray:none" rx="5" ry="5"
         id="rect3193"
         width="149"
         height="29"
         x="20.5"
         y="602.86218"
         
          />
      <path
         style="fill:white;line-height:1.25;text-align:center;text-anchor:middle"
         d="m 265.3848,83.141966 1.33674,-0.113163 q 0.14853,0.976033 0.68605,1.471123 0.5446,0.488016 1.30845,0.488016 0.91945,0 1.556,-0.693125 0.63654,-0.693125 0.63654,-1.838903 0,-1.089197 -0.61532,-1.718668 -0.60826,-0.62947 -1.59844,-0.62947 -0.61532,0 -1.11041,0.282908 -0.49509,0.275835 -0.778,0.721416 l -1.19529,-0.1556 1.00433,-5.325747 h 5.156 v 1.216505 h -4.13753 l -0.55875,2.786646 q 0.9336,-0.650689 1.95914,-0.650689 1.35796,0 2.29156,0.94067 0.9336,0.94067 0.9336,2.418865 0,1.407469 -0.82044,2.433011 -0.99725,1.258942 -2.72299,1.258942 -1.41454,0 -2.31277,-0.792143 -0.89116,-0.792143 -1.01847,-2.100594 z"
         id="flowRoot3195"
         transform="matrix(1.6568991,0,0,1.6568991,-350.39408,481.72151)"
         aria-label="5" />
    </g>
    <path
       style="fill:currentColor;line-height:1.25;text-align:center;text-anchor:middle"
       d="m 350.39258,97.719937 3.87597,-5.222656 -3.41796,-4.798828 h 1.5791 l 1.81836,2.570312 q 0.56738,0.799805 0.80664,1.230469 0.33496,-0.546875 0.79297,-1.141602 l 2.0166,-2.659179 h 1.44238 l -3.52051,4.723632 3.79395,5.297852 h -1.64063 l -2.52246,-3.575195 q -0.21191,-0.307618 -0.4375,-0.669922 -0.33496,0.546875 -0.47851,0.751953 l -2.51563,3.493164 z"
       id="flowRoot3203"
       transform="translate(-65.000401,703.47085)"
       aria-label="X" />
    <path
       style="fill:currentColor;line-height:1.25;text-align:center;text-anchor:middle"
       d="M 354.23437,97.719937 V 93.47482 l -3.8623,-5.776367 h 1.61328 l 1.97559,3.021484 q 0.54687,0.847656 1.01855,1.695312 0.45117,-0.786132 1.09375,-1.770507 l 1.94141,-2.946289 h 1.54492 l -3.99902,5.776367 v 4.245117 z"
       id="flowRoot3211"
       transform="translate(-65.000401,743.47111)"
       aria-label="Y" />
    <rect
       style="fill:none;stroke:currentColor;stroke-width:1;stroke-linecap:round;stroke-linejoin:round;stroke-miterlimit:4;stroke-dasharray:none"
       id="rect3231"
       width="209.00002"
       height="29"
       x="300.49985"
       y="682.86218"
       
        />
    <rect
       
       
       y="722.86218"
       x="330.49985"
       height="29"
       width="179"
       id="rect3233"
       style="fill:none;stroke:currentColor;stroke-width:0.99999994;stroke-linecap:round;stroke-linejoin:round;stroke-miterlimit:4;stroke-dasharray:none" />
    <g
       transform="translate(339.99983,-10.000016)"
       id="g3235">
      <rect
         
         
         y="692.86218"
         x="50.5"
         height="29"
         width="119"
         id="rect3237"
         style="fill: #00C85E;stroke: #00C85E;stroke-width:1;stroke-linecap:round;stroke-linejoin:round;stroke-miterlimit:4;stroke-dasharray:none" /> rx="5" ry="5"
      <path
         style="fill:black;line-height:1.25;text-align:center;text-anchor:middle"
         d="m 260.41301,85.857885 v -2.48252 h -4.49824 v -1.166996 l 4.73164,-6.71907 h 1.03969 v 6.71907 h 1.4004 v 1.166996 h -1.4004 v 2.48252 z m 0,-3.649516 v -4.675058 l -3.24637,4.675058 z"
         id="flowRoot3239"
         transform="matrix(1.6568991,0,0,1.6568991,-320.39408,571.72151)"
         aria-label="4" />
    </g>
    <g
       id="g3247"
       transform="translate(219.99983,-100.00002)">
      <rect
         
         
         y="782.86218"
         x="110.5"
         height="29"
         width="59"
         id="rect3249"
         style="fill: #4F625F;stroke: #4F625F;stroke-width:1;stroke-linecap:round;stroke-linejoin:round;stroke-miterlimit:4;stroke-dasharray:none" /> rx="5" ry="5"
      <path
         style="fill:white;line-height:1.25;text-align:center;text-anchor:middle"
         d="m 244.9164,84.634307 v 1.223578 h -6.85345 q -0.0142,-0.459726 0.14852,-0.884088 0.26169,-0.700198 0.83458,-1.379178 0.57996,-0.678979 1.66916,-1.57014 1.69038,-1.38625 2.28448,-2.192539 0.59411,-0.813361 0.59411,-1.534777 0,-0.756779 -0.5446,-1.273087 -0.53752,-0.52338 -1.40747,-0.52338 -0.91945,0 -1.47112,0.551671 -0.55167,0.551671 -0.55874,1.527704 l -1.30845,-0.134381 q 0.13438,-1.46405 1.01139,-2.227902 0.87702,-0.770925 2.35522,-0.770925 1.49234,0 2.36228,0.827506 0.86994,0.827507 0.86994,2.051085 0,0.622398 -0.25462,1.223578 -0.25461,0.60118 -0.84872,1.266014 -0.58703,0.664834 -1.95914,1.824758 -1.14578,0.961888 -1.47112,1.308451 -0.32535,0.339489 -0.53753,0.686052 z"
         id="flowRoot3251"
         transform="matrix(1.6568991,0,0,1.6568991,-260.39408,661.72151)"
         aria-label="2" />
    </g>
    <g
       id="g3259"
       transform="translate(339.99983,120)">
      <rect
         
         
         y="602.86218"
         x="20.5"
         height="29"
         width="149"
         id="rect3261"
         style="fill: #9353C9;stroke: #9353C9;stroke-width:1;stroke-linecap:round;stroke-linejoin:round;stroke-miterlimit:4;stroke-dasharray:none" /> rx="5" ry="5"
      <path
         style="fill:white;line-height:1.25;text-align:center;text-anchor:middle"
         d="m 265.3848,83.141966 1.33674,-0.113163 q 0.14853,0.976033 0.68605,1.471123 0.5446,0.488016 1.30845,0.488016 0.91945,0 1.556,-0.693125 0.63654,-0.693125 0.63654,-1.838903 0,-1.089197 -0.61532,-1.718668 -0.60826,-0.62947 -1.59844,-0.62947 -0.61532,0 -1.11041,0.282908 -0.49509,0.275835 -0.778,0.721416 l -1.19529,-0.1556 1.00433,-5.325747 h 5.156 v 1.216505 h -4.13753 l -0.55875,2.786646 q 0.9336,-0.650689 1.95914,-0.650689 1.35796,0 2.29156,0.94067 0.9336,0.94067 0.9336,2.418865 0,1.407469 -0.82044,2.433011 -0.99725,1.258942 -2.72299,1.258942 -1.41454,0 -2.31277,-0.792143 -0.89116,-0.792143 -1.01847,-2.100594 z"
         id="flowRoot3263"
         transform="matrix(1.6568991,0,0,1.6568991,-350.39408,481.72151)"
         aria-label="5" />
    </g>
    <path
       style="fill:currentColor;line-height:1.25;text-align:center;text-anchor:middle"
       d="m 350.39258,97.719937 3.87597,-5.222656 -3.41796,-4.798828 h 1.5791 l 1.81836,2.570312 q 0.56738,0.799805 0.80664,1.230469 0.33496,-0.546875 0.79297,-1.141602 l 2.0166,-2.659179 h 1.44238 l -3.52051,4.723632 3.79395,5.297852 h -1.64063 l -2.52246,-3.575195 q -0.21191,-0.307618 -0.4375,-0.669922 -0.33496,0.546875 -0.47851,0.751953 l -2.51563,3.493164 z"
       id="flowRoot3271"
       transform="translate(164.99983,603.47085)"
       aria-label="X" />
    <path
       style="fill:currentColor;line-height:1.25;text-align:center;text-anchor:middle"
       d="M 354.23437,97.719937 V 93.47482 l -3.8623,-5.776367 h 1.61328 l 1.97559,3.021484 q 0.54687,0.847656 1.01855,1.695312 0.45117,-0.786132 1.09375,-1.770507 l 1.94141,-2.946289 h 1.54492 l -3.99902,5.776367 v 4.245117 z"
       id="flowRoot3279"
       transform="translate(164.99983,643.47111)"
       aria-label="Y" />
    <rect
       
       
       y="582.86218"
       x="300.49985"
       height="29"
       width="209.00002"
       id="rect3299"
       style="fill:none;stroke:currentColor;stroke-width:1;stroke-linecap:round;stroke-linejoin:round;stroke-miterlimit:4;stroke-dasharray:none" />
    <rect
       style="fill:none;stroke:currentColor;stroke-width:0.99999994;stroke-linecap:round;stroke-linejoin:round;stroke-miterlimit:4;stroke-dasharray:none"
       id="rect3301"
       width="179"
       height="29"
       x="330.49985"
       y="622.86218"
       
        />
    <g
       id="g3303"
       transform="translate(339.99983,-110.00002)">
      <rect
         style="fill: #00C85E;stroke: #00C85E;stroke-width:1;stroke-linecap:round;stroke-linejoin:round;stroke-miterlimit:4;stroke-dasharray:none" rx="5" ry="5"
         id="rect3305"
         width="119"
         height="29"
         x="50.5"
         y="692.86218"
         
          />
      <path
         style="fill:black;line-height:1.25;text-align:center;text-anchor:middle"
         d="m 260.41301,85.857885 v -2.48252 h -4.49824 v -1.166996 l 4.73164,-6.71907 h 1.03969 v 6.71907 h 1.4004 v 1.166996 h -1.4004 v 2.48252 z m 0,-3.649516 v -4.675058 l -3.24637,4.675058 z"
         id="flowRoot3307"
         transform="matrix(1.6568991,0,0,1.6568991,-320.39408,571.72151)"
         aria-label="4" />
    </g>
    <g
       transform="translate(219.99983,-200.00002)"
       id="g3315">
      <rect
         style="fill: #4F625F;stroke: #4F625F;stroke-width:1;stroke-linecap:round;stroke-linejoin:round;stroke-miterlimit:4;stroke-dasharray:none" rx="5" ry="5"
         id="rect3317"
         width="59"
         height="29"
         x="110.5"
         y="782.86218"
         
          />
      <path
         style="fill:white;line-height:1.25;text-align:center;text-anchor:middle"
         d="m 244.9164,84.634307 v 1.223578 h -6.85345 q -0.0142,-0.459726 0.14852,-0.884088 0.26169,-0.700198 0.83458,-1.379178 0.57996,-0.678979 1.66916,-1.57014 1.69038,-1.38625 2.28448,-2.192539 0.59411,-0.813361 0.59411,-1.534777 0,-0.756779 -0.5446,-1.273087 -0.53752,-0.52338 -1.40747,-0.52338 -0.91945,0 -1.47112,0.551671 -0.55167,0.551671 -0.55874,1.527704 l -1.30845,-0.134381 q 0.13438,-1.46405 1.01139,-2.227902 0.87702,-0.770925 2.35522,-0.770925 1.49234,0 2.36228,0.827506 0.86994,0.827507 0.86994,2.051085 0,0.622398 -0.25462,1.223578 -0.25461,0.60118 -0.84872,1.266014 -0.58703,0.664834 -1.95914,1.824758 -1.14578,0.961888 -1.47112,1.308451 -0.32535,0.339489 -0.53753,0.686052 z"
         id="flowRoot3319"
         transform="matrix(1.6568991,0,0,1.6568991,-260.39408,661.72151)"
         aria-label="2" />
    </g>
    <g
       transform="translate(339.99983,19.999997)"
       id="g3327">
      <rect
         style="fill: #9353C9;stroke: #9353C9;stroke-width:1;stroke-linecap:round;stroke-linejoin:round;stroke-miterlimit:4;stroke-dasharray:none" rx="5" ry="5"
         id="rect3329"
         width="149"
         height="29"
         x="20.5"
         y="602.86218"
         
          />
      <path
         style="fill:white;line-height:1.25;text-align:center;text-anchor:middle"
         d="m 265.3848,83.141966 1.33674,-0.113163 q 0.14853,0.976033 0.68605,1.471123 0.5446,0.488016 1.30845,0.488016 0.91945,0 1.556,-0.693125 0.63654,-0.693125 0.63654,-1.838903 0,-1.089197 -0.61532,-1.718668 -0.60826,-0.62947 -1.59844,-0.62947 -0.61532,0 -1.11041,0.282908 -0.49509,0.275835 -0.778,0.721416 l -1.19529,-0.1556 1.00433,-5.325747 h 5.156 v 1.216505 h -4.13753 l -0.55875,2.786646 q 0.9336,-0.650689 1.95914,-0.650689 1.35796,0 2.29156,0.94067 0.9336,0.94067 0.9336,2.418865 0,1.407469 -0.82044,2.433011 -0.99725,1.258942 -2.72299,1.258942 -1.41454,0 -2.31277,-0.792143 -0.89116,-0.792143 -1.01847,-2.100594 z"
         id="flowRoot3331"
         transform="matrix(1.6568991,0,0,1.6568991,-350.39408,481.72151)"
         aria-label="5" />
    </g>
    <path
       style="fill:currentColor;line-height:1.25;text-align:center;text-anchor:middle"
       d="m 350.39258,97.719937 3.87597,-5.222656 -3.41796,-4.798828 h 1.5791 l 1.81836,2.570312 q 0.56738,0.799805 0.80664,1.230469 0.33496,-0.546875 0.79297,-1.141602 l 2.0166,-2.659179 h 1.44238 l -3.52051,4.723632 3.79395,5.297852 h -1.64063 l -2.52246,-3.575195 q -0.21191,-0.307618 -0.4375,-0.669922 -0.33496,0.546875 -0.47851,0.751953 l -2.51563,3.493164 z"
       id="flowRoot3339"
       transform="translate(164.99983,503.47085)"
       aria-label="X" />
    <path
       style="fill:currentColor;line-height:1.25;text-align:center;text-anchor:middle"
       d="M 354.23437,97.719937 V 93.47482 l -3.8623,-5.776367 h 1.61328 l 1.97559,3.021484 q 0.54687,0.847656 1.01855,1.695312 0.45117,-0.786132 1.09375,-1.770507 l 1.94141,-2.946289 h 1.54492 l -3.99902,5.776367 v 4.245117 z"
       id="flowRoot3347"
       transform="translate(164.99983,543.47111)"
       aria-label="Y" />
    <g
       style="opacity:0.4"
       transform="translate(159.99983,-290.00001)"
       id="g3355">
      <rect
         
         
         y="872.86218"
         x="110.5"
         height="29"
         width="59"
         id="rect3357"
         style="fill: #F5B200;stroke: #F5B200;stroke-width:1;stroke-linecap:round;stroke-linejoin:round;stroke-miterlimit:4;stroke-dasharray:none" /> rx="5" ry="5"
      <path
         style="fill:black;line-height:1.25;text-align:center;text-anchor:middle"
         d="m 244.9164,84.634307 v 1.223578 h -6.85345 q -0.0142,-0.459726 0.14852,-0.884088 0.26169,-0.700198 0.83458,-1.379178 0.57996,-0.678979 1.66916,-1.57014 1.69038,-1.38625 2.28448,-2.192539 0.59411,-0.813361 0.59411,-1.534777 0,-0.756779 -0.5446,-1.273087 -0.53752,-0.52338 -1.40747,-0.52338 -0.91945,0 -1.47112,0.551671 -0.55167,0.551671 -0.55874,1.527704 l -1.30845,-0.134381 q 0.13438,-1.46405 1.01139,-2.227902 0.87702,-0.770925 2.35522,-0.770925 1.49234,0 2.36228,0.827506 0.86994,0.827507 0.86994,2.051085 0,0.622398 -0.25462,1.223578 -0.25461,0.60118 -0.84872,1.266014 -0.58703,0.664834 -1.95914,1.824758 -1.14578,0.961888 -1.47112,1.308451 -0.32535,0.339489 -0.53753,0.686052 z"
         id="flowRoot3359"
         transform="matrix(1.6568991,0,0,1.6568991,-260.39408,751.72151)"
         aria-label="2" />
    </g>
    <g
       id="g3287"
       transform="translate(189.99983,-150.00001)"
       style="opacity:0.4">
      <rect
         style="fill: #F5B200;stroke: #F5B200;stroke-width:1;stroke-linecap:round;stroke-linejoin:round;stroke-miterlimit:4;stroke-dasharray:none" rx="5" ry="5"
         id="rect3289"
         width="59"
         height="29"
         x="110.5"
         y="872.86218"
         
          />
      <path
         style="fill:black;line-height:1.25;text-align:center;text-anchor:middle"
         d="m 244.9164,84.634307 v 1.223578 h -6.85345 q -0.0142,-0.459726 0.14852,-0.884088 0.26169,-0.700198 0.83458,-1.379178 0.57996,-0.678979 1.66916,-1.57014 1.69038,-1.38625 2.28448,-2.192539 0.59411,-0.813361 0.59411,-1.534777 0,-0.756779 -0.5446,-1.273087 -0.53752,-0.52338 -1.40747,-0.52338 -0.91945,0 -1.47112,0.551671 -0.55167,0.551671 -0.55874,1.527704 l -1.30845,-0.134381 q 0.13438,-1.46405 1.01139,-2.227902 0.87702,-0.770925 2.35522,-0.770925 1.49234,0 2.36228,0.827506 0.86994,0.827507 0.86994,2.051085 0,0.622398 -0.25462,1.223578 -0.25461,0.60118 -0.84872,1.266014 -0.58703,0.664834 -1.95914,1.824758 -1.14578,0.961888 -1.47112,1.308451 -0.32535,0.339489 -0.53753,0.686052 z"
         id="flowRoot3291"
         transform="matrix(1.6568991,0,0,1.6568991,-260.39408,751.72151)"
         aria-label="2" />
    </g>
    <g
       transform="translate(219.99983,-90.000013)"
       id="g3219">
      <rect
         
         
         y="872.86218"
         x="110.5"
         height="29"
         width="59"
         id="rect3221"
         style="fill: #F5B200;stroke: #F5B200;stroke-width:1;stroke-linecap:round;stroke-linejoin:round;stroke-miterlimit:4;stroke-dasharray:none" /> rx="5" ry="5"
      <path
         style="fill:black;line-height:1.25;text-align:center;text-anchor:middle"
         d="m 244.9164,84.634307 v 1.223578 h -6.85345 q -0.0142,-0.459726 0.14852,-0.884088 0.26169,-0.700198 0.83458,-1.379178 0.57996,-0.678979 1.66916,-1.57014 1.69038,-1.38625 2.28448,-2.192539 0.59411,-0.813361 0.59411,-1.534777 0,-0.756779 -0.5446,-1.273087 -0.53752,-0.52338 -1.40747,-0.52338 -0.91945,0 -1.47112,0.551671 -0.55167,0.551671 -0.55874,1.527704 l -1.30845,-0.134381 q 0.13438,-1.46405 1.01139,-2.227902 0.87702,-0.770925 2.35522,-0.770925 1.49234,0 2.36228,0.827506 0.86994,0.827507 0.86994,2.051085 0,0.622398 -0.25462,1.223578 -0.25461,0.60118 -0.84872,1.266014 -0.58703,0.664834 -1.95914,1.824758 -1.14578,0.961888 -1.47112,1.308451 -0.32535,0.339489 -0.53753,0.686052 z"
         id="flowRoot3223"
         transform="matrix(1.6568991,0,0,1.6568991,-260.39408,751.72151)"
         aria-label="2" />
    </g>
    <g
       transform="translate(189.99983,39.999987)"
       id="g3179"
       style="opacity:0.4">
      <rect
         style="fill: #4F625F;stroke: #4F625F;stroke-width:1;stroke-linecap:round;stroke-linejoin:round;stroke-miterlimit:4;stroke-dasharray:none" rx="5" ry="5"
         id="rect3181"
         width="59"
         height="29"
         x="110.5"
         y="782.86218"
         
          />
      <path
         style="fill:white;line-height:1.25;text-align:center;text-anchor:middle"
         d="m 244.9164,84.634307 v 1.223578 h -6.85345 q -0.0142,-0.459726 0.14852,-0.884088 0.26169,-0.700198 0.83458,-1.379178 0.57996,-0.678979 1.66916,-1.57014 1.69038,-1.38625 2.28448,-2.192539 0.59411,-0.813361 0.59411,-1.534777 0,-0.756779 -0.5446,-1.273087 -0.53752,-0.52338 -1.40747,-0.52338 -0.91945,0 -1.47112,0.551671 -0.55167,0.551671 -0.55874,1.527704 l -1.30845,-0.134381 q 0.13438,-1.46405 1.01139,-2.227902 0.87702,-0.770925 2.35522,-0.770925 1.49234,0 2.36228,0.827506 0.86994,0.827507 0.86994,2.051085 0,0.622398 -0.25462,1.223578 -0.25461,0.60118 -0.84872,1.266014 -0.58703,0.664834 -1.95914,1.824758 -1.14578,0.961888 -1.47112,1.308451 -0.32535,0.339489 -0.53753,0.686052 z"
         id="flowRoot3183"
         transform="matrix(1.6568991,0,0,1.6568991,-260.39408,661.72151)"
         aria-label="2" />
    </g>
    <rect
       style="fill:none;stroke:currentColor;stroke-width:1;stroke-linecap:round;stroke-linejoin:round;stroke-miterlimit:4;stroke-dasharray:none"
       id="rect3532"
       width="209.00002"
       height="29"
       x="300.49985"
       y="882.86218"
       
        />
    <rect
       
       
       y="922.86218"
       x="330.49985"
       height="29"
       width="179"
       id="rect3534"
       style="fill:none;stroke:currentColor;stroke-width:0.99999994;stroke-linecap:round;stroke-linejoin:round;stroke-miterlimit:4;stroke-dasharray:none" />
    <path
       style="fill:currentColor;line-height:1.25;text-align:center;text-anchor:middle"
       d="m 350.39258,97.719937 3.87597,-5.222656 -3.41796,-4.798828 h 1.5791 l 1.81836,2.570312 q 0.56738,0.799805 0.80664,1.230469 0.33496,-0.546875 0.79297,-1.141602 l 2.0166,-2.659179 h 1.44238 l -3.52051,4.723632 3.79395,5.297852 h -1.64063 l -2.52246,-3.575195 q -0.21191,-0.307618 -0.4375,-0.669922 -0.33496,0.546875 -0.47851,0.751953 l -2.51563,3.493164 z"
       id="flowRoot3560"
       transform="translate(164.99983,803.47085)"
       aria-label="X" />
    <path
       style="fill:currentColor;line-height:1.25;text-align:center;text-anchor:middle"
       d="M 354.23437,97.719937 V 93.47482 l -3.8623,-5.776367 h 1.61328 l 1.97559,3.021484 q 0.54687,0.847656 1.01855,1.695312 0.45117,-0.786132 1.09375,-1.770507 l 1.94141,-2.946289 h 1.54492 l -3.99902,5.776367 v 4.245117 z"
       id="flowRoot3568"
       transform="translate(164.99983,843.47111)"
       aria-label="Y" />
    <g
       id="g3576"
       transform="translate(189.99983,9.9999874)">
      <rect
         style="fill: #F5B200;stroke: #F5B200;stroke-width:1;stroke-linecap:round;stroke-linejoin:round;stroke-miterlimit:4;stroke-dasharray:none" rx="5" ry="5"
         id="rect3578"
         width="59"
         height="29"
         x="110.5"
         y="872.86218"
         
          />
      <path
         style="fill:black;line-height:1.25;text-align:center;text-anchor:middle"
         d="m 244.9164,84.634307 v 1.223578 h -6.85345 q -0.0142,-0.459726 0.14852,-0.884088 0.26169,-0.700198 0.83458,-1.379178 0.57996,-0.678979 1.66916,-1.57014 1.69038,-1.38625 2.28448,-2.192539 0.59411,-0.813361 0.59411,-1.534777 0,-0.756779 -0.5446,-1.273087 -0.53752,-0.52338 -1.40747,-0.52338 -0.91945,0 -1.47112,0.551671 -0.55167,0.551671 -0.55874,1.527704 l -1.30845,-0.134381 q 0.13438,-1.46405 1.01139,-2.227902 0.87702,-0.770925 2.35522,-0.770925 1.49234,0 2.36228,0.827506 0.86994,0.827507 0.86994,2.051085 0,0.622398 -0.25462,1.223578 -0.25461,0.60118 -0.84872,1.266014 -0.58703,0.664834 -1.95914,1.824758 -1.14578,0.961888 -1.47112,1.308451 -0.32535,0.339489 -0.53753,0.686052 z"
         id="flowRoot3580"
         transform="matrix(1.6568991,0,0,1.6568991,-260.39408,751.72151)"
         aria-label="2" />
    </g>
    <g
       transform="translate(339.99983,229.99998)"
       id="g3536">
      <rect
         
         
         y="692.86218"
         x="50.5"
         height="29"
         width="119"
         id="rect3538"
         style="fill: #00C85E;stroke: #00C85E;stroke-width:1;stroke-linecap:round;stroke-linejoin:round;stroke-miterlimit:4;stroke-dasharray:none" /> rx="5" ry="5"
      <path
         style="fill:black;line-height:1.25;text-align:center;text-anchor:middle"
         d="m 260.41301,85.857885 v -2.48252 h -4.49824 v -1.166996 l 4.73164,-6.71907 h 1.03969 v 6.71907 h 1.4004 v 1.166996 h -1.4004 v 2.48252 z m 0,-3.649516 v -4.675058 l -3.24637,4.675058 z"
         id="flowRoot3540"
         transform="matrix(1.6568991,0,0,1.6568991,-320.39408,571.72151)"
         aria-label="4" />
    </g>
    <g
       id="g3548"
       transform="translate(339.99983,280)">
      <rect
         
         
         y="602.86218"
         x="20.5"
         height="29"
         width="149"
         id="rect3550"
         style="fill: #9353C9;stroke: #9353C9;stroke-width:1;stroke-linecap:round;stroke-linejoin:round;stroke-miterlimit:4;stroke-dasharray:none" /> rx="5" ry="5"
      <path
         style="fill:white;line-height:1.25;text-align:center;text-anchor:middle"
         d="m 265.3848,83.141966 1.33674,-0.113163 q 0.14853,0.976033 0.68605,1.471123 0.5446,0.488016 1.30845,0.488016 0.91945,0 1.556,-0.693125 0.63654,-0.693125 0.63654,-1.838903 0,-1.089197 -0.61532,-1.718668 -0.60826,-0.62947 -1.59844,-0.62947 -0.61532,0 -1.11041,0.282908 -0.49509,0.275835 -0.778,0.721416 l -1.19529,-0.1556 1.00433,-5.325747 h 5.156 v 1.216505 h -4.13753 l -0.55875,2.786646 q 0.9336,-0.650689 1.95914,-0.650689 1.35796,0 2.29156,0.94067 0.9336,0.94067 0.9336,2.418865 0,1.407469 -0.82044,2.433011 -0.99725,1.258942 -2.72299,1.258942 -1.41454,0 -2.31277,-0.792143 -0.89116,-0.792143 -1.01847,-2.100594 z"
         id="flowRoot3552"
         transform="matrix(1.6568991,0,0,1.6568991,-350.39408,481.72151)"
         aria-label="5" />
    </g>
    <g
       id="g3588"
       transform="translate(219.99983,139.99998)">
      <rect
         
         
         y="782.86218"
         x="110.5"
         height="29"
         width="59"
         id="rect3590"
         style="fill: #4F625F;stroke: #4F625F;stroke-width:1;stroke-linecap:round;stroke-linejoin:round;stroke-miterlimit:4;stroke-dasharray:none" /> rx="5" ry="5"
      <path
         style="fill:white;line-height:1.25;text-align:center;text-anchor:middle"
         d="m 244.9164,84.634307 v 1.223578 h -6.85345 q -0.0142,-0.459726 0.14852,-0.884088 0.26169,-0.700198 0.83458,-1.379178 0.57996,-0.678979 1.66916,-1.57014 1.69038,-1.38625 2.28448,-2.192539 0.59411,-0.813361 0.59411,-1.534777 0,-0.756779 -0.5446,-1.273087 -0.53752,-0.52338 -1.40747,-0.52338 -0.91945,0 -1.47112,0.551671 -0.55167,0.551671 -0.55874,1.527704 l -1.30845,-0.134381 q 0.13438,-1.46405 1.01139,-2.227902 0.87702,-0.770925 2.35522,-0.770925 1.49234,0 2.36228,0.827506 0.86994,0.827507 0.86994,2.051085 0,0.622398 -0.25462,1.223578 -0.25461,0.60118 -0.84872,1.266014 -0.58703,0.664834 -1.95914,1.824758 -1.14578,0.961888 -1.47112,1.308451 -0.32535,0.339489 -0.53753,0.686052 z"
         id="flowRoot3592"
         transform="matrix(1.6568991,0,0,1.6568991,-260.39408,661.72151)"
         aria-label="2" />
    </g>
    <g
       id="g3747"
       transform="translate(19.999833,0)">
      <path
         transform="translate(0,452.36218)"
         id="path3732"
         d="m 250,150 c -40,0 -70,30 50,30"
         style="color:currentColor;fill:none;stroke:#ce5c00;stroke-width:1px;stroke-linecap:round;stroke-linejoin:round;stroke-miterlimit:4;stroke-opacity:1;stroke-dasharray:none;stroke-dashoffset:0;marker:none;visibility:visible;display:inline;overflow:visible;enable-background:accumulate" />
      <path
         transform="translate(0,452.36218)"
         id="path3734"
         d="m 290,170 10,10 -10,10"
         style="color:currentColor;fill:none;stroke:#ce5c00;stroke-width:1px;stroke-linecap:round;stroke-linejoin:round;stroke-miterlimit:4;stroke-opacity:1;stroke-dasharray:none;stroke-dashoffset:0;marker:none;visibility:visible;display:inline;overflow:visible;enable-background:accumulate" />
    </g>
    <g
       id="g3742"
       style="stroke:#ce5c00"
       transform="translate(19.999833,0)">
      <path
         transform="translate(0,452.36218)"
         id="path3736"
         d="m 310,250 c -85.06507,0 -110,30 -30,30 l 0,0"
         style="color:currentColor;fill:none;stroke:#ce5c00;stroke-width:1px;stroke-linecap:round;stroke-linejoin:round;stroke-miterlimit:4;stroke-opacity:1;stroke-dasharray:none;stroke-dashoffset:0;marker:none;visibility:visible;display:inline;overflow:visible;enable-background:accumulate" />
      <path
         transform="translate(0,452.36218)"
         id="path3738"
         d="m 300,240 10,10 -10,10"
         style="color:currentColor;fill:none;stroke:#ce5c00;stroke-width:1px;stroke-linecap:round;stroke-linejoin:round;stroke-miterlimit:4;stroke-opacity:1;stroke-dasharray:none;stroke-dashoffset:0;marker:none;visibility:visible;display:inline;overflow:visible;enable-background:accumulate" />
      <path
         transform="translate(0,452.36218)"
         id="path3740"
         d="m 270,270 10,10 -10,10"
         style="color:currentColor;fill:none;stroke:#ce5c00;stroke-width:1px;stroke-linecap:round;stroke-linejoin:round;stroke-miterlimit:4;stroke-opacity:1;stroke-dasharray:none;stroke-dashoffset:0;marker:none;visibility:visible;display:inline;overflow:visible;enable-background:accumulate" />
    </g>
    <path
       style="color:currentColor;fill:none;stroke:#ce5c00;stroke-width:1px;stroke-linecap:round;stroke-linejoin:round;stroke-miterlimit:4;stroke-opacity:1;stroke-dasharray:none;stroke-dashoffset:0;marker:none;visibility:visible;display:inline;overflow:visible;enable-background:accumulate"
       d="m 509.99983,802.36218 c 90,0 90,30 0,30"
       id="path3751" />
    <path
       style="color:currentColor;fill:none;stroke:#ce5c00;stroke-width:1px;stroke-linecap:round;stroke-linejoin:round;stroke-miterlimit:4;stroke-opacity:1;stroke-dasharray:none;stroke-dashoffset:0;marker:none;visibility:visible;display:inline;overflow:visible;enable-background:accumulate"
       d="m 519.99983,792.36218 -10,10 10,10"
       id="path3753" />
    <path
       style="color:currentColor;fill:none;stroke:#ce5c00;stroke-width:1px;stroke-linecap:round;stroke-linejoin:round;stroke-miterlimit:4;stroke-opacity:1;stroke-dasharray:none;stroke-dashoffset:0;marker:none;visibility:visible;display:inline;overflow:visible;enable-background:accumulate"
       d="m 519.99983,822.36218 -10,10 10,10"
       id="path3755" />
    <path
       style="fill:currentColor;line-height:1.25;text-align:center;text-anchor:middle"
       d="m 317.57227,252.42716 v -25.76953 h 3.41015 v 22.72851 h 12.69141 v 3.04102 z m 18.58007,-9.33399 q 0,-5.18554 2.88282,-7.68164 2.4082,-2.07421 5.87109,-2.07421 3.84961,0 6.29297,2.53125 2.44336,2.51367 2.44336,6.96093 0,3.60352 -1.08985,5.67774 -1.07226,2.05664 -3.14648,3.19922 -2.05664,1.14257 -4.5,1.14257 -3.91992,0 -6.3457,-2.51367 -2.40821,-2.51367 -2.40821,-7.24219 z m 3.25196,0 q 0,3.58594 1.56445,5.37891 1.56445,1.77539 3.9375,1.77539 2.35547,0 3.91992,-1.79297 1.56445,-1.79297 1.56445,-5.46679 0,-3.46289 -1.58203,-5.23829 -1.56445,-1.79296 -3.90234,-1.79296 -2.37305,0 -3.9375,1.77539 -1.56445,1.77539 -1.56445,5.36132 z m 30.1289,2.4961 3.11133,0.4043 q -0.50976,3.21679 -2.61914,5.04492 -2.0918,1.81054 -5.15039,1.81054 -3.83203,0 -6.16992,-2.49609 -2.32031,-2.51367 -2.32031,-7.18945 0,-3.02344 1.00195,-5.29102 1.00195,-2.26758 3.04101,-3.39258 2.05664,-1.14257 4.46485,-1.14257 3.04101,0 4.97461,1.54687 1.93359,1.5293 2.47851,4.35938 l -3.07617,0.4746 q -0.43945,-1.88085 -1.56445,-2.83007 -1.10742,-0.94922 -2.68946,-0.94922 -2.39062,0 -3.88476,1.72265 -1.49414,1.70508 -1.49414,5.41407 0,3.76172 1.4414,5.46679 1.44141,1.70508 3.76172,1.70508 1.86328,0 3.11133,-1.14258 1.24805,-1.14257 1.58203,-3.51562 z m 18,4.53515 q -1.75781,1.49415 -3.39258,2.10938 -1.61718,0.61523 -3.48046,0.61523 -3.07618,0 -4.72852,-1.49414 -1.65234,-1.51172 -1.65234,-3.84961 0,-1.37109 0.61523,-2.49609 0.63281,-1.14258 1.63477,-1.82812 1.01953,-0.68555 2.28515,-1.03711 0.93164,-0.2461 2.8125,-0.47461 3.83203,-0.45703 5.64258,-1.08985 0.0176,-0.65039 0.0176,-0.82617 0,-1.93359 -0.89649,-2.72461 -1.21289,-1.07226 -3.60351,-1.07226 -2.23242,0 -3.30469,0.79101 -1.05469,0.77344 -1.56445,2.75977 l -3.09375,-0.42188 q 0.42187,-1.98633 1.38867,-3.19922 0.9668,-1.23047 2.79492,-1.88086 1.82813,-0.66796 4.23633,-0.66796 2.39063,0 3.88477,0.5625 1.49414,0.5625 2.19726,1.42382 0.70313,0.84375 0.98438,2.14453 0.1582,0.8086 0.1582,2.91797 v 4.21875 q 0,4.41211 0.19336,5.58985 0.21094,1.16015 0.80859,2.23242 h -3.30468 q -0.49219,-0.98438 -0.63282,-2.30274 z m -0.26367,-7.0664 q -1.72266,0.70312 -5.16797,1.19531 -1.95117,0.28125 -2.75976,0.63281 -0.8086,0.35157 -1.24805,1.03711 -0.43945,0.66797 -0.43945,1.49414 0,1.26563 0.94922,2.10938 0.96679,0.84375 2.8125,0.84375 1.82812,0 3.25195,-0.79102 1.42383,-0.80859 2.0918,-2.19726 0.50976,-1.07227 0.50976,-3.16407 z m 8.0332,9.36914 v -25.76953 h 3.16407 v 25.76953 z m 17.31446,-8.2793 3.21679,-0.28125 q 0.22852,1.9336 1.05469,3.18164 0.84375,1.23047 2.60156,2.00391 1.75782,0.75586 3.95508,0.75586 1.95117,0 3.44531,-0.58008 1.49415,-0.58008 2.21485,-1.58203 0.73828,-1.01953 0.73828,-2.21484 0,-1.2129 -0.70313,-2.10938 -0.70312,-0.91406 -2.32031,-1.5293 -1.03711,-0.40429 -4.58789,-1.24804 -3.55078,-0.86133 -4.97461,-1.61719 -1.8457,-0.9668 -2.75976,-2.39063 -0.89649,-1.4414 -0.89649,-3.21679 0,-1.95117 1.10742,-3.63867 1.10743,-1.70508 3.23438,-2.58399 2.12695,-0.87891 4.72851,-0.87891 2.86524,0 5.04493,0.93165 2.19726,0.91406 3.375,2.70703 1.17773,1.79297 1.26562,4.06054 l -3.26953,0.2461 q -0.26367,-2.44336 -1.79297,-3.69141 -1.51172,-1.24805 -4.48242,-1.24805 -3.09375,0 -4.51758,1.14258 -1.40625,1.125 -1.40625,2.72461 0,1.38867 1.00195,2.28516 0.98438,0.89648 5.13282,1.8457 4.16601,0.93164 5.71289,1.63477 2.25,1.03711 3.32226,2.63672 1.07227,1.58203 1.07227,3.65625 0,2.05664 -1.17774,3.88476 -1.17773,1.81055 -3.39257,2.83008 -2.19727,1.00195 -4.95703,1.00195 -3.49805,0 -5.8711,-1.01953 -2.35547,-1.01953 -3.70898,-3.05859 -1.33594,-2.05664 -1.40625,-4.64063 z m 37.54687,2.26758 3.26953,0.4043 q -0.77343,2.86523 -2.86523,4.44726 -2.0918,1.58203 -5.34375,1.58203 -4.0957,0 -6.50391,-2.51367 -2.39062,-2.53125 -2.39062,-7.08398 0,-4.71094 2.42578,-7.3125 2.42578,-2.60156 6.29297,-2.60156 3.74414,0 6.11719,2.54882 2.37304,2.54883 2.37304,7.17188 0,0.28125 -0.0176,0.84375 h -13.92187 q 0.17578,3.07617 1.74023,4.71094 1.56446,1.63476 3.90235,1.63476 1.74023,0 2.9707,-0.91406 1.23047,-0.91406 1.95117,-2.91797 z m -10.38867,-5.11523 h 10.42383 q -0.21094,-2.35547 -1.19531,-3.53321 -1.51172,-1.82812 -3.91993,-1.82812 -2.17968,0 -3.67382,1.45898 -1.47657,1.45899 -1.63477,3.90235 z m 29.8125,8.82421 q -1.75781,1.49415 -3.39258,2.10938 -1.61719,0.61523 -3.48047,0.61523 -3.07617,0 -4.72851,-1.49414 -1.65235,-1.51172 -1.65235,-3.84961 0,-1.37109 0.61524,-2.49609 0.63281,-1.14258 1.63476,-1.82812 1.01954,-0.68555 2.28516,-1.03711 0.93164,-0.2461 2.8125,-0.47461 3.83203,-0.45703 5.64258,-1.08985 0.0176,-0.65039 0.0176,-0.82617 0,-1.93359 -0.89649,-2.72461 -1.21289,-1.07226 -3.60351,-1.07226 -2.23243,0 -3.30469,0.79101 -1.05469,0.77344 -1.56445,2.75977 l -3.09375,-0.42188 q 0.42187,-1.98633 1.38867,-3.19922 0.96679,-1.23047 2.79492,-1.88086 1.82812,-0.66796 4.23633,-0.66796 2.39062,0 3.88476,0.5625 1.49414,0.5625 2.19727,1.42382 0.70312,0.84375 0.98437,2.14453 0.15821,0.8086 0.15821,2.91797 v 4.21875 q 0,4.41211 0.19336,5.58985 0.21093,1.16015 0.80859,2.23242 h -3.30469 q -0.49218,-0.98438 -0.63281,-2.30274 z m -0.26367,-7.0664 q -1.72266,0.70312 -5.16797,1.19531 -1.95117,0.28125 -2.75977,0.63281 -0.80859,0.35157 -1.24804,1.03711 -0.43946,0.66797 -0.43946,1.49414 0,1.26563 0.94922,2.10938 0.9668,0.84375 2.8125,0.84375 1.82813,0 3.25196,-0.79102 1.42382,-0.80859 2.09179,-2.19726 0.50977,-1.07227 0.50977,-3.16407 z m 8.06836,9.36914 v -18.66797 h 2.84765 v 2.83008 q 1.08985,-1.98633 2.00391,-2.61914 0.93164,-0.63281 2.03906,-0.63281 1.59961,0 3.25196,1.01953 l -1.08985,2.93554 q -1.16015,-0.68554 -2.32031,-0.68554 -1.03711,0 -1.86328,0.63281 -0.82617,0.61523 -1.17774,1.72266 -0.52734,1.6875 -0.52734,3.6914 v 9.77344 z m 24.20508,-6.83789 3.11132,0.4043 q -0.50976,3.21679 -2.61914,5.04492 -2.09179,1.81054 -5.15039,1.81054 -3.83203,0 -6.16992,-2.49609 -2.32031,-2.51367 -2.32031,-7.18945 0,-3.02344 1.00195,-5.29102 1.00195,-2.26758 3.04102,-3.39258 2.05664,-1.14257 4.46484,-1.14257 3.04102,0 4.97461,1.54687 1.93359,1.5293 2.47852,4.35938 l -3.07618,0.4746 q -0.43945,-1.88085 -1.56445,-2.83007 -1.10742,-0.94922 -2.68945,-0.94922 -2.39063,0 -3.88477,1.72265 -1.49414,1.70508 -1.49414,5.41407 0,3.76172 1.44141,5.46679 1.4414,1.70508 3.76172,1.70508 1.86328,0 3.11132,-1.14258 1.24805,-1.14257 1.58204,-3.51562 z m 5.81836,6.83789 v -25.76953 h 3.16406 v 9.24609 q 2.21484,-2.5664 5.58984,-2.5664 2.07422,0 3.60352,0.82617 1.52929,0.80859 2.17968,2.25 0.66797,1.4414 0.66797,4.18359 v 11.83008 h -3.16406 v -11.83008 q 0,-2.37305 -1.03711,-3.44531 -1.01953,-1.08985 -2.90039,-1.08985 -1.40625,0 -2.6543,0.73829 -1.23046,0.7207 -1.75781,1.96875 -0.52734,1.24804 -0.52734,3.44531 v 10.21289 z"
       id="flowRoot4302"
       transform="translate(-19.999998,262.36198)"
       aria-label="Local Search" />
  </g>
</svg>
