<?xml version="1.0" encoding="UTF-8" standalone="no"?>
<!-- Created with Inkscape (http://www.inkscape.org/) -->

<svg
   width="800"
   height="600"
   id="svg2"
   version="1.1"
   xmlns="http://www.w3.org/2000/svg"
   xmlns:svg="http://www.w3.org/2000/svg"
   xmlns:rdf="http://www.w3.org/1999/02/22-rdf-syntax-ns#"
   xmlns:cc="http://creativecommons.org/ns#"
   xmlns:dc="http://purl.org/dc/elements/1.1/">
  <defs
     id="defs4" />
  <metadata
     id="metadata7">
    <rdf:RDF>
      <cc:Work
         rdf:about="">
        <dc:format>image/svg+xml</dc:format>
        <dc:type
           rdf:resource="http://purl.org/dc/dcmitype/StillImage" />
        <dc:language>en</dc:language>
        <cc:license
           rdf:resource="https://timefold.ai/product/license/" />
      </cc:Work>
    </rdf:RDF>
  </metadata>
  <g
     id="layer1"
     transform="translate(0,-452.36218)">
    <path
       style="fill:currentColor;line-height:1.25;text-align:center;text-anchor:middle"
       d="m 326.8623,252.42716 v -25.76953 h 3.41016 v 10.58203 h 13.39453 v -10.58203 h 3.41016 v 25.76953 h -3.41016 v -12.14649 h -13.39453 v 12.14649 z m 25.50586,-22.13086 v -3.63867 h 3.16407 v 3.63867 z m 0,22.13086 v -18.66797 h 3.16407 v 18.66797 z m 7.91016,0 v -25.76953 h 3.16406 v 25.76953 z m 7.99805,0 v -25.76953 h 3.16406 v 25.76953 z m 30.25195,-6.83789 3.11133,0.4043 q -0.50977,3.21679 -2.61914,5.04492 -2.0918,1.81054 -5.15039,1.81054 -3.83203,0 -6.16992,-2.49609 -2.32032,-2.51367 -2.32032,-7.18945 0,-3.02344 1.00196,-5.29102 1.00195,-2.26758 3.04101,-3.39258 2.05664,-1.14257 4.46485,-1.14257 3.04101,0 4.9746,1.54687 1.9336,1.5293 2.47852,4.35938 l -3.07617,0.4746 q -0.43945,-1.88085 -1.56445,-2.83007 -1.10743,-0.94922 -2.68946,-0.94922 -2.39062,0 -3.88476,1.72265 -1.49414,1.70508 -1.49414,5.41407 0,3.76172 1.4414,5.46679 1.44141,1.70508 3.76172,1.70508 1.86328,0 3.11133,-1.14258 1.24805,-1.14257 1.58203,-3.51562 z m 5.74805,6.83789 v -25.76953 h 3.16406 v 25.76953 z m 8.08593,-22.13086 v -3.63867 h 3.16407 v 3.63867 z m 0,22.13086 v -18.66797 h 3.16407 v 18.66797 z m 7.98047,0 v -18.66797 h 2.83008 v 2.61914 q 0.87891,-1.37109 2.33789,-2.19726 1.45899,-0.84375 3.32227,-0.84375 2.07422,0 3.39258,0.86132 1.33593,0.86133 1.88086,2.40821 2.21484,-3.26953 5.76562,-3.26953 2.77734,0 4.27148,1.54687 1.49415,1.5293 1.49415,4.72852 v 12.81445 h -3.14649 v -11.75977 q 0,-1.89843 -0.31641,-2.72461 -0.29882,-0.84375 -1.10742,-1.35351 -0.80859,-0.50977 -1.89843,-0.50977 -1.96875,0 -3.26954,1.31836 -1.30078,1.30078 -1.30078,4.1836 v 10.8457 h -3.16406 v -12.12891 q 0,-2.10937 -0.77344,-3.16406 -0.77343,-1.05469 -2.53125,-1.05469 -1.33593,0 -2.47851,0.70313 -1.125,0.70312 -1.63477,2.05664 -0.50976,1.35351 -0.50976,3.90234 v 9.68555 z m 32.90625,0 h -2.93554 v -25.76953 h 3.16406 v 9.19336 q 2.00391,-2.51367 5.11523,-2.51367 1.72266,0 3.25196,0.70312 1.54687,0.68555 2.53125,1.95117 1.00195,1.24805 1.56445,3.02344 0.5625,1.77539 0.5625,3.79687 0,4.79883 -2.37305,7.41797 -2.37304,2.61914 -5.69531,2.61914 -3.30469,0 -5.18555,-2.75976 z m -0.0351,-9.47461 q 0,3.35742 0.91406,4.85156 1.49414,2.44336 4.04297,2.44336 2.07422,0 3.58594,-1.79297 1.51171,-1.81054 1.51171,-5.3789 0,-3.65625 -1.45898,-5.39649 -1.44141,-1.74023 -3.49805,-1.74023 -2.07422,0 -3.58593,1.81054 -1.51172,1.79297 -1.51172,5.20313 z m 17.15625,-12.65625 v -3.63867 h 3.16406 v 3.63867 z m 0,22.13086 v -18.66797 h 3.16406 v 18.66797 z m 7.98047,0 v -18.66797 h 2.84765 v 2.6543 q 2.05664,-3.07617 5.94141,-3.07617 1.6875,0 3.09375,0.61523 1.42383,0.59766 2.12695,1.58203 0.70313,0.98438 0.98438,2.33789 0.17578,0.87891 0.17578,3.07617 v 11.47852 h -3.16406 v -11.35547 q 0,-1.93359 -0.36915,-2.88281 -0.36914,-0.9668 -1.31835,-1.5293 -0.93165,-0.58008 -2.19727,-0.58008 -2.02148,0 -3.49805,1.28321 -1.45898,1.2832 -1.45898,4.86914 v 10.19531 z m 19.4414,1.54687 3.07617,0.45704 q 0.19336,1.42382 1.07227,2.07421 1.17773,0.87891 3.2168,0.87891 2.19726,0 3.39257,-0.87891 1.19532,-0.8789 1.61719,-2.46093 0.2461,-0.9668 0.22852,-4.06055 -2.07422,2.44336 -5.16797,2.44336 -3.84961,0 -5.95899,-2.77734 -2.10937,-2.77735 -2.10937,-6.66211 0,-2.67188 0.9668,-4.92188 0.96679,-2.26758 2.79492,-3.49805 1.8457,-1.23046 4.32422,-1.23046 3.30468,0 5.44922,2.67187 v -2.25 h 2.91796 v 16.13672 q 0,4.35937 -0.89648,6.16992 -0.87891,1.82813 -2.8125,2.88281 -1.91602,1.05469 -4.72852,1.05469 -3.33984,0 -5.39648,-1.51172 -2.05664,-1.49414 -1.98633,-4.51758 z m 2.61914,-11.21484 q 0,3.67383 1.45899,5.36133 1.45898,1.6875 3.65625,1.6875 2.17968,0 3.65625,-1.66992 1.47656,-1.6875 1.47656,-5.27344 0,-3.42774 -1.5293,-5.16797 -1.51172,-1.74023 -3.65625,-1.74023 -2.10937,0 -3.58593,1.72265 -1.47657,1.70508 -1.47657,5.08008 z"
       id="flowRoot4302"
       transform="translate(-20,262.36198)"
       aria-label="Hill climbing" />
    <g
       id="g3709"
       transform="translate(0,19.999997)" />
    <flowRoot
       xml:space="preserve"
       id="flowRoot4157"
       style="font-style:normal;font-weight:normal;line-height:0.01%;font-family:sans-serif;letter-spacing:0px;word-spacing:0px;fill:currentColor;fill-opacity:1;stroke:none;stroke-width:1px;stroke-linecap:butt;stroke-linejoin:miter;stroke-opacity:1"><flowRegion
         id="flowRegion4159"
         style="font-family:sans-serif"><rect
           id="rect4161"
           width="10.955056"
           height="72.471909"
           x="16.011236"
           y="-53.932568" /></flowRegion><flowPara
         id="flowPara4163"
         style="font-size:40px;line-height:1.25;font-family:sans-serif"> </flowPara></flowRoot>
    <path
       style="color:currentColor;fill:none;stroke:currentColor;stroke-width:1px;stroke-linecap:round;stroke-linejoin:round;stroke-miterlimit:4;stroke-opacity:1.0;stroke-dasharray:none;stroke-dashoffset:0;marker:none;visibility:visible;display:inline;overflow:visible;enable-background:accumulate"
       d="m 70,942.36218 c 0,0 57.28784,-40.93176 90,-90 20,-30 60,-40 70,-20 22.80351,45.60702 40,-100 90,-110 62.01737,-12.40347 43.38907,132.60003 100,160 27.16953,13.15019 66.52645,8.97639 90,-10 81.9732,-66.26843 73.16718,-286.58359 100,-300 10,-5 20.76713,117.21062 30,121.25 20,8.75 30,208.75 40,228.75 11.64283,23.28567 50,20 50,20"
       id="path3100" />
    <path
       id="path3106"
       d="m 93.157895,942.36217 c 0,0 46.032865,-37.62287 76.842105,-79.99999 18.83657,-25.90909 43.63057,-20.91295 60,-10 30,20 50.73816,-100.00002 98.61495,-100.00001 C 370,752.36218 355.33214,864.99865 400,892.36218 c 34.10866,20.89496 86.96185,22.54951 120,0 67.99851,-46.41099 64.72809,-218.4131 90,-230 9.41828,-4.31818 11.30422,61.68189 20,65.17045 18.83657,7.55682 28.25485,180.28409 37.67314,197.55682 C 678.63868,945.1998 690,942.36218 690,942.36218"
       style="color:currentColor;fill:none;stroke:#ad7fa8;stroke-width:1px;stroke-linecap:round;stroke-linejoin:round;stroke-miterlimit:4;stroke-opacity:1;stroke-dasharray:none;stroke-dashoffset:0;marker:none;visibility:visible;display:inline;overflow:visible;enable-background:accumulate" />
    <path
       style="color:currentColor;fill:none;stroke:#ad7fa8;stroke-width:1px;stroke-linecap:round;stroke-linejoin:round;stroke-miterlimit:4;stroke-opacity:1;stroke-dasharray:none;stroke-dashoffset:0;marker:none;visibility:visible;display:inline;overflow:visible;enable-background:accumulate"
       d="m 116.11336,942.36217 c 0,0 33.44239,-49.77787 73.88664,-69.99999 20,-10 22.6174,0 40,0 40,0 46.8459,-80.00001 90,-80 37.30273,1e-5 31.90153,89.086 70,110 43.83029,24.06046 120,20 150,0 30,-20 43.87388,-141.91085 70,-150 26.12612,-8.08915 21.51077,155.45455 30,170 9.88388,16.93504 14.08145,20 14.08145,20"
       id="path3108" />
    <path
       id="path3110"
       d="m 139.29757,942.36218 c 32.82858,-27.61651 70.70243,-50 102.32504,-56 31.62261,-6 39.60423,-44 78.37739,-44 33.5158,1e-5 36.52906,55.49534 65.37963,68 47.29325,20.49824 134.62037,12 154.62037,2 20,-10 41.33498,-91.15064 60,-70 18.66502,21.15064 10,70 30,100"
       style="color:currentColor;fill:none;stroke:#ad7fa8;stroke-width:1px;stroke-linecap:round;stroke-linejoin:round;stroke-miterlimit:4;stroke-opacity:1;stroke-dasharray:none;stroke-dashoffset:0;marker:none;visibility:visible;display:inline;overflow:visible;enable-background:accumulate" />
    <path
       style="color:currentColor;fill:none;stroke:#ad7fa8;stroke-width:1px;stroke-linecap:round;stroke-linejoin:round;stroke-miterlimit:4;stroke-opacity:1;stroke-dasharray:none;stroke-dashoffset:0;marker:none;visibility:visible;display:inline;overflow:visible;enable-background:accumulate"
       d="m 180,942.36218 c 28.0985,-19.33156 32.93371,-25.8 60,-30 27.06629,-4.2 46.81344,-20 80,-20 28.68671,0 25.74146,15.6507 40,20 60.22861,18.3716 171.89631,18.97076 190,10 18.10369,-8.97076 20,-30 30,-20 10,10 2.88168,19 20,40"
       id="path3112" />
    <path
       id="path3114"
       d="m 220,942.36219 c 23.18126,-12.88771 30,-10.00001 49.5,-20 19.5,-9.99999 40.5,-1e-5 70.5,9.99999 30,10 140,0 170,0 30,0 50,10 56.5,10.00001"
       style="color:currentColor;fill:none;stroke:#ad7fa8;stroke-width:1px;stroke-linecap:round;stroke-linejoin:round;stroke-miterlimit:4;stroke-opacity:1;stroke-dasharray:none;stroke-dashoffset:0;marker:none;visibility:visible;display:inline;overflow:visible;enable-background:accumulate" />
    <g
       id="g3120"
       style="stroke:#a40000">
      <path
         transform="translate(0,452.36218)"
         id="path3116"
         d="m 70,490 90,-50 -10,0"
         style="color:currentColor;fill:none;stroke:#a40000;stroke-width:1px;stroke-linecap:round;stroke-linejoin:round;stroke-miterlimit:4;stroke-opacity:1;stroke-dasharray:none;stroke-dashoffset:0;marker:none;visibility:visible;display:inline;overflow:visible;enable-background:accumulate" />
      <path
         transform="translate(0,452.36218)"
         id="path3118"
         d="m 160,440 -5.16234,10"
         style="color:currentColor;fill:none;stroke:#a40000;stroke-width:1px;stroke-linecap:round;stroke-linejoin:round;stroke-miterlimit:4;stroke-opacity:1;stroke-dasharray:none;stroke-dashoffset:0;marker:none;visibility:visible;display:inline;overflow:visible;enable-background:accumulate" />
    </g>
    <g
       style="stroke:#a40000;stroke-width:1.0372138"
       id="g3130"
       transform="matrix(0.69058301,0,0,1.3460076,111.65919,-376.06448)">
      <path
         style="color:currentColor;fill:none;stroke:#a40000;stroke-width:1.0372138px;stroke-linecap:round;stroke-linejoin:round;stroke-miterlimit:4;stroke-opacity:1;stroke-dasharray:none;stroke-dashoffset:0;marker:none;visibility:visible;display:inline;overflow:visible;enable-background:accumulate"
         d="m 70,490 90,-50 -10,0"
         id="path3132"
         transform="translate(0,452.36218)" />
      <path
         style="color:currentColor;fill:none;stroke:#a40000;stroke-width:1.0372138px;stroke-linecap:round;stroke-linejoin:round;stroke-miterlimit:4;stroke-opacity:1;stroke-dasharray:none;stroke-dashoffset:0;marker:none;visibility:visible;display:inline;overflow:visible;enable-background:accumulate"
         d="m 160,440 -3.11689,7.61363"
         id="path3134"
         transform="translate(0,452.36218)" />
    </g>
    <g
       transform="matrix(0.68635825,0,0,1.338403,174.31233,-436.57884)"
       id="g3144"
       style="stroke:#a40000;stroke-width:1.0433526">
      <path
         transform="translate(0,452.36218)"
         id="path3146"
         d="m 70,490 90,-50 -10,0"
         style="color:currentColor;fill:none;stroke:#a40000;stroke-width:1.0433526px;stroke-linecap:round;stroke-linejoin:round;stroke-miterlimit:4;stroke-opacity:1;stroke-dasharray:none;stroke-dashoffset:0;marker:none;visibility:visible;display:inline;overflow:visible;enable-background:accumulate" />
      <path
         transform="translate(0,452.36218)"
         id="path3148"
         d="m 160,440 -3.11689,7.61363"
         style="color:currentColor;fill:none;stroke:#a40000;stroke-width:1.0433526px;stroke-linecap:round;stroke-linejoin:round;stroke-miterlimit:4;stroke-opacity:1;stroke-dasharray:none;stroke-dashoffset:0;marker:none;visibility:visible;display:inline;overflow:visible;enable-background:accumulate" />
    </g>
    <g
       style="stroke:#a40000;stroke-width:1.67379904"
       id="g3150"
       transform="matrix(0.4847161,0,0,0.73638658,249.95133,64.196813)">
      <path
         style="color:currentColor;fill:none;stroke:#a40000;stroke-width:1.67379904px;stroke-linecap:round;stroke-linejoin:round;stroke-miterlimit:4;stroke-opacity:1;stroke-dasharray:none;stroke-dashoffset:0;marker:none;visibility:visible;display:inline;overflow:visible;enable-background:accumulate"
         d="m 70,490 90,-50 -10,0"
         id="path3152"
         transform="translate(0,452.36218)" />
      <path
         style="color:currentColor;fill:none;stroke:#a40000;stroke-width:1.67379904px;stroke-linecap:round;stroke-linejoin:round;stroke-miterlimit:4;stroke-opacity:1;stroke-dasharray:none;stroke-dashoffset:0;marker:none;visibility:visible;display:inline;overflow:visible;enable-background:accumulate"
         d="m 160,440 -3.11689,7.61363"
         id="path3154"
         transform="translate(0,452.36218)" />
    </g>
    <g
       id="g4092"
       transform="matrix(0.43888365,0.04094685,-0.04094685,0.43888365,321.36345,379.04917)">
      <path
         style="color:currentColor;fill:none;stroke:currentColor;stroke-width:4;stroke-linecap:round;stroke-linejoin:round;stroke-miterlimit:4;stroke-opacity:1;stroke-dasharray:none;stroke-dashoffset:0;marker:none;visibility:visible;display:inline;overflow:visible;enable-background:accumulate"
         d="m 97.528517,772.13404 c -4.433296,1.04428 -6.371867,0.84119 -7.794677,0.38023 l -2.661597,-24.3346 2.471483,-20.15209 1.711027,-1.3308 11.216727,24.90494 1.90114,19.58175 c 1.46477,1.26309 6.26869,0.52269 10.07605,0.38023"
         id="path4063" />
      <path
         style="color:currentColor;fill:none;stroke:currentColor;stroke-width:4;stroke-linecap:round;stroke-linejoin:round;stroke-miterlimit:4;stroke-opacity:1;stroke-dasharray:none;stroke-dashoffset:0;marker:none;visibility:visible;display:inline;overflow:visible;enable-background:accumulate"
         d="m 87.072243,704.64355 -4.752851,19.0114 14.258555,-13.30798 1.520912,0.19012"
         id="path4065" />
      <path
         style="color:currentColor;fill:none;stroke:currentColor;stroke-width:4;stroke-miterlimit:4;stroke-opacity:1;stroke-dasharray:none;marker:none;visibility:visible;display:inline;overflow:visible;enable-background:accumulate"
         id="path4067"
         d="m 99.809886,230.89354 c 0,5.72234 -4.638875,10.36122 -10.361217,10.36122 -5.722341,0 -10.361216,-4.63888 -10.361216,-10.36122 0,-5.72234 4.638875,-10.36122 10.361216,-10.36122 5.722342,0 10.361217,4.63888 10.361217,10.36122 z"
         transform="translate(0.380228,452.7424)" />
      <path
         transform="translate(0,452.36218)"
         id="path4075"
         d="M 89.353612,275.09506 88.593156,242.20533"
         style="color:currentColor;fill:none;stroke:currentColor;stroke-width:4;stroke-linecap:round;stroke-linejoin:round;stroke-miterlimit:4;stroke-opacity:1;stroke-dasharray:none;stroke-dashoffset:0;marker:none;visibility:visible;display:inline;overflow:visible;enable-background:accumulate" />
    </g>
  </g>
</svg>
