<?xml version="1.0" encoding="UTF-8" standalone="no"?>
<!-- Created with Inkscape (http://www.inkscape.org/) -->

<svg
   width="800"
   height="600"
   id="svg2"
   version="1.1"
   xmlns:xlink="http://www.w3.org/1999/xlink"
   xmlns="http://www.w3.org/2000/svg"
   xmlns:svg="http://www.w3.org/2000/svg"
   xmlns:rdf="http://www.w3.org/1999/02/22-rdf-syntax-ns#"
   xmlns:cc="http://creativecommons.org/ns#"
   xmlns:dc="http://purl.org/dc/elements/1.1/">
  <defs
     id="defs4">
    <linearGradient
       id="linearGradient3340-6-3-4">
      <stop
         style="stop-color:#ffffff;stop-opacity:1;"
         offset="0"
         id="stop3342-9-5-1" />
      <stop
         style="stop-color:#ffffff;stop-opacity:0;"
         offset="1"
         id="stop3344-6-4-8" />
    </linearGradient>
    <linearGradient
       id="linearGradient3340-6-0">
      <stop
         style="stop-color:#ffffff;stop-opacity:1;"
         offset="0"
         id="stop3342-9-1" />
      <stop
         style="stop-color:#ffffff;stop-opacity:0;"
         offset="1"
         id="stop3344-6-7" />
    </linearGradient>
    <radialGradient
       xlink:href="#linearGradient3340-6-3-4"
       id="radialGradient3207"
       gradientUnits="userSpaceOnUse"
       gradientTransform="matrix(3.658819,0,0,2.080782,-62.4164,12.76204)"
       cx="21.929186"
       cy="-3.2182934"
       fx="21.929186"
       fy="-3.2182934"
       r="13" />
    <radialGradient
       xlink:href="#linearGradient3340-6-0"
       id="radialGradient3209"
       gradientUnits="userSpaceOnUse"
       gradientTransform="matrix(9.10803,0,0,2.149855,-21.388207,929.02784)"
       cx="21.929186"
       cy="-3.2182934"
       fx="21.929186"
       fy="-3.2182934"
       r="13" />
    <radialGradient
       xlink:href="#linearGradient3340-6-3-4"
       id="radialGradient3211"
       gradientUnits="userSpaceOnUse"
       gradientTransform="matrix(3.658819,0,0,2.080782,-62.4164,12.76204)"
       cx="21.929186"
       cy="-3.2182934"
       fx="21.929186"
       fy="-3.2182934"
       r="13" />
    <radialGradient
       xlink:href="#linearGradient3340-6-3-4"
       id="radialGradient3287"
       gradientUnits="userSpaceOnUse"
       gradientTransform="matrix(3.658819,0,0,2.080782,-62.4164,12.76204)"
       cx="21.929186"
       cy="-3.2182934"
       fx="21.929186"
       fy="-3.2182934"
       r="13" />
    <radialGradient
       xlink:href="#linearGradient3340-6-3-4"
       id="radialGradient3301"
       gradientUnits="userSpaceOnUse"
       gradientTransform="matrix(3.658819,0,0,2.080782,-62.4164,12.76204)"
       cx="21.929186"
       cy="-3.2182934"
       fx="21.929186"
       fy="-3.2182934"
       r="13" />
    <radialGradient
       xlink:href="#linearGradient3340-6-3-4"
       id="radialGradient3315"
       gradientUnits="userSpaceOnUse"
       gradientTransform="matrix(3.658819,0,0,2.080782,-62.4164,12.76204)"
       cx="21.929186"
       cy="-3.2182934"
       fx="21.929186"
       fy="-3.2182934"
       r="13" />
    <radialGradient
       xlink:href="#linearGradient3340-6-3-4"
       id="radialGradient3329"
       gradientUnits="userSpaceOnUse"
       gradientTransform="matrix(3.658819,0,0,2.080782,-62.4164,12.76204)"
       cx="21.929186"
       cy="-3.2182934"
       fx="21.929186"
       fy="-3.2182934"
       r="13" />
  </defs>
  <metadata
     id="metadata7">
    <rdf:RDF>
      <cc:Work
         rdf:about="">
        <dc:format>image/svg+xml</dc:format>
        <dc:type
           rdf:resource="http://purl.org/dc/dcmitype/StillImage" />
        <dc:language>en</dc:language>
        <cc:license
           rdf:resource="https://timefold.ai/product/license/" />
      </cc:Work>
    </rdf:RDF>
  </metadata>
  <g
     id="layer1"
     transform="translate(0,-452.36218)">
    <path
       style="fill:currentColor;line-height:1.25;text-align:center;text-anchor:middle"
       d="m 290.53711,252.42716 v -25.76953 h 3.41016 v 22.72851 h 12.6914 v 3.04102 z m 31.93945,-2.30274 q -1.75781,1.49415 -3.39258,2.10938 -1.61718,0.61523 -3.48046,0.61523 -3.07618,0 -4.72852,-1.49414 -1.65234,-1.51172 -1.65234,-3.84961 0,-1.37109 0.61523,-2.49609 0.63281,-1.14258 1.63477,-1.82812 1.01953,-0.68555 2.28515,-1.03711 0.93164,-0.2461 2.8125,-0.47461 3.83203,-0.45703 5.64258,-1.08985 0.0176,-0.65039 0.0176,-0.82617 0,-1.93359 -0.89649,-2.72461 -1.21289,-1.07226 -3.60351,-1.07226 -2.23242,0 -3.30469,0.79101 -1.05469,0.77344 -1.56445,2.75977 l -3.09375,-0.42188 q 0.42187,-1.98633 1.38867,-3.19922 0.9668,-1.23047 2.79492,-1.88086 1.82813,-0.66796 4.23633,-0.66796 2.39062,0 3.88477,0.5625 1.49414,0.5625 2.19726,1.42382 0.70313,0.84375 0.98438,2.14453 0.1582,0.8086 0.1582,2.91797 v 4.21875 q 0,4.41211 0.19336,5.58985 0.21094,1.16015 0.80859,2.23242 h -3.30469 q -0.49218,-0.98438 -0.63281,-2.30274 z m -0.26367,-7.0664 q -1.72266,0.70312 -5.16797,1.19531 -1.95117,0.28125 -2.75976,0.63281 -0.8086,0.35157 -1.24805,1.03711 -0.43945,0.66797 -0.43945,1.49414 0,1.26563 0.94921,2.10938 0.9668,0.84375 2.8125,0.84375 1.82813,0 3.25196,-0.79102 1.42383,-0.80859 2.09179,-2.19726 0.50977,-1.07227 0.50977,-3.16407 z m 15.01172,6.53906 0.45703,2.79492 q -1.33594,0.28125 -2.39062,0.28125 -1.72266,0 -2.67188,-0.54492 -0.94922,-0.54492 -1.33594,-1.42383 -0.38672,-0.89648 -0.38672,-3.74414 v -10.74023 h -2.32031 v -2.46094 h 2.32031 v -4.62305 l 3.14649,-1.89843 v 6.52148 h 3.18164 v 2.46094 h -3.18164 v 10.91601 q 0,1.35352 0.1582,1.74024 0.17578,0.38672 0.54492,0.61523 0.38672,0.22852 1.08985,0.22852 0.52734,0 1.38867,-0.12305 z m 15.87305,-3.18164 3.26953,0.4043 q -0.77344,2.86523 -2.86524,4.44726 -2.09179,1.58203 -5.34375,1.58203 -4.0957,0 -6.5039,-2.51367 -2.39063,-2.53125 -2.39063,-7.08398 0,-4.71094 2.42578,-7.3125 2.42578,-2.60156 6.29297,-2.60156 3.74414,0 6.11719,2.54882 2.37305,2.54883 2.37305,7.17188 0,0.28125 -0.0176,0.84375 H 342.5332 q 0.17578,3.07617 1.74024,4.71094 1.56445,1.63476 3.90234,1.63476 1.74024,0 2.9707,-0.91406 1.23047,-0.91406 1.95118,-2.91797 z m -10.38868,-5.11523 h 10.42383 q -0.21094,-2.35547 -1.19531,-3.53321 -1.51172,-1.82812 -3.91992,-1.82812 -2.17969,0 -3.67383,1.45898 -1.47656,1.45899 -1.63477,3.90235 z m 39.81446,8.82421 q -1.75782,1.49415 -3.39258,2.10938 -1.61719,0.61523 -3.48047,0.61523 -3.07617,0 -4.72852,-1.49414 -1.65234,-1.51172 -1.65234,-3.84961 0,-1.37109 0.61524,-2.49609 0.63281,-1.14258 1.63476,-1.82812 1.01953,-0.68555 2.28516,-1.03711 0.93164,-0.2461 2.8125,-0.47461 3.83203,-0.45703 5.64258,-1.08985 0.0176,-0.65039 0.0176,-0.82617 0,-1.93359 -0.89648,-2.72461 -1.21289,-1.07226 -3.60352,-1.07226 -2.23242,0 -3.30468,0.79101 -1.05469,0.77344 -1.56446,2.75977 l -3.09375,-0.42188 q 0.42188,-1.98633 1.38867,-3.19922 0.9668,-1.23047 2.79493,-1.88086 1.82812,-0.66796 4.23632,-0.66796 2.39063,0 3.88477,0.5625 1.49414,0.5625 2.19727,1.42382 0.70312,0.84375 0.98437,2.14453 0.1582,0.8086 0.1582,2.91797 v 4.21875 q 0,4.41211 0.19336,5.58985 0.21094,1.16015 0.8086,2.23242 h -3.30469 q -0.49219,-0.98438 -0.63281,-2.30274 z m -0.26367,-7.0664 q -1.72266,0.70312 -5.16797,1.19531 -1.95118,0.28125 -2.75977,0.63281 -0.80859,0.35157 -1.24805,1.03711 -0.43945,0.66797 -0.43945,1.49414 0,1.26563 0.94922,2.10938 0.9668,0.84375 2.8125,0.84375 1.82812,0 3.25195,-0.79102 1.42383,-0.80859 2.0918,-2.19726 0.50977,-1.07227 0.50977,-3.16407 z m 20.28515,2.53125 3.11133,0.4043 q -0.50977,3.21679 -2.61914,5.04492 -2.0918,1.81054 -5.15039,1.81054 -3.83203,0 -6.16992,-2.49609 -2.32032,-2.51367 -2.32032,-7.18945 0,-3.02344 1.00196,-5.29102 1.00195,-2.26758 3.04101,-3.39258 2.05664,-1.14257 4.46485,-1.14257 3.04101,0 4.97461,1.54687 1.93359,1.5293 2.47851,4.35938 l -3.07617,0.4746 q -0.43945,-1.88085 -1.56445,-2.83007 -1.10743,-0.94922 -2.68946,-0.94922 -2.39062,0 -3.88476,1.72265 -1.49414,1.70508 -1.49414,5.41407 0,3.76172 1.4414,5.46679 1.44141,1.70508 3.76172,1.70508 1.86328,0 3.11133,-1.14258 1.24805,-1.14257 1.58203,-3.51562 z m 18,0 3.11133,0.4043 q -0.50977,3.21679 -2.61914,5.04492 -2.0918,1.81054 -5.15039,1.81054 -3.83203,0 -6.16992,-2.49609 -2.32032,-2.51367 -2.32032,-7.18945 0,-3.02344 1.00196,-5.29102 1.00195,-2.26758 3.04101,-3.39258 2.05664,-1.14257 4.46485,-1.14257 3.04101,0 4.97461,1.54687 1.93359,1.5293 2.47851,4.35938 l -3.07617,0.4746 q -0.43945,-1.88085 -1.56445,-2.83007 -1.10743,-0.94922 -2.68946,-0.94922 -2.39062,0 -3.88476,1.72265 -1.49414,1.70508 -1.49414,5.41407 0,3.76172 1.4414,5.46679 1.44141,1.70508 3.76172,1.70508 1.86328,0 3.11133,-1.14258 1.24805,-1.14257 1.58203,-3.51562 z m 18.59766,0.82617 3.26953,0.4043 q -0.77344,2.86523 -2.86524,4.44726 -2.09179,1.58203 -5.34375,1.58203 -4.0957,0 -6.5039,-2.51367 -2.39063,-2.53125 -2.39063,-7.08398 0,-4.71094 2.42578,-7.3125 2.42579,-2.60156 6.29297,-2.60156 3.74414,0 6.11719,2.54882 2.37305,2.54883 2.37305,7.17188 0,0.28125 -0.0176,0.84375 h -13.92188 q 0.17579,3.07617 1.74024,4.71094 1.56445,1.63476 3.90234,1.63476 1.74024,0 2.97071,-0.91406 1.23046,-0.91406 1.95117,-2.91797 z m -10.38867,-5.11523 h 10.42382 q -0.21093,-2.35547 -1.19531,-3.53321 -1.51172,-1.82812 -3.91992,-1.82812 -2.17969,0 -3.67383,1.45898 -1.47656,1.45899 -1.63476,3.90235 z m 17.63086,18.28125 v -25.82227 h 2.88281 v 2.42578 q 1.01953,-1.42383 2.30273,-2.12695 1.28321,-0.7207 3.11133,-0.7207 2.39063,0 4.21875,1.23046 1.82813,1.23047 2.75977,3.48047 0.93164,2.23242 0.93164,4.9043 0,2.86523 -1.03711,5.16797 -1.01953,2.28515 -2.98828,3.51562 -1.95118,1.21289 -4.11329,1.21289 -1.58203,0 -2.84765,-0.66796 -1.24805,-0.66797 -2.05664,-1.6875 v 9.08789 z M 449.25,243.19864 q 0,3.60352 1.45898,5.32618 1.45899,1.72265 3.53321,1.72265 2.10937,0 3.60351,-1.77539 1.51172,-1.79297 1.51172,-5.53711 0,-3.56836 -1.47656,-5.34375 -1.45899,-1.77539 -3.49805,-1.77539 -2.02148,0 -3.58594,1.89844 -1.54687,1.88086 -1.54687,5.48437 z m 24.06445,6.39844 0.45703,2.79492 q -1.33593,0.28125 -2.39062,0.28125 -1.72266,0 -2.67188,-0.54492 -0.94921,-0.54492 -1.33593,-1.42383 -0.38672,-0.89648 -0.38672,-3.74414 v -10.74023 h -2.32031 v -2.46094 h 2.32031 v -4.62305 l 3.14648,-1.89843 v 6.52148 h 3.18164 v 2.46094 h -3.18164 v 10.91601 q 0,1.35352 0.15821,1.74024 0.17578,0.38672 0.54492,0.61523 0.38672,0.22852 1.08984,0.22852 0.52734,0 1.38867,-0.12305 z m 15.27539,0.52734 q -1.75781,1.49415 -3.39257,2.10938 -1.61719,0.61523 -3.48047,0.61523 -3.07618,0 -4.72852,-1.49414 -1.65234,-1.51172 -1.65234,-3.84961 0,-1.37109 0.61523,-2.49609 0.63281,-1.14258 1.63477,-1.82812 1.01953,-0.68555 2.28515,-1.03711 0.93164,-0.2461 2.8125,-0.47461 3.83203,-0.45703 5.64258,-1.08985 0.0176,-0.65039 0.0176,-0.82617 0,-1.93359 -0.89648,-2.72461 -1.2129,-1.07226 -3.60352,-1.07226 -2.23242,0 -3.30469,0.79101 -1.05469,0.77344 -1.56445,2.75977 l -3.09375,-0.42188 q 0.42187,-1.98633 1.38867,-3.19922 0.9668,-1.23047 2.79492,-1.88086 1.82813,-0.66796 4.23633,-0.66796 2.39063,0 3.88477,0.5625 1.49414,0.5625 2.19726,1.42382 0.70313,0.84375 0.98438,2.14453 0.1582,0.8086 0.1582,2.91797 v 4.21875 q 0,4.41211 0.19336,5.58985 0.21094,1.16015 0.80859,2.23242 h -3.30468 q -0.49219,-0.98438 -0.63282,-2.30274 z m -0.26367,-7.0664 q -1.72265,0.70312 -5.16797,1.19531 -1.95117,0.28125 -2.75976,0.63281 -0.8086,0.35157 -1.24805,1.03711 -0.43945,0.66797 -0.43945,1.49414 0,1.26563 0.94922,2.10938 0.96679,0.84375 2.8125,0.84375 1.82812,0 3.25195,-0.79102 1.42383,-0.80859 2.0918,-2.19726 0.50976,-1.07227 0.50976,-3.16407 z m 8.10352,9.36914 v -18.66797 h 2.84765 v 2.6543 q 2.05664,-3.07617 5.94141,-3.07617 1.6875,0 3.09375,0.61523 1.42383,0.59766 2.12695,1.58203 0.70313,0.98438 0.98438,2.33789 0.17578,0.87891 0.17578,3.07617 v 11.47852 h -3.16406 v -11.35547 q 0,-1.93359 -0.36914,-2.88281 -0.36914,-0.9668 -1.31836,-1.5293 -0.93164,-0.58008 -2.19727,-0.58008 -2.02148,0 -3.49805,1.28321 -1.45898,1.2832 -1.45898,4.86914 v 10.19531 z m 32.20312,-6.83789 3.11133,0.4043 q -0.50977,3.21679 -2.61914,5.04492 -2.0918,1.81054 -5.15039,1.81054 -3.83203,0 -6.16992,-2.49609 -2.32032,-2.51367 -2.32032,-7.18945 0,-3.02344 1.00196,-5.29102 1.00195,-2.26758 3.04101,-3.39258 2.05664,-1.14257 4.46485,-1.14257 3.04101,0 4.97461,1.54687 1.93359,1.5293 2.47851,4.35938 l -3.07617,0.4746 q -0.43945,-1.88085 -1.56445,-2.83007 -1.10742,-0.94922 -2.68946,-0.94922 -2.39062,0 -3.88476,1.72265 -1.49414,1.70508 -1.49414,5.41407 0,3.76172 1.4414,5.46679 1.44141,1.70508 3.76172,1.70508 1.86328,0 3.11133,-1.14258 1.24805,-1.14257 1.58203,-3.51562 z m 18.59766,0.82617 3.26953,0.4043 q -0.77344,2.86523 -2.86523,4.44726 -2.0918,1.58203 -5.34375,1.58203 -4.09571,0 -6.50391,-2.51367 -2.39063,-2.53125 -2.39063,-7.08398 0,-4.71094 2.42579,-7.3125 2.42578,-2.60156 6.29296,-2.60156 3.74414,0 6.11719,2.54882 2.37305,2.54883 2.37305,7.17188 0,0.28125 -0.0176,0.84375 h -13.92187 q 0.17578,3.07617 1.74023,4.71094 1.56445,1.63476 3.90234,1.63476 1.74024,0 2.97071,-0.91406 1.23047,-0.91406 1.95117,-2.91797 z m -10.38867,-5.11523 h 10.42382 q -0.21093,-2.35547 -1.19531,-3.53321 -1.51172,-1.82812 -3.91992,-1.82812 -2.17969,0 -3.67383,1.45898 -1.47656,1.45899 -1.63476,3.90235 z"
       id="flowRoot4302"
       transform="translate(-20,262.36198)"
       aria-label="Late acceptance" />
    <g
       id="g3709"
       transform="translate(0,19.999997)" />
    <flowRoot
       xml:space="preserve"
       id="flowRoot4157"
       style="font-style:normal;font-weight:normal;line-height:0.01%;font-family:sans-serif;letter-spacing:0px;word-spacing:0px;fill:currentColor;fill-opacity:1;stroke:none;stroke-width:1px;stroke-linecap:butt;stroke-linejoin:miter;stroke-opacity:1"><flowRegion
         id="flowRegion4159"
         style="font-family:sans-serif"><rect
           id="rect4161"
           width="10.955056"
           height="72.471909"
           x="16.011236"
           y="-53.932568" /></flowRegion><flowPara
         id="flowPara4163"
         style="font-size:40px;line-height:1.25;font-family:sans-serif"> </flowPara></flowRoot>
    <g
       id="g3163"
       style="opacity:0.1;display:inline"
       transform="matrix(2,0,0,2,350.79187,678.44248)">
      <path
         style="color:currentColor;fill:#8ae234;fill-opacity:1;fill-rule:evenodd;stroke:#4e9a06;stroke-width:1.0757246;stroke-linecap:square;stroke-linejoin:round;stroke-miterlimit:4;stroke-opacity:1;stroke-dashoffset:0;marker:none;visibility:visible;display:inline;overflow:visible"
         d="m 36.5,22 c 0,7.179702 -6.268014,13 -14,13 C 14.768014,35 8.5,29.179702 8.5,22 8.5,14.820298 13.556118,8.951174 23.026911,11.4413 32.797912,9.9542337 36.5,14.820298 36.5,22 z"
         id="path3165"
         transform="matrix(0.894862,0,0,0.9657,3.855776,2.660348)" />
      <path
         style="fill:url(#radialGradient3207);fill-opacity:1;fill-rule:evenodd;stroke:none;display:inline"
         d="M 23.961028,14.169001 C 13.933664,10.442172 7.4642673,23.913861 15.70845,32.712101 15.653285,26.1817 24.935032,15.82634 35.820638,21.302362 34.998119,14.401963 29.35394,13.366055 23.961028,14.169001 z"
         id="path3167" />
      <path
         style="color:currentColor;fill:#8ae234;fill-opacity:1;fill-rule:evenodd;stroke:#8f5902;stroke-width:1.0000006;stroke-linecap:square;stroke-linejoin:round;stroke-miterlimit:4;stroke-opacity:1;stroke-dashoffset:0;marker:none;visibility:visible;display:inline;overflow:visible"
         d="m 24.08219,11.442887 c -0.208519,0.0254 0.352498,-0.133011 0.357571,0.06875 0.06316,0.870162 -0.680955,3.140037 -0.680955,3.140037 0.145306,0.232538 0.428637,-2.150182 0.323384,-3.208788 z"
         id="path3169" />
      <path
         style="color:currentColor;fill:#8ae234;fill-opacity:1;fill-rule:evenodd;stroke:#4e9a06;stroke-width:1.0000006;stroke-linecap:square;stroke-linejoin:round;stroke-miterlimit:4;stroke-opacity:1;stroke-dashoffset:0;marker:none;visibility:visible;display:inline;overflow:visible"
         d="m 24.722773,14.735358 c 0.323627,-0.389815 0.992115,-1.023286 1.105916,-1.500475 1.74174,-7.3034629 7.099646,-5.3971334 11.916834,-5.7310845 -6.920802,1.090618 -4.892199,4.0046465 -11.631048,5.6368055 -0.87043,0.21082 -0.545088,1.232571 -1.391702,1.594754 z"
         id="path3171" />
      <path
         style="color:currentColor;fill:none;stroke:#4e9a06;stroke-width:1px;stroke-linecap:round;stroke-linejoin:round;stroke-miterlimit:4;stroke-opacity:1;stroke-dasharray:none;stroke-dashoffset:0;marker:none;visibility:visible;display:inline;overflow:visible;enable-background:accumulate"
         d="m 21.198782,14.653588 c 0.530387,0.226518 1.662022,0.534669 2.687384,0.536231 1.053891,0.0016 2.83328,-0.141152 3.433716,-0.728595"
         id="path3173" />
    </g>
    <g
       id="g3175"
       transform="translate(199.9995,0)">
      <path
         id="path3177"
         d="m 99.521333,931.88354 c 24.893357,0 176.063967,0 200.957327,0 -10e-6,10.33196 -10e-6,20.66391 -10e-6,30.99587 -2.65451,0 -197.60802,0 -200.957308,0 0,-10.33196 0,-20.66391 -9e-6,-30.99587 z"
         style="color:currentColor;fill:#e9b96e;fill-opacity:1;fill-rule:evenodd;stroke:none;stroke-width:2.32495403;marker:none;visibility:visible;display:inline;overflow:visible" />
      <path
         id="path3179"
         d="m 102.58319,930.68903 c 79.11956,55.50946 127.81787,1.95714 194.94558,0.051 -66.30822,-0.0151 -176.69772,-0.021 -194.94558,-0.051 z"
         style="fill:url(#radialGradient3209);fill-opacity:1;fill-rule:evenodd;stroke:none;display:inline" />
      <path
         style="color:currentColor;fill:none;stroke:#8f5902;stroke-width:1.36767197;stroke-linecap:square;stroke-linejoin:round;stroke-miterlimit:4;stroke-opacity:1;stroke-dashoffset:0;marker:none;visibility:visible;display:inline;overflow:visible"
         d="m 99.521333,931.88354 c 24.893357,0 176.063967,0 200.957327,0"
         id="path3181" />
    </g>
    <g
       transform="matrix(2,0,0,2,350.79187,698.44248)"
       style="opacity:0.2;display:inline"
       id="g3275">
      <path
         transform="matrix(0.894862,0,0,0.9657,3.855776,2.660348)"
         id="path3277"
         d="m 36.5,22 c 0,7.179702 -6.268014,13 -14,13 C 14.768014,35 8.5,29.179702 8.5,22 8.5,14.820298 13.556118,8.951174 23.026911,11.4413 32.797912,9.9542337 36.5,14.820298 36.5,22 z"
         style="color:currentColor;fill:#8ae234;fill-opacity:1;fill-rule:evenodd;stroke:#4e9a06;stroke-width:1.0757246;stroke-linecap:square;stroke-linejoin:round;stroke-miterlimit:4;stroke-opacity:1;stroke-dashoffset:0;marker:none;visibility:visible;display:inline;overflow:visible" />
      <path
         id="path3279"
         d="M 23.961028,14.169001 C 13.933664,10.442172 7.4642673,23.913861 15.70845,32.712101 15.653285,26.1817 24.935032,15.82634 35.820638,21.302362 34.998119,14.401963 29.35394,13.366055 23.961028,14.169001 z"
         style="fill:url(#radialGradient3287);fill-opacity:1;fill-rule:evenodd;stroke:none;display:inline" />
      <path
         id="path3281"
         d="m 24.08219,11.442887 c -0.208519,0.0254 0.352498,-0.133011 0.357571,0.06875 0.06316,0.870162 -0.680955,3.140037 -0.680955,3.140037 0.145306,0.232538 0.428637,-2.150182 0.323384,-3.208788 z"
         style="color:currentColor;fill:#8ae234;fill-opacity:1;fill-rule:evenodd;stroke:#8f5902;stroke-width:1.0000006;stroke-linecap:square;stroke-linejoin:round;stroke-miterlimit:4;stroke-opacity:1;stroke-dashoffset:0;marker:none;visibility:visible;display:inline;overflow:visible" />
      <path
         id="path3283"
         d="m 24.722773,14.735358 c 0.323627,-0.389815 0.992115,-1.023286 1.105916,-1.500475 1.74174,-7.3034629 7.099646,-5.3971334 11.916834,-5.7310845 -6.920802,1.090618 -4.892199,4.0046465 -11.631048,5.6368055 -0.87043,0.21082 -0.545088,1.232571 -1.391702,1.594754 z"
         style="color:currentColor;fill:#8ae234;fill-opacity:1;fill-rule:evenodd;stroke:#4e9a06;stroke-width:1.0000006;stroke-linecap:square;stroke-linejoin:round;stroke-miterlimit:4;stroke-opacity:1;stroke-dashoffset:0;marker:none;visibility:visible;display:inline;overflow:visible" />
      <path
         id="path3285"
         d="m 21.198782,14.653588 c 0.530387,0.226518 1.662022,0.534669 2.687384,0.536231 1.053891,0.0016 2.83328,-0.141152 3.433716,-0.728595"
         style="color:currentColor;fill:none;stroke:#4e9a06;stroke-width:1px;stroke-linecap:round;stroke-linejoin:round;stroke-miterlimit:4;stroke-opacity:1;stroke-dasharray:none;stroke-dashoffset:0;marker:none;visibility:visible;display:inline;overflow:visible;enable-background:accumulate" />
    </g>
    <g
       id="g3289"
       style="opacity:0.3;display:inline"
       transform="matrix(2,0,0,2,350.79187,718.44248)">
      <path
         style="color:currentColor;fill:#8ae234;fill-opacity:1;fill-rule:evenodd;stroke:#4e9a06;stroke-width:1.0757246;stroke-linecap:square;stroke-linejoin:round;stroke-miterlimit:4;stroke-opacity:1;stroke-dashoffset:0;marker:none;visibility:visible;display:inline;overflow:visible"
         d="m 36.5,22 c 0,7.179702 -6.268014,13 -14,13 C 14.768014,35 8.5,29.179702 8.5,22 8.5,14.820298 13.556118,8.951174 23.026911,11.4413 32.797912,9.9542337 36.5,14.820298 36.5,22 z"
         id="path3291"
         transform="matrix(0.894862,0,0,0.9657,3.855776,2.660348)" />
      <path
         style="fill:url(#radialGradient3301);fill-opacity:1;fill-rule:evenodd;stroke:none;display:inline"
         d="M 23.961028,14.169001 C 13.933664,10.442172 7.4642673,23.913861 15.70845,32.712101 15.653285,26.1817 24.935032,15.82634 35.820638,21.302362 34.998119,14.401963 29.35394,13.366055 23.961028,14.169001 z"
         id="path3293" />
      <path
         style="color:currentColor;fill:#8ae234;fill-opacity:1;fill-rule:evenodd;stroke:#8f5902;stroke-width:1.0000006;stroke-linecap:square;stroke-linejoin:round;stroke-miterlimit:4;stroke-opacity:1;stroke-dashoffset:0;marker:none;visibility:visible;display:inline;overflow:visible"
         d="m 24.08219,11.442887 c -0.208519,0.0254 0.352498,-0.133011 0.357571,0.06875 0.06316,0.870162 -0.680955,3.140037 -0.680955,3.140037 0.145306,0.232538 0.428637,-2.150182 0.323384,-3.208788 z"
         id="path3295" />
      <path
         style="color:currentColor;fill:#8ae234;fill-opacity:1;fill-rule:evenodd;stroke:#4e9a06;stroke-width:1.0000006;stroke-linecap:square;stroke-linejoin:round;stroke-miterlimit:4;stroke-opacity:1;stroke-dashoffset:0;marker:none;visibility:visible;display:inline;overflow:visible"
         d="m 24.722773,14.735358 c 0.323627,-0.389815 0.992115,-1.023286 1.105916,-1.500475 1.74174,-7.3034629 7.099646,-5.3971334 11.916834,-5.7310845 -6.920802,1.090618 -4.892199,4.0046465 -11.631048,5.6368055 -0.87043,0.21082 -0.545088,1.232571 -1.391702,1.594754 z"
         id="path3297" />
      <path
         style="color:currentColor;fill:none;stroke:#4e9a06;stroke-width:1px;stroke-linecap:round;stroke-linejoin:round;stroke-miterlimit:4;stroke-opacity:1;stroke-dasharray:none;stroke-dashoffset:0;marker:none;visibility:visible;display:inline;overflow:visible;enable-background:accumulate"
         d="m 21.198782,14.653588 c 0.530387,0.226518 1.662022,0.534669 2.687384,0.536231 1.053891,0.0016 2.83328,-0.141152 3.433716,-0.728595"
         id="path3299" />
    </g>
    <g
       transform="matrix(2,0,0,2,350.79187,738.44248)"
       style="opacity:0.4;display:inline"
       id="g3303">
      <path
         transform="matrix(0.894862,0,0,0.9657,3.855776,2.660348)"
         id="path3305"
         d="m 36.5,22 c 0,7.179702 -6.268014,13 -14,13 C 14.768014,35 8.5,29.179702 8.5,22 8.5,14.820298 13.556118,8.951174 23.026911,11.4413 32.797912,9.9542337 36.5,14.820298 36.5,22 z"
         style="color:currentColor;fill:#8ae234;fill-opacity:1;fill-rule:evenodd;stroke:#4e9a06;stroke-width:1.0757246;stroke-linecap:square;stroke-linejoin:round;stroke-miterlimit:4;stroke-opacity:1;stroke-dashoffset:0;marker:none;visibility:visible;display:inline;overflow:visible" />
      <path
         id="path3307"
         d="M 23.961028,14.169001 C 13.933664,10.442172 7.4642673,23.913861 15.70845,32.712101 15.653285,26.1817 24.935032,15.82634 35.820638,21.302362 34.998119,14.401963 29.35394,13.366055 23.961028,14.169001 z"
         style="fill:url(#radialGradient3315);fill-opacity:1;fill-rule:evenodd;stroke:none;display:inline" />
      <path
         id="path3309"
         d="m 24.08219,11.442887 c -0.208519,0.0254 0.352498,-0.133011 0.357571,0.06875 0.06316,0.870162 -0.680955,3.140037 -0.680955,3.140037 0.145306,0.232538 0.428637,-2.150182 0.323384,-3.208788 z"
         style="color:currentColor;fill:#8ae234;fill-opacity:1;fill-rule:evenodd;stroke:#8f5902;stroke-width:1.0000006;stroke-linecap:square;stroke-linejoin:round;stroke-miterlimit:4;stroke-opacity:1;stroke-dashoffset:0;marker:none;visibility:visible;display:inline;overflow:visible" />
      <path
         id="path3311"
         d="m 24.722773,14.735358 c 0.323627,-0.389815 0.992115,-1.023286 1.105916,-1.500475 1.74174,-7.3034629 7.099646,-5.3971334 11.916834,-5.7310845 -6.920802,1.090618 -4.892199,4.0046465 -11.631048,5.6368055 -0.87043,0.21082 -0.545088,1.232571 -1.391702,1.594754 z"
         style="color:currentColor;fill:#8ae234;fill-opacity:1;fill-rule:evenodd;stroke:#4e9a06;stroke-width:1.0000006;stroke-linecap:square;stroke-linejoin:round;stroke-miterlimit:4;stroke-opacity:1;stroke-dashoffset:0;marker:none;visibility:visible;display:inline;overflow:visible" />
      <path
         id="path3313"
         d="m 21.198782,14.653588 c 0.530387,0.226518 1.662022,0.534669 2.687384,0.536231 1.053891,0.0016 2.83328,-0.141152 3.433716,-0.728595"
         style="color:currentColor;fill:none;stroke:#4e9a06;stroke-width:1px;stroke-linecap:round;stroke-linejoin:round;stroke-miterlimit:4;stroke-opacity:1;stroke-dasharray:none;stroke-dashoffset:0;marker:none;visibility:visible;display:inline;overflow:visible;enable-background:accumulate" />
    </g>
    <g
       id="g3317"
       style="opacity:0.5;display:inline"
       transform="matrix(2,0,0,2,350.79187,758.44248)">
      <path
         style="color:currentColor;fill:#8ae234;fill-opacity:1;fill-rule:evenodd;stroke:#4e9a06;stroke-width:1.0757246;stroke-linecap:square;stroke-linejoin:round;stroke-miterlimit:4;stroke-opacity:1;stroke-dashoffset:0;marker:none;visibility:visible;display:inline;overflow:visible"
         d="m 36.5,22 c 0,7.179702 -6.268014,13 -14,13 C 14.768014,35 8.5,29.179702 8.5,22 8.5,14.820298 13.556118,8.951174 23.026911,11.4413 32.797912,9.9542337 36.5,14.820298 36.5,22 z"
         id="path3319"
         transform="matrix(0.894862,0,0,0.9657,3.855776,2.660348)" />
      <path
         style="fill:url(#radialGradient3329);fill-opacity:1;fill-rule:evenodd;stroke:none;display:inline"
         d="M 23.961028,14.169001 C 13.933664,10.442172 7.4642673,23.913861 15.70845,32.712101 15.653285,26.1817 24.935032,15.82634 35.820638,21.302362 34.998119,14.401963 29.35394,13.366055 23.961028,14.169001 z"
         id="path3321" />
      <path
         style="color:currentColor;fill:#8ae234;fill-opacity:1;fill-rule:evenodd;stroke:#8f5902;stroke-width:1.0000006;stroke-linecap:square;stroke-linejoin:round;stroke-miterlimit:4;stroke-opacity:1;stroke-dashoffset:0;marker:none;visibility:visible;display:inline;overflow:visible"
         d="m 24.08219,11.442887 c -0.208519,0.0254 0.352498,-0.133011 0.357571,0.06875 0.06316,0.870162 -0.680955,3.140037 -0.680955,3.140037 0.145306,0.232538 0.428637,-2.150182 0.323384,-3.208788 z"
         id="path3323" />
      <path
         style="color:currentColor;fill:#8ae234;fill-opacity:1;fill-rule:evenodd;stroke:#4e9a06;stroke-width:1.0000006;stroke-linecap:square;stroke-linejoin:round;stroke-miterlimit:4;stroke-opacity:1;stroke-dashoffset:0;marker:none;visibility:visible;display:inline;overflow:visible"
         d="m 24.722773,14.735358 c 0.323627,-0.389815 0.992115,-1.023286 1.105916,-1.500475 1.74174,-7.3034629 7.099646,-5.3971334 11.916834,-5.7310845 -6.920802,1.090618 -4.892199,4.0046465 -11.631048,5.6368055 -0.87043,0.21082 -0.545088,1.232571 -1.391702,1.594754 z"
         id="path3325" />
      <path
         style="color:currentColor;fill:none;stroke:#4e9a06;stroke-width:1px;stroke-linecap:round;stroke-linejoin:round;stroke-miterlimit:4;stroke-opacity:1;stroke-dasharray:none;stroke-dashoffset:0;marker:none;visibility:visible;display:inline;overflow:visible;enable-background:accumulate"
         d="m 21.198782,14.653588 c 0.530387,0.226518 1.662022,0.534669 2.687384,0.536231 1.053891,0.0016 2.83328,-0.141152 3.433716,-0.728595"
         id="path3327" />
    </g>
    <g
       transform="matrix(2,0,0,2,350.79187,778.44248)"
       style="display:inline"
       id="g3183">
      <path
         transform="matrix(0.894862,0,0,0.9657,3.855776,2.660348)"
         id="path3185"
         d="m 36.5,22 c 0,7.179702 -6.268014,13 -14,13 C 14.768014,35 8.5,29.179702 8.5,22 8.5,14.820298 13.556118,8.951174 23.026911,11.4413 32.797912,9.9542337 36.5,14.820298 36.5,22 z"
         style="color:currentColor;fill:#8ae234;fill-opacity:1;fill-rule:evenodd;stroke:#4e9a06;stroke-width:1.0757246;stroke-linecap:square;stroke-linejoin:round;stroke-miterlimit:4;stroke-opacity:1;stroke-dashoffset:0;marker:none;visibility:visible;display:inline;overflow:visible" />
      <path
         id="path3187"
         d="M 23.961028,14.169001 C 13.933664,10.442172 7.4642673,23.913861 15.70845,32.712101 15.653285,26.1817 24.935032,15.82634 35.820638,21.302362 34.998119,14.401963 29.35394,13.366055 23.961028,14.169001 z"
         style="fill:url(#radialGradient3211);fill-opacity:1;fill-rule:evenodd;stroke:none;display:inline" />
      <path
         id="path3189"
         d="m 24.08219,11.442887 c -0.208519,0.0254 0.352498,-0.133011 0.357571,0.06875 0.06316,0.870162 -0.680955,3.140037 -0.680955,3.140037 0.145306,0.232538 0.428637,-2.150182 0.323384,-3.208788 z"
         style="color:currentColor;fill:#8ae234;fill-opacity:1;fill-rule:evenodd;stroke:#8f5902;stroke-width:1.0000006;stroke-linecap:square;stroke-linejoin:round;stroke-miterlimit:4;stroke-opacity:1;stroke-dashoffset:0;marker:none;visibility:visible;display:inline;overflow:visible" />
      <path
         id="path3191"
         d="m 24.722773,14.735358 c 0.323627,-0.389815 0.992115,-1.023286 1.105916,-1.500475 1.74174,-7.3034629 7.099646,-5.3971334 11.916834,-5.7310845 -6.920802,1.090618 -4.892199,4.0046465 -11.631048,5.6368055 -0.87043,0.21082 -0.545088,1.232571 -1.391702,1.594754 z"
         style="color:currentColor;fill:#8ae234;fill-opacity:1;fill-rule:evenodd;stroke:#4e9a06;stroke-width:1.0000006;stroke-linecap:square;stroke-linejoin:round;stroke-miterlimit:4;stroke-opacity:1;stroke-dashoffset:0;marker:none;visibility:visible;display:inline;overflow:visible" />
      <path
         id="path3193"
         d="m 21.198782,14.653588 c 0.530387,0.226518 1.662022,0.534669 2.687384,0.536231 1.053891,0.0016 2.83328,-0.141152 3.433716,-0.728595"
         style="color:currentColor;fill:none;stroke:#4e9a06;stroke-width:1px;stroke-linecap:round;stroke-linejoin:round;stroke-miterlimit:4;stroke-opacity:1;stroke-dasharray:none;stroke-dashoffset:0;marker:none;visibility:visible;display:inline;overflow:visible;enable-background:accumulate" />
    </g>
  </g>
</svg>
