<?xml version="1.0" encoding="UTF-8" standalone="no"?>
<!-- Created with Inkscape (http://www.inkscape.org/) -->

<svg
   width="800"
   height="600"
   id="svg2"
   version="1.1"
   xmlns="http://www.w3.org/2000/svg"
   xmlns:svg="http://www.w3.org/2000/svg"
   xmlns:rdf="http://www.w3.org/1999/02/22-rdf-syntax-ns#"
   xmlns:cc="http://creativecommons.org/ns#"
   xmlns:dc="http://purl.org/dc/elements/1.1/">
  <defs
     id="defs4" />
  <metadata
     id="metadata7">
    <rdf:RDF>
      <cc:Work
         rdf:about="">
        <dc:format>image/svg+xml</dc:format>
        <dc:type
           rdf:resource="http://purl.org/dc/dcmitype/StillImage" />
        <dc:language>en</dc:language>
        <cc:license
           rdf:resource="https://timefold.ai/product/license/" />
      </cc:Work>
    </rdf:RDF>
  </metadata>
  <g
     id="layer1"
     transform="translate(0,-452.36218)">
    <path
       style="fill:currentColor;line-height:1.25;text-align:center;text-anchor:middle"
       d="m 257.49902,244.14786 3.2168,-0.28125 q 0.22852,1.9336 1.05469,3.18164 0.84375,1.23047 2.60156,2.00391 1.75781,0.75586 3.95508,0.75586 1.95117,0 3.44531,-0.58008 1.49414,-0.58008 2.21484,-1.58203 0.73829,-1.01953 0.73829,-2.21484 0,-1.2129 -0.70313,-2.10938 -0.70312,-0.91406 -2.32031,-1.5293 -1.03711,-0.40429 -4.58789,-1.24804 -3.55078,-0.86133 -4.97461,-1.61719 -1.8457,-0.9668 -2.75977,-2.39063 -0.89648,-1.4414 -0.89648,-3.21679 0,-1.95117 1.10742,-3.63867 1.10742,-1.70508 3.23438,-2.58399 2.12695,-0.87891 4.72851,-0.87891 2.86524,0 5.04492,0.93165 2.19727,0.91406 3.375,2.70703 1.17774,1.79297 1.26563,4.06054 l -3.26953,0.2461 q -0.26368,-2.44336 -1.79297,-3.69141 -1.51172,-1.24805 -4.48242,-1.24805 -3.09375,0 -4.51758,1.14258 -1.40625,1.125 -1.40625,2.72461 0,1.38867 1.00195,2.28516 0.98438,0.89648 5.13281,1.8457 4.16602,0.93164 5.71289,1.63477 2.25,1.03711 3.32227,2.63672 1.07227,1.58203 1.07227,3.65625 0,2.05664 -1.17774,3.88476 -1.17773,1.81055 -3.39258,2.83008 -2.19726,1.00195 -4.95703,1.00195 -3.49805,0 -5.87109,-1.01953 -2.35547,-1.01953 -3.70899,-3.05859 -1.33593,-2.05664 -1.40625,-4.64063 z m 24.78516,-13.85156 v -3.63867 h 3.16406 v 3.63867 z m 0,22.13086 v -18.66797 h 3.16406 v 18.66797 z m 7.98047,0 v -18.66797 h 2.83008 v 2.61914 q 0.8789,-1.37109 2.33789,-2.19726 1.45898,-0.84375 3.32226,-0.84375 2.07422,0 3.39258,0.86132 1.33594,0.86133 1.88086,2.40821 2.21484,-3.26953 5.76563,-3.26953 2.77734,0 4.27148,1.54687 1.49414,1.5293 1.49414,4.72852 v 12.81445 h -3.14648 v -11.75977 q 0,-1.89843 -0.31641,-2.72461 -0.29883,-0.84375 -1.10742,-1.35351 -0.8086,-0.50977 -1.89844,-0.50977 -1.96875,0 -3.26953,1.31836 -1.30078,1.30078 -1.30078,4.1836 v 10.8457 h -3.16406 v -12.12891 q 0,-2.10937 -0.77344,-3.16406 -0.77344,-1.05469 -2.53125,-1.05469 -1.33594,0 -2.47852,0.70313 -1.125,0.70312 -1.63476,2.05664 -0.50977,1.35351 -0.50977,3.90234 v 9.68555 z m 42.22265,0 v -2.74219 q -2.17968,3.16406 -5.92382,3.16406 -1.65235,0 -3.09375,-0.63281 -1.42383,-0.63281 -2.12696,-1.58203 -0.68554,-0.9668 -0.96679,-2.35547 -0.19336,-0.93164 -0.19336,-2.95312 v -11.56641 h 3.16406 v 10.35352 q 0,2.47851 0.19336,3.33984 0.29883,1.24805 1.26562,1.96875 0.9668,0.70312 2.39063,0.70312 1.42383,0 2.67187,-0.7207 1.24805,-0.73828 1.75782,-1.98633 0.52734,-1.26562 0.52734,-3.65625 v -10.00195 h 3.16406 v 18.66797 z m 7.7168,0 v -25.76953 h 3.16406 v 25.76953 z m 20.25,-2.30274 q -1.75781,1.49415 -3.39258,2.10938 -1.61718,0.61523 -3.48047,0.61523 -3.07617,0 -4.72851,-1.49414 -1.65234,-1.51172 -1.65234,-3.84961 0,-1.37109 0.61523,-2.49609 0.63281,-1.14258 1.63477,-1.82812 1.01953,-0.68555 2.28515,-1.03711 0.93164,-0.2461 2.8125,-0.47461 3.83203,-0.45703 5.64258,-1.08985 0.0176,-0.65039 0.0176,-0.82617 0,-1.93359 -0.89649,-2.72461 -1.21289,-1.07226 -3.60351,-1.07226 -2.23242,0 -3.30469,0.79101 -1.05469,0.77344 -1.56445,2.75977 l -3.09375,-0.42188 q 0.42187,-1.98633 1.38867,-3.19922 0.9668,-1.23047 2.79492,-1.88086 1.82813,-0.66796 4.23633,-0.66796 2.39062,0 3.88476,0.5625 1.49415,0.5625 2.19727,1.42382 0.70313,0.84375 0.98438,2.14453 0.1582,0.8086 0.1582,2.91797 v 4.21875 q 0,4.41211 0.19336,5.58985 0.21094,1.16015 0.80859,2.23242 h -3.30469 q -0.49218,-0.98438 -0.63281,-2.30274 z m -0.26367,-7.0664 q -1.72266,0.70312 -5.16797,1.19531 -1.95117,0.28125 -2.75976,0.63281 -0.8086,0.35157 -1.24805,1.03711 -0.43945,0.66797 -0.43945,1.49414 0,1.26563 0.94921,2.10938 0.9668,0.84375 2.8125,0.84375 1.82813,0 3.25196,-0.79102 1.42383,-0.80859 2.09179,-2.19726 0.50977,-1.07227 0.50977,-3.16407 z m 15.01172,6.53906 0.45703,2.79492 q -1.33594,0.28125 -2.39063,0.28125 -1.72265,0 -2.67187,-0.54492 -0.94922,-0.54492 -1.33594,-1.42383 -0.38672,-0.89648 -0.38672,-3.74414 v -10.74023 h -2.32031 v -2.46094 h 2.32031 v -4.62305 l 3.14649,-1.89843 v 6.52148 h 3.18164 v 2.46094 h -3.18164 v 10.91601 q 0,1.35352 0.1582,1.74024 0.17578,0.38672 0.54492,0.61523 0.38672,0.22852 1.08985,0.22852 0.52734,0 1.38867,-0.12305 z m 15.87305,-3.18164 3.26953,0.4043 q -0.77344,2.86523 -2.86524,4.44726 -2.09179,1.58203 -5.34375,1.58203 -4.0957,0 -6.5039,-2.51367 -2.39063,-2.53125 -2.39063,-7.08398 0,-4.71094 2.42578,-7.3125 2.42578,-2.60156 6.29297,-2.60156 3.74414,0 6.11719,2.54882 2.37305,2.54883 2.37305,7.17188 0,0.28125 -0.0176,0.84375 h -13.92188 q 0.17578,3.07617 1.74024,4.71094 1.56445,1.63476 3.90234,1.63476 1.74023,0 2.9707,-0.91406 1.23047,-0.91406 1.95118,-2.91797 z m -10.38868,-5.11523 h 10.42383 q -0.21094,-2.35547 -1.19531,-3.53321 -1.51172,-1.82812 -3.91992,-1.82812 -2.17969,0 -3.67383,1.45898 -1.47656,1.45899 -1.63477,3.90235 z m 29.74219,11.12695 v -2.35547 q -1.77539,2.77734 -5.2207,2.77734 -2.23242,0 -4.11328,-1.23046 -1.86328,-1.23047 -2.90039,-3.42774 -1.01954,-2.21484 -1.01954,-5.08008 0,-2.79492 0.93165,-5.0625 0.93164,-2.28515 2.79492,-3.49804 1.86328,-1.21289 4.16601,-1.21289 1.6875,0 3.00586,0.7207 1.31836,0.70312 2.14453,1.8457 v -9.24609 h 3.14649 v 25.76953 z m -10.00195,-9.31641 q 0,3.58594 1.51172,5.36133 1.51172,1.77539 3.56836,1.77539 2.07421,0 3.51562,-1.6875 1.45899,-1.70508 1.45899,-5.18555 0,-3.83203 -1.47657,-5.625 -1.47656,-1.79296 -3.63867,-1.79296 -2.10937,0 -3.5332,1.72265 -1.40625,1.72266 -1.40625,5.43164 z m 23.50195,9.31641 9.89649,-25.76953 h 3.67382 l 10.54688,25.76953 h -3.88477 l -3.00586,-7.80469 h -10.77539 l -2.83008,7.80469 z m 7.43555,-10.58203 h 8.73633 l -2.68946,-7.13672 q -1.23047,-3.25195 -1.82812,-5.34375 -0.49219,2.47851 -1.38867,4.92187 z m 19.00195,10.58203 v -18.66797 h 2.84766 v 2.6543 q 2.05664,-3.07617 5.9414,-3.07617 1.6875,0 3.09375,0.61523 1.42383,0.59766 2.12696,1.58203 0.70312,0.98438 0.98437,2.33789 0.17578,0.87891 0.17578,3.07617 v 11.47852 h -3.16406 v -11.35547 q 0,-1.93359 -0.36914,-2.88281 -0.36914,-0.9668 -1.31836,-1.5293 -0.93164,-0.58008 -2.19727,-0.58008 -2.02148,0 -3.49804,1.28321 -1.45899,1.2832 -1.45899,4.86914 v 10.19531 z m 20.02149,0 v -18.66797 h 2.84765 v 2.6543 q 2.05664,-3.07617 5.94141,-3.07617 1.6875,0 3.09375,0.61523 1.42383,0.59766 2.12695,1.58203 0.70313,0.98438 0.98438,2.33789 0.17578,0.87891 0.17578,3.07617 v 11.47852 h -3.16407 v -11.35547 q 0,-1.93359 -0.36914,-2.88281 -0.36914,-0.9668 -1.31836,-1.5293 -0.93164,-0.58008 -2.19726,-0.58008 -2.02149,0 -3.49805,1.28321 -1.45898,1.2832 -1.45898,4.86914 v 10.19531 z m 32.80078,-6.01172 3.26953,0.4043 q -0.77344,2.86523 -2.86524,4.44726 -2.09179,1.58203 -5.34375,1.58203 -4.0957,0 -6.5039,-2.51367 -2.39063,-2.53125 -2.39063,-7.08398 0,-4.71094 2.42578,-7.3125 2.42578,-2.60156 6.29297,-2.60156 3.74414,0 6.11719,2.54882 2.37305,2.54883 2.37305,7.17188 0,0.28125 -0.0176,0.84375 h -13.92188 q 0.17578,3.07617 1.74024,4.71094 1.56445,1.63476 3.90234,1.63476 1.74024,0 2.9707,-0.91406 1.23047,-0.91406 1.95118,-2.91797 z m -10.38868,-5.11523 h 10.42383 q -0.21093,-2.35547 -1.19531,-3.53321 -1.51172,-1.82812 -3.91992,-1.82812 -2.17969,0 -3.67383,1.45898 -1.47656,1.45899 -1.63477,3.90235 z m 29.8125,8.82421 q -1.75781,1.49415 -3.39257,2.10938 -1.61719,0.61523 -3.48047,0.61523 -3.07617,0 -4.72852,-1.49414 -1.65234,-1.51172 -1.65234,-3.84961 0,-1.37109 0.61523,-2.49609 0.63282,-1.14258 1.63477,-1.82812 1.01953,-0.68555 2.28515,-1.03711 0.93165,-0.2461 2.8125,-0.47461 3.83204,-0.45703 5.64258,-1.08985 0.0176,-0.65039 0.0176,-0.82617 0,-1.93359 -0.89648,-2.72461 -1.21289,-1.07226 -3.60352,-1.07226 -2.23242,0 -3.30469,0.79101 -1.05468,0.77344 -1.56445,2.75977 l -3.09375,-0.42188 q 0.42188,-1.98633 1.38867,-3.19922 0.9668,-1.23047 2.79492,-1.88086 1.82813,-0.66796 4.23633,-0.66796 2.39063,0 3.88477,0.5625 1.49414,0.5625 2.19726,1.42382 0.70313,0.84375 0.98438,2.14453 0.1582,0.8086 0.1582,2.91797 v 4.21875 q 0,4.41211 0.19336,5.58985 0.21094,1.16015 0.80859,2.23242 h -3.30468 q -0.49219,-0.98438 -0.63282,-2.30274 z m -0.26367,-7.0664 q -1.72265,0.70312 -5.16797,1.19531 -1.95117,0.28125 -2.75976,0.63281 -0.8086,0.35157 -1.24805,1.03711 -0.43945,0.66797 -0.43945,1.49414 0,1.26563 0.94922,2.10938 0.96679,0.84375 2.8125,0.84375 1.82812,0 3.25195,-0.79102 1.42383,-0.80859 2.0918,-2.19726 0.50976,-1.07227 0.50976,-3.16407 z m 8.03321,9.36914 v -25.76953 h 3.16406 v 25.76953 z m 8.08593,-22.13086 v -3.63867 h 3.16407 v 3.63867 z m 0,22.13086 v -18.66797 h 3.16407 v 18.66797 z m 7.98047,0 v -18.66797 h 2.84766 v 2.6543 q 2.05664,-3.07617 5.9414,-3.07617 1.6875,0 3.09375,0.61523 1.42383,0.59766 2.12696,1.58203 0.70312,0.98438 0.98437,2.33789 0.17578,0.87891 0.17578,3.07617 v 11.47852 h -3.16406 v -11.35547 q 0,-1.93359 -0.36914,-2.88281 -0.36914,-0.9668 -1.31836,-1.5293 -0.93164,-0.58008 -2.19726,-0.58008 -2.02149,0 -3.49805,1.28321 -1.45899,1.2832 -1.45899,4.86914 v 10.19531 z m 19.44141,1.54687 3.07617,0.45704 q 0.19336,1.42382 1.07227,2.07421 1.17773,0.87891 3.21679,0.87891 2.19727,0 3.39258,-0.87891 1.19531,-0.8789 1.61719,-2.46093 0.24609,-0.9668 0.22851,-4.06055 -2.07421,2.44336 -5.16796,2.44336 -3.84961,0 -5.95899,-2.77734 -2.10937,-2.77735 -2.10937,-6.66211 0,-2.67188 0.96679,-4.92188 0.9668,-2.26758 2.79492,-3.49805 1.84571,-1.23046 4.32422,-1.23046 3.30469,0 5.44922,2.67187 v -2.25 h 2.91797 v 16.13672 q 0,4.35937 -0.89648,6.16992 -0.87891,1.82813 -2.8125,2.88281 -1.91602,1.05469 -4.72852,1.05469 -3.33984,0 -5.39648,-1.51172 -2.05664,-1.49414 -1.98633,-4.51758 z m 2.61914,-11.21484 q 0,3.67383 1.45898,5.36133 1.45899,1.6875 3.65625,1.6875 2.17969,0 3.65625,-1.66992 1.47657,-1.6875 1.47657,-5.27344 0,-3.42774 -1.5293,-5.16797 -1.51172,-1.74023 -3.65625,-1.74023 -2.10938,0 -3.58594,1.72265 -1.47656,1.70508 -1.47656,5.08008 z"
       id="flowRoot4302"
       transform="translate(-20,262.36198)"
       aria-label="Simulated Annealing" />
    <g
       id="g3709"
       transform="translate(0,19.999997)" />
    <flowRoot
       xml:space="preserve"
       id="flowRoot4157"
       style="font-style:normal;font-weight:normal;line-height:0.01%;font-family:sans-serif;letter-spacing:0px;word-spacing:0px;fill:currentColor;fill-opacity:1;stroke:none;stroke-width:1px;stroke-linecap:butt;stroke-linejoin:miter;stroke-opacity:1"><flowRegion
         id="flowRegion4159"
         style="font-family:sans-serif"><rect
           id="rect4161"
           width="10.955056"
           height="72.471909"
           x="16.011236"
           y="-53.932568" /></flowRegion><flowPara
         id="flowPara4163"
         style="font-size:40px;line-height:1.25;font-family:sans-serif"> </flowPara></flowRoot>
    <g
       id="g3942"
       style="stroke:#4e9a06" />
    <flowRoot
       transform="translate(0,452.36218)"
       style="font-style:normal;font-variant:normal;font-weight:normal;font-stretch:normal;line-height:0.01%;font-family:serif;-inkscape-font-specification:Serif;letter-spacing:0px;word-spacing:0px;fill:currentColor;fill-opacity:1;stroke:none"
       id="flowRoot4036"
       xml:space="preserve"><flowRegion
         id="flowRegion4038"
         style="font-family:serif"><rect
           y="181.65089"
           x="572.13812"
           height="20.433504"
           width="49.470589"
           id="rect4040" /></flowRegion><flowPara
         id="flowPara4042"
         style="font-size:20px;line-height:1.25;font-family:serif"> </flowPara></flowRoot>
    <g
       id="g3838"
       transform="translate(-32.017736,0)">
      <path
         transform="translate(0,452.36218)"
         style="color:currentColor;fill: #F51515;fill-opacity:1;fill-rule:nonzero;stroke: #F51515;stroke-width:2;stroke-linecap:round;stroke-linejoin:round;stroke-miterlimit:4;stroke-opacity:1;stroke-dasharray:none;marker:none;visibility:visible;display:inline;overflow:visible;enable-background:accumulate" rx="5" ry="5"
         d="m 327,355.5 0,91.78125 c -15.18588,8.19279 -25.5,24.25368 -25.5,42.71875 0,26.78581 21.71419,48.5 48.5,48.5 26.78581,0 48.5,-21.71419 48.5,-48.5 0,-18.46507 -10.31412,-34.52596 -25.5,-42.71875 L 373,355.5 c 0,-5.13317 -46,-4.76022 -46,0 z"
         id="path3836" />
      <path
         id="path3063"
         transform="translate(0,452.36218)"
         d="m 350,132.5 c -12.742,0 -23,10.258 -23,23 l 0,291.78125 c -15.18588,8.19279 -25.5,24.25368 -25.5,42.71875 0,26.78581 21.71419,48.5 48.5,48.5 26.78581,0 48.5,-21.71419 48.5,-48.5 0,-18.46507 -10.31412,-34.52596 -25.5,-42.71875 L 373,155.5 c 0,-12.742 -10.258,-23 -23,-23 z"
         style="color:currentColor;fill:none;stroke:currentColor;stroke-width:6;stroke-linecap:round;stroke-linejoin:round;stroke-miterlimit:4;stroke-opacity:1;stroke-dasharray:none;marker:none;visibility:visible;display:inline;overflow:visible;enable-background:accumulate" />
    </g>
    <path
       style="color:currentColor;fill:none;stroke:currentColor;stroke-width:4;stroke-linecap:round;stroke-linejoin:round;stroke-miterlimit:4;stroke-opacity:1;stroke-dasharray:none;stroke-dashoffset:0;marker:none;visibility:visible;display:inline;overflow:visible;enable-background:accumulate"
       d="m 340.86322,850.36218 25.91532,0"
       id="path3842" />
    <path
       id="path3844"
       d="m 340.86322,750.36218 25.91532,0"
       style="color:currentColor;fill:none;stroke:currentColor;stroke-width:4;stroke-linecap:round;stroke-linejoin:round;stroke-miterlimit:4;stroke-opacity:1;stroke-dasharray:none;stroke-dashoffset:0;marker:none;visibility:visible;display:inline;overflow:visible;enable-background:accumulate" />
    <path
       style="color:currentColor;fill:none;stroke:currentColor;stroke-width:4;stroke-linecap:round;stroke-linejoin:round;stroke-miterlimit:4;stroke-opacity:1;stroke-dasharray:none;stroke-dashoffset:0;marker:none;visibility:visible;display:inline;overflow:visible;enable-background:accumulate"
       d="m 340.86322,650.36218 25.91532,0"
       id="path3846" />
    <path
       id="path3848"
       d="m 340.86322,700.36218 25.91532,0"
       style="color:currentColor;fill:none;stroke:currentColor;stroke-width:4;stroke-linecap:round;stroke-linejoin:round;stroke-miterlimit:4;stroke-opacity:1;stroke-dasharray:none;stroke-dashoffset:0;marker:none;visibility:visible;display:inline;overflow:visible;enable-background:accumulate" />
    <path
       style="color:currentColor;fill:none;stroke:currentColor;stroke-width:4;stroke-linecap:round;stroke-linejoin:round;stroke-miterlimit:4;stroke-opacity:1;stroke-dasharray:none;stroke-dashoffset:0;marker:none;visibility:visible;display:inline;overflow:visible;enable-background:accumulate"
       d="m 340.86322,800.36218 25.91532,0"
       id="path3850" />
    <path
       style="color:currentColor;fill:none;stroke:currentColor;stroke-width:2;stroke-linecap:round;stroke-linejoin:round;stroke-miterlimit:4;stroke-opacity:1;stroke-dasharray:none;stroke-dashoffset:0;marker:none;visibility:visible;display:inline;overflow:visible;enable-background:accumulate"
       d="m 340.57968,675.36218 18.56709,0"
       id="path3852" />
    <path
       id="path3856"
       d="m 340.57968,725.36218 18.56709,0"
       style="color:currentColor;fill:none;stroke:currentColor;stroke-width:2;stroke-linecap:round;stroke-linejoin:round;stroke-miterlimit:4;stroke-opacity:1;stroke-dasharray:none;stroke-dashoffset:0;marker:none;visibility:visible;display:inline;overflow:visible;enable-background:accumulate" />
    <path
       style="color:currentColor;fill:none;stroke:currentColor;stroke-width:2;stroke-linecap:round;stroke-linejoin:round;stroke-miterlimit:4;stroke-opacity:1;stroke-dasharray:none;stroke-dashoffset:0;marker:none;visibility:visible;display:inline;overflow:visible;enable-background:accumulate"
       d="m 340.57968,825.36218 18.56709,0"
       id="path3858" />
    <path
       id="path3860"
       d="m 340.57968,775.36218 18.56709,0"
       style="color:currentColor;fill:none;stroke:currentColor;stroke-width:2;stroke-linecap:round;stroke-linejoin:round;stroke-miterlimit:4;stroke-opacity:1;stroke-dasharray:none;stroke-dashoffset:0;marker:none;visibility:visible;display:inline;overflow:visible;enable-background:accumulate" />
    <path
       id="path3864"
       d="m 340.57968,625.36218 18.56709,0"
       style="color:currentColor;fill:none;stroke:currentColor;stroke-width:2;stroke-linecap:round;stroke-linejoin:round;stroke-miterlimit:4;stroke-opacity:1;stroke-dasharray:none;stroke-dashoffset:0;marker:none;visibility:visible;display:inline;overflow:visible;enable-background:accumulate" />
    <g
       id="g3873"
       style="stroke-width:8;stroke-miterlimit:4;stroke-dasharray:none;stroke:#5c3566"
       transform="matrix(0.64516129,0,0,0.64516129,102.90269,261.74142)">
      <path
         transform="translate(0,452.36218)"
         id="path3866"
         d="m 590,150 0,310"
         style="color:currentColor;fill:none;stroke:#5c3566;stroke-width:12.39999961999999911;stroke-linecap:round;stroke-linejoin:round;stroke-miterlimit:4;stroke-opacity:1;stroke-dasharray:none;stroke-dashoffset:0;marker:none;visibility:visible;display:inline;overflow:visible;enable-background:accumulate" />
      <path
         transform="translate(0,452.36218)"
         id="path3870"
         d="m 520,390 70,70 70,-70"
         style="color:currentColor;fill:none;stroke:#5c3566;stroke-width:12.39999961999999911;stroke-linecap:round;stroke-linejoin:round;stroke-miterlimit:4;stroke-opacity:1;stroke-dasharray:none;stroke-dashoffset:0;marker:none;visibility:visible;display:inline;overflow:visible;enable-background:accumulate" />
    </g>
  </g>
</svg>
