<?xml version="1.0" encoding="UTF-8" standalone="no"?>
<!-- Created with Inkscape (http://www.inkscape.org/) -->

<svg
   width="800"
   height="600"
   id="svg2"
   version="1.1"
   xmlns="http://www.w3.org/2000/svg"
   xmlns:svg="http://www.w3.org/2000/svg"
   xmlns:rdf="http://www.w3.org/1999/02/22-rdf-syntax-ns#"
   xmlns:cc="http://creativecommons.org/ns#"
   xmlns:dc="http://purl.org/dc/elements/1.1/">
  <defs
     id="defs4" />
  <metadata
     id="metadata7">
    <rdf:RDF>
      <cc:Work
         rdf:about="">
        <dc:format>image/svg+xml</dc:format>
        <dc:type
           rdf:resource="http://purl.org/dc/dcmitype/StillImage" />
        <dc:language>en</dc:language>
        <cc:license
           rdf:resource="https://timefold.ai/product/license/" />
      </cc:Work>
    </rdf:RDF>
  </metadata>
  <g
     id="layer1"
     transform="translate(0,-452.36218)">
    <path
       style="fill:currentColor;line-height:1.25;text-align:center;text-anchor:middle"
       d="m 328.26855,252.42716 v -22.72852 h -8.49023 v -3.04101 h 20.42578 v 3.04101 h -8.52539 v 22.72852 z m 23.22071,-2.30274 q -1.75781,1.49415 -3.39258,2.10938 -1.61719,0.61523 -3.48047,0.61523 -3.07617,0 -4.72851,-1.49414 -1.65235,-1.51172 -1.65235,-3.84961 0,-1.37109 0.61524,-2.49609 0.63281,-1.14258 1.63476,-1.82812 1.01953,-0.68555 2.28516,-1.03711 0.93164,-0.2461 2.8125,-0.47461 3.83203,-0.45703 5.64258,-1.08985 0.0176,-0.65039 0.0176,-0.82617 0,-1.93359 -0.89648,-2.72461 -1.21289,-1.07226 -3.60352,-1.07226 -2.23242,0 -3.30468,0.79101 -1.05469,0.77344 -1.56446,2.75977 l -3.09375,-0.42188 q 0.42188,-1.98633 1.38868,-3.19922 0.96679,-1.23047 2.79492,-1.88086 1.82812,-0.66796 4.23633,-0.66796 2.39062,0 3.88476,0.5625 1.49414,0.5625 2.19727,1.42382 0.70312,0.84375 0.98437,2.14453 0.1582,0.8086 0.1582,2.91797 v 4.21875 q 0,4.41211 0.19336,5.58985 0.21094,1.16015 0.8086,2.23242 h -3.30469 q -0.49219,-0.98438 -0.63281,-2.30274 z m -0.26367,-7.0664 q -1.72266,0.70312 -5.16797,1.19531 -1.95117,0.28125 -2.75977,0.63281 -0.80859,0.35157 -1.24805,1.03711 -0.43945,0.66797 -0.43945,1.49414 0,1.26563 0.94922,2.10938 0.9668,0.84375 2.8125,0.84375 1.82813,0 3.25195,-0.79102 1.42383,-0.80859 2.0918,-2.19726 0.50977,-1.07227 0.50977,-3.16407 z m 11.02148,9.36914 h -2.93555 v -25.76953 h 3.16407 v 9.19336 q 2.0039,-2.51367 5.11523,-2.51367 1.72266,0 3.25195,0.70312 1.54688,0.68555 2.53125,1.95117 1.00196,1.24805 1.56446,3.02344 0.5625,1.77539 0.5625,3.79687 0,4.79883 -2.37305,7.41797 -2.37305,2.61914 -5.69531,2.61914 -3.30469,0 -5.18555,-2.75976 z m -0.0352,-9.47461 q 0,3.35742 0.91407,4.85156 1.49414,2.44336 4.04297,2.44336 2.07421,0 3.58593,-1.79297 1.51172,-1.81054 1.51172,-5.3789 0,-3.65625 -1.45898,-5.39649 -1.44141,-1.74023 -3.49805,-1.74023 -2.07422,0 -3.58594,1.81054 -1.51172,1.79297 -1.51172,5.20313 z m 29.37305,9.47461 v -2.74219 q -2.17969,3.16406 -5.92383,3.16406 -1.65234,0 -3.09375,-0.63281 -1.42383,-0.63281 -2.12695,-1.58203 -0.68555,-0.9668 -0.9668,-2.35547 -0.19336,-0.93164 -0.19336,-2.95312 v -11.56641 h 3.16407 v 10.35352 q 0,2.47851 0.19336,3.33984 0.29882,1.24805 1.26562,1.96875 0.9668,0.70312 2.39063,0.70312 1.42382,0 2.67187,-0.7207 1.24805,-0.73828 1.75781,-1.98633 0.52735,-1.26562 0.52735,-3.65625 v -10.00195 h 3.16406 v 18.66797 z m 17.0332,-8.2793 3.2168,-0.28125 q 0.22852,1.9336 1.05469,3.18164 0.84375,1.23047 2.60156,2.00391 1.75781,0.75586 3.95508,0.75586 1.95117,0 3.44531,-0.58008 1.49414,-0.58008 2.21485,-1.58203 0.73828,-1.01953 0.73828,-2.21484 0,-1.2129 -0.70313,-2.10938 -0.70312,-0.91406 -2.32031,-1.5293 -1.03711,-0.40429 -4.58789,-1.24804 -3.55078,-0.86133 -4.97461,-1.61719 -1.8457,-0.9668 -2.75977,-2.39063 -0.89648,-1.4414 -0.89648,-3.21679 0,-1.95117 1.10742,-3.63867 1.10742,-1.70508 3.23438,-2.58399 2.12695,-0.87891 4.72851,-0.87891 2.86524,0 5.04492,0.93165 2.19727,0.91406 3.375,2.70703 1.17774,1.79297 1.26563,4.06054 l -3.26953,0.2461 q -0.26367,-2.44336 -1.79297,-3.69141 -1.51172,-1.24805 -4.48242,-1.24805 -3.09375,0 -4.51758,1.14258 -1.40625,1.125 -1.40625,2.72461 0,1.38867 1.00195,2.28516 0.98438,0.89648 5.13281,1.8457 4.16602,0.93164 5.71289,1.63477 2.25,1.03711 3.32227,2.63672 1.07227,1.58203 1.07227,3.65625 0,2.05664 -1.17774,3.88476 -1.17773,1.81055 -3.39258,2.83008 -2.19726,1.00195 -4.95703,1.00195 -3.49804,0 -5.87109,-1.01953 -2.35547,-1.01953 -3.70899,-3.05859 -1.33593,-2.05664 -1.40625,-4.64063 z m 37.54688,2.26758 3.26953,0.4043 q -0.77344,2.86523 -2.86523,4.44726 -2.0918,1.58203 -5.34375,1.58203 -4.09571,0 -6.50391,-2.51367 -2.39063,-2.53125 -2.39063,-7.08398 0,-4.71094 2.42579,-7.3125 2.42578,-2.60156 6.29296,-2.60156 3.74415,0 6.11719,2.54882 2.37305,2.54883 2.37305,7.17188 0,0.28125 -0.0176,0.84375 h -13.92187 q 0.17578,3.07617 1.74023,4.71094 1.56445,1.63476 3.90234,1.63476 1.74024,0 2.97071,-0.91406 1.23047,-0.91406 1.95117,-2.91797 z m -10.38867,-5.11523 h 10.42383 q -0.21094,-2.35547 -1.19532,-3.53321 -1.51172,-1.82812 -3.91992,-1.82812 -2.17969,0 -3.67383,1.45898 -1.47656,1.45899 -1.63476,3.90235 z m 29.8125,8.82421 q -1.75782,1.49415 -3.39258,2.10938 -1.61719,0.61523 -3.48047,0.61523 -3.07617,0 -4.72852,-1.49414 -1.65234,-1.51172 -1.65234,-3.84961 0,-1.37109 0.61524,-2.49609 0.63281,-1.14258 1.63476,-1.82812 1.01953,-0.68555 2.28516,-1.03711 0.93164,-0.2461 2.8125,-0.47461 3.83203,-0.45703 5.64258,-1.08985 0.0176,-0.65039 0.0176,-0.82617 0,-1.93359 -0.89648,-2.72461 -1.21289,-1.07226 -3.60352,-1.07226 -2.23242,0 -3.30468,0.79101 -1.05469,0.77344 -1.56446,2.75977 l -3.09375,-0.42188 q 0.42188,-1.98633 1.38867,-3.19922 0.9668,-1.23047 2.79493,-1.88086 1.82812,-0.66796 4.23632,-0.66796 2.39063,0 3.88477,0.5625 1.49414,0.5625 2.19727,1.42382 0.70312,0.84375 0.98437,2.14453 0.1582,0.8086 0.1582,2.91797 v 4.21875 q 0,4.41211 0.19336,5.58985 0.21094,1.16015 0.8086,2.23242 h -3.30469 q -0.49219,-0.98438 -0.63281,-2.30274 z m -0.26367,-7.0664 q -1.72266,0.70312 -5.16797,1.19531 -1.95118,0.28125 -2.75977,0.63281 -0.80859,0.35157 -1.24805,1.03711 -0.43945,0.66797 -0.43945,1.49414 0,1.26563 0.94922,2.10938 0.9668,0.84375 2.8125,0.84375 1.82812,0 3.25195,-0.79102 1.42383,-0.80859 2.0918,-2.19726 0.50977,-1.07227 0.50977,-3.16407 z m 8.06835,9.36914 v -18.66797 h 2.84766 v 2.83008 q 1.08984,-1.98633 2.00391,-2.61914 0.93164,-0.63281 2.03906,-0.63281 1.59961,0 3.25195,1.01953 l -1.08984,2.93554 q -1.16016,-0.68554 -2.32031,-0.68554 -1.03711,0 -1.86328,0.63281 -0.82618,0.61523 -1.17774,1.72266 -0.52734,1.6875 -0.52734,3.6914 v 9.77344 z m 24.20508,-6.83789 3.11133,0.4043 q -0.50976,3.21679 -2.61914,5.04492 -2.0918,1.81054 -5.15039,1.81054 -3.83203,0 -6.16992,-2.49609 -2.32031,-2.51367 -2.32031,-7.18945 0,-3.02344 1.00195,-5.29102 1.00195,-2.26758 3.04101,-3.39258 2.05664,-1.14257 4.46485,-1.14257 3.04101,0 4.97461,1.54687 1.93359,1.5293 2.47851,4.35938 l -3.07617,0.4746 q -0.43945,-1.88085 -1.56445,-2.83007 -1.10742,-0.94922 -2.68946,-0.94922 -2.39062,0 -3.88476,1.72265 -1.49414,1.70508 -1.49414,5.41407 0,3.76172 1.4414,5.46679 1.44141,1.70508 3.76172,1.70508 1.86328,0 3.11133,-1.14258 1.24805,-1.14257 1.58203,-3.51562 z m 5.81836,6.83789 v -25.76953 h 3.16406 v 9.24609 q 2.21485,-2.5664 5.58985,-2.5664 2.07422,0 3.60351,0.82617 1.5293,0.80859 2.17969,2.25 0.66797,1.4414 0.66797,4.18359 v 11.83008 h -3.16406 v -11.83008 q 0,-2.37305 -1.03711,-3.44531 -1.01953,-1.08985 -2.90039,-1.08985 -1.40625,0 -2.6543,0.73829 -1.23047,0.7207 -1.75781,1.96875 -0.52735,1.24804 -0.52735,3.44531 v 10.21289 z"
       id="flowRoot4302"
       transform="translate(-20,262.36198)"
       aria-label="Tabu Search" />
    <g
       id="g3709"
       transform="translate(0,19.999997)" />
    <flowRoot
       xml:space="preserve"
       id="flowRoot4157"
       style="font-style:normal;font-weight:normal;line-height:0.01%;font-family:sans-serif;letter-spacing:0px;word-spacing:0px;fill:currentColor;fill-opacity:1;stroke:none;stroke-width:1px;stroke-linecap:butt;stroke-linejoin:miter;stroke-opacity:1"><flowRegion
         id="flowRegion4159"
         style="font-family:sans-serif"><rect
           id="rect4161"
           width="10.955056"
           height="72.471909"
           x="16.011236"
           y="-53.932568" /></flowRegion><flowPara
         id="flowPara4163"
         style="font-size:40px;line-height:1.25;font-family:sans-serif"> </flowPara></flowRoot>
    <g
       id="g3942"
       style="stroke:#4e9a06" />
    <g
       id="g3990"
       transform="matrix(1,0,0,0.85082712,0,152.51658)">
      <path
         transform="translate(0,452.36218)"
         id="path3988"
         d="m 171.68695,567.33731 507.97611,1.68365 88.72433,-0.10222 1.61262,-466.82683 -159.14016,-1.11264 -109.90546,0.23684 -469.205695,0.8758 -0.0666,170.99197 0,23.19154 -1.682099,270.27077 z"
         style="color:currentColor;fill:#e9b96e;stroke:none;stroke-width:1px;marker:none;visibility:visible;display:inline;overflow:visible;enable-background:accumulate" />
      <g
         transform="matrix(1.1438143,0,0,1.3449842,-64.984426,-376.7621)"
         id="g3980">
        <path
           style="color:currentColor;fill:#bdef8b;fill-opacity:1;stroke:none;stroke-width:2;marker:none;visibility:visible;display:inline;overflow:visible;enable-background:accumulate"
           d="m 206.91416,1038.2736 c 11.07385,-71.52321 22.96652,-132.8915 17.79905,-148.18737 -5.6833,-16.82275 -24.61712,-58.91251 -73.41951,-58.96857 -40.16775,-0.0461 -48.39498,2.98961 -66.78127,5.62057 l -1.470605,200.94717 z"
           id="path3929" />
        <path
           id="path3971"
           d="m 590.86888,691.53493 c 6.69813,4.08722 11.52283,8.95734 13.64355,14.62616 9.21386,24.6292 -5.20562,54.9072 -30.31549,82.32917 -43.36076,47.35334 -97.00225,62.88865 -85.16253,106.45315 15.64747,57.57521 161.9869,144.58199 161.9869,144.58199 l 77.56883,-0.076 L 730,692.36218 z"
           style="color:currentColor;fill:#bdef8b;fill-opacity:1;stroke:none;stroke-width:2;marker:none;visibility:visible;display:inline;overflow:visible;enable-background:accumulate" />
        <path
           id="path3969"
           d="m 84.51243,819.49525 c 21.29063,-9.30958 61.01481,-9.71434 73.34158,-10.0855 48.92614,-1.47316 130.51885,42.95243 182.14599,42.95243 49.23109,0 127.29266,-50.92047 161.10167,-74.03389 10.94232,-7.48068 41.65316,-29.88964 35.8933,-64.57421 -2.51302,-15.13279 -23.43179,-22.53064 -42.21289,-22.04306 l -410.211428,0.65116 z"
           style="color:currentColor;fill:#bdef8b;fill-opacity:1;stroke:none;stroke-width:2;marker:none;visibility:visible;display:inline;overflow:visible;enable-background:accumulate" />
        <path
           style="color:currentColor;fill:none;stroke:currentColor;stroke-width:1.74812698;stroke-linecap:round;stroke-linejoin:round;stroke-miterlimit:4;stroke-opacity:1;stroke-dasharray:none;stroke-dashoffset:0;marker:none;visibility:visible;display:inline;overflow:visible;enable-background:accumulate"
           d="m 84.51243,819.49525 c 21.29063,-9.30958 61.01481,-9.71434 73.34158,-10.0855 48.92614,-1.47316 130.51885,42.95243 182.14599,42.95243 49.23109,0 127.29266,-50.92047 161.10167,-74.03389 10.94232,-7.48068 41.65316,-29.88964 35.8933,-64.57421 -2.51302,-15.13279 -23.43179,-22.53064 -42.21289,-22.04306"
           id="path3931" />
        <path
           style="color:currentColor;fill:none;stroke:currentColor;stroke-width:1.74812698;stroke-linecap:round;stroke-linejoin:round;stroke-miterlimit:4;stroke-opacity:1;stroke-dasharray:none;stroke-dashoffset:0;marker:none;visibility:visible;display:inline;overflow:visible;enable-background:accumulate"
           d="m 590.86888,691.53493 c 6.69813,4.08722 11.52283,8.95734 13.64355,14.62616 9.21386,24.6292 -5.20562,54.9072 -30.31549,82.32917 -43.36076,47.35334 -97.00225,62.88865 -85.16253,106.45315 15.64747,57.57521 161.9869,144.58199 161.9869,144.58199"
           id="path3933" />
        <path
           id="path3967"
           d="m 206.91416,1038.2736 c 11.07385,-71.52321 22.96652,-132.8915 17.79905,-148.18737 -5.6833,-16.82275 -24.61712,-58.91251 -73.41951,-58.96857 -40.16775,-0.0461 -48.39498,2.98961 -66.78127,5.62057"
           style="color:currentColor;fill:none;stroke:currentColor;stroke-width:1.74812698;stroke-linecap:round;stroke-linejoin:round;stroke-miterlimit:4;stroke-opacity:1;stroke-dasharray:none;stroke-dashoffset:0;marker:none;visibility:visible;display:inline;overflow:visible;enable-background:accumulate" />
      </g>
    </g>
    <g
       id="g3906"
       transform="matrix(0.65894615,0,0,0.56064926,74.184994,228.99977)"
       style="fill:#729fcf">
      <rect
         transform="translate(0,452.36218)"
         y="400"
         x="500"
         height="120"
         width="20"
         id="rect3904"
         style="color:currentColor;fill: #4F625F;fill-opacity:1;fill-rule:nonzero;stroke: #4F625F;stroke-width:4.93572187;stroke-linecap:round;stroke-linejoin:round;stroke-miterlimit:4;stroke-opacity:1;stroke-dasharray:none;marker:none;visibility:visible;display:inline;overflow:visible;enable-background:accumulate" /> rx="5" ry="5"
      <path
         id="rect3901"
         d="m 170.64357,899.03137 220,0 18.05036,28.76497 -20.15338,28.2178 -217.89698,13.01723 z"
         style="color:currentColor;fill: #4F625F;fill-opacity:1;fill-rule:nonzero;stroke: #4F625F;stroke-width:4.93572187;stroke-linecap:round;stroke-linejoin:round;stroke-miterlimit:4;stroke-opacity:1;marker:none;visibility:visible;display:inline;overflow:visible;enable-background:accumulate" rx="5" ry="5"
         transform="matrix(0.96979412,-0.2439249,0.2439249,0.96979412,0,0)" />
    </g>
    <g
       style="fill:#729fcf"
       transform="matrix(-0.65894615,0,0,0.56064926,568.03846,235.80648)"
       id="g4000">
      <rect
         style="color:currentColor;fill: #4F625F;fill-opacity:1;fill-rule:nonzero;stroke: #4F625F;stroke-width:4.93572187;stroke-linecap:round;stroke-linejoin:round;stroke-miterlimit:4;stroke-opacity:1;stroke-dasharray:none;marker:none;visibility:visible;display:inline;overflow:visible;enable-background:accumulate" rx="5" ry="5"
         id="rect4002"
         width="20"
         height="120"
         x="500"
         y="400"
         transform="translate(0,452.36218)" />
      <path
         transform="matrix(0.96979412,-0.2439249,0.2439249,0.96979412,0,0)"
         style="color:currentColor;fill: #4F625F;fill-opacity:1;fill-rule:nonzero;stroke: #4F625F;stroke-width:4.93572187;stroke-linecap:round;stroke-linejoin:round;stroke-miterlimit:4;stroke-opacity:1;marker:none;visibility:visible;display:inline;overflow:visible;enable-background:accumulate" rx="5" ry="5"
         d="m 170.64357,899.03137 220,0 18.05036,28.76497 -20.15338,28.2178 -217.89698,13.01723 z"
         id="path4004" />
    </g>
    <path
       style="fill:currentColor;line-height:1.25;letter-spacing:0px;word-spacing:0px"
       d="m 340.76953,171.14527 3.59375,-8.73047 h 5.39063 v 0.36133 h -0.42969 q -0.58594,0 -0.9375,0.20508 -0.24414,0.13672 -0.39063,0.45899 -0.10742,0.23437 -0.10742,1.2207 v 8.73047 q 0,1.01562 0.10742,1.26953 0.10743,0.2539 0.43946,0.44922 0.33203,0.18554 0.88867,0.18554 h 0.42969 v 0.36133 h -6.91407 v -0.36133 h 0.42969 q 0.58594,0 0.9375,-0.20507 0.24414,-0.13672 0.39063,-0.46875 0.10742,-0.23438 0.10742,-1.23047 v -9.81446 l -5.07813,12.08008 h -0.23437 l -5.15625,-11.99219 v 9.32618 q 0,0.97656 0.0488,1.20117 0.12695,0.48828 0.54687,0.80078 0.42969,0.30273 1.33789,0.30273 v 0.36133 h -4.53125 v -0.36133 h 0.13672 q 0.43945,0.01 0.82031,-0.13671 0.38086,-0.15625 0.57617,-0.41016 0.19532,-0.25391 0.30274,-0.71289 0.0195,-0.10742 0.0195,-0.9961 v -8.3789 q 0,-1.00586 -0.10742,-1.25 -0.10742,-0.25391 -0.43945,-0.43945 -0.33204,-0.19532 -0.88868,-0.19532 h -0.41992 v -0.36133 h 5.41016 z m 13.64258,-7.95898 v 3.33984 h 2.16797 v 0.9668 h -2.16797 v 5.63477 q 0,0.79101 0.0684,1.02539 0.0781,0.22461 0.26367,0.37109 0.18555,0.13672 0.3418,0.13672 0.63476,0 1.20117,-0.9668 l 0.29297,0.21485 q -0.79102,1.875 -2.56836,1.875 -0.86914,0 -1.47461,-0.47852 -0.5957,-0.48828 -0.76172,-1.08398 -0.0977,-0.33204 -0.0977,-1.79688 v -4.93164 h -1.1914 v -0.3418 q 1.23047,-0.86914 2.08984,-1.82617 0.86914,-0.95703 1.51367,-2.13867 z m 12.8125,-0.01 v 5.39063 h 0.26367 q 1.25977,0 1.82617,-0.79102 0.56641,-0.79101 0.72266,-2.33398 h 0.37109 v 6.93359 h -0.37109 q -0.11719,-1.13281 -0.49805,-1.85547 -0.37109,-0.72265 -0.86914,-0.96679 -0.49805,-0.25391 -1.44531,-0.25391 v 3.73047 q 0,1.09375 0.0879,1.33789 0.0977,0.24414 0.35156,0.40039 0.25391,0.15625 0.82031,0.15625 h 0.79102 q 1.85547,0 2.96875,-0.85937 1.12305,-0.85938 1.61133,-2.61719 h 0.36133 l -0.59571,4.20898 h -11.44531 v -0.36133 h 0.43945 q 0.57618,0 0.92774,-0.20507 0.2539,-0.13672 0.39062,-0.46875 0.10743,-0.23438 0.10743,-1.23047 v -8.71094 q 0,-0.89844 -0.0488,-1.10352 -0.0977,-0.34179 -0.36133,-0.52734 -0.37109,-0.27344 -1.01563,-0.27344 h -0.43945 v -0.36133 h 11.08399 v 3.91602 h -0.3711 q -0.2832,-1.43555 -0.80078,-2.06055 -0.50781,-0.625 -1.44531,-0.91797 -0.54688,-0.17578 -2.05078,-0.17578 z m 12.68555,12.75391 -3.07618,-7.08008 q -0.55664,-1.2793 -0.86914,-1.62109 -0.22461,-0.25391 -0.66406,-0.3418 v -0.36133 h 4.85352 v 0.36133 q -0.45899,0 -0.625,0.16602 -0.23438,0.21484 -0.23438,0.50781 0,0.36133 0.42969,1.35742 l 1.50391,3.42774 1.20117,-2.95899 q 0.51758,-1.26953 0.51758,-1.79687 0,-0.30274 -0.22461,-0.48829 -0.21485,-0.19531 -0.77149,-0.21484 v -0.36133 h 2.98828 v 0.36133 q -0.42968,0.0586 -0.70312,0.32227 -0.27344,0.26367 -0.82031,1.55273 l -3.04688,7.16797 z m 13.61328,-5.16602 h -5.00977 q 0.0879,1.81641 0.9668,2.8711 0.67383,0.81054 1.62109,0.81054 0.58594,0 1.06446,-0.32226 0.47851,-0.33203 1.02539,-1.18164 l 0.33203,0.21484 q -0.74219,1.51367 -1.64063,2.14844 -0.89844,0.625 -2.08008,0.625 -2.03125,0 -3.07617,-1.5625 -0.83984,-1.25977 -0.83984,-3.125 0,-2.28516 1.23047,-3.63281 1.24023,-1.35742 2.90039,-1.35742 1.38672,0 2.40234,1.14257 1.02539,1.13282 1.10352,3.36914 z m -2.40235,-0.65429 q 0,-1.57227 -0.17578,-2.15821 -0.16601,-0.58593 -0.52734,-0.88867 -0.20508,-0.17578 -0.54688,-0.17578 -0.50781,0 -0.83007,0.49805 -0.57618,0.86914 -0.57618,2.38281 v 0.3418 z m 7.33399,-3.58399 v 2.07032 q 0.9082,-1.41602 1.59179,-1.875 0.6836,-0.46875 1.31836,-0.46875 0.54688,0 0.86914,0.34179 0.33204,0.33203 0.33204,0.94727 0,0.65429 -0.32227,1.01562 -0.3125,0.36133 -0.76172,0.36133 -0.51758,0 -0.89844,-0.33203 -0.38086,-0.33203 -0.44921,-0.37109 -0.0977,-0.0586 -0.22461,-0.0586 -0.28321,0 -0.53711,0.21485 -0.40039,0.33203 -0.60547,0.94726 -0.3125,0.94727 -0.3125,2.08985 v 2.0996 l 0.01,0.54688 q 0,0.55664 0.0684,0.71289 0.11719,0.26367 0.3418,0.39063 0.23437,0.11718 0.78125,0.14648 v 0.35156 h -4.93164 v -0.35156 q 0.5957,-0.0488 0.80078,-0.32227 0.21484,-0.2832 0.21484,-1.47461 v -5.04882 q 0,-0.78125 -0.0781,-0.9961 -0.0977,-0.27343 -0.2832,-0.40039 -0.18555,-0.12695 -0.6543,-0.17578 v -0.36133 z m 12.46094,4.23828 h -5.00977 q 0.0879,1.81641 0.9668,2.8711 0.67382,0.81054 1.62109,0.81054 0.58594,0 1.06445,-0.32226 0.47852,-0.33203 1.02539,-1.18164 l 0.33204,0.21484 q -0.74219,1.51367 -1.64063,2.14844 -0.89844,0.625 -2.08008,0.625 -2.03125,0 -3.07617,-1.5625 -0.83984,-1.25977 -0.83984,-3.125 0,-2.28516 1.23047,-3.63281 1.24023,-1.35742 2.90039,-1.35742 1.38671,0 2.40234,1.14257 1.02539,1.13282 1.10352,3.36914 z m -2.40235,-0.65429 q 0,-1.57227 -0.17578,-2.15821 -0.16602,-0.58593 -0.52734,-0.88867 -0.20508,-0.17578 -0.54688,-0.17578 -0.50781,0 -0.83008,0.49805 -0.57617,0.86914 -0.57617,2.38281 v 0.3418 z m 9.31641,-3.83789 0.14648,3.11523 h -0.33203 q -0.5957,-1.38672 -1.24023,-1.89453 -0.63477,-0.50781 -1.26953,-0.50781 -0.4004,0 -0.6836,0.27343 -0.2832,0.26368 -0.2832,0.61524 0,0.26367 0.19531,0.50781 0.3125,0.40039 1.74805,1.37695 1.43554,0.9668 1.88476,1.6504 0.45899,0.67382 0.45899,1.51367 0,0.76172 -0.38086,1.49414 -0.38086,0.73242 -1.07422,1.12304 -0.69336,0.39063 -1.5332,0.39063 -0.6543,0 -1.74805,-0.41016 -0.29297,-0.10742 -0.40039,-0.10742 -0.32227,0 -0.53711,0.48828 h -0.32227 l -0.15625,-3.28125 h 0.33204 q 0.43945,1.28907 1.20117,1.9336 0.77148,0.64453 1.45508,0.64453 0.46875,0 0.76171,-0.28321 0.30274,-0.29296 0.30274,-0.70312 0,-0.46875 -0.29297,-0.81055 -0.29297,-0.34179 -1.30859,-1.03515 -1.49414,-1.03516 -1.9336,-1.58203 -0.64453,-0.80079 -0.64453,-1.76758 0,-1.05469 0.72266,-1.9043 0.73242,-0.85937 2.10937,-0.85937 0.74219,0 1.43555,0.36132 0.26367,0.14649 0.42969,0.14649 0.17578,0 0.2832,-0.0684 0.10742,-0.0781 0.3418,-0.41992 z m 5.63476,-3.08594 v 3.33984 h 2.16797 v 0.9668 h -2.16797 v 5.63477 q 0,0.79101 0.0684,1.02539 0.0781,0.22461 0.26367,0.37109 0.18555,0.13672 0.3418,0.13672 0.63477,0 1.20117,-0.9668 l 0.29297,0.21485 q -0.79101,1.875 -2.56836,1.875 -0.86914,0 -1.47461,-0.47852 -0.5957,-0.48828 -0.76172,-1.08398 -0.0976,-0.33204 -0.0976,-1.79688 v -4.93164 h -1.19141 v -0.3418 q 1.23047,-0.86914 2.08985,-1.82617 0.86914,-0.95703 1.51367,-2.13867 z"
       id="flowRoot4018"
       transform="matrix(0.96003675,0.23812436,-0.27987396,0.81682531,-94.132376,469.43252)"
       aria-label="Mt Everest" />
    <path
       style="fill:currentColor;line-height:1.25;letter-spacing:0px;word-spacing:0px"
       d="m 343.86523,171.00855 -0.49804,4.64844 h -11.75782 v -0.36133 h 0.43946 q 0.57617,0 0.92773,-0.20507 0.25391,-0.13672 0.39063,-0.46875 0.10742,-0.23438 0.10742,-1.23047 v -8.71094 q 0,-1.01563 -0.10742,-1.26953 -0.10742,-0.25391 -0.43946,-0.43945 -0.32226,-0.19532 -0.8789,-0.19532 h -0.43946 v -0.36133 h 7.06055 v 0.36133 h -0.57617 q -0.57617,0 -0.92773,0.20508 -0.25391,0.13672 -0.4004,0.46875 -0.10742,0.23438 -0.10742,1.23047 v 8.4375 q 0,1.01562 0.11719,1.29883 0.11719,0.27344 0.45898,0.41015 0.24415,0.0879 1.18165,0.0879 h 1.10351 q 1.05469,0 1.75781,-0.37109 0.70313,-0.37109 1.21094,-1.17187 0.51758,-0.80079 0.97656,-2.36329 z m 5.11719,-8.59375 v 5.28321 q 0.75195,-0.79102 1.37695,-1.11328 0.625,-0.33203 1.29883,-0.33203 0.85938,0 1.46485,0.48828 0.61523,0.48828 0.81054,1.15234 0.20508,0.6543 0.20508,2.2168 v 3.56445 q 0,1.04492 0.19531,1.30859 0.19532,0.25391 0.79102,0.32227 v 0.35156 h -4.62891 v -0.35156 q 0.48828,-0.0684 0.73243,-0.39063 0.17578,-0.2539 0.17578,-1.24023 v -4.07227 q 0,-1.13281 -0.0879,-1.41601 -0.0879,-0.29297 -0.30274,-0.44922 -0.20508,-0.16602 -0.46875,-0.16602 -0.39062,0 -0.76172,0.27344 -0.37109,0.26367 -0.80078,0.9375 v 4.89258 q 0,0.97656 0.14649,1.2207 0.18554,0.33203 0.76171,0.41016 v 0.35156 h -4.6289 v -0.35156 q 0.57617,-0.0586 0.82031,-0.37109 0.16602,-0.21485 0.16602,-1.25977 v -9.27734 q 0,-1.03516 -0.19532,-1.28907 -0.18554,-0.2539 -0.79101,-0.33203 v -0.36133 z m 11.69922,3.8379 q 1.19141,0 2.2168,0.61523 1.02539,0.61523 1.55273,1.74805 0.53711,1.13281 0.53711,2.48047 0,1.94335 -0.98633,3.25195 -1.1914,1.58203 -3.29101,1.58203 -2.06055,0 -3.17383,-1.44531 -1.11328,-1.44532 -1.11328,-3.34961 0,-1.96289 1.13281,-3.41797 1.14258,-1.46484 3.125,-1.46484 z m 0.0391,0.69335 q -0.49804,0 -0.85937,0.38086 -0.35156,0.3711 -0.46875,1.48438 -0.10742,1.10351 -0.10742,3.07617 0,1.04492 0.13671,1.95313 0.10743,0.69336 0.45899,1.05468 0.35156,0.36133 0.80078,0.36133 0.43945,0 0.73242,-0.24414 0.38086,-0.33203 0.50781,-0.92773 0.19532,-0.92774 0.19532,-3.75 0,-1.66016 -0.18555,-2.27539 -0.18555,-0.625 -0.54687,-0.90821 -0.25391,-0.20508 -0.66407,-0.20508 z m 9.27735,-3.75976 v 3.33984 h 2.16797 v 0.9668 h -2.16797 v 5.63477 q 0,0.79101 0.0684,1.02539 0.0781,0.22461 0.26367,0.37109 0.18554,0.13672 0.34179,0.13672 0.63477,0 1.20118,-0.9668 l 0.29297,0.21485 q -0.79102,1.875 -2.56836,1.875 -0.86914,0 -1.47461,-0.47852 -0.59571,-0.48828 -0.76172,-1.08398 -0.0977,-0.33204 -0.0977,-1.79688 v -4.93164 h -1.1914 v -0.3418 q 1.23046,-0.86914 2.08984,-1.82617 0.86914,-0.95703 1.51367,-2.13867 z m 8.80859,3.08594 0.14648,3.11523 h -0.33203 q -0.5957,-1.38672 -1.24023,-1.89453 -0.63477,-0.50781 -1.26953,-0.50781 -0.40039,0 -0.6836,0.27343 -0.2832,0.26368 -0.2832,0.61524 0,0.26367 0.19531,0.50781 0.3125,0.40039 1.74805,1.37695 1.43555,0.9668 1.88477,1.6504 0.45898,0.67382 0.45898,1.51367 0,0.76172 -0.38086,1.49414 -0.38086,0.73242 -1.07422,1.12304 -0.69336,0.39063 -1.5332,0.39063 -0.6543,0 -1.74805,-0.41016 -0.29297,-0.10742 -0.40039,-0.10742 -0.32226,0 -0.53711,0.48828 h -0.32226 l -0.15625,-3.28125 h 0.33203 q 0.43945,1.28907 1.20117,1.9336 0.77148,0.64453 1.45508,0.64453 0.46875,0 0.76172,-0.28321 0.30273,-0.29296 0.30273,-0.70312 0,-0.46875 -0.29297,-0.81055 -0.29297,-0.34179 -1.30859,-1.03515 -1.49414,-1.03516 -1.9336,-1.58203 -0.64453,-0.80079 -0.64453,-1.76758 0,-1.05469 0.72266,-1.9043 0.73242,-0.85937 2.10937,-0.85937 0.74219,0 1.43555,0.36132 0.26367,0.14649 0.42969,0.14649 0.17578,0 0.2832,-0.0684 0.10742,-0.0781 0.3418,-0.41992 z m 9.74609,4.49218 h -5.00976 q 0.0879,1.81641 0.9668,2.8711 0.67382,0.81054 1.62109,0.81054 0.58594,0 1.06445,-0.32226 0.47852,-0.33203 1.02539,-1.18164 l 0.33203,0.21484 q -0.74218,1.51367 -1.64062,2.14844 -0.89844,0.625 -2.08008,0.625 -2.03125,0 -3.07617,-1.5625 -0.83984,-1.25977 -0.83984,-3.125 0,-2.28516 1.23046,-3.63281 1.24024,-1.35742 2.90039,-1.35742 1.38672,0 2.40235,1.14257 1.02539,1.13282 1.10351,3.36914 z m -2.40234,-0.65429 q 0,-1.57227 -0.17578,-2.15821 -0.16602,-0.58593 -0.52734,-0.88867 -0.20508,-0.17578 -0.54688,-0.17578 -0.50781,0 -0.83008,0.49805 -0.57617,0.86914 -0.57617,2.38281 v 0.3418 z"
       id="flowRoot4026"
       transform="matrix(0.96166913,-0.23330741,0.27421248,0.81821418,5.1873129,641.48356)"
       aria-label="Lhotse" />
    <g
       transform="translate(11.371878,-32.652)"
       id="g4044">
      <path
         id="path3119"
         d="m 330,141.5 c -137.24276,0 -248.5,21.71419 -248.5,48.5 0,11.52749 20.6477,22.11513 55.0625,30.4375 C 131.9339,235.61438 122.8614,248.69737 110,260 132.76051,253.63054 149.43709,241.85761 161.03125,225.5625 205.37301,233.59353 264.73596,238.5 330,238.5 c 137.24275,0 248.5,-21.71419 248.5,-48.5 0,-26.78581 -111.25725,-48.5 -248.5,-48.5 z"
         style="color:currentColor;fill:#ffffff;fill-opacity:1;fill-rule:nonzero;stroke: currentColor;stroke-width:3;stroke-linecap:round;stroke-linejoin:round;stroke-miterlimit:4;stroke-opacity:1;marker:none;visibility:visible;display:inline;overflow:visible;enable-background:accumulate" rx="5" ry="5"
         transform="translate(0,452.36218)" />
      <g
         id="flowRoot3889"
         style="line-height:0.01%;font-family:serif;-inkscape-font-specification:Serif;text-align:center;letter-spacing:0px;word-spacing:0px;text-anchor:middle"
         transform="translate(0,486.34727)"
         aria-label="I've already been to mount Lhotse,&#10;that's taboo for now.">
        <path
           style="fill:white;line-height:1.25"
           d="m 183.15283,147.79817 v 0.39746 h -6.24121 v -0.39746 h 0.51563 q 0.90234,0 1.31054,-0.52637 0.25782,-0.34375 0.25782,-1.6543 v -9.41015 q 0,-1.10645 -0.13965,-1.46094 -0.10742,-0.26856 -0.44043,-0.46192 -0.47266,-0.25781 -0.98828,-0.25781 h -0.51563 v -0.39746 h 6.24121 v 0.39746 h -0.52637 q -0.8916,0 -1.2998,0.52637 -0.26855,0.34375 -0.26855,1.6543 v 9.41015 q 0,1.10645 0.13964,1.46094 0.10743,0.26855 0.45118,0.46191 0.46191,0.25782 0.97753,0.25782 z m 2.23438,-8.22852 -0.58008,-3.17969 q -0.24707,-1.32129 -0.24707,-1.7832 0,-0.6875 0.2793,-0.99902 0.27929,-0.31153 0.76269,-0.31153 0.4834,0 0.79492,0.32227 0.32227,0.31152 0.32227,0.82715 0,0.39746 -0.2793,1.95508 l -0.58008,3.16894 z m 2.44922,-1.21387 h 4.62988 v 0.39746 h -0.30078 q -0.41895,0 -0.64453,0.20411 -0.21485,0.2041 -0.21485,0.54785 0,0.37597 0.22559,0.8916 l 2.28808,5.43555 2.29883,-5.63965 q 0.24707,-0.60157 0.24707,-0.91309 0,-0.15039 -0.0859,-0.24707 -0.11817,-0.16113 -0.30079,-0.21484 -0.18261,-0.0645 -0.74121,-0.0645 v -0.39746 h 3.21192 v 0.39746 q -0.5586,0.043 -0.77344,0.22559 -0.37598,0.32227 -0.67676,1.07422 l -3.49121,8.44336 h -0.44043 l -3.51269,-8.30371 q -0.23633,-0.58008 -0.45118,-0.82715 -0.21484,-0.25781 -0.54785,-0.42969 -0.18261,-0.0967 -0.71972,-0.18262 z m 13.15918,3.70606 q -0.0108,2.1914 1.06347,3.4375 1.07422,1.24609 2.52442,1.24609 0.96679,0 1.67578,-0.52637 0.71972,-0.5371 1.20312,-1.82617 l 0.33301,0.21485 q -0.22559,1.47168 -1.31055,2.68554 -1.08496,1.20313 -2.71777,1.20313 -1.77246,0 -3.04004,-1.375 -1.25684,-1.38574 -1.25684,-3.7168 0,-2.52441 1.28907,-3.93164 1.2998,-1.41797 3.25488,-1.41797 1.6543,0 2.71777,1.09571 1.06348,1.08496 1.06348,2.91113 z m 0,-0.62305 h 4.55468 q -0.0537,-0.94531 -0.22558,-1.33203 -0.26856,-0.60156 -0.80567,-0.94531 -0.52636,-0.34375 -1.10644,-0.34375 -0.8916,0 -1.60059,0.69824 -0.69824,0.6875 -0.8164,1.92285 z m 19.18554,5.33887 q -1.51465,1.1709 -1.90136,1.35351 -0.58008,0.26856 -1.23536,0.26856 -1.0205,0 -1.68652,-0.69824 -0.65527,-0.69825 -0.65527,-1.83692 0,-0.71972 0.32226,-1.24609 0.44043,-0.73047 1.52539,-1.375 1.09571,-0.64453 3.63086,-1.56836 v -0.38672 q 0,-1.47168 -0.47265,-2.01953 -0.46192,-0.54785 -1.35352,-0.54785 -0.67676,0 -1.07422,0.36523 -0.4082,0.36524 -0.4082,0.83789 l 0.0215,0.62305 q 0,0.49414 -0.25781,0.76269 -0.24707,0.26856 -0.65527,0.26856 -0.39746,0 -0.65528,-0.2793 -0.24707,-0.27929 -0.24707,-0.76269 0,-0.92383 0.94532,-1.69727 0.94531,-0.77344 2.65332,-0.77344 1.31054,0 2.14843,0.44043 0.63379,0.33301 0.93457,1.042 0.19336,0.46191 0.19336,1.89062 v 3.34082 q 0,1.40723 0.0537,1.72949 0.0537,0.31153 0.17188,0.41895 0.12891,0.10742 0.29004,0.10742 0.17187,0 0.30078,-0.0752 0.22559,-0.13965 0.87012,-0.78418 v 0.60156 q -1.20313,1.61133 -2.29883,1.61133 -0.52637,0 -0.83789,-0.36524 -0.31153,-0.36523 -0.32227,-1.24609 z m 0,-0.69824 v -3.74903 q -1.62207,0.64453 -2.09472,0.91309 -0.84864,0.47265 -1.21387,0.98828 -0.36524,0.51562 -0.36524,1.12793 0,0.77344 0.46192,1.28906 0.46191,0.50488 1.06347,0.50488 0.81641,0 2.14844,-1.07421 z m 7.57324,-13.15918 v 13.05175 q 0,0.92383 0.12891,1.22461 0.13965,0.30078 0.41895,0.46192 0.27929,0.15039 1.04199,0.15039 v 0.38672 H 224.521 v -0.38672 q 0.67675,0 0.92382,-0.13965 0.24707,-0.13965 0.38672,-0.46191 0.13965,-0.32227 0.13965,-1.23536 v -8.9375 q 0,-1.66503 -0.0752,-2.04101 -0.0752,-0.38672 -0.24707,-0.52637 -0.16114,-0.13965 -0.41895,-0.13965 -0.2793,0 -0.70898,0.17188 l -0.18262,-0.37598 2.93262,-1.20312 z m 5.60743,5.1455 v 2.21289 q 1.23535,-2.21289 2.53515,-2.21289 0.59082,0 0.97754,0.36524 0.38672,0.35449 0.38672,0.82715 0,0.41894 -0.2793,0.70898 -0.27929,0.29004 -0.66601,0.29004 -0.37598,0 -0.84863,-0.36523 -0.46192,-0.37598 -0.6875,-0.37598 -0.19336,0 -0.41895,0.21484 -0.4834,0.44043 -0.99902,1.4502 v 4.71582 q 0,0.81641 0.2041,1.23535 0.13965,0.29004 0.49414,0.4834 0.35449,0.19336 1.02051,0.19336 v 0.38672 h -5.03809 v -0.38672 q 0.75195,0 1.11719,-0.23633 0.26855,-0.17187 0.37597,-0.54785 0.0537,-0.18262 0.0537,-1.04199 v -3.81348 q 0,-1.71875 -0.0752,-2.04102 -0.0644,-0.333 -0.25781,-0.48339 -0.18262,-0.15039 -0.46192,-0.15039 -0.333,0 -0.75195,0.16113 l -0.10742,-0.38672 2.97558,-1.20313 z m 6.10156,3.9961 q -0.0107,2.1914 1.06348,3.4375 1.07421,1.24609 2.52441,1.24609 0.9668,0 1.67578,-0.52637 0.71973,-0.5371 1.20313,-1.82617 l 0.333,0.21485 q -0.22558,1.47168 -1.31054,2.68554 -1.08496,1.20313 -2.71778,1.20313 -1.77246,0 -3.04004,-1.375 -1.25683,-1.38574 -1.25683,-3.7168 0,-2.52441 1.28906,-3.93164 1.29981,-1.41797 3.25488,-1.41797 1.6543,0 2.71778,1.09571 1.06347,1.08496 1.06347,2.91113 z m 0,-0.62305 h 4.55469 q -0.0537,-0.94531 -0.22559,-1.33203 -0.26855,-0.60156 -0.80566,-0.94531 -0.52637,-0.34375 -1.10645,-0.34375 -0.8916,0 -1.60058,0.69824 -0.69825,0.6875 -0.81641,1.92285 z m 13.68555,5.33887 q -1.51465,1.1709 -1.90137,1.35351 -0.58008,0.26856 -1.23535,0.26856 -1.02051,0 -1.68653,-0.69824 -0.65527,-0.69825 -0.65527,-1.83692 0,-0.71972 0.32227,-1.24609 0.44043,-0.73047 1.52539,-1.375 1.0957,-0.64453 3.63086,-1.56836 v -0.38672 q 0,-1.47168 -0.47266,-2.01953 -0.46191,-0.54785 -1.35352,-0.54785 -0.67675,0 -1.07421,0.36523 -0.40821,0.36524 -0.40821,0.83789 l 0.0215,0.62305 q 0,0.49414 -0.25782,0.76269 -0.24707,0.26856 -0.65527,0.26856 -0.39746,0 -0.65527,-0.2793 -0.24707,-0.27929 -0.24707,-0.76269 0,-0.92383 0.94531,-1.69727 0.94531,-0.77344 2.65332,-0.77344 1.31055,0 2.14844,0.44043 0.63379,0.33301 0.93457,1.042 0.19336,0.46191 0.19336,1.89062 v 3.34082 q 0,1.40723 0.0537,1.72949 0.0537,0.31153 0.17187,0.41895 0.12891,0.10742 0.29004,0.10742 0.17188,0 0.30078,-0.0752 0.22559,-0.13965 0.87012,-0.78418 v 0.60156 q -1.20312,1.61133 -2.29883,1.61133 -0.52637,0 -0.83789,-0.36524 -0.31152,-0.36523 -0.32226,-1.24609 z m 0,-0.69824 v -3.74903 q -1.62207,0.64453 -2.09473,0.91309 -0.84863,0.47265 -1.21387,0.98828 -0.36523,0.51562 -0.36523,1.12793 0,0.77344 0.46191,1.28906 0.46192,0.50488 1.06348,0.50488 0.8164,0 2.14844,-1.07421 z m 11.13964,1.00976 q -0.71972,0.75195 -1.40722,1.08496 -0.6875,0.32227 -1.48242,0.32227 -1.61133,0 -2.81446,-1.34278 -1.20312,-1.35351 -1.20312,-3.46972 0,-2.11621 1.33203,-3.86719 1.33203,-1.76172 3.42676,-1.76172 1.2998,0 2.14843,0.82715 v -1.81543 q 0,-1.68652 -0.0859,-2.07324 -0.0752,-0.38672 -0.24707,-0.52637 -0.17188,-0.13965 -0.42969,-0.13965 -0.2793,0 -0.74121,0.17188 l -0.13965,-0.37598 2.93262,-1.20312 h 0.4834 v 11.37597 q 0,1.7295 0.0752,2.11621 0.0859,0.37598 0.25781,0.52637 0.18262,0.15039 0.41895,0.15039 0.29004,0 0.77344,-0.18262 l 0.11816,0.37598 -2.92188,1.21387 h -0.49414 z m 0,-0.75195 v -5.07031 q -0.0644,-0.73047 -0.38671,-1.33204 -0.32227,-0.60156 -0.85938,-0.90234 -0.52637,-0.31152 -1.03125,-0.31152 -0.94531,0 -1.68652,0.84863 -0.97754,1.11719 -0.97754,3.26563 0,2.16992 0.94531,3.33007 0.94531,1.14942 2.10547,1.14942 0.97754,0 1.89062,-0.97754 z m 3.49122,-7.98145 h 4.58691 v 0.39746 h -0.22559 q -0.4834,0 -0.73047,0.21485 -0.23632,0.2041 -0.23632,0.51562 0,0.41895 0.35449,1.16016 l 2.39551,4.96289 2.20214,-5.43555 q 0.18262,-0.44043 0.18262,-0.87011 0,-0.19336 -0.0752,-0.29004 -0.0859,-0.11817 -0.26856,-0.18262 -0.18262,-0.0752 -0.64453,-0.0752 v -0.39746 h 3.20117 v 0.39746 q -0.39746,0.043 -0.6123,0.17188 -0.21485,0.12891 -0.47266,0.4834 -0.0967,0.15039 -0.36523,0.82715 l -4.00684,9.81836 q -0.58008,1.42871 -1.52539,2.15918 -0.93457,0.73046 -1.80469,0.73046 -0.63379,0 -1.04199,-0.36523 -0.4082,-0.36523 -0.4082,-0.83789 0,-0.45117 0.29004,-0.73047 0.30078,-0.26855 0.8164,-0.26855 0.3545,0 0.9668,0.23632 0.42969,0.16114 0.53711,0.16114 0.32227,0 0.69824,-0.33301 0.38672,-0.33301 0.77344,-1.28906 l 0.69824,-1.70801 -3.53418,-7.42285 q -0.16113,-0.33301 -0.51562,-0.82715 -0.26856,-0.37598 -0.44043,-0.50488 -0.24707,-0.17188 -0.79492,-0.30079 z m 19.75488,1.69727 q 1.42871,-1.98731 3.08301,-1.98731 1.51464,0 2.64257,1.29981 1.12793,1.28906 1.12793,3.53418 0,2.62109 -1.74023,4.22168 -1.49316,1.375 -3.33008,1.375 -0.85937,0 -1.75098,-0.31153 -0.88085,-0.31152 -1.80468,-0.93457 v -10.19433 q 0,-1.67578 -0.0859,-2.0625 -0.0752,-0.38672 -0.24707,-0.52637 -0.17188,-0.13965 -0.42969,-0.13965 -0.30078,0 -0.75195,0.17188 l -0.15039,-0.37598 2.9541,-1.20312 h 0.4834 z m 0,0.6875 v 5.88672 q 0.54785,0.53711 1.12793,0.8164 0.59082,0.26856 1.20312,0.26856 0.97754,0 1.81543,-1.07422 0.84864,-1.07422 0.84864,-3.12598 0,-1.89062 -0.84864,-2.90039 -0.83789,-1.02051 -1.91211,-1.02051 -0.56933,0 -1.13867,0.29004 -0.42969,0.21485 -1.0957,0.85938 z m 9.95801,1.32129 q -0.0108,2.1914 1.06347,3.4375 1.07422,1.24609 2.52442,1.24609 0.96679,0 1.67578,-0.52637 0.71972,-0.5371 1.20312,-1.82617 l 0.33301,0.21485 q -0.22559,1.47168 -1.31055,2.68554 -1.08496,1.20313 -2.71777,1.20313 -1.77246,0 -3.04004,-1.375 -1.25683,-1.38574 -1.25683,-3.7168 0,-2.52441 1.28906,-3.93164 1.2998,-1.41797 3.25488,-1.41797 1.6543,0 2.71777,1.09571 1.06348,1.08496 1.06348,2.91113 z m 0,-0.62305 h 4.55468 q -0.0537,-0.94531 -0.22558,-1.33203 -0.26856,-0.60156 -0.80567,-0.94531 -0.52636,-0.34375 -1.10644,-0.34375 -0.8916,0 -1.60059,0.69824 -0.69824,0.6875 -0.8164,1.92285 z m 9.76464,0.62305 q -0.0107,2.1914 1.06348,3.4375 1.07422,1.24609 2.52441,1.24609 0.9668,0 1.67579,-0.52637 0.71972,-0.5371 1.20312,-1.82617 l 0.33301,0.21485 q -0.22559,1.47168 -1.31055,2.68554 -1.08496,1.20313 -2.71777,1.20313 -1.77246,0 -3.04004,-1.375 -1.25684,-1.38574 -1.25684,-3.7168 0,-2.52441 1.28907,-3.93164 1.2998,-1.41797 3.25488,-1.41797 1.6543,0 2.71777,1.09571 1.06348,1.08496 1.06348,2.91113 z m 0,-0.62305 h 4.55469 q -0.0537,-0.94531 -0.22558,-1.33203 -0.26856,-0.60156 -0.80567,-0.94531 -0.52637,-0.34375 -1.10644,-0.34375 -0.89161,0 -1.60059,0.69824 -0.69824,0.6875 -0.81641,1.92285 z m 10.97852,-1.28906 q 1.72949,-2.08399 3.29785,-2.08399 0.80567,0 1.38574,0.40821 0.58008,0.39746 0.92383,1.32129 0.23633,0.64453 0.23633,1.97656 v 4.20019 q 0,0.93457 0.15039,1.26758 0.11816,0.26856 0.37598,0.41895 0.26855,0.15039 0.97754,0.15039 v 0.38672 h -4.86621 v -0.38672 h 0.2041 q 0.6875,0 0.95605,-0.2041 0.2793,-0.21485 0.38672,-0.62305 0.043,-0.16113 0.043,-1.00977 v -4.02832 q 0,-1.34277 -0.35449,-1.94433 -0.34375,-0.61231 -1.1709,-0.61231 -1.27832,0 -2.5459,1.39649 v 5.18847 q 0,0.99903 0.11816,1.23536 0.15039,0.31152 0.40821,0.46191 0.26855,0.13965 1.07422,0.13965 v 0.38672 h -4.86622 v -0.38672 h 0.21485 q 0.75195,0 1.00976,-0.37598 0.26856,-0.38672 0.26856,-1.46094 v -3.65234 q 0,-1.77246 -0.0859,-2.15918 -0.0752,-0.38672 -0.24707,-0.52637 -0.16113,-0.13964 -0.44043,-0.13964 -0.30078,0 -0.71973,0.16113 l -0.16113,-0.38672 2.96485,-1.20313 h 0.46191 z m 16.48926,-5.02735 v 3.2334 h 2.29883 v 0.75196 h -2.29883 v 6.38086 q 0,0.95605 0.26855,1.28906 0.2793,0.33301 0.70899,0.33301 0.35449,0 0.6875,-0.21485 0.333,-0.22558 0.51562,-0.65527 h 0.41895 q -0.37598,1.05273 -1.06348,1.58984 -0.6875,0.52637 -1.41797,0.52637 -0.49414,0 -0.9668,-0.26855 -0.47265,-0.2793 -0.69824,-0.78418 -0.22558,-0.51563 -0.22558,-1.57911 v -6.61718 h -1.55762 v -0.3545 q 0.59082,-0.23632 1.20312,-0.79492 0.62305,-0.56933 1.10645,-1.34277 0.24707,-0.4082 0.6875,-1.49317 z m 8.06738,2.94336 q 2.23438,0 3.58789,1.69727 1.14942,1.4502 1.14942,3.33008 0,1.32129 -0.63379,2.6748 -0.63379,1.35352 -1.75098,2.04102 -1.10645,0.6875 -2.4707,0.6875 -2.22364,0 -3.53418,-1.77246 -1.10645,-1.49317 -1.10645,-3.35157 0,-1.35351 0.66602,-2.68554 0.67675,-1.34278 1.77246,-1.97656 1.0957,-0.64454 2.32031,-0.64454 z m -0.33301,0.69825 q -0.56933,0 -1.14941,0.34375 -0.56934,0.333 -0.92383,1.18164 -0.35449,0.84863 -0.35449,2.18066 0,2.14844 0.84863,3.70606 0.85938,1.55761 2.25586,1.55761 1.04199,0 1.71875,-0.85937 0.67676,-0.85938 0.67676,-2.9541 0,-2.6211 -1.12793,-4.125 -0.7627,-1.03125 -1.94434,-1.03125 z m 14.94239,1.39648 q 1.07421,-1.07422 1.26757,-1.23535 0.4834,-0.4082 1.042,-0.63379 0.55859,-0.22559 1.10644,-0.22559 0.92383,0 1.58984,0.53711 0.66602,0.53711 0.89161,1.55762 1.10644,-1.28906 1.86914,-1.68652 0.76269,-0.40821 1.56836,-0.40821 0.78418,0 1.38574,0.40821 0.6123,0.39746 0.9668,1.31054 0.23632,0.62305 0.23632,1.95508 v 4.23242 q 0,0.92383 0.13965,1.26758 0.10742,0.23633 0.39746,0.40821 0.29004,0.16113 0.94532,0.16113 v 0.38672 h -4.85547 v -0.38672 h 0.2041 q 0.63379,0 0.98828,-0.24707 0.24707,-0.17188 0.35449,-0.54785 0.043,-0.18262 0.043,-1.042 v -4.23242 q 0,-1.20312 -0.29004,-1.69726 -0.41894,-0.6875 -1.34277,-0.6875 -0.56934,0 -1.14942,0.29004 -0.56933,0.27929 -1.38574,1.05273 l -0.0215,0.11816 0.0215,0.46192 v 4.69433 q 0,1.00977 0.10742,1.25684 0.11817,0.24707 0.42969,0.41895 0.31152,0.16113 1.06348,0.16113 v 0.38672 h -4.97364 v -0.38672 q 0.81641,0 1.11719,-0.19336 0.31153,-0.19336 0.42969,-0.58008 0.0537,-0.18262 0.0537,-1.06348 v -4.23242 q 0,-1.20312 -0.35449,-1.72949 -0.47266,-0.6875 -1.32129,-0.6875 -0.58008,0 -1.14941,0.31152 -0.89161,0.47266 -1.375,1.06348 v 5.27441 q 0,0.9668 0.1289,1.25684 0.13965,0.29004 0.39746,0.44043 0.26856,0.13965 1.07422,0.13965 v 0.38672 h -4.86621 v -0.38672 q 0.67676,0 0.94531,-0.13965 0.26856,-0.15039 0.40821,-0.46191 0.13964,-0.32227 0.13964,-1.23536 v -3.75976 q 0,-1.62207 -0.0967,-2.09473 -0.0752,-0.35449 -0.23632,-0.4834 -0.16114,-0.13964 -0.44043,-0.13964 -0.30078,0 -0.71973,0.16113 l -0.16113,-0.38672 2.96484,-1.20313 h 0.46192 z m 19.00293,-2.09473 q 2.23437,0 3.58789,1.69727 1.14941,1.4502 1.14941,3.33008 0,1.32129 -0.63379,2.6748 -0.63379,1.35352 -1.75098,2.04102 -1.10644,0.6875 -2.4707,0.6875 -2.22363,0 -3.53418,-1.77246 -1.10644,-1.49317 -1.10644,-3.35157 0,-1.35351 0.66601,-2.68554 0.67676,-1.34278 1.77246,-1.97656 1.09571,-0.64454 2.32032,-0.64454 z m -0.33301,0.69825 q -0.56934,0 -1.14942,0.34375 -0.56933,0.333 -0.92382,1.18164 -0.3545,0.84863 -0.3545,2.18066 0,2.14844 0.84864,3.70606 0.85937,1.55761 2.25586,1.55761 1.04199,0 1.71875,-0.85937 0.67675,-0.85938 0.67675,-2.9541 0,-2.6211 -1.12793,-4.125 -0.76269,-1.03125 -1.94433,-1.03125 z m 15.14648,-0.40821 v 5.96192 q 0,1.70801 0.0752,2.09472 0.0859,0.37598 0.25781,0.52637 0.18262,0.15039 0.41894,0.15039 0.33301,0 0.75196,-0.18262 l 0.15039,0.37598 -2.94336,1.21387 h -0.4834 v -2.08399 q -1.26758,1.375 -1.93359,1.7295 -0.66602,0.35449 -1.40723,0.35449 -0.82715,0 -1.43945,-0.47266 -0.60157,-0.4834 -0.83789,-1.23535 -0.23633,-0.75195 -0.23633,-2.12695 v -4.39356 q 0,-0.69824 -0.15039,-0.96679 -0.15039,-0.26856 -0.45117,-0.40821 -0.29004,-0.15039 -1.06348,-0.13965 v -0.39746 h 3.44824 v 6.58496 q 0,1.375 0.47266,1.80469 0.4834,0.42969 1.16015,0.42969 0.46192,0 1.042,-0.29004 0.59082,-0.29004 1.39648,-1.10645 v -5.57519 q 0,-0.83789 -0.31152,-1.12793 -0.30078,-0.30078 -1.26758,-0.32227 v -0.39746 z m 5.24219,1.79395 q 1.72949,-2.08399 3.29785,-2.08399 0.80566,0 1.38574,0.40821 0.58008,0.39746 0.92383,1.32129 0.23633,0.64453 0.23633,1.97656 v 4.20019 q 0,0.93457 0.15039,1.26758 0.11816,0.26856 0.37598,0.41895 0.26855,0.15039 0.97754,0.15039 v 0.38672 h -4.86622 v -0.38672 h 0.20411 q 0.6875,0 0.95605,-0.2041 0.2793,-0.21485 0.38672,-0.62305 0.043,-0.16113 0.043,-1.00977 v -4.02832 q 0,-1.34277 -0.35449,-1.94433 -0.34375,-0.61231 -1.1709,-0.61231 -1.27832,0 -2.5459,1.39649 v 5.18847 q 0,0.99903 0.11816,1.23536 0.15039,0.31152 0.40821,0.46191 0.26855,0.13965 1.07422,0.13965 v 0.38672 h -4.86622 v -0.38672 h 0.21485 q 0.75195,0 1.00976,-0.37598 0.26856,-0.38672 0.26856,-1.46094 v -3.65234 q 0,-1.77246 -0.0859,-2.15918 -0.0752,-0.38672 -0.24707,-0.52637 -0.16113,-0.13964 -0.44043,-0.13964 -0.30078,0 -0.71973,0.16113 l -0.16113,-0.38672 2.96485,-1.20313 h 0.46191 z m 10.98926,-5.02735 v 3.2334 h 2.29883 v 0.75196 h -2.29883 v 6.38086 q 0,0.95605 0.26855,1.28906 0.2793,0.33301 0.70899,0.33301 0.35449,0 0.6875,-0.21485 0.333,-0.22558 0.51562,-0.65527 h 0.41895 q -0.37598,1.05273 -1.06348,1.58984 -0.6875,0.52637 -1.41797,0.52637 -0.49414,0 -0.9668,-0.26855 -0.47265,-0.2793 -0.69824,-0.78418 -0.22558,-0.51563 -0.22558,-1.57911 v -6.61718 h -1.55762 v -0.3545 q 0.59082,-0.23632 1.20312,-0.79492 0.62305,-0.56933 1.10645,-1.34277 0.24707,-0.4082 0.6875,-1.49317 z m 20.67871,9.04493 0.35449,0.0752 -1.24609,3.95313 h -11.2793 v -0.39746 h 0.54785 q 0.92383,0 1.32129,-0.60157 0.22559,-0.34375 0.22559,-1.58984 v -9.39941 q 0,-1.36426 -0.30079,-1.70801 -0.41894,-0.47266 -1.24609,-0.47266 h -0.54785 v -0.39746 h 6.5957 v 0.39746 q -1.16015,-0.0107 -1.63281,0.21485 -0.46191,0.22558 -0.63379,0.56933 -0.17187,0.34375 -0.17187,1.64356 v 9.15234 q 0,0.8916 0.17187,1.22461 0.12891,0.22559 0.39746,0.33301 0.26856,0.10742 1.67578,0.10742 h 1.06348 q 1.67578,0 2.35254,-0.24707 0.67676,-0.24707 1.23535,-0.87012 0.55859,-0.63379 1.11719,-1.9873 z m 4.40429,-11.24707 v 7.19726 q 1.19239,-1.31054 1.89063,-1.67578 0.69824,-0.37598 1.39648,-0.37598 0.83789,0 1.43946,0.46192 0.60156,0.46191 0.8916,1.45019 0.2041,0.6875 0.2041,2.51368 v 3.48046 q 0,0.93457 0.15039,1.27832 0.10742,0.25782 0.36524,0.40821 0.25781,0.15039 0.94531,0.15039 v 0.38672 h -4.83399 v -0.38672 h 0.22559 q 0.6875,0 0.95605,-0.2041 0.26856,-0.21485 0.37598,-0.62305 0.0322,-0.17188 0.0322,-1.00977 v -3.48046 q 0,-1.61133 -0.17188,-2.11622 -0.16113,-0.50488 -0.52636,-0.75195 -0.36524,-0.25781 -0.88086,-0.25781 -0.52637,0 -1.09571,0.2793 -0.56933,0.27929 -1.36426,1.12793 v 5.19921 q 0,1.00977 0.10743,1.25684 0.11816,0.24707 0.41894,0.41895 0.31153,0.16113 1.06348,0.16113 v 0.38672 h -4.87695 v -0.38672 q 0.65527,0 1.03125,-0.2041 0.21484,-0.10743 0.34375,-0.40821 0.1289,-0.30078 0.1289,-1.22461 v -8.90527 q 0,-1.68652 -0.0859,-2.07324 -0.0752,-0.38672 -0.24707,-0.52637 -0.16113,-0.13965 -0.44043,-0.13965 -0.22558,0 -0.73046,0.17188 l -0.1504,-0.37598 2.94336,-1.20312 z m 12.92286,5.1455 q 2.23437,0 3.58789,1.69727 1.14941,1.4502 1.14941,3.33008 0,1.32129 -0.63379,2.6748 -0.63379,1.35352 -1.75097,2.04102 -1.10645,0.6875 -2.47071,0.6875 -2.22363,0 -3.53418,-1.77246 -1.10644,-1.49317 -1.10644,-3.35157 0,-1.35351 0.66601,-2.68554 0.67676,-1.34278 1.77246,-1.97656 1.09571,-0.64454 2.32032,-0.64454 z m -0.33301,0.69825 q -0.56934,0 -1.14942,0.34375 -0.56933,0.333 -0.92382,1.18164 -0.3545,0.84863 -0.3545,2.18066 0,2.14844 0.84864,3.70606 0.85937,1.55761 2.25586,1.55761 1.04199,0 1.71875,-0.85937 0.67675,-0.85938 0.67675,-2.9541 0,-2.6211 -1.12793,-4.125 -0.76269,-1.03125 -1.94433,-1.03125 z m 9.37793,-3.64161 v 3.2334 h 2.29883 v 0.75196 h -2.29883 v 6.38086 q 0,0.95605 0.26855,1.28906 0.2793,0.33301 0.70899,0.33301 0.35449,0 0.6875,-0.21485 0.33301,-0.22558 0.51562,-0.65527 h 0.41895 q -0.37598,1.05273 -1.06348,1.58984 -0.6875,0.52637 -1.41797,0.52637 -0.49414,0 -0.96679,-0.26855 -0.47266,-0.2793 -0.69825,-0.78418 -0.22558,-0.51563 -0.22558,-1.57911 v -6.61718 h -1.55762 v -0.3545 q 0.59082,-0.23632 1.20313,-0.79492 0.62304,-0.56933 1.10644,-1.34277 0.24707,-0.4082 0.6875,-1.49317 z m 9.61426,2.94336 v 3.35157 h -0.3545 q -0.4082,-1.5791 -1.05273,-2.14844 -0.63379,-0.56934 -1.62207,-0.56934 -0.75195,0 -1.21387,0.39746 -0.46191,0.39747 -0.46191,0.88086 0,0.60157 0.34375,1.03125 0.33301,0.44043 1.35351,0.93457 l 1.56836,0.7627 q 2.18067,1.06348 2.18067,2.80371 0,1.34277 -1.02051,2.16992 -1.00977,0.81641 -2.2666,0.81641 -0.90235,0 -2.0625,-0.32227 -0.35449,-0.10742 -0.58008,-0.10742 -0.24707,0 -0.38672,0.2793 h -0.35449 v -3.5127 h 0.35449 q 0.30078,1.50391 1.14941,2.2666 0.84864,0.7627 1.90137,0.7627 0.74121,0 1.20313,-0.42969 0.47265,-0.44043 0.47265,-1.05273 0,-0.74121 -0.52636,-1.2461 -0.51563,-0.50488 -2.07325,-1.27832 -1.55761,-0.77343 -2.04101,-1.39648 -0.4834,-0.61231 -0.4834,-1.54688 0,-1.21386 0.82715,-2.03027 0.83789,-0.81641 2.15918,-0.81641 0.58008,0 1.40722,0.24707 0.54786,0.16114 0.73047,0.16114 0.17188,0 0.26856,-0.0752 0.0967,-0.0752 0.22558,-0.33301 z m 3.85644,3.9961 q -0.0107,2.1914 1.06348,3.4375 1.07422,1.24609 2.52441,1.24609 0.9668,0 1.67578,-0.52637 0.71973,-0.5371 1.20313,-1.82617 l 0.33301,0.21485 q -0.22559,1.47168 -1.31055,2.68554 -1.08496,1.20313 -2.71777,1.20313 -1.77247,0 -3.04004,-1.375 -1.25684,-1.38574 -1.25684,-3.7168 0,-2.52441 1.28906,-3.93164 1.29981,-1.41797 3.25489,-1.41797 1.65429,0 2.71777,1.09571 1.06348,1.08496 1.06348,2.91113 z m 0,-0.62305 h 4.55469 q -0.0537,-0.94531 -0.22559,-1.33203 -0.26855,-0.60156 -0.80566,-0.94531 -0.52637,-0.34375 -1.10645,-0.34375 -0.8916,0 -1.60058,0.69824 -0.69824,0.6875 -0.81641,1.92285 z m 8.60449,10.41992 v -0.47265 q 1.10645,-0.36524 1.70801,-1.13868 0.61231,-0.76269 0.61231,-1.62207 0,-0.2041 -0.0967,-0.34375 -0.0752,-0.0967 -0.15039,-0.0967 -0.11817,0 -0.51563,0.21485 -0.19336,0.0967 -0.4082,0.0967 -0.52637,0 -0.83789,-0.31153 -0.31153,-0.31152 -0.31153,-0.85937 0,-0.52637 0.39746,-0.90234 0.40821,-0.37598 0.98829,-0.37598 0.70898,0 1.25683,0.62305 0.5586,0.6123 0.5586,1.63281 0,1.10644 -0.77344,2.05176 -0.7627,0.95605 -2.42774,1.5039 z"
           id="path1" />
        <path
           style="fill:white;line-height:1.25"
           d="m 242.92236,162.62238 v 3.2334 h 2.29883 v 0.75196 h -2.29883 v 6.38086 q 0,0.95605 0.26856,1.28906 0.27929,0.33301 0.70898,0.33301 0.35449,0 0.6875,-0.21485 0.33301,-0.22558 0.51563,-0.65527 h 0.41894 q -0.37597,1.05273 -1.06347,1.58984 -0.6875,0.52637 -1.41797,0.52637 -0.49414,0 -0.9668,-0.26855 -0.47266,-0.2793 -0.69824,-0.78418 -0.22559,-0.51563 -0.22559,-1.57911 v -6.61718 h -1.55761 v -0.3545 q 0.59082,-0.23632 1.20312,-0.79492 0.62305,-0.56933 1.10645,-1.34277 0.24707,-0.4082 0.6875,-1.49317 z m 6.14453,-2.20214 v 7.19726 q 1.19239,-1.31054 1.89063,-1.67578 0.69824,-0.37598 1.39648,-0.37598 0.83789,0 1.43946,0.46192 0.60156,0.46191 0.8916,1.45019 0.2041,0.6875 0.2041,2.51368 v 3.48046 q 0,0.93457 0.15039,1.27832 0.10742,0.25782 0.36524,0.40821 0.25781,0.15039 0.94531,0.15039 v 0.38672 h -4.83399 v -0.38672 h 0.22559 q 0.6875,0 0.95605,-0.2041 0.26856,-0.21485 0.37598,-0.62305 0.0322,-0.17188 0.0322,-1.00977 v -3.48046 q 0,-1.61133 -0.17188,-2.11622 -0.16113,-0.50488 -0.52637,-0.75195 -0.36523,-0.25781 -0.88085,-0.25781 -0.52637,0 -1.09571,0.2793 -0.56933,0.27929 -1.36426,1.12793 v 5.19921 q 0,1.00977 0.10743,1.25684 0.11816,0.24707 0.41894,0.41895 0.31153,0.16113 1.06348,0.16113 v 0.38672 h -4.87695 v -0.38672 q 0.65527,0 1.03125,-0.2041 0.21484,-0.10743 0.34375,-0.40821 0.1289,-0.30078 0.1289,-1.22461 v -8.90527 q 0,-1.68652 -0.0859,-2.07324 -0.0752,-0.38672 -0.24707,-0.52637 -0.16113,-0.13965 -0.44043,-0.13965 -0.22558,0 -0.73046,0.17188 l -0.1504,-0.37598 2.94336,-1.20312 z m 13.68555,13.85742 q -1.51465,1.1709 -1.90137,1.35351 -0.58007,0.26856 -1.23535,0.26856 -1.02051,0 -1.68652,-0.69824 -0.65527,-0.69825 -0.65527,-1.83692 0,-0.71972 0.32226,-1.24609 0.44043,-0.73047 1.52539,-1.375 1.09571,-0.64453 3.63086,-1.56836 v -0.38672 q 0,-1.47168 -0.47265,-2.01953 -0.46192,-0.54785 -1.35352,-0.54785 -0.67676,0 -1.07422,0.36523 -0.4082,0.36524 -0.4082,0.83789 l 0.0215,0.62305 q 0,0.49414 -0.25781,0.76269 -0.24707,0.26856 -0.65527,0.26856 -0.39746,0 -0.65528,-0.2793 -0.24707,-0.27929 -0.24707,-0.76269 0,-0.92383 0.94531,-1.69727 0.94532,-0.77344 2.65333,-0.77344 1.31054,0 2.14843,0.44043 0.63379,0.33301 0.93457,1.042 0.19336,0.46191 0.19336,1.89062 v 3.34082 q 0,1.40723 0.0537,1.72949 0.0537,0.31153 0.17188,0.41895 0.1289,0.10742 0.29004,0.10742 0.17187,0 0.30078,-0.0752 0.22558,-0.13965 0.87012,-0.78418 v 0.60156 q -1.20313,1.61133 -2.29883,1.61133 -0.52637,0 -0.83789,-0.36524 -0.31153,-0.36523 -0.32227,-1.24609 z m 0,-0.69824 v -3.74903 q -1.62207,0.64453 -2.09473,0.91309 -0.84863,0.47265 -1.21386,0.98828 -0.36524,0.51562 -0.36524,1.12793 0,0.77344 0.46192,1.28906 0.46191,0.50488 1.06347,0.50488 0.81641,0 2.14844,-1.07421 z m 7.04688,-10.95704 v 3.2334 h 2.29882 v 0.75196 h -2.29882 v 6.38086 q 0,0.95605 0.26855,1.28906 0.2793,0.33301 0.70899,0.33301 0.35449,0 0.6875,-0.21485 0.333,-0.22558 0.51562,-0.65527 h 0.41895 q -0.37598,1.05273 -1.06348,1.58984 -0.6875,0.52637 -1.41797,0.52637 -0.49414,0 -0.9668,-0.26855 -0.47265,-0.2793 -0.69824,-0.78418 -0.22558,-0.51563 -0.22558,-1.57911 v -6.61718 h -1.55762 v -0.3545 q 0.59082,-0.23632 1.20312,-0.79492 0.62305,-0.56933 1.10645,-1.34277 0.24707,-0.4082 0.6875,-1.49317 z m 4.26464,4.44727 -0.58007,-3.17969 q -0.24707,-1.32129 -0.24707,-1.7832 0,-0.6875 0.27929,-0.99902 0.2793,-0.31153 0.7627,-0.31153 0.4834,0 0.79492,0.32227 0.32227,0.31152 0.32227,0.82715 0,0.39746 -0.2793,1.95508 l -0.58008,3.16894 z m 9.31348,-1.50391 v 3.35157 h -0.35449 q -0.4082,-1.5791 -1.05274,-2.14844 -0.63378,-0.56934 -1.62207,-0.56934 -0.75195,0 -1.21386,0.39746 -0.46192,0.39747 -0.46192,0.88086 0,0.60157 0.34375,1.03125 0.33301,0.44043 1.35352,0.93457 l 1.56836,0.7627 q 2.18066,1.06348 2.18066,2.80371 0,1.34277 -1.02051,2.16992 -1.00976,0.81641 -2.2666,0.81641 -0.90234,0 -2.0625,-0.32227 -0.35449,-0.10742 -0.58008,-0.10742 -0.24707,0 -0.38671,0.2793 h -0.3545 v -3.5127 h 0.3545 q 0.30078,1.50391 1.14941,2.2666 0.84863,0.7627 1.90137,0.7627 0.74121,0 1.20312,-0.42969 0.47266,-0.44043 0.47266,-1.05273 0,-0.74121 -0.52637,-1.2461 -0.51562,-0.50488 -2.07324,-1.27832 -1.55762,-0.77343 -2.04102,-1.39648 -0.48339,-0.61231 -0.48339,-1.54688 0,-1.21386 0.82714,-2.03027 0.83789,-0.81641 2.15918,-0.81641 0.58008,0 1.40723,0.24707 0.54785,0.16114 0.73047,0.16114 0.17187,0 0.26855,-0.0752 0.0967,-0.0752 0.22559,-0.33301 z m 10.55957,-2.94336 v 3.2334 h 2.29883 v 0.75196 h -2.29883 v 6.38086 q 0,0.95605 0.26856,1.28906 0.27929,0.33301 0.70898,0.33301 0.35449,0 0.6875,-0.21485 0.33301,-0.22558 0.51563,-0.65527 h 0.41894 q -0.37598,1.05273 -1.06348,1.58984 -0.6875,0.52637 -1.41796,0.52637 -0.49414,0 -0.9668,-0.26855 -0.47266,-0.2793 -0.69824,-0.78418 -0.22559,-0.51563 -0.22559,-1.57911 v -6.61718 h -1.55762 v -0.3545 q 0.59082,-0.23632 1.20313,-0.79492 0.62305,-0.56933 1.10644,-1.34277 0.24707,-0.4082 0.6875,-1.49317 z m 8.83008,11.65528 q -1.51465,1.1709 -1.90137,1.35351 -0.58008,0.26856 -1.23535,0.26856 -1.02051,0 -1.68652,-0.69824 -0.65528,-0.69825 -0.65528,-1.83692 0,-0.71972 0.32227,-1.24609 0.44043,-0.73047 1.52539,-1.375 1.0957,-0.64453 3.63086,-1.56836 v -0.38672 q 0,-1.47168 -0.47266,-2.01953 -0.46191,-0.54785 -1.35351,-0.54785 -0.67676,0 -1.07422,0.36523 -0.4082,0.36524 -0.4082,0.83789 l 0.0215,0.62305 q 0,0.49414 -0.25781,0.76269 -0.24707,0.26856 -0.65528,0.26856 -0.39746,0 -0.65527,-0.2793 -0.24707,-0.27929 -0.24707,-0.76269 0,-0.92383 0.94531,-1.69727 0.94532,-0.77344 2.65332,-0.77344 1.31055,0 2.14844,0.44043 0.63379,0.33301 0.93457,1.042 0.19336,0.46191 0.19336,1.89062 v 3.34082 q 0,1.40723 0.0537,1.72949 0.0537,0.31153 0.17188,0.41895 0.1289,0.10742 0.29004,0.10742 0.17187,0 0.30078,-0.0752 0.22558,-0.13965 0.87011,-0.78418 v 0.60156 q -1.20312,1.61133 -2.29882,1.61133 -0.52637,0 -0.83789,-0.36524 -0.31153,-0.36523 -0.32227,-1.24609 z m 0,-0.69824 v -3.74903 q -1.62207,0.64453 -2.09473,0.91309 -0.84863,0.47265 -1.21386,0.98828 -0.36524,0.51562 -0.36524,1.12793 0,0.77344 0.46192,1.28906 0.46191,0.50488 1.06347,0.50488 0.81641,0 2.14844,-1.07421 z m 6.88574,-6.02637 q 1.42871,-1.98731 3.08301,-1.98731 1.51465,0 2.64258,1.29981 1.12793,1.28906 1.12793,3.53418 0,2.62109 -1.74024,4.22168 -1.49316,1.375 -3.33007,1.375 -0.85938,0 -1.75098,-0.31153 -0.88086,-0.31152 -1.80469,-0.93457 v -10.19433 q 0,-1.67578 -0.0859,-2.0625 -0.0752,-0.38672 -0.24707,-0.52637 -0.17187,-0.13965 -0.42968,-0.13965 -0.30079,0 -0.75196,0.17188 l -0.15039,-0.37598 2.9541,-1.20312 h 0.4834 z m 0,0.6875 v 5.88672 q 0.54785,0.53711 1.12793,0.8164 0.59082,0.26856 1.20313,0.26856 0.97754,0 1.81543,-1.07422 0.84863,-1.07422 0.84863,-3.12598 0,-1.89062 -0.84863,-2.90039 -0.83789,-1.02051 -1.91211,-1.02051 -0.56934,0 -1.13867,0.29004 -0.42969,0.21485 -1.09571,0.85938 z m 13.11621,-2.67481 q 2.23438,0 3.58789,1.69727 1.14942,1.4502 1.14942,3.33008 0,1.32129 -0.63379,2.6748 -0.63379,1.35352 -1.75098,2.04102 -1.10644,0.6875 -2.4707,0.6875 -2.22363,0 -3.53418,-1.77246 -1.10645,-1.49317 -1.10645,-3.35157 0,-1.35351 0.66602,-2.68554 0.67676,-1.34278 1.77246,-1.97656 1.0957,-0.64454 2.32031,-0.64454 z m -0.333,0.69825 q -0.56934,0 -1.14942,0.34375 -0.56933,0.333 -0.92383,1.18164 -0.35449,0.84863 -0.35449,2.18066 0,2.14844 0.84863,3.70606 0.85938,1.55761 2.25586,1.55761 1.042,0 1.71875,-0.85937 0.67676,-0.85938 0.67676,-2.9541 0,-2.6211 -1.12793,-4.125 -0.76269,-1.03125 -1.94433,-1.03125 z m 11.333,-0.69825 q 2.23438,0 3.58789,1.69727 1.14942,1.4502 1.14942,3.33008 0,1.32129 -0.63379,2.6748 -0.63379,1.35352 -1.75098,2.04102 -1.10644,0.6875 -2.4707,0.6875 -2.22363,0 -3.53418,-1.77246 -1.10645,-1.49317 -1.10645,-3.35157 0,-1.35351 0.66602,-2.68554 0.67676,-1.34278 1.77246,-1.97656 1.0957,-0.64454 2.32031,-0.64454 z m -0.333,0.69825 q -0.56934,0 -1.14942,0.34375 -0.56933,0.333 -0.92383,1.18164 -0.35449,0.84863 -0.35449,2.18066 0,2.14844 0.84863,3.70606 0.85938,1.55761 2.25586,1.55761 1.042,0 1.71875,-0.85937 0.67676,-0.85938 0.67676,-2.9541 0,-2.6211 -1.12793,-4.125 -0.76269,-1.03125 -1.94433,-1.03125 z m 15.86621,0.36523 v 6.4668 q 0,1.375 0.30078,1.74023 0.39746,0.47266 1.06347,0.47266 h 0.89161 v 0.38672 h -5.87598 v -0.38672 h 0.44043 q 0.42969,0 0.78418,-0.21485 0.35449,-0.21484 0.4834,-0.58007 0.13965,-0.36524 0.13965,-1.41797 v -6.4668 h -1.91211 v -0.77344 h 1.91211 v -0.64453 q 0,-1.47168 0.47265,-2.49219 0.47266,-1.0205 1.43945,-1.64355 0.97754,-0.63379 2.19141,-0.63379 1.12793,0 2.07324,0.73047 0.62305,0.4834 0.62305,1.08496 0,0.32227 -0.2793,0.61231 -0.27929,0.27929 -0.60156,0.27929 -0.24707,0 -0.52637,-0.17187 -0.26855,-0.18262 -0.66601,-0.7627 -0.39746,-0.59082 -0.73047,-0.79492 -0.33301,-0.2041 -0.74121,-0.2041 -0.49414,0 -0.83789,0.26855 -0.34375,0.25782 -0.49414,0.81641 -0.15039,0.54785 -0.15039,2.84668 v 0.70898 h 2.53515 v 0.77344 z m 8.29296,-1.06348 q 2.23438,0 3.5879,1.69727 1.14941,1.4502 1.14941,3.33008 0,1.32129 -0.63379,2.6748 -0.63379,1.35352 -1.75098,2.04102 -1.10644,0.6875 -2.4707,0.6875 -2.22363,0 -3.53418,-1.77246 -1.10644,-1.49317 -1.10644,-3.35157 0,-1.35351 0.66601,-2.68554 0.67676,-1.34278 1.77246,-1.97656 1.09571,-0.64454 2.32031,-0.64454 z m -0.333,0.69825 q -0.56934,0 -1.14942,0.34375 -0.56933,0.333 -0.92383,1.18164 -0.35449,0.84863 -0.35449,2.18066 0,2.14844 0.84864,3.70606 0.85937,1.55761 2.25585,1.55761 1.042,0 1.71875,-0.85937 0.67676,-0.85938 0.67676,-2.9541 0,-2.6211 -1.12793,-4.125 -0.76269,-1.03125 -1.94433,-1.03125 z m 9.39941,-0.69825 v 2.21289 q 1.23535,-2.21289 2.53516,-2.21289 0.59082,0 0.97754,0.36524 0.38672,0.35449 0.38672,0.82715 0,0.41894 -0.2793,0.70898 -0.2793,0.29004 -0.66602,0.29004 -0.37597,0 -0.84863,-0.36523 -0.46191,-0.37598 -0.6875,-0.37598 -0.19336,0 -0.41895,0.21484 -0.48339,0.44043 -0.99902,1.4502 v 4.71582 q 0,0.81641 0.2041,1.23535 0.13965,0.29004 0.49414,0.4834 0.3545,0.19336 1.02051,0.19336 v 0.38672 h -5.03808 v -0.38672 q 0.75195,0 1.11718,-0.23633 0.26856,-0.17187 0.37598,-0.54785 0.0537,-0.18262 0.0537,-1.04199 v -3.81348 q 0,-1.71875 -0.0752,-2.04102 -0.0645,-0.333 -0.25781,-0.48339 -0.18261,-0.15039 -0.46191,-0.15039 -0.33301,0 -0.75195,0.16113 l -0.10743,-0.38672 2.97559,-1.20313 z m 12.81543,2.08399 q 1.72949,-2.08399 3.29785,-2.08399 0.80567,0 1.38574,0.40821 0.58008,0.39746 0.92383,1.32129 0.23633,0.64453 0.23633,1.97656 v 4.20019 q 0,0.93457 0.15039,1.26758 0.11817,0.26856 0.37598,0.41895 0.26855,0.15039 0.97754,0.15039 v 0.38672 h -4.86621 v -0.38672 h 0.2041 q 0.6875,0 0.95605,-0.2041 0.2793,-0.21485 0.38672,-0.62305 0.043,-0.16113 0.043,-1.00977 v -4.02832 q 0,-1.34277 -0.35449,-1.94433 -0.34375,-0.61231 -1.1709,-0.61231 -1.27832,0 -2.5459,1.39649 v 5.18847 q 0,0.99903 0.11816,1.23536 0.1504,0.31152 0.40821,0.46191 0.26855,0.13965 1.07422,0.13965 v 0.38672 h -4.86621 v -0.38672 h 0.21484 q 0.75195,0 1.00977,-0.37598 0.26855,-0.38672 0.26855,-1.46094 v -3.65234 q 0,-1.77246 -0.0859,-2.15918 -0.0752,-0.38672 -0.24707,-0.52637 -0.16113,-0.13964 -0.44043,-0.13964 -0.30078,0 -0.71972,0.16113 l -0.16114,-0.38672 2.96485,-1.20313 h 0.46191 z m 12.94434,-2.08399 q 2.23437,0 3.58789,1.69727 1.14941,1.4502 1.14941,3.33008 0,1.32129 -0.63379,2.6748 -0.63379,1.35352 -1.75097,2.04102 -1.10645,0.6875 -2.47071,0.6875 -2.22363,0 -3.53418,-1.77246 -1.10644,-1.49317 -1.10644,-3.35157 0,-1.35351 0.66601,-2.68554 0.67676,-1.34278 1.77246,-1.97656 1.09571,-0.64454 2.32032,-0.64454 z m -0.33301,0.69825 q -0.56934,0 -1.14942,0.34375 -0.56933,0.333 -0.92382,1.18164 -0.3545,0.84863 -0.3545,2.18066 0,2.14844 0.84864,3.70606 0.85937,1.55761 2.25586,1.55761 1.04199,0 1.71875,-0.85937 0.67675,-0.85938 0.67675,-2.9541 0,-2.6211 -1.12793,-4.125 -0.76269,-1.03125 -1.94433,-1.03125 z m 5.97266,-0.40821 h 4.125 v 0.39746 q -0.56934,0.043 -0.75196,0.20411 -0.17187,0.16113 -0.17187,0.46191 0,0.33301 0.18261,0.80566 l 2.10547,5.66114 2.11621,-4.6084 -0.55859,-1.4502 q -0.25781,-0.64453 -0.67676,-0.8916 -0.23633,-0.15039 -0.88086,-0.18262 v -0.39746 h 4.6836 v 0.39746 q -0.77344,0.0322 -1.09571,0.2793 -0.21484,0.17188 -0.21484,0.54785 0,0.21485 0.0859,0.44043 l 2.23437,5.65039 2.07324,-5.44629 q 0.21485,-0.58007 0.21485,-0.92382 0,-0.20411 -0.21485,-0.36524 -0.2041,-0.16113 -0.8164,-0.18262 v -0.39746 h 3.10449 v 0.39746 q -0.93457,0.13965 -1.375,1.26758 l -3.28711,8.47559 h -0.44043 l -2.45996,-6.28418 -2.86816,6.28418 h -0.39746 l -3.15821,-8.27149 q -0.31152,-0.78418 -0.6123,-1.05273 -0.30078,-0.2793 -0.94531,-0.41895 z m 17.06933,7.75586 q 0.50488,0 0.84863,0.35449 0.34375,0.34375 0.34375,0.8379 0,0.49414 -0.35449,0.84863 -0.34375,0.34375 -0.83789,0.34375 -0.49414,0 -0.84863,-0.34375 -0.34375,-0.35449 -0.34375,-0.84863 0,-0.50489 0.34375,-0.84864 0.35449,-0.34375 0.84863,-0.34375 z"
           id="path2" />
      </g>
    </g>
    <flowRoot
       transform="translate(0,452.36218)"
       style="font-style:normal;font-variant:normal;font-weight:normal;font-stretch:normal;line-height:0.01%;font-family:serif;-inkscape-font-specification:Serif;letter-spacing:0px;word-spacing:0px;fill:currentColor;fill-opacity:1;stroke:none"
       id="flowRoot4036"
       xml:space="preserve"><flowRegion
         id="flowRegion4038"
         style="font-family:serif"><rect
           y="181.65089"
           x="572.13812"
           height="20.433504"
           width="49.470589"
           id="rect4040" /></flowRegion><flowPara
         id="flowPara4042"
         style="font-size:20px;line-height:1.25;font-family:serif"> </flowPara></flowRoot>
    <g
       id="g4092"
       transform="matrix(-0.99567597,0.09289432,0.09289432,0.99567597,124.82975,-6.888993)">
      <path
         style="color:currentColor;fill:none;stroke:currentColor;stroke-width:4;stroke-linecap:round;stroke-linejoin:round;stroke-miterlimit:4;stroke-opacity:1;stroke-dasharray:none;stroke-dashoffset:0;marker:none;visibility:visible;display:inline;overflow:visible;enable-background:accumulate"
         d="m 97.528517,772.13404 c -4.433296,1.04428 -6.371867,0.84119 -7.794677,0.38023 l -2.661597,-24.3346 2.471483,-20.15209 1.711027,-1.3308 11.216727,24.90494 1.90114,19.58175 c 1.46477,1.26309 6.26869,0.52269 10.07605,0.38023"
         id="path4063" />
      <path
         style="color:currentColor;fill:none;stroke:currentColor;stroke-width:4;stroke-linecap:round;stroke-linejoin:round;stroke-miterlimit:4;stroke-opacity:1;stroke-dasharray:none;stroke-dashoffset:0;marker:none;visibility:visible;display:inline;overflow:visible;enable-background:accumulate"
         d="m 87.072243,704.64355 -4.752851,19.0114 14.258555,-13.30798 1.520912,0.19012"
         id="path4065" />
      <path
         style="color:currentColor;fill:none;stroke:currentColor;stroke-width:4;stroke-miterlimit:4;stroke-opacity:1;stroke-dasharray:none;marker:none;visibility:visible;display:inline;overflow:visible;enable-background:accumulate"
         id="path4067"
         d="m 99.809886,230.89354 c 0,5.72234 -4.638875,10.36122 -10.361217,10.36122 -5.722341,0 -10.361216,-4.63888 -10.361216,-10.36122 0,-5.72234 4.638875,-10.36122 10.361216,-10.36122 5.722342,0 10.361217,4.63888 10.361217,10.36122 z"
         transform="translate(0.380228,452.7424)" />
      <path
         transform="translate(0,452.36218)"
         id="path4075"
         d="M 89.353612,275.09506 88.593156,242.20533"
         style="color:currentColor;fill:none;stroke:currentColor;stroke-width:4;stroke-linecap:round;stroke-linejoin:round;stroke-miterlimit:4;stroke-opacity:1;stroke-dasharray:none;stroke-dashoffset:0;marker:none;visibility:visible;display:inline;overflow:visible;enable-background:accumulate" />
    </g>
  </g>
</svg>
