<?xml version="1.0" encoding="UTF-8" standalone="no"?>
<svg
   width="800"
   height="600"
   id="svg2"
   version="1.1"
   xmlns="http://www.w3.org/2000/svg"
   xmlns:svg="http://www.w3.org/2000/svg"
   xmlns:rdf="http://www.w3.org/1999/02/22-rdf-syntax-ns#"
   xmlns:cc="http://creativecommons.org/ns#"
   xmlns:dc="http://purl.org/dc/elements/1.1/">
  <defs
     id="defs4">
    <marker
       style="overflow:visible"
       id="ArrowTriangleStylized-4"
       refX="0"
       refY="0"
       orient="auto-start-reverse"
       markerWidth="1"
       markerHeight="1"
       viewBox="0 0 1 1"
       preserveAspectRatio="xMidYMid">
      <path
         transform="scale(0.5)"
         style="fill:#000000;fill:context-stroke;fill-rule:evenodd;stroke:context-stroke;stroke-width:1pt"
         d="m 6,0 c -3,1 -7,3 -9,5 0,0 0,-4 2,-5 -2,-1 -2,-5 -2,-5 2,2 6,4 9,5 z"
         id="path4-4" />
    </marker>
    <marker
       style="overflow:visible"
       id="ArrowTriangleStylized-4_reversed"
       refX="0"
       refY="0"
       orient="auto"
       markerWidth="1"
       markerHeight="1"
       viewBox="0 0 1 1"
       preserveAspectRatio="xMidYMid">
      <g
         transform="rotate(180,0,0)"
         id="g7">
        <path
           transform="scale(0.5)"
           style="fill:#000000;fill:context-stroke;fill-rule:evenodd;stroke:context-stroke;stroke-width:1pt"
           d="m 6,0 c -3,1 -7,3 -9,5 0,0 0,-4 2,-5 -2,-1 -2,-5 -2,-5 2,2 6,4 9,5 z"
           id="path7" />
      </g>
    </marker>
  </defs>
  <metadata
     id="metadata7">
    <rdf:RDF>
      <cc:Work
         rdf:about="">
        <dc:format>image/svg+xml</dc:format>
        <dc:type
           rdf:resource="http://purl.org/dc/dcmitype/StillImage" />
        <dc:language>en</dc:language>
        <cc:license
           rdf:resource="https://timefold.ai/product/license/" />
      </cc:Work>
    </rdf:RDF>
  </metadata>
  <g
     id="layer1"
     transform="translate(0,-452.36218)"
     style="display:inline">
    <path
       d="M 59.099266,253.62814 V 226.9042 h 19.3229 v 3.15364 H 62.635721 v 8.18489 h 14.783842 v 3.13542 H 62.635721 v 9.09634 h 16.406236 v 3.15365 z m 24.408833,0 v -19.35936 h 2.934893 v 2.71614 q 0.911457,-1.42187 2.424477,-2.27864 1.51302,-0.875 3.44531,-0.875 2.151039,0 3.518226,0.89323 1.385415,0.89323 1.950519,2.49739 2.296876,-3.39062 5.979166,-3.39062 2.8802,0 4.42968,1.60416 1.54948,1.58594 1.54948,4.90365 v 13.28905 h -3.26302 v -12.19531 q 0,-1.96874 -0.32813,-2.82551 -0.30989,-0.875 -1.14843,-1.40365 -0.83854,-0.52864 -1.96875,-0.52864 -2.04167,0 -3.390623,1.36718 -1.348957,1.34896 -1.348957,4.33854 v 11.24739 h -3.281247 v -12.57812 q 0,-2.1875 -0.802083,-3.28125 -0.802082,-1.09374 -2.624997,-1.09374 -1.385416,0 -2.570311,0.72916 -1.166665,0.72917 -1.695311,2.13281 -0.528645,1.40365 -0.528645,4.04687 v 10.04427 z m 31.098931,7.41926 v -26.77862 h 2.98958 v 2.51562 q 1.05729,-1.47656 2.38802,-2.20573 1.33073,-0.74739 3.22656,-0.74739 2.47917,0 4.375,1.27604 1.89583,1.27604 2.86198,3.60937 0.96614,2.3151 0.96614,5.08593 0,2.97136 -1.07552,5.35937 -1.05729,2.36979 -3.09896,3.64583 -2.02343,1.25782 -4.26562,1.25782 -1.64062,0 -2.95312,-0.69271 -1.29427,-0.69271 -2.13281,-1.75 v 9.42447 z m 2.97135,-16.98957 q 0,3.73698 1.51302,5.52343 1.51302,1.78646 3.66406,1.78646 2.1875,0 3.73698,-1.84114 1.56771,-1.85938 1.56771,-5.74219 0,-3.70051 -1.53125,-5.54166 -1.51302,-1.84114 -3.6276,-1.84114 -2.09636,0 -3.71875,1.96875 -1.60417,1.95052 -1.60417,5.68749 z m 17.71874,9.57031 V 226.9042 h 3.28124 v 26.72394 z m 7.14583,-9.67968 q 0,-5.3776 2.98958,-7.96614 2.49739,-2.15104 6.08853,-2.15104 3.99219,0 6.52604,2.625 2.53385,2.60676 2.53385,7.21874 0,3.73698 -1.13021,5.88802 -1.11197,2.13281 -3.26301,3.3177 -2.13281,1.1849 -4.66667,1.1849 -4.0651,0 -6.58072,-2.60677 -2.49739,-2.60677 -2.49739,-7.51041 z m 3.37239,0 q 0,3.71874 1.62239,5.57812 1.6224,1.84114 4.08333,1.84114 2.44271,0 4.0651,-1.85937 1.6224,-1.85938 1.6224,-5.66927 0,-3.59114 -1.64063,-5.43228 -1.62239,-1.85938 -4.04687,-1.85938 -2.46093,0 -4.08333,1.84115 -1.62239,1.84114 -1.62239,5.55989 z m 18.46613,17.1354 -0.36459,-3.08073 q 1.07552,0.29167 1.87761,0.29167 1.09374,0 1.74999,-0.36458 0.65625,-0.36459 1.07552,-1.02084 0.3099,-0.49218 1.00261,-2.4427 0.0911,-0.27344 0.29166,-0.80209 l -7.34634,-19.39581 h 3.53645 l 4.02864,11.21093 q 0.78386,2.13281 1.40365,4.48437 0.5651,-2.26042 1.34896,-4.41146 l 4.13801,-11.28384 h 3.28125 l -7.36458,19.68748 q -1.18489,3.1901 -1.84114,4.39323 -0.875,1.62239 -2.00521,2.36979 -1.13021,0.76562 -2.69791,0.76562 -0.94792,0 -2.11458,-0.40104 z m 32.06507,-13.69009 3.39062,0.41927 q -0.80208,2.97135 -2.97135,4.61197 -2.16927,1.64063 -5.54166,1.64063 -4.24739,0 -6.74479,-2.60677 -2.47916,-2.625 -2.47916,-7.34635 0,-4.88541 2.51562,-7.58333 2.51563,-2.69791 6.52604,-2.69791 3.88281,0 6.34374,2.64323 2.46094,2.64322 2.46094,7.43749 0,0.29167 -0.0182,0.875 h -14.43749 q 0.18229,3.1901 1.80469,4.88541 1.62239,1.69531 4.04687,1.69531 1.80468,0 3.08073,-0.94791 1.27604,-0.94792 2.02343,-3.02604 z m -10.77343,-5.30469 H 196.383 q -0.21875,-2.4427 -1.23958,-3.66406 -1.56771,-1.89583 -4.0651,-1.89583 -2.26042,0 -3.8099,1.51302 -1.53124,1.51302 -1.69531,4.04687 z m 31.53644,5.30469 3.39062,0.41927 q -0.80208,2.97135 -2.97135,4.61197 -2.16927,1.64063 -5.54166,1.64063 -4.24739,0 -6.74479,-2.60677 -2.47916,-2.625 -2.47916,-7.34635 0,-4.88541 2.51562,-7.58333 2.51562,-2.69791 6.52604,-2.69791 3.88281,0 6.34374,2.64323 2.46094,2.64322 2.46094,7.43749 0,0.29167 -0.0182,0.875 h -14.43749 q 0.18229,3.1901 1.80469,4.88541 1.62239,1.69531 4.04687,1.69531 1.80468,0 3.08072,-0.94791 1.27604,-0.94792 2.02344,-3.02604 z m -10.77343,-5.30469 h 10.80989 q -0.21875,-2.4427 -1.23958,-3.66406 -1.56771,-1.89583 -4.06511,-1.89583 -2.26041,0 -3.80989,1.51302 -1.53125,1.51302 -1.69531,4.04687 z m 28.65623,18.95832 v -26.77862 h 2.98958 v 2.51562 q 1.05729,-1.47656 2.38802,-2.20573 1.33073,-0.74739 3.22656,-0.74739 2.47916,0 4.37499,1.27604 1.89584,1.27604 2.86198,3.60937 0.96615,2.3151 0.96615,5.08593 0,2.97136 -1.07552,5.35937 -1.0573,2.36979 -3.09896,3.64583 -2.02344,1.25782 -4.26562,1.25782 -1.64063,0 -2.95312,-0.69271 -1.29427,-0.69271 -2.13282,-1.75 v 9.42447 z m 2.97135,-16.98957 q 0,3.73698 1.51302,5.52343 1.51302,1.78646 3.66406,1.78646 2.1875,0 3.73697,-1.84114 1.56771,-1.85938 1.56771,-5.74219 0,-3.70051 -1.53125,-5.54166 -1.51302,-1.84114 -3.6276,-1.84114 -2.09635,0 -3.71875,1.96875 -1.60416,1.95052 -1.60416,5.68749 z m 31.04424,3.33594 3.39062,0.41927 q -0.80208,2.97135 -2.97135,4.61197 -2.16927,1.64063 -5.54166,1.64063 -4.24739,0 -6.74479,-2.60677 -2.47916,-2.625 -2.47916,-7.34635 0,-4.88541 2.51562,-7.58333 2.51562,-2.69791 6.52604,-2.69791 3.88281,0 6.34374,2.64323 2.46094,2.64322 2.46094,7.43749 0,0.29167 -0.0182,0.875 h -14.43749 q 0.18229,3.1901 1.80469,4.88541 1.62239,1.69531 4.04687,1.69531 1.80468,0 3.08073,-0.94791 1.27604,-0.94792 2.02343,-3.02604 z m -10.77343,-5.30469 h 10.80989 q -0.21875,-2.4427 -1.23958,-3.66406 -1.56771,-1.89583 -4.0651,-1.89583 -2.26042,0 -3.8099,1.51302 -1.53124,1.51302 -1.69531,4.04687 z m 18.24738,11.53906 v -19.35936 h 2.95312 v 2.93489 q 1.13021,-2.05989 2.07813,-2.71614 0.96614,-0.65625 2.11458,-0.65625 1.65885,0 3.37239,1.05729 l -1.13021,3.04427 q -1.20312,-0.71094 -2.40624,-0.71094 -1.07552,0 -1.93229,0.65625 -0.85677,0.63802 -1.22136,1.78646 -0.54687,1.75 -0.54687,3.82812 v 10.13541 z m 12.48697,-22.9505 v -3.77344 h 3.28125 v 3.77344 z m 0,22.9505 v -19.35936 h 3.28125 v 19.35936 z m 7.05468,-9.67968 q 0,-5.3776 2.98958,-7.96614 2.4974,-2.15104 6.08854,-2.15104 3.99218,0 6.52604,2.625 2.53385,2.60676 2.53385,7.21874 0,3.73698 -1.13021,5.88802 -1.11198,2.13281 -3.26302,3.3177 -2.13281,1.1849 -4.66666,1.1849 -4.0651,0 -6.58072,-2.60677 -2.4974,-2.60677 -2.4974,-7.51041 z m 3.3724,0 q 0,3.71874 1.62239,5.57812 1.62239,1.84114 4.08333,1.84114 2.44271,0 4.0651,-1.85937 1.6224,-1.85938 1.6224,-5.66927 0,-3.59114 -1.64063,-5.43228 -1.62239,-1.85938 -4.04687,-1.85938 -2.46094,0 -4.08333,1.84115 -1.62239,1.84114 -1.62239,5.55989 z m 31.17184,9.67968 v -2.44271 q -1.84114,2.88021 -5.41406,2.88021 -2.3151,0 -4.26562,-1.27604 -1.93229,-1.27605 -3.00781,-3.55469 -1.05729,-2.29687 -1.05729,-5.26822 0,-2.89844 0.96615,-5.25 0.96614,-2.36979 2.89843,-3.6276 1.93229,-1.25781 4.32031,-1.25781 1.75,0 3.11719,0.74739 1.36718,0.72917 2.22395,1.91406 v -9.58853 h 3.26302 v 26.72394 z m -10.37239,-9.66145 q 0,3.71874 1.56771,5.55989 1.56771,1.84114 3.70052,1.84114 2.15104,0 3.64583,-1.75 1.51302,-1.76822 1.51302,-5.3776 0,-3.97395 -1.53125,-5.83332 -1.53125,-1.85938 -3.77343,-1.85938 -2.1875,0 -3.66406,1.78646 -1.45834,1.78646 -1.45834,5.63281 z m 28.91142,9.66145 v -19.35936 h 2.95313 v 2.93489 q 1.1302,-2.05989 2.07812,-2.71614 0.96614,-0.65625 2.11458,-0.65625 1.65885,0 3.37239,1.05729 l -1.1302,3.04427 q -1.20313,-0.71094 -2.40625,-0.71094 -1.07552,0 -1.93229,0.65625 -0.85677,0.63802 -1.22135,1.78646 -0.54688,1.75 -0.54688,3.82812 v 10.13541 z m 25.15623,0 v -2.84375 q -2.26041,3.28125 -6.14322,3.28125 -1.71354,0 -3.20833,-0.65625 -1.47656,-0.65625 -2.20573,-1.64063 -0.71094,-1.0026 -1.0026,-2.4427 -0.20052,-0.96615 -0.20052,-3.0625 v -11.99478 h 3.28124 v 10.73697 q 0,2.57031 0.20053,3.46354 0.30989,1.29427 1.31249,2.04166 1.00261,0.72917 2.47917,0.72917 1.47656,0 2.77083,-0.7474 1.29427,-0.76562 1.82291,-2.05989 0.54688,-1.3125 0.54688,-3.79167 v -10.37238 h 3.28125 v 19.35936 z m 8.0026,0 V 226.9042 h 3.28124 v 26.72394 z m 21.61979,-6.23437 3.39062,0.41927 q -0.80208,2.97135 -2.97135,4.61197 -2.16927,1.64063 -5.54166,1.64063 -4.2474,0 -6.74479,-2.60677 -2.47916,-2.625 -2.47916,-7.34635 0,-4.88541 2.51562,-7.58333 2.51562,-2.69791 6.52604,-2.69791 3.8828,0 6.34374,2.64323 2.46094,2.64322 2.46094,7.43749 0,0.29167 -0.0182,0.875 h -14.43749 q 0.18229,3.1901 1.80468,4.88541 1.6224,1.69531 4.04688,1.69531 1.80468,0 3.08072,-0.94791 1.27604,-0.94792 2.02344,-3.02604 z M 393.112,242.08908 h 10.80989 q -0.21875,-2.4427 -1.23959,-3.66406 -1.5677,-1.89583 -4.0651,-1.89583 -2.26041,0 -3.80989,1.51302 -1.53125,1.51302 -1.69531,4.04687 z m 28.67444,-11.41144 v -3.77344 h 3.28125 v 3.77344 z m 0,22.9505 v -19.35936 h 3.28125 v 19.35936 z m 8.27605,0 v -19.35936 h 2.95312 v 2.7526 q 2.13282,-3.1901 6.16146,-3.1901 1.75,0 3.20833,0.63802 1.47656,0.61979 2.20573,1.64062 0.72916,1.02083 1.02083,2.42448 0.18229,0.91146 0.18229,3.1901 v 11.90364 H 442.513 V 241.8521 q 0,-2.0052 -0.38281,-2.98958 -0.38281,-1.0026 -1.36719,-1.58593 -0.96614,-0.60156 -2.27864,-0.60156 -2.09635,0 -3.6276,1.33072 -1.51302,1.33073 -1.51302,5.04948 v 10.57291 z m 43.69526,0 v -2.44271 q -1.84114,2.88021 -5.41405,2.88021 -2.31511,0 -4.26563,-1.27604 -1.93229,-1.27605 -3.00781,-3.55469 -1.05729,-2.29687 -1.05729,-5.26822 0,-2.89844 0.96615,-5.25 0.96614,-2.36979 2.89843,-3.6276 1.93229,-1.25781 4.32031,-1.25781 1.75,0 3.11719,0.74739 1.36718,0.72917 2.22395,1.91406 v -9.58853 h 3.26302 v 26.72394 z m -10.37238,-9.66145 q 0,3.71874 1.5677,5.55989 1.56771,1.84114 3.70052,1.84114 2.15104,0 3.64583,-1.75 1.51302,-1.76822 1.51302,-5.3776 0,-3.97395 -1.53125,-5.83332 -1.53125,-1.85938 -3.77343,-1.85938 -2.1875,0 -3.66406,1.78646 -1.45833,1.78646 -1.45833,5.63281 z m 18.59373,-13.28905 v -3.77344 h 3.28125 v 3.77344 z m 0,22.9505 v -19.35936 h 3.28125 v 19.35936 z m 9.0599,0 v -16.80728 h -2.89843 v -2.55208 h 2.89843 v -2.0599 q 0,-1.95052 0.34636,-2.89843 0.47396,-1.27604 1.65885,-2.0599 1.20312,-0.80208 3.35416,-0.80208 1.38542,0 3.0625,0.32813 l -0.49219,2.86197 q -1.02083,-0.18229 -1.93229,-0.18229 -1.49479,0 -2.11458,0.63802 -0.61979,0.63802 -0.61979,2.38802 v 1.78646 h 3.77344 v 2.55208 h -3.77344 v 16.80728 z m 9.69791,0 v -16.80728 h -2.89844 v -2.55208 h 2.89844 v -2.0599 q 0,-1.95052 0.34635,-2.89843 0.47396,-1.27604 1.65886,-2.0599 1.20312,-0.80208 3.35416,-0.80208 1.38542,0 3.0625,0.32813 l -0.49219,2.86197 q -1.02083,-0.18229 -1.93229,-0.18229 -1.49479,0 -2.11458,0.63802 -0.61979,0.63802 -0.61979,2.38802 v 1.78646 h 3.77343 v 2.55208 h -3.77343 v 16.80728 z m 22.84111,-6.23437 3.39063,0.41927 q -0.80209,2.97135 -2.97135,4.61197 -2.16927,1.64063 -5.54167,1.64063 -4.24739,0 -6.74478,-2.60677 -2.47917,-2.625 -2.47917,-7.34635 0,-4.88541 2.51563,-7.58333 2.51562,-2.69791 6.52603,-2.69791 3.88281,0 6.34375,2.64323 2.46093,2.64322 2.46093,7.43749 0,0.29167 -0.0182,0.875 H 512.6223 q 0.1823,3.1901 1.80469,4.88541 1.6224,1.69531 4.04687,1.69531 1.80469,0 3.08073,-0.94791 1.27604,-0.94792 2.02343,-3.02604 z m -10.77342,-5.30469 h 10.80988 q -0.21875,-2.4427 -1.23958,-3.66406 -1.56771,-1.89583 -4.0651,-1.89583 -2.26041,0 -3.80989,1.51302 -1.53125,1.51302 -1.69531,4.04687 z m 18.24737,11.53906 v -19.35936 h 2.95313 v 2.93489 q 1.1302,-2.05989 2.07812,-2.71614 0.96614,-0.65625 2.11458,-0.65625 1.65885,0 3.37239,1.05729 l -1.1302,3.04427 q -1.20313,-0.71094 -2.40625,-0.71094 -1.07552,0 -1.93229,0.65625 -0.85677,0.63802 -1.22135,1.78646 -0.54688,1.75 -0.54688,3.82812 v 10.13541 z m 25.72134,-6.23437 3.39062,0.41927 q -0.80208,2.97135 -2.97135,4.61197 -2.16927,1.64063 -5.54166,1.64063 -4.2474,0 -6.74479,-2.60677 -2.47917,-2.625 -2.47917,-7.34635 0,-4.88541 2.51563,-7.58333 2.51562,-2.69791 6.52603,-2.69791 3.88281,0 6.34375,2.64323 2.46093,2.64322 2.46093,7.43749 0,0.29167 -0.0182,0.875 h -14.43748 q 0.18229,3.1901 1.80468,4.88541 1.6224,1.69531 4.04687,1.69531 1.80469,0 3.08073,-0.94791 1.27604,-0.94792 2.02344,-3.02604 z m -10.77343,-5.30469 h 10.80988 q -0.21874,-2.4427 -1.23958,-3.66406 -1.5677,-1.89583 -4.0651,-1.89583 -2.26041,0 -3.80989,1.51302 -1.53125,1.51302 -1.69531,4.04687 z m 18.28383,11.53906 v -19.35936 h 2.95313 v 2.7526 q 2.13281,-3.1901 6.16145,-3.1901 1.75,0 3.20833,0.63802 1.47656,0.61979 2.20573,1.64062 0.72916,1.02083 1.02083,2.42448 0.18229,0.91146 0.18229,3.1901 v 11.90364 h -3.28125 V 241.8521 q 0,-2.0052 -0.38281,-2.98958 -0.38281,-1.0026 -1.36718,-1.58593 -0.96615,-0.60156 -2.27865,-0.60156 -2.09635,0 -3.6276,1.33072 -1.51302,1.33073 -1.51302,5.04948 v 10.57291 z m 27.92706,-2.9349 0.47396,2.89844 q -1.38542,0.29166 -2.47917,0.29166 -1.78645,0 -2.77083,-0.5651 -0.98437,-0.5651 -1.38541,-1.47656 -0.40104,-0.92969 -0.40104,-3.88281 v -11.13801 h -2.40625 v -2.55208 h 2.40625 v -4.79427 l 3.26301,-1.96875 v 6.76302 h 3.29948 v 2.55208 h -3.29948 v 11.3203 q 0,1.40365 0.16407,1.80469 0.18229,0.40104 0.5651,0.63802 0.40104,0.23698 1.13021,0.23698 0.54687,0 1.4401,-0.12761 z m 20.74481,0 0.47396,2.89844 q -1.38541,0.29166 -2.47916,0.29166 -1.78646,0 -2.77083,-0.5651 -0.98438,-0.5651 -1.38542,-1.47656 -0.40104,-0.92969 -0.40104,-3.88281 v -11.13801 h -2.40625 v -2.55208 h 2.40625 v -4.79427 l 3.26302,-1.96875 v 6.76302 h 3.29947 v 2.55208 h -3.29947 v 11.3203 q 0,1.40365 0.16406,1.80469 0.18229,0.40104 0.5651,0.63802 0.40104,0.23698 1.13021,0.23698 0.54687,0 1.4401,-0.12761 z m 3.22655,-20.0156 v -3.77344 h 3.28125 v 3.77344 z m 0,22.9505 v -19.35936 h 3.28125 v 19.35936 z m 8.27602,0 v -19.35936 h 2.9349 v 2.71614 q 0.91145,-1.42187 2.42447,-2.27864 1.51302,-0.875 3.44531,-0.875 2.15104,0 3.51823,0.89323 1.38541,0.89323 1.95052,2.49739 2.29687,-3.39062 5.97916,-3.39062 2.88021,0 4.42968,1.60416 1.54948,1.58594 1.54948,4.90365 v 13.28905 h -3.26302 v -12.19531 q 0,-1.96874 -0.32812,-2.82551 -0.3099,-0.875 -1.14844,-1.40365 -0.83854,-0.52864 -1.96875,-0.52864 -2.04166,0 -3.39062,1.36718 -1.34896,1.34896 -1.34896,4.33854 v 11.24739 h -3.28124 v -12.57812 q 0,-2.1875 -0.80209,-3.28125 -0.80208,-1.09374 -2.62499,-1.09374 -1.38542,0 -2.57031,0.72916 -1.16667,0.72917 -1.69531,2.13281 -0.52865,1.40365 -0.52865,4.04687 v 10.04427 z m 44.35153,-6.23437 3.39063,0.41927 q -0.80209,2.97135 -2.97136,4.61197 -2.16926,1.64063 -5.54166,1.64063 -4.24739,0 -6.74478,-2.60677 -2.47917,-2.625 -2.47917,-7.34635 0,-4.88541 2.51562,-7.58333 2.51563,-2.69791 6.52604,-2.69791 3.88281,0 6.34375,2.64323 2.46093,2.64322 2.46093,7.43749 0,0.29167 -0.0182,0.875 h -14.43749 q 0.1823,3.1901 1.80469,4.88541 1.62239,1.69531 4.04687,1.69531 1.80469,0 3.08073,-0.94791 1.27604,-0.94792 2.02343,-3.02604 z m -10.77342,-5.30469 h 10.80988 q -0.21875,-2.4427 -1.23958,-3.66406 -1.56771,-1.89583 -4.0651,-1.89583 -2.26042,0 -3.80989,1.51302 -1.53125,1.51302 -1.69531,4.04687 z m 26.92444,11.53906 v -2.66146 l 12.3229,-14.14582 q -2.09635,0.10937 -3.70051,0.10937 h -7.89323 v -2.66145 h 15.82291 v 2.16927 l -10.48177,12.28644 -2.02343,2.24219 q 2.20573,-0.16406 4.13802,-0.16406 h 8.95051 v 2.82552 z m 19.17704,-9.67968 q 0,-5.3776 2.98958,-7.96614 2.49739,-2.15104 6.08854,-2.15104 3.99218,0 6.52603,2.625 2.53385,2.60676 2.53385,7.21874 0,3.73698 -1.1302,5.88802 -1.11198,2.13281 -3.26302,3.3177 -2.13281,1.1849 -4.66666,1.1849 -4.0651,0 -6.58073,-2.60677 -2.49739,-2.60677 -2.49739,-7.51041 z m 3.37239,0 q 0,3.71874 1.6224,5.57812 1.62239,1.84114 4.08333,1.84114 2.4427,0 4.0651,-1.85937 1.62239,-1.85938 1.62239,-5.66927 0,-3.59114 -1.64062,-5.43228 -1.6224,-1.85938 -4.04687,-1.85938 -2.46094,0 -4.08333,1.84115 -1.6224,1.84114 -1.6224,5.55989 z m 18.61196,9.67968 v -19.35936 h 2.95313 v 2.7526 q 2.13281,-3.1901 6.16145,-3.1901 1.75,0 3.20833,0.63802 1.47656,0.61979 2.20573,1.64062 0.72916,1.02083 1.02083,2.42448 0.18229,0.91146 0.18229,3.1901 v 11.90364 H 738.5726 V 241.8521 q 0,-2.0052 -0.38281,-2.98958 -0.38281,-1.0026 -1.36719,-1.58593 -0.96614,-0.60156 -2.27864,-0.60156 -2.09635,0 -3.6276,1.33072 -1.51302,1.33073 -1.51302,5.04948 v 10.57291 z m 34.01566,-6.23437 3.39062,0.41927 q -0.80208,2.97135 -2.97135,4.61197 -2.16927,1.64063 -5.54166,1.64063 -4.2474,0 -6.74479,-2.60677 -2.47916,-2.625 -2.47916,-7.34635 0,-4.88541 2.51562,-7.58333 2.51562,-2.69791 6.52603,-2.69791 3.88281,0 6.34375,2.64323 2.46093,2.64322 2.46093,7.43749 0,0.29167 -0.0182,0.875 h -14.43749 q 0.18229,3.1901 1.80468,4.88541 1.6224,1.69531 4.04688,1.69531 1.80468,0 3.08072,-0.94791 1.27604,-0.94792 2.02344,-3.02604 z m -10.77343,-5.30469 h 10.80989 q -0.21875,-2.4427 -1.23959,-3.66406 -1.5677,-1.89583 -4.0651,-1.89583 -2.26041,0 -3.80989,1.51302 -1.53125,1.51302 -1.69531,4.04687 z m 16.97134,5.76042 3.24479,-0.51042 q 0.27343,1.95052 1.51301,2.98958 1.25782,1.03906 3.5,1.03906 2.26042,0 3.35417,-0.91146 1.09374,-0.92968 1.09374,-2.16926 0,-1.11198 -0.96614,-1.75 -0.67448,-0.4375 -3.35416,-1.11198 -3.60938,-0.91146 -5.01302,-1.56771 -1.38542,-0.67448 -2.11458,-1.84114 -0.71094,-1.1849 -0.71094,-2.60677 0,-1.29427 0.58333,-2.38802 0.60157,-1.11198 1.6224,-1.84114 0.76562,-0.56511 2.07812,-0.94792 1.33073,-0.40104 2.84375,-0.40104 2.27864,0 3.99218,0.65625 1.73177,0.65625 2.55208,1.78645 0.82032,1.11198 1.13021,2.98959 l -3.20833,0.43749 q -0.21875,-1.49479 -1.27604,-2.33333 -1.03906,-0.83854 -2.95312,-0.83854 -2.26042,0 -3.22656,0.7474 -0.96615,0.74739 -0.96615,1.75 0,0.63802 0.40104,1.14843 0.40105,0.52865 1.25782,0.875 0.49218,0.18229 2.89843,0.83854 3.48177,0.92969 4.84896,1.53125 1.38541,0.58333 2.16926,1.71354 0.78386,1.13021 0.78386,2.80729 0,1.64062 -0.96615,3.09896 -0.94791,1.4401 -2.7526,2.24218 -1.80469,0.78386 -4.08333,0.78386 -3.77343,0 -5.76041,-1.56771 -1.96875,-1.56771 -2.51562,-4.64843 z"
       id="flowRoot4302"
       style="font-size:37.3333px;font-family:'Liberation Sans';-inkscape-font-specification:'Liberation Sans, Normal';text-align:center;text-anchor:middle"
       transform="translate(-20,252.36213)"
       aria-label="Employee period rule in different time zones" />
    <g
       id="g3709"
       transform="translate(0,19.999997)" />
    <path
       style="font-size:16px;line-height:1.25;font-family:'Liberation Sans';-inkscape-font-specification:'Liberation Sans, Normal';text-align:center;text-anchor:middle"
       d="m 159.07812,164.41207 4.39844,-11.45312 h 1.63281 l 4.6875,11.45312 h -1.72656 l -1.33594,-3.46875 h -4.78906 l -1.25781,3.46875 z m 3.30469,-4.70312 h 3.88281 l -1.19531,-3.17188 q -0.54687,-1.44531 -0.8125,-2.375 -0.21875,1.10156 -0.61719,2.1875 z m 8.44531,4.70312 v -8.29687 h 1.26563 v 1.17968 q 0.91406,-1.36718 2.64062,-1.36718 0.75,0 1.375,0.27343 0.63282,0.26563 0.94532,0.70313 0.3125,0.4375 0.4375,1.03906 0.0781,0.39063 0.0781,1.36719 v 5.10156 h -1.40625 v -5.04687 q 0,-0.85938 -0.16406,-1.28125 -0.16406,-0.42969 -0.58594,-0.67969 -0.41406,-0.25781 -0.97656,-0.25781 -0.89844,0 -1.55469,0.57031 -0.64844,0.57031 -0.64844,2.16406 v 4.53125 z m 19.02344,-2.67187 1.45313,0.17968 q -0.34375,1.27344 -1.27344,1.97657 -0.92969,0.70312 -2.375,0.70312 -1.82031,0 -2.89063,-1.11719 -1.0625,-1.125 -1.0625,-3.14843 0,-2.09375 1.07813,-3.25 1.07812,-1.15625 2.79687,-1.15625 1.66407,0 2.71875,1.13281 1.05469,1.13281 1.05469,3.1875 0,0.125 -0.008,0.375 h -6.1875 q 0.0781,1.36719 0.77344,2.09375 0.69531,0.72656 1.73437,0.72656 0.77344,0 1.32031,-0.40625 0.54688,-0.40625 0.86719,-1.29687 z m -4.61719,-2.27344 h 4.63282 q -0.0937,-1.04688 -0.53125,-1.57031 -0.67188,-0.8125 -1.74219,-0.8125 -0.96875,0 -1.63281,0.64843 -0.65625,0.64844 -0.72657,1.73438 z m 7.83594,4.94531 v -8.29687 h 1.25781 v 1.16406 q 0.39063,-0.60938 1.03907,-0.97656 0.64843,-0.375 1.47656,-0.375 0.92187,0 1.50781,0.38281 0.59375,0.38281 0.83594,1.07031 0.98437,-1.45312 2.5625,-1.45312 1.23437,0 1.89844,0.6875 0.66406,0.67968 0.66406,2.10156 v 5.69531 h -1.39844 v -5.22656 q 0,-0.84375 -0.14062,-1.21094 -0.13282,-0.375 -0.49219,-0.60156 -0.35938,-0.22656 -0.84375,-0.22656 -0.875,0 -1.45313,0.58593 -0.57812,0.57813 -0.57812,1.85938 v 4.82031 H 198 v -5.39062 q 0,-0.9375 -0.34375,-1.40625 -0.34375,-0.46875 -1.125,-0.46875 -0.59375,0 -1.10156,0.3125 -0.5,0.3125 -0.72657,0.91406 -0.22656,0.60156 -0.22656,1.73437 v 4.30469 z m 13.32813,3.17969 V 156.1152 h 1.28125 v 1.07812 q 0.45312,-0.63281 1.02343,-0.94531 0.57032,-0.32031 1.38282,-0.32031 1.0625,0 1.875,0.54687 0.8125,0.54688 1.22656,1.54688 0.41406,0.99218 0.41406,2.17968 0,1.27344 -0.46094,2.29688 -0.45312,1.01562 -1.32812,1.5625 -0.86719,0.53906 -1.82813,0.53906 -0.70312,0 -1.26562,-0.29687 -0.55469,-0.29688 -0.91406,-0.75 v 4.03906 z m 1.27343,-7.28125 q 0,1.60156 0.64844,2.36719 0.64844,0.76562 1.57031,0.76562 0.9375,0 1.60157,-0.78906 0.67187,-0.79688 0.67187,-2.46094 0,-1.58594 -0.65625,-2.375 -0.64844,-0.78906 -1.55469,-0.78906 -0.89843,0 -1.59375,0.84375 -0.6875,0.83594 -0.6875,2.4375 z m 7.59375,4.10156 v -11.45312 h 1.40625 v 11.45312 z m 3.0625,-4.14844 q 0,-2.30468 1.28125,-3.41406 1.07032,-0.92187 2.60938,-0.92187 1.71094,0 2.79687,1.125 1.08594,1.11718 1.08594,3.09375 0,1.60156 -0.48437,2.52343 -0.47657,0.91407 -1.39844,1.42188 -0.91406,0.50781 -2,0.50781 -1.74219,0 -2.82031,-1.11719 -1.07032,-1.11718 -1.07032,-3.21875 z m 1.44532,0 q 0,1.59375 0.69531,2.39063 0.69531,0.78906 1.75,0.78906 1.04687,0 1.74219,-0.79687 0.69531,-0.79688 0.69531,-2.42969 0,-1.53906 -0.70313,-2.32813 -0.69531,-0.79687 -1.73437,-0.79687 -1.05469,0 -1.75,0.78906 -0.69531,0.78906 -0.69531,2.38281 z m 7.91406,7.34375 -0.15625,-1.32031 q 0.46094,0.125 0.80469,0.125 0.46875,0 0.75,-0.15625 0.28125,-0.15625 0.46093,-0.4375 0.13282,-0.21094 0.42969,-1.04687 0.0391,-0.11719 0.125,-0.34375 l -3.14844,-8.3125 h 1.51563 l 1.72656,4.80468 q 0.33594,0.91407 0.60156,1.92188 0.24219,-0.96875 0.57813,-1.89063 l 1.77344,-4.83593 h 1.40625 l -3.15625,8.4375 q -0.50782,1.36718 -0.78907,1.88281 -0.375,0.69531 -0.85937,1.01562 -0.48438,0.32813 -1.15625,0.32813 -0.40625,0 -0.90625,-0.17188 z m 13.74219,-5.86718 1.45312,0.17968 q -0.34375,1.27344 -1.27344,1.97657 -0.92968,0.70312 -2.375,0.70312 -1.82031,0 -2.89062,-1.11719 -1.0625,-1.125 -1.0625,-3.14843 0,-2.09375 1.07812,-3.25 1.07813,-1.15625 2.79688,-1.15625 1.66406,0 2.71875,1.13281 1.05469,1.13281 1.05469,3.1875 0,0.125 -0.008,0.375 h -6.1875 q 0.0781,1.36719 0.77344,2.09375 0.69531,0.72656 1.73438,0.72656 0.77343,0 1.32031,-0.40625 0.54687,-0.40625 0.86719,-1.29687 z m -4.61719,-2.27344 h 4.63281 q -0.0937,-1.04688 -0.53125,-1.57031 -0.67187,-0.8125 -1.74219,-0.8125 -0.96875,0 -1.63281,0.64843 -0.65625,0.64844 -0.72656,1.73438 z m 13.51562,2.27344 1.45313,0.17968 q -0.34375,1.27344 -1.27344,1.97657 -0.92969,0.70312 -2.375,0.70312 -1.82031,0 -2.89062,-1.11719 -1.0625,-1.125 -1.0625,-3.14843 0,-2.09375 1.07812,-3.25 1.07813,-1.15625 2.79688,-1.15625 1.66406,0 2.71875,1.13281 1.05468,1.13281 1.05468,3.1875 0,0.125 -0.008,0.375 h -6.1875 q 0.0781,1.36719 0.77344,2.09375 0.69531,0.72656 1.73437,0.72656 0.77344,0 1.32032,-0.40625 0.54687,-0.40625 0.86718,-1.29687 z m -4.61718,-2.27344 h 4.63281 q -0.0937,-1.04688 -0.53125,-1.57031 -0.67188,-0.8125 -1.74219,-0.8125 -0.96875,0 -1.63281,0.64843 -0.65625,0.64844 -0.72656,1.73438 z m 12.28125,8.125 V 156.1152 h 1.28125 v 1.07812 q 0.45312,-0.63281 1.02343,-0.94531 0.57032,-0.32031 1.38282,-0.32031 1.0625,0 1.875,0.54687 0.8125,0.54688 1.22656,1.54688 0.41406,0.99218 0.41406,2.17968 0,1.27344 -0.46094,2.29688 -0.45312,1.01562 -1.32812,1.5625 -0.86719,0.53906 -1.82813,0.53906 -0.70312,0 -1.26562,-0.29687 -0.55469,-0.29688 -0.91406,-0.75 v 4.03906 z m 1.27343,-7.28125 q 0,1.60156 0.64844,2.36719 0.64844,0.76562 1.57031,0.76562 0.9375,0 1.60157,-0.78906 0.67187,-0.79688 0.67187,-2.46094 0,-1.58594 -0.65625,-2.375 -0.64844,-0.78906 -1.55469,-0.78906 -0.89843,0 -1.59375,0.84375 -0.6875,0.83594 -0.6875,2.4375 z m 13.30469,1.42969 1.45313,0.17968 q -0.34375,1.27344 -1.27344,1.97657 -0.92969,0.70312 -2.375,0.70312 -1.82031,0 -2.89063,-1.11719 -1.0625,-1.125 -1.0625,-3.14843 0,-2.09375 1.07813,-3.25 1.07812,-1.15625 2.79687,-1.15625 1.66407,0 2.71875,1.13281 1.05469,1.13281 1.05469,3.1875 0,0.125 -0.008,0.375 h -6.1875 q 0.0781,1.36719 0.77344,2.09375 0.69531,0.72656 1.73437,0.72656 0.77344,0 1.32031,-0.40625 0.54688,-0.40625 0.86719,-1.29687 z m -4.61719,-2.27344 h 4.63282 q -0.0937,-1.04688 -0.53125,-1.57031 -0.67188,-0.8125 -1.74219,-0.8125 -0.96875,0 -1.63281,0.64843 -0.65625,0.64844 -0.72657,1.73438 z m 7.82032,4.94531 v -8.29687 h 1.26562 v 1.25781 q 0.48438,-0.88281 0.89063,-1.16406 0.41406,-0.28125 0.90625,-0.28125 0.71093,0 1.44531,0.45312 l -0.48438,1.30469 q -0.51562,-0.30469 -1.03125,-0.30469 -0.46093,0 -0.82812,0.28125 -0.36719,0.27344 -0.52344,0.76563 -0.23437,0.75 -0.23437,1.64062 v 4.34375 z m 5.35156,-9.83594 v -1.61718 h 1.40625 v 1.61718 z m 0,9.83594 v -8.29687 h 1.40625 v 8.29687 z m 3.02344,-4.14844 q 0,-2.30468 1.28125,-3.41406 1.07031,-0.92187 2.60937,-0.92187 1.71094,0 2.79688,1.125 1.08593,1.11718 1.08593,3.09375 0,1.60156 -0.48437,2.52343 -0.47656,0.91407 -1.39844,1.42188 -0.91406,0.50781 -2,0.50781 -1.74219,0 -2.82031,-1.11719 -1.07031,-1.11718 -1.07031,-3.21875 z m 1.44531,0 q 0,1.59375 0.69531,2.39063 0.69531,0.78906 1.75,0.78906 1.04688,0 1.74219,-0.79687 0.69531,-0.79688 0.69531,-2.42969 0,-1.53906 -0.70312,-2.32813 -0.69532,-0.79687 -1.73438,-0.79687 -1.05469,0 -1.75,0.78906 -0.69531,0.78906 -0.69531,2.38281 z m 13.35937,4.14844 v -1.04687 q -0.78906,1.23437 -2.32031,1.23437 -0.99219,0 -1.82812,-0.54687 -0.82813,-0.54688 -1.28907,-1.52344 -0.45312,-0.98438 -0.45312,-2.25781 0,-1.24219 0.41406,-2.25 0.41406,-1.01563 1.24219,-1.55469 0.82812,-0.53906 1.85156,-0.53906 0.75,0 1.33594,0.32031 0.58594,0.3125 0.95312,0.82031 v -4.10937 h 1.39844 v 11.45312 z m -4.44531,-4.14062 q 0,1.59375 0.67188,2.38281 0.67187,0.78906 1.58593,0.78906 0.92188,0 1.5625,-0.75 0.64844,-0.75781 0.64844,-2.30469 0,-1.70312 -0.65625,-2.5 -0.65625,-0.79687 -1.61719,-0.79687 -0.9375,0 -1.57031,0.76562 -0.625,0.76563 -0.625,2.41407 z m 12.39063,4.14062 v -8.29687 h 1.26562 v 1.25781 q 0.48438,-0.88281 0.89063,-1.16406 0.41406,-0.28125 0.90625,-0.28125 0.71093,0 1.44531,0.45312 l -0.48438,1.30469 q -0.51562,-0.30469 -1.03125,-0.30469 -0.46093,0 -0.82812,0.28125 -0.36719,0.27344 -0.52344,0.76563 -0.23437,0.75 -0.23437,1.64062 v 4.34375 z m 10.78125,0 v -1.21875 q -0.96875,1.40625 -2.63282,1.40625 -0.73437,0 -1.375,-0.28125 -0.63281,-0.28125 -0.94531,-0.70312 -0.30469,-0.42969 -0.42969,-1.04688 -0.0859,-0.41406 -0.0859,-1.3125 v -5.14062 h 1.40625 v 4.60156 q 0,1.10156 0.0859,1.48437 0.13282,0.55469 0.5625,0.875 0.42969,0.3125 1.0625,0.3125 0.63282,0 1.1875,-0.32031 0.55469,-0.32812 0.78125,-0.88281 0.23438,-0.5625 0.23438,-1.625 v -4.44531 h 1.40625 v 8.29687 z m 3.42968,0 v -11.45312 h 1.40625 v 11.45312 z m 9.26563,-2.67187 1.45312,0.17968 q -0.34375,1.27344 -1.27343,1.97657 -0.92969,0.70312 -2.375,0.70312 -1.82032,0 -2.89063,-1.11719 -1.0625,-1.125 -1.0625,-3.14843 0,-2.09375 1.07813,-3.25 1.07812,-1.15625 2.79687,-1.15625 1.66406,0 2.71875,1.13281 1.05469,1.13281 1.05469,3.1875 0,0.125 -0.008,0.375 h -6.1875 q 0.0781,1.36719 0.77343,2.09375 0.69532,0.72656 1.73438,0.72656 0.77344,0 1.32031,-0.40625 0.54688,-0.40625 0.86719,-1.29687 z m -4.61719,-2.27344 h 4.63281 q -0.0937,-1.04688 -0.53125,-1.57031 -0.67187,-0.8125 -1.74218,-0.8125 -0.96875,0 -1.63282,0.64843 -0.65625,0.64844 -0.72656,1.73438 z m 17.69531,3.92187 q -0.78125,0.66407 -1.50781,0.9375 -0.71875,0.27344 -1.54687,0.27344 -1.36719,0 -2.10157,-0.66406 -0.73437,-0.67188 -0.73437,-1.71094 0,-0.60937 0.27344,-1.10937 0.28125,-0.50782 0.72656,-0.8125 0.45312,-0.30469 1.01562,-0.46094 0.41407,-0.10938 1.25,-0.21094 1.70313,-0.20312 2.50782,-0.48437 0.008,-0.28907 0.008,-0.36719 0,-0.85938 -0.39844,-1.21094 -0.53906,-0.47656 -1.60156,-0.47656 -0.99219,0 -1.46875,0.35156 -0.46875,0.34375 -0.69531,1.22656 l -1.375,-0.1875 q 0.1875,-0.88281 0.61718,-1.42187 0.42969,-0.54688 1.24219,-0.83594 0.8125,-0.29687 1.88281,-0.29687 1.0625,0 1.72657,0.25 0.66406,0.25 0.97656,0.63281 0.3125,0.375 0.4375,0.95312 0.0703,0.35938 0.0703,1.29688 v 1.875 q 0,1.96094 0.0859,2.48437 0.0937,0.51563 0.35937,0.99219 h -1.46875 q -0.21875,-0.4375 -0.28125,-1.02344 z m -0.11718,-3.14062 q -0.76563,0.3125 -2.29688,0.53125 -0.86719,0.125 -1.22656,0.28125 -0.35938,0.15625 -0.55469,0.46094 -0.19531,0.29687 -0.19531,0.66406 0,0.5625 0.42187,0.9375 0.42969,0.375 1.25,0.375 0.8125,0 1.44532,-0.35156 0.63281,-0.35938 0.92968,-0.97657 0.22657,-0.47656 0.22657,-1.40625 z m 3.60156,7.34375 V 156.1152 h 1.28125 v 1.07812 q 0.45312,-0.63281 1.02344,-0.94531 0.57031,-0.32031 1.38281,-0.32031 1.0625,0 1.875,0.54687 0.8125,0.54688 1.22656,1.54688 0.41406,0.99218 0.41406,2.17968 0,1.27344 -0.46093,2.29688 -0.45313,1.01562 -1.32813,1.5625 -0.86719,0.53906 -1.82812,0.53906 -0.70313,0 -1.26563,-0.29687 -0.55469,-0.29688 -0.91406,-0.75 v 4.03906 z m 1.27344,-7.28125 q 0,1.60156 0.64843,2.36719 0.64844,0.76562 1.57032,0.76562 0.9375,0 1.60156,-0.78906 0.67187,-0.79688 0.67187,-2.46094 0,-1.58594 -0.65625,-2.375 -0.64843,-0.78906 -1.55468,-0.78906 -0.89844,0 -1.59375,0.84375 -0.6875,0.83594 -0.6875,2.4375 z m 7.625,7.28125 V 156.1152 h 1.28125 v 1.07812 q 0.45312,-0.63281 1.02343,-0.94531 0.57032,-0.32031 1.38282,-0.32031 1.0625,0 1.875,0.54687 0.8125,0.54688 1.22656,1.54688 0.41406,0.99218 0.41406,2.17968 0,1.27344 -0.46094,2.29688 -0.45312,1.01562 -1.32812,1.5625 -0.86719,0.53906 -1.82813,0.53906 -0.70312,0 -1.26562,-0.29687 -0.55469,-0.29688 -0.91406,-0.75 v 4.03906 z m 1.27343,-7.28125 q 0,1.60156 0.64844,2.36719 0.64844,0.76562 1.57031,0.76562 0.9375,0 1.60157,-0.78906 0.67187,-0.79688 0.67187,-2.46094 0,-1.58594 -0.65625,-2.375 -0.64844,-0.78906 -1.55469,-0.78906 -0.89843,0 -1.59375,0.84375 -0.6875,0.83594 -0.6875,2.4375 z m 7.59375,4.10156 v -11.45312 h 1.40625 v 11.45312 z m 3.59375,-9.83594 v -1.61718 h 1.40625 v 1.61718 z m 0,9.83594 v -8.29687 h 1.40625 v 8.29687 z m 9.22657,-2.67187 1.45312,0.17968 q -0.34375,1.27344 -1.27344,1.97657 -0.92968,0.70312 -2.375,0.70312 -1.82031,0 -2.89062,-1.11719 -1.0625,-1.125 -1.0625,-3.14843 0,-2.09375 1.07812,-3.25 1.07813,-1.15625 2.79688,-1.15625 1.66406,0 2.71875,1.13281 1.05469,1.13281 1.05469,3.1875 0,0.125 -0.008,0.375 h -6.1875 q 0.0781,1.36719 0.77344,2.09375 0.69531,0.72656 1.73438,0.72656 0.77343,0 1.32031,-0.40625 0.54687,-0.40625 0.86719,-1.29687 z m -4.61719,-2.27344 h 4.63281 q -0.0937,-1.04688 -0.53125,-1.57031 -0.67187,-0.8125 -1.74219,-0.8125 -0.96875,0 -1.63281,0.64843 -0.65625,0.64844 -0.72656,1.73438 z m 7.27344,2.46875 1.39062,-0.21875 q 0.11719,0.83594 0.64844,1.28125 0.53906,0.44531 1.5,0.44531 0.96875,0 1.4375,-0.39062 0.46875,-0.39844 0.46875,-0.92969 0,-0.47656 -0.41406,-0.75 -0.28907,-0.1875 -1.4375,-0.47656 -1.54688,-0.39063 -2.14844,-0.67188 -0.59375,-0.28906 -0.90625,-0.78906 -0.30469,-0.50781 -0.30469,-1.11719 0,-0.55469 0.25,-1.02344 0.25781,-0.47656 0.69531,-0.78906 0.32813,-0.24219 0.89063,-0.40625 0.57031,-0.17187 1.21875,-0.17187 0.97656,0 1.71094,0.28125 0.74218,0.28125 1.09375,0.76562 0.35156,0.47656 0.48437,1.28125 l -1.375,0.1875 q -0.0937,-0.64062 -0.54687,-1 -0.44532,-0.35937 -1.26563,-0.35937 -0.96875,0 -1.38281,0.32031 -0.41406,0.32031 -0.41406,0.75 0,0.27344 0.17187,0.49219 0.17188,0.22656 0.53906,0.375 0.21094,0.0781 1.24219,0.35937 1.49219,0.39844 2.07813,0.65625 0.59375,0.25 0.92968,0.73438 0.33594,0.48437 0.33594,1.20312 0,0.70313 -0.41406,1.32813 -0.40625,0.61718 -1.17969,0.96093 -0.77344,0.33594 -1.75,0.33594 -1.61719,0 -2.46875,-0.67187 -0.84375,-0.67188 -1.07812,-1.99219 z m 16.07812,1.21875 0.20313,1.24219 q -0.59375,0.125 -1.0625,0.125 -0.76563,0 -1.1875,-0.24219 -0.42188,-0.24219 -0.59375,-0.63281 -0.17188,-0.39844 -0.17188,-1.66407 v -4.77343 h -1.03125 v -1.09375 h 1.03125 v -2.05469 l 1.39844,-0.84375 v 2.89844 h 1.41406 v 1.09375 h -1.41406 v 4.85156 q 0,0.60156 0.0703,0.77344 0.0781,0.17187 0.24219,0.27343 0.17187,0.10157 0.48437,0.10157 0.23438,0 0.61719,-0.0547 z m 1.38281,-8.57813 v -1.61718 h 1.40625 v 1.61718 z m 0,9.83594 v -8.29687 h 1.40625 v 8.29687 z m 3.54688,0 v -8.29687 h 1.25781 v 1.16406 q 0.39063,-0.60938 1.03906,-0.97656 0.64844,-0.375 1.47657,-0.375 0.92187,0 1.50781,0.38281 0.59375,0.38281 0.83594,1.07031 0.98437,-1.45312 2.5625,-1.45312 1.23437,0 1.89843,0.6875 0.66407,0.67968 0.66407,2.10156 v 5.69531 h -1.39844 v -5.22656 q 0,-0.84375 -0.14063,-1.21094 -0.13281,-0.375 -0.49218,-0.60156 -0.35938,-0.22656 -0.84375,-0.22656 -0.875,0 -1.45313,0.58593 -0.57812,0.57813 -0.57812,1.85938 v 4.82031 h -1.40625 v -5.39062 q 0,-0.9375 -0.34375,-1.40625 -0.34375,-0.46875 -1.125,-0.46875 -0.59375,0 -1.10157,0.3125 -0.5,0.3125 -0.72656,0.91406 -0.22656,0.60156 -0.22656,1.73437 v 4.30469 z m 19.00781,-2.67187 1.45313,0.17968 q -0.34375,1.27344 -1.27344,1.97657 -0.92969,0.70312 -2.375,0.70312 -1.82031,0 -2.89063,-1.11719 -1.0625,-1.125 -1.0625,-3.14843 0,-2.09375 1.07813,-3.25 1.07812,-1.15625 2.79687,-1.15625 1.66407,0 2.71875,1.13281 1.05469,1.13281 1.05469,3.1875 0,0.125 -0.008,0.375 H 415.5 q 0.0781,1.36719 0.77344,2.09375 0.69531,0.72656 1.73437,0.72656 0.77344,0 1.32031,-0.40625 0.54688,-0.40625 0.86719,-1.29687 z m -4.61719,-2.27344 h 4.63282 q -0.0937,-1.04688 -0.53125,-1.57031 -0.67188,-0.8125 -1.74219,-0.8125 -0.96875,0 -1.63281,0.64843 -0.65625,0.64844 -0.72657,1.73438 z m 11.53907,4.94531 v -1.14062 l 5.28125,-6.0625 q -0.89844,0.0469 -1.58594,0.0469 h -3.38281 v -1.14062 h 6.78125 v 0.92968 l -4.49219,5.26563 -0.86719,0.96094 q 0.94531,-0.0703 1.77344,-0.0703 h 3.83594 v 1.21094 z m 8.21875,-4.14844 q 0,-2.30468 1.28125,-3.41406 1.07031,-0.92187 2.60937,-0.92187 1.71094,0 2.79688,1.125 1.08593,1.11718 1.08593,3.09375 0,1.60156 -0.48437,2.52343 -0.47656,0.91407 -1.39844,1.42188 -0.91406,0.50781 -2,0.50781 -1.74219,0 -2.82031,-1.11719 -1.07031,-1.11718 -1.07031,-3.21875 z m 1.44531,0 q 0,1.59375 0.69531,2.39063 0.69531,0.78906 1.75,0.78906 1.04688,0 1.74219,-0.79687 0.69531,-0.79688 0.69531,-2.42969 0,-1.53906 -0.70312,-2.32813 -0.69532,-0.79687 -1.73438,-0.79687 -1.05469,0 -1.75,0.78906 -0.69531,0.78906 -0.69531,2.38281 z m 7.97656,4.14844 v -8.29687 h 1.26563 v 1.17968 q 0.91406,-1.36718 2.64062,-1.36718 0.75,0 1.375,0.27343 0.63281,0.26563 0.94531,0.70313 0.3125,0.4375 0.4375,1.03906 0.0781,0.39063 0.0781,1.36719 v 5.10156 h -1.40625 v -5.04687 q 0,-0.85938 -0.16406,-1.28125 -0.16407,-0.42969 -0.58594,-0.67969 -0.41406,-0.25781 -0.97656,-0.25781 -0.89844,0 -1.55469,0.57031 -0.64844,0.57031 -0.64844,2.16406 v 4.53125 z m 14.57813,-2.67187 1.45312,0.17968 q -0.34375,1.27344 -1.27344,1.97657 -0.92968,0.70312 -2.375,0.70312 -1.82031,0 -2.89062,-1.11719 -1.0625,-1.125 -1.0625,-3.14843 0,-2.09375 1.07812,-3.25 1.07813,-1.15625 2.79688,-1.15625 1.66406,0 2.71875,1.13281 1.05469,1.13281 1.05469,3.1875 0,0.125 -0.008,0.375 h -6.1875 q 0.0781,1.36719 0.77344,2.09375 0.69531,0.72656 1.73438,0.72656 0.77343,0 1.32031,-0.40625 0.54687,-0.40625 0.86719,-1.29687 z m -4.61719,-2.27344 h 4.63281 q -0.0937,-1.04688 -0.53125,-1.57031 -0.67187,-0.8125 -1.74219,-0.8125 -0.96875,0 -1.63281,0.64843 -0.65625,0.64844 -0.72656,1.73438 z m 11.75781,0.79687 q 0,-2.30468 1.28125,-3.41406 1.07031,-0.92187 2.60938,-0.92187 1.71093,0 2.79687,1.125 1.08594,1.11718 1.08594,3.09375 0,1.60156 -0.48438,2.52343 -0.47656,0.91407 -1.39843,1.42188 -0.91407,0.50781 -2,0.50781 -1.74219,0 -2.82032,-1.11719 -1.07031,-1.11718 -1.07031,-3.21875 z m 1.44531,0 q 0,1.59375 0.69532,2.39063 0.69531,0.78906 1.75,0.78906 1.04687,0 1.74218,-0.79687 0.69532,-0.79688 0.69532,-2.42969 0,-1.53906 -0.70313,-2.32813 -0.69531,-0.79687 -1.73437,-0.79687 -1.05469,0 -1.75,0.78906 -0.69532,0.78906 -0.69532,2.38281 z m 8.3125,4.14844 v -7.20312 h -1.24218 v -1.09375 h 1.24218 v -0.88282 q 0,-0.83593 0.14844,-1.24218 0.20313,-0.54688 0.71094,-0.88282 0.51562,-0.34375 1.4375,-0.34375 0.59375,0 1.3125,0.14063 l -0.21094,1.22656 q -0.4375,-0.0781 -0.82812,-0.0781 -0.64063,0 -0.90625,0.27343 -0.26563,0.27344 -0.26563,1.02344 v 0.76563 H 479.25 v 1.09375 h -1.61719 v 7.20312 z m 4.15625,0 v -7.20312 h -1.24218 v -1.09375 h 1.24218 v -0.88282 q 0,-0.83593 0.14844,-1.24218 0.20313,-0.54688 0.71094,-0.88282 0.51562,-0.34375 1.4375,-0.34375 0.59375,0 1.3125,0.14063 l -0.21094,1.22656 q -0.4375,-0.0781 -0.82812,-0.0781 -0.64063,0 -0.90625,0.27343 -0.26563,0.27344 -0.26563,1.02344 v 0.76563 h 1.61719 v 1.09375 h -1.61719 v 7.20312 z m 3.54688,-2.47656 1.39062,-0.21875 q 0.11719,0.83594 0.64844,1.28125 0.53906,0.44531 1.5,0.44531 0.96875,0 1.4375,-0.39062 0.46875,-0.39844 0.46875,-0.92969 0,-0.47656 -0.41406,-0.75 -0.28906,-0.1875 -1.4375,-0.47656 -1.54688,-0.39063 -2.14844,-0.67188 -0.59375,-0.28906 -0.90625,-0.78906 -0.30469,-0.50781 -0.30469,-1.11719 0,-0.55469 0.25,-1.02344 0.25782,-0.47656 0.69532,-0.78906 0.32812,-0.24219 0.89062,-0.40625 0.57031,-0.17187 1.21875,-0.17187 0.97656,0 1.71094,0.28125 0.74219,0.28125 1.09375,0.76562 0.35156,0.47656 0.48437,1.28125 l -1.375,0.1875 q -0.0937,-0.64062 -0.54687,-1 -0.44531,-0.35937 -1.26563,-0.35937 -0.96875,0 -1.38281,0.32031 -0.41406,0.32031 -0.41406,0.75 0,0.27344 0.17187,0.49219 0.17188,0.22656 0.53907,0.375 0.21093,0.0781 1.24218,0.35937 1.49219,0.39844 2.07813,0.65625 0.59375,0.25 0.92969,0.73438 0.33593,0.48437 0.33593,1.20312 0,0.70313 -0.41406,1.32813 -0.40625,0.61718 -1.17969,0.96093 -0.77343,0.33594 -1.75,0.33594 -1.61718,0 -2.46875,-0.67187 -0.84375,-0.67188 -1.07812,-1.99219 z m 14.24219,-0.19531 1.45312,0.17968 q -0.34375,1.27344 -1.27344,1.97657 -0.92968,0.70312 -2.375,0.70312 -1.82031,0 -2.89062,-1.11719 -1.0625,-1.125 -1.0625,-3.14843 0,-2.09375 1.07812,-3.25 1.07813,-1.15625 2.79688,-1.15625 1.66406,0 2.71875,1.13281 1.05469,1.13281 1.05469,3.1875 0,0.125 -0.008,0.375 h -6.1875 q 0.0781,1.36719 0.77344,2.09375 0.69531,0.72656 1.73438,0.72656 0.77343,0 1.32031,-0.40625 0.54687,-0.40625 0.86719,-1.29687 z m -4.61719,-2.27344 h 4.63281 q -0.0937,-1.04688 -0.53125,-1.57031 -0.67187,-0.8125 -1.74219,-0.8125 -0.96875,0 -1.63281,0.64843 -0.65625,0.64844 -0.72656,1.73438 z m 10.90625,3.6875 0.20312,1.24219 q -0.59375,0.125 -1.0625,0.125 -0.76562,0 -1.1875,-0.24219 -0.42187,-0.24219 -0.59375,-0.63281 -0.17187,-0.39844 -0.17187,-1.66407 v -4.77343 H 500.625 v -1.09375 h 1.03125 v -2.05469 l 1.39844,-0.84375 v 2.89844 h 1.41406 v 1.09375 h -1.41406 v 4.85156 q 0,0.60156 0.0703,0.77344 0.0781,0.17187 0.24219,0.27343 0.17187,0.10157 0.48437,0.10157 0.23438,0 0.61719,-0.0547 z m 5.29687,-2.89063 q 0,-2.30468 1.28125,-3.41406 1.07032,-0.92187 2.60938,-0.92187 1.71094,0 2.79687,1.125 1.08594,1.11718 1.08594,3.09375 0,1.60156 -0.48437,2.52343 -0.47657,0.91407 -1.39844,1.42188 -0.91406,0.50781 -2,0.50781 -1.74219,0 -2.82031,-1.11719 -1.07032,-1.11718 -1.07032,-3.21875 z m 1.44532,0 q 0,1.59375 0.69531,2.39063 0.69531,0.78906 1.75,0.78906 1.04687,0 1.74219,-0.79687 0.69531,-0.79688 0.69531,-2.42969 0,-1.53906 -0.70313,-2.32813 -0.69531,-0.79687 -1.73437,-0.79687 -1.05469,0 -1.75,0.78906 -0.69531,0.78906 -0.69531,2.38281 z m 8.3125,4.14844 v -7.20312 h -1.24219 v -1.09375 h 1.24219 v -0.88282 q 0,-0.83593 0.14843,-1.24218 0.20313,-0.54688 0.71094,-0.88282 0.51563,-0.34375 1.4375,-0.34375 0.59375,0 1.3125,0.14063 l -0.21094,1.22656 q -0.4375,-0.0781 -0.82812,-0.0781 -0.64063,0 -0.90625,0.27343 -0.26563,0.27344 -0.26563,1.02344 v 0.76563 h 1.61719 v 1.09375 h -1.61719 v 7.20312 z m 11.625,-1.25781 0.20312,1.24219 q -0.59375,0.125 -1.0625,0.125 -0.76562,0 -1.1875,-0.24219 -0.42187,-0.24219 -0.59375,-0.63281 -0.17187,-0.39844 -0.17187,-1.66407 v -4.77343 h -1.03125 v -1.09375 h 1.03125 v -2.05469 l 1.39843,-0.84375 v 2.89844 h 1.41407 v 1.09375 h -1.41407 v 4.85156 q 0,0.60156 0.0703,0.77344 0.0781,0.17187 0.24218,0.27343 0.17188,0.10157 0.48438,0.10157 0.23437,0 0.61719,-0.0547 z m 1.375,1.25781 v -11.45312 h 1.40625 v 4.10937 q 0.98437,-1.14062 2.48437,-1.14062 0.92188,0 1.60156,0.36718 0.67969,0.35938 0.96875,1 0.29688,0.64063 0.29688,1.85938 v 5.25781 H 537.875 v -5.25781 q 0,-1.05469 -0.46094,-1.53125 -0.45312,-0.48438 -1.28906,-0.48438 -0.625,0 -1.17969,0.32813 -0.54687,0.32031 -0.78125,0.875 -0.23437,0.55469 -0.23437,1.53125 v 4.53906 z m 14.57812,-2.67187 1.45313,0.17968 q -0.34375,1.27344 -1.27344,1.97657 -0.92969,0.70312 -2.375,0.70312 -1.82031,0 -2.89063,-1.11719 -1.0625,-1.125 -1.0625,-3.14843 0,-2.09375 1.07813,-3.25 1.07812,-1.15625 2.79687,-1.15625 1.66407,0 2.71875,1.13281 1.05469,1.13281 1.05469,3.1875 0,0.125 -0.008,0.375 h -6.1875 q 0.0781,1.36719 0.77344,2.09375 0.69531,0.72656 1.73437,0.72656 0.77344,0 1.32031,-0.40625 0.54688,-0.40625 0.86719,-1.29687 z m -4.61719,-2.27344 h 4.63282 q -0.0937,-1.04688 -0.53125,-1.57031 -0.67188,-0.8125 -1.74219,-0.8125 -0.96875,0 -1.63281,0.64843 -0.65625,0.64844 -0.72657,1.73438 z m 12.26563,4.94531 v -8.29687 h 1.26562 v 1.25781 q 0.48438,-0.88281 0.89063,-1.16406 0.41406,-0.28125 0.90625,-0.28125 0.71094,0 1.44531,0.45312 l -0.48437,1.30469 q -0.51563,-0.30469 -1.03125,-0.30469 -0.46094,0 -0.82813,0.28125 -0.36719,0.27344 -0.52344,0.76563 -0.23437,0.75 -0.23437,1.64062 v 4.34375 z m 11.02344,-2.67187 1.45312,0.17968 q -0.34375,1.27344 -1.27344,1.97657 -0.92968,0.70312 -2.375,0.70312 -1.82031,0 -2.89062,-1.11719 -1.0625,-1.125 -1.0625,-3.14843 0,-2.09375 1.07812,-3.25 1.07813,-1.15625 2.79688,-1.15625 1.66406,0 2.71875,1.13281 1.05469,1.13281 1.05469,3.1875 0,0.125 -0.008,0.375 h -6.1875 q 0.0781,1.36719 0.77344,2.09375 0.69531,0.72656 1.73438,0.72656 0.77343,0 1.32031,-0.40625 0.54687,-0.40625 0.86719,-1.29687 z m -4.61719,-2.27344 h 4.63281 q -0.0937,-1.04688 -0.53125,-1.57031 -0.67187,-0.8125 -1.74219,-0.8125 -0.96875,0 -1.63281,0.64843 -0.65625,0.64844 -0.72656,1.73438 z m 7.80469,4.94531 v -11.45312 h 1.40625 v 11.45312 z m 9,-1.02344 q -0.78125,0.66407 -1.50782,0.9375 -0.71875,0.27344 -1.54687,0.27344 -1.36719,0 -2.10156,-0.66406 -0.73438,-0.67188 -0.73438,-1.71094 0,-0.60937 0.27344,-1.10937 0.28125,-0.50782 0.72656,-0.8125 0.45313,-0.30469 1.01563,-0.46094 0.41406,-0.10938 1.25,-0.21094 1.70312,-0.20312 2.50781,-0.48437 0.008,-0.28907 0.008,-0.36719 0,-0.85938 -0.39844,-1.21094 -0.53906,-0.47656 -1.60156,-0.47656 -0.99219,0 -1.46875,0.35156 -0.46875,0.34375 -0.69531,1.22656 l -1.375,-0.1875 q 0.1875,-0.88281 0.61719,-1.42187 0.42968,-0.54688 1.24218,-0.83594 0.8125,-0.29687 1.88282,-0.29687 1.0625,0 1.72656,0.25 0.66406,0.25 0.97656,0.63281 0.3125,0.375 0.4375,0.95312 0.0703,0.35938 0.0703,1.29688 v 1.875 q 0,1.96094 0.0859,2.48437 0.0937,0.51563 0.35938,0.99219 h -1.46875 q -0.21875,-0.4375 -0.28125,-1.02344 z m -0.11719,-3.14062 q -0.76563,0.3125 -2.29688,0.53125 -0.86718,0.125 -1.22656,0.28125 -0.35937,0.15625 -0.55469,0.46094 -0.19531,0.29687 -0.19531,0.66406 0,0.5625 0.42188,0.9375 0.42968,0.375 1.25,0.375 0.8125,0 1.44531,-0.35156 0.63281,-0.35938 0.92969,-0.97657 0.22656,-0.47656 0.22656,-1.40625 z m 6.67187,2.90625 0.20313,1.24219 q -0.59375,0.125 -1.0625,0.125 -0.76563,0 -1.1875,-0.24219 -0.42188,-0.24219 -0.59375,-0.63281 -0.17188,-0.39844 -0.17188,-1.66407 v -4.77343 h -1.03125 v -1.09375 h 1.03125 v -2.05469 l 1.39844,-0.84375 v 2.89844 h 1.41406 v 1.09375 h -1.41406 v 4.85156 q 0,0.60156 0.0703,0.77344 0.0781,0.17187 0.24219,0.27343 0.17188,0.10157 0.48438,0.10157 0.23437,0 0.61718,-0.0547 z m 7.05469,-1.41406 1.45313,0.17968 q -0.34375,1.27344 -1.27344,1.97657 -0.92969,0.70312 -2.375,0.70312 -1.82031,0 -2.89063,-1.11719 -1.0625,-1.125 -1.0625,-3.14843 0,-2.09375 1.07813,-3.25 1.07812,-1.15625 2.79687,-1.15625 1.66407,0 2.71875,1.13281 1.05469,1.13281 1.05469,3.1875 0,0.125 -0.008,0.375 h -6.1875 q 0.0781,1.36719 0.77344,2.09375 0.69531,0.72656 1.73437,0.72656 0.77344,0 1.32031,-0.40625 0.54688,-0.40625 0.86719,-1.29687 z m -4.61719,-2.27344 h 4.63282 q -0.0937,-1.04688 -0.53125,-1.57031 -0.67188,-0.8125 -1.74219,-0.8125 -0.96875,0 -1.63281,0.64843 -0.65625,0.64844 -0.72657,1.73438 z m 13.21875,4.94531 v -1.04687 q -0.78906,1.23437 -2.32031,1.23437 -0.99219,0 -1.82812,-0.54687 -0.82813,-0.54688 -1.28907,-1.52344 -0.45312,-0.98438 -0.45312,-2.25781 0,-1.24219 0.41406,-2.25 0.41406,-1.01563 1.24219,-1.55469 0.82812,-0.53906 1.85156,-0.53906 0.75,0 1.33594,0.32031 0.58594,0.3125 0.95312,0.82031 v -4.10937 h 1.39844 v 11.45312 z m -4.44531,-4.14062 q 0,1.59375 0.67188,2.38281 0.67187,0.78906 1.58593,0.78906 0.92188,0 1.5625,-0.75 0.64844,-0.75781 0.64844,-2.30469 0,-1.70312 -0.65625,-2.5 -0.65625,-0.79687 -1.61719,-0.79687 -0.9375,0 -1.57031,0.76562 -0.625,0.76563 -0.625,2.41407 z m 18.08594,1.46875 1.45312,0.17968 q -0.34375,1.27344 -1.27343,1.97657 -0.92969,0.70312 -2.375,0.70312 -1.82032,0 -2.89063,-1.11719 -1.0625,-1.125 -1.0625,-3.14843 0,-2.09375 1.07813,-3.25 1.07812,-1.15625 2.79687,-1.15625 1.66406,0 2.71875,1.13281 1.05469,1.13281 1.05469,3.1875 0,0.125 -0.008,0.375 h -6.1875 q 0.0781,1.36719 0.77343,2.09375 0.69532,0.72656 1.73438,0.72656 0.77344,0 1.32031,-0.40625 0.54688,-0.40625 0.86719,-1.29687 z m -4.61719,-2.27344 h 4.63281 q -0.0937,-1.04688 -0.53125,-1.57031 -0.67187,-0.8125 -1.74218,-0.8125 -0.96875,0 -1.63282,0.64843 -0.65625,0.64844 -0.72656,1.73438 z m 7.83594,4.94531 v -8.29687 h 1.25781 v 1.16406 q 0.39063,-0.60938 1.03906,-0.97656 0.64844,-0.375 1.47657,-0.375 0.92187,0 1.50781,0.38281 0.59375,0.38281 0.83594,1.07031 0.98437,-1.45312 2.5625,-1.45312 1.23437,0 1.89843,0.6875 0.66407,0.67968 0.66407,2.10156 v 5.69531 H 626.875 v -5.22656 q 0,-0.84375 -0.14063,-1.21094 -0.13281,-0.375 -0.49218,-0.60156 -0.35938,-0.22656 -0.84375,-0.22656 -0.875,0 -1.45313,0.58593 -0.57812,0.57813 -0.57812,1.85938 v 4.82031 h -1.40625 v -5.39062 q 0,-0.9375 -0.34375,-1.40625 -0.34375,-0.46875 -1.125,-0.46875 -0.59375,0 -1.10157,0.3125 -0.5,0.3125 -0.72656,0.91406 -0.22656,0.60156 -0.22656,1.73437 v 4.30469 z m 13.32812,3.17969 V 156.1152 h 1.28125 v 1.07812 q 0.45313,-0.63281 1.02344,-0.94531 0.57031,-0.32031 1.38281,-0.32031 1.0625,0 1.875,0.54687 0.8125,0.54688 1.22657,1.54688 0.41406,0.99218 0.41406,2.17968 0,1.27344 -0.46094,2.29688 -0.45312,1.01562 -1.32812,1.5625 -0.86719,0.53906 -1.82813,0.53906 -0.70312,0 -1.26562,-0.29687 -0.55469,-0.29688 -0.91407,-0.75 v 4.03906 z m 1.27344,-7.28125 q 0,1.60156 0.64844,2.36719 0.64844,0.76562 1.57031,0.76562 0.9375,0 1.60156,-0.78906 0.67188,-0.79688 0.67188,-2.46094 0,-1.58594 -0.65625,-2.375 -0.64844,-0.78906 -1.55469,-0.78906 -0.89844,0 -1.59375,0.84375 -0.6875,0.83594 -0.6875,2.4375 z m 7.59375,4.10156 v -11.45312 h 1.40625 v 11.45312 z m 3.0625,-4.14844 q 0,-2.30468 1.28125,-3.41406 1.07031,-0.92187 2.60938,-0.92187 1.71093,0 2.79687,1.125 1.08594,1.11718 1.08594,3.09375 0,1.60156 -0.48438,2.52343 -0.47656,0.91407 -1.39843,1.42188 -0.91407,0.50781 -2,0.50781 -1.74219,0 -2.82032,-1.11719 -1.07031,-1.11718 -1.07031,-3.21875 z m 1.44531,0 q 0,1.59375 0.69532,2.39063 0.69531,0.78906 1.75,0.78906 1.04687,0 1.74218,-0.79687 0.69532,-0.79688 0.69532,-2.42969 0,-1.53906 -0.70313,-2.32813 -0.69531,-0.79687 -1.73437,-0.79687 -1.05469,0 -1.75,0.78906 -0.69532,0.78906 -0.69532,2.38281 z m 7.91407,7.34375 -0.15625,-1.32031 q 0.46093,0.125 0.80468,0.125 0.46875,0 0.75,-0.15625 0.28125,-0.15625 0.46094,-0.4375 0.13281,-0.21094 0.42969,-1.04687 0.0391,-0.11719 0.125,-0.34375 l -3.14844,-8.3125 h 1.51563 l 1.72656,4.80468 q 0.33594,0.91407 0.60156,1.92188 0.24219,-0.96875 0.57813,-1.89063 l 1.77343,-4.83593 h 1.40625 l -3.15625,8.4375 q -0.50781,1.36718 -0.78906,1.88281 -0.375,0.69531 -0.85937,1.01562 -0.48438,0.32813 -1.15625,0.32813 -0.40625,0 -0.90625,-0.17188 z m 13.74218,-5.86718 1.45313,0.17968 q -0.34375,1.27344 -1.27344,1.97657 -0.92969,0.70312 -2.375,0.70312 -1.82031,0 -2.89062,-1.11719 -1.0625,-1.125 -1.0625,-3.14843 0,-2.09375 1.07812,-3.25 1.07813,-1.15625 2.79688,-1.15625 1.66406,0 2.71875,1.13281 1.05468,1.13281 1.05468,3.1875 0,0.125 -0.008,0.375 h -6.1875 q 0.0781,1.36719 0.77344,2.09375 0.69531,0.72656 1.73437,0.72656 0.77344,0 1.32032,-0.40625 0.54687,-0.40625 0.86718,-1.29687 z m -4.61718,-2.27344 h 4.63281 q -0.0937,-1.04688 -0.53125,-1.57031 -0.67188,-0.8125 -1.74219,-0.8125 -0.96875,0 -1.63281,0.64843 -0.65625,0.64844 -0.72656,1.73438 z m 13.51562,2.27344 1.45313,0.17968 q -0.34375,1.27344 -1.27344,1.97657 -0.92969,0.70312 -2.375,0.70312 -1.82031,0 -2.89063,-1.11719 -1.0625,-1.125 -1.0625,-3.14843 0,-2.09375 1.07813,-3.25 1.07812,-1.15625 2.79687,-1.15625 1.66407,0 2.71875,1.13281 1.05469,1.13281 1.05469,3.1875 0,0.125 -0.008,0.375 h -6.1875 q 0.0781,1.36719 0.77344,2.09375 0.69531,0.72656 1.73437,0.72656 0.77344,0 1.32031,-0.40625 0.54688,-0.40625 0.86719,-1.29687 z m -4.61719,-2.27344 h 4.63282 q -0.0937,-1.04688 -0.53125,-1.57031 -0.67188,-0.8125 -1.74219,-0.8125 -0.96875,0 -1.63281,0.64843 -0.65625,0.64844 -0.72657,1.73438 z m 8.23438,4.94531 v -1.60156 h 1.60156 v 1.60156 z"
       id="flowRoot4302-6"
       transform="translate(-20,372.36182)"
       aria-label="An employee period rule applies time zone offset of the related employee." />
    <flowRoot
       xml:space="preserve"
       id="flowRoot937"
       style="color:#000000;font-style:normal;font-variant:normal;font-weight:normal;font-stretch:normal;font-size:16px;font-family:Arial;-inkscape-font-specification:Arial;text-align:center;writing-mode:lr-tb;text-anchor:middle;display:inline;overflow:visible;visibility:visible;opacity:1;vector-effect:none;fill:#000000;fill-opacity:1;fill-rule:nonzero;stroke:#8f5902;stroke-width:3;stroke-linecap:round;stroke-linejoin:round;stroke-miterlimit:4;stroke-dasharray:none;stroke-dashoffset:0;stroke-opacity:1;marker:none;enable-background:accumulate"><flowRegion
         id="flowRegion939"><rect
           id="rect941"
           width="52.987019"
           height="116.1039"
           x="-94.285713"
           y="141.03894" /></flowRegion><flowPara
         id="flowPara943" /></flowRoot>
    <g
       id="g80"
       transform="translate(-0.86929902,86.928291)"
       style="display:inline" />
    <g
       id="g75"
       style="display:inline"
       transform="translate(-69.5,1.87389)">
      <path
         style="display:inline;fill:none;stroke:#555753;stroke-width:1;stroke-linecap:round;stroke-linejoin:round;stroke-dasharray:none;stroke-opacity:1"
         d="M 199,648.3619 V 637.9004"
         id="path6-3" />
      <g
         id="flowRoot2-4-9"
         style="font-size:14px;line-height:0.01%;font-family:'Liberation Sans';-inkscape-font-specification:'Liberation Sans, Normal';text-align:center;text-anchor:middle"
         transform="translate(-289.40625,568.0496)"
         aria-label="2024-02-04&#10;Sun">
        <path
           style="line-height:1.25"
           d="m 410.64746,46.03146 v 1.182618 h -6.62402 q -0.0137,-0.444336 0.14355,-0.854493 0.25293,-0.676757 0.80664,-1.333007 0.56055,-0.65625 1.61328,-1.517579 1.63379,-1.339843 2.20801,-2.11914 0.57422,-0.786133 0.57422,-1.483399 0,-0.731445 -0.52637,-1.230468 -0.51953,-0.50586 -1.36035,-0.50586 -0.88867,0 -1.42187,0.533203 -0.53321,0.533203 -0.54004,1.476563 l -1.26465,-0.129883 q 0.12988,-1.415039 0.97754,-2.15332 0.84765,-0.745117 2.27637,-0.745117 1.44238,0 2.2832,0.799804 0.84082,0.799805 0.84082,1.982422 0,0.601563 -0.24609,1.182617 -0.2461,0.581055 -0.82032,1.223633 -0.56738,0.642578 -1.89355,1.763672 -1.10742,0.929687 -1.42188,1.264648 -0.31445,0.328125 -0.51953,0.663086 z m 1.31934,-3.759765 q 0,-1.777344 0.3623,-2.857422 0.36914,-1.086914 1.08692,-1.674805 0.7246,-0.58789 1.81835,-0.58789 0.80665,0 1.41504,0.328125 0.6084,0.321289 1.00489,0.936523 0.39648,0.608398 0.62207,1.490234 0.22558,0.875 0.22558,2.365235 0,1.763672 -0.3623,2.850586 -0.36231,1.080078 -1.08692,1.674804 -0.71777,0.587891 -1.81836,0.587891 -1.44921,0 -2.27636,-1.039063 -0.99121,-1.250976 -0.99121,-4.074218 z m 1.26465,0 q 0,2.467773 0.57421,3.288086 0.58106,0.813476 1.42871,0.813476 0.84766,0 1.42188,-0.820312 0.58105,-0.820313 0.58105,-3.28125 0,-2.47461 -0.58105,-3.288086 -0.57422,-0.813477 -1.43555,-0.813477 -0.84765,0 -1.35351,0.717774 -0.63574,0.916015 -0.63574,3.383789 z m 12.98828,3.759765 v 1.182618 h -6.62403 q -0.0137,-0.444336 0.14356,-0.854493 0.25293,-0.676757 0.80664,-1.333007 0.56055,-0.65625 1.61328,-1.517579 1.63379,-1.339843 2.20801,-2.11914 0.57422,-0.786133 0.57422,-1.483399 0,-0.731445 -0.52637,-1.230468 -0.51953,-0.50586 -1.36035,-0.50586 -0.88867,0 -1.42188,0.533203 -0.5332,0.533203 -0.54004,1.476563 l -1.26465,-0.129883 q 0.12989,-1.415039 0.97754,-2.15332 0.84766,-0.745117 2.27637,-0.745117 1.44238,0 2.2832,0.799804 0.84082,0.799805 0.84082,1.982422 0,0.601563 -0.24609,1.182617 -0.24609,0.581055 -0.82031,1.223633 -0.56738,0.642578 -1.89356,1.763672 -1.10742,0.929687 -1.42187,1.264648 -0.31445,0.328125 -0.51953,0.663086 z m 5.26367,1.182618 v -2.399415 h -4.34766 v -1.127929 l 4.57324,-6.494141 h 1.00489 v 6.494141 h 1.35351 v 1.127929 h -1.35351 v 2.399415 z m 0,-3.527344 v -4.518555 l -3.1377,4.518555 z m 3.70508,0.519531 V 42.96896 h 3.78027 v 1.237305 z m 4.79882,-1.93457 q 0,-1.777344 0.36231,-2.857422 0.36914,-1.086914 1.08691,-1.674805 0.72461,-0.58789 1.81836,-0.58789 0.80664,0 1.41504,0.328125 0.6084,0.321289 1.00488,0.936523 0.39649,0.608398 0.62207,1.490234 0.22559,0.875 0.22559,2.365235 0,1.763672 -0.3623,2.850586 -0.36231,1.080078 -1.08692,1.674804 -0.71777,0.587891 -1.81836,0.587891 -1.44922,0 -2.27636,-1.039063 -0.99122,-1.250976 -0.99122,-4.074218 z m 1.26465,0 q 0,2.467773 0.57422,3.288086 0.58106,0.813476 1.42871,0.813476 0.84766,0 1.42188,-0.820312 0.58105,-0.820313 0.58105,-3.28125 0,-2.47461 -0.58105,-3.288086 -0.57422,-0.813477 -1.43555,-0.813477 -0.84766,0 -1.35351,0.717774 -0.63575,0.916015 -0.63575,3.383789 z m 12.98828,3.759765 v 1.182618 h -6.62402 q -0.0137,-0.444336 0.14356,-0.854493 0.25293,-0.676757 0.80664,-1.333007 0.56054,-0.65625 1.61328,-1.517579 1.63379,-1.339843 2.20801,-2.11914 0.57421,-0.786133 0.57421,-1.483399 0,-0.731445 -0.52636,-1.230468 -0.51953,-0.50586 -1.36035,-0.50586 -0.88868,0 -1.42188,0.533203 -0.5332,0.533203 -0.54004,1.476563 l -1.26465,-0.129883 q 0.12989,-1.415039 0.97754,-2.15332 0.84766,-0.745117 2.27637,-0.745117 1.44238,0 2.2832,0.799804 0.84082,0.799805 0.84082,1.982422 0,0.601563 -0.24609,1.182617 -0.2461,0.581055 -0.82031,1.223633 -0.56739,0.642578 -1.89356,1.763672 -1.10742,0.929687 -1.42187,1.264648 -0.31446,0.328125 -0.51953,0.663086 z m 1.18262,-1.825195 V 42.96896 h 3.78027 v 1.237305 z m 4.79883,-1.93457 q 0,-1.777344 0.3623,-2.857422 0.36914,-1.086914 1.08692,-1.674805 0.72461,-0.58789 1.81836,-0.58789 0.80664,0 1.41504,0.328125 0.6084,0.321289 1.00488,0.936523 0.39648,0.608398 0.62207,1.490234 0.22559,0.875 0.22559,2.365235 0,1.763672 -0.36231,2.850586 -0.3623,1.080078 -1.08691,1.674804 -0.71778,0.587891 -1.81836,0.587891 -1.44922,0 -2.27637,-1.039063 -0.99121,-1.250976 -0.99121,-4.074218 z m 1.26465,0 q 0,2.467773 0.57422,3.288086 0.58105,0.813476 1.42871,0.813476 0.84765,0 1.42187,-0.820312 0.58106,-0.820313 0.58106,-3.28125 0,-2.47461 -0.58106,-3.288086 -0.57422,-0.813477 -1.43554,-0.813477 -0.84766,0 -1.35352,0.717774 -0.63574,0.916015 -0.63574,3.383789 z m 10.46582,4.942383 v -2.399415 h -4.34766 v -1.127929 l 4.57324,-6.494141 h 1.00489 v 6.494141 h 1.35351 v 1.127929 h -1.35351 v 2.399415 z m 0,-3.527344 v -4.518555 l -3.1377,4.518555 z"
           id="path1" />
        <path
           style="line-height:1.25"
           d="m 427.58008,61.494351 1.25097,-0.109375 q 0.0889,0.751953 0.41016,1.237305 0.32813,0.478515 1.01172,0.779297 0.68359,0.293945 1.53809,0.293945 0.75878,0 1.33984,-0.225586 0.58105,-0.225586 0.86133,-0.615234 0.28711,-0.396485 0.28711,-0.861329 0,-0.471679 -0.27344,-0.820312 -0.27344,-0.355469 -0.90234,-0.594727 -0.40332,-0.157226 -1.78418,-0.485351 -1.38086,-0.334961 -1.93457,-0.628906 -0.71778,-0.375977 -1.07325,-0.929688 -0.34863,-0.560547 -0.34863,-1.250977 0,-0.758789 0.43066,-1.415039 0.43067,-0.663086 1.25782,-1.004882 0.82715,-0.341797 1.83886,-0.341797 1.11426,0 1.96192,0.362304 0.85449,0.355469 1.3125,1.052735 0.45801,0.697265 0.49219,1.579101 l -1.27149,0.0957 q -0.10254,-0.950195 -0.69726,-1.435546 -0.58789,-0.485352 -1.74317,-0.485352 -1.20312,0 -1.75683,0.444336 -0.54688,0.4375 -0.54688,1.05957 0,0.540039 0.38965,0.888672 0.38281,0.348633 1.99609,0.717774 1.62012,0.362304 2.22168,0.635742 0.875,0.40332 1.29199,1.02539 0.417,0.615235 0.417,1.421875 0,0.799805 -0.45801,1.510743 -0.45801,0.704101 -1.31934,1.100586 -0.85449,0.389648 -1.92773,0.389648 -1.36035,0 -2.2832,-0.396484 -0.91602,-0.396485 -1.44239,-1.189454 -0.51953,-0.799804 -0.54687,-1.804687 z m 14.38965,3.219727 v -1.066407 q -0.84766,1.230469 -2.30371,1.230469 -0.64258,0 -1.20313,-0.246094 -0.55371,-0.246093 -0.82715,-0.615234 -0.2666,-0.375977 -0.37597,-0.916016 -0.0752,-0.362304 -0.0752,-1.148437 v -4.498047 h 1.23047 v 4.026367 q 0,0.963867 0.0752,1.298828 0.11622,0.485352 0.49219,0.765625 0.37598,0.273438 0.92969,0.273438 0.55371,0 1.03906,-0.280274 0.48535,-0.287109 0.6836,-0.772461 0.20507,-0.492187 0.20507,-1.421875 v -3.889648 h 1.23047 v 7.259766 z m 3.02832,0 v -7.259766 h 1.10742 v 1.032226 q 0.7998,-1.196289 2.31055,-1.196289 0.65625,0 1.20312,0.239258 0.55371,0.232422 0.82715,0.615235 0.27344,0.382812 0.38281,0.909179 0.0684,0.341797 0.0684,1.196289 v 4.463868 h -1.23047 v -4.416016 q 0,-0.751953 -0.14355,-1.121094 -0.14356,-0.375976 -0.5127,-0.594726 -0.3623,-0.225586 -0.85449,-0.225586 -0.78613,0 -1.36035,0.499023 -0.56738,0.499024 -0.56738,1.893555 v 3.964844 z"
           id="path2" />
      </g>
      <path
         style="display:inline;fill:none;stroke:#000000;stroke-width:1;stroke-linecap:round;stroke-linejoin:round;stroke-dasharray:none;stroke-opacity:1;marker-start:url(#ArrowTriangleStylized-4_reversed)"
         d="M 450,648.36222 H 120"
         id="path17-0" />
      <path
         style="display:inline;fill:none;stroke:#555753;stroke-width:1;stroke-linecap:round;stroke-linejoin:round;stroke-dasharray:none;stroke-opacity:1"
         d="M 309,648.3619 V 637.9004"
         id="path8" />
      <path
         style="display:inline;fill:none;stroke:#555753;stroke-width:1;stroke-linecap:round;stroke-linejoin:round;stroke-dasharray:none;stroke-opacity:1"
         d="m 419,648.36979 v -10.4615"
         id="path8-4" />
      <g
         id="flowRoot8"
         style="font-size:14px;line-height:0.01%;font-family:'Liberation Sans';-inkscape-font-specification:'Liberation Sans, Normal';text-align:center;text-anchor:middle"
         transform="translate(-179.40609,568.0496)"
         aria-label="2024-02-05&#10;Mon">
        <path
           style="line-height:1.25"
           d="m 410.64746,46.03146 v 1.182618 h -6.62402 q -0.0137,-0.444336 0.14355,-0.854493 0.25293,-0.676757 0.80664,-1.333007 0.56055,-0.65625 1.61328,-1.517579 1.63379,-1.339843 2.20801,-2.11914 0.57422,-0.786133 0.57422,-1.483399 0,-0.731445 -0.52637,-1.230468 -0.51953,-0.50586 -1.36035,-0.50586 -0.88867,0 -1.42187,0.533203 -0.53321,0.533203 -0.54004,1.476563 l -1.26465,-0.129883 q 0.12988,-1.415039 0.97754,-2.15332 0.84765,-0.745117 2.27637,-0.745117 1.44238,0 2.2832,0.799804 0.84082,0.799805 0.84082,1.982422 0,0.601563 -0.24609,1.182617 -0.2461,0.581055 -0.82032,1.223633 -0.56738,0.642578 -1.89355,1.763672 -1.10742,0.929687 -1.42188,1.264648 -0.31445,0.328125 -0.51953,0.663086 z m 1.31934,-3.759765 q 0,-1.777344 0.3623,-2.857422 0.36914,-1.086914 1.08692,-1.674805 0.7246,-0.58789 1.81835,-0.58789 0.80665,0 1.41504,0.328125 0.6084,0.321289 1.00489,0.936523 0.39648,0.608398 0.62207,1.490234 0.22558,0.875 0.22558,2.365235 0,1.763672 -0.3623,2.850586 -0.36231,1.080078 -1.08692,1.674804 -0.71777,0.587891 -1.81836,0.587891 -1.44921,0 -2.27636,-1.039063 -0.99121,-1.250976 -0.99121,-4.074218 z m 1.26465,0 q 0,2.467773 0.57421,3.288086 0.58106,0.813476 1.42871,0.813476 0.84766,0 1.42188,-0.820312 0.58105,-0.820313 0.58105,-3.28125 0,-2.47461 -0.58105,-3.288086 -0.57422,-0.813477 -1.43555,-0.813477 -0.84765,0 -1.35351,0.717774 -0.63574,0.916015 -0.63574,3.383789 z m 12.98828,3.759765 v 1.182618 h -6.62403 q -0.0137,-0.444336 0.14356,-0.854493 0.25293,-0.676757 0.80664,-1.333007 0.56055,-0.65625 1.61328,-1.517579 1.63379,-1.339843 2.20801,-2.11914 0.57422,-0.786133 0.57422,-1.483399 0,-0.731445 -0.52637,-1.230468 -0.51953,-0.50586 -1.36035,-0.50586 -0.88867,0 -1.42188,0.533203 -0.5332,0.533203 -0.54004,1.476563 l -1.26465,-0.129883 q 0.12989,-1.415039 0.97754,-2.15332 0.84766,-0.745117 2.27637,-0.745117 1.44238,0 2.2832,0.799804 0.84082,0.799805 0.84082,1.982422 0,0.601563 -0.24609,1.182617 -0.24609,0.581055 -0.82031,1.223633 -0.56738,0.642578 -1.89356,1.763672 -1.10742,0.929687 -1.42187,1.264648 -0.31445,0.328125 -0.51953,0.663086 z m 5.26367,1.182618 v -2.399415 h -4.34766 v -1.127929 l 4.57324,-6.494141 h 1.00489 v 6.494141 h 1.35351 v 1.127929 h -1.35351 v 2.399415 z m 0,-3.527344 v -4.518555 l -3.1377,4.518555 z m 3.70508,0.519531 V 42.96896 h 3.78027 v 1.237305 z m 4.79882,-1.93457 q 0,-1.777344 0.36231,-2.857422 0.36914,-1.086914 1.08691,-1.674805 0.72461,-0.58789 1.81836,-0.58789 0.80664,0 1.41504,0.328125 0.6084,0.321289 1.00488,0.936523 0.39649,0.608398 0.62207,1.490234 0.22559,0.875 0.22559,2.365235 0,1.763672 -0.3623,2.850586 -0.36231,1.080078 -1.08692,1.674804 -0.71777,0.587891 -1.81836,0.587891 -1.44922,0 -2.27636,-1.039063 -0.99122,-1.250976 -0.99122,-4.074218 z m 1.26465,0 q 0,2.467773 0.57422,3.288086 0.58106,0.813476 1.42871,0.813476 0.84766,0 1.42188,-0.820312 0.58105,-0.820313 0.58105,-3.28125 0,-2.47461 -0.58105,-3.288086 -0.57422,-0.813477 -1.43555,-0.813477 -0.84766,0 -1.35351,0.717774 -0.63575,0.916015 -0.63575,3.383789 z m 12.98828,3.759765 v 1.182618 h -6.62402 q -0.0137,-0.444336 0.14356,-0.854493 0.25293,-0.676757 0.80664,-1.333007 0.56054,-0.65625 1.61328,-1.517579 1.63379,-1.339843 2.20801,-2.11914 0.57421,-0.786133 0.57421,-1.483399 0,-0.731445 -0.52636,-1.230468 -0.51953,-0.50586 -1.36035,-0.50586 -0.88868,0 -1.42188,0.533203 -0.5332,0.533203 -0.54004,1.476563 l -1.26465,-0.129883 q 0.12989,-1.415039 0.97754,-2.15332 0.84766,-0.745117 2.27637,-0.745117 1.44238,0 2.2832,0.799804 0.84082,0.799805 0.84082,1.982422 0,0.601563 -0.24609,1.182617 -0.2461,0.581055 -0.82031,1.223633 -0.56739,0.642578 -1.89356,1.763672 -1.10742,0.929687 -1.42187,1.264648 -0.31446,0.328125 -0.51953,0.663086 z m 1.18262,-1.825195 V 42.96896 h 3.78027 v 1.237305 z m 4.79883,-1.93457 q 0,-1.777344 0.3623,-2.857422 0.36914,-1.086914 1.08692,-1.674805 0.72461,-0.58789 1.81836,-0.58789 0.80664,0 1.41504,0.328125 0.6084,0.321289 1.00488,0.936523 0.39648,0.608398 0.62207,1.490234 0.22559,0.875 0.22559,2.365235 0,1.763672 -0.36231,2.850586 -0.3623,1.080078 -1.08691,1.674804 -0.71778,0.587891 -1.81836,0.587891 -1.44922,0 -2.27637,-1.039063 -0.99121,-1.250976 -0.99121,-4.074218 z m 1.26465,0 q 0,2.467773 0.57422,3.288086 0.58105,0.813476 1.42871,0.813476 0.84765,0 1.42187,-0.820312 0.58106,-0.820313 0.58106,-3.28125 0,-2.47461 -0.58106,-3.288086 -0.57422,-0.813477 -1.43554,-0.813477 -0.84766,0 -1.35352,0.717774 -0.63574,0.916015 -0.63574,3.383789 z m 6.52148,2.317383 1.29199,-0.109375 q 0.14356,0.943359 0.66309,1.421875 0.52637,0.471679 1.26465,0.471679 0.88867,0 1.50391,-0.669922 0.61523,-0.669922 0.61523,-1.777343 0,-1.052735 -0.59473,-1.661133 -0.58789,-0.608399 -1.54492,-0.608399 -0.59473,0 -1.07324,0.273438 -0.47852,0.266601 -0.75195,0.697265 l -1.15528,-0.15039 0.97071,-5.147461 h 4.98339 v 1.175781 h -3.99902 l -0.54004,2.69336 q 0.90235,-0.628907 1.89356,-0.628907 1.3125,0 2.21484,0.90918 0.90234,0.90918 0.90234,2.337891 0,1.360351 -0.79297,2.351562 -0.96386,1.216797 -2.63183,1.216797 -1.36719,0 -2.23535,-0.765625 -0.86133,-0.765625 -0.98438,-2.030273 z"
           id="path3" />
        <path
           style="line-height:1.25"
           d="M 426.82812,64.714078 V 54.692593 h 1.9961 l 2.37207,7.095703 q 0.32812,0.991211 0.47851,1.483399 0.1709,-0.546875 0.53321,-1.606446 l 2.39941,-6.972656 h 1.78418 v 10.021485 h -1.27832 v -8.387696 l -2.91211,8.387696 h -1.19629 l -2.89843,-8.53125 v 8.53125 z m 11.0879,-3.629883 q 0,-2.016602 1.12109,-2.987305 0.93652,-0.806641 2.2832,-0.806641 1.49707,0 2.44727,0.984375 0.95019,0.977539 0.95019,2.707032 0,1.401367 -0.42382,2.208007 -0.417,0.799805 -1.22364,1.244141 -0.7998,0.444336 -1.75,0.444336 -1.52441,0 -2.46777,-0.977539 -0.93652,-0.977539 -0.93652,-2.816406 z m 1.26464,0 q 0,1.394531 0.6084,2.091797 0.6084,0.690429 1.53125,0.690429 0.91602,0 1.52442,-0.697265 0.60839,-0.697266 0.60839,-2.125977 0,-1.34668 -0.61523,-2.037109 -0.6084,-0.697266 -1.51758,-0.697266 -0.92285,0 -1.53125,0.69043 -0.6084,0.690429 -0.6084,2.084961 z m 6.9795,3.629883 v -7.259766 h 1.10742 v 1.032226 q 0.7998,-1.196289 2.31054,-1.196289 0.65625,0 1.20313,0.239258 0.55371,0.232422 0.82715,0.615235 0.27344,0.382812 0.38281,0.909179 0.0684,0.341797 0.0684,1.196289 v 4.463868 h -1.23047 v -4.416016 q 0,-0.751953 -0.14355,-1.121094 -0.14356,-0.375976 -0.5127,-0.594726 -0.3623,-0.225586 -0.85449,-0.225586 -0.78613,0 -1.36035,0.499023 -0.56739,0.499024 -0.56739,1.893555 v 3.964844 z"
           id="path4" />
      </g>
      <g
         id="flowRoot10"
         style="font-size:14px;line-height:0.01%;font-family:'Liberation Sans';-inkscape-font-specification:'Liberation Sans, Normal';text-align:center;text-anchor:middle"
         transform="translate(-69.406098,568.0496)"
         aria-label="2024-02-06&#10;Tue">
        <path
           style="line-height:1.25"
           d="m 410.64746,46.03146 v 1.182618 h -6.62402 q -0.0137,-0.444336 0.14355,-0.854493 0.25293,-0.676757 0.80664,-1.333007 0.56055,-0.65625 1.61328,-1.517579 1.63379,-1.339843 2.20801,-2.11914 0.57422,-0.786133 0.57422,-1.483399 0,-0.731445 -0.52637,-1.230468 -0.51953,-0.50586 -1.36035,-0.50586 -0.88867,0 -1.42187,0.533203 -0.53321,0.533203 -0.54004,1.476563 l -1.26465,-0.129883 q 0.12988,-1.415039 0.97754,-2.15332 0.84765,-0.745117 2.27637,-0.745117 1.44238,0 2.2832,0.799804 0.84082,0.799805 0.84082,1.982422 0,0.601563 -0.24609,1.182617 -0.2461,0.581055 -0.82032,1.223633 -0.56738,0.642578 -1.89355,1.763672 -1.10742,0.929687 -1.42188,1.264648 -0.31445,0.328125 -0.51953,0.663086 z m 1.31934,-3.759765 q 0,-1.777344 0.3623,-2.857422 0.36914,-1.086914 1.08692,-1.674805 0.7246,-0.58789 1.81835,-0.58789 0.80665,0 1.41504,0.328125 0.6084,0.321289 1.00489,0.936523 0.39648,0.608398 0.62207,1.490234 0.22558,0.875 0.22558,2.365235 0,1.763672 -0.3623,2.850586 -0.36231,1.080078 -1.08692,1.674804 -0.71777,0.587891 -1.81836,0.587891 -1.44921,0 -2.27636,-1.039063 -0.99121,-1.250976 -0.99121,-4.074218 z m 1.26465,0 q 0,2.467773 0.57421,3.288086 0.58106,0.813476 1.42871,0.813476 0.84766,0 1.42188,-0.820312 0.58105,-0.820313 0.58105,-3.28125 0,-2.47461 -0.58105,-3.288086 -0.57422,-0.813477 -1.43555,-0.813477 -0.84765,0 -1.35351,0.717774 -0.63574,0.916015 -0.63574,3.383789 z m 12.98828,3.759765 v 1.182618 h -6.62403 q -0.0137,-0.444336 0.14356,-0.854493 0.25293,-0.676757 0.80664,-1.333007 0.56055,-0.65625 1.61328,-1.517579 1.63379,-1.339843 2.20801,-2.11914 0.57422,-0.786133 0.57422,-1.483399 0,-0.731445 -0.52637,-1.230468 -0.51953,-0.50586 -1.36035,-0.50586 -0.88867,0 -1.42188,0.533203 -0.5332,0.533203 -0.54004,1.476563 l -1.26465,-0.129883 q 0.12989,-1.415039 0.97754,-2.15332 0.84766,-0.745117 2.27637,-0.745117 1.44238,0 2.2832,0.799804 0.84082,0.799805 0.84082,1.982422 0,0.601563 -0.24609,1.182617 -0.24609,0.581055 -0.82031,1.223633 -0.56738,0.642578 -1.89356,1.763672 -1.10742,0.929687 -1.42187,1.264648 -0.31445,0.328125 -0.51953,0.663086 z m 5.26367,1.182618 v -2.399415 h -4.34766 v -1.127929 l 4.57324,-6.494141 h 1.00489 v 6.494141 h 1.35351 v 1.127929 h -1.35351 v 2.399415 z m 0,-3.527344 v -4.518555 l -3.1377,4.518555 z m 3.70508,0.519531 V 42.96896 h 3.78027 v 1.237305 z m 4.79882,-1.93457 q 0,-1.777344 0.36231,-2.857422 0.36914,-1.086914 1.08691,-1.674805 0.72461,-0.58789 1.81836,-0.58789 0.80664,0 1.41504,0.328125 0.6084,0.321289 1.00488,0.936523 0.39649,0.608398 0.62207,1.490234 0.22559,0.875 0.22559,2.365235 0,1.763672 -0.3623,2.850586 -0.36231,1.080078 -1.08692,1.674804 -0.71777,0.587891 -1.81836,0.587891 -1.44922,0 -2.27636,-1.039063 -0.99122,-1.250976 -0.99122,-4.074218 z m 1.26465,0 q 0,2.467773 0.57422,3.288086 0.58106,0.813476 1.42871,0.813476 0.84766,0 1.42188,-0.820312 0.58105,-0.820313 0.58105,-3.28125 0,-2.47461 -0.58105,-3.288086 -0.57422,-0.813477 -1.43555,-0.813477 -0.84766,0 -1.35351,0.717774 -0.63575,0.916015 -0.63575,3.383789 z m 12.98828,3.759765 v 1.182618 h -6.62402 q -0.0137,-0.444336 0.14356,-0.854493 0.25293,-0.676757 0.80664,-1.333007 0.56054,-0.65625 1.61328,-1.517579 1.63379,-1.339843 2.20801,-2.11914 0.57421,-0.786133 0.57421,-1.483399 0,-0.731445 -0.52636,-1.230468 -0.51953,-0.50586 -1.36035,-0.50586 -0.88868,0 -1.42188,0.533203 -0.5332,0.533203 -0.54004,1.476563 l -1.26465,-0.129883 q 0.12989,-1.415039 0.97754,-2.15332 0.84766,-0.745117 2.27637,-0.745117 1.44238,0 2.2832,0.799804 0.84082,0.799805 0.84082,1.982422 0,0.601563 -0.24609,1.182617 -0.2461,0.581055 -0.82031,1.223633 -0.56739,0.642578 -1.89356,1.763672 -1.10742,0.929687 -1.42187,1.264648 -0.31446,0.328125 -0.51953,0.663086 z m 1.18262,-1.825195 V 42.96896 h 3.78027 v 1.237305 z m 4.79883,-1.93457 q 0,-1.777344 0.3623,-2.857422 0.36914,-1.086914 1.08692,-1.674805 0.72461,-0.58789 1.81836,-0.58789 0.80664,0 1.41504,0.328125 0.6084,0.321289 1.00488,0.936523 0.39648,0.608398 0.62207,1.490234 0.22559,0.875 0.22559,2.365235 0,1.763672 -0.36231,2.850586 -0.3623,1.080078 -1.08691,1.674804 -0.71778,0.587891 -1.81836,0.587891 -1.44922,0 -2.27637,-1.039063 -0.99121,-1.250976 -0.99121,-4.074218 z m 1.26465,0 q 0,2.467773 0.57422,3.288086 0.58105,0.813476 1.42871,0.813476 0.84765,0 1.42187,-0.820312 0.58106,-0.820313 0.58106,-3.28125 0,-2.47461 -0.58106,-3.288086 -0.57422,-0.813477 -1.43554,-0.813477 -0.84766,0 -1.35352,0.717774 -0.63574,0.916015 -0.63574,3.383789 z m 12.90625,-2.625 -1.22363,0.0957 q -0.16407,-0.72461 -0.46485,-1.052735 -0.49902,-0.526367 -1.23047,-0.526367 -0.58789,0 -1.03222,0.328125 -0.58106,0.423828 -0.91602,1.237305 -0.33496,0.813477 -0.34863,2.317383 0.44433,-0.676758 1.08691,-1.004883 0.64258,-0.328125 1.34668,-0.328125 1.23047,0 2.0918,0.90918 0.86816,0.902343 0.86816,2.33789 0,0.94336 -0.41015,1.756836 -0.40332,0.806641 -1.11426,1.237305 -0.71094,0.430664 -1.61328,0.430664 -1.53809,0 -2.50879,-1.12793 -0.97071,-1.134765 -0.97071,-3.732422 0,-2.905273 1.07325,-4.224609 0.93652,-1.148437 2.52246,-1.148437 1.18262,0 1.93457,0.663085 0.75879,0.663086 0.90918,1.832032 z m -5.02442,4.320312 q 0,0.635742 0.26661,1.216797 0.27343,0.581055 0.75878,0.888672 0.48536,0.300781 1.01856,0.300781 0.7793,0 1.33984,-0.628906 0.56055,-0.628906 0.56055,-1.708984 0,-1.039063 -0.55371,-1.633789 -0.55371,-0.601563 -1.39453,-0.601563 -0.83399,0 -1.41504,0.601563 -0.58106,0.594726 -0.58106,1.565429 z"
           id="path5" />
        <path
           style="line-height:1.25"
           d="M 431.23389,64.714078 V 55.87521 h -3.30176 v -1.182617 h 7.94336 v 1.182617 h -3.31543 v 8.838868 z m 10.083,0 v -1.066407 q -0.84765,1.230469 -2.30371,1.230469 -0.64257,0 -1.20312,-0.246094 -0.55371,-0.246093 -0.82715,-0.615234 -0.2666,-0.375977 -0.37598,-0.916016 -0.0752,-0.362304 -0.0752,-1.148437 v -4.498047 h 1.23047 v 4.026367 q 0,0.963867 0.0752,1.298828 0.11621,0.485352 0.49219,0.765625 0.37598,0.273438 0.92969,0.273438 0.55371,0 1.03906,-0.280274 0.48535,-0.287109 0.68359,-0.772461 0.20508,-0.492187 0.20508,-1.421875 v -3.889648 h 1.23047 v 7.259766 z m 7.99805,-2.337891 1.27149,0.157226 q -0.30079,1.114258 -1.11426,1.729493 -0.81348,0.615234 -2.07813,0.615234 -1.59277,0 -2.52929,-0.977539 -0.92969,-0.984375 -0.92969,-2.754883 0,-1.832031 0.94336,-2.84375 0.94336,-1.011719 2.44726,-1.011719 1.45606,0 2.37891,0.991211 0.92285,0.991211 0.92285,2.789063 0,0.109375 -0.007,0.328125 h -5.41407 q 0.0684,1.196289 0.67676,1.832031 0.6084,0.635742 1.51758,0.635742 0.67676,0 1.15527,-0.355468 0.47852,-0.355469 0.75879,-1.134766 z m -4.04004,-1.989258 h 4.05371 q -0.082,-0.916016 -0.46484,-1.374023 -0.58789,-0.710938 -1.52441,-0.710938 -0.84766,0 -1.42872,0.567383 -0.57421,0.567383 -0.63574,1.517578 z"
           id="path6" />
      </g>
    </g>
  </g>
  <g
     id="layer6"
     style="display:inline" />
  <g
     id="layer10"
     style="display:inline" />
</svg>
