<?xml version="1.0" encoding="UTF-8" standalone="no"?>
<svg
   width="800"
   height="600"
   id="svg2"
   version="1.1"
   xmlns="http://www.w3.org/2000/svg"
   xmlns:svg="http://www.w3.org/2000/svg"
   xmlns:rdf="http://www.w3.org/1999/02/22-rdf-syntax-ns#"
   xmlns:cc="http://creativecommons.org/ns#"
   xmlns:dc="http://purl.org/dc/elements/1.1/">
  <defs
     id="defs4" />
  <metadata
     id="metadata7">
    <rdf:RDF>
      <cc:Work
         rdf:about="">
        <dc:format>image/svg+xml</dc:format>
        <dc:type
           rdf:resource="http://purl.org/dc/dcmitype/StillImage" />
        <dc:language>en</dc:language>
        <cc:license
           rdf:resource="https://timefold.ai/license" />
      </cc:Work>
    </rdf:RDF>
  </metadata>
  <g
     id="layer2"
     style="display:inline">
    <rect
       style="display:inline;opacity:0.5;fill:#8ae234;stroke:none"
       id="rect4619-6"
       width="159"
       height="159"
       x="410.49957"
       y="210.5"
       rx="4.999999"
       ry="5" />
    <path
       d="m 357.25586,60.249221 q -0.63477,0.732422 -1.42578,1.181641 -0.78125,0.439453 -1.57227,0.439453 -0.86914,0 -1.68945,-0.507813 -0.82031,-0.507812 -1.33789,-1.5625 -0.50781,-1.054687 -0.50781,-2.314453 0,-1.552734 0.79101,-3.105468 0.80078,-1.5625 1.98242,-2.34375 1.18164,-0.78125 2.29493,-0.78125 0.8496,0 1.62109,0.449218 0.77148,0.439453 1.32812,1.347657 l 0.33204,-1.513672 h 1.74804 l -1.40625,6.552734 q -0.29297,1.367188 -0.29297,1.513672 0,0.263672 0.19532,0.458984 0.20507,0.185547 0.48828,0.185547 0.51758,0 1.35742,-0.595703 1.11328,-0.78125 1.75781,-2.089844 0.6543,-1.318359 0.6543,-2.714843 0,-1.63086 -0.83985,-3.046875 -0.83007,-1.416016 -2.49023,-2.265625 -1.65039,-0.84961 -3.65234,-0.84961 -2.28516,0 -4.17969,1.074219 -1.88477,1.064453 -2.92969,3.066406 -1.03515,1.992188 -1.03515,4.277344 0,2.392578 1.03515,4.121094 1.04492,1.728515 3.00781,2.548828 1.97266,0.830078 4.36524,0.830078 2.55859,0 4.28711,-0.859375 1.72851,-0.859375 2.58789,-2.089844 h 1.76758 q -0.49805,1.025391 -1.70899,2.089844 -1.21094,1.064453 -2.88086,1.679687 -1.66992,0.625 -4.02343,0.625 -2.16797,0 -4.00391,-0.55664 -1.82617,-0.556641 -3.11524,-1.679688 -1.28906,-1.113281 -1.94335,-2.568359 -0.82032,-1.845703 -0.82032,-3.984375 0,-2.382813 0.97657,-4.541016 1.1914,-2.646484 3.3789,-4.052734 2.19727,-1.40625 5.32227,-1.40625 2.42187,0 4.3457,0.996094 1.93359,0.986328 3.04688,2.949218 0.94726,1.689454 0.94726,3.671875 0,2.832032 -1.99219,5.029297 -1.77734,1.972657 -3.88672,1.972657 -0.67382,0 -1.09375,-0.205079 -0.41015,-0.205078 -0.60546,-0.585937 -0.12696,-0.244141 -0.18555,-0.839844 z m -4.72656,-2.646484 q 0,1.33789 0.63476,2.080078 0.63477,0.742187 1.45508,0.742187 0.54688,0 1.15234,-0.322265 0.60547,-0.332031 1.15235,-0.976563 0.55664,-0.644531 0.9082,-1.630859 0.35156,-0.996094 0.35156,-1.992188 0,-1.328125 -0.66406,-2.060546 -0.6543,-0.732422 -1.60156,-0.732422 -0.625,0 -1.18164,0.322265 -0.54688,0.3125 -1.06446,1.015625 -0.51757,0.703125 -0.83007,1.708985 -0.3125,1.005859 -0.3125,1.845703 z m 14.55078,4.238281 2.99804,-14.316406 h 5.97657 q 1.55273,0 2.32422,0.361328 0.78125,0.351562 1.28906,1.220703 0.50781,0.859375 0.50781,1.933594 0,0.888672 -0.36133,1.80664 -0.36133,0.917969 -0.91797,1.513672 -0.54687,0.595703 -1.11328,0.898438 -0.5664,0.302734 -1.21093,0.449219 -1.37696,0.322265 -2.78321,0.322265 h -3.58398 l -1.21094,5.810547 z m 3.46679,-7.431641 h 3.1543 q 1.83594,0 2.69531,-0.390625 0.85938,-0.40039 1.37696,-1.210937 0.51758,-0.810547 0.51758,-1.71875 0,-0.703125 -0.27344,-1.142578 -0.27344,-0.449219 -0.77149,-0.654297 -0.49804,-0.214844 -1.91406,-0.214844 h -3.67187 z m 9.54102,7.431641 2.98828,-14.316406 h 1.76758 l -2.98828,14.316406 z m 11.57227,-1.289062 q -0.91797,0.791015 -1.76758,1.162109 -0.84961,0.361328 -1.81641,0.361328 -1.43555,0 -2.31445,-0.839844 -0.87891,-0.849609 -0.87891,-2.167968 0,-0.869141 0.39063,-1.533204 0.40039,-0.673828 1.05468,-1.074218 0.6543,-0.410157 1.60157,-0.585938 0.5957,-0.117187 2.25586,-0.185547 1.66992,-0.06836 2.39257,-0.351562 0.20508,-0.722656 0.20508,-1.201172 0,-0.615234 -0.44922,-0.966797 -0.61523,-0.488281 -1.79687,-0.488281 -1.11328,0 -1.82617,0.498047 -0.70313,0.488281 -1.02539,1.396484 l -1.78711,-0.15625 q 0.54687,-1.542969 1.72851,-2.363281 1.19141,-0.820313 2.99805,-0.820313 1.92383,0 3.04687,0.917969 0.85938,0.683594 0.85938,1.777344 0,0.830078 -0.24414,1.923828 l -0.57617,2.578125 q -0.27344,1.230469 -0.27344,2.001953 0,0.488281 0.21484,1.40625 h -1.78711 q -0.14648,-0.507812 -0.20507,-1.289062 z m 0.65429,-3.964844 q -0.37109,0.146484 -0.80078,0.224609 -0.41992,0.07813 -1.41601,0.166016 -1.54297,0.136719 -2.17774,0.351562 -0.63476,0.205078 -0.95703,0.664063 -0.32227,0.458984 -0.32227,1.015625 0,0.742187 0.50782,1.220703 0.51758,0.478516 1.46484,0.478516 0.87891,0 1.68945,-0.458985 0.81055,-0.46875 1.2793,-1.298828 0.46875,-0.830078 0.73242,-2.363281 z m 3.47657,5.253906 2.16796,-10.371094 h 1.60157 l -0.38086,1.806641 q 1.04492,-1.064453 1.95312,-1.552734 0.90821,-0.488282 1.85547,-0.488282 1.25977,0 1.97266,0.683594 0.72265,0.683594 0.72265,1.826172 0,0.576172 -0.2539,1.816406 l -1.31836,6.279297 h -1.76758 l 1.37695,-6.572266 q 0.20508,-0.957031 0.20508,-1.416015 0,-0.517578 -0.36133,-0.839844 -0.35156,-0.322266 -1.02539,-0.322266 -1.35742,0 -2.42187,0.976563 -1.05469,0.976562 -1.55274,3.349609 l -1.00586,4.824219 z m 11.12304,0 2.16797,-10.371094 h 1.60156 l -0.38086,1.806641 q 1.04493,-1.064453 1.95313,-1.552734 0.9082,-0.488282 1.85547,-0.488282 1.25976,0 1.97265,0.683594 0.72266,0.683594 0.72266,1.826172 0,0.576172 -0.25391,1.816406 l -1.31836,6.279297 h -1.76757 l 1.37695,-6.572266 q 0.20508,-0.957031 0.20508,-1.416015 0,-0.517578 -0.36133,-0.839844 -0.35156,-0.322266 -1.02539,-0.322266 -1.35742,0 -2.42188,0.976563 -1.05468,0.976562 -1.55273,3.349609 l -1.00586,4.824219 z m 13.63281,-12.314453 0.41993,-2.001953 h 1.75781 l -0.41992,2.001953 z m -2.57812,12.314453 2.16797,-10.371094 h 1.76758 l -2.16797,10.371094 z m 4.51172,0 2.16797,-10.371094 H 426.25 l -0.38086,1.806641 q 1.04492,-1.064453 1.95313,-1.552734 0.9082,-0.488282 1.85546,-0.488282 1.25977,0 1.97266,0.683594 0.72266,0.683594 0.72266,1.826172 0,0.576172 -0.25391,1.816406 l -1.31836,6.279297 h -1.76758 l 1.37696,-6.572266 q 0.20507,-0.957031 0.20507,-1.416015 0,-0.517578 -0.36132,-0.839844 -0.35157,-0.322266 -1.02539,-0.322266 -1.35743,0 -2.42188,0.976563 -1.05469,0.976562 -1.55273,3.349609 l -1.00586,4.824219 z m 11.02539,0.9375 1.78711,0.166016 q -0.0195,0.605468 0.14648,0.908203 0.16602,0.302734 0.52735,0.46875 0.47851,0.214844 1.24023,0.214844 1.60156,0 2.30469,-0.830079 0.45898,-0.55664 0.84961,-2.421875 l 0.17578,-0.839843 q -1.37695,1.396484 -2.92969,1.396484 -1.57226,0 -2.63672,-1.152344 -1.05468,-1.162109 -1.05468,-3.28125 0,-1.748047 0.83007,-3.21289 0.83985,-1.464844 1.99219,-2.207032 1.15234,-0.751953 2.37305,-0.751953 2.04101,0 3.14453,1.933594 l 0.35156,-1.699219 h 1.6211 l -2.08985,10.009766 q -0.3418,1.650391 -0.89844,2.568359 -0.55664,0.927735 -1.55273,1.435547 -0.98633,0.507813 -2.28516,0.507813 -1.25,0 -2.1582,-0.322266 -0.89844,-0.322266 -1.34766,-0.947266 -0.43945,-0.615234 -0.43945,-1.416015 0,-0.244141 0.0488,-0.527344 z m 2.20703,-5.527344 q 0,1.064453 0.20508,1.601563 0.29297,0.751953 0.83008,1.152344 0.54687,0.390625 1.21093,0.390625 0.86914,0 1.72852,-0.605469 0.85937,-0.615235 1.38672,-1.894531 0.53711,-1.279297 0.53711,-2.441407 0,-1.279297 -0.71289,-2.03125 -0.70313,-0.761718 -1.74805,-0.761718 -0.64453,0 -1.25,0.351562 -0.60547,0.341797 -1.13281,1.054688 -0.51758,0.703125 -0.79102,1.689453 -0.26367,0.986328 -0.26367,1.49414 z m 9.24805,4.589844 2.99804,-14.316406 h 10.33204 l -0.3418,1.630859 h -8.41797 l -0.9375,4.453125 h 8.20312 l -0.34179,1.63086 h -8.20313 l -1.03515,4.980468 h 9.01367 l -0.3418,1.621094 z m 13.10547,0 2.16796,-10.371094 h 1.60157 l -0.38086,1.806641 q 1.04492,-1.064453 1.95312,-1.552734 0.90821,-0.488282 1.85547,-0.488282 1.25977,0 1.97266,0.683594 0.72265,0.683594 0.72265,1.826172 0,0.576172 -0.2539,1.816406 l -1.31836,6.279297 h -1.76758 l 1.37695,-6.572266 q 0.20508,-0.957031 0.20508,-1.416015 0,-0.517578 -0.36133,-0.839844 -0.35156,-0.322266 -1.02539,-0.322266 -1.35742,0 -2.42187,0.976563 -1.05469,0.976562 -1.55274,3.349609 l -1.00586,4.824219 z m 15.2539,-1.435547 -0.29297,1.445313 q -0.63476,0.166015 -1.23047,0.166015 -1.05468,0 -1.67968,-0.517578 -0.46875,-0.390625 -0.46875,-1.064453 0,-0.341797 0.2539,-1.572266 l 1.25977,-6.02539 h -1.39649 l 0.28321,-1.367188 h 1.39648 l 0.53711,-2.548828 2.02149,-1.220703 -0.79102,3.769531 h 1.73828 l -0.29297,1.367188 h -1.72851 l -1.20117,5.732422 q -0.22461,1.09375 -0.22461,1.308593 0,0.3125 0.17578,0.478516 0.18554,0.166016 0.5957,0.166016 0.58594,0 1.04492,-0.117188 z m 3.93555,-10.878906 0.41992,-2.001953 h 1.75781 l -0.41992,2.001953 z m -2.57813,12.314453 2.16797,-10.371094 h 1.76758 l -2.16797,10.371094 z m 8.64258,-1.435547 -0.29297,1.445313 q -0.63476,0.166015 -1.23047,0.166015 -1.05468,0 -1.67968,-0.517578 -0.46875,-0.390625 -0.46875,-1.064453 0,-0.341797 0.2539,-1.572266 l 1.25977,-6.02539 h -1.39649 l 0.28321,-1.367188 h 1.39648 l 0.53711,-2.548828 2.02149,-1.220703 -0.79102,3.769531 h 1.73828 l -0.29297,1.367188 h -1.72851 l -1.20117,5.732422 q -0.22461,1.09375 -0.22461,1.308593 0,0.3125 0.17578,0.478516 0.18554,0.166016 0.5957,0.166016 0.58594,0 1.04492,-0.117188 z m 0.76172,5.439453 0.10742,-1.660156 q 0.54688,0.15625 1.06446,0.15625 0.53711,0 0.86914,-0.244141 0.42968,-0.322265 0.9375,-1.210937 l 0.5664,-1.015625 -1.72851,-10.400391 h 1.73828 l 0.78125,5.244141 q 0.23437,1.552734 0.40039,3.105469 l 4.63867,-8.34961 h 1.8457 l -6.61132,11.748047 q -0.95704,1.71875 -1.69922,2.275391 -0.74219,0.55664 -1.70899,0.55664 -0.61523,0 -1.20117,-0.205078 z"
       id="flowRoot4348-6-0"
       style="font-style:italic;font-size:20px;line-height:125%;font-family:'Liberation Sans';text-align:center;text-anchor:middle;fill:#4e9a06"
       transform="translate(69.99958,136.22324)"
       aria-label="@PlanningEntity" />
    <rect
       ry="5"
       rx="4.999999"
       y="240"
       x="220"
       height="30"
       width="160"
       id="rect1464"
       style="display:inline;opacity:0.5;fill:#fcaf3e;stroke:none" />
    <path
       d="m 439.43359,90.249221 q -0.63476,0.732422 -1.42578,1.181641 -0.78125,0.439453 -1.57226,0.439453 -0.86914,0 -1.68946,-0.507813 -0.82031,-0.507812 -1.33789,-1.5625 -0.50781,-1.054687 -0.50781,-2.314453 0,-1.552734 0.79102,-3.105468 0.80078,-1.5625 1.98242,-2.34375 1.18164,-0.78125 2.29492,-0.78125 0.84961,0 1.62109,0.449218 0.77149,0.439453 1.32813,1.347657 L 441.25,81.538284 h 1.74805 l -1.40625,6.552734 q -0.29297,1.367188 -0.29297,1.513672 0,0.263672 0.19531,0.458984 0.20508,0.185547 0.48828,0.185547 0.51758,0 1.35742,-0.595703 1.11328,-0.78125 1.75782,-2.089844 0.65429,-1.318359 0.65429,-2.714843 0,-1.63086 -0.83984,-3.046875 -0.83008,-1.416016 -2.49024,-2.265625 -1.65039,-0.84961 -3.65234,-0.84961 -2.28516,0 -4.17969,1.074219 -1.88476,1.064453 -2.92968,3.066406 -1.03516,1.992188 -1.03516,4.277344 0,2.392578 1.03516,4.121094 1.04492,1.728515 3.00781,2.548828 1.97265,0.830078 4.36523,0.830078 2.5586,0 4.28711,-0.859375 1.72852,-0.859375 2.58789,-2.089844 h 1.76758 q -0.49805,1.025391 -1.70898,2.089844 -1.21094,1.064453 -2.88086,1.679687 -1.66992,0.625 -4.02344,0.625 -2.16797,0 -4.00391,-0.55664 -1.82617,-0.556641 -3.11523,-1.679688 Q 430.6543,92.700393 430,91.245315 q -0.82031,-1.845703 -0.82031,-3.984375 0,-2.382813 0.97656,-4.541016 1.19141,-2.646484 3.37891,-4.052734 2.19726,-1.40625 5.32226,-1.40625 2.42188,0 4.3457,0.996094 1.9336,0.986328 3.04688,2.949218 0.94727,1.689454 0.94727,3.671875 0,2.832032 -1.99219,5.029297 -1.77735,1.972657 -3.88672,1.972657 -0.67383,0 -1.09375,-0.205079 -0.41016,-0.205078 -0.60547,-0.585937 -0.12695,-0.244141 -0.18555,-0.839844 z m -4.72656,-2.646484 q 0,1.33789 0.63477,2.080078 0.63476,0.742187 1.45507,0.742187 0.54688,0 1.15235,-0.322265 0.60547,-0.332031 1.15234,-0.976563 0.55664,-0.644531 0.90821,-1.630859 0.35156,-0.996094 0.35156,-1.992188 0,-1.328125 -0.66406,-2.060546 -0.6543,-0.732422 -1.60157,-0.732422 -0.625,0 -1.18164,0.322265 -0.54687,0.3125 -1.06445,1.015625 -0.51758,0.703125 -0.83008,1.708985 -0.3125,1.005859 -0.3125,1.845703 z m 14.55078,4.238281 2.99805,-14.316406 h 5.97656 q 1.55274,0 2.32422,0.361328 0.78125,0.351562 1.28906,1.220703 0.50782,0.859375 0.50782,1.933594 0,0.888672 -0.36133,1.80664 -0.36133,0.917969 -0.91797,1.513672 -0.54688,0.595703 -1.11328,0.898438 -0.56641,0.302734 -1.21094,0.449219 -1.37695,0.322265 -2.7832,0.322265 h -3.58399 l -1.21094,5.810547 z m 3.4668,-7.431641 h 3.1543 q 1.83593,0 2.69531,-0.390625 0.85937,-0.40039 1.37695,-1.210937 0.51758,-0.810547 0.51758,-1.71875 0,-0.703125 -0.27344,-1.142578 -0.27344,-0.449219 -0.77148,-0.654297 -0.49805,-0.214844 -1.91406,-0.214844 h -3.67188 z m 9.54101,7.431641 2.98829,-14.316406 h 1.76757 l -2.98828,14.316406 z m 11.57227,-1.289062 q -0.91797,0.791015 -1.76758,1.162109 -0.84961,0.361328 -1.8164,0.361328 -1.43555,0 -2.31446,-0.839844 -0.8789,-0.849609 -0.8789,-2.167968 0,-0.869141 0.39062,-1.533204 0.40039,-0.673828 1.05469,-1.074218 0.6543,-0.410157 1.60156,-0.585938 0.5957,-0.117187 2.25586,-0.185547 1.66992,-0.06836 2.39258,-0.351562 0.20508,-0.722656 0.20508,-1.201172 0,-0.615234 -0.44922,-0.966797 -0.61524,-0.488281 -1.79688,-0.488281 -1.11328,0 -1.82617,0.498047 -0.70312,0.488281 -1.02539,1.396484 l -1.78711,-0.15625 q 0.54688,-1.542969 1.72852,-2.363281 1.1914,-0.820313 2.99804,-0.820313 1.92383,0 3.04688,0.917969 0.85937,0.683594 0.85937,1.777344 0,0.830078 -0.24414,1.923828 l -0.57617,2.578125 q -0.27344,1.230469 -0.27344,2.001953 0,0.488281 0.21485,1.40625 h -1.78711 q -0.14649,-0.507812 -0.20508,-1.289062 z m 0.6543,-3.964844 q -0.3711,0.146484 -0.80078,0.224609 -0.41993,0.07813 -1.41602,0.166016 -1.54297,0.136719 -2.17773,0.351562 -0.63477,0.205078 -0.95704,0.664063 -0.32226,0.458984 -0.32226,1.015625 0,0.742187 0.50781,1.220703 0.51758,0.478516 1.46485,0.478516 0.8789,0 1.68945,-0.458985 0.81055,-0.46875 1.2793,-1.298828 0.46875,-0.830078 0.73242,-2.363281 z m 3.47656,5.253906 2.16797,-10.371094 h 1.60156 l -0.38086,1.806641 q 1.04492,-1.064453 1.95313,-1.552734 0.9082,-0.488282 1.85547,-0.488282 1.25976,0 1.97265,0.683594 0.72266,0.683594 0.72266,1.826172 0,0.576172 -0.25391,1.816406 l -1.31836,6.279297 h -1.76758 l 1.37696,-6.572266 q 0.20508,-0.957031 0.20508,-1.416015 0,-0.517578 -0.36133,-0.839844 -0.35157,-0.322266 -1.02539,-0.322266 -1.35743,0 -2.42188,0.976563 -1.05469,0.976562 -1.55273,3.349609 l -1.00586,4.824219 z m 11.12305,0 2.16797,-10.371094 h 1.60156 l -0.38086,1.806641 q 1.04492,-1.064453 1.95312,-1.552734 0.90821,-0.488282 1.85547,-0.488282 1.25977,0 1.97266,0.683594 0.72265,0.683594 0.72265,1.826172 0,0.576172 -0.2539,1.816406 l -1.31836,6.279297 h -1.76758 l 1.37695,-6.572266 q 0.20508,-0.957031 0.20508,-1.416015 0,-0.517578 -0.36133,-0.839844 -0.35156,-0.322266 -1.02539,-0.322266 -1.35742,0 -2.42187,0.976563 -1.05469,0.976562 -1.55274,3.349609 l -1.00586,4.824219 z m 13.63281,-12.314453 0.41992,-2.001953 h 1.75781 l -0.41992,2.001953 z m -2.57813,12.314453 2.16797,-10.371094 h 1.76758 l -2.16797,10.371094 z m 4.51172,0 2.16797,-10.371094 h 1.60156 l -0.38086,1.806641 Q 509.0918,82.212112 510,81.723831 q 0.9082,-0.488282 1.85547,-0.488282 1.25976,0 1.97265,0.683594 0.72266,0.683594 0.72266,1.826172 0,0.576172 -0.25391,1.816406 l -1.31835,6.279297 h -1.76758 l 1.37695,-6.572266 q 0.20508,-0.957031 0.20508,-1.416015 0,-0.517578 -0.36133,-0.839844 -0.35156,-0.322266 -1.02539,-0.322266 -1.35742,0 -2.42188,0.976563 -1.05468,0.976562 -1.55273,3.349609 l -1.00586,4.824219 z m 11.02539,0.9375 1.78711,0.166016 q -0.0195,0.605468 0.14649,0.908203 0.16601,0.302734 0.52734,0.46875 0.47852,0.214844 1.24024,0.214844 1.60156,0 2.30468,-0.830079 0.45899,-0.55664 0.84961,-2.421875 l 0.17578,-0.839843 q -1.37695,1.396484 -2.92968,1.396484 -1.57227,0 -2.63672,-1.152344 -1.05469,-1.162109 -1.05469,-3.28125 0,-1.748047 0.83008,-3.21289 0.83984,-1.464844 1.99219,-2.207032 1.15234,-0.751953 2.37304,-0.751953 2.04102,0 3.14453,1.933594 l 0.35157,-1.699219 h 1.62109 l -2.08984,10.009766 q -0.3418,1.650391 -0.89844,2.568359 -0.55664,0.927735 -1.55274,1.435547 -0.98632,0.507813 -2.28515,0.507813 -1.25,0 -2.15821,-0.322266 -0.89843,-0.322266 -1.34765,-0.947266 -0.43945,-0.615234 -0.43945,-1.416015 0,-0.244141 0.0488,-0.527344 z m 2.20703,-5.527344 q 0,1.064453 0.20508,1.601563 0.29297,0.751953 0.83008,1.152344 0.54688,0.390625 1.21094,0.390625 0.86914,0 1.72851,-0.605469 0.85938,-0.615235 1.38672,-1.894531 0.53711,-1.279297 0.53711,-2.441407 0,-1.279297 -0.71289,-2.03125 -0.70312,-0.761718 -1.74805,-0.761718 -0.64453,0 -1.25,0.351562 -0.60546,0.341797 -1.13281,1.054688 -0.51758,0.703125 -0.79101,1.689453 -0.26368,0.986328 -0.26368,1.49414 z m 9.1504,4.589844 2.98828,-14.316406 h 1.91406 l -2.64649,12.695312 h 7.43165 l -0.3418,1.621094 z m 13.49609,-12.314453 0.41992,-2.001953 h 1.75781 l -0.41992,2.001953 z m -2.57813,12.314453 2.16797,-10.371094 h 1.76758 l -2.16797,10.371094 z m 4.67774,-3.544922 1.76758,-0.107422 q 0,0.761719 0.23437,1.298828 0.23438,0.53711 0.85938,0.878907 0.63476,0.341797 1.47461,0.341797 1.17187,0 1.75781,-0.46875 0.58594,-0.46875 0.58594,-1.103516 0,-0.458984 -0.35157,-0.869141 -0.36132,-0.410156 -1.76757,-1.005859 -1.39649,-0.605469 -1.78711,-0.849609 -0.6543,-0.400391 -0.98633,-0.9375 -0.33203,-0.546875 -0.33203,-1.25 0,-1.230469 0.97656,-2.109375 0.97656,-0.878907 2.73437,-0.878907 1.95313,0 2.96875,0.908203 1.02539,0.898438 1.06446,2.373047 l -1.72852,0.117188 q -0.0391,-0.9375 -0.66406,-1.484375 -0.625,-0.546875 -1.76758,-0.546875 -0.91797,0 -1.42578,0.419922 -0.50781,0.419922 -0.50781,0.908203 0,0.488281 0.43945,0.859375 0.29297,0.253906 1.51367,0.78125 2.03125,0.878906 2.5586,1.386719 0.83984,0.810546 0.83984,1.972656 0,0.771484 -0.47852,1.513672 -0.46875,0.742187 -1.44531,1.191406 -0.9668,0.439453 -2.28515,0.439453 -1.79688,0 -3.05665,-0.888672 -1.25976,-0.888672 -1.1914,-2.890625 z m 13.96484,2.109375 -0.29297,1.445313 q -0.63476,0.166015 -1.23047,0.166015 -1.05468,0 -1.67968,-0.517578 -0.46875,-0.390625 -0.46875,-1.064453 0,-0.341797 0.2539,-1.572266 l 1.25977,-6.02539 h -1.39649 l 0.28321,-1.367188 h 1.39648 l 0.53711,-2.548828 2.02149,-1.220703 -0.79102,3.769531 h 1.73828 l -0.29297,1.367188 h -1.72851 l -1.20117,5.732422 q -0.22461,1.09375 -0.22461,1.308593 0,0.3125 0.17578,0.478516 0.18554,0.166016 0.5957,0.166016 0.58594,0 1.04492,-0.117188 z m 5.9961,1.435547 -2.75391,-14.316406 h 1.8457 l 1.66016,8.535156 q 0.45898,2.324219 0.5957,3.75 0.89844,-1.835937 1.47461,-2.910156 l 5.10742,-9.375 H 572.5 l -7.85156,14.316406 z m 15.01953,-1.289062 q -0.91797,0.791015 -1.76758,1.162109 -0.84961,0.361328 -1.81641,0.361328 -1.43554,0 -2.31445,-0.839844 -0.87891,-0.849609 -0.87891,-2.167968 0,-0.869141 0.39063,-1.533204 0.40039,-0.673828 1.05469,-1.074218 0.65429,-0.410157 1.60156,-0.585938 0.5957,-0.117187 2.25586,-0.185547 1.66992,-0.06836 2.39258,-0.351562 0.20507,-0.722656 0.20507,-1.201172 0,-0.615234 -0.44921,-0.966797 -0.61524,-0.488281 -1.79688,-0.488281 -1.11328,0 -1.82617,0.498047 -0.70313,0.488281 -1.02539,1.396484 l -1.78711,-0.15625 q 0.54687,-1.542969 1.72851,-2.363281 1.19141,-0.820313 2.99805,-0.820313 1.92383,0 3.04688,0.917969 0.85937,0.683594 0.85937,1.777344 0,0.830078 -0.24414,1.923828 l -0.57617,2.578125 q -0.27344,1.230469 -0.27344,2.001953 0,0.488281 0.21484,1.40625 h -1.7871 q -0.14649,-0.507812 -0.20508,-1.289062 z m 0.65429,-3.964844 q -0.37109,0.146484 -0.80078,0.224609 -0.41992,0.07813 -1.41601,0.166016 -1.54297,0.136719 -2.17774,0.351562 -0.63476,0.205078 -0.95703,0.664063 -0.32226,0.458984 -0.32226,1.015625 0,0.742187 0.50781,1.220703 0.51758,0.478516 1.46484,0.478516 0.87891,0 1.68946,-0.458985 0.81054,-0.46875 1.27929,-1.298828 0.46875,-0.830078 0.73242,-2.363281 z m 3.47657,5.253906 2.16797,-10.371094 h 1.5625 l -0.43946,2.119141 q 0.80078,-1.201172 1.5625,-1.777344 0.77149,-0.576172 1.57227,-0.576172 0.52734,0 1.29883,0.38086 L 588.75,83.257034 q -0.45898,-0.332032 -1.00586,-0.332032 -0.92773,0 -1.9043,1.035157 -0.97656,1.035156 -1.5332,3.720703 l -0.87891,4.160156 z m 9.16992,-12.314453 0.41992,-2.001953 h 1.75781 l -0.41992,2.001953 z m -2.57813,12.314453 2.16797,-10.371094 h 1.76758 l -2.16797,10.371094 z m 11.50391,-1.289062 q -0.91797,0.791015 -1.76758,1.162109 -0.84961,0.361328 -1.8164,0.361328 -1.43555,0 -2.31446,-0.839844 -0.8789,-0.849609 -0.8789,-2.167968 0,-0.869141 0.39062,-1.533204 0.40039,-0.673828 1.05469,-1.074218 0.6543,-0.410157 1.60156,-0.585938 0.5957,-0.117187 2.25586,-0.185547 1.66992,-0.06836 2.39258,-0.351562 0.20508,-0.722656 0.20508,-1.201172 0,-0.615234 -0.44922,-0.966797 -0.61524,-0.488281 -1.79688,-0.488281 -1.11328,0 -1.82617,0.498047 -0.70312,0.488281 -1.02539,1.396484 l -1.78711,-0.15625 q 0.54688,-1.542969 1.72852,-2.363281 1.1914,-0.820313 2.99804,-0.820313 1.92383,0 3.04688,0.917969 0.85937,0.683594 0.85937,1.777344 0,0.830078 -0.24414,1.923828 l -0.57617,2.578125 q -0.27344,1.230469 -0.27344,2.001953 0,0.488281 0.21485,1.40625 h -1.78711 q -0.14649,-0.507812 -0.20508,-1.289062 z m 0.6543,-3.964844 q -0.3711,0.146484 -0.80078,0.224609 -0.41993,0.07813 -1.41602,0.166016 -1.54297,0.136719 -2.17773,0.351562 -0.63477,0.205078 -0.95704,0.664063 -0.32226,0.458984 -0.32226,1.015625 0,0.742187 0.50781,1.220703 0.51758,0.478516 1.46484,0.478516 0.87891,0 1.68946,-0.458985 0.81054,-0.46875 1.27929,-1.298828 0.46875,-0.830078 0.73243,-2.363281 z m 3.47656,5.253906 2.98828,-14.316406 h 1.76758 l -1.06445,5.117187 q 0.83984,-0.771484 1.52343,-1.083984 0.6836,-0.322266 1.42578,-0.322266 1.45508,0 2.42188,1.083985 0.97656,1.083984 0.97656,3.154297 0,1.376953 -0.39062,2.519531 -0.39063,1.142578 -0.9668,1.923828 -0.57617,0.771484 -1.19141,1.240234 -0.61523,0.458985 -1.25976,0.683594 -0.64453,0.234375 -1.24024,0.234375 -1.02539,0 -1.80664,-0.537109 -0.78125,-0.546875 -1.2207,-1.660157 l -0.41016,1.962891 z m 2.61719,-4.257812 -0.01,0.332031 q 0,1.328125 0.63477,2.021484 0.63476,0.69336 1.58203,0.69336 0.92773,0 1.69922,-0.644532 0.78125,-0.654297 1.27929,-2.03125 0.49805,-1.376953 0.49805,-2.539062 0,-1.308594 -0.63477,-2.03125 -0.625,-0.722656 -1.55273,-0.722656 -0.95703,0 -1.75781,0.742187 -0.80078,0.732422 -1.33789,2.265625 -0.40039,1.142578 -0.40039,1.914063 z m 8.36914,4.257812 2.98828,-14.316406 h 1.76758 l -2.98828,14.316406 z m 12.19726,-3.525391 1.71875,0.175782 q -0.37109,1.279297 -1.70898,2.43164 -1.32813,1.152344 -3.17383,1.152344 -1.15234,0 -2.11914,-0.527344 -0.95703,-0.537109 -1.46484,-1.552734 -0.49805,-1.015625 -0.49805,-2.314453 0,-1.699219 0.78125,-3.291016 0.79101,-1.601562 2.04101,-2.373047 1.25,-0.78125 2.70508,-0.78125 1.85547,0 2.95899,1.152344 1.11328,1.152344 1.11328,3.144531 0,0.761719 -0.13672,1.5625 h -7.63672 q -0.0391,0.302735 -0.0391,0.546875 0,1.455078 0.66406,2.226563 0.67383,0.761719 1.64063,0.761719 0.9082,0 1.78711,-0.595704 0.8789,-0.595703 1.36718,-1.71875 z m -5.13672,-2.568359 h 5.82032 q 0.01,-0.273437 0.01,-0.390625 0,-1.328125 -0.66406,-2.03125 -0.66406,-0.712891 -1.70898,-0.712891 -1.13282,0 -2.07032,0.78125 -0.92773,0.78125 -1.38672,2.353516 z"
       id="flowRoot1472"
       style="font-style:italic;font-size:20px;line-height:125%;font-family:'Liberation Sans';text-align:end;text-anchor:end;fill:#ce5c00"
       transform="translate(-230.00042,136.22293)"
       aria-label="@PlanningListVariable" />
    <path
       d="m 357.25586,60.249221 q -0.63477,0.732422 -1.42578,1.181641 -0.78125,0.439453 -1.57227,0.439453 -0.86914,0 -1.68945,-0.507813 -0.82031,-0.507812 -1.33789,-1.5625 -0.50781,-1.054687 -0.50781,-2.314453 0,-1.552734 0.79101,-3.105468 0.80078,-1.5625 1.98242,-2.34375 1.18164,-0.78125 2.29493,-0.78125 0.8496,0 1.62109,0.449218 0.77148,0.439453 1.32812,1.347657 l 0.33204,-1.513672 h 1.74804 l -1.40625,6.552734 q -0.29297,1.367188 -0.29297,1.513672 0,0.263672 0.19532,0.458984 0.20507,0.185547 0.48828,0.185547 0.51758,0 1.35742,-0.595703 1.11328,-0.78125 1.75781,-2.089844 0.6543,-1.318359 0.6543,-2.714843 0,-1.63086 -0.83985,-3.046875 -0.83007,-1.416016 -2.49023,-2.265625 -1.65039,-0.84961 -3.65234,-0.84961 -2.28516,0 -4.17969,1.074219 -1.88477,1.064453 -2.92969,3.066406 -1.03515,1.992188 -1.03515,4.277344 0,2.392578 1.03515,4.121094 1.04492,1.728515 3.00781,2.548828 1.97266,0.830078 4.36524,0.830078 2.55859,0 4.28711,-0.859375 1.72851,-0.859375 2.58789,-2.089844 h 1.76758 q -0.49805,1.025391 -1.70899,2.089844 -1.21094,1.064453 -2.88086,1.679687 -1.66992,0.625 -4.02343,0.625 -2.16797,0 -4.00391,-0.55664 -1.82617,-0.556641 -3.11524,-1.679688 -1.28906,-1.113281 -1.94335,-2.568359 -0.82032,-1.845703 -0.82032,-3.984375 0,-2.382813 0.97657,-4.541016 1.1914,-2.646484 3.3789,-4.052734 2.19727,-1.40625 5.32227,-1.40625 2.42187,0 4.3457,0.996094 1.93359,0.986328 3.04688,2.949218 0.94726,1.689454 0.94726,3.671875 0,2.832032 -1.99219,5.029297 -1.77734,1.972657 -3.88672,1.972657 -0.67382,0 -1.09375,-0.205079 -0.41015,-0.205078 -0.60546,-0.585937 -0.12696,-0.244141 -0.18555,-0.839844 z m -4.72656,-2.646484 q 0,1.33789 0.63476,2.080078 0.63477,0.742187 1.45508,0.742187 0.54688,0 1.15234,-0.322265 0.60547,-0.332031 1.15235,-0.976563 0.55664,-0.644531 0.9082,-1.630859 0.35156,-0.996094 0.35156,-1.992188 0,-1.328125 -0.66406,-2.060546 -0.6543,-0.732422 -1.60156,-0.732422 -0.625,0 -1.18164,0.322265 -0.54688,0.3125 -1.06446,1.015625 -0.51757,0.703125 -0.83007,1.708985 -0.3125,1.005859 -0.3125,1.845703 z m 14.55078,4.238281 2.99804,-14.316406 h 5.97657 q 1.55273,0 2.32422,0.361328 0.78125,0.351562 1.28906,1.220703 0.50781,0.859375 0.50781,1.933594 0,0.888672 -0.36133,1.80664 -0.36133,0.917969 -0.91797,1.513672 -0.54687,0.595703 -1.11328,0.898438 -0.5664,0.302734 -1.21093,0.449219 -1.37696,0.322265 -2.78321,0.322265 h -3.58398 l -1.21094,5.810547 z m 3.46679,-7.431641 h 3.1543 q 1.83594,0 2.69531,-0.390625 0.85938,-0.40039 1.37696,-1.210937 0.51758,-0.810547 0.51758,-1.71875 0,-0.703125 -0.27344,-1.142578 -0.27344,-0.449219 -0.77149,-0.654297 -0.49804,-0.214844 -1.91406,-0.214844 h -3.67187 z m 9.54102,7.431641 2.98828,-14.316406 h 1.76758 l -2.98828,14.316406 z m 11.57227,-1.289062 q -0.91797,0.791015 -1.76758,1.162109 -0.84961,0.361328 -1.81641,0.361328 -1.43555,0 -2.31445,-0.839844 -0.87891,-0.849609 -0.87891,-2.167968 0,-0.869141 0.39063,-1.533204 0.40039,-0.673828 1.05468,-1.074218 0.6543,-0.410157 1.60157,-0.585938 0.5957,-0.117187 2.25586,-0.185547 1.66992,-0.06836 2.39257,-0.351562 0.20508,-0.722656 0.20508,-1.201172 0,-0.615234 -0.44922,-0.966797 -0.61523,-0.488281 -1.79687,-0.488281 -1.11328,0 -1.82617,0.498047 -0.70313,0.488281 -1.02539,1.396484 l -1.78711,-0.15625 q 0.54687,-1.542969 1.72851,-2.363281 1.19141,-0.820313 2.99805,-0.820313 1.92383,0 3.04687,0.917969 0.85938,0.683594 0.85938,1.777344 0,0.830078 -0.24414,1.923828 l -0.57617,2.578125 q -0.27344,1.230469 -0.27344,2.001953 0,0.488281 0.21484,1.40625 h -1.78711 q -0.14648,-0.507812 -0.20507,-1.289062 z m 0.65429,-3.964844 q -0.37109,0.146484 -0.80078,0.224609 -0.41992,0.07813 -1.41601,0.166016 -1.54297,0.136719 -2.17774,0.351562 -0.63476,0.205078 -0.95703,0.664063 -0.32227,0.458984 -0.32227,1.015625 0,0.742187 0.50782,1.220703 0.51758,0.478516 1.46484,0.478516 0.87891,0 1.68945,-0.458985 0.81055,-0.46875 1.2793,-1.298828 0.46875,-0.830078 0.73242,-2.363281 z m 3.47657,5.253906 2.16796,-10.371094 h 1.60157 l -0.38086,1.806641 q 1.04492,-1.064453 1.95312,-1.552734 0.90821,-0.488282 1.85547,-0.488282 1.25977,0 1.97266,0.683594 0.72265,0.683594 0.72265,1.826172 0,0.576172 -0.2539,1.816406 l -1.31836,6.279297 h -1.76758 l 1.37695,-6.572266 q 0.20508,-0.957031 0.20508,-1.416015 0,-0.517578 -0.36133,-0.839844 -0.35156,-0.322266 -1.02539,-0.322266 -1.35742,0 -2.42187,0.976563 -1.05469,0.976562 -1.55274,3.349609 l -1.00586,4.824219 z m 11.12304,0 2.16797,-10.371094 h 1.60156 l -0.38086,1.806641 q 1.04493,-1.064453 1.95313,-1.552734 0.9082,-0.488282 1.85547,-0.488282 1.25976,0 1.97265,0.683594 0.72266,0.683594 0.72266,1.826172 0,0.576172 -0.25391,1.816406 l -1.31836,6.279297 h -1.76757 l 1.37695,-6.572266 q 0.20508,-0.957031 0.20508,-1.416015 0,-0.517578 -0.36133,-0.839844 -0.35156,-0.322266 -1.02539,-0.322266 -1.35742,0 -2.42188,0.976563 -1.05468,0.976562 -1.55273,3.349609 l -1.00586,4.824219 z m 13.63281,-12.314453 0.41993,-2.001953 h 1.75781 l -0.41992,2.001953 z m -2.57812,12.314453 2.16797,-10.371094 h 1.76758 l -2.16797,10.371094 z m 4.51172,0 2.16797,-10.371094 H 426.25 l -0.38086,1.806641 q 1.04492,-1.064453 1.95313,-1.552734 0.9082,-0.488282 1.85546,-0.488282 1.25977,0 1.97266,0.683594 0.72266,0.683594 0.72266,1.826172 0,0.576172 -0.25391,1.816406 l -1.31836,6.279297 h -1.76758 l 1.37696,-6.572266 q 0.20507,-0.957031 0.20507,-1.416015 0,-0.517578 -0.36132,-0.839844 -0.35157,-0.322266 -1.02539,-0.322266 -1.35743,0 -2.42188,0.976563 -1.05469,0.976562 -1.55273,3.349609 l -1.00586,4.824219 z m 11.02539,0.9375 1.78711,0.166016 q -0.0195,0.605468 0.14648,0.908203 0.16602,0.302734 0.52735,0.46875 0.47851,0.214844 1.24023,0.214844 1.60156,0 2.30469,-0.830079 0.45898,-0.55664 0.84961,-2.421875 l 0.17578,-0.839843 q -1.37695,1.396484 -2.92969,1.396484 -1.57226,0 -2.63672,-1.152344 -1.05468,-1.162109 -1.05468,-3.28125 0,-1.748047 0.83007,-3.21289 0.83985,-1.464844 1.99219,-2.207032 1.15234,-0.751953 2.37305,-0.751953 2.04101,0 3.14453,1.933594 l 0.35156,-1.699219 h 1.6211 l -2.08985,10.009766 q -0.3418,1.650391 -0.89844,2.568359 -0.55664,0.927735 -1.55273,1.435547 -0.98633,0.507813 -2.28516,0.507813 -1.25,0 -2.1582,-0.322266 -0.89844,-0.322266 -1.34766,-0.947266 -0.43945,-0.615234 -0.43945,-1.416015 0,-0.244141 0.0488,-0.527344 z m 2.20703,-5.527344 q 0,1.064453 0.20508,1.601563 0.29297,0.751953 0.83008,1.152344 0.54687,0.390625 1.21093,0.390625 0.86914,0 1.72852,-0.605469 0.85937,-0.615235 1.38672,-1.894531 0.53711,-1.279297 0.53711,-2.441407 0,-1.279297 -0.71289,-2.03125 -0.70313,-0.761718 -1.74805,-0.761718 -0.64453,0 -1.25,0.351562 -0.60547,0.341797 -1.13281,1.054688 -0.51758,0.703125 -0.79102,1.689453 -0.26367,0.986328 -0.26367,1.49414 z m 9.24805,4.589844 2.99804,-14.316406 h 10.33204 l -0.3418,1.630859 h -8.41797 l -0.9375,4.453125 h 8.20312 l -0.34179,1.63086 h -8.20313 l -1.03515,4.980468 h 9.01367 l -0.3418,1.621094 z m 13.10547,0 2.16796,-10.371094 h 1.60157 l -0.38086,1.806641 q 1.04492,-1.064453 1.95312,-1.552734 0.90821,-0.488282 1.85547,-0.488282 1.25977,0 1.97266,0.683594 0.72265,0.683594 0.72265,1.826172 0,0.576172 -0.2539,1.816406 l -1.31836,6.279297 h -1.76758 l 1.37695,-6.572266 q 0.20508,-0.957031 0.20508,-1.416015 0,-0.517578 -0.36133,-0.839844 -0.35156,-0.322266 -1.02539,-0.322266 -1.35742,0 -2.42187,0.976563 -1.05469,0.976562 -1.55274,3.349609 l -1.00586,4.824219 z m 15.2539,-1.435547 -0.29297,1.445313 q -0.63476,0.166015 -1.23047,0.166015 -1.05468,0 -1.67968,-0.517578 -0.46875,-0.390625 -0.46875,-1.064453 0,-0.341797 0.2539,-1.572266 l 1.25977,-6.02539 h -1.39649 l 0.28321,-1.367188 h 1.39648 l 0.53711,-2.548828 2.02149,-1.220703 -0.79102,3.769531 h 1.73828 l -0.29297,1.367188 h -1.72851 l -1.20117,5.732422 q -0.22461,1.09375 -0.22461,1.308593 0,0.3125 0.17578,0.478516 0.18554,0.166016 0.5957,0.166016 0.58594,0 1.04492,-0.117188 z m 3.93555,-10.878906 0.41992,-2.001953 h 1.75781 l -0.41992,2.001953 z m -2.57813,12.314453 2.16797,-10.371094 h 1.76758 l -2.16797,10.371094 z m 8.64258,-1.435547 -0.29297,1.445313 q -0.63476,0.166015 -1.23047,0.166015 -1.05468,0 -1.67968,-0.517578 -0.46875,-0.390625 -0.46875,-1.064453 0,-0.341797 0.2539,-1.572266 l 1.25977,-6.02539 h -1.39649 l 0.28321,-1.367188 h 1.39648 l 0.53711,-2.548828 2.02149,-1.220703 -0.79102,3.769531 h 1.73828 l -0.29297,1.367188 h -1.72851 l -1.20117,5.732422 q -0.22461,1.09375 -0.22461,1.308593 0,0.3125 0.17578,0.478516 0.18554,0.166016 0.5957,0.166016 0.58594,0 1.04492,-0.117188 z m 0.76172,5.439453 0.10742,-1.660156 q 0.54688,0.15625 1.06446,0.15625 0.53711,0 0.86914,-0.244141 0.42968,-0.322265 0.9375,-1.210937 l 0.5664,-1.015625 -1.72851,-10.400391 h 1.73828 l 0.78125,5.244141 q 0.23437,1.552734 0.40039,3.105469 l 4.63867,-8.34961 h 1.8457 l -6.61132,11.748047 q -0.95704,1.71875 -1.69922,2.275391 -0.74219,0.55664 -1.70899,0.55664 -0.61523,0 -1.20117,-0.205078 z"
       id="flowRoot2362"
       style="font-style:italic;font-size:20px;line-height:125%;font-family:'Liberation Sans';text-align:center;text-anchor:middle;fill:#4e9a06"
       transform="translate(-311.45084,136.22324)"
       aria-label="@PlanningEntity" />
    <rect
       style="display:inline;opacity:0.5;fill:#8ae234;stroke:none;stroke-width:1"
       id="rect2364"
       width="159"
       height="79"
       x="30.499573"
       y="210.5"
       rx="4.999999"
       ry="5" />
  </g>
</svg>
