<?xml version="1.0" encoding="UTF-8" standalone="no"?>
<!-- Created with Inkscape (http://www.inkscape.org/) -->

<svg
   width="800"
   height="600"
   id="svg2"
   version="1.1"
   xmlns="http://www.w3.org/2000/svg"
   xmlns:svg="http://www.w3.org/2000/svg"
   xmlns:rdf="http://www.w3.org/1999/02/22-rdf-syntax-ns#"
   xmlns:cc="http://creativecommons.org/ns#"
   xmlns:dc="http://purl.org/dc/elements/1.1/">
  <defs
     id="defs4">
    <clipPath
       clipPathUnits="userSpaceOnUse"
       id="clipPath5141-3">
      <path
         id="path5143-5"
         d="m 250,812.36218 90,40 60,80 0,130.00002 -410,0 0,-250.00002 z"
         style="color:#000000;fill:#000000;fill-opacity:1;fill-rule:nonzero;stroke:none;stroke-width:35.43307114;marker:none;visibility:visible;display:inline;overflow:visible;enable-background:accumulate" />
    </clipPath>
    <clipPath
       clipPathUnits="userSpaceOnUse"
       id="clipPath5060-5">
      <path
         style="color:#000000;fill:#000000;fill-opacity:1;fill-rule:nonzero;stroke:none;stroke-width:35.43307114;marker:none;visibility:visible;display:inline;overflow:visible;enable-background:accumulate"
         d="m 410,682.36218 -260,0 0,110 100,20 80,30 30,30 80,60 120,0 0,-120 -60,-80 -90,-50"
         id="path5062-7" />
    </clipPath>
    <clipPath
       clipPathUnits="userSpaceOnUse"
       id="clipPath5054-1">
      <path
         style="color:#000000;fill:#000000;fill-opacity:1;fill-rule:nonzero;stroke:none;stroke-width:35.43307114;marker:none;visibility:visible;display:inline;overflow:visible;enable-background:accumulate"
         d="m 0,812.36218 250,0 90,40 70,70 0,140.00002 -420,0 0,-250.00002 z"
         id="path5056-2" />
    </clipPath>
  </defs>
  <metadata
     id="metadata7">
    <rdf:RDF>
      <cc:Work
         rdf:about="">
        <dc:format>image/svg+xml</dc:format>
        <dc:type
           rdf:resource="http://purl.org/dc/dcmitype/StillImage" />
        <dc:language>en</dc:language>
        <cc:license
           rdf:resource="https://timefold.ai/license" />
      </cc:Work>
    </rdf:RDF>
  </metadata>
  <g
     id="layer1"
     transform="translate(0,-452.36218)"
     style="display:inline">
    <path
       style="font-size:36px;line-height:1.25;font-family:'Liberation Sans';-inkscape-font-specification:'Liberation Sans, Normal';text-align:center;text-anchor:middle"
       d="m 200.99414,252.42716 -9.98437,-25.76953 h 3.6914 l 6.69727,18.7207 q 0.80859,2.25 1.35351,4.21875 0.59766,-2.10937 1.38867,-4.21875 l 6.96094,-18.7207 h 3.48047 l -10.08984,25.76953 z m 27.03516,-6.01172 3.26953,0.4043 q -0.77344,2.86523 -2.86524,4.44726 -2.09179,1.58203 -5.34375,1.58203 -4.0957,0 -6.5039,-2.51367 -2.39063,-2.53125 -2.39063,-7.08398 0,-4.71094 2.42578,-7.3125 2.42578,-2.60156 6.29297,-2.60156 3.74414,0 6.11719,2.54882 2.37305,2.54883 2.37305,7.17188 0,0.28125 -0.0176,0.84375 h -13.92188 q 0.17578,3.07617 1.74024,4.71094 1.56445,1.63476 3.90234,1.63476 1.74024,0 2.9707,-0.91406 1.23047,-0.91406 1.95118,-2.91797 z m -10.38868,-5.11523 h 10.42383 q -0.21093,-2.35547 -1.19531,-3.53321 -1.51172,-1.82812 -3.91992,-1.82812 -2.17969,0 -3.67383,1.45898 -1.47656,1.45899 -1.63477,3.90235 z m 17.63086,11.12695 v -25.76953 h 3.16407 v 9.24609 q 2.21484,-2.5664 5.58984,-2.5664 2.07422,0 3.60352,0.82617 1.52929,0.80859 2.17968,2.25 0.66797,1.4414 0.66797,4.18359 v 11.83008 h -3.16406 v -11.83008 q 0,-2.37305 -1.03711,-3.44531 -1.01953,-1.08985 -2.90039,-1.08985 -1.40625,0 -2.6543,0.73829 -1.23047,0.7207 -1.75781,1.96875 -0.52734,1.24804 -0.52734,3.44531 v 10.21289 z m 20.03907,-22.13086 v -3.63867 h 3.16406 v 3.63867 z m 0,22.13086 v -18.66797 h 3.16406 v 18.66797 z m 20.16211,-6.83789 3.11132,0.4043 q -0.50976,3.21679 -2.61914,5.04492 -2.09179,1.81054 -5.15039,1.81054 -3.83203,0 -6.16992,-2.49609 -2.32031,-2.51367 -2.32031,-7.18945 0,-3.02344 1.00195,-5.29102 1.00195,-2.26758 3.04102,-3.39258 2.05664,-1.14257 4.46484,-1.14257 3.04102,0 4.97461,1.54687 1.93359,1.5293 2.47852,4.35938 l -3.07618,0.4746 q -0.43945,-1.88085 -1.56445,-2.83007 -1.10742,-0.94922 -2.68945,-0.94922 -2.39063,0 -3.88477,1.72265 -1.49414,1.70508 -1.49414,5.41407 0,3.76172 1.44141,5.46679 1.4414,1.70508 3.76172,1.70508 1.86328,0 3.11132,-1.14258 1.24805,-1.14257 1.58204,-3.51562 z m 5.74804,6.83789 v -25.76953 h 3.16407 v 25.76953 z m 20.84766,-6.01172 3.26953,0.4043 q -0.77344,2.86523 -2.86523,4.44726 -2.0918,1.58203 -5.34375,1.58203 -4.09571,0 -6.50391,-2.51367 -2.39063,-2.53125 -2.39063,-7.08398 0,-4.71094 2.42579,-7.3125 2.42578,-2.60156 6.29296,-2.60156 3.74415,0 6.11719,2.54882 2.37305,2.54883 2.37305,7.17188 0,0.28125 -0.0176,0.84375 h -13.92187 q 0.17578,3.07617 1.74023,4.71094 1.56445,1.63476 3.90234,1.63476 1.74024,0 2.97071,-0.91406 1.23047,-0.91406 1.95117,-2.91797 z m -10.38867,-5.11523 h 10.42383 q -0.21094,-2.35547 -1.19532,-3.53321 -1.51172,-1.82812 -3.91992,-1.82812 -2.17969,0 -3.67383,1.45898 -1.47656,1.45899 -1.63476,3.90235 z m 27.59765,11.12695 v -18.66797 h 2.84766 v 2.83008 q 1.08984,-1.98633 2.00391,-2.61914 0.93164,-0.63281 2.03906,-0.63281 1.59961,0 3.25195,1.01953 l -1.08984,2.93554 q -1.16016,-0.68554 -2.32031,-0.68554 -1.03711,0 -1.86329,0.63281 -0.82617,0.61523 -1.17773,1.72266 -0.52734,1.6875 -0.52734,3.6914 v 9.77344 z m 10.84571,-9.33399 q 0,-5.18554 2.88281,-7.68164 2.4082,-2.07421 5.87109,-2.07421 3.84961,0 6.29297,2.53125 2.44336,2.51367 2.44336,6.96093 0,3.60352 -1.08984,5.67774 -1.07227,2.05664 -3.14649,3.19922 -2.05664,1.14257 -4.5,1.14257 -3.91992,0 -6.3457,-2.51367 -2.4082,-2.51367 -2.4082,-7.24219 z m 3.25195,0 q 0,3.58594 1.56445,5.37891 1.56446,1.77539 3.9375,1.77539 2.35547,0 3.91992,-1.79297 1.56446,-1.79297 1.56446,-5.46679 0,-3.46289 -1.58203,-5.23829 -1.56446,-1.79296 -3.90235,-1.79296 -2.37304,0 -3.9375,1.77539 -1.56445,1.77539 -1.56445,5.36132 z m 30.18164,9.33399 v -2.74219 q -2.17969,3.16406 -5.92383,3.16406 -1.65234,0 -3.09375,-0.63281 -1.42383,-0.63281 -2.12695,-1.58203 -0.68555,-0.9668 -0.9668,-2.35547 -0.19336,-0.93164 -0.19336,-2.95312 v -11.56641 h 3.16407 v 10.35352 q 0,2.47851 0.19335,3.33984 0.29883,1.24805 1.26563,1.96875 0.9668,0.70312 2.39062,0.70312 1.42383,0 2.67188,-0.7207 1.24805,-0.73828 1.75781,-1.98633 0.52735,-1.26562 0.52735,-3.65625 v -10.00195 h 3.16406 v 18.66797 z m 14.69531,-2.83008 0.45703,2.79492 q -1.33593,0.28125 -2.39062,0.28125 -1.72266,0 -2.67188,-0.54492 -0.94921,-0.54492 -1.33593,-1.42383 -0.38672,-0.89648 -0.38672,-3.74414 v -10.74023 h -2.32031 v -2.46094 h 2.32031 v -4.62305 l 3.14648,-1.89843 v 6.52148 h 3.18164 v 2.46094 h -3.18164 v 10.91601 q 0,1.35352 0.15821,1.74024 0.17578,0.38672 0.54492,0.61523 0.38672,0.22852 1.08984,0.22852 0.52734,0 1.38867,-0.12305 z m 3.11133,-19.30078 v -3.63867 h 3.16406 v 3.63867 z m 0,22.13086 v -18.66797 h 3.16406 v 18.66797 z m 7.98047,0 v -18.66797 h 2.84766 v 2.6543 q 2.05664,-3.07617 5.9414,-3.07617 1.6875,0 3.09375,0.61523 1.42383,0.59766 2.12696,1.58203 0.70312,0.98438 0.98437,2.33789 0.17578,0.87891 0.17578,3.07617 v 11.47852 h -3.16406 v -11.35547 q 0,-1.93359 -0.36914,-2.88281 -0.36914,-0.9668 -1.31836,-1.5293 -0.93164,-0.58008 -2.19727,-0.58008 -2.02148,0 -3.49804,1.28321 -1.45899,1.2832 -1.45899,4.86914 v 10.19531 z m 19.44141,1.54687 3.07617,0.45704 q 0.19336,1.42382 1.07226,2.07421 1.17774,0.87891 3.2168,0.87891 2.19727,0 3.39258,-0.87891 1.19531,-0.8789 1.61719,-2.46093 0.24609,-0.9668 0.22851,-4.06055 -2.07422,2.44336 -5.16797,2.44336 -3.84961,0 -5.95898,-2.77734 -2.10938,-2.77735 -2.10938,-6.66211 0,-2.67188 0.9668,-4.92188 0.9668,-2.26758 2.79492,-3.49805 1.84571,-1.23046 4.32422,-1.23046 3.30469,0 5.44922,2.67187 v -2.25 h 2.91797 v 16.13672 q 0,4.35937 -0.89649,6.16992 -0.8789,1.82813 -2.8125,2.88281 -1.91601,1.05469 -4.72851,1.05469 -3.33985,0 -5.39649,-1.51172 -2.05664,-1.49414 -1.98632,-4.51758 z m 2.61914,-11.21484 q 0,3.67383 1.45898,5.36133 1.45899,1.6875 3.65625,1.6875 2.17969,0 3.65625,-1.66992 1.47656,-1.6875 1.47656,-5.27344 0,-3.42774 -1.52929,-5.16797 -1.51172,-1.74023 -3.65625,-1.74023 -2.10938,0 -3.58594,1.72265 -1.47656,1.70508 -1.47656,5.08008 z m 40.0957,9.66797 v -2.35547 q -1.77539,2.77734 -5.2207,2.77734 -2.23243,0 -4.11328,-1.23046 -1.86329,-1.23047 -2.9004,-3.42774 -1.01953,-2.21484 -1.01953,-5.08008 0,-2.79492 0.93164,-5.0625 0.93164,-2.28515 2.79493,-3.49804 1.86328,-1.21289 4.16601,-1.21289 1.6875,0 3.00586,0.7207 1.31836,0.70312 2.14453,1.8457 v -9.24609 h 3.14649 v 25.76953 z m -10.00195,-9.31641 q 0,3.58594 1.51172,5.36133 1.51171,1.77539 3.56835,1.77539 2.07422,0 3.51563,-1.6875 1.45898,-1.70508 1.45898,-5.18555 0,-3.83203 -1.47656,-5.625 -1.47656,-1.79296 -3.63867,-1.79296 -2.10938,0 -3.5332,1.72265 -1.40625,1.72266 -1.40625,5.43164 z m 17.92968,-12.81445 v -3.63867 h 3.16407 v 3.63867 z m 0,22.13086 v -18.66797 h 3.16407 v 18.66797 z m 6.71485,-5.57227 3.1289,-0.49218 q 0.26368,1.88086 1.45899,2.88281 1.21289,1.00195 3.375,1.00195 2.17969,0 3.23437,-0.8789 1.05469,-0.89649 1.05469,-2.0918 0,-1.07227 -0.93164,-1.6875 -0.65039,-0.42188 -3.23437,-1.07227 -3.48047,-0.8789 -4.83399,-1.51172 -1.33594,-0.65039 -2.03906,-1.77539 -0.68555,-1.14257 -0.68555,-2.51367 0,-1.24805 0.5625,-2.30273 0.58008,-1.07227 1.56445,-1.77539 0.73829,-0.54493 2.00391,-0.91407 1.2832,-0.38671 2.74219,-0.38671 2.19726,0 3.84961,0.63281 1.66992,0.63281 2.46094,1.72265 0.79101,1.07227 1.08984,2.88282 l -3.09375,0.42187 q -0.21094,-1.4414 -1.23047,-2.25 -1.00195,-0.80859 -2.84766,-0.80859 -2.17968,0 -3.11132,0.7207 -0.93164,0.7207 -0.93164,1.6875 0,0.61524 0.38671,1.10742 0.38672,0.50977 1.21289,0.84375 0.47461,0.17578 2.79493,0.8086 3.35742,0.89648 4.67578,1.47656 1.33594,0.5625 2.09179,1.65234 0.75586,1.08985 0.75586,2.70703 0,1.58204 -0.93164,2.98829 -0.91406,1.38867 -2.65429,2.1621 -1.74024,0.75586 -3.9375,0.75586 -3.63868,0 -5.55469,-1.51171 -1.89844,-1.51172 -2.42578,-4.48243 z m 26.17383,2.74219 0.45703,2.79492 q -1.33594,0.28125 -2.39063,0.28125 -1.72265,0 -2.67187,-0.54492 -0.94922,-0.54492 -1.33594,-1.42383 -0.38672,-0.89648 -0.38672,-3.74414 v -10.74023 h -2.32031 v -2.46094 h 2.32031 v -4.62305 l 3.14649,-1.89843 v 6.52148 h 3.18164 v 2.46094 h -3.18164 v 10.91601 q 0,1.35352 0.1582,1.74024 0.17578,0.38672 0.54492,0.61523 0.38672,0.22852 1.08984,0.22852 0.52735,0 1.38868,-0.12305 z m 15.27539,0.52734 q -1.75782,1.49415 -3.39258,2.10938 -1.61719,0.61523 -3.48047,0.61523 -3.07617,0 -4.72852,-1.49414 -1.65234,-1.51172 -1.65234,-3.84961 0,-1.37109 0.61523,-2.49609 0.63282,-1.14258 1.63477,-1.82812 1.01953,-0.68555 2.28516,-1.03711 0.93164,-0.2461 2.8125,-0.47461 3.83203,-0.45703 5.64257,-1.08985 0.0176,-0.65039 0.0176,-0.82617 0,-1.93359 -0.89648,-2.72461 -1.21289,-1.07226 -3.60352,-1.07226 -2.23242,0 -3.30468,0.79101 -1.05469,0.77344 -1.56446,2.75977 l -3.09375,-0.42188 q 0.42188,-1.98633 1.38867,-3.19922 0.9668,-1.23047 2.79493,-1.88086 1.82812,-0.66796 4.23632,-0.66796 2.39063,0 3.88477,0.5625 1.49414,0.5625 2.19727,1.42382 0.70312,0.84375 0.98437,2.14453 0.1582,0.8086 0.1582,2.91797 v 4.21875 q 0,4.41211 0.19336,5.58985 0.21094,1.16015 0.8086,2.23242 h -3.30469 q -0.49219,-0.98438 -0.63281,-2.30274 z m -0.26368,-7.0664 q -1.72265,0.70312 -5.16796,1.19531 -1.95118,0.28125 -2.75977,0.63281 -0.80859,0.35157 -1.24805,1.03711 -0.43945,0.66797 -0.43945,1.49414 0,1.26563 0.94922,2.10938 0.9668,0.84375 2.8125,0.84375 1.82812,0 3.25195,-0.79102 1.42383,-0.80859 2.0918,-2.19726 0.50976,-1.07227 0.50976,-3.16407 z m 8.10352,9.36914 v -18.66797 h 2.84766 v 2.6543 q 2.05664,-3.07617 5.9414,-3.07617 1.6875,0 3.09375,0.61523 1.42383,0.59766 2.12696,1.58203 0.70312,0.98438 0.98437,2.33789 0.17578,0.87891 0.17578,3.07617 v 11.47852 h -3.16406 v -11.35547 q 0,-1.93359 -0.36914,-2.88281 -0.36914,-0.9668 -1.31836,-1.5293 -0.93164,-0.58008 -2.19727,-0.58008 -2.02148,0 -3.49804,1.28321 -1.45899,1.2832 -1.45899,4.86914 v 10.19531 z m 32.20313,-6.83789 3.11132,0.4043 q -0.50976,3.21679 -2.61914,5.04492 -2.09179,1.81054 -5.15039,1.81054 -3.83203,0 -6.16992,-2.49609 -2.32031,-2.51367 -2.32031,-7.18945 0,-3.02344 1.00195,-5.29102 1.00195,-2.26758 3.04102,-3.39258 2.05664,-1.14257 4.46484,-1.14257 3.04102,0 4.97461,1.54687 1.93359,1.5293 2.47852,4.35938 l -3.07618,0.4746 q -0.43945,-1.88085 -1.56445,-2.83007 -1.10742,-0.94922 -2.68945,-0.94922 -2.39063,0 -3.88477,1.72265 -1.49414,1.70508 -1.49414,5.41407 0,3.76172 1.44141,5.46679 1.4414,1.70508 3.76172,1.70508 1.86328,0 3.11132,-1.14258 1.24805,-1.14257 1.58204,-3.51562 z m 18.59765,0.82617 3.26953,0.4043 q -0.77343,2.86523 -2.86523,4.44726 -2.0918,1.58203 -5.34375,1.58203 -4.0957,0 -6.50391,-2.51367 -2.39062,-2.53125 -2.39062,-7.08398 0,-4.71094 2.42578,-7.3125 2.42578,-2.60156 6.29297,-2.60156 3.74414,0 6.11718,2.54882 2.37305,2.54883 2.37305,7.17188 0,0.28125 -0.0176,0.84375 h -13.92187 q 0.17578,3.07617 1.74023,4.71094 1.56446,1.63476 3.90235,1.63476 1.74023,0 2.9707,-0.91406 1.23047,-0.91406 1.95117,-2.91797 z m -10.38867,-5.11523 h 10.42383 q -0.21094,-2.35547 -1.19531,-3.53321 -1.51172,-1.82812 -3.91993,-1.82812 -2.17968,0 -3.67382,1.45898 -1.47657,1.45899 -1.63477,3.90235 z m 34.54102,8.29687 0.45703,2.79492 q -1.33594,0.28125 -2.39063,0.28125 -1.72265,0 -2.67187,-0.54492 -0.94922,-0.54492 -1.33594,-1.42383 -0.38672,-0.89648 -0.38672,-3.74414 v -10.74023 h -2.32031 v -2.46094 h 2.32031 v -4.62305 l 3.14648,-1.89843 v 6.52148 h 3.18165 v 2.46094 h -3.18165 v 10.91601 q 0,1.35352 0.15821,1.74024 0.17578,0.38672 0.54492,0.61523 0.38672,0.22852 1.08984,0.22852 0.52735,0 1.38868,-0.12305 z m 2.95312,10.01953 -0.35156,-2.9707 q 1.03711,0.28125 1.81054,0.28125 1.05469,0 1.6875,-0.35156 0.63282,-0.35157 1.03711,-0.98438 0.29883,-0.47461 0.9668,-2.35547 0.0879,-0.26367 0.28125,-0.77343 l -7.08398,-18.70313 h 3.41015 l 3.88477,10.81055 q 0.75586,2.05664 1.35351,4.32422 0.54493,-2.17969 1.30079,-4.25391 l 3.99023,-10.88086 h 3.16406 l -7.10156,18.98438 q -1.14258,3.07617 -1.77539,4.23632 -0.84375,1.56446 -1.93359,2.28516 -1.08985,0.73828 -2.60157,0.73828 -0.91406,0 -2.03906,-0.38672 z m 18.14063,-0.0351 v -25.82227 h 2.88281 v 2.42578 q 1.01953,-1.42383 2.30273,-2.12695 1.28321,-0.7207 3.11133,-0.7207 2.39063,0 4.21875,1.23046 1.82813,1.23047 2.75977,3.48047 0.93164,2.23242 0.93164,4.9043 0,2.86523 -1.03711,5.16797 -1.01953,2.28515 -2.98828,3.51562 -1.95118,1.21289 -4.11329,1.21289 -1.58203,0 -2.84765,-0.66796 -1.24805,-0.66797 -2.05664,-1.6875 v 9.08789 z m 2.86523,-16.38282 q 0,3.60352 1.45898,5.32618 1.45899,1.72265 3.53321,1.72265 2.10937,0 3.60351,-1.77539 1.51172,-1.79297 1.51172,-5.53711 0,-3.56836 -1.47656,-5.34375 -1.45899,-1.77539 -3.49805,-1.77539 -2.02148,0 -3.58594,1.89844 -1.54687,1.88086 -1.54687,5.48437 z m 29.93555,3.2168 3.26953,0.4043 q -0.77344,2.86523 -2.86524,4.44726 -2.09179,1.58203 -5.34375,1.58203 -4.0957,0 -6.5039,-2.51367 -2.39063,-2.53125 -2.39063,-7.08398 0,-4.71094 2.42578,-7.3125 2.42578,-2.60156 6.29297,-2.60156 3.74414,0 6.11719,2.54882 2.37305,2.54883 2.37305,7.17188 0,0.28125 -0.0176,0.84375 h -13.92188 q 0.17578,3.07617 1.74024,4.71094 1.56445,1.63476 3.90234,1.63476 1.74024,0 2.9707,-0.91406 1.23047,-0.91406 1.95118,-2.91797 z m -10.38868,-5.11523 h 10.42383 q -0.21093,-2.35547 -1.19531,-3.53321 -1.51172,-1.82812 -3.91992,-1.82812 -2.17969,0 -3.67383,1.45898 -1.47656,1.45899 -1.63477,3.90235 z"
       id="flowRoot4302"
       transform="translate(-20,252.36177)"
       aria-label="Vehicle routing distance type" />
    <path
       style="font-size:14px;line-height:1.25;font-family:'Liberation Sans';-inkscape-font-specification:'Liberation Sans, Normal';text-align:center;text-anchor:middle"
       d="m 175.32812,159.09689 1.32618,0.33496 q -0.417,1.63379 -1.50391,2.49512 -1.08008,0.85449 -2.64551,0.85449 -1.62011,0 -2.63867,-0.65625 -1.01172,-0.66309 -1.54492,-1.91406 -0.52637,-1.25098 -0.52637,-2.68653 0,-1.56543 0.59473,-2.72753 0.60156,-1.16895 1.70215,-1.77051 1.10742,-0.6084 2.43359,-0.6084 1.50391,0 2.5293,0.76562 1.02539,0.76563 1.42871,2.15332 l -1.30567,0.30762 q -0.34863,-1.09375 -1.01171,-1.59277 -0.66309,-0.49903 -1.66797,-0.49903 -1.15528,0 -1.93457,0.55372 -0.77246,0.55371 -1.08692,1.49023 -0.31445,0.92969 -0.31445,1.9209 0,1.27832 0.36914,2.23535 0.37598,0.9502 1.16211,1.42188 0.78613,0.47167 1.70215,0.47167 1.11426,0 1.88672,-0.64257 0.77246,-0.64258 1.04589,-1.90723 z m 7.54004,2.61816 q -0.68359,0.58106 -1.31933,0.82032 -0.62891,0.23925 -1.35352,0.23925 -1.19629,0 -1.83886,-0.58105 -0.64258,-0.58789 -0.64258,-1.49707 0,-0.5332 0.23925,-0.9707 0.2461,-0.44434 0.63575,-0.71094 0.39648,-0.2666 0.88867,-0.40332 0.3623,-0.0957 1.09375,-0.18457 1.49023,-0.17774 2.19433,-0.42383 0.007,-0.25293 0.007,-0.32129 0,-0.75195 -0.34863,-1.05957 -0.47168,-0.41699 -1.40137,-0.41699 -0.86816,0 -1.28516,0.30762 -0.41015,0.30078 -0.60839,1.07324 l -1.20313,-0.16406 q 0.16406,-0.77247 0.54004,-1.24415 0.37598,-0.47851 1.08691,-0.73144 0.71094,-0.25977 1.64747,-0.25977 0.92968,0 1.51074,0.21875 0.58105,0.21875 0.85449,0.55371 0.27344,0.32813 0.38281,0.83399 0.0615,0.31445 0.0615,1.13476 v 1.64063 q 0,1.71582 0.0752,2.17383 0.082,0.45117 0.31445,0.86816 h -1.28515 q -0.19141,-0.38281 -0.2461,-0.89551 z m -0.10254,-2.74804 q -0.66992,0.27343 -2.00976,0.46484 -0.75879,0.10938 -1.07324,0.24609 -0.31446,0.13672 -0.48535,0.40333 -0.1709,0.25976 -0.1709,0.58105 0,0.49219 0.36914,0.82031 0.37597,0.32813 1.09375,0.32813 0.71094,0 1.26465,-0.30762 0.55371,-0.31445 0.81347,-0.85449 0.19824,-0.41699 0.19824,-1.23047 z m 3.15137,3.64355 v -7.25976 h 1.10742 v 1.03222 q 0.79981,-1.19629 2.31055,-1.19629 0.65625,0 1.20313,0.23926 0.55371,0.23242 0.82714,0.61524 0.27344,0.38281 0.38282,0.90918 0.0684,0.34179 0.0684,1.19628 v 4.46387 h -1.23047 v -4.41601 q 0,-0.75196 -0.14356,-1.1211 -0.14355,-0.37597 -0.51269,-0.59472 -0.36231,-0.22559 -0.85449,-0.22559 -0.78614,0 -1.36036,0.49902 -0.56738,0.49903 -0.56738,1.89356 v 3.96484 z m 13.01563,0 -2.22168,-7.25976 h 1.27148 l 1.15528,4.19043 0.43066,1.55859 q 0.0273,-0.11621 0.37598,-1.49707 l 1.15527,-4.25195 h 1.26465 l 1.08691,4.21093 0.36231,1.3877 0.41699,-1.40137 1.24414,-4.19726 h 1.19629 l -2.26953,7.25976 h -1.27832 l -1.15528,-4.34765 -0.28027,-1.23731 -1.46973,5.58496 z m 13.74023,-2.33789 1.27149,0.15723 q -0.30079,1.11426 -1.11426,1.72949 -0.81348,0.61523 -2.07813,0.61523 -1.59277,0 -2.52929,-0.97753 -0.92969,-0.98438 -0.92969,-2.75489 0,-1.83203 0.94336,-2.84375 0.94336,-1.01172 2.44726,-1.01172 1.45606,0 2.37891,0.99121 0.92285,0.99122 0.92285,2.78907 0,0.10937 -0.007,0.32812 h -5.41407 q 0.0684,1.19629 0.67676,1.83203 0.6084,0.63575 1.51758,0.63575 0.67676,0 1.15527,-0.35547 0.47852,-0.35547 0.75879,-1.13477 z m -4.04004,-1.98926 h 4.05371 q -0.082,-0.91601 -0.46484,-1.37402 -0.58789,-0.71094 -1.52441,-0.71094 -0.84766,0 -1.42872,0.56739 -0.57421,0.56738 -0.63574,1.51757 z m 10.28809,0.69727 q 0,-2.0166 1.12109,-2.98731 0.93653,-0.80664 2.28321,-0.80664 1.49707,0 2.44726,0.98438 0.9502,0.97754 0.9502,2.70703 0,1.40137 -0.42383,2.20801 -0.41699,0.7998 -1.22363,1.24414 -0.79981,0.44433 -1.75,0.44433 -1.52442,0 -2.46778,-0.97753 -0.93652,-0.97754 -0.93652,-2.81641 z m 1.26465,0 q 0,1.39453 0.6084,2.0918 0.60839,0.69043 1.53125,0.69043 0.91601,0 1.52441,-0.69727 0.6084,-0.69727 0.6084,-2.12598 0,-1.34668 -0.61524,-2.03711 -0.6084,-0.69726 -1.51757,-0.69726 -0.92286,0 -1.53125,0.69043 -0.6084,0.69043 -0.6084,2.08496 z m 6.97949,6.41211 V 155.3508 h 1.12109 v 0.94336 q 0.39649,-0.55372 0.89551,-0.82715 0.49902,-0.28028 1.20996,-0.28028 0.92969,0 1.64063,0.47852 0.71093,0.47852 1.07324,1.35352 0.3623,0.86816 0.3623,1.90722 0,1.11426 -0.40332,2.00977 -0.39648,0.88867 -1.16211,1.36718 -0.75879,0.47168 -1.59961,0.47168 -0.61523,0 -1.10742,-0.25976 -0.48535,-0.25977 -0.7998,-0.65625 v 3.53418 z m 1.11426,-6.3711 q 0,1.40137 0.56738,2.07129 0.56738,0.66993 1.37402,0.66993 0.82032,0 1.40137,-0.69043 0.58789,-0.69727 0.58789,-2.15332 0,-1.3877 -0.57422,-2.07813 -0.56738,-0.69043 -1.36035,-0.69043 -0.78613,0 -1.39453,0.73828 -0.60156,0.73145 -0.60156,2.13281 z m 9.3584,2.48829 0.17773,1.08691 q -0.51953,0.10938 -0.92969,0.10938 -0.66992,0 -1.03906,-0.21192 -0.36914,-0.21191 -0.51953,-0.55371 -0.15039,-0.34863 -0.15039,-1.45605 v -4.17676 h -0.90235 v -0.95703 h 0.90235 v -1.79786 l 1.22363,-0.73828 v 2.53614 h 1.23731 v 0.95703 h -1.23731 v 4.24511 q 0,0.52637 0.0615,0.67676 0.0684,0.15039 0.21192,0.23926 0.15039,0.0889 0.42383,0.0889 0.20507,0 0.54004,-0.0478 z m 1.20996,-7.50586 v -1.41504 h 1.23046 v 1.41504 z m 0,8.60644 v -7.25976 h 1.23046 v 7.25976 z m 3.10351,0 v -7.25976 h 1.10059 v 1.01855 q 0.34179,-0.5332 0.90918,-0.85449 0.56738,-0.32813 1.29199,-0.32813 0.80664,0 1.31934,0.33496 0.51953,0.33497 0.73144,0.93653 0.86133,-1.27149 2.24219,-1.27149 1.08008,0 1.66113,0.60157 0.58106,0.59472 0.58106,1.83886 v 4.9834 h -1.22364 v -4.57324 q 0,-0.73828 -0.12304,-1.05957 -0.11621,-0.32813 -0.43067,-0.52637 -0.31445,-0.19824 -0.73828,-0.19824 -0.76562,0 -1.27148,0.5127 -0.50586,0.50585 -0.50586,1.62695 v 4.21777 h -1.23047 v -4.71679 q 0,-0.82032 -0.30078,-1.23047 -0.30078,-0.41016 -0.98438,-0.41016 -0.51953,0 -0.96387,0.27344 -0.4375,0.27344 -0.63574,0.7998 -0.19824,0.52637 -0.19824,1.51758 v 3.7666 z m 11.66895,-8.60644 v -1.41504 h 1.23047 v 1.41504 z m 0,8.60644 v -7.25976 h 1.23047 v 7.25976 z m 2.4541,0 v -0.99804 l 4.62109,-5.30469 q -0.78613,0.041 -1.38769,0.041 h -2.95996 v -0.99804 h 5.93359 v 0.81347 l -3.93066,4.60742 -0.75879,0.84083 q 0.82715,-0.0615 1.55175,-0.0615 H 262.5 v 1.05957 z m 12.61914,-2.33789 1.27148,0.15723 q -0.30078,1.11426 -1.11425,1.72949 -0.81348,0.61523 -2.07813,0.61523 -1.59277,0 -2.5293,-0.97753 -0.92968,-0.98438 -0.92968,-2.75489 0,-1.83203 0.94336,-2.84375 0.94336,-1.01172 2.44726,-1.01172 1.45606,0 2.37891,0.99121 0.92285,0.99122 0.92285,2.78907 0,0.10937 -0.007,0.32812 h -5.41406 q 0.0684,1.19629 0.67676,1.83203 0.6084,0.63575 1.51758,0.63575 0.67675,0 1.15527,-0.35547 0.47852,-0.35547 0.75879,-1.13477 z m -4.04004,-1.98926 h 4.05371 q -0.082,-0.91601 -0.46484,-1.37402 -0.58789,-0.71094 -1.52442,-0.71094 -0.84765,0 -1.42871,0.56739 -0.57422,0.56738 -0.63574,1.51757 z m 11.04004,4.32715 v -6.30273 h -1.08691 v -0.95703 h 1.08691 v -0.77246 q 0,-0.73145 0.12988,-1.08692 0.17774,-0.47851 0.62207,-0.77246 0.45117,-0.30078 1.25781,-0.30078 0.51954,0 1.14844,0.12305 l -0.18457,1.07324 q -0.38281,-0.0684 -0.72461,-0.0684 -0.56054,0 -0.79297,0.23926 -0.23242,0.23925 -0.23242,0.8955 v 0.66993 h 1.41504 v 0.95703 h -1.41504 v 6.30273 z m 3.13769,-3.62988 q 0,-2.0166 1.1211,-2.98731 0.93652,-0.80664 2.2832,-0.80664 1.49707,0 2.44727,0.98438 0.95019,0.97754 0.95019,2.70703 0,1.40137 -0.42383,2.20801 -0.41699,0.7998 -1.22363,1.24414 -0.7998,0.44433 -1.75,0.44433 -1.52441,0 -2.46777,-0.97753 -0.93653,-0.97754 -0.93653,-2.81641 z m 1.26465,0 q 0,1.39453 0.6084,2.0918 0.6084,0.69043 1.53125,0.69043 0.91602,0 1.52442,-0.69727 0.60839,-0.69727 0.60839,-2.12598 0,-1.34668 -0.61523,-2.03711 -0.6084,-0.69726 -1.51758,-0.69726 -0.92285,0 -1.53125,0.69043 -0.6084,0.69043 -0.6084,2.08496 z m 6.96582,3.62988 v -7.25976 h 1.10743 v 1.10058 q 0.42382,-0.77246 0.77929,-1.01855 0.36231,-0.2461 0.79297,-0.2461 0.62207,0 1.26465,0.39649 l -0.42383,1.1416 q -0.45117,-0.2666 -0.90234,-0.2666 -0.40332,0 -0.72461,0.24609 -0.32129,0.23926 -0.45801,0.66992 -0.20508,0.65625 -0.20508,1.43555 v 3.80078 z m 13.30274,-0.89551 q -0.6836,0.58106 -1.31934,0.82032 -0.6289,0.23925 -1.35351,0.23925 -1.19629,0 -1.83887,-0.58105 -0.64258,-0.58789 -0.64258,-1.49707 0,-0.5332 0.23926,-0.9707 0.24609,-0.44434 0.63574,-0.71094 0.39649,-0.2666 0.88867,-0.40332 0.36231,-0.0957 1.09375,-0.18457 1.49024,-0.17774 2.19434,-0.42383 0.007,-0.25293 0.007,-0.32129 0,-0.75195 -0.34863,-1.05957 -0.47168,-0.41699 -1.40137,-0.41699 -0.86816,0 -1.28515,0.30762 -0.41016,0.30078 -0.6084,1.07324 l -1.20313,-0.16406 q 0.16407,-0.77247 0.54004,-1.24415 0.37598,-0.47851 1.08692,-0.73144 0.71094,-0.25977 1.64746,-0.25977 0.92969,0 1.51074,0.21875 0.58106,0.21875 0.85449,0.55371 0.27344,0.32813 0.38282,0.83399 0.0615,0.31445 0.0615,1.13476 v 1.64063 q 0,1.71582 0.0752,2.17383 0.082,0.45117 0.31446,0.86816 h -1.28516 q -0.1914,-0.38281 -0.24609,-0.89551 z m -0.10254,-2.74804 q -0.66992,0.27343 -2.00977,0.46484 -0.75879,0.10938 -1.07324,0.24609 -0.31445,0.13672 -0.48535,0.40333 -0.1709,0.25976 -0.1709,0.58105 0,0.49219 0.36914,0.82031 0.37598,0.32813 1.09375,0.32813 0.71094,0 1.26465,-0.30762 0.55371,-0.31445 0.81348,-0.85449 0.19824,-0.41699 0.19824,-1.23047 z m 3.1582,-4.96289 v -1.41504 h 1.23047 v 1.41504 z m 0,8.60644 v -7.25976 h 1.23047 v 7.25976 z m 3.08985,0 v -7.25976 h 1.10742 v 1.10058 q 0.42383,-0.77246 0.77929,-1.01855 0.36231,-0.2461 0.79297,-0.2461 0.62207,0 1.26465,0.39649 l -0.42383,1.1416 q -0.45117,-0.2666 -0.90234,-0.2666 -0.40332,0 -0.72461,0.24609 -0.32129,0.23926 -0.45801,0.66992 -0.20508,0.65625 -0.20508,1.43555 v 3.80078 z m 13.27539,0 v -0.91601 q -0.69043,1.08007 -2.03028,1.08007 -0.86816,0 -1.59961,-0.47851 -0.72461,-0.47852 -1.12793,-1.33301 -0.39648,-0.86133 -0.39648,-1.97558 0,-1.08692 0.3623,-1.96875 0.36231,-0.88868 1.08692,-1.36036 0.72461,-0.47168 1.62012,-0.47168 0.65625,0 1.16894,0.28028 0.5127,0.27343 0.83398,0.71777 v -3.5957 h 1.22364 v 10.02148 z m -3.88965,-3.62304 q 0,1.39453 0.58789,2.08496 0.58789,0.69043 1.38769,0.69043 0.80664,0 1.36719,-0.65625 0.56738,-0.66309 0.56738,-2.01661 0,-1.49023 -0.57421,-2.1875 -0.57422,-0.69726 -1.41504,-0.69726 -0.82032,0 -1.37403,0.66992 -0.54687,0.66992 -0.54687,2.11231 z m 6.97265,-4.9834 v -1.41504 h 1.23047 v 1.41504 z m 0,8.60644 v -7.25976 h 1.23047 v 7.25976 z m 2.61133,-2.16699 1.2168,-0.19141 q 0.10254,0.73145 0.56738,1.1211 0.47168,0.38965 1.3125,0.38965 0.84766,0 1.25781,-0.3418 0.41016,-0.34863 0.41016,-0.81348 0,-0.41699 -0.3623,-0.65625 -0.25293,-0.16406 -1.25782,-0.41699 -1.35351,-0.3418 -1.87988,-0.58789 -0.51953,-0.25293 -0.79297,-0.69043 -0.2666,-0.44434 -0.2666,-0.97754 0,-0.48535 0.21875,-0.89551 0.22559,-0.41699 0.6084,-0.69043 0.28711,-0.21191 0.7793,-0.35547 0.49902,-0.15039 1.0664,-0.15039 0.85449,0 1.49707,0.2461 0.64942,0.24609 0.95703,0.66992 0.30762,0.41699 0.42383,1.12109 l -1.20312,0.16407 q -0.082,-0.56055 -0.47852,-0.875 -0.38965,-0.31446 -1.10742,-0.31446 -0.84766,0 -1.20996,0.28028 -0.36231,0.28027 -0.36231,0.65625 0,0.23925 0.15039,0.43066 0.15039,0.19824 0.47168,0.32813 0.18457,0.0684 1.08692,0.31445 1.30566,0.34863 1.81836,0.57422 0.51953,0.21875 0.81347,0.64258 0.29395,0.42382 0.29395,1.05273 0,0.61523 -0.36231,1.16211 -0.35546,0.54004 -1.03222,0.84082 -0.67676,0.29394 -1.53125,0.29394 -1.41504,0 -2.16016,-0.58789 -0.73828,-0.58789 -0.94336,-1.74316 z m 10.17871,1.06641 0.17774,1.08691 q -0.51953,0.10938 -0.92969,0.10938 -0.66992,0 -1.03906,-0.21192 -0.36914,-0.21191 -0.51953,-0.55371 -0.15039,-0.34863 -0.15039,-1.45605 v -4.17676 h -0.90235 v -0.95703 h 0.90235 v -1.79786 l 1.22363,-0.73828 v 2.53614 h 1.2373 v 0.95703 h -1.2373 v 4.24511 q 0,0.52637 0.0615,0.67676 0.0684,0.15039 0.21192,0.23926 0.15039,0.0889 0.42382,0.0889 0.20508,0 0.54004,-0.0478 z m 5.94043,0.20507 q -0.68359,0.58106 -1.31933,0.82032 -0.62891,0.23925 -1.35352,0.23925 -1.19629,0 -1.83887,-0.58105 -0.64257,-0.58789 -0.64257,-1.49707 0,-0.5332 0.23925,-0.9707 0.2461,-0.44434 0.63575,-0.71094 0.39648,-0.2666 0.88867,-0.40332 0.3623,-0.0957 1.09375,-0.18457 1.49023,-0.17774 2.19433,-0.42383 0.007,-0.25293 0.007,-0.32129 0,-0.75195 -0.34863,-1.05957 -0.47168,-0.41699 -1.40137,-0.41699 -0.86816,0 -1.28516,0.30762 -0.41015,0.30078 -0.6084,1.07324 l -1.20312,-0.16406 q 0.16406,-0.77247 0.54004,-1.24415 0.37598,-0.47851 1.08691,-0.73144 0.71094,-0.25977 1.64746,-0.25977 0.92969,0 1.51075,0.21875 0.58105,0.21875 0.85449,0.55371 0.27344,0.32813 0.38281,0.83399 0.0615,0.31445 0.0615,1.13476 v 1.64063 q 0,1.71582 0.0752,2.17383 0.082,0.45117 0.31445,0.86816 h -1.28515 q -0.19141,-0.38281 -0.2461,-0.89551 z m -0.10254,-2.74804 q -0.66992,0.27343 -2.00976,0.46484 -0.75879,0.10938 -1.07324,0.24609 -0.31446,0.13672 -0.48536,0.40333 -0.17089,0.25976 -0.17089,0.58105 0,0.49219 0.36914,0.82031 0.37597,0.32813 1.09375,0.32813 0.71093,0 1.26464,-0.30762 0.55372,-0.31445 0.81348,-0.85449 0.19824,-0.41699 0.19824,-1.23047 z m 3.15137,3.64355 v -7.25976 h 1.10742 v 1.03222 q 0.79981,-1.19629 2.31055,-1.19629 0.65625,0 1.20312,0.23926 0.55372,0.23242 0.82715,0.61524 0.27344,0.38281 0.38282,0.90918 0.0684,0.34179 0.0684,1.19628 v 4.46387 h -1.23046 v -4.41601 q 0,-0.75196 -0.14356,-1.1211 -0.14355,-0.37597 -0.51269,-0.59472 -0.36231,-0.22559 -0.8545,-0.22559 -0.78613,0 -1.36035,0.49902 -0.56738,0.49903 -0.56738,1.89356 v 3.96484 z m 12.52344,-2.65918 1.20996,0.15723 q -0.19824,1.25098 -1.01856,1.96191 -0.81347,0.7041 -2.00293,0.7041 -1.49023,0 -2.39941,-0.9707 -0.90234,-0.97754 -0.90234,-2.7959 0,-1.17578 0.38965,-2.05761 0.38964,-0.88184 1.18261,-1.31934 0.79981,-0.44434 1.73633,-0.44434 1.18262,0 1.93457,0.60157 0.75195,0.59472 0.96387,1.69531 l -1.19629,0.18457 q -0.1709,-0.73145 -0.6084,-1.10059 -0.43066,-0.36914 -1.0459,-0.36914 -0.92969,0 -1.51074,0.66992 -0.58105,0.66309 -0.58105,2.10547 0,1.46289 0.56054,2.12598 0.56055,0.66309 1.46289,0.66309 0.72461,0 1.20996,-0.44434 0.48536,-0.44434 0.61524,-1.36719 z m 7.23242,0.32129 1.27148,0.15723 q -0.30078,1.11426 -1.11425,1.72949 -0.81348,0.61523 -2.07813,0.61523 -1.59277,0 -2.5293,-0.97753 -0.92968,-0.98438 -0.92968,-2.75489 0,-1.83203 0.94336,-2.84375 0.94336,-1.01172 2.44726,-1.01172 1.45606,0 2.37891,0.99121 0.92285,0.99122 0.92285,2.78907 0,0.10937 -0.007,0.32812 h -5.41406 q 0.0684,1.19629 0.67676,1.83203 0.6084,0.63575 1.51758,0.63575 0.67676,0 1.15527,-0.35547 0.47852,-0.35547 0.75879,-1.13477 z m -4.04004,-1.98926 h 4.05371 q -0.082,-0.91601 -0.46484,-1.37402 -0.58789,-0.71094 -1.52442,-0.71094 -0.84765,0 -1.42871,0.56739 -0.57422,0.56738 -0.63574,1.51757 z m 6.36426,2.16016 1.2168,-0.19141 q 0.10253,0.73145 0.56738,1.1211 0.47168,0.38965 1.3125,0.38965 0.84765,0 1.25781,-0.3418 0.41016,-0.34863 0.41016,-0.81348 0,-0.41699 -0.36231,-0.65625 -0.25293,-0.16406 -1.25781,-0.41699 -1.35352,-0.3418 -1.87988,-0.58789 -0.51953,-0.25293 -0.79297,-0.69043 -0.2666,-0.44434 -0.2666,-0.97754 0,-0.48535 0.21875,-0.89551 0.22558,-0.41699 0.6084,-0.69043 0.2871,-0.21191 0.77929,-0.35547 0.49903,-0.15039 1.06641,-0.15039 0.85449,0 1.49707,0.2461 0.64941,0.24609 0.95703,0.66992 0.30762,0.41699 0.42383,1.12109 l -1.20313,0.16407 q -0.082,-0.56055 -0.47851,-0.875 -0.38965,-0.31446 -1.10742,-0.31446 -0.84766,0 -1.20997,0.28028 -0.3623,0.28027 -0.3623,0.65625 0,0.23925 0.15039,0.43066 0.15039,0.19824 0.47168,0.32813 0.18457,0.0684 1.08691,0.31445 1.30567,0.34863 1.81836,0.57422 0.51954,0.21875 0.81348,0.64258 0.29395,0.42382 0.29395,1.05273 0,0.61523 -0.36231,1.16211 -0.35547,0.54004 -1.03223,0.84082 -0.67675,0.29394 -1.53125,0.29394 -1.41503,0 -2.16015,-0.58789 -0.73828,-0.58789 -0.94336,-1.74316 z m 7.81348,2.16699 v -1.40137 h 1.40136 v 1.40137 q 0,0.77246 -0.27343,1.24414 -0.27344,0.47852 -0.86817,0.73828 l -0.3418,-0.52636 q 0.38965,-0.1709 0.57422,-0.50586 0.18457,-0.32813 0.20508,-0.9502 z m 8.79785,0 -2.22168,-7.25976 h 1.27148 l 1.15528,4.19043 0.43066,1.55859 q 0.0273,-0.11621 0.37598,-1.49707 l 1.15527,-4.25195 h 1.26465 l 1.08691,4.21093 0.36231,1.3877 0.41699,-1.40137 1.24414,-4.19726 h 1.19629 l -2.26953,7.25976 h -1.27832 l -1.15528,-4.34765 -0.28027,-1.23731 -1.46973,5.58496 z m 8.7705,0 v -10.02148 h 1.23047 v 3.5957 q 0.86133,-0.99805 2.17383,-0.99805 0.80664,0 1.40137,0.32129 0.59473,0.31446 0.84766,0.875 0.25976,0.56055 0.25976,1.62696 v 4.60058 h -1.23047 v -4.60058 q 0,-0.92286 -0.40332,-1.33985 -0.39648,-0.42383 -1.12793,-0.42383 -0.54687,0 -1.03222,0.28711 -0.47852,0.28028 -0.6836,0.76563 -0.20508,0.48535 -0.20508,1.33984 v 3.97168 z m 12.75586,-2.33789 1.27149,0.15723 q -0.30078,1.11426 -1.11426,1.72949 -0.81348,0.61523 -2.07812,0.61523 -1.59278,0 -2.5293,-0.97753 -0.92969,-0.98438 -0.92969,-2.75489 0,-1.83203 0.94336,-2.84375 0.94336,-1.01172 2.44727,-1.01172 1.45605,0 2.3789,0.99121 0.92285,0.99122 0.92285,2.78907 0,0.10937 -0.007,0.32812 h -5.41406 q 0.0684,1.19629 0.67675,1.83203 0.6084,0.63575 1.51758,0.63575 0.67676,0 1.15528,-0.35547 0.47851,-0.35547 0.75878,-1.13477 z m -4.04003,-1.98926 h 4.05371 q -0.082,-0.91601 -0.46485,-1.37402 -0.58789,-0.71094 -1.52441,-0.71094 -0.84766,0 -1.42871,0.56739 -0.57422,0.56738 -0.63574,1.51757 z m 6.85644,4.32715 v -7.25976 h 1.10742 v 1.03222 q 0.79981,-1.19629 2.31055,-1.19629 0.65625,0 1.20312,0.23926 0.55372,0.23242 0.82715,0.61524 0.27344,0.38281 0.38282,0.90918 0.0684,0.34179 0.0684,1.19628 v 4.46387 h -1.23046 v -4.41601 q 0,-0.75196 -0.14356,-1.1211 -0.14355,-0.37597 -0.51269,-0.59472 -0.36231,-0.22559 -0.8545,-0.22559 -0.78613,0 -1.36035,0.49902 -0.56738,0.49903 -0.56738,1.89356 v 3.96484 z m 13.01563,0 -2.22168,-7.25976 h 1.27148 l 1.15527,4.19043 0.43067,1.55859 q 0.0273,-0.11621 0.37597,-1.49707 l 1.15528,-4.25195 h 1.26465 l 1.08691,4.21093 0.3623,1.3877 0.417,-1.40137 1.24414,-4.19726 h 1.19629 l -2.26953,7.25976 h -1.27832 l -1.15528,-4.34765 -0.28027,-1.23731 -1.46973,5.58496 z m 13.74023,-2.33789 1.27148,0.15723 q -0.30078,1.11426 -1.11425,1.72949 -0.81348,0.61523 -2.07813,0.61523 -1.59277,0 -2.5293,-0.97753 -0.92968,-0.98438 -0.92968,-2.75489 0,-1.83203 0.94336,-2.84375 0.94336,-1.01172 2.44726,-1.01172 1.45606,0 2.37891,0.99121 0.92285,0.99122 0.92285,2.78907 0,0.10937 -0.007,0.32812 h -5.41406 q 0.0684,1.19629 0.67676,1.83203 0.6084,0.63575 1.51758,0.63575 0.67676,0 1.15527,-0.35547 0.47852,-0.35547 0.75879,-1.13477 z m -4.04004,-1.98926 h 4.05371 q -0.082,-0.91601 -0.46484,-1.37402 -0.58789,-0.71094 -1.52442,-0.71094 -0.84765,0 -1.42871,0.56739 -0.57422,0.56738 -0.63574,1.51757 z m 10.74609,4.32715 v -7.25976 h 1.10743 v 1.03222 q 0.7998,-1.19629 2.31054,-1.19629 0.65625,0 1.20313,0.23926 0.55371,0.23242 0.82715,0.61524 0.27343,0.38281 0.38281,0.90918 0.0684,0.34179 0.0684,1.19628 v 4.46387 h -1.23047 v -4.41601 q 0,-0.75196 -0.14355,-1.1211 -0.14356,-0.37597 -0.5127,-0.59472 -0.3623,-0.22559 -0.85449,-0.22559 -0.78614,0 -1.36035,0.49902 -0.56739,0.49903 -0.56739,1.89356 v 3.96484 z m 12.75586,-2.33789 1.27149,0.15723 q -0.30078,1.11426 -1.11426,1.72949 -0.81348,0.61523 -2.07812,0.61523 -1.59278,0 -2.5293,-0.97753 -0.92969,-0.98438 -0.92969,-2.75489 0,-1.83203 0.94336,-2.84375 0.94336,-1.01172 2.44727,-1.01172 1.45605,0 2.3789,0.99121 0.92285,0.99122 0.92285,2.78907 0,0.10937 -0.007,0.32812 h -5.41406 q 0.0684,1.19629 0.67675,1.83203 0.6084,0.63575 1.51758,0.63575 0.67676,0 1.15527,-0.35547 0.47852,-0.35547 0.75879,-1.13477 z m -4.04004,-1.98926 h 4.05372 q -0.082,-0.91601 -0.46485,-1.37402 -0.58789,-0.71094 -1.52441,-0.71094 -0.84766,0 -1.42871,0.56739 -0.57422,0.56738 -0.63575,1.51757 z m 11.82618,1.98926 1.27148,0.15723 q -0.30078,1.11426 -1.11426,1.72949 -0.81347,0.61523 -2.07812,0.61523 -1.59278,0 -2.5293,-0.97753 -0.92969,-0.98438 -0.92969,-2.75489 0,-1.83203 0.94336,-2.84375 0.94336,-1.01172 2.44727,-1.01172 1.45605,0 2.37891,0.99121 0.92285,0.99122 0.92285,2.78907 0,0.10937 -0.007,0.32812 h -5.41406 q 0.0684,1.19629 0.67676,1.83203 0.60839,0.63575 1.51757,0.63575 0.67676,0 1.15528,-0.35547 0.47851,-0.35547 0.75879,-1.13477 z m -4.04004,-1.98926 h 4.05371 q -0.082,-0.91601 -0.46485,-1.37402 -0.58789,-0.71094 -1.52441,-0.71094 -0.84766,0 -1.42871,0.56739 -0.57422,0.56738 -0.63574,1.51757 z m 11.5664,4.32715 v -0.91601 q -0.69043,1.08007 -2.03027,1.08007 -0.86816,0 -1.59961,-0.47851 -0.72461,-0.47852 -1.12793,-1.33301 -0.39648,-0.86133 -0.39648,-1.97558 0,-1.08692 0.3623,-1.96875 0.36231,-0.88868 1.08692,-1.36036 0.72461,-0.47168 1.62011,-0.47168 0.65625,0 1.16895,0.28028 0.51269,0.27343 0.83398,0.71777 v -3.5957 h 1.22364 v 10.02148 z m -3.88964,-3.62304 q 0,1.39453 0.58789,2.08496 0.58789,0.69043 1.38769,0.69043 0.80664,0 1.36719,-0.65625 0.56738,-0.66309 0.56738,-2.01661 0,-1.49023 -0.57422,-2.1875 -0.57422,-0.69726 -1.41504,-0.69726 -0.82031,0 -1.37402,0.66992 -0.54687,0.66992 -0.54687,2.11231 z m 10.84179,3.62304 v -7.25976 h 1.10742 v 1.10058 q 0.42383,-0.77246 0.7793,-1.01855 0.36231,-0.2461 0.79297,-0.2461 0.62207,0 1.26465,0.39649 l -0.42383,1.1416 q -0.45117,-0.2666 -0.90234,-0.2666 -0.40332,0 -0.72461,0.24609 -0.32129,0.23926 -0.45801,0.66992 -0.20508,0.65625 -0.20508,1.43555 v 3.80078 z m 4.21778,-3.62988 q 0,-2.0166 1.12109,-2.98731 0.93652,-0.80664 2.2832,-0.80664 1.49707,0 2.44727,0.98438 0.95019,0.97754 0.95019,2.70703 0,1.40137 -0.42382,2.20801 -0.417,0.7998 -1.22364,1.24414 -0.7998,0.44433 -1.75,0.44433 -1.52441,0 -2.46777,-0.97753 -0.93652,-0.97754 -0.93652,-2.81641 z m 1.26464,0 q 0,1.39453 0.6084,2.0918 0.6084,0.69043 1.53125,0.69043 0.91602,0 1.52442,-0.69727 0.6084,-0.69727 0.6084,-2.12598 0,-1.34668 -0.61524,-2.03711 -0.6084,-0.69726 -1.51758,-0.69726 -0.92285,0 -1.53125,0.69043 -0.6084,0.69043 -0.6084,2.08496 z m 11.7168,2.73437 q -0.68359,0.58106 -1.31933,0.82032 -0.62891,0.23925 -1.35352,0.23925 -1.19629,0 -1.83887,-0.58105 -0.64258,-0.58789 -0.64258,-1.49707 0,-0.5332 0.23926,-0.9707 0.2461,-0.44434 0.63574,-0.71094 0.39649,-0.2666 0.88868,-0.40332 0.3623,-0.0957 1.09375,-0.18457 1.49023,-0.17774 2.19433,-0.42383 0.007,-0.25293 0.007,-0.32129 0,-0.75195 -0.34863,-1.05957 -0.47168,-0.41699 -1.40137,-0.41699 -0.86817,0 -1.28516,0.30762 -0.41015,0.30078 -0.6084,1.07324 l -1.20312,-0.16406 q 0.16406,-0.77247 0.54004,-1.24415 0.37597,-0.47851 1.08691,-0.73144 0.71094,-0.25977 1.64746,-0.25977 0.92969,0 1.51074,0.21875 0.58106,0.21875 0.8545,0.55371 0.27343,0.32813 0.38281,0.83399 0.0615,0.31445 0.0615,1.13476 v 1.64063 q 0,1.71582 0.0752,2.17383 0.082,0.45117 0.31445,0.86816 h -1.28516 q -0.1914,-0.38281 -0.24609,-0.89551 z m -0.10254,-2.74804 q -0.66992,0.27343 -2.00976,0.46484 -0.75879,0.10938 -1.07325,0.24609 -0.31445,0.13672 -0.48535,0.40333 -0.1709,0.25976 -0.1709,0.58105 0,0.49219 0.36914,0.82031 0.37598,0.32813 1.09375,0.32813 0.71094,0 1.26465,-0.30762 0.55371,-0.31445 0.81348,-0.85449 0.19824,-0.41699 0.19824,-1.23047 z m 7.86133,3.64355 v -0.91601 q -0.69043,1.08007 -2.03027,1.08007 -0.86817,0 -1.59961,-0.47851 -0.72461,-0.47852 -1.12793,-1.33301 -0.39649,-0.86133 -0.39649,-1.97558 0,-1.08692 0.36231,-1.96875 0.3623,-0.88868 1.08691,-1.36036 0.72461,-0.47168 1.62012,-0.47168 0.65625,0 1.16894,0.28028 0.5127,0.27343 0.83399,0.71777 v -3.5957 h 1.22363 v 10.02148 z m -3.88965,-3.62304 q 0,1.39453 0.58789,2.08496 0.58789,0.69043 1.3877,0.69043 0.80664,0 1.36719,-0.65625 0.56738,-0.66309 0.56738,-2.01661 0,-1.49023 -0.57422,-2.1875 -0.57422,-0.69726 -1.41504,-0.69726 -0.82031,0 -1.37402,0.66992 -0.54688,0.66992 -0.54688,2.11231 z m 15.56543,3.62304 v -0.91601 q -0.69043,1.08007 -2.03027,1.08007 -0.86817,0 -1.59961,-0.47851 -0.72461,-0.47852 -1.12793,-1.33301 -0.39649,-0.86133 -0.39649,-1.97558 0,-1.08692 0.36231,-1.96875 0.3623,-0.88868 1.08691,-1.36036 0.72461,-0.47168 1.62012,-0.47168 0.65625,0 1.16895,0.28028 0.51269,0.27343 0.83398,0.71777 v -3.5957 h 1.22363 v 10.02148 z m -3.88965,-3.62304 q 0,1.39453 0.58789,2.08496 0.58789,0.69043 1.3877,0.69043 0.80664,0 1.36719,-0.65625 0.56738,-0.66309 0.56738,-2.01661 0,-1.49023 -0.57422,-2.1875 -0.57422,-0.69726 -1.41504,-0.69726 -0.82031,0 -1.37402,0.66992 -0.54688,0.66992 -0.54688,2.11231 z m 6.97266,-4.9834 v -1.41504 h 1.23047 v 1.41504 z m 0,8.60644 v -7.25976 h 1.23047 v 7.25976 z m 2.61133,-2.16699 1.21679,-0.19141 q 0.10254,0.73145 0.56739,1.1211 0.47168,0.38965 1.3125,0.38965 0.84765,0 1.25781,-0.3418 0.41016,-0.34863 0.41016,-0.81348 0,-0.41699 -0.36231,-0.65625 -0.25293,-0.16406 -1.25781,-0.41699 -1.35352,-0.3418 -1.87988,-0.58789 -0.51954,-0.25293 -0.79297,-0.69043 -0.2666,-0.44434 -0.2666,-0.97754 0,-0.48535 0.21875,-0.89551 0.22558,-0.41699 0.60839,-0.69043 0.28711,-0.21191 0.7793,-0.35547 0.49902,-0.15039 1.06641,-0.15039 0.85449,0 1.49707,0.2461 0.64941,0.24609 0.95703,0.66992 0.30762,0.41699 0.42383,1.12109 l -1.20313,0.16407 q -0.082,-0.56055 -0.47851,-0.875 -0.38965,-0.31446 -1.10743,-0.31446 -0.84765,0 -1.20996,0.28028 -0.3623,0.28027 -0.3623,0.65625 0,0.23925 0.15039,0.43066 0.15039,0.19824 0.47168,0.32813 0.18457,0.0684 1.08691,0.31445 1.30567,0.34863 1.81836,0.57422 0.51953,0.21875 0.81348,0.64258 0.29394,0.42382 0.29394,1.05273 0,0.61523 -0.3623,1.16211 -0.35547,0.54004 -1.03223,0.84082 -0.67675,0.29394 -1.53125,0.29394 -1.41504,0 -2.16015,-0.58789 -0.73828,-0.58789 -0.94336,-1.74316 z m 10.17871,1.06641 0.17773,1.08691 q -0.51953,0.10938 -0.92968,0.10938 -0.66993,0 -1.03907,-0.21192 -0.36914,-0.21191 -0.51953,-0.55371 -0.15039,-0.34863 -0.15039,-1.45605 v -4.17676 h -0.90234 v -0.95703 h 0.90234 v -1.79786 l 1.22363,-0.73828 v 2.53614 h 1.23731 v 0.95703 h -1.23731 v 4.24511 q 0,0.52637 0.0615,0.67676 0.0684,0.15039 0.21191,0.23926 0.15039,0.0889 0.42383,0.0889 0.20508,0 0.54004,-0.0478 z m 5.94043,0.20507 q -0.6836,0.58106 -1.31934,0.82032 -0.6289,0.23925 -1.35351,0.23925 -1.19629,0 -1.83887,-0.58105 -0.64258,-0.58789 -0.64258,-1.49707 0,-0.5332 0.23926,-0.9707 0.24609,-0.44434 0.63574,-0.71094 0.39649,-0.2666 0.88867,-0.40332 0.36231,-0.0957 1.09375,-0.18457 1.49024,-0.17774 2.19434,-0.42383 0.007,-0.25293 0.007,-0.32129 0,-0.75195 -0.34863,-1.05957 -0.47168,-0.41699 -1.40137,-0.41699 -0.86816,0 -1.28515,0.30762 -0.41016,0.30078 -0.6084,1.07324 l -1.20312,-0.16406 q 0.16406,-0.77247 0.54003,-1.24415 0.37598,-0.47851 1.08692,-0.73144 0.71094,-0.25977 1.64746,-0.25977 0.92969,0 1.51074,0.21875 0.58106,0.21875 0.85449,0.55371 0.27344,0.32813 0.38282,0.83399 0.0615,0.31445 0.0615,1.13476 v 1.64063 q 0,1.71582 0.0752,2.17383 0.082,0.45117 0.31446,0.86816 h -1.28516 q -0.1914,-0.38281 -0.24609,-0.89551 z m -0.10254,-2.74804 q -0.66992,0.27343 -2.00977,0.46484 -0.75879,0.10938 -1.07324,0.24609 -0.31445,0.13672 -0.48535,0.40333 -0.1709,0.25976 -0.1709,0.58105 0,0.49219 0.36914,0.82031 0.37598,0.32813 1.09375,0.32813 0.71094,0 1.26465,-0.30762 0.55371,-0.31445 0.81348,-0.85449 0.19824,-0.41699 0.19824,-1.23047 z m 3.15137,3.64355 v -7.25976 h 1.10742 v 1.03222 q 0.7998,-1.19629 2.31054,-1.19629 0.65625,0 1.20313,0.23926 0.55371,0.23242 0.82715,0.61524 0.27344,0.38281 0.38281,0.90918 0.0684,0.34179 0.0684,1.19628 v 4.46387 h -1.23047 v -4.41601 q 0,-0.75196 -0.14355,-1.1211 -0.14356,-0.37597 -0.5127,-0.59472 -0.3623,-0.22559 -0.85449,-0.22559 -0.78613,0 -1.36035,0.49902 -0.56739,0.49903 -0.56739,1.89356 v 3.96484 z m 12.52343,-2.65918 1.20996,0.15723 q -0.19824,1.25098 -1.01855,1.96191 -0.81348,0.7041 -2.00293,0.7041 -1.49023,0 -2.39941,-0.9707 -0.90235,-0.97754 -0.90235,-2.7959 0,-1.17578 0.38965,-2.05761 0.38965,-0.88184 1.18262,-1.31934 0.7998,-0.44434 1.73633,-0.44434 1.18261,0 1.93457,0.60157 0.75195,0.59472 0.96386,1.69531 l -1.19629,0.18457 q -0.17089,-0.73145 -0.60839,-1.10059 -0.43067,-0.36914 -1.0459,-0.36914 -0.92969,0 -1.51074,0.66992 -0.58106,0.66309 -0.58106,2.10547 0,1.46289 0.56055,2.12598 0.56054,0.66309 1.46289,0.66309 0.72461,0 1.20996,-0.44434 0.48535,-0.44434 0.61523,-1.36719 z m 7.23243,0.32129 1.27148,0.15723 q -0.30078,1.11426 -1.11426,1.72949 -0.81347,0.61523 -2.07812,0.61523 -1.59278,0 -2.5293,-0.97753 -0.92969,-0.98438 -0.92969,-2.75489 0,-1.83203 0.94336,-2.84375 0.94336,-1.01172 2.44727,-1.01172 1.45605,0 2.3789,0.99121 0.92286,0.99122 0.92286,2.78907 0,0.10937 -0.007,0.32812 h -5.41406 q 0.0684,1.19629 0.67675,1.83203 0.6084,0.63575 1.51758,0.63575 0.67676,0 1.15528,-0.35547 0.47851,-0.35547 0.75879,-1.13477 z m -4.04004,-1.98926 h 4.05371 q -0.082,-0.91601 -0.46485,-1.37402 -0.58789,-0.71094 -1.52441,-0.71094 -0.84766,0 -1.42871,0.56739 -0.57422,0.56738 -0.63574,1.51757 z m 6.36425,2.16016 1.2168,-0.19141 q 0.10254,0.73145 0.56738,1.1211 0.47168,0.38965 1.3125,0.38965 0.84766,0 1.25782,-0.3418 0.41015,-0.34863 0.41015,-0.81348 0,-0.41699 -0.3623,-0.65625 -0.25293,-0.16406 -1.25781,-0.41699 -1.35352,-0.3418 -1.87989,-0.58789 -0.51953,-0.25293 -0.79297,-0.69043 -0.2666,-0.44434 -0.2666,-0.97754 0,-0.48535 0.21875,-0.89551 0.22559,-0.41699 0.6084,-0.69043 0.28711,-0.21191 0.7793,-0.35547 0.49902,-0.15039 1.0664,-0.15039 0.8545,0 1.49707,0.2461 0.64942,0.24609 0.95704,0.66992 0.30761,0.41699 0.42382,1.12109 l -1.20312,0.16407 q -0.082,-0.56055 -0.47852,-0.875 -0.38965,-0.31446 -1.10742,-0.31446 -0.84766,0 -1.20996,0.28028 -0.3623,0.28027 -0.3623,0.65625 0,0.23925 0.15039,0.43066 0.15039,0.19824 0.47168,0.32813 0.18457,0.0684 1.08691,0.31445 1.30566,0.34863 1.81836,0.57422 0.51953,0.21875 0.81348,0.64258 0.29394,0.42382 0.29394,1.05273 0,0.61523 -0.3623,1.16211 -0.35547,0.54004 -1.03223,0.84082 -0.67676,0.29394 -1.53125,0.29394 -1.41504,0 -2.16016,-0.58789 -0.73828,-0.58789 -0.94336,-1.74316 z m 10.92383,-1.46289 q 0,-2.0166 1.1211,-2.98731 0.93652,-0.80664 2.2832,-0.80664 1.49707,0 2.44726,0.98438 0.9502,0.97754 0.9502,2.70703 0,1.40137 -0.42383,2.20801 -0.41699,0.7998 -1.22363,1.24414 -0.79981,0.44433 -1.75,0.44433 -1.52441,0 -2.46777,-0.97753 -0.93653,-0.97754 -0.93653,-2.81641 z m 1.26465,0 q 0,1.39453 0.6084,2.0918 0.6084,0.69043 1.53125,0.69043 0.91601,0 1.52441,-0.69727 0.6084,-0.69727 0.6084,-2.12598 0,-1.34668 -0.61523,-2.03711 -0.6084,-0.69726 -1.51758,-0.69726 -0.92285,0 -1.53125,0.69043 -0.6084,0.69043 -0.6084,2.08496 z m 6.96582,3.62988 v -7.25976 h 1.10742 v 1.10058 q 0.42383,-0.77246 0.7793,-1.01855 0.3623,-0.2461 0.79297,-0.2461 0.62207,0 1.26465,0.39649 l -0.42383,1.1416 q -0.45117,-0.2666 -0.90234,-0.2666 -0.40333,0 -0.72461,0.24609 -0.32129,0.23926 -0.45801,0.66992 -0.20508,0.65625 -0.20508,1.43555 v 3.80078 z m 13.27539,0 v -0.91601 q -0.69043,1.08007 -2.03027,1.08007 -0.86817,0 -1.59961,-0.47851 -0.72461,-0.47852 -1.12793,-1.33301 -0.39649,-0.86133 -0.39649,-1.97558 0,-1.08692 0.36231,-1.96875 0.3623,-0.88868 1.08691,-1.36036 0.72461,-0.47168 1.62012,-0.47168 0.65625,0 1.16895,0.28028 0.51269,0.27343 0.83398,0.71777 v -3.5957 h 1.22363 v 10.02148 z m -3.88965,-3.62304 q 0,1.39453 0.58789,2.08496 0.58789,0.69043 1.3877,0.69043 0.80664,0 1.36719,-0.65625 0.56738,-0.66309 0.56738,-2.01661 0,-1.49023 -0.57422,-2.1875 -0.57422,-0.69726 -1.41504,-0.69726 -0.82031,0 -1.37402,0.66992 -0.54688,0.66992 -0.54688,2.11231 z m 6.95215,3.62304 v -7.25976 h 1.10742 v 1.10058 q 0.42383,-0.77246 0.7793,-1.01855 0.36231,-0.2461 0.79297,-0.2461 0.62207,0 1.26465,0.39649 l -0.42383,1.1416 q -0.45117,-0.2666 -0.90234,-0.2666 -0.40332,0 -0.72461,0.24609 -0.32129,0.23926 -0.45801,0.66992 -0.20508,0.65625 -0.20508,1.43555 v 3.80078 z m 4.68262,-8.60644 v -1.41504 h 1.23047 v 1.41504 z m 0,8.60644 v -7.25976 h 1.23047 v 7.25976 z m 5.12012,0 -2.76172,-7.25976 h 1.29883 l 1.55859,4.34765 q 0.25293,0.7041 0.46484,1.46289 0.16407,-0.57422 0.45801,-1.38086 l 1.61328,-4.42968 h 1.26465 l -2.74805,7.25976 z m 4.99023,-8.60644 v -1.41504 h 1.23047 v 1.41504 z m 0,8.60644 v -7.25976 h 1.23047 v 7.25976 z m 3.10352,0 v -7.25976 h 1.10742 v 1.03222 q 0.7998,-1.19629 2.31054,-1.19629 0.65625,0 1.20313,0.23926 0.55371,0.23242 0.82715,0.61524 0.27344,0.38281 0.38281,0.90918 0.0684,0.34179 0.0684,1.19628 v 4.46387 h -1.23047 v -4.41601 q 0,-0.75196 -0.14355,-1.1211 -0.14356,-0.37597 -0.5127,-0.59472 -0.3623,-0.22559 -0.85449,-0.22559 -0.78613,0 -1.36035,0.49902 -0.56739,0.49903 -0.56739,1.89356 v 3.96484 z m 7.56054,0.60156 1.19629,0.17774 q 0.0752,0.55371 0.41699,0.80664 0.45801,0.3418 1.25098,0.3418 0.85449,0 1.31934,-0.3418 0.46484,-0.3418 0.6289,-0.95703 0.0957,-0.37598 0.0889,-1.5791 -0.80664,0.95019 -2.00977,0.95019 -1.49707,0 -2.31738,-1.08008 -0.82031,-1.08007 -0.82031,-2.59082 0,-1.03906 0.37598,-1.91406 0.37597,-0.88183 1.08691,-1.36035 0.71777,-0.47852 1.68164,-0.47852 1.28516,0 2.11914,1.03907 v -0.875 h 1.13477 v 6.27539 q 0,1.69531 -0.34864,2.39941 -0.34179,0.71094 -1.09375,1.12109 -0.74511,0.41016 -1.83886,0.41016 -1.29883,0 -2.09864,-0.58789 -0.7998,-0.58105 -0.77246,-1.75684 z m 1.01856,-4.36132 q 0,1.42871 0.56738,2.08496 0.56738,0.65625 1.42188,0.65625 0.84765,0 1.42187,-0.64942 0.57422,-0.65625 0.57422,-2.05078 0,-1.33301 -0.59473,-2.00976 -0.58789,-0.67676 -1.42187,-0.67676 -0.82031,0 -1.39453,0.66992 -0.57422,0.66309 -0.57422,1.97559 z m 13.56933,2.65918 0.17774,1.08691 q -0.51953,0.10938 -0.92969,0.10938 -0.66992,0 -1.03906,-0.21192 -0.36914,-0.21191 -0.51953,-0.55371 -0.15039,-0.34863 -0.15039,-1.45605 v -4.17676 h -0.90235 v -0.95703 h 0.90235 v -1.79786 l 1.22363,-0.73828 v 2.53614 h 1.2373 v 0.95703 h -1.2373 v 4.24511 q 0,0.52637 0.0615,0.67676 0.0684,0.15039 0.21192,0.23926 0.15039,0.0889 0.42382,0.0889 0.20508,0 0.54004,-0.0478 z m 1.20996,-7.50586 v -1.41504 h 1.23047 v 1.41504 z m 0,8.60644 v -7.25976 h 1.23047 v 7.25976 z m 3.10352,0 v -7.25976 h 1.10059 v 1.01855 q 0.34179,-0.5332 0.90918,-0.85449 0.56738,-0.32813 1.29199,-0.32813 0.80664,0 1.31933,0.33496 0.51954,0.33497 0.73145,0.93653 0.86133,-1.27149 2.24219,-1.27149 1.08007,0 1.66113,0.60157 0.58105,0.59472 0.58105,1.83886 v 4.9834 h -1.22363 v -4.57324 q 0,-0.73828 -0.12305,-1.05957 -0.11621,-0.32813 -0.43066,-0.52637 -0.31445,-0.19824 -0.73828,-0.19824 -0.76563,0 -1.27149,0.5127 -0.50585,0.50585 -0.50585,1.62695 v 4.21777 h -1.23047 v -4.71679 q 0,-0.82032 -0.30078,-1.23047 -0.30079,-0.41016 -0.98438,-0.41016 -0.51953,0 -0.96387,0.27344 -0.4375,0.27344 -0.63574,0.7998 -0.19824,0.52637 -0.19824,1.51758 v 3.7666 z m 16.63184,-2.33789 1.27148,0.15723 q -0.30078,1.11426 -1.11426,1.72949 -0.81347,0.61523 -2.07812,0.61523 -1.59278,0 -2.5293,-0.97753 -0.92969,-0.98438 -0.92969,-2.75489 0,-1.83203 0.94336,-2.84375 0.94336,-1.01172 2.44727,-1.01172 1.45605,0 2.3789,0.99121 0.92286,0.99122 0.92286,2.78907 0,0.10937 -0.007,0.32812 h -5.41406 q 0.0684,1.19629 0.67676,1.83203 0.60839,0.63575 1.51757,0.63575 0.67676,0 1.15528,-0.35547 0.47851,-0.35547 0.75879,-1.13477 z m -4.04004,-1.98926 h 4.05371 q -0.082,-0.91601 -0.46485,-1.37402 -0.58789,-0.71094 -1.52441,-0.71094 -0.84766,0 -1.42871,0.56739 -0.57422,0.56738 -0.63574,1.51757 z m 6.36425,2.16016 1.2168,-0.19141 q 0.10254,0.73145 0.56738,1.1211 0.47168,0.38965 1.3125,0.38965 0.84766,0 1.25782,-0.3418 0.41015,-0.34863 0.41015,-0.81348 0,-0.41699 -0.3623,-0.65625 -0.25293,-0.16406 -1.25781,-0.41699 -1.35352,-0.3418 -1.87989,-0.58789 -0.51953,-0.25293 -0.79297,-0.69043 -0.2666,-0.44434 -0.2666,-0.97754 0,-0.48535 0.21875,-0.89551 0.22559,-0.41699 0.6084,-0.69043 0.28711,-0.21191 0.7793,-0.35547 0.49902,-0.15039 1.0664,-0.15039 0.8545,0 1.49707,0.2461 0.64942,0.24609 0.95704,0.66992 0.30761,0.41699 0.42382,1.12109 l -1.20312,0.16407 q -0.082,-0.56055 -0.47852,-0.875 -0.38964,-0.31446 -1.10742,-0.31446 -0.84765,0 -1.20996,0.28028 -0.3623,0.28027 -0.3623,0.65625 0,0.23925 0.15039,0.43066 0.15039,0.19824 0.47168,0.32813 0.18457,0.0684 1.08691,0.31445 1.30566,0.34863 1.81836,0.57422 0.51953,0.21875 0.81348,0.64258 0.29394,0.42382 0.29394,1.05273 0,0.61523 -0.3623,1.16211 -0.35547,0.54004 -1.03223,0.84082 -0.67676,0.29394 -1.53125,0.29394 -1.41504,0 -2.16016,-0.58789 -0.73828,-0.58789 -0.94336,-1.74316 z m 9.7959,-0.30078 q -0.007,-0.2461 -0.007,-0.36914 0,-0.72461 0.20508,-1.25098 0.15039,-0.39648 0.48535,-0.7998 0.24609,-0.29395 0.88183,-0.8545 0.64258,-0.56738 0.83399,-0.90234 0.1914,-0.33496 0.1914,-0.73144 0,-0.71778 -0.56054,-1.25782 -0.56055,-0.54687 -1.37403,-0.54687 -0.78613,0 -1.3125,0.49219 -0.52636,0.49218 -0.69043,1.53808 l -1.26464,-0.15039 q 0.17089,-1.40137 1.01171,-2.14648 0.84766,-0.74512 2.23536,-0.74512 1.46972,0 2.34472,0.7998 0.875,0.79981 0.875,1.93457 0,0.65625 -0.30762,1.20997 -0.30761,0.55371 -1.20312,1.34667 -0.60156,0.53321 -0.78613,0.78614 -0.18457,0.25293 -0.27344,0.58105 -0.0889,0.32813 -0.10254,1.06641 z m -0.0752,2.46777 v -1.40137 h 1.40137 v 1.40137 z"
       id="flowRoot4302-6"
       transform="translate(-20,372.36184)"
       aria-label="Can we optimize for air distances, when we need road distances or driving times?" />
    <g
       id="g3709"
       transform="translate(0,19.999997)" />
    <flowRoot
       xml:space="preserve"
       id="flowRoot4157"
       style="font-style:normal;font-weight:normal;line-height:0.01%;font-family:sans-serif;letter-spacing:0px;word-spacing:0px;fill:#000000;fill-opacity:1;stroke:none"><flowRegion
         id="flowRegion4159"
         style="font-family:sans-serif"><rect
           id="rect4161"
           width="10.955056"
           height="72.471909"
           x="16.011236"
           y="-53.932568" /></flowRegion><flowPara
         id="flowPara4163"
         style="font-size:40px;line-height:1.25;font-family:sans-serif"></flowPara></flowRoot>
    <flowRoot
       xml:space="preserve"
       id="flowRoot4442"
       style="font-style:normal;font-variant:normal;font-weight:normal;font-stretch:normal;line-height:0.01%;font-family:serif;-inkscape-font-specification:Serif;letter-spacing:0px;word-spacing:0px;fill:#000000;fill-opacity:1;stroke:none"
       transform="translate(0,452.36218)"><flowRegion
         id="flowRegion4444"
         style="font-family:serif"><rect
           id="rect4446"
           width="2.5280898"
           height="91.01123"
           x="503.08987"
           y="458.42697" /></flowRegion><flowPara
         id="flowPara4448"
         style="font-size:20px;line-height:1.25;font-family:serif"></flowPara></flowRoot>
    <flowRoot
       xml:space="preserve"
       id="flowRoot4510"
       style="font-style:normal;font-variant:normal;font-weight:normal;font-stretch:normal;line-height:0.01%;font-family:serif;-inkscape-font-specification:Serif;letter-spacing:0px;word-spacing:0px;fill:#000000;fill-opacity:1;stroke:none"
       transform="translate(0,452.36218)"><flowRegion
         id="flowRegion4512"
         style="font-family:serif"><rect
           id="rect4514"
           width="555.33704"
           height="180.33707"
           x="-37.921349"
           y="380.8989" /></flowRegion><flowPara
         id="flowPara4516"
         style="font-size:20px;line-height:1.25;font-family:serif"></flowPara></flowRoot>
    <g
       id="g8492"
       transform="matrix(0.5,0,0,0.5,-386.84549,504.43109)" />
    <g
       transform="matrix(0.5,0,0,0.5,-416.84549,504.43109)"
       id="g8502" />
    <g
       transform="translate(1.60445,-270.00047)"
       id="g3617" />
    <g
       transform="matrix(0.75,0,0,0.75,875.06303,57.965542)"
       id="g5639" />
    <g
       id="g5659"
       transform="matrix(0.75,0,0,0.75,875.06303,20.465542)" />
    <path
       style="font-weight:bold;font-size:16px;line-height:1.25;font-family:'Liberation Sans';-inkscape-font-specification:'\'Liberation Sans, Normal\' Bold';fill:#2e3436"
       d="m 274.10156,184.97066 q 0,-1.75 0.52344,-2.9375 0.39062,-0.875 1.0625,-1.57031 0.67969,-0.69531 1.48437,-1.03125 1.07032,-0.45312 2.46875,-0.45312 2.53125,0 4.04688,1.57031 1.52344,1.57031 1.52344,4.36719 0,2.77343 -1.50782,4.34375 -1.50781,1.5625 -4.03125,1.5625 -2.55468,0 -4.0625,-1.55469 -1.50781,-1.5625 -1.50781,-4.29688 z m 2.38281,-0.0781 q 0,1.94531 0.89844,2.95312 0.89844,1 2.28125,1 1.38281,0 2.26563,-0.99218 0.89062,-1 0.89062,-2.99219 0,-1.96875 -0.86719,-2.9375 -0.85937,-0.96875 -2.28906,-0.96875 -1.42969,0 -2.30469,0.98437 -0.875,0.97657 -0.875,2.95313 z m 10.45313,-2.5625 h 2.04687 v 1.21875 q 0.39844,-0.625 1.07813,-1.01563 0.67969,-0.39062 1.50781,-0.39062 1.44531,0 2.45313,1.13281 1.00781,1.13281 1.00781,3.15625 0,2.07813 -1.01563,3.23438 -1.01562,1.14843 -2.46093,1.14843 -0.6875,0 -1.25,-0.27343 -0.55469,-0.27344 -1.17188,-0.9375 v 4.17968 h -2.19531 z m 2.17187,4.00781 q 0,1.39844 0.55469,2.07031 0.55469,0.66407 1.35156,0.66407 0.76563,0 1.27344,-0.60938 0.50781,-0.61719 0.50781,-2.01562 0,-1.30469 -0.52343,-1.9375 -0.52344,-0.63282 -1.29688,-0.63282 -0.80469,0 -1.33594,0.625 -0.53125,0.61719 -0.53125,1.83594 z m 11.46875,-4.00781 v 1.75 h -1.5 v 3.34375 q 0,1.01562 0.0391,1.1875 0.0469,0.16406 0.19531,0.27344 0.15625,0.10937 0.375,0.10937 0.30469,0 0.88281,-0.21094 l 0.1875,1.70313 q -0.76562,0.32812 -1.73437,0.32812 -0.59375,0 -1.07032,-0.19531 -0.47656,-0.20312 -0.70312,-0.51562 -0.21875,-0.32032 -0.30469,-0.85938 -0.0703,-0.38281 -0.0703,-1.54687 v -3.61719 h -1.00781 v -1.75 h 1.00781 v -1.64844 l 2.20312,-1.28125 v 2.92969 z m 1.52344,-1.125 v -2.03125 h 2.19531 v 2.03125 z m 0,9.42187 v -8.29687 h 2.19531 v 8.29687 z m 4.28125,-8.29687 h 2.02344 v 1.13281 q 1.08594,-1.32031 2.58594,-1.32031 0.79687,0 1.38281,0.32812 0.58594,0.32813 0.96094,0.99219 0.54687,-0.66406 1.17968,-0.99219 0.63282,-0.32812 1.35157,-0.32812 0.91406,0 1.54687,0.375 0.63281,0.36719 0.94531,1.08594 0.22657,0.53125 0.22657,1.71875 v 5.30468 h -2.19532 v -4.74218 q 0,-1.23438 -0.22656,-1.59375 -0.30469,-0.46875 -0.9375,-0.46875 -0.46094,0 -0.86719,0.28125 -0.40625,0.28125 -0.58593,0.82812 -0.17969,0.53906 -0.17969,1.71094 v 3.98437 h -2.19531 v -4.54687 q 0,-1.21094 -0.11719,-1.5625 -0.11719,-0.35156 -0.36719,-0.52344 -0.24219,-0.17187 -0.66406,-0.17187 -0.50781,0 -0.91406,0.27343 -0.40625,0.27344 -0.58594,0.78907 -0.17188,0.51562 -0.17188,1.71093 v 4.03125 h -2.19531 z m 14.39063,-1.125 v -2.03125 h 2.19531 v 2.03125 z m 0,9.42187 v -8.29687 h 2.19531 v 8.29687 z m 3.5625,0 v -1.71093 l 3.10937,-3.57032 q 0.76563,-0.875 1.13281,-1.24218 -0.38281,0.0234 -1.00781,0.0312 l -2.92969,0.0156 v -1.82031 H 331.5 v 1.55469 l -3.17188,3.65625 -1.11718,1.21093 q 0.91406,-0.0547 1.13281,-0.0547 h 3.39844 v 1.92968 z m 13.6875,-2.64062 2.1875,0.36719 q -0.42188,1.20312 -1.33594,1.83593 -0.90625,0.625 -2.27344,0.625 -2.16406,0 -3.20312,-1.41406 -0.82032,-1.13281 -0.82032,-2.85937 0,-2.0625 1.07813,-3.22657 1.07812,-1.17187 2.72656,-1.17187 1.85156,0 2.92188,1.22656 1.07031,1.21875 1.02343,3.74219 h -5.5 q 0.0234,0.97656 0.53125,1.52344 0.50782,0.53906 1.26563,0.53906 0.51562,0 0.86719,-0.28125 0.35156,-0.28125 0.53125,-0.90625 z m 0.125,-2.21875 q -0.0234,-0.95313 -0.49219,-1.44531 -0.46875,-0.5 -1.14063,-0.5 -0.71875,0 -1.1875,0.52343 -0.46875,0.52344 -0.46093,1.42188 z m 11.57812,4.85937 h -2.03906 v -1.21875 q -0.50781,0.71094 -1.20313,1.0625 -0.6875,0.34375 -1.39062,0.34375 -1.42969,0 -2.45313,-1.14843 -1.01562,-1.15625 -1.01562,-3.21875 0,-2.10938 0.99219,-3.20313 0.99218,-1.10156 2.50781,-1.10156 1.39062,0 2.40625,1.15625 v -4.125 h 2.19531 z m -5.85937,-4.32812 q 0,1.32812 0.36718,1.92187 0.53125,0.85938 1.48438,0.85938 0.75781,0 1.28906,-0.64063 0.53125,-0.64843 0.53125,-1.92968 0,-1.42969 -0.51562,-2.05469 -0.51563,-0.63281 -1.32032,-0.63281 -0.78125,0 -1.3125,0.625 -0.52343,0.61718 -0.52343,1.85156 z m 11.50781,-3.96875 h 1.21875 v -0.625 q 0,-1.04688 0.21875,-1.5625 0.22656,-0.51563 0.82031,-0.83594 0.60156,-0.32812 1.51563,-0.32812 0.9375,0 1.83593,0.28125 l -0.29687,1.53125 q -0.52344,-0.125 -1.00781,-0.125 -0.47657,0 -0.6875,0.22656 -0.20313,0.21875 -0.20313,0.85156 v 0.58594 h 1.64063 v 1.72656 h -1.64063 v 6.57031 h -2.19531 V 184.0566 H 355.375 Z m 5.78125,4.03125 q 0,-1.09375 0.53906,-2.11719 0.53906,-1.02344 1.52344,-1.5625 0.99219,-0.53906 2.21094,-0.53906 1.88281,0 3.08593,1.22656 1.20313,1.21875 1.20313,3.08594 0,1.88281 -1.21875,3.125 -1.21094,1.23437 -3.05469,1.23437 -1.14062,0 -2.17969,-0.51562 -1.03125,-0.51563 -1.57031,-1.50781 -0.53906,-1 -0.53906,-2.42969 z m 2.25,0.11719 q 0,1.23437 0.58594,1.89062 0.58593,0.65625 1.44531,0.65625 0.85937,0 1.4375,-0.65625 0.58594,-0.65625 0.58594,-1.90625 0,-1.21875 -0.58594,-1.875 -0.57813,-0.65625 -1.4375,-0.65625 -0.85938,0 -1.44531,0.65625 -0.58594,0.65625 -0.58594,1.89063 z m 10.13281,4.14843 h -2.19531 v -8.29687 h 2.03906 v 1.17969 q 0.52344,-0.83594 0.9375,-1.10157 0.42188,-0.26562 0.95313,-0.26562 0.75,0 1.44531,0.41406 l -0.67969,1.91406 q -0.55469,-0.35937 -1.03125,-0.35937 -0.46094,0 -0.78125,0.25781 -0.32031,0.25 -0.50781,0.91406 -0.17969,0.66407 -0.17969,2.78125 z m 8.57031,0 v -2.19531 h 2.19532 v 2.19531 z m 4.44532,0 V 188.4316 H 388.75 v 2.19531 z m 4.44531,0 v -2.19531 h 2.19531 v 2.19531 z"
       id="flowRoot5076"
       transform="translate(-243.40625,375.40596)"
       aria-label="Optimized for ..." />
  </g>
</svg>
