<?xml version="1.0" encoding="UTF-8" standalone="no"?>
<svg
   width="800"
   height="600"
   id="svg2"
   version="1.1"
   xmlns="http://www.w3.org/2000/svg"
   xmlns:svg="http://www.w3.org/2000/svg"
   xmlns:rdf="http://www.w3.org/1999/02/22-rdf-syntax-ns#"
   xmlns:cc="http://creativecommons.org/ns#"
   xmlns:dc="http://purl.org/dc/elements/1.1/">
  <defs
     id="defs4" />
  <metadata
     id="metadata7">
    <rdf:RDF>
      <cc:Work
         rdf:about="">
        <dc:format>image/svg+xml</dc:format>
        <dc:type
           rdf:resource="http://purl.org/dc/dcmitype/StillImage" />
        <dc:language>en</dc:language>
        <cc:license
           rdf:resource="https://timefold.ai/license" />
      </cc:Work>
    </rdf:RDF>
  </metadata>
  <path
     style="font-size:16px;line-height:1.25;font-family:'Liberation Sans';-inkscape-font-specification:'Liberation Sans, Normal';text-align:center;text-anchor:middle"
     d="m 72.316406,160.39645 1.515625,0.38281 q -0.476562,1.86719 -1.71875,2.85156 -1.234375,0.97656 -3.023437,0.97656 -1.851563,0 -3.015625,-0.75 -1.15625,-0.75781 -1.765625,-2.1875 -0.601563,-1.42968 -0.601563,-3.07031 0,-1.78906 0.679688,-3.11719 0.6875,-1.33593 1.945312,-2.02343 1.265625,-0.69532 2.78125,-0.69532 1.71875,0 2.890625,0.875 1.171875,0.875 1.632813,2.46094 l -1.492188,0.35156 q -0.398437,-1.25 -1.15625,-1.82031 -0.757812,-0.57031 -1.90625,-0.57031 -1.320312,0 -2.210937,0.63281 -0.882813,0.63281 -1.242188,1.70313 -0.359375,1.0625 -0.359375,2.19531 0,1.46094 0.421875,2.55469 0.429688,1.08593 1.328125,1.625 0.898438,0.53906 1.945313,0.53906 1.273437,0 2.15625,-0.73438 0.882812,-0.73437 1.195312,-2.17968 z m 3.1875,4.01562 v -8.29687 h 1.265625 v 1.25781 q 0.484375,-0.88281 0.890625,-1.16406 0.414063,-0.28125 0.90625,-0.28125 0.710938,0 1.445313,0.45312 l -0.484375,1.30469 q -0.515625,-0.30469 -1.03125,-0.30469 -0.460938,0 -0.828125,0.28125 -0.367188,0.27344 -0.523438,0.76563 -0.234375,0.75 -0.234375,1.64062 v 4.34375 z m 11.023438,-2.67187 1.453125,0.17968 q -0.34375,1.27344 -1.273438,1.97657 -0.929687,0.70312 -2.375,0.70312 -1.820312,0 -2.890625,-1.11719 -1.0625,-1.125 -1.0625,-3.14843 0,-2.09375 1.078125,-3.25 1.078125,-1.15625 2.796875,-1.15625 1.664063,0 2.71875,1.13281 1.054688,1.13281 1.054688,3.1875 0,0.125 -0.0078,0.375 h -6.1875 q 0.07813,1.36719 0.773438,2.09375 0.695312,0.72656 1.734375,0.72656 0.773437,0 1.320312,-0.40625 0.546875,-0.40625 0.867188,-1.29687 z m -4.617188,-2.27344 h 4.632813 q -0.09375,-1.04688 -0.53125,-1.57031 -0.671875,-0.8125 -1.742188,-0.8125 -0.96875,0 -1.632812,0.64843 -0.65625,0.64844 -0.726563,1.73438 z m 13.25,3.92187 q -0.78125,0.66407 -1.507812,0.9375 -0.71875,0.27344 -1.546875,0.27344 -1.367188,0 -2.101563,-0.66406 -0.734375,-0.67188 -0.734375,-1.71094 0,-0.60937 0.273438,-1.10937 0.28125,-0.50782 0.726562,-0.8125 0.453125,-0.30469 1.015625,-0.46094 0.414063,-0.10938 1.25,-0.21094 1.703125,-0.20312 2.507813,-0.48437 0.0078,-0.28907 0.0078,-0.36719 0,-0.85938 -0.398437,-1.21094 -0.539063,-0.47656 -1.601563,-0.47656 -0.992187,0 -1.46875,0.35156 -0.46875,0.34375 -0.695312,1.22656 l -1.375,-0.1875 q 0.1875,-0.88281 0.617187,-1.42187 0.429688,-0.54688 1.242188,-0.83594 0.8125,-0.29687 1.882812,-0.29687 1.0625,0 1.726563,0.25 0.664062,0.25 0.976562,0.63281 0.3125,0.375 0.4375,0.95312 0.07031,0.35938 0.07031,1.29688 v 1.875 q 0,1.96094 0.08594,2.48437 0.09375,0.51563 0.359375,0.99219 h -1.46875 q -0.21875,-0.4375 -0.28125,-1.02344 z m -0.117187,-3.14062 q -0.765625,0.3125 -2.296875,0.53125 -0.867188,0.125 -1.226563,0.28125 -0.359375,0.15625 -0.554687,0.46094 -0.195313,0.29687 -0.195313,0.66406 0,0.5625 0.421875,0.9375 0.429688,0.375 1.25,0.375 0.8125,0 1.445313,-0.35156 0.632812,-0.35938 0.929687,-0.97657 0.226563,-0.47656 0.226563,-1.40625 z m 6.671871,2.90625 0.20313,1.24219 q -0.59375,0.125 -1.0625,0.125 -0.76563,0 -1.187501,-0.24219 -0.421875,-0.24219 -0.59375,-0.63281 -0.171875,-0.39844 -0.171875,-1.66407 v -4.77343 h -1.03125 v -1.09375 h 1.03125 v -2.05469 l 1.398436,-0.84375 v 2.89844 h 1.41406 v 1.09375 h -1.41406 v 4.85156 q 0,0.60156 0.0703,0.77344 0.0781,0.17187 0.24219,0.27343 0.17188,0.10157 0.48438,0.10157 0.23437,0 0.61718,-0.0547 z m 7.05469,-1.41406 1.45313,0.17968 q -0.34375,1.27344 -1.27344,1.97657 -0.92969,0.70312 -2.375,0.70312 -1.82031,0 -2.89063,-1.11719 -1.0625,-1.125 -1.0625,-3.14843 0,-2.09375 1.07813,-3.25 1.07812,-1.15625 2.79687,-1.15625 1.66407,0 2.71875,1.13281 1.05469,1.13281 1.05469,3.1875 0,0.125 -0.008,0.375 h -6.1875 q 0.0781,1.36719 0.77344,2.09375 0.69531,0.72656 1.73437,0.72656 0.77344,0 1.32031,-0.40625 0.54688,-0.40625 0.86719,-1.29687 z m -4.61719,-2.27344 h 4.63282 q -0.0937,-1.04688 -0.53125,-1.57031 -0.67188,-0.8125 -1.74219,-0.8125 -0.96875,0 -1.63281,0.64843 -0.65625,0.64844 -0.72657,1.73438 z m 17.69532,3.92187 q -0.78125,0.66407 -1.50782,0.9375 -0.71875,0.27344 -1.54687,0.27344 -1.36719,0 -2.10156,-0.66406 -0.73438,-0.67188 -0.73438,-1.71094 0,-0.60937 0.27344,-1.10937 0.28125,-0.50782 0.72656,-0.8125 0.45313,-0.30469 1.01563,-0.46094 0.41406,-0.10938 1.25,-0.21094 1.70312,-0.20312 2.50781,-0.48437 0.008,-0.28907 0.008,-0.36719 0,-0.85938 -0.39844,-1.21094 -0.53906,-0.47656 -1.60156,-0.47656 -0.99219,0 -1.46875,0.35156 -0.46875,0.34375 -0.69531,1.22656 l -1.375,-0.1875 q 0.1875,-0.88281 0.61719,-1.42187 0.42968,-0.54688 1.24218,-0.83594 0.8125,-0.29687 1.88282,-0.29687 1.0625,0 1.72656,0.25 0.66406,0.25 0.97656,0.63281 0.3125,0.375 0.4375,0.95312 0.0703,0.35938 0.0703,1.29688 v 1.875 q 0,1.96094 0.0859,2.48437 0.0937,0.51563 0.35938,0.99219 h -1.46875 q -0.21875,-0.4375 -0.28125,-1.02344 z m -0.11719,-3.14062 q -0.76563,0.3125 -2.29688,0.53125 -0.86718,0.125 -1.22656,0.28125 -0.35937,0.15625 -0.55469,0.46094 -0.19531,0.29687 -0.19531,0.66406 0,0.5625 0.42188,0.9375 0.42968,0.375 1.25,0.375 0.8125,0 1.44531,-0.35156 0.63281,-0.35938 0.92969,-0.97657 0.22656,-0.47656 0.22656,-1.40625 z m 7.71094,0.48437 1.42968,-0.125 q 0.10157,0.85938 0.46875,1.41407 0.375,0.54687 1.15625,0.89062 0.78125,0.33594 1.75782,0.33594 0.86718,0 1.53125,-0.25781 0.66406,-0.25782 0.98437,-0.70313 0.32813,-0.45312 0.32813,-0.98437 0,-0.53907 -0.3125,-0.9375 -0.3125,-0.40625 -1.03125,-0.67969 -0.46094,-0.17969 -2.03907,-0.55469 -1.57812,-0.38281 -2.21093,-0.71875 -0.82032,-0.42969 -1.22657,-1.0625 -0.39843,-0.64062 -0.39843,-1.42969 0,-0.86718 0.49218,-1.61718 0.49219,-0.75782 1.4375,-1.14844 0.94532,-0.39063 2.10157,-0.39063 1.27343,0 2.24218,0.41407 0.97657,0.40625 1.5,1.20312 0.52344,0.79688 0.5625,1.80469 l -1.45312,0.10937 q -0.11719,-1.08593 -0.79688,-1.64062 -0.67187,-0.55469 -1.99218,-0.55469 -1.375,0 -2.00782,0.50781 -0.625,0.5 -0.625,1.21094 0,0.61719 0.44532,1.01563 0.4375,0.39843 2.28125,0.82031 1.85156,0.41406 2.53906,0.72656 1,0.46094 1.47656,1.17188 0.47656,0.70312 0.47656,1.625 0,0.91406 -0.52343,1.72656 -0.52344,0.80469 -1.50782,1.25781 -0.97656,0.44531 -2.20312,0.44531 -1.55469,0 -2.60938,-0.45312 -1.04687,-0.45313 -1.64843,-1.35938 -0.59375,-0.91406 -0.625,-2.0625 z m 16.6875,1.00782 1.45312,0.17968 q -0.34375,1.27344 -1.27344,1.97657 -0.92968,0.70312 -2.375,0.70312 -1.82031,0 -2.89062,-1.11719 -1.0625,-1.125 -1.0625,-3.14843 0,-2.09375 1.07812,-3.25 1.07813,-1.15625 2.79688,-1.15625 1.66406,0 2.71875,1.13281 1.05469,1.13281 1.05469,3.1875 0,0.125 -0.008,0.375 h -6.1875 q 0.0781,1.36719 0.77344,2.09375 0.69531,0.72656 1.73438,0.72656 0.77343,0 1.32031,-0.40625 0.54687,-0.40625 0.86719,-1.29687 z m -4.61719,-2.27344 h 4.63281 q -0.0937,-1.04688 -0.53125,-1.57031 -0.67187,-0.8125 -1.74219,-0.8125 -0.96875,0 -1.63281,0.64843 -0.65625,0.64844 -0.72656,1.73438 z m 13.125,8.125 v -4.0625 q -0.32813,0.46094 -0.92188,0.76562 -0.58593,0.30469 -1.25,0.30469 -1.47656,0 -2.54687,-1.17969 -1.0625,-1.17968 -1.0625,-3.23437 0,-1.25 0.42969,-2.24219 0.4375,-0.99219 1.25781,-1.5 0.82812,-0.51562 1.8125,-0.51562 1.53906,0 2.42187,1.29687 v -1.10937 h 1.26563 v 11.47656 z m -4.33594,-7.35156 q 0,1.60156 0.67188,2.40625 0.67187,0.79687 1.60937,0.79687 0.89844,0 1.54688,-0.75781 0.64843,-0.76563 0.64843,-2.32031 0,-1.65625 -0.6875,-2.49219 -0.67968,-0.83594 -1.60156,-0.83594 -0.91406,0 -1.55469,0.78125 -0.63281,0.77344 -0.63281,2.42188 z m 13.38281,4.17187 v -1.21875 q -0.96875,1.40625 -2.63281,1.40625 -0.73437,0 -1.375,-0.28125 -0.63281,-0.28125 -0.94531,-0.70312 -0.30469,-0.42969 -0.42969,-1.04688 -0.0859,-0.41406 -0.0859,-1.3125 v -5.14062 h 1.40625 v 4.60156 q 0,1.10156 0.0859,1.48437 0.13281,0.55469 0.5625,0.875 0.42969,0.3125 1.0625,0.3125 0.63281,0 1.1875,-0.32031 0.55469,-0.32812 0.78125,-0.88281 0.23438,-0.5625 0.23438,-1.625 v -4.44531 h 1.40625 v 8.29687 z m 9.14063,-2.67187 1.45312,0.17968 q -0.34375,1.27344 -1.27343,1.97657 -0.92969,0.70312 -2.375,0.70312 -1.82032,0 -2.89063,-1.11719 -1.0625,-1.125 -1.0625,-3.14843 0,-2.09375 1.07813,-3.25 1.07812,-1.15625 2.79687,-1.15625 1.66406,0 2.71875,1.13281 1.05469,1.13281 1.05469,3.1875 0,0.125 -0.008,0.375 h -6.1875 q 0.0781,1.36719 0.77343,2.09375 0.69532,0.72656 1.73438,0.72656 0.77344,0 1.32031,-0.40625 0.54688,-0.40625 0.86719,-1.29687 z m -4.61719,-2.27344 h 4.63281 q -0.0937,-1.04688 -0.53125,-1.57031 -0.67187,-0.8125 -1.74218,-0.8125 -0.96875,0 -1.63282,0.64843 -0.65625,0.64844 -0.72656,1.73438 z m 7.83594,4.94531 v -8.29687 h 1.26562 v 1.17968 q 0.91407,-1.36718 2.64063,-1.36718 0.75,0 1.375,0.27343 0.63281,0.26563 0.94531,0.70313 0.3125,0.4375 0.4375,1.03906 0.0781,0.39063 0.0781,1.36719 v 5.10156 h -1.40625 v -5.04687 q 0,-0.85938 -0.16407,-1.28125 -0.16406,-0.42969 -0.58593,-0.67969 -0.41407,-0.25781 -0.97657,-0.25781 -0.89843,0 -1.55468,0.57031 -0.64844,0.57031 -0.64844,2.16406 v 4.53125 z m 14.3125,-3.03906 1.38281,0.17969 q -0.22656,1.42968 -1.16406,2.24218 -0.92969,0.80469 -2.28906,0.80469 -1.70313,0 -2.74219,-1.10937 -1.03125,-1.11719 -1.03125,-3.19532 0,-1.34375 0.44531,-2.35156 0.44531,-1.00781 1.35156,-1.50781 0.91407,-0.50781 1.98438,-0.50781 1.35156,0 2.21094,0.6875 0.85937,0.67968 1.10156,1.9375 l -1.36719,0.21093 q -0.19531,-0.83593 -0.69531,-1.25781 -0.49219,-0.42187 -1.19531,-0.42187 -1.0625,0 -1.72657,0.76562 -0.66406,0.75781 -0.66406,2.40625 0,1.67188 0.64063,2.42969 0.64062,0.75781 1.67187,0.75781 0.82813,0 1.38281,-0.50781 0.55469,-0.50781 0.70313,-1.5625 z m 8.26562,0.36719 1.45313,0.17968 q -0.34375,1.27344 -1.27344,1.97657 -0.92969,0.70312 -2.375,0.70312 -1.82031,0 -2.89062,-1.11719 -1.0625,-1.125 -1.0625,-3.14843 0,-2.09375 1.07812,-3.25 1.07813,-1.15625 2.79688,-1.15625 1.66406,0 2.71875,1.13281 1.05468,1.13281 1.05468,3.1875 0,0.125 -0.008,0.375 h -6.1875 q 0.0781,1.36719 0.77344,2.09375 0.69531,0.72656 1.73437,0.72656 0.77344,0 1.32032,-0.40625 0.54687,-0.40625 0.86718,-1.29687 z m -4.61718,-2.27344 h 4.63281 q -0.0937,-1.04688 -0.53125,-1.57031 -0.67188,-0.8125 -1.74219,-0.8125 -0.96875,0 -1.63281,0.64843 -0.65625,0.64844 -0.72656,1.73438 z m 16.1875,0.92969 1.51562,0.38281 q -0.47656,1.86719 -1.71875,2.85156 -1.23437,0.97656 -3.02344,0.97656 -1.85156,0 -3.01562,-0.75 -1.15625,-0.75781 -1.76563,-2.1875 -0.60156,-1.42968 -0.60156,-3.07031 0,-1.78906 0.67969,-3.11719 0.6875,-1.33593 1.94531,-2.02343 1.26563,-0.69532 2.78125,-0.69532 1.71875,0 2.89063,0.875 1.17187,0.875 1.63281,2.46094 l -1.49219,0.35156 q -0.39844,-1.25 -1.15625,-1.82031 -0.75781,-0.57031 -1.90625,-0.57031 -1.32031,0 -2.21094,0.63281 -0.88281,0.63281 -1.24218,1.70313 -0.35938,1.0625 -0.35938,2.19531 0,1.46094 0.42188,2.55469 0.42968,1.08593 1.32812,1.625 0.89844,0.53906 1.94531,0.53906 1.27344,0 2.15625,-0.73438 0.88282,-0.73437 1.19532,-2.17968 z m 3.20312,4.01562 v -11.45312 h 1.40625 v 4.10937 q 0.98438,-1.14062 2.48438,-1.14062 0.92187,0 1.60156,0.36718 0.67969,0.35938 0.96875,1 0.29687,0.64063 0.29687,1.85938 v 5.25781 h -1.40625 v -5.25781 q 0,-1.05469 -0.46093,-1.53125 -0.45313,-0.48438 -1.28907,-0.48438 -0.625,0 -1.17968,0.32813 -0.54688,0.32031 -0.78125,0.875 -0.23438,0.55469 -0.23438,1.53125 v 4.53906 z m 14.3125,-1.02344 q -0.78125,0.66407 -1.50781,0.9375 -0.71875,0.27344 -1.54688,0.27344 -1.36718,0 -2.10156,-0.66406 -0.73437,-0.67188 -0.73437,-1.71094 0,-0.60937 0.27343,-1.10937 0.28125,-0.50782 0.72657,-0.8125 0.45312,-0.30469 1.01562,-0.46094 0.41406,-0.10938 1.25,-0.21094 1.70313,-0.20312 2.50781,-0.48437 0.008,-0.28907 0.008,-0.36719 0,-0.85938 -0.39844,-1.21094 -0.53906,-0.47656 -1.60156,-0.47656 -0.99219,0 -1.46875,0.35156 -0.46875,0.34375 -0.69532,1.22656 l -1.375,-0.1875 q 0.1875,-0.88281 0.61719,-1.42187 0.42969,-0.54688 1.24219,-0.83594 0.8125,-0.29687 1.88281,-0.29687 1.0625,0 1.72656,0.25 0.66407,0.25 0.97657,0.63281 0.3125,0.375 0.4375,0.95312 0.0703,0.35938 0.0703,1.29688 v 1.875 q 0,1.96094 0.0859,2.48437 0.0937,0.51563 0.35937,0.99219 h -1.46875 q -0.21875,-0.4375 -0.28125,-1.02344 z m -0.11719,-3.14062 q -0.76562,0.3125 -2.29687,0.53125 -0.86719,0.125 -1.22656,0.28125 -0.35938,0.15625 -0.55469,0.46094 -0.19531,0.29687 -0.19531,0.66406 0,0.5625 0.42187,0.9375 0.42969,0.375 1.25,0.375 0.8125,0 1.44531,-0.35156 0.63282,-0.35938 0.92969,-0.97657 0.22656,-0.47656 0.22656,-1.40625 z m 3.60938,-5.67188 v -1.61718 h 1.40625 v 1.61718 z m 0,9.83594 v -8.29687 h 1.40625 v 8.29687 z m 3.54687,0 v -8.29687 h 1.26563 v 1.17968 q 0.91406,-1.36718 2.64062,-1.36718 0.75,0 1.375,0.27343 0.63282,0.26563 0.94532,0.70313 0.3125,0.4375 0.4375,1.03906 0.0781,0.39063 0.0781,1.36719 v 5.10156 h -1.40625 v -5.04687 q 0,-0.85938 -0.16406,-1.28125 -0.16406,-0.42969 -0.58594,-0.67969 -0.41406,-0.25781 -0.97656,-0.25781 -0.89844,0 -1.55469,0.57031 -0.64844,0.57031 -0.64844,2.16406 v 4.53125 z m 14.875,0 -2.53906,-8.29687 h 1.45313 l 1.32031,4.78906 0.49219,1.78125 q 0.0312,-0.13281 0.42968,-1.71094 l 1.32032,-4.85937 h 1.44531 l 1.24219,4.8125 0.41406,1.58593 0.47656,-1.60156 1.42188,-4.79687 h 1.36718 l -2.59375,8.29687 h -1.46093 l -1.32032,-4.96875 -0.32031,-1.41406 -1.67969,6.38281 z m 10.02344,0 v -11.45312 h 1.40625 v 4.10937 q 0.98438,-1.14062 2.48438,-1.14062 0.92187,0 1.60156,0.36718 0.67969,0.35938 0.96875,1 0.29687,0.64063 0.29687,1.85938 v 5.25781 h -1.40625 v -5.25781 q 0,-1.05469 -0.46093,-1.53125 -0.45313,-0.48438 -1.28907,-0.48438 -0.625,0 -1.17968,0.32813 -0.54688,0.32031 -0.78125,0.875 -0.23438,0.55469 -0.23438,1.53125 v 4.53906 z m 8.90625,-9.83594 v -1.61718 h 1.40625 v 1.61718 z m 0,9.83594 v -8.29687 h 1.40625 v 8.29687 z m 8.96094,-3.03906 1.38281,0.17969 q -0.22656,1.42968 -1.16406,2.24218 -0.92969,0.80469 -2.28906,0.80469 -1.70313,0 -2.74219,-1.10937 -1.03125,-1.11719 -1.03125,-3.19532 0,-1.34375 0.44531,-2.35156 0.44531,-1.00781 1.35156,-1.50781 0.91407,-0.50781 1.98438,-0.50781 1.35156,0 2.21094,0.6875 0.85937,0.67968 1.10156,1.9375 l -1.36719,0.21093 q -0.19531,-0.83593 -0.69531,-1.25781 -0.49219,-0.42187 -1.19531,-0.42187 -1.0625,0 -1.72657,0.76562 -0.66406,0.75781 -0.66406,2.40625 0,1.67188 0.64063,2.42969 0.64062,0.75781 1.67187,0.75781 0.82813,0 1.38281,-0.50781 0.55469,-0.50781 0.70313,-1.5625 z m 2.58594,3.03906 v -11.45312 h 1.40625 v 4.10937 q 0.98437,-1.14062 2.48437,-1.14062 0.92188,0 1.60156,0.36718 0.67969,0.35938 0.96875,1 0.29688,0.64063 0.29688,1.85938 v 5.25781 h -1.40625 v -5.25781 q 0,-1.05469 -0.46094,-1.53125 -0.45312,-0.48438 -1.28906,-0.48438 -0.625,0 -1.17969,0.32813 -0.54687,0.32031 -0.78125,0.875 -0.23437,0.55469 -0.23437,1.53125 v 4.53906 z m 18.75781,-1.02344 q -0.78125,0.66407 -1.50781,0.9375 -0.71875,0.27344 -1.54688,0.27344 -1.36719,0 -2.10156,-0.66406 -0.73438,-0.67188 -0.73438,-1.71094 0,-0.60937 0.27344,-1.10937 0.28125,-0.50782 0.72656,-0.8125 0.45313,-0.30469 1.01563,-0.46094 0.41406,-0.10938 1.25,-0.21094 1.70312,-0.20312 2.50781,-0.48437 0.008,-0.28907 0.008,-0.36719 0,-0.85938 -0.39843,-1.21094 -0.53907,-0.47656 -1.60157,-0.47656 -0.99218,0 -1.46875,0.35156 -0.46875,0.34375 -0.69531,1.22656 l -1.375,-0.1875 q 0.1875,-0.88281 0.61719,-1.42187 0.42969,-0.54688 1.24219,-0.83594 0.8125,-0.29687 1.88281,-0.29687 1.0625,0 1.72656,0.25 0.66406,0.25 0.97656,0.63281 0.3125,0.375 0.4375,0.95312 0.0703,0.35938 0.0703,1.29688 v 1.875 q 0,1.96094 0.0859,2.48437 0.0937,0.51563 0.35938,0.99219 h -1.46875 q -0.21875,-0.4375 -0.28125,-1.02344 z m -0.11719,-3.14062 q -0.76562,0.3125 -2.29687,0.53125 -0.86719,0.125 -1.22657,0.28125 -0.35937,0.15625 -0.55468,0.46094 -0.19532,0.29687 -0.19532,0.66406 0,0.5625 0.42188,0.9375 0.42969,0.375 1.25,0.375 0.8125,0 1.44531,-0.35156 0.63281,-0.35938 0.92969,-0.97657 0.22656,-0.47656 0.22656,-1.40625 z m 3.57031,4.16406 v -11.45312 h 1.40625 v 11.45312 z m 3.55469,0 v -11.45312 h 1.40625 v 11.45312 z m 3.0625,-4.14844 q 0,-2.30468 1.28125,-3.41406 1.07031,-0.92187 2.60938,-0.92187 1.71093,0 2.79687,1.125 1.08594,1.11718 1.08594,3.09375 0,1.60156 -0.48438,2.52343 -0.47656,0.91407 -1.39843,1.42188 -0.91407,0.50781 -2,0.50781 -1.74219,0 -2.82032,-1.11719 -1.07031,-1.11718 -1.07031,-3.21875 z m 1.44531,0 q 0,1.59375 0.69532,2.39063 0.69531,0.78906 1.75,0.78906 1.04687,0 1.74218,-0.79687 0.69532,-0.79688 0.69532,-2.42969 0,-1.53906 -0.70313,-2.32813 -0.69531,-0.79687 -1.73437,-0.79687 -1.05469,0 -1.75,0.78906 -0.69532,0.78906 -0.69532,2.38281 z m 9.50782,4.14844 -2.53907,-8.29687 h 1.45313 l 1.32031,4.78906 0.49219,1.78125 q 0.0312,-0.13281 0.42969,-1.71094 l 1.32031,-4.85937 h 1.44531 l 1.24219,4.8125 0.41406,1.58593 0.47656,-1.60156 1.42188,-4.79687 h 1.36719 l -2.59375,8.29687 h -1.46094 l -1.32031,-4.96875 -0.32032,-1.41406 -1.67968,6.38281 z m 9.46093,-2.47656 1.39063,-0.21875 q 0.11719,0.83594 0.64844,1.28125 0.53906,0.44531 1.5,0.44531 0.96875,0 1.4375,-0.39062 0.46875,-0.39844 0.46875,-0.92969 0,-0.47656 -0.41407,-0.75 -0.28906,-0.1875 -1.4375,-0.47656 -1.54687,-0.39063 -2.14843,-0.67188 -0.59375,-0.28906 -0.90625,-0.78906 -0.30469,-0.50781 -0.30469,-1.11719 0,-0.55469 0.25,-1.02344 0.25781,-0.47656 0.69531,-0.78906 0.32813,-0.24219 0.89063,-0.40625 0.57031,-0.17187 1.21875,-0.17187 0.97656,0 1.71093,0.28125 0.74219,0.28125 1.09375,0.76562 0.35157,0.47656 0.48438,1.28125 l -1.375,0.1875 q -0.0937,-0.64062 -0.54688,-1 -0.44531,-0.35937 -1.26562,-0.35937 -0.96875,0 -1.38281,0.32031 -0.41407,0.32031 -0.41407,0.75 0,0.27344 0.17188,0.49219 0.17187,0.22656 0.53906,0.375 0.21094,0.0781 1.24219,0.35937 1.49219,0.39844 2.07812,0.65625 0.59375,0.25 0.92969,0.73438 0.33594,0.48437 0.33594,1.20312 0,0.70313 -0.41406,1.32813 -0.40625,0.61718 -1.17969,0.96093 -0.77344,0.33594 -1.75,0.33594 -1.61719,0 -2.46875,-0.67187 -0.84375,-0.67188 -1.07813,-1.99219 z m 18.42188,-0.5625 1.38281,0.17969 q -0.22656,1.42968 -1.16406,2.24218 -0.92969,0.80469 -2.28906,0.80469 -1.70313,0 -2.74219,-1.10937 -1.03125,-1.11719 -1.03125,-3.19532 0,-1.34375 0.44531,-2.35156 0.44531,-1.00781 1.35156,-1.50781 0.91407,-0.50781 1.98438,-0.50781 1.35156,0 2.21094,0.6875 0.85937,0.67968 1.10156,1.9375 l -1.36719,0.21093 q -0.19531,-0.83593 -0.69531,-1.25781 -0.49219,-0.42187 -1.19531,-0.42187 -1.0625,0 -1.72657,0.76562 -0.66406,0.75781 -0.66406,2.40625 0,1.67188 0.64063,2.42969 0.64062,0.75781 1.67187,0.75781 0.82813,0 1.38281,-0.50781 0.55469,-0.50781 0.70313,-1.5625 z m 2.58594,3.03906 v -11.45312 h 1.40625 v 4.10937 q 0.98437,-1.14062 2.48437,-1.14062 0.92188,0 1.60156,0.36718 0.67969,0.35938 0.96875,1 0.29688,0.64063 0.29688,1.85938 v 5.25781 h -1.40625 v -5.25781 q 0,-1.05469 -0.46094,-1.53125 -0.45312,-0.48438 -1.28906,-0.48438 -0.625,0 -1.17969,0.32813 -0.54687,0.32031 -0.78125,0.875 -0.23437,0.55469 -0.23437,1.53125 v 4.53906 z m 14.57812,-2.67187 1.45313,0.17968 q -0.34375,1.27344 -1.27344,1.97657 -0.92969,0.70312 -2.375,0.70312 -1.82031,0 -2.89063,-1.11719 -1.0625,-1.125 -1.0625,-3.14843 0,-2.09375 1.07813,-3.25 1.07812,-1.15625 2.79687,-1.15625 1.66407,0 2.71875,1.13281 1.05469,1.13281 1.05469,3.1875 0,0.125 -0.008,0.375 h -6.1875 q 0.0781,1.36719 0.77344,2.09375 0.69531,0.72656 1.73437,0.72656 0.77344,0 1.32031,-0.40625 0.54688,-0.40625 0.86719,-1.29687 z m -4.61719,-2.27344 h 4.63282 q -0.0937,-1.04688 -0.53125,-1.57031 -0.67188,-0.8125 -1.74219,-0.8125 -0.96875,0 -1.63281,0.64843 -0.65625,0.64844 -0.72657,1.73438 z m 13.25,1.90625 1.38282,0.17969 q -0.22657,1.42968 -1.16407,2.24218 -0.92968,0.80469 -2.28906,0.80469 -1.70312,0 -2.74219,-1.10937 -1.03125,-1.11719 -1.03125,-3.19532 0,-1.34375 0.44532,-2.35156 0.44531,-1.00781 1.35156,-1.50781 0.91406,-0.50781 1.98437,-0.50781 1.35157,0 2.21094,0.6875 0.85938,0.67968 1.10156,1.9375 l -1.36718,0.21093 q -0.19532,-0.83593 -0.69532,-1.25781 -0.49218,-0.42187 -1.19531,-0.42187 -1.0625,0 -1.72656,0.76562 -0.66406,0.75781 -0.66406,2.40625 0,1.67188 0.64062,2.42969 0.64063,0.75781 1.67188,0.75781 0.82812,0 1.38281,-0.50781 0.55469,-0.50781 0.70312,-1.5625 z m 2.59375,3.03906 v -11.45312 h 1.40625 v 6.53125 l 3.32813,-3.375 h 1.82031 l -3.17187,3.07812 3.49218,5.21875 h -1.73437 l -2.74219,-4.24219 -0.99219,0.95313 v 3.28906 z m 8,-9.83594 v -1.61718 h 1.40625 v 1.61718 z m 0,9.83594 v -8.29687 h 1.40625 v 8.29687 z m 3.54688,0 v -8.29687 h 1.26562 v 1.17968 q 0.91407,-1.36718 2.64063,-1.36718 0.75,0 1.375,0.27343 0.63281,0.26563 0.94531,0.70313 0.3125,0.4375 0.4375,1.03906 0.0781,0.39063 0.0781,1.36719 v 5.10156 h -1.40625 v -5.04687 q 0,-0.85938 -0.16407,-1.28125 -0.16406,-0.42969 -0.58593,-0.67969 -0.41407,-0.25781 -0.97657,-0.25781 -0.89843,0 -1.55468,0.57031 -0.64844,0.57031 -0.64844,2.16406 v 4.53125 z m 8.64062,0.6875 1.36719,0.20313 q 0.0859,0.63281 0.47656,0.92187 0.52344,0.39063 1.42969,0.39063 0.97656,0 1.50781,-0.39063 0.53125,-0.39062 0.71875,-1.09375 0.10938,-0.42969 0.10157,-1.80469 -0.92188,1.08594 -2.29688,1.08594 -1.71094,0 -2.64844,-1.23437 -0.9375,-1.23438 -0.9375,-2.96094 0,-1.1875 0.42969,-2.1875 0.42969,-1.00781 1.24219,-1.55469 0.82031,-0.54687 1.92187,-0.54687 1.46875,0 2.42188,1.1875 v -1 h 1.29687 v 7.17187 q 0,1.9375 -0.39843,2.74219 -0.39063,0.8125 -1.25,1.28125 -0.85157,0.46875 -2.10157,0.46875 -1.48437,0 -2.39843,-0.67188 -0.91407,-0.66406 -0.88282,-2.00781 z m 1.16407,-4.98437 q 0,1.63281 0.64843,2.38281 0.64844,0.75 1.625,0.75 0.96875,0 1.625,-0.74219 0.65625,-0.75 0.65625,-2.34375 0,-1.52344 -0.67968,-2.29687 -0.67188,-0.77344 -1.625,-0.77344 -0.9375,0 -1.59375,0.76562 -0.65625,0.75782 -0.65625,2.25782 z m 12.77343,4.29687 v -7.20312 h -1.24218 v -1.09375 h 1.24218 v -0.88282 q 0,-0.83593 0.14844,-1.24218 0.20313,-0.54688 0.71094,-0.88282 0.51562,-0.34375 1.4375,-0.34375 0.59375,0 1.3125,0.14063 l -0.21094,1.22656 q -0.4375,-0.0781 -0.82812,-0.0781 -0.64063,0 -0.90625,0.27343 -0.26563,0.27344 -0.26563,1.02344 v 0.76563 h 1.61719 v 1.09375 h -1.61719 v 7.20312 z m 3.58594,-4.14844 q 0,-2.30468 1.28125,-3.41406 1.07031,-0.92187 2.60938,-0.92187 1.71093,0 2.79687,1.125 1.08594,1.11718 1.08594,3.09375 0,1.60156 -0.48438,2.52343 -0.47656,0.91407 -1.39843,1.42188 -0.91407,0.50781 -2,0.50781 -1.74219,0 -2.82032,-1.11719 -1.07031,-1.11718 -1.07031,-3.21875 z m 1.44531,0 q 0,1.59375 0.69532,2.39063 0.69531,0.78906 1.75,0.78906 1.04687,0 1.74218,-0.79687 0.69532,-0.79688 0.69532,-2.42969 0,-1.53906 -0.70313,-2.32813 -0.69531,-0.79687 -1.73437,-0.79687 -1.05469,0 -1.75,0.78906 -0.69532,0.78906 -0.69532,2.38281 z m 7.96094,4.14844 v -8.29687 h 1.26563 v 1.25781 q 0.48437,-0.88281 0.89062,-1.16406 0.41406,-0.28125 0.90625,-0.28125 0.71094,0 1.44531,0.45312 l -0.48437,1.30469 q -0.51563,-0.30469 -1.03125,-0.30469 -0.46094,0 -0.82813,0.28125 -0.36718,0.27344 -0.52343,0.76563 -0.23438,0.75 -0.23438,1.64062 v 4.34375 z m 15.20313,-3.03906 1.38281,0.17969 q -0.22656,1.42968 -1.16406,2.24218 -0.92969,0.80469 -2.28907,0.80469 -1.70312,0 -2.74218,-1.10937 -1.03125,-1.11719 -1.03125,-3.19532 0,-1.34375 0.44531,-2.35156 0.44531,-1.00781 1.35156,-1.50781 0.91406,-0.50781 1.98438,-0.50781 1.35156,0 2.21093,0.6875 0.85938,0.67968 1.10157,1.9375 l -1.36719,0.21093 q -0.19531,-0.83593 -0.69531,-1.25781 -0.49219,-0.42187 -1.19532,-0.42187 -1.0625,0 -1.72656,0.76562 -0.66406,0.75781 -0.66406,2.40625 0,1.67188 0.64062,2.42969 0.64063,0.75781 1.67188,0.75781 0.82812,0 1.38281,-0.50781 0.55469,-0.50781 0.70313,-1.5625 z m 2.0625,-1.10938 q 0,-2.30468 1.28125,-3.41406 1.07031,-0.92187 2.60937,-0.92187 1.71094,0 2.79688,1.125 1.08593,1.11718 1.08593,3.09375 0,1.60156 -0.48437,2.52343 -0.47656,0.91407 -1.39844,1.42188 -0.91406,0.50781 -2,0.50781 -1.74219,0 -2.82031,-1.11719 -1.07031,-1.11718 -1.07031,-3.21875 z m 1.44531,0 q 0,1.59375 0.69531,2.39063 0.69531,0.78906 1.75,0.78906 1.04688,0 1.74219,-0.79687 0.69531,-0.79688 0.69531,-2.42969 0,-1.53906 -0.70312,-2.32813 -0.69532,-0.79687 -1.73438,-0.79687 -1.05469,0 -1.75,0.78906 -0.69531,0.78906 -0.69531,2.38281 z m 7.97656,4.14844 v -8.29687 h 1.26563 v 1.17968 q 0.91406,-1.36718 2.64062,-1.36718 0.75,0 1.375,0.27343 0.63281,0.26563 0.94531,0.70313 0.3125,0.4375 0.4375,1.03906 0.0781,0.39063 0.0781,1.36719 v 5.10156 h -1.40625 v -5.04687 q 0,-0.85938 -0.16406,-1.28125 -0.16407,-0.42969 -0.58594,-0.67969 -0.41406,-0.25781 -0.97656,-0.25781 -0.89844,0 -1.55469,0.57031 -0.64844,0.57031 -0.64844,2.16406 v 4.53125 z m 8.33594,-2.47656 1.39062,-0.21875 q 0.11719,0.83594 0.64844,1.28125 0.53906,0.44531 1.5,0.44531 0.96875,0 1.4375,-0.39062 0.46875,-0.39844 0.46875,-0.92969 0,-0.47656 -0.41406,-0.75 -0.28906,-0.1875 -1.4375,-0.47656 -1.54688,-0.39063 -2.14844,-0.67188 -0.59375,-0.28906 -0.90625,-0.78906 -0.30469,-0.50781 -0.30469,-1.11719 0,-0.55469 0.25,-1.02344 0.25782,-0.47656 0.69532,-0.78906 0.32812,-0.24219 0.89062,-0.40625 0.57031,-0.17187 1.21875,-0.17187 0.97656,0 1.71094,0.28125 0.74219,0.28125 1.09375,0.76562 0.35156,0.47656 0.48437,1.28125 l -1.375,0.1875 q -0.0937,-0.64062 -0.54687,-1 -0.44531,-0.35937 -1.26563,-0.35937 -0.96875,0 -1.38281,0.32031 -0.41406,0.32031 -0.41406,0.75 0,0.27344 0.17187,0.49219 0.17188,0.22656 0.53907,0.375 0.21093,0.0781 1.24218,0.35937 1.49219,0.39844 2.07813,0.65625 0.59375,0.25 0.92969,0.73438 0.33593,0.48437 0.33593,1.20312 0,0.70313 -0.41406,1.32813 -0.40625,0.61718 -1.17969,0.96093 -0.77343,0.33594 -1.75,0.33594 -1.61718,0 -2.46875,-0.67187 -0.84375,-0.67188 -1.07812,-1.99219 z m 14.24219,-0.19531 1.45312,0.17968 q -0.34375,1.27344 -1.27344,1.97657 -0.92968,0.70312 -2.375,0.70312 -1.82031,0 -2.89062,-1.11719 -1.0625,-1.125 -1.0625,-3.14843 0,-2.09375 1.07812,-3.25 1.07813,-1.15625 2.79688,-1.15625 1.66406,0 2.71875,1.13281 1.05469,1.13281 1.05469,3.1875 0,0.125 -0.008,0.375 h -6.1875 q 0.0781,1.36719 0.77344,2.09375 0.69531,0.72656 1.73438,0.72656 0.77343,0 1.32031,-0.40625 0.54687,-0.40625 0.86719,-1.29687 z m -4.61719,-2.27344 h 4.63281 q -0.0937,-1.04688 -0.53125,-1.57031 -0.67187,-0.8125 -1.74219,-0.8125 -0.96875,0 -1.63281,0.64843 -0.65625,0.64844 -0.72656,1.73438 z m 13.25,1.90625 1.38281,0.17969 q -0.22656,1.42968 -1.16406,2.24218 -0.92969,0.80469 -2.28906,0.80469 -1.70313,0 -2.74219,-1.10937 -1.03125,-1.11719 -1.03125,-3.19532 0,-1.34375 0.44531,-2.35156 0.44531,-1.00781 1.35156,-1.50781 0.91407,-0.50781 1.98438,-0.50781 1.35156,0 2.21094,0.6875 0.85937,0.67968 1.10156,1.9375 l -1.36719,0.21093 q -0.19531,-0.83593 -0.69531,-1.25781 -0.49219,-0.42187 -1.19531,-0.42187 -1.0625,0 -1.72657,0.76562 -0.66406,0.75781 -0.66406,2.40625 0,1.67188 0.64063,2.42969 0.64062,0.75781 1.67187,0.75781 0.82813,0 1.38281,-0.50781 0.55469,-0.50781 0.70313,-1.5625 z m 8.02344,3.03906 v -1.21875 q -0.96875,1.40625 -2.63282,1.40625 -0.73437,0 -1.375,-0.28125 -0.63281,-0.28125 -0.94531,-0.70312 -0.30469,-0.42969 -0.42969,-1.04688 -0.0859,-0.41406 -0.0859,-1.3125 v -5.14062 h 1.40625 v 4.60156 q 0,1.10156 0.0859,1.48437 0.13282,0.55469 0.5625,0.875 0.42969,0.3125 1.0625,0.3125 0.63282,0 1.1875,-0.32031 0.55469,-0.32812 0.78125,-0.88281 0.23438,-0.5625 0.23438,-1.625 v -4.44531 h 1.40625 v 8.29687 z m 6.53125,-1.25781 0.20312,1.24219 q -0.59375,0.125 -1.0625,0.125 -0.76562,0 -1.1875,-0.24219 -0.42187,-0.24219 -0.59375,-0.63281 -0.17187,-0.39844 -0.17187,-1.66407 v -4.77343 h -1.03125 v -1.09375 h 1.03125 v -2.05469 l 1.39843,-0.84375 v 2.89844 h 1.41407 v 1.09375 h -1.41407 v 4.85156 q 0,0.60156 0.0703,0.77344 0.0781,0.17187 0.24218,0.27343 0.17188,0.10157 0.48438,0.10157 0.23437,0 0.61719,-0.0547 z m 1.38281,-8.57813 v -1.61718 h 1.40625 v 1.61718 z m 0,9.83594 v -8.29687 h 1.40625 v 8.29687 z m 5.85156,0 -3.15625,-8.29687 h 1.48438 l 1.78125,4.96875 q 0.28906,0.80468 0.53125,1.67187 0.1875,-0.65625 0.52343,-1.57812 l 1.84375,-5.0625 h 1.44532 l -3.14063,8.29687 z m 11.375,-2.67187 1.45313,0.17968 q -0.34375,1.27344 -1.27344,1.97657 -0.92969,0.70312 -2.375,0.70312 -1.82031,0 -2.89063,-1.11719 -1.0625,-1.125 -1.0625,-3.14843 0,-2.09375 1.07813,-3.25 1.07812,-1.15625 2.79687,-1.15625 1.66407,0 2.71875,1.13281 1.05469,1.13281 1.05469,3.1875 0,0.125 -0.008,0.375 h -6.1875 q 0.0781,1.36719 0.77344,2.09375 0.69531,0.72656 1.73437,0.72656 0.77344,0 1.32031,-0.40625 0.54688,-0.40625 0.86719,-1.29687 z m -4.61719,-2.27344 h 4.63282 q -0.0937,-1.04688 -0.53125,-1.57031 -0.67188,-0.8125 -1.74219,-0.8125 -0.96875,0 -1.63281,0.64843 -0.65625,0.64844 -0.72657,1.73438 z m 12.28907,-4.89063 v -1.61718 h 1.40625 v 1.61718 z m 0,9.83594 v -8.29687 h 1.40625 v 8.29687 z m 3.54687,0 v -8.29687 h 1.26563 v 1.17968 q 0.91406,-1.36718 2.64062,-1.36718 0.75,0 1.375,0.27343 0.63281,0.26563 0.94531,0.70313 0.3125,0.4375 0.4375,1.03906 0.0781,0.39063 0.0781,1.36719 v 5.10156 h -1.40625 v -5.04687 q 0,-0.85938 -0.16406,-1.28125 -0.16407,-0.42969 -0.58594,-0.67969 -0.41406,-0.25781 -0.97656,-0.25781 -0.89844,0 -1.55469,0.57031 -0.64844,0.57031 -0.64844,2.16406 v 4.53125 z m 8.33594,-2.47656 1.39062,-0.21875 q 0.11719,0.83594 0.64844,1.28125 0.53906,0.44531 1.5,0.44531 0.96875,0 1.4375,-0.39062 0.46875,-0.39844 0.46875,-0.92969 0,-0.47656 -0.41406,-0.75 -0.28906,-0.1875 -1.4375,-0.47656 -1.54688,-0.39063 -2.14844,-0.67188 -0.59375,-0.28906 -0.90625,-0.78906 -0.30469,-0.50781 -0.30469,-1.11719 0,-0.55469 0.25,-1.02344 0.25782,-0.47656 0.69532,-0.78906 0.32812,-0.24219 0.89062,-0.40625 0.57031,-0.17187 1.21875,-0.17187 0.97656,0 1.71094,0.28125 0.74219,0.28125 1.09375,0.76562 0.35156,0.47656 0.48437,1.28125 l -1.375,0.1875 q -0.0937,-0.64062 -0.54687,-1 -0.44531,-0.35937 -1.26563,-0.35937 -0.96875,0 -1.38281,0.32031 -0.41406,0.32031 -0.41406,0.75 0,0.27344 0.17187,0.49219 0.17188,0.22656 0.53907,0.375 0.21093,0.0781 1.24218,0.35937 1.49219,0.39844 2.07813,0.65625 0.59375,0.25 0.92969,0.73438 0.33593,0.48437 0.33593,1.20312 0,0.70313 -0.41406,1.32813 -0.40625,0.61718 -1.17969,0.96093 -0.77343,0.33594 -1.75,0.33594 -1.61718,0 -2.46875,-0.67187 -0.84375,-0.67188 -1.07812,-1.99219 z m 11.63281,1.21875 0.20313,1.24219 q -0.59375,0.125 -1.0625,0.125 -0.76563,0 -1.1875,-0.24219 -0.42188,-0.24219 -0.59375,-0.63281 -0.17188,-0.39844 -0.17188,-1.66407 v -4.77343 h -1.03125 v -1.09375 h 1.03125 v -2.05469 l 1.39844,-0.84375 v 2.89844 h 1.41406 v 1.09375 h -1.41406 v 4.85156 q 0,0.60156 0.0703,0.77344 0.0781,0.17187 0.24219,0.27343 0.17187,0.10157 0.48437,0.10157 0.23438,0 0.61719,-0.0547 z m 6.78906,0.23437 q -0.78125,0.66407 -1.50781,0.9375 -0.71875,0.27344 -1.54687,0.27344 -1.36719,0 -2.10157,-0.66406 -0.73437,-0.67188 -0.73437,-1.71094 0,-0.60937 0.27344,-1.10937 0.28125,-0.50782 0.72656,-0.8125 0.45312,-0.30469 1.01562,-0.46094 0.41407,-0.10938 1.25,-0.21094 1.70313,-0.20312 2.50782,-0.48437 0.008,-0.28907 0.008,-0.36719 0,-0.85938 -0.39844,-1.21094 -0.53906,-0.47656 -1.60156,-0.47656 -0.99219,0 -1.46875,0.35156 -0.46875,0.34375 -0.69531,1.22656 l -1.375,-0.1875 q 0.1875,-0.88281 0.61718,-1.42187 0.42969,-0.54688 1.24219,-0.83594 0.8125,-0.29687 1.88281,-0.29687 1.0625,0 1.72657,0.25 0.66406,0.25 0.97656,0.63281 0.3125,0.375 0.4375,0.95312 0.0703,0.35938 0.0703,1.29688 v 1.875 q 0,1.96094 0.0859,2.48437 0.0937,0.51563 0.35937,0.99219 h -1.46875 q -0.21875,-0.4375 -0.28125,-1.02344 z m -0.11718,-3.14062 q -0.76563,0.3125 -2.29688,0.53125 -0.86719,0.125 -1.22656,0.28125 -0.35938,0.15625 -0.55469,0.46094 -0.19531,0.29687 -0.19531,0.66406 0,0.5625 0.42187,0.9375 0.42969,0.375 1.25,0.375 0.8125,0 1.44532,-0.35156 0.63281,-0.35938 0.92968,-0.97657 0.22657,-0.47656 0.22657,-1.40625 z m 3.60156,4.16406 v -8.29687 h 1.26562 v 1.17968 q 0.91407,-1.36718 2.64063,-1.36718 0.75,0 1.375,0.27343 0.63281,0.26563 0.94531,0.70313 0.3125,0.4375 0.4375,1.03906 0.0781,0.39063 0.0781,1.36719 v 5.10156 h -1.40625 v -5.04687 q 0,-0.85938 -0.16407,-1.28125 -0.16406,-0.42969 -0.58593,-0.67969 -0.41407,-0.25781 -0.97657,-0.25781 -0.89843,0 -1.55468,0.57031 -0.64844,0.57031 -0.64844,2.16406 v 4.53125 z m 14.3125,-3.03906 1.38281,0.17969 q -0.22656,1.42968 -1.16406,2.24218 -0.92969,0.80469 -2.28906,0.80469 -1.70313,0 -2.74219,-1.10937 -1.03125,-1.11719 -1.03125,-3.19532 0,-1.34375 0.44531,-2.35156 0.44531,-1.00781 1.35156,-1.50781 0.91407,-0.50781 1.98438,-0.50781 1.35156,0 2.21094,0.6875 0.85937,0.67968 1.10156,1.9375 l -1.36719,0.21093 q -0.19531,-0.83593 -0.69531,-1.25781 -0.49219,-0.42187 -1.19531,-0.42187 -1.0625,0 -1.72657,0.76562 -0.66406,0.75781 -0.66406,2.40625 0,1.67188 0.64063,2.42969 0.64062,0.75781 1.67187,0.75781 0.82813,0 1.38281,-0.50781 0.55469,-0.50781 0.70313,-1.5625 z m 8.26562,0.36719 1.45313,0.17968 q -0.34375,1.27344 -1.27344,1.97657 -0.92969,0.70312 -2.375,0.70312 -1.82031,0 -2.89062,-1.11719 -1.0625,-1.125 -1.0625,-3.14843 0,-2.09375 1.07812,-3.25 1.07813,-1.15625 2.79688,-1.15625 1.66406,0 2.71875,1.13281 1.05468,1.13281 1.05468,3.1875 0,0.125 -0.008,0.375 h -6.1875 q 0.0781,1.36719 0.77344,2.09375 0.69531,0.72656 1.73437,0.72656 0.77344,0 1.32032,-0.40625 0.54687,-0.40625 0.86718,-1.29687 z m -4.61718,-2.27344 h 4.63281 q -0.0937,-1.04688 -0.53125,-1.57031 -0.67188,-0.8125 -1.74219,-0.8125 -0.96875,0 -1.63281,0.64843 -0.65625,0.64844 -0.72656,1.73438 z m 7.27343,2.46875 1.39063,-0.21875 q 0.11719,0.83594 0.64844,1.28125 0.53906,0.44531 1.5,0.44531 0.96875,0 1.4375,-0.39062 0.46875,-0.39844 0.46875,-0.92969 0,-0.47656 -0.41407,-0.75 -0.28906,-0.1875 -1.4375,-0.47656 -1.54687,-0.39063 -2.14843,-0.67188 -0.59375,-0.28906 -0.90625,-0.78906 -0.30469,-0.50781 -0.30469,-1.11719 0,-0.55469 0.25,-1.02344 0.25781,-0.47656 0.69531,-0.78906 0.32813,-0.24219 0.89063,-0.40625 0.57031,-0.17187 1.21875,-0.17187 0.97656,0 1.71093,0.28125 0.74219,0.28125 1.09375,0.76562 0.35157,0.47656 0.48438,1.28125 l -1.375,0.1875 q -0.0937,-0.64062 -0.54688,-1 -0.44531,-0.35937 -1.26562,-0.35937 -0.96875,0 -1.38281,0.32031 -0.41407,0.32031 -0.41407,0.75 0,0.27344 0.17188,0.49219 0.17187,0.22656 0.53906,0.375 0.21094,0.0781 1.24219,0.35937 1.49219,0.39844 2.07812,0.65625 0.59375,0.25 0.92969,0.73438 0.33594,0.48437 0.33594,1.20312 0,0.70313 -0.41406,1.32813 -0.40625,0.61718 -1.17969,0.96093 -0.77344,0.33594 -1.75,0.33594 -1.61719,0 -2.46875,-0.67187 -0.84375,-0.67188 -1.07813,-1.99219 z m 14.53907,2.47656 -2.53907,-8.29687 h 1.45313 l 1.32031,4.78906 0.49219,1.78125 q 0.0312,-0.13281 0.42969,-1.71094 l 1.32031,-4.85937 h 1.44531 l 1.24219,4.8125 0.41406,1.58593 0.47656,-1.60156 1.42188,-4.79687 h 1.36719 l -2.59375,8.29687 h -1.46094 l -1.32031,-4.96875 -0.32032,-1.41406 -1.67968,6.38281 z m 10.02343,0 v -11.45312 h 1.40625 v 4.10937 q 0.98438,-1.14062 2.48438,-1.14062 0.92187,0 1.60156,0.36718 0.67969,0.35938 0.96875,1 0.29688,0.64063 0.29688,1.85938 v 5.25781 h -1.40625 v -5.25781 q 0,-1.05469 -0.46094,-1.53125 -0.45313,-0.48438 -1.28906,-0.48438 -0.625,0 -1.17969,0.32813 -0.54688,0.32031 -0.78125,0.875 -0.23438,0.55469 -0.23438,1.53125 v 4.53906 z m 14.57813,-2.67187 1.45312,0.17968 q -0.34375,1.27344 -1.27343,1.97657 -0.92969,0.70312 -2.375,0.70312 -1.82032,0 -2.89063,-1.11719 -1.0625,-1.125 -1.0625,-3.14843 0,-2.09375 1.07813,-3.25 1.07812,-1.15625 2.79687,-1.15625 1.66406,0 2.71875,1.13281 1.05469,1.13281 1.05469,3.1875 0,0.125 -0.008,0.375 h -6.1875 q 0.0781,1.36719 0.77343,2.09375 0.69532,0.72656 1.73438,0.72656 0.77344,0 1.32031,-0.40625 0.54688,-0.40625 0.86719,-1.29687 z m -4.61719,-2.27344 h 4.63281 q -0.0937,-1.04688 -0.53125,-1.57031 -0.67187,-0.8125 -1.74218,-0.8125 -0.96875,0 -1.63282,0.64843 -0.65625,0.64844 -0.72656,1.73438 z m 7.83594,4.94531 v -8.29687 h 1.26562 v 1.17968 q 0.91407,-1.36718 2.64063,-1.36718 0.75,0 1.375,0.27343 0.63281,0.26563 0.94531,0.70313 0.3125,0.4375 0.4375,1.03906 0.0781,0.39063 0.0781,1.36719 v 5.10156 h -1.40625 v -5.04687 q 0,-0.85938 -0.16407,-1.28125 -0.16406,-0.42969 -0.58593,-0.67969 -0.41407,-0.25781 -0.97657,-0.25781 -0.89843,0 -1.55468,0.57031 -0.64844,0.57031 -0.64844,2.16406 v 4.53125 z m 14.64062,0 h -1.30468 v -11.45312 h 1.40625 v 4.08593 q 0.89062,-1.11718 2.27343,-1.11718 0.76563,0 1.44532,0.3125 0.6875,0.30468 1.125,0.86718 0.44531,0.55469 0.69531,1.34375 0.25,0.78907 0.25,1.6875 0,2.13282 -1.05469,3.29688 -1.05469,1.16406 -2.53125,1.16406 -1.46875,0 -2.30469,-1.22656 z m -0.0156,-4.21094 q 0,1.49219 0.40625,2.15625 0.66406,1.08594 1.79687,1.08594 0.92188,0 1.59375,-0.79687 0.67188,-0.80469 0.67188,-2.39063 0,-1.625 -0.64844,-2.39844 -0.64062,-0.77343 -1.55469,-0.77343 -0.92187,0 -1.59375,0.80468 -0.67187,0.79688 -0.67187,2.3125 z m 13.05469,4.21094 v -1.21875 q -0.96875,1.40625 -2.63282,1.40625 -0.73437,0 -1.375,-0.28125 -0.63281,-0.28125 -0.94531,-0.70312 -0.30469,-0.42969 -0.42969,-1.04688 -0.0859,-0.41406 -0.0859,-1.3125 v -5.14062 h 1.40625 v 4.60156 q 0,1.10156 0.0859,1.48437 0.13282,0.55469 0.5625,0.875 0.42969,0.3125 1.0625,0.3125 0.63282,0 1.1875,-0.32031 0.55469,-0.32812 0.78125,-0.88281 0.23438,-0.5625 0.23438,-1.625 v -4.44531 h 1.40625 v 8.29687 z m 3.46875,-9.83594 v -1.61718 h 1.40625 v 1.61718 z m 0,9.83594 v -8.29687 h 1.40625 v 8.29687 z m 3.51562,0 v -11.45312 h 1.40625 v 11.45312 z m 8.96875,0 v -1.04687 q -0.78906,1.23437 -2.32031,1.23437 -0.99219,0 -1.82813,-0.54687 -0.82812,-0.54688 -1.28906,-1.52344 -0.45312,-0.98438 -0.45312,-2.25781 0,-1.24219 0.41406,-2.25 0.41406,-1.01563 1.24219,-1.55469 0.82812,-0.53906 1.85156,-0.53906 0.75,0 1.33594,0.32031 0.58593,0.3125 0.95312,0.82031 v -4.10937 h 1.39844 v 11.45312 z m -4.44531,-4.14062 q 0,1.59375 0.67187,2.38281 0.67188,0.78906 1.58594,0.78906 0.92188,0 1.5625,-0.75 0.64844,-0.75781 0.64844,-2.30469 0,-1.70312 -0.65625,-2.5 -0.65625,-0.79687 -1.61719,-0.79687 -0.9375,0 -1.57031,0.76562 -0.625,0.76563 -0.625,2.41407 z m 7.96875,-5.69532 v -1.61718 h 1.40625 v 1.61718 z m 0,9.83594 v -8.29687 h 1.40625 v 8.29687 z m 3.54687,0 v -8.29687 h 1.26563 v 1.17968 q 0.91406,-1.36718 2.64062,-1.36718 0.75,0 1.375,0.27343 0.63282,0.26563 0.94532,0.70313 0.3125,0.4375 0.4375,1.03906 0.0781,0.39063 0.0781,1.36719 v 5.10156 h -1.40625 v -5.04687 q 0,-0.85938 -0.16406,-1.28125 -0.16406,-0.42969 -0.58594,-0.67969 -0.41406,-0.25781 -0.97656,-0.25781 -0.89844,0 -1.55469,0.57031 -0.64844,0.57031 -0.64844,2.16406 v 4.53125 z m 8.64063,0.6875 1.36719,0.20313 q 0.0859,0.63281 0.47656,0.92187 0.52344,0.39063 1.42969,0.39063 0.97656,0 1.50781,-0.39063 0.53125,-0.39062 0.71875,-1.09375 0.10937,-0.42969 0.10156,-1.80469 -0.92187,1.08594 -2.29687,1.08594 -1.71094,0 -2.64844,-1.23437 -0.9375,-1.23438 -0.9375,-2.96094 0,-1.1875 0.42969,-2.1875 0.42968,-1.00781 1.24218,-1.55469 0.82032,-0.54687 1.92188,-0.54687 1.46875,0 2.42187,1.1875 v -1 h 1.29688 v 7.17187 q 0,1.9375 -0.39844,2.74219 -0.39062,0.8125 -1.25,1.28125 -0.85156,0.46875 -2.10156,0.46875 -1.48438,0 -2.39844,-0.67188 -0.91406,-0.66406 -0.88281,-2.00781 z m 1.16406,-4.98437 q 0,1.63281 0.64844,2.38281 0.64844,0.75 1.625,0.75 0.96875,0 1.625,-0.74219 0.65625,-0.75 0.65625,-2.34375 0,-1.52344 -0.67969,-2.29687 -0.67187,-0.77344 -1.625,-0.77344 -0.9375,0 -1.59375,0.76562 -0.65625,0.75782 -0.65625,2.25782 z m 17.85156,1.25781 1.38282,0.17969 q -0.22657,1.42968 -1.16407,2.24218 -0.92968,0.80469 -2.28906,0.80469 -1.70312,0 -2.74219,-1.10937 -1.03125,-1.11719 -1.03125,-3.19532 0,-1.34375 0.44532,-2.35156 0.44531,-1.00781 1.35156,-1.50781 0.91406,-0.50781 1.98437,-0.50781 1.35157,0 2.21094,0.6875 0.85938,0.67968 1.10156,1.9375 l -1.36718,0.21093 q -0.19532,-0.83593 -0.69532,-1.25781 -0.49218,-0.42187 -1.19531,-0.42187 -1.0625,0 -1.72656,0.76562 -0.66406,0.75781 -0.66406,2.40625 0,1.67188 0.64062,2.42969 0.64063,0.75781 1.67188,0.75781 0.82812,0 1.38281,-0.50781 0.55469,-0.50781 0.70312,-1.5625 z m 2.0625,-1.10938 q 0,-2.30468 1.28125,-3.41406 1.07032,-0.92187 2.60938,-0.92187 1.71094,0 2.79687,1.125 1.08594,1.11718 1.08594,3.09375 0,1.60156 -0.48437,2.52343 -0.47657,0.91407 -1.39844,1.42188 -0.91406,0.50781 -2,0.50781 -1.74219,0 -2.82031,-1.11719 -1.07032,-1.11718 -1.07032,-3.21875 z m 1.44532,0 q 0,1.59375 0.69531,2.39063 0.69531,0.78906 1.75,0.78906 1.04687,0 1.74219,-0.79687 0.69531,-0.79688 0.69531,-2.42969 0,-1.53906 -0.70313,-2.32813 -0.69531,-0.79687 -1.73437,-0.79687 -1.05469,0 -1.75,0.78906 -0.69531,0.78906 -0.69531,2.38281 z m 7.97656,4.14844 v -8.29687 h 1.26562 v 1.17968 q 0.91407,-1.36718 2.64063,-1.36718 0.75,0 1.375,0.27343 0.63281,0.26563 0.94531,0.70313 0.3125,0.4375 0.4375,1.03906 0.0781,0.39063 0.0781,1.36719 v 5.10156 h -1.40625 v -5.04687 q 0,-0.85938 -0.16407,-1.28125 -0.16406,-0.42969 -0.58593,-0.67969 -0.41407,-0.25781 -0.97657,-0.25781 -0.89843,0 -1.55468,0.57031 -0.64844,0.57031 -0.64844,2.16406 v 4.53125 z m 8.33594,-2.47656 1.39062,-0.21875 q 0.11719,0.83594 0.64844,1.28125 0.53906,0.44531 1.5,0.44531 0.96875,0 1.4375,-0.39062 0.46875,-0.39844 0.46875,-0.92969 0,-0.47656 -0.41406,-0.75 -0.28907,-0.1875 -1.4375,-0.47656 -1.54688,-0.39063 -2.14844,-0.67188 -0.59375,-0.28906 -0.90625,-0.78906 -0.30469,-0.50781 -0.30469,-1.11719 0,-0.55469 0.25,-1.02344 0.25781,-0.47656 0.69531,-0.78906 0.32813,-0.24219 0.89063,-0.40625 0.57031,-0.17187 1.21875,-0.17187 0.97656,0 1.71094,0.28125 0.74218,0.28125 1.09375,0.76562 0.35156,0.47656 0.48437,1.28125 l -1.375,0.1875 q -0.0937,-0.64062 -0.54687,-1 -0.44532,-0.35937 -1.26563,-0.35937 -0.96875,0 -1.38281,0.32031 -0.41406,0.32031 -0.41406,0.75 0,0.27344 0.17187,0.49219 0.17188,0.22656 0.53906,0.375 0.21094,0.0781 1.24219,0.35937 1.49219,0.39844 2.07813,0.65625 0.59375,0.25 0.92968,0.73438 0.33594,0.48437 0.33594,1.20312 0,0.70313 -0.41406,1.32813 -0.40625,0.61718 -1.17969,0.96093 -0.77344,0.33594 -1.75,0.33594 -1.61719,0 -2.46875,-0.67187 -0.84375,-0.67188 -1.07812,-1.99219 z m 11.63281,1.21875 0.20312,1.24219 q -0.59375,0.125 -1.0625,0.125 -0.76562,0 -1.1875,-0.24219 -0.42187,-0.24219 -0.59375,-0.63281 -0.17187,-0.39844 -0.17187,-1.66407 v -4.77343 h -1.03125 v -1.09375 h 1.03125 v -2.05469 l 1.39844,-0.84375 v 2.89844 h 1.41406 v 1.09375 h -1.41406 v 4.85156 q 0,0.60156 0.0703,0.77344 0.0781,0.17187 0.24219,0.27343 0.17187,0.10157 0.48437,0.10157 0.23438,0 0.61719,-0.0547 z m 1.35937,1.25781 v -8.29687 h 1.26563 v 1.25781 q 0.48437,-0.88281 0.89062,-1.16406 0.41407,-0.28125 0.90625,-0.28125 0.71094,0 1.44532,0.45312 l -0.48438,1.30469 q -0.51562,-0.30469 -1.03125,-0.30469 -0.46094,0 -0.82812,0.28125 -0.36719,0.27344 -0.52344,0.76563 -0.23438,0.75 -0.23438,1.64062 v 4.34375 z m 10.75782,-1.02344 q -0.78125,0.66407 -1.50782,0.9375 -0.71875,0.27344 -1.54687,0.27344 -1.36719,0 -2.10156,-0.66406 -0.73438,-0.67188 -0.73438,-1.71094 0,-0.60937 0.27344,-1.10937 0.28125,-0.50782 0.72656,-0.8125 0.45313,-0.30469 1.01563,-0.46094 0.41406,-0.10938 1.25,-0.21094 1.70312,-0.20312 2.50781,-0.48437 0.008,-0.28907 0.008,-0.36719 0,-0.85938 -0.39844,-1.21094 -0.53906,-0.47656 -1.60156,-0.47656 -0.99219,0 -1.46875,0.35156 -0.46875,0.34375 -0.69531,1.22656 l -1.375,-0.1875 q 0.1875,-0.88281 0.61719,-1.42187 0.42968,-0.54688 1.24218,-0.83594 0.8125,-0.29687 1.88282,-0.29687 1.0625,0 1.72656,0.25 0.66406,0.25 0.97656,0.63281 0.3125,0.375 0.4375,0.95312 0.0703,0.35938 0.0703,1.29688 v 1.875 q 0,1.96094 0.0859,2.48437 0.0937,0.51563 0.35938,0.99219 h -1.46875 q -0.21875,-0.4375 -0.28125,-1.02344 z m -0.11719,-3.14062 q -0.76563,0.3125 -2.29688,0.53125 -0.86718,0.125 -1.22656,0.28125 -0.35937,0.15625 -0.55469,0.46094 -0.19531,0.29687 -0.19531,0.66406 0,0.5625 0.42188,0.9375 0.42968,0.375 1.25,0.375 0.8125,0 1.44531,-0.35156 0.63281,-0.35938 0.92969,-0.97657 0.22656,-0.47656 0.22656,-1.40625 z m 3.60937,-5.67188 v -1.61718 h 1.40625 v 1.61718 z m 0,9.83594 v -8.29687 h 1.40625 v 8.29687 z m 3.54688,0 v -8.29687 h 1.26562 v 1.17968 q 0.91407,-1.36718 2.64063,-1.36718 0.75,0 1.375,0.27343 0.63281,0.26563 0.94531,0.70313 0.3125,0.4375 0.4375,1.03906 0.0781,0.39063 0.0781,1.36719 v 5.10156 h -1.40625 v -5.04687 q 0,-0.85938 -0.16407,-1.28125 -0.16406,-0.42969 -0.58593,-0.67969 -0.41407,-0.25781 -0.97657,-0.25781 -0.89843,0 -1.55468,0.57031 -0.64844,0.57031 -0.64844,2.16406 v 4.53125 z m 11.96875,-1.25781 0.20312,1.24219 q -0.59375,0.125 -1.0625,0.125 -0.76562,0 -1.1875,-0.24219 -0.42187,-0.24219 -0.59375,-0.63281 -0.17187,-0.39844 -0.17187,-1.66407 v -4.77343 h -1.03125 v -1.09375 h 1.03125 v -2.05469 l 1.39844,-0.84375 v 2.89844 h 1.41406 v 1.09375 h -1.41406 v 4.85156 q 0,0.60156 0.0703,0.77344 0.0781,0.17187 0.24219,0.27343 0.17187,0.10157 0.48437,0.10157 0.23438,0 0.61719,-0.0547 z m 0.8125,-1.21875 1.39062,-0.21875 q 0.11719,0.83594 0.64844,1.28125 0.53906,0.44531 1.5,0.44531 0.96875,0 1.4375,-0.39062 0.46875,-0.39844 0.46875,-0.92969 0,-0.47656 -0.41406,-0.75 -0.28906,-0.1875 -1.4375,-0.47656 -1.54688,-0.39063 -2.14844,-0.67188 -0.59375,-0.28906 -0.90625,-0.78906 -0.30469,-0.50781 -0.30469,-1.11719 0,-0.55469 0.25,-1.02344 0.25782,-0.47656 0.69532,-0.78906 0.32812,-0.24219 0.89062,-0.40625 0.57031,-0.17187 1.21875,-0.17187 0.97656,0 1.71094,0.28125 0.74219,0.28125 1.09375,0.76562 0.35156,0.47656 0.48437,1.28125 l -1.375,0.1875 q -0.0937,-0.64062 -0.54687,-1 -0.44531,-0.35937 -1.26563,-0.35937 -0.96875,0 -1.38281,0.32031 -0.41406,0.32031 -0.41406,0.75 0,0.27344 0.17187,0.49219 0.17188,0.22656 0.53907,0.375 0.21093,0.0781 1.24218,0.35937 1.49219,0.39844 2.07813,0.65625 0.59375,0.25 0.92969,0.73438 0.33593,0.48437 0.33593,1.20312 0,0.70313 -0.41406,1.32813 -0.40625,0.61718 -1.17969,0.96093 -0.77343,0.33594 -1.75,0.33594 -1.61718,0 -2.46875,-0.67187 -0.84375,-0.67188 -1.07812,-1.99219 z m 8.96094,2.47656 v -1.60156 h 1.60156 v 1.60156 z"
     id="flowRoot4302-6"
     transform="translate(-19.999997,-69.90034)"
     aria-label="Create a SequenceChain which allows checking for consecutive instances when building constraints." />
  <path
     d="m 70.5016,220.92691 3.536455,0.89322 q -1.111978,4.35677 -4.010413,6.65364 -2.880206,2.27865 -7.054682,2.27865 -4.320309,0 -7.036452,-1.75 -2.697914,-1.76823 -4.119788,-5.10416 -1.403645,-3.33594 -1.403645,-7.16406 0,-4.17447 1.585936,-7.27343 1.604166,-3.11718 4.539059,-4.72135 2.953122,-1.62239 6.489578,-1.62239 4.010413,0 6.744786,2.04166 2.734372,2.04167 3.809892,5.74218 l -3.481768,0.82031 q -0.929686,-2.91666 -2.697914,-4.24739 -1.768228,-1.33073 -4.447913,-1.33073 -3.080726,0 -5.15885,1.47657 -2.059894,1.47656 -2.898435,3.97395 -0.838541,2.47917 -0.838541,5.12239 0,3.40885 0.984375,5.96093 1.002603,2.53386 3.098955,3.79167 2.096353,1.25781 4.539059,1.25781 2.971351,0 5.031246,-1.71354 2.059894,-1.71354 2.78906,-5.08593 z m 6.252599,-0.3099 q 0,-5.3776 2.98958,-7.96614 2.497394,-2.15104 6.088537,-2.15104 3.992184,0 6.526036,2.625 2.533852,2.60677 2.533852,7.21874 0,3.73698 -1.130207,5.88802 -1.111979,2.13281 -3.263018,3.3177 -2.132811,1.1849 -4.666663,1.1849 -4.065101,0 -6.580724,-2.60677 -2.497393,-2.60677 -2.497393,-7.51041 z m 3.372393,0 q 0,3.71875 1.622394,5.57812 1.622394,1.84114 4.08333,1.84114 2.442706,0 4.065101,-1.85937 1.622394,-1.85937 1.622394,-5.66926 0,-3.59115 -1.640624,-5.43229 -1.622394,-1.85937 -4.046871,-1.85937 -2.460936,0 -4.08333,1.84114 -1.622394,1.84114 -1.622394,5.55989 z m 18.61196,9.67968 v -19.35936 h 2.953118 v 2.7526 q 2.13282,-3.1901 6.16146,-3.1901 1.75,0 3.20833,0.63802 1.47656,0.61979 2.20573,1.64063 0.72916,1.02083 1.02083,2.42447 0.18229,0.91146 0.18229,3.1901 v 11.90364 h -3.28125 v -11.77603 q 0,-2.00521 -0.38281,-2.98958 -0.38281,-1.00261 -1.36719,-1.58594 -0.96614,-0.60156 -2.27864,-0.60156 -2.09635,0 -3.6276,1.33073 -1.51302,1.33073 -1.51302,5.04947 v 10.57291 z m 19.450508,-5.77864 3.24479,-0.51042 q 0.27344,1.95052 1.51302,2.98958 1.25781,1.03906 3.5,1.03906 2.26041,0 3.35416,-0.91145 1.09375,-0.92969 1.09375,-2.16927 0,-1.11198 -0.96615,-1.75 -0.67447,-0.4375 -3.35416,-1.11198 -3.60937,-0.91146 -5.01302,-1.56771 -1.38541,-0.67447 -2.11458,-1.84114 -0.71093,-1.18489 -0.71093,-2.60677 0,-1.29427 0.58333,-2.38802 0.60156,-1.11198 1.62239,-1.84114 0.76563,-0.5651 2.07813,-0.94792 1.33072,-0.40104 2.84374,-0.40104 2.27865,0 3.99219,0.65625 1.73177,0.65625 2.55208,1.78646 0.82031,1.11198 1.13021,2.98958 l -3.20833,0.4375 q -0.21875,-1.49479 -1.27604,-2.33333 -1.03907,-0.83854 -2.95313,-0.83854 -2.26041,0 -3.22656,0.74739 -0.96614,0.7474 -0.96614,1.75 0,0.63802 0.40104,1.14844 0.40104,0.52864 1.25781,0.875 0.49219,0.18229 2.89844,0.83854 3.48176,0.92968 4.84895,1.53125 1.38542,0.58333 2.16927,1.71354 0.78385,1.1302 0.78385,2.80728 0,1.64063 -0.96614,3.09896 -0.94792,1.4401 -2.7526,2.24219 -1.80469,0.78385 -4.08333,0.78385 -3.77344,0 -5.76042,-1.56771 -1.96874,-1.5677 -2.51562,-4.64843 z m 27.14321,2.84375 0.47395,2.89843 q -1.38541,0.29167 -2.47916,0.29167 -1.78646,0 -2.77083,-0.56511 -0.98438,-0.5651 -1.38542,-1.47656 -0.40104,-0.92968 -0.40104,-3.88281 v -11.13801 h -2.40625 v -2.55208 h 2.40625 v -4.79427 l 3.26302,-1.96874 v 6.76301 h 3.29948 v 2.55208 h -3.29948 v 11.32031 q 0,1.40364 0.16406,1.80468 0.18229,0.40104 0.56511,0.63802 0.40104,0.23698 1.1302,0.23698 0.54688,0 1.44011,-0.1276 z m 3.17186,2.93489 v -19.35936 h 2.95313 v 2.93489 q 1.1302,-2.05989 2.07812,-2.71614 0.96614,-0.65625 2.11458,-0.65625 1.65885,0 3.37239,1.05729 l -1.1302,3.04427 q -1.20313,-0.71094 -2.40625,-0.71094 -1.07552,0 -1.93229,0.65625 -0.85677,0.63802 -1.22135,1.78646 -0.54688,1.75 -0.54688,3.82812 v 10.13541 z m 25.10155,-2.38802 q -1.82292,1.54948 -3.51823,2.1875 -1.67708,0.63802 -3.60937,0.63802 -3.1901,0 -4.90364,-1.54948 -1.71354,-1.56771 -1.71354,-3.99218 0,-1.42188 0.63802,-2.58854 0.65625,-1.1849 1.69531,-1.89583 1.05729,-0.71094 2.36979,-1.07552 0.96614,-0.25521 2.91666,-0.49219 3.97396,-0.47396 5.85156,-1.13021 0.0182,-0.67448 0.0182,-0.85677 0,-2.0052 -0.92969,-2.82552 -1.25781,-1.11197 -3.73698,-1.11197 -2.3151,0 -3.42708,0.82031 -1.09374,0.80208 -1.62239,2.86197 l -3.20833,-0.4375 q 0.4375,-2.05989 1.4401,-3.3177 1.00261,-1.27604 2.89844,-1.95052 1.89583,-0.69271 4.39322,-0.69271 2.47917,0 4.02865,0.58333 1.54947,0.58334 2.27864,1.47657 0.72917,0.87499 1.02083,2.22395 0.16406,0.83854 0.16406,3.02604 v 4.375 q 0,4.57551 0.20052,5.79687 0.21875,1.20312 0.83855,2.3151 h -3.42709 q -0.51041,-1.02083 -0.65624,-2.38802 z m -0.27344,-7.32812 q -1.78646,0.72917 -5.35937,1.23958 -2.02344,0.29167 -2.86198,0.65625 -0.83854,0.36459 -1.29427,1.07552 -0.45573,0.69271 -0.45573,1.54948 0,1.3125 0.98438,2.1875 1.0026,0.875 2.91666,0.875 1.89583,0 3.37239,-0.82031 1.47657,-0.83854 2.16927,-2.27865 0.52865,-1.11197 0.52865,-3.28124 z m 8.42186,-13.23436 v -3.77344 h 3.28125 v 3.77344 z m 0,22.9505 v -19.35936 h 3.28125 v 19.35936 z m 8.27604,0 v -19.35936 h 2.95312 v 2.7526 q 2.13281,-3.1901 6.16146,-3.1901 1.74999,0 3.20833,0.63802 1.47656,0.61979 2.20572,1.64063 0.72917,1.02083 1.02084,2.42447 0.18229,0.91146 0.18229,3.1901 v 11.90364 h -3.28125 v -11.77603 q 0,-2.00521 -0.38281,-2.98958 -0.38281,-1.00261 -1.36719,-1.58594 -0.96614,-0.60156 -2.27864,-0.60156 -2.09635,0 -3.6276,1.33073 -1.51302,1.33073 -1.51302,5.04947 v 10.57291 z m 27.92706,-2.93489 0.47395,2.89843 q -1.38541,0.29167 -2.47916,0.29167 -1.78646,0 -2.77083,-0.56511 -0.98437,-0.5651 -1.38542,-1.47656 -0.40104,-0.92968 -0.40104,-3.88281 v -11.13801 h -2.40625 v -2.55208 h 2.40625 v -4.79427 l 3.26302,-1.96874 v 6.76301 h 3.29948 v 2.55208 h -3.29948 v 11.32031 q 0,1.40364 0.16406,1.80468 0.18229,0.40104 0.56511,0.63802 0.40104,0.23698 1.1302,0.23698 0.54688,0 1.44011,-0.1276 z m 12.79687,-5.65104 3.33593,-0.29167 q 0.23698,2.00521 1.09375,3.29948 0.875,1.27604 2.69792,2.07812 1.82291,0.78386 4.10156,0.78386 2.02343,0 3.57291,-0.60157 1.54948,-0.60156 2.29687,-1.64062 0.76563,-1.05729 0.76563,-2.29687 0,-1.25781 -0.72917,-2.1875 -0.72917,-0.94792 -2.40625,-1.58594 -1.07552,-0.41927 -4.75781,-1.29427 -3.68228,-0.89322 -5.15885,-1.67708 -1.91406,-1.0026 -2.86197,-2.47916 -0.92969,-1.49479 -0.92969,-3.33594 0,-2.02343 1.14844,-3.77343 1.14843,-1.76823 3.35416,-2.67969 2.20573,-0.91145 4.90364,-0.91145 2.97135,0 5.23177,0.96614 2.27864,0.94792 3.5,2.80729 1.22135,1.85937 1.3125,4.21093 l -3.39063,0.25521 q -0.27343,-2.53385 -1.85937,-3.82812 -1.56771,-1.29427 -4.64843,-1.29427 -3.20833,0 -4.6849,1.18489 -1.45833,1.16667 -1.45833,2.82552 0,1.44011 1.03906,2.36979 1.02084,0.92969 5.32292,1.91406 4.3203,0.96615 5.92447,1.69531 2.33333,1.07552 3.44531,2.73438 1.11198,1.64062 1.11198,3.79166 0,2.13281 -1.22136,4.02864 -1.22135,1.87761 -3.51822,2.9349 -2.27865,1.03906 -5.14062,1.03906 -3.6276,0 -6.08854,-1.05729 -2.4427,-1.05729 -3.84635,-3.17187 -1.38541,-2.13282 -1.45833,-4.8125 z m 32.84892,5.65104 0.47396,2.89843 q -1.38541,0.29167 -2.47916,0.29167 -1.78646,0 -2.77083,-0.56511 -0.98438,-0.5651 -1.38542,-1.47656 -0.40104,-0.92968 -0.40104,-3.88281 v -11.13801 h -2.40625 v -2.55208 h 2.40625 v -4.79427 l 3.26302,-1.96874 v 6.76301 h 3.29947 v 2.55208 h -3.29947 v 11.32031 q 0,1.40364 0.16406,1.80468 0.18229,0.40104 0.5651,0.63802 0.40105,0.23698 1.13021,0.23698 0.54688,0 1.4401,-0.1276 z m 3.17188,2.93489 v -19.35936 h 2.95312 v 2.93489 q 1.13021,-2.05989 2.07813,-2.71614 0.96614,-0.65625 2.11458,-0.65625 1.65885,0 3.37239,1.05729 l -1.13021,3.04427 q -1.20312,-0.71094 -2.40624,-0.71094 -1.07552,0 -1.93229,0.65625 -0.85677,0.63802 -1.22136,1.78646 -0.54687,1.75 -0.54687,3.82812 v 10.13541 z m 25.72133,-6.23437 3.39063,0.41927 q -0.80209,2.97135 -2.97136,4.61198 -2.16927,1.64062 -5.54166,1.64062 -4.24739,0 -6.74478,-2.60677 -2.47917,-2.625 -2.47917,-7.34635 0,-4.88541 2.51562,-7.58332 2.51563,-2.69792 6.52604,-2.69792 3.88281,0 6.34374,2.64323 2.46094,2.64323 2.46094,7.43749 0,0.29167 -0.0182,0.875 h -14.43749 q 0.1823,3.1901 1.80469,4.88541 1.62239,1.69531 4.04687,1.69531 1.80469,0 3.08073,-0.94791 1.27604,-0.94792 2.02343,-3.02604 z m -10.77342,-5.30468 h 10.80988 q -0.21875,-2.44271 -1.23958,-3.66406 -1.56771,-1.89583 -4.0651,-1.89583 -2.26042,0 -3.80989,1.51302 -1.53125,1.51301 -1.69531,4.04687 z m 30.91663,9.15103 q -1.82291,1.54948 -3.51822,2.1875 -1.67709,0.63802 -3.60938,0.63802 -3.1901,0 -4.90364,-1.54948 -1.71354,-1.56771 -1.71354,-3.99218 0,-1.42188 0.63802,-2.58854 0.65625,-1.1849 1.69531,-1.89583 1.05729,-0.71094 2.36979,-1.07552 0.96615,-0.25521 2.91667,-0.49219 3.97395,-0.47396 5.85156,-1.13021 0.0182,-0.67448 0.0182,-0.85677 0,-2.0052 -0.92968,-2.82552 -1.25781,-1.11197 -3.73698,-1.11197 -2.3151,0 -3.42708,0.82031 -1.09375,0.80208 -1.62239,2.86197 l -3.20833,-0.4375 q 0.4375,-2.05989 1.4401,-3.3177 1.0026,-1.27604 2.89843,-1.95052 1.89584,-0.69271 4.39323,-0.69271 2.47916,0 4.02864,0.58333 1.54948,0.58334 2.27865,1.47657 0.72916,0.87499 1.02083,2.22395 0.16406,0.83854 0.16406,3.02604 v 4.375 q 0,4.57551 0.20052,5.79687 0.21875,1.20312 0.83854,2.3151 h -3.42708 q -0.51041,-1.02083 -0.65625,-2.38802 z m -0.27343,-7.32812 q -1.78646,0.72917 -5.35937,1.23958 -2.02344,0.29167 -2.86198,0.65625 -0.83854,0.36459 -1.29427,1.07552 -0.45573,0.69271 -0.45573,1.54948 0,1.3125 0.98437,2.1875 1.00261,0.875 2.91667,0.875 1.89583,0 3.37239,-0.82031 1.47656,-0.83854 2.16927,-2.27865 0.52865,-1.11197 0.52865,-3.28124 z m 8.40363,9.71614 v -19.35936 h 2.93489 v 2.71614 q 0.91146,-1.42187 2.42448,-2.27864 1.51302,-0.875 3.44531,-0.875 2.15104,0 3.51823,0.89323 1.38541,0.89323 1.95052,2.49739 2.29687,-3.39062 5.97916,-3.39062 2.8802,0 4.42968,1.60417 1.54948,1.58593 1.54948,4.90364 v 13.28905 h -3.26302 v -12.1953 q 0,-1.96875 -0.32812,-2.82552 -0.3099,-0.875 -1.14844,-1.40365 -0.83854,-0.52864 -1.96875,-0.52864 -2.04166,0 -3.39062,1.36719 -1.34896,1.34895 -1.34896,4.33853 v 11.24739 h -3.28124 v -12.57811 q 0,-2.1875 -0.80209,-3.28125 -0.80208,-1.09375 -2.62499,-1.09375 -1.38542,0 -2.57031,0.72917 -1.16667,0.72916 -1.69532,2.13281 -0.52864,1.40364 -0.52864,4.04687 v 10.04426 z m 29.78644,-5.77864 3.24479,-0.51042 q 0.27344,1.95052 1.51302,2.98958 1.25781,1.03906 3.5,1.03906 2.26041,0 3.35416,-0.91145 1.09375,-0.92969 1.09375,-2.16927 0,-1.11198 -0.96615,-1.75 -0.67447,-0.4375 -3.35416,-1.11198 -3.60937,-0.91146 -5.01302,-1.56771 -1.38541,-0.67447 -2.11458,-1.84114 -0.71093,-1.18489 -0.71093,-2.60677 0,-1.29427 0.58333,-2.38802 0.60156,-1.11198 1.62239,-1.84114 0.76563,-0.5651 2.07813,-0.94792 1.33072,-0.40104 2.84374,-0.40104 2.27865,0 3.99219,0.65625 1.73177,0.65625 2.55208,1.78646 0.82031,1.11198 1.13021,2.98958 l -3.20833,0.4375 q -0.21875,-1.49479 -1.27605,-2.33333 -1.03906,-0.83854 -2.95312,-0.83854 -2.26041,0 -3.22656,0.74739 -0.96614,0.7474 -0.96614,1.75 0,0.63802 0.40104,1.14844 0.40104,0.52864 1.25781,0.875 0.49219,0.18229 2.89844,0.83854 3.48176,0.92968 4.84895,1.53125 1.38541,0.58333 2.16927,1.71354 0.78385,1.1302 0.78385,2.80728 0,1.64063 -0.96614,3.09896 -0.94792,1.4401 -2.7526,2.24219 -1.80469,0.78385 -4.08333,0.78385 -3.77344,0 -5.76042,-1.56771 -1.96874,-1.5677 -2.51562,-4.64843 z m 20.89061,-9.84374 v -3.73698 h 3.73698 v 3.73698 z m 0,15.62238 v -3.73698 h 3.73698 v 3.73698 z m 39.32026,-9.36978 3.53645,0.89322 q -1.11197,4.35677 -4.01041,6.65364 -2.8802,2.27865 -7.05468,2.27865 -4.32031,0 -7.03645,-1.75 -2.69792,-1.76823 -4.11979,-5.10416 -1.40365,-3.33594 -1.40365,-7.16406 0,-4.17447 1.58594,-7.27343 1.60417,-3.11718 4.53906,-4.72135 2.95312,-1.62239 6.48958,-1.62239 4.01041,0 6.74478,2.04166 2.73438,2.04167 3.8099,5.74218 l -3.48177,0.82031 q -0.92969,-2.91666 -2.69792,-4.24739 -1.76822,-1.33073 -4.44791,-1.33073 -3.08073,0 -5.15885,1.47657 -2.05989,1.47656 -2.89843,3.97395 -0.83854,2.47917 -0.83854,5.12239 0,3.40885 0.98437,5.96093 1.0026,2.53386 3.09896,3.79167 2.09635,1.25781 4.53905,1.25781 2.97136,0 5.03125,-1.71354 2.05989,-1.71354 2.78906,-5.08593 z m 6.25262,-0.3099 q 0,-5.3776 2.98958,-7.96614 2.4974,-2.15104 6.08854,-2.15104 3.99218,0 6.52603,2.625 2.53386,2.60677 2.53386,7.21874 0,3.73698 -1.13021,5.88802 -1.11198,2.13281 -3.26302,3.3177 -2.13281,1.1849 -4.66666,1.1849 -4.0651,0 -6.58072,-2.60677 -2.4974,-2.60677 -2.4974,-7.51041 z m 3.37239,0 q 0,3.71875 1.6224,5.57812 1.62239,1.84114 4.08333,1.84114 2.4427,0 4.0651,-1.85937 1.62239,-1.85937 1.62239,-5.66926 0,-3.59115 -1.64062,-5.43229 -1.62239,-1.85937 -4.04687,-1.85937 -2.46094,0 -4.08333,1.84114 -1.6224,1.84114 -1.6224,5.55989 z m 18.61196,9.67968 v -19.35936 h 2.95313 v 2.7526 q 2.13281,-3.1901 6.16145,-3.1901 1.75,0 3.20833,0.63802 1.47656,0.61979 2.20573,1.64063 0.72916,1.02083 1.02083,2.42447 0.18229,0.91146 0.18229,3.1901 v 11.90364 h -3.28124 v -11.77603 q 0,-2.00521 -0.38282,-2.98958 -0.38281,-1.00261 -1.36718,-1.58594 -0.96615,-0.60156 -2.27865,-0.60156 -2.09635,0 -3.6276,1.33073 -1.51302,1.33073 -1.51302,5.04947 v 10.57291 z m 19.45051,-5.77864 3.24479,-0.51042 q 0.27343,1.95052 1.51301,2.98958 1.25782,1.03906 3.5,1.03906 2.26042,0 3.35417,-0.91145 1.09374,-0.92969 1.09374,-2.16927 0,-1.11198 -0.96614,-1.75 -0.67448,-0.4375 -3.35416,-1.11198 -3.60938,-0.91146 -5.01302,-1.56771 -1.38542,-0.67447 -2.11458,-1.84114 -0.71094,-1.18489 -0.71094,-2.60677 0,-1.29427 0.58333,-2.38802 0.60157,-1.11198 1.6224,-1.84114 0.76562,-0.5651 2.07812,-0.94792 1.33073,-0.40104 2.84375,-0.40104 2.27864,0 3.99218,0.65625 1.73177,0.65625 2.55208,1.78646 0.82032,1.11198 1.13021,2.98958 l -3.20833,0.4375 q -0.21875,-1.49479 -1.27604,-2.33333 -1.03906,-0.83854 -2.95312,-0.83854 -2.26042,0 -3.22656,0.74739 -0.96615,0.7474 -0.96615,1.75 0,0.63802 0.40104,1.14844 0.40105,0.52864 1.25782,0.875 0.49218,0.18229 2.89843,0.83854 3.48177,0.92968 4.84896,1.53125 1.38541,0.58333 2.16926,1.71354 0.78386,1.1302 0.78386,2.80728 0,1.64063 -0.96615,3.09896 -0.94791,1.4401 -2.7526,2.24219 -1.80468,0.78385 -4.08333,0.78385 -3.77343,0 -5.76041,-1.56771 -1.96875,-1.5677 -2.51562,-4.64843 z m 33.23174,-0.45573 3.39063,0.41927 q -0.80209,2.97135 -2.97135,4.61198 -2.16927,1.64062 -5.54167,1.64062 -4.24739,0 -6.74478,-2.60677 -2.47917,-2.625 -2.47917,-7.34635 0,-4.88541 2.51563,-7.58332 2.51562,-2.69792 6.52603,-2.69792 3.88281,0 6.34375,2.64323 2.46093,2.64323 2.46093,7.43749 0,0.29167 -0.0182,0.875 h -14.43749 q 0.1823,3.1901 1.80469,4.88541 1.6224,1.69531 4.04687,1.69531 1.80469,0 3.08073,-0.94791 1.27604,-0.94792 2.02343,-3.02604 z m -10.77342,-5.30468 h 10.80988 q -0.21875,-2.44271 -1.23958,-3.66406 -1.56771,-1.89583 -4.0651,-1.89583 -2.26041,0 -3.80989,1.51302 -1.53125,1.51301 -1.69531,4.04687 z m 30.91663,4.44791 3.22656,0.41927 q -0.52864,3.33594 -2.71614,5.23177 -2.16927,1.8776 -5.34114,1.8776 -3.97396,0 -6.39843,-2.58854 -2.40625,-2.60677 -2.40625,-7.45572 0,-3.13542 1.03906,-5.48698 1.03906,-2.35156 3.15364,-3.51822 2.13281,-1.1849 4.63021,-1.1849 3.15364,0 5.15885,1.60417 2.0052,1.58593 2.57031,4.52083 l -3.1901,0.49218 q -0.45573,-1.95052 -1.6224,-2.93489 -1.14843,-0.98437 -2.78906,-0.98437 -2.47916,0 -4.02864,1.78645 -1.54948,1.76823 -1.54948,5.61458 0,3.90104 1.49479,5.66927 1.49479,1.76822 3.90104,1.76822 1.93229,0 3.22656,-1.18489 1.29427,-1.18489 1.64062,-3.64583 z m 18.72132,7.09114 v -2.84375 q -2.26042,3.28125 -6.14323,3.28125 -1.71354,0 -3.20833,-0.65625 -1.47656,-0.65625 -2.20572,-1.64062 -0.71094,-1.00261 -1.00261,-2.44271 -0.20052,-0.96615 -0.20052,-3.0625 v -11.99478 h 3.28125 v 10.73697 q 0,2.57031 0.20052,3.46354 0.3099,1.29427 1.3125,2.04166 1.0026,0.72917 2.47916,0.72917 1.47656,0 2.77083,-0.74739 1.29427,-0.76563 1.82292,-2.0599 0.54687,-1.3125 0.54687,-3.79166 v -10.37239 h 3.28125 v 19.35936 z m 15.2396,-2.93489 0.47395,2.89843 q -1.38541,0.29167 -2.47916,0.29167 -1.78646,0 -2.77083,-0.56511 -0.98438,-0.5651 -1.38542,-1.47656 -0.40104,-0.92968 -0.40104,-3.88281 v -11.13801 h -2.40625 v -2.55208 h 2.40625 v -4.79427 l 3.26302,-1.96874 v 6.76301 h 3.29948 v 2.55208 h -3.29948 v 11.32031 q 0,1.40364 0.16406,1.80468 0.18229,0.40104 0.56511,0.63802 0.40104,0.23698 1.1302,0.23698 0.54688,0 1.44011,-0.1276 z m 3.22654,-20.01561 v -3.77344 h 3.28125 v 3.77344 z m 0,22.9505 v -19.35936 h 3.28125 v 19.35936 z m 13.65362,0 -7.36457,-19.35936 h 3.46354 l 4.15624,11.59374 q 0.67448,1.8776 1.23959,3.90104 0.43749,-1.53125 1.22135,-3.68229 l 4.30208,-11.81249 h 3.37239 l -7.32812,19.35936 z m 26.54169,-6.23437 3.39062,0.41927 q -0.80209,2.97135 -2.97135,4.61198 -2.16927,1.64062 -5.54167,1.64062 -4.24739,0 -6.74478,-2.60677 -2.47917,-2.625 -2.47917,-7.34635 0,-4.88541 2.51563,-7.58332 2.51562,-2.69792 6.52603,-2.69792 3.88281,0 6.34375,2.64323 2.46093,2.64323 2.46093,7.43749 0,0.29167 -0.0182,0.875 H 578.2564 q 0.18229,3.1901 1.80468,4.88541 1.6224,1.69531 4.04687,1.69531 1.80469,0 3.08073,-0.94791 1.27604,-0.94792 2.02344,-3.02604 z m -10.77343,-5.30468 h 10.80988 q -0.21875,-2.44271 -1.23958,-3.66406 -1.56771,-1.89583 -4.0651,-1.89583 -2.26041,0 -3.80989,1.51302 -1.53125,1.51301 -1.69531,4.04687 z m 27.87235,2.95312 3.33594,-0.29167 q 0.23698,2.00521 1.09375,3.29948 0.875,1.27604 2.69791,2.07812 1.82292,0.78386 4.10156,0.78386 2.02344,0 3.57292,-0.60157 1.54947,-0.60156 2.29687,-1.64062 0.76562,-1.05729 0.76562,-2.29687 0,-1.25781 -0.72916,-2.1875 -0.72917,-0.94792 -2.40625,-1.58594 -1.07552,-0.41927 -4.75781,-1.29427 -3.68229,-0.89322 -5.15885,-1.67708 -1.91406,-1.0026 -2.86198,-2.47916 -0.92968,-1.49479 -0.92968,-3.33594 0,-2.02343 1.14843,-3.77343 1.14844,-1.76823 3.35417,-2.67969 2.20572,-0.91145 4.90364,-0.91145 2.97135,0 5.23177,0.96614 2.27864,0.94792 3.49999,2.80729 1.22136,1.85937 1.3125,4.21093 l -3.39062,0.25521 q -0.27344,-2.53385 -1.85937,-3.82812 -1.56771,-1.29427 -4.64844,-1.29427 -3.20833,0 -4.68489,1.18489 -1.45833,1.16667 -1.45833,2.82552 0,1.44011 1.03906,2.36979 1.02083,0.92969 5.32291,1.91406 4.32031,0.96615 5.92448,1.69531 2.33333,1.07552 3.44531,2.73438 1.11197,1.64062 1.11197,3.79166 0,2.13281 -1.22135,4.02864 -1.22135,1.87761 -3.51823,2.9349 -2.27864,1.03906 -5.14062,1.03906 -3.6276,0 -6.08853,-1.05729 -2.44271,-1.05729 -3.84635,-3.17187 -1.38542,-2.13282 -1.45834,-4.8125 z m 38.93745,2.35156 3.39062,0.41927 q -0.80208,2.97135 -2.97135,4.61198 -2.16927,1.64062 -5.54166,1.64062 -4.24739,0 -6.74479,-2.60677 -2.47916,-2.625 -2.47916,-7.34635 0,-4.88541 2.51562,-7.58332 2.51563,-2.69792 6.52604,-2.69792 3.88281,0 6.34374,2.64323 2.46094,2.64323 2.46094,7.43749 0,0.29167 -0.0182,0.875 h -14.43749 q 0.18229,3.1901 1.80469,4.88541 1.62239,1.69531 4.04687,1.69531 1.80469,0 3.08073,-0.94791 1.27604,-0.94792 2.02343,-3.02604 z m -10.77343,-5.30468 h 10.80989 q -0.21875,-2.44271 -1.23958,-3.66406 -1.56771,-1.89583 -4.0651,-1.89583 -2.26042,0 -3.8099,1.51302 -1.53124,1.51301 -1.69531,4.04687 z m 30.62498,18.95831 v -9.47915 q -0.76563,1.07552 -2.15104,1.78645 -1.36719,0.71094 -2.91667,0.71094 -3.44531,0 -5.9427,-2.7526 -2.47917,-2.7526 -2.47917,-7.54687 0,-2.91667 1.00261,-5.23177 1.02083,-2.3151 2.93489,-3.49999 1.93229,-1.20313 4.22916,-1.20313 3.59115,0 5.65104,3.02604 v -2.58854 h 2.95312 v 26.77862 z m -10.11718,-17.15363 q 0,3.73698 1.5677,5.61458 1.56771,1.85937 3.75521,1.85937 2.09635,0 3.60937,-1.76822 1.51302,-1.78646 1.51302,-5.41406 0,-3.86458 -1.60417,-5.8151 -1.58593,-1.95052 -3.73697,-1.95052 -2.13281,0 -3.6276,1.82292 -1.47656,1.80468 -1.47656,5.65103 z m 31.22653,9.73437 v -2.84375 q -2.26042,3.28125 -6.14322,3.28125 -1.71354,0 -3.20834,-0.65625 -1.47656,-0.65625 -2.20572,-1.64062 -0.71094,-1.00261 -1.00261,-2.44271 -0.20052,-0.96615 -0.20052,-3.0625 v -11.99478 h 3.28125 v 10.73697 q 0,2.57031 0.20052,3.46354 0.3099,1.29427 1.3125,2.04166 1.0026,0.72917 2.47916,0.72917 1.47657,0 2.77084,-0.74739 1.29427,-0.76563 1.82291,-2.0599 0.54688,-1.3125 0.54688,-3.79166 v -10.37239 h 3.28124 v 19.35936 z m 21.3281,-6.23437 3.39063,0.41927 q -0.80209,2.97135 -2.97136,4.61198 -2.16926,1.64062 -5.54166,1.64062 -4.24739,0 -6.74478,-2.60677 -2.47917,-2.625 -2.47917,-7.34635 0,-4.88541 2.51562,-7.58332 2.51563,-2.69792 6.52604,-2.69792 3.88281,0 6.34375,2.64323 2.46093,2.64323 2.46093,7.43749 0,0.29167 -0.0182,0.875 h -14.43749 q 0.1823,3.1901 1.80469,4.88541 1.62239,1.69531 4.04687,1.69531 1.80469,0 3.08073,-0.94791 1.27604,-0.94792 2.02343,-3.02604 z m -10.77342,-5.30468 h 10.80988 q -0.21875,-2.44271 -1.23958,-3.66406 -1.56771,-1.89583 -4.0651,-1.89583 -2.26042,0 -3.80989,1.51302 -1.53125,1.51301 -1.69531,4.04687 z m 18.28383,11.53905 v -19.35936 h 2.95312 v 2.7526 q 2.13281,-3.1901 6.16146,-3.1901 1.75,0 3.20833,0.63802 1.47656,0.61979 2.20572,1.64063 0.72917,1.02083 1.02084,2.42447 0.18229,0.91146 0.18229,3.1901 v 11.90364 h -3.28125 v -11.77603 q 0,-2.00521 -0.38281,-2.98958 -0.38281,-1.00261 -1.36719,-1.58594 -0.96614,-0.60156 -2.27864,-0.60156 -2.09635,0 -3.6276,1.33073 -1.51302,1.33073 -1.51302,5.04947 v 10.57291 z m 33.3958,-7.09114 3.22656,0.41927 q -0.52864,3.33594 -2.71614,5.23177 -2.16927,1.8776 -5.34114,1.8776 -3.97396,0 -6.39843,-2.58854 -2.40625,-2.60677 -2.40625,-7.45572 0,-3.13542 1.03906,-5.48698 1.03906,-2.35156 3.15364,-3.51822 2.13281,-1.1849 4.63021,-1.1849 3.15364,0 5.15885,1.60417 2.0052,1.58593 2.57031,4.52083 l -3.1901,0.49218 q -0.45573,-1.95052 -1.6224,-2.93489 -1.14843,-0.98437 -2.78906,-0.98437 -2.47916,0 -4.02864,1.78645 -1.54948,1.76823 -1.54948,5.61458 0,3.90104 1.49479,5.66927 1.49479,1.76822 3.90104,1.76822 1.93229,0 3.22656,-1.18489 1.29427,-1.18489 1.64062,-3.64583 z m 19.28648,0.85677 3.39062,0.41927 q -0.80208,2.97135 -2.97135,4.61198 -2.16927,1.64062 -5.54166,1.64062 -4.24739,0 -6.74479,-2.60677 -2.47916,-2.625 -2.47916,-7.34635 0,-4.88541 2.51562,-7.58332 2.51563,-2.69792 6.52604,-2.69792 3.88281,0 6.34374,2.64323 2.46094,2.64323 2.46094,7.43749 0,0.29167 -0.0182,0.875 h -14.43749 q 0.18229,3.1901 1.80469,4.88541 1.62239,1.69531 4.04687,1.69531 1.80469,0 3.08073,-0.94791 1.27604,-0.94792 2.02343,-3.02604 z m -10.77343,-5.30468 h 10.80989 q -0.21875,-2.44271 -1.23958,-3.66406 -1.56771,-1.89583 -4.0651,-1.89583 -2.26042,0 -3.8099,1.51302 -1.53124,1.51301 -1.69531,4.04687 z m 16.97134,5.76041 3.24479,-0.51042 q 0.27344,1.95052 1.51302,2.98958 1.25781,1.03906 3.5,1.03906 2.26041,0 3.35416,-0.91145 1.09375,-0.92969 1.09375,-2.16927 0,-1.11198 -0.96615,-1.75 -0.67447,-0.4375 -3.35416,-1.11198 -3.60937,-0.91146 -5.01302,-1.56771 -1.38541,-0.67447 -2.11458,-1.84114 -0.71094,-1.18489 -0.71094,-2.60677 0,-1.29427 0.58334,-2.38802 0.60156,-1.11198 1.62239,-1.84114 0.76563,-0.5651 2.07813,-0.94792 1.33072,-0.40104 2.84374,-0.40104 2.27865,0 3.99219,0.65625 1.73177,0.65625 2.55208,1.78646 0.82031,1.11198 1.13021,2.98958 l -3.20833,0.4375 q -0.21875,-1.49479 -1.27605,-2.33333 -1.03906,-0.83854 -2.95312,-0.83854 -2.26041,0 -3.22656,0.74739 -0.96614,0.7474 -0.96614,1.75 0,0.63802 0.40104,1.14844 0.40104,0.52864 1.25781,0.875 0.49219,0.18229 2.89843,0.83854 3.48177,0.92968 4.84896,1.53125 1.38541,0.58333 2.16927,1.71354 0.78385,1.1302 0.78385,2.80728 0,1.64063 -0.96614,3.09896 -0.94792,1.4401 -2.75261,2.24219 -1.80468,0.78385 -4.08333,0.78385 -3.77343,0 -5.76041,-1.56771 -1.96875,-1.5677 -2.51562,-4.64843 z"
     id="flowRoot4302"
     style="font-size:37.3333px;line-height:0.01%;font-family:'Liberation Sans';-inkscape-font-specification:'Liberation Sans, Normal';text-align:center;text-anchor:middle"
     transform="translate(-19.999997,-167.90003)"
     aria-label="Constraint Streams: Consecutive Sequences" />
  <g
     id="layer5">
    <path
       style="display:inline;fill:none;stroke:#4e9a06;stroke-width:1px;stroke-linecap:round;stroke-linejoin:round;stroke-opacity:1"
       d="m 254.20441,254.679 210.55674,10.48947"
       id="path2596" />
    <path
       style="display:inline;fill:none;stroke:#4e9a06;stroke-width:1px;stroke-linecap:round;stroke-linejoin:round;stroke-opacity:1"
       d="m 255.28285,283.64768 209.8778,73.07964"
       id="path59" />
    <path
       style="display:inline;fill:none;stroke:#4e9a06;stroke-width:1px;stroke-linecap:round;stroke-linejoin:round;stroke-opacity:1"
       d="M 255.82457,314.92621 465.92116,264.62155"
       id="path60" />
    <path
       style="display:inline;fill:none;stroke:#4e9a06;stroke-width:1px;stroke-linecap:round;stroke-linejoin:round;stroke-opacity:1"
       d="m 253.55446,345.26799 215.95338,-51.0563"
       id="path61" />
    <path
       style="display:inline;fill:none;stroke:#4e9a06;stroke-width:1px;stroke-linecap:round;stroke-linejoin:round;stroke-opacity:1"
       d="M 255.51409,373.94669 470.28566,355.68862"
       id="path62" />
    <path
       style="display:inline;fill:none;stroke:#4e9a06;stroke-width:1px;stroke-linecap:round;stroke-linejoin:round;stroke-opacity:1"
       d="M 255.05007,404.05939 471.02384,292.12577"
       id="path63" />
    <path
       style="display:inline;fill:none;stroke:#4e9a06;stroke-width:1px;stroke-linecap:round;stroke-linejoin:round;stroke-opacity:1"
       d="M 252.81195,436.51217 467.66666,324.01901"
       id="path64" />
    <path
       style="display:inline;fill:none;stroke:#4e9a06;stroke-width:1px;stroke-linecap:round;stroke-linejoin:round;stroke-opacity:1"
       d="M 253.93101,465.04823 465.3945,355.46979"
       id="path65" />
  </g>
  <g
     id="g100"
     style="display:inline"
     transform="translate(183.66589,-156.26173)">
    <g
       id="flowRoot63"
       style="font-size:21.3333px;line-height:0.01%;font-family:'Liberation Sans';-inkscape-font-specification:'Liberation Sans, Normal';text-align:center;text-anchor:middle"
       transform="translate(17.606175,190.22647)"
       aria-label="Bi&lt;Team, SequenceChain&gt;">
      <path
         style="line-height:1.25"
         d="m 257.41394,186.94849 v -15.27081 h 5.72916 q 1.74999,0 2.80208,0.46875 1.06249,0.45833 1.65624,1.42708 0.60417,0.95833 0.60417,2.01041 0,0.97917 -0.53125,1.84375 -0.53125,0.86458 -1.60416,1.39583 1.38541,0.40625 2.12499,1.38541 0.75,0.97917 0.75,2.3125 0,1.07291 -0.45833,2 -0.44792,0.91666 -1.11458,1.41666 -0.66667,0.5 -1.67708,0.76042 -1,0.25 -2.45833,0.25 z m 2.02083,-8.85416 h 3.30208 q 1.34375,0 1.92708,-0.17708 0.77083,-0.22917 1.15625,-0.76042 0.39583,-0.53124 0.39583,-1.33333 0,-0.76041 -0.36458,-1.33333 -0.36459,-0.58333 -1.04167,-0.79166 -0.67708,-0.21875 -2.32291,-0.21875 h -3.05208 z m 0,7.05208 h 3.80208 q 0.97916,0 1.37499,-0.0729 0.69792,-0.125 1.16667,-0.41667 0.46875,-0.29166 0.77083,-0.84375 0.30208,-0.56249 0.30208,-1.29166 0,-0.85417 -0.43749,-1.47916 -0.4375,-0.63542 -1.21875,-0.88542 -0.77083,-0.26042 -2.22917,-0.26042 h -3.53124 z m 12.06248,-11.31249 v -2.15624 h 1.875 v 2.15624 z m 0,13.11457 V 175.886 h 1.875 v 11.06249 z m 4.48958,-6.67708 v -1.74999 l 10.11456,-4.27083 v 1.86458 l -8.02082,3.29166 8.02082,3.32291 v 1.86458 z"
         id="path10" />
      <path
         style="line-height:1.25;fill:#729fcf"
         d="m 292.80972,186.94849 v -13.46873 h -5.03124 v -1.80208 h 12.10414 v 1.80208 h -5.05207 v 13.46873 z m 14.11456,-3.5625 1.9375,0.23958 q -0.45834,1.69792 -1.69792,2.63542 -1.23958,0.9375 -3.16666,0.9375 -2.42708,0 -3.85416,-1.48959 -1.41666,-1.49999 -1.41666,-4.19791 0,-2.79166 1.43749,-4.33332 1.4375,-1.54167 3.72916,-1.54167 2.21875,0 3.625,1.51042 1.40625,1.51041 1.40625,4.24999 0,0.16667 -0.0104,0.5 h -8.24999 q 0.10417,1.82291 1.03125,2.79166 0.92708,0.96875 2.3125,0.96875 1.03125,0 1.76041,-0.54166 0.72917,-0.54167 1.15625,-1.72917 z m -6.15624,-3.03124 h 6.17707 q -0.125,-1.39583 -0.70833,-2.09375 -0.89583,-1.08333 -2.32291,-1.08333 -1.29167,0 -2.17708,0.86458 -0.875,0.86458 -0.96875,2.3125 z m 17.66664,5.22915 q -1.04167,0.88542 -2.01042,1.25 -0.95833,0.36459 -2.06249,0.36459 -1.82292,0 -2.80208,-0.88542 -0.97917,-0.89583 -0.97917,-2.28125 0,-0.81249 0.36459,-1.47916 0.37499,-0.67708 0.96874,-1.08333 0.60417,-0.40625 1.35417,-0.61458 0.55208,-0.14584 1.66666,-0.28125 2.27083,-0.27084 3.34375,-0.64584 0.0104,-0.38541 0.0104,-0.48958 0,-1.14583 -0.53125,-1.61458 -0.71874,-0.63542 -2.13541,-0.63542 -1.32291,0 -1.95833,0.46875 -0.625,0.45834 -0.92708,1.63542 l -1.83333,-0.25 q 0.25,-1.17708 0.82291,-1.89583 0.57292,-0.72917 1.65625,-1.11458 1.08333,-0.39584 2.51041,-0.39584 1.41667,0 2.30208,0.33334 0.88542,0.33333 1.30208,0.84375 0.41667,0.49999 0.58334,1.27083 0.0937,0.47916 0.0937,1.72916 v 2.5 q 0,2.61458 0.11458,3.31249 0.125,0.6875 0.47917,1.32292 h -1.95833 q -0.29167,-0.58334 -0.375,-1.36459 z m -0.15625,-4.18749 q -1.02083,0.41667 -3.0625,0.70833 -1.15625,0.16667 -1.63541,0.375 -0.47917,0.20834 -0.73958,0.61459 -0.26042,0.39583 -0.26042,0.88541 0,0.75 0.5625,1.25 0.57291,0.5 1.66666,0.5 1.08333,0 1.92708,-0.46875 0.84375,-0.47917 1.23958,-1.30208 0.30209,-0.63542 0.30209,-1.875 z m 4.80207,5.55208 V 175.886 h 1.67709 v 1.55208 q 0.52083,-0.81249 1.38541,-1.30208 0.86458,-0.5 1.96875,-0.5 1.22916,0 2.01041,0.51042 0.79167,0.51042 1.11458,1.42708 1.3125,-1.9375 3.41666,-1.9375 1.64583,0 2.53125,0.91667 0.88541,0.90625 0.88541,2.80208 v 7.59374 h -1.86458 v -6.96874 q 0,-1.125 -0.1875,-1.61458 -0.17708,-0.5 -0.65624,-0.80209 -0.47917,-0.30208 -1.125,-0.30208 -1.16667,0 -1.9375,0.78125 -0.77083,0.77083 -0.77083,2.47916 v 6.42708 h -1.875 V 179.761 q 0,-1.25 -0.45833,-1.875 -0.45833,-0.625 -1.5,-0.625 -0.79166,0 -1.46875,0.41667 -0.66666,0.41666 -0.96875,1.21875 -0.30208,0.80208 -0.30208,2.31249 v 5.73958 z"
         id="path11" />
      <path
         style="line-height:1.25;fill:#204a87"
         d="m 341.34089,186.94849 v -2.13542 h 2.13542 v 2.13542 q 0,1.17708 -0.41667,1.89583 -0.41667,0.72916 -1.32291,1.12499 l -0.52084,-0.80208 q 0.59375,-0.26041 0.875,-0.77083 0.28125,-0.5 0.3125,-1.44791 z"
         id="path12" />
      <path
         style="line-height:1.25;fill:#d5b94a"
         d="m 352.25754,182.04224 1.90625,-0.16666 q 0.13542,1.14583 0.625,1.88541 0.5,0.72917 1.54166,1.1875 1.04167,0.44791 2.34375,0.44791 1.15625,0 2.04166,-0.34374 0.88542,-0.34375 1.3125,-0.9375 0.4375,-0.60417 0.4375,-1.3125 0,-0.71875 -0.41667,-1.25 -0.41666,-0.54166 -1.37499,-0.90625 -0.61459,-0.23958 -2.71875,-0.73958 -2.10416,-0.51042 -2.94791,-0.95833 -1.09375,-0.57292 -1.63542,-1.41667 -0.53124,-0.85416 -0.53124,-1.90624 0,-1.15625 0.65624,-2.15625 0.65625,-1.01041 1.91667,-1.53125 1.26041,-0.52083 2.80208,-0.52083 1.69791,0 2.98958,0.55208 1.30208,0.54167 1.99999,1.60417 0.69792,1.0625 0.75,2.40624 l -1.9375,0.14584 q -0.15625,-1.44792 -1.06249,-2.1875 -0.89584,-0.73958 -2.65625,-0.73958 -1.83333,0 -2.67708,0.67708 -0.83333,0.66667 -0.83333,1.61458 0,0.82292 0.59375,1.35417 0.58333,0.53124 3.04166,1.09374 2.46875,0.55209 3.38541,0.96875 1.33333,0.61458 1.96875,1.5625 0.63541,0.9375 0.63541,2.16666 0,1.21875 -0.69791,2.30208 -0.69792,1.07292 -2.01042,1.67708 -1.30208,0.59375 -2.93749,0.59375 -2.07291,0 -3.47916,-0.60416 -1.39583,-0.60417 -2.19791,-1.8125 -0.79167,-1.21875 -0.83334,-2.75 z m 22.24996,1.34375 1.9375,0.23958 q -0.45833,1.69792 -1.69791,2.63542 -1.23958,0.9375 -3.16666,0.9375 -2.42708,0 -3.85416,-1.48959 -1.41667,-1.49999 -1.41667,-4.19791 0,-2.79166 1.4375,-4.33332 1.4375,-1.54167 3.72916,-1.54167 2.21875,0 3.62499,1.51042 1.40625,1.51041 1.40625,4.24999 0,0.16667 -0.0104,0.5 h -8.24999 q 0.10416,1.82291 1.03125,2.79166 0.92708,0.96875 2.31249,0.96875 1.03125,0 1.76042,-0.54166 0.72916,-0.54167 1.15624,-1.72917 z m -6.15624,-3.03124 h 6.17708 q -0.125,-1.39583 -0.70833,-2.09375 -0.89584,-1.08333 -2.32292,-1.08333 -1.29166,0 -2.17708,0.86458 -0.875,0.86458 -0.96875,2.3125 z m 17.49998,10.83331 v -5.41666 q -0.4375,0.61459 -1.22917,1.02084 -0.78125,0.40625 -1.66666,0.40625 -1.96875,0 -3.39583,-1.57292 -1.41667,-1.57291 -1.41667,-4.31249 0,-1.66667 0.57292,-2.98958 0.58333,-1.32292 1.67708,-2 1.10417,-0.6875 2.41666,-0.6875 2.05208,0 3.22917,1.72917 V 175.886 h 1.68749 v 15.30206 z m -5.78125,-9.80207 q 0,2.13542 0.89584,3.20833 0.89583,1.0625 2.14583,1.0625 1.19791,0 2.06249,-1.01041 0.86459,-1.02084 0.86459,-3.09375 0,-2.20833 -0.91667,-3.32291 -0.90625,-1.11458 -2.13541,-1.11458 -1.21875,0 -2.07292,1.04166 -0.84375,1.03125 -0.84375,3.22916 z m 17.84372,5.5625 v -1.625 q -1.29166,1.875 -3.51041,1.875 -0.97916,0 -1.83333,-0.375 -0.84375,-0.375 -1.26041,-0.9375 -0.40625,-0.57292 -0.57292,-1.39583 -0.11458,-0.55209 -0.11458,-1.75 V 175.886 h 1.875 v 6.13541 q 0,1.46875 0.11458,1.97916 0.17708,0.73959 0.75,1.16667 0.57291,0.41666 1.41666,0.41666 0.84375,0 1.58333,-0.42708 0.73959,-0.4375 1.04167,-1.17708 0.3125,-0.75 0.3125,-2.16666 V 175.886 h 1.875 v 11.06249 z m 12.18748,-3.5625 1.9375,0.23958 q -0.45833,1.69792 -1.69791,2.63542 -1.23958,0.9375 -3.16666,0.9375 -2.42708,0 -3.85417,-1.48959 -1.41666,-1.49999 -1.41666,-4.19791 0,-2.79166 1.4375,-4.33332 1.4375,-1.54167 3.72916,-1.54167 2.21875,0 3.62499,1.51042 1.40625,1.51041 1.40625,4.24999 0,0.16667 -0.0104,0.5 h -8.24998 q 0.10416,1.82291 1.03125,2.79166 0.92708,0.96875 2.31249,0.96875 1.03125,0 1.76042,-0.54166 0.72916,-0.54167 1.15624,-1.72917 z m -6.15624,-3.03124 h 6.17708 q -0.125,-1.39583 -0.70833,-2.09375 -0.89584,-1.08333 -2.32292,-1.08333 -1.29166,0 -2.17708,0.86458 -0.875,0.86458 -0.96875,2.3125 z m 10.44792,6.59374 V 175.886 h 1.68749 v 1.57292 q 1.21875,-1.82292 3.52083,-1.82292 1,0 1.83333,0.36459 0.84375,0.35416 1.26042,0.9375 0.41666,0.58333 0.58333,1.38541 0.10417,0.52083 0.10417,1.82291 v 6.80208 h -1.875 v -6.72916 q 0,-1.14583 -0.21875,-1.70833 -0.21875,-0.57292 -0.78125,-0.90625 -0.55208,-0.34375 -1.30208,-0.34375 -1.19791,0 -2.07291,0.76042 -0.86459,0.76041 -0.86459,2.88541 v 6.04166 z m 19.0833,-4.05208 1.84375,0.23958 q -0.30209,1.90625 -1.55208,2.98958 -1.23959,1.07292 -3.05208,1.07292 -2.27083,0 -3.65625,-1.47917 -1.375,-1.48958 -1.375,-4.26041 0,-1.79166 0.59375,-3.13541 0.59375,-1.34375 1.80208,-2.01041 1.21875,-0.67709 2.64583,-0.67709 1.80208,0 2.94792,0.91667 1.14583,0.90625 1.46874,2.58333 l -1.82291,0.28125 q -0.26042,-1.11458 -0.92708,-1.67708 -0.65625,-0.5625 -1.59375,-0.5625 -1.41666,0 -2.30208,1.02083 -0.88541,1.01041 -0.88541,3.20833 0,2.22916 0.85416,3.23958 0.85417,1.01041 2.22916,1.01041 1.10417,0 1.84375,-0.67708 0.73958,-0.67708 0.9375,-2.08333 z m 11.02081,0.48958 1.93749,0.23958 q -0.45833,1.69792 -1.69791,2.63542 -1.23958,0.9375 -3.16666,0.9375 -2.42708,0 -3.85416,-1.48959 -1.41667,-1.49999 -1.41667,-4.19791 0,-2.79166 1.4375,-4.33332 1.4375,-1.54167 3.72916,-1.54167 2.21875,0 3.625,1.51042 1.40624,1.51041 1.40624,4.24999 0,0.16667 -0.0104,0.5 h -8.24999 q 0.10417,1.82291 1.03125,2.79166 0.92708,0.96875 2.31249,0.96875 1.03125,0 1.76042,-0.54166 0.72916,-0.54167 1.15625,-1.72917 z m -6.15624,-3.03124 h 6.17707 q -0.125,-1.39583 -0.70833,-2.09375 -0.89583,-1.08333 -2.32292,-1.08333 -1.29166,0 -2.17708,0.86458 -0.87499,0.86458 -0.96874,2.3125 z m 21.58329,1.23958 2.02083,0.51041 q -0.63541,2.48958 -2.29166,3.80208 -1.64583,1.30208 -4.03124,1.30208 -2.46875,0 -4.02083,-1 -1.54166,-1.01041 -2.35416,-2.91666 -0.80208,-1.90625 -0.80208,-4.09374 0,-2.38541 0.90624,-4.15625 0.91667,-1.78124 2.59375,-2.69791 1.6875,-0.92708 3.70833,-0.92708 2.29166,0 3.85416,1.16667 1.5625,1.16666 2.17708,3.28124 l -1.98958,0.46875 q -0.53125,-1.66666 -1.54167,-2.42708 -1.01041,-0.76042 -2.54166,-0.76042 -1.76041,0 -2.94791,0.84375 -1.17708,0.84375 -1.65625,2.27083 -0.47916,1.41667 -0.47916,2.92708 0,1.94792 0.56249,3.40625 0.57292,1.44791 1.77083,2.16666 1.19792,0.71875 2.59375,0.71875 1.69791,0 2.875,-0.97917 1.17708,-0.97916 1.59374,-2.90624 z m 4.27084,5.35416 v -15.27081 h 1.875 v 5.47915 q 1.31249,-1.52083 3.31249,-1.52083 1.22917,0 2.13541,0.48959 0.90625,0.47916 1.29167,1.33333 0.39583,0.85416 0.39583,2.47916 v 7.01041 h -1.875 v -7.01041 q 0,-1.40625 -0.61458,-2.04166 -0.60416,-0.64584 -1.71874,-0.64584 -0.83334,0 -1.57292,0.4375 -0.72916,0.42709 -1.04166,1.16667 -0.3125,0.73958 -0.3125,2.04166 v 6.05208 z m 19.0833,-1.36459 q -1.04166,0.88542 -2.01041,1.25 -0.95833,0.36459 -2.0625,0.36459 -1.82291,0 -2.80208,-0.88542 -0.97916,-0.89583 -0.97916,-2.28125 0,-0.81249 0.36458,-1.47916 0.375,-0.67708 0.96875,-1.08333 0.60416,-0.40625 1.35416,-0.61458 0.55208,-0.14584 1.66667,-0.28125 2.27083,-0.27084 3.34374,-0.64584 0.0104,-0.38541 0.0104,-0.48958 0,-1.14583 -0.53125,-1.61458 -0.71875,-0.63542 -2.13541,-0.63542 -1.32292,0 -1.95833,0.46875 -0.625,0.45834 -0.92709,1.63542 l -1.83333,-0.25 q 0.25,-1.17708 0.82292,-1.89583 0.57291,-0.72917 1.65625,-1.11458 1.08333,-0.39584 2.51041,-0.39584 1.41666,0 2.30208,0.33334 0.88541,0.33333 1.30208,0.84375 0.41667,0.49999 0.58333,1.27083 0.0937,0.47916 0.0937,1.72916 v 2.5 q 0,2.61458 0.11458,3.31249 0.125,0.6875 0.47917,1.32292 h -1.95833 q -0.29167,-0.58334 -0.375,-1.36459 z m -0.15625,-4.18749 q -1.02083,0.41667 -3.06249,0.70833 -1.15625,0.16667 -1.63542,0.375 -0.47916,0.20834 -0.73958,0.61459 -0.26042,0.39583 -0.26042,0.88541 0,0.75 0.5625,1.25 0.57292,0.5 1.66667,0.5 1.08333,0 1.92708,-0.46875 0.84375,-0.47917 1.23958,-1.30208 0.30208,-0.63542 0.30208,-1.875 z m 4.81249,-7.56249 v -2.15624 h 1.875 v 2.15624 z m 0,13.11457 V 175.886 h 1.875 v 11.06249 z m 4.72916,0 V 175.886 h 1.6875 v 1.57292 q 1.21875,-1.82292 3.52083,-1.82292 1,0 1.83333,0.36459 0.84375,0.35416 1.26041,0.9375 0.41667,0.58333 0.58334,1.38541 0.10416,0.52083 0.10416,1.82291 v 6.80208 h -1.87499 v -6.72916 q 0,-1.14583 -0.21875,-1.70833 -0.21875,-0.57292 -0.78125,-0.90625 -0.55209,-0.34375 -1.30208,-0.34375 -1.19792,0 -2.07292,0.76042 -0.86458,0.76041 -0.86458,2.88541 v 6.04166 z"
         id="path13" />
      <path
         style="line-height:1.25"
         d="m 514.40312,180.27141 -10.11457,4.32291 v -1.86458 l 8.01041,-3.32291 -8.01041,-3.29166 v -1.86458 l 10.11457,4.27083 z"
         id="path14" />
    </g>
  </g>
</svg>
