<?xml version="1.0" encoding="UTF-8" standalone="no"?>
<svg
   version="1.1"
   id="svg2"
   height="600"
   width="800"
   xmlns="http://www.w3.org/2000/svg"
   xmlns:svg="http://www.w3.org/2000/svg"
   xmlns:rdf="http://www.w3.org/1999/02/22-rdf-syntax-ns#"
   xmlns:cc="http://creativecommons.org/ns#"
   xmlns:dc="http://purl.org/dc/elements/1.1/">
  <defs
     id="defs4" />
  <metadata
     id="metadata7">
    <rdf:RDF>
      <cc:Work
         rdf:about="">
        <dc:format>image/svg+xml</dc:format>
        <dc:type
           rdf:resource="http://purl.org/dc/dcmitype/StillImage" />
        <dc:language>en</dc:language>
        <cc:license
           rdf:resource="https://timefold.ai/license" />
      </cc:Work>
    </rdf:RDF>
  </metadata>
  <g
     style="display:inline"
     transform="translate(0,-452.36218)"
     id="layer1">
    <path
       d="m 124.93384,245.04221 3.33594,-0.29167 q 0.23698,2.00521 1.09375,3.29948 0.875,1.27604 2.69791,2.07812 1.82292,0.78385 4.10156,0.78385 2.02344,0 3.57292,-0.60156 1.54947,-0.60156 2.29687,-1.64062 0.76562,-1.05729 0.76562,-2.29688 0,-1.25781 -0.72916,-2.18749 -0.72917,-0.94792 -2.40625,-1.58594 -1.07552,-0.41927 -4.75781,-1.29427 -3.68229,-0.89323 -5.15885,-1.67708 -1.91406,-1.0026 -2.86198,-2.47917 -0.92968,-1.49479 -0.92968,-3.33593 0,-2.02344 1.14843,-3.77344 1.14844,-1.76822 3.35417,-2.67968 2.20573,-0.91146 4.90364,-0.91146 2.97135,0 5.23177,0.96615 2.27864,0.94791 3.49999,2.80729 1.22136,1.85937 1.3125,4.21093 l -3.39062,0.25521 q -0.27344,-2.53385 -1.85937,-3.82812 -1.56771,-1.29427 -4.64844,-1.29427 -3.20833,0 -4.68489,1.18489 -1.45833,1.16667 -1.45833,2.82552 0,1.4401 1.03906,2.36979 1.02083,0.92969 5.32291,1.91406 4.32031,0.96615 5.92448,1.69531 2.33333,1.07552 3.44531,2.73437 1.11197,1.64063 1.11197,3.79167 0,2.13281 -1.22135,4.02864 -1.22135,1.8776 -3.51822,2.93489 -2.27865,1.03907 -5.14063,1.03907 -3.6276,0 -6.08853,-1.0573 -2.44271,-1.05729 -3.84635,-3.17187 -1.38542,-2.13281 -1.45834,-4.81249 z m 38.31768,1.49479 3.22656,0.41927 q -0.52865,3.33593 -2.71614,5.23176 -2.16927,1.87761 -5.34114,1.87761 -3.97396,0 -6.39844,-2.58854 -2.40624,-2.60677 -2.40624,-7.45573 0,-3.13541 1.03906,-5.48697 1.03906,-2.35156 3.15364,-3.51823 2.13281,-1.18489 4.6302,-1.18489 3.15365,0 5.15885,1.60416 2.00521,1.58594 2.57031,4.52083 l -3.1901,0.49219 q -0.45573,-1.95052 -1.62239,-2.93489 -1.14844,-0.98438 -2.78906,-0.98438 -2.47917,0 -4.02864,1.78646 -1.54948,1.76823 -1.54948,5.61458 0,3.90104 1.49479,5.66926 1.49479,1.76823 3.90104,1.76823 1.93229,0 3.22656,-1.18489 1.29427,-1.1849 1.64062,-3.64583 z m 6.03385,7.09114 V 226.9042 h 3.28125 v 9.58853 q 2.29687,-2.66145 5.79687,-2.66145 2.15104,0 3.73697,0.85677 1.58594,0.83854 2.26042,2.33333 0.69271,1.49479 0.69271,4.33854 v 12.26822 h -3.28125 v -12.26822 q 0,-2.46094 -1.07552,-3.57292 -1.05729,-1.1302 -3.00781,-1.1302 -1.45833,0 -2.7526,0.76562 -1.27604,0.7474 -1.82292,2.04167 -0.54687,1.29427 -0.54687,3.57291 v 10.59114 z m 19.54165,-9.67968 q 0,-5.3776 2.98958,-7.96614 2.49739,-2.15104 6.08854,-2.15104 3.99218,0 6.52603,2.625 2.53385,2.60676 2.53385,7.21874 0,3.73698 -1.1302,5.88802 -1.11198,2.13281 -3.26302,3.3177 -2.13281,1.1849 -4.66666,1.1849 -4.0651,0 -6.58073,-2.60677 -2.49739,-2.60677 -2.49739,-7.51041 z m 3.37239,0 q 0,3.71874 1.6224,5.57812 1.62239,1.84114 4.08333,1.84114 2.4427,0 4.0651,-1.85937 1.62239,-1.85938 1.62239,-5.66927 0,-3.59114 -1.64062,-5.43228 -1.6224,-1.85938 -4.04687,-1.85938 -2.46094,0 -4.08333,1.84115 -1.6224,1.84114 -1.6224,5.55989 z m 17.39061,0 q 0,-5.3776 2.98958,-7.96614 2.49739,-2.15104 6.08854,-2.15104 3.99218,0 6.52603,2.625 2.53385,2.60676 2.53385,7.21874 0,3.73698 -1.1302,5.88802 -1.11198,2.13281 -3.26302,3.3177 -2.13281,1.1849 -4.66666,1.1849 -4.0651,0 -6.58073,-2.60677 -2.49739,-2.60677 -2.49739,-7.51041 z m 3.37239,0 q 0,3.71874 1.6224,5.57812 1.62239,1.84114 4.08333,1.84114 2.4427,0 4.0651,-1.85937 1.62239,-1.85938 1.62239,-5.66927 0,-3.59114 -1.64062,-5.43228 -1.6224,-1.85938 -4.04687,-1.85938 -2.46094,0 -4.08333,1.84115 -1.6224,1.84114 -1.6224,5.55989 z m 18.53905,9.67968 V 226.9042 h 3.28124 v 26.72394 z m 25.90363,-2.9349 0.47395,2.89844 q -1.38541,0.29166 -2.47916,0.29166 -1.78646,0 -2.77083,-0.5651 -0.98438,-0.5651 -1.38542,-1.47656 -0.40104,-0.92969 -0.40104,-3.88281 v -11.13801 h -2.40625 v -2.55208 h 2.40625 v -4.79427 l 3.26302,-1.96875 v 6.76302 h 3.29948 v 2.55208 h -3.29948 v 11.3203 q 0,1.40365 0.16406,1.80469 0.18229,0.40104 0.56511,0.63802 0.40104,0.23698 1.1302,0.23698 0.54688,0 1.44011,-0.12761 z m 3.22656,-20.0156 v -3.77344 h 3.28125 v 3.77344 z m 0,22.9505 v -19.35936 h 3.28125 v 19.35936 z m 8.27602,0 v -19.35936 h 2.93489 v 2.71614 q 0.91146,-1.42187 2.42448,-2.27864 1.51302,-0.875 3.44531,-0.875 2.15104,0 3.51823,0.89323 1.38541,0.89323 1.95052,2.49739 2.29687,-3.39062 5.97916,-3.39062 2.8802,0 4.42968,1.60416 1.54948,1.58594 1.54948,4.90365 v 13.28905 h -3.26302 v -12.19531 q 0,-1.96874 -0.32812,-2.82551 -0.3099,-0.875 -1.14844,-1.40365 -0.83854,-0.52864 -1.96875,-0.52864 -2.04166,0 -3.39062,1.36718 -1.34896,1.34896 -1.34896,4.33854 v 11.24739 h -3.28125 v -12.57812 q 0,-2.1875 -0.80208,-3.28125 -0.80208,-1.09374 -2.625,-1.09374 -1.38541,0 -2.57031,0.72916 -1.16666,0.72917 -1.69531,2.13281 -0.52864,1.40365 -0.52864,4.04687 v 10.04427 z m 44.35153,-6.23437 3.39062,0.41927 q -0.80208,2.97135 -2.97135,4.61197 -2.16927,1.64063 -5.54166,1.64063 -4.24739,0 -6.74479,-2.60677 -2.47916,-2.625 -2.47916,-7.34635 0,-4.88541 2.51562,-7.58333 2.51563,-2.69791 6.52604,-2.69791 3.88281,0 6.34374,2.64323 2.46094,2.64322 2.46094,7.43749 0,0.29167 -0.0182,0.875 h -14.43749 q 0.18229,3.1901 1.80469,4.88541 1.62239,1.69531 4.04687,1.69531 1.80468,0 3.08073,-0.94791 1.27604,-0.94792 2.02343,-3.02604 z m -10.77343,-5.30469 h 10.80989 q -0.21875,-2.4427 -1.23958,-3.66406 -1.56771,-1.89583 -4.0651,-1.89583 -2.26042,0 -3.8099,1.51302 -1.53124,1.51302 -1.69531,4.04687 z m 25.4479,8.60416 0.47395,2.89844 q -1.38541,0.29166 -2.47916,0.29166 -1.78646,0 -2.77083,-0.5651 -0.98438,-0.5651 -1.38542,-1.47656 -0.40104,-0.92969 -0.40104,-3.88281 v -11.13801 h -2.40625 v -2.55208 h 2.40625 v -4.79427 l 3.26302,-1.96875 v 6.76302 h 3.29948 v 2.55208 h -3.29948 v 11.3203 q 0,1.40365 0.16406,1.80469 0.18229,0.40104 0.5651,0.63802 0.40105,0.23698 1.13021,0.23698 0.54688,0 1.44011,-0.12761 z m 15.84113,0.54688 q -1.82291,1.54948 -3.51822,2.1875 -1.67709,0.63802 -3.60938,0.63802 -3.1901,0 -4.90364,-1.54948 -1.71354,-1.56771 -1.71354,-3.99219 0,-1.42187 0.63802,-2.58854 0.65625,-1.18489 1.69531,-1.89583 1.05729,-0.71093 2.36979,-1.07552 0.96615,-0.25521 2.91667,-0.49218 3.97395,-0.47396 5.85155,-1.13021 0.0182,-0.67448 0.0182,-0.85677 0,-2.00521 -0.92968,-2.82552 -1.25781,-1.11198 -3.73698,-1.11198 -2.3151,0 -3.42708,0.82031 -1.09375,0.80209 -1.62239,2.86198 l -3.20833,-0.4375 q 0.43749,-2.05989 1.4401,-3.3177 1.0026,-1.27605 2.89843,-1.95052 1.89583,-0.69271 4.39323,-0.69271 2.47916,0 4.02864,0.58333 1.54948,0.58333 2.27864,1.47656 0.72917,0.875 1.02084,2.22396 0.16406,0.83854 0.16406,3.02604 v 4.37499 q 0,4.57552 0.20052,5.79687 0.21875,1.20313 0.83854,2.31511 h -3.42708 q -0.51042,-1.02084 -0.65625,-2.38802 z m -0.27344,-7.32812 q -1.78645,0.72916 -5.35937,1.23958 -2.02343,0.29167 -2.86197,0.65625 -0.83854,0.36458 -1.29427,1.07552 -0.45573,0.69271 -0.45573,1.54948 0,1.3125 0.98437,2.1875 1.00261,0.875 2.91667,0.875 1.89583,0 3.37239,-0.82032 1.47656,-0.83854 2.16927,-2.27864 0.52864,-1.11198 0.52864,-3.28125 z m 11.42968,9.71614 h -3.04427 V 226.9042 h 3.28125 v 9.53385 q 2.07812,-2.60677 5.30468,-2.60677 1.78646,0 3.37239,0.72916 1.60417,0.71094 2.625,2.02344 1.03906,1.29427 1.6224,3.13541 0.58333,1.84115 0.58333,3.9375 0,4.97656 -2.46094,7.6927 -2.46093,2.71615 -5.90624,2.71615 -3.42708,0 -5.3776,-2.86198 z m -0.0365,-9.82552 q 0,3.48177 0.94792,5.03125 1.54947,2.53385 4.1927,2.53385 2.15104,0 3.71875,-1.85937 1.56771,-1.8776 1.56771,-5.57812 0,-3.79167 -1.51302,-5.59635 -1.49479,-1.80469 -3.62761,-1.80469 -2.15104,0 -3.71874,1.87761 -1.56771,1.85937 -1.56771,5.39582 z m 17.7005,9.82552 V 226.9042 h 3.28125 v 26.72394 z m 8.38542,-22.9505 v -3.77344 h 3.28124 v 3.77344 z m 0,22.9505 v -19.35936 h 3.28124 v 19.35936 z m 8.27602,0 v -19.35936 h 2.95312 v 2.7526 q 2.13281,-3.1901 6.16145,-3.1901 1.75,0 3.20833,0.63802 1.47656,0.61979 2.20573,1.64062 0.72917,1.02083 1.02083,2.42448 0.18229,0.91146 0.18229,3.1901 v 11.90364 h -3.28124 V 241.8521 q 0,-2.0052 -0.38282,-2.98958 -0.38281,-1.0026 -1.36718,-1.58593 -0.96615,-0.60156 -2.27865,-0.60156 -2.09635,0 -3.6276,1.33072 -1.51302,1.33073 -1.51302,5.04948 v 10.57291 z m 20.16147,1.60416 3.1901,0.47396 q 0.20052,1.47656 1.11198,2.15104 1.22135,0.91146 3.33593,0.91146 2.27864,0 3.51823,-0.91146 1.23958,-0.91146 1.67708,-2.55208 0.25521,-1.0026 0.23698,-4.21094 -2.15104,2.53386 -5.35937,2.53386 -3.99219,0 -6.17969,-2.88021 -2.18749,-2.88021 -2.18749,-6.90885 0,-2.77083 1.0026,-5.10416 1.0026,-2.35156 2.89843,-3.6276 1.91407,-1.27604 4.48438,-1.27604 3.42708,0 5.65103,2.77083 v -2.33333 h 3.02604 v 16.73436 q 0,4.52083 -0.92968,6.39843 -0.91146,1.89583 -2.91667,2.98958 -1.98698,1.09375 -4.90364,1.09375 -3.46354,0 -5.59635,-1.56771 -2.13281,-1.54947 -2.05989,-4.68489 z m 2.71614,-11.6302 q 0,3.8099 1.51302,5.55989 1.51302,1.75 3.79166,1.75 2.26042,0 3.79167,-1.73177 1.53124,-1.74999 1.53124,-5.46874 0,-3.55469 -1.58593,-5.35937 -1.56771,-1.80469 -3.79167,-1.80469 -2.18749,0 -3.71874,1.78646 -1.53125,1.76823 -1.53125,5.26822 z m 41.6536,2.9349 3.22656,0.41927 q -0.52865,3.33593 -2.71615,5.23176 -2.16927,1.87761 -5.34114,1.87761 -3.97395,0 -6.39843,-2.58854 -2.40625,-2.60677 -2.40625,-7.45573 0,-3.13541 1.03906,-5.48697 1.03906,-2.35156 3.15365,-3.51823 2.13281,-1.18489 4.6302,-1.18489 3.15364,0 5.15885,1.60416 2.00521,1.58594 2.57031,4.52083 l -3.1901,0.49219 q -0.45573,-1.95052 -1.6224,-2.93489 -1.14843,-0.98438 -2.78906,-0.98438 -2.47916,0 -4.02864,1.78646 -1.54948,1.76823 -1.54948,5.61458 0,3.90104 1.49479,5.66926 1.49479,1.76823 3.90104,1.76823 1.93229,0 3.22656,-1.18489 1.29427,-1.1849 1.64063,-3.64583 z m 4.8125,-2.58854 q 0,-5.3776 2.98958,-7.96614 2.49739,-2.15104 6.08853,-2.15104 3.99219,0 6.52604,2.625 2.53385,2.60676 2.53385,7.21874 0,3.73698 -1.1302,5.88802 -1.11198,2.13281 -3.26302,3.3177 -2.13281,1.1849 -4.66667,1.1849 -4.0651,0 -6.58072,-2.60677 -2.49739,-2.60677 -2.49739,-7.51041 z m 3.37239,0 q 0,3.71874 1.62239,5.57812 1.6224,1.84114 4.08333,1.84114 2.44271,0 4.06511,-1.85937 1.62239,-1.85938 1.62239,-5.66927 0,-3.59114 -1.64062,-5.43228 -1.6224,-1.85938 -4.04688,-1.85938 -2.46093,0 -4.08333,1.84115 -1.62239,1.84114 -1.62239,5.55989 z m 23.98956,9.67968 -7.36458,-19.35936 h 3.46354 l 4.15625,11.59374 q 0.67448,1.8776 1.23958,3.90104 0.4375,-1.53125 1.22135,-3.68229 l 4.30208,-11.81249 h 3.3724 l -7.32812,19.35936 z m 13.30729,-22.9505 v -3.77344 h 3.28124 v 3.77344 z m 0,22.9505 v -19.35936 h 3.28124 v 19.35936 z m 20.8359,0 v -2.44271 q -1.84114,2.88021 -5.41405,2.88021 -2.31511,0 -4.26563,-1.27604 -1.93229,-1.27605 -3.00781,-3.55469 -1.05729,-2.29687 -1.05729,-5.26822 0,-2.89844 0.96615,-5.25 0.96614,-2.36979 2.89843,-3.6276 1.93229,-1.25781 4.32031,-1.25781 1.75,0 3.11719,0.74739 1.36718,0.72917 2.22395,1.91406 v -9.58853 h 3.26302 v 26.72394 z m -10.37238,-9.66145 q 0,3.71874 1.5677,5.55989 1.56771,1.84114 3.70052,1.84114 2.15104,0 3.64583,-1.75 1.51302,-1.76822 1.51302,-5.3776 0,-3.97395 -1.53125,-5.83332 -1.53125,-1.85938 -3.77343,-1.85938 -2.1875,0 -3.66406,1.78646 -1.45833,1.78646 -1.45833,5.63281 z m 41.58071,2.57031 3.22656,0.41927 q -0.52865,3.33593 -2.71615,5.23176 -2.16927,1.87761 -5.34114,1.87761 -3.97395,0 -6.39843,-2.58854 -2.40625,-2.60677 -2.40625,-7.45573 0,-3.13541 1.03906,-5.48697 1.03906,-2.35156 3.15365,-3.51823 2.13281,-1.18489 4.6302,-1.18489 3.15364,0 5.15885,1.60416 2.00521,1.58594 2.57031,4.52083 l -3.1901,0.49219 q -0.45573,-1.95052 -1.6224,-2.93489 -1.14843,-0.98438 -2.78906,-0.98438 -2.47916,0 -4.02864,1.78646 -1.54948,1.76823 -1.54948,5.61458 0,3.90104 1.49479,5.66926 1.49479,1.76823 3.90104,1.76823 1.93229,0 3.22656,-1.18489 1.29427,-1.1849 1.64063,-3.64583 z m 4.81247,-2.58854 q 0,-5.3776 2.98958,-7.96614 2.49739,-2.15104 6.08853,-2.15104 3.99219,0 6.52604,2.625 2.53385,2.60676 2.53385,7.21874 0,3.73698 -1.1302,5.88802 -1.11198,2.13281 -3.26302,3.3177 -2.13281,1.1849 -4.66667,1.1849 -4.0651,0 -6.58072,-2.60677 -2.49739,-2.60677 -2.49739,-7.51041 z m 3.37239,0 q 0,3.71874 1.62239,5.57812 1.6224,1.84114 4.08333,1.84114 2.44271,0 4.06511,-1.85937 1.62239,-1.85938 1.62239,-5.66927 0,-3.59114 -1.64062,-5.43228 -1.6224,-1.85938 -4.04688,-1.85938 -2.46093,0 -4.08333,1.84115 -1.62239,1.84114 -1.62239,5.55989 z m 18.61196,9.67968 v -19.35936 h 2.95312 v 2.7526 q 2.13281,-3.1901 6.16146,-3.1901 1.74999,0 3.20833,0.63802 1.47656,0.61979 2.20572,1.64062 0.72917,1.02083 1.02084,2.42448 0.18229,0.91146 0.18229,3.1901 v 11.90364 h -3.28125 V 241.8521 q 0,-2.0052 -0.38281,-2.98958 -0.38281,-1.0026 -1.36719,-1.58593 -0.96614,-0.60156 -2.27864,-0.60156 -2.09635,0 -3.6276,1.33072 -1.51302,1.33073 -1.51302,5.04948 v 10.57291 z m 19.4505,-5.77864 3.24479,-0.51042 q 0.27344,1.95052 1.51302,2.98958 1.25781,1.03906 3.5,1.03906 2.26041,0 3.35416,-0.91146 1.09375,-0.92968 1.09375,-2.16926 0,-1.11198 -0.96614,-1.75 -0.67448,-0.4375 -3.35417,-1.11198 -3.60937,-0.91146 -5.01301,-1.56771 -1.38542,-0.67448 -2.11459,-1.84114 -0.71093,-1.1849 -0.71093,-2.60677 0,-1.29427 0.58333,-2.38802 0.60156,-1.11198 1.62239,-1.84114 0.76563,-0.56511 2.07813,-0.94792 1.33073,-0.40104 2.84375,-0.40104 2.27864,0 3.99218,0.65625 1.73177,0.65625 2.55208,1.78645 0.82031,1.11198 1.13021,2.98959 l -3.20833,0.43749 q -0.21875,-1.49479 -1.27604,-2.33333 -1.03907,-0.83854 -2.95313,-0.83854 -2.26041,0 -3.22656,0.7474 -0.96614,0.74739 -0.96614,1.75 0,0.63802 0.40104,1.14843 0.40104,0.52865 1.25781,0.875 0.49219,0.18229 2.89844,0.83854 3.48176,0.92969 4.84895,1.53125 1.38542,0.58333 2.16927,1.71354 0.78385,1.13021 0.78385,2.80729 0,1.64062 -0.96614,3.09896 -0.94792,1.4401 -2.7526,2.24218 -1.80469,0.78386 -4.08333,0.78386 -3.77344,0 -5.76041,-1.56771 -1.96875,-1.56771 -2.51563,-4.64843 z m 27.14321,2.84374 0.47396,2.89844 q -1.38541,0.29166 -2.47916,0.29166 -1.78646,0 -2.77083,-0.5651 -0.98438,-0.5651 -1.38542,-1.47656 -0.40104,-0.92969 -0.40104,-3.88281 v -11.13801 h -2.40625 v -2.55208 h 2.40625 v -4.79427 l 3.26302,-1.96875 v 6.76302 h 3.29947 v 2.55208 h -3.29947 v 11.3203 q 0,1.40365 0.16406,1.80469 0.18229,0.40104 0.5651,0.63802 0.40105,0.23698 1.13021,0.23698 0.54688,0 1.4401,-0.12761 z m 3.1719,2.9349 v -19.35936 h 2.95312 v 2.93489 q 1.13021,-2.05989 2.07812,-2.71614 0.96615,-0.65625 2.11458,-0.65625 1.65886,0 3.3724,1.05729 l -1.13021,3.04427 q -1.20313,-0.71094 -2.40625,-0.71094 -1.07552,0 -1.93229,0.65625 -0.85677,0.63802 -1.22135,1.78646 -0.54688,1.75 -0.54688,3.82812 v 10.13541 z m 25.10151,-2.38802 q -1.82292,1.54948 -3.51823,2.1875 -1.67708,0.63802 -3.60937,0.63802 -3.1901,0 -4.90364,-1.54948 -1.71354,-1.56771 -1.71354,-3.99219 0,-1.42187 0.63802,-2.58854 0.65625,-1.18489 1.69531,-1.89583 1.05729,-0.71093 2.36979,-1.07552 0.96614,-0.25521 2.91666,-0.49218 3.97396,-0.47396 5.85156,-1.13021 0.0182,-0.67448 0.0182,-0.85677 0,-2.00521 -0.92969,-2.82552 -1.25781,-1.11198 -3.73697,-1.11198 -2.31511,0 -3.42708,0.82031 -1.09375,0.80209 -1.6224,2.86198 l -3.20833,-0.4375 q 0.4375,-2.05989 1.4401,-3.3177 1.00261,-1.27605 2.89844,-1.95052 1.89583,-0.69271 4.39322,-0.69271 2.47917,0 4.02865,0.58333 1.54947,0.58333 2.27864,1.47656 0.72917,0.875 1.02083,2.22396 0.16406,0.83854 0.16406,3.02604 v 4.37499 q 0,4.57552 0.20053,5.79687 0.21875,1.20313 0.83854,2.31511 h -3.42708 q -0.51042,-1.02084 -0.65625,-2.38802 z M 652.7042,243.912 q -1.78646,0.72916 -5.35937,1.23958 -2.02344,0.29167 -2.86198,0.65625 -0.83854,0.36458 -1.29427,1.07552 -0.45573,0.69271 -0.45573,1.54948 0,1.3125 0.98438,2.1875 1.0026,0.875 2.91666,0.875 1.89583,0 3.37239,-0.82032 1.47657,-0.83854 2.16927,-2.27864 0.52865,-1.11198 0.52865,-3.28125 z m 8.42186,-13.23436 v -3.77344 h 3.28125 v 3.77344 z m 0,22.9505 v -19.35936 h 3.28125 v 19.35936 z m 8.27609,0 v -19.35936 h 2.95312 v 2.7526 q 2.13281,-3.1901 6.16145,-3.1901 1.75,0 3.20833,0.63802 1.47656,0.61979 2.20573,1.64062 0.72917,1.02083 1.02083,2.42448 0.18229,0.91146 0.18229,3.1901 v 11.90364 h -3.28124 V 241.8521 q 0,-2.0052 -0.38282,-2.98958 -0.38281,-1.0026 -1.36718,-1.58593 -0.96615,-0.60156 -2.27865,-0.60156 -2.09635,0 -3.6276,1.33072 -1.51302,1.33073 -1.51302,5.04948 v 10.57291 z m 27.92705,-2.9349 0.47396,2.89844 q -1.38541,0.29166 -2.47916,0.29166 -1.78646,0 -2.77083,-0.5651 -0.98438,-0.5651 -1.38542,-1.47656 -0.40104,-0.92969 -0.40104,-3.88281 v -11.13801 h -2.40625 v -2.55208 h 2.40625 v -4.79427 l 3.26302,-1.96875 v 6.76302 h 3.29947 v 2.55208 h -3.29947 v 11.3203 q 0,1.40365 0.16406,1.80469 0.18229,0.40104 0.5651,0.63802 0.40104,0.23698 1.13021,0.23698 0.54688,0 1.4401,-0.12761 z m 1.89582,-2.84374 3.24479,-0.51042 q 0.27344,1.95052 1.51302,2.98958 1.25781,1.03906 3.5,1.03906 2.26041,0 3.35416,-0.91146 1.09375,-0.92968 1.09375,-2.16926 0,-1.11198 -0.96614,-1.75 -0.67448,-0.4375 -3.35417,-1.11198 -3.60937,-0.91146 -5.01301,-1.56771 -1.38542,-0.67448 -2.11458,-1.84114 -0.71094,-1.1849 -0.71094,-2.60677 0,-1.29427 0.58333,-2.38802 0.60156,-1.11198 1.6224,-1.84114 0.76562,-0.56511 2.07812,-0.94792 1.33073,-0.40104 2.84375,-0.40104 2.27864,0 3.99218,0.65625 1.73177,0.65625 2.55208,1.78645 0.82031,1.11198 1.13021,2.98959 l -3.20833,0.43749 q -0.21875,-1.49479 -1.27604,-2.33333 -1.03906,-0.83854 -2.95312,-0.83854 -2.26042,0 -3.22656,0.7474 -0.96615,0.74739 -0.96615,1.75 0,0.63802 0.40104,1.14843 0.40104,0.52865 1.25781,0.875 0.49219,0.18229 2.89844,0.83854 3.48177,0.92969 4.84895,1.53125 1.38542,0.58333 2.16927,1.71354 0.78386,1.13021 0.78386,2.80729 0,1.64062 -0.96615,3.09896 -0.94792,1.4401 -2.7526,2.24218 -1.80469,0.78386 -4.08333,0.78386 -3.77344,0 -5.76041,-1.56771 -1.96875,-1.56771 -2.51563,-4.64843 z"
       id="flowRoot4302"
       style="font-size:37.3333px;font-family:'Liberation Sans';-inkscape-font-specification:'Liberation Sans, Normal';text-align:center;text-anchor:middle"
       transform="translate(-20,252.36213)"
       aria-label="School timetabling covid constraints" />
    <g
       transform="translate(0,19.999997)"
       id="g3709" />
    <flowRoot
       style="font-style:normal;font-weight:normal;line-height:0.01%;font-family:sans-serif;letter-spacing:0px;word-spacing:0px;fill:#000000;fill-opacity:1;stroke:none;stroke-width:1px;stroke-linecap:butt;stroke-linejoin:miter;stroke-opacity:1"
       id="flowRoot4157"
       xml:space="preserve"><flowRegion
         style="font-family:sans-serif"
         id="flowRegion4159"><rect
           style="font-family:sans-serif"
           y="-53.932568"
           x="16.011236"
           height="72.471909"
           width="10.955056"
           id="rect4161" /></flowRegion><flowPara
         style="font-size:40px;line-height:1.25;font-family:sans-serif"
         id="flowPara4163"> </flowPara></flowRoot>
    <path
       style="font-size:16px;line-height:1.25;font-family:'Liberation Sans';-inkscape-font-specification:'Liberation Sans, Normal';text-align:center;text-anchor:middle"
       d="m 285.61328,164.41207 v -11.45312 h 3.94531 q 1.33594,0 2.03907,0.16406 0.98437,0.22656 1.67968,0.82031 0.90625,0.76563 1.35157,1.96094 0.45312,1.1875 0.45312,2.71875 0,1.30469 -0.30469,2.3125 -0.30468,1.00781 -0.78125,1.67187 -0.47656,0.65625 -1.04687,1.03907 -0.5625,0.375 -1.36719,0.57031 -0.79687,0.19531 -1.83594,0.19531 z m 1.51563,-1.35156 h 2.44531 q 1.13281,0 1.77344,-0.21094 0.64843,-0.21094 1.03125,-0.59375 0.53906,-0.53906 0.83593,-1.44531 0.30469,-0.91406 0.30469,-2.21094 0,-1.79687 -0.59375,-2.75781 -0.58594,-0.96875 -1.42969,-1.29688 -0.60937,-0.23437 -1.96093,-0.23437 h -2.40625 z m 9.33593,-2.79688 q 0,-2.30468 1.28125,-3.41406 1.07032,-0.92187 2.60938,-0.92187 1.71094,0 2.79687,1.125 1.08594,1.11718 1.08594,3.09375 0,1.60156 -0.48437,2.52343 -0.47657,0.91407 -1.39844,1.42188 -0.91406,0.50781 -2,0.50781 -1.74219,0 -2.82031,-1.11719 -1.07032,-1.11718 -1.07032,-3.21875 z m 1.44532,0 q 0,1.59375 0.69531,2.39063 0.69531,0.78906 1.75,0.78906 1.04687,0 1.74219,-0.79687 0.69531,-0.79688 0.69531,-2.42969 0,-1.53906 -0.70313,-2.32813 -0.69531,-0.79687 -1.73437,-0.79687 -1.05469,0 -1.75,0.78906 -0.69531,0.78906 -0.69531,2.38281 z m 12.42187,4.14844 v -8.29687 h 1.26563 v 1.17968 q 0.91406,-1.36718 2.64062,-1.36718 0.75,0 1.375,0.27343 0.63281,0.26563 0.94531,0.70313 0.3125,0.4375 0.4375,1.03906 0.0781,0.39063 0.0781,1.36719 v 5.10156 h -1.40625 v -5.04687 q 0,-0.85938 -0.16406,-1.28125 -0.16407,-0.42969 -0.58594,-0.67969 -0.41406,-0.25781 -0.97656,-0.25781 -0.89844,0 -1.55469,0.57031 -0.64844,0.57031 -0.64844,2.16406 v 4.53125 z m 8.375,-4.14844 q 0,-2.30468 1.28125,-3.41406 1.07031,-0.92187 2.60938,-0.92187 1.71093,0 2.79687,1.125 1.08594,1.11718 1.08594,3.09375 0,1.60156 -0.48438,2.52343 -0.47656,0.91407 -1.39843,1.42188 -0.91407,0.50781 -2,0.50781 -1.74219,0 -2.82032,-1.11719 -1.07031,-1.11718 -1.07031,-3.21875 z m 1.44531,0 q 0,1.59375 0.69532,2.39063 0.69531,0.78906 1.75,0.78906 1.04687,0 1.74218,-0.79687 0.69532,-0.79688 0.69532,-2.42969 0,-1.53906 -0.70313,-2.32813 -0.69531,-0.79687 -1.73437,-0.79687 -1.05469,0 -1.75,0.78906 -0.69532,0.78906 -0.69532,2.38281 z m 11.04688,2.89063 0.20312,1.24219 q -0.59375,0.125 -1.0625,0.125 -0.76562,0 -1.1875,-0.24219 -0.42187,-0.24219 -0.59375,-0.63281 -0.17187,-0.39844 -0.17187,-1.66407 v -4.77343 h -1.03125 v -1.09375 h 1.03125 v -2.05469 l 1.39844,-0.84375 v 2.89844 h 1.41406 v 1.09375 h -1.41406 v 4.85156 q 0,0.60156 0.0703,0.77344 0.0781,0.17187 0.24219,0.27343 0.17187,0.10157 0.48437,0.10157 0.23438,0 0.61719,-0.0547 z m 5.82031,1.25781 v -8.29687 h 1.25781 v 1.16406 q 0.39063,-0.60938 1.03907,-0.97656 0.64843,-0.375 1.47656,-0.375 0.92187,0 1.50781,0.38281 0.59375,0.38281 0.83594,1.07031 0.98437,-1.45312 2.5625,-1.45312 1.23437,0 1.89844,0.6875 0.66406,0.67968 0.66406,2.10156 v 5.69531 h -1.39844 v -5.22656 q 0,-0.84375 -0.14062,-1.21094 -0.13282,-0.375 -0.49219,-0.60156 -0.35938,-0.22656 -0.84375,-0.22656 -0.875,0 -1.45313,0.58593 -0.57812,0.57813 -0.57812,1.85938 v 4.82031 h -1.40625 v -5.39062 q 0,-0.9375 -0.34375,-1.40625 -0.34375,-0.46875 -1.125,-0.46875 -0.59375,0 -1.10156,0.3125 -0.5,0.3125 -0.72657,0.91406 -0.22656,0.60156 -0.22656,1.73437 v 4.30469 z m 12.80469,-4.14844 q 0,-2.30468 1.28125,-3.41406 1.07031,-0.92187 2.60937,-0.92187 1.71094,0 2.79688,1.125 1.08594,1.11718 1.08594,3.09375 0,1.60156 -0.48438,2.52343 -0.47656,0.91407 -1.39844,1.42188 -0.91406,0.50781 -2,0.50781 -1.74218,0 -2.82031,-1.11719 -1.07031,-1.11718 -1.07031,-3.21875 z m 1.44531,0 q 0,1.59375 0.69531,2.39063 0.69532,0.78906 1.75,0.78906 1.04688,0 1.74219,-0.79687 0.69531,-0.79688 0.69531,-2.42969 0,-1.53906 -0.70312,-2.32813 -0.69531,-0.79687 -1.73438,-0.79687 -1.05468,0 -1.75,0.78906 -0.69531,0.78906 -0.69531,2.38281 z m 10.28125,4.14844 -3.15625,-8.29687 h 1.48438 l 1.78125,4.96875 q 0.28906,0.80468 0.53125,1.67187 0.1875,-0.65625 0.52343,-1.57812 l 1.84375,-5.0625 h 1.44532 l -3.14063,8.29687 z m 11.375,-2.67187 1.45313,0.17968 q -0.34375,1.27344 -1.27344,1.97657 -0.92969,0.70312 -2.375,0.70312 -1.82031,0 -2.89063,-1.11719 -1.0625,-1.125 -1.0625,-3.14843 0,-2.09375 1.07813,-3.25 1.07812,-1.15625 2.79687,-1.15625 1.66407,0 2.71875,1.13281 1.05469,1.13281 1.05469,3.1875 0,0.125 -0.008,0.375 h -6.1875 q 0.0781,1.36719 0.77344,2.09375 0.69531,0.72656 1.73437,0.72656 0.77344,0 1.32031,-0.40625 0.54688,-0.40625 0.86719,-1.29687 z m -4.61719,-2.27344 h 4.63282 q -0.0937,-1.04688 -0.53125,-1.57031 -0.67188,-0.8125 -1.74219,-0.8125 -0.96875,0 -1.63281,0.64843 -0.65625,0.64844 -0.72657,1.73438 z m 11.71875,2.46875 1.39063,-0.21875 q 0.11719,0.83594 0.64844,1.28125 0.53906,0.44531 1.5,0.44531 0.96875,0 1.4375,-0.39062 0.46875,-0.39844 0.46875,-0.92969 0,-0.47656 -0.41407,-0.75 -0.28906,-0.1875 -1.4375,-0.47656 -1.54687,-0.39063 -2.14843,-0.67188 -0.59375,-0.28906 -0.90625,-0.78906 -0.30469,-0.50781 -0.30469,-1.11719 0,-0.55469 0.25,-1.02344 0.25781,-0.47656 0.69531,-0.78906 0.32813,-0.24219 0.89063,-0.40625 0.57031,-0.17187 1.21875,-0.17187 0.97656,0 1.71093,0.28125 0.74219,0.28125 1.09375,0.76562 0.35157,0.47656 0.48438,1.28125 l -1.375,0.1875 q -0.0937,-0.64062 -0.54688,-1 -0.44531,-0.35937 -1.26562,-0.35937 -0.96875,0 -1.38281,0.32031 -0.41407,0.32031 -0.41407,0.75 0,0.27344 0.17188,0.49219 0.17187,0.22656 0.53906,0.375 0.21094,0.0781 1.24219,0.35937 1.49219,0.39844 2.07812,0.65625 0.59375,0.25 0.92969,0.73438 0.33594,0.48437 0.33594,1.20312 0,0.70313 -0.41406,1.32813 -0.40625,0.61718 -1.17969,0.96093 -0.77344,0.33594 -1.75,0.33594 -1.61719,0 -2.46875,-0.67187 -0.84375,-0.67188 -1.07813,-1.99219 z m 11.63282,1.21875 0.20312,1.24219 q -0.59375,0.125 -1.0625,0.125 -0.76562,0 -1.1875,-0.24219 -0.42187,-0.24219 -0.59375,-0.63281 -0.17187,-0.39844 -0.17187,-1.66407 v -4.77343 h -1.03125 v -1.09375 h 1.03125 v -2.05469 l 1.39843,-0.84375 v 2.89844 h 1.41407 v 1.09375 h -1.41407 v 4.85156 q 0,0.60156 0.0703,0.77344 0.0781,0.17187 0.24218,0.27343 0.17188,0.10157 0.48438,0.10157 0.23437,0 0.61719,-0.0547 z m 6.8125,1.25781 v -1.21875 q -0.96875,1.40625 -2.63282,1.40625 -0.73437,0 -1.375,-0.28125 -0.63281,-0.28125 -0.94531,-0.70312 -0.30469,-0.42969 -0.42969,-1.04688 -0.0859,-0.41406 -0.0859,-1.3125 v -5.14062 h 1.40625 v 4.60156 q 0,1.10156 0.0859,1.48437 0.13282,0.55469 0.5625,0.875 0.42969,0.3125 1.0625,0.3125 0.63282,0 1.1875,-0.32031 0.55469,-0.32812 0.78125,-0.88281 0.23438,-0.5625 0.23438,-1.625 v -4.44531 h 1.40625 v 8.29687 z m 8.84375,0 v -1.04687 q -0.78907,1.23437 -2.32032,1.23437 -0.99218,0 -1.82812,-0.54687 -0.82813,-0.54688 -1.28906,-1.52344 -0.45313,-0.98438 -0.45313,-2.25781 0,-1.24219 0.41406,-2.25 0.41407,-1.01563 1.24219,-1.55469 0.82813,-0.53906 1.85156,-0.53906 0.75,0 1.33594,0.32031 0.58594,0.3125 0.95313,0.82031 v -4.10937 h 1.39843 v 11.45312 z m -4.44532,-4.14062 q 0,1.59375 0.67188,2.38281 0.67187,0.78906 1.58594,0.78906 0.92187,0 1.5625,-0.75 0.64843,-0.75781 0.64843,-2.30469 0,-1.70312 -0.65625,-2.5 -0.65625,-0.79687 -1.61718,-0.79687 -0.9375,0 -1.57032,0.76562 -0.625,0.76563 -0.625,2.41407 z m 13.64063,1.46875 1.45312,0.17968 q -0.34375,1.27344 -1.27343,1.97657 -0.92969,0.70312 -2.375,0.70312 -1.82032,0 -2.89063,-1.11719 -1.0625,-1.125 -1.0625,-3.14843 0,-2.09375 1.07813,-3.25 1.07812,-1.15625 2.79687,-1.15625 1.66406,0 2.71875,1.13281 1.05469,1.13281 1.05469,3.1875 0,0.125 -0.008,0.375 h -6.1875 q 0.0781,1.36719 0.77343,2.09375 0.69532,0.72656 1.73438,0.72656 0.77344,0 1.32031,-0.40625 0.54688,-0.40625 0.86719,-1.29687 z m -4.61719,-2.27344 h 4.63281 q -0.0937,-1.04688 -0.53125,-1.57031 -0.67187,-0.8125 -1.74218,-0.8125 -0.96875,0 -1.63282,0.64843 -0.65625,0.64844 -0.72656,1.73438 z m 7.83594,4.94531 v -8.29687 h 1.26562 v 1.17968 q 0.91407,-1.36718 2.64063,-1.36718 0.75,0 1.375,0.27343 0.63281,0.26563 0.94531,0.70313 0.3125,0.4375 0.4375,1.03906 0.0781,0.39063 0.0781,1.36719 v 5.10156 h -1.40625 v -5.04687 q 0,-0.85938 -0.16407,-1.28125 -0.16406,-0.42969 -0.58593,-0.67969 -0.41407,-0.25781 -0.97657,-0.25781 -0.89843,0 -1.55468,0.57031 -0.64844,0.57031 -0.64844,2.16406 v 4.53125 z m 11.96875,-1.25781 0.20312,1.24219 q -0.59375,0.125 -1.0625,0.125 -0.76562,0 -1.1875,-0.24219 -0.42187,-0.24219 -0.59375,-0.63281 -0.17187,-0.39844 -0.17187,-1.66407 v -4.77343 h -1.03125 v -1.09375 h 1.03125 v -2.05469 l 1.39844,-0.84375 v 2.89844 h 1.41406 v 1.09375 h -1.41406 v 4.85156 q 0,0.60156 0.0703,0.77344 0.0781,0.17187 0.24219,0.27343 0.17187,0.10157 0.48437,0.10157 0.23438,0 0.61719,-0.0547 z m 0.8125,-1.21875 1.39062,-0.21875 q 0.11719,0.83594 0.64844,1.28125 0.53906,0.44531 1.5,0.44531 0.96875,0 1.4375,-0.39062 0.46875,-0.39844 0.46875,-0.92969 0,-0.47656 -0.41406,-0.75 -0.28906,-0.1875 -1.4375,-0.47656 -1.54688,-0.39063 -2.14844,-0.67188 -0.59375,-0.28906 -0.90625,-0.78906 -0.30469,-0.50781 -0.30469,-1.11719 0,-0.55469 0.25,-1.02344 0.25782,-0.47656 0.69532,-0.78906 0.32812,-0.24219 0.89062,-0.40625 0.57031,-0.17187 1.21875,-0.17187 0.97656,0 1.71094,0.28125 0.74219,0.28125 1.09375,0.76562 0.35156,0.47656 0.48437,1.28125 l -1.375,0.1875 q -0.0937,-0.64062 -0.54687,-1 -0.44531,-0.35937 -1.26563,-0.35937 -0.96875,0 -1.38281,0.32031 -0.41406,0.32031 -0.41406,0.75 0,0.27344 0.17187,0.49219 0.17188,0.22656 0.53907,0.375 0.21093,0.0781 1.24218,0.35937 1.49219,0.39844 2.07813,0.65625 0.59375,0.25 0.92969,0.73438 0.33593,0.48437 0.33593,1.20312 0,0.70313 -0.41406,1.32813 -0.40625,0.61718 -1.17969,0.96093 -0.77343,0.33594 -1.75,0.33594 -1.61718,0 -2.46875,-0.67187 -0.84375,-0.67188 -1.07812,-1.99219 z m 18.42187,-0.5625 1.38282,0.17969 q -0.22657,1.42968 -1.16407,2.24218 -0.92968,0.80469 -2.28906,0.80469 -1.70312,0 -2.74219,-1.10937 -1.03125,-1.11719 -1.03125,-3.19532 0,-1.34375 0.44532,-2.35156 0.44531,-1.00781 1.35156,-1.50781 0.91406,-0.50781 1.98437,-0.50781 1.35157,0 2.21094,0.6875 0.85938,0.67968 1.10156,1.9375 l -1.36718,0.21093 q -0.19532,-0.83593 -0.69532,-1.25781 -0.49218,-0.42187 -1.19531,-0.42187 -1.0625,0 -1.72656,0.76562 -0.66406,0.75781 -0.66406,2.40625 0,1.67188 0.64062,2.42969 0.64063,0.75781 1.67188,0.75781 0.82812,0 1.38281,-0.50781 0.55469,-0.50781 0.70312,-1.5625 z m 2.0625,-1.10938 q 0,-2.30468 1.28125,-3.41406 1.07032,-0.92187 2.60938,-0.92187 1.71094,0 2.79687,1.125 1.08594,1.11718 1.08594,3.09375 0,1.60156 -0.48437,2.52343 -0.47657,0.91407 -1.39844,1.42188 -0.91406,0.50781 -2,0.50781 -1.74219,0 -2.82031,-1.11719 -1.07032,-1.11718 -1.07032,-3.21875 z m 1.44532,0 q 0,1.59375 0.69531,2.39063 0.69531,0.78906 1.75,0.78906 1.04687,0 1.74219,-0.79687 0.69531,-0.79688 0.69531,-2.42969 0,-1.53906 -0.70313,-2.32813 -0.69531,-0.79687 -1.73437,-0.79687 -1.05469,0 -1.75,0.78906 -0.69531,0.78906 -0.69531,2.38281 z m 13.41406,4.14844 v -1.21875 q -0.96875,1.40625 -2.63281,1.40625 -0.73438,0 -1.375,-0.28125 -0.63282,-0.28125 -0.94532,-0.70312 -0.30468,-0.42969 -0.42968,-1.04688 -0.0859,-0.41406 -0.0859,-1.3125 v -5.14062 h 1.40625 v 4.60156 q 0,1.10156 0.0859,1.48437 0.13281,0.55469 0.5625,0.875 0.42968,0.3125 1.0625,0.3125 0.63281,0 1.1875,-0.32031 0.55468,-0.32812 0.78125,-0.88281 0.23437,-0.5625 0.23437,-1.625 v -4.44531 h 1.40625 v 8.29687 z m 3.46094,0 v -8.29687 h 1.26562 v 1.17968 q 0.91406,-1.36718 2.64063,-1.36718 0.75,0 1.375,0.27343 0.63281,0.26563 0.94531,0.70313 0.3125,0.4375 0.4375,1.03906 0.0781,0.39063 0.0781,1.36719 v 5.10156 h -1.40625 v -5.04687 q 0,-0.85938 -0.16406,-1.28125 -0.16406,-0.42969 -0.58594,-0.67969 -0.41406,-0.25781 -0.97656,-0.25781 -0.89844,0 -1.55469,0.57031 -0.64843,0.57031 -0.64843,2.16406 v 4.53125 z m 11.96875,-1.25781 0.20312,1.24219 q -0.59375,0.125 -1.0625,0.125 -0.76562,0 -1.1875,-0.24219 -0.42187,-0.24219 -0.59375,-0.63281 -0.17187,-0.39844 -0.17187,-1.66407 v -4.77343 h -1.03125 v -1.09375 h 1.03125 v -2.05469 l 1.39843,-0.84375 v 2.89844 h 1.41407 v 1.09375 h -1.41407 v 4.85156 q 0,0.60156 0.0703,0.77344 0.0781,0.17187 0.24218,0.27343 0.17188,0.10157 0.48438,0.10157 0.23437,0 0.61719,-0.0547 z m 7.05468,-1.41406 1.45313,0.17968 q -0.34375,1.27344 -1.27344,1.97657 -0.92969,0.70312 -2.375,0.70312 -1.82031,0 -2.89062,-1.11719 -1.0625,-1.125 -1.0625,-3.14843 0,-2.09375 1.07812,-3.25 1.07813,-1.15625 2.79688,-1.15625 1.66406,0 2.71875,1.13281 1.05468,1.13281 1.05468,3.1875 0,0.125 -0.008,0.375 h -6.1875 q 0.0781,1.36719 0.77344,2.09375 0.69531,0.72656 1.73437,0.72656 0.77344,0 1.32032,-0.40625 0.54687,-0.40625 0.86718,-1.29687 z m -4.61718,-2.27344 h 4.63281 q -0.0937,-1.04688 -0.53125,-1.57031 -0.67188,-0.8125 -1.74219,-0.8125 -0.96875,0 -1.63281,0.64843 -0.65625,0.64844 -0.72656,1.73438 z m 7.82031,4.94531 v -8.29687 h 1.26562 v 1.25781 q 0.48438,-0.88281 0.89063,-1.16406 0.41406,-0.28125 0.90625,-0.28125 0.71094,0 1.44531,0.45312 l -0.48437,1.30469 q -0.51563,-0.30469 -1.03125,-0.30469 -0.46094,0 -0.82813,0.28125 -0.36719,0.27344 -0.52344,0.76563 -0.23437,0.75 -0.23437,1.64062 v 4.34375 z m 9.22656,-2.47656 1.39063,-0.21875 q 0.11718,0.83594 0.64843,1.28125 0.53907,0.44531 1.5,0.44531 0.96875,0 1.4375,-0.39062 0.46875,-0.39844 0.46875,-0.92969 0,-0.47656 -0.41406,-0.75 -0.28906,-0.1875 -1.4375,-0.47656 -1.54687,-0.39063 -2.14844,-0.67188 -0.59375,-0.28906 -0.90625,-0.78906 -0.30468,-0.50781 -0.30468,-1.11719 0,-0.55469 0.25,-1.02344 0.25781,-0.47656 0.69531,-0.78906 0.32812,-0.24219 0.89062,-0.40625 0.57032,-0.17187 1.21875,-0.17187 0.97657,0 1.71094,0.28125 0.74219,0.28125 1.09375,0.76562 0.35156,0.47656 0.48438,1.28125 l -1.375,0.1875 q -0.0937,-0.64062 -0.54688,-1 -0.44531,-0.35937 -1.26562,-0.35937 -0.96875,0 -1.38282,0.32031 -0.41406,0.32031 -0.41406,0.75 0,0.27344 0.17188,0.49219 0.17187,0.22656 0.53906,0.375 0.21094,0.0781 1.24219,0.35937 1.49218,0.39844 2.07812,0.65625 0.59375,0.25 0.92969,0.73438 0.33594,0.48437 0.33594,1.20312 0,0.70313 -0.41407,1.32813 -0.40625,0.61718 -1.17968,0.96093 -0.77344,0.33594 -1.75,0.33594 -1.61719,0 -2.46875,-0.67187 -0.84375,-0.67188 -1.07813,-1.99219 z m 11.63281,1.21875 0.20313,1.24219 q -0.59375,0.125 -1.0625,0.125 -0.76563,0 -1.1875,-0.24219 -0.42188,-0.24219 -0.59375,-0.63281 -0.17188,-0.39844 -0.17188,-1.66407 v -4.77343 h -1.03125 v -1.09375 h 1.03125 v -2.05469 l 1.39844,-0.84375 v 2.89844 h 1.41406 v 1.09375 h -1.41406 v 4.85156 q 0,0.60156 0.0703,0.77344 0.0781,0.17187 0.24219,0.27343 0.17188,0.10157 0.48438,0.10157 0.23437,0 0.61718,-0.0547 z m 1.35938,1.25781 v -8.29687 h 1.26562 v 1.25781 q 0.48438,-0.88281 0.89063,-1.16406 0.41406,-0.28125 0.90625,-0.28125 0.71094,0 1.44531,0.45312 l -0.48437,1.30469 q -0.51563,-0.30469 -1.03125,-0.30469 -0.46094,0 -0.82813,0.28125 -0.36719,0.27344 -0.52344,0.76563 -0.23437,0.75 -0.23437,1.64062 v 4.34375 z m 11.02344,-2.67187 1.45312,0.17968 q -0.34375,1.27344 -1.27344,1.97657 -0.92968,0.70312 -2.375,0.70312 -1.82031,0 -2.89062,-1.11719 -1.0625,-1.125 -1.0625,-3.14843 0,-2.09375 1.07812,-3.25 1.07813,-1.15625 2.79688,-1.15625 1.66406,0 2.71875,1.13281 1.05469,1.13281 1.05469,3.1875 0,0.125 -0.008,0.375 h -6.1875 q 0.0781,1.36719 0.77344,2.09375 0.69531,0.72656 1.73438,0.72656 0.77343,0 1.32031,-0.40625 0.54687,-0.40625 0.86719,-1.29687 z m -4.61719,-2.27344 h 4.63281 q -0.0937,-1.04688 -0.53125,-1.57031 -0.67187,-0.8125 -1.74219,-0.8125 -0.96875,0 -1.63281,0.64843 -0.65625,0.64844 -0.72656,1.73438 z m 13.25,3.92187 q -0.78125,0.66407 -1.50781,0.9375 -0.71875,0.27344 -1.54688,0.27344 -1.36719,0 -2.10156,-0.66406 -0.73438,-0.67188 -0.73438,-1.71094 0,-0.60937 0.27344,-1.10937 0.28125,-0.50782 0.72656,-0.8125 0.45313,-0.30469 1.01563,-0.46094 0.41406,-0.10938 1.25,-0.21094 1.70312,-0.20312 2.50781,-0.48437 0.008,-0.28907 0.008,-0.36719 0,-0.85938 -0.39843,-1.21094 -0.53907,-0.47656 -1.60157,-0.47656 -0.99218,0 -1.46875,0.35156 -0.46875,0.34375 -0.69531,1.22656 l -1.375,-0.1875 q 0.1875,-0.88281 0.61719,-1.42187 0.42969,-0.54688 1.24219,-0.83594 0.8125,-0.29687 1.88281,-0.29687 1.0625,0 1.72656,0.25 0.66406,0.25 0.97656,0.63281 0.3125,0.375 0.4375,0.95312 0.0703,0.35938 0.0703,1.29688 v 1.875 q 0,1.96094 0.0859,2.48437 0.0937,0.51563 0.35938,0.99219 h -1.46875 q -0.21875,-0.4375 -0.28125,-1.02344 z m -0.11719,-3.14062 q -0.76562,0.3125 -2.29687,0.53125 -0.86719,0.125 -1.22657,0.28125 -0.35937,0.15625 -0.55468,0.46094 -0.19532,0.29687 -0.19532,0.66406 0,0.5625 0.42188,0.9375 0.42969,0.375 1.25,0.375 0.8125,0 1.44531,-0.35156 0.63281,-0.35938 0.92969,-0.97657 0.22656,-0.47656 0.22656,-1.40625 z m 3.60156,4.16406 v -8.29687 h 1.25782 v 1.16406 q 0.39062,-0.60938 1.03906,-0.97656 0.64844,-0.375 1.47656,-0.375 0.92188,0 1.50781,0.38281 0.59375,0.38281 0.83594,1.07031 0.98438,-1.45312 2.5625,-1.45312 1.23438,0 1.89844,0.6875 0.66406,0.67968 0.66406,2.10156 v 5.69531 h -1.39844 v -5.22656 q 0,-0.84375 -0.14062,-1.21094 -0.13281,-0.375 -0.49219,-0.60156 -0.35937,-0.22656 -0.84375,-0.22656 -0.875,0 -1.45312,0.58593 -0.57813,0.57813 -0.57813,1.85938 v 4.82031 h -1.40625 v -5.39062 q 0,-0.9375 -0.34375,-1.40625 -0.34375,-0.46875 -1.125,-0.46875 -0.59375,0 -1.10156,0.3125 -0.5,0.3125 -0.72656,0.91406 -0.22657,0.60156 -0.22657,1.73437 v 4.30469 z m 13.72657,0 v -1.60156 h 1.60156 v 1.60156 z"
       id="flowRoot4302-6"
       transform="translate(-20,372.36182)"
       aria-label="Do not move students counter stream." />
    <flowRoot
       style="color:#000000;font-style:normal;font-variant:normal;font-weight:normal;font-stretch:normal;font-size:16px;font-family:Arial;-inkscape-font-specification:Arial;text-align:center;writing-mode:lr-tb;text-anchor:middle;display:inline;overflow:visible;visibility:visible;opacity:1;vector-effect:none;fill:#a40000;fill-opacity:1;fill-rule:nonzero;stroke:#8f5902;stroke-width:3;stroke-linecap:round;stroke-linejoin:round;stroke-miterlimit:4;stroke-dasharray:none;stroke-dashoffset:0;stroke-opacity:1;marker:none;enable-background:accumulate"
       id="flowRoot937"
       xml:space="preserve"><flowRegion
         id="flowRegion939"><rect
           y="141.03894"
           x="-94.285713"
           height="116.1039"
           width="52.987019"
           id="rect941" /></flowRegion><flowPara
         id="flowPara943" /></flowRoot>
    <g
       transform="translate(-139.99998)"
       id="g1459">
      <path
         style="font-weight:bold;font-size:16px;line-height:1.25;font-family:'Liberation Sans';-inkscape-font-specification:'Liberation Sans, Normal';text-align:center;text-anchor:middle"
         d="m 270.19531,192.43941 v -11.45312 h 4.86719 q 1.83594,0 2.66406,0.3125 0.83594,0.30469 1.33594,1.09375 0.5,0.78906 0.5,1.80469 0,1.28906 -0.75781,2.13281 -0.75782,0.83594 -2.26563,1.05469 0.75,0.4375 1.23438,0.96093 0.49218,0.52344 1.32031,1.85938 l 1.39844,2.23437 h -2.76563 l -1.67187,-2.49218 q -0.89063,-1.33594 -1.21875,-1.67969 -0.32813,-0.35156 -0.69532,-0.47656 -0.36718,-0.13282 -1.16406,-0.13282 h -0.46875 v 4.78125 z m 2.3125,-6.60937 h 1.71094 q 1.66406,0 2.07812,-0.14063 0.41407,-0.14062 0.64844,-0.48437 0.23438,-0.34375 0.23438,-0.85938 0,-0.57812 -0.3125,-0.92968 -0.30469,-0.35938 -0.86719,-0.45313 -0.28125,-0.0391 -1.6875,-0.0391 h -1.80469 z m 8.71094,2.34375 q 0,-1.09375 0.53906,-2.11719 0.53906,-1.02344 1.52344,-1.5625 0.99219,-0.53906 2.21094,-0.53906 1.88281,0 3.08593,1.22656 1.20313,1.21875 1.20313,3.08594 0,1.88281 -1.21875,3.125 -1.21094,1.23437 -3.05469,1.23437 -1.14062,0 -2.17969,-0.51562 -1.03125,-0.51563 -1.57031,-1.50781 -0.53906,-1 -0.53906,-2.42969 z m 2.25,0.11719 q 0,1.23437 0.58594,1.89062 0.58593,0.65625 1.44531,0.65625 0.85937,0 1.4375,-0.65625 0.58594,-0.65625 0.58594,-1.90625 0,-1.21875 -0.58594,-1.875 -0.57813,-0.65625 -1.4375,-0.65625 -0.85938,0 -1.44531,0.65625 -0.58594,0.65625 -0.58594,1.89063 z m 7.52344,-0.11719 q 0,-1.09375 0.53906,-2.11719 0.53906,-1.02344 1.52344,-1.5625 0.99218,-0.53906 2.21093,-0.53906 1.88282,0 3.08594,1.22656 1.20313,1.21875 1.20313,3.08594 0,1.88281 -1.21875,3.125 -1.21094,1.23437 -3.05469,1.23437 -1.14063,0 -2.17969,-0.51562 -1.03125,-0.51563 -1.57031,-1.50781 -0.53906,-1 -0.53906,-2.42969 z m 2.25,0.11719 q 0,1.23437 0.58593,1.89062 0.58594,0.65625 1.44532,0.65625 0.85937,0 1.4375,-0.65625 0.58593,-0.65625 0.58593,-1.90625 0,-1.21875 -0.58593,-1.875 -0.57813,-0.65625 -1.4375,-0.65625 -0.85938,0 -1.44532,0.65625 -0.58593,0.65625 -0.58593,1.89063 z m 7.86718,-4.14844 h 2.02344 v 1.13281 q 1.08594,-1.32031 2.58594,-1.32031 0.79687,0 1.38281,0.32812 0.58594,0.32813 0.96094,0.99219 0.54687,-0.66406 1.17969,-0.99219 0.63281,-0.32812 1.35156,-0.32812 0.91406,0 1.54687,0.375 0.63282,0.36719 0.94532,1.08594 0.22656,0.53125 0.22656,1.71875 v 5.30468 h -2.19531 v -4.74218 q 0,-1.23438 -0.22657,-1.59375 -0.30468,-0.46875 -0.9375,-0.46875 -0.46093,0 -0.86718,0.28125 -0.40625,0.28125 -0.58594,0.82812 -0.17969,0.53906 -0.17969,1.71094 v 3.98437 H 306.125 v -4.54687 q 0,-1.21094 -0.11719,-1.5625 -0.11719,-0.35156 -0.36719,-0.52344 -0.24218,-0.17187 -0.66406,-0.17187 -0.50781,0 -0.91406,0.27343 -0.40625,0.27344 -0.58594,0.78907 -0.17187,0.51562 -0.17187,1.71093 v 4.03125 h -2.19532 z m 28.58594,8.29687 h -2.51562 l -1,-2.60156 h -4.57813 l -0.94531,2.60156 h -2.45313 l 4.46094,-11.45312 h 2.44531 z m -4.25781,-4.53125 -1.57813,-4.25 -1.54687,4.25 z"
         id="flowRoot1463"
         transform="translate(190.28513,435.34849)"
         aria-label="Room A" />
      <path
         style="font-weight:bold;font-size:16px;line-height:1.25;font-family:'Liberation Sans';-inkscape-font-specification:'Liberation Sans, Normal';text-align:center;text-anchor:middle"
         d="m 440.14844,192.43941 v -11.45312 h 4.86718 q 1.83594,0 2.66407,0.3125 0.83593,0.30469 1.33593,1.09375 0.5,0.78906 0.5,1.80469 0,1.28906 -0.75781,2.13281 -0.75781,0.83594 -2.26562,1.05469 0.75,0.4375 1.23437,0.96093 0.49219,0.52344 1.32031,1.85938 l 1.39844,2.23437 h -2.76562 l -1.67188,-2.49218 q -0.89062,-1.33594 -1.21875,-1.67969 -0.32812,-0.35156 -0.69531,-0.47656 -0.36719,-0.13282 -1.16406,-0.13282 h -0.46875 v 4.78125 z m 2.3125,-6.60937 h 1.71093 q 1.66407,0 2.07813,-0.14063 0.41406,-0.14062 0.64844,-0.48437 0.23437,-0.34375 0.23437,-0.85938 0,-0.57812 -0.3125,-0.92968 -0.30469,-0.35938 -0.86719,-0.45313 -0.28125,-0.0391 -1.6875,-0.0391 h -1.80468 z m 8.71093,2.34375 q 0,-1.09375 0.53907,-2.11719 0.53906,-1.02344 1.52343,-1.5625 0.99219,-0.53906 2.21094,-0.53906 1.88281,0 3.08594,1.22656 1.20312,1.21875 1.20312,3.08594 0,1.88281 -1.21875,3.125 -1.21093,1.23437 -3.05468,1.23437 -1.14063,0 -2.17969,-0.51562 -1.03125,-0.51563 -1.57031,-1.50781 -0.53907,-1 -0.53907,-2.42969 z m 2.25,0.11719 q 0,1.23437 0.58594,1.89062 0.58594,0.65625 1.44531,0.65625 0.85938,0 1.4375,-0.65625 0.58594,-0.65625 0.58594,-1.90625 0,-1.21875 -0.58594,-1.875 -0.57812,-0.65625 -1.4375,-0.65625 -0.85937,0 -1.44531,0.65625 -0.58594,0.65625 -0.58594,1.89063 z m 7.52344,-0.11719 q 0,-1.09375 0.53906,-2.11719 0.53907,-1.02344 1.52344,-1.5625 0.99219,-0.53906 2.21094,-0.53906 1.88281,0 3.08594,1.22656 1.20312,1.21875 1.20312,3.08594 0,1.88281 -1.21875,3.125 -1.21094,1.23437 -3.05469,1.23437 -1.14062,0 -2.17968,-0.51562 -1.03125,-0.51563 -1.57032,-1.50781 -0.53906,-1 -0.53906,-2.42969 z m 2.25,0.11719 q 0,1.23437 0.58594,1.89062 0.58594,0.65625 1.44531,0.65625 0.85938,0 1.4375,-0.65625 0.58594,-0.65625 0.58594,-1.90625 0,-1.21875 -0.58594,-1.875 -0.57812,-0.65625 -1.4375,-0.65625 -0.85937,0 -1.44531,0.65625 -0.58594,0.65625 -0.58594,1.89063 z m 7.86719,-4.14844 h 2.02344 v 1.13281 q 1.08593,-1.32031 2.58593,-1.32031 0.79688,0 1.38282,0.32812 0.58593,0.32813 0.96093,0.99219 0.54688,-0.66406 1.17969,-0.99219 0.63281,-0.32812 1.35156,-0.32812 0.91407,0 1.54688,0.375 0.63281,0.36719 0.94531,1.08594 0.22656,0.53125 0.22656,1.71875 v 5.30468 h -2.19531 v -4.74218 q 0,-1.23438 -0.22656,-1.59375 -0.30469,-0.46875 -0.9375,-0.46875 -0.46094,0 -0.86719,0.28125 -0.40625,0.28125 -0.58594,0.82812 -0.17968,0.53906 -0.17968,1.71094 v 3.98437 h -2.19532 v -4.54687 q 0,-1.21094 -0.11718,-1.5625 -0.11719,-0.35156 -0.36719,-0.52344 -0.24219,-0.17187 -0.66406,-0.17187 -0.50782,0 -0.91407,0.27343 -0.40625,0.27344 -0.58593,0.78907 -0.17188,0.51562 -0.17188,1.71093 v 4.03125 h -2.19531 z m 26.17969,4.08594 2.24218,0.71093 q -0.51562,1.875 -1.71875,2.78907 -1.19531,0.90625 -3.03906,0.90625 -2.28125,0 -3.75,-1.55469 -1.46875,-1.5625 -1.46875,-4.26563 0,-2.85937 1.47656,-4.4375 1.47657,-1.58593 3.88282,-1.58593 2.10156,0 3.41406,1.24218 0.78125,0.73438 1.17187,2.10938 l -2.28906,0.54687 q -0.20312,-0.89062 -0.85156,-1.40625 -0.64063,-0.51562 -1.5625,-0.51562 -1.27344,0 -2.07031,0.91406 -0.78907,0.91406 -0.78907,2.96094 0,2.17187 0.78125,3.09375 0.78125,0.92187 2.03125,0.92187 0.92188,0 1.58594,-0.58593 0.66406,-0.58594 0.95313,-1.84375 z"
         id="flowRoot1471"
         transform="translate(120.04297,435.34849)"
         aria-label="Room C" />
      <rect
         y="582.86212"
         x="440.49997"
         height="79"
         width="99"
         id="rect1345"
         style="fill:none;stroke:#000000;stroke-width:2;stroke-linecap:round;stroke-linejoin:round;stroke-miterlimit:4;stroke-dasharray:none" />
      <rect
         style="fill:none;stroke:#000000;stroke-width:2;stroke-linecap:round;stroke-linejoin:round;stroke-miterlimit:4;stroke-dasharray:none"
         id="rect1525"
         width="159"
         height="79"
         x="460.5"
         y="702.86218" />
      <rect
         style="fill:none;stroke:#000000;stroke-width:2;stroke-linecap:round;stroke-linejoin:round;stroke-miterlimit:4;stroke-dasharray:none"
         id="rect1537"
         width="99"
         height="79"
         x="540.5"
         y="582.86218" />
      <path
         style="font-weight:bold;font-size:16px;line-height:1.25;font-family:'Liberation Sans';-inkscape-font-specification:'Liberation Sans, Normal';text-align:center;text-anchor:middle"
         d="m 269.89844,192.43941 v -11.45312 h 4.86718 q 1.83594,0 2.66407,0.3125 0.83593,0.30469 1.33593,1.09375 0.5,0.78906 0.5,1.80469 0,1.28906 -0.75781,2.13281 -0.75781,0.83594 -2.26562,1.05469 0.75,0.4375 1.23437,0.96093 0.49219,0.52344 1.32031,1.85938 l 1.39844,2.23437 h -2.76562 l -1.67188,-2.49218 q -0.89062,-1.33594 -1.21875,-1.67969 -0.32812,-0.35156 -0.69531,-0.47656 -0.36719,-0.13282 -1.16406,-0.13282 h -0.46875 v 4.78125 z m 2.3125,-6.60937 h 1.71093 q 1.66407,0 2.07813,-0.14063 0.41406,-0.14062 0.64844,-0.48437 0.23437,-0.34375 0.23437,-0.85938 0,-0.57812 -0.3125,-0.92968 -0.30469,-0.35938 -0.86719,-0.45313 -0.28125,-0.0391 -1.6875,-0.0391 h -1.80468 z m 8.71093,2.34375 q 0,-1.09375 0.53907,-2.11719 0.53906,-1.02344 1.52343,-1.5625 0.99219,-0.53906 2.21094,-0.53906 1.88281,0 3.08594,1.22656 1.20312,1.21875 1.20312,3.08594 0,1.88281 -1.21875,3.125 -1.21093,1.23437 -3.05468,1.23437 -1.14063,0 -2.17969,-0.51562 -1.03125,-0.51563 -1.57031,-1.50781 -0.53907,-1 -0.53907,-2.42969 z m 2.25,0.11719 q 0,1.23437 0.58594,1.89062 0.58594,0.65625 1.44531,0.65625 0.85938,0 1.4375,-0.65625 0.58594,-0.65625 0.58594,-1.90625 0,-1.21875 -0.58594,-1.875 -0.57812,-0.65625 -1.4375,-0.65625 -0.85937,0 -1.44531,0.65625 -0.58594,0.65625 -0.58594,1.89063 z m 7.52344,-0.11719 q 0,-1.09375 0.53906,-2.11719 0.53907,-1.02344 1.52344,-1.5625 0.99219,-0.53906 2.21094,-0.53906 1.88281,0 3.08594,1.22656 1.20312,1.21875 1.20312,3.08594 0,1.88281 -1.21875,3.125 -1.21094,1.23437 -3.05469,1.23437 -1.14062,0 -2.17968,-0.51562 -1.03125,-0.51563 -1.57032,-1.50781 -0.53906,-1 -0.53906,-2.42969 z m 2.25,0.11719 q 0,1.23437 0.58594,1.89062 0.58594,0.65625 1.44531,0.65625 0.85938,0 1.4375,-0.65625 Q 297,189.52535 297,188.27535 q 0,-1.21875 -0.58594,-1.875 -0.57812,-0.65625 -1.4375,-0.65625 -0.85937,0 -1.44531,0.65625 -0.58594,0.65625 -0.58594,1.89063 z m 7.86719,-4.14844 h 2.02344 v 1.13281 q 1.08593,-1.32031 2.58593,-1.32031 0.79688,0 1.38282,0.32812 0.58593,0.32813 0.96093,0.99219 0.54688,-0.66406 1.17969,-0.99219 0.63281,-0.32812 1.35156,-0.32812 0.91407,0 1.54688,0.375 0.63281,0.36719 0.94531,1.08594 0.22656,0.53125 0.22656,1.71875 v 5.30468 h -2.19531 v -4.74218 q 0,-1.23438 -0.22656,-1.59375 -0.30469,-0.46875 -0.9375,-0.46875 -0.46094,0 -0.86719,0.28125 -0.40625,0.28125 -0.58594,0.82812 -0.17968,0.53906 -0.17968,1.71094 v 3.98437 h -2.19532 v -4.54687 q 0,-1.21094 -0.11718,-1.5625 -0.11719,-0.35156 -0.36719,-0.52344 -0.24219,-0.17187 -0.66406,-0.17187 -0.50782,0 -0.91407,0.27343 -0.40625,0.27344 -0.58593,0.78907 -0.17188,0.51562 -0.17188,1.71093 v 4.03125 h -2.19531 z m 18.85937,-3.15625 H 324.25 q 1.35937,0 2.02344,0.11719 0.67187,0.10937 1.19531,0.46875 0.53125,0.35937 0.88281,0.96093 0.35156,0.59375 0.35156,1.33594 0,0.80469 -0.4375,1.47656 -0.42968,0.67188 -1.17187,1.00782 1.04687,0.30468 1.60937,1.03906 0.5625,0.73437 0.5625,1.72656 0,0.78125 -0.36718,1.52344 -0.35938,0.73437 -0.99219,1.17969 -0.625,0.4375 -1.54688,0.53906 -0.57812,0.0625 -2.78906,0.0781 h -3.89844 z m 2.3125,1.90625 v 2.64844 H 323.5 q 1.35156,0 1.67969,-0.0391 0.59375,-0.0703 0.92968,-0.40625 0.34375,-0.34375 0.34375,-0.89843 0,-0.53125 -0.29687,-0.85938 -0.28906,-0.33594 -0.86719,-0.40625 -0.34375,-0.0391 -1.97656,-0.0391 z m 0,4.55469 v 3.0625 h 2.14063 q 1.25,0 1.58594,-0.0703 0.51562,-0.0937 0.83593,-0.45312 0.32813,-0.36719 0.32813,-0.97656 0,-0.51563 -0.25,-0.875 -0.25,-0.35938 -0.72656,-0.52344 -0.46875,-0.16406 -2.04688,-0.16406 z"
         id="flowRoot575"
         transform="translate(240.28516,555.34855)"
         aria-label="Room B" />
      <rect
         style="color:#000000;overflow:visible;fill:#ffffff;fill-opacity:1;stroke:none;stroke-width:2;stroke-linecap:round;stroke-linejoin:round"
         id="rect583"
         width="20"
         height="20"
         x="530"
         y="692.36218" />
      <rect
         style="color:#000000;overflow:visible;fill:#ffffff;fill-opacity:1;stroke:none;stroke-width:2;stroke-linecap:round;stroke-linejoin:round"
         id="rect585"
         width="20"
         height="24.104053"
         x="500"
         y="652.36218" />
      <rect
         style="color:#000000;overflow:visible;fill:#ffffff;fill-opacity:1;stroke:none;stroke-width:2;stroke-linecap:round;stroke-linejoin:round"
         id="rect587"
         width="20"
         height="20"
         x="600"
         y="652.36218" />
      <path
         style="color:#000000;overflow:visible;fill:none;fill-opacity:1;stroke:#000000;stroke-width:2;stroke-linecap:round;stroke-linejoin:round;stroke-miterlimit:4;stroke-dasharray:none;stroke-opacity:1"
         d="m 440.5,702.86218 h 20"
         id="path589" />
      <path
         id="path1414"
         d="m 619.5,702.86218 h 20"
         style="color:#000000;overflow:visible;fill:none;fill-opacity:1;stroke:#000000;stroke-width:2;stroke-linecap:round;stroke-linejoin:round;stroke-miterlimit:4;stroke-dasharray:none;stroke-opacity:1" />
      <path
         style="color:#000000;overflow:visible;fill:none;fill-opacity:1;stroke:#3465a4;stroke-width:2;stroke-linecap:round;stroke-linejoin:round;stroke-miterlimit:4;stroke-dasharray:none;stroke-opacity:1"
         d="m 479.99998,682.36218 120.00002,0"
         id="path1416" />
      <path
         style="color:#000000;overflow:visible;fill:none;fill-opacity:1;stroke:#3465a4;stroke-width:2;stroke-linecap:round;stroke-linejoin:round;stroke-miterlimit:4;stroke-dasharray:none;stroke-opacity:1"
         d="m 590,672.36218 10,10 -10,10"
         id="path1418" />
    </g>
  </g>
</svg>
