<?xml version="1.0" encoding="UTF-8" standalone="no"?>
<svg
   width="800"
   height="600"
   id="svg2"
   version="1.1"
   xmlns:xlink="http://www.w3.org/1999/xlink"
   xmlns="http://www.w3.org/2000/svg"
   xmlns:svg="http://www.w3.org/2000/svg"
   xmlns:rdf="http://www.w3.org/1999/02/22-rdf-syntax-ns#"
   xmlns:cc="http://creativecommons.org/ns#"
   xmlns:dc="http://purl.org/dc/elements/1.1/">
  <defs
     id="defs4">
    <linearGradient
       id="linearGradient20">
      <stop
         style="stop-color:#888a85;stop-opacity:1;"
         offset="0"
         id="stop21" />
      <stop
         style="stop-color:#888a85;stop-opacity:0;"
         offset="1"
         id="stop23" />
    </linearGradient>
    <linearGradient
       xlink:href="#linearGradient20"
       id="linearGradient13"
       gradientUnits="userSpaceOnUse"
       gradientTransform="matrix(0.99994873,0,0,1.25,-879.93719,-83.744722)"
       x1="200"
       y1="667.36218"
       x2="180"
       y2="667.36218" />
    <linearGradient
       xlink:href="#linearGradient20"
       id="linearGradient14"
       gradientUnits="userSpaceOnUse"
       gradientTransform="matrix(0.99994873,0,0,1.25,-20.016666,-83.744722)"
       x1="200"
       y1="667.36218"
       x2="180"
       y2="667.36218" />
    <marker
       style="overflow:visible"
       id="ArrowTriangleStylized-4"
       refX="0"
       refY="0"
       orient="auto-start-reverse"
       markerWidth="1"
       markerHeight="1"
       viewBox="0 0 1 1"
       preserveAspectRatio="xMidYMid">
      <path
         transform="scale(0.5)"
         style="fill:currentColor;fill:context-stroke;fill-rule:evenodd;stroke:context-stroke;stroke-width:1pt"
         d="m 6,0 c -3,1 -7,3 -9,5 0,0 0,-4 2,-5 -2,-1 -2,-5 -2,-5 2,2 6,4 9,5 z"
         id="path4-4" />
    </marker>
    <marker
       style="overflow:visible"
       id="ArrowTriangleStylized-4_reversed"
       refX="0"
       refY="0"
       orient="auto"
       markerWidth="1"
       markerHeight="1"
       viewBox="0 0 1 1"
       preserveAspectRatio="xMidYMid">
      <g
         transform="rotate(180,0,0)"
         id="g1">
        <path
           transform="scale(0.5)"
           style="fill:currentColor;fill:context-stroke;fill-rule:evenodd;stroke:context-stroke;stroke-width:1pt"
           d="m 6,0 c -3,1 -7,3 -9,5 0,0 0,-4 2,-5 -2,-1 -2,-5 -2,-5 2,2 6,4 9,5 z"
           id="path1" />
      </g>
    </marker>
  </defs>
  <metadata
     id="metadata7">
    <rdf:RDF>
      <cc:Work
         rdf:about="">
        <dc:format>image/svg+xml</dc:format>
        <dc:type
           rdf:resource="http://purl.org/dc/dcmitype/StillImage" />
        <dc:language>en</dc:language>
        <cc:license
           rdf:resource="https://timefold.ai/product/license/" />
      </cc:Work>
    </rdf:RDF>
  </metadata>
  <g
     id="layer1"
     transform="translate(0,-452.36218)"
     style="display:inline">
    <path
       d="M 256.02879,253.62814 V 226.9042 h 18.02863 v 3.15364 h -14.49218 v 8.27604 h 12.54166 v 3.15364 h -12.54166 v 12.14062 z m 22.22133,-22.9505 v -3.77344 h 3.28125 v 3.77344 z m 0,22.9505 v -19.35936 h 3.28125 v 19.35936 z m 21.52863,-6.23437 3.39062,0.41927 q -0.80208,2.97135 -2.97135,4.61197 -2.16927,1.64063 -5.54166,1.64063 -4.2474,0 -6.74479,-2.60677 -2.47916,-2.625 -2.47916,-7.34635 0,-4.88541 2.51562,-7.58333 2.51562,-2.69791 6.52604,-2.69791 3.8828,0 6.34374,2.64323 2.46094,2.64322 2.46094,7.43749 0,0.29167 -0.0182,0.875 h -14.43749 q 0.18229,3.1901 1.80468,4.88541 1.6224,1.69531 4.04688,1.69531 1.80468,0 3.08072,-0.94791 1.27604,-0.94792 2.02344,-3.02604 z m -10.77343,-5.30469 h 10.80989 q -0.21875,-2.4427 -1.23959,-3.66406 -1.5677,-1.89583 -4.0651,-1.89583 -2.26041,0 -3.80989,1.51302 -1.53125,1.51302 -1.69531,4.04687 z m 18.21092,11.53906 V 226.9042 h 3.28125 v 26.72394 z m 20.92707,0 v -2.44271 q -1.84115,2.88021 -5.41406,2.88021 -2.3151,0 -4.26562,-1.27604 -1.93229,-1.27605 -3.00781,-3.55469 -1.05729,-2.29687 -1.05729,-5.26822 0,-2.89844 0.96614,-5.25 0.96615,-2.36979 2.89844,-3.6276 1.93229,-1.25781 4.3203,-1.25781 1.75,0 3.11719,0.74739 1.36719,0.72917 2.22396,1.91406 v -9.58853 h 3.26301 v 26.72394 z m -10.37239,-9.66145 q 0,3.71874 1.56771,5.55989 1.5677,1.84114 3.70051,1.84114 2.15104,0 3.64583,-1.75 1.51302,-1.76822 1.51302,-5.3776 0,-3.97395 -1.53125,-5.83332 -1.53124,-1.85938 -3.77343,-1.85938 -2.1875,0 -3.66406,1.78646 -1.45833,1.78646 -1.45833,5.63281 z m 27.63539,3.88281 3.24479,-0.51042 q 0.27344,1.95052 1.51302,2.98958 1.25781,1.03906 3.5,1.03906 2.26041,0 3.35416,-0.91146 1.09375,-0.92968 1.09375,-2.16926 0,-1.11198 -0.96614,-1.75 -0.67448,-0.4375 -3.35417,-1.11198 -3.60937,-0.91146 -5.01301,-1.56771 -1.38542,-0.67448 -2.11459,-1.84114 -0.71093,-1.1849 -0.71093,-2.60677 0,-1.29427 0.58333,-2.38802 0.60156,-1.11198 1.62239,-1.84114 0.76563,-0.56511 2.07813,-0.94792 1.33073,-0.40104 2.84375,-0.40104 2.27864,0 3.99218,0.65625 1.73177,0.65625 2.55208,1.78645 0.82031,1.11198 1.13021,2.98959 l -3.20833,0.43749 q -0.21875,-1.49479 -1.27604,-2.33333 -1.03907,-0.83854 -2.95313,-0.83854 -2.26041,0 -3.22656,0.7474 -0.96614,0.74739 -0.96614,1.75 0,0.63802 0.40104,1.14843 0.40104,0.52865 1.25781,0.875 0.49219,0.18229 2.89844,0.83854 3.48176,0.92969 4.84895,1.53125 1.38542,0.58333 2.16927,1.71354 0.78385,1.13021 0.78385,2.80729 0,1.64062 -0.96614,3.09896 -0.94792,1.4401 -2.7526,2.24218 -1.80469,0.78386 -4.08333,0.78386 -3.77344,0 -5.76041,-1.56771 -1.96875,-1.56771 -2.51563,-4.64843 z m 33.23174,-0.45573 3.39063,0.41927 q -0.80209,2.97135 -2.97136,4.61197 -2.16927,1.64063 -5.54166,1.64063 -4.24739,0 -6.74478,-2.60677 -2.47917,-2.625 -2.47917,-7.34635 0,-4.88541 2.51562,-7.58333 2.51563,-2.69791 6.52604,-2.69791 3.88281,0 6.34374,2.64323 2.46094,2.64322 2.46094,7.43749 0,0.29167 -0.0182,0.875 h -14.43749 q 0.18229,3.1901 1.80469,4.88541 1.62239,1.69531 4.04687,1.69531 1.80469,0 3.08073,-0.94791 1.27604,-0.94792 2.02343,-3.02604 z m -10.77343,-5.30469 h 10.80989 q -0.21875,-2.4427 -1.23958,-3.66406 -1.56771,-1.89583 -4.0651,-1.89583 -2.26042,0 -3.80989,1.51302 -1.53125,1.51302 -1.69532,4.04687 z m 18.24738,11.53906 v -19.35936 h 2.95312 v 2.93489 q 1.13021,-2.05989 2.07813,-2.71614 0.96614,-0.65625 2.11458,-0.65625 1.65885,0 3.37239,1.05729 l -1.1302,3.04427 q -1.20313,-0.71094 -2.40625,-0.71094 -1.07552,0 -1.93229,0.65625 -0.85677,0.63802 -1.22136,1.78646 -0.54687,1.75 -0.54687,3.82812 v 10.13541 z m 17.84634,0 -7.36458,-19.35936 h 3.46354 l 4.15625,11.59374 q 0.67448,1.8776 1.23958,3.90104 0.4375,-1.53125 1.22136,-3.68229 l 4.30207,-11.81249 h 3.3724 l -7.32812,19.35936 z m 13.30729,-22.9505 v -3.77344 h 3.28124 v 3.77344 z m 0,22.9505 v -19.35936 h 3.28124 v 19.35936 z m 20.90884,-7.09114 3.22656,0.41927 q -0.52865,3.33593 -2.71615,5.23176 -2.16927,1.87761 -5.34114,1.87761 -3.97395,0 -6.39843,-2.58854 -2.40625,-2.60677 -2.40625,-7.45573 0,-3.13541 1.03906,-5.48697 1.03906,-2.35156 3.15365,-3.51823 2.13281,-1.18489 4.6302,-1.18489 3.15364,0 5.15885,1.60416 2.00521,1.58594 2.57031,4.52083 l -3.1901,0.49219 q -0.45573,-1.95052 -1.6224,-2.93489 -1.14843,-0.98438 -2.78906,-0.98438 -2.47916,0 -4.02864,1.78646 -1.54948,1.76823 -1.54948,5.61458 0,3.90104 1.49479,5.66926 1.49479,1.76823 3.90104,1.76823 1.93229,0 3.22656,-1.18489 1.29427,-1.1849 1.64063,-3.64583 z m 19.28643,0.85677 3.39062,0.41927 q -0.80208,2.97135 -2.97135,4.61197 -2.16927,1.64063 -5.54166,1.64063 -4.2474,0 -6.74479,-2.60677 -2.47916,-2.625 -2.47916,-7.34635 0,-4.88541 2.51562,-7.58333 2.51562,-2.69791 6.52604,-2.69791 3.8828,0 6.34374,2.64323 2.46094,2.64322 2.46094,7.43749 0,0.29167 -0.0182,0.875 h -14.43749 q 0.18229,3.1901 1.80468,4.88541 1.6224,1.69531 4.04688,1.69531 1.80468,0 3.08072,-0.94791 1.27604,-0.94792 2.02344,-3.02604 z m -10.77343,-5.30469 h 10.80989 q -0.21875,-2.4427 -1.23959,-3.66406 -1.5677,-1.89583 -4.0651,-1.89583 -2.26041,0 -3.80989,1.51302 -1.53125,1.51302 -1.69531,4.04687 z m 28.61977,11.53906 v -19.35936 h 2.95312 v 2.93489 q 1.13021,-2.05989 2.07812,-2.71614 0.96615,-0.65625 2.11459,-0.65625 1.65885,0 3.37239,1.05729 l -1.13021,3.04427 q -1.20312,-0.71094 -2.40625,-0.71094 -1.07552,0 -1.93229,0.65625 -0.85677,0.63802 -1.22135,1.78646 -0.54687,1.75 -0.54687,3.82812 v 10.13541 z m 11.24739,-9.67968 q 0,-5.3776 2.98958,-7.96614 2.49739,-2.15104 6.08853,-2.15104 3.99219,0 6.52604,2.625 2.53385,2.60676 2.53385,7.21874 0,3.73698 -1.13021,5.88802 -1.11197,2.13281 -3.26301,3.3177 -2.13282,1.1849 -4.66667,1.1849 -4.0651,0 -6.58072,-2.60677 -2.49739,-2.60677 -2.49739,-7.51041 z m 3.37239,0 q 0,3.71874 1.62239,5.57812 1.6224,1.84114 4.08333,1.84114 2.44271,0 4.0651,-1.85937 1.6224,-1.85938 1.6224,-5.66927 0,-3.59114 -1.64063,-5.43228 -1.62239,-1.85938 -4.04687,-1.85938 -2.46093,0 -4.08333,1.84115 -1.62239,1.84114 -1.62239,5.55989 z m 31.29945,9.67968 v -2.84375 q -2.26042,3.28125 -6.14323,3.28125 -1.71354,0 -3.20833,-0.65625 -1.47656,-0.65625 -2.20572,-1.64063 -0.71094,-1.0026 -1.00261,-2.4427 -0.20052,-0.96615 -0.20052,-3.0625 v -11.99478 h 3.28125 v 10.73697 q 0,2.57031 0.20052,3.46354 0.3099,1.29427 1.3125,2.04166 1.0026,0.72917 2.47916,0.72917 1.47656,0 2.77083,-0.7474 1.29427,-0.76562 1.82292,-2.05989 0.54687,-1.3125 0.54687,-3.79167 v -10.37238 h 3.28125 v 19.35936 z m 15.23957,-2.9349 0.47395,2.89844 q -1.38541,0.29166 -2.47916,0.29166 -1.78646,0 -2.77083,-0.5651 -0.98438,-0.5651 -1.38542,-1.47656 -0.40104,-0.92969 -0.40104,-3.88281 v -11.13801 h -2.40625 v -2.55208 h 2.40625 v -4.79427 l 3.26302,-1.96875 v 6.76302 h 3.29948 v 2.55208 h -3.29948 v 11.3203 q 0,1.40365 0.16406,1.80469 0.18229,0.40104 0.56511,0.63802 0.40104,0.23698 1.1302,0.23698 0.54688,0 1.44011,-0.12761 z m 3.22657,-20.0156 v -3.77344 h 3.28125 v 3.77344 z m 0,22.9505 v -19.35936 h 3.28125 v 19.35936 z m 8.27603,0 v -19.35936 h 2.95312 v 2.7526 q 2.13281,-3.1901 6.16145,-3.1901 1.75,0 3.20833,0.63802 1.47656,0.61979 2.20573,1.64062 0.72917,1.02083 1.02083,2.42448 0.18229,0.91146 0.18229,3.1901 v 11.90364 h -3.28124 V 241.8521 q 0,-2.0052 -0.38282,-2.98958 -0.38281,-1.0026 -1.36718,-1.58593 -0.96615,-0.60156 -2.27865,-0.60156 -2.09635,0 -3.6276,1.33072 -1.51302,1.33073 -1.51302,5.04948 v 10.57291 z m 20.16143,1.60416 3.19011,0.47396 q 0.20052,1.47656 1.11197,2.15104 1.22136,0.91146 3.33594,0.91146 2.27864,0 3.51822,-0.91146 1.23959,-0.91146 1.67709,-2.55208 0.2552,-1.0026 0.23698,-4.21094 -2.15104,2.53386 -5.35937,2.53386 -3.99219,0 -6.17969,-2.88021 -2.1875,-2.88021 -2.1875,-6.90885 0,-2.77083 1.00261,-5.10416 1.0026,-2.35156 2.89843,-3.6276 1.91406,-1.27604 4.48437,-1.27604 3.42708,0 5.65104,2.77083 v -2.33333 h 3.02604 v 16.73436 q 0,4.52083 -0.92969,6.39843 -0.91145,1.89583 -2.91666,2.98958 -1.98698,1.09375 -4.90364,1.09375 -3.46354,0 -5.59635,-1.56771 -2.13281,-1.54947 -2.0599,-4.68489 z m 2.71615,-11.6302 q 0,3.8099 1.51302,5.55989 1.51302,1.75 3.79166,1.75 2.26042,0 3.79166,-1.73177 1.53125,-1.74999 1.53125,-5.46874 0,-3.55469 -1.58593,-5.35937 -1.56771,-1.80469 -3.79167,-1.80469 -2.18749,0 -3.71874,1.78646 -1.53125,1.76823 -1.53125,5.26822 z"
       id="flowRoot4302"
       style="font-size:37.3333px;font-family:'Liberation Sans';-inkscape-font-specification:'Liberation Sans, Normal';text-align:center;text-anchor:middle;stroke-width:1.00003"
       transform="matrix(0.99994873,0,0,1,-20.017153,325.45798)"
       aria-label="Field service routing" />
    <g
       id="g3709"
       transform="translate(0,19.999997)" />
    <path
       style="font-size:16px;line-height:1.25;font-family:'Liberation Sans';-inkscape-font-specification:'Liberation Sans, Normal';text-align:center;text-anchor:middle;stroke-width:1.00003"
       d="m 283.76953,160.73238 1.42969,-0.125 q 0.10156,0.85938 0.46875,1.41407 0.375,0.54687 1.15625,0.89062 0.78125,0.33594 1.75781,0.33594 0.86719,0 1.53125,-0.25781 0.66406,-0.25782 0.98438,-0.70313 0.32812,-0.45312 0.32812,-0.98437 0,-0.53907 -0.3125,-0.9375 -0.3125,-0.40625 -1.03125,-0.67969 -0.46094,-0.17969 -2.03906,-0.55469 -1.57813,-0.38281 -2.21094,-0.71875 -0.82031,-0.42969 -1.22656,-1.0625 -0.39844,-0.64062 -0.39844,-1.42969 0,-0.86718 0.49219,-1.61718 0.49219,-0.75782 1.4375,-1.14844 0.94531,-0.39063 2.10156,-0.39063 1.27344,0 2.24219,0.41407 0.97656,0.40625 1.5,1.20312 0.52344,0.79688 0.5625,1.80469 l -1.45313,0.10937 q -0.11718,-1.08593 -0.79687,-1.64062 -0.67188,-0.55469 -1.99219,-0.55469 -1.375,0 -2.00781,0.50781 -0.625,0.5 -0.625,1.21094 0,0.61719 0.44531,1.01563 0.4375,0.39843 2.28125,0.82031 1.85156,0.41406 2.53906,0.72656 1,0.46094 1.47657,1.17188 0.47656,0.70312 0.47656,1.625 0,0.91406 -0.52344,1.72656 -0.52344,0.80469 -1.50781,1.25781 -0.97656,0.44531 -2.20313,0.44531 -1.55468,0 -2.60937,-0.45312 -1.04688,-0.45313 -1.64844,-1.35938 -0.59375,-0.91406 -0.625,-2.0625 z m 16.42188,0.64063 1.38281,0.17969 q -0.22656,1.42968 -1.16406,2.24218 -0.92969,0.80469 -2.28907,0.80469 -1.70312,0 -2.74218,-1.10937 -1.03125,-1.11719 -1.03125,-3.19532 0,-1.34375 0.44531,-2.35156 0.44531,-1.00781 1.35156,-1.50781 0.91406,-0.50781 1.98438,-0.50781 1.35156,0 2.21093,0.6875 0.85938,0.67968 1.10157,1.9375 l -1.36719,0.21093 q -0.19531,-0.83593 -0.69531,-1.25781 -0.49219,-0.42187 -1.19532,-0.42187 -1.0625,0 -1.72656,0.76562 -0.66406,0.75781 -0.66406,2.40625 0,1.67188 0.64062,2.42969 0.64063,0.75781 1.67188,0.75781 0.82812,0 1.38281,-0.50781 0.55469,-0.50781 0.70313,-1.5625 z m 2.58593,3.03906 v -11.45312 h 1.40625 v 4.10937 q 0.98438,-1.14062 2.48438,-1.14062 0.92187,0 1.60156,0.36718 0.67969,0.35938 0.96875,1 0.29688,0.64063 0.29688,1.85938 v 5.25781 h -1.40625 v -5.25781 q 0,-1.05469 -0.46094,-1.53125 -0.45313,-0.48438 -1.28906,-0.48438 -0.625,0 -1.17969,0.32813 -0.54688,0.32031 -0.78125,0.875 -0.23438,0.55469 -0.23438,1.53125 v 4.53906 z m 14.57813,-2.67187 1.45312,0.17968 q -0.34375,1.27344 -1.27343,1.97657 -0.92969,0.70312 -2.375,0.70312 -1.82032,0 -2.89063,-1.11719 -1.0625,-1.125 -1.0625,-3.14843 0,-2.09375 1.07813,-3.25 1.07812,-1.15625 2.79687,-1.15625 1.66406,0 2.71875,1.13281 1.05469,1.13281 1.05469,3.1875 0,0.125 -0.008,0.375 h -6.1875 q 0.0781,1.36719 0.77343,2.09375 0.69532,0.72656 1.73438,0.72656 0.77344,0 1.32031,-0.40625 0.54688,-0.40625 0.86719,-1.29687 z m -4.61719,-2.27344 h 4.63281 q -0.0937,-1.04688 -0.53125,-1.57031 -0.67187,-0.8125 -1.74218,-0.8125 -0.96875,0 -1.63282,0.64843 -0.65625,0.64844 -0.72656,1.73438 z m 13.21875,4.94531 v -1.04687 q -0.78906,1.23437 -2.32031,1.23437 -0.99219,0 -1.82813,-0.54687 -0.82812,-0.54688 -1.28906,-1.52344 -0.45312,-0.98438 -0.45312,-2.25781 0,-1.24219 0.41406,-2.25 0.41406,-1.01563 1.24219,-1.55469 0.82812,-0.53906 1.85156,-0.53906 0.75,0 1.33594,0.32031 0.58593,0.3125 0.95312,0.82031 v -4.10937 h 1.39844 v 11.45312 z m -4.44531,-4.14062 q 0,1.59375 0.67187,2.38281 0.67188,0.78906 1.58594,0.78906 0.92188,0 1.5625,-0.75 0.64844,-0.75781 0.64844,-2.30469 0,-1.70312 -0.65625,-2.5 -0.65625,-0.79687 -1.61719,-0.79687 -0.9375,0 -1.57031,0.76562 -0.625,0.76563 -0.625,2.41407 z m 13.39844,4.14062 v -1.21875 q -0.96875,1.40625 -2.63282,1.40625 -0.73437,0 -1.375,-0.28125 -0.63281,-0.28125 -0.94531,-0.70312 -0.30469,-0.42969 -0.42969,-1.04688 -0.0859,-0.41406 -0.0859,-1.3125 v -5.14062 h 1.40625 v 4.60156 q 0,1.10156 0.0859,1.48437 0.13282,0.55469 0.5625,0.875 0.42969,0.3125 1.0625,0.3125 0.63282,0 1.1875,-0.32031 0.55469,-0.32812 0.78125,-0.88281 0.23438,-0.5625 0.23438,-1.625 v -4.44531 h 1.40625 v 8.29687 z m 3.42968,0 v -11.45312 h 1.40625 v 11.45312 z m 9.26563,-2.67187 1.45312,0.17968 q -0.34375,1.27344 -1.27343,1.97657 -0.92969,0.70312 -2.375,0.70312 -1.82032,0 -2.89063,-1.11719 -1.0625,-1.125 -1.0625,-3.14843 0,-2.09375 1.07813,-3.25 1.07812,-1.15625 2.79687,-1.15625 1.66406,0 2.71875,1.13281 1.05469,1.13281 1.05469,3.1875 0,0.125 -0.008,0.375 h -6.1875 q 0.0781,1.36719 0.77343,2.09375 0.69532,0.72656 1.73438,0.72656 0.77344,0 1.32031,-0.40625 0.54688,-0.40625 0.86719,-1.29687 z m -4.61719,-2.27344 h 4.63281 q -0.0937,-1.04688 -0.53125,-1.57031 -0.67187,-0.8125 -1.74218,-0.8125 -0.96875,0 -1.63282,0.64843 -0.65625,0.64844 -0.72656,1.73438 z m 17.69531,3.92187 q -0.78125,0.66407 -1.50781,0.9375 -0.71875,0.27344 -1.54687,0.27344 -1.36719,0 -2.10157,-0.66406 -0.73437,-0.67188 -0.73437,-1.71094 0,-0.60937 0.27344,-1.10937 0.28125,-0.50782 0.72656,-0.8125 0.45312,-0.30469 1.01562,-0.46094 0.41407,-0.10938 1.25,-0.21094 1.70313,-0.20312 2.50782,-0.48437 0.008,-0.28907 0.008,-0.36719 0,-0.85938 -0.39844,-1.21094 -0.53906,-0.47656 -1.60156,-0.47656 -0.99219,0 -1.46875,0.35156 -0.46875,0.34375 -0.69531,1.22656 l -1.375,-0.1875 q 0.1875,-0.88281 0.61718,-1.42187 0.42969,-0.54688 1.24219,-0.83594 0.8125,-0.29687 1.88281,-0.29687 1.0625,0 1.72657,0.25 0.66406,0.25 0.97656,0.63281 0.3125,0.375 0.4375,0.95312 0.0703,0.35938 0.0703,1.29688 v 1.875 q 0,1.96094 0.0859,2.48437 0.0937,0.51563 0.35937,0.99219 h -1.46875 q -0.21875,-0.4375 -0.28125,-1.02344 z m -0.11718,-3.14062 q -0.76563,0.3125 -2.29688,0.53125 -0.86719,0.125 -1.22656,0.28125 -0.35938,0.15625 -0.55469,0.46094 -0.19531,0.29687 -0.19531,0.66406 0,0.5625 0.42187,0.9375 0.42969,0.375 1.25,0.375 0.8125,0 1.44532,-0.35156 0.63281,-0.35938 0.92968,-0.97657 0.22657,-0.47656 0.22657,-1.40625 z m 7.48437,1.6875 1.39063,-0.21875 q 0.11718,0.83594 0.64843,1.28125 0.53907,0.44531 1.5,0.44531 0.96875,0 1.4375,-0.39062 0.46875,-0.39844 0.46875,-0.92969 0,-0.47656 -0.41406,-0.75 -0.28906,-0.1875 -1.4375,-0.47656 -1.54687,-0.39063 -2.14844,-0.67188 -0.59375,-0.28906 -0.90625,-0.78906 -0.30468,-0.50781 -0.30468,-1.11719 0,-0.55469 0.25,-1.02344 0.25781,-0.47656 0.69531,-0.78906 0.32812,-0.24219 0.89062,-0.40625 0.57032,-0.17187 1.21875,-0.17187 0.97657,0 1.71094,0.28125 0.74219,0.28125 1.09375,0.76562 0.35156,0.47656 0.48438,1.28125 l -1.375,0.1875 q -0.0937,-0.64062 -0.54688,-1 -0.44531,-0.35937 -1.26562,-0.35937 -0.96875,0 -1.38282,0.32031 -0.41406,0.32031 -0.41406,0.75 0,0.27344 0.17188,0.49219 0.17187,0.22656 0.53906,0.375 0.21094,0.0781 1.24219,0.35937 1.49218,0.39844 2.07812,0.65625 0.59375,0.25 0.92969,0.73438 0.33594,0.48437 0.33594,1.20312 0,0.70313 -0.41407,1.32813 -0.40625,0.61718 -1.17968,0.96093 -0.77344,0.33594 -1.75,0.33594 -1.61719,0 -2.46875,-0.67187 -0.84375,-0.67188 -1.07813,-1.99219 z m 8.57031,-7.35938 v -1.61718 h 1.40625 v 1.61718 z m 0,9.83594 v -8.29687 h 1.40625 v 8.29687 z m 3.54688,0 v -8.29687 h 1.26562 v 1.17968 q 0.91407,-1.36718 2.64063,-1.36718 0.75,0 1.375,0.27343 0.63281,0.26563 0.94531,0.70313 0.3125,0.4375 0.4375,1.03906 0.0781,0.39063 0.0781,1.36719 v 5.10156 h -1.40625 v -5.04687 q 0,-0.85938 -0.16407,-1.28125 -0.16406,-0.42969 -0.58593,-0.67969 -0.41407,-0.25781 -0.97657,-0.25781 -0.89843,0 -1.55468,0.57031 -0.64844,0.57031 -0.64844,2.16406 v 4.53125 z m 8.64062,0.6875 1.36719,0.20313 q 0.0859,0.63281 0.47656,0.92187 0.52344,0.39063 1.42969,0.39063 0.97656,0 1.50781,-0.39063 0.53125,-0.39062 0.71875,-1.09375 0.10938,-0.42969 0.10157,-1.80469 -0.92188,1.08594 -2.29688,1.08594 -1.71094,0 -2.64844,-1.23437 -0.9375,-1.23438 -0.9375,-2.96094 0,-1.1875 0.42969,-2.1875 0.42969,-1.00781 1.24219,-1.55469 0.82031,-0.54687 1.92187,-0.54687 1.46875,0 2.42188,1.1875 v -1 h 1.29687 v 7.17187 q 0,1.9375 -0.39843,2.74219 -0.39063,0.8125 -1.25,1.28125 -0.85157,0.46875 -2.10157,0.46875 -1.48437,0 -2.39843,-0.67188 -0.91407,-0.66406 -0.88282,-2.00781 z m 1.16407,-4.98437 q 0,1.63281 0.64843,2.38281 0.64844,0.75 1.625,0.75 0.96875,0 1.625,-0.74219 0.65625,-0.75 0.65625,-2.34375 0,-1.52344 -0.67968,-2.29687 -0.67188,-0.77344 -1.625,-0.77344 -0.9375,0 -1.59375,0.76562 -0.65625,0.75782 -0.65625,2.25782 z m 7.96093,4.29687 v -11.45312 h 1.40625 v 11.45312 z m 9.26563,-2.67187 1.45312,0.17968 q -0.34375,1.27344 -1.27343,1.97657 -0.92969,0.70312 -2.375,0.70312 -1.82032,0 -2.89063,-1.11719 -1.0625,-1.125 -1.0625,-3.14843 0,-2.09375 1.07813,-3.25 1.07812,-1.15625 2.79687,-1.15625 1.66406,0 2.71875,1.13281 1.05469,1.13281 1.05469,3.1875 0,0.125 -0.008,0.375 h -6.1875 q 0.0781,1.36719 0.77343,2.09375 0.69532,0.72656 1.73438,0.72656 0.77344,0 1.32031,-0.40625 0.54688,-0.40625 0.86719,-1.29687 z m -4.61719,-2.27344 h 4.63281 q -0.0937,-1.04688 -0.53125,-1.57031 -0.67187,-0.8125 -1.74218,-0.8125 -0.96875,0 -1.63282,0.64843 -0.65625,0.64844 -0.72656,1.73438 z m 14.58594,4.94531 -3.15625,-8.29687 h 1.48437 l 1.78125,4.96875 q 0.28907,0.80468 0.53125,1.67187 0.1875,-0.65625 0.52344,-1.57812 l 1.84375,-5.0625 h 1.44531 l -3.14062,8.29687 z m 5.70312,-9.83594 v -1.61718 h 1.40625 v 1.61718 z m 0,9.83594 v -8.29687 h 1.40625 v 8.29687 z m 2.98438,-2.47656 1.39062,-0.21875 q 0.11719,0.83594 0.64844,1.28125 0.53906,0.44531 1.5,0.44531 0.96875,0 1.4375,-0.39062 0.46875,-0.39844 0.46875,-0.92969 0,-0.47656 -0.41406,-0.75 -0.28906,-0.1875 -1.4375,-0.47656 -1.54688,-0.39063 -2.14844,-0.67188 -0.59375,-0.28906 -0.90625,-0.78906 -0.30469,-0.50781 -0.30469,-1.11719 0,-0.55469 0.25,-1.02344 0.25782,-0.47656 0.69532,-0.78906 0.32812,-0.24219 0.89062,-0.40625 0.57031,-0.17187 1.21875,-0.17187 0.97656,0 1.71094,0.28125 0.74219,0.28125 1.09375,0.76562 0.35156,0.47656 0.48437,1.28125 l -1.375,0.1875 q -0.0937,-0.64062 -0.54687,-1 -0.44531,-0.35937 -1.26563,-0.35937 -0.96875,0 -1.38281,0.32031 -0.41406,0.32031 -0.41406,0.75 0,0.27344 0.17187,0.49219 0.17188,0.22656 0.53907,0.375 0.21093,0.0781 1.24218,0.35937 1.49219,0.39844 2.07813,0.65625 0.59375,0.25 0.92969,0.73438 0.33593,0.48437 0.33593,1.20312 0,0.70313 -0.41406,1.32813 -0.40625,0.61718 -1.17969,0.96093 -0.77343,0.33594 -1.75,0.33594 -1.61718,0 -2.46875,-0.67187 -0.84375,-0.67188 -1.07812,-1.99219 z m 8.57031,-7.35938 v -1.61718 h 1.40625 v 1.61718 z m 0,9.83594 v -8.29687 h 1.40625 v 8.29687 z m 6.61719,-1.25781 0.20312,1.24219 q -0.59375,0.125 -1.0625,0.125 -0.76562,0 -1.1875,-0.24219 -0.42187,-0.24219 -0.59375,-0.63281 -0.17187,-0.39844 -0.17187,-1.66407 v -4.77343 h -1.03125 v -1.09375 h 1.03125 v -2.05469 l 1.39844,-0.84375 v 2.89844 h 1.41406 v 1.09375 h -1.41406 v 4.85156 q 0,0.60156 0.0703,0.77344 0.0781,0.17187 0.24219,0.27343 0.17187,0.10157 0.48437,0.10157 0.23438,0 0.61719,-0.0547 z m 7.35156,1.25781 -2.53906,-8.29687 h 1.45312 l 1.32032,4.78906 0.49218,1.78125 q 0.0312,-0.13281 0.42969,-1.71094 l 1.32031,-4.85937 h 1.44532 l 1.24218,4.8125 0.41407,1.58593 0.47656,-1.60156 1.42187,-4.79687 h 1.36719 l -2.59375,8.29687 h -1.46094 l -1.32031,-4.96875 -0.32031,-1.41406 -1.67969,6.38281 z m 10.03125,-9.83594 v -1.61718 h 1.40625 v 1.61718 z m 0,9.83594 v -8.29687 h 1.40625 v 8.29687 z m 6.61719,-1.25781 0.20312,1.24219 q -0.59375,0.125 -1.0625,0.125 -0.76562,0 -1.1875,-0.24219 -0.42187,-0.24219 -0.59375,-0.63281 -0.17187,-0.39844 -0.17187,-1.66407 v -4.77343 h -1.03125 v -1.09375 h 1.03125 v -2.05469 l 1.39844,-0.84375 v 2.89844 h 1.41406 v 1.09375 h -1.41406 v 4.85156 q 0,0.60156 0.0703,0.77344 0.0781,0.17187 0.24219,0.27343 0.17187,0.10157 0.48437,0.10157 0.23438,0 0.61719,-0.0547 z m 1.375,1.25781 v -11.45312 h 1.40625 v 4.10937 q 0.98437,-1.14062 2.48437,-1.14062 0.92188,0 1.60157,0.36718 0.67968,0.35938 0.96875,1 0.29687,0.64063 0.29687,1.85938 v 5.25781 h -1.40625 v -5.25781 q 0,-1.05469 -0.46094,-1.53125 -0.45312,-0.48438 -1.28906,-0.48438 -0.625,0 -1.17969,0.32813 -0.54687,0.32031 -0.78125,0.875 -0.23437,0.55469 -0.23437,1.53125 v 4.53906 z m 16.41406,-1.25781 0.20313,1.24219 q -0.59375,0.125 -1.0625,0.125 -0.76563,0 -1.1875,-0.24219 -0.42188,-0.24219 -0.59375,-0.63281 -0.17188,-0.39844 -0.17188,-1.66407 v -4.77343 h -1.03125 v -1.09375 h 1.03125 v -2.05469 l 1.39844,-0.84375 v 2.89844 h 1.41406 v 1.09375 h -1.41406 v 4.85156 q 0,0.60156 0.0703,0.77344 0.0781,0.17187 0.24219,0.27343 0.17187,0.10157 0.48437,0.10157 0.23438,0 0.61719,-0.0547 z m 1.35938,1.25781 v -8.29687 h 1.26562 v 1.25781 q 0.48438,-0.88281 0.89063,-1.16406 0.41406,-0.28125 0.90625,-0.28125 0.71093,0 1.44531,0.45312 l -0.48438,1.30469 q -0.51562,-0.30469 -1.03125,-0.30469 -0.46093,0 -0.82812,0.28125 -0.36719,0.27344 -0.52344,0.76563 -0.23437,0.75 -0.23437,1.64062 v 4.34375 z m 10.75781,-1.02344 q -0.78125,0.66407 -1.50781,0.9375 -0.71875,0.27344 -1.54688,0.27344 -1.36719,0 -2.10156,-0.66406 -0.73438,-0.67188 -0.73438,-1.71094 0,-0.60937 0.27344,-1.10937 0.28125,-0.50782 0.72656,-0.8125 0.45313,-0.30469 1.01563,-0.46094 0.41406,-0.10938 1.25,-0.21094 1.70312,-0.20312 2.50781,-0.48437 0.008,-0.28907 0.008,-0.36719 0,-0.85938 -0.39843,-1.21094 -0.53907,-0.47656 -1.60157,-0.47656 -0.99218,0 -1.46875,0.35156 -0.46875,0.34375 -0.69531,1.22656 l -1.375,-0.1875 q 0.1875,-0.88281 0.61719,-1.42187 0.42969,-0.54688 1.24219,-0.83594 0.8125,-0.29687 1.88281,-0.29687 1.0625,0 1.72656,0.25 0.66406,0.25 0.97656,0.63281 0.3125,0.375 0.4375,0.95312 0.0703,0.35938 0.0703,1.29688 v 1.875 q 0,1.96094 0.0859,2.48437 0.0937,0.51563 0.35938,0.99219 h -1.46875 q -0.21875,-0.4375 -0.28125,-1.02344 z m -0.11719,-3.14062 q -0.76562,0.3125 -2.29687,0.53125 -0.86719,0.125 -1.22657,0.28125 -0.35937,0.15625 -0.55468,0.46094 -0.19532,0.29687 -0.19532,0.66406 0,0.5625 0.42188,0.9375 0.42969,0.375 1.25,0.375 0.8125,0 1.44531,-0.35156 0.63281,-0.35938 0.92969,-0.97657 0.22656,-0.47656 0.22656,-1.40625 z m 5.90625,4.16406 -3.15625,-8.29687 h 1.48438 l 1.78125,4.96875 q 0.28906,0.80468 0.53125,1.67187 0.1875,-0.65625 0.52343,-1.57812 l 1.84375,-5.0625 h 1.44532 l -3.14063,8.29687 z m 11.375,-2.67187 1.45313,0.17968 q -0.34375,1.27344 -1.27344,1.97657 -0.92969,0.70312 -2.375,0.70312 -1.82031,0 -2.89063,-1.11719 -1.0625,-1.125 -1.0625,-3.14843 0,-2.09375 1.07813,-3.25 1.07812,-1.15625 2.79687,-1.15625 1.66407,0 2.71875,1.13281 1.05469,1.13281 1.05469,3.1875 0,0.125 -0.008,0.375 h -6.1875 q 0.0781,1.36719 0.77344,2.09375 0.69531,0.72656 1.73437,0.72656 0.77344,0 1.32031,-0.40625 0.54688,-0.40625 0.86719,-1.29687 z m -4.61719,-2.27344 h 4.63282 q -0.0937,-1.04688 -0.53125,-1.57031 -0.67188,-0.8125 -1.74219,-0.8125 -0.96875,0 -1.63281,0.64843 -0.65625,0.64844 -0.72657,1.73438 z m 7.80469,4.94531 v -11.45312 h 1.40625 v 11.45312 z m 11.10156,-1.25781 0.20313,1.24219 q -0.59375,0.125 -1.0625,0.125 -0.76563,0 -1.1875,-0.24219 -0.42188,-0.24219 -0.59375,-0.63281 -0.17188,-0.39844 -0.17188,-1.66407 v -4.77343 h -1.03125 v -1.09375 h 1.03125 v -2.05469 l 1.39844,-0.84375 v 2.89844 h 1.41406 v 1.09375 h -1.41406 v 4.85156 q 0,0.60156 0.0703,0.77344 0.0781,0.17187 0.24219,0.27343 0.17188,0.10157 0.48438,0.10157 0.23437,0 0.61718,-0.0547 z m 1.38282,-8.57813 v -1.61718 h 1.40625 v 1.61718 z m 0,9.83594 v -8.29687 h 1.40625 v 8.29687 z m 3.54687,0 v -8.29687 h 1.25781 v 1.16406 q 0.39063,-0.60938 1.03907,-0.97656 0.64843,-0.375 1.47656,-0.375 0.92187,0 1.50781,0.38281 0.59375,0.38281 0.83594,1.07031 0.98437,-1.45312 2.5625,-1.45312 1.23437,0 1.89844,0.6875 0.66406,0.67968 0.66406,2.10156 v 5.69531 h -1.39844 v -5.22656 q 0,-0.84375 -0.14062,-1.21094 -0.13282,-0.375 -0.49219,-0.60156 -0.35938,-0.22656 -0.84375,-0.22656 -0.875,0 -1.45313,0.58593 -0.57812,0.57813 -0.57812,1.85938 v 4.82031 h -1.40625 v -5.39062 q 0,-0.9375 -0.34375,-1.40625 -0.34375,-0.46875 -1.125,-0.46875 -0.59375,0 -1.10156,0.3125 -0.5,0.3125 -0.72657,0.91406 -0.22656,0.60156 -0.22656,1.73437 v 4.30469 z m 19.00781,-2.67187 1.45313,0.17968 q -0.34375,1.27344 -1.27344,1.97657 -0.92969,0.70312 -2.375,0.70312 -1.82031,0 -2.89062,-1.11719 -1.0625,-1.125 -1.0625,-3.14843 0,-2.09375 1.07812,-3.25 1.07813,-1.15625 2.79688,-1.15625 1.66406,0 2.71875,1.13281 1.05468,1.13281 1.05468,3.1875 0,0.125 -0.008,0.375 h -6.1875 q 0.0781,1.36719 0.77344,2.09375 0.69531,0.72656 1.73437,0.72656 0.77344,0 1.32032,-0.40625 0.54687,-0.40625 0.86718,-1.29687 z m -4.61718,-2.27344 h 4.63281 q -0.0937,-1.04688 -0.53125,-1.57031 -0.67188,-0.8125 -1.74219,-0.8125 -0.96875,0 -1.63281,0.64843 -0.65625,0.64844 -0.72656,1.73438 z m 8.23437,4.94531 v -1.60156 h 1.60156 v 1.60156 z"
       id="flowRoot4302-6"
       transform="matrix(0.99994873,0,0,1,-20.017153,445.45767)"
       aria-label="Schedule a single visit with travel time." />
    <flowRoot
       xml:space="preserve"
       id="flowRoot937"
       style="color:currentColor;font-style:normal;font-variant:normal;font-weight:normal;font-stretch:normal;font-size:16px;font-family:Arial;-inkscape-font-specification:Arial;text-align:center;writing-mode:lr-tb;text-anchor:middle;display:inline;overflow:visible;visibility:visible;opacity:1;vector-effect:none;fill:currentColor;fill-opacity:1;fill-rule:nonzero;stroke:#8f5902;stroke-width:3;stroke-linecap:round;stroke-linejoin:round;stroke-miterlimit:4;stroke-dasharray:none;stroke-dashoffset:0;stroke-opacity:1;marker:none;enable-background:accumulate"><flowRegion
         id="flowRegion939"><rect
           id="rect941"
           width="52.987019"
           height="116.1039"
           x="-94.285713"
           y="141.03894" /></flowRegion><flowPara
         id="flowPara943" /></flowRoot>
    <path
       style="display:inline;fill:none;stroke:#555753;stroke-width:1;stroke-linecap:round;stroke-linejoin:round;stroke-dasharray:none;stroke-opacity:1"
       d="m 179.97308,685.45803 v -10.4615"
       id="path6-3" />
    <path
       style="font-size:14px;line-height:1.25;font-family:'Liberation Sans';-inkscape-font-specification:'Liberation Sans, Normal';text-align:center;text-anchor:middle;stroke-width:1.00003"
       d="m 422.47021,42.271695 q 0,-1.777344 0.36231,-2.857422 0.36914,-1.086914 1.08691,-1.674805 0.72461,-0.58789 1.81836,-0.58789 0.80664,0 1.41504,0.328125 0.6084,0.321289 1.00488,0.936523 0.39649,0.608398 0.62208,1.490234 0.22558,0.875 0.22558,2.365235 0,1.763672 -0.3623,2.850586 -0.36231,1.080078 -1.08692,1.674804 -0.71777,0.587891 -1.81836,0.587891 -1.44922,0 -2.27636,-1.039063 -0.99122,-1.250976 -0.99122,-4.074218 z m 1.26465,0 q 0,2.467773 0.57422,3.288086 0.58106,0.813476 1.42871,0.813476 0.84766,0 1.42188,-0.820312 0.58105,-0.820313 0.58105,-3.28125 0,-2.47461 -0.58105,-3.288086 -0.57422,-0.813477 -1.43555,-0.813477 -0.84766,0 -1.35351,0.717774 -0.63575,0.916015 -0.63575,3.383789 z m 8.41504,-0.492188 q -0.76562,-0.280273 -1.13476,-0.799804 -0.36914,-0.519532 -0.36914,-1.244141 0,-1.09375 0.78613,-1.838867 0.78613,-0.745117 2.0918,-0.745117 1.3125,0 2.1123,0.765625 0.79981,0.758789 0.79981,1.852539 0,0.697265 -0.36915,1.216796 -0.3623,0.512696 -1.10742,0.792969 0.92285,0.300781 1.40137,0.970703 0.48535,0.669922 0.48535,1.59961 0,1.285156 -0.90918,2.160156 -0.90918,0.875 -2.39258,0.875 -1.48339,0 -2.39257,-0.875 -0.90918,-0.881836 -0.90918,-2.194336 0,-0.977539 0.49218,-1.633789 0.49903,-0.663086 1.41504,-0.902344 z m -0.24609,-2.084961 q 0,0.710938 0.45801,1.16211 0.458,0.451172 1.18945,0.451172 0.71094,0 1.16211,-0.444336 0.45801,-0.451172 0.45801,-1.100586 0,-0.676758 -0.47168,-1.134766 -0.46485,-0.464844 -1.16211,-0.464844 -0.7041,0 -1.16895,0.451172 -0.46484,0.451172 -0.46484,1.080078 z m -0.39649,4.62793 q 0,0.526367 0.2461,1.018555 0.25293,0.492187 0.74512,0.765625 0.49218,0.266601 1.05957,0.266601 0.88183,0 1.45605,-0.567383 0.57422,-0.567382 0.57422,-1.442382 0,-0.888672 -0.59473,-1.469727 -0.58789,-0.581055 -1.47656,-0.581055 -0.86816,0 -1.44238,0.574219 -0.56739,0.574219 -0.56739,1.435547 z m 7.21875,-2.966797 v -1.401367 h 1.40137 v 1.401367 z m 0,5.858399 V 45.81271 h 1.40137 v 1.401368 z m 3.20606,-4.942383 q 0,-1.777344 0.3623,-2.857422 0.36914,-1.086914 1.08692,-1.674805 0.72461,-0.58789 1.81836,-0.58789 0.80664,0 1.41504,0.328125 0.60839,0.321289 1.00488,0.936523 0.39648,0.608398 0.62207,1.490234 0.22559,0.875 0.22559,2.365235 0,1.763672 -0.36231,2.850586 -0.3623,1.080078 -1.08691,1.674804 -0.71778,0.587891 -1.81836,0.587891 -1.44922,0 -2.27637,-1.039063 -0.99121,-1.250976 -0.99121,-4.074218 z m 1.26465,0 q 0,2.467773 0.57422,3.288086 0.58105,0.813476 1.42871,0.813476 0.84765,0 1.42187,-0.820312 0.58106,-0.820313 0.58106,-3.28125 0,-2.47461 -0.58106,-3.288086 -0.57422,-0.813477 -1.43554,-0.813477 -0.84766,0 -1.35352,0.717774 -0.63574,0.916015 -0.63574,3.383789 z m 6.52148,0 q 0,-1.777344 0.36231,-2.857422 0.36914,-1.086914 1.08691,-1.674805 0.72461,-0.58789 1.81836,-0.58789 0.80664,0 1.41504,0.328125 0.6084,0.321289 1.00488,0.936523 0.39649,0.608398 0.62207,1.490234 0.22559,0.875 0.22559,2.365235 0,1.763672 -0.36231,2.850586 -0.3623,1.080078 -1.08691,1.674804 -0.71777,0.587891 -1.81836,0.587891 -1.44922,0 -2.27637,-1.039063 -0.99121,-1.250976 -0.99121,-4.074218 z m 1.26465,0 q 0,2.467773 0.57422,3.288086 0.58105,0.813476 1.42871,0.813476 0.84766,0 1.42187,-0.820312 0.58106,-0.820313 0.58106,-3.28125 0,-2.47461 -0.58106,-3.288086 -0.57421,-0.813477 -1.43554,-0.813477 -0.84766,0 -1.35352,0.717774 -0.63574,0.916015 -0.63574,3.383789 z"
       id="flowRoot2-4-9"
       transform="matrix(0.99994873,0,0,1,-259.41064,621.14573)"
       aria-label="08:00" />
    <path
       style="display:inline;fill:none;stroke:currentColor;stroke-width:1;stroke-linecap:round;stroke-linejoin:round;stroke-dasharray:none;stroke-opacity:1;marker-start:url(#ArrowTriangleStylized-4_reversed)"
       d="M 709.94591,685.45835 H 149.97462"
       id="path17-0" />
    <rect
       style="fill:#888a85;stroke:none;stroke-width:1;stroke-linecap:round;stroke-linejoin:round;stroke-dasharray:none;stroke-opacity:1"
       id="rect3"
       width="499.97437"
       height="50"
       x="179.97308"
       y="725.45807" />
    <rect
       style="fill:#ffffff;fill-opacity:1;stroke:none;stroke-width:0.999994;stroke-linecap:round;stroke-linejoin:round;stroke-dasharray:none;stroke-opacity:1"
       rx="5"
       ry="5"
       id="rect14"
       width="399.97949"
       height="40"
       x="230.17001"
       y="730.45807" />
    <path
       style="font-size:22px;line-height:1.25;font-family:'Liberation Sans';-inkscape-font-specification:'Liberation Sans, Normal';stroke-width:1.00003"
       d="m 337.8584,54.420113 6.04785,-15.748047 h 2.24512 l 6.44531,15.748047 h -2.37402 l -1.83692,-4.769531 h -6.58496 l -1.72949,4.769531 z m 4.54394,-6.466797 h 5.33887 l -1.64355,-4.361328 q -0.75196,-1.987305 -1.11719,-3.265625 -0.30078,1.514648 -0.84863,3.007812 z m 11.61231,6.466797 V 43.01191 h 1.74023 v 1.62207 q 1.25684,-1.879883 3.63086,-1.879883 1.03125,0 1.89063,0.375977 0.87011,0.365234 1.2998,0.966797 0.42969,0.601562 0.60156,1.428711 0.10743,0.537109 0.10743,1.879882 v 7.014649 h -1.9336 V 47.48066 q 0,-1.181641 -0.22558,-1.761719 -0.22559,-0.59082 -0.80567,-0.93457 -0.56933,-0.354492 -1.34277,-0.354492 -1.23535,0 -2.1377,0.784179 -0.8916,0.78418 -0.8916,2.975586 v 6.230469 z m 12.23535,0 V 43.01191 h 1.74023 v 1.62207 q 1.25684,-1.879883 3.63086,-1.879883 1.03125,0 1.89063,0.375977 0.87012,0.365234 1.2998,0.966797 0.42969,0.601562 0.60157,1.428711 0.10742,0.537109 0.10742,1.879882 v 7.014649 h -1.9336 V 47.48066 q 0,-1.181641 -0.22558,-1.761719 -0.22559,-0.59082 -0.80567,-0.93457 -0.56933,-0.354492 -1.34277,-0.354492 -1.23535,0 -2.13769,0.784179 -0.89161,0.78418 -0.89161,2.975586 v 6.230469 z"
       id="flowRoot6"
       transform="matrix(0.99994873,0,0,1,-257.99176,703.9012)"
       aria-label="Ann" />
    <rect
       style="fill:url(#linearGradient14);fill-opacity:1;stroke:none;stroke-width:0.999994;stroke-linecap:round;stroke-linejoin:round;stroke-dasharray:none;stroke-opacity:1"
       id="rect12"
       width="19.998976"
       height="50"
       x="159.97411"
       y="725.45807" />
    <rect
       style="fill:url(#linearGradient13);fill-opacity:1;stroke:none;stroke-width:0.999994;stroke-linecap:round;stroke-linejoin:round;stroke-dasharray:none;stroke-opacity:1"
       id="rect13"
       width="19.998976"
       height="50"
       x="-699.94641"
       y="725.45807"
       transform="scale(-1,1)" />
    <g
       id="g42"
       transform="matrix(0.30767653,0,0,0.30769231,48.84647,585.42351)"
       style="stroke-width:3.25008">
      <path
         id="rect41"
         style="opacity:1;fill:#555753;fill-opacity:1;stroke:none;stroke-width:6.50017;stroke-linecap:round;stroke-linejoin:round"
         d="m 25,512.36218 c -2.769997,0 -5,2.23 -5,5 v 30 c 0,2.77 2.230003,5 5,5 h 2 c 0,4.41828 3.581722,8 8,8 4.418278,0 8,-3.58172 8,-8 h 19 c 0,4.41828 3.581722,8 8,8 4.418278,0 8,-3.58172 8,-8 h 2 c 2.769997,0 5,-2.23 5,-5 v -10.74953 c 0,-9.46883 -13.158756,-24.25047 -21.889457,-24.25047 z" />
      <path
         id="path42"
         style="opacity:1;fill:#ffffff;fill-opacity:1;stroke:none;stroke-width:6.50017;stroke-linecap:round;stroke-linejoin:round"
         d="m 62.5,515.29934 c -2.769997,0 -3,0.23 -3,3 v 11.99984 c 0,2.77 0.230003,3 3,3 h 2 11 2 c 3.119681,0 2.5,-0.64616 2.5,-2.74542 0,-2.68955 -8.658756,-15.25442 -17.389457,-15.25442 z" />
    </g>
    <path
       style="display:inline;fill:none;stroke:#555753;stroke-width:1;stroke-linecap:round;stroke-linejoin:round;stroke-dasharray:none;stroke-opacity:1"
       d="m 229.97056,685.45803 v -10.4615"
       id="path7" />
    <path
       style="font-size:14px;line-height:1.25;font-family:'Liberation Sans';-inkscape-font-specification:'Liberation Sans, Normal';text-align:center;text-anchor:middle;stroke-width:1.00003"
       d="m 422.47021,42.271695 q 0,-1.777344 0.36231,-2.857422 0.36914,-1.086914 1.08691,-1.674805 0.72461,-0.58789 1.81836,-0.58789 0.80664,0 1.41504,0.328125 0.6084,0.321289 1.00488,0.936523 0.39649,0.608398 0.62208,1.490234 0.22558,0.875 0.22558,2.365235 0,1.763672 -0.3623,2.850586 -0.36231,1.080078 -1.08692,1.674804 -0.71777,0.587891 -1.81836,0.587891 -1.44922,0 -2.27636,-1.039063 -0.99122,-1.250976 -0.99122,-4.074218 z m 1.26465,0 q 0,2.467773 0.57422,3.288086 0.58106,0.813476 1.42871,0.813476 0.84766,0 1.42188,-0.820312 0.58105,-0.820313 0.58105,-3.28125 0,-2.47461 -0.58105,-3.288086 -0.57422,-0.813477 -1.43555,-0.813477 -0.84766,0 -1.35351,0.717774 -0.63575,0.916015 -0.63575,3.383789 z m 6.70606,2.625 1.18262,-0.109375 q 0.15039,0.833984 0.57421,1.209961 0.42383,0.375976 1.08692,0.375976 0.56738,0 0.99121,-0.259765 0.43066,-0.259766 0.7041,-0.69043 0.27344,-0.4375 0.45801,-1.175781 0.18457,-0.738282 0.18457,-1.503907 0,-0.08203 -0.007,-0.246093 -0.36914,0.58789 -1.01172,0.957031 -0.63574,0.362305 -1.38086,0.362305 -1.24414,0 -2.10546,-0.902344 -0.86133,-0.902344 -0.86133,-2.378906 0,-1.524414 0.89551,-2.454102 0.90234,-0.929687 2.25585,-0.929687 0.97754,0 1.78418,0.526367 0.81348,0.526367 1.23047,1.503906 0.42383,0.970703 0.42383,2.816406 0,1.920899 -0.41699,3.0625 -0.41699,1.134766 -1.24414,1.729492 -0.82031,0.594727 -1.92774,0.594727 -1.17578,0 -1.92089,-0.649414 -0.74512,-0.65625 -0.89551,-1.838867 z m 5.03808,-4.422852 q 0,-1.05957 -0.56738,-1.68164 -0.56055,-0.622071 -1.35351,-0.622071 -0.82032,0 -1.42872,0.669922 -0.60839,0.669922 -0.60839,1.736328 0,0.957031 0.57421,1.558594 0.58106,0.594727 1.42872,0.594727 0.85449,0 1.40136,-0.594727 0.55371,-0.601563 0.55371,-1.661133 z m 3.24707,0.881836 v -1.401367 h 1.40137 v 1.401367 z m 0,5.858399 V 45.81271 h 1.40137 v 1.401368 z m 3.20606,-4.942383 q 0,-1.777344 0.3623,-2.857422 0.36914,-1.086914 1.08692,-1.674805 0.72461,-0.58789 1.81836,-0.58789 0.80664,0 1.41504,0.328125 0.60839,0.321289 1.00488,0.936523 0.39648,0.608398 0.62207,1.490234 0.22559,0.875 0.22559,2.365235 0,1.763672 -0.36231,2.850586 -0.3623,1.080078 -1.08691,1.674804 -0.71778,0.587891 -1.81836,0.587891 -1.44922,0 -2.27637,-1.039063 -0.99121,-1.250976 -0.99121,-4.074218 z m 1.26465,0 q 0,2.467773 0.57422,3.288086 0.58105,0.813476 1.42871,0.813476 0.84765,0 1.42187,-0.820312 0.58106,-0.820313 0.58106,-3.28125 0,-2.47461 -0.58106,-3.288086 -0.57422,-0.813477 -1.43554,-0.813477 -0.84766,0 -1.35352,0.717774 -0.63574,0.916015 -0.63574,3.383789 z m 6.52148,0 q 0,-1.777344 0.36231,-2.857422 0.36914,-1.086914 1.08691,-1.674805 0.72461,-0.58789 1.81836,-0.58789 0.80664,0 1.41504,0.328125 0.6084,0.321289 1.00488,0.936523 0.39649,0.608398 0.62207,1.490234 0.22559,0.875 0.22559,2.365235 0,1.763672 -0.36231,2.850586 -0.3623,1.080078 -1.08691,1.674804 -0.71777,0.587891 -1.81836,0.587891 -1.44922,0 -2.27637,-1.039063 -0.99121,-1.250976 -0.99121,-4.074218 z m 1.26465,0 q 0,2.467773 0.57422,3.288086 0.58105,0.813476 1.42871,0.813476 0.84766,0 1.42187,-0.820312 0.58106,-0.820313 0.58106,-3.28125 0,-2.47461 -0.58106,-3.288086 -0.57421,-0.813477 -1.43554,-0.813477 -0.84766,0 -1.35352,0.717774 -0.63574,0.916015 -0.63574,3.383789 z"
       id="flowRoot7"
       transform="matrix(0.99994873,0,0,1,-209.41316,621.14573)"
       aria-label="09:00" />
    <path
       style="display:inline;fill:none;stroke:#555753;stroke-width:1;stroke-linecap:round;stroke-linejoin:round;stroke-dasharray:none;stroke-opacity:1"
       d="m 279.96768,685.45803 v -10.4615"
       id="path8" />
    <path
       style="font-size:14px;line-height:1.25;font-family:'Liberation Sans';-inkscape-font-specification:'Liberation Sans, Normal';text-align:center;text-anchor:middle;stroke-width:1.00003"
       d="m 427.10498,47.214078 h -1.23047 v -7.840821 q -0.44433,0.423828 -1.16894,0.847656 -0.71778,0.423829 -1.292,0.635743 v -1.189453 q 1.03223,-0.485352 1.80469,-1.175782 0.77246,-0.690429 1.09375,-1.339843 h 0.79297 z m 3.15137,-4.942383 q 0,-1.777344 0.3623,-2.857422 0.36914,-1.086914 1.08692,-1.674805 0.72461,-0.58789 1.81836,-0.58789 0.80664,0 1.41503,0.328125 0.6084,0.321289 1.00489,0.936523 0.39648,0.608398 0.62207,1.490234 0.22558,0.875 0.22558,2.365235 0,1.763672 -0.3623,2.850586 -0.36231,1.080078 -1.08691,1.674804 -0.71778,0.587891 -1.81836,0.587891 -1.44922,0 -2.27637,-1.039063 -0.99121,-1.250976 -0.99121,-4.074218 z m 1.26465,0 q 0,2.467773 0.57421,3.288086 0.58106,0.813476 1.42872,0.813476 0.84765,0 1.42187,-0.820312 0.58106,-0.820313 0.58106,-3.28125 0,-2.47461 -0.58106,-3.288086 -0.57422,-0.813477 -1.43555,-0.813477 -0.84765,0 -1.35351,0.717774 -0.63574,0.916015 -0.63574,3.383789 z m 7.20507,-0.916016 v -1.401367 h 1.40137 v 1.401367 z m 0,5.858399 V 45.81271 h 1.40137 v 1.401368 z m 3.20606,-4.942383 q 0,-1.777344 0.3623,-2.857422 0.36914,-1.086914 1.08692,-1.674805 0.72461,-0.58789 1.81836,-0.58789 0.80664,0 1.41504,0.328125 0.60839,0.321289 1.00488,0.936523 0.39648,0.608398 0.62207,1.490234 0.22559,0.875 0.22559,2.365235 0,1.763672 -0.36231,2.850586 -0.3623,1.080078 -1.08691,1.674804 -0.71778,0.587891 -1.81836,0.587891 -1.44922,0 -2.27637,-1.039063 -0.99121,-1.250976 -0.99121,-4.074218 z m 1.26465,0 q 0,2.467773 0.57422,3.288086 0.58105,0.813476 1.42871,0.813476 0.84765,0 1.42187,-0.820312 0.58106,-0.820313 0.58106,-3.28125 0,-2.47461 -0.58106,-3.288086 -0.57422,-0.813477 -1.43554,-0.813477 -0.84766,0 -1.35352,0.717774 -0.63574,0.916015 -0.63574,3.383789 z m 6.52148,0 q 0,-1.777344 0.36231,-2.857422 0.36914,-1.086914 1.08691,-1.674805 0.72461,-0.58789 1.81836,-0.58789 0.80664,0 1.41504,0.328125 0.6084,0.321289 1.00488,0.936523 0.39649,0.608398 0.62207,1.490234 0.22559,0.875 0.22559,2.365235 0,1.763672 -0.36231,2.850586 -0.3623,1.080078 -1.08691,1.674804 -0.71777,0.587891 -1.81836,0.587891 -1.44922,0 -2.27637,-1.039063 -0.99121,-1.250976 -0.99121,-4.074218 z m 1.26465,0 q 0,2.467773 0.57422,3.288086 0.58105,0.813476 1.42871,0.813476 0.84766,0 1.42187,-0.820312 0.58106,-0.820313 0.58106,-3.28125 0,-2.47461 -0.58106,-3.288086 -0.57421,-0.813477 -1.43554,-0.813477 -0.84766,0 -1.35352,0.717774 -0.63574,0.916015 -0.63574,3.383789 z"
       id="flowRoot8"
       transform="matrix(0.99994873,0,0,1,-159.41605,621.14573)"
       aria-label="10:00" />
    <path
       style="display:inline;fill:none;stroke:#555753;stroke-width:1;stroke-linecap:round;stroke-linejoin:round;stroke-dasharray:none;stroke-opacity:1"
       d="m 329.96511,685.45803 v -10.4615"
       id="path9" />
    <path
       style="font-size:14px;line-height:1.25;font-family:'Liberation Sans';-inkscape-font-specification:'Liberation Sans, Normal';text-align:center;text-anchor:middle;stroke-width:1.00003"
       d="m 427.62451,47.214078 h -1.23047 v -7.840821 q -0.44433,0.423828 -1.16894,0.847656 -0.71778,0.423829 -1.29199,0.635743 v -1.189453 q 1.03222,-0.485352 1.80468,-1.175782 0.77246,-0.690429 1.09375,-1.339843 h 0.79297 z m 6.74707,0 h -1.23047 v -7.840821 q -0.44433,0.423828 -1.16894,0.847656 -0.71778,0.423829 -1.29199,0.635743 v -1.189453 q 1.03222,-0.485352 1.80468,-1.175782 0.77246,-0.690429 1.09375,-1.339843 h 0.79297 z m 3.83496,-5.858399 v -1.401367 h 1.40137 v 1.401367 z m 0,5.858399 V 45.81271 h 1.40137 v 1.401368 z m 3.20606,-4.942383 q 0,-1.777344 0.3623,-2.857422 0.36914,-1.086914 1.08692,-1.674805 0.72461,-0.58789 1.81836,-0.58789 0.80664,0 1.41503,0.328125 0.6084,0.321289 1.00489,0.936523 0.39648,0.608398 0.62207,1.490234 0.22558,0.875 0.22558,2.365235 0,1.763672 -0.3623,2.850586 -0.36231,1.080078 -1.08691,1.674804 -0.71778,0.587891 -1.81836,0.587891 -1.44922,0 -2.27637,-1.039063 -0.99121,-1.250976 -0.99121,-4.074218 z m 1.26465,0 q 0,2.467773 0.57421,3.288086 0.58106,0.813476 1.42872,0.813476 0.84765,0 1.42187,-0.820312 0.58106,-0.820313 0.58106,-3.28125 0,-2.47461 -0.58106,-3.288086 -0.57422,-0.813477 -1.43555,-0.813477 -0.84765,0 -1.35351,0.717774 -0.63574,0.916015 -0.63574,3.383789 z m 6.52148,0 q 0,-1.777344 0.36231,-2.857422 0.36914,-1.086914 1.08691,-1.674805 0.72461,-0.58789 1.81836,-0.58789 0.80664,0 1.41504,0.328125 0.6084,0.321289 1.00488,0.936523 0.39648,0.608398 0.62207,1.490234 0.22559,0.875 0.22559,2.365235 0,1.763672 -0.36231,2.850586 -0.3623,1.080078 -1.08691,1.674804 -0.71778,0.587891 -1.81836,0.587891 -1.44922,0 -2.27637,-1.039063 -0.99121,-1.250976 -0.99121,-4.074218 z m 1.26465,0 q 0,2.467773 0.57422,3.288086 0.58105,0.813476 1.42871,0.813476 0.84765,0 1.42187,-0.820312 0.58106,-0.820313 0.58106,-3.28125 0,-2.47461 -0.58106,-3.288086 -0.57422,-0.813477 -1.43554,-0.813477 -0.84766,0 -1.35352,0.717774 -0.63574,0.916015 -0.63574,3.383789 z"
       id="flowRoot9"
       transform="matrix(0.99994873,0,0,1,-109.41861,621.14573)"
       aria-label="11:00" />
    <path
       style="display:inline;fill:none;stroke:#555753;stroke-width:1;stroke-linecap:round;stroke-linejoin:round;stroke-dasharray:none;stroke-opacity:1"
       d="m 379.96255,685.45803 v -10.4615"
       id="path10" />
    <path
       style="font-size:14px;line-height:1.25;font-family:'Liberation Sans';-inkscape-font-specification:'Liberation Sans, Normal';text-align:center;text-anchor:middle;stroke-width:1.00003"
       d="m 427.10498,47.214078 h -1.23047 v -7.840821 q -0.44433,0.423828 -1.16894,0.847656 -0.71778,0.423829 -1.292,0.635743 v -1.189453 q 1.03223,-0.485352 1.80469,-1.175782 0.77246,-0.690429 1.09375,-1.339843 h 0.79297 z m 9.61816,-1.182618 v 1.182618 h -6.62402 q -0.0137,-0.444336 0.14356,-0.854493 0.25293,-0.676757 0.80664,-1.333007 0.56054,-0.65625 1.61328,-1.517579 1.63379,-1.339843 2.20801,-2.11914 0.57421,-0.786133 0.57421,-1.483399 0,-0.731445 -0.52636,-1.230468 -0.51953,-0.50586 -1.36035,-0.50586 -0.88868,0 -1.42188,0.533203 -0.5332,0.533203 -0.54004,1.476563 l -1.26465,-0.129883 q 0.12989,-1.415039 0.97754,-2.15332 0.84766,-0.745117 2.27637,-0.745117 1.44238,0 2.2832,0.799804 0.84082,0.799805 0.84082,1.982422 0,0.601563 -0.24609,1.182617 -0.24609,0.581055 -0.82031,1.223633 -0.56739,0.642578 -1.89356,1.763672 -1.10742,0.929687 -1.42187,1.264648 -0.31446,0.328125 -0.51953,0.663086 z m 2.00293,-4.675781 v -1.401367 h 1.40137 v 1.401367 z m 0,5.858399 V 45.81271 h 1.40137 v 1.401368 z m 3.20606,-4.942383 q 0,-1.777344 0.3623,-2.857422 0.36914,-1.086914 1.08692,-1.674805 0.72461,-0.58789 1.81836,-0.58789 0.80664,0 1.41504,0.328125 0.60839,0.321289 1.00488,0.936523 0.39648,0.608398 0.62207,1.490234 0.22559,0.875 0.22559,2.365235 0,1.763672 -0.36231,2.850586 -0.3623,1.080078 -1.08691,1.674804 -0.71778,0.587891 -1.81836,0.587891 -1.44922,0 -2.27637,-1.039063 -0.99121,-1.250976 -0.99121,-4.074218 z m 1.26465,0 q 0,2.467773 0.57422,3.288086 0.58105,0.813476 1.42871,0.813476 0.84765,0 1.42187,-0.820312 0.58106,-0.820313 0.58106,-3.28125 0,-2.47461 -0.58106,-3.288086 -0.57422,-0.813477 -1.43554,-0.813477 -0.84766,0 -1.35352,0.717774 -0.63574,0.916015 -0.63574,3.383789 z m 6.52148,0 q 0,-1.777344 0.36231,-2.857422 0.36914,-1.086914 1.08691,-1.674805 0.72461,-0.58789 1.81836,-0.58789 0.80664,0 1.41504,0.328125 0.6084,0.321289 1.00488,0.936523 0.39649,0.608398 0.62207,1.490234 0.22559,0.875 0.22559,2.365235 0,1.763672 -0.36231,2.850586 -0.3623,1.080078 -1.08691,1.674804 -0.71777,0.587891 -1.81836,0.587891 -1.44922,0 -2.27637,-1.039063 -0.99121,-1.250976 -0.99121,-4.074218 z m 1.26465,0 q 0,2.467773 0.57422,3.288086 0.58105,0.813476 1.42871,0.813476 0.84766,0 1.42187,-0.820312 0.58106,-0.820313 0.58106,-3.28125 0,-2.47461 -0.58106,-3.288086 -0.57421,-0.813477 -1.43554,-0.813477 -0.84766,0 -1.35352,0.717774 -0.63574,0.916015 -0.63574,3.383789 z"
       id="flowRoot10"
       transform="matrix(0.99994873,0,0,1,-59.421168,621.14573)"
       aria-label="12:00" />
    <path
       style="display:inline;fill:none;stroke:#555753;stroke-width:1;stroke-linecap:round;stroke-linejoin:round;stroke-dasharray:none;stroke-opacity:1"
       d="m 429.95998,685.45803 v -10.4615"
       id="path11" />
    <path
       style="font-size:14px;line-height:1.25;font-family:'Liberation Sans';-inkscape-font-specification:'Liberation Sans, Normal';text-align:center;text-anchor:middle;stroke-width:1.00003"
       d="m 427.10498,47.214078 h -1.23047 v -7.840821 q -0.44433,0.423828 -1.16894,0.847656 -0.71778,0.423829 -1.292,0.635743 v -1.189453 q 1.03223,-0.485352 1.80469,-1.175782 0.77246,-0.690429 1.09375,-1.339843 h 0.79297 z m 3.1582,-2.645508 1.23047,-0.164063 q 0.21192,1.045899 0.71778,1.510742 0.51269,0.458008 1.24414,0.458008 0.86816,0 1.46289,-0.601562 0.60156,-0.601563 0.60156,-1.490235 0,-0.847656 -0.55371,-1.394531 -0.55371,-0.553711 -1.4082,-0.553711 -0.34864,0 -0.86817,0.136719 l 0.13672,-1.080078 q 0.12305,0.01367 0.19824,0.01367 0.78614,0 1.41504,-0.410157 0.62891,-0.410156 0.62891,-1.264648 0,-0.676758 -0.45801,-1.121094 -0.45801,-0.444336 -1.18262,-0.444336 -0.71777,0 -1.19629,0.451172 -0.47851,0.451172 -0.61523,1.353516 l -1.23047,-0.21875 q 0.22559,-1.237305 1.02539,-1.914063 0.79981,-0.683593 1.98926,-0.683593 0.82031,0 1.51074,0.355468 0.69043,0.348633 1.05274,0.957032 0.36914,0.608398 0.36914,1.291992 0,0.649414 -0.34864,1.182617 -0.34863,0.533203 -1.03222,0.847656 0.88867,0.205078 1.38086,0.854492 0.49218,0.642578 0.49218,1.613282 0,1.3125 -0.95703,2.228515 -0.95703,0.90918 -2.41992,0.90918 -1.31934,0 -2.19434,-0.786133 -0.86816,-0.786133 -0.99121,-2.037109 z m 8.46289,-3.212891 v -1.401367 h 1.40137 v 1.401367 z m 0,5.858399 V 45.81271 h 1.40137 v 1.401368 z m 3.20606,-4.942383 q 0,-1.777344 0.3623,-2.857422 0.36914,-1.086914 1.08692,-1.674805 0.72461,-0.58789 1.81836,-0.58789 0.80664,0 1.41504,0.328125 0.60839,0.321289 1.00488,0.936523 0.39648,0.608398 0.62207,1.490234 0.22559,0.875 0.22559,2.365235 0,1.763672 -0.36231,2.850586 -0.3623,1.080078 -1.08691,1.674804 -0.71778,0.587891 -1.81836,0.587891 -1.44922,0 -2.27637,-1.039063 -0.99121,-1.250976 -0.99121,-4.074218 z m 1.26465,0 q 0,2.467773 0.57422,3.288086 0.58105,0.813476 1.42871,0.813476 0.84765,0 1.42187,-0.820312 0.58106,-0.820313 0.58106,-3.28125 0,-2.47461 -0.58106,-3.288086 -0.57422,-0.813477 -1.43554,-0.813477 -0.84766,0 -1.35352,0.717774 -0.63574,0.916015 -0.63574,3.383789 z m 6.52148,0 q 0,-1.777344 0.36231,-2.857422 0.36914,-1.086914 1.08691,-1.674805 0.72461,-0.58789 1.81836,-0.58789 0.80664,0 1.41504,0.328125 0.6084,0.321289 1.00488,0.936523 0.39649,0.608398 0.62207,1.490234 0.22559,0.875 0.22559,2.365235 0,1.763672 -0.36231,2.850586 -0.3623,1.080078 -1.08691,1.674804 -0.71777,0.587891 -1.81836,0.587891 -1.44922,0 -2.27637,-1.039063 -0.99121,-1.250976 -0.99121,-4.074218 z m 1.26465,0 q 0,2.467773 0.57422,3.288086 0.58105,0.813476 1.42871,0.813476 0.84766,0 1.42187,-0.820312 0.58106,-0.820313 0.58106,-3.28125 0,-2.47461 -0.58106,-3.288086 -0.57421,-0.813477 -1.43554,-0.813477 -0.84766,0 -1.35352,0.717774 -0.63574,0.916015 -0.63574,3.383789 z"
       id="flowRoot11"
       transform="matrix(0.99994873,0,0,1,-9.4237321,621.14573)"
       aria-label="13:00" />
    <path
       style="display:inline;fill:none;stroke:#555753;stroke-width:1;stroke-linecap:round;stroke-linejoin:round;stroke-dasharray:none;stroke-opacity:1"
       d="m 479.95742,685.45803 v -10.4615"
       id="path12" />
    <path
       style="font-size:14px;line-height:1.25;font-family:'Liberation Sans';-inkscape-font-specification:'Liberation Sans, Normal';text-align:center;text-anchor:middle;stroke-width:1.00003"
       d="m 427.10498,47.214078 h -1.23047 v -7.840821 q -0.44433,0.423828 -1.16894,0.847656 -0.71778,0.423829 -1.292,0.635743 v -1.189453 q 1.03223,-0.485352 1.80469,-1.175782 0.77246,-0.690429 1.09375,-1.339843 h 0.79297 z m 7.0957,0 v -2.399415 h -4.34765 v -1.127929 l 4.57324,-6.494141 h 1.00488 v 6.494141 h 1.35352 v 1.127929 h -1.35352 v 2.399415 z m 0,-3.527344 v -4.518555 l -3.13769,4.518555 z m 4.52539,-2.331055 v -1.401367 h 1.40137 v 1.401367 z m 0,5.858399 V 45.81271 h 1.40137 v 1.401368 z m 3.20606,-4.942383 q 0,-1.777344 0.3623,-2.857422 0.36914,-1.086914 1.08692,-1.674805 0.72461,-0.58789 1.81836,-0.58789 0.80664,0 1.41504,0.328125 0.60839,0.321289 1.00488,0.936523 0.39648,0.608398 0.62207,1.490234 0.22559,0.875 0.22559,2.365235 0,1.763672 -0.36231,2.850586 -0.3623,1.080078 -1.08691,1.674804 -0.71778,0.587891 -1.81836,0.587891 -1.44922,0 -2.27637,-1.039063 -0.99121,-1.250976 -0.99121,-4.074218 z m 1.26465,0 q 0,2.467773 0.57422,3.288086 0.58105,0.813476 1.42871,0.813476 0.84765,0 1.42187,-0.820312 0.58106,-0.820313 0.58106,-3.28125 0,-2.47461 -0.58106,-3.288086 -0.57422,-0.813477 -1.43554,-0.813477 -0.84766,0 -1.35352,0.717774 -0.63574,0.916015 -0.63574,3.383789 z m 6.52148,0 q 0,-1.777344 0.36231,-2.857422 0.36914,-1.086914 1.08691,-1.674805 0.72461,-0.58789 1.81836,-0.58789 0.80664,0 1.41504,0.328125 0.6084,0.321289 1.00488,0.936523 0.39649,0.608398 0.62207,1.490234 0.22559,0.875 0.22559,2.365235 0,1.763672 -0.36231,2.850586 -0.3623,1.080078 -1.08691,1.674804 -0.71777,0.587891 -1.81836,0.587891 -1.44922,0 -2.27637,-1.039063 -0.99121,-1.250976 -0.99121,-4.074218 z m 1.26465,0 q 0,2.467773 0.57422,3.288086 0.58105,0.813476 1.42871,0.813476 0.84766,0 1.42187,-0.820312 0.58106,-0.820313 0.58106,-3.28125 0,-2.47461 -0.58106,-3.288086 -0.57421,-0.813477 -1.43554,-0.813477 -0.84766,0 -1.35352,0.717774 -0.63574,0.916015 -0.63574,3.383789 z"
       id="flowRoot39"
       transform="matrix(0.99994873,0,0,1,40.573705,621.14573)"
       aria-label="14:00" />
    <path
       style="display:inline;fill:none;stroke:#555753;stroke-width:1;stroke-linecap:round;stroke-linejoin:round;stroke-dasharray:none;stroke-opacity:1"
       d="m 529.95486,685.45803 v -10.4615"
       id="path39" />
    <path
       style="font-size:14px;line-height:1.25;font-family:'Liberation Sans';-inkscape-font-specification:'Liberation Sans, Normal';text-align:center;text-anchor:middle;stroke-width:1.00003"
       d="m 427.10498,47.214078 h -1.23047 v -7.840821 q -0.44433,0.423828 -1.16894,0.847656 -0.71778,0.423829 -1.292,0.635743 v -1.189453 q 1.03223,-0.485352 1.80469,-1.175782 0.77246,-0.690429 1.09375,-1.339843 h 0.79297 z m 3.15137,-2.625 1.29199,-0.109375 q 0.14355,0.943359 0.66309,1.421875 0.52636,0.471679 1.26464,0.471679 0.88868,0 1.50391,-0.669922 0.61523,-0.669922 0.61523,-1.777343 0,-1.052735 -0.59472,-1.661133 -0.58789,-0.608399 -1.54492,-0.608399 -0.59473,0 -1.07325,0.273438 -0.47851,0.266601 -0.75195,0.697265 l -1.15527,-0.15039 0.9707,-5.147461 h 4.9834 v 1.175781 h -3.99902 l -0.54004,2.69336 q 0.90234,-0.628907 1.89355,-0.628907 1.3125,0 2.21485,0.90918 0.90234,0.90918 0.90234,2.337891 0,1.360351 -0.79297,2.351562 -0.96387,1.216797 -2.63184,1.216797 -1.36718,0 -2.23535,-0.765625 -0.86133,-0.765625 -0.98437,-2.030273 z m 8.46972,-3.233399 v -1.401367 h 1.40137 v 1.401367 z m 0,5.858399 V 45.81271 h 1.40137 v 1.401368 z m 3.20606,-4.942383 q 0,-1.777344 0.3623,-2.857422 0.36914,-1.086914 1.08692,-1.674805 0.72461,-0.58789 1.81836,-0.58789 0.80664,0 1.41504,0.328125 0.60839,0.321289 1.00488,0.936523 0.39648,0.608398 0.62207,1.490234 0.22559,0.875 0.22559,2.365235 0,1.763672 -0.36231,2.850586 -0.3623,1.080078 -1.08691,1.674804 -0.71778,0.587891 -1.81836,0.587891 -1.44922,0 -2.27637,-1.039063 -0.99121,-1.250976 -0.99121,-4.074218 z m 1.26465,0 q 0,2.467773 0.57422,3.288086 0.58105,0.813476 1.42871,0.813476 0.84765,0 1.42187,-0.820312 0.58106,-0.820313 0.58106,-3.28125 0,-2.47461 -0.58106,-3.288086 -0.57422,-0.813477 -1.43554,-0.813477 -0.84766,0 -1.35352,0.717774 -0.63574,0.916015 -0.63574,3.383789 z m 6.52148,0 q 0,-1.777344 0.36231,-2.857422 0.36914,-1.086914 1.08691,-1.674805 0.72461,-0.58789 1.81836,-0.58789 0.80664,0 1.41504,0.328125 0.6084,0.321289 1.00488,0.936523 0.39649,0.608398 0.62207,1.490234 0.22559,0.875 0.22559,2.365235 0,1.763672 -0.36231,2.850586 -0.3623,1.080078 -1.08691,1.674804 -0.71777,0.587891 -1.81836,0.587891 -1.44922,0 -2.27637,-1.039063 -0.99121,-1.250976 -0.99121,-4.074218 z m 1.26465,0 q 0,2.467773 0.57422,3.288086 0.58105,0.813476 1.42871,0.813476 0.84766,0 1.42187,-0.820312 0.58106,-0.820313 0.58106,-3.28125 0,-2.47461 -0.58106,-3.288086 -0.57421,-0.813477 -1.43554,-0.813477 -0.84766,0 -1.35352,0.717774 -0.63574,0.916015 -0.63574,3.383789 z"
       id="flowRoot42"
       transform="matrix(0.99994873,0,0,1,90.571141,621.14573)"
       aria-label="15:00" />
    <path
       style="display:inline;fill:none;stroke:#555753;stroke-width:1;stroke-linecap:round;stroke-linejoin:round;stroke-dasharray:none;stroke-opacity:1"
       d="m 579.95229,685.45803 v -10.4615"
       id="path45" />
    <path
       style="font-size:14px;line-height:1.25;font-family:'Liberation Sans';-inkscape-font-specification:'Liberation Sans, Normal';text-align:center;text-anchor:middle;stroke-width:1.00003"
       d="m 427.10498,47.214078 h -1.23047 v -7.840821 q -0.44433,0.423828 -1.16894,0.847656 -0.71778,0.423829 -1.292,0.635743 v -1.189453 q 1.03223,-0.485352 1.80469,-1.175782 0.77246,-0.690429 1.09375,-1.339843 h 0.79297 z m 9.53613,-7.567383 -1.22363,0.0957 q -0.16406,-0.72461 -0.46484,-1.052735 -0.49903,-0.526367 -1.23047,-0.526367 -0.58789,0 -1.03223,0.328125 -0.58105,0.423828 -0.91601,1.237305 -0.33497,0.813477 -0.34864,2.317383 0.44434,-0.676758 1.08692,-1.004883 0.64258,-0.328125 1.34668,-0.328125 1.23047,0 2.09179,0.90918 0.86817,0.902343 0.86817,2.33789 0,0.94336 -0.41016,1.756836 -0.40332,0.806641 -1.11426,1.237305 -0.71093,0.430664 -1.61328,0.430664 -1.53808,0 -2.50879,-1.12793 -0.9707,-1.134765 -0.9707,-3.732422 0,-2.905273 1.07324,-4.224609 0.93653,-1.148437 2.52246,-1.148437 1.18262,0 1.93457,0.663085 0.75879,0.663086 0.90918,1.832032 z m -5.02441,4.320312 q 0,0.635742 0.2666,1.216797 0.27344,0.581055 0.75879,0.888672 0.48535,0.300781 1.01855,0.300781 0.7793,0 1.33985,-0.628906 0.56055,-0.628906 0.56055,-1.708984 0,-1.039063 -0.55372,-1.633789 -0.55371,-0.601563 -1.39453,-0.601563 -0.83398,0 -1.41504,0.601563 -0.58105,0.594726 -0.58105,1.565429 z m 7.10937,-2.611328 v -1.401367 h 1.40137 v 1.401367 z m 0,5.858399 V 45.81271 h 1.40137 v 1.401368 z m 3.20606,-4.942383 q 0,-1.777344 0.3623,-2.857422 0.36914,-1.086914 1.08692,-1.674805 0.72461,-0.58789 1.81836,-0.58789 0.80664,0 1.41504,0.328125 0.60839,0.321289 1.00488,0.936523 0.39648,0.608398 0.62207,1.490234 0.22559,0.875 0.22559,2.365235 0,1.763672 -0.36231,2.850586 -0.3623,1.080078 -1.08691,1.674804 -0.71778,0.587891 -1.81836,0.587891 -1.44922,0 -2.27637,-1.039063 -0.99121,-1.250976 -0.99121,-4.074218 z m 1.26465,0 q 0,2.467773 0.57422,3.288086 0.58105,0.813476 1.42871,0.813476 0.84765,0 1.42187,-0.820312 0.58106,-0.820313 0.58106,-3.28125 0,-2.47461 -0.58106,-3.288086 -0.57422,-0.813477 -1.43554,-0.813477 -0.84766,0 -1.35352,0.717774 -0.63574,0.916015 -0.63574,3.383789 z m 6.52148,0 q 0,-1.777344 0.36231,-2.857422 0.36914,-1.086914 1.08691,-1.674805 0.72461,-0.58789 1.81836,-0.58789 0.80664,0 1.41504,0.328125 0.6084,0.321289 1.00488,0.936523 0.39649,0.608398 0.62207,1.490234 0.22559,0.875 0.22559,2.365235 0,1.763672 -0.36231,2.850586 -0.3623,1.080078 -1.08691,1.674804 -0.71777,0.587891 -1.81836,0.587891 -1.44922,0 -2.27637,-1.039063 -0.99121,-1.250976 -0.99121,-4.074218 z m 1.26465,0 q 0,2.467773 0.57422,3.288086 0.58105,0.813476 1.42871,0.813476 0.84766,0 1.42187,-0.820312 0.58106,-0.820313 0.58106,-3.28125 0,-2.47461 -0.58106,-3.288086 -0.57421,-0.813477 -1.43554,-0.813477 -0.84766,0 -1.35352,0.717774 -0.63574,0.916015 -0.63574,3.383789 z"
       id="flowRoot45"
       transform="matrix(0.99994873,0,0,1,140.56857,621.14573)"
       aria-label="16:00" />
    <path
       style="display:inline;fill:none;stroke:#555753;stroke-width:1;stroke-linecap:round;stroke-linejoin:round;stroke-dasharray:none;stroke-opacity:1"
       d="m 629.94973,685.45803 v -10.4615"
       id="path46" />
    <path
       style="font-size:14px;line-height:1.25;font-family:'Liberation Sans';-inkscape-font-specification:'Liberation Sans, Normal';text-align:center;text-anchor:middle;stroke-width:1.00003"
       d="m 427.10498,47.214078 h -1.23047 v -7.840821 q -0.44433,0.423828 -1.16894,0.847656 -0.71778,0.423829 -1.292,0.635743 v -1.189453 q 1.03223,-0.485352 1.80469,-1.175782 0.77246,-0.690429 1.09375,-1.339843 h 0.79297 z m 3.2334,-8.708985 v -1.182617 h 6.4873 v 0.957031 q -0.95703,1.018555 -1.90039,2.707031 -0.93652,1.688477 -1.44922,3.472657 -0.36914,1.257812 -0.47168,2.754883 h -1.26464 q 0.0205,-1.182618 0.46484,-2.857422 0.44434,-1.674805 1.27148,-3.226563 0.83399,-1.558594 1.77051,-2.625 z m 8.38769,2.850586 v -1.401367 h 1.40137 v 1.401367 z m 0,5.858399 V 45.81271 h 1.40137 v 1.401368 z m 3.20606,-4.942383 q 0,-1.777344 0.3623,-2.857422 0.36914,-1.086914 1.08692,-1.674805 0.72461,-0.58789 1.81836,-0.58789 0.80664,0 1.41504,0.328125 0.60839,0.321289 1.00488,0.936523 0.39648,0.608398 0.62207,1.490234 0.22559,0.875 0.22559,2.365235 0,1.763672 -0.36231,2.850586 -0.3623,1.080078 -1.08691,1.674804 -0.71778,0.587891 -1.81836,0.587891 -1.44922,0 -2.27637,-1.039063 -0.99121,-1.250976 -0.99121,-4.074218 z m 1.26465,0 q 0,2.467773 0.57422,3.288086 0.58105,0.813476 1.42871,0.813476 0.84765,0 1.42187,-0.820312 0.58106,-0.820313 0.58106,-3.28125 0,-2.47461 -0.58106,-3.288086 -0.57422,-0.813477 -1.43554,-0.813477 -0.84766,0 -1.35352,0.717774 -0.63574,0.916015 -0.63574,3.383789 z m 6.52148,0 q 0,-1.777344 0.36231,-2.857422 0.36914,-1.086914 1.08691,-1.674805 0.72461,-0.58789 1.81836,-0.58789 0.80664,0 1.41504,0.328125 0.6084,0.321289 1.00488,0.936523 0.39649,0.608398 0.62207,1.490234 0.22559,0.875 0.22559,2.365235 0,1.763672 -0.36231,2.850586 -0.3623,1.080078 -1.08691,1.674804 -0.71777,0.587891 -1.81836,0.587891 -1.44922,0 -2.27637,-1.039063 -0.99121,-1.250976 -0.99121,-4.074218 z m 1.26465,0 q 0,2.467773 0.57422,3.288086 0.58105,0.813476 1.42871,0.813476 0.84766,0 1.42187,-0.820312 0.58106,-0.820313 0.58106,-3.28125 0,-2.47461 -0.58106,-3.288086 -0.57421,-0.813477 -1.43554,-0.813477 -0.84766,0 -1.35352,0.717774 -0.63574,0.916015 -0.63574,3.383789 z"
       id="flowRoot46"
       transform="matrix(0.99994873,0,0,1,190.56601,621.14573)"
       aria-label="17:00" />
    <path
       style="display:inline;fill:none;stroke:#555753;stroke-width:1;stroke-linecap:round;stroke-linejoin:round;stroke-dasharray:none;stroke-opacity:1"
       d="m 679.94717,685.45803 v -10.4615"
       id="path47" />
    <path
       style="font-size:14px;line-height:1.25;font-family:'Liberation Sans';-inkscape-font-specification:'Liberation Sans, Normal';text-align:center;text-anchor:middle;stroke-width:1.00003"
       d="m 427.10498,47.214078 h -1.23047 v -7.840821 q -0.44433,0.423828 -1.16894,0.847656 -0.71778,0.423829 -1.292,0.635743 v -1.189453 q 1.03223,-0.485352 1.80469,-1.175782 0.77246,-0.690429 1.09375,-1.339843 h 0.79297 z m 5.04492,-5.434571 q -0.76562,-0.280273 -1.13476,-0.799804 -0.36914,-0.519532 -0.36914,-1.244141 0,-1.09375 0.78613,-1.838867 0.78613,-0.745117 2.0918,-0.745117 1.3125,0 2.1123,0.765625 0.79981,0.758789 0.79981,1.852539 0,0.697265 -0.36915,1.216796 -0.3623,0.512696 -1.10742,0.792969 0.92285,0.300781 1.40137,0.970703 0.48535,0.669922 0.48535,1.59961 0,1.285156 -0.90918,2.160156 -0.90918,0.875 -2.39258,0.875 -1.48339,0 -2.39257,-0.875 -0.90918,-0.881836 -0.90918,-2.194336 0,-0.977539 0.49218,-1.633789 0.49903,-0.663086 1.41504,-0.902344 z m -0.24609,-2.084961 q 0,0.710938 0.45801,1.16211 0.458,0.451172 1.18945,0.451172 0.71094,0 1.16211,-0.444336 0.45801,-0.451172 0.45801,-1.100586 0,-0.676758 -0.47168,-1.134766 -0.46485,-0.464844 -1.16211,-0.464844 -0.7041,0 -1.16895,0.451172 -0.46484,0.451172 -0.46484,1.080078 z m -0.39649,4.62793 q 0,0.526367 0.2461,1.018555 0.25293,0.492187 0.74512,0.765625 0.49218,0.266601 1.05957,0.266601 0.88183,0 1.45605,-0.567383 0.57422,-0.567382 0.57422,-1.442382 0,-0.888672 -0.59473,-1.469727 -0.58789,-0.581055 -1.47656,-0.581055 -0.86816,0 -1.44238,0.574219 -0.56739,0.574219 -0.56739,1.435547 z m 7.21875,-2.966797 v -1.401367 h 1.40137 v 1.401367 z m 0,5.858399 V 45.81271 h 1.40137 v 1.401368 z m 3.20606,-4.942383 q 0,-1.777344 0.3623,-2.857422 0.36914,-1.086914 1.08692,-1.674805 0.72461,-0.58789 1.81836,-0.58789 0.80664,0 1.41504,0.328125 0.60839,0.321289 1.00488,0.936523 0.39648,0.608398 0.62207,1.490234 0.22559,0.875 0.22559,2.365235 0,1.763672 -0.36231,2.850586 -0.3623,1.080078 -1.08691,1.674804 -0.71778,0.587891 -1.81836,0.587891 -1.44922,0 -2.27637,-1.039063 -0.99121,-1.250976 -0.99121,-4.074218 z m 1.26465,0 q 0,2.467773 0.57422,3.288086 0.58105,0.813476 1.42871,0.813476 0.84765,0 1.42187,-0.820312 0.58106,-0.820313 0.58106,-3.28125 0,-2.47461 -0.58106,-3.288086 -0.57422,-0.813477 -1.43554,-0.813477 -0.84766,0 -1.35352,0.717774 -0.63574,0.916015 -0.63574,3.383789 z m 6.52148,0 q 0,-1.777344 0.36231,-2.857422 0.36914,-1.086914 1.08691,-1.674805 0.72461,-0.58789 1.81836,-0.58789 0.80664,0 1.41504,0.328125 0.6084,0.321289 1.00488,0.936523 0.39649,0.608398 0.62207,1.490234 0.22559,0.875 0.22559,2.365235 0,1.763672 -0.36231,2.850586 -0.3623,1.080078 -1.08691,1.674804 -0.71777,0.587891 -1.81836,0.587891 -1.44922,0 -2.27637,-1.039063 -0.99121,-1.250976 -0.99121,-4.074218 z m 1.26465,0 q 0,2.467773 0.57422,3.288086 0.58105,0.813476 1.42871,0.813476 0.84766,0 1.42187,-0.820312 0.58106,-0.820313 0.58106,-3.28125 0,-2.47461 -0.58106,-3.288086 -0.57421,-0.813477 -1.43554,-0.813477 -0.84766,0 -1.35352,0.717774 -0.63574,0.916015 -0.63574,3.383789 z"
       id="flowRoot48"
       transform="matrix(0.99994873,0,0,1,240.56345,621.14573)"
       aria-label="18:00" />
  </g>
  <g
     id="layer5"
     style="display:inline" />
  <g
     id="layer2"
     style="display:inline" />
  <g
     id="layer4"
     style="display:inline" />
  <g
     id="layer3"
     style="display:inline" />
</svg>
