<?xml version="1.0" encoding="UTF-8" standalone="no"?>
<svg
   width="800"
   height="600"
   id="svg2"
   version="1.1"
   xmlns="http://www.w3.org/2000/svg"
   xmlns:svg="http://www.w3.org/2000/svg"
   xmlns:rdf="http://www.w3.org/1999/02/22-rdf-syntax-ns#"
   xmlns:cc="http://creativecommons.org/ns#"
   xmlns:dc="http://purl.org/dc/elements/1.1/">
  <defs
     id="defs4">
    <marker
       style="overflow:visible"
       id="Triangle-02"
       refX="0"
       refY="0"
       orient="auto-start-reverse"
       markerWidth="2"
       markerHeight="2"
       viewBox="0 0 1 1"
       preserveAspectRatio="xMidYMid">
      <path
         transform="scale(0.5)"
         style="fill:#000000;fill:context-stroke;fill-rule:evenodd;stroke:context-stroke;stroke-width:1pt"
         d="M 5.77,0 -2.88,5 V -5 Z"
         id="path135-4" />
    </marker>
    <marker
       style="overflow:visible"
       id="Triangle-02_reversed"
       refX="0"
       refY="0"
       orient="auto"
       markerWidth="2"
       markerHeight="2"
       viewBox="0 0 1 1"
       preserveAspectRatio="xMidYMid">
      <g
         transform="rotate(180,0,0)"
         id="g1">
        <path
           transform="scale(0.5)"
           style="fill:#000000;fill:context-stroke;fill-rule:evenodd;stroke:context-stroke;stroke-width:1pt"
           d="M 5.77,0 -2.88,5 V -5 Z"
           id="path1" />
      </g>
    </marker>
    <marker
       style="overflow:visible"
       id="Triangle-02-6"
       refX="0"
       refY="0"
       orient="auto-start-reverse"
       markerWidth="2"
       markerHeight="2"
       viewBox="0 0 1 1"
       preserveAspectRatio="xMidYMid">
      <path
         transform="scale(0.5)"
         style="fill:#000000;fill:context-stroke;fill-rule:evenodd;stroke:context-stroke;stroke-width:1pt"
         d="M 5.77,0 -2.88,5 V -5 Z"
         id="path135-4-8" />
    </marker>
    <marker
       style="overflow:visible"
       id="Triangle-02-6_reversed"
       refX="0"
       refY="0"
       orient="auto"
       markerWidth="2"
       markerHeight="2"
       viewBox="0 0 1 1"
       preserveAspectRatio="xMidYMid">
      <g
         transform="rotate(180,0,0)"
         id="g2">
        <path
           transform="scale(0.5)"
           style="fill:#000000;fill:context-stroke;fill-rule:evenodd;stroke:context-stroke;stroke-width:1pt"
           d="M 5.77,0 -2.88,5 V -5 Z"
           id="path2" />
      </g>
    </marker>
    <marker
       style="overflow:visible"
       id="Triangle-02-6-2"
       refX="0"
       refY="0"
       orient="auto-start-reverse"
       markerWidth="2"
       markerHeight="2"
       viewBox="0 0 1 1"
       preserveAspectRatio="xMidYMid">
      <path
         transform="scale(0.5)"
         style="fill:#000000;fill:context-stroke;fill-rule:evenodd;stroke:context-stroke;stroke-width:1pt"
         d="M 5.77,0 -2.88,5 V -5 Z"
         id="path135-4-8-8" />
    </marker>
    <marker
       style="overflow:visible"
       id="Triangle-02-6-2_reversed"
       refX="0"
       refY="0"
       orient="auto"
       markerWidth="2"
       markerHeight="2"
       viewBox="0 0 1 1"
       preserveAspectRatio="xMidYMid">
      <g
         transform="rotate(180,0,0)"
         id="g3">
        <path
           transform="scale(0.5)"
           style="fill:#000000;fill:context-stroke;fill-rule:evenodd;stroke:context-stroke;stroke-width:1pt"
           d="M 5.77,0 -2.88,5 V -5 Z"
           id="path3" />
      </g>
    </marker>
    <marker
       style="overflow:visible"
       id="Triangle-02-6-2-8"
       refX="0"
       refY="0"
       orient="auto-start-reverse"
       markerWidth="2"
       markerHeight="2"
       viewBox="0 0 1 1"
       preserveAspectRatio="xMidYMid">
      <path
         transform="scale(0.5)"
         style="fill:#000000;fill:context-stroke;fill-rule:evenodd;stroke:context-stroke;stroke-width:1pt"
         d="M 5.77,0 -2.88,5 V -5 Z"
         id="path135-4-8-8-1" />
    </marker>
    <marker
       style="overflow:visible"
       id="Triangle-02-6-2-8_reversed"
       refX="0"
       refY="0"
       orient="auto"
       markerWidth="2"
       markerHeight="2"
       viewBox="0 0 1 1"
       preserveAspectRatio="xMidYMid">
      <g
         transform="rotate(180,0,0)"
         id="g4">
        <path
           transform="scale(0.5)"
           style="fill:#000000;fill:context-stroke;fill-rule:evenodd;stroke:context-stroke;stroke-width:1pt"
           d="M 5.77,0 -2.88,5 V -5 Z"
           id="path4" />
      </g>
    </marker>
  </defs>
  <metadata
     id="metadata7">
    <rdf:RDF>
      <cc:Work
         rdf:about="">
        <dc:format>image/svg+xml</dc:format>
        <dc:type
           rdf:resource="http://purl.org/dc/dcmitype/StillImage" />
        <dc:language>en</dc:language>
        <cc:license
           rdf:resource="https://timefold.ai/product/license/" />
      </cc:Work>
    </rdf:RDF>
  </metadata>
  <g
     id="layer1"
     transform="translate(0,-378.8106)"
     style="display:inline">
    <path
       style="font-size:37.3333px;font-family:Arial;-inkscape-font-specification:Arial;text-align:center;text-anchor:middle"
       d="M 265.00664,253.62814 V 226.9042 h 10.02604 q 3.06249,0 4.90364,0.82031 1.85937,0.80209 2.89843,2.4974 1.05729,1.67708 1.05729,3.51822 0,1.71354 -0.92968,3.22656 -0.92969,1.51302 -2.80729,2.44271 2.42447,0.71094 3.71874,2.42448 1.3125,1.71354 1.3125,4.04687 0,1.8776 -0.80208,3.49999 -0.78385,1.60417 -1.95052,2.47917 -1.16666,0.875 -2.93489,1.33073 -1.75,0.4375 -4.30208,0.4375 z m 3.53646,-15.49478 h 5.77864 q 2.35156,0 3.37239,-0.3099 1.34896,-0.40104 2.02344,-1.33073 0.69271,-0.92968 0.69271,-2.33333 0,-1.33072 -0.63803,-2.33333 -0.63802,-1.02083 -1.82291,-1.38541 -1.1849,-0.38282 -4.0651,-0.38282 h -5.34114 z m 0,12.34113 h 6.65364 q 1.71354,0 2.40625,-0.1276 1.22135,-0.21875 2.04166,-0.72917 0.82031,-0.51041 1.34896,-1.47656 0.52864,-0.98437 0.52864,-2.26041 0,-1.49479 -0.76562,-2.58854 -0.76563,-1.11198 -2.13281,-1.54948 -1.34896,-0.45573 -3.90104,-0.45573 h -6.17968 z m 33.72393,0.76563 q -1.82292,1.54948 -3.51823,2.1875 -1.67708,0.63802 -3.60937,0.63802 -3.1901,0 -4.90364,-1.54948 -1.71354,-1.56771 -1.71354,-3.99219 0,-1.42187 0.63802,-2.58854 0.65625,-1.18489 1.69531,-1.89583 1.05729,-0.71093 2.36979,-1.07552 0.96614,-0.25521 2.91666,-0.49218 3.97396,-0.47396 5.85156,-1.13021 0.0182,-0.67448 0.0182,-0.85677 0,-2.00521 -0.92969,-2.82552 -1.25781,-1.11198 -3.73697,-1.11198 -2.31511,0 -3.42708,0.82031 -1.09375,0.80209 -1.6224,2.86198 l -3.20833,-0.4375 q 0.4375,-2.05989 1.4401,-3.3177 1.00261,-1.27605 2.89844,-1.95052 1.89583,-0.69271 4.39322,-0.69271 2.47917,0 4.02865,0.58333 1.54947,0.58333 2.27864,1.47656 0.72917,0.875 1.02083,2.22396 0.16407,0.83854 0.16407,3.02604 v 4.37499 q 0,4.57552 0.20052,5.79687 0.21875,1.20313 0.83854,2.31511 h -3.42708 q -0.51042,-1.02084 -0.65625,-2.38802 z m -0.27344,-7.32812 q -1.78646,0.72916 -5.35937,1.23958 -2.02344,0.29167 -2.86198,0.65625 -0.83854,0.36458 -1.29427,1.07552 -0.45573,0.69271 -0.45573,1.54948 0,1.3125 0.98438,2.1875 1.0026,0.875 2.91666,0.875 1.89583,0 3.3724,-0.82032 1.47656,-0.83854 2.16926,-2.27864 0.52865,-1.11198 0.52865,-3.28125 z m 8.33072,9.71614 V 226.9042 h 3.28125 v 26.72394 z m 20.99998,-2.38802 q -1.82291,1.54948 -3.51822,2.1875 -1.67708,0.63802 -3.60937,0.63802 -3.19011,0 -4.90365,-1.54948 -1.71354,-1.56771 -1.71354,-3.99219 0,-1.42187 0.63802,-2.58854 0.65625,-1.18489 1.69531,-1.89583 1.0573,-0.71093 2.36979,-1.07552 0.96615,-0.25521 2.91667,-0.49218 3.97395,-0.47396 5.85156,-1.13021 0.0182,-0.67448 0.0182,-0.85677 0,-2.00521 -0.92969,-2.82552 -1.25781,-1.11198 -3.73698,-1.11198 -2.3151,0 -3.42708,0.82031 -1.09375,0.80209 -1.62239,2.86198 l -3.20833,-0.4375 q 0.4375,-2.05989 1.4401,-3.3177 1.0026,-1.27605 2.89843,-1.95052 1.89584,-0.69271 4.39323,-0.69271 2.47916,0 4.02864,0.58333 1.54948,0.58333 2.27865,1.47656 0.72916,0.875 1.02083,2.22396 0.16406,0.83854 0.16406,3.02604 v 4.37499 q 0,4.57552 0.20052,5.79687 0.21875,1.20313 0.83854,2.31511 h -3.42708 q -0.51041,-1.02084 -0.65625,-2.38802 z m -0.27343,-7.32812 q -1.78646,0.72916 -5.35937,1.23958 -2.02344,0.29167 -2.86198,0.65625 -0.83854,0.36458 -1.29427,1.07552 -0.45573,0.69271 -0.45573,1.54948 0,1.3125 0.98437,2.1875 1.00261,0.875 2.91667,0.875 1.89583,0 3.37239,-0.82032 1.47656,-0.83854 2.16927,-2.27864 0.52865,-1.11198 0.52865,-3.28125 z m 8.40364,9.71614 v -19.35936 h 2.95312 v 2.7526 q 2.13281,-3.1901 6.16145,-3.1901 1.75,0 3.20833,0.63802 1.47656,0.61979 2.20573,1.64062 0.72917,1.02083 1.02083,2.42448 0.18229,0.91146 0.18229,3.1901 v 11.90364 h -3.28124 V 241.8521 q 0,-2.0052 -0.38282,-2.98958 -0.38281,-1.0026 -1.36718,-1.58593 -0.96615,-0.60156 -2.27865,-0.60156 -2.09635,0 -3.6276,1.33072 -1.51302,1.33073 -1.51302,5.04948 v 10.57291 z m 33.3958,-7.09114 3.22656,0.41927 q -0.52865,3.33593 -2.71615,5.23176 -2.16926,1.87761 -5.34114,1.87761 -3.97395,0 -6.39843,-2.58854 -2.40625,-2.60677 -2.40625,-7.45573 0,-3.13541 1.03906,-5.48697 1.03907,-2.35156 3.15365,-3.51823 2.13281,-1.18489 4.6302,-1.18489 3.15365,0 5.15885,1.60416 2.00521,1.58594 2.57031,4.52083 l -3.1901,0.49219 q -0.45573,-1.95052 -1.62239,-2.93489 -1.14844,-0.98438 -2.78906,-0.98438 -2.47917,0 -4.02865,1.78646 -1.54947,1.76823 -1.54947,5.61458 0,3.90104 1.49479,5.66926 1.49479,1.76823 3.90103,1.76823 1.93229,0 3.22656,-1.18489 1.29427,-1.1849 1.64063,-3.64583 z m 19.28644,0.85677 3.39062,0.41927 q -0.80208,2.97135 -2.97135,4.61197 -2.16927,1.64063 -5.54166,1.64063 -4.2474,0 -6.74479,-2.60677 -2.47916,-2.625 -2.47916,-7.34635 0,-4.88541 2.51562,-7.58333 2.51562,-2.69791 6.52603,-2.69791 3.88281,0 6.34375,2.64323 2.46093,2.64322 2.46093,7.43749 0,0.29167 -0.0182,0.875 h -14.43749 q 0.18229,3.1901 1.80468,4.88541 1.6224,1.69531 4.04688,1.69531 1.80468,0 3.08072,-0.94791 1.27604,-0.94792 2.02344,-3.02604 z m -10.77343,-5.30469 h 10.80989 q -0.21875,-2.4427 -1.23959,-3.66406 -1.5677,-1.89583 -4.0651,-1.89583 -2.26041,0 -3.80989,1.51302 -1.53125,1.51302 -1.69531,4.04687 z m 27.34373,5.76042 3.24479,-0.51042 q 0.27343,1.95052 1.51302,2.98958 1.25781,1.03906 3.49999,1.03906 2.26042,0 3.35417,-0.91146 1.09375,-0.92968 1.09375,-2.16926 0,-1.11198 -0.96615,-1.75 -0.67448,-0.4375 -3.35416,-1.11198 -3.60937,-0.91146 -5.01302,-1.56771 -1.38542,-0.67448 -2.11458,-1.84114 -0.71094,-1.1849 -0.71094,-2.60677 0,-1.29427 0.58333,-2.38802 0.60157,-1.11198 1.6224,-1.84114 0.76562,-0.56511 2.07812,-0.94792 1.33073,-0.40104 2.84375,-0.40104 2.27864,0 3.99218,0.65625 1.73177,0.65625 2.55209,1.78645 0.82031,1.11198 1.1302,2.98959 l -3.20833,0.43749 q -0.21875,-1.49479 -1.27604,-2.33333 -1.03906,-0.83854 -2.95312,-0.83854 -2.26042,0 -3.22656,0.7474 -0.96615,0.74739 -0.96615,1.75 0,0.63802 0.40105,1.14843 0.40104,0.52865 1.25781,0.875 0.49218,0.18229 2.89843,0.83854 3.48177,0.92969 4.84896,1.53125 1.38541,0.58333 2.16927,1.71354 0.78385,1.13021 0.78385,2.80729 0,1.64062 -0.96615,3.09896 -0.94791,1.4401 -2.7526,2.24218 -1.80468,0.78386 -4.08333,0.78386 -3.77343,0 -5.76041,-1.56771 -1.96875,-1.56771 -2.51562,-4.64843 z m 19.97915,5.77864 V 226.9042 h 3.28125 v 9.58853 q 2.29687,-2.66145 5.79687,-2.66145 2.15104,0 3.73698,0.85677 1.58593,0.83854 2.26041,2.33333 0.69271,1.49479 0.69271,4.33854 v 12.26822 h -3.28125 v -12.26822 q 0,-2.46094 -1.07552,-3.57292 -1.05729,-1.1302 -3.00781,-1.1302 -1.45833,0 -2.7526,0.76562 -1.27604,0.7474 -1.82292,2.04167 -0.54687,1.29427 -0.54687,3.57291 v 10.59114 z m 20.78123,-22.9505 v -3.77344 h 3.28125 v 3.77344 z m 0,22.9505 v -19.35936 h 3.28125 v 19.35936 z m 9.05989,0 v -16.80728 h -2.89843 v -2.55208 h 2.89843 v -2.0599 q 0,-1.95052 0.34636,-2.89843 0.47395,-1.27604 1.65885,-2.0599 1.20312,-0.80208 3.35416,-0.80208 1.38542,0 3.0625,0.32813 l -0.49219,2.86197 q -1.02083,-0.18229 -1.93229,-0.18229 -1.49479,0 -2.11458,0.63802 -0.61979,0.63802 -0.61979,2.38802 v 1.78646 h 3.77343 v 2.55208 h -3.77343 v 16.80728 z m 16.75258,-2.9349 0.47396,2.89844 q -1.38542,0.29166 -2.47917,0.29166 -1.78645,0 -2.77083,-0.5651 -0.98437,-0.5651 -1.38541,-1.47656 -0.40104,-0.92969 -0.40104,-3.88281 v -11.13801 h -2.40625 v -2.55208 h 2.40625 v -4.79427 l 3.26301,-1.96875 v 6.76302 h 3.29948 v 2.55208 h -3.29948 v 11.3203 q 0,1.40365 0.16407,1.80469 0.18229,0.40104 0.5651,0.63802 0.40104,0.23698 1.13021,0.23698 0.54687,0 1.4401,-0.12761 z m 26.21353,-4.15624 3.22656,0.41927 q -0.52865,3.33593 -2.71615,5.23176 -2.16926,1.87761 -5.34114,1.87761 -3.97395,0 -6.39843,-2.58854 -2.40625,-2.60677 -2.40625,-7.45573 0,-3.13541 1.03906,-5.48697 1.03907,-2.35156 3.15365,-3.51823 2.13281,-1.18489 4.6302,-1.18489 3.15365,0 5.15885,1.60416 2.00521,1.58594 2.57031,4.52083 l -3.1901,0.49219 q -0.45573,-1.95052 -1.62239,-2.93489 -1.14844,-0.98438 -2.78906,-0.98438 -2.47917,0 -4.02865,1.78646 -1.54947,1.76823 -1.54947,5.61458 0,3.90104 1.49479,5.66926 1.49479,1.76823 3.90103,1.76823 1.93229,0 3.22656,-1.18489 1.29427,-1.1849 1.64063,-3.64583 z m 4.8125,-2.58854 q 0,-5.3776 2.98958,-7.96614 2.49739,-2.15104 6.08854,-2.15104 3.99218,0 6.52603,2.625 2.53385,2.60676 2.53385,7.21874 0,3.73698 -1.1302,5.88802 -1.11198,2.13281 -3.26302,3.3177 -2.13281,1.1849 -4.66666,1.1849 -4.0651,0 -6.58073,-2.60677 -2.49739,-2.60677 -2.49739,-7.51041 z m 3.37239,0 q 0,3.71874 1.6224,5.57812 1.62239,1.84114 4.08333,1.84114 2.4427,0 4.0651,-1.85937 1.62239,-1.85938 1.62239,-5.66927 0,-3.59114 -1.64062,-5.43228 -1.6224,-1.85938 -4.04687,-1.85938 -2.46094,0 -4.08333,1.84115 -1.6224,1.84114 -1.6224,5.55989 z m 31.29945,9.67968 v -2.84375 q -2.26041,3.28125 -6.14322,3.28125 -1.71354,0 -3.20833,-0.65625 -1.47656,-0.65625 -2.20573,-1.64063 -0.71094,-1.0026 -1.0026,-2.4427 -0.20052,-0.96615 -0.20052,-3.0625 v -11.99478 h 3.28124 v 10.73697 q 0,2.57031 0.20052,3.46354 0.3099,1.29427 1.3125,2.04166 1.00261,0.72917 2.47917,0.72917 1.47656,0 2.77083,-0.7474 1.29427,-0.76562 1.82291,-2.05989 0.54688,-1.3125 0.54688,-3.79167 v -10.37238 h 3.28125 v 19.35936 z m 8.07551,0 v -19.35936 h 2.95313 v 2.7526 q 2.13281,-3.1901 6.16145,-3.1901 1.75,0 3.20833,0.63802 1.47656,0.61979 2.20573,1.64062 0.72916,1.02083 1.02083,2.42448 0.18229,0.91146 0.18229,3.1901 v 11.90364 h -3.28125 V 241.8521 q 0,-2.0052 -0.38281,-2.98958 -0.38281,-1.0026 -1.36718,-1.58593 -0.96615,-0.60156 -2.27865,-0.60156 -2.09635,0 -3.6276,1.33072 -1.51302,1.33073 -1.51302,5.04948 v 10.57291 z m 27.92706,-2.9349 0.47396,2.89844 q -1.38542,0.29166 -2.47917,0.29166 -1.78645,0 -2.77083,-0.5651 -0.98437,-0.5651 -1.38541,-1.47656 -0.40104,-0.92969 -0.40104,-3.88281 v -11.13801 h -2.40625 v -2.55208 h 2.40625 v -4.79427 l 3.26301,-1.96875 v 6.76302 h 3.29948 v 2.55208 h -3.29948 v 11.3203 q 0,1.40365 0.16407,1.80469 0.18229,0.40104 0.5651,0.63802 0.40104,0.23698 1.13021,0.23698 0.54687,0 1.4401,-0.12761 z"
       id="flowRoot4302"
       transform="translate(-20,194.36213)"
       aria-label="Balance shift count" />
    <g
       id="g3709"
       transform="translate(0,19.999997)" />
    <path
       style="font-size:16px;line-height:1.25;font-family:Arial;-inkscape-font-specification:Arial;text-align:center;text-anchor:middle"
       d="m 215.88672,164.41207 4.39844,-11.45312 h 1.63281 l 4.6875,11.45312 h -1.72656 l -1.33594,-3.46875 h -4.78906 l -1.25782,3.46875 z m 3.30469,-4.70312 h 3.88281 l -1.19531,-3.17188 q -0.54688,-1.44531 -0.8125,-2.375 -0.21875,1.10156 -0.61719,2.1875 z m 7.88281,2.22656 1.39062,-0.21875 q 0.11719,0.83594 0.64844,1.28125 0.53906,0.44531 1.5,0.44531 0.96875,0 1.4375,-0.39062 0.46875,-0.39844 0.46875,-0.92969 0,-0.47656 -0.41406,-0.75 -0.28906,-0.1875 -1.4375,-0.47656 -1.54688,-0.39063 -2.14844,-0.67188 -0.59375,-0.28906 -0.90625,-0.78906 -0.30469,-0.50781 -0.30469,-1.11719 0,-0.55469 0.25,-1.02344 0.25782,-0.47656 0.69532,-0.78906 0.32812,-0.24219 0.89062,-0.40625 0.57031,-0.17187 1.21875,-0.17187 0.97656,0 1.71094,0.28125 0.74219,0.28125 1.09375,0.76562 0.35156,0.47656 0.48437,1.28125 l -1.375,0.1875 q -0.0937,-0.64062 -0.54687,-1 -0.44531,-0.35937 -1.26563,-0.35937 -0.96875,0 -1.38281,0.32031 -0.41406,0.32031 -0.41406,0.75 0,0.27344 0.17187,0.49219 0.17188,0.22656 0.53907,0.375 0.21093,0.0781 1.24218,0.35937 1.49219,0.39844 2.07813,0.65625 0.59375,0.25 0.92969,0.73438 0.33593,0.48437 0.33593,1.20312 0,0.70313 -0.41406,1.32813 -0.40625,0.61718 -1.17969,0.96093 -0.77343,0.33594 -1.75,0.33594 -1.61718,0 -2.46875,-0.67187 -0.84375,-0.67188 -1.07812,-1.99219 z m 8,0 1.39062,-0.21875 q 0.11719,0.83594 0.64844,1.28125 0.53906,0.44531 1.5,0.44531 0.96875,0 1.4375,-0.39062 0.46875,-0.39844 0.46875,-0.92969 0,-0.47656 -0.41406,-0.75 -0.28906,-0.1875 -1.4375,-0.47656 -1.54688,-0.39063 -2.14844,-0.67188 -0.59375,-0.28906 -0.90625,-0.78906 -0.30469,-0.50781 -0.30469,-1.11719 0,-0.55469 0.25,-1.02344 0.25782,-0.47656 0.69532,-0.78906 0.32812,-0.24219 0.89062,-0.40625 0.57031,-0.17187 1.21875,-0.17187 0.97656,0 1.71094,0.28125 0.74219,0.28125 1.09375,0.76562 0.35156,0.47656 0.48437,1.28125 l -1.375,0.1875 q -0.0937,-0.64062 -0.54687,-1 -0.44531,-0.35937 -1.26563,-0.35937 -0.96875,0 -1.38281,0.32031 -0.41406,0.32031 -0.41406,0.75 0,0.27344 0.17187,0.49219 0.17188,0.22656 0.53907,0.375 0.21093,0.0781 1.24218,0.35937 1.49219,0.39844 2.07813,0.65625 0.59375,0.25 0.92969,0.73438 0.33593,0.48437 0.33593,1.20312 0,0.70313 -0.41406,1.32813 -0.40625,0.61718 -1.17969,0.96093 -0.77343,0.33594 -1.75,0.33594 -1.61718,0 -2.46875,-0.67187 -0.84375,-0.67188 -1.07812,-1.99219 z m 8.57031,-7.35938 v -1.61718 h 1.40625 v 1.61718 z m 0,9.83594 v -8.29687 h 1.40625 v 8.29687 z m 3.28906,0.6875 1.36719,0.20313 q 0.0859,0.63281 0.47656,0.92187 0.52344,0.39063 1.42969,0.39063 0.97656,0 1.50781,-0.39063 0.53125,-0.39062 0.71875,-1.09375 0.10938,-0.42969 0.10157,-1.80469 -0.92188,1.08594 -2.29688,1.08594 -1.71094,0 -2.64844,-1.23437 -0.9375,-1.23438 -0.9375,-2.96094 0,-1.1875 0.42969,-2.1875 0.42969,-1.00781 1.24219,-1.55469 0.82031,-0.54687 1.92187,-0.54687 1.46875,0 2.42188,1.1875 v -1 h 1.29687 v 7.17187 q 0,1.9375 -0.39843,2.74219 -0.39063,0.8125 -1.25,1.28125 -0.85157,0.46875 -2.10157,0.46875 -1.48437,0 -2.39843,-0.67188 -0.91407,-0.66406 -0.88282,-2.00781 z m 1.16407,-4.98437 q 0,1.63281 0.64843,2.38281 0.64844,0.75 1.625,0.75 0.96875,0 1.625,-0.74219 0.65625,-0.75 0.65625,-2.34375 0,-1.52344 -0.67968,-2.29687 -0.67188,-0.77344 -1.625,-0.77344 -0.9375,0 -1.59375,0.76562 -0.65625,0.75782 -0.65625,2.25782 z m 7.99218,4.29687 v -8.29687 h 1.26563 v 1.17968 q 0.91406,-1.36718 2.64062,-1.36718 0.75,0 1.375,0.27343 0.63282,0.26563 0.94532,0.70313 0.3125,0.4375 0.4375,1.03906 0.0781,0.39063 0.0781,1.36719 v 5.10156 h -1.40625 v -5.04687 q 0,-0.85938 -0.16406,-1.28125 -0.16406,-0.42969 -0.58594,-0.67969 -0.41406,-0.25781 -0.97656,-0.25781 -0.89844,0 -1.55469,0.57031 -0.64844,0.57031 -0.64844,2.16406 v 4.53125 z m 19.02344,-2.67187 1.45313,0.17968 q -0.34375,1.27344 -1.27344,1.97657 -0.92969,0.70312 -2.375,0.70312 -1.82031,0 -2.89063,-1.11719 -1.0625,-1.125 -1.0625,-3.14843 0,-2.09375 1.07813,-3.25 1.07812,-1.15625 2.79687,-1.15625 1.66407,0 2.71875,1.13281 1.05469,1.13281 1.05469,3.1875 0,0.125 -0.008,0.375 h -6.1875 q 0.0781,1.36719 0.77344,2.09375 0.69531,0.72656 1.73437,0.72656 0.77344,0 1.32031,-0.40625 0.54688,-0.40625 0.86719,-1.29687 z m -4.61719,-2.27344 h 4.63282 q -0.0937,-1.04688 -0.53125,-1.57031 -0.67188,-0.8125 -1.74219,-0.8125 -0.96875,0 -1.63281,0.64843 -0.65625,0.64844 -0.72657,1.73438 z m 7.83594,4.94531 v -8.29687 h 1.25781 v 1.16406 q 0.39063,-0.60938 1.03907,-0.97656 0.64843,-0.375 1.47656,-0.375 0.92187,0 1.50781,0.38281 0.59375,0.38281 0.83594,1.07031 0.98437,-1.45312 2.5625,-1.45312 1.23437,0 1.89844,0.6875 0.66406,0.67968 0.66406,2.10156 v 5.69531 h -1.39844 v -5.22656 q 0,-0.84375 -0.14062,-1.21094 -0.13282,-0.375 -0.49219,-0.60156 -0.35938,-0.22656 -0.84375,-0.22656 -0.875,0 -1.45313,0.58593 -0.57812,0.57813 -0.57812,1.85938 v 4.82031 h -1.40625 v -5.39062 q 0,-0.9375 -0.34375,-1.40625 -0.34375,-0.46875 -1.125,-0.46875 -0.59375,0 -1.10156,0.3125 -0.5,0.3125 -0.72657,0.91406 -0.22656,0.60156 -0.22656,1.73437 v 4.30469 z m 13.32813,3.17969 V 156.1152 h 1.28125 v 1.07812 q 0.45312,-0.63281 1.02343,-0.94531 0.57032,-0.32031 1.38282,-0.32031 1.0625,0 1.875,0.54687 0.8125,0.54688 1.22656,1.54688 0.41406,0.99218 0.41406,2.17968 0,1.27344 -0.46094,2.29688 -0.45312,1.01562 -1.32812,1.5625 -0.86719,0.53906 -1.82813,0.53906 -0.70312,0 -1.26562,-0.29687 -0.55469,-0.29688 -0.91406,-0.75 v 4.03906 z m 1.27343,-7.28125 q 0,1.60156 0.64844,2.36719 0.64844,0.76562 1.57031,0.76562 0.9375,0 1.60157,-0.78906 0.67187,-0.79688 0.67187,-2.46094 0,-1.58594 -0.65625,-2.375 -0.64844,-0.78906 -1.55469,-0.78906 -0.89843,0 -1.59375,0.84375 -0.6875,0.83594 -0.6875,2.4375 z m 7.59375,4.10156 v -11.45312 h 1.40625 v 11.45312 z m 3.0625,-4.14844 q 0,-2.30468 1.28125,-3.41406 1.07032,-0.92187 2.60938,-0.92187 1.71094,0 2.79687,1.125 1.08594,1.11718 1.08594,3.09375 0,1.60156 -0.48437,2.52343 -0.47657,0.91407 -1.39844,1.42188 -0.91406,0.50781 -2,0.50781 -1.74219,0 -2.82031,-1.11719 -1.07032,-1.11718 -1.07032,-3.21875 z m 1.44532,0 q 0,1.59375 0.69531,2.39063 0.69531,0.78906 1.75,0.78906 1.04687,0 1.74219,-0.79687 0.69531,-0.79688 0.69531,-2.42969 0,-1.53906 -0.70313,-2.32813 -0.69531,-0.79687 -1.73437,-0.79687 -1.05469,0 -1.75,0.78906 -0.69531,0.78906 -0.69531,2.38281 z m 7.91406,7.34375 -0.15625,-1.32031 q 0.46094,0.125 0.80469,0.125 0.46875,0 0.75,-0.15625 0.28125,-0.15625 0.46093,-0.4375 0.13282,-0.21094 0.42969,-1.04687 0.0391,-0.11719 0.125,-0.34375 l -3.14844,-8.3125 h 1.51563 l 1.72656,4.80468 q 0.33594,0.91407 0.60156,1.92188 0.24219,-0.96875 0.57813,-1.89063 l 1.77344,-4.83593 h 1.40625 l -3.15625,8.4375 q -0.50782,1.36718 -0.78907,1.88281 -0.375,0.69531 -0.85937,1.01562 -0.48438,0.32813 -1.15625,0.32813 -0.40625,0 -0.90625,-0.17188 z m 13.74219,-5.86718 1.45312,0.17968 q -0.34375,1.27344 -1.27344,1.97657 -0.92968,0.70312 -2.375,0.70312 -1.82031,0 -2.89062,-1.11719 -1.0625,-1.125 -1.0625,-3.14843 0,-2.09375 1.07812,-3.25 1.07813,-1.15625 2.79688,-1.15625 1.66406,0 2.71875,1.13281 1.05469,1.13281 1.05469,3.1875 0,0.125 -0.008,0.375 h -6.1875 q 0.0781,1.36719 0.77344,2.09375 0.69531,0.72656 1.73438,0.72656 0.77343,0 1.32031,-0.40625 0.54687,-0.40625 0.86719,-1.29687 z m -4.61719,-2.27344 h 4.63281 q -0.0937,-1.04688 -0.53125,-1.57031 -0.67187,-0.8125 -1.74219,-0.8125 -0.96875,0 -1.63281,0.64843 -0.65625,0.64844 -0.72656,1.73438 z m 13.51562,2.27344 1.45313,0.17968 q -0.34375,1.27344 -1.27344,1.97657 -0.92969,0.70312 -2.375,0.70312 -1.82031,0 -2.89062,-1.11719 -1.0625,-1.125 -1.0625,-3.14843 0,-2.09375 1.07812,-3.25 1.07813,-1.15625 2.79688,-1.15625 1.66406,0 2.71875,1.13281 1.05468,1.13281 1.05468,3.1875 0,0.125 -0.008,0.375 h -6.1875 q 0.0781,1.36719 0.77344,2.09375 0.69531,0.72656 1.73437,0.72656 0.77344,0 1.32032,-0.40625 0.54687,-0.40625 0.86718,-1.29687 z m -4.61718,-2.27344 h 4.63281 q -0.0937,-1.04688 -0.53125,-1.57031 -0.67188,-0.8125 -1.74219,-0.8125 -0.96875,0 -1.63281,0.64843 -0.65625,0.64844 -0.72656,1.73438 z m 7.27343,2.46875 1.39063,-0.21875 q 0.11719,0.83594 0.64844,1.28125 0.53906,0.44531 1.5,0.44531 0.96875,0 1.4375,-0.39062 0.46875,-0.39844 0.46875,-0.92969 0,-0.47656 -0.41407,-0.75 -0.28906,-0.1875 -1.4375,-0.47656 -1.54687,-0.39063 -2.14843,-0.67188 -0.59375,-0.28906 -0.90625,-0.78906 -0.30469,-0.50781 -0.30469,-1.11719 0,-0.55469 0.25,-1.02344 0.25781,-0.47656 0.69531,-0.78906 0.32813,-0.24219 0.89063,-0.40625 0.57031,-0.17187 1.21875,-0.17187 0.97656,0 1.71093,0.28125 0.74219,0.28125 1.09375,0.76562 0.35157,0.47656 0.48438,1.28125 l -1.375,0.1875 q -0.0937,-0.64062 -0.54688,-1 -0.44531,-0.35937 -1.26562,-0.35937 -0.96875,0 -1.38281,0.32031 -0.41407,0.32031 -0.41407,0.75 0,0.27344 0.17188,0.49219 0.17187,0.22656 0.53906,0.375 0.21094,0.0781 1.24219,0.35937 1.49219,0.39844 2.07812,0.65625 0.59375,0.25 0.92969,0.73438 0.33594,0.48437 0.33594,1.20312 0,0.70313 -0.41406,1.32813 -0.40625,0.61718 -1.17969,0.96093 -0.77344,0.33594 -1.75,0.33594 -1.61719,0 -2.46875,-0.67187 -0.84375,-0.67188 -1.07813,-1.99219 z m 16.07813,1.21875 0.20312,1.24219 q -0.59375,0.125 -1.0625,0.125 -0.76562,0 -1.1875,-0.24219 -0.42187,-0.24219 -0.59375,-0.63281 -0.17187,-0.39844 -0.17187,-1.66407 v -4.77343 h -1.03125 v -1.09375 h 1.03125 v -2.05469 l 1.39844,-0.84375 v 2.89844 h 1.41406 v 1.09375 h -1.41406 v 4.85156 q 0,0.60156 0.0703,0.77344 0.0781,0.17187 0.24219,0.27343 0.17187,0.10157 0.48437,0.10157 0.23438,0 0.61719,-0.0547 z m 0.85156,-2.89063 q 0,-2.30468 1.28125,-3.41406 1.07031,-0.92187 2.60938,-0.92187 1.71093,0 2.79687,1.125 1.08594,1.11718 1.08594,3.09375 0,1.60156 -0.48438,2.52343 -0.47656,0.91407 -1.39843,1.42188 -0.91407,0.50781 -2,0.50781 -1.74219,0 -2.82032,-1.11719 -1.07031,-1.11718 -1.07031,-3.21875 z m 1.44531,0 q 0,1.59375 0.69532,2.39063 0.69531,0.78906 1.75,0.78906 1.04687,0 1.74218,-0.79687 0.69532,-0.79688 0.69532,-2.42969 0,-1.53906 -0.70313,-2.32813 -0.69531,-0.79687 -1.73437,-0.79687 -1.05469,0 -1.75,0.78906 -0.69532,0.78906 -0.69532,2.38281 z m 11.85938,1.67188 1.39062,-0.21875 q 0.11719,0.83594 0.64844,1.28125 0.53906,0.44531 1.5,0.44531 0.96875,0 1.4375,-0.39062 0.46875,-0.39844 0.46875,-0.92969 0,-0.47656 -0.41406,-0.75 -0.28906,-0.1875 -1.4375,-0.47656 -1.54688,-0.39063 -2.14844,-0.67188 -0.59375,-0.28906 -0.90625,-0.78906 -0.30469,-0.50781 -0.30469,-1.11719 0,-0.55469 0.25,-1.02344 0.25782,-0.47656 0.69532,-0.78906 0.32812,-0.24219 0.89062,-0.40625 0.57031,-0.17187 1.21875,-0.17187 0.97656,0 1.71094,0.28125 0.74219,0.28125 1.09375,0.76562 0.35156,0.47656 0.48437,1.28125 l -1.375,0.1875 q -0.0937,-0.64062 -0.54687,-1 -0.44531,-0.35937 -1.26563,-0.35937 -0.96875,0 -1.38281,0.32031 -0.41406,0.32031 -0.41406,0.75 0,0.27344 0.17187,0.49219 0.17188,0.22656 0.53907,0.375 0.21093,0.0781 1.24218,0.35937 1.49219,0.39844 2.07813,0.65625 0.59375,0.25 0.92969,0.73438 0.33593,0.48437 0.33593,1.20312 0,0.70313 -0.41406,1.32813 -0.40625,0.61718 -1.17969,0.96093 -0.77343,0.33594 -1.75,0.33594 -1.61718,0 -2.46875,-0.67187 -0.84375,-0.67188 -1.07812,-1.99219 z m 8.5625,2.47656 v -11.45312 h 1.40625 v 4.10937 q 0.98437,-1.14062 2.48437,-1.14062 0.92188,0 1.60157,0.36718 0.67968,0.35938 0.96875,1 0.29687,0.64063 0.29687,1.85938 v 5.25781 h -1.40625 v -5.25781 q 0,-1.05469 -0.46094,-1.53125 -0.45312,-0.48438 -1.28906,-0.48438 -0.625,0 -1.17969,0.32813 -0.54687,0.32031 -0.78125,0.875 -0.23437,0.55469 -0.23437,1.53125 v 4.53906 z m 8.90625,-9.83594 v -1.61718 h 1.40625 v 1.61718 z m 0,9.83594 v -8.29687 h 1.40625 v 8.29687 z m 3.88281,0 v -7.20312 h -1.24219 v -1.09375 h 1.24219 v -0.88282 q 0,-0.83593 0.14844,-1.24218 0.20312,-0.54688 0.71094,-0.88282 0.51562,-0.34375 1.4375,-0.34375 0.59375,0 1.3125,0.14063 l -0.21094,1.22656 q -0.4375,-0.0781 -0.82813,-0.0781 -0.64062,0 -0.90625,0.27343 -0.26562,0.27344 -0.26562,1.02344 v 0.76563 h 1.61719 v 1.09375 h -1.61719 v 7.20312 z m 7.17969,-1.25781 0.20312,1.24219 q -0.59375,0.125 -1.0625,0.125 -0.76562,0 -1.1875,-0.24219 -0.42187,-0.24219 -0.59375,-0.63281 -0.17187,-0.39844 -0.17187,-1.66407 v -4.77343 h -1.03125 v -1.09375 h 1.03125 v -2.05469 l 1.39844,-0.84375 v 2.89844 h 1.41406 v 1.09375 h -1.41406 v 4.85156 q 0,0.60156 0.0703,0.77344 0.0781,0.17187 0.24219,0.27343 0.17187,0.10157 0.48437,0.10157 0.23438,0 0.61719,-0.0547 z m 0.8125,-1.21875 1.39062,-0.21875 q 0.11719,0.83594 0.64844,1.28125 0.53906,0.44531 1.5,0.44531 0.96875,0 1.4375,-0.39062 0.46875,-0.39844 0.46875,-0.92969 0,-0.47656 -0.41406,-0.75 -0.28906,-0.1875 -1.4375,-0.47656 -1.54688,-0.39063 -2.14844,-0.67188 -0.59375,-0.28906 -0.90625,-0.78906 -0.30469,-0.50781 -0.30469,-1.11719 0,-0.55469 0.25,-1.02344 0.25782,-0.47656 0.69532,-0.78906 0.32812,-0.24219 0.89062,-0.40625 0.57031,-0.17187 1.21875,-0.17187 0.97656,0 1.71094,0.28125 0.74219,0.28125 1.09375,0.76562 0.35156,0.47656 0.48437,1.28125 l -1.375,0.1875 q -0.0937,-0.64062 -0.54687,-1 -0.44531,-0.35937 -1.26563,-0.35937 -0.96875,0 -1.38281,0.32031 -0.41406,0.32031 -0.41406,0.75 0,0.27344 0.17187,0.49219 0.17188,0.22656 0.53907,0.375 0.21093,0.0781 1.24218,0.35937 1.49219,0.39844 2.07813,0.65625 0.59375,0.25 0.92969,0.73438 0.33593,0.48437 0.33593,1.20312 0,0.70313 -0.41406,1.32813 -0.40625,0.61718 -1.17969,0.96093 -0.77343,0.33594 -1.75,0.33594 -1.61718,0 -2.46875,-0.67187 -0.84375,-0.67188 -1.07812,-1.99219 z m 14.53906,2.47656 -2.53906,-8.29687 h 1.45312 l 1.32032,4.78906 0.49218,1.78125 q 0.0312,-0.13281 0.42969,-1.71094 l 1.32031,-4.85937 h 1.44532 l 1.24218,4.8125 0.41407,1.58593 0.47656,-1.60156 1.42187,-4.79687 h 1.36719 l -2.59375,8.29687 h -1.46094 l -1.32031,-4.96875 -0.32031,-1.41406 -1.67969,6.38281 z m 10.03125,-9.83594 v -1.61718 h 1.40625 v 1.61718 z m 0,9.83594 v -8.29687 h 1.40625 v 8.29687 z m 6.61719,-1.25781 0.20312,1.24219 q -0.59375,0.125 -1.0625,0.125 -0.76562,0 -1.1875,-0.24219 -0.42187,-0.24219 -0.59375,-0.63281 -0.17187,-0.39844 -0.17187,-1.66407 v -4.77343 h -1.03125 v -1.09375 h 1.03125 v -2.05469 l 1.39844,-0.84375 v 2.89844 h 1.41406 v 1.09375 h -1.41406 v 4.85156 q 0,0.60156 0.0703,0.77344 0.0781,0.17187 0.24219,0.27343 0.17187,0.10157 0.48437,0.10157 0.23438,0 0.61719,-0.0547 z m 1.375,1.25781 v -11.45312 h 1.40625 v 4.10937 q 0.98437,-1.14062 2.48437,-1.14062 0.92188,0 1.60157,0.36718 0.67968,0.35938 0.96875,1 0.29687,0.64063 0.29687,1.85938 v 5.25781 h -1.40625 v -5.25781 q 0,-1.05469 -0.46094,-1.53125 -0.45312,-0.48438 -1.28906,-0.48438 -0.625,0 -1.17969,0.32813 -0.54687,0.32031 -0.78125,0.875 -0.23437,0.55469 -0.23437,1.53125 v 4.53906 z m 18.75781,-1.02344 q -0.78125,0.66407 -1.50781,0.9375 -0.71875,0.27344 -1.54688,0.27344 -1.36718,0 -2.10156,-0.66406 -0.73437,-0.67188 -0.73437,-1.71094 0,-0.60937 0.27343,-1.10937 0.28125,-0.50782 0.72657,-0.8125 0.45312,-0.30469 1.01562,-0.46094 0.41406,-0.10938 1.25,-0.21094 1.70313,-0.20312 2.50781,-0.48437 0.008,-0.28907 0.008,-0.36719 0,-0.85938 -0.39844,-1.21094 -0.53906,-0.47656 -1.60156,-0.47656 -0.99219,0 -1.46875,0.35156 -0.46875,0.34375 -0.69532,1.22656 l -1.375,-0.1875 q 0.1875,-0.88281 0.61719,-1.42187 0.42969,-0.54688 1.24219,-0.83594 0.8125,-0.29687 1.88281,-0.29687 1.0625,0 1.72656,0.25 0.66407,0.25 0.97657,0.63281 0.3125,0.375 0.4375,0.95312 0.0703,0.35938 0.0703,1.29688 v 1.875 q 0,1.96094 0.0859,2.48437 0.0937,0.51563 0.35937,0.99219 h -1.46875 q -0.21875,-0.4375 -0.28125,-1.02344 z m -0.11719,-3.14062 q -0.76562,0.3125 -2.29687,0.53125 -0.86719,0.125 -1.22656,0.28125 -0.35938,0.15625 -0.55469,0.46094 -0.19531,0.29687 -0.19531,0.66406 0,0.5625 0.42187,0.9375 0.42969,0.375 1.25,0.375 0.8125,0 1.44531,-0.35156 0.63282,-0.35938 0.92969,-0.97657 0.22656,-0.47656 0.22656,-1.40625 z m 8.38282,4.16406 v -7.20312 h -1.24219 v -1.09375 h 1.24219 v -0.88282 q 0,-0.83593 0.14843,-1.24218 0.20313,-0.54688 0.71094,-0.88282 0.51563,-0.34375 1.4375,-0.34375 0.59375,0 1.3125,0.14063 l -0.21094,1.22656 q -0.4375,-0.0781 -0.82812,-0.0781 -0.64063,0 -0.90625,0.27343 -0.26563,0.27344 -0.26563,1.02344 v 0.76563 h 1.61719 v 1.09375 h -1.61719 v 7.20312 z m 9.52343,-1.02344 q -0.78125,0.66407 -1.50781,0.9375 -0.71875,0.27344 -1.54687,0.27344 -1.36719,0 -2.10157,-0.66406 -0.73437,-0.67188 -0.73437,-1.71094 0,-0.60937 0.27344,-1.10937 0.28125,-0.50782 0.72656,-0.8125 0.45312,-0.30469 1.01562,-0.46094 0.41407,-0.10938 1.25,-0.21094 1.70313,-0.20312 2.50782,-0.48437 0.008,-0.28907 0.008,-0.36719 0,-0.85938 -0.39844,-1.21094 -0.53906,-0.47656 -1.60156,-0.47656 -0.99219,0 -1.46875,0.35156 -0.46875,0.34375 -0.69531,1.22656 l -1.375,-0.1875 q 0.1875,-0.88281 0.61718,-1.42187 0.42969,-0.54688 1.24219,-0.83594 0.8125,-0.29687 1.88281,-0.29687 1.0625,0 1.72657,0.25 0.66406,0.25 0.97656,0.63281 0.3125,0.375 0.4375,0.95312 0.0703,0.35938 0.0703,1.29688 v 1.875 q 0,1.96094 0.0859,2.48437 0.0937,0.51563 0.35937,0.99219 h -1.46875 q -0.21875,-0.4375 -0.28125,-1.02344 z m -0.11718,-3.14062 q -0.76563,0.3125 -2.29688,0.53125 -0.86719,0.125 -1.22656,0.28125 -0.35938,0.15625 -0.55469,0.46094 -0.19531,0.29687 -0.19531,0.66406 0,0.5625 0.42187,0.9375 0.42969,0.375 1.25,0.375 0.8125,0 1.44532,-0.35156 0.63281,-0.35938 0.92968,-0.97657 0.22657,-0.47656 0.22657,-1.40625 z m 3.60937,-5.67188 v -1.61718 h 1.40625 v 1.61718 z m 0,9.83594 v -8.29687 h 1.40625 v 8.29687 z m 3.53125,0 v -8.29687 h 1.26563 v 1.25781 q 0.48437,-0.88281 0.89062,-1.16406 0.41406,-0.28125 0.90625,-0.28125 0.71094,0 1.44531,0.45312 l -0.48437,1.30469 q -0.51563,-0.30469 -1.03125,-0.30469 -0.46094,0 -0.82813,0.28125 -0.36718,0.27344 -0.52343,0.76563 -0.23438,0.75 -0.23438,1.64062 v 4.34375 z m 15.17188,0 v -1.04687 q -0.78907,1.23437 -2.32032,1.23437 -0.99218,0 -1.82812,-0.54687 -0.82813,-0.54688 -1.28906,-1.52344 -0.45313,-0.98438 -0.45313,-2.25781 0,-1.24219 0.41406,-2.25 0.41407,-1.01563 1.24219,-1.55469 0.82813,-0.53906 1.85156,-0.53906 0.75,0 1.33594,0.32031 0.58594,0.3125 0.95313,0.82031 v -4.10937 h 1.39843 v 11.45312 z m -4.44532,-4.14062 q 0,1.59375 0.67188,2.38281 0.67187,0.78906 1.58594,0.78906 0.92187,0 1.5625,-0.75 0.64843,-0.75781 0.64843,-2.30469 0,-1.70312 -0.65625,-2.5 -0.65625,-0.79687 -1.61718,-0.79687 -0.9375,0 -1.57032,0.76562 -0.625,0.76563 -0.625,2.41407 z m 7.96875,-5.69532 v -1.61718 h 1.40625 v 1.61718 z m 0,9.83594 v -8.29687 h 1.40625 v 8.29687 z m 2.98438,-2.47656 1.39062,-0.21875 q 0.11719,0.83594 0.64844,1.28125 0.53906,0.44531 1.5,0.44531 0.96875,0 1.4375,-0.39062 0.46875,-0.39844 0.46875,-0.92969 0,-0.47656 -0.41406,-0.75 -0.28906,-0.1875 -1.4375,-0.47656 -1.54688,-0.39063 -2.14844,-0.67188 -0.59375,-0.28906 -0.90625,-0.78906 -0.30469,-0.50781 -0.30469,-1.11719 0,-0.55469 0.25,-1.02344 0.25782,-0.47656 0.69532,-0.78906 0.32812,-0.24219 0.89062,-0.40625 0.57031,-0.17187 1.21875,-0.17187 0.97656,0 1.71094,0.28125 0.74219,0.28125 1.09375,0.76562 0.35156,0.47656 0.48437,1.28125 l -1.375,0.1875 q -0.0937,-0.64062 -0.54687,-1 -0.44531,-0.35937 -1.26563,-0.35937 -0.96875,0 -1.38281,0.32031 -0.41406,0.32031 -0.41406,0.75 0,0.27344 0.17187,0.49219 0.17188,0.22656 0.53907,0.375 0.21093,0.0781 1.24218,0.35937 1.49219,0.39844 2.07813,0.65625 0.59375,0.25 0.92969,0.73438 0.33593,0.48437 0.33593,1.20312 0,0.70313 -0.41406,1.32813 -0.40625,0.61718 -1.17969,0.96093 -0.77343,0.33594 -1.75,0.33594 -1.61718,0 -2.46875,-0.67187 -0.84375,-0.67188 -1.07812,-1.99219 z m 11.63281,1.21875 0.20313,1.24219 q -0.59375,0.125 -1.0625,0.125 -0.76563,0 -1.1875,-0.24219 -0.42188,-0.24219 -0.59375,-0.63281 -0.17188,-0.39844 -0.17188,-1.66407 v -4.77343 h -1.03125 v -1.09375 h 1.03125 v -2.05469 l 1.39844,-0.84375 v 2.89844 h 1.41406 v 1.09375 h -1.41406 v 4.85156 q 0,0.60156 0.0703,0.77344 0.0781,0.17187 0.24219,0.27343 0.17187,0.10157 0.48437,0.10157 0.23438,0 0.61719,-0.0547 z m 1.35938,1.25781 v -8.29687 h 1.26562 v 1.25781 q 0.48438,-0.88281 0.89063,-1.16406 0.41406,-0.28125 0.90625,-0.28125 0.71093,0 1.44531,0.45312 l -0.48438,1.30469 q -0.51562,-0.30469 -1.03125,-0.30469 -0.46093,0 -0.82812,0.28125 -0.36719,0.27344 -0.52344,0.76563 -0.23437,0.75 -0.23437,1.64062 v 4.34375 z m 5.35156,-9.83594 v -1.61718 h 1.40625 v 1.61718 z m 0,9.83594 v -8.29687 h 1.40625 v 8.29687 z m 4.84375,0 h -1.30469 v -11.45312 h 1.40625 v 4.08593 q 0.89063,-1.11718 2.27344,-1.11718 0.76562,0 1.44531,0.3125 0.6875,0.30468 1.125,0.86718 0.44531,0.55469 0.69531,1.34375 0.25,0.78907 0.25,1.6875 0,2.13282 -1.05468,3.29688 -1.05469,1.16406 -2.53125,1.16406 -1.46875,0 -2.30469,-1.22656 z m -0.0156,-4.21094 q 0,1.49219 0.40625,2.15625 0.66407,1.08594 1.79688,1.08594 0.92187,0 1.59375,-0.79687 0.67187,-0.80469 0.67187,-2.39063 0,-1.625 -0.64843,-2.39844 -0.64063,-0.77343 -1.55469,-0.77343 -0.92188,0 -1.59375,0.80468 -0.67188,0.79688 -0.67188,2.3125 z m 13.05469,4.21094 v -1.21875 q -0.96875,1.40625 -2.63281,1.40625 -0.73438,0 -1.375,-0.28125 -0.63281,-0.28125 -0.94531,-0.70312 -0.30469,-0.42969 -0.42969,-1.04688 -0.0859,-0.41406 -0.0859,-1.3125 v -5.14062 h 1.40625 v 4.60156 q 0,1.10156 0.0859,1.48437 0.13281,0.55469 0.5625,0.875 0.42969,0.3125 1.0625,0.3125 0.63281,0 1.1875,-0.32031 0.55469,-0.32812 0.78125,-0.88281 0.23437,-0.5625 0.23437,-1.625 v -4.44531 h 1.40625 v 8.29687 z m 6.53125,-1.25781 0.20313,1.24219 q -0.59375,0.125 -1.0625,0.125 -0.76563,0 -1.1875,-0.24219 -0.42188,-0.24219 -0.59375,-0.63281 -0.17188,-0.39844 -0.17188,-1.66407 v -4.77343 h -1.03125 v -1.09375 h 1.03125 v -2.05469 l 1.39844,-0.84375 v 2.89844 h 1.41406 v 1.09375 h -1.41406 v 4.85156 q 0,0.60156 0.0703,0.77344 0.0781,0.17187 0.24219,0.27343 0.17187,0.10157 0.48437,0.10157 0.23438,0 0.61719,-0.0547 z m 1.38281,-8.57813 v -1.61718 h 1.40625 v 1.61718 z m 0,9.83594 v -8.29687 h 1.40625 v 8.29687 z m 3.02344,-4.14844 q 0,-2.30468 1.28125,-3.41406 1.07031,-0.92187 2.60938,-0.92187 1.71093,0 2.79687,1.125 1.08594,1.11718 1.08594,3.09375 0,1.60156 -0.48438,2.52343 -0.47656,0.91407 -1.39843,1.42188 -0.91407,0.50781 -2,0.50781 -1.74219,0 -2.82032,-1.11719 -1.07031,-1.11718 -1.07031,-3.21875 z m 1.44531,0 q 0,1.59375 0.69532,2.39063 0.69531,0.78906 1.75,0.78906 1.04687,0 1.74218,-0.79687 0.69532,-0.79688 0.69532,-2.42969 0,-1.53906 -0.70313,-2.32813 -0.69531,-0.79687 -1.73437,-0.79687 -1.05469,0 -1.75,0.78906 -0.69532,0.78906 -0.69532,2.38281 z m 7.97657,4.14844 v -8.29687 h 1.26562 v 1.17968 q 0.91406,-1.36718 2.64063,-1.36718 0.75,0 1.375,0.27343 0.63281,0.26563 0.94531,0.70313 0.3125,0.4375 0.4375,1.03906 0.0781,0.39063 0.0781,1.36719 v 5.10156 h -1.40625 v -5.04687 q 0,-0.85938 -0.16406,-1.28125 -0.16406,-0.42969 -0.58594,-0.67969 -0.41406,-0.25781 -0.97656,-0.25781 -0.89844,0 -1.55469,0.57031 -0.64843,0.57031 -0.64843,2.16406 v 4.53125 z m 12.82031,-4.14844 q 0,-2.30468 1.28125,-3.41406 1.07031,-0.92187 2.60937,-0.92187 1.71094,0 2.79688,1.125 1.08594,1.11718 1.08594,3.09375 0,1.60156 -0.48438,2.52343 -0.47656,0.91407 -1.39844,1.42188 -0.91406,0.50781 -2,0.50781 -1.74218,0 -2.82031,-1.11719 -1.07031,-1.11718 -1.07031,-3.21875 z m 1.44531,0 q 0,1.59375 0.69531,2.39063 0.69532,0.78906 1.75,0.78906 1.04688,0 1.74219,-0.79687 0.69531,-0.79688 0.69531,-2.42969 0,-1.53906 -0.70312,-2.32813 -0.69531,-0.79687 -1.73438,-0.79687 -1.05468,0 -1.75,0.78906 -0.69531,0.78906 -0.69531,2.38281 z m 8.3125,4.14844 v -7.20312 h -1.24219 v -1.09375 h 1.24219 v -0.88282 q 0,-0.83593 0.14844,-1.24218 0.20312,-0.54688 0.71094,-0.88282 0.51562,-0.34375 1.4375,-0.34375 0.59375,0 1.3125,0.14063 l -0.21094,1.22656 q -0.4375,-0.0781 -0.82813,-0.0781 -0.64062,0 -0.90625,0.27343 -0.26562,0.27344 -0.26562,1.02344 v 0.76563 h 1.61719 v 1.09375 h -1.61719 v 7.20312 z m 7.99219,-2.47656 1.39062,-0.21875 q 0.11719,0.83594 0.64844,1.28125 0.53906,0.44531 1.5,0.44531 0.96875,0 1.4375,-0.39062 0.46875,-0.39844 0.46875,-0.92969 0,-0.47656 -0.41406,-0.75 -0.28906,-0.1875 -1.4375,-0.47656 -1.54688,-0.39063 -2.14844,-0.67188 -0.59375,-0.28906 -0.90625,-0.78906 -0.30469,-0.50781 -0.30469,-1.11719 0,-0.55469 0.25,-1.02344 0.25782,-0.47656 0.69532,-0.78906 0.32812,-0.24219 0.89062,-0.40625 0.57031,-0.17187 1.21875,-0.17187 0.97656,0 1.71094,0.28125 0.74219,0.28125 1.09375,0.76562 0.35156,0.47656 0.48437,1.28125 l -1.375,0.1875 q -0.0937,-0.64062 -0.54687,-1 -0.44531,-0.35937 -1.26563,-0.35937 -0.96875,0 -1.38281,0.32031 -0.41406,0.32031 -0.41406,0.75 0,0.27344 0.17187,0.49219 0.17188,0.22656 0.53907,0.375 0.21093,0.0781 1.24218,0.35937 1.49219,0.39844 2.07813,0.65625 0.59375,0.25 0.92969,0.73438 0.33593,0.48437 0.33593,1.20312 0,0.70313 -0.41406,1.32813 -0.40625,0.61718 -1.17969,0.96093 -0.77343,0.33594 -1.75,0.33594 -1.61718,0 -2.46875,-0.67187 -0.84375,-0.67188 -1.07812,-1.99219 z m 8.5625,2.47656 v -11.45312 h 1.40625 v 4.10937 q 0.98437,-1.14062 2.48437,-1.14062 0.92188,0 1.60157,0.36718 0.67968,0.35938 0.96875,1 0.29687,0.64063 0.29687,1.85938 v 5.25781 h -1.40625 v -5.25781 q 0,-1.05469 -0.46094,-1.53125 -0.45312,-0.48438 -1.28906,-0.48438 -0.625,0 -1.17969,0.32813 -0.54687,0.32031 -0.78125,0.875 -0.23437,0.55469 -0.23437,1.53125 v 4.53906 z m 8.90625,-9.83594 v -1.61718 h 1.40625 v 1.61718 z m 0,9.83594 v -8.29687 h 1.40625 v 8.29687 z m 3.88281,0 v -7.20312 h -1.24219 v -1.09375 h 1.24219 v -0.88282 q 0,-0.83593 0.14844,-1.24218 0.20312,-0.54688 0.71094,-0.88282 0.51562,-0.34375 1.4375,-0.34375 0.59375,0 1.3125,0.14063 l -0.21094,1.22656 q -0.4375,-0.0781 -0.82813,-0.0781 -0.64062,0 -0.90625,0.27343 -0.26562,0.27344 -0.26562,1.02344 v 0.76563 h 1.61719 v 1.09375 h -1.61719 v 7.20312 z m 7.17969,-1.25781 0.20312,1.24219 q -0.59375,0.125 -1.0625,0.125 -0.76562,0 -1.1875,-0.24219 -0.42187,-0.24219 -0.59375,-0.63281 -0.17187,-0.39844 -0.17187,-1.66407 v -4.77343 h -1.03125 v -1.09375 h 1.03125 v -2.05469 l 1.39844,-0.84375 v 2.89844 h 1.41406 v 1.09375 h -1.41406 v 4.85156 q 0,0.60156 0.0703,0.77344 0.0781,0.17187 0.24219,0.27343 0.17187,0.10157 0.48437,0.10157 0.23438,0 0.61719,-0.0547 z m 0.8125,-1.21875 1.39062,-0.21875 q 0.11719,0.83594 0.64844,1.28125 0.53906,0.44531 1.5,0.44531 0.96875,0 1.4375,-0.39062 0.46875,-0.39844 0.46875,-0.92969 0,-0.47656 -0.41406,-0.75 -0.28906,-0.1875 -1.4375,-0.47656 -1.54688,-0.39063 -2.14844,-0.67188 -0.59375,-0.28906 -0.90625,-0.78906 -0.30469,-0.50781 -0.30469,-1.11719 0,-0.55469 0.25,-1.02344 0.25782,-0.47656 0.69532,-0.78906 0.32812,-0.24219 0.89062,-0.40625 0.57031,-0.17187 1.21875,-0.17187 0.97656,0 1.71094,0.28125 0.74219,0.28125 1.09375,0.76562 0.35156,0.47656 0.48437,1.28125 l -1.375,0.1875 q -0.0937,-0.64062 -0.54687,-1 -0.44531,-0.35937 -1.26563,-0.35937 -0.96875,0 -1.38281,0.32031 -0.41406,0.32031 -0.41406,0.75 0,0.27344 0.17187,0.49219 0.17188,0.22656 0.53907,0.375 0.21093,0.0781 1.24218,0.35937 1.49219,0.39844 2.07813,0.65625 0.59375,0.25 0.92969,0.73438 0.33593,0.48437 0.33593,1.20312 0,0.70313 -0.41406,1.32813 -0.40625,0.61718 -1.17969,0.96093 -0.77343,0.33594 -1.75,0.33594 -1.61718,0 -2.46875,-0.67187 -0.84375,-0.67188 -1.07812,-1.99219 z m 8.96094,2.47656 v -1.60156 h 1.60156 v 1.60156 z"
       id="flowRoot4302-6"
       transform="translate(-20,314.36182)"
       aria-label="Assign employees to shifts with a fair distribution of shifts." />
    <flowRoot
       xml:space="preserve"
       id="flowRoot937"
       style="color:#000000;font-style:normal;font-variant:normal;font-weight:normal;font-stretch:normal;font-size:16px;font-family:Arial;-inkscape-font-specification:Arial;text-align:center;writing-mode:lr-tb;text-anchor:middle;display:inline;overflow:visible;visibility:visible;opacity:1;vector-effect:none;fill:#000000;fill-opacity:1;fill-rule:nonzero;stroke:#8f5902;stroke-width:3;stroke-linecap:round;stroke-linejoin:round;stroke-miterlimit:4;stroke-dasharray:none;stroke-dashoffset:0;stroke-opacity:1;marker:none;enable-background:accumulate"><flowRegion
         id="flowRegion939"><rect
           id="rect941"
           width="52.987019"
           height="116.1039"
           x="-94.285713"
           y="141.03894" /></flowRegion><flowPara
         id="flowPara943" /></flowRoot>
    <g
       id="g80"
       transform="translate(-0.86929902,86.928291)"
       style="display:inline" />
  </g>
  <g
     id="g339"
     style="display:inline;mix-blend-mode:normal"
     transform="translate(352.63034,-83.38541)">
    <path
       style="display:inline;stroke:#000000;stroke-width:0.985537;stroke-linecap:round;stroke-linejoin:round;stroke-dasharray:none;stroke-opacity:1"
       d="M -132.8348,440.78571 V 271.98524"
       id="path316" />
    <path
       style="font-size:14px;line-height:1.25;font-family:Arial;-inkscape-font-specification:Arial;stroke-width:1.00083"
       d="M 338.92969,47.214078 V 37.192593 h 1.99609 l 2.37207,7.095703 q 0.32813,0.991211 0.47852,1.483399 0.1709,-0.546875 0.5332,-1.606446 l 2.39941,-6.972656 h 1.78418 v 10.021485 h -1.27832 v -8.387696 l -2.91211,8.387696 h -1.19628 l -2.89844,-8.53125 v 8.53125 z m 11.08789,-3.629883 q 0,-2.016602 1.12109,-2.987305 0.93653,-0.806641 2.2832,-0.806641 1.49708,0 2.44727,0.984375 0.9502,0.977539 0.9502,2.707032 0,1.401367 -0.42383,2.208007 -0.41699,0.799805 -1.22364,1.244141 -0.7998,0.444336 -1.75,0.444336 -1.52441,0 -2.46777,-0.977539 -0.93652,-0.977539 -0.93652,-2.816406 z m 1.26465,0 q 0,1.394531 0.60839,2.091797 0.6084,0.690429 1.53125,0.690429 0.91602,0 1.52442,-0.697265 0.6084,-0.697266 0.6084,-2.125977 0,-1.34668 -0.61524,-2.037109 -0.6084,-0.697266 -1.51758,-0.697266 -0.92285,0 -1.53125,0.69043 -0.60839,0.690429 -0.60839,2.084961 z m 6.97949,3.629883 v -7.259766 h 1.10742 v 1.032226 q 0.79981,-1.196289 2.31055,-1.196289 0.65625,0 1.20312,0.239258 0.55371,0.232422 0.82715,0.615235 0.27344,0.382812 0.38281,0.909179 0.0684,0.341797 0.0684,1.196289 v 4.463868 h -1.23047 v -4.416016 q 0,-0.751953 -0.14355,-1.121094 -0.14356,-0.375976 -0.5127,-0.594726 -0.3623,-0.225586 -0.85449,-0.225586 -0.78613,0 -1.36035,0.499023 -0.56738,0.499024 -0.56738,1.893555 v 3.964844 z m 15.96875,0 H 373 v -7.840821 q -0.44434,0.423828 -1.16895,0.847656 -0.71777,0.423829 -1.29199,0.635743 v -1.189453 q 1.03223,-0.485352 1.80469,-1.175782 0.77246,-0.690429 1.09375,-1.339843 h 0.79297 z m 7.6084,0 V 37.192593 h 6.76074 v 1.182617 h -5.43457 v 3.103516 h 4.70312 v 1.182617 h -4.70312 v 4.552735 z m 13.2959,-2.337891 1.27148,0.157226 q -0.30078,1.114258 -1.11426,1.729493 -0.81347,0.615234 -2.07812,0.615234 -1.59278,0 -2.5293,-0.977539 -0.92969,-0.984375 -0.92969,-2.754883 0,-1.832031 0.94336,-2.84375 0.94336,-1.011719 2.44727,-1.011719 1.45605,0 2.3789,0.991211 0.92286,0.991211 0.92286,2.789063 0,0.109375 -0.007,0.328125 h -5.41406 q 0.0684,1.196289 0.67675,1.832031 0.6084,0.635742 1.51758,0.635742 0.67676,0 1.15528,-0.355468 0.47851,-0.355469 0.75879,-1.134766 z m -4.04004,-1.989258 h 4.05371 q -0.082,-0.916016 -0.46485,-1.374023 -0.58789,-0.710938 -1.52441,-0.710938 -0.84766,0 -1.42871,0.567383 -0.57422,0.567383 -0.63574,1.517578 z m 7.99121,4.327149 h -1.1416 V 37.192593 h 1.23046 v 3.575195 q 0.7793,-0.977539 1.98926,-0.977539 0.66992,0 1.26465,0.273438 0.60156,0.266601 0.98438,0.758789 0.38964,0.485352 0.60839,1.175781 0.21875,0.69043 0.21875,1.476563 0,1.866211 -0.92285,2.884765 -0.92285,1.018555 -2.21484,1.018555 -1.28516,0 -2.0166,-1.073242 z m -0.0137,-3.684571 q 0,1.305664 0.35546,1.886719 0.58106,0.950195 1.57227,0.950195 0.80664,0 1.39453,-0.697265 0.58789,-0.704102 0.58789,-2.091797 0,-1.421875 -0.56738,-2.098633 -0.56055,-0.676758 -1.36035,-0.676758 -0.80664,0 -1.39453,0.704102 -0.58789,0.697265 -0.58789,2.023437 z"
       id="flowRoot316"
       transform="matrix(0.99833337,0,0,1,-443.72691,236.23383)"
       aria-label="Mon 1 Feb" />
    <path
       style="display:inline;mix-blend-mode:normal;fill:none;stroke:#000000;stroke-width:0.985423;stroke-linecap:round;stroke-linejoin:round;stroke-dasharray:none;stroke-opacity:1"
       d="M -12.857205,440.74588 V 272.02744"
       id="path317" />
    <path
       style="font-size:14px;line-height:1.25;font-family:Arial;-inkscape-font-specification:Arial;stroke-width:1.00083"
       d="M 341.52051,47.214078 V 38.37521 h -3.30176 v -1.182617 h 7.94336 v 1.182617 h -3.31543 v 8.838868 z m 10.08301,0 v -1.066407 q -0.84766,1.230469 -2.30372,1.230469 -0.64257,0 -1.20312,-0.246094 -0.55371,-0.246093 -0.82715,-0.615234 -0.2666,-0.375977 -0.37598,-0.916016 -0.0752,-0.362304 -0.0752,-1.148437 v -4.498047 h 1.23047 v 4.026367 q 0,0.963867 0.0752,1.298828 0.11621,0.485352 0.49219,0.765625 0.37598,0.273438 0.92969,0.273438 0.55371,0 1.03906,-0.280274 0.48535,-0.287109 0.68359,-0.772461 0.20508,-0.492187 0.20508,-1.421875 v -3.889648 h 1.23047 v 7.259766 z m 7.99804,-2.337891 1.27149,0.157226 q -0.30078,1.114258 -1.11426,1.729493 -0.81348,0.615234 -2.07813,0.615234 -1.59277,0 -2.52929,-0.977539 -0.92969,-0.984375 -0.92969,-2.754883 0,-1.832031 0.94336,-2.84375 0.94336,-1.011719 2.44726,-1.011719 1.45606,0 2.37891,0.991211 0.92285,0.991211 0.92285,2.789063 0,0.109375 -0.007,0.328125 h -5.41407 q 0.0684,1.196289 0.67676,1.832031 0.6084,0.635742 1.51758,0.635742 0.67676,0 1.15527,-0.355468 0.47852,-0.355469 0.75879,-1.134766 z m -4.04004,-1.989258 h 4.05371 q -0.082,-0.916016 -0.46484,-1.374023 -0.58789,-0.710938 -1.52441,-0.710938 -0.84766,0 -1.42871,0.567383 -0.57422,0.567383 -0.63575,1.517578 z m 16.8711,3.144531 v 1.182618 h -6.62403 q -0.0137,-0.444336 0.14356,-0.854493 0.25293,-0.676757 0.80664,-1.333007 0.56055,-0.65625 1.61328,-1.517579 1.63379,-1.339843 2.20801,-2.11914 0.57422,-0.786133 0.57422,-1.483399 0,-0.731445 -0.52637,-1.230468 -0.51953,-0.50586 -1.36035,-0.50586 -0.88867,0 -1.42188,0.533203 -0.5332,0.533203 -0.54004,1.476563 l -1.26464,-0.129883 q 0.12988,-1.415039 0.97753,-2.15332 0.84766,-0.745117 2.27637,-0.745117 1.44238,0 2.2832,0.799804 0.84083,0.799805 0.84083,1.982422 0,0.601563 -0.2461,1.182617 -0.24609,0.581055 -0.82031,1.223633 -0.56738,0.642578 -1.89356,1.763672 -1.10742,0.929687 -1.42187,1.264648 -0.31445,0.328125 -0.51953,0.663086 z m 5.77636,1.182618 V 37.192593 h 6.76075 v 1.182617 h -5.43457 v 3.103516 h 4.70312 v 1.182617 h -4.70312 v 4.552735 z m 13.2959,-2.337891 1.27149,0.157226 q -0.30078,1.114258 -1.11426,1.729493 -0.81348,0.615234 -2.07813,0.615234 -1.59277,0 -2.52929,-0.977539 -0.92969,-0.984375 -0.92969,-2.754883 0,-1.832031 0.94336,-2.84375 0.94336,-1.011719 2.44726,-1.011719 1.45606,0 2.37891,0.991211 0.92285,0.991211 0.92285,2.789063 0,0.109375 -0.007,0.328125 h -5.41407 q 0.0684,1.196289 0.67676,1.832031 0.6084,0.635742 1.51758,0.635742 0.67676,0 1.15527,-0.355468 0.47852,-0.355469 0.75879,-1.134766 z m -4.04004,-1.989258 h 4.05371 q -0.082,-0.916016 -0.46484,-1.374023 -0.58789,-0.710938 -1.52441,-0.710938 -0.84766,0 -1.42871,0.567383 -0.57422,0.567383 -0.63575,1.517578 z m 7.99121,4.327149 h -1.1416 V 37.192593 h 1.23047 v 3.575195 q 0.7793,-0.977539 1.98926,-0.977539 0.66992,0 1.26465,0.273438 0.60156,0.266601 0.98437,0.758789 0.38965,0.485352 0.6084,1.175781 0.21875,0.69043 0.21875,1.476563 0,1.866211 -0.92285,2.884765 -0.92285,1.018555 -2.21484,1.018555 -1.28516,0 -2.01661,-1.073242 z m -0.0137,-3.684571 q 0,1.305664 0.35547,1.886719 0.58106,0.950195 1.57227,0.950195 0.80664,0 1.39453,-0.697265 0.58789,-0.704102 0.58789,-2.091797 0,-1.421875 -0.56738,-2.098633 -0.56055,-0.676758 -1.36036,-0.676758 -0.80664,0 -1.39453,0.704102 -0.58789,0.697265 -0.58789,2.023437 z"
       id="flowRoot317"
       transform="matrix(0.99833337,0,0,1,-321.55468,236.23383)"
       aria-label="Tue 2 Feb" />
    <path
       style="display:inline;opacity:1;mix-blend-mode:normal;fill:none;stroke:#000000;stroke-width:0.934849;stroke-linecap:round;stroke-linejoin:round;stroke-dasharray:none;stroke-opacity:1;marker-start:url(#Triangle-02_reversed)"
       d="M 260.1401,289.13978 H -132.75304"
       id="path318" />
    <path
       style="display:inline;opacity:1;mix-blend-mode:normal;fill:none;stroke:#000000;stroke-width:0.934831;stroke-linecap:round;stroke-linejoin:round;stroke-dasharray:none;stroke-opacity:1;marker-start:url(#Triangle-02-6_reversed)"
       d="M 260.1353,340.11797 H -132.75275"
       id="path319" />
    <path
       style="display:inline;opacity:1;mix-blend-mode:normal;fill:none;stroke:#000000;stroke-width:0.934831;stroke-linecap:round;stroke-linejoin:round;stroke-dasharray:none;stroke-opacity:1;marker-start:url(#Triangle-02-6-2_reversed)"
       d="M 260.1353,391.0963 H -132.75275"
       id="path320" />
    <path
       style="display:inline;opacity:1;mix-blend-mode:normal;stroke:#000000;stroke-width:0.934831;stroke-linecap:round;stroke-linejoin:round;stroke-dasharray:none;stroke-opacity:1;marker-start:url(#Triangle-02-6-2-8_reversed)"
       d="M 260.1353,442.07462 H -132.75275"
       id="path321" />
    <path
       style="font-size:14px;line-height:1.25;font-family:Arial;-inkscape-font-specification:Arial;stroke-width:1.00083"
       d="m 340.7207,47.214078 -2.65918,-10.021485 h 1.36035 l 1.52442,6.569336 q 0.24609,1.032227 0.42383,2.050781 0.38281,-1.606445 0.45117,-1.852539 l 1.90723,-6.767578 h 1.5996 l 1.43555,5.072266 q 0.54004,1.886719 0.7793,3.547851 0.1914,-0.950195 0.49902,-2.180664 l 1.57227,-6.439453 h 1.33301 l -2.74805,10.021485 h -1.27832 l -2.11231,-7.635743 q -0.2666,-0.957031 -0.31445,-1.175781 -0.15723,0.69043 -0.29394,1.175781 l -2.12598,7.635743 z m 16.02344,-2.337891 1.27148,0.157226 q -0.30078,1.114258 -1.11425,1.729493 -0.81348,0.615234 -2.07813,0.615234 -1.59277,0 -2.52929,-0.977539 -0.92969,-0.984375 -0.92969,-2.754883 0,-1.832031 0.94336,-2.84375 0.94336,-1.011719 2.44726,-1.011719 1.45606,0 2.37891,0.991211 0.92285,0.991211 0.92285,2.789063 0,0.109375 -0.007,0.328125 h -5.41406 q 0.0684,1.196289 0.67676,1.832031 0.6084,0.635742 1.51758,0.635742 0.67676,0 1.15527,-0.355468 0.47852,-0.355469 0.75879,-1.134766 z m -4.04004,-1.989258 h 4.05371 q -0.082,-0.916016 -0.46484,-1.374023 -0.58789,-0.710938 -1.52442,-0.710938 -0.84765,0 -1.42871,0.567383 -0.57422,0.567383 -0.63574,1.517578 z m 11.56641,4.327149 v -0.916016 q -0.69043,1.080078 -2.03028,1.080078 -0.86816,0 -1.59961,-0.478516 -0.7246,-0.478515 -1.12792,-1.333007 -0.39649,-0.861329 -0.39649,-1.975586 0,-1.086914 0.36231,-1.96875 0.3623,-0.888672 1.08691,-1.360352 0.72461,-0.47168 1.62012,-0.47168 0.65625,0 1.16894,0.280274 0.5127,0.273437 0.83399,0.717773 v -3.595703 h 1.22363 v 10.021485 z m -3.88965,-3.623047 q 0,1.394531 0.58789,2.084961 0.58789,0.690429 1.3877,0.690429 0.80664,0 1.36718,-0.65625 0.56739,-0.663086 0.56739,-2.016601 0,-1.490235 -0.57422,-2.1875 -0.57422,-0.697266 -1.41504,-0.697266 -0.82031,0 -1.37403,0.669922 -0.54687,0.669922 -0.54687,2.112305 z m 10.52051,0.977539 1.23047,-0.164063 q 0.21191,1.045899 0.71777,1.510742 0.51269,0.458008 1.24414,0.458008 0.86816,0 1.46289,-0.601562 0.60156,-0.601563 0.60156,-1.490235 0,-0.847656 -0.55371,-1.394531 -0.55371,-0.553711 -1.4082,-0.553711 -0.34863,0 -0.86817,0.136719 l 0.13672,-1.080078 q 0.12305,0.01367 0.19825,0.01367 0.78613,0 1.41503,-0.410157 0.62891,-0.410156 0.62891,-1.264648 0,-0.676758 -0.45801,-1.121094 -0.458,-0.444336 -1.18261,-0.444336 -0.71778,0 -1.19629,0.451172 -0.47852,0.451172 -0.61524,1.353516 l -1.23047,-0.21875 q 0.22559,-1.237305 1.02539,-1.914063 0.79981,-0.683593 1.98926,-0.683593 0.82031,0 1.51074,0.355468 0.69043,0.348633 1.05274,0.957032 0.36914,0.608398 0.36914,1.291992 0,0.649414 -0.34863,1.182617 -0.34864,0.533203 -1.03223,0.847656 0.88867,0.205078 1.38086,0.854492 0.49219,0.642578 0.49219,1.613282 0,1.3125 -0.95703,2.228515 -0.95704,0.90918 -2.41993,0.90918 -1.31933,0 -2.19433,-0.786133 -0.86817,-0.786133 -0.99121,-2.037109 z m 12.23633,2.645508 V 37.192593 h 6.76074 v 1.182617 h -5.43457 v 3.103516 h 4.70312 v 1.182617 h -4.70312 v 4.552735 z m 13.29589,-2.337891 1.27149,0.157226 q -0.30078,1.114258 -1.11426,1.729493 -0.81348,0.615234 -2.07812,0.615234 -1.59278,0 -2.5293,-0.977539 -0.92969,-0.984375 -0.92969,-2.754883 0,-1.832031 0.94336,-2.84375 0.94336,-1.011719 2.44727,-1.011719 1.45605,0 2.3789,0.991211 0.92285,0.991211 0.92285,2.789063 0,0.109375 -0.007,0.328125 h -5.41406 q 0.0684,1.196289 0.67675,1.832031 0.6084,0.635742 1.51758,0.635742 0.67676,0 1.15527,-0.355468 0.47852,-0.355469 0.75879,-1.134766 z m -4.04004,-1.989258 h 4.05372 q -0.082,-0.916016 -0.46485,-1.374023 -0.58789,-0.710938 -1.52441,-0.710938 -0.84766,0 -1.42871,0.567383 -0.57422,0.567383 -0.63575,1.517578 z m 7.99122,4.327149 h -1.14161 V 37.192593 h 1.23047 v 3.575195 q 0.7793,-0.977539 1.98926,-0.977539 0.66992,0 1.26465,0.273438 0.60156,0.266601 0.98437,0.758789 0.38965,0.485352 0.6084,1.175781 0.21875,0.69043 0.21875,1.476563 0,1.866211 -0.92285,2.884765 -0.92285,1.018555 -2.21484,1.018555 -1.28516,0 -2.0166,-1.073242 z m -0.0137,-3.684571 q 0,1.305664 0.35547,1.886719 0.58106,0.950195 1.57227,0.950195 0.80664,0 1.39453,-0.697265 0.58789,-0.704102 0.58789,-2.091797 0,-1.421875 -0.56738,-2.098633 -0.56055,-0.676758 -1.36035,-0.676758 -0.80665,0 -1.39454,0.704102 -0.58789,0.697265 -0.58789,2.023437 z"
       id="flowRoot321"
       transform="matrix(0.99833337,0,0,1,-203.9365,236.23383)"
       aria-label="Wed 3 Feb" />
    <path
       style="font-size:16.0303px;font-family:Arial;-inkscape-font-specification:Arial;stroke-width:0.999998"
       d="m -164.27711,419.99163 1.5185,0.38354 q -0.47747,1.87072 -1.72201,2.85696 -1.23671,0.97841 -3.02916,0.97841 -1.85507,0 -3.02134,-0.75142 -1.15844,-0.75924 -1.76897,-2.19164 -0.6027,-1.43239 -0.6027,-3.07613 0,-1.79245 0.68098,-3.12309 0.6888,-1.33846 1.94899,-2.02727 1.26803,-0.69662 2.78652,-0.69662 1.72201,0 2.8961,0.87665 1.17409,0.87666 1.6359,2.4656 l -1.49501,0.35223 q -0.39919,-1.25237 -1.15844,-1.82376 -0.75925,-0.57139 -1.90986,-0.57139 -1.32281,0 -2.21512,0.63401 -0.88449,0.63401 -1.24454,1.70635 -0.36006,1.06451 -0.36006,2.19947 0,1.4637 0.42268,2.55952 0.4305,1.088 1.33064,1.62808 0.90013,0.54008 1.94899,0.54008 1.27585,0 2.16034,-0.73576 0.88448,-0.73577 1.19757,-2.18382 z m 8.63351,2.99786 q -0.78273,0.66532 -1.51067,0.93927 -0.72011,0.27396 -1.5498,0.27396 -1.36978,0 -2.10555,-0.66532 -0.73576,-0.67315 -0.73576,-1.71418 0,-0.61053 0.27395,-1.11148 0.28179,-0.50877 0.72794,-0.81404 0.45398,-0.30526 1.01755,-0.46181 0.41485,-0.10958 1.25237,-0.21133 1.70635,-0.20351 2.51256,-0.48529 0.008,-0.28961 0.008,-0.36789 0,-0.861 -0.3992,-1.21323 -0.54008,-0.47746 -1.60459,-0.47746 -0.99407,0 -1.47153,0.35222 -0.46964,0.34441 -0.69663,1.22889 l -1.37761,-0.18785 q 0.18786,-0.88449 0.61836,-1.42457 0.4305,-0.54791 1.24454,-0.83752 0.81404,-0.29744 1.88638,-0.29744 1.06451,0 1.72983,0.25047 0.66532,0.25048 0.97841,0.63401 0.31309,0.37571 0.43833,0.95493 0.0704,0.36006 0.0704,1.29933 v 1.87856 q 0,1.96465 0.0861,2.48908 0.0939,0.5166 0.36005,0.99406 h -1.47153 q -0.21916,-0.43833 -0.28178,-1.02537 z m -0.11741,-3.14658 q -0.76708,0.3131 -2.30123,0.53226 -0.86883,0.12524 -1.22888,0.28178 -0.36006,0.15655 -0.55574,0.46181 -0.19568,0.29744 -0.19568,0.66532 0,0.56357 0.42267,0.93928 0.4305,0.37571 1.25237,0.37571 0.81404,0 1.44805,-0.35223 0.63401,-0.36006 0.93145,-0.97841 0.22699,-0.47747 0.22699,-1.40891 z m 3.59273,4.17195 v -8.31259 h 1.26802 v 1.2602 q 0.48529,-0.88449 0.89231,-1.16627 0.41485,-0.28178 0.90797,-0.28178 0.71228,0 1.44805,0.45398 l -0.4853,1.30716 q -0.5166,-0.30526 -1.0332,-0.30526 -0.46181,0 -0.82969,0.28178 -0.36788,0.27395 -0.52443,0.76707 -0.23482,0.75142 -0.23482,1.64374 v 4.35197 z m 5.32256,0 v -11.47481 h 1.40891 v 11.47481 z"
       id="text322"
       transform="scale(1.0018917,0.99811188)"
       aria-label="Carl" />
    <path
       style="font-size:16.0303px;font-family:Arial;-inkscape-font-specification:Arial;stroke-width:0.999998"
       d="m -176.15112,373.82635 v -11.47481 h 4.30502 q 1.31498,0 2.10554,0.35223 0.79838,0.3444 1.24454,1.07234 0.45398,0.72011 0.45398,1.51067 0,0.73576 -0.39919,1.38543 -0.39919,0.64966 -1.2054,1.04885 1.04103,0.30527 1.59676,1.04104 0.56357,0.73576 0.56357,1.73765 0,0.80622 -0.3444,1.50285 -0.33658,0.6888 -0.83752,1.06451 -0.50095,0.37571 -1.2602,0.57139 -0.75142,0.18785 -1.84724,0.18785 z m 1.5185,-6.6532 h 2.48125 q 1.00972,0 1.44805,-0.13306 0.57922,-0.1722 0.86883,-0.57139 0.29744,-0.39919 0.29744,-1.0019 0,-0.57139 -0.27396,-1.00189 -0.27395,-0.43833 -0.78273,-0.59487 -0.50877,-0.16438 -1.74548,-0.16438 h -2.2934 z m 0,5.29908 h 2.85696 q 0.73577,0 1.0332,-0.0548 0.52443,-0.0939 0.87666,-0.31309 0.35223,-0.21916 0.57922,-0.63401 0.22699,-0.42267 0.22699,-0.97059 0,-0.64183 -0.32874,-1.11147 -0.32875,-0.47747 -0.9158,-0.66532 -0.57922,-0.19568 -1.67504,-0.19568 h -2.65345 z m 14.74662,-1.32281 1.45588,0.18003 q -0.3444,1.27585 -1.27585,1.9803 -0.93145,0.70446 -2.3795,0.70446 -1.82376,0 -2.8961,-1.1193 -1.06451,-1.12713 -1.06451,-3.1544 0,-2.09772 1.08017,-3.25616 1.08017,-1.15844 2.80217,-1.15844 1.66721,0 2.7239,1.13496 1.05668,1.13496 1.05668,3.19354 0,0.12523 -0.008,0.37571 h -6.19922 q 0.0783,1.36977 0.7749,2.09771 0.69663,0.72794 1.73766,0.72794 0.7749,0 1.32281,-0.40702 0.54791,-0.40702 0.86883,-1.29933 z m -4.62593,-2.27774 h 4.64159 q -0.0939,-1.04886 -0.53226,-1.57329 -0.67315,-0.81404 -1.74549,-0.81404 -0.97058,0 -1.6359,0.64967 -0.65749,0.64966 -0.72794,1.73766 z m 10.92691,3.69448 0.20351,1.24454 q -0.59488,0.12524 -1.06452,0.12524 -0.76707,0 -1.18975,-0.24265 -0.42267,-0.24265 -0.59487,-0.63401 -0.1722,-0.39919 -0.1722,-1.66721 v -4.78248 h -1.0332 v -1.09582 h 1.0332 v -2.05858 l 1.40108,-0.84535 v 2.90393 h 1.41675 v 1.09582 h -1.41675 v 4.86075 q 0,0.6027 0.0704,0.7749 0.0783,0.1722 0.24265,0.27396 0.1722,0.10175 0.48529,0.10175 0.23482,0 0.61836,-0.0548 z m 1.3776,1.26019 v -11.47481 h 1.40891 v 4.11716 q 0.98624,-1.14279 2.48908,-1.14279 0.92362,0 1.6046,0.36789 0.68097,0.36005 0.97058,1.00189 0.29744,0.64184 0.29744,1.8629 v 5.26776 h -1.40891 v -5.26776 q 0,-1.05669 -0.46181,-1.53415 -0.45399,-0.4853 -1.29151,-0.4853 -0.62618,0 -1.18192,0.32875 -0.54791,0.32092 -0.78273,0.87666 -0.23482,0.55573 -0.23482,1.53415 v 4.54765 z"
       id="text323"
       transform="scale(1.0018917,0.99811188)"
       aria-label="Beth" />
    <path
       style="font-size:16.0303px;font-family:Arial;-inkscape-font-specification:Arial;stroke-width:0.999998"
       d="m -172.8793,323.83154 4.40677,-11.47481 h 1.6359 l 4.69638,11.47481 h -1.72984 l -1.33846,-3.47532 h -4.79813 l -1.2602,3.47532 z m 3.31094,-4.71203 h 3.89017 l -1.19758,-3.17788 q -0.54791,-1.44805 -0.81404,-2.3795 -0.21916,1.10365 -0.61835,2.19164 z m 8.46131,4.71203 v -8.31258 h 1.26802 v 1.18192 q 0.9158,-1.36978 2.64563,-1.36978 0.75142,0 1.3776,0.27396 0.63401,0.26612 0.9471,0.70445 0.3131,0.43833 0.43833,1.04103 0.0783,0.39137 0.0783,1.36978 v 5.11122 h -1.40892 v -5.05643 q 0,-0.861 -0.16437,-1.28368 -0.16437,-0.4305 -0.58705,-0.68097 -0.41484,-0.2583 -0.97841,-0.2583 -0.90014,0 -1.55763,0.57139 -0.64967,0.57139 -0.64967,2.16816 v 4.53983 z m 8.91529,0 v -8.31258 h 1.26802 v 1.18192 q 0.91579,-1.36978 2.64563,-1.36978 0.75142,0 1.3776,0.27396 0.63401,0.26612 0.9471,0.70445 0.3131,0.43833 0.43833,1.04103 0.0783,0.39137 0.0783,1.36978 v 5.11122 h -1.40891 v -5.05643 q 0,-0.861 -0.16437,-1.28368 -0.16437,-0.4305 -0.58705,-0.68097 -0.41485,-0.2583 -0.97841,-0.2583 -0.90014,0 -1.55763,0.57139 -0.64967,0.57139 -0.64967,2.16816 v 4.53983 z"
       id="text324"
       transform="scale(1.0018917,0.99811188)"
       aria-label="Ann" />
    <path
       style="display:inline;mix-blend-mode:normal;fill:none;stroke:#000000;stroke-width:0.985423;stroke-linecap:round;stroke-linejoin:round;stroke-dasharray:none;stroke-opacity:1"
       d="M 107.20022,440.75821 V 272.03977"
       id="path324" />
    <path
       style="display:inline;mix-blend-mode:normal;fill:none;stroke:#000000;stroke-width:0.985423;stroke-linecap:round;stroke-linejoin:round;stroke-dasharray:none;stroke-opacity:1"
       d="M 227.25773,440.75821 V 272.03977"
       id="path325" />
  </g>
</svg>
