<?xml version="1.0" encoding="UTF-8" standalone="no"?>
<svg
   width="800"
   height="600"
   id="svg2"
   version="1.1"
   xmlns="http://www.w3.org/2000/svg"
   xmlns:svg="http://www.w3.org/2000/svg"
   xmlns:rdf="http://www.w3.org/1999/02/22-rdf-syntax-ns#"
   xmlns:cc="http://creativecommons.org/ns#"
   xmlns:dc="http://purl.org/dc/elements/1.1/">
  <defs
     id="defs4">
    <marker
       style="overflow:visible"
       id="Triangle-02_reversed"
       refX="0"
       refY="0"
       orient="auto"
       markerWidth="2"
       markerHeight="2"
       viewBox="0 0 1 1"
       preserveAspectRatio="xMidYMid">
      <g
         transform="rotate(180,0,0)"
         id="g1">
        <path
           transform="scale(0.5)"
           style="fill:#000000;fill:context-stroke;fill-rule:evenodd;stroke:context-stroke;stroke-width:1pt"
           d="M 5.77,0 -2.88,5 V -5 Z"
           id="path1" />
      </g>
    </marker>
    <marker
       style="overflow:visible"
       id="Triangle-02-6_reversed"
       refX="0"
       refY="0"
       orient="auto"
       markerWidth="2"
       markerHeight="2"
       viewBox="0 0 1 1"
       preserveAspectRatio="xMidYMid">
      <g
         transform="rotate(180,0,0)"
         id="g2">
        <path
           transform="scale(0.5)"
           style="fill:#000000;fill:context-stroke;fill-rule:evenodd;stroke:context-stroke;stroke-width:1pt"
           d="M 5.77,0 -2.88,5 V -5 Z"
           id="path2" />
      </g>
    </marker>
    <marker
       style="overflow:visible"
       id="Triangle-02-6-2_reversed"
       refX="0"
       refY="0"
       orient="auto"
       markerWidth="2"
       markerHeight="2"
       viewBox="0 0 1 1"
       preserveAspectRatio="xMidYMid">
      <g
         transform="rotate(180,0,0)"
         id="g3">
        <path
           transform="scale(0.5)"
           style="fill:#000000;fill:context-stroke;fill-rule:evenodd;stroke:context-stroke;stroke-width:1pt"
           d="M 5.77,0 -2.88,5 V -5 Z"
           id="path3" />
      </g>
    </marker>
  </defs>
  <metadata
     id="metadata7">
    <rdf:RDF>
      <cc:Work
         rdf:about="">
        <dc:format>image/svg+xml</dc:format>
        <dc:type
           rdf:resource="http://purl.org/dc/dcmitype/StillImage" />
        <dc:language>en</dc:language>
        <cc:license
           rdf:resource="https://timefold.ai/product/license/" />
      </cc:Work>
    </rdf:RDF>
  </metadata>
  <g
     id="layer1"
     transform="translate(0,-378.8106)"
     style="display:inline">
    <path
       style="font-size:37.3333px;font-family:Arial;-inkscape-font-specification:Arial;text-align:center;text-anchor:middle"
       d="M 122.03541,253.62814 V 226.9042 h 11.84895 q 3.57291,0 5.43229,0.72917 1.85937,0.71093 2.97135,2.53385 1.11198,1.82291 1.11198,4.02864 0,2.84375 -1.84115,4.79427 -1.84114,1.95052 -5.68749,2.47916 1.40364,0.67448 2.13281,1.33073 1.54947,1.42187 2.93489,3.55469 l 4.64843,7.27343 h -4.44791 l -3.53645,-5.55989 q -1.54948,-2.40625 -2.55209,-3.68229 -1.0026,-1.27604 -1.80468,-1.78646 -0.78386,-0.51042 -1.60417,-0.71094 -0.60156,-0.1276 -1.96875,-0.1276 h -4.10155 v 11.86718 z m 3.53646,-14.92968 h 7.60155 q 2.42448,0 3.79166,-0.49219 1.36719,-0.51041 2.07813,-1.60416 0.71093,-1.11198 0.71093,-2.40625 0,-1.89583 -1.38541,-3.11718 -1.36719,-1.22136 -4.33854,-1.22136 h -8.45832 z m 36.20309,8.69531 3.39062,0.41927 q -0.80208,2.97135 -2.97135,4.61197 -2.16927,1.64063 -5.54166,1.64063 -4.24739,0 -6.74479,-2.60677 -2.47916,-2.625 -2.47916,-7.34635 0,-4.88541 2.51562,-7.58333 2.51562,-2.69791 6.52604,-2.69791 3.88281,0 6.34374,2.64323 2.46094,2.64322 2.46094,7.43749 0,0.29167 -0.0182,0.875 h -14.43749 q 0.18229,3.1901 1.80469,4.88541 1.62239,1.69531 4.04687,1.69531 1.80468,0 3.08072,-0.94791 1.27604,-0.94792 2.02344,-3.02604 z m -10.77343,-5.30469 h 10.80989 q -0.21875,-2.4427 -1.23958,-3.66406 -1.56771,-1.89583 -4.06511,-1.89583 -2.26041,0 -3.80989,1.51302 -1.53125,1.51302 -1.69531,4.04687 z m 30.62497,18.95832 v -9.47916 q -0.76562,1.07552 -2.15104,1.78646 -1.36718,0.71094 -2.91666,0.71094 -3.44531,0 -5.9427,-2.75261 -2.47917,-2.7526 -2.47917,-7.54686 0,-2.91667 1.0026,-5.23177 1.02084,-2.3151 2.9349,-3.5 1.93229,-1.20312 4.22916,-1.20312 3.59114,0 5.65104,3.02604 v -2.58854 h 2.95312 v 26.77862 z m -10.11718,-17.15363 q 0,3.73698 1.56771,5.61458 1.56771,1.85937 3.75521,1.85937 2.09635,0 3.60937,-1.76823 1.51302,-1.78645 1.51302,-5.41405 0,-3.86458 -1.60417,-5.8151 -1.58593,-1.95052 -3.73697,-1.95052 -2.13281,0 -3.62761,1.82291 -1.47656,1.80469 -1.47656,5.65104 z m 31.22654,9.73437 v -2.84375 q -2.26041,3.28125 -6.14322,3.28125 -1.71354,0 -3.20833,-0.65625 -1.47656,-0.65625 -2.20573,-1.64063 -0.71093,-1.0026 -1.0026,-2.4427 -0.20052,-0.96615 -0.20052,-3.0625 v -11.99478 h 3.28125 v 10.73697 q 0,2.57031 0.20052,3.46354 0.30989,1.29427 1.3125,2.04166 1.0026,0.72917 2.47916,0.72917 1.47656,0 2.77083,-0.7474 1.29427,-0.76562 1.82292,-2.05989 0.54687,-1.3125 0.54687,-3.79167 v -10.37238 h 3.28125 v 19.35936 z m 8.09374,-22.9505 v -3.77344 h 3.28125 v 3.77344 z m 0,22.9505 v -19.35936 h 3.28125 v 19.35936 z m 8.23958,0 v -19.35936 h 2.95313 v 2.93489 q 1.1302,-2.05989 2.07812,-2.71614 0.96614,-0.65625 2.11458,-0.65625 1.65885,0 3.37239,1.05729 l -1.1302,3.04427 q -1.20313,-0.71094 -2.40625,-0.71094 -1.07552,0 -1.93229,0.65625 -0.85677,0.63802 -1.22136,1.78646 -0.54687,1.75 -0.54687,3.82812 v 10.13541 z m 25.72134,-6.23437 3.39062,0.41927 q -0.80208,2.97135 -2.97135,4.61197 -2.16927,1.64063 -5.54167,1.64063 -4.24739,0 -6.74478,-2.60677 -2.47917,-2.625 -2.47917,-7.34635 0,-4.88541 2.51563,-7.58333 2.51562,-2.69791 6.52603,-2.69791 3.88281,0 6.34375,2.64323 2.46093,2.64322 2.46093,7.43749 0,0.29167 -0.0182,0.875 H 233.8348 q 0.18229,3.1901 1.80468,4.88541 1.6224,1.69531 4.04687,1.69531 1.80469,0 3.08073,-0.94791 1.27604,-0.94792 2.02344,-3.02604 z m -10.77343,-5.30469 h 10.80988 q -0.21875,-2.4427 -1.23958,-3.66406 -1.56771,-1.89583 -4.0651,-1.89583 -2.26041,0 -3.80989,1.51302 -1.53125,1.51302 -1.69531,4.04687 z m 30.84372,11.53906 v -2.44271 q -1.84115,2.88021 -5.41406,2.88021 -2.3151,0 -4.26562,-1.27604 -1.93229,-1.27605 -3.00781,-3.55469 -1.05729,-2.29687 -1.05729,-5.26822 0,-2.89844 0.96614,-5.25 0.96615,-2.36979 2.89844,-3.6276 1.93229,-1.25781 4.32031,-1.25781 1.75,0 3.11718,0.74739 1.36719,0.72917 2.22396,1.91406 v -9.58853 h 3.26302 v 26.72394 z m -10.37239,-9.66145 q 0,3.71874 1.56771,5.55989 1.56771,1.84114 3.70052,1.84114 2.15104,0 3.64583,-1.75 1.51302,-1.76822 1.51302,-5.3776 0,-3.97395 -1.53125,-5.83332 -1.53125,-1.85938 -3.77344,-1.85938 -2.1875,0 -3.66406,1.78646 -1.45833,1.78646 -1.45833,5.63281 z m 28.94789,9.66145 v -19.35936 h 2.9349 v 2.71614 q 0.91146,-1.42187 2.42448,-2.27864 1.51301,-0.875 3.4453,-0.875 2.15104,0 3.51823,0.89323 1.38542,0.89323 1.95052,2.49739 2.29687,-3.39062 5.97916,-3.39062 2.88021,0 4.42969,1.60416 1.54947,1.58594 1.54947,4.90365 v 13.28905 h -3.26301 v -12.19531 q 0,-1.96874 -0.32813,-2.82551 -0.3099,-0.875 -1.14844,-1.40365 -0.83854,-0.52864 -1.96874,-0.52864 -2.04167,0 -3.39063,1.36718 -1.34895,1.34896 -1.34895,4.33854 v 11.24739 h -3.28125 v -12.57812 q 0,-2.1875 -0.80208,-3.28125 -0.80209,-1.09374 -2.625,-1.09374 -1.38542,0 -2.57031,0.72916 -1.16667,0.72917 -1.69531,2.13281 -0.52865,1.40365 -0.52865,4.04687 v 10.04427 z m 31.11716,-22.9505 v -3.77344 h 3.28124 v 3.77344 z m 0,22.9505 v -19.35936 h 3.28124 v 19.35936 z m 8.27603,0 v -19.35936 h 2.95313 v 2.7526 q 2.13281,-3.1901 6.16145,-3.1901 1.75,0 3.20833,0.63802 1.47656,0.61979 2.20573,1.64062 0.72916,1.02083 1.02083,2.42448 0.18229,0.91146 0.18229,3.1901 v 11.90364 h -3.28125 V 241.8521 q 0,-2.0052 -0.38281,-2.98958 -0.38281,-1.0026 -1.36719,-1.58593 -0.96614,-0.60156 -2.27864,-0.60156 -2.09635,0 -3.6276,1.33072 -1.51302,1.33073 -1.51302,5.04948 v 10.57291 z m 33.45049,0 v -2.84375 q -2.26041,3.28125 -6.14322,3.28125 -1.71354,0 -3.20833,-0.65625 -1.47656,-0.65625 -2.20573,-1.64063 -0.71094,-1.0026 -1.0026,-2.4427 -0.20052,-0.96615 -0.20052,-3.0625 v -11.99478 h 3.28124 v 10.73697 q 0,2.57031 0.20052,3.46354 0.3099,1.29427 1.3125,2.04166 1.00261,0.72917 2.47917,0.72917 1.47656,0 2.77083,-0.7474 1.29427,-0.76562 1.82291,-2.05989 0.54688,-1.3125 0.54688,-3.79167 v -10.37238 h 3.28125 v 19.35936 z m 15.23959,-2.9349 0.47395,2.89844 q -1.38541,0.29166 -2.47916,0.29166 -1.78646,0 -2.77083,-0.5651 -0.98438,-0.5651 -1.38542,-1.47656 -0.40104,-0.92969 -0.40104,-3.88281 v -11.13801 h -2.40625 v -2.55208 h 2.40625 v -4.79427 l 3.26302,-1.96875 v 6.76302 h 3.29948 v 2.55208 h -3.29948 v 11.3203 q 0,1.40365 0.16406,1.80469 0.18229,0.40104 0.56511,0.63802 0.40104,0.23698 1.1302,0.23698 0.54688,0 1.44011,-0.12761 z m 16.46091,-3.29947 3.39062,0.41927 q -0.80208,2.97135 -2.97135,4.61197 -2.16927,1.64063 -5.54166,1.64063 -4.2474,0 -6.74479,-2.60677 -2.47916,-2.625 -2.47916,-7.34635 0,-4.88541 2.51562,-7.58333 2.51562,-2.69791 6.52603,-2.69791 3.88281,0 6.34375,2.64323 2.46093,2.64322 2.46093,7.43749 0,0.29167 -0.0182,0.875 h -14.43749 q 0.18229,3.1901 1.80468,4.88541 1.6224,1.69531 4.04688,1.69531 1.80468,0 3.08072,-0.94791 1.27604,-0.94792 2.02344,-3.02604 z m -10.77343,-5.30469 h 10.80989 q -0.21875,-2.4427 -1.23959,-3.66406 -1.5677,-1.89583 -4.0651,-1.89583 -2.26041,0 -3.80989,1.51302 -1.53125,1.51302 -1.69531,4.04687 z m 16.97134,5.76042 3.24479,-0.51042 q 0.27343,1.95052 1.51301,2.98958 1.25782,1.03906 3.5,1.03906 2.26042,0 3.35417,-0.91146 1.09374,-0.92968 1.09374,-2.16926 0,-1.11198 -0.96614,-1.75 -0.67448,-0.4375 -3.35416,-1.11198 -3.60938,-0.91146 -5.01302,-1.56771 -1.38542,-0.67448 -2.11458,-1.84114 -0.71094,-1.1849 -0.71094,-2.60677 0,-1.29427 0.58333,-2.38802 0.60157,-1.11198 1.6224,-1.84114 0.76562,-0.56511 2.07812,-0.94792 1.33073,-0.40104 2.84375,-0.40104 2.27864,0 3.99218,0.65625 1.73177,0.65625 2.55208,1.78645 0.82032,1.11198 1.13021,2.98959 l -3.20833,0.43749 q -0.21875,-1.49479 -1.27604,-2.33333 -1.03906,-0.83854 -2.95312,-0.83854 -2.26042,0 -3.22656,0.7474 -0.96615,0.74739 -0.96615,1.75 0,0.63802 0.40104,1.14843 0.40105,0.52865 1.25782,0.875 0.49218,0.18229 2.89843,0.83854 3.48177,0.92969 4.84896,1.53125 1.38541,0.58333 2.16926,1.71354 0.78386,1.13021 0.78386,2.80729 0,1.64062 -0.96615,3.09896 -0.94791,1.4401 -2.7526,2.24218 -1.80468,0.78386 -4.08333,0.78386 -3.77343,0 -5.76041,-1.56771 -1.96875,-1.56771 -2.51562,-4.64843 z m 33.92444,5.77864 -5.92447,-19.35936 h 3.39062 l 3.08073,11.17447 1.14843,4.15624 q 0.0729,-0.30989 1.00261,-3.99218 l 3.08072,-11.33853 h 3.37239 l 2.89844,11.22916 0.96614,3.70051 1.11198,-3.73697 3.31771,-11.1927 h 3.1901 l -6.05208,19.35936 h -3.40885 l -3.08073,-11.59374 -0.74739,-3.29948 -3.91927,14.89322 z m 22.16667,-9.67968 q 0,-5.3776 2.98958,-7.96614 2.4974,-2.15104 6.08854,-2.15104 3.99218,0 6.52604,2.625 2.53385,2.60676 2.53385,7.21874 0,3.73698 -1.13021,5.88802 -1.11198,2.13281 -3.26302,3.3177 -2.13281,1.1849 -4.66666,1.1849 -4.0651,0 -6.58072,-2.60677 -2.4974,-2.60677 -2.4974,-7.51041 z m 3.37239,0 q 0,3.71874 1.6224,5.57812 1.62239,1.84114 4.08333,1.84114 2.44271,0 4.0651,-1.85937 1.62239,-1.85938 1.62239,-5.66927 0,-3.59114 -1.64062,-5.43228 -1.62239,-1.85938 -4.04687,-1.85938 -2.46094,0 -4.08333,1.84115 -1.6224,1.84114 -1.6224,5.55989 z m 18.57551,9.67968 v -19.35936 h 2.95312 v 2.93489 q 1.13021,-2.05989 2.07812,-2.71614 0.96615,-0.65625 2.11458,-0.65625 1.65886,0 3.3724,1.05729 l -1.13021,3.04427 q -1.20312,-0.71094 -2.40625,-0.71094 -1.07552,0 -1.93229,0.65625 -0.85677,0.63802 -1.22135,1.78646 -0.54688,1.75 -0.54688,3.82812 v 10.13541 z m 12.48697,0 V 226.9042 h 3.28124 v 15.23957 l 7.76562,-7.87499 h 4.24739 l -7.40103,7.18228 8.14843,12.17708 h -4.04687 l -6.39843,-9.89843 -2.31511,2.22395 v 7.67448 z m 31.90099,-6.23437 3.39062,0.41927 q -0.80208,2.97135 -2.97135,4.61197 -2.16927,1.64063 -5.54167,1.64063 -4.24739,0 -6.74478,-2.60677 -2.47917,-2.625 -2.47917,-7.34635 0,-4.88541 2.51563,-7.58333 2.51562,-2.69791 6.52603,-2.69791 3.88281,0 6.34375,2.64323 2.46093,2.64322 2.46093,7.43749 0,0.29167 -0.0182,0.875 h -14.43748 q 0.18229,3.1901 1.80468,4.88541 1.6224,1.69531 4.04687,1.69531 1.80469,0 3.08073,-0.94791 1.27604,-0.94792 2.02344,-3.02604 z m -10.77343,-5.30469 h 10.80988 q -0.21875,-2.4427 -1.23958,-3.66406 -1.56771,-1.89583 -4.0651,-1.89583 -2.26041,0 -3.80989,1.51302 -1.53125,1.51302 -1.69531,4.04687 z m 30.84375,11.53906 v -2.44271 q -1.84115,2.88021 -5.41406,2.88021 -2.3151,0 -4.26562,-1.27604 -1.93229,-1.27605 -3.00781,-3.55469 -1.05729,-2.29687 -1.05729,-5.26822 0,-2.89844 0.96614,-5.25 0.96615,-2.36979 2.89844,-3.6276 1.93229,-1.25781 4.32031,-1.25781 1.75,0 3.11718,0.74739 1.36719,0.72917 2.22396,1.91406 v -9.58853 h 3.26302 v 26.72394 z m -10.37239,-9.66145 q 0,3.71874 1.56771,5.55989 1.56771,1.84114 3.70052,1.84114 2.15104,0 3.64583,-1.75 1.51302,-1.76822 1.51302,-5.3776 0,-3.97395 -1.53125,-5.83332 -1.53125,-1.85938 -3.77344,-1.85938 -2.18749,0 -3.66406,1.78646 -1.45833,1.78646 -1.45833,5.63281 z m 28.94788,17.08071 v -26.77862 h 2.98958 v 2.51562 q 1.05729,-1.47656 2.38802,-2.20573 1.33073,-0.74739 3.22656,-0.74739 2.47916,0 4.375,1.27604 1.89583,1.27604 2.86197,3.60937 0.96615,2.3151 0.96615,5.08593 0,2.97136 -1.07552,5.35937 -1.05729,2.36979 -3.09896,3.64583 -2.02343,1.25782 -4.26562,1.25782 -1.64062,0 -2.95312,-0.69271 -1.29427,-0.69271 -2.13281,-1.75 v 9.42447 z m 2.97135,-16.98957 q 0,3.73698 1.51302,5.52343 1.51302,1.78646 3.66406,1.78646 2.1875,0 3.73698,-1.84114 1.5677,-1.85938 1.5677,-5.74219 0,-3.70051 -1.53125,-5.54166 -1.51301,-1.84114 -3.6276,-1.84114 -2.09635,0 -3.71874,1.96875 -1.60417,1.95052 -1.60417,5.68749 z m 31.04424,3.33594 3.39063,0.41927 q -0.80209,2.97135 -2.97136,4.61197 -2.16927,1.64063 -5.54166,1.64063 -4.24739,0 -6.74478,-2.60677 -2.47917,-2.625 -2.47917,-7.34635 0,-4.88541 2.51562,-7.58333 2.51563,-2.69791 6.52604,-2.69791 3.88281,0 6.34374,2.64323 2.46094,2.64322 2.46094,7.43749 0,0.29167 -0.0182,0.875 h -14.43749 q 0.18229,3.1901 1.80469,4.88541 1.62239,1.69531 4.04687,1.69531 1.80469,0 3.08073,-0.94791 1.27604,-0.94792 2.02343,-3.02604 z m -10.77343,-5.30469 h 10.80989 q -0.21875,-2.4427 -1.23958,-3.66406 -1.56771,-1.89583 -4.0651,-1.89583 -2.26042,0 -3.80989,1.51302 -1.53125,1.51302 -1.69532,4.04687 z m 18.24738,11.53906 v -19.35936 h 2.95312 v 2.93489 q 1.13021,-2.05989 2.07813,-2.71614 0.96614,-0.65625 2.11458,-0.65625 1.65885,0 3.37239,1.05729 l -1.1302,3.04427 q -1.20313,-0.71094 -2.40625,-0.71094 -1.07552,0 -1.93229,0.65625 -0.85677,0.63802 -1.22136,1.78646 -0.54687,1.75 -0.54687,3.82812 v 10.13541 z m 22.84112,7.41926 v -26.77862 h 2.98958 v 2.51562 q 1.05729,-1.47656 2.38802,-2.20573 1.33073,-0.74739 3.22656,-0.74739 2.47916,0 4.37499,1.27604 1.89584,1.27604 2.86198,3.60937 0.96615,2.3151 0.96615,5.08593 0,2.97136 -1.07552,5.35937 -1.0573,2.36979 -3.09896,3.64583 -2.02344,1.25782 -4.26562,1.25782 -1.64063,0 -2.95312,-0.69271 -1.29427,-0.69271 -2.13282,-1.75 v 9.42447 z m 2.97135,-16.98957 q 0,3.73698 1.51302,5.52343 1.51302,1.78646 3.66406,1.78646 2.1875,0 3.73697,-1.84114 1.56771,-1.85938 1.56771,-5.74219 0,-3.70051 -1.53125,-5.54166 -1.51302,-1.84114 -3.6276,-1.84114 -2.09635,0 -3.71875,1.96875 -1.60416,1.95052 -1.60416,5.68749 z m 31.04424,3.33594 3.39062,0.41927 q -0.80208,2.97135 -2.97135,4.61197 -2.16927,1.64063 -5.54166,1.64063 -4.24739,0 -6.74479,-2.60677 -2.47916,-2.625 -2.47916,-7.34635 0,-4.88541 2.51562,-7.58333 2.51562,-2.69791 6.52604,-2.69791 3.88281,0 6.34374,2.64323 2.46094,2.64322 2.46094,7.43749 0,0.29167 -0.0182,0.875 h -14.43749 q 0.18229,3.1901 1.80469,4.88541 1.62239,1.69531 4.04687,1.69531 1.80468,0 3.08073,-0.94791 1.27604,-0.94792 2.02343,-3.02604 z M 642.824,242.08908 h 10.80989 q -0.21875,-2.4427 -1.23958,-3.66406 -1.56771,-1.89583 -4.0651,-1.89583 -2.26042,0 -3.8099,1.51302 -1.53124,1.51302 -1.69531,4.04687 z m 18.24738,11.53906 v -19.35936 h 2.95312 v 2.93489 q 1.13021,-2.05989 2.07813,-2.71614 0.96614,-0.65625 2.11458,-0.65625 1.65885,0 3.37239,1.05729 l -1.13021,3.04427 q -1.20312,-0.71094 -2.40624,-0.71094 -1.07552,0 -1.93229,0.65625 -0.85677,0.63802 -1.22136,1.78646 -0.54687,1.75 -0.54687,3.82812 v 10.13541 z m 12.487,-22.9505 v -3.77344 h 3.28125 v 3.77344 z m 0,22.9505 v -19.35936 h 3.28125 v 19.35936 z m 7.05467,-9.67968 q 0,-5.3776 2.98958,-7.96614 2.49739,-2.15104 6.08854,-2.15104 3.99218,0 6.52603,2.625 2.53385,2.60676 2.53385,7.21874 0,3.73698 -1.1302,5.88802 -1.11198,2.13281 -3.26302,3.3177 -2.13281,1.1849 -4.66666,1.1849 -4.06511,0 -6.58073,-2.60677 -2.49739,-2.60677 -2.49739,-7.51041 z m 3.37239,0 q 0,3.71874 1.6224,5.57812 1.62239,1.84114 4.08333,1.84114 2.4427,0 4.0651,-1.85937 1.62239,-1.85938 1.62239,-5.66927 0,-3.59114 -1.64062,-5.43228 -1.6224,-1.85938 -4.04687,-1.85938 -2.46094,0 -4.08333,1.84115 -1.6224,1.84114 -1.6224,5.55989 z m 31.17185,9.67968 v -2.44271 q -1.84115,2.88021 -5.41406,2.88021 -2.3151,0 -4.26562,-1.27604 -1.93229,-1.27605 -3.00781,-3.55469 -1.05729,-2.29687 -1.05729,-5.26822 0,-2.89844 0.96614,-5.25 0.96615,-2.36979 2.89844,-3.6276 1.93229,-1.25781 4.32031,-1.25781 1.74999,0 3.11718,0.74739 1.36719,0.72917 2.22396,1.91406 v -9.58853 h 3.26302 v 26.72394 z m -10.37239,-9.66145 q 0,3.71874 1.56771,5.55989 1.5677,1.84114 3.70051,1.84114 2.15104,0 3.64583,-1.75 1.51302,-1.76822 1.51302,-5.3776 0,-3.97395 -1.53124,-5.83332 -1.53125,-1.85938 -3.77344,-1.85938 -2.1875,0 -3.66406,1.78646 -1.45833,1.78646 -1.45833,5.63281 z"
       id="flowRoot4302"
       transform="translate(-20,194.36213)"
       aria-label="Required minutes worked per period " />
    <g
       id="g3709"
       transform="translate(0,19.999997)" />
    <path
       style="font-size:16px;line-height:1.25;font-family:Arial;-inkscape-font-specification:Arial;text-align:center;text-anchor:middle"
       d="m 234.10937,164.41207 4.39844,-11.45312 h 1.63281 l 4.6875,11.45312 h -1.72656 l -1.33594,-3.46875 h -4.78906 l -1.25781,3.46875 z m 3.30469,-4.70312 h 3.88281 l -1.19531,-3.17188 q -0.54687,-1.44531 -0.8125,-2.375 -0.21875,1.10156 -0.61719,2.1875 z m 7.88281,2.22656 1.39063,-0.21875 q 0.11719,0.83594 0.64844,1.28125 0.53906,0.44531 1.5,0.44531 0.96875,0 1.4375,-0.39062 0.46875,-0.39844 0.46875,-0.92969 0,-0.47656 -0.41407,-0.75 -0.28906,-0.1875 -1.4375,-0.47656 -1.54687,-0.39063 -2.14843,-0.67188 -0.59375,-0.28906 -0.90625,-0.78906 -0.30469,-0.50781 -0.30469,-1.11719 0,-0.55469 0.25,-1.02344 0.25781,-0.47656 0.69531,-0.78906 0.32813,-0.24219 0.89063,-0.40625 0.57031,-0.17187 1.21875,-0.17187 0.97656,0 1.71093,0.28125 0.74219,0.28125 1.09375,0.76562 0.35157,0.47656 0.48438,1.28125 l -1.375,0.1875 q -0.0937,-0.64062 -0.54688,-1 -0.44531,-0.35937 -1.26562,-0.35937 -0.96875,0 -1.38281,0.32031 -0.41407,0.32031 -0.41407,0.75 0,0.27344 0.17188,0.49219 0.17187,0.22656 0.53906,0.375 0.21094,0.0781 1.24219,0.35937 1.49219,0.39844 2.07812,0.65625 0.59375,0.25 0.92969,0.73438 0.33594,0.48437 0.33594,1.20312 0,0.70313 -0.41406,1.32813 -0.40625,0.61718 -1.17969,0.96093 -0.77344,0.33594 -1.75,0.33594 -1.61719,0 -2.46875,-0.67187 -0.84375,-0.67188 -1.07813,-1.99219 z m 8,0 1.39063,-0.21875 q 0.11719,0.83594 0.64844,1.28125 0.53906,0.44531 1.5,0.44531 0.96875,0 1.4375,-0.39062 0.46875,-0.39844 0.46875,-0.92969 0,-0.47656 -0.41407,-0.75 -0.28906,-0.1875 -1.4375,-0.47656 -1.54687,-0.39063 -2.14843,-0.67188 -0.59375,-0.28906 -0.90625,-0.78906 -0.30469,-0.50781 -0.30469,-1.11719 0,-0.55469 0.25,-1.02344 0.25781,-0.47656 0.69531,-0.78906 0.32813,-0.24219 0.89063,-0.40625 0.57031,-0.17187 1.21875,-0.17187 0.97656,0 1.71093,0.28125 0.74219,0.28125 1.09375,0.76562 0.35157,0.47656 0.48438,1.28125 l -1.375,0.1875 q -0.0937,-0.64062 -0.54688,-1 -0.44531,-0.35937 -1.26562,-0.35937 -0.96875,0 -1.38281,0.32031 -0.41407,0.32031 -0.41407,0.75 0,0.27344 0.17188,0.49219 0.17187,0.22656 0.53906,0.375 0.21094,0.0781 1.24219,0.35937 1.49219,0.39844 2.07812,0.65625 0.59375,0.25 0.92969,0.73438 0.33594,0.48437 0.33594,1.20312 0,0.70313 -0.41406,1.32813 -0.40625,0.61718 -1.17969,0.96093 -0.77344,0.33594 -1.75,0.33594 -1.61719,0 -2.46875,-0.67187 -0.84375,-0.67188 -1.07813,-1.99219 z m 8.57032,-7.35938 v -1.61718 h 1.40625 v 1.61718 z m 0,9.83594 v -8.29687 h 1.40625 v 8.29687 z m 3.28906,0.6875 1.36719,0.20313 q 0.0859,0.63281 0.47656,0.92187 0.52344,0.39063 1.42969,0.39063 0.97656,0 1.50781,-0.39063 0.53125,-0.39062 0.71875,-1.09375 0.10937,-0.42969 0.10156,-1.80469 -0.92187,1.08594 -2.29687,1.08594 -1.71094,0 -2.64844,-1.23437 -0.9375,-1.23438 -0.9375,-2.96094 0,-1.1875 0.42969,-2.1875 0.42968,-1.00781 1.24218,-1.55469 0.82032,-0.54687 1.92188,-0.54687 1.46875,0 2.42187,1.1875 v -1 h 1.29688 v 7.17187 q 0,1.9375 -0.39844,2.74219 -0.39062,0.8125 -1.25,1.28125 -0.85156,0.46875 -2.10156,0.46875 -1.48438,0 -2.39844,-0.67188 -0.91406,-0.66406 -0.88281,-2.00781 z m 1.16406,-4.98437 q 0,1.63281 0.64844,2.38281 0.64844,0.75 1.625,0.75 0.96875,0 1.625,-0.74219 0.65625,-0.75 0.65625,-2.34375 0,-1.52344 -0.67969,-2.29687 -0.67187,-0.77344 -1.625,-0.77344 -0.9375,0 -1.59375,0.76562 -0.65625,0.75782 -0.65625,2.25782 z m 7.99219,4.29687 v -8.29687 h 1.26562 v 1.17968 q 0.91407,-1.36718 2.64063,-1.36718 0.75,0 1.375,0.27343 0.63281,0.26563 0.94531,0.70313 0.3125,0.4375 0.4375,1.03906 0.0781,0.39063 0.0781,1.36719 v 5.10156 h -1.40625 v -5.04687 q 0,-0.85938 -0.16407,-1.28125 -0.16406,-0.42969 -0.58593,-0.67969 -0.41407,-0.25781 -0.97657,-0.25781 -0.89843,0 -1.55468,0.57031 -0.64844,0.57031 -0.64844,2.16406 v 4.53125 z m 11.38281,0 4.39844,-11.45312 h 1.63281 l 4.6875,11.45312 h -1.72656 l -1.33594,-3.46875 h -4.78906 l -1.25781,3.46875 z M 289,159.70895 h 3.88281 l -1.19531,-3.17188 q -0.54688,-1.44531 -0.8125,-2.375 -0.21875,1.10156 -0.61719,2.1875 z m 8.44531,4.70312 v -8.29687 h 1.26563 v 1.17968 q 0.91406,-1.36718 2.64062,-1.36718 0.75,0 1.375,0.27343 0.63281,0.26563 0.94531,0.70313 0.3125,0.4375 0.4375,1.03906 0.0781,0.39063 0.0781,1.36719 v 5.10156 h -1.40625 v -5.04687 q 0,-0.85938 -0.16406,-1.28125 -0.16407,-0.42969 -0.58594,-0.67969 -0.41406,-0.25781 -0.97656,-0.25781 -0.89844,0 -1.55469,0.57031 -0.64844,0.57031 -0.64844,2.16406 v 4.53125 z m 8.89844,0 v -8.29687 h 1.26562 v 1.17968 q 0.91407,-1.36718 2.64063,-1.36718 0.75,0 1.375,0.27343 0.63281,0.26563 0.94531,0.70313 0.3125,0.4375 0.4375,1.03906 0.0781,0.39063 0.0781,1.36719 v 5.10156 h -1.40625 v -5.04687 q 0,-0.85938 -0.16407,-1.28125 -0.16406,-0.42969 -0.58593,-0.67969 -0.41407,-0.25781 -0.97657,-0.25781 -0.89843,0 -1.55468,0.57031 -0.64844,0.57031 -0.64844,2.16406 v 4.53125 z m 18.75781,-1.02344 q -0.78125,0.66407 -1.50781,0.9375 -0.71875,0.27344 -1.54688,0.27344 -1.36718,0 -2.10156,-0.66406 -0.73437,-0.67188 -0.73437,-1.71094 0,-0.60937 0.27343,-1.10937 0.28125,-0.50782 0.72657,-0.8125 0.45312,-0.30469 1.01562,-0.46094 0.41406,-0.10938 1.25,-0.21094 1.70313,-0.20312 2.50781,-0.48437 0.008,-0.28907 0.008,-0.36719 0,-0.85938 -0.39844,-1.21094 -0.53906,-0.47656 -1.60156,-0.47656 -0.99219,0 -1.46875,0.35156 -0.46875,0.34375 -0.69532,1.22656 l -1.375,-0.1875 q 0.1875,-0.88281 0.61719,-1.42187 0.42969,-0.54688 1.24219,-0.83594 0.8125,-0.29687 1.88281,-0.29687 1.0625,0 1.72656,0.25 0.66407,0.25 0.97657,0.63281 0.3125,0.375 0.4375,0.95312 0.0703,0.35938 0.0703,1.29688 v 1.875 q 0,1.96094 0.0859,2.48437 0.0937,0.51563 0.35937,0.99219 h -1.46875 q -0.21875,-0.4375 -0.28125,-1.02344 z m -0.11719,-3.14062 q -0.76562,0.3125 -2.29687,0.53125 -0.86719,0.125 -1.22656,0.28125 -0.35938,0.15625 -0.55469,0.46094 -0.19531,0.29687 -0.19531,0.66406 0,0.5625 0.42187,0.9375 0.42969,0.375 1.25,0.375 0.8125,0 1.44531,-0.35156 0.63282,-0.35938 0.92969,-0.97657 0.22656,-0.47656 0.22656,-1.40625 z m 8.04688,4.16406 v -8.29687 h 1.25781 v 1.16406 q 0.39063,-0.60938 1.03906,-0.97656 0.64844,-0.375 1.47657,-0.375 0.92187,0 1.50781,0.38281 0.59375,0.38281 0.83594,1.07031 0.98437,-1.45312 2.5625,-1.45312 1.23437,0 1.89843,0.6875 0.66407,0.67968 0.66407,2.10156 v 5.69531 H 342.875 v -5.22656 q 0,-0.84375 -0.14063,-1.21094 -0.13281,-0.375 -0.49218,-0.60156 -0.35938,-0.22656 -0.84375,-0.22656 -0.875,0 -1.45313,0.58593 -0.57812,0.57813 -0.57812,1.85938 v 4.82031 h -1.40625 v -5.39062 q 0,-0.9375 -0.34375,-1.40625 -0.34375,-0.46875 -1.125,-0.46875 -0.59375,0 -1.10157,0.3125 -0.5,0.3125 -0.72656,0.91406 -0.22656,0.60156 -0.22656,1.73437 v 4.30469 z m 18.74219,-1.02344 q -0.78125,0.66407 -1.50782,0.9375 -0.71875,0.27344 -1.54687,0.27344 -1.36719,0 -2.10156,-0.66406 -0.73438,-0.67188 -0.73438,-1.71094 0,-0.60937 0.27344,-1.10937 0.28125,-0.50782 0.72656,-0.8125 0.45313,-0.30469 1.01563,-0.46094 0.41406,-0.10938 1.25,-0.21094 1.70312,-0.20312 2.50781,-0.48437 0.008,-0.28907 0.008,-0.36719 0,-0.85938 -0.39844,-1.21094 -0.53906,-0.47656 -1.60156,-0.47656 -0.99219,0 -1.46875,0.35156 -0.46875,0.34375 -0.69531,1.22656 l -1.375,-0.1875 q 0.1875,-0.88281 0.61719,-1.42187 0.42968,-0.54688 1.24218,-0.83594 0.8125,-0.29687 1.88282,-0.29687 1.0625,0 1.72656,0.25 0.66406,0.25 0.97656,0.63281 0.3125,0.375 0.4375,0.95312 0.0703,0.35938 0.0703,1.29688 v 1.875 q 0,1.96094 0.0859,2.48437 0.0937,0.51563 0.35938,0.99219 h -1.46875 q -0.21875,-0.4375 -0.28125,-1.02344 z m -0.11719,-3.14062 q -0.76563,0.3125 -2.29688,0.53125 -0.86718,0.125 -1.22656,0.28125 -0.35937,0.15625 -0.55469,0.46094 -0.19531,0.29687 -0.19531,0.66406 0,0.5625 0.42188,0.9375 0.42968,0.375 1.25,0.375 0.8125,0 1.44531,-0.35156 0.63281,-0.35938 0.92969,-0.97657 0.22656,-0.47656 0.22656,-1.40625 z m 2.66406,4.16406 3.03125,-4.3125 -2.80469,-3.98437 h 1.75782 l 1.27343,1.94531 q 0.35938,0.55469 0.57813,0.92969 0.34375,-0.51563 0.63281,-0.91407 l 1.39844,-1.96093 h 1.67969 L 359,160.02145 l 3.08594,4.39062 h -1.72657 l -1.70312,-2.57812 -0.45313,-0.69532 -2.17968,3.27344 z m 8.94531,-9.83594 v -1.61718 h 1.40625 v 1.61718 z m 0,9.83594 v -8.29687 h 1.40625 v 8.29687 z m 3.54688,0 v -8.29687 h 1.25781 v 1.16406 q 0.39063,-0.60938 1.03906,-0.97656 0.64844,-0.375 1.47657,-0.375 0.92187,0 1.50781,0.38281 0.59375,0.38281 0.83594,1.07031 0.98437,-1.45312 2.5625,-1.45312 1.23437,0 1.89843,0.6875 0.66407,0.67968 0.66407,2.10156 v 5.69531 h -1.39844 v -5.22656 q 0,-0.84375 -0.14063,-1.21094 -0.13281,-0.375 -0.49218,-0.60156 -0.35938,-0.22656 -0.84375,-0.22656 -0.875,0 -1.45313,0.58593 -0.57812,0.57813 -0.57812,1.85938 v 4.82031 h -1.40625 v -5.39062 q 0,-0.9375 -0.34375,-1.40625 -0.34375,-0.46875 -1.125,-0.46875 -0.59375,0 -1.10157,0.3125 -0.5,0.3125 -0.72656,0.91406 -0.22656,0.60156 -0.22656,1.73437 v 4.30469 z m 18.76562,0 v -1.21875 q -0.96875,1.40625 -2.63281,1.40625 -0.73437,0 -1.375,-0.28125 -0.63281,-0.28125 -0.94531,-0.70312 -0.30469,-0.42969 -0.42969,-1.04688 -0.0859,-0.41406 -0.0859,-1.3125 v -5.14062 h 1.40625 v 4.60156 q 0,1.10156 0.0859,1.48437 0.13281,0.55469 0.5625,0.875 0.42969,0.3125 1.0625,0.3125 0.63281,0 1.1875,-0.32031 0.55469,-0.32812 0.78125,-0.88281 0.23438,-0.5625 0.23438,-1.625 v -4.44531 h 1.40625 v 8.29687 z m 3.46094,0 v -8.29687 h 1.25781 v 1.16406 q 0.39063,-0.60938 1.03907,-0.97656 0.64843,-0.375 1.47656,-0.375 0.92187,0 1.50781,0.38281 0.59375,0.38281 0.83594,1.07031 0.98437,-1.45312 2.5625,-1.45312 1.23437,0 1.89844,0.6875 0.66406,0.67968 0.66406,2.10156 v 5.69531 h -1.39844 v -5.22656 q 0,-0.84375 -0.14062,-1.21094 -0.13282,-0.375 -0.49219,-0.60156 -0.35938,-0.22656 -0.84375,-0.22656 -0.875,0 -1.45313,0.58593 -0.57812,0.57813 -0.57812,1.85938 v 4.82031 h -1.40625 v -5.39062 q 0,-0.9375 -0.34375,-1.40625 -0.34375,-0.46875 -1.125,-0.46875 -0.59375,0 -1.10156,0.3125 -0.5,0.3125 -0.72657,0.91406 -0.22656,0.60156 -0.22656,1.73437 v 4.30469 z m 17.25,-4.14844 q 0,-2.30468 1.28125,-3.41406 1.07031,-0.92187 2.60938,-0.92187 1.71093,0 2.79687,1.125 1.08594,1.11718 1.08594,3.09375 0,1.60156 -0.48438,2.52343 -0.47656,0.91407 -1.39843,1.42188 -0.91407,0.50781 -2,0.50781 -1.74219,0 -2.82032,-1.11719 -1.07031,-1.11718 -1.07031,-3.21875 z m 1.44531,0 q 0,1.59375 0.69532,2.39063 0.69531,0.78906 1.75,0.78906 1.04687,0 1.74218,-0.79687 0.69532,-0.79688 0.69532,-2.42969 0,-1.53906 -0.70313,-2.32813 -0.69531,-0.79687 -1.73437,-0.79687 -1.05469,0 -1.75,0.78906 -0.69532,0.78906 -0.69532,2.38281 z m 8.3125,4.14844 v -7.20312 h -1.24218 v -1.09375 h 1.24218 v -0.88282 q 0,-0.83593 0.14844,-1.24218 0.20313,-0.54688 0.71094,-0.88282 0.51562,-0.34375 1.4375,-0.34375 0.59375,0 1.3125,0.14063 l -0.21094,1.22656 q -0.4375,-0.0781 -0.82812,-0.0781 -0.64063,0 -0.90625,0.27343 -0.26563,0.27344 -0.26563,1.02344 v 0.76563 h 1.61719 v 1.09375 h -1.61719 v 7.20312 z m 13.46094,0 h -1.40625 v -8.96094 q -0.50781,0.48438 -1.33594,0.96875 -0.82031,0.48438 -1.47656,0.72657 v -1.35938 q 1.17969,-0.55469 2.0625,-1.34375 0.88281,-0.78906 1.25,-1.53125 h 0.90625 z m 4.35938,0 v -1.60156 h 1.60156 v 1.60156 q 0,0.88281 -0.3125,1.42188 -0.3125,0.54687 -0.99219,0.84375 l -0.39062,-0.60157 q 0.44531,-0.19531 0.65625,-0.57812 0.21093,-0.375 0.23437,-1.08594 z m 3.89843,-2.64844 1.35157,-0.125 q 0.17187,0.95313 0.65625,1.38282 0.48437,0.42968 1.24218,0.42968 0.64844,0 1.13282,-0.29687 0.49218,-0.29688 0.80468,-0.78906 0.3125,-0.5 0.52344,-1.34375 0.21094,-0.84375 0.21094,-1.71875 0,-0.0937 -0.008,-0.28125 -0.42188,0.67187 -1.15625,1.09375 -0.72657,0.41406 -1.57813,0.41406 -1.42187,0 -2.40625,-1.03125 -0.98437,-1.03125 -0.98437,-2.71875 0,-1.74219 1.02343,-2.80469 1.03125,-1.0625 2.57813,-1.0625 1.11719,0 2.03906,0.60156 0.92969,0.60157 1.40625,1.71875 0.48438,1.10938 0.48438,3.21875 0,2.19532 -0.47657,3.5 -0.47656,1.29688 -1.42187,1.97657 -0.9375,0.67968 -2.20313,0.67968 -1.34375,0 -2.19531,-0.74218 -0.85156,-0.75 -1.02344,-2.10157 z m 5.75782,-5.05468 q 0,-1.21094 -0.64844,-1.92188 -0.64063,-0.71094 -1.54688,-0.71094 -0.9375,0 -1.63281,0.76563 Q 439,155.60738 439,156.82613 q 0,1.09375 0.65625,1.78125 0.66406,0.67969 1.63281,0.67969 0.97656,0 1.60156,-0.67969 0.63282,-0.6875 0.63282,-1.89843 z m 10.32031,6.35156 v 1.35156 h -7.57031 q -0.0156,-0.50781 0.16406,-0.97656 0.28906,-0.77344 0.92187,-1.52344 0.64063,-0.75 1.84375,-1.73437 1.86719,-1.53125 2.52344,-2.42188 0.65625,-0.89844 0.65625,-1.69531 0,-0.83594 -0.60156,-1.40625 -0.59375,-0.57813 -1.55469,-0.57813 -1.01562,0 -1.625,0.60938 -0.60937,0.60937 -0.61719,1.6875 l -1.44531,-0.14844 q 0.14844,-1.61719 1.11719,-2.46094 0.96875,-0.85156 2.60156,-0.85156 1.64844,0 2.60938,0.91406 0.96093,0.91407 0.96093,2.26563 0,0.6875 -0.28125,1.35156 -0.28125,0.66406 -0.9375,1.39844 -0.64843,0.73437 -2.16406,2.01562 -1.26562,1.0625 -1.625,1.44532 -0.35937,0.375 -0.59375,0.75781 z m 1.50781,-4.29688 q 0,-2.03125 0.41406,-3.26562 0.42188,-1.24219 1.24219,-1.91406 0.82813,-0.67188 2.07813,-0.67188 0.92187,0 1.61718,0.375 0.69532,0.36719 1.14844,1.07031 0.45313,0.69532 0.71094,1.70313 0.25781,1 0.25781,2.70312 0,2.01563 -0.41406,3.25782 -0.41406,1.23437 -1.24219,1.91406 -0.82031,0.67187 -2.07812,0.67187 -1.65625,0 -2.60157,-1.1875 -1.13281,-1.42968 -1.13281,-4.65625 z m 1.44531,0 q 0,2.82032 0.65625,3.75782 0.66407,0.92968 1.63282,0.92968 0.96875,0 1.625,-0.9375 0.66406,-0.9375 0.66406,-3.75 0,-2.82812 -0.66406,-3.75781 -0.65625,-0.92969 -1.64063,-0.92969 -0.96875,0 -1.54687,0.82032 -0.72657,1.04687 -0.72657,3.86718 z m 12.28907,5.64844 v -8.29687 h 1.25781 v 1.16406 q 0.39062,-0.60938 1.03906,-0.97656 0.64844,-0.375 1.47656,-0.375 0.92188,0 1.50782,0.38281 0.59375,0.38281 0.83593,1.07031 0.98438,-1.45312 2.5625,-1.45312 1.23438,0 1.89844,0.6875 0.66406,0.67968 0.66406,2.10156 v 5.69531 h -1.39843 v -5.22656 q 0,-0.84375 -0.14063,-1.21094 -0.13281,-0.375 -0.49219,-0.60156 -0.35937,-0.22656 -0.84375,-0.22656 -0.875,0 -1.45312,0.58593 -0.57813,0.57813 -0.57813,1.85938 v 4.82031 h -1.40625 v -5.39062 q 0,-0.9375 -0.34375,-1.40625 -0.34375,-0.46875 -1.125,-0.46875 -0.59375,0 -1.10156,0.3125 -0.5,0.3125 -0.72656,0.91406 -0.22656,0.60156 -0.22656,1.73437 v 4.30469 z m 13.33593,-9.83594 v -1.61718 h 1.40625 v 1.61718 z m 0,9.83594 v -8.29687 h 1.40625 v 8.29687 z m 3.54688,0 v -8.29687 h 1.26562 v 1.17968 q 0.91407,-1.36718 2.64063,-1.36718 0.75,0 1.375,0.27343 0.63281,0.26563 0.94531,0.70313 0.3125,0.4375 0.4375,1.03906 0.0781,0.39063 0.0781,1.36719 v 5.10156 h -1.40625 v -5.04687 q 0,-0.85938 -0.16407,-1.28125 -0.16406,-0.42969 -0.58593,-0.67969 -0.41407,-0.25781 -0.97657,-0.25781 -0.89843,0 -1.55468,0.57031 -0.64844,0.57031 -0.64844,2.16406 v 4.53125 z m 14.33594,0 v -1.21875 q -0.96875,1.40625 -2.63282,1.40625 -0.73437,0 -1.375,-0.28125 -0.63281,-0.28125 -0.94531,-0.70312 -0.30469,-0.42969 -0.42969,-1.04688 -0.0859,-0.41406 -0.0859,-1.3125 v -5.14062 h 1.40625 v 4.60156 q 0,1.10156 0.0859,1.48437 0.13282,0.55469 0.5625,0.875 0.42969,0.3125 1.0625,0.3125 0.63282,0 1.1875,-0.32031 0.55469,-0.32812 0.78125,-0.88281 0.23438,-0.5625 0.23438,-1.625 v -4.44531 h 1.40625 v 8.29687 z m 6.53125,-1.25781 0.20312,1.24219 q -0.59375,0.125 -1.0625,0.125 -0.76562,0 -1.1875,-0.24219 -0.42187,-0.24219 -0.59375,-0.63281 -0.17187,-0.39844 -0.17187,-1.66407 v -4.77343 h -1.03125 v -1.09375 h 1.03125 v -2.05469 l 1.39843,-0.84375 v 2.89844 h 1.41407 v 1.09375 h -1.41407 v 4.85156 q 0,0.60156 0.0703,0.77344 0.0781,0.17187 0.24218,0.27343 0.17188,0.10157 0.48438,0.10157 0.23437,0 0.61719,-0.0547 z m 7.05468,-1.41406 1.45313,0.17968 q -0.34375,1.27344 -1.27344,1.97657 -0.92969,0.70312 -2.375,0.70312 -1.82031,0 -2.89062,-1.11719 -1.0625,-1.125 -1.0625,-3.14843 0,-2.09375 1.07812,-3.25 1.07813,-1.15625 2.79688,-1.15625 1.66406,0 2.71875,1.13281 1.05468,1.13281 1.05468,3.1875 0,0.125 -0.008,0.375 h -6.1875 q 0.0781,1.36719 0.77344,2.09375 0.69531,0.72656 1.73437,0.72656 0.77344,0 1.32032,-0.40625 0.54687,-0.40625 0.86718,-1.29687 z m -4.61718,-2.27344 h 4.63281 q -0.0937,-1.04688 -0.53125,-1.57031 -0.67188,-0.8125 -1.74219,-0.8125 -0.96875,0 -1.63281,0.64843 -0.65625,0.64844 -0.72656,1.73438 z m 7.27343,2.46875 1.39063,-0.21875 q 0.11719,0.83594 0.64844,1.28125 0.53906,0.44531 1.5,0.44531 0.96875,0 1.4375,-0.39062 0.46875,-0.39844 0.46875,-0.92969 0,-0.47656 -0.41407,-0.75 -0.28906,-0.1875 -1.4375,-0.47656 -1.54687,-0.39063 -2.14843,-0.67188 -0.59375,-0.28906 -0.90625,-0.78906 -0.30469,-0.50781 -0.30469,-1.11719 0,-0.55469 0.25,-1.02344 0.25781,-0.47656 0.69531,-0.78906 0.32813,-0.24219 0.89063,-0.40625 0.57031,-0.17187 1.21875,-0.17187 0.97656,0 1.71093,0.28125 0.74219,0.28125 1.09375,0.76562 0.35157,0.47656 0.48438,1.28125 l -1.375,0.1875 q -0.0937,-0.64062 -0.54688,-1 -0.44531,-0.35937 -1.26562,-0.35937 -0.96875,0 -1.38281,0.32031 -0.41407,0.32031 -0.41407,0.75 0,0.27344 0.17188,0.49219 0.17187,0.22656 0.53906,0.375 0.21094,0.0781 1.24219,0.35937 1.49219,0.39844 2.07812,0.65625 0.59375,0.25 0.92969,0.73438 0.33594,0.48437 0.33594,1.20312 0,0.70313 -0.41406,1.32813 -0.40625,0.61718 -1.17969,0.96093 -0.77344,0.33594 -1.75,0.33594 -1.61719,0 -2.46875,-0.67187 -0.84375,-0.67188 -1.07813,-1.99219 z m 15.69532,5.84375 q -1.16407,-1.46875 -1.96875,-3.4375 -0.80469,-1.96875 -0.80469,-4.07813 0,-1.85937 0.60156,-3.5625 0.70313,-1.97656 2.17188,-3.9375 H 533.25 q -0.94531,1.625 -1.25,2.32032 -0.47656,1.07812 -0.75,2.25 -0.33594,1.46093 -0.33594,2.9375 0,3.75781 2.33594,7.50781 z m 2.25781,-6.39063 1.40625,-0.1875 q 0.24219,1.19532 0.82031,1.72657 0.58594,0.52343 1.42188,0.52343 0.99218,0 1.67187,-0.6875 0.6875,-0.6875 0.6875,-1.70312 0,-0.96875 -0.63281,-1.59375 -0.63281,-0.63281 -1.60938,-0.63281 -0.39843,0 -0.99218,0.15625 l 0.15625,-1.23438 q 0.14062,0.0156 0.22656,0.0156 0.89844,0 1.61719,-0.46875 0.71875,-0.46875 0.71875,-1.44532 0,-0.77343 -0.52344,-1.28125 -0.52344,-0.50781 -1.35156,-0.50781 -0.82032,0 -1.36719,0.51563 -0.54688,0.51562 -0.70313,1.54687 l -1.40625,-0.25 q 0.25782,-1.41406 1.17188,-2.1875 0.91406,-0.78125 2.27344,-0.78125 0.9375,0 1.72656,0.40625 0.78906,0.39844 1.20312,1.09375 0.42188,0.69531 0.42188,1.47656 0,0.74219 -0.39844,1.35157 -0.39844,0.60937 -1.17969,0.96875 1.01563,0.23437 1.57813,0.97656 0.5625,0.73437 0.5625,1.84375 0,1.5 -1.09375,2.54687 -1.09375,1.03907 -2.76563,1.03907 -1.50781,0 -2.50781,-0.89844 -0.99219,-0.89844 -1.13281,-2.32813 z m 16.28125,1.67188 v 1.35156 h -7.57031 q -0.0156,-0.50781 0.16406,-0.97656 0.28906,-0.77344 0.92187,-1.52344 0.64063,-0.75 1.84375,-1.73437 1.86719,-1.53125 2.52344,-2.42188 0.65625,-0.89844 0.65625,-1.69531 0,-0.83594 -0.60156,-1.40625 -0.59375,-0.57813 -1.55469,-0.57813 -1.01562,0 -1.625,0.60938 -0.60937,0.60937 -0.61719,1.6875 l -1.44531,-0.14844 q 0.14844,-1.61719 1.11719,-2.46094 0.96875,-0.85156 2.60156,-0.85156 1.64844,0 2.60938,0.91406 0.96093,0.91407 0.96093,2.26563 0,0.6875 -0.28125,1.35156 -0.28125,0.66406 -0.9375,1.39844 -0.64843,0.73437 -2.16406,2.01562 -1.26562,1.0625 -1.625,1.44532 -0.35937,0.375 -0.59375,0.75781 z m 6.34375,1.35156 v -11.45312 h 1.40625 v 4.10937 q 0.98437,-1.14062 2.48437,-1.14062 0.92188,0 1.60157,0.36718 0.67968,0.35938 0.96875,1 0.29687,0.64063 0.29687,1.85938 v 5.25781 h -1.40625 v -5.25781 q 0,-1.05469 -0.46094,-1.53125 -0.45312,-0.48438 -1.28906,-0.48438 -0.625,0 -1.17969,0.32813 -0.54687,0.32031 -0.78125,0.875 -0.23437,0.55469 -0.23437,1.53125 v 4.53906 z m 8.375,-4.14844 q 0,-2.30468 1.28125,-3.41406 1.07031,-0.92187 2.60937,-0.92187 1.71094,0 2.79688,1.125 1.08594,1.11718 1.08594,3.09375 0,1.60156 -0.48438,2.52343 -0.47656,0.91407 -1.39844,1.42188 -0.91406,0.50781 -2,0.50781 -1.74218,0 -2.82031,-1.11719 Q 565.5,162.3652 565.5,160.26363 Z m 1.44531,0 q 0,1.59375 0.69531,2.39063 0.69532,0.78906 1.75,0.78906 1.04688,0 1.74219,-0.79687 0.69531,-0.79688 0.69531,-2.42969 0,-1.53906 -0.70312,-2.32813 -0.69531,-0.79687 -1.73438,-0.79687 -1.05468,0 -1.75,0.78906 -0.69531,0.78906 -0.69531,2.38281 z m 13.41406,4.14844 v -1.21875 q -0.96875,1.40625 -2.63281,1.40625 -0.73437,0 -1.375,-0.28125 -0.63281,-0.28125 -0.94531,-0.70312 -0.30469,-0.42969 -0.42969,-1.04688 -0.0859,-0.41406 -0.0859,-1.3125 v -5.14062 h 1.40625 v 4.60156 q 0,1.10156 0.0859,1.48437 0.13281,0.55469 0.5625,0.875 0.42969,0.3125 1.0625,0.3125 0.63281,0 1.1875,-0.32031 0.55469,-0.32812 0.78125,-0.88281 0.23438,-0.5625 0.23438,-1.625 v -4.44531 h 1.40625 v 8.29687 z m 3.44532,0 v -8.29687 h 1.26562 v 1.25781 q 0.48438,-0.88281 0.89063,-1.16406 0.41406,-0.28125 0.90625,-0.28125 0.71093,0 1.44531,0.45312 l -0.48438,1.30469 q -0.51562,-0.30469 -1.03125,-0.30469 -0.46093,0 -0.82812,0.28125 -0.36719,0.27344 -0.52344,0.76563 -0.23437,0.75 -0.23437,1.64062 v 4.34375 z m 4.78125,-2.47656 1.39062,-0.21875 q 0.11719,0.83594 0.64844,1.28125 0.53906,0.44531 1.5,0.44531 0.96875,0 1.4375,-0.39062 0.46875,-0.39844 0.46875,-0.92969 0,-0.47656 -0.41406,-0.75 -0.28907,-0.1875 -1.4375,-0.47656 -1.54688,-0.39063 -2.14844,-0.67188 -0.59375,-0.28906 -0.90625,-0.78906 -0.30469,-0.50781 -0.30469,-1.11719 0,-0.55469 0.25,-1.02344 0.25781,-0.47656 0.69531,-0.78906 0.32813,-0.24219 0.89063,-0.40625 0.57031,-0.17187 1.21875,-0.17187 0.97656,0 1.71094,0.28125 0.74218,0.28125 1.09375,0.76562 0.35156,0.47656 0.48437,1.28125 l -1.375,0.1875 q -0.0937,-0.64062 -0.54687,-1 -0.44532,-0.35937 -1.26563,-0.35937 -0.96875,0 -1.38281,0.32031 -0.41406,0.32031 -0.41406,0.75 0,0.27344 0.17187,0.49219 0.17188,0.22656 0.53906,0.375 0.21094,0.0781 1.24219,0.35937 1.49219,0.39844 2.07813,0.65625 0.59375,0.25 0.92968,0.73438 0.33594,0.48437 0.33594,1.20312 0,0.70313 -0.41406,1.32813 -0.40625,0.61718 -1.17969,0.96093 -0.77344,0.33594 -1.75,0.33594 -1.61719,0 -2.46875,-0.67187 -0.84375,-0.67188 -1.07812,-1.99219 z m 9.48437,5.84375 h -1.00781 q 2.33594,-3.75 2.33594,-7.50781 0,-1.46875 -0.33594,-2.91407 -0.26563,-1.17187 -0.74219,-2.25 -0.30469,-0.70312 -1.25781,-2.34375 h 1.00781 q 1.46875,1.96094 2.17188,3.9375 0.60156,1.70313 0.60156,3.5625 0,2.10938 -0.8125,4.07813 -0.80469,1.96875 -1.96094,3.4375 z m 4.80469,-3.36719 v -1.60156 h 1.60156 v 1.60156 z"
       id="flowRoot4302-6"
       transform="translate(-20,314.36182)"
       aria-label="Assign Ann a maximum of 1,920 minutes (32 hours). " />
    <flowRoot
       xml:space="preserve"
       id="flowRoot937"
       style="color:#000000;font-style:normal;font-variant:normal;font-weight:normal;font-stretch:normal;font-size:16px;font-family:Arial;-inkscape-font-specification:Arial;text-align:center;writing-mode:lr-tb;text-anchor:middle;display:inline;overflow:visible;visibility:visible;opacity:1;vector-effect:none;fill:#000000;fill-opacity:1;fill-rule:nonzero;stroke:#8f5902;stroke-width:3;stroke-linecap:round;stroke-linejoin:round;stroke-miterlimit:4;stroke-dasharray:none;stroke-dashoffset:0;stroke-opacity:1;marker:none;enable-background:accumulate"><flowRegion
         id="flowRegion939"><rect
           id="rect941"
           width="52.987019"
           height="116.1039"
           x="-94.285713"
           y="141.03894" /></flowRegion><flowPara
         id="flowPara943" /></flowRoot>
    <g
       id="g80"
       transform="translate(-0.86929902,86.928291)"
       style="display:inline" />
  </g>
  <g
     id="g124"
     style="display:inline;mix-blend-mode:normal"
     transform="translate(353.22987,-83.38541)">
    <path
       style="display:inline;stroke: #000000;stroke-width:0.827449;stroke-linecap:round;stroke-linejoin:round;stroke-dasharray:none;stroke-opacity:1"
       d="M -252.91384,440.86468 V 321.90613"
       id="path98" />
    <path
       style="font-size:14px;line-height:1.25;font-family:Arial;-inkscape-font-specification:Arial;stroke-width:1.00083"
       d="M 338.92969,47.214078 V 37.192593 h 1.99609 l 2.37207,7.095703 q 0.32813,0.991211 0.47852,1.483399 0.1709,-0.546875 0.5332,-1.606446 l 2.39941,-6.972656 h 1.78418 v 10.021485 h -1.27832 v -8.387696 l -2.91211,8.387696 h -1.19628 l -2.89844,-8.53125 v 8.53125 z m 11.08789,-3.629883 q 0,-2.016602 1.12109,-2.987305 0.93653,-0.806641 2.2832,-0.806641 1.49708,0 2.44727,0.984375 0.9502,0.977539 0.9502,2.707032 0,1.401367 -0.42383,2.208007 -0.41699,0.799805 -1.22364,1.244141 -0.7998,0.444336 -1.75,0.444336 -1.52441,0 -2.46777,-0.977539 -0.93652,-0.977539 -0.93652,-2.816406 z m 1.26465,0 q 0,1.394531 0.60839,2.091797 0.6084,0.690429 1.53125,0.690429 0.91602,0 1.52442,-0.697265 0.6084,-0.697266 0.6084,-2.125977 0,-1.34668 -0.61524,-2.037109 -0.6084,-0.697266 -1.51758,-0.697266 -0.92285,0 -1.53125,0.69043 -0.60839,0.690429 -0.60839,2.084961 z m 6.97949,3.629883 v -7.259766 h 1.10742 v 1.032226 q 0.79981,-1.196289 2.31055,-1.196289 0.65625,0 1.20312,0.239258 0.55371,0.232422 0.82715,0.615235 0.27344,0.382812 0.38281,0.909179 0.0684,0.341797 0.0684,1.196289 v 4.463868 h -1.23047 v -4.416016 q 0,-0.751953 -0.14355,-1.121094 -0.14356,-0.375976 -0.5127,-0.594726 -0.3623,-0.225586 -0.85449,-0.225586 -0.78613,0 -1.36035,0.499023 -0.56738,0.499024 -0.56738,1.893555 v 3.964844 z m 15.96875,0 H 373 v -7.840821 q -0.44434,0.423828 -1.16895,0.847656 -0.71777,0.423829 -1.29199,0.635743 v -1.189453 q 1.03223,-0.485352 1.80469,-1.175782 0.77246,-0.690429 1.09375,-1.339843 h 0.79297 z m 7.6084,0 V 37.192593 h 6.76074 v 1.182617 h -5.43457 v 3.103516 h 4.70312 v 1.182617 h -4.70312 v 4.552735 z m 13.2959,-2.337891 1.27148,0.157226 q -0.30078,1.114258 -1.11426,1.729493 -0.81347,0.615234 -2.07812,0.615234 -1.59278,0 -2.5293,-0.977539 -0.92969,-0.984375 -0.92969,-2.754883 0,-1.832031 0.94336,-2.84375 0.94336,-1.011719 2.44727,-1.011719 1.45605,0 2.3789,0.991211 0.92286,0.991211 0.92286,2.789063 0,0.109375 -0.007,0.328125 h -5.41406 q 0.0684,1.196289 0.67675,1.832031 0.6084,0.635742 1.51758,0.635742 0.67676,0 1.15528,-0.355468 0.47851,-0.355469 0.75879,-1.134766 z m -4.04004,-1.989258 h 4.05371 q -0.082,-0.916016 -0.46485,-1.374023 -0.58789,-0.710938 -1.52441,-0.710938 -0.84766,0 -1.42871,0.567383 -0.57422,0.567383 -0.63574,1.517578 z m 7.99121,4.327149 h -1.1416 V 37.192593 h 1.23046 v 3.575195 q 0.7793,-0.977539 1.98926,-0.977539 0.66992,0 1.26465,0.273438 0.60156,0.266601 0.98438,0.758789 0.38964,0.485352 0.60839,1.175781 0.21875,0.69043 0.21875,1.476563 0,1.866211 -0.92285,2.884765 -0.92285,1.018555 -2.21484,1.018555 -1.28516,0 -2.0166,-1.073242 z m -0.0137,-3.684571 q 0,1.305664 0.35546,1.886719 0.58106,0.950195 1.57227,0.950195 0.80664,0 1.39453,-0.697265 0.58789,-0.704102 0.58789,-2.091797 0,-1.421875 -0.56738,-2.098633 -0.56055,-0.676758 -1.36035,-0.676758 -0.80664,0 -1.39453,0.704102 -0.58789,0.697265 -0.58789,2.023437 z"
       id="flowRoot98"
       transform="matrix(0.99833337,0,0,1,-563.72691,286.23376)"
       aria-label="Mon 1 Feb" />
    <path
       style="display:inline;mix-blend-mode:normal;fill:none;stroke:#000000;stroke-width:0.827353;stroke-linecap:round;stroke-linejoin:round;stroke-dasharray:none;stroke-opacity:1"
       d="M -132.90466,440.83661 V 321.93587"
       id="path99" />
    <path
       style="font-size:14px;line-height:1.25;font-family:Arial;-inkscape-font-specification:Arial;stroke-width:1.00083"
       d="M 341.52051,47.214078 V 38.37521 h -3.30176 v -1.182617 h 7.94336 v 1.182617 h -3.31543 v 8.838868 z m 10.08301,0 v -1.066407 q -0.84766,1.230469 -2.30372,1.230469 -0.64257,0 -1.20312,-0.246094 -0.55371,-0.246093 -0.82715,-0.615234 -0.2666,-0.375977 -0.37598,-0.916016 -0.0752,-0.362304 -0.0752,-1.148437 v -4.498047 h 1.23047 v 4.026367 q 0,0.963867 0.0752,1.298828 0.11621,0.485352 0.49219,0.765625 0.37598,0.273438 0.92969,0.273438 0.55371,0 1.03906,-0.280274 0.48535,-0.287109 0.68359,-0.772461 0.20508,-0.492187 0.20508,-1.421875 v -3.889648 h 1.23047 v 7.259766 z m 7.99804,-2.337891 1.27149,0.157226 q -0.30078,1.114258 -1.11426,1.729493 -0.81348,0.615234 -2.07813,0.615234 -1.59277,0 -2.52929,-0.977539 -0.92969,-0.984375 -0.92969,-2.754883 0,-1.832031 0.94336,-2.84375 0.94336,-1.011719 2.44726,-1.011719 1.45606,0 2.37891,0.991211 0.92285,0.991211 0.92285,2.789063 0,0.109375 -0.007,0.328125 h -5.41407 q 0.0684,1.196289 0.67676,1.832031 0.6084,0.635742 1.51758,0.635742 0.67676,0 1.15527,-0.355468 0.47852,-0.355469 0.75879,-1.134766 z m -4.04004,-1.989258 h 4.05371 q -0.082,-0.916016 -0.46484,-1.374023 -0.58789,-0.710938 -1.52441,-0.710938 -0.84766,0 -1.42871,0.567383 -0.57422,0.567383 -0.63575,1.517578 z m 16.8711,3.144531 v 1.182618 h -6.62403 q -0.0137,-0.444336 0.14356,-0.854493 0.25293,-0.676757 0.80664,-1.333007 0.56055,-0.65625 1.61328,-1.517579 1.63379,-1.339843 2.20801,-2.11914 0.57422,-0.786133 0.57422,-1.483399 0,-0.731445 -0.52637,-1.230468 -0.51953,-0.50586 -1.36035,-0.50586 -0.88867,0 -1.42188,0.533203 -0.5332,0.533203 -0.54004,1.476563 l -1.26464,-0.129883 q 0.12988,-1.415039 0.97753,-2.15332 0.84766,-0.745117 2.27637,-0.745117 1.44238,0 2.2832,0.799804 0.84083,0.799805 0.84083,1.982422 0,0.601563 -0.2461,1.182617 -0.24609,0.581055 -0.82031,1.223633 -0.56738,0.642578 -1.89356,1.763672 -1.10742,0.929687 -1.42187,1.264648 -0.31445,0.328125 -0.51953,0.663086 z m 5.77636,1.182618 V 37.192593 h 6.76075 v 1.182617 h -5.43457 v 3.103516 h 4.70312 v 1.182617 h -4.70312 v 4.552735 z m 13.2959,-2.337891 1.27149,0.157226 q -0.30078,1.114258 -1.11426,1.729493 -0.81348,0.615234 -2.07813,0.615234 -1.59277,0 -2.52929,-0.977539 -0.92969,-0.984375 -0.92969,-2.754883 0,-1.832031 0.94336,-2.84375 0.94336,-1.011719 2.44726,-1.011719 1.45606,0 2.37891,0.991211 0.92285,0.991211 0.92285,2.789063 0,0.109375 -0.007,0.328125 h -5.41407 q 0.0684,1.196289 0.67676,1.832031 0.6084,0.635742 1.51758,0.635742 0.67676,0 1.15527,-0.355468 0.47852,-0.355469 0.75879,-1.134766 z m -4.04004,-1.989258 h 4.05371 q -0.082,-0.916016 -0.46484,-1.374023 -0.58789,-0.710938 -1.52441,-0.710938 -0.84766,0 -1.42871,0.567383 -0.57422,0.567383 -0.63575,1.517578 z m 7.99121,4.327149 h -1.1416 V 37.192593 h 1.23047 v 3.575195 q 0.7793,-0.977539 1.98926,-0.977539 0.66992,0 1.26465,0.273438 0.60156,0.266601 0.98437,0.758789 0.38965,0.485352 0.6084,1.175781 0.21875,0.69043 0.21875,1.476563 0,1.866211 -0.92285,2.884765 -0.92285,1.018555 -2.21484,1.018555 -1.28516,0 -2.01661,-1.073242 z m -0.0137,-3.684571 q 0,1.305664 0.35547,1.886719 0.58106,0.950195 1.57227,0.950195 0.80664,0 1.39453,-0.697265 0.58789,-0.704102 0.58789,-2.091797 0,-1.421875 -0.56738,-2.098633 -0.56055,-0.676758 -1.36036,-0.676758 -0.80664,0 -1.39453,0.704102 -0.58789,0.697265 -0.58789,2.023437 z"
       id="flowRoot99"
       transform="matrix(0.99833337,0,0,1,-441.55468,286.23376)"
       aria-label="Tue 2 Feb" />
    <path
       style="display:inline;opacity:1;mix-blend-mode:normal;fill:none;stroke:#000000;stroke-width:1.17326;stroke-linecap:round;stroke-linejoin:round;stroke-dasharray:none;stroke-opacity:1;marker-start:url(#Triangle-02_reversed)"
       d="m 378.31416,340.60721 h -630.948"
       id="path100" />
    <path
       style="display:inline;opacity:1;mix-blend-mode:normal;fill:none;stroke:#000000;stroke-width:1.17324;stroke-linecap:round;stroke-linejoin:round;stroke-dasharray:none;stroke-opacity:1;marker-start:url(#Triangle-02-6_reversed)"
       d="M 378.30646,390.60708 H -252.63337"
       id="path101" />
    <path
       style="display:inline;opacity:1;mix-blend-mode:normal;fill:none;stroke:#000000;stroke-width:1.17324;stroke-linecap:round;stroke-linejoin:round;stroke-dasharray:none;stroke-opacity:1;marker-start:url(#Triangle-02-6-2_reversed)"
       d="M 378.30646,440.60708 H -252.63337"
       id="path102" />
    <path
       style="font-size:14px;line-height:1.25;font-family:Arial;-inkscape-font-specification:Arial;stroke-width:1.00083"
       d="m 340.7207,47.214078 -2.65918,-10.021485 h 1.36035 l 1.52442,6.569336 q 0.24609,1.032227 0.42383,2.050781 0.38281,-1.606445 0.45117,-1.852539 l 1.90723,-6.767578 h 1.5996 l 1.43555,5.072266 q 0.54004,1.886719 0.7793,3.547851 0.1914,-0.950195 0.49902,-2.180664 l 1.57227,-6.439453 h 1.33301 l -2.74805,10.021485 h -1.27832 l -2.11231,-7.635743 q -0.2666,-0.957031 -0.31445,-1.175781 -0.15723,0.69043 -0.29394,1.175781 l -2.12598,7.635743 z m 16.02344,-2.337891 1.27148,0.157226 q -0.30078,1.114258 -1.11425,1.729493 -0.81348,0.615234 -2.07813,0.615234 -1.59277,0 -2.52929,-0.977539 -0.92969,-0.984375 -0.92969,-2.754883 0,-1.832031 0.94336,-2.84375 0.94336,-1.011719 2.44726,-1.011719 1.45606,0 2.37891,0.991211 0.92285,0.991211 0.92285,2.789063 0,0.109375 -0.007,0.328125 h -5.41406 q 0.0684,1.196289 0.67676,1.832031 0.6084,0.635742 1.51758,0.635742 0.67676,0 1.15527,-0.355468 0.47852,-0.355469 0.75879,-1.134766 z m -4.04004,-1.989258 h 4.05371 q -0.082,-0.916016 -0.46484,-1.374023 -0.58789,-0.710938 -1.52442,-0.710938 -0.84765,0 -1.42871,0.567383 -0.57422,0.567383 -0.63574,1.517578 z m 11.56641,4.327149 v -0.916016 q -0.69043,1.080078 -2.03028,1.080078 -0.86816,0 -1.59961,-0.478516 -0.7246,-0.478515 -1.12792,-1.333007 -0.39649,-0.861329 -0.39649,-1.975586 0,-1.086914 0.36231,-1.96875 0.3623,-0.888672 1.08691,-1.360352 0.72461,-0.47168 1.62012,-0.47168 0.65625,0 1.16894,0.280274 0.5127,0.273437 0.83399,0.717773 v -3.595703 h 1.22363 v 10.021485 z m -3.88965,-3.623047 q 0,1.394531 0.58789,2.084961 0.58789,0.690429 1.3877,0.690429 0.80664,0 1.36718,-0.65625 0.56739,-0.663086 0.56739,-2.016601 0,-1.490235 -0.57422,-2.1875 -0.57422,-0.697266 -1.41504,-0.697266 -0.82031,0 -1.37403,0.669922 -0.54687,0.669922 -0.54687,2.112305 z m 10.52051,0.977539 1.23047,-0.164063 q 0.21191,1.045899 0.71777,1.510742 0.51269,0.458008 1.24414,0.458008 0.86816,0 1.46289,-0.601562 0.60156,-0.601563 0.60156,-1.490235 0,-0.847656 -0.55371,-1.394531 -0.55371,-0.553711 -1.4082,-0.553711 -0.34863,0 -0.86817,0.136719 l 0.13672,-1.080078 q 0.12305,0.01367 0.19825,0.01367 0.78613,0 1.41503,-0.410157 0.62891,-0.410156 0.62891,-1.264648 0,-0.676758 -0.45801,-1.121094 -0.458,-0.444336 -1.18261,-0.444336 -0.71778,0 -1.19629,0.451172 -0.47852,0.451172 -0.61524,1.353516 l -1.23047,-0.21875 q 0.22559,-1.237305 1.02539,-1.914063 0.79981,-0.683593 1.98926,-0.683593 0.82031,0 1.51074,0.355468 0.69043,0.348633 1.05274,0.957032 0.36914,0.608398 0.36914,1.291992 0,0.649414 -0.34863,1.182617 -0.34864,0.533203 -1.03223,0.847656 0.88867,0.205078 1.38086,0.854492 0.49219,0.642578 0.49219,1.613282 0,1.3125 -0.95703,2.228515 -0.95704,0.90918 -2.41993,0.90918 -1.31933,0 -2.19433,-0.786133 -0.86817,-0.786133 -0.99121,-2.037109 z m 12.23633,2.645508 V 37.192593 h 6.76074 v 1.182617 h -5.43457 v 3.103516 h 4.70312 v 1.182617 h -4.70312 v 4.552735 z m 13.29589,-2.337891 1.27149,0.157226 q -0.30078,1.114258 -1.11426,1.729493 -0.81348,0.615234 -2.07812,0.615234 -1.59278,0 -2.5293,-0.977539 -0.92969,-0.984375 -0.92969,-2.754883 0,-1.832031 0.94336,-2.84375 0.94336,-1.011719 2.44727,-1.011719 1.45605,0 2.3789,0.991211 0.92285,0.991211 0.92285,2.789063 0,0.109375 -0.007,0.328125 h -5.41406 q 0.0684,1.196289 0.67675,1.832031 0.6084,0.635742 1.51758,0.635742 0.67676,0 1.15527,-0.355468 0.47852,-0.355469 0.75879,-1.134766 z m -4.04004,-1.989258 h 4.05372 q -0.082,-0.916016 -0.46485,-1.374023 -0.58789,-0.710938 -1.52441,-0.710938 -0.84766,0 -1.42871,0.567383 -0.57422,0.567383 -0.63575,1.517578 z m 7.99122,4.327149 h -1.14161 V 37.192593 h 1.23047 v 3.575195 q 0.7793,-0.977539 1.98926,-0.977539 0.66992,0 1.26465,0.273438 0.60156,0.266601 0.98437,0.758789 0.38965,0.485352 0.6084,1.175781 0.21875,0.69043 0.21875,1.476563 0,1.866211 -0.92285,2.884765 -0.92285,1.018555 -2.21484,1.018555 -1.28516,0 -2.0166,-1.073242 z m -0.0137,-3.684571 q 0,1.305664 0.35547,1.886719 0.58106,0.950195 1.57227,0.950195 0.80664,0 1.39453,-0.697265 0.58789,-0.704102 0.58789,-2.091797 0,-1.421875 -0.56738,-2.098633 -0.56055,-0.676758 -1.36035,-0.676758 -0.80665,0 -1.39454,0.704102 -0.58789,0.697265 -0.58789,2.023437 z"
       id="flowRoot102"
       transform="matrix(0.99833337,0,0,1,-323.9365,286.23376)"
       aria-label="Wed 3 Feb" />
    <path
       style="font-size:14px;line-height:1.25;font-family:Arial;-inkscape-font-specification:Arial;stroke-width:1.00083"
       d="M 341.52051,47.214078 V 38.37521 h -3.30176 v -1.182617 h 7.94336 v 1.182617 h -3.31543 v 8.838868 z m 5.84472,0 V 37.192593 h 1.23047 v 3.595703 q 0.86133,-0.998047 2.17383,-0.998047 0.80664,0 1.40137,0.321289 0.59472,0.314454 0.84765,0.875 0.25977,0.560547 0.25977,1.626954 v 4.600586 h -1.23047 v -4.600586 q 0,-0.922852 -0.40332,-1.339844 -0.39648,-0.423828 -1.12793,-0.423828 -0.54687,0 -1.03223,0.287109 -0.47851,0.280274 -0.68359,0.765625 -0.20508,0.485352 -0.20508,1.339844 v 3.97168 z m 12.54395,0 v -1.066407 q -0.84766,1.230469 -2.30371,1.230469 -0.64258,0 -1.20313,-0.246094 -0.55371,-0.246093 -0.82714,-0.615234 -0.26661,-0.375977 -0.37598,-0.916016 -0.0752,-0.362304 -0.0752,-1.148437 v -4.498047 h 1.23047 v 4.026367 q 0,0.963867 0.0752,1.298828 0.11621,0.485352 0.49218,0.765625 0.37598,0.273438 0.92969,0.273438 0.55371,0 1.03906,-0.280274 0.48536,-0.287109 0.6836,-0.772461 0.20508,-0.492187 0.20508,-1.421875 v -3.889648 h 1.23047 v 7.259766 z m 10.52051,0 v -2.399415 h -4.34766 v -1.127929 l 4.57324,-6.494141 h 1.00489 v 6.494141 h 1.35351 v 1.127929 h -1.35351 v 2.399415 z m 0,-3.527344 v -4.518555 l -3.1377,4.518555 z m 8.29883,3.527344 V 37.192593 h 6.76074 v 1.182617 h -5.43457 v 3.103516 h 4.70312 v 1.182617 h -4.70312 v 4.552735 z m 13.29589,-2.337891 1.27149,0.157226 q -0.30078,1.114258 -1.11426,1.729493 -0.81348,0.615234 -2.07812,0.615234 -1.59278,0 -2.5293,-0.977539 -0.92969,-0.984375 -0.92969,-2.754883 0,-1.832031 0.94336,-2.84375 0.94336,-1.011719 2.44727,-1.011719 1.45605,0 2.3789,0.991211 0.92285,0.991211 0.92285,2.789063 0,0.109375 -0.007,0.328125 h -5.41406 q 0.0684,1.196289 0.67675,1.832031 0.6084,0.635742 1.51758,0.635742 0.67676,0 1.15527,-0.355468 0.47852,-0.355469 0.75879,-1.134766 z m -4.04004,-1.989258 h 4.05372 q -0.082,-0.916016 -0.46485,-1.374023 -0.58789,-0.710938 -1.52441,-0.710938 -0.84766,0 -1.42871,0.567383 -0.57422,0.567383 -0.63575,1.517578 z m 7.99122,4.327149 h -1.14161 V 37.192593 h 1.23047 v 3.575195 q 0.7793,-0.977539 1.98926,-0.977539 0.66992,0 1.26465,0.273438 0.60156,0.266601 0.98437,0.758789 0.38965,0.485352 0.6084,1.175781 0.21875,0.69043 0.21875,1.476563 0,1.866211 -0.92285,2.884765 -0.92285,1.018555 -2.21484,1.018555 -1.28516,0 -2.0166,-1.073242 z m -0.0137,-3.684571 q 0,1.305664 0.35547,1.886719 0.58106,0.950195 1.57227,0.950195 0.80664,0 1.39453,-0.697265 0.58789,-0.704102 0.58789,-2.091797 0,-1.421875 -0.56738,-2.098633 -0.56055,-0.676758 -1.36035,-0.676758 -0.80664,0 -1.39454,0.704102 -0.58789,0.697265 -0.58789,2.023437 z"
       id="flowRoot103"
       transform="matrix(0.99833337,0,0,1,-202.31409,286.19275)"
       aria-label="Thu 4 Feb" />
    <path
       style="font-size:14px;line-height:1.25;font-family:Arial;-inkscape-font-specification:Arial;stroke-width:1.00083"
       d="M 339.03906,47.214078 V 37.192593 h 6.76074 v 1.182617 h -5.43457 v 3.103516 h 4.70313 v 1.182617 h -4.70313 v 4.552735 z m 8.3125,0 v -7.259766 h 1.10742 v 1.100586 q 0.42383,-0.772461 0.7793,-1.018555 0.36231,-0.246094 0.79297,-0.246094 0.62207,0 1.26465,0.396485 l -0.42383,1.141601 q -0.45117,-0.266601 -0.90234,-0.266601 -0.40332,0 -0.72461,0.246094 -0.32129,0.239257 -0.45801,0.669921 -0.20508,0.65625 -0.20508,1.435547 v 3.800782 z m 4.68262,-8.606446 v -1.415039 h 1.23047 v 1.415039 z m 0,8.606446 v -7.259766 h 1.23047 v 7.259766 z m 6.65137,-2.625 1.29199,-0.109375 q 0.14355,0.943359 0.66308,1.421875 0.52637,0.471679 1.26465,0.471679 0.88868,0 1.50391,-0.669922 0.61523,-0.669922 0.61523,-1.777343 0,-1.052735 -0.59472,-1.661133 -0.58789,-0.608399 -1.54492,-0.608399 -0.59473,0 -1.07325,0.273438 -0.47851,0.266601 -0.75195,0.697265 l -1.15527,-0.15039 0.9707,-5.147461 h 4.9834 v 1.175781 h -3.99903 l -0.54003,2.69336 q 0.90234,-0.628907 1.89355,-0.628907 1.3125,0 2.21484,0.90918 0.90235,0.90918 0.90235,2.337891 0,1.360351 -0.79297,2.351562 -0.96387,1.216797 -2.63184,1.216797 -1.36718,0 -2.23535,-0.765625 -0.86133,-0.765625 -0.98437,-2.030273 z m 12.24316,2.625 V 37.192593 h 6.76074 v 1.182617 h -5.43457 v 3.103516 h 4.70313 v 1.182617 h -4.70313 v 4.552735 z m 13.2959,-2.337891 1.27148,0.157226 q -0.30078,1.114258 -1.11425,1.729493 -0.81348,0.615234 -2.07813,0.615234 -1.59277,0 -2.5293,-0.977539 -0.92968,-0.984375 -0.92968,-2.754883 0,-1.832031 0.94336,-2.84375 0.94336,-1.011719 2.44726,-1.011719 1.45606,0 2.37891,0.991211 0.92285,0.991211 0.92285,2.789063 0,0.109375 -0.007,0.328125 h -5.41406 q 0.0684,1.196289 0.67676,1.832031 0.6084,0.635742 1.51758,0.635742 0.67675,0 1.15527,-0.355468 0.47852,-0.355469 0.75879,-1.134766 z m -4.04004,-1.989258 h 4.05371 q -0.082,-0.916016 -0.46484,-1.374023 -0.58789,-0.710938 -1.52442,-0.710938 -0.84765,0 -1.42871,0.567383 -0.57422,0.567383 -0.63574,1.517578 z m 7.99121,4.327149 h -1.1416 V 37.192593 h 1.23047 v 3.575195 q 0.7793,-0.977539 1.98926,-0.977539 0.66992,0 1.26464,0.273438 0.60157,0.266601 0.98438,0.758789 0.38965,0.485352 0.6084,1.175781 0.21875,0.69043 0.21875,1.476563 0,1.866211 -0.92285,2.884765 -0.92286,1.018555 -2.21485,1.018555 -1.28515,0 -2.0166,-1.073242 z m -0.0137,-3.684571 q 0,1.305664 0.35547,1.886719 0.58105,0.950195 1.57226,0.950195 0.80664,0 1.39453,-0.697265 0.5879,-0.704102 0.5879,-2.091797 0,-1.421875 -0.56739,-2.098633 -0.56054,-0.676758 -1.36035,-0.676758 -0.80664,0 -1.39453,0.704102 -0.58789,0.697265 -0.58789,2.023437 z"
       id="flowRoot104"
       transform="matrix(0.99833337,0,0,1,-78.83011,286.19275)"
       aria-label="Fri 5 Feb" />
    <path
       style="font-size:16.0303px;font-family:Arial;-inkscape-font-specification:Arial;stroke-width:0.999998"
       d="m -331.98389,412.44605 h 1.5185 v 6.62972 q 0,1.72983 -0.39137,2.74738 -0.39136,1.01755 -1.41674,1.65939 -1.01755,0.63401 -2.67693,0.63401 -1.61242,0 -2.6378,-0.55574 -1.02538,-0.55574 -1.4637,-1.60459 -0.43833,-1.05669 -0.43833,-2.88045 v -6.62972 h 1.51849 v 6.6219 q 0,1.49501 0.27396,2.20729 0.28178,0.70446 0.95493,1.088 0.68097,0.38353 1.65938,0.38353 1.67504,0 2.38733,-0.75924 0.71228,-0.75925 0.71228,-2.91958 z m 3.86669,11.47482 v -8.31259 h 1.26802 v 1.18192 q 0.91579,-1.36977 2.64562,-1.36977 0.75142,0 1.37761,0.27395 0.63401,0.26613 0.9471,0.70446 0.31309,0.43833 0.43833,1.04103 0.0783,0.39136 0.0783,1.36977 v 5.11123 h -1.40891 v -5.05643 q 0,-0.86101 -0.16437,-1.28368 -0.16438,-0.4305 -0.58705,-0.68098 -0.41485,-0.2583 -0.97841,-0.2583 -0.90014,0 -1.55763,0.5714 -0.64967,0.57139 -0.64967,2.16816 v 4.53983 z m 14.3396,-1.02538 q -0.78273,0.66532 -1.51067,0.93928 -0.72011,0.27395 -1.5498,0.27395 -1.36978,0 -2.10554,-0.66532 -0.73577,-0.67314 -0.73577,-1.71417 0,-0.61053 0.27396,-1.11148 0.28178,-0.50877 0.72794,-0.81404 0.45398,-0.30526 1.01754,-0.46181 0.41485,-0.10958 1.25237,-0.21134 1.70635,-0.20351 2.51256,-0.48529 0.008,-0.28961 0.008,-0.36788 0,-0.861 -0.39919,-1.21323 -0.54009,-0.47747 -1.6046,-0.47747 -0.99406,0 -1.47153,0.35223 -0.46964,0.3444 -0.69663,1.22889 l -1.3776,-0.18786 q 0.18785,-0.88448 0.61835,-1.42457 0.43051,-0.54791 1.24454,-0.83752 0.81404,-0.29743 1.88638,-0.29743 1.06451,0 1.72983,0.25047 0.66532,0.25047 0.97842,0.63401 0.31309,0.37571 0.43832,0.95493 0.0704,0.36006 0.0704,1.29933 v 1.87855 q 0,1.96465 0.0861,2.48908 0.0939,0.5166 0.36006,0.99407 h -1.47154 q -0.21916,-0.43833 -0.28178,-1.02538 z m -0.11741,-3.14657 q -0.76707,0.31309 -2.30122,0.53226 -0.86883,0.12523 -1.22889,0.28178 -0.36005,0.15654 -0.55574,0.46181 -0.19568,0.29744 -0.19568,0.66532 0,0.56356 0.42268,0.93927 0.4305,0.37571 1.25236,0.37571 0.81404,0 1.44805,-0.35222 0.63401,-0.36006 0.93145,-0.97842 0.22699,-0.47746 0.22699,-1.40891 z m 3.04482,1.6907 1.39326,-0.21917 q 0.11741,0.83752 0.64966,1.28368 0.54009,0.44615 1.50284,0.44615 0.97059,0 1.44023,-0.39136 0.46963,-0.39919 0.46963,-0.93145 0,-0.47746 -0.41484,-0.75142 -0.28961,-0.18785 -1.44023,-0.47746 -1.5498,-0.39137 -2.1525,-0.67315 -0.59488,-0.28961 -0.90797,-0.79056 -0.30526,-0.50877 -0.30526,-1.1193 0,-0.55574 0.25047,-1.02538 0.2583,-0.47746 0.69663,-0.79055 0.32875,-0.24265 0.89231,-0.40702 0.57139,-0.1722 1.22106,-0.1722 0.97841,0 1.71418,0.28178 0.74359,0.28178 1.09582,0.76707 0.35223,0.47747 0.48529,1.28368 l -1.3776,0.18785 q -0.0939,-0.64183 -0.54791,-1.00189 -0.44616,-0.36005 -1.26803,-0.36005 -0.97058,0 -1.38543,0.32091 -0.41484,0.32092 -0.41484,0.75142 0,0.27396 0.1722,0.49312 0.1722,0.227 0.54008,0.37571 0.21134,0.0783 1.24454,0.36006 1.49501,0.39919 2.08206,0.65749 0.59488,0.25048 0.93145,0.73577 0.33657,0.48529 0.33657,1.2054 0,0.70446 -0.41484,1.33064 -0.40702,0.61836 -1.18193,0.96276 -0.7749,0.33657 -1.75331,0.33657 -1.62025,0 -2.47343,-0.67314 -0.84534,-0.67315 -1.08016,-1.99596 z m 8.01515,0 1.39326,-0.21917 q 0.11741,0.83752 0.64966,1.28368 0.54009,0.44615 1.50284,0.44615 0.97059,0 1.44023,-0.39136 0.46963,-0.39919 0.46963,-0.93145 0,-0.47746 -0.41484,-0.75142 -0.28961,-0.18785 -1.44022,-0.47746 -1.54981,-0.39137 -2.15251,-0.67315 -0.59487,-0.28961 -0.90797,-0.79056 -0.30526,-0.50877 -0.30526,-1.1193 0,-0.55574 0.25047,-1.02538 0.2583,-0.47746 0.69663,-0.79055 0.32875,-0.24265 0.89231,-0.40702 0.5714,-0.1722 1.22106,-0.1722 0.97841,0 1.71418,0.28178 0.74359,0.28178 1.09582,0.76707 0.35223,0.47747 0.48529,1.28368 l -1.3776,0.18785 q -0.0939,-0.64183 -0.54791,-1.00189 -0.44616,-0.36005 -1.26802,-0.36005 -0.97059,0 -1.38543,0.32091 -0.41485,0.32092 -0.41485,0.75142 0,0.27396 0.1722,0.49312 0.1722,0.227 0.54008,0.37571 0.21134,0.0783 1.24454,0.36006 1.49502,0.39919 2.08206,0.65749 0.59488,0.25048 0.93145,0.73577 0.33657,0.48529 0.33657,1.2054 0,0.70446 -0.41484,1.33064 -0.40702,0.61836 -1.18192,0.96276 -0.77491,0.33657 -1.75332,0.33657 -1.62025,0 -2.47342,-0.67314 -0.84535,-0.67315 -1.08017,-1.99596 z m 8.58654,-7.37332 v -1.62025 h 1.40891 v 1.62025 z m 0,9.85457 v -8.31259 h 1.40891 v 8.31259 z m 3.29529,0.6888 1.36978,0.20351 q 0.0861,0.63401 0.47746,0.92362 0.52443,0.39137 1.4324,0.39137 0.97841,0 1.51067,-0.39137 0.53225,-0.39136 0.72011,-1.09582 0.10958,-0.4305 0.10175,-1.80811 -0.92362,1.088 -2.30122,1.088 -1.71418,0 -2.65345,-1.23671 -0.93928,-1.23672 -0.93928,-2.96655 0,-1.18975 0.4305,-2.19164 0.4305,-1.00972 1.24454,-1.55763 0.82187,-0.54791 1.92552,-0.54791 1.47153,0 2.42646,1.18974 v -1.00189 h 1.29933 v 7.18546 q 0,1.94117 -0.39919,2.74738 -0.39137,0.81404 -1.25237,1.28367 -0.85318,0.46964 -2.10554,0.46964 -1.48719,0 -2.40298,-0.67315 -0.9158,-0.66532 -0.88449,-2.01161 z m 1.16627,-4.99381 q 0,1.6359 0.64967,2.38732 0.64966,0.75142 1.62807,0.75142 0.97059,0 1.62808,-0.74359 0.65749,-0.75142 0.65749,-2.34819 0,-1.52632 -0.68097,-2.30123 -0.67315,-0.7749 -1.62808,-0.7749 -0.93927,0 -1.59677,0.76708 -0.65749,0.75925 -0.65749,2.26209 z m 8.00732,4.30501 v -8.31259 h 1.26802 v 1.18192 q 0.9158,-1.36977 2.64563,-1.36977 0.75142,0 1.3776,0.27395 0.63401,0.26613 0.94711,0.70446 0.31309,0.43833 0.43832,1.04103 0.0783,0.39136 0.0783,1.36977 v 5.11123 h -1.40892 v -5.05643 q 0,-0.86101 -0.16437,-1.28368 -0.16437,-0.4305 -0.58705,-0.68098 -0.41484,-0.2583 -0.97841,-0.2583 -0.90014,0 -1.55763,0.5714 -0.64967,0.57139 -0.64967,2.16816 v 4.53983 z m 14.60574,-2.67694 1.45587,0.18003 q -0.3444,1.27585 -1.27585,1.98031 -0.93144,0.70445 -2.37949,0.70445 -1.82376,0 -2.8961,-1.1193 -1.06452,-1.12713 -1.06452,-3.1544 0,-2.09772 1.08017,-3.25615 1.08017,-1.15844 2.80217,-1.15844 1.66722,0 2.7239,1.13495 1.05669,1.13496 1.05669,3.19354 0,0.12524 -0.008,0.37571 h -6.19922 q 0.0783,1.36978 0.7749,2.09771 0.69663,0.72794 1.73766,0.72794 0.77491,0 1.32282,-0.40702 0.54791,-0.40702 0.86883,-1.29933 z m -4.62594,-2.27774 h 4.64159 q -0.0939,-1.04886 -0.53226,-1.57329 -0.67314,-0.81403 -1.74548,-0.81403 -0.97059,0 -1.63591,0.64966 -0.65749,0.64967 -0.72794,1.73766 z m 13.24379,4.95468 v -1.04886 q -0.79056,1.23671 -2.32471,1.23671 -0.99406,0 -1.83158,-0.54791 -0.8297,-0.54791 -1.29151,-1.52632 -0.45398,-0.98624 -0.45398,-2.26209 0,-1.24454 0.41485,-2.25426 0.41484,-1.01755 1.24454,-1.55763 0.82969,-0.54008 1.85506,-0.54008 0.75142,0 1.33847,0.32091 0.58705,0.3131 0.95493,0.82187 v -4.11716 h 1.40109 v 11.47482 z m -4.45373,-4.14847 q 0,1.59677 0.67315,2.38733 0.67314,0.79055 1.58894,0.79055 0.92362,0 1.56546,-0.75142 0.64966,-0.75924 0.64966,-2.30905 0,-1.70635 -0.65749,-2.50473 -0.65749,-0.79839 -1.62025,-0.79839 -0.93928,0 -1.57329,0.76708 -0.62618,0.76707 -0.62618,2.41863 z"
       id="text104"
       transform="scale(1.0018917,0.99811188)"
       aria-label="Unassigned" />
    <path
       style="font-size:16.0303px;font-family:Arial;-inkscape-font-specification:Arial;stroke-width:0.999998"
       d="m -284.69136,373.92606 4.40677,-11.47482 h 1.6359 l 4.69638,11.47482 h -1.72983 l -1.33847,-3.47532 h -4.79813 l -1.2602,3.47532 z m 3.31095,-4.71204 h 3.89016 l -1.19757,-3.17788 q -0.54791,-1.44805 -0.81404,-2.3795 -0.21917,1.10365 -0.61836,2.19165 z m 8.4613,4.71204 v -8.31259 h 1.26802 v 1.18192 q 0.9158,-1.36978 2.64563,-1.36978 0.75142,0 1.3776,0.27396 0.63402,0.26613 0.94711,0.70446 0.31309,0.43832 0.43833,1.04103 0.0783,0.39136 0.0783,1.36977 v 5.11123 h -1.40891 v -5.05644 q 0,-0.861 -0.16438,-1.28367 -0.16437,-0.4305 -0.58704,-0.68098 -0.41485,-0.2583 -0.97842,-0.2583 -0.90014,0 -1.55763,0.57139 -0.64966,0.5714 -0.64966,2.16816 v 4.53984 z m 8.91529,0 v -8.31259 h 1.26802 v 1.18192 q 0.9158,-1.36978 2.64563,-1.36978 0.75142,0 1.3776,0.27396 0.63401,0.26613 0.94711,0.70446 0.31309,0.43832 0.43832,1.04103 0.0783,0.39136 0.0783,1.36977 v 5.11123 h -1.40892 v -5.05644 q 0,-0.861 -0.16437,-1.28367 -0.16437,-0.4305 -0.58705,-0.68098 -0.41484,-0.2583 -0.97841,-0.2583 -0.90014,0 -1.55763,0.57139 -0.64967,0.5714 -0.64967,2.16816 v 4.53984 z"
       id="text105"
       transform="scale(1.0018917,0.99811188)"
       aria-label="Ann" />
    <path
       style="display:inline;mix-blend-mode:normal;fill:none;stroke:#000000;stroke-width:0.827353;stroke-linecap:round;stroke-linejoin:round;stroke-dasharray:none;stroke-opacity:1"
       d="M -12.815612,440.8453 V 321.94455"
       id="path105" />
    <path
       style="display:inline;mix-blend-mode:normal;fill:none;stroke:#000000;stroke-width:0.827353;stroke-linecap:round;stroke-linejoin:round;stroke-dasharray:none;stroke-opacity:1"
       d="M 107.27352,440.8453 V 321.94455"
       id="path106" />
    <path
       style="display:inline;mix-blend-mode:normal;fill:none;stroke:#000000;stroke-width:0.827353;stroke-linecap:round;stroke-linejoin:round;stroke-dasharray:none;stroke-opacity:1"
       d="M 346.95181,440.8453 V 321.94455"
       id="path107" />
    <path
       style="display:inline;mix-blend-mode:normal;fill:none;stroke:#000000;stroke-width:0.827353;stroke-linecap:round;stroke-linejoin:round;stroke-dasharray:none;stroke-opacity:1"
       d="M 226.36192,440.84536 V 321.94454"
       id="path108" />
  </g>
</svg>
