<?xml version="1.0" encoding="UTF-8" standalone="no"?>
<!-- Created with Inkscape (http://www.inkscape.org/) -->

<svg
   width="800"
   height="600"
   id="svg2"
   version="1.1"
   xmlns="http://www.w3.org/2000/svg"
   xmlns:svg="http://www.w3.org/2000/svg"
   xmlns:rdf="http://www.w3.org/1999/02/22-rdf-syntax-ns#"
   xmlns:cc="http://creativecommons.org/ns#"
   xmlns:dc="http://purl.org/dc/elements/1.1/">
  <defs
     id="defs4" />
  <metadata
     id="metadata7">
    <rdf:RDF>
      <cc:Work
         rdf:about="">
        <dc:format>image/svg+xml</dc:format>
        <dc:type
           rdf:resource="http://purl.org/dc/dcmitype/StillImage" />
        <dc:language>en</dc:language>
        <cc:license
           rdf:resource="https://timefold.ai/license" />
      </cc:Work>
    </rdf:RDF>
  </metadata>
  <g
     id="layer1"
     transform="translate(0,-452.36218)"
     style="display:inline">
    <g
       id="g3709"
       transform="translate(0,19.999997)" />
    <flowRoot
       xml:space="preserve"
       id="flowRoot4157"
       style="font-style:normal;font-weight:normal;line-height:0.01%;font-family:sans-serif;letter-spacing:0px;word-spacing:0px;fill:#000000;fill-opacity:1;stroke:none"><flowRegion
         id="flowRegion4159"
         style="font-family:sans-serif"><rect
           id="rect4161"
           width="10.955056"
           height="72.471909"
           x="16.011236"
           y="-53.932568" /></flowRegion><flowPara
         id="flowPara4163"
         style="font-size:40px;line-height:1.25;font-family:sans-serif"> </flowPara></flowRoot>
    <rect
       style="fill:none;stroke:#ce5c00;stroke-width:1;stroke-linecap:round;stroke-linejoin:round;stroke-miterlimit:4;stroke-dasharray:none;display:inline"
       id="rect4131"
       width="739"
       height="29"
       x="30.5"
       y="992.86267"
       rx="4.999999"
       ry="5" />
    <path
       style="font-size:14px;line-height:1.25;font-family:'Liberation Sans';-inkscape-font-specification:'Liberation Sans, Normal';text-align:center;text-anchor:middle;fill:#ce5c00"
       d="m -526.5874,-9.2693209 1.25097,-0.109375 q 0.0889,0.7519531 0.41016,1.2373047 0.32813,0.4785156 1.01172,0.7792969 0.68359,0.2939453 1.53809,0.2939453 0.75878,0 1.33984,-0.225586 0.58105,-0.2255859 0.86133,-0.6152343 0.28711,-0.3964844 0.28711,-0.8613282 0,-0.4716796 -0.27344,-0.8203125 -0.27344,-0.3554687 -0.90234,-0.594727 -0.40333,-0.157226 -1.78418,-0.485351 -1.38086,-0.334961 -1.93457,-0.628906 -0.71778,-0.375977 -1.07325,-0.929688 -0.34863,-0.560547 -0.34863,-1.250976 0,-0.758789 0.43066,-1.415039 0.43067,-0.663086 1.25782,-1.004883 0.82715,-0.341797 1.83886,-0.341797 1.11426,0 1.96192,0.362305 0.85449,0.355468 1.3125,1.052734 0.45801,0.697266 0.49219,1.579101 l -1.27149,0.0957 q -0.10254,-0.950196 -0.69726,-1.435547 -0.5879,-0.485352 -1.74317,-0.485352 -1.20312,0 -1.75683,0.444336 -0.54688,0.4375 -0.54688,1.05957 0,0.540039 0.38965,0.888672 0.38281,0.348633 1.99609,0.717774 1.62012,0.362304 2.22168,0.635742 0.875,0.40332 1.29199,1.025391 0.417,0.6152339 0.417,1.4218745 0,0.7998047 -0.45801,1.5107422 -0.45801,0.7041016 -1.31934,1.100586 -0.85449,0.3896484 -1.92773,0.3896484 -1.36035,0 -2.2832,-0.3964844 -0.91602,-0.3964843 -1.44239,-1.1894531 -0.51953,-0.7998047 -0.54687,-1.8046875 z m 14.36914,0.5605469 1.20996,0.1572265 q -0.19824,1.2509766 -1.01856,1.9619141 -0.81347,0.7041016 -2.00293,0.7041016 -1.49023,0 -2.39941,-0.9707032 -0.90234,-0.977539 -0.90234,-2.7958984 0,-1.1757816 0.38965,-2.0576176 0.38964,-0.881836 1.18261,-1.319336 0.79981,-0.444335 1.73633,-0.444335 1.18262,0 1.93457,0.601562 0.75195,0.594727 0.96387,1.695313 l -1.19629,0.18457 q -0.1709,-0.731445 -0.6084,-1.100586 -0.43066,-0.369141 -1.0459,-0.369141 -0.92969,0 -1.51074,0.669922 -0.58105,0.663086 -0.58105,2.1054689 0,1.4628906 0.56054,2.1259766 0.56055,0.6630859 1.46289,0.6630859 0.72461,0 1.20996,-0.4443359 0.48536,-0.444336 0.61524,-1.3671875 z m 1.80469,-0.9707031 q 0,-2.0166019 1.12109,-2.9873049 0.93652,-0.80664 2.2832,-0.80664 1.49707,0 2.44727,0.984375 0.95019,0.977539 0.95019,2.7070308 0,1.4013672 -0.42382,2.2080078 -0.417,0.7998047 -1.22364,1.2441406 -0.7998,0.444336 -1.75,0.444336 -1.52441,0 -2.46777,-0.9775391 -0.93652,-0.9775391 -0.93652,-2.8164062 z m 1.26464,0 q 0,1.3945312 0.6084,2.0917968 0.6084,0.6904297 1.53125,0.6904297 0.91602,0 1.52442,-0.6972656 0.6084,-0.6972656 0.6084,-2.1259766 0,-1.3466792 -0.61524,-2.0371092 -0.6084,-0.697266 -1.51758,-0.697266 -0.92285,0 -1.53125,0.69043 -0.6084,0.69043 -0.6084,2.0849609 z m 6.96582,3.6298828 V -13.30936 h 1.10743 v 1.100586 q 0.42382,-0.772461 0.77929,-1.018555 0.36231,-0.246093 0.79297,-0.246093 0.62207,0 1.26465,0.396484 l -0.42383,1.141601 q -0.45117,-0.266601 -0.90234,-0.266601 -0.40332,0 -0.72461,0.246094 -0.32129,0.239257 -0.45801,0.669922 -0.20508,0.65625 -0.20508,1.4355464 v 3.8007813 z m 9.64551,-2.3378907 1.27149,0.1572266 q -0.30078,1.1142578 -1.11426,1.7294922 -0.81348,0.6152344 -2.07813,0.6152344 -1.59277,0 -2.52929,-0.9775391 -0.92969,-0.984375 -0.92969,-2.7548828 0,-1.8320313 0.94336,-2.8437503 0.94336,-1.011718 2.44726,-1.011718 1.45606,0 2.37891,0.99121 0.92285,0.991211 0.92285,2.789063 0,0.109375 -0.007,0.328125 h -5.41407 q 0.0684,1.196289 0.67676,1.8320312 0.6084,0.6357422 1.51758,0.6357422 0.67676,0 1.15527,-0.3554687 0.47852,-0.3554688 0.75879,-1.1347657 z m -4.04004,-1.989258 h 4.05371 q -0.082,-0.916015 -0.46484,-1.374023 -0.58789,-0.710938 -1.52441,-0.710938 -0.84766,0 -1.42871,0.567383 -0.57422,0.567383 -0.63575,1.517578 z m 11.04004,4.3271487 v -6.3027347 h -1.08691 v -0.957031 h 1.08691 v -0.772461 q 0,-0.731445 0.12989,-1.086914 0.17773,-0.478516 0.62207,-0.772461 0.45117,-0.300781 1.25781,-0.300781 0.51953,0 1.14844,0.123047 l -0.18457,1.073242 q -0.38282,-0.06836 -0.72461,-0.06836 -0.56055,0 -0.79297,0.239257 -0.23242,0.239258 -0.23242,0.895508 v 0.669922 h 1.41503 v 0.957031 h -1.41503 v 6.3027347 z m 3.1377,-3.6298828 q 0,-2.0166019 1.12109,-2.9873049 0.93652,-0.80664 2.2832,-0.80664 1.49707,0 2.44727,0.984375 0.9502,0.977539 0.9502,2.7070308 0,1.4013672 -0.42383,2.2080078 -0.41699,0.7998047 -1.22364,1.2441406 -0.7998,0.444336 -1.75,0.444336 -1.52441,0 -2.46777,-0.9775391 -0.93652,-0.9775391 -0.93652,-2.8164062 z m 1.26465,0 q 0,1.3945312 0.60839,2.0917968 0.6084,0.6904297 1.53125,0.6904297 0.91602,0 1.52442,-0.6972656 0.6084,-0.6972656 0.6084,-2.1259766 0,-1.3466792 -0.61524,-2.0371092 -0.6084,-0.697266 -1.51758,-0.697266 -0.92285,0 -1.53125,0.69043 -0.60839,0.69043 -0.60839,2.0849609 z m 6.96582,3.6298828 V -13.30936 h 1.10742 v 1.100586 q 0.42383,-0.772461 0.7793,-1.018555 0.3623,-0.246093 0.79296,-0.246093 0.62207,0 1.26465,0.396484 l -0.42383,1.141601 q -0.45117,-0.266601 -0.90234,-0.266601 -0.40332,0 -0.72461,0.246094 -0.32129,0.239257 -0.45801,0.669922 -0.20507,0.65625 -0.20507,1.4355464 v 3.8007813 z m 12.85839,0 h -1.23046 v -7.8408207 q -0.44434,0.423828 -1.16895,0.847657 -0.71777,0.423828 -1.29199,0.635742 v -1.189453 q 1.03223,-0.485352 1.80469,-1.175782 0.77246,-0.690429 1.09375,-1.339843 h 0.79296 z m 6.89063,-2.1669922 1.2168,-0.1914063 q 0.10254,0.7314453 0.56738,1.1210938 0.47168,0.3896484 1.3125,0.3896484 0.84766,0 1.25781,-0.3417969 0.41016,-0.3486328 0.41016,-0.8134765 0,-0.4169922 -0.36231,-0.65625 -0.25293,-0.1640625 -1.25781,-0.4169922 -1.35351,-0.3417969 -1.87988,-0.5878906 -0.51953,-0.2529297 -0.79297,-0.6904302 -0.2666,-0.444335 -0.2666,-0.977539 0,-0.485351 0.21875,-0.895507 0.22558,-0.416993 0.6084,-0.69043 0.28711,-0.211914 0.77929,-0.355469 0.49903,-0.15039 1.06641,-0.15039 0.85449,0 1.49707,0.246093 0.64941,0.246094 0.95703,0.669922 0.30762,0.416992 0.42383,1.121094 l -1.20313,0.164062 q -0.082,-0.560546 -0.47851,-0.875 -0.38965,-0.314453 -1.10742,-0.314453 -0.84766,0 -1.20996,0.280274 -0.36231,0.280273 -0.36231,0.65625 0,0.239258 0.15039,0.430664 0.15039,0.198242 0.47168,0.328125 0.18457,0.06836 1.08692,0.314453 1.30566,0.348633 1.81835,0.5742187 0.51954,0.21875 0.81348,0.6425781 0.29395,0.4238281 0.29395,1.0527344 0,0.6152343 -0.36231,1.1621093 -0.35547,0.5400391 -1.03222,0.8408204 -0.67676,0.2939453 -1.53125,0.2939453 -1.41504,0 -2.16016,-0.5878907 -0.73828,-0.5878906 -0.94336,-1.743164 z m 7.03418,-1.4628906 q 0,-2.0166019 1.12109,-2.9873049 0.93653,-0.80664 2.28321,-0.80664 1.49707,0 2.44726,0.984375 0.9502,0.977539 0.9502,2.7070308 0,1.4013672 -0.42383,2.2080078 -0.41699,0.7998047 -1.22363,1.2441406 -0.79981,0.444336 -1.75,0.444336 -1.52442,0 -2.46778,-0.9775391 -0.93652,-0.9775391 -0.93652,-2.8164062 z m 1.26465,0 q 0,1.3945312 0.6084,2.0917968 0.60839,0.6904297 1.53125,0.6904297 0.91601,0 1.52441,-0.6972656 0.6084,-0.6972656 0.6084,-2.1259766 0,-1.3466792 -0.61524,-2.0371092 -0.60839,-0.697266 -1.51757,-0.697266 -0.92286,0 -1.53125,0.69043 -0.6084,0.69043 -0.6084,2.0849609 z m 6.95215,3.6298828 V -16.071079 h 1.23047 v 10.0214847 z m 7.8955,0 v -1.0664063 q -0.84765,1.2304688 -2.30371,1.2304688 -0.64257,0 -1.20312,-0.2460938 -0.55371,-0.2460937 -0.82715,-0.6152344 -0.2666,-0.3759765 -0.37598,-0.9160156 -0.0752,-0.3623047 -0.0752,-1.1484375 V -13.30936 h 1.23047 v 4.0263672 q 0,0.9638672 0.0752,1.2988282 0.11621,0.4853515 0.49219,0.765625 0.37598,0.2734375 0.92969,0.2734375 0.55371,0 1.03906,-0.2802735 0.48535,-0.2871094 0.68359,-0.7724609 0.20508,-0.4921875 0.20508,-1.421875 V -13.30936 h 1.23047 v 7.2597657 z m 5.71485,-1.100586 0.17773,1.0869141 q -0.51953,0.109375 -0.92969,0.109375 -0.66992,0 -1.03906,-0.2119141 -0.36914,-0.211914 -0.51953,-0.5537109 -0.15039,-0.3486328 -0.15039,-1.4560547 v -4.1767581 h -0.90234 v -0.957031 h 0.90234 v -1.797852 l 1.22363,-0.738281 v 2.536133 h 1.23731 v 0.957031 h -1.23731 v 4.2451175 q 0,0.5263672 0.0615,0.6767578 0.0684,0.1503906 0.21191,0.2392578 0.15039,0.088867 0.42383,0.088867 0.20508,0 0.54004,-0.047852 z m 1.20996,-7.5058597 v -1.415039 h 1.23047 v 1.415039 z m 0,8.6064457 V -13.30936 h 1.23047 v 7.2597657 z m 2.64551,-3.6298828 q 0,-2.0166019 1.12109,-2.9873049 0.93652,-0.80664 2.2832,-0.80664 1.49707,0 2.44727,0.984375 0.95019,0.977539 0.95019,2.7070308 0,1.4013672 -0.42382,2.2080078 -0.417,0.7998047 -1.22364,1.2441406 -0.7998,0.444336 -1.75,0.444336 -1.52441,0 -2.46777,-0.9775391 -0.93652,-0.9775391 -0.93652,-2.8164062 z m 1.26465,0 q 0,1.3945312 0.60839,2.0917968 0.6084,0.6904297 1.53125,0.6904297 0.91602,0 1.52442,-0.6972656 0.6084,-0.6972656 0.6084,-2.1259766 0,-1.3466792 -0.61524,-2.0371092 -0.6084,-0.697266 -1.51758,-0.697266 -0.92285,0 -1.53125,0.69043 -0.60839,0.69043 -0.60839,2.0849609 z m 6.97949,3.6298828 V -13.30936 h 1.10742 v 1.032227 q 0.7998,-1.196289 2.31055,-1.196289 0.65625,0 1.20312,0.239257 0.55371,0.232422 0.82715,0.615235 0.27344,0.382812 0.38281,0.909179 0.0684,0.341797 0.0684,1.196289 v 4.4638677 h -1.23047 V -10.46561 q 0,-0.751953 -0.14355,-1.121094 -0.14356,-0.375976 -0.5127,-0.594726 -0.3623,-0.225586 -0.85449,-0.225586 -0.78613,0 -1.36035,0.499023 -0.56738,0.499024 -0.56738,1.893555 v 3.9648437 z"
       id="flowRoot4146"
       transform="translate(866.90625,1041.0231)"
       aria-label="Score for 1 solution" />
  </g>
  <g
     id="layer5"
     style="display:inline">
    <rect
       style="fill:#8ae234;stroke:#4e9a06;stroke-width:0.99999958;stroke-linecap:round;stroke-linejoin:round;stroke-miterlimit:4;stroke-dasharray:none;display:inline"
       id="rect3957"
       width="229"
       height="389"
       x="30.500183"
       y="120.5"
       rx="4.999999"
       ry="5" />
    <path
       style="font-size:13.2778px;line-height:1.25;font-family:'Liberation Sans';-inkscape-font-specification:'Liberation Sans, Normal';text-align:center;text-anchor:middle"
       d="m 122.39337,69.646637 1.18644,-0.103733 q 0.0843,0.713163 0.389,1.173477 0.3112,0.453831 0.95953,0.739096 0.64833,0.278782 1.45874,0.278782 0.71965,0 1.27073,-0.213949 0.55108,-0.213949 0.8169,-0.583497 0.2723,-0.376031 0.2723,-0.816896 0,-0.447347 -0.25934,-0.777996 -0.25933,-0.337131 -0.85579,-0.564047 -0.38252,-0.149116 -1.69214,-0.460314 -1.30963,-0.317682 -1.83478,-0.596464 -0.68074,-0.356581 -1.01788,-0.881729 -0.33064,-0.53163 -0.33064,-1.186444 0,-0.719646 0.40844,-1.342043 0.40845,-0.62888 1.19293,-0.953045 0.78448,-0.324165 1.74401,-0.324165 1.05678,0 1.86071,0.343615 0.81041,0.337131 1.24479,0.998428 0.43438,0.661297 0.4668,1.497643 l -1.2059,0.09077 q -0.0973,-0.901179 -0.66129,-1.361493 -0.55757,-0.460315 -1.65325,-0.460315 -1.14106,0 -1.6662,0.421415 -0.51867,0.414931 -0.51867,1.004911 0,0.512181 0.36955,0.84283 0.36307,0.330648 1.89312,0.680746 1.53655,0.343615 2.10708,0.602947 0.82986,0.382515 1.22534,0.972495 0.39548,0.583497 0.39548,1.348527 0,0.758546 -0.43438,1.432809 -0.43438,0.66778 -1.25128,1.043811 -0.81041,0.369549 -1.82829,0.369549 -1.29017,0 -2.16542,-0.376032 -0.86876,-0.376031 -1.36798,-1.128094 -0.49273,-0.758546 -0.51866,-1.711591 z m 13.6279,0.53163 1.14754,0.149116 q -0.18801,1.186444 -0.96601,1.860707 -0.77151,0.66778 -1.89961,0.66778 -1.41336,0 -2.27563,-0.920628 -0.8558,-0.927112 -0.8558,-2.65167 0,-1.115128 0.36955,-1.951474 0.36955,-0.836346 1.12161,-1.251277 0.75854,-0.421414 1.64676,-0.421414 1.12161,0 1.83477,0.57053 0.71316,0.564047 0.91415,1.607859 l -1.13458,0.175049 q -0.16208,-0.693713 -0.57701,-1.043812 -0.40845,-0.350098 -0.99195,-0.350098 -0.88173,0 -1.43281,0.635364 -0.55108,0.62888 -0.55108,1.996856 0,1.387427 0.53163,2.016307 0.53163,0.62888 1.38743,0.62888 0.68723,0 1.14754,-0.421415 0.46032,-0.421414 0.5835,-1.29666 z m 1.71159,-0.920629 q 0,-1.912573 1.06326,-2.833202 0.88821,-0.765029 2.16542,-0.765029 1.41985,0 2.32103,0.933595 0.90117,0.927112 0.90117,2.567387 0,1.329077 -0.40196,2.094106 -0.39548,0.758546 -1.16051,1.179961 -0.75855,0.421414 -1.65973,0.421414 -1.44577,0 -2.34047,-0.927112 -0.88821,-0.927112 -0.88821,-2.67112 z m 1.19941,0 q 0,1.322594 0.57701,1.98389 0.57702,0.654814 1.45226,0.654814 0.86877,0 1.44578,-0.661297 0.57701,-0.661297 0.57701,-2.016306 0,-1.277211 -0.58349,-1.932024 -0.57702,-0.661297 -1.4393,-0.661297 -0.87524,0 -1.45226,0.654814 -0.57701,0.654813 -0.57701,1.977406 z m 6.60648,3.442633 v -6.885265 h 1.0503 v 1.043811 q 0.40196,-0.732613 0.73909,-0.966012 0.34362,-0.233398 0.75207,-0.233398 0.58998,0 1.19941,0.376031 l -0.40197,1.082711 q -0.42789,-0.252848 -0.85579,-0.252848 -0.38252,0 -0.68723,0.233398 -0.30472,0.226916 -0.43438,0.635364 -0.1945,0.622397 -0.1945,1.361493 v 3.604715 z m 9.14794,-2.217289 1.20589,0.149116 q -0.28526,1.056778 -1.05677,1.640275 -0.77152,0.583497 -1.97093,0.583497 -1.51061,0 -2.39882,-0.927112 -0.88173,-0.933595 -0.88173,-2.61277 0,-1.737524 0.8947,-2.697053 0.89469,-0.959528 2.32102,-0.959528 1.38094,0 2.25619,0.940078 0.87524,0.940079 0.87524,2.645187 0,0.103733 -0.006,0.311198 h -5.13477 q 0.0648,1.134578 0.64184,1.737525 0.57702,0.602947 1.4393,0.602947 0.64184,0 1.09567,-0.337132 0.45383,-0.337131 0.71965,-1.076228 z m -3.83163,-1.88664 h 3.8446 q -0.0778,-0.868762 -0.44087,-1.303144 -0.55756,-0.674263 -1.44577,-0.674263 -0.80393,0 -1.35501,0.538114 -0.5446,0.538114 -0.60295,1.439293 z m 10.16582,4.103929 v -9.504519 h 1.16699 v 9.504519 z m 7.68919,-2.217289 1.20589,0.149116 q -0.28526,1.056778 -1.05677,1.640275 -0.77152,0.583497 -1.97093,0.583497 -1.51061,0 -2.39882,-0.927112 -0.88173,-0.933595 -0.88173,-2.61277 0,-1.737524 0.8947,-2.697053 0.89469,-0.959528 2.32102,-0.959528 1.38094,0 2.25619,0.940078 0.87524,0.940079 0.87524,2.645187 0,0.103733 -0.006,0.311198 h -5.13477 q 0.0648,1.134578 0.64184,1.737525 0.57702,0.602947 1.4393,0.602947 0.64184,0 1.09567,-0.337132 0.45383,-0.337131 0.71965,-1.076228 z m -3.83163,-1.88664 h 3.8446 q -0.0778,-0.868762 -0.44087,-1.303144 -0.55756,-0.674263 -1.44577,-0.674263 -0.80393,0 -1.35501,0.538114 -0.5446,0.538114 -0.60295,1.439293 z m 8.41532,4.103929 -2.61925,-6.885265 h 1.23183 l 1.47819,4.123379 q 0.23988,0.66778 0.44086,1.387426 0.1556,-0.544597 0.43439,-1.309626 l 1.53005,-4.201179 h 1.19942 l -2.60629,6.885265 z m 9.43969,-2.217289 1.20589,0.149116 q -0.28526,1.056778 -1.05677,1.640275 -0.77152,0.583497 -1.97093,0.583497 -1.51061,0 -2.39882,-0.927112 -0.88173,-0.933595 -0.88173,-2.61277 0,-1.737524 0.8947,-2.697053 0.89469,-0.959528 2.32102,-0.959528 1.38094,0 2.25619,0.940078 0.87524,0.940079 0.87524,2.645187 0,0.103733 -0.006,0.311198 h -5.13477 q 0.0648,1.134578 0.64184,1.737525 0.57702,0.602947 1.4393,0.602947 0.64184,0 1.09567,-0.337132 0.45384,-0.337131 0.71965,-1.076228 z m -3.83163,-1.88664 h 3.8446 q -0.0778,-0.868762 -0.44087,-1.303144 -0.55756,-0.674263 -1.44577,-0.674263 -0.80393,0 -1.35501,0.538114 -0.5446,0.538114 -0.60295,1.439293 z m 6.47682,4.103929 v -9.504519 h 1.16699 v 9.504519 z m 6.34066,-4.687426 q 0,-1.685658 0.34362,-2.71002 0.3501,-1.030845 1.03084,-1.588409 0.68723,-0.557563 1.72456,-0.557563 0.76503,0 1.34204,0.311198 0.57702,0.304715 0.95305,0.888212 0.37603,0.577014 0.58998,1.41336 0.21395,0.829862 0.21395,2.243222 0,1.672691 -0.34362,2.703536 -0.34361,1.024362 -1.03084,1.588409 -0.68075,0.557564 -1.72456,0.557564 -1.37446,0 -2.15894,-0.985462 -0.94008,-1.186444 -0.94008,-3.864047 z m 1.19941,0 q 0,2.340471 0.5446,3.118467 0.55108,0.771513 1.35501,0.771513 0.80393,0 1.34853,-0.777996 0.55108,-0.777996 0.55108,-3.111984 0,-2.346955 -0.55108,-3.118468 -0.5446,-0.771513 -1.3615,-0.771513 -0.80393,0 -1.28369,0.680747 -0.60295,0.868762 -0.60295,3.209234 z"
       id="flowRoot3959"
       transform="matrix(1.6568991,0,0,1.6568991,-120.39356,19.35914)"
       aria-label="Score level 0" />
    <rect
       style="opacity:0.3;fill:#ad7fa8;stroke:#5c3566;stroke-width:0.99999976;stroke-linecap:round;stroke-linejoin:round;stroke-miterlimit:4;stroke-dasharray:none;display:inline"
       id="rect3975"
       width="209"
       height="349"
       x="40.500183"
       y="150.5"
       rx="4.9999986"
       ry="5.0000005" />
    <rect
       style="fill:#fce94f;stroke:#c4a000;stroke-width:0.99999982;stroke-linecap:round;stroke-linejoin:round;stroke-miterlimit:4;stroke-dasharray:none;display:inline"
       id="rect3977"
       width="189"
       height="129"
       x="50.500183"
       y="320.5"
       rx="4.9999986"
       ry="5" />
    <path
       style="font-size:13.2778px;line-height:1.25;font-family:'Liberation Sans';-inkscape-font-specification:'Liberation Sans, Normal';text-align:center;text-anchor:middle"
       d="m 120.11511,69.367855 1.25776,0.317681 q -0.39548,1.549509 -1.42633,2.366405 -1.02436,0.810413 -2.50904,0.810413 -1.53654,0 -2.50255,-0.622397 -0.95953,-0.62888 -1.46523,-1.815324 -0.49921,-1.186444 -0.49921,-2.547938 0,-1.484675 0.56405,-2.586836 0.57053,-1.108645 1.61434,-1.679175 1.05029,-0.577014 2.30805,-0.577014 1.42633,0 2.39882,0.72613 0.9725,0.726129 1.35501,2.042239 l -1.23831,0.291749 q -0.33064,-1.037328 -0.95952,-1.510609 -0.62888,-0.473281 -1.58193,-0.473281 -1.09568,0 -1.83477,0.525147 -0.73262,0.525148 -1.03085,1.41336 -0.29823,0.881729 -0.29823,1.821807 0,1.212377 0.3501,2.120039 0.35658,0.901179 1.10216,1.348527 0.74558,0.447348 1.61434,0.447348 1.05678,0 1.78939,-0.609431 0.73261,-0.60943 0.99195,-1.80884 z m 2.22377,-0.110217 q 0,-1.912573 1.06326,-2.833202 0.88821,-0.765029 2.16542,-0.765029 1.41985,0 2.32102,0.933595 0.90118,0.927112 0.90118,2.567387 0,1.329077 -0.40196,2.094106 -0.39548,0.758546 -1.16051,1.179961 -0.75855,0.421414 -1.65973,0.421414 -1.44577,0 -2.34047,-0.927112 -0.88821,-0.927112 -0.88821,-2.67112 z m 1.19941,0 q 0,1.322594 0.57701,1.98389 0.57702,0.654814 1.45226,0.654814 0.86876,0 1.44578,-0.661297 0.57701,-0.661297 0.57701,-2.016306 0,-1.277211 -0.58349,-1.932024 -0.57702,-0.661297 -1.4393,-0.661297 -0.87524,0 -1.45226,0.654814 -0.57701,0.654813 -0.57701,1.977406 z m 6.61945,3.442633 v -6.885265 h 1.0503 v 0.978978 q 0.75854,-1.134577 2.19135,-1.134577 0.6224,0 1.14106,0.226915 0.52515,0.220432 0.78448,0.583497 0.25933,0.363065 0.36307,0.862279 0.0648,0.324165 0.0648,1.134578 v 4.233595 h -1.167 v -4.188212 q 0,-0.713163 -0.13614,-1.063261 -0.13615,-0.356582 -0.48625,-0.564048 -0.34362,-0.213948 -0.81041,-0.213948 -0.74558,0 -1.29018,0.47328 -0.53812,0.473281 -0.53812,1.795875 v 3.760314 z m 6.91768,-2.055206 1.15403,-0.181533 q 0.0972,0.693714 0.53811,1.063262 0.44735,0.369548 1.2448,0.369548 0.80393,0 1.19292,-0.324165 0.389,-0.330649 0.389,-0.771513 0,-0.395481 -0.34361,-0.622397 -0.23988,-0.155599 -1.19293,-0.395481 -1.28369,-0.324165 -1.78291,-0.557564 -0.49273,-0.239882 -0.75206,-0.654813 -0.25285,-0.421415 -0.25285,-0.927112 0,-0.460315 0.20747,-0.849313 0.21395,-0.395481 0.57701,-0.654813 0.2723,-0.200982 0.7391,-0.337132 0.47328,-0.142632 1.01139,-0.142632 0.81041,0 1.41984,0.233398 0.61592,0.233399 0.90767,0.635364 0.29175,0.395481 0.40196,1.063261 l -1.14106,0.155599 q -0.0778,-0.53163 -0.45383,-0.829862 -0.36955,-0.298232 -1.0503,-0.298232 -0.80392,0 -1.14754,0.265815 -0.34361,0.265816 -0.34361,0.622397 0,0.226916 0.14263,0.408448 0.14263,0.188016 0.44735,0.311199 0.17505,0.06483 1.03084,0.298232 1.23831,0.330648 1.72456,0.544597 0.49273,0.207465 0.77151,0.60943 0.27878,0.401965 0.27878,0.998428 0,0.583497 -0.34361,1.102161 -0.33713,0.512181 -0.97898,0.797446 -0.64185,0.278782 -1.45226,0.278782 -1.34204,0 -2.04872,-0.557564 -0.7002,-0.557563 -0.8947,-1.653241 z m 9.65364,1.011395 0.16856,1.030844 q -0.49273,0.103733 -0.88173,0.103733 -0.63536,0 -0.98546,-0.200982 -0.3501,-0.200982 -0.49273,-0.525147 -0.14263,-0.330649 -0.14263,-1.380943 v -3.961297 h -0.8558 v -0.907662 h 0.8558 v -1.705108 l 1.16051,-0.700197 v 2.405305 h 1.17348 v 0.907662 h -1.17348 v 4.02613 q 0,0.499214 0.0584,0.641846 0.0648,0.142633 0.20098,0.226916 0.14263,0.08428 0.40197,0.08428 0.19449,0 0.51218,-0.04538 z m 1.12809,1.043811 v -6.885265 h 1.05029 v 1.043811 q 0.40197,-0.732613 0.7391,-0.966012 0.34362,-0.233398 0.75206,-0.233398 0.58998,0 1.19941,0.376031 l -0.40196,1.082711 q -0.4279,-0.252848 -0.8558,-0.252848 -0.38251,0 -0.68723,0.233398 -0.30471,0.226916 -0.43438,0.635364 -0.1945,0.622397 -0.1945,1.361493 v 3.604715 z m 8.92751,-0.849312 q -0.64833,0.55108 -1.25128,0.777996 -0.59647,0.226915 -1.2837,0.226915 -1.13457,0 -1.744,-0.55108 -0.60943,-0.557564 -0.60943,-1.419843 0,-0.505698 0.22691,-0.920629 0.2334,-0.421414 0.60295,-0.674263 0.37603,-0.252849 0.84283,-0.382515 0.34361,-0.09077 1.03733,-0.175049 1.41336,-0.168566 2.08114,-0.401965 0.006,-0.239882 0.006,-0.304715 0,-0.713163 -0.33065,-1.004911 -0.44735,-0.395482 -1.32908,-0.395482 -0.82338,0 -1.21886,0.291749 -0.38899,0.285265 -0.57701,1.017878 l -1.14106,-0.155599 q 0.1556,-0.732613 0.51218,-1.179961 0.35658,-0.453831 1.03084,-0.693713 0.67427,-0.246365 1.56248,-0.246365 0.88173,0 1.43281,0.207465 0.55108,0.207466 0.81041,0.525148 0.25933,0.311198 0.36307,0.790962 0.0583,0.298232 0.0583,1.076228 v 1.555992 q 0,1.627309 0.0713,2.06169 0.0778,0.427898 0.29823,0.823379 h -1.21886 q -0.18153,-0.363065 -0.23339,-0.849312 z m -0.0973,-2.606287 q -0.63537,0.259332 -1.90609,0.440864 -0.71965,0.103733 -1.01788,0.233399 -0.29823,0.129666 -0.46032,0.382515 -0.16208,0.246365 -0.16208,0.55108 0,0.466798 0.3501,0.777996 0.35658,0.311199 1.03733,0.311199 0.67426,0 1.19941,-0.291749 0.52514,-0.298231 0.77151,-0.810412 0.18802,-0.395482 0.18802,-1.166994 z m 2.99528,-4.706876 v -1.342044 h 1.16699 v 1.342044 z m 0,8.162475 v -6.885265 h 1.16699 v 6.885265 z m 2.94342,0 v -6.885265 h 1.05029 v 0.978978 q 0.75855,-1.134577 2.19136,-1.134577 0.6224,0 1.14106,0.226915 0.52515,0.220432 0.78448,0.583497 0.25933,0.363065 0.36306,0.862279 0.0648,0.324165 0.0648,1.134578 v 4.233595 h -1.167 v -4.188212 q 0,-0.713163 -0.13615,-1.063261 -0.13615,-0.356582 -0.48624,-0.564048 -0.34362,-0.213948 -0.81042,-0.213948 -0.74558,0 -1.29017,0.47328 -0.53812,0.473281 -0.53812,1.795875 v 3.760314 z m 9.93242,-1.043811 0.16856,1.030844 q -0.49273,0.103733 -0.88173,0.103733 -0.63536,0 -0.98546,-0.200982 -0.3501,-0.200982 -0.49273,-0.525147 -0.14263,-0.330649 -0.14263,-1.380943 v -3.961297 h -0.8558 v -0.907662 h 0.8558 v -1.705108 l 1.16051,-0.700197 v 2.405305 h 1.17348 v 0.907662 h -1.17348 v 4.02613 q 0,0.499214 0.0583,0.641846 0.0648,0.142633 0.20098,0.226916 0.14263,0.08428 0.40196,0.08428 0.1945,0 0.51219,-0.04538 z m 8.90157,1.043811 h -1.167 v -7.436346 q -0.42141,0.401965 -1.10864,0.80393 -0.68075,0.401964 -1.22535,0.602947 v -1.128095 q 0.97898,-0.460314 1.71159,-1.115127 0.73262,-0.654814 1.03733,-1.270727 h 0.75207 z"
       id="flowRoot3979"
       transform="matrix(1.6568991,0,0,1.6568991,-100.39356,219.35914)"
       aria-label="Constraint 1" />
    <rect
       ry="5"
       rx="4.9999986"
       y="380.5"
       x="60.500153"
       height="59"
       width="79"
       id="rect3987"
       style="fill:#729fcf;stroke:#204a87;stroke-width:0.99999988;stroke-linecap:round;stroke-linejoin:round;stroke-miterlimit:4;stroke-dasharray:none;display:inline" />
    <path
       style="font-size:13.2778px;line-height:1.25;font-family:'Liberation Sans';-inkscape-font-specification:'Liberation Sans, Normal';text-align:center;text-anchor:middle"
       d="m 92.995624,69.646637 1.186444,-0.103733 q 0.08428,0.713163 0.388998,1.173477 0.311198,0.453831 0.959528,0.739096 0.64833,0.278782 1.458743,0.278782 0.719646,0 1.270727,-0.213949 0.55108,-0.213949 0.816896,-0.583497 0.272298,-0.376031 0.272298,-0.816896 0,-0.447347 -0.259332,-0.777996 -0.259332,-0.337131 -0.855795,-0.564047 -0.382515,-0.149116 -1.692142,-0.460314 -1.309627,-0.317682 -1.834774,-0.596464 -0.680747,-0.356581 -1.017878,-0.881729 -0.330648,-0.53163 -0.330648,-1.186444 0,-0.719646 0.408447,-1.342043 0.408448,-0.62888 1.192928,-0.953045 0.784479,-0.324165 1.744008,-0.324165 1.056778,0 1.860707,0.343615 0.810412,0.337131 1.244794,0.998428 0.434377,0.661297 0.466797,1.497643 l -1.205894,0.09077 q -0.09725,-0.901179 -0.661296,-1.361493 -0.557564,-0.460315 -1.653242,-0.460315 -1.141061,0 -1.666208,0.421415 -0.518664,0.414931 -0.518664,1.004911 0,0.512181 0.369548,0.84283 0.363065,0.330648 1.893124,0.680746 1.536542,0.343615 2.107072,0.602947 0.829863,0.382515 1.22534,0.972495 0.39549,0.583497 0.39549,1.348527 0,0.758546 -0.43439,1.432809 -0.434377,0.66778 -1.251273,1.043811 -0.810412,0.369549 -1.82829,0.369549 -1.290177,0 -2.165423,-0.376032 -0.868762,-0.376031 -1.367976,-1.128094 -0.492731,-0.758546 -0.518664,-1.711591 z m 9.141456,-5.108841 v -1.342044 h 1.16699 v 1.342044 z m 0,8.162475 v -6.885265 h 1.16699 v 6.885265 z m 2.72947,0.570531 1.13457,0.168565 q 0.0713,0.525148 0.39549,0.76503 0.43438,0.324165 1.18644,0.324165 0.81041,0 1.25128,-0.324165 0.44086,-0.324165 0.59646,-0.907662 0.0908,-0.356582 0.0843,-1.497643 -0.76503,0.901179 -1.90609,0.901179 -1.41984,0 -2.19784,-1.024361 -0.77799,-1.024362 -0.77799,-2.457171 0,-0.985462 0.35658,-1.815324 0.35658,-0.836346 1.03084,-1.290177 0.68075,-0.453831 1.5949,-0.453831 1.21886,0 2.00982,0.985461 v -0.829862 h 1.07623 v 5.95167 q 0,1.607858 -0.33065,2.275638 -0.32417,0.674264 -1.03733,1.063262 -0.70668,0.388998 -1.74401,0.388998 -1.23182,0 -1.99037,-0.557564 -0.75855,-0.551081 -0.73261,-1.666208 z m 0.96601,-4.136346 q 0,1.35501 0.53811,1.977406 0.53812,0.622397 1.34853,0.622397 0.80393,0 1.34853,-0.615913 0.54459,-0.622397 0.54459,-1.94499 0,-1.264244 -0.56404,-1.906091 -0.55757,-0.641847 -1.34853,-0.641847 -0.778,0 -1.32259,0.635364 -0.5446,0.62888 -0.5446,1.873674 z m 6.63242,3.565815 v -6.885265 h 1.05029 v 0.978978 q 0.75855,-1.134577 2.19136,-1.134577 0.62239,0 1.14106,0.226915 0.52514,0.220432 0.78448,0.583497 0.25933,0.363065 0.36306,0.862279 0.0648,0.324165 0.0648,1.134578 v 4.233595 h -1.16699 v -4.188212 q 0,-0.713163 -0.13615,-1.063261 -0.13615,-0.356582 -0.48625,-0.564048 -0.34361,-0.213948 -0.81041,-0.213948 -0.74558,0 -1.29018,0.47328 -0.53811,0.473281 -0.53811,1.795875 v 3.760314 z m 11.89685,0 v -1.011395 q -0.80393,1.166994 -2.18487,1.166994 -0.60943,0 -1.14106,-0.233399 -0.52515,-0.233398 -0.78448,-0.583497 -0.25285,-0.356581 -0.35658,-0.868762 -0.0713,-0.343615 -0.0713,-1.089194 v -4.266012 h 1.167 v 3.818664 q 0,0.914145 0.0713,1.231827 0.11022,0.460314 0.4668,0.72613 0.35658,0.259332 0.88173,0.259332 0.52515,0 0.98546,-0.265816 0.46032,-0.272298 0.64833,-0.732613 0.1945,-0.466797 0.1945,-1.348526 v -3.688998 h 1.16699 v 6.885265 z m 2.87211,0 v -6.885265 h 1.04381 v 0.966012 q 0.32416,-0.505698 0.86228,-0.810413 0.53811,-0.311198 1.22534,-0.311198 0.76503,0 1.25128,0.317681 0.49273,0.317682 0.69371,0.888213 0.8169,-1.205894 2.12652,-1.205894 1.02436,0 1.57544,0.57053 0.55109,0.564047 0.55109,1.744008 v 4.726326 h -1.16052 v -4.337328 q 0,-0.700196 -0.1167,-1.004912 -0.11021,-0.311198 -0.40844,-0.499214 -0.29823,-0.188015 -0.7002,-0.188015 -0.72613,0 -1.20589,0.486247 -0.47977,0.479764 -0.47977,1.543026 v 4.000196 h -1.16699 v -4.473477 q 0,-0.777996 -0.28527,-1.166994 -0.28526,-0.388998 -0.93359,-0.388998 -0.49273,0 -0.91415,0.259332 -0.41493,0.259332 -0.60294,0.758546 -0.18802,0.499214 -0.18802,1.439292 v 3.572299 z"
       id="flowRoot3989"
       transform="matrix(1.6568991,0,0,1.6568991,-90.393557,279.35928)"
       aria-label="Signum" />
    <path
       style="font-size:13.2778px;line-height:1.25;font-family:'Liberation Sans';-inkscape-font-specification:'Liberation Sans, Normal';text-align:center;text-anchor:middle;fill:#555753"
       d="M 113.11979,87.953088 V 86.77961 h 3.58526 v 1.173478 z"
       id="flowRoot3997"
       transform="matrix(1.6568991,0,0,1.6568991,-90.393557,279.35928)"
       aria-label="-" />
    <rect
       style="fill:#729fcf;stroke:#204a87;stroke-width:0.99999988;stroke-linecap:round;stroke-linejoin:round;stroke-miterlimit:4;stroke-dasharray:none;display:inline"
       id="rect4005"
       width="79"
       height="59"
       x="150.50015"
       y="380.5"
       rx="4.9999986"
       ry="5" />
    <path
       style="font-size:13.2778px;line-height:1.25;font-family:'Liberation Sans';-inkscape-font-specification:'Liberation Sans, Normal';text-align:center;text-anchor:middle"
       d="m 97.050928,72.700271 -2.522004,-9.504519 h 1.290177 l 1.445776,6.230452 q 0.233399,0.978979 0.401965,1.94499 0.363065,-1.523575 0.427898,-1.756974 l 1.80884,-6.418468 h 1.51709 l 1.3615,4.810609 q 0.51218,1.789391 0.73909,3.364833 0.18153,-0.901178 0.47328,-2.068172 l 1.49116,-6.10727 h 1.26425 l -2.60629,9.504519 h -1.21238 l -2.00334,-7.241847 q -0.25285,-0.907662 -0.29823,-1.115127 -0.14912,0.654813 -0.27878,1.115127 l -2.016308,7.241847 z m 15.196862,-2.217289 1.20589,0.149116 q -0.28527,1.056778 -1.05678,1.640275 -0.77151,0.583497 -1.97092,0.583497 -1.51061,0 -2.39882,-0.927112 -0.88173,-0.933595 -0.88173,-2.61277 0,-1.737524 0.89469,-2.697053 0.8947,-0.959528 2.32102,-0.959528 1.38095,0 2.25619,0.940078 0.87525,0.940079 0.87525,2.645187 0,0.103733 -0.006,0.311198 h -5.13478 q 0.0648,1.134578 0.64185,1.737525 0.57701,0.602947 1.43929,0.602947 0.64185,0 1.09568,-0.337132 0.45383,-0.337131 0.71965,-1.076228 z m -3.83164,-1.88664 h 3.8446 q -0.0778,-0.868762 -0.44086,-1.303144 -0.55757,-0.674263 -1.44578,-0.674263 -0.80393,0 -1.35501,0.538114 -0.5446,0.538114 -0.60295,1.439293 z m 6.50924,-4.058546 v -1.342044 h 1.16699 v 1.342044 z m 0,8.162475 v -6.885265 h 1.16699 v 6.885265 z m 2.72947,0.570531 1.13458,0.168565 q 0.0713,0.525148 0.39548,0.76503 0.43438,0.324165 1.18644,0.324165 0.81041,0 1.25128,-0.324165 0.44086,-0.324165 0.59646,-0.907662 0.0908,-0.356582 0.0843,-1.497643 -0.76503,0.901179 -1.90609,0.901179 -1.41985,0 -2.19784,-1.024361 -0.778,-1.024362 -0.778,-2.457171 0,-0.985462 0.35658,-1.815324 0.35658,-0.836346 1.03085,-1.290177 0.68074,-0.453831 1.59489,-0.453831 1.21886,0 2.00982,0.985461 v -0.829862 h 1.07623 v 5.95167 q 0,1.607858 -0.33065,2.275638 -0.32416,0.674264 -1.03733,1.063262 -0.70668,0.388998 -1.744,0.388998 -1.23183,0 -1.99038,-0.557564 -0.75854,-0.551081 -0.73261,-1.666208 z m 0.96601,-4.136346 q 0,1.35501 0.53811,1.977406 0.53812,0.622397 1.34853,0.622397 0.80393,0 1.34853,-0.615913 0.54459,-0.622397 0.54459,-1.94499 0,-1.264244 -0.56404,-1.906091 -0.55757,-0.641847 -1.34853,-0.641847 -0.77799,0 -1.32259,0.635364 -0.5446,0.62888 -0.5446,1.873674 z m 6.63242,3.565815 v -9.504519 h 1.16699 v 3.410217 q 0.8169,-0.946562 2.06169,-0.946562 0.76503,0 1.32908,0.304715 0.56404,0.298232 0.80393,0.829862 0.24636,0.531631 0.24636,1.543026 v 4.363261 h -1.16699 V 68.33701 q 0,-0.875246 -0.38252,-1.270727 -0.37603,-0.401965 -1.06974,-0.401965 -0.51867,0 -0.97898,0.272299 -0.45383,0.265815 -0.64833,0.72613 -0.1945,0.460314 -0.1945,1.270726 v 3.766798 z m 9.93241,-1.043811 0.16857,1.030844 q -0.49273,0.103733 -0.88173,0.103733 -0.63536,0 -0.98546,-0.200982 -0.3501,-0.200982 -0.49273,-0.525147 -0.14263,-0.330649 -0.14263,-1.380943 v -3.961297 h -0.8558 v -0.907662 h 0.8558 v -1.705108 l 1.16051,-0.700197 v 2.405305 h 1.17347 v 0.907662 h -1.17347 v 4.02613 q 0,0.499214 0.0584,0.641846 0.0648,0.142633 0.20098,0.226916 0.14263,0.08428 0.40196,0.08428 0.1945,0 0.51218,-0.04538 z"
       id="flowRoot4007"
       transform="matrix(1.6568991,0,0,1.6568991,-0.39356,279.35928)"
       aria-label="Weight" />
    <path
       style="font-size:13.2778px;line-height:1.25;font-family:'Liberation Sans';-inkscape-font-specification:'Liberation Sans, Normal';text-align:center;text-anchor:middle;fill:#555753"
       d="m 108.08226,88.296703 1.167,-0.1556 q 0.20098,0.991945 0.68074,1.43281 0.48625,0.434381 1.17997,0.434381 0.82337,0 1.38742,-0.570531 0.57053,-0.57053 0.57053,-1.413359 0,-0.803929 -0.52515,-1.322593 -0.52514,-0.525148 -1.33555,-0.525148 -0.33065,0 -0.82338,0.129666 l 0.12966,-1.024361 q 0.1167,0.01297 0.18802,0.01297 0.74558,0 1.34204,-0.388998 0.59646,-0.388998 0.59646,-1.19941 0,-0.641847 -0.43438,-1.063262 -0.43438,-0.421414 -1.12161,-0.421414 -0.68074,0 -1.13458,0.427898 -0.45383,0.427898 -0.58349,1.283693 l -1.167,-0.207465 q 0.21395,-1.173478 0.9725,-1.815325 0.75854,-0.64833 1.88664,-0.64833 0.778,0 1.43281,0.337132 0.65481,0.330648 0.99843,0.907662 0.3501,0.577014 0.3501,1.225344 0,0.615913 -0.33065,1.121611 -0.33065,0.505697 -0.97898,0.803929 0.84283,0.194499 1.30963,0.810413 0.46679,0.60943 0.46679,1.530059 0,1.244793 -0.90766,2.113556 -0.90766,0.862279 -2.29509,0.862279 -1.25127,0 -2.08114,-0.74558 -0.82338,-0.745579 -0.94008,-1.932023 z m 7.378,-2.178389 q 0,-1.685659 0.34362,-2.71002 0.35009,-1.030845 1.03084,-1.588409 0.68723,-0.557564 1.72456,-0.557564 0.76503,0 1.34204,0.311199 0.57702,0.304715 0.95305,0.888212 0.37603,0.577014 0.58998,1.41336 0.21395,0.829862 0.21395,2.243222 0,1.672691 -0.34362,2.703536 -0.34361,1.024361 -1.03084,1.588409 -0.68075,0.557563 -1.72456,0.557563 -1.37446,0 -2.15894,-0.985461 -0.94008,-1.186444 -0.94008,-3.864047 z m 1.19941,0 q 0,2.340471 0.5446,3.118467 0.55108,0.771513 1.35501,0.771513 0.80393,0 1.34852,-0.777996 0.55109,-0.777996 0.55109,-3.111984 0,-2.346955 -0.55109,-3.118468 -0.54459,-0.771513 -1.36149,-0.771513 -0.80393,0 -1.28369,0.680747 -0.60295,0.868762 -0.60295,3.209234 z"
       id="flowRoot4015"
       transform="matrix(1.6568991,0,0,1.6568991,-0.39356,279.35928)"
       aria-label="30" />
    <rect
       ry="5"
       rx="4.9999986"
       y="180.49988"
       x="50.500183"
       height="129"
       width="189"
       id="rect4023"
       style="fill:#fce94f;stroke:#c4a000;stroke-width:0.99999982;stroke-linecap:round;stroke-linejoin:round;stroke-miterlimit:4;stroke-dasharray:none;display:inline" />
    <path
       style="font-size:13.2778px;line-height:1.25;font-family:'Liberation Sans';-inkscape-font-specification:'Liberation Sans, Normal';text-align:center;text-anchor:middle"
       d="m 120.11511,69.367855 1.25776,0.317681 q -0.39548,1.549509 -1.42633,2.366405 -1.02436,0.810413 -2.50904,0.810413 -1.53654,0 -2.50255,-0.622397 -0.95953,-0.62888 -1.46523,-1.815324 -0.49921,-1.186444 -0.49921,-2.547938 0,-1.484675 0.56405,-2.586836 0.57053,-1.108645 1.61434,-1.679175 1.05029,-0.577014 2.30805,-0.577014 1.42633,0 2.39882,0.72613 0.9725,0.726129 1.35501,2.042239 l -1.23831,0.291749 q -0.33064,-1.037328 -0.95952,-1.510609 -0.62888,-0.473281 -1.58193,-0.473281 -1.09568,0 -1.83477,0.525147 -0.73262,0.525148 -1.03085,1.41336 -0.29823,0.881729 -0.29823,1.821807 0,1.212377 0.3501,2.120039 0.35658,0.901179 1.10216,1.348527 0.74558,0.447348 1.61434,0.447348 1.05678,0 1.78939,-0.609431 0.73261,-0.60943 0.99195,-1.80884 z m 2.22377,-0.110217 q 0,-1.912573 1.06326,-2.833202 0.88821,-0.765029 2.16542,-0.765029 1.41985,0 2.32102,0.933595 0.90118,0.927112 0.90118,2.567387 0,1.329077 -0.40196,2.094106 -0.39548,0.758546 -1.16051,1.179961 -0.75855,0.421414 -1.65973,0.421414 -1.44577,0 -2.34047,-0.927112 -0.88821,-0.927112 -0.88821,-2.67112 z m 1.19941,0 q 0,1.322594 0.57701,1.98389 0.57702,0.654814 1.45226,0.654814 0.86876,0 1.44578,-0.661297 0.57701,-0.661297 0.57701,-2.016306 0,-1.277211 -0.58349,-1.932024 -0.57702,-0.661297 -1.4393,-0.661297 -0.87524,0 -1.45226,0.654814 -0.57701,0.654813 -0.57701,1.977406 z m 6.61945,3.442633 v -6.885265 h 1.0503 v 0.978978 q 0.75854,-1.134577 2.19135,-1.134577 0.6224,0 1.14106,0.226915 0.52515,0.220432 0.78448,0.583497 0.25933,0.363065 0.36307,0.862279 0.0648,0.324165 0.0648,1.134578 v 4.233595 h -1.167 v -4.188212 q 0,-0.713163 -0.13614,-1.063261 -0.13615,-0.356582 -0.48625,-0.564048 -0.34362,-0.213948 -0.81041,-0.213948 -0.74558,0 -1.29018,0.47328 -0.53812,0.473281 -0.53812,1.795875 v 3.760314 z m 6.91768,-2.055206 1.15403,-0.181533 q 0.0972,0.693714 0.53811,1.063262 0.44735,0.369548 1.2448,0.369548 0.80393,0 1.19292,-0.324165 0.389,-0.330649 0.389,-0.771513 0,-0.395481 -0.34361,-0.622397 -0.23988,-0.155599 -1.19293,-0.395481 -1.28369,-0.324165 -1.78291,-0.557564 -0.49273,-0.239882 -0.75206,-0.654813 -0.25285,-0.421415 -0.25285,-0.927112 0,-0.460315 0.20747,-0.849313 0.21395,-0.395481 0.57701,-0.654813 0.2723,-0.200982 0.7391,-0.337132 0.47328,-0.142632 1.01139,-0.142632 0.81041,0 1.41984,0.233398 0.61592,0.233399 0.90767,0.635364 0.29175,0.395481 0.40196,1.063261 l -1.14106,0.155599 q -0.0778,-0.53163 -0.45383,-0.829862 -0.36955,-0.298232 -1.0503,-0.298232 -0.80392,0 -1.14754,0.265815 -0.34361,0.265816 -0.34361,0.622397 0,0.226916 0.14263,0.408448 0.14263,0.188016 0.44735,0.311199 0.17505,0.06483 1.03084,0.298232 1.23831,0.330648 1.72456,0.544597 0.49273,0.207465 0.77151,0.60943 0.27878,0.401965 0.27878,0.998428 0,0.583497 -0.34361,1.102161 -0.33713,0.512181 -0.97898,0.797446 -0.64185,0.278782 -1.45226,0.278782 -1.34204,0 -2.04872,-0.557564 -0.7002,-0.557563 -0.8947,-1.653241 z m 9.65364,1.011395 0.16856,1.030844 q -0.49273,0.103733 -0.88173,0.103733 -0.63536,0 -0.98546,-0.200982 -0.3501,-0.200982 -0.49273,-0.525147 -0.14263,-0.330649 -0.14263,-1.380943 v -3.961297 h -0.8558 v -0.907662 h 0.8558 v -1.705108 l 1.16051,-0.700197 v 2.405305 h 1.17348 v 0.907662 h -1.17348 v 4.02613 q 0,0.499214 0.0584,0.641846 0.0648,0.142633 0.20098,0.226916 0.14263,0.08428 0.40197,0.08428 0.19449,0 0.51218,-0.04538 z m 1.12809,1.043811 v -6.885265 h 1.05029 v 1.043811 q 0.40197,-0.732613 0.7391,-0.966012 0.34362,-0.233398 0.75206,-0.233398 0.58998,0 1.19941,0.376031 l -0.40196,1.082711 q -0.4279,-0.252848 -0.8558,-0.252848 -0.38251,0 -0.68723,0.233398 -0.30471,0.226916 -0.43438,0.635364 -0.1945,0.622397 -0.1945,1.361493 v 3.604715 z m 8.92751,-0.849312 q -0.64833,0.55108 -1.25128,0.777996 -0.59647,0.226915 -1.2837,0.226915 -1.13457,0 -1.744,-0.55108 -0.60943,-0.557564 -0.60943,-1.419843 0,-0.505698 0.22691,-0.920629 0.2334,-0.421414 0.60295,-0.674263 0.37603,-0.252849 0.84283,-0.382515 0.34361,-0.09077 1.03733,-0.175049 1.41336,-0.168566 2.08114,-0.401965 0.006,-0.239882 0.006,-0.304715 0,-0.713163 -0.33065,-1.004911 -0.44735,-0.395482 -1.32908,-0.395482 -0.82338,0 -1.21886,0.291749 -0.38899,0.285265 -0.57701,1.017878 l -1.14106,-0.155599 q 0.1556,-0.732613 0.51218,-1.179961 0.35658,-0.453831 1.03084,-0.693713 0.67427,-0.246365 1.56248,-0.246365 0.88173,0 1.43281,0.207465 0.55108,0.207466 0.81041,0.525148 0.25933,0.311198 0.36307,0.790962 0.0583,0.298232 0.0583,1.076228 v 1.555992 q 0,1.627309 0.0713,2.06169 0.0778,0.427898 0.29823,0.823379 h -1.21886 q -0.18153,-0.363065 -0.23339,-0.849312 z m -0.0973,-2.606287 q -0.63537,0.259332 -1.90609,0.440864 -0.71965,0.103733 -1.01788,0.233399 -0.29823,0.129666 -0.46032,0.382515 -0.16208,0.246365 -0.16208,0.55108 0,0.466798 0.3501,0.777996 0.35658,0.311199 1.03733,0.311199 0.67426,0 1.19941,-0.291749 0.52514,-0.298231 0.77151,-0.810412 0.18802,-0.395482 0.18802,-1.166994 z m 2.99528,-4.706876 v -1.342044 h 1.16699 v 1.342044 z m 0,8.162475 v -6.885265 h 1.16699 v 6.885265 z m 2.94342,0 v -6.885265 h 1.05029 v 0.978978 q 0.75855,-1.134577 2.19136,-1.134577 0.6224,0 1.14106,0.226915 0.52515,0.220432 0.78448,0.583497 0.25933,0.363065 0.36306,0.862279 0.0648,0.324165 0.0648,1.134578 v 4.233595 h -1.167 v -4.188212 q 0,-0.713163 -0.13615,-1.063261 -0.13615,-0.356582 -0.48624,-0.564048 -0.34362,-0.213948 -0.81042,-0.213948 -0.74558,0 -1.29017,0.47328 -0.53812,0.473281 -0.53812,1.795875 v 3.760314 z m 9.93242,-1.043811 0.16856,1.030844 q -0.49273,0.103733 -0.88173,0.103733 -0.63536,0 -0.98546,-0.200982 -0.3501,-0.200982 -0.49273,-0.525147 -0.14263,-0.330649 -0.14263,-1.380943 v -3.961297 h -0.8558 v -0.907662 h 0.8558 v -1.705108 l 1.16051,-0.700197 v 2.405305 h 1.17348 v 0.907662 h -1.17348 v 4.02613 q 0,0.499214 0.0583,0.641846 0.0648,0.142633 0.20098,0.226916 0.14263,0.08428 0.40196,0.08428 0.1945,0 0.51219,-0.04538 z m 4.50589,-3.643615 q 0,-1.685658 0.34361,-2.71002 0.3501,-1.030845 1.03085,-1.588409 0.68723,-0.557563 1.72456,-0.557563 0.76503,0 1.34204,0.311198 0.57701,0.304715 0.95304,0.888212 0.37604,0.577014 0.58998,1.41336 0.21395,0.829862 0.21395,2.243222 0,1.672691 -0.34361,2.703536 -0.34362,1.024362 -1.03085,1.588409 -0.68074,0.557564 -1.72455,0.557564 -1.37446,0 -2.15894,-0.985462 -0.94008,-1.186444 -0.94008,-3.864047 z m 1.19941,0 q 0,2.340471 0.5446,3.118467 0.55108,0.771513 1.35501,0.771513 0.80393,0 1.34852,-0.777996 0.55108,-0.777996 0.55108,-3.111984 0,-2.346955 -0.55108,-3.118468 -0.54459,-0.771513 -1.36149,-0.771513 -0.80393,0 -1.28369,0.680747 -0.60295,0.868762 -0.60295,3.209234 z"
       id="flowRoot4025"
       transform="matrix(1.6568991,0,0,1.6568991,-100.39356,79.359137)"
       aria-label="Constraint 0" />
    <rect
       style="fill:#729fcf;stroke:#204a87;stroke-width:0.99999988;stroke-linecap:round;stroke-linejoin:round;stroke-miterlimit:4;stroke-dasharray:none;display:inline"
       id="rect4033"
       width="79"
       height="59"
       x="60.500153"
       y="240.49988"
       rx="4.9999986"
       ry="5" />
    <path
       style="font-size:13.2778px;line-height:1.25;font-family:'Liberation Sans';-inkscape-font-specification:'Liberation Sans, Normal';text-align:center;text-anchor:middle"
       d="m 92.995624,69.646637 1.186444,-0.103733 q 0.08428,0.713163 0.388998,1.173477 0.311198,0.453831 0.959528,0.739096 0.64833,0.278782 1.458743,0.278782 0.719646,0 1.270727,-0.213949 0.55108,-0.213949 0.816896,-0.583497 0.272298,-0.376031 0.272298,-0.816896 0,-0.447347 -0.259332,-0.777996 -0.259332,-0.337131 -0.855795,-0.564047 -0.382515,-0.149116 -1.692142,-0.460314 -1.309627,-0.317682 -1.834774,-0.596464 -0.680747,-0.356581 -1.017878,-0.881729 -0.330648,-0.53163 -0.330648,-1.186444 0,-0.719646 0.408447,-1.342043 0.408448,-0.62888 1.192928,-0.953045 0.784479,-0.324165 1.744008,-0.324165 1.056778,0 1.860707,0.343615 0.810412,0.337131 1.244794,0.998428 0.434377,0.661297 0.466797,1.497643 l -1.205894,0.09077 q -0.09725,-0.901179 -0.661296,-1.361493 -0.557564,-0.460315 -1.653242,-0.460315 -1.141061,0 -1.666208,0.421415 -0.518664,0.414931 -0.518664,1.004911 0,0.512181 0.369548,0.84283 0.363065,0.330648 1.893124,0.680746 1.536542,0.343615 2.107072,0.602947 0.829863,0.382515 1.22534,0.972495 0.39549,0.583497 0.39549,1.348527 0,0.758546 -0.43439,1.432809 -0.434377,0.66778 -1.251273,1.043811 -0.810412,0.369549 -1.82829,0.369549 -1.290177,0 -2.165423,-0.376032 -0.868762,-0.376031 -1.367976,-1.128094 -0.492731,-0.758546 -0.518664,-1.711591 z m 9.141456,-5.108841 v -1.342044 h 1.16699 v 1.342044 z m 0,8.162475 v -6.885265 h 1.16699 v 6.885265 z m 2.72947,0.570531 1.13457,0.168565 q 0.0713,0.525148 0.39549,0.76503 0.43438,0.324165 1.18644,0.324165 0.81041,0 1.25128,-0.324165 0.44086,-0.324165 0.59646,-0.907662 0.0908,-0.356582 0.0843,-1.497643 -0.76503,0.901179 -1.90609,0.901179 -1.41984,0 -2.19784,-1.024361 -0.77799,-1.024362 -0.77799,-2.457171 0,-0.985462 0.35658,-1.815324 0.35658,-0.836346 1.03084,-1.290177 0.68075,-0.453831 1.5949,-0.453831 1.21886,0 2.00982,0.985461 v -0.829862 h 1.07623 v 5.95167 q 0,1.607858 -0.33065,2.275638 -0.32417,0.674264 -1.03733,1.063262 -0.70668,0.388998 -1.74401,0.388998 -1.23182,0 -1.99037,-0.557564 -0.75855,-0.551081 -0.73261,-1.666208 z m 0.96601,-4.136346 q 0,1.35501 0.53811,1.977406 0.53812,0.622397 1.34853,0.622397 0.80393,0 1.34853,-0.615913 0.54459,-0.622397 0.54459,-1.94499 0,-1.264244 -0.56404,-1.906091 -0.55757,-0.641847 -1.34853,-0.641847 -0.778,0 -1.32259,0.635364 -0.5446,0.62888 -0.5446,1.873674 z m 6.63242,3.565815 v -6.885265 h 1.05029 v 0.978978 q 0.75855,-1.134577 2.19136,-1.134577 0.62239,0 1.14106,0.226915 0.52514,0.220432 0.78448,0.583497 0.25933,0.363065 0.36306,0.862279 0.0648,0.324165 0.0648,1.134578 v 4.233595 h -1.16699 v -4.188212 q 0,-0.713163 -0.13615,-1.063261 -0.13615,-0.356582 -0.48625,-0.564048 -0.34361,-0.213948 -0.81041,-0.213948 -0.74558,0 -1.29018,0.47328 -0.53811,0.473281 -0.53811,1.795875 v 3.760314 z m 11.89685,0 v -1.011395 q -0.80393,1.166994 -2.18487,1.166994 -0.60943,0 -1.14106,-0.233399 -0.52515,-0.233398 -0.78448,-0.583497 -0.25285,-0.356581 -0.35658,-0.868762 -0.0713,-0.343615 -0.0713,-1.089194 v -4.266012 h 1.167 v 3.818664 q 0,0.914145 0.0713,1.231827 0.11022,0.460314 0.4668,0.72613 0.35658,0.259332 0.88173,0.259332 0.52515,0 0.98546,-0.265816 0.46032,-0.272298 0.64833,-0.732613 0.1945,-0.466797 0.1945,-1.348526 v -3.688998 h 1.16699 v 6.885265 z m 2.87211,0 v -6.885265 h 1.04381 v 0.966012 q 0.32416,-0.505698 0.86228,-0.810413 0.53811,-0.311198 1.22534,-0.311198 0.76503,0 1.25128,0.317681 0.49273,0.317682 0.69371,0.888213 0.8169,-1.205894 2.12652,-1.205894 1.02436,0 1.57544,0.57053 0.55109,0.564047 0.55109,1.744008 v 4.726326 h -1.16052 v -4.337328 q 0,-0.700196 -0.1167,-1.004912 -0.11021,-0.311198 -0.40844,-0.499214 -0.29823,-0.188015 -0.7002,-0.188015 -0.72613,0 -1.20589,0.486247 -0.47977,0.479764 -0.47977,1.543026 v 4.000196 h -1.16699 v -4.473477 q 0,-0.777996 -0.28527,-1.166994 -0.28526,-0.388998 -0.93359,-0.388998 -0.49273,0 -0.91415,0.259332 -0.41493,0.259332 -0.60294,0.758546 -0.18802,0.499214 -0.18802,1.439292 v 3.572299 z"
       id="flowRoot4035"
       transform="matrix(1.6568991,0,0,1.6568991,-90.393557,139.35914)"
       aria-label="Signum" />
    <path
       style="font-size:13.2778px;line-height:1.25;font-family:'Liberation Sans';-inkscape-font-specification:'Liberation Sans, Normal';text-align:center;text-anchor:middle;fill:#555753"
       d="M 113.11979,87.953088 V 86.77961 h 3.58526 v 1.173478 z"
       id="flowRoot4043"
       transform="matrix(1.6568991,0,0,1.6568991,-90.393557,139.35914)"
       aria-label="-" />
    <rect
       ry="5"
       rx="4.9999986"
       y="240.49988"
       x="150.50015"
       height="59"
       width="79"
       id="rect4051"
       style="fill:#729fcf;stroke:#204a87;stroke-width:0.99999988;stroke-linecap:round;stroke-linejoin:round;stroke-miterlimit:4;stroke-dasharray:none;display:inline" />
    <path
       style="font-size:13.2778px;line-height:1.25;font-family:'Liberation Sans';-inkscape-font-specification:'Liberation Sans, Normal';text-align:center;text-anchor:middle"
       d="m 97.050928,72.700271 -2.522004,-9.504519 h 1.290177 l 1.445776,6.230452 q 0.233399,0.978979 0.401965,1.94499 0.363065,-1.523575 0.427898,-1.756974 l 1.80884,-6.418468 h 1.51709 l 1.3615,4.810609 q 0.51218,1.789391 0.73909,3.364833 0.18153,-0.901178 0.47328,-2.068172 l 1.49116,-6.10727 h 1.26425 l -2.60629,9.504519 h -1.21238 l -2.00334,-7.241847 q -0.25285,-0.907662 -0.29823,-1.115127 -0.14912,0.654813 -0.27878,1.115127 l -2.016308,7.241847 z m 15.196862,-2.217289 1.20589,0.149116 q -0.28527,1.056778 -1.05678,1.640275 -0.77151,0.583497 -1.97092,0.583497 -1.51061,0 -2.39882,-0.927112 -0.88173,-0.933595 -0.88173,-2.61277 0,-1.737524 0.89469,-2.697053 0.8947,-0.959528 2.32102,-0.959528 1.38095,0 2.25619,0.940078 0.87525,0.940079 0.87525,2.645187 0,0.103733 -0.006,0.311198 h -5.13478 q 0.0648,1.134578 0.64185,1.737525 0.57701,0.602947 1.43929,0.602947 0.64185,0 1.09568,-0.337132 0.45383,-0.337131 0.71965,-1.076228 z m -3.83164,-1.88664 h 3.8446 q -0.0778,-0.868762 -0.44086,-1.303144 -0.55757,-0.674263 -1.44578,-0.674263 -0.80393,0 -1.35501,0.538114 -0.5446,0.538114 -0.60295,1.439293 z m 6.50924,-4.058546 v -1.342044 h 1.16699 v 1.342044 z m 0,8.162475 v -6.885265 h 1.16699 v 6.885265 z m 2.72947,0.570531 1.13458,0.168565 q 0.0713,0.525148 0.39548,0.76503 0.43438,0.324165 1.18644,0.324165 0.81041,0 1.25128,-0.324165 0.44086,-0.324165 0.59646,-0.907662 0.0908,-0.356582 0.0843,-1.497643 -0.76503,0.901179 -1.90609,0.901179 -1.41985,0 -2.19784,-1.024361 -0.778,-1.024362 -0.778,-2.457171 0,-0.985462 0.35658,-1.815324 0.35658,-0.836346 1.03085,-1.290177 0.68074,-0.453831 1.59489,-0.453831 1.21886,0 2.00982,0.985461 v -0.829862 h 1.07623 v 5.95167 q 0,1.607858 -0.33065,2.275638 -0.32416,0.674264 -1.03733,1.063262 -0.70668,0.388998 -1.744,0.388998 -1.23183,0 -1.99038,-0.557564 -0.75854,-0.551081 -0.73261,-1.666208 z m 0.96601,-4.136346 q 0,1.35501 0.53811,1.977406 0.53812,0.622397 1.34853,0.622397 0.80393,0 1.34853,-0.615913 0.54459,-0.622397 0.54459,-1.94499 0,-1.264244 -0.56404,-1.906091 -0.55757,-0.641847 -1.34853,-0.641847 -0.77799,0 -1.32259,0.635364 -0.5446,0.62888 -0.5446,1.873674 z m 6.63242,3.565815 v -9.504519 h 1.16699 v 3.410217 q 0.8169,-0.946562 2.06169,-0.946562 0.76503,0 1.32908,0.304715 0.56404,0.298232 0.80393,0.829862 0.24636,0.531631 0.24636,1.543026 v 4.363261 h -1.16699 V 68.33701 q 0,-0.875246 -0.38252,-1.270727 -0.37603,-0.401965 -1.06974,-0.401965 -0.51867,0 -0.97898,0.272299 -0.45383,0.265815 -0.64833,0.72613 -0.1945,0.460314 -0.1945,1.270726 v 3.766798 z m 9.93241,-1.043811 0.16857,1.030844 q -0.49273,0.103733 -0.88173,0.103733 -0.63536,0 -0.98546,-0.200982 -0.3501,-0.200982 -0.49273,-0.525147 -0.14263,-0.330649 -0.14263,-1.380943 v -3.961297 h -0.8558 v -0.907662 h 0.8558 v -1.705108 l 1.16051,-0.700197 v 2.405305 h 1.17347 v 0.907662 h -1.17347 v 4.02613 q 0,0.499214 0.0584,0.641846 0.0648,0.142633 0.20098,0.226916 0.14263,0.08428 0.40196,0.08428 0.1945,0 0.51218,-0.04538 z"
       id="flowRoot4053"
       transform="matrix(1.6568991,0,0,1.6568991,-0.39356,139.35914)"
       aria-label="Weight" />
    <path
       style="font-size:13.2778px;line-height:1.25;font-family:'Liberation Sans';-inkscape-font-specification:'Liberation Sans, Normal';text-align:center;text-anchor:middle;fill:#555753"
       d="m 115.50888,90.80574 v -2.275639 h -4.12337 v -1.069744 l 4.33732,-6.159136 h 0.95305 v 6.159136 h 1.28369 v 1.069744 h -1.28369 v 2.275639 z m 0,-3.345383 v -4.285462 l -2.97583,4.285462 z"
       id="flowRoot4061"
       transform="matrix(1.6568991,0,0,1.6568991,-0.39356,139.35914)"
       aria-label="4" />
    <rect
       ry="5"
       rx="4.9999986"
       y="460.5"
       x="50.500183"
       height="29"
       width="189"
       id="rect4069"
       style="fill:#fce94f;stroke:#c4a000;stroke-width:0.99999982;stroke-linecap:round;stroke-linejoin:round;stroke-miterlimit:4;stroke-dasharray:none;display:inline" />
    <path
       style="font-size:13.2778px;line-height:1.25;font-family:'Liberation Sans';-inkscape-font-specification:'Liberation Sans, Normal';text-align:center;text-anchor:middle"
       d="m 118.27385,69.367855 1.25776,0.317681 q -0.39548,1.549509 -1.42633,2.366405 -1.02436,0.810413 -2.50903,0.810413 -1.53655,0 -2.50256,-0.622397 -0.95953,-0.62888 -1.46522,-1.815324 -0.49922,-1.186444 -0.49922,-2.547938 0,-1.484675 0.56405,-2.586836 0.57053,-1.108645 1.61434,-1.679175 1.0503,-0.577014 2.30806,-0.577014 1.42632,0 2.39882,0.72613 0.97249,0.726129 1.35501,2.042239 l -1.23831,0.291749 q -0.33065,-1.037328 -0.95953,-1.510609 -0.62888,-0.473281 -1.58193,-0.473281 -1.09567,0 -1.83477,0.525147 -0.73261,0.525148 -1.03085,1.41336 -0.29823,0.881729 -0.29823,1.821807 0,1.212377 0.3501,2.120039 0.35658,0.901179 1.10216,1.348527 0.74558,0.447348 1.61434,0.447348 1.05678,0 1.78939,-0.609431 0.73262,-0.60943 0.99195,-1.80884 z m 2.22377,-0.110217 q 0,-1.912573 1.06326,-2.833202 0.88822,-0.765029 2.16543,-0.765029 1.41984,0 2.32102,0.933595 0.90118,0.927112 0.90118,2.567387 0,1.329077 -0.40197,2.094106 -0.39548,0.758546 -1.16051,1.179961 -0.75855,0.421414 -1.65972,0.421414 -1.44578,0 -2.34048,-0.927112 -0.88821,-0.927112 -0.88821,-2.67112 z m 1.19941,0 q 0,1.322594 0.57702,1.98389 0.57701,0.654814 1.45226,0.654814 0.86876,0 1.44577,-0.661297 0.57702,-0.661297 0.57702,-2.016306 0,-1.277211 -0.5835,-1.932024 -0.57702,-0.661297 -1.43929,-0.661297 -0.87525,0 -1.45226,0.654814 -0.57702,0.654813 -0.57702,1.977406 z m 6.61945,3.442633 v -6.885265 h 1.0503 v 0.978978 q 0.75854,-1.134577 2.19135,-1.134577 0.6224,0 1.14106,0.226915 0.52515,0.220432 0.78448,0.583497 0.25934,0.363065 0.36307,0.862279 0.0648,0.324165 0.0648,1.134578 v 4.233595 h -1.16699 v -4.188212 q 0,-0.713163 -0.13615,-1.063261 -0.13615,-0.356582 -0.48625,-0.564048 -0.34361,-0.213948 -0.81041,-0.213948 -0.74558,0 -1.29018,0.47328 -0.53811,0.473281 -0.53811,1.795875 v 3.760314 z m 6.91769,-2.055206 1.15402,-0.181533 q 0.0973,0.693714 0.53812,1.063262 0.44734,0.369548 1.24479,0.369548 0.80393,0 1.19293,-0.324165 0.389,-0.330649 0.389,-0.771513 0,-0.395481 -0.34362,-0.622397 -0.23988,-0.155599 -1.19293,-0.395481 -1.28369,-0.324165 -1.7829,-0.557564 -0.49274,-0.239882 -0.75207,-0.654813 -0.25285,-0.421415 -0.25285,-0.927112 0,-0.460315 0.20747,-0.849313 0.21395,-0.395481 0.57701,-0.654813 0.2723,-0.200982 0.7391,-0.337132 0.47328,-0.142632 1.01139,-0.142632 0.81042,0 1.41985,0.233398 0.61591,0.233399 0.90766,0.635364 0.29175,0.395481 0.40196,1.063261 l -1.14106,0.155599 q -0.0778,-0.53163 -0.45383,-0.829862 -0.36955,-0.298232 -1.05029,-0.298232 -0.80393,0 -1.14755,0.265815 -0.34361,0.265816 -0.34361,0.622397 0,0.226916 0.14263,0.408448 0.14263,0.188016 0.44735,0.311199 0.17505,0.06483 1.03084,0.298232 1.23831,0.330648 1.72456,0.544597 0.49273,0.207465 0.77151,0.60943 0.27879,0.401965 0.27879,0.998428 0,0.583497 -0.34362,1.102161 -0.33713,0.512181 -0.97898,0.797446 -0.64184,0.278782 -1.45226,0.278782 -1.34204,0 -2.04872,-0.557564 -0.7002,-0.557563 -0.89469,-1.653241 z m 9.65363,1.011395 0.16856,1.030844 q -0.49273,0.103733 -0.88172,0.103733 -0.63537,0 -0.98547,-0.200982 -0.35009,-0.200982 -0.49273,-0.525147 -0.14263,-0.330649 -0.14263,-1.380943 v -3.961297 h -0.8558 v -0.907662 h 0.8558 v -1.705108 l 1.16051,-0.700197 v 2.405305 h 1.17348 v 0.907662 h -1.17348 v 4.02613 q 0,0.499214 0.0584,0.641846 0.0648,0.142633 0.20098,0.226916 0.14264,0.08428 0.40197,0.08428 0.1945,0 0.51218,-0.04538 z m 1.12809,1.043811 v -6.885265 h 1.0503 v 1.043811 q 0.40196,-0.732613 0.73909,-0.966012 0.34362,-0.233398 0.75207,-0.233398 0.58998,0 1.19941,0.376031 l -0.40197,1.082711 q -0.4279,-0.252848 -0.85579,-0.252848 -0.38252,0 -0.68723,0.233398 -0.30472,0.226916 -0.43438,0.635364 -0.1945,0.622397 -0.1945,1.361493 v 3.604715 z m 8.92751,-0.849312 q -0.64833,0.55108 -1.25128,0.777996 -0.59646,0.226915 -1.28369,0.226915 -1.13458,0 -1.74401,-0.55108 -0.60943,-0.557564 -0.60943,-1.419843 0,-0.505698 0.22691,-0.920629 0.2334,-0.421414 0.60295,-0.674263 0.37603,-0.252849 0.84283,-0.382515 0.34362,-0.09077 1.03733,-0.175049 1.41336,-0.168566 2.08114,-0.401965 0.006,-0.239882 0.006,-0.304715 0,-0.713163 -0.33065,-1.004911 -0.44734,-0.395482 -1.32907,-0.395482 -0.82338,0 -1.21886,0.291749 -0.389,0.285265 -0.57702,1.017878 l -1.14106,-0.155599 q 0.1556,-0.732613 0.51218,-1.179961 0.35658,-0.453831 1.03085,-0.693713 0.67426,-0.246365 1.56247,-0.246365 0.88173,0 1.43281,0.207465 0.55108,0.207466 0.81041,0.525148 0.25934,0.311198 0.36307,0.790962 0.0583,0.298232 0.0583,1.076228 v 1.555992 q 0,1.627309 0.0713,2.06169 0.0778,0.427898 0.29823,0.823379 h -1.21886 q -0.18154,-0.363065 -0.2334,-0.849312 z m -0.0973,-2.606287 q -0.63537,0.259332 -1.90609,0.440864 -0.71965,0.103733 -1.01788,0.233399 -0.29823,0.129666 -0.46031,0.382515 -0.16209,0.246365 -0.16209,0.55108 0,0.466798 0.3501,0.777996 0.35658,0.311199 1.03733,0.311199 0.67426,0 1.19941,-0.291749 0.52515,-0.298231 0.77151,-0.810412 0.18802,-0.395482 0.18802,-1.166994 z m 2.99528,-4.706876 v -1.342044 h 1.167 v 1.342044 z m 0,8.162475 v -6.885265 h 1.167 v 6.885265 z m 2.94342,0 v -6.885265 h 1.0503 v 0.978978 q 0.75854,-1.134577 2.19135,-1.134577 0.6224,0 1.14106,0.226915 0.52515,0.220432 0.78448,0.583497 0.25933,0.363065 0.36307,0.862279 0.0648,0.324165 0.0648,1.134578 v 4.233595 h -1.16699 v -4.188212 q 0,-0.713163 -0.13615,-1.063261 -0.13615,-0.356582 -0.48625,-0.564048 -0.34362,-0.213948 -0.81041,-0.213948 -0.74558,0 -1.29018,0.47328 -0.53811,0.473281 -0.53811,1.795875 v 3.760314 z m 9.93242,-1.043811 0.16856,1.030844 q -0.49273,0.103733 -0.88172,0.103733 -0.63537,0 -0.98547,-0.200982 -0.35009,-0.200982 -0.49273,-0.525147 -0.14263,-0.330649 -0.14263,-1.380943 v -3.961297 h -0.8558 v -0.907662 h 0.8558 v -1.705108 l 1.16051,-0.700197 v 2.405305 h 1.17348 v 0.907662 h -1.17348 v 4.02613 q 0,0.499214 0.0583,0.641846 0.0648,0.142633 0.20098,0.226916 0.14264,0.08428 0.40197,0.08428 0.1945,0 0.51218,-0.04538 z m 5.1607,1.043811 v -1.329077 h 1.32908 v 1.329077 z m 3.68901,0 v -1.329077 h 1.32907 v 1.329077 z m 3.68899,0 v -1.329077 h 1.32908 v 1.329077 z"
       id="flowRoot4071"
       transform="matrix(1.6568991,0,0,1.6568991,-100.39356,359.35928)"
       aria-label="Constraint ..." />
    <path
       style="font-size:13.2778px;line-height:1.25;font-family:'Liberation Sans';-inkscape-font-specification:'Liberation Sans, Normal';text-align:center;text-anchor:middle;opacity:0.3"
       d="m 135.60389,72.700271 v -9.504519 h 3.58527 q 0.94656,0 1.44577,0.09077 0.7002,0.116699 1.17348,0.447347 0.47328,0.324165 0.75855,0.914146 0.29175,0.58998 0.29175,1.29666 0,1.212377 -0.77152,2.055206 -0.77151,0.836346 -2.78782,0.836346 h -2.43772 v 3.864047 z m 1.25776,-4.985658 h 2.45717 q 1.21886,0 1.73104,-0.453831 0.51219,-0.453831 0.51219,-1.27721 0,-0.596464 -0.30472,-1.017879 -0.29823,-0.427897 -0.79096,-0.564047 -0.31768,-0.08428 -1.17348,-0.08428 h -2.43124 z m 11.94224,4.136346 q -0.64833,0.55108 -1.25127,0.777996 -0.59647,0.226915 -1.2837,0.226915 -1.13458,0 -1.74401,-0.55108 -0.60943,-0.557564 -0.60943,-1.419843 0,-0.505698 0.22692,-0.920629 0.2334,-0.421414 0.60295,-0.674263 0.37603,-0.252849 0.84283,-0.382515 0.34361,-0.09077 1.03732,-0.175049 1.41336,-0.168566 2.08114,-0.401965 0.006,-0.239882 0.006,-0.304715 0,-0.713163 -0.33065,-1.004911 -0.44735,-0.395482 -1.32908,-0.395482 -0.82338,0 -1.21886,0.291749 -0.389,0.285265 -0.57701,1.017878 l -1.14106,-0.155599 q 0.1556,-0.732613 0.51218,-1.179961 0.35658,-0.453831 1.03084,-0.693713 0.67426,-0.246365 1.56248,-0.246365 0.88173,0 1.43281,0.207465 0.55108,0.207466 0.81041,0.525148 0.25933,0.311198 0.36306,0.790962 0.0583,0.298232 0.0583,1.076228 v 1.555992 q 0,1.627309 0.0713,2.06169 0.0778,0.427898 0.29823,0.823379 h -1.21886 q -0.18153,-0.363065 -0.2334,-0.849312 z m -0.0973,-2.606287 q -0.63536,0.259332 -1.90609,0.440864 -0.71964,0.103733 -1.01788,0.233399 -0.29823,0.129666 -0.46031,0.382515 -0.16208,0.246365 -0.16208,0.55108 0,0.466798 0.3501,0.777996 0.35658,0.311199 1.03732,0.311199 0.67427,0 1.19941,-0.291749 0.52515,-0.298231 0.77152,-0.810412 0.18801,-0.395482 0.18801,-1.166994 z m 2.97584,3.455599 v -6.885265 h 1.05029 v 1.043811 q 0.40197,-0.732613 0.7391,-0.966012 0.34361,-0.233398 0.75206,-0.233398 0.58998,0 1.19941,0.376031 l -0.40196,1.082711 q -0.4279,-0.252848 -0.8558,-0.252848 -0.38251,0 -0.68723,0.233398 -0.30471,0.226916 -0.43438,0.635364 -0.1945,0.622397 -0.1945,1.361493 v 3.604715 z m 9.14793,-2.217289 1.2059,0.149116 q -0.28527,1.056778 -1.05678,1.640275 -0.77151,0.583497 -1.97092,0.583497 -1.51061,0 -2.39882,-0.927112 -0.88173,-0.933595 -0.88173,-2.61277 0,-1.737524 0.89469,-2.697053 0.8947,-0.959528 2.32102,-0.959528 1.38095,0 2.25619,0.940078 0.87525,0.940079 0.87525,2.645187 0,0.103733 -0.006,0.311198 h -5.13478 q 0.0648,1.134578 0.64185,1.737525 0.57701,0.602947 1.43929,0.602947 0.64185,0 1.09568,-0.337132 0.45383,-0.337131 0.71964,-1.076228 z m -3.83163,-1.88664 h 3.8446 q -0.0778,-0.868762 -0.44086,-1.303144 -0.55757,-0.674263 -1.44578,-0.674263 -0.80393,0 -1.35501,0.538114 -0.5446,0.538114 -0.60295,1.439293 z m 9.05069,3.060118 0.16857,1.030844 q -0.49273,0.103733 -0.88173,0.103733 -0.63536,0 -0.98546,-0.200982 -0.3501,-0.200982 -0.49273,-0.525147 -0.14264,-0.330649 -0.14264,-1.380943 v -3.961297 h -0.85579 v -0.907662 h 0.85579 v -1.705108 l 1.16051,-0.700197 v 2.405305 h 1.17348 v 0.907662 h -1.17348 v 4.02613 q 0,0.499214 0.0583,0.641846 0.0648,0.142633 0.20099,0.226916 0.14263,0.08428 0.40196,0.08428 0.1945,0 0.51218,-0.04538 z m 0.70668,-2.398822 q 0,-1.912573 1.06326,-2.833202 0.88821,-0.765029 2.16542,-0.765029 1.41985,0 2.32103,0.933595 0.90118,0.927112 0.90118,2.567387 0,1.329077 -0.40197,2.094106 -0.39548,0.758546 -1.16051,1.179961 -0.75855,0.421414 -1.65973,0.421414 -1.44577,0 -2.34047,-0.927112 -0.88821,-0.927112 -0.88821,-2.67112 z m 1.19941,0 q 0,1.322594 0.57702,1.98389 0.57701,0.654814 1.45225,0.654814 0.86877,0 1.44578,-0.661297 0.57701,-0.661297 0.57701,-2.016306 0,-1.277211 -0.58349,-1.932024 -0.57702,-0.661297 -1.4393,-0.661297 -0.87524,0 -1.45225,0.654814 -0.57702,0.654813 -0.57702,1.977406 z"
       id="flowRoot4079"
       transform="matrix(1.6568991,0,0,1.6568991,-110.39356,49.359137)"
       aria-label="Pareto" />
    <rect
       ry="5"
       rx="4.999999"
       y="120.5"
       x="280.50018"
       height="389"
       width="449"
       id="rect3939"
       style="fill:#8ae234;stroke:#4e9a06;stroke-width:0.99999964;stroke-linecap:round;stroke-linejoin:round;stroke-miterlimit:4;stroke-dasharray:none;display:inline" />
    <path
       style="font-size:13.2778px;line-height:1.25;font-family:'Liberation Sans';-inkscape-font-specification:'Liberation Sans, Normal';text-align:center;text-anchor:middle"
       d="m 191.79962,69.646637 1.18644,-0.103733 q 0.0843,0.713163 0.389,1.173477 0.3112,0.453831 0.95953,0.739096 0.64833,0.278782 1.45874,0.278782 0.71965,0 1.27073,-0.213949 0.55108,-0.213949 0.8169,-0.583497 0.2723,-0.376031 0.2723,-0.816896 0,-0.447347 -0.25934,-0.777996 -0.25933,-0.337131 -0.85579,-0.564047 -0.38252,-0.149116 -1.69214,-0.460314 -1.30963,-0.317682 -1.83478,-0.596464 -0.68074,-0.356581 -1.01788,-0.881729 -0.33064,-0.53163 -0.33064,-1.186444 0,-0.719646 0.40844,-1.342043 0.40845,-0.62888 1.19293,-0.953045 0.78448,-0.324165 1.74401,-0.324165 1.05678,0 1.86071,0.343615 0.81041,0.337131 1.24479,0.998428 0.43438,0.661297 0.4668,1.497643 l -1.2059,0.09077 q -0.0973,-0.901179 -0.66129,-1.361493 -0.55757,-0.460315 -1.65325,-0.460315 -1.14106,0 -1.6662,0.421415 -0.51867,0.414931 -0.51867,1.004911 0,0.512181 0.36955,0.84283 0.36307,0.330648 1.89312,0.680746 1.53655,0.343615 2.10708,0.602947 0.82986,0.382515 1.22534,0.972495 0.39548,0.583497 0.39548,1.348527 0,0.758546 -0.43438,1.432809 -0.43438,0.66778 -1.25128,1.043811 -0.81041,0.369549 -1.82829,0.369549 -1.29017,0 -2.16542,-0.376032 -0.86876,-0.376031 -1.36798,-1.128094 -0.49273,-0.758546 -0.51866,-1.711591 z m 13.6279,0.53163 1.14754,0.149116 q -0.18801,1.186444 -0.96601,1.860707 -0.77151,0.66778 -1.89961,0.66778 -1.41336,0 -2.27563,-0.920628 -0.8558,-0.927112 -0.8558,-2.65167 0,-1.115128 0.36955,-1.951474 0.36955,-0.836346 1.12161,-1.251277 0.75854,-0.421414 1.64676,-0.421414 1.12161,0 1.83477,0.57053 0.71316,0.564047 0.91415,1.607859 l -1.13458,0.175049 q -0.16208,-0.693713 -0.57701,-1.043812 -0.40845,-0.350098 -0.99195,-0.350098 -0.88173,0 -1.43281,0.635364 -0.55108,0.62888 -0.55108,1.996856 0,1.387427 0.53163,2.016307 0.53163,0.62888 1.38743,0.62888 0.68723,0 1.14754,-0.421415 0.46032,-0.421414 0.5835,-1.29666 z m 1.71159,-0.920629 q 0,-1.912573 1.06326,-2.833202 0.88821,-0.765029 2.16542,-0.765029 1.41985,0 2.32103,0.933595 0.90117,0.927112 0.90117,2.567387 0,1.329077 -0.40196,2.094106 -0.39548,0.758546 -1.16051,1.179961 -0.75855,0.421414 -1.65973,0.421414 -1.44577,0 -2.34047,-0.927112 -0.88821,-0.927112 -0.88821,-2.67112 z m 1.19941,0 q 0,1.322594 0.57701,1.98389 0.57702,0.654814 1.45226,0.654814 0.86877,0 1.44578,-0.661297 0.57701,-0.661297 0.57701,-2.016306 0,-1.277211 -0.58349,-1.932024 -0.57702,-0.661297 -1.4393,-0.661297 -0.87524,0 -1.45226,0.654814 -0.57701,0.654813 -0.57701,1.977406 z m 6.60648,3.442633 v -6.885265 h 1.0503 v 1.043811 q 0.40196,-0.732613 0.73909,-0.966012 0.34362,-0.233398 0.75207,-0.233398 0.58998,0 1.19941,0.376031 l -0.40197,1.082711 q -0.42789,-0.252848 -0.85579,-0.252848 -0.38252,0 -0.68723,0.233398 -0.30472,0.226916 -0.43438,0.635364 -0.1945,0.622397 -0.1945,1.361493 v 3.604715 z m 9.14794,-2.217289 1.20589,0.149116 q -0.28526,1.056778 -1.05677,1.640275 -0.77152,0.583497 -1.97093,0.583497 -1.51061,0 -2.39882,-0.927112 -0.88173,-0.933595 -0.88173,-2.61277 0,-1.737524 0.8947,-2.697053 0.89469,-0.959528 2.32102,-0.959528 1.38094,0 2.25619,0.940078 0.87524,0.940079 0.87524,2.645187 0,0.103733 -0.006,0.311198 h -5.13477 q 0.0648,1.134578 0.64184,1.737525 0.57702,0.602947 1.4393,0.602947 0.64184,0 1.09567,-0.337132 0.45383,-0.337131 0.71965,-1.076228 z m -3.83163,-1.88664 h 3.8446 q -0.0778,-0.868762 -0.44087,-1.303144 -0.55756,-0.674263 -1.44577,-0.674263 -0.80393,0 -1.35501,0.538114 -0.5446,0.538114 -0.60295,1.439293 z m 10.16582,4.103929 v -9.504519 h 1.16699 v 9.504519 z m 7.68919,-2.217289 1.20589,0.149116 q -0.28526,1.056778 -1.05677,1.640275 -0.77152,0.583497 -1.97093,0.583497 -1.51061,0 -2.39882,-0.927112 -0.88173,-0.933595 -0.88173,-2.61277 0,-1.737524 0.8947,-2.697053 0.89469,-0.959528 2.32102,-0.959528 1.38094,0 2.25619,0.940078 0.87524,0.940079 0.87524,2.645187 0,0.103733 -0.006,0.311198 h -5.13477 q 0.0648,1.134578 0.64184,1.737525 0.57702,0.602947 1.4393,0.602947 0.64184,0 1.09567,-0.337132 0.45383,-0.337131 0.71965,-1.076228 z m -3.83163,-1.88664 h 3.8446 q -0.0778,-0.868762 -0.44087,-1.303144 -0.55756,-0.674263 -1.44577,-0.674263 -0.80393,0 -1.35501,0.538114 -0.5446,0.538114 -0.60295,1.439293 z m 8.41532,4.103929 -2.61925,-6.885265 h 1.23183 l 1.47819,4.123379 q 0.23988,0.66778 0.44086,1.387426 0.1556,-0.544597 0.43439,-1.309626 l 1.53005,-4.201179 h 1.19942 l -2.60629,6.885265 z m 9.43969,-2.217289 1.20589,0.149116 q -0.28526,1.056778 -1.05677,1.640275 -0.77152,0.583497 -1.97093,0.583497 -1.51061,0 -2.39882,-0.927112 -0.88173,-0.933595 -0.88173,-2.61277 0,-1.737524 0.8947,-2.697053 0.89469,-0.959528 2.32102,-0.959528 1.38094,0 2.25619,0.940078 0.87524,0.940079 0.87524,2.645187 0,0.103733 -0.006,0.311198 h -5.13477 q 0.0648,1.134578 0.64184,1.737525 0.57702,0.602947 1.4393,0.602947 0.64184,0 1.09567,-0.337132 0.45384,-0.337131 0.71965,-1.076228 z m -3.83163,-1.88664 h 3.8446 q -0.0778,-0.868762 -0.44087,-1.303144 -0.55756,-0.674263 -1.44577,-0.674263 -0.80393,0 -1.35501,0.538114 -0.5446,0.538114 -0.60295,1.439293 z m 6.47682,4.103929 v -9.504519 h 1.16699 v 9.504519 z m 10.73634,0 h -1.16699 v -7.436346 q -0.42142,0.401965 -1.10865,0.80393 -0.68074,0.401964 -1.22534,0.602947 v -1.128095 q 0.97898,-0.460314 1.71159,-1.115127 0.73261,-0.654814 1.03733,-1.270727 h 0.75206 z"
       id="flowRoot3941"
       transform="matrix(1.6568991,0,0,1.6568991,129.60644,19.35914)"
       aria-label="Score level 1" />
    <rect
       style="fill:#8ae234;stroke:#4e9a06;stroke-width:0.99999958;stroke-linecap:round;stroke-linejoin:round;stroke-miterlimit:4;stroke-dasharray:none;display:inline"
       id="rect4087"
       width="19"
       height="389"
       x="750.50006"
       y="120.5"
       rx="4.9999995"
       ry="5" />
    <path
       style="font-size:13.2778px;line-height:1.25;font-family:'Liberation Sans';-inkscape-font-specification:'Liberation Sans, Normal';text-align:center;text-anchor:middle"
       d="m 86.439975,72.700271 v -1.329077 h 1.329077 v 1.329077 z m 3.688998,0 v -1.329077 h 1.329077 v 1.329077 z m 3.688998,0 v -1.329077 h 1.329077 v 1.329077 z"
       id="flowRoot4089"
       transform="matrix(1.6568991,0,0,1.6568991,609.60644,19.35914)"
       aria-label="..." />
    <path
       style="font-size:13.2778px;line-height:1.25;font-family:'Liberation Sans';-inkscape-font-specification:'Liberation Sans, Normal';text-align:center;text-anchor:middle"
       d="m 143.24144,72.862354 2.7554,-9.828684 h 0.9336 l -2.74892,9.828684 z"
       id="flowRoot3949"
       transform="matrix(1.6568991,0,0,1.6568991,29.606077,209.14438)"
       aria-label="/" />
    <path
       style="font-size:13.2778px;line-height:1.25;font-family:'Liberation Sans';-inkscape-font-specification:'Liberation Sans, Normal';text-align:center;text-anchor:middle"
       d="m 143.24144,72.862354 2.7554,-9.828684 h 0.9336 l -2.74892,9.828684 z"
       id="flowRoot4097"
       transform="matrix(1.6568991,0,0,1.6568991,499.6059,209.14438)"
       aria-label="/" />
    <path
       style="font-size:13.2778px;line-height:1.25;font-family:'Liberation Sans';-inkscape-font-specification:'Liberation Sans, Normal';text-align:center;text-anchor:middle;fill:#555753"
       d="M 105.73531,87.953088 V 86.77961 h 3.58526 v 1.173478 z m 4.55776,0.343615 1.16699,-0.1556 q 0.20099,0.991945 0.68075,1.43281 0.48625,0.434381 1.17996,0.434381 0.82338,0 1.38743,-0.570531 0.57053,-0.57053 0.57053,-1.413359 0,-0.803929 -0.52515,-1.322593 -0.52515,-0.525148 -1.33556,-0.525148 -0.33065,0 -0.82338,0.129666 l 0.12967,-1.024361 q 0.1167,0.01297 0.18801,0.01297 0.74558,0 1.34205,-0.388998 0.59646,-0.388998 0.59646,-1.19941 0,-0.641847 -0.43438,-1.063262 -0.43438,-0.421414 -1.12161,-0.421414 -0.68075,0 -1.13458,0.427898 -0.45383,0.427898 -0.5835,1.283693 l -1.16699,-0.207465 q 0.21395,-1.173478 0.97249,-1.815325 0.75855,-0.64833 1.88664,-0.64833 0.778,0 1.43281,0.337132 0.65482,0.330648 0.99843,0.907662 0.3501,0.577014 0.3501,1.225344 0,0.615913 -0.33065,1.121611 -0.33065,0.505697 -0.97898,0.803929 0.84283,0.194499 1.30963,0.810413 0.4668,0.60943 0.4668,1.530059 0,1.244793 -0.90766,2.113556 -0.90767,0.862279 -2.29509,0.862279 -1.25128,0 -2.08114,-0.74558 -0.82338,-0.745579 -0.94008,-1.932023 z m 11.11886,2.509037 v -2.275639 h -4.12338 v -1.069744 l 4.33733,-6.159136 h 0.95304 v 6.159136 h 1.2837 v 1.069744 h -1.2837 v 2.275639 z m 0,-3.345383 v -4.285462 l -2.97583,4.285462 z"
       id="flowRoot4130"
       transform="matrix(1.6568991,0,0,1.6568991,-45.22578,409.35916)"
       aria-label="-34" />
    <path
       style="font-size:13.2778px;line-height:1.25;font-family:'Liberation Sans';-inkscape-font-specification:'Liberation Sans, Normal';text-align:center;text-anchor:middle;fill:#555753"
       d="m 143.24144,121.14556 2.7554,-9.82869 h 0.9336 l -2.74892,9.82869 z"
       id="flowRoot4138"
       transform="matrix(1.6568991,0,0,1.6568991,29.606077,359.35916)"
       aria-label="/" />
    <path
       style="font-size:13.2778px;line-height:1.25;font-family:'Liberation Sans';-inkscape-font-specification:'Liberation Sans, Normal';text-align:center;text-anchor:middle;fill:#555753"
       d="m 86.439975,211.51472 v -1.32907 h 1.329077 v 1.32907 z m 3.688998,0 v -1.32907 h 1.329077 v 1.32907 z m 3.688998,0 v -1.32907 h 1.329077 v 1.32907 z"
       id="flowRoot4178"
       transform="matrix(1.6568991,0,0,1.6568991,609.60644,209.35916)"
       aria-label="..." />
    <path
       style="font-size:13.2778px;line-height:1.25;font-family:'Liberation Sans';-inkscape-font-specification:'Liberation Sans, Normal';text-align:center;text-anchor:middle;fill:#555753"
       d="m 143.24242,121.14556 2.7554,-9.82869 h 0.93359 l -2.74892,9.82869 z"
       id="flowRoot4186"
       transform="matrix(1.6568991,0,0,1.6568991,499.6059,359.35916)"
       aria-label="/" />
    <path
       style="font-size:10.8637px;line-height:1.25;font-family:'Liberation Sans';-inkscape-font-specification:'Liberation Sans, Normal';text-align:center;text-anchor:middle;fill:#555753"
       d="m 96.962436,68.027321 0.970731,-0.08487 q 0.06896,0.583499 0.318273,0.960122 0.254618,0.371317 0.785072,0.604717 0.530454,0.228096 1.193518,0.228096 0.58881,0 1.03969,-0.17505 0.45089,-0.17505 0.66838,-0.477409 0.22279,-0.307663 0.22279,-0.668372 0,-0.366014 -0.21219,-0.636545 -0.21218,-0.275836 -0.70019,-0.461495 -0.31297,-0.122005 -1.38449,-0.376623 -1.071517,-0.259922 -1.501185,-0.488017 -0.556977,-0.29175 -0.832813,-0.721418 -0.270532,-0.434972 -0.270532,-0.970731 0,-0.588804 0.334186,-1.09804 0.334187,-0.51454 0.976036,-0.779767 0.641849,-0.265227 1.426922,-0.265227 0.864636,0 1.522406,0.28114 0.66306,0.275836 1.01847,0.8169 0.3554,0.541063 0.38193,1.225348 l -0.98665,0.07426 q -0.0796,-0.737331 -0.54106,-1.113954 -0.45619,-0.376622 -1.35266,-0.376622 -0.933599,0 -1.363267,0.344795 -0.424363,0.339491 -0.424363,0.822204 0,0.419059 0.302358,0.68959 0.297055,0.270532 1.548922,0.556977 1.25718,0.281141 1.72398,0.493322 0.67898,0.312968 1.00256,0.795682 0.32358,0.477408 0.32358,1.103344 0,0.620631 -0.35541,1.172304 -0.3554,0.546367 -1.02378,0.854031 -0.66306,0.302359 -1.49588,0.302359 -1.055599,0 -1.771712,-0.307664 -0.710809,-0.307663 -1.119259,-0.92299 -0.403145,-0.620631 -0.424363,-1.400399 z m 7.452884,2.498439 v -7.776457 h 0.95481 v 7.776457 z m 6.29118,-1.814153 0.98665,0.122005 q -0.2334,0.86464 -0.86464,1.342048 -0.63124,0.477409 -1.61258,0.477409 -1.23596,0 -1.96268,-0.758549 -0.72142,-0.763854 -0.72142,-2.13773 0,-1.421617 0.73202,-2.206689 0.73203,-0.785072 1.89903,-0.785072 1.12987,0 1.84598,0.769158 0.71611,0.769159 0.71611,2.164253 0,0.08487 -0.005,0.254618 h -4.2012 q 0.0531,0.928294 0.52515,1.421617 0.47211,0.493322 1.17761,0.493322 0.52515,0 0.89647,-0.275836 0.37132,-0.275836 0.5888,-0.880554 z m -3.13498,-1.543621 h 3.14559 q -0.0637,-0.710809 -0.36071,-1.066213 -0.45619,-0.551672 -1.18291,-0.551672 -0.65776,0 -1.10865,0.440277 -0.44558,0.440276 -0.49332,1.177608 z m 9.17685,1.543621 0.98665,0.122005 q -0.2334,0.86464 -0.86464,1.342048 -0.63124,0.477409 -1.61258,0.477409 -1.23596,0 -1.96268,-0.758549 -0.72142,-0.763854 -0.72142,-2.13773 0,-1.421617 0.73203,-2.206689 0.73202,-0.785072 1.89902,-0.785072 1.12987,0 1.84598,0.769158 0.71612,0.769159 0.71612,2.164253 0,0.08487 -0.005,0.254618 h -4.2012 q 0.053,0.928294 0.52515,1.421617 0.47211,0.493322 1.17761,0.493322 0.52515,0 0.89647,-0.275836 0.37132,-0.275836 0.5888,-0.880554 z m -3.13498,-1.543621 h 3.14559 q -0.0636,-0.710809 -0.36071,-1.066213 -0.45619,-0.551672 -1.18291,-0.551672 -0.65776,0 -1.10865,0.440277 -0.44558,0.440276 -0.49332,1.177608 z m 5.32045,5.516722 v -7.79237 h 0.86995 v 0.732026 q 0.30766,-0.429668 0.69489,-0.641849 0.38724,-0.217486 0.93891,-0.217486 0.72142,0 1.27309,0.371317 0.55167,0.371318 0.83281,1.0503 0.28114,0.673676 0.28114,1.479967 0,0.86464 -0.31297,1.559535 -0.30766,0.68959 -0.90177,1.060908 -0.5888,0.366013 -1.24126,0.366013 -0.47741,0 -0.85934,-0.201572 -0.37662,-0.201573 -0.62063,-0.509236 v 2.742447 z m 0.86464,-4.943832 q 0,1.087431 0.44028,1.607276 0.44028,0.519845 1.06621,0.519845 0.63655,0 1.08743,-0.535759 0.4562,-0.541063 0.4562,-1.67093 0,-1.076822 -0.44559,-1.61258 -0.44027,-0.535759 -1.0556,-0.535759 -0.61002,0 -1.08213,0.57289 -0.4668,0.567586 -0.4668,1.655017 z m 4.80592,0.450886 V 67.23164 h 2.93341 v 0.960122 z m 7.64384,2.333998 v -0.710808 q -0.53576,0.838117 -1.57545,0.838117 -0.67367,0 -1.24126,-0.371318 -0.56228,-0.371318 -0.87525,-1.034385 -0.30766,-0.668372 -0.30766,-1.533013 0,-0.843422 0.28114,-1.527707 0.28114,-0.689591 0.84342,-1.055604 0.56228,-0.366013 1.25718,-0.366013 0.50923,0 0.90707,0.217486 0.39784,0.212181 0.64716,0.556977 v -2.790189 h 0.94951 v 7.776457 z m -3.01828,-2.811407 q 0,1.082127 0.45619,1.617885 0.45619,0.535759 1.07682,0.535759 0.62594,0 1.06091,-0.509236 0.44028,-0.51454 0.44028,-1.564839 0,-1.15639 -0.44559,-1.697454 -0.44558,-0.541063 -1.09804,-0.541063 -0.63654,0 -1.06621,0.519845 -0.42436,0.519845 -0.42436,1.639103 z m 9.26173,0.997254 0.98664,0.122005 q -0.2334,0.86464 -0.86464,1.342048 -0.63124,0.477409 -1.61258,0.477409 -1.23596,0 -1.96268,-0.758549 -0.72142,-0.763854 -0.72142,-2.13773 0,-1.421617 0.73203,-2.206689 0.73203,-0.785072 1.89903,-0.785072 1.12986,0 1.84598,0.769158 0.71611,0.769159 0.71611,2.164253 0,0.08487 -0.005,0.254618 h -4.2012 q 0.053,0.928294 0.52515,1.421617 0.4721,0.493322 1.17761,0.493322 0.52515,0 0.89646,-0.275836 0.37132,-0.275836 0.58881,-0.880554 z m -3.13499,-1.543621 h 3.1456 q -0.0637,-0.710809 -0.36071,-1.066213 -0.45619,-0.551672 -1.18291,-0.551672 -0.65777,0 -1.10865,0.440277 -0.44558,0.440276 -0.49333,1.177608 z m 5.32046,5.516722 v -7.79237 h 0.86994 v 0.732026 q 0.30767,-0.429668 0.6949,-0.641849 0.38723,-0.217486 0.9389,-0.217486 0.72142,0 1.27309,0.371317 0.55167,0.371318 0.83281,1.0503 0.28114,0.673676 0.28114,1.479967 0,0.86464 -0.31296,1.559535 -0.30767,0.68959 -0.90178,1.060908 -0.5888,0.366013 -1.24126,0.366013 -0.47741,0 -0.85933,-0.201572 -0.37663,-0.201573 -0.62064,-0.509236 v 2.742447 z m 0.86464,-4.943832 q 0,1.087431 0.44027,1.607276 0.44028,0.519845 1.06622,0.519845 0.63654,0 1.08743,-0.535759 0.45619,-0.541063 0.45619,-1.67093 0,-1.076822 -0.44558,-1.61258 -0.44028,-0.535759 -1.05561,-0.535759 -0.61002,0 -1.08212,0.57289 -0.4668,0.567586 -0.4668,1.655017 z m 5.16662,2.784884 v -5.633422 h 0.85934 v 0.854031 q 0.32888,-0.599413 0.60472,-0.790377 0.28114,-0.190963 0.61532,-0.190963 0.48272,0 0.98134,0.307663 l -0.32888,0.885858 q -0.3501,-0.206877 -0.7002,-0.206877 -0.31297,0 -0.56228,0.190964 -0.24931,0.185659 -0.3554,0.519845 -0.15914,0.509236 -0.15914,1.113953 v 2.949325 z m 3.63361,-6.678417 v -1.09804 h 0.95482 v 1.09804 z m 0,6.678417 v -5.633422 h 0.95482 v 5.633422 z m 3.9731,0 -2.14303,-5.633422 h 1.00786 l 1.20944,3.373688 q 0.19626,0.546367 0.3607,1.135171 0.12731,-0.445581 0.35541,-1.071517 l 1.25187,-3.437342 h 0.98134 l -2.13243,5.633422 z m 7.72341,-1.814153 0.98665,0.122005 q -0.2334,0.86464 -0.86464,1.342048 -0.63124,0.477409 -1.61258,0.477409 -1.23596,0 -1.96268,-0.758549 -0.72142,-0.763854 -0.72142,-2.13773 0,-1.421617 0.73203,-2.206689 0.73202,-0.785072 1.89902,-0.785072 1.12987,0 1.84598,0.769158 0.71612,0.769159 0.71612,2.164253 0,0.08487 -0.005,0.254618 h -4.20119 q 0.053,0.928294 0.52514,1.421617 0.47211,0.493322 1.17761,0.493322 0.52515,0 0.89647,-0.275836 0.37132,-0.275836 0.5888,-0.880554 z m -3.13498,-1.543621 h 3.14559 q -0.0636,-0.710809 -0.36071,-1.066213 -0.45619,-0.551672 -1.18291,-0.551672 -0.65776,0 -1.10865,0.440277 -0.44558,0.440276 -0.49332,1.177608 z m 8.97529,3.357774 v -0.710808 q -0.53576,0.838117 -1.57545,0.838117 -0.67368,0 -1.24127,-0.371318 -0.56228,-0.371318 -0.87525,-1.034385 -0.30766,-0.668372 -0.30766,-1.533013 0,-0.843422 0.28114,-1.527707 0.28114,-0.689591 0.84342,-1.055604 0.56229,-0.366013 1.25718,-0.366013 0.50924,0 0.90708,0.217486 0.39784,0.212181 0.64715,0.556977 v -2.790189 h 0.94951 v 7.776457 z m -3.01829,-2.811407 q 0,1.082127 0.45619,1.617885 0.45619,0.535759 1.07682,0.535759 0.62594,0 1.06091,-0.509236 0.44028,-0.51454 0.44028,-1.564839 0,-1.15639 -0.44558,-1.697454 -0.44558,-0.541063 -1.09804,-0.541063 -0.63655,0 -1.06622,0.519845 -0.42436,0.519845 -0.42436,1.639103 z M 176.939,70.52576 v -0.710808 q -0.53576,0.838117 -1.57545,0.838117 -0.67367,0 -1.24126,-0.371318 -0.56228,-0.371318 -0.87525,-1.034385 -0.30766,-0.668372 -0.30766,-1.533013 0,-0.843422 0.28114,-1.527707 0.28114,-0.689591 0.84342,-1.055604 0.56228,-0.366013 1.25718,-0.366013 0.50923,0 0.90707,0.217486 0.39785,0.212181 0.64716,0.556977 v -2.790189 h 0.94951 v 7.776457 z m -3.01828,-2.811407 q 0,1.082127 0.45619,1.617885 0.45619,0.535759 1.07682,0.535759 0.62594,0 1.06091,-0.509236 0.44028,-0.51454 0.44028,-1.564839 0,-1.15639 -0.44558,-1.697454 -0.44559,-0.541063 -1.09804,-0.541063 -0.63655,0 -1.06622,0.519845 -0.42436,0.519845 -0.42436,1.639103 z m 5.39472,2.811407 v -5.633422 h 0.85933 v 0.854031 q 0.32888,-0.599413 0.60472,-0.790377 0.28114,-0.190963 0.61533,-0.190963 0.48271,0 0.98134,0.307663 l -0.32889,0.885858 q -0.3501,-0.206877 -0.7002,-0.206877 -0.31296,0 -0.56228,0.190964 -0.24931,0.185659 -0.3554,0.519845 -0.15914,0.509236 -0.15914,1.113953 v 2.949325 z m 3.63361,-6.678417 v -1.09804 h 0.95482 v 1.09804 z m 0,6.678417 v -5.633422 h 0.95482 v 5.633422 z m 3.97309,0 -2.14303,-5.633422 h 1.00786 l 1.20944,3.373688 q 0.19626,0.546367 0.3607,1.135171 0.12731,-0.445581 0.35541,-1.071517 l 1.25187,-3.437342 h 0.98134 l -2.13243,5.633422 z m 7.72342,-1.814153 0.98664,0.122005 q -0.2334,0.86464 -0.86464,1.342048 -0.63124,0.477409 -1.61258,0.477409 -1.23596,0 -1.96268,-0.758549 -0.72142,-0.763854 -0.72142,-2.13773 0,-1.421617 0.73203,-2.206689 0.73203,-0.785072 1.89903,-0.785072 1.12986,0 1.84598,0.769158 0.71611,0.769159 0.71611,2.164253 0,0.08487 -0.005,0.254618 h -4.2012 q 0.053,0.928294 0.52515,1.421617 0.4721,0.493322 1.17761,0.493322 0.52515,0 0.89646,-0.275836 0.37132,-0.275836 0.58881,-0.880554 z m -3.13499,-1.543621 h 3.1456 q -0.0637,-0.710809 -0.36071,-1.066213 -0.45619,-0.551672 -1.18291,-0.551672 -0.65777,0 -1.10865,0.440277 -0.44559,0.440276 -0.49333,1.177608 z m 5.30985,3.357774 v -5.633422 h 0.85933 v 0.854031 q 0.32888,-0.599413 0.60472,-0.790377 0.28114,-0.190963 0.61533,-0.190963 0.48271,0 0.98134,0.307663 l -0.32888,0.885858 q -0.3501,-0.206877 -0.7002,-0.206877 -0.31297,0 -0.56228,0.190964 -0.24932,0.185659 -0.35541,0.519845 -0.15914,0.509236 -0.15914,1.113953 v 2.949325 z"
       id="flowRoot4256"
       transform="matrix(1.6568991,0,0,1.6568991,-100.39356,249.35914)"
       aria-label="Sleep-deprived driver" />
    <path
       style="font-size:10.8637px;line-height:1.25;font-family:'Liberation Sans';-inkscape-font-specification:'Liberation Sans, Normal';text-align:center;text-anchor:middle;fill:#555753"
       d="m 109.0727,66.738318 q 0,-1.936158 1.03969,-3.028893 1.03969,-1.09804 2.6841,-1.09804 1.07682,0 1.94146,0.51454 0.86464,0.514541 1.31553,1.437531 0.45619,0.917686 0.45619,2.084685 0,1.182912 -0.47741,2.116512 -0.47741,0.933599 -1.35266,1.416312 -0.87525,0.477409 -1.88841,0.477409 -1.09804,0 -1.96268,-0.530454 -0.86464,-0.530455 -1.31023,-1.44814 -0.44558,-0.917686 -0.44558,-1.941462 z m 1.06091,0.01591 q 0,1.405704 0.75325,2.217299 0.75855,0.80629 1.89902,0.80629 1.1617,0 1.90964,-0.816899 0.75324,-0.8169 0.75324,-2.318085 0,-0.949513 -0.32358,-1.655017 -0.31827,-0.710808 -0.9389,-1.09804 -0.61533,-0.392536 -1.38448,-0.392536 -1.09274,0 -1.88312,0.753245 -0.78507,0.74794 -0.78507,2.503743 z m 9.14503,3.771529 -2.14304,-5.633422 h 1.00787 l 1.20943,3.373688 q 0.19627,0.546367 0.36071,1.135171 0.12731,-0.445581 0.35541,-1.071517 l 1.25187,-3.437342 h 0.98134 l -2.13243,5.633422 z m 7.72341,-1.814153 0.98665,0.122005 q -0.2334,0.86464 -0.86464,1.342048 -0.63125,0.477409 -1.61259,0.477409 -1.23595,0 -1.96268,-0.758549 -0.72141,-0.763854 -0.72141,-2.13773 0,-1.421617 0.73202,-2.206689 0.73203,-0.785072 1.89903,-0.785072 1.12987,0 1.84598,0.769158 0.71611,0.769159 0.71611,2.164253 0,0.08487 -0.005,0.254618 h -4.2012 q 0.053,0.928294 0.52515,1.421617 0.47211,0.493322 1.17761,0.493322 0.52515,0 0.89647,-0.275836 0.37131,-0.275836 0.5888,-0.880554 z m -3.13498,-1.543621 h 3.14559 q -0.0636,-0.710809 -0.36071,-1.066213 -0.45619,-0.551672 -1.18291,-0.551672 -0.65776,0 -1.10865,0.440277 -0.44558,0.440276 -0.49332,1.177608 z m 5.30984,3.357774 v -5.633422 h 0.85934 v 0.854031 q 0.32888,-0.599413 0.60472,-0.790377 0.28114,-0.190963 0.61532,-0.190963 0.48272,0 0.98134,0.307663 l -0.32888,0.885858 q -0.3501,-0.206877 -0.7002,-0.206877 -0.31297,0 -0.56228,0.190964 -0.24931,0.185659 -0.3554,0.519845 -0.15914,0.509236 -0.15914,1.113953 v 2.949325 z m 3.60709,0 v -7.776457 h 0.95482 v 7.776457 z m 2.07938,-2.816711 q 0,-1.56484 0.86995,-2.318085 0.72672,-0.625935 1.77171,-0.625935 1.1617,0 1.89903,0.763854 0.73733,0.758549 0.73733,2.100598 0,1.087431 -0.32888,1.713366 -0.32358,0.620632 -0.94952,0.965427 -0.62063,0.344795 -1.35796,0.344795 -1.18291,0 -1.91494,-0.758549 -0.72672,-0.75855 -0.72672,-2.185471 z m 0.98134,0 q 0,1.082126 0.4721,1.623189 0.47211,0.535759 1.18822,0.535759 0.71081,0 1.18291,-0.541063 0.47211,-0.541063 0.47211,-1.649712 0,-1.044995 -0.47741,-1.580754 -0.4721,-0.541063 -1.17761,-0.541063 -0.71611,0 -1.18822,0.535759 -0.4721,0.535759 -0.4721,1.617885 z m 9.09198,2.121816 q -0.53045,0.450886 -1.02377,0.636545 -0.48802,0.185659 -1.0503,0.185659 -0.9283,0 -1.42692,-0.450886 -0.49863,-0.45619 -0.49863,-1.161694 0,-0.413755 0.18566,-0.753245 0.19096,-0.344795 0.49332,-0.551672 0.30766,-0.206878 0.68959,-0.312968 0.28114,-0.07426 0.84873,-0.143223 1.15639,-0.137918 1.70276,-0.328881 0.005,-0.196269 0.005,-0.249314 0,-0.583499 -0.27053,-0.822204 -0.36601,-0.323577 -1.08743,-0.323577 -0.67368,0 -0.99726,0.238705 -0.31827,0.233399 -0.4721,0.832813 l -0.9336,-0.127309 q 0.12731,-0.599414 0.41906,-0.965427 0.29175,-0.371318 0.84342,-0.567586 0.55167,-0.201572 1.2784,-0.201572 0.72141,0 1.1723,0.169745 0.45089,0.169745 0.66307,0.429668 0.21218,0.254618 0.29705,0.647154 0.0477,0.244009 0.0477,0.880554 v 1.273089 q 0,1.33144 0.0583,1.686844 0.0637,0.3501 0.24401,0.673677 h -0.99725 q -0.14853,-0.297054 -0.19097,-0.694895 z m -0.0796,-2.132425 q -0.51985,0.212181 -1.55954,0.360709 -0.5888,0.08487 -0.83281,0.190963 -0.24401,0.106091 -0.37662,0.312968 -0.13262,0.201573 -0.13262,0.450886 0,0.381927 0.28645,0.636545 0.29175,0.254618 0.84872,0.254618 0.55168,0 0.98134,-0.238705 0.42967,-0.244008 0.63124,-0.663067 0.15384,-0.323577 0.15384,-0.954818 z m 6.10022,2.82732 v -0.710808 q -0.53576,0.838117 -1.57545,0.838117 -0.67368,0 -1.24126,-0.371318 -0.56228,-0.371318 -0.87525,-1.034385 -0.30766,-0.668372 -0.30766,-1.533013 0,-0.843422 0.28114,-1.527707 0.28114,-0.689591 0.84342,-1.055604 0.56228,-0.366013 1.25717,-0.366013 0.50924,0 0.90708,0.217486 0.39784,0.212181 0.64715,0.556977 v -2.790189 h 0.94952 v 7.776457 z m -3.01828,-2.811407 q 0,1.082127 0.45619,1.617885 0.45619,0.535759 1.07682,0.535759 0.62593,0 1.06091,-0.509236 0.44027,-0.51454 0.44027,-1.564839 0,-1.15639 -0.44558,-1.697454 -0.44558,-0.541063 -1.09804,-0.541063 -0.63654,0 -1.06621,0.519845 -0.42436,0.519845 -0.42436,1.639103 z m 9.26172,0.997254 0.98665,0.122005 q -0.2334,0.86464 -0.86464,1.342048 -0.63124,0.477409 -1.61258,0.477409 -1.23596,0 -1.96268,-0.758549 -0.72142,-0.763854 -0.72142,-2.13773 0,-1.421617 0.73203,-2.206689 0.73202,-0.785072 1.89902,-0.785072 1.12987,0 1.84598,0.769158 0.71611,0.769159 0.71611,2.164253 0,0.08487 -0.005,0.254618 h -4.2012 q 0.0531,0.928294 0.52515,1.421617 0.47211,0.493322 1.17761,0.493322 0.52515,0 0.89647,-0.275836 0.37132,-0.275836 0.5888,-0.880554 z m -3.13498,-1.543621 h 3.14559 q -0.0636,-0.710809 -0.36071,-1.066213 -0.45619,-0.551672 -1.18291,-0.551672 -0.65776,0 -1.10865,0.440277 -0.44558,0.440276 -0.49332,1.177608 z m 8.97528,3.357774 v -0.710808 q -0.53576,0.838117 -1.57545,0.838117 -0.67367,0 -1.24126,-0.371318 -0.56228,-0.371318 -0.87525,-1.034385 -0.30766,-0.668372 -0.30766,-1.533013 0,-0.843422 0.28114,-1.527707 0.28114,-0.689591 0.84342,-1.055604 0.56228,-0.366013 1.25718,-0.366013 0.50923,0 0.90708,0.217486 0.39784,0.212181 0.64715,0.556977 v -2.790189 h 0.94951 v 7.776457 z m -3.01828,-2.811407 q 0,1.082127 0.45619,1.617885 0.45619,0.535759 1.07682,0.535759 0.62594,0 1.06091,-0.509236 0.44028,-0.51454 0.44028,-1.564839 0,-1.15639 -0.44558,-1.697454 -0.44559,-0.541063 -1.09804,-0.541063 -0.63655,0 -1.06622,0.519845 -0.42436,0.519845 -0.42436,1.639103 z m 12.09966,2.116512 q -0.53046,0.450886 -1.02378,0.636545 -0.48802,0.185659 -1.0503,0.185659 -0.92829,0 -1.42692,-0.450886 -0.49863,-0.45619 -0.49863,-1.161694 0,-0.413755 0.18566,-0.753245 0.19096,-0.344795 0.49332,-0.551672 0.30767,-0.206878 0.68959,-0.312968 0.28114,-0.07426 0.84873,-0.143223 1.15639,-0.137918 1.70276,-0.328881 0.005,-0.196269 0.005,-0.249314 0,-0.583499 -0.27053,-0.822204 -0.36601,-0.323577 -1.08743,-0.323577 -0.67368,0 -0.99725,0.238705 -0.31828,0.233399 -0.47211,0.832813 l -0.9336,-0.127309 q 0.12731,-0.599414 0.41906,-0.965427 0.29175,-0.371318 0.84342,-0.567586 0.55168,-0.201572 1.2784,-0.201572 0.72142,0 1.1723,0.169745 0.45089,0.169745 0.66307,0.429668 0.21218,0.254618 0.29705,0.647154 0.0477,0.244009 0.0477,0.880554 v 1.273089 q 0,1.33144 0.0583,1.686844 0.0637,0.3501 0.24401,0.673677 h -0.99725 q -0.14853,-0.297054 -0.19096,-0.694895 z m -0.0796,-2.132425 q -0.51985,0.212181 -1.55954,0.360709 -0.5888,0.08487 -0.83281,0.190963 -0.24401,0.106091 -0.37662,0.312968 -0.13262,0.201573 -0.13262,0.450886 0,0.381927 0.28645,0.636545 0.29175,0.254618 0.84873,0.254618 0.55167,0 0.98134,-0.238705 0.42966,-0.244008 0.63124,-0.663067 0.15383,-0.323577 0.15383,-0.954818 z m 1.80884,2.82732 2.05817,-2.928107 -1.90433,-2.705315 h 1.19352 l 0.86464,1.32083 q 0.24401,0.376623 0.39253,0.631241 0.2334,-0.3501 0.42967,-0.620632 l 0.94951,-1.331439 h 1.14048 l -1.94677,2.65227 2.0953,2.981152 h -1.17231 l -1.15639,-1.750498 -0.30766,-0.472105 -1.47997,2.222603 z m 6.04718,0 v -7.776457 h 0.95482 v 7.776457 z m 6.29119,-1.814153 0.98665,0.122005 q -0.2334,0.86464 -0.86464,1.342048 -0.63124,0.477409 -1.61259,0.477409 -1.23595,0 -1.96268,-0.758549 -0.72141,-0.763854 -0.72141,-2.13773 0,-1.421617 0.73202,-2.206689 0.73203,-0.785072 1.89903,-0.785072 1.12987,0 1.84598,0.769158 0.71611,0.769159 0.71611,2.164253 0,0.08487 -0.005,0.254618 h -4.2012 q 0.053,0.928294 0.52515,1.421617 0.47211,0.493322 1.17761,0.493322 0.52515,0 0.89647,-0.275836 0.37131,-0.275836 0.5888,-0.880554 z m -3.13498,-1.543621 h 3.14559 q -0.0636,-0.710809 -0.36071,-1.066213 -0.45619,-0.551672 -1.18291,-0.551672 -0.65776,0 -1.10865,0.440277 -0.44558,0.440276 -0.49332,1.177608 z"
       id="flowRoot4264"
       transform="matrix(1.6568991,0,0,1.6568991,-100.39356,109.35914)"
       aria-label="Overloaded axle" />
  </g>
</svg>
