<?xml version="1.0" encoding="UTF-8" standalone="no"?>
<!-- Created with Inkscape (http://www.inkscape.org/) -->

<svg
   width="800"
   height="600"
   id="svg2"
   version="1.1"
   xmlns="http://www.w3.org/2000/svg"
   xmlns:svg="http://www.w3.org/2000/svg"
   xmlns:rdf="http://www.w3.org/1999/02/22-rdf-syntax-ns#"
   xmlns:cc="http://creativecommons.org/ns#"
   xmlns:dc="http://purl.org/dc/elements/1.1/">
  <defs
     id="defs4" />
  <metadata
     id="metadata7">
    <rdf:RDF>
      <cc:Work
         rdf:about="">
        <dc:format>image/svg+xml</dc:format>
        <dc:type
           rdf:resource="http://purl.org/dc/dcmitype/StillImage" />
        <dc:language>en</dc:language>
        <cc:license
           rdf:resource="https://timefold.ai/license" />
      </cc:Work>
    </rdf:RDF>
  </metadata>
  <g
     id="layer1"
     transform="translate(0,-452.36218)">
    <g
       id="g3709"
       transform="translate(0,19.999997)" />
    <flowRoot
       xml:space="preserve"
       id="flowRoot4157"
       style="font-style:normal;font-weight:normal;line-height:0.01%;font-family:sans-serif;letter-spacing:0px;word-spacing:0px;fill:#000000;fill-opacity:1;stroke:none;stroke-width:1px;stroke-linecap:butt;stroke-linejoin:miter;stroke-opacity:1"><flowRegion
         id="flowRegion4159"
         style="font-family:sans-serif"><rect
           id="rect4161"
           width="10.955056"
           height="72.471909"
           x="16.011236"
           y="-53.932568" /></flowRegion><flowPara
         id="flowPara4163"
         style="font-size:40px;line-height:1.25;font-family:sans-serif"> </flowPara></flowRoot>
    <path
       style="font-size:16px;line-height:1.25;font-family:'Liberation Sans';-inkscape-font-specification:'Liberation Sans, Normal';text-align:center;text-anchor:middle"
       d="m 236.86719,150.39645 1.51562,0.38281 q -0.47656,1.86719 -1.71875,2.85156 -1.23437,0.97656 -3.02344,0.97656 -1.85156,0 -3.01562,-0.75 -1.15625,-0.75781 -1.76563,-2.1875 -0.60156,-1.42968 -0.60156,-3.07031 0,-1.78906 0.67969,-3.11719 0.6875,-1.33593 1.94531,-2.02343 1.26563,-0.69532 2.78125,-0.69532 1.71875,0 2.89063,0.875 1.17187,0.875 1.63281,2.46094 l -1.49219,0.35156 q -0.39844,-1.25 -1.15625,-1.82031 -0.75781,-0.57031 -1.90625,-0.57031 -1.32031,0 -2.21094,0.63281 -0.88281,0.63281 -1.24218,1.70313 -0.35938,1.0625 -0.35938,2.19531 0,1.46094 0.42188,2.55469 0.42968,1.08593 1.32812,1.625 0.89844,0.53906 1.94531,0.53906 1.27344,0 2.15625,-0.73438 0.88282,-0.73437 1.19532,-2.17968 z m 3.20312,4.01562 v -11.45312 h 1.40625 v 4.10937 q 0.98438,-1.14062 2.48438,-1.14062 0.92187,0 1.60156,0.36718 0.67969,0.35938 0.96875,1 0.29687,0.64063 0.29687,1.85938 v 5.25781 h -1.40625 v -5.25781 q 0,-1.05469 -0.46093,-1.53125 -0.45313,-0.48438 -1.28907,-0.48438 -0.625,0 -1.17968,0.32813 -0.54688,0.32031 -0.78125,0.875 -0.23438,0.55469 -0.23438,1.53125 v 4.53906 z m 8.375,-4.14844 q 0,-2.30468 1.28125,-3.41406 1.07031,-0.92187 2.60938,-0.92187 1.71093,0 2.79687,1.125 1.08594,1.11718 1.08594,3.09375 0,1.60156 -0.48438,2.52343 -0.47656,0.91407 -1.39843,1.42188 -0.91407,0.50781 -2,0.50781 -1.74219,0 -2.82032,-1.11719 -1.07031,-1.11718 -1.07031,-3.21875 z m 1.44531,0 q 0,1.59375 0.69532,2.39063 0.69531,0.78906 1.75,0.78906 1.04687,0 1.74218,-0.79687 0.69532,-0.79688 0.69532,-2.42969 0,-1.53906 -0.70313,-2.32813 -0.69531,-0.79687 -1.73437,-0.79687 -1.05469,0 -1.75,0.78906 -0.69532,0.78906 -0.69532,2.38281 z m 7.45313,0 q 0,-2.30468 1.28125,-3.41406 1.07031,-0.92187 2.60937,-0.92187 1.71094,0 2.79688,1.125 1.08594,1.11718 1.08594,3.09375 0,1.60156 -0.48438,2.52343 -0.47656,0.91407 -1.39844,1.42188 -0.91406,0.50781 -2,0.50781 -1.74218,0 -2.82031,-1.11719 -1.07031,-1.11718 -1.07031,-3.21875 z m 1.44531,0 q 0,1.59375 0.69531,2.39063 0.69532,0.78906 1.75,0.78906 1.04688,0 1.74219,-0.79687 0.69531,-0.79688 0.69531,-2.42969 0,-1.53906 -0.70312,-2.32813 -0.69531,-0.79687 -1.73438,-0.79687 -1.05468,0 -1.75,0.78906 -0.69531,0.78906 -0.69531,2.38281 z m 7.41406,1.67188 1.39063,-0.21875 q 0.11719,0.83594 0.64844,1.28125 0.53906,0.44531 1.5,0.44531 0.96875,0 1.4375,-0.39062 0.46875,-0.39844 0.46875,-0.92969 0,-0.47656 -0.41407,-0.75 -0.28906,-0.1875 -1.4375,-0.47656 -1.54687,-0.39063 -2.14843,-0.67188 -0.59375,-0.28906 -0.90625,-0.78906 -0.30469,-0.50781 -0.30469,-1.11719 0,-0.55469 0.25,-1.02344 0.25781,-0.47656 0.69531,-0.78906 0.32813,-0.24219 0.89063,-0.40625 0.57031,-0.17187 1.21875,-0.17187 0.97656,0 1.71093,0.28125 0.74219,0.28125 1.09375,0.76562 0.35157,0.47656 0.48438,1.28125 l -1.375,0.1875 q -0.0937,-0.64062 -0.54688,-1 -0.44531,-0.35937 -1.26562,-0.35937 -0.96875,0 -1.38281,0.32031 -0.41407,0.32031 -0.41407,0.75 0,0.27344 0.17188,0.49219 0.17187,0.22656 0.53906,0.375 0.21094,0.0781 1.24219,0.35937 1.49219,0.39844 2.07812,0.65625 0.59375,0.25 0.92969,0.73438 0.33594,0.48437 0.33594,1.20312 0,0.70313 -0.41406,1.32813 -0.40625,0.61718 -1.17969,0.96093 -0.77344,0.33594 -1.75,0.33594 -1.61719,0 -2.46875,-0.67187 -0.84375,-0.67188 -1.07813,-1.99219 z m 14.24219,-0.19531 1.45313,0.17968 q -0.34375,1.27344 -1.27344,1.97657 -0.92969,0.70312 -2.375,0.70312 -1.82031,0 -2.89063,-1.11719 -1.0625,-1.125 -1.0625,-3.14843 0,-2.09375 1.07813,-3.25 1.07812,-1.15625 2.79687,-1.15625 1.66407,0 2.71875,1.13281 1.05469,1.13281 1.05469,3.1875 0,0.125 -0.008,0.375 H 275.75 q 0.0781,1.36719 0.77344,2.09375 0.69531,0.72656 1.73437,0.72656 0.77344,0 1.32031,-0.40625 0.54688,-0.40625 0.86719,-1.29687 z m -4.61719,-2.27344 h 4.63282 q -0.0937,-1.04688 -0.53125,-1.57031 -0.67188,-0.8125 -1.74219,-0.8125 -0.96875,0 -1.63281,0.64843 -0.65625,0.64844 -0.72657,1.73438 z m 17.69532,3.92187 q -0.78125,0.66407 -1.50782,0.9375 -0.71875,0.27344 -1.54687,0.27344 -1.36719,0 -2.10156,-0.66406 -0.73438,-0.67188 -0.73438,-1.71094 0,-0.60937 0.27344,-1.10937 0.28125,-0.50782 0.72656,-0.8125 0.45313,-0.30469 1.01563,-0.46094 0.41406,-0.10938 1.25,-0.21094 1.70312,-0.20312 2.50781,-0.48437 0.008,-0.28907 0.008,-0.36719 0,-0.85938 -0.39844,-1.21094 -0.53906,-0.47656 -1.60156,-0.47656 -0.99219,0 -1.46875,0.35156 -0.46875,0.34375 -0.69531,1.22656 l -1.375,-0.1875 q 0.1875,-0.88281 0.61719,-1.42187 0.42968,-0.54688 1.24218,-0.83594 0.8125,-0.29687 1.88282,-0.29687 1.0625,0 1.72656,0.25 0.66406,0.25 0.97656,0.63281 0.3125,0.375 0.4375,0.95312 0.0703,0.35938 0.0703,1.29688 v 1.875 q 0,1.96094 0.0859,2.48437 0.0937,0.51563 0.35938,0.99219 h -1.46875 q -0.21875,-0.4375 -0.28125,-1.02344 z m -0.11719,-3.14062 q -0.76563,0.3125 -2.29688,0.53125 -0.86718,0.125 -1.22656,0.28125 -0.35937,0.15625 -0.55469,0.46094 -0.19531,0.29687 -0.19531,0.66406 0,0.5625 0.42188,0.9375 0.42968,0.375 1.25,0.375 0.8125,0 1.44531,-0.35156 0.63281,-0.35938 0.92969,-0.97657 0.22656,-0.47656 0.22656,-1.40625 z m 7.71094,0.48437 1.42968,-0.125 q 0.10157,0.85938 0.46875,1.41407 0.375,0.54687 1.15625,0.89062 0.78125,0.33594 1.75782,0.33594 0.86718,0 1.53125,-0.25781 0.66406,-0.25782 0.98437,-0.70313 0.32813,-0.45312 0.32813,-0.98437 0,-0.53907 -0.3125,-0.9375 -0.3125,-0.40625 -1.03125,-0.67969 -0.46094,-0.17969 -2.03907,-0.55469 -1.57812,-0.38281 -2.21093,-0.71875 -0.82032,-0.42969 -1.22657,-1.0625 -0.39843,-0.64062 -0.39843,-1.42969 0,-0.86718 0.49218,-1.61718 0.49219,-0.75782 1.4375,-1.14844 0.94532,-0.39063 2.10157,-0.39063 1.27343,0 2.24218,0.41407 0.97657,0.40625 1.5,1.20312 0.52344,0.79688 0.5625,1.80469 l -1.45312,0.10937 q -0.11719,-1.08593 -0.79688,-1.64062 -0.67187,-0.55469 -1.99218,-0.55469 -1.375,0 -2.00782,0.50781 -0.625,0.5 -0.625,1.21094 0,0.61719 0.44532,1.01563 0.4375,0.39843 2.28125,0.82031 1.85156,0.41406 2.53906,0.72656 1,0.46094 1.47656,1.17188 0.47656,0.70312 0.47656,1.625 0,0.91406 -0.52343,1.72656 -0.52344,0.80469 -1.50782,1.25781 -0.97656,0.44531 -2.20312,0.44531 -1.55469,0 -2.60938,-0.45312 -1.04687,-0.45313 -1.64843,-1.35938 -0.59375,-0.91406 -0.625,-2.0625 z m 16.42187,0.64063 1.38281,0.17969 q -0.22656,1.42968 -1.16406,2.24218 -0.92969,0.80469 -2.28906,0.80469 -1.70313,0 -2.74219,-1.10937 -1.03125,-1.11719 -1.03125,-3.19532 0,-1.34375 0.44531,-2.35156 0.44532,-1.00781 1.35157,-1.50781 0.91406,-0.50781 1.98437,-0.50781 1.35156,0 2.21094,0.6875 0.85937,0.67968 1.10156,1.9375 l -1.36719,0.21093 q -0.19531,-0.83593 -0.69531,-1.25781 -0.49219,-0.42187 -1.19531,-0.42187 -1.0625,0 -1.72656,0.76562 -0.66407,0.75781 -0.66407,2.40625 0,1.67188 0.64063,2.42969 0.64062,0.75781 1.67187,0.75781 0.82813,0 1.38282,-0.50781 0.55468,-0.50781 0.70312,-1.5625 z m 2.0625,-1.10938 q 0,-2.30468 1.28125,-3.41406 1.07031,-0.92187 2.60938,-0.92187 1.71093,0 2.79687,1.125 1.08594,1.11718 1.08594,3.09375 0,1.60156 -0.48438,2.52343 -0.47656,0.91407 -1.39843,1.42188 -0.91407,0.50781 -2,0.50781 -1.74219,0 -2.82032,-1.11719 -1.07031,-1.11718 -1.07031,-3.21875 z m 1.44531,0 q 0,1.59375 0.69532,2.39063 0.69531,0.78906 1.75,0.78906 1.04687,0 1.74218,-0.79687 0.69532,-0.79688 0.69532,-2.42969 0,-1.53906 -0.70313,-2.32813 -0.69531,-0.79687 -1.73437,-0.79687 -1.05469,0 -1.75,0.78906 -0.69532,0.78906 -0.69532,2.38281 z m 7.96094,4.14844 v -8.29687 h 1.26563 v 1.25781 q 0.48437,-0.88281 0.89062,-1.16406 0.41406,-0.28125 0.90625,-0.28125 0.71094,0 1.44531,0.45312 l -0.48437,1.30469 q -0.51563,-0.30469 -1.03125,-0.30469 -0.46094,0 -0.82813,0.28125 -0.36718,0.27344 -0.52343,0.76563 -0.23438,0.75 -0.23438,1.64062 v 4.34375 z m 11.02344,-2.67187 1.45312,0.17968 q -0.34375,1.27344 -1.27343,1.97657 -0.92969,0.70312 -2.375,0.70312 -1.82032,0 -2.89063,-1.11719 -1.0625,-1.125 -1.0625,-3.14843 0,-2.09375 1.07813,-3.25 1.07812,-1.15625 2.79687,-1.15625 1.66406,0 2.71875,1.13281 1.05469,1.13281 1.05469,3.1875 0,0.125 -0.008,0.375 h -6.1875 q 0.0781,1.36719 0.77343,2.09375 0.69532,0.72656 1.73438,0.72656 0.77344,0 1.32031,-0.40625 0.54688,-0.40625 0.86719,-1.29687 z m -4.61719,-2.27344 h 4.63281 q -0.0937,-1.04688 -0.53125,-1.57031 -0.67187,-0.8125 -1.74218,-0.8125 -0.96875,0 -1.63282,0.64843 -0.65625,0.64844 -0.72656,1.73438 z m 12.28906,-4.89063 v -1.61718 h 1.40625 v 1.61718 z m 0,9.83594 v -8.29687 h 1.40625 v 8.29687 z m 3.54688,0 v -8.29687 h 1.25781 v 1.16406 q 0.39063,-0.60938 1.03906,-0.97656 0.64844,-0.375 1.47657,-0.375 0.92187,0 1.50781,0.38281 0.59375,0.38281 0.83594,1.07031 0.98437,-1.45312 2.5625,-1.45312 1.23437,0 1.89843,0.6875 0.66407,0.67968 0.66407,2.10156 v 5.69531 h -1.39844 v -5.22656 q 0,-0.84375 -0.14063,-1.21094 -0.13281,-0.375 -0.49218,-0.60156 -0.35938,-0.22656 -0.84375,-0.22656 -0.875,0 -1.45313,0.58593 -0.57812,0.57813 -0.57812,1.85938 v 4.82031 h -1.40625 v -5.39062 q 0,-0.9375 -0.34375,-1.40625 -0.34375,-0.46875 -1.125,-0.46875 -0.59375,0 -1.10157,0.3125 -0.5,0.3125 -0.72656,0.91406 -0.22656,0.60156 -0.22656,1.73437 v 4.30469 z m 13.32812,3.17969 V 146.1152 h 1.28125 v 1.07812 q 0.45313,-0.63281 1.02344,-0.94531 0.57031,-0.32031 1.38281,-0.32031 1.0625,0 1.875,0.54687 0.8125,0.54688 1.22657,1.54688 0.41406,0.99218 0.41406,2.17968 0,1.27344 -0.46094,2.29688 -0.45312,1.01562 -1.32812,1.5625 -0.86719,0.53906 -1.82813,0.53906 -0.70312,0 -1.26562,-0.29687 -0.55469,-0.29688 -0.91407,-0.75 v 4.03906 z m 1.27344,-7.28125 q 0,1.60156 0.64844,2.36719 0.64844,0.76562 1.57031,0.76562 0.9375,0 1.60156,-0.78906 0.67188,-0.79688 0.67188,-2.46094 0,-1.58594 -0.65625,-2.375 -0.64844,-0.78906 -1.55469,-0.78906 -0.89844,0 -1.59375,0.84375 -0.6875,0.83594 -0.6875,2.4375 z m 7.59375,4.10156 v -11.45312 h 1.40625 v 11.45312 z m 9.26563,-2.67187 1.45312,0.17968 q -0.34375,1.27344 -1.27344,1.97657 -0.92968,0.70312 -2.375,0.70312 -1.82031,0 -2.89062,-1.11719 -1.0625,-1.125 -1.0625,-3.14843 0,-2.09375 1.07812,-3.25 1.07813,-1.15625 2.79688,-1.15625 1.66406,0 2.71875,1.13281 1.05469,1.13281 1.05469,3.1875 0,0.125 -0.008,0.375 h -6.1875 q 0.0781,1.36719 0.77344,2.09375 0.69531,0.72656 1.73438,0.72656 0.77343,0 1.32031,-0.40625 0.54687,-0.40625 0.86719,-1.29687 z m -4.61719,-2.27344 h 4.63281 q -0.0937,-1.04688 -0.53125,-1.57031 -0.67187,-0.8125 -1.74219,-0.8125 -0.96875,0 -1.63281,0.64843 -0.65625,0.64844 -0.72656,1.73438 z m 7.83594,4.94531 v -8.29687 h 1.25781 v 1.16406 q 0.39062,-0.60938 1.03906,-0.97656 0.64844,-0.375 1.47656,-0.375 0.92188,0 1.50782,0.38281 0.59375,0.38281 0.83593,1.07031 0.98438,-1.45312 2.5625,-1.45312 1.23438,0 1.89844,0.6875 0.66406,0.67968 0.66406,2.10156 v 5.69531 h -1.39843 v -5.22656 q 0,-0.84375 -0.14063,-1.21094 -0.13281,-0.375 -0.49219,-0.60156 -0.35937,-0.22656 -0.84375,-0.22656 -0.875,0 -1.45312,0.58593 -0.57813,0.57813 -0.57813,1.85938 v 4.82031 h -1.40625 v -5.39062 q 0,-0.9375 -0.34375,-1.40625 -0.34375,-0.46875 -1.125,-0.46875 -0.59375,0 -1.10156,0.3125 -0.5,0.3125 -0.72656,0.91406 -0.22656,0.60156 -0.22656,1.73437 v 4.30469 z m 19.00781,-2.67187 1.45312,0.17968 q -0.34375,1.27344 -1.27343,1.97657 -0.92969,0.70312 -2.375,0.70312 -1.82032,0 -2.89063,-1.11719 -1.0625,-1.125 -1.0625,-3.14843 0,-2.09375 1.07813,-3.25 1.07812,-1.15625 2.79687,-1.15625 1.66406,0 2.71875,1.13281 1.05469,1.13281 1.05469,3.1875 0,0.125 -0.008,0.375 h -6.1875 q 0.0781,1.36719 0.77343,2.09375 0.69532,0.72656 1.73438,0.72656 0.77344,0 1.32031,-0.40625 0.54688,-0.40625 0.86719,-1.29687 z m -4.61719,-2.27344 h 4.63281 q -0.0937,-1.04688 -0.53125,-1.57031 -0.67187,-0.8125 -1.74218,-0.8125 -0.96875,0 -1.63282,0.64843 -0.65625,0.64844 -0.72656,1.73438 z m 7.83594,4.94531 v -8.29687 h 1.26562 v 1.17968 q 0.91407,-1.36718 2.64063,-1.36718 0.75,0 1.375,0.27343 0.63281,0.26563 0.94531,0.70313 0.3125,0.4375 0.4375,1.03906 0.0781,0.39063 0.0781,1.36719 v 5.10156 h -1.40625 v -5.04687 q 0,-0.85938 -0.16407,-1.28125 -0.16406,-0.42969 -0.58593,-0.67969 -0.41407,-0.25781 -0.97657,-0.25781 -0.89843,0 -1.55468,0.57031 -0.64844,0.57031 -0.64844,2.16406 v 4.53125 z m 11.96875,-1.25781 0.20312,1.24219 q -0.59375,0.125 -1.0625,0.125 -0.76562,0 -1.1875,-0.24219 -0.42187,-0.24219 -0.59375,-0.63281 -0.17187,-0.39844 -0.17187,-1.66407 v -4.77343 h -1.03125 v -1.09375 h 1.03125 v -2.05469 l 1.39844,-0.84375 v 2.89844 h 1.41406 v 1.09375 h -1.41406 v 4.85156 q 0,0.60156 0.0703,0.77344 0.0781,0.17187 0.24219,0.27343 0.17187,0.10157 0.48437,0.10157 0.23438,0 0.61719,-0.0547 z m 6.78906,0.23437 q -0.78125,0.66407 -1.50781,0.9375 -0.71875,0.27344 -1.54688,0.27344 -1.36718,0 -2.10156,-0.66406 -0.73437,-0.67188 -0.73437,-1.71094 0,-0.60937 0.27343,-1.10937 0.28125,-0.50782 0.72657,-0.8125 0.45312,-0.30469 1.01562,-0.46094 0.41406,-0.10938 1.25,-0.21094 1.70313,-0.20312 2.50781,-0.48437 0.008,-0.28907 0.008,-0.36719 0,-0.85938 -0.39844,-1.21094 -0.53906,-0.47656 -1.60156,-0.47656 -0.99219,0 -1.46875,0.35156 -0.46875,0.34375 -0.69532,1.22656 l -1.375,-0.1875 q 0.1875,-0.88281 0.61719,-1.42187 0.42969,-0.54688 1.24219,-0.83594 0.8125,-0.29687 1.88281,-0.29687 1.0625,0 1.72656,0.25 0.66407,0.25 0.97657,0.63281 0.3125,0.375 0.4375,0.95312 0.0703,0.35938 0.0703,1.29688 v 1.875 q 0,1.96094 0.0859,2.48437 0.0937,0.51563 0.35937,0.99219 h -1.46875 q -0.21875,-0.4375 -0.28125,-1.02344 z m -0.11719,-3.14062 q -0.76562,0.3125 -2.29687,0.53125 -0.86719,0.125 -1.22656,0.28125 -0.35938,0.15625 -0.55469,0.46094 -0.19531,0.29687 -0.19531,0.66406 0,0.5625 0.42187,0.9375 0.42969,0.375 1.25,0.375 0.8125,0 1.44531,-0.35156 0.63282,-0.35938 0.92969,-0.97657 0.22656,-0.47656 0.22656,-1.40625 z m 6.67188,2.90625 0.20312,1.24219 q -0.59375,0.125 -1.0625,0.125 -0.76562,0 -1.1875,-0.24219 -0.42187,-0.24219 -0.59375,-0.63281 -0.17187,-0.39844 -0.17187,-1.66407 v -4.77343 H 429.625 v -1.09375 h 1.03125 v -2.05469 l 1.39844,-0.84375 v 2.89844 h 1.41406 v 1.09375 h -1.41406 v 4.85156 q 0,0.60156 0.0703,0.77344 0.0781,0.17187 0.24219,0.27343 0.17187,0.10157 0.48437,0.10157 0.23438,0 0.61719,-0.0547 z m 1.38281,-8.57813 v -1.61718 h 1.40625 v 1.61718 z m 0,9.83594 v -8.29687 h 1.40625 v 8.29687 z m 3.02344,-4.14844 q 0,-2.30468 1.28125,-3.41406 1.07031,-0.92187 2.60937,-0.92187 1.71094,0 2.79688,1.125 1.08594,1.11718 1.08594,3.09375 0,1.60156 -0.48438,2.52343 -0.47656,0.91407 -1.39844,1.42188 -0.91406,0.50781 -2,0.50781 -1.74218,0 -2.82031,-1.11719 -1.07031,-1.11718 -1.07031,-3.21875 z m 1.44531,0 q 0,1.59375 0.69531,2.39063 0.69532,0.78906 1.75,0.78906 1.04688,0 1.74219,-0.79687 0.69531,-0.79688 0.69531,-2.42969 0,-1.53906 -0.70312,-2.32813 -0.69531,-0.79687 -1.73438,-0.79687 -1.05468,0 -1.75,0.78906 -0.69531,0.78906 -0.69531,2.38281 z m 7.97656,4.14844 v -8.29687 h 1.26563 v 1.17968 q 0.91406,-1.36718 2.64062,-1.36718 0.75,0 1.375,0.27343 0.63282,0.26563 0.94532,0.70313 0.3125,0.4375 0.4375,1.03906 0.0781,0.39063 0.0781,1.36719 v 5.10156 h -1.40625 v -5.04687 q 0,-0.85938 -0.16406,-1.28125 -0.16406,-0.42969 -0.58594,-0.67969 -0.41406,-0.25781 -0.97656,-0.25781 -0.89844,0 -1.55469,0.57031 -0.64844,0.57031 -0.64844,2.16406 v 4.53125 z m 12.82032,-4.14844 q 0,-2.30468 1.28125,-3.41406 1.07031,-0.92187 2.60937,-0.92187 1.71094,0 2.79688,1.125 1.08593,1.11718 1.08593,3.09375 0,1.60156 -0.48437,2.52343 -0.47656,0.91407 -1.39844,1.42188 -0.91406,0.50781 -2,0.50781 -1.74219,0 -2.82031,-1.11719 -1.07031,-1.11718 -1.07031,-3.21875 z m 1.44531,0 q 0,1.59375 0.69531,2.39063 0.69531,0.78906 1.75,0.78906 1.04688,0 1.74219,-0.79687 0.69531,-0.79688 0.69531,-2.42969 0,-1.53906 -0.70312,-2.32813 -0.69532,-0.79687 -1.73438,-0.79687 -1.05469,0 -1.75,0.78906 -0.69531,0.78906 -0.69531,2.38281 z m 7.96094,4.14844 v -8.29687 h 1.26562 v 1.25781 q 0.48438,-0.88281 0.89063,-1.16406 0.41406,-0.28125 0.90625,-0.28125 0.71093,0 1.44531,0.45312 l -0.48438,1.30469 q -0.51562,-0.30469 -1.03125,-0.30469 -0.46093,0 -0.82812,0.28125 -0.36719,0.27344 -0.52344,0.76563 -0.23437,0.75 -0.23437,1.64062 v 4.34375 z m 11.32031,0 -2.53906,-8.29687 h 1.45312 l 1.32031,4.78906 0.49219,1.78125 q 0.0312,-0.13281 0.42969,-1.71094 l 1.32031,-4.85937 h 1.44531 l 1.24219,4.8125 0.41406,1.58593 0.47657,-1.60156 1.42187,-4.79687 h 1.36719 l -2.59375,8.29687 h -1.46094 l -1.32031,-4.96875 -0.32031,-1.41406 -1.67969,6.38281 z m 10.00781,0 v -8.29687 h 1.26563 v 1.25781 q 0.48437,-0.88281 0.89062,-1.16406 0.41406,-0.28125 0.90625,-0.28125 0.71094,0 1.44531,0.45312 l -0.48437,1.30469 q -0.51563,-0.30469 -1.03125,-0.30469 -0.46094,0 -0.82813,0.28125 -0.36718,0.27344 -0.52343,0.76563 -0.23438,0.75 -0.23438,1.64062 v 4.34375 z m 5.35156,-9.83594 v -1.61718 h 1.40625 v 1.61718 z m 0,9.83594 v -8.29687 h 1.40625 v 8.29687 z m 6.61719,-1.25781 0.20313,1.24219 q -0.59375,0.125 -1.0625,0.125 -0.76563,0 -1.1875,-0.24219 -0.42188,-0.24219 -0.59375,-0.63281 -0.17188,-0.39844 -0.17188,-1.66407 v -4.77343 h -1.03125 v -1.09375 h 1.03125 v -2.05469 l 1.39844,-0.84375 v 2.89844 h 1.41406 v 1.09375 h -1.41406 v 4.85156 q 0,0.60156 0.0703,0.77344 0.0781,0.17187 0.24219,0.27343 0.17187,0.10157 0.48437,0.10157 0.23438,0 0.61719,-0.0547 z m 7.05469,-1.41406 1.45312,0.17968 q -0.34375,1.27344 -1.27343,1.97657 -0.92969,0.70312 -2.375,0.70312 -1.82032,0 -2.89063,-1.11719 -1.0625,-1.125 -1.0625,-3.14843 0,-2.09375 1.07813,-3.25 1.07812,-1.15625 2.79687,-1.15625 1.66406,0 2.71875,1.13281 1.05469,1.13281 1.05469,3.1875 0,0.125 -0.008,0.375 h -6.1875 q 0.0781,1.36719 0.77343,2.09375 0.69532,0.72656 1.73438,0.72656 0.77344,0 1.32031,-0.40625 0.54688,-0.40625 0.86719,-1.29687 z m -4.61719,-2.27344 h 4.63281 q -0.0937,-1.04688 -0.53125,-1.57031 -0.67187,-0.8125 -1.74218,-0.8125 -0.96875,0 -1.63282,0.64843 -0.65625,0.64844 -0.72656,1.73438 z m 17.69531,3.92187 q -0.78125,0.66407 -1.50781,0.9375 -0.71875,0.27344 -1.54687,0.27344 -1.36719,0 -2.10157,-0.66406 -0.73437,-0.67188 -0.73437,-1.71094 0,-0.60937 0.27344,-1.10937 0.28125,-0.50782 0.72656,-0.8125 0.45312,-0.30469 1.01562,-0.46094 0.41407,-0.10938 1.25,-0.21094 1.70313,-0.20312 2.50782,-0.48437 0.008,-0.28907 0.008,-0.36719 0,-0.85938 -0.39844,-1.21094 -0.53906,-0.47656 -1.60156,-0.47656 -0.99219,0 -1.46875,0.35156 -0.46875,0.34375 -0.69531,1.22656 l -1.375,-0.1875 q 0.1875,-0.88281 0.61718,-1.42187 0.42969,-0.54688 1.24219,-0.83594 0.8125,-0.29687 1.88281,-0.29687 1.0625,0 1.72657,0.25 0.66406,0.25 0.97656,0.63281 0.3125,0.375 0.4375,0.95312 0.0703,0.35938 0.0703,1.29688 v 1.875 q 0,1.96094 0.0859,2.48437 0.0937,0.51563 0.35937,0.99219 h -1.46875 q -0.21875,-0.4375 -0.28125,-1.02344 z m -0.11718,-3.14062 q -0.76563,0.3125 -2.29688,0.53125 -0.86719,0.125 -1.22656,0.28125 -0.35938,0.15625 -0.55469,0.46094 -0.19531,0.29687 -0.19531,0.66406 0,0.5625 0.42187,0.9375 0.42969,0.375 1.25,0.375 0.8125,0 1.44532,-0.35156 0.63281,-0.35938 0.92968,-0.97657 0.22657,-0.47656 0.22657,-1.40625 z m 13.46093,1.125 1.38282,0.17969 q -0.22657,1.42968 -1.16407,2.24218 -0.92968,0.80469 -2.28906,0.80469 -1.70312,0 -2.74219,-1.10937 -1.03125,-1.11719 -1.03125,-3.19532 0,-1.34375 0.44532,-2.35156 0.44531,-1.00781 1.35156,-1.50781 0.91406,-0.50781 1.98437,-0.50781 1.35157,0 2.21094,0.6875 0.85938,0.67968 1.10156,1.9375 l -1.36718,0.21093 q -0.19532,-0.83593 -0.69532,-1.25781 -0.49218,-0.42187 -1.19531,-0.42187 -1.0625,0 -1.72656,0.76562 -0.66406,0.75781 -0.66406,2.40625 0,1.67188 0.64062,2.42969 0.64063,0.75781 1.67188,0.75781 0.82812,0 1.38281,-0.50781 0.55469,-0.50781 0.70312,-1.5625 z m 8.02344,3.03906 v -1.21875 q -0.96875,1.40625 -2.63281,1.40625 -0.73438,0 -1.375,-0.28125 -0.63281,-0.28125 -0.94531,-0.70312 -0.30469,-0.42969 -0.42969,-1.04688 -0.0859,-0.41406 -0.0859,-1.3125 v -5.14062 h 1.40625 v 4.60156 q 0,1.10156 0.0859,1.48437 0.13281,0.55469 0.5625,0.875 0.42969,0.3125 1.0625,0.3125 0.63281,0 1.1875,-0.32031 0.55469,-0.32812 0.78125,-0.88281 0.23437,-0.5625 0.23437,-1.625 v -4.44531 h 1.40625 v 8.29687 z m 2.89844,-2.47656 1.39062,-0.21875 q 0.11719,0.83594 0.64844,1.28125 0.53906,0.44531 1.5,0.44531 0.96875,0 1.4375,-0.39062 0.46875,-0.39844 0.46875,-0.92969 0,-0.47656 -0.41406,-0.75 -0.28906,-0.1875 -1.4375,-0.47656 -1.54688,-0.39063 -2.14844,-0.67188 -0.59375,-0.28906 -0.90625,-0.78906 -0.30469,-0.50781 -0.30469,-1.11719 0,-0.55469 0.25,-1.02344 0.25782,-0.47656 0.69532,-0.78906 0.32812,-0.24219 0.89062,-0.40625 0.57031,-0.17187 1.21875,-0.17187 0.97656,0 1.71094,0.28125 0.74219,0.28125 1.09375,0.76562 0.35156,0.47656 0.48437,1.28125 l -1.375,0.1875 q -0.0937,-0.64062 -0.54687,-1 -0.44531,-0.35937 -1.26563,-0.35937 -0.96875,0 -1.38281,0.32031 -0.41406,0.32031 -0.41406,0.75 0,0.27344 0.17187,0.49219 0.17188,0.22656 0.53907,0.375 0.21093,0.0781 1.24218,0.35937 1.49219,0.39844 2.07813,0.65625 0.59375,0.25 0.92969,0.73438 0.33593,0.48437 0.33593,1.20312 0,0.70313 -0.41406,1.32813 -0.40625,0.61718 -1.17969,0.96093 -0.77343,0.33594 -1.75,0.33594 -1.61718,0 -2.46875,-0.67187 -0.84375,-0.67188 -1.07812,-1.99219 z m 11.63281,1.21875 0.20313,1.24219 q -0.59375,0.125 -1.0625,0.125 -0.76563,0 -1.1875,-0.24219 -0.42188,-0.24219 -0.59375,-0.63281 -0.17188,-0.39844 -0.17188,-1.66407 v -4.77343 h -1.03125 v -1.09375 h 1.03125 v -2.05469 l 1.39844,-0.84375 v 2.89844 h 1.41406 v 1.09375 h -1.41406 v 4.85156 q 0,0.60156 0.0703,0.77344 0.0781,0.17187 0.24219,0.27343 0.17187,0.10157 0.48437,0.10157 0.23438,0 0.61719,-0.0547 z m 0.85156,-2.89063 q 0,-2.30468 1.28125,-3.41406 1.07032,-0.92187 2.60938,-0.92187 1.71094,0 2.79687,1.125 1.08594,1.11718 1.08594,3.09375 0,1.60156 -0.48437,2.52343 -0.47657,0.91407 -1.39844,1.42188 -0.91406,0.50781 -2,0.50781 -1.74219,0 -2.82031,-1.11719 -1.07032,-1.11718 -1.07032,-3.21875 z m 1.44532,0 q 0,1.59375 0.69531,2.39063 0.69531,0.78906 1.75,0.78906 1.04687,0 1.74219,-0.79687 0.69531,-0.79688 0.69531,-2.42969 0,-1.53906 -0.70313,-2.32813 -0.69531,-0.79687 -1.73437,-0.79687 -1.05469,0 -1.75,0.78906 -0.69531,0.78906 -0.69531,2.38281 z m 7.97656,4.14844 v -8.29687 h 1.25781 v 1.16406 q 0.39063,-0.60938 1.03906,-0.97656 0.64844,-0.375 1.47657,-0.375 0.92187,0 1.50781,0.38281 0.59375,0.38281 0.83594,1.07031 0.98437,-1.45312 2.5625,-1.45312 1.23437,0 1.89843,0.6875 0.66407,0.67968 0.66407,2.10156 v 5.69531 h -1.39844 v -5.22656 q 0,-0.84375 -0.14063,-1.21094 -0.13281,-0.375 -0.49218,-0.60156 -0.35938,-0.22656 -0.84375,-0.22656 -0.875,0 -1.45313,0.58593 -0.57812,0.57813 -0.57812,1.85938 v 4.82031 h -1.40625 v -5.39062 q 0,-0.9375 -0.34375,-1.40625 -0.34375,-0.46875 -1.125,-0.46875 -0.59375,0 -1.10157,0.3125 -0.5,0.3125 -0.72656,0.91406 -0.22656,0.60156 -0.22656,1.73437 v 4.30469 z m 17.25,-4.14844 q 0,-2.30468 1.28125,-3.41406 1.07031,-0.92187 2.60937,-0.92187 1.71094,0 2.79688,1.125 1.08594,1.11718 1.08594,3.09375 0,1.60156 -0.48438,2.52343 -0.47656,0.91407 -1.39844,1.42188 -0.91406,0.50781 -2,0.50781 -1.74218,0 -2.82031,-1.11719 -1.07031,-1.11718 -1.07031,-3.21875 z m 1.44531,0 q 0,1.59375 0.69531,2.39063 0.69532,0.78906 1.75,0.78906 1.04688,0 1.74219,-0.79687 0.69531,-0.79688 0.69531,-2.42969 0,-1.53906 -0.70312,-2.32813 -0.69531,-0.79687 -1.73438,-0.79687 -1.05468,0 -1.75,0.78906 -0.69531,0.78906 -0.69531,2.38281 z m 7.97656,4.14844 v -8.29687 h 1.26563 v 1.17968 q 0.91406,-1.36718 2.64062,-1.36718 0.75,0 1.375,0.27343 0.63282,0.26563 0.94532,0.70313 0.3125,0.4375 0.4375,1.03906 0.0781,0.39063 0.0781,1.36719 v 5.10156 h -1.40625 v -5.04687 q 0,-0.85938 -0.16406,-1.28125 -0.16406,-0.42969 -0.58594,-0.67969 -0.41406,-0.25781 -0.97656,-0.25781 -0.89844,0 -1.55469,0.57031 -0.64844,0.57031 -0.64844,2.16406 v 4.53125 z m 14.57813,-2.67187 1.45312,0.17968 q -0.34375,1.27344 -1.27343,1.97657 -0.92969,0.70312 -2.375,0.70312 -1.82032,0 -2.89063,-1.11719 -1.0625,-1.125 -1.0625,-3.14843 0,-2.09375 1.07813,-3.25 1.07812,-1.15625 2.79687,-1.15625 1.66406,0 2.71875,1.13281 1.05469,1.13281 1.05469,3.1875 0,0.125 -0.008,0.375 h -6.1875 q 0.0781,1.36719 0.77343,2.09375 0.69532,0.72656 1.73438,0.72656 0.77344,0 1.32031,-0.40625 0.54688,-0.40625 0.86719,-1.29687 z m -4.61719,-2.27344 h 4.63281 q -0.0937,-1.04688 -0.53125,-1.57031 -0.67187,-0.8125 -1.74218,-0.8125 -0.96875,0 -1.63282,0.64843 -0.65625,0.64844 -0.72656,1.73438 z"
       id="flowRoot4302-6"
       transform="translate(-19.999998,382.36205)"
       aria-label="Choose a Score implementation or write a custom one" />
    <path
       style="font-size:36px;line-height:1.25;font-family:'Liberation Sans';-inkscape-font-specification:'Liberation Sans, Normal';text-align:center;text-anchor:middle"
       d="m 258.55371,234.14786 3.2168,-0.28125 q 0.22851,1.9336 1.05469,3.18164 0.84375,1.23047 2.60156,2.00391 1.75781,0.75586 3.95508,0.75586 1.95117,0 3.44531,-0.58008 1.49414,-0.58008 2.21484,-1.58203 0.73828,-1.01953 0.73828,-2.21484 0,-1.2129 -0.70312,-2.10938 -0.70313,-0.91406 -2.32031,-1.5293 -1.03711,-0.40429 -4.58789,-1.24804 -3.55079,-0.86133 -4.97461,-1.61719 -1.84571,-0.9668 -2.75977,-2.39063 -0.89648,-1.4414 -0.89648,-3.21679 0,-1.95117 1.10742,-3.63867 1.10742,-1.70508 3.23437,-2.58399 2.12696,-0.87891 4.72852,-0.87891 2.86523,0 5.04492,0.93165 2.19727,0.91406 3.375,2.70703 1.17773,1.79297 1.26563,4.06054 l -3.26954,0.2461 q -0.26367,-2.44336 -1.79296,-3.69141 -1.51172,-1.24805 -4.48243,-1.24805 -3.09375,0 -4.51757,1.14258 -1.40625,1.125 -1.40625,2.72461 0,1.38867 1.00195,2.28516 0.98437,0.89648 5.13281,1.8457 4.16602,0.93164 5.71289,1.63477 2.25,1.03711 3.32227,2.63672 1.07226,1.58203 1.07226,3.65625 0,2.05664 -1.17773,3.88476 -1.17774,1.81055 -3.39258,2.83008 -2.19727,1.00195 -4.95703,1.00195 -3.49805,0 -5.87109,-1.01953 -2.35547,-1.01953 -3.70899,-3.05859 -1.33594,-2.05664 -1.40625,-4.64063 z m 36.94922,1.44141 3.11133,0.4043 q -0.50977,3.21679 -2.61914,5.04492 -2.0918,1.81054 -5.15039,1.81054 -3.83203,0 -6.16993,-2.49609 -2.32031,-2.51367 -2.32031,-7.18945 0,-3.02344 1.00196,-5.29102 1.00195,-2.26758 3.04101,-3.39258 2.05664,-1.14257 4.46484,-1.14257 3.04102,0 4.97461,1.54687 1.9336,1.5293 2.47852,4.35938 l -3.07617,0.4746 q -0.43946,-1.88085 -1.56446,-2.83007 -1.10742,-0.94922 -2.68945,-0.94922 -2.39062,0 -3.88476,1.72265 -1.49414,1.70508 -1.49414,5.41407 0,3.76172 1.4414,5.46679 1.44141,1.70508 3.76172,1.70508 1.86328,0 3.11133,-1.14258 1.24805,-1.14257 1.58203,-3.51562 z m 4.64062,-2.4961 q 0,-5.18554 2.88282,-7.68164 2.4082,-2.07421 5.87109,-2.07421 3.84961,0 6.29297,2.53125 2.44336,2.51367 2.44336,6.96093 0,3.60352 -1.08984,5.67774 -1.07227,2.05664 -3.14649,3.19922 -2.05664,1.14257 -4.5,1.14257 -3.91992,0 -6.3457,-2.51367 -2.40821,-2.51367 -2.40821,-7.24219 z m 3.25196,0 q 0,3.58594 1.56445,5.37891 1.56445,1.77539 3.9375,1.77539 2.35547,0 3.91992,-1.79297 1.56446,-1.79297 1.56446,-5.46679 0,-3.46289 -1.58204,-5.23829 -1.56445,-1.79296 -3.90234,-1.79296 -2.37305,0 -3.9375,1.77539 -1.56445,1.77539 -1.56445,5.36132 z m 17.91211,9.33399 v -18.66797 h 2.84765 v 2.83008 q 1.08985,-1.98633 2.00391,-2.61914 0.93164,-0.63281 2.03906,-0.63281 1.59961,0 3.25196,1.01953 l -1.08985,2.93554 q -1.16015,-0.68554 -2.32031,-0.68554 -1.03711,0 -1.86328,0.63281 -0.82617,0.61523 -1.17774,1.72266 -0.52734,1.6875 -0.52734,3.6914 v 9.77344 z m 24.80273,-6.01172 3.26953,0.4043 q -0.77343,2.86523 -2.86523,4.44726 -2.0918,1.58203 -5.34375,1.58203 -4.0957,0 -6.50391,-2.51367 -2.39062,-2.53125 -2.39062,-7.08398 0,-4.71094 2.42578,-7.3125 2.42578,-2.60156 6.29297,-2.60156 3.74414,0 6.11718,2.54882 2.37305,2.54883 2.37305,7.17188 0,0.28125 -0.0176,0.84375 H 335.5459 q 0.17578,3.07617 1.74023,4.71094 1.56446,1.63476 3.90235,1.63476 1.74023,0 2.9707,-0.91406 1.23047,-0.91406 1.95117,-2.91797 z m -10.38867,-5.11523 h 10.42383 q -0.21094,-2.35547 -1.19531,-3.53321 -1.51172,-1.82812 -3.91993,-1.82812 -2.17968,0 -3.67382,1.45898 -1.47657,1.45899 -1.63477,3.90235 z m 39.81445,4.28906 3.11133,0.4043 q -0.50976,3.21679 -2.61914,5.04492 -2.0918,1.81054 -5.15039,1.81054 -3.83203,0 -6.16992,-2.49609 -2.32031,-2.51367 -2.32031,-7.18945 0,-3.02344 1.00195,-5.29102 1.00195,-2.26758 3.04101,-3.39258 2.05664,-1.14257 4.46485,-1.14257 3.04101,0 4.97461,1.54687 1.93359,1.5293 2.47851,4.35938 l -3.07617,0.4746 q -0.43945,-1.88085 -1.56445,-2.83007 -1.10742,-0.94922 -2.68946,-0.94922 -2.39062,0 -3.88476,1.72265 -1.49414,1.70508 -1.49414,5.41407 0,3.76172 1.4414,5.46679 1.44141,1.70508 3.76172,1.70508 1.86328,0 3.11133,-1.14258 1.24805,-1.14257 1.58203,-3.51562 z m 5.74805,6.83789 v -25.76953 h 3.16406 v 25.76953 z m 20.25,-2.30274 q -1.75781,1.49415 -3.39258,2.10938 -1.61719,0.61523 -3.48047,0.61523 -3.07617,0 -4.72851,-1.49414 -1.65235,-1.51172 -1.65235,-3.84961 0,-1.37109 0.61524,-2.49609 0.63281,-1.14258 1.63476,-1.82812 1.01953,-0.68555 2.28516,-1.03711 0.93164,-0.2461 2.8125,-0.47461 3.83203,-0.45703 5.64258,-1.08985 0.0176,-0.65039 0.0176,-0.82617 0,-1.93359 -0.89649,-2.72461 -1.21289,-1.07226 -3.60351,-1.07226 -2.23243,0 -3.30469,0.79101 -1.05469,0.77344 -1.56445,2.75977 l -3.09375,-0.42188 q 0.42187,-1.98633 1.38867,-3.19922 0.96679,-1.23047 2.79492,-1.88086 1.82812,-0.66796 4.23633,-0.66796 2.39062,0 3.88476,0.5625 1.49414,0.5625 2.19727,1.42382 0.70312,0.84375 0.98437,2.14453 0.15821,0.8086 0.15821,2.91797 v 4.21875 q 0,4.41211 0.19336,5.58985 0.21093,1.16015 0.80859,2.23242 h -3.30469 q -0.49219,-0.98438 -0.63281,-2.30274 z m -0.26367,-7.0664 q -1.72266,0.70312 -5.16797,1.19531 -1.95117,0.28125 -2.75977,0.63281 -0.80859,0.35157 -1.24804,1.03711 -0.43946,0.66797 -0.43946,1.49414 0,1.26563 0.94922,2.10938 0.9668,0.84375 2.8125,0.84375 1.82813,0 3.25196,-0.79102 1.42382,-0.80859 2.09179,-2.19726 0.50977,-1.07227 0.50977,-3.16407 z m 6.83789,3.79687 3.1289,-0.49218 q 0.26368,1.88086 1.45899,2.88281 1.21289,1.00195 3.375,1.00195 2.17969,0 3.23437,-0.8789 1.05469,-0.89649 1.05469,-2.0918 0,-1.07227 -0.93164,-1.6875 -0.65039,-0.42188 -3.23437,-1.07227 -3.48047,-0.8789 -4.83399,-1.51172 -1.33594,-0.65039 -2.03906,-1.77539 -0.68555,-1.14257 -0.68555,-2.51367 0,-1.24805 0.5625,-2.30273 0.58008,-1.07227 1.56446,-1.77539 0.73828,-0.54493 2.0039,-0.91407 1.2832,-0.38671 2.74219,-0.38671 2.19726,0 3.84961,0.63281 1.66992,0.63281 2.46094,1.72265 0.79101,1.07227 1.08984,2.88282 l -3.09375,0.42187 q -0.21094,-1.4414 -1.23047,-2.25 -1.00195,-0.80859 -2.84766,-0.80859 -2.17968,0 -3.11132,0.7207 -0.93164,0.7207 -0.93164,1.6875 0,0.61524 0.38671,1.10742 0.38672,0.50977 1.2129,0.84375 0.4746,0.17578 2.79492,0.8086 3.35742,0.89648 4.67578,1.47656 1.33594,0.5625 2.0918,1.65234 0.75585,1.08985 0.75585,2.70703 0,1.58204 -0.93164,2.98829 -0.91406,1.38867 -2.65429,2.1621 -1.74024,0.75586 -3.9375,0.75586 -3.63867,0 -5.55469,-1.51171 -1.89844,-1.51172 -2.42578,-4.48243 z m 18,0 3.1289,-0.49218 q 0.26368,1.88086 1.45899,2.88281 1.21289,1.00195 3.375,1.00195 2.17969,0 3.23437,-0.8789 1.05469,-0.89649 1.05469,-2.0918 0,-1.07227 -0.93164,-1.6875 -0.65039,-0.42188 -3.23437,-1.07227 -3.48047,-0.8789 -4.83399,-1.51172 -1.33594,-0.65039 -2.03906,-1.77539 -0.68555,-1.14257 -0.68555,-2.51367 0,-1.24805 0.5625,-2.30273 0.58008,-1.07227 1.56446,-1.77539 0.73828,-0.54493 2.0039,-0.91407 1.2832,-0.38671 2.74219,-0.38671 2.19726,0 3.84961,0.63281 1.66992,0.63281 2.46094,1.72265 0.79101,1.07227 1.08984,2.88282 l -3.09375,0.42187 q -0.21094,-1.4414 -1.23047,-2.25 -1.00195,-0.80859 -2.84766,-0.80859 -2.17968,0 -3.11132,0.7207 -0.93164,0.7207 -0.93164,1.6875 0,0.61524 0.38671,1.10742 0.38672,0.50977 1.2129,0.84375 0.4746,0.17578 2.79492,0.8086 3.35742,0.89648 4.67578,1.47656 1.33594,0.5625 2.0918,1.65234 0.75585,1.08985 0.75585,2.70703 0,1.58204 -0.93164,2.98829 -0.91406,1.38867 -2.65429,2.1621 -1.74024,0.75586 -3.9375,0.75586 -3.63867,0 -5.55469,-1.51171 -1.89844,-1.51172 -2.42578,-4.48243 z m 41.3789,5.57227 v -2.35547 q -1.77539,2.77734 -5.2207,2.77734 -2.23242,0 -4.11328,-1.23046 -1.86328,-1.23047 -2.90039,-3.42774 -1.01953,-2.21484 -1.01953,-5.08008 0,-2.79492 0.93164,-5.0625 0.93164,-2.28515 2.79492,-3.49804 1.86328,-1.21289 4.16602,-1.21289 1.6875,0 3.00586,0.7207 1.31836,0.70312 2.14453,1.8457 v -9.24609 h 3.14648 v 25.76953 z m -10.00195,-9.31641 q 0,3.58594 1.51172,5.36133 1.51172,1.77539 3.56836,1.77539 2.07422,0 3.51562,-1.6875 1.45899,-1.70508 1.45899,-5.18555 0,-3.83203 -1.47656,-5.625 -1.47657,-1.79296 -3.63868,-1.79296 -2.10937,0 -3.5332,1.72265 -1.40625,1.72266 -1.40625,5.43164 z m 17.92969,-12.81445 v -3.63867 h 3.16406 v 3.63867 z m 0,22.13086 v -18.66797 h 3.16406 v 18.66797 z m 20.16211,-2.30274 q -1.75781,1.49415 -3.39258,2.10938 -1.61719,0.61523 -3.48047,0.61523 -3.07617,0 -4.72851,-1.49414 -1.65235,-1.51172 -1.65235,-3.84961 0,-1.37109 0.61524,-2.49609 0.63281,-1.14258 1.63476,-1.82812 1.01953,-0.68555 2.28516,-1.03711 0.93164,-0.2461 2.8125,-0.47461 3.83203,-0.45703 5.64258,-1.08985 0.0176,-0.65039 0.0176,-0.82617 0,-1.93359 -0.89648,-2.72461 -1.21289,-1.07226 -3.60352,-1.07226 -2.23242,0 -3.30468,0.79101 -1.05469,0.77344 -1.56446,2.75977 l -3.09375,-0.42188 q 0.42188,-1.98633 1.38868,-3.19922 0.96679,-1.23047 2.79492,-1.88086 1.82812,-0.66796 4.23633,-0.66796 2.39062,0 3.88476,0.5625 1.49414,0.5625 2.19727,1.42382 0.70312,0.84375 0.98437,2.14453 0.15821,0.8086 0.15821,2.91797 v 4.21875 q 0,4.41211 0.19335,5.58985 0.21094,1.16015 0.8086,2.23242 h -3.30469 q -0.49219,-0.98438 -0.63281,-2.30274 z m -0.26367,-7.0664 q -1.72266,0.70312 -5.16797,1.19531 -1.95117,0.28125 -2.75977,0.63281 -0.80859,0.35157 -1.24804,1.03711 -0.43946,0.66797 -0.43946,1.49414 0,1.26563 0.94922,2.10938 0.9668,0.84375 2.8125,0.84375 1.82813,0 3.25195,-0.79102 1.42383,-0.80859 2.0918,-2.19726 0.50977,-1.07227 0.50977,-3.16407 z m 7.52343,10.91601 3.07618,0.45704 q 0.19336,1.42382 1.07226,2.07421 1.17774,0.87891 3.2168,0.87891 2.19726,0 3.39258,-0.87891 1.19531,-0.8789 1.61718,-2.46093 0.2461,-0.9668 0.22852,-4.06055 -2.07422,2.44336 -5.16797,2.44336 -3.84961,0 -5.95898,-2.77734 -2.10938,-2.77735 -2.10938,-6.66211 0,-2.67188 0.9668,-4.92188 0.9668,-2.26758 2.79492,-3.49805 1.8457,-1.23046 4.32422,-1.23046 3.30469,0 5.44922,2.67187 v -2.25 h 2.91797 v 16.13672 q 0,4.35937 -0.89649,6.16992 -0.8789,1.82813 -2.8125,2.88281 -1.91601,1.05469 -4.72851,1.05469 -3.33985,0 -5.39649,-1.51172 -2.05664,-1.49414 -1.98633,-4.51758 z m 2.61914,-11.21484 q 0,3.67383 1.45899,5.36133 1.45898,1.6875 3.65625,1.6875 2.17969,0 3.65625,-1.66992 1.47656,-1.6875 1.47656,-5.27344 0,-3.42774 -1.5293,-5.16797 -1.51171,-1.74023 -3.65625,-1.74023 -2.10937,0 -3.58593,1.72265 -1.47657,1.70508 -1.47657,5.08008 z m 17.94727,9.66797 v -18.66797 h 2.84766 v 2.83008 q 1.08984,-1.98633 2.0039,-2.61914 0.93164,-0.63281 2.03907,-0.63281 1.5996,0 3.25195,1.01953 l -1.08985,2.93554 q -1.16015,-0.68554 -2.32031,-0.68554 -1.03711,0 -1.86328,0.63281 -0.82617,0.61523 -1.17773,1.72266 -0.52735,1.6875 -0.52735,3.6914 v 9.77344 z m 24.20508,-2.30274 q -1.75781,1.49415 -3.39258,2.10938 -1.61719,0.61523 -3.48047,0.61523 -3.07617,0 -4.72851,-1.49414 -1.65235,-1.51172 -1.65235,-3.84961 0,-1.37109 0.61524,-2.49609 0.63281,-1.14258 1.63476,-1.82812 1.01953,-0.68555 2.28516,-1.03711 0.93164,-0.2461 2.8125,-0.47461 3.83203,-0.45703 5.64258,-1.08985 0.0176,-0.65039 0.0176,-0.82617 0,-1.93359 -0.89648,-2.72461 -1.21289,-1.07226 -3.60352,-1.07226 -2.23242,0 -3.30468,0.79101 -1.05469,0.77344 -1.56446,2.75977 l -3.09375,-0.42188 q 0.42188,-1.98633 1.38868,-3.19922 0.96679,-1.23047 2.79492,-1.88086 1.82812,-0.66796 4.23633,-0.66796 2.39062,0 3.88476,0.5625 1.49414,0.5625 2.19727,1.42382 0.70312,0.84375 0.98437,2.14453 0.15821,0.8086 0.15821,2.91797 v 4.21875 q 0,4.41211 0.19335,5.58985 0.21094,1.16015 0.8086,2.23242 h -3.30469 q -0.49219,-0.98438 -0.63281,-2.30274 z m -0.26367,-7.0664 q -1.72266,0.70312 -5.16797,1.19531 -1.95117,0.28125 -2.75977,0.63281 -0.80859,0.35157 -1.24804,1.03711 -0.43946,0.66797 -0.43946,1.49414 0,1.26563 0.94922,2.10938 0.9668,0.84375 2.8125,0.84375 1.82813,0 3.25195,-0.79102 1.42383,-0.80859 2.0918,-2.19726 0.50977,-1.07227 0.50977,-3.16407 z m 8.10351,9.36914 v -18.66797 h 2.83008 v 2.61914 q 0.87891,-1.37109 2.33789,-2.19726 1.45899,-0.84375 3.32227,-0.84375 2.07422,0 3.39257,0.86132 1.33594,0.86133 1.88086,2.40821 2.21485,-3.26953 5.76563,-3.26953 2.77734,0 4.27148,1.54687 1.49414,1.5293 1.49414,4.72852 v 12.81445 h -3.14648 v -11.75977 q 0,-1.89843 -0.31641,-2.72461 -0.29882,-0.84375 -1.10742,-1.35351 -0.80859,-0.50977 -1.89844,-0.50977 -1.96875,0 -3.26953,1.31836 -1.30078,1.30078 -1.30078,4.1836 v 10.8457 h -3.16406 v -12.12891 q 0,-2.10937 -0.77344,-3.16406 -0.77344,-1.05469 -2.53125,-1.05469 -1.33594,0 -2.47851,0.70313 -1.125,0.70312 -1.63477,2.05664 -0.50977,1.35351 -0.50977,3.90234 v 9.68555 z"
       id="flowRoot4302-2"
       transform="translate(-19.999998,262.36198)"
       aria-label="Score class diagram" />
    <rect
       ry="5"
       rx="4.9999986"
       y="572.86218"
       x="30.5"
       height="39"
       width="209"
       id="rect3368"
       style="fill:none;stroke:#000000;stroke-width:1;stroke-linecap:round;stroke-linejoin:round;stroke-miterlimit:4;stroke-dasharray:none" />
    <path
       style="font-size:20px;line-height:1.25;font-family:'Liberation Sans';-inkscape-font-specification:'Liberation Sans, Normal';text-align:center;text-anchor:middle"
       d="m 419.77539,47.192823 1.78711,-0.15625 q 0.12695,1.074219 0.58594,1.767578 0.46875,0.683594 1.44531,1.113281 0.97656,0.419922 2.19727,0.419922 1.08398,0 1.91406,-0.322266 0.83008,-0.322265 1.23047,-0.878906 0.41015,-0.566406 0.41015,-1.230469 0,-0.673828 -0.39062,-1.171875 -0.39063,-0.507812 -1.28906,-0.849609 -0.57618,-0.224609 -2.54883,-0.693359 -1.97266,-0.478516 -2.76367,-0.898438 -1.0254,-0.537109 -1.53321,-1.328125 -0.49804,-0.800781 -0.49804,-1.787109 0,-1.083985 0.61523,-2.021485 0.61523,-0.947265 1.79687,-1.435546 1.18165,-0.488282 2.62696,-0.488282 1.59179,0 2.80273,0.517578 1.22071,0.507813 1.875,1.503907 0.6543,0.996093 0.70313,2.255859 l -1.81641,0.136719 q -0.14648,-1.357422 -0.99609,-2.050781 -0.83985,-0.69336 -2.49024,-0.69336 -1.71875,0 -2.50976,0.634766 -0.78125,0.625 -0.78125,1.513672 0,0.771484 0.55664,1.269531 0.54687,0.498047 2.85156,1.025391 2.31445,0.517578 3.17383,0.908203 1.25,0.576172 1.8457,1.464843 0.5957,0.878907 0.5957,2.03125 0,1.142579 -0.65429,2.158204 -0.6543,1.005859 -1.88477,1.572265 -1.2207,0.556641 -2.7539,0.556641 -1.94336,0 -3.26172,-0.566406 -1.3086,-0.566407 -2.06055,-1.699219 -0.74219,-1.142578 -0.78125,-2.578125 z m 20.52734,0.800781 1.72852,0.224609 q -0.2832,1.78711 -1.45508,2.802735 -1.16211,1.005859 -2.86133,1.005859 -2.1289,0 -3.42773,-1.386719 -1.28906,-1.396484 -1.28906,-3.99414 0,-1.679688 0.55664,-2.939453 0.55664,-1.259766 1.68945,-1.884766 1.14258,-0.634766 2.48047,-0.634766 1.68945,0 2.76367,0.859375 1.07422,0.84961 1.37695,2.421875 l -1.70898,0.263672 q -0.24414,-1.044922 -0.86914,-1.572265 -0.61524,-0.527344 -1.49414,-0.527344 -1.32813,0 -2.1582,0.957031 -0.83008,0.947266 -0.83008,3.007813 0,2.089843 0.80078,3.037109 0.80078,0.947266 2.08984,0.947266 1.03516,0 1.72852,-0.634766 0.69336,-0.634766 0.8789,-1.953125 z m 2.57813,-1.386719 q 0,-2.880859 1.60156,-4.267578 1.33789,-1.152344 3.26172,-1.152344 2.13867,0 3.49609,1.40625 1.35743,1.396485 1.35743,3.867188 0,2.001953 -0.60547,3.154297 -0.59571,1.142578 -1.74805,1.777344 -1.14258,0.634765 -2.5,0.634765 -2.17773,0 -3.52539,-1.396484 -1.33789,-1.396485 -1.33789,-4.023438 z m 1.80664,0 q 0,1.992188 0.86914,2.988282 0.86914,0.986328 2.1875,0.986328 1.30859,0 2.17773,-0.996094 0.86915,-0.996094 0.86915,-3.037109 0,-1.923829 -0.87891,-2.910157 -0.86914,-0.996093 -2.16797,-0.996093 -1.31836,0 -2.1875,0.986328 -0.86914,0.986328 -0.86914,2.978515 z m 9.95117,5.185547 V 41.421338 h 1.58203 v 1.572266 q 0.60547,-1.103516 1.11328,-1.455078 0.51758,-0.351563 1.13282,-0.351563 0.88867,0 1.80664,0.566407 l -0.60547,1.630859 q -0.64453,-0.380859 -1.28906,-0.380859 -0.57618,0 -1.03516,0.351562 -0.45898,0.341797 -0.6543,0.957031 -0.29297,0.9375 -0.29297,2.050782 v 5.429687 z m 13.7793,-3.339844 1.8164,0.22461 q -0.42968,1.591797 -1.59179,2.470703 -1.16211,0.878906 -2.96875,0.878906 -2.27539,0 -3.61328,-1.396484 -1.32813,-1.40625 -1.32813,-3.935547 0,-2.617188 1.34766,-4.0625 1.34765,-1.445313 3.49609,-1.445313 2.08008,0 3.39844,1.416016 1.31836,1.416016 1.31836,3.984375 0,0.15625 -0.01,0.46875 h -7.73437 q 0.0976,1.708984 0.96679,2.617188 0.86915,0.908203 2.16797,0.908203 0.9668,0 1.65039,-0.507813 0.6836,-0.507812 1.08399,-1.621094 z m -5.77149,-2.841796 h 5.79102 q -0.11719,-1.308594 -0.66406,-1.962891 -0.83985,-1.015625 -2.17774,-1.015625 -1.21093,0 -2.04101,0.810547 -0.82032,0.810547 -0.90821,2.167969 z"
       id="flowRoot3370"
       transform="translate(-309.99999,548.5851)"
       aria-label="Score" />
    <path
       style="font-size:12px;line-height:1.25;font-family:'Liberation Sans';-inkscape-font-specification:'Liberation Sans, Normal';text-align:center;text-anchor:middle"
       d="m 408.62793,40.830537 v -0.984375 l 5.68945,-2.402343 v 1.048828 l -4.51172,1.851562 4.51172,1.869141 v 1.048828 z m 7.00781,0 v -0.984375 l 5.68946,-2.402343 v 1.048828 l -4.51172,1.851562 4.51172,1.869141 v 1.048828 z m 7.14844,-3.621093 v -1.212891 h 1.05469 v 1.212891 z m 0,7.376953 v -6.222656 h 1.05469 v 6.222656 z m 2.66016,0 v -6.222656 h 0.94921 v 0.884765 q 0.68555,-1.02539 1.98047,-1.02539 0.5625,0 1.03125,0.205078 0.47461,0.199218 0.70899,0.527343 0.23437,0.328125 0.32812,0.779297 0.0586,0.292969 0.0586,1.025391 v 3.826172 h -1.05469 v -3.785156 q 0,-0.644532 -0.12305,-0.960938 -0.12304,-0.322266 -0.43945,-0.509766 -0.31055,-0.193359 -0.73242,-0.193359 -0.67383,0 -1.16602,0.427734 -0.48633,0.427735 -0.48633,1.623047 v 3.398438 z m 8.97656,-0.94336 0.15234,0.931641 q -0.44531,0.09375 -0.79687,0.09375 -0.57422,0 -0.89063,-0.181641 -0.3164,-0.18164 -0.44531,-0.474609 -0.12891,-0.298828 -0.12891,-1.248047 v -3.580078 h -0.77343 v -0.820312 h 0.77343 v -1.541016 l 1.04883,-0.632813 v 2.173829 h 1.06055 v 0.820312 h -1.06055 v 3.638672 q 0,0.451172 0.0527,0.580078 0.0586,0.128906 0.18164,0.205078 0.1289,0.07617 0.36328,0.07617 0.17578,0 0.46289,-0.04102 z m 5.29101,-1.060546 1.08985,0.134765 q -0.25781,0.955078 -0.95508,1.482422 -0.69727,0.527344 -1.78125,0.527344 -1.36523,0 -2.16797,-0.837891 -0.79687,-0.84375 -0.79687,-2.361328 0,-1.570312 0.80859,-2.4375 0.80859,-0.867187 2.09766,-0.867187 1.24804,0 2.03906,0.849609 0.79101,0.849609 0.79101,2.390625 0,0.09375 -0.006,0.28125 h -4.64062 q 0.0586,1.025391 0.58008,1.570312 0.52148,0.544922 1.30078,0.544922 0.58008,0 0.99023,-0.304687 0.41016,-0.304688 0.65039,-0.972656 z m -3.46289,-1.705079 h 3.47461 q -0.0703,-0.785156 -0.39843,-1.177734 -0.50391,-0.609375 -1.30665,-0.609375 -0.72656,0 -1.2246,0.486328 -0.49219,0.486328 -0.54493,1.300781 z m 5.86524,3.708985 v -6.222656 h 0.94922 V 39.3071 q 0.36328,-0.662109 0.66797,-0.873047 0.31054,-0.210937 0.67968,-0.210937 0.53321,0 1.08399,0.339843 l -0.36328,0.978516 q -0.38672,-0.228516 -0.77344,-0.228516 -0.3457,0 -0.6211,0.210938 -0.27539,0.205078 -0.39257,0.574219 -0.17578,0.5625 -0.17578,1.230468 v 3.257813 z m 4.25976,0 v -5.402344 h -0.93164 v -0.820312 h 0.93164 v -0.66211 q 0,-0.626953 0.11133,-0.93164 0.15235,-0.410157 0.5332,-0.66211 0.38672,-0.257812 1.07813,-0.257812 0.44531,0 0.98437,0.105468 l -0.1582,0.919922 q -0.32812,-0.05859 -0.62109,-0.05859 -0.48047,0 -0.67969,0.205078 -0.19922,0.205078 -0.19922,0.767578 v 0.574219 h 1.21289 v 0.820312 h -1.21289 v 5.402344 z m 7.14258,-0.767578 q -0.58594,0.498047 -1.13086,0.703125 -0.53906,0.205078 -1.16015,0.205078 -1.02539,0 -1.57618,-0.498047 -0.55078,-0.503906 -0.55078,-1.283203 0,-0.457031 0.20508,-0.832031 0.21094,-0.38086 0.54492,-0.609375 0.33985,-0.228516 0.76172,-0.345704 0.31055,-0.08203 0.9375,-0.158203 1.27735,-0.152343 1.88086,-0.363281 0.006,-0.216797 0.006,-0.275391 0,-0.644531 -0.29883,-0.908203 -0.40429,-0.357422 -1.20117,-0.357422 -0.74414,0 -1.10156,0.263672 -0.35156,0.257813 -0.52149,0.919922 l -1.03125,-0.140625 q 0.14063,-0.662109 0.46289,-1.066406 0.32227,-0.410156 0.93164,-0.626953 0.60938,-0.222656 1.41211,-0.222656 0.79688,0 1.29493,0.1875 0.49804,0.1875 0.73242,0.474609 0.23437,0.28125 0.32812,0.714844 0.0527,0.269531 0.0527,0.972656 v 1.40625 q 0,1.470703 0.0645,1.863281 0.0703,0.386719 0.26953,0.744141 h -1.10156 q -0.16406,-0.328125 -0.21094,-0.767578 z m -0.0879,-2.355469 q -0.57422,0.234375 -1.72266,0.398437 -0.65039,0.09375 -0.91992,0.210938 -0.26953,0.117187 -0.41601,0.345703 -0.14649,0.222656 -0.14649,0.498047 0,0.421875 0.31641,0.703125 0.32226,0.28125 0.9375,0.28125 0.60937,0 1.08398,-0.263672 0.47461,-0.269531 0.69727,-0.732422 0.16992,-0.357422 0.16992,-1.054687 z m 6.76172,0.84375 1.03711,0.134766 q -0.16992,1.072265 -0.87305,1.68164 -0.69726,0.603516 -1.71679,0.603516 -1.27735,0 -2.05665,-0.832031 -0.77343,-0.837891 -0.77343,-2.396485 0,-1.007812 0.33398,-1.763672 0.33399,-0.755859 1.01367,-1.130859 0.68555,-0.380859 1.48828,-0.380859 1.01368,0 1.65821,0.515625 0.64453,0.509765 0.82617,1.453125 l -1.02539,0.158203 q -0.14649,-0.626953 -0.52149,-0.94336 -0.36914,-0.316406 -0.89648,-0.316406 -0.79687,0 -1.29492,0.574219 -0.49805,0.568359 -0.49805,1.804687 0,1.253907 0.48047,1.822266 0.48047,0.568359 1.25391,0.568359 0.62109,0 1.03711,-0.380859 0.41601,-0.380859 0.52734,-1.171875 z m 6.19922,0.275391 1.08984,0.134765 q -0.25781,0.955078 -0.95508,1.482422 -0.69726,0.527344 -1.78125,0.527344 -1.36523,0 -2.16796,-0.837891 -0.79688,-0.84375 -0.79688,-2.361328 0,-1.570312 0.80859,-2.4375 0.8086,-0.867187 2.09766,-0.867187 1.24805,0 2.03906,0.849609 0.79102,0.849609 0.79102,2.390625 0,0.09375 -0.006,0.28125 h -4.64063 q 0.0586,1.025391 0.58008,1.570312 0.52149,0.544922 1.30078,0.544922 0.58008,0 0.99024,-0.304687 0.41015,-0.304688 0.65039,-0.972656 z m -3.46289,-1.705079 h 3.47461 q -0.0703,-0.785156 -0.39844,-1.177734 -0.50391,-0.609375 -1.30664,-0.609375 -0.72656,0 -1.22461,0.486328 -0.49219,0.486328 -0.54492,1.300781 z m 11.43164,-0.04687 -5.68945,2.431641 V 42.21335 l 4.50585,-1.869141 -4.50585,-1.851562 v -1.048828 l 5.68945,2.402343 z m 7.00781,0 -5.68945,2.431641 V 42.21335 l 4.50586,-1.869141 -4.50586,-1.851562 v -1.048828 l 5.68945,2.402343 z"
       id="flowRoot3432"
       transform="translate(-309.99999,538.58526)"
       aria-label="&lt;&lt;interface&gt;&gt;" />
  </g>
</svg>
