<?xml version="1.0" encoding="UTF-8" standalone="no"?>
<!-- Created with Inkscape (http://www.inkscape.org/) -->

<svg
   width="800"
   height="600"
   id="svg2"
   version="1.1"
   xmlns="http://www.w3.org/2000/svg"
   xmlns:svg="http://www.w3.org/2000/svg"
   xmlns:rdf="http://www.w3.org/1999/02/22-rdf-syntax-ns#"
   xmlns:cc="http://creativecommons.org/ns#"
   xmlns:dc="http://purl.org/dc/elements/1.1/">
  <defs
     id="defs4" />
  <metadata
     id="metadata7">
    <rdf:RDF>
      <cc:Work
         rdf:about="">
        <dc:format>image/svg+xml</dc:format>
        <dc:type
           rdf:resource="http://purl.org/dc/dcmitype/StillImage" />
        <dc:language>en</dc:language>
        <cc:license
           rdf:resource="https://timefold.ai/license" />
      </cc:Work>
    </rdf:RDF>
  </metadata>
  <g
     id="layer1"
     transform="translate(0,-452.36218)"
     style="display:inline">
    <g
       id="g3709"
       transform="translate(0,19.999997)" />
    <flowRoot
       xml:space="preserve"
       id="flowRoot4157"
       style="font-style:normal;font-weight:normal;line-height:0.01%;font-family:sans-serif;letter-spacing:0px;word-spacing:0px;fill:#000000;fill-opacity:1;stroke:none"><flowRegion
         id="flowRegion4159"
         style="font-family:sans-serif"><rect
           id="rect4161"
           width="10.955056"
           height="72.471909"
           x="16.011236"
           y="-53.932568" /></flowRegion><flowPara
         id="flowPara4163"
         style="font-size:40px;line-height:1.25;font-family:sans-serif"> </flowPara></flowRoot>
    <rect
       style="fill:none;stroke:#ce5c00;stroke-width:1;stroke-linecap:round;stroke-linejoin:round;stroke-miterlimit:4;stroke-dasharray:none;display:inline"
       id="rect4131"
       width="739"
       height="29"
       x="30.5"
       y="992.86267"
       rx="4.999999"
       ry="5" />
    <path
       style="font-size:14px;line-height:1.25;font-family:'Liberation Sans';-inkscape-font-specification:'Liberation Sans, Normal';text-align:center;text-anchor:middle;fill:#ce5c00"
       d="m -526.5874,-9.2693209 1.25097,-0.109375 q 0.0889,0.7519531 0.41016,1.2373047 0.32813,0.4785156 1.01172,0.7792969 0.68359,0.2939453 1.53809,0.2939453 0.75878,0 1.33984,-0.225586 0.58105,-0.2255859 0.86133,-0.6152343 0.28711,-0.3964844 0.28711,-0.8613282 0,-0.4716796 -0.27344,-0.8203125 -0.27344,-0.3554687 -0.90234,-0.594727 -0.40333,-0.157226 -1.78418,-0.485351 -1.38086,-0.334961 -1.93457,-0.628906 -0.71778,-0.375977 -1.07325,-0.929688 -0.34863,-0.560547 -0.34863,-1.250976 0,-0.758789 0.43066,-1.415039 0.43067,-0.663086 1.25782,-1.004883 0.82715,-0.341797 1.83886,-0.341797 1.11426,0 1.96192,0.362305 0.85449,0.355468 1.3125,1.052734 0.45801,0.697266 0.49219,1.579101 l -1.27149,0.0957 q -0.10254,-0.950196 -0.69726,-1.435547 -0.5879,-0.485352 -1.74317,-0.485352 -1.20312,0 -1.75683,0.444336 -0.54688,0.4375 -0.54688,1.05957 0,0.540039 0.38965,0.888672 0.38281,0.348633 1.99609,0.717774 1.62012,0.362304 2.22168,0.635742 0.875,0.40332 1.29199,1.025391 0.417,0.6152339 0.417,1.4218745 0,0.7998047 -0.45801,1.5107422 -0.45801,0.7041016 -1.31934,1.100586 -0.85449,0.3896484 -1.92773,0.3896484 -1.36035,0 -2.2832,-0.3964844 -0.91602,-0.3964843 -1.44239,-1.1894531 -0.51953,-0.7998047 -0.54687,-1.8046875 z m 14.36914,0.5605469 1.20996,0.1572265 q -0.19824,1.2509766 -1.01856,1.9619141 -0.81347,0.7041016 -2.00293,0.7041016 -1.49023,0 -2.39941,-0.9707032 -0.90234,-0.977539 -0.90234,-2.7958984 0,-1.1757816 0.38965,-2.0576176 0.38964,-0.881836 1.18261,-1.319336 0.79981,-0.444335 1.73633,-0.444335 1.18262,0 1.93457,0.601562 0.75195,0.594727 0.96387,1.695313 l -1.19629,0.18457 q -0.1709,-0.731445 -0.6084,-1.100586 -0.43066,-0.369141 -1.0459,-0.369141 -0.92969,0 -1.51074,0.669922 -0.58105,0.663086 -0.58105,2.1054689 0,1.4628906 0.56054,2.1259766 0.56055,0.6630859 1.46289,0.6630859 0.72461,0 1.20996,-0.4443359 0.48536,-0.444336 0.61524,-1.3671875 z m 1.80469,-0.9707031 q 0,-2.0166019 1.12109,-2.9873049 0.93652,-0.80664 2.2832,-0.80664 1.49707,0 2.44727,0.984375 0.95019,0.977539 0.95019,2.7070308 0,1.4013672 -0.42382,2.2080078 -0.417,0.7998047 -1.22364,1.2441406 -0.7998,0.444336 -1.75,0.444336 -1.52441,0 -2.46777,-0.9775391 -0.93652,-0.9775391 -0.93652,-2.8164062 z m 1.26464,0 q 0,1.3945312 0.6084,2.0917968 0.6084,0.6904297 1.53125,0.6904297 0.91602,0 1.52442,-0.6972656 0.6084,-0.6972656 0.6084,-2.1259766 0,-1.3466792 -0.61524,-2.0371092 -0.6084,-0.697266 -1.51758,-0.697266 -0.92285,0 -1.53125,0.69043 -0.6084,0.69043 -0.6084,2.0849609 z m 6.96582,3.6298828 V -13.30936 h 1.10743 v 1.100586 q 0.42382,-0.772461 0.77929,-1.018555 0.36231,-0.246093 0.79297,-0.246093 0.62207,0 1.26465,0.396484 l -0.42383,1.141601 q -0.45117,-0.266601 -0.90234,-0.266601 -0.40332,0 -0.72461,0.246094 -0.32129,0.239257 -0.45801,0.669922 -0.20508,0.65625 -0.20508,1.4355464 v 3.8007813 z m 9.64551,-2.3378907 1.27149,0.1572266 q -0.30078,1.1142578 -1.11426,1.7294922 -0.81348,0.6152344 -2.07813,0.6152344 -1.59277,0 -2.52929,-0.9775391 -0.92969,-0.984375 -0.92969,-2.7548828 0,-1.8320313 0.94336,-2.8437503 0.94336,-1.011718 2.44726,-1.011718 1.45606,0 2.37891,0.99121 0.92285,0.991211 0.92285,2.789063 0,0.109375 -0.007,0.328125 h -5.41407 q 0.0684,1.196289 0.67676,1.8320312 0.6084,0.6357422 1.51758,0.6357422 0.67676,0 1.15527,-0.3554687 0.47852,-0.3554688 0.75879,-1.1347657 z m -4.04004,-1.989258 h 4.05371 q -0.082,-0.916015 -0.46484,-1.374023 -0.58789,-0.710938 -1.52441,-0.710938 -0.84766,0 -1.42871,0.567383 -0.57422,0.567383 -0.63575,1.517578 z m 11.04004,4.3271487 v -6.3027347 h -1.08691 v -0.957031 h 1.08691 v -0.772461 q 0,-0.731445 0.12989,-1.086914 0.17773,-0.478516 0.62207,-0.772461 0.45117,-0.300781 1.25781,-0.300781 0.51953,0 1.14844,0.123047 l -0.18457,1.073242 q -0.38282,-0.06836 -0.72461,-0.06836 -0.56055,0 -0.79297,0.239257 -0.23242,0.239258 -0.23242,0.895508 v 0.669922 h 1.41503 v 0.957031 h -1.41503 v 6.3027347 z m 3.1377,-3.6298828 q 0,-2.0166019 1.12109,-2.9873049 0.93652,-0.80664 2.2832,-0.80664 1.49707,0 2.44727,0.984375 0.9502,0.977539 0.9502,2.7070308 0,1.4013672 -0.42383,2.2080078 -0.41699,0.7998047 -1.22364,1.2441406 -0.7998,0.444336 -1.75,0.444336 -1.52441,0 -2.46777,-0.9775391 -0.93652,-0.9775391 -0.93652,-2.8164062 z m 1.26465,0 q 0,1.3945312 0.60839,2.0917968 0.6084,0.6904297 1.53125,0.6904297 0.91602,0 1.52442,-0.6972656 0.6084,-0.6972656 0.6084,-2.1259766 0,-1.3466792 -0.61524,-2.0371092 -0.6084,-0.697266 -1.51758,-0.697266 -0.92285,0 -1.53125,0.69043 -0.60839,0.69043 -0.60839,2.0849609 z m 6.96582,3.6298828 V -13.30936 h 1.10742 v 1.100586 q 0.42383,-0.772461 0.7793,-1.018555 0.3623,-0.246093 0.79296,-0.246093 0.62207,0 1.26465,0.396484 l -0.42383,1.141601 q -0.45117,-0.266601 -0.90234,-0.266601 -0.40332,0 -0.72461,0.246094 -0.32129,0.239257 -0.45801,0.669922 -0.20507,0.65625 -0.20507,1.4355464 v 3.8007813 z m 12.85839,0 h -1.23046 v -7.8408207 q -0.44434,0.423828 -1.16895,0.847657 -0.71777,0.423828 -1.29199,0.635742 v -1.189453 q 1.03223,-0.485352 1.80469,-1.175782 0.77246,-0.690429 1.09375,-1.339843 h 0.79296 z m 6.89063,-2.1669922 1.2168,-0.1914063 q 0.10254,0.7314453 0.56738,1.1210938 0.47168,0.3896484 1.3125,0.3896484 0.84766,0 1.25781,-0.3417969 0.41016,-0.3486328 0.41016,-0.8134765 0,-0.4169922 -0.36231,-0.65625 -0.25293,-0.1640625 -1.25781,-0.4169922 -1.35351,-0.3417969 -1.87988,-0.5878906 -0.51953,-0.2529297 -0.79297,-0.6904302 -0.2666,-0.444335 -0.2666,-0.977539 0,-0.485351 0.21875,-0.895507 0.22558,-0.416993 0.6084,-0.69043 0.28711,-0.211914 0.77929,-0.355469 0.49903,-0.15039 1.06641,-0.15039 0.85449,0 1.49707,0.246093 0.64941,0.246094 0.95703,0.669922 0.30762,0.416992 0.42383,1.121094 l -1.20313,0.164062 q -0.082,-0.560546 -0.47851,-0.875 -0.38965,-0.314453 -1.10742,-0.314453 -0.84766,0 -1.20996,0.280274 -0.36231,0.280273 -0.36231,0.65625 0,0.239258 0.15039,0.430664 0.15039,0.198242 0.47168,0.328125 0.18457,0.06836 1.08692,0.314453 1.30566,0.348633 1.81835,0.5742187 0.51954,0.21875 0.81348,0.6425781 0.29395,0.4238281 0.29395,1.0527344 0,0.6152343 -0.36231,1.1621093 -0.35547,0.5400391 -1.03222,0.8408204 -0.67676,0.2939453 -1.53125,0.2939453 -1.41504,0 -2.16016,-0.5878907 -0.73828,-0.5878906 -0.94336,-1.743164 z m 7.03418,-1.4628906 q 0,-2.0166019 1.12109,-2.9873049 0.93653,-0.80664 2.28321,-0.80664 1.49707,0 2.44726,0.984375 0.9502,0.977539 0.9502,2.7070308 0,1.4013672 -0.42383,2.2080078 -0.41699,0.7998047 -1.22363,1.2441406 -0.79981,0.444336 -1.75,0.444336 -1.52442,0 -2.46778,-0.9775391 -0.93652,-0.9775391 -0.93652,-2.8164062 z m 1.26465,0 q 0,1.3945312 0.6084,2.0917968 0.60839,0.6904297 1.53125,0.6904297 0.91601,0 1.52441,-0.6972656 0.6084,-0.6972656 0.6084,-2.1259766 0,-1.3466792 -0.61524,-2.0371092 -0.60839,-0.697266 -1.51757,-0.697266 -0.92286,0 -1.53125,0.69043 -0.6084,0.69043 -0.6084,2.0849609 z m 6.95215,3.6298828 V -16.071079 h 1.23047 v 10.0214847 z m 7.8955,0 v -1.0664063 q -0.84765,1.2304688 -2.30371,1.2304688 -0.64257,0 -1.20312,-0.2460938 -0.55371,-0.2460937 -0.82715,-0.6152344 -0.2666,-0.3759765 -0.37598,-0.9160156 -0.0752,-0.3623047 -0.0752,-1.1484375 V -13.30936 h 1.23047 v 4.0263672 q 0,0.9638672 0.0752,1.2988282 0.11621,0.4853515 0.49219,0.765625 0.37598,0.2734375 0.92969,0.2734375 0.55371,0 1.03906,-0.2802735 0.48535,-0.2871094 0.68359,-0.7724609 0.20508,-0.4921875 0.20508,-1.421875 V -13.30936 h 1.23047 v 7.2597657 z m 5.71485,-1.100586 0.17773,1.0869141 q -0.51953,0.109375 -0.92969,0.109375 -0.66992,0 -1.03906,-0.2119141 -0.36914,-0.211914 -0.51953,-0.5537109 -0.15039,-0.3486328 -0.15039,-1.4560547 v -4.1767581 h -0.90234 v -0.957031 h 0.90234 v -1.797852 l 1.22363,-0.738281 v 2.536133 h 1.23731 v 0.957031 h -1.23731 v 4.2451175 q 0,0.5263672 0.0615,0.6767578 0.0684,0.1503906 0.21191,0.2392578 0.15039,0.088867 0.42383,0.088867 0.20508,0 0.54004,-0.047852 z m 1.20996,-7.5058597 v -1.415039 h 1.23047 v 1.415039 z m 0,8.6064457 V -13.30936 h 1.23047 v 7.2597657 z m 2.64551,-3.6298828 q 0,-2.0166019 1.12109,-2.9873049 0.93652,-0.80664 2.2832,-0.80664 1.49707,0 2.44727,0.984375 0.95019,0.977539 0.95019,2.7070308 0,1.4013672 -0.42382,2.2080078 -0.417,0.7998047 -1.22364,1.2441406 -0.7998,0.444336 -1.75,0.444336 -1.52441,0 -2.46777,-0.9775391 -0.93652,-0.9775391 -0.93652,-2.8164062 z m 1.26465,0 q 0,1.3945312 0.60839,2.0917968 0.6084,0.6904297 1.53125,0.6904297 0.91602,0 1.52442,-0.6972656 0.6084,-0.6972656 0.6084,-2.1259766 0,-1.3466792 -0.61524,-2.0371092 -0.6084,-0.697266 -1.51758,-0.697266 -0.92285,0 -1.53125,0.69043 -0.60839,0.69043 -0.60839,2.0849609 z m 6.97949,3.6298828 V -13.30936 h 1.10742 v 1.032227 q 0.7998,-1.196289 2.31055,-1.196289 0.65625,0 1.20312,0.239257 0.55371,0.232422 0.82715,0.615235 0.27344,0.382812 0.38281,0.909179 0.0684,0.341797 0.0684,1.196289 v 4.4638677 h -1.23047 V -10.46561 q 0,-0.751953 -0.14355,-1.121094 -0.14356,-0.375976 -0.5127,-0.594726 -0.3623,-0.225586 -0.85449,-0.225586 -0.78613,0 -1.36035,0.499023 -0.56738,0.499024 -0.56738,1.893555 v 3.9648437 z"
       id="flowRoot4146"
       transform="translate(866.90625,1041.0231)"
       aria-label="Score for 1 solution" />
  </g>
</svg>
