<?xml version="1.0" encoding="UTF-8" standalone="no"?>
<svg
   width="800"
   height="600"
   id="svg2"
   version="1.1"
   xmlns:xlink="http://www.w3.org/1999/xlink"
   xmlns="http://www.w3.org/2000/svg"
   xmlns:svg="http://www.w3.org/2000/svg"
   xmlns:rdf="http://www.w3.org/1999/02/22-rdf-syntax-ns#"
   xmlns:cc="http://creativecommons.org/ns#"
   xmlns:dc="http://purl.org/dc/elements/1.1/">
  <defs
     id="defs4">
    <linearGradient
       id="linearGradient20">
      <stop
         style="stop-color:#888a85;stop-opacity:1;"
         offset="0"
         id="stop21" />
      <stop
         style="stop-color:#888a85;stop-opacity:0;"
         offset="1"
         id="stop23" />
    </linearGradient>
    <linearGradient
       xlink:href="#linearGradient20"
       id="linearGradient13"
       gradientUnits="userSpaceOnUse"
       gradientTransform="matrix(1,0,0,1.25,-920.00049,-156.84096)"
       x1="200"
       y1="667.36218"
       x2="180"
       y2="667.36218" />
    <linearGradient
       xlink:href="#linearGradient20"
       id="linearGradient14"
       gradientUnits="userSpaceOnUse"
       gradientTransform="matrix(1,0,0,1.25,20.000493,-156.84096)"
       x1="200"
       y1="667.36218"
       x2="180"
       y2="667.36218" />
    <marker
       style="overflow:visible"
       id="ArrowTriangleStylized-4_reversed"
       refX="0"
       refY="0"
       orient="auto"
       markerWidth="1"
       markerHeight="1"
       viewBox="0 0 1 1"
       preserveAspectRatio="xMidYMid">
      <g
         transform="rotate(180,0,0)"
         id="g3">
        <path
           transform="scale(0.5)"
           style="fill:currentColor;fill:context-stroke;fill-rule:evenodd;stroke:context-stroke;stroke-width:1pt"
           d="m 6,0 c -3,1 -7,3 -9,5 0,0 0,-4 2,-5 -2,-1 -2,-5 -2,-5 2,2 6,4 9,5 z"
           id="path3" />
      </g>
    </marker>
  </defs>
  <metadata
     id="metadata7">
    <rdf:RDF>
      <cc:Work
         rdf:about="">
        <dc:format>image/svg+xml</dc:format>
        <dc:type
           rdf:resource="http://purl.org/dc/dcmitype/StillImage" />
        <dc:language>en</dc:language>
        <cc:license
           rdf:resource="https://timefold.ai/product/license/" />
      </cc:Work>
    </rdf:RDF>
  </metadata>
  <g
     id="layer1"
     transform="translate(0,-452.36218)"
     style="display:inline">
    <path
       d="M 216.75408,253.62814 206.39992,226.9042 h 3.82812 l 6.94531,19.41405 q 0.83854,2.33333 1.40364,4.37499 0.6198,-2.1875 1.44011,-4.37499 l 7.21874,-19.41405 h 3.60937 l -10.46353,26.72394 z m 28.03643,-6.23437 3.39062,0.41927 q -0.80208,2.97135 -2.97135,4.61197 -2.16927,1.64063 -5.54166,1.64063 -4.24739,0 -6.74478,-2.60677 -2.47917,-2.625 -2.47917,-7.34635 0,-4.88541 2.51562,-7.58333 2.51563,-2.69791 6.52604,-2.69791 3.88281,0 6.34374,2.64323 2.46094,2.64322 2.46094,7.43749 0,0.29167 -0.0182,0.875 h -14.43749 q 0.18229,3.1901 1.80469,4.88541 1.62239,1.69531 4.04687,1.69531 1.80469,0 3.08073,-0.94791 1.27604,-0.94792 2.02343,-3.02604 z m -10.77343,-5.30469 h 10.80989 q -0.21875,-2.4427 -1.23958,-3.66406 -1.56771,-1.89583 -4.0651,-1.89583 -2.26042,0 -3.80989,1.51302 -1.53125,1.51302 -1.69532,4.04687 z m 18.28384,11.53906 V 226.9042 h 3.28125 v 9.58853 q 2.29687,-2.66145 5.79687,-2.66145 2.15104,0 3.73697,0.85677 1.58594,0.83854 2.26042,2.33333 0.69271,1.49479 0.69271,4.33854 v 12.26822 h -3.28125 v -12.26822 q 0,-2.46094 -1.07552,-3.57292 -1.05729,-1.1302 -3.00781,-1.1302 -1.45833,0 -2.7526,0.76562 -1.27604,0.7474 -1.82292,2.04167 -0.54687,1.29427 -0.54687,3.57291 v 10.59114 z m 20.78123,-22.9505 v -3.77344 h 3.28125 v 3.77344 z m 0,22.9505 v -19.35936 h 3.28125 v 19.35936 z m 20.90884,-7.09114 3.22656,0.41927 q -0.52865,3.33593 -2.71615,5.23176 -2.16926,1.87761 -5.34114,1.87761 -3.97395,0 -6.39843,-2.58854 -2.40625,-2.60677 -2.40625,-7.45573 0,-3.13541 1.03907,-5.48697 1.03906,-2.35156 3.15364,-3.51823 2.13281,-1.18489 4.6302,-1.18489 3.15365,0 5.15885,1.60416 2.00521,1.58594 2.57031,4.52083 l -3.1901,0.49219 q -0.45573,-1.95052 -1.62239,-2.93489 -1.14844,-0.98438 -2.78906,-0.98438 -2.47917,0 -4.02865,1.78646 -1.54947,1.76823 -1.54947,5.61458 0,3.90104 1.49479,5.66926 1.49479,1.76823 3.90104,1.76823 1.93229,0 3.22655,-1.18489 1.29427,-1.1849 1.64063,-3.64583 z m 5.96094,7.09114 V 226.9042 h 3.28124 v 26.72394 z m 21.61976,-6.23437 3.39063,0.41927 q -0.80209,2.97135 -2.97136,4.61197 -2.16926,1.64063 -5.54166,1.64063 -4.24739,0 -6.74478,-2.60677 -2.47917,-2.625 -2.47917,-7.34635 0,-4.88541 2.51563,-7.58333 2.51562,-2.69791 6.52603,-2.69791 3.88281,0 6.34375,2.64323 2.46093,2.64322 2.46093,7.43749 0,0.29167 -0.0182,0.875 h -14.43749 q 0.1823,3.1901 1.80469,4.88541 1.62239,1.69531 4.04687,1.69531 1.80469,0 3.08073,-0.94791 1.27604,-0.94792 2.02343,-3.02604 z m -10.77342,-5.30469 h 10.80988 q -0.21875,-2.4427 -1.23958,-3.66406 -1.56771,-1.89583 -4.0651,-1.89583 -2.26042,0 -3.80989,1.51302 -1.53125,1.51302 -1.69531,4.04687 z m 27.34372,5.76042 3.24478,-0.51042 q 0.27344,1.95052 1.51302,2.98958 1.25782,1.03906 3.5,1.03906 2.26042,0 3.35417,-0.91146 1.09374,-0.92968 1.09374,-2.16926 0,-1.11198 -0.96614,-1.75 -0.67448,-0.4375 -3.35416,-1.11198 -3.60938,-0.91146 -5.01302,-1.56771 -1.38542,-0.67448 -2.11458,-1.84114 -0.71094,-1.1849 -0.71094,-2.60677 0,-1.29427 0.58333,-2.38802 0.60157,-1.11198 1.6224,-1.84114 0.76562,-0.56511 2.07812,-0.94792 1.33073,-0.40104 2.84375,-0.40104 2.27864,0 3.99218,0.65625 1.73177,0.65625 2.55208,1.78645 0.82032,1.11198 1.13021,2.98959 l -3.20833,0.43749 q -0.21875,-1.49479 -1.27604,-2.33333 -1.03906,-0.83854 -2.95312,-0.83854 -2.26042,0 -3.22656,0.7474 -0.96615,0.74739 -0.96615,1.75 0,0.63802 0.40104,1.14843 0.40105,0.52865 1.25782,0.875 0.49218,0.18229 2.89843,0.83854 3.48177,0.92969 4.84895,1.53125 1.38542,0.58333 2.16927,1.71354 0.78386,1.13021 0.78386,2.80729 0,1.64062 -0.96615,3.09896 -0.94791,1.4401 -2.7526,2.24218 -1.80469,0.78386 -4.08333,0.78386 -3.77343,0 -5.76041,-1.56771 -1.96875,-1.56771 -2.51562,-4.64843 z m 19.97915,5.77864 V 226.9042 h 3.28125 v 9.58853 q 2.29687,-2.66145 5.79687,-2.66145 2.15104,0 3.73697,0.85677 1.58594,0.83854 2.26042,2.33333 0.69271,1.49479 0.69271,4.33854 v 12.26822 h -3.28125 v -12.26822 q 0,-2.46094 -1.07552,-3.57292 -1.05729,-1.1302 -3.00781,-1.1302 -1.45833,0 -2.7526,0.76562 -1.27604,0.7474 -1.82292,2.04167 -0.54687,1.29427 -0.54687,3.57291 v 10.59114 z m 20.78123,-22.9505 v -3.77344 h 3.28125 v 3.77344 z m 0,22.9505 v -19.35936 h 3.28125 v 19.35936 z m 9.05989,0 v -16.80728 h -2.89843 v -2.55208 h 2.89843 v -2.0599 q 0,-1.95052 0.34636,-2.89843 0.47395,-1.27604 1.65885,-2.0599 1.20312,-0.80208 3.35416,-0.80208 1.38542,0 3.0625,0.32813 l -0.49219,2.86197 q -1.02083,-0.18229 -1.93229,-0.18229 -1.49479,0 -2.11458,0.63802 -0.61979,0.63802 -0.61979,2.38802 v 1.78646 h 3.77343 v 2.55208 h -3.77343 v 16.80728 z m 16.75259,-2.9349 0.47396,2.89844 q -1.38541,0.29166 -2.47916,0.29166 -1.78646,0 -2.77083,-0.5651 -0.98438,-0.5651 -1.38542,-1.47656 -0.40104,-0.92969 -0.40104,-3.88281 v -11.13801 h -2.40625 v -2.55208 h 2.40625 v -4.79427 l 3.26302,-1.96875 v 6.76302 h 3.29947 v 2.55208 h -3.29947 v 11.3203 q 0,1.40365 0.16406,1.80469 0.18229,0.40104 0.5651,0.63802 0.40105,0.23698 1.13021,0.23698 0.54688,0 1.4401,-0.12761 z m 12.26822,-2.84374 3.24478,-0.51042 q 0.27344,1.95052 1.51302,2.98958 1.25782,1.03906 3.5,1.03906 2.26042,0 3.35417,-0.91146 1.09374,-0.92968 1.09374,-2.16926 0,-1.11198 -0.96614,-1.75 -0.67448,-0.4375 -3.35416,-1.11198 -3.60938,-0.91146 -5.01302,-1.56771 -1.38542,-0.67448 -2.11458,-1.84114 -0.71094,-1.1849 -0.71094,-2.60677 0,-1.29427 0.58333,-2.38802 0.60157,-1.11198 1.6224,-1.84114 0.76562,-0.56511 2.07812,-0.94792 1.33073,-0.40104 2.84375,-0.40104 2.27864,0 3.99218,0.65625 1.73177,0.65625 2.55208,1.78645 0.82032,1.11198 1.13021,2.98959 l -3.20833,0.43749 q -0.21875,-1.49479 -1.27604,-2.33333 -1.03906,-0.83854 -2.95312,-0.83854 -2.26042,0 -3.22656,0.7474 -0.96615,0.74739 -0.96615,1.75 0,0.63802 0.40104,1.14843 0.40105,0.52865 1.25782,0.875 0.49218,0.18229 2.89843,0.83854 3.48177,0.92969 4.84895,1.53125 1.38542,0.58333 2.16927,1.71354 0.78386,1.13021 0.78386,2.80729 0,1.64062 -0.96615,3.09896 -0.94791,1.4401 -2.7526,2.24218 -1.80469,0.78386 -4.08333,0.78386 -3.77343,0 -5.76041,-1.56771 -1.96875,-1.56771 -2.51562,-4.64843 z m 27.14321,2.84374 0.47396,2.89844 q -1.38542,0.29166 -2.47917,0.29166 -1.78646,0 -2.77083,-0.5651 -0.98437,-0.5651 -1.38542,-1.47656 -0.40104,-0.92969 -0.40104,-3.88281 v -11.13801 h -2.40624 v -2.55208 h 2.40624 v -4.79427 l 3.26302,-1.96875 v 6.76302 h 3.29948 v 2.55208 h -3.29948 v 11.3203 q 0,1.40365 0.16406,1.80469 0.1823,0.40104 0.56511,0.63802 0.40104,0.23698 1.1302,0.23698 0.54688,0 1.44011,-0.12761 z m 15.84113,0.54688 q -1.82291,1.54948 -3.51822,2.1875 -1.67708,0.63802 -3.60937,0.63802 -3.19011,0 -4.90365,-1.54948 -1.71354,-1.56771 -1.71354,-3.99219 0,-1.42187 0.63802,-2.58854 0.65625,-1.18489 1.69532,-1.89583 1.05729,-0.71093 2.36978,-1.07552 0.96615,-0.25521 2.91667,-0.49218 3.97395,-0.47396 5.85156,-1.13021 0.0182,-0.67448 0.0182,-0.85677 0,-2.00521 -0.92969,-2.82552 -1.25781,-1.11198 -3.73698,-1.11198 -2.3151,0 -3.42708,0.82031 -1.09375,0.80209 -1.62239,2.86198 l -3.20833,-0.4375 q 0.4375,-2.05989 1.4401,-3.3177 1.0026,-1.27605 2.89844,-1.95052 1.89583,-0.69271 4.39322,-0.69271 2.47917,0 4.02864,0.58333 1.54948,0.58333 2.27865,1.47656 0.72916,0.875 1.02083,2.22396 0.16406,0.83854 0.16406,3.02604 v 4.37499 q 0,4.57552 0.20052,5.79687 0.21875,1.20313 0.83854,2.31511 h -3.42708 q -0.51041,-1.02084 -0.65625,-2.38802 z m -0.27343,-7.32812 q -1.78646,0.72916 -5.35937,1.23958 -2.02344,0.29167 -2.86198,0.65625 -0.83854,0.36458 -1.29427,1.07552 -0.45573,0.69271 -0.45573,1.54948 0,1.3125 0.98437,2.1875 1.00261,0.875 2.91667,0.875 1.89583,0 3.37239,-0.82032 1.47656,-0.83854 2.16927,-2.27864 0.52865,-1.11198 0.52865,-3.28125 z m 8.36717,9.71614 v -19.35936 h 2.95313 v 2.93489 q 1.1302,-2.05989 2.07812,-2.71614 0.96614,-0.65625 2.11458,-0.65625 1.65885,0 3.37239,1.05729 l -1.1302,3.04427 q -1.20313,-0.71094 -2.40625,-0.71094 -1.07552,0 -1.93229,0.65625 -0.85677,0.63802 -1.22135,1.78646 -0.54688,1.75 -0.54688,3.82812 v 10.13541 z m 19.6328,-2.9349 0.47396,2.89844 q -1.38542,0.29166 -2.47917,0.29166 -1.78645,0 -2.77083,-0.5651 -0.98437,-0.5651 -1.38541,-1.47656 -0.40104,-0.92969 -0.40104,-3.88281 v -11.13801 h -2.40625 v -2.55208 h 2.40625 v -4.79427 l 3.26301,-1.96875 v 6.76302 h 3.29948 v 2.55208 h -3.29948 v 11.3203 q 0,1.40365 0.16407,1.80469 0.18229,0.40104 0.5651,0.63802 0.40104,0.23698 1.13021,0.23698 0.54687,0 1.4401,-0.12761 z m 26.21353,0.54688 q -1.82292,1.54948 -3.51823,2.1875 -1.67708,0.63802 -3.60937,0.63802 -3.1901,0 -4.90364,-1.54948 -1.71354,-1.56771 -1.71354,-3.99219 0,-1.42187 0.63802,-2.58854 0.65625,-1.18489 1.69531,-1.89583 1.05729,-0.71093 2.36979,-1.07552 0.96614,-0.25521 2.91666,-0.49218 3.97396,-0.47396 5.85156,-1.13021 0.0182,-0.67448 0.0182,-0.85677 0,-2.00521 -0.92969,-2.82552 -1.25781,-1.11198 -3.73697,-1.11198 -2.31511,0 -3.42708,0.82031 -1.09375,0.80209 -1.6224,2.86198 l -3.20833,-0.4375 q 0.4375,-2.05989 1.4401,-3.3177 1.00261,-1.27605 2.89844,-1.95052 1.89583,-0.69271 4.39322,-0.69271 2.47917,0 4.02865,0.58333 1.54947,0.58333 2.27864,1.47656 0.72917,0.875 1.02083,2.22396 0.16407,0.83854 0.16407,3.02604 v 4.37499 q 0,4.57552 0.20052,5.79687 0.21875,1.20313 0.83854,2.31511 h -3.42708 q -0.51042,-1.02084 -0.65625,-2.38802 z m -0.27344,-7.32812 q -1.78646,0.72916 -5.35937,1.23958 -2.02344,0.29167 -2.86198,0.65625 -0.83854,0.36458 -1.29427,1.07552 -0.45573,0.69271 -0.45573,1.54948 0,1.3125 0.98438,2.1875 1.0026,0.875 2.91666,0.875 1.89583,0 3.3724,-0.82032 1.47656,-0.83854 2.16926,-2.27864 0.52865,-1.11198 0.52865,-3.28125 z m 8.40364,9.71614 v -19.35936 h 2.95312 v 2.7526 q 2.13281,-3.1901 6.16145,-3.1901 1.75,0 3.20833,0.63802 1.47656,0.61979 2.20573,1.64062 0.72917,1.02083 1.02083,2.42448 0.18229,0.91146 0.18229,3.1901 v 11.90364 h -3.28124 V 241.8521 q 0,-2.0052 -0.38282,-2.98958 -0.38281,-1.0026 -1.36718,-1.58593 -0.96615,-0.60156 -2.27865,-0.60156 -2.09635,0 -3.6276,1.33072 -1.51302,1.33073 -1.51302,5.04948 v 10.57291 z m 33.32288,0 v -2.44271 q -1.84114,2.88021 -5.41406,2.88021 -2.3151,0 -4.26562,-1.27604 -1.93229,-1.27605 -3.00781,-3.55469 -1.05729,-2.29687 -1.05729,-5.26822 0,-2.89844 0.96615,-5.25 0.96614,-2.36979 2.89843,-3.6276 1.93229,-1.25781 4.32031,-1.25781 1.75,0 3.11719,0.74739 1.36718,0.72917 2.22395,1.91406 v -9.58853 h 3.26302 v 26.72394 z m -10.37239,-9.66145 q 0,3.71874 1.56771,5.55989 1.56771,1.84114 3.70052,1.84114 2.15104,0 3.64583,-1.75 1.51302,-1.76822 1.51302,-5.3776 0,-3.97395 -1.53125,-5.83332 -1.53125,-1.85938 -3.77343,-1.85938 -2.1875,0 -3.66406,1.78646 -1.45834,1.78646 -1.45834,5.63281 z m 42.20048,3.42708 3.39062,0.41927 q -0.80209,2.97135 -2.97135,4.61197 -2.16927,1.64063 -5.54167,1.64063 -4.24739,0 -6.74478,-2.60677 -2.47917,-2.625 -2.47917,-7.34635 0,-4.88541 2.51563,-7.58333 2.51562,-2.69791 6.52603,-2.69791 3.88281,0 6.34375,2.64323 2.46093,2.64322 2.46093,7.43749 0,0.29167 -0.0182,0.875 h -14.43748 q 0.18229,3.1901 1.80468,4.88541 1.6224,1.69531 4.04687,1.69531 1.80469,0 3.08073,-0.94791 1.27604,-0.94792 2.02344,-3.02604 z m -10.77343,-5.30469 h 10.80988 q -0.21875,-2.4427 -1.23958,-3.66406 -1.56771,-1.89583 -4.0651,-1.89583 -2.26041,0 -3.80989,1.51302 -1.53125,1.51302 -1.69531,4.04687 z m 18.28383,11.53906 v -19.35936 h 2.95313 v 2.7526 q 2.13281,-3.1901 6.16145,-3.1901 1.75,0 3.20833,0.63802 1.47656,0.61979 2.20573,1.64062 0.72916,1.02083 1.02083,2.42448 0.18229,0.91146 0.18229,3.1901 v 11.90364 h -3.28125 V 241.8521 q 0,-2.0052 -0.38281,-2.98958 -0.38281,-1.0026 -1.36719,-1.58593 -0.96614,-0.60156 -2.27864,-0.60156 -2.09635,0 -3.6276,1.33072 -1.51302,1.33073 -1.51302,5.04948 v 10.57291 z m 33.32289,0 v -2.44271 q -1.84115,2.88021 -5.41406,2.88021 -2.3151,0 -4.26562,-1.27604 -1.93229,-1.27605 -3.00781,-3.55469 -1.05729,-2.29687 -1.05729,-5.26822 0,-2.89844 0.96614,-5.25 0.96615,-2.36979 2.89844,-3.6276 1.93229,-1.25781 4.32031,-1.25781 1.75,0 3.11718,0.74739 1.36719,0.72917 2.22396,1.91406 v -9.58853 h 3.26302 v 26.72394 z m -10.37239,-9.66145 q 0,3.71874 1.56771,5.55989 1.56771,1.84114 3.70052,1.84114 2.15104,0 3.64583,-1.75 1.51302,-1.76822 1.51302,-5.3776 0,-3.97395 -1.53125,-5.83332 -1.53125,-1.85938 -3.77344,-1.85938 -2.1875,0 -3.66406,1.78646 -1.45833,1.78646 -1.45833,5.63281 z"
       id="flowRoot4302"
       style="font-size:37.3333px;font-family:'Liberation Sans';-inkscape-font-specification:'Liberation Sans, Normal';text-align:center;text-anchor:middle"
       transform="translate(-20,252.36213)"
       aria-label="Vehicle shift start and end" />
    <g
       id="g3709"
       transform="translate(0,19.999997)" />
    <path
       style="font-size:16px;line-height:1.25;font-family:'Liberation Sans';-inkscape-font-specification:'Liberation Sans, Normal';text-align:center;text-anchor:middle"
       d="m 135.82031,164.41207 v -11.45312 h 8.28125 v 1.35156 h -6.76562 v 3.50781 h 6.33593 v 1.34375 h -6.33593 v 3.89844 h 7.03125 v 1.35156 z m 15.875,-1.02344 q -0.78125,0.66407 -1.50781,0.9375 -0.71875,0.27344 -1.54688,0.27344 -1.36718,0 -2.10156,-0.66406 -0.73437,-0.67188 -0.73437,-1.71094 0,-0.60937 0.27343,-1.10937 0.28125,-0.50782 0.72657,-0.8125 0.45312,-0.30469 1.01562,-0.46094 0.41406,-0.10938 1.25,-0.21094 1.70313,-0.20312 2.50781,-0.48437 0.008,-0.28907 0.008,-0.36719 0,-0.85938 -0.39844,-1.21094 -0.53906,-0.47656 -1.60156,-0.47656 -0.99219,0 -1.46875,0.35156 -0.46875,0.34375 -0.69532,1.22656 l -1.375,-0.1875 q 0.1875,-0.88281 0.61719,-1.42187 0.42969,-0.54688 1.24219,-0.83594 0.8125,-0.29687 1.88281,-0.29687 1.0625,0 1.72656,0.25 0.66407,0.25 0.97657,0.63281 0.3125,0.375 0.4375,0.95312 0.0703,0.35938 0.0703,1.29688 v 1.875 q 0,1.96094 0.0859,2.48437 0.0937,0.51563 0.35937,0.99219 h -1.46875 q -0.21875,-0.4375 -0.28125,-1.02344 z m -0.11719,-3.14062 q -0.76562,0.3125 -2.29687,0.53125 -0.86719,0.125 -1.22656,0.28125 -0.35938,0.15625 -0.55469,0.46094 -0.19531,0.29687 -0.19531,0.66406 0,0.5625 0.42187,0.9375 0.42969,0.375 1.25,0.375 0.8125,0 1.44531,-0.35156 0.63282,-0.35938 0.92969,-0.97657 0.22656,-0.47656 0.22656,-1.40625 z m 9.01563,1.125 1.38281,0.17969 q -0.22656,1.42968 -1.16406,2.24218 -0.92969,0.80469 -2.28906,0.80469 -1.70313,0 -2.74219,-1.10937 -1.03125,-1.11719 -1.03125,-3.19532 0,-1.34375 0.44531,-2.35156 0.44531,-1.00781 1.35156,-1.50781 0.91407,-0.50781 1.98438,-0.50781 1.35156,0 2.21094,0.6875 0.85937,0.67968 1.10156,1.9375 l -1.36719,0.21093 q -0.19531,-0.83593 -0.69531,-1.25781 -0.49219,-0.42187 -1.19531,-0.42187 -1.0625,0 -1.72657,0.76562 -0.66406,0.75781 -0.66406,2.40625 0,1.67188 0.64063,2.42969 0.64062,0.75781 1.67187,0.75781 0.82813,0 1.38281,-0.50781 0.55469,-0.50781 0.70313,-1.5625 z m 2.58594,3.03906 v -11.45312 h 1.40625 v 4.10937 q 0.98437,-1.14062 2.48437,-1.14062 0.92188,0 1.60156,0.36718 0.67969,0.35938 0.96875,1 0.29688,0.64063 0.29688,1.85938 v 5.25781 h -1.40625 v -5.25781 q 0,-1.05469 -0.46094,-1.53125 -0.45312,-0.48438 -1.28906,-0.48438 -0.625,0 -1.17969,0.32813 -0.54687,0.32031 -0.78125,0.875 -0.23437,0.55469 -0.23437,1.53125 v 4.53906 z m 12.78125,-2.47656 1.39062,-0.21875 q 0.11719,0.83594 0.64844,1.28125 0.53906,0.44531 1.5,0.44531 0.96875,0 1.4375,-0.39062 0.46875,-0.39844 0.46875,-0.92969 0,-0.47656 -0.41406,-0.75 -0.28907,-0.1875 -1.4375,-0.47656 -1.54688,-0.39063 -2.14844,-0.67188 -0.59375,-0.28906 -0.90625,-0.78906 -0.30469,-0.50781 -0.30469,-1.11719 0,-0.55469 0.25,-1.02344 0.25781,-0.47656 0.69531,-0.78906 0.32813,-0.24219 0.89063,-0.40625 0.57031,-0.17187 1.21875,-0.17187 0.97656,0 1.71094,0.28125 0.74218,0.28125 1.09375,0.76562 0.35156,0.47656 0.48437,1.28125 l -1.375,0.1875 q -0.0937,-0.64062 -0.54687,-1 -0.44532,-0.35937 -1.26563,-0.35937 -0.96875,0 -1.38281,0.32031 -0.41406,0.32031 -0.41406,0.75 0,0.27344 0.17187,0.49219 0.17188,0.22656 0.53906,0.375 0.21094,0.0781 1.24219,0.35937 1.49219,0.39844 2.07813,0.65625 0.59375,0.25 0.92968,0.73438 0.33594,0.48437 0.33594,1.20312 0,0.70313 -0.41406,1.32813 -0.40625,0.61718 -1.17969,0.96093 -0.77344,0.33594 -1.75,0.33594 -1.61719,0 -2.46875,-0.67187 -0.84375,-0.67188 -1.07812,-1.99219 z m 8.5625,2.47656 v -11.45312 h 1.40625 v 4.10937 q 0.98437,-1.14062 2.48437,-1.14062 0.92188,0 1.60156,0.36718 0.67969,0.35938 0.96875,1 0.29688,0.64063 0.29688,1.85938 v 5.25781 H 189.875 v -5.25781 q 0,-1.05469 -0.46094,-1.53125 -0.45312,-0.48438 -1.28906,-0.48438 -0.625,0 -1.17969,0.32813 -0.54687,0.32031 -0.78125,0.875 -0.23437,0.55469 -0.23437,1.53125 v 4.53906 z m 8.90625,-9.83594 v -1.61718 h 1.40625 v 1.61718 z m 0,9.83594 v -8.29687 h 1.40625 v 8.29687 z m 3.88281,0 v -7.20312 h -1.24219 v -1.09375 h 1.24219 v -0.88282 q 0,-0.83593 0.14844,-1.24218 0.20312,-0.54688 0.71093,-0.88282 0.51563,-0.34375 1.4375,-0.34375 0.59375,0 1.3125,0.14063 l -0.21093,1.22656 q -0.4375,-0.0781 -0.82813,-0.0781 -0.64062,0 -0.90625,0.27343 -0.26562,0.27344 -0.26562,1.02344 v 0.76563 h 1.61718 v 1.09375 h -1.61718 v 7.20312 z m 7.17969,-1.25781 0.20312,1.24219 q -0.59375,0.125 -1.0625,0.125 -0.76562,0 -1.1875,-0.24219 -0.42187,-0.24219 -0.59375,-0.63281 -0.17187,-0.39844 -0.17187,-1.66407 v -4.77343 h -1.03125 v -1.09375 h 1.03125 v -2.05469 l 1.39843,-0.84375 v 2.89844 h 1.41407 v 1.09375 h -1.41407 v 4.85156 q 0,0.60156 0.0703,0.77344 0.0781,0.17187 0.24218,0.27343 0.17188,0.10157 0.48438,0.10157 0.23437,0 0.61719,-0.0547 z m 8.89062,0 0.20313,1.24219 q -0.59375,0.125 -1.0625,0.125 -0.76563,0 -1.1875,-0.24219 -0.42188,-0.24219 -0.59375,-0.63281 -0.17188,-0.39844 -0.17188,-1.66407 v -4.77343 h -1.03125 v -1.09375 h 1.03125 v -2.05469 l 1.39844,-0.84375 v 2.89844 h 1.41406 v 1.09375 h -1.41406 v 4.85156 q 0,0.60156 0.0703,0.77344 0.0781,0.17187 0.24219,0.27343 0.17187,0.10157 0.48437,0.10157 0.23438,0 0.61719,-0.0547 z m 1.375,1.25781 v -11.45312 h 1.40625 v 4.10937 q 0.98438,-1.14062 2.48438,-1.14062 0.92187,0 1.60156,0.36718 0.67969,0.35938 0.96875,1 0.29687,0.64063 0.29687,1.85938 v 5.25781 h -1.40625 v -5.25781 q 0,-1.05469 -0.46093,-1.53125 -0.45313,-0.48438 -1.28907,-0.48438 -0.625,0 -1.17968,0.32813 -0.54688,0.32031 -0.78125,0.875 -0.23438,0.55469 -0.23438,1.53125 v 4.53906 z m 14.57813,-2.67187 1.45312,0.17968 q -0.34375,1.27344 -1.27344,1.97657 -0.92968,0.70312 -2.375,0.70312 -1.82031,0 -2.89062,-1.11719 -1.0625,-1.125 -1.0625,-3.14843 0,-2.09375 1.07812,-3.25 1.07813,-1.15625 2.79688,-1.15625 1.66406,0 2.71875,1.13281 1.05469,1.13281 1.05469,3.1875 0,0.125 -0.008,0.375 h -6.1875 q 0.0781,1.36719 0.77344,2.09375 0.69531,0.72656 1.73438,0.72656 0.77343,0 1.32031,-0.40625 0.54687,-0.40625 0.86719,-1.29687 z m -4.61719,-2.27344 h 4.63281 q -0.0937,-1.04688 -0.53125,-1.57031 -0.67187,-0.8125 -1.74219,-0.8125 -0.96875,0 -1.63281,0.64843 -0.65625,0.64844 -0.72656,1.73438 z m 17.66406,4.94531 v -1.04687 q -0.78906,1.23437 -2.32031,1.23437 -0.99219,0 -1.82813,-0.54687 -0.82812,-0.54688 -1.28906,-1.52344 -0.45312,-0.98438 -0.45312,-2.25781 0,-1.24219 0.41406,-2.25 0.41406,-1.01563 1.24219,-1.55469 0.82812,-0.53906 1.85156,-0.53906 0.75,0 1.33594,0.32031 0.58593,0.3125 0.95312,0.82031 v -4.10937 h 1.39844 v 11.45312 z m -4.44531,-4.14062 q 0,1.59375 0.67187,2.38281 0.67188,0.78906 1.58594,0.78906 0.92188,0 1.5625,-0.75 0.64844,-0.75781 0.64844,-2.30469 0,-1.70312 -0.65625,-2.5 -0.65625,-0.79687 -1.61719,-0.79687 -0.9375,0 -1.57031,0.76562 -0.625,0.76563 -0.625,2.41407 z m 7.94531,4.14062 v -8.29687 h 1.26563 v 1.25781 q 0.48437,-0.88281 0.89062,-1.16406 0.41406,-0.28125 0.90625,-0.28125 0.71094,0 1.44531,0.45312 l -0.48437,1.30469 q -0.51563,-0.30469 -1.03125,-0.30469 -0.46094,0 -0.82813,0.28125 -0.36718,0.27344 -0.52343,0.76563 -0.23438,0.75 -0.23438,1.64062 v 4.34375 z m 5.35156,-9.83594 v -1.61718 h 1.40625 v 1.61718 z m 0,9.83594 v -8.29687 h 1.40625 v 8.29687 z m 5.85157,0 -3.15625,-8.29687 h 1.48437 l 1.78125,4.96875 q 0.28906,0.80468 0.53125,1.67187 0.1875,-0.65625 0.52344,-1.57812 l 1.84375,-5.0625 h 1.44531 l -3.14062,8.29687 z m 11.375,-2.67187 1.45312,0.17968 q -0.34375,1.27344 -1.27344,1.97657 -0.92968,0.70312 -2.375,0.70312 -1.82031,0 -2.89062,-1.11719 -1.0625,-1.125 -1.0625,-3.14843 0,-2.09375 1.07812,-3.25 1.07813,-1.15625 2.79688,-1.15625 1.66406,0 2.71875,1.13281 1.05469,1.13281 1.05469,3.1875 0,0.125 -0.008,0.375 h -6.1875 q 0.0781,1.36719 0.77344,2.09375 0.69531,0.72656 1.73438,0.72656 0.77343,0 1.32031,-0.40625 0.54687,-0.40625 0.86719,-1.29687 z m -4.61719,-2.27344 h 4.63281 q -0.0937,-1.04688 -0.53125,-1.57031 -0.67187,-0.8125 -1.74219,-0.8125 -0.96875,0 -1.63281,0.64843 -0.65625,0.64844 -0.72656,1.73438 z m 7.82031,4.94531 v -8.29687 h 1.26563 v 1.25781 q 0.48437,-0.88281 0.89062,-1.16406 0.41406,-0.28125 0.90625,-0.28125 0.71094,0 1.44531,0.45312 l -0.48437,1.30469 q -0.51563,-0.30469 -1.03125,-0.30469 -0.46094,0 -0.82813,0.28125 -0.36718,0.27344 -0.52343,0.76563 -0.23438,0.75 -0.23438,1.64062 v 4.34375 z m 9.78906,0 v -8.29687 h 1.25782 v 1.16406 q 0.39062,-0.60938 1.03906,-0.97656 0.64844,-0.375 1.47656,-0.375 0.92188,0 1.50781,0.38281 0.59375,0.38281 0.83594,1.07031 0.98438,-1.45312 2.5625,-1.45312 1.23438,0 1.89844,0.6875 0.66406,0.67968 0.66406,2.10156 v 5.69531 h -1.39844 v -5.22656 q 0,-0.84375 -0.14062,-1.21094 -0.13281,-0.375 -0.49219,-0.60156 -0.35937,-0.22656 -0.84375,-0.22656 -0.875,0 -1.45312,0.58593 -0.57813,0.57813 -0.57813,1.85938 v 4.82031 h -1.40625 v -5.39062 q 0,-0.9375 -0.34375,-1.40625 -0.34375,-0.46875 -1.125,-0.46875 -0.59375,0 -1.10156,0.3125 -0.5,0.3125 -0.72656,0.91406 -0.22657,0.60156 -0.22657,1.73437 v 4.30469 z m 18.76563,0 v -1.21875 q -0.96875,1.40625 -2.63281,1.40625 -0.73438,0 -1.375,-0.28125 -0.63282,-0.28125 -0.94532,-0.70312 -0.30468,-0.42969 -0.42968,-1.04688 -0.0859,-0.41406 -0.0859,-1.3125 v -5.14062 h 1.40625 v 4.60156 q 0,1.10156 0.0859,1.48437 0.13281,0.55469 0.5625,0.875 0.42968,0.3125 1.0625,0.3125 0.63281,0 1.1875,-0.32031 0.55468,-0.32812 0.78125,-0.88281 0.23437,-0.5625 0.23437,-1.625 v -4.44531 h 1.40625 v 8.29687 z m 2.89844,-2.47656 1.39062,-0.21875 q 0.11719,0.83594 0.64844,1.28125 0.53906,0.44531 1.5,0.44531 0.96875,0 1.4375,-0.39062 0.46875,-0.39844 0.46875,-0.92969 0,-0.47656 -0.41406,-0.75 -0.28907,-0.1875 -1.4375,-0.47656 -1.54688,-0.39063 -2.14844,-0.67188 -0.59375,-0.28906 -0.90625,-0.78906 -0.30469,-0.50781 -0.30469,-1.11719 0,-0.55469 0.25,-1.02344 0.25781,-0.47656 0.69531,-0.78906 0.32813,-0.24219 0.89063,-0.40625 0.57031,-0.17187 1.21875,-0.17187 0.97656,0 1.71094,0.28125 0.74218,0.28125 1.09375,0.76562 0.35156,0.47656 0.48437,1.28125 l -1.375,0.1875 q -0.0937,-0.64062 -0.54687,-1 -0.44532,-0.35937 -1.26563,-0.35937 -0.96875,0 -1.38281,0.32031 -0.41406,0.32031 -0.41406,0.75 0,0.27344 0.17187,0.49219 0.17188,0.22656 0.53906,0.375 0.21094,0.0781 1.24219,0.35937 1.49219,0.39844 2.07813,0.65625 0.59375,0.25 0.92968,0.73438 0.33594,0.48437 0.33594,1.20312 0,0.70313 -0.41406,1.32813 -0.40625,0.61718 -1.17969,0.96093 -0.77344,0.33594 -1.75,0.33594 -1.61719,0 -2.46875,-0.67187 -0.84375,-0.67188 -1.07812,-1.99219 z m 11.63281,1.21875 0.20312,1.24219 q -0.59375,0.125 -1.0625,0.125 -0.76562,0 -1.1875,-0.24219 -0.42187,-0.24219 -0.59375,-0.63281 -0.17187,-0.39844 -0.17187,-1.66407 v -4.77343 h -1.03125 v -1.09375 h 1.03125 v -2.05469 l 1.39844,-0.84375 v 2.89844 H 314.75 v 1.09375 h -1.41406 v 4.85156 q 0,0.60156 0.0703,0.77344 0.0781,0.17187 0.24219,0.27343 0.17187,0.10157 0.48437,0.10157 0.23438,0 0.61719,-0.0547 z m 8.89062,0 0.20313,1.24219 q -0.59375,0.125 -1.0625,0.125 -0.76563,0 -1.1875,-0.24219 -0.42188,-0.24219 -0.59375,-0.63281 -0.17188,-0.39844 -0.17188,-1.66407 v -4.77343 h -1.03125 v -1.09375 h 1.03125 v -2.05469 l 1.39844,-0.84375 v 2.89844 h 1.41406 v 1.09375 h -1.41406 v 4.85156 q 0,0.60156 0.0703,0.77344 0.0781,0.17187 0.24219,0.27343 0.17188,0.10157 0.48438,0.10157 0.23437,0 0.61718,-0.0547 z M 325,164.41207 v -8.29687 h 1.26562 v 1.25781 q 0.48438,-0.88281 0.89063,-1.16406 0.41406,-0.28125 0.90625,-0.28125 0.71094,0 1.44531,0.45312 l -0.48437,1.30469 q -0.51563,-0.30469 -1.03125,-0.30469 -0.46094,0 -0.82813,0.28125 -0.36719,0.27344 -0.52344,0.76563 -0.23437,0.75 -0.23437,1.64062 v 4.34375 z m 10.75781,-1.02344 q -0.78125,0.66407 -1.50781,0.9375 -0.71875,0.27344 -1.54688,0.27344 -1.36718,0 -2.10156,-0.66406 -0.73437,-0.67188 -0.73437,-1.71094 0,-0.60937 0.27343,-1.10937 0.28125,-0.50782 0.72657,-0.8125 0.45312,-0.30469 1.01562,-0.46094 0.41406,-0.10938 1.25,-0.21094 1.70313,-0.20312 2.50781,-0.48437 0.008,-0.28907 0.008,-0.36719 0,-0.85938 -0.39844,-1.21094 -0.53906,-0.47656 -1.60156,-0.47656 -0.99219,0 -1.46875,0.35156 -0.46875,0.34375 -0.69532,1.22656 l -1.375,-0.1875 q 0.1875,-0.88281 0.61719,-1.42187 0.42969,-0.54688 1.24219,-0.83594 0.8125,-0.29687 1.88281,-0.29687 1.0625,0 1.72656,0.25 0.66407,0.25 0.97657,0.63281 0.3125,0.375 0.4375,0.95312 0.0703,0.35938 0.0703,1.29688 v 1.875 q 0,1.96094 0.0859,2.48437 0.0937,0.51563 0.35937,0.99219 h -1.46875 q -0.21875,-0.4375 -0.28125,-1.02344 z m -0.11719,-3.14062 q -0.76562,0.3125 -2.29687,0.53125 -0.86719,0.125 -1.22656,0.28125 -0.35938,0.15625 -0.55469,0.46094 -0.19531,0.29687 -0.19531,0.66406 0,0.5625 0.42187,0.9375 0.42969,0.375 1.25,0.375 0.8125,0 1.44531,-0.35156 0.63282,-0.35938 0.92969,-0.97657 0.22656,-0.47656 0.22656,-1.40625 z m 5.90625,4.16406 -3.15625,-8.29687 h 1.48438 l 1.78125,4.96875 q 0.28906,0.80468 0.53125,1.67187 0.1875,-0.65625 0.52344,-1.57812 l 1.84375,-5.0625 H 346 l -3.14063,8.29687 z m 11.375,-2.67187 1.45313,0.17968 q -0.34375,1.27344 -1.27344,1.97657 -0.92969,0.70312 -2.375,0.70312 -1.82031,0 -2.89062,-1.11719 -1.0625,-1.125 -1.0625,-3.14843 0,-2.09375 1.07812,-3.25 1.07813,-1.15625 2.79688,-1.15625 1.66406,0 2.71875,1.13281 1.05468,1.13281 1.05468,3.1875 0,0.125 -0.008,0.375 h -6.1875 q 0.0781,1.36719 0.77344,2.09375 0.69531,0.72656 1.73437,0.72656 0.77344,0 1.32032,-0.40625 0.54687,-0.40625 0.86718,-1.29687 z m -4.61718,-2.27344 h 4.63281 q -0.0937,-1.04688 -0.53125,-1.57031 -0.67188,-0.8125 -1.74219,-0.8125 -0.96875,0 -1.63281,0.64843 -0.65625,0.64844 -0.72656,1.73438 z m 7.80468,4.94531 v -11.45312 h 1.40625 v 11.45312 z m 11.10157,-1.25781 0.20312,1.24219 q -0.59375,0.125 -1.0625,0.125 -0.76562,0 -1.1875,-0.24219 -0.42187,-0.24219 -0.59375,-0.63281 -0.17187,-0.39844 -0.17187,-1.66407 v -4.77343 h -1.03125 v -1.09375 h 1.03125 v -2.05469 l 1.39843,-0.84375 v 2.89844 h 1.41407 v 1.09375 h -1.41407 v 4.85156 q 0,0.60156 0.0703,0.77344 0.0781,0.17187 0.24218,0.27343 0.17188,0.10157 0.48438,0.10157 0.23437,0 0.61719,-0.0547 z m 0.85156,-2.89063 q 0,-2.30468 1.28125,-3.41406 1.07031,-0.92187 2.60937,-0.92187 1.71094,0 2.79688,1.125 1.08594,1.11718 1.08594,3.09375 0,1.60156 -0.48438,2.52343 -0.47656,0.91407 -1.39844,1.42188 -0.91406,0.50781 -2,0.50781 -1.74218,0 -2.82031,-1.11719 -1.07031,-1.11718 -1.07031,-3.21875 z m 1.44531,0 q 0,1.59375 0.69531,2.39063 0.69532,0.78906 1.75,0.78906 1.04688,0 1.74219,-0.79687 0.69531,-0.79688 0.69531,-2.42969 0,-1.53906 -0.70312,-2.32813 -0.69531,-0.79687 -1.73438,-0.79687 -1.05468,0 -1.75,0.78906 -0.69531,0.78906 -0.69531,2.38281 z m 11.85938,1.67188 1.39062,-0.21875 q 0.11719,0.83594 0.64844,1.28125 0.53906,0.44531 1.5,0.44531 0.96875,0 1.4375,-0.39062 0.46875,-0.39844 0.46875,-0.92969 0,-0.47656 -0.41406,-0.75 -0.28907,-0.1875 -1.4375,-0.47656 -1.54688,-0.39063 -2.14844,-0.67188 -0.59375,-0.28906 -0.90625,-0.78906 -0.30469,-0.50781 -0.30469,-1.11719 0,-0.55469 0.25,-1.02344 0.25781,-0.47656 0.69531,-0.78906 0.32813,-0.24219 0.89063,-0.40625 0.57031,-0.17187 1.21875,-0.17187 0.97656,0 1.71094,0.28125 0.74218,0.28125 1.09375,0.76562 0.35156,0.47656 0.48437,1.28125 l -1.375,0.1875 q -0.0937,-0.64062 -0.54687,-1 -0.44532,-0.35937 -1.26563,-0.35937 -0.96875,0 -1.38281,0.32031 -0.41406,0.32031 -0.41406,0.75 0,0.27344 0.17187,0.49219 0.17188,0.22656 0.53906,0.375 0.21094,0.0781 1.24219,0.35937 1.49219,0.39844 2.07813,0.65625 0.59375,0.25 0.92968,0.73438 0.33594,0.48437 0.33594,1.20312 0,0.70313 -0.41406,1.32813 -0.40625,0.61718 -1.17969,0.96093 -0.77344,0.33594 -1.75,0.33594 -1.61719,0 -2.46875,-0.67187 -0.84375,-0.67188 -1.07812,-1.99219 z m 14.24218,-0.19531 1.45313,0.17968 q -0.34375,1.27344 -1.27344,1.97657 -0.92969,0.70312 -2.375,0.70312 -1.82031,0 -2.89062,-1.11719 -1.0625,-1.125 -1.0625,-3.14843 0,-2.09375 1.07812,-3.25 1.07813,-1.15625 2.79688,-1.15625 1.66406,0 2.71875,1.13281 1.05468,1.13281 1.05468,3.1875 0,0.125 -0.008,0.375 h -6.1875 q 0.0781,1.36719 0.77344,2.09375 0.69531,0.72656 1.73437,0.72656 0.77344,0 1.32032,-0.40625 0.54687,-0.40625 0.86718,-1.29687 z m -4.61718,-2.27344 h 4.63281 q -0.0937,-1.04688 -0.53125,-1.57031 -0.67188,-0.8125 -1.74219,-0.8125 -0.96875,0 -1.63281,0.64843 -0.65625,0.64844 -0.72656,1.73438 z m 7.82031,4.94531 v -8.29687 h 1.26562 v 1.25781 q 0.48438,-0.88281 0.89063,-1.16406 0.41406,-0.28125 0.90625,-0.28125 0.71094,0 1.44531,0.45312 l -0.48437,1.30469 q -0.51563,-0.30469 -1.03125,-0.30469 -0.46094,0 -0.82813,0.28125 -0.36719,0.27344 -0.52344,0.76563 -0.23437,0.75 -0.23437,1.64062 v 4.34375 z m 7.64844,0 -3.15625,-8.29687 h 1.48437 l 1.78125,4.96875 q 0.28906,0.80468 0.53125,1.67187 0.1875,-0.65625 0.52344,-1.57812 l 1.84375,-5.0625 h 1.44531 l -3.14062,8.29687 z m 5.70312,-9.83594 v -1.61718 h 1.40625 v 1.61718 z m 0,9.83594 v -8.29687 h 1.40625 v 8.29687 z m 8.96094,-3.03906 1.38281,0.17969 q -0.22656,1.42968 -1.16406,2.24218 -0.92969,0.80469 -2.28906,0.80469 -1.70313,0 -2.74219,-1.10937 -1.03125,-1.11719 -1.03125,-3.19532 0,-1.34375 0.44531,-2.35156 0.44531,-1.00781 1.35156,-1.50781 0.91407,-0.50781 1.98438,-0.50781 1.35156,0 2.21094,0.6875 0.85937,0.67968 1.10156,1.9375 l -1.36719,0.21093 q -0.19531,-0.83593 -0.69531,-1.25781 -0.49219,-0.42187 -1.19531,-0.42187 -1.0625,0 -1.72657,0.76562 -0.66406,0.75781 -0.66406,2.40625 0,1.67188 0.64063,2.42969 0.64062,0.75781 1.67187,0.75781 0.82813,0 1.38281,-0.50781 0.55469,-0.50781 0.70313,-1.5625 z m 8.26562,0.36719 1.45313,0.17968 q -0.34375,1.27344 -1.27344,1.97657 -0.92969,0.70312 -2.375,0.70312 -1.82031,0 -2.89062,-1.11719 -1.0625,-1.125 -1.0625,-3.14843 0,-2.09375 1.07812,-3.25 1.07813,-1.15625 2.79688,-1.15625 1.66406,0 2.71875,1.13281 1.05468,1.13281 1.05468,3.1875 0,0.125 -0.008,0.375 h -6.1875 q 0.0781,1.36719 0.77344,2.09375 0.69531,0.72656 1.73437,0.72656 0.77344,0 1.32032,-0.40625 0.54687,-0.40625 0.86718,-1.29687 z m -4.61718,-2.27344 h 4.63281 q -0.0937,-1.04688 -0.53125,-1.57031 -0.67188,-0.8125 -1.74219,-0.8125 -0.96875,0 -1.63281,0.64843 -0.65625,0.64844 -0.72656,1.73438 z m 17.69531,3.92187 q -0.78125,0.66407 -1.50781,0.9375 -0.71875,0.27344 -1.54688,0.27344 -1.36719,0 -2.10156,-0.66406 -0.73438,-0.67188 -0.73438,-1.71094 0,-0.60937 0.27344,-1.10937 0.28125,-0.50782 0.72656,-0.8125 0.45313,-0.30469 1.01563,-0.46094 0.41406,-0.10938 1.25,-0.21094 1.70312,-0.20312 2.50781,-0.48437 0.008,-0.28907 0.008,-0.36719 0,-0.85938 -0.39843,-1.21094 -0.53907,-0.47656 -1.60157,-0.47656 -0.99218,0 -1.46875,0.35156 -0.46875,0.34375 -0.69531,1.22656 l -1.375,-0.1875 q 0.1875,-0.88281 0.61719,-1.42187 0.42969,-0.54688 1.24219,-0.83594 0.8125,-0.29687 1.88281,-0.29687 1.0625,0 1.72656,0.25 0.66406,0.25 0.97656,0.63281 0.3125,0.375 0.4375,0.95312 0.0703,0.35938 0.0703,1.29688 v 1.875 q 0,1.96094 0.0859,2.48437 0.0937,0.51563 0.35938,0.99219 H 442.75 q -0.21875,-0.4375 -0.28125,-1.02344 z m -0.11719,-3.14062 q -0.76562,0.3125 -2.29687,0.53125 -0.86719,0.125 -1.22657,0.28125 -0.35937,0.15625 -0.55468,0.46094 -0.19532,0.29687 -0.19532,0.66406 0,0.5625 0.42188,0.9375 0.42969,0.375 1.25,0.375 0.8125,0 1.44531,-0.35156 0.63281,-0.35938 0.92969,-0.97657 0.22656,-0.47656 0.22656,-1.40625 z m 3.57031,4.16406 v -11.45312 h 1.40625 v 11.45312 z m 3.55469,0 v -11.45312 h 1.40625 v 11.45312 z m 13.44531,-1.02344 q -0.78125,0.66407 -1.50781,0.9375 -0.71875,0.27344 -1.54687,0.27344 -1.36719,0 -2.10157,-0.66406 -0.73437,-0.67188 -0.73437,-1.71094 0,-0.60937 0.27344,-1.10937 0.28125,-0.50782 0.72656,-0.8125 0.45312,-0.30469 1.01562,-0.46094 0.41407,-0.10938 1.25,-0.21094 1.70313,-0.20312 2.50782,-0.48437 0.008,-0.28907 0.008,-0.36719 0,-0.85938 -0.39844,-1.21094 -0.53906,-0.47656 -1.60156,-0.47656 -0.99219,0 -1.46875,0.35156 -0.46875,0.34375 -0.69531,1.22656 l -1.375,-0.1875 q 0.1875,-0.88281 0.61718,-1.42187 0.42969,-0.54688 1.24219,-0.83594 0.8125,-0.29687 1.88281,-0.29687 1.0625,0 1.72657,0.25 0.66406,0.25 0.97656,0.63281 0.3125,0.375 0.4375,0.95312 0.0703,0.35938 0.0703,1.29688 v 1.875 q 0,1.96094 0.0859,2.48437 0.0937,0.51563 0.35937,0.99219 h -1.46875 q -0.21875,-0.4375 -0.28125,-1.02344 z m -0.11718,-3.14062 q -0.76563,0.3125 -2.29688,0.53125 -0.86719,0.125 -1.22656,0.28125 -0.35938,0.15625 -0.55469,0.46094 -0.19531,0.29687 -0.19531,0.66406 0,0.5625 0.42187,0.9375 0.42969,0.375 1.25,0.375 0.8125,0 1.44532,-0.35156 0.63281,-0.35938 0.92968,-0.97657 0.22657,-0.47656 0.22657,-1.40625 z m 3.03906,1.6875 1.39062,-0.21875 q 0.11719,0.83594 0.64844,1.28125 0.53906,0.44531 1.5,0.44531 0.96875,0 1.4375,-0.39062 0.46875,-0.39844 0.46875,-0.92969 0,-0.47656 -0.41406,-0.75 -0.28906,-0.1875 -1.4375,-0.47656 -1.54688,-0.39063 -2.14844,-0.67188 -0.59375,-0.28906 -0.90625,-0.78906 -0.30469,-0.50781 -0.30469,-1.11719 0,-0.55469 0.25,-1.02344 0.25782,-0.47656 0.69532,-0.78906 0.32812,-0.24219 0.89062,-0.40625 0.57031,-0.17187 1.21875,-0.17187 0.97656,0 1.71094,0.28125 0.74219,0.28125 1.09375,0.76562 0.35156,0.47656 0.48437,1.28125 l -1.375,0.1875 q -0.0937,-0.64062 -0.54687,-1 -0.44531,-0.35937 -1.26563,-0.35937 -0.96875,0 -1.38281,0.32031 -0.41406,0.32031 -0.41406,0.75 0,0.27344 0.17187,0.49219 0.17188,0.22656 0.53907,0.375 0.21093,0.0781 1.24218,0.35937 1.49219,0.39844 2.07813,0.65625 0.59375,0.25 0.92969,0.73438 0.33593,0.48437 0.33593,1.20312 0,0.70313 -0.41406,1.32813 -0.40625,0.61718 -1.17969,0.96093 -0.77343,0.33594 -1.75,0.33594 -1.61718,0 -2.46875,-0.67187 -0.84375,-0.67188 -1.07812,-1.99219 z m 8,0 1.39062,-0.21875 q 0.11719,0.83594 0.64844,1.28125 0.53906,0.44531 1.5,0.44531 0.96875,0 1.4375,-0.39062 0.46875,-0.39844 0.46875,-0.92969 0,-0.47656 -0.41406,-0.75 -0.28906,-0.1875 -1.4375,-0.47656 -1.54688,-0.39063 -2.14844,-0.67188 -0.59375,-0.28906 -0.90625,-0.78906 -0.30469,-0.50781 -0.30469,-1.11719 0,-0.55469 0.25,-1.02344 0.25782,-0.47656 0.69532,-0.78906 0.32812,-0.24219 0.89062,-0.40625 0.57031,-0.17187 1.21875,-0.17187 0.97656,0 1.71094,0.28125 0.74219,0.28125 1.09375,0.76562 0.35156,0.47656 0.48437,1.28125 l -1.375,0.1875 q -0.0937,-0.64062 -0.54687,-1 -0.44531,-0.35937 -1.26563,-0.35937 -0.96875,0 -1.38281,0.32031 -0.41406,0.32031 -0.41406,0.75 0,0.27344 0.17187,0.49219 0.17188,0.22656 0.53907,0.375 0.21093,0.0781 1.24218,0.35937 1.49219,0.39844 2.07813,0.65625 0.59375,0.25 0.92969,0.73438 0.33593,0.48437 0.33593,1.20312 0,0.70313 -0.41406,1.32813 -0.40625,0.61718 -1.17969,0.96093 -0.77343,0.33594 -1.75,0.33594 -1.61718,0 -2.46875,-0.67187 -0.84375,-0.67188 -1.07812,-1.99219 z m 8.57031,-7.35938 v -1.61718 h 1.40625 v 1.61718 z m 0,9.83594 v -8.29687 h 1.40625 v 8.29687 z m 3.28906,0.6875 1.36719,0.20313 q 0.0859,0.63281 0.47656,0.92187 0.52344,0.39063 1.42969,0.39063 0.97656,0 1.50781,-0.39063 0.53125,-0.39062 0.71875,-1.09375 0.10938,-0.42969 0.10157,-1.80469 -0.92188,1.08594 -2.29688,1.08594 -1.71094,0 -2.64844,-1.23437 -0.9375,-1.23438 -0.9375,-2.96094 0,-1.1875 0.42969,-2.1875 0.42969,-1.00781 1.24219,-1.55469 0.82031,-0.54687 1.92187,-0.54687 1.46875,0 2.42188,1.1875 v -1 h 1.29687 v 7.17187 q 0,1.9375 -0.39843,2.74219 -0.39063,0.8125 -1.25,1.28125 -0.85157,0.46875 -2.10157,0.46875 -1.48437,0 -2.39843,-0.67188 -0.91407,-0.66406 -0.88282,-2.00781 z m 1.16407,-4.98437 q 0,1.63281 0.64843,2.38281 0.64844,0.75 1.625,0.75 0.96875,0 1.625,-0.74219 0.65625,-0.75 0.65625,-2.34375 0,-1.52344 -0.67968,-2.29687 -0.67188,-0.77344 -1.625,-0.77344 -0.9375,0 -1.59375,0.76562 -0.65625,0.75782 -0.65625,2.25782 z m 7.99218,4.29687 v -8.29687 h 1.26563 v 1.17968 q 0.91406,-1.36718 2.64062,-1.36718 0.75,0 1.375,0.27343 0.63282,0.26563 0.94532,0.70313 0.3125,0.4375 0.4375,1.03906 0.0781,0.39063 0.0781,1.36719 v 5.10156 h -1.40625 v -5.04687 q 0,-0.85938 -0.16406,-1.28125 -0.16406,-0.42969 -0.58594,-0.67969 -0.41406,-0.25781 -0.97656,-0.25781 -0.89844,0 -1.55469,0.57031 -0.64844,0.57031 -0.64844,2.16406 v 4.53125 z m 14.57813,-2.67187 1.45312,0.17968 q -0.34375,1.27344 -1.27343,1.97657 -0.92969,0.70312 -2.375,0.70312 -1.82032,0 -2.89063,-1.11719 -1.0625,-1.125 -1.0625,-3.14843 0,-2.09375 1.07813,-3.25 1.07812,-1.15625 2.79687,-1.15625 1.66406,0 2.71875,1.13281 1.05469,1.13281 1.05469,3.1875 0,0.125 -0.008,0.375 h -6.1875 q 0.0781,1.36719 0.77343,2.09375 0.69532,0.72656 1.73438,0.72656 0.77344,0 1.32031,-0.40625 0.54688,-0.40625 0.86719,-1.29687 z m -4.61719,-2.27344 h 4.63281 q -0.0937,-1.04688 -0.53125,-1.57031 -0.67187,-0.8125 -1.74218,-0.8125 -0.96875,0 -1.63282,0.64843 -0.65625,0.64844 -0.72656,1.73438 z m 13.21875,4.94531 v -1.04687 q -0.78906,1.23437 -2.32031,1.23437 -0.99219,0 -1.82813,-0.54687 -0.82812,-0.54688 -1.28906,-1.52344 -0.45312,-0.98438 -0.45312,-2.25781 0,-1.24219 0.41406,-2.25 0.41406,-1.01563 1.24219,-1.55469 0.82812,-0.53906 1.85156,-0.53906 0.75,0 1.33594,0.32031 0.58593,0.3125 0.95312,0.82031 v -4.10937 h 1.39844 v 11.45312 z m -4.44531,-4.14062 q 0,1.59375 0.67187,2.38281 0.67188,0.78906 1.58594,0.78906 0.92188,0 1.5625,-0.75 0.64844,-0.75781 0.64844,-2.30469 0,-1.70312 -0.65625,-2.5 -0.65625,-0.79687 -1.61719,-0.79687 -0.9375,0 -1.57031,0.76562 -0.625,0.76563 -0.625,2.41407 z m 14.71094,4.14062 -3.15625,-8.29687 h 1.48437 l 1.78125,4.96875 q 0.28906,0.80468 0.53125,1.67187 0.1875,-0.65625 0.52344,-1.57812 l 1.84375,-5.0625 h 1.44531 l -3.14062,8.29687 z m 5.70312,-9.83594 v -1.61718 h 1.40625 v 1.61718 z m 0,9.83594 v -8.29687 h 1.40625 v 8.29687 z m 2.98438,-2.47656 1.39062,-0.21875 q 0.11719,0.83594 0.64844,1.28125 0.53906,0.44531 1.5,0.44531 0.96875,0 1.4375,-0.39062 0.46875,-0.39844 0.46875,-0.92969 0,-0.47656 -0.41406,-0.75 -0.28907,-0.1875 -1.4375,-0.47656 -1.54688,-0.39063 -2.14844,-0.67188 -0.59375,-0.28906 -0.90625,-0.78906 -0.30469,-0.50781 -0.30469,-1.11719 0,-0.55469 0.25,-1.02344 0.25781,-0.47656 0.69531,-0.78906 0.32813,-0.24219 0.89063,-0.40625 0.57031,-0.17187 1.21875,-0.17187 0.97656,0 1.71094,0.28125 0.74218,0.28125 1.09375,0.76562 0.35156,0.47656 0.48437,1.28125 l -1.375,0.1875 q -0.0937,-0.64062 -0.54687,-1 -0.44532,-0.35937 -1.26563,-0.35937 -0.96875,0 -1.38281,0.32031 -0.41406,0.32031 -0.41406,0.75 0,0.27344 0.17187,0.49219 0.17188,0.22656 0.53906,0.375 0.21094,0.0781 1.24219,0.35937 1.49219,0.39844 2.07813,0.65625 0.59375,0.25 0.92968,0.73438 0.33594,0.48437 0.33594,1.20312 0,0.70313 -0.41406,1.32813 -0.40625,0.61718 -1.17969,0.96093 -0.77344,0.33594 -1.75,0.33594 -1.61719,0 -2.46875,-0.67187 -0.84375,-0.67188 -1.07812,-1.99219 z m 8.57031,-7.35938 v -1.61718 h 1.40625 v 1.61718 z m 0,9.83594 v -8.29687 h 1.40625 v 8.29687 z m 6.61719,-1.25781 0.20312,1.24219 q -0.59375,0.125 -1.0625,0.125 -0.76562,0 -1.1875,-0.24219 -0.42187,-0.24219 -0.59375,-0.63281 -0.17187,-0.39844 -0.17187,-1.66407 v -4.77343 h -1.03125 v -1.09375 h 1.03125 v -2.05469 l 1.39843,-0.84375 v 2.89844 h 1.41407 v 1.09375 h -1.41407 v 4.85156 q 0,0.60156 0.0703,0.77344 0.0781,0.17187 0.24218,0.27343 0.17188,0.10157 0.48438,0.10157 0.23437,0 0.61719,-0.0547 z m 0.8125,-1.21875 1.39062,-0.21875 q 0.11719,0.83594 0.64844,1.28125 0.53906,0.44531 1.5,0.44531 0.96875,0 1.4375,-0.39062 0.46875,-0.39844 0.46875,-0.92969 0,-0.47656 -0.41406,-0.75 -0.28907,-0.1875 -1.4375,-0.47656 -1.54688,-0.39063 -2.14844,-0.67188 -0.59375,-0.28906 -0.90625,-0.78906 -0.30469,-0.50781 -0.30469,-1.11719 0,-0.55469 0.25,-1.02344 0.25781,-0.47656 0.69531,-0.78906 0.32813,-0.24219 0.89063,-0.40625 0.57031,-0.17187 1.21875,-0.17187 0.97656,0 1.71094,0.28125 0.74218,0.28125 1.09375,0.76562 0.35156,0.47656 0.48437,1.28125 l -1.375,0.1875 q -0.0937,-0.64062 -0.54687,-1 -0.44532,-0.35937 -1.26563,-0.35937 -0.96875,0 -1.38281,0.32031 -0.41406,0.32031 -0.41406,0.75 0,0.27344 0.17187,0.49219 0.17188,0.22656 0.53906,0.375 0.21094,0.0781 1.24219,0.35937 1.49219,0.39844 2.07813,0.65625 0.59375,0.25 0.92968,0.73438 0.33594,0.48437 0.33594,1.20312 0,0.70313 -0.41406,1.32813 -0.40625,0.61718 -1.17969,0.96093 -0.77344,0.33594 -1.75,0.33594 -1.61719,0 -2.46875,-0.67187 -0.84375,-0.67188 -1.07812,-1.99219 z m 14.53906,2.47656 -2.53906,-8.29687 h 1.45312 l 1.32031,4.78906 0.49219,1.78125 q 0.0312,-0.13281 0.42969,-1.71094 l 1.32031,-4.85937 h 1.44531 l 1.24219,4.8125 0.41406,1.58593 0.47657,-1.60156 1.42187,-4.79687 h 1.36719 l -2.59375,8.29687 h -1.46094 L 571,159.44332 570.67969,158.02926 569,164.41207 Z m 10.03125,-9.83594 v -1.61718 h 1.40625 v 1.61718 z m 0,9.83594 v -8.29687 h 1.40625 v 8.29687 z m 6.61719,-1.25781 0.20312,1.24219 q -0.59375,0.125 -1.0625,0.125 -0.76562,0 -1.1875,-0.24219 -0.42187,-0.24219 -0.59375,-0.63281 -0.17187,-0.39844 -0.17187,-1.66407 v -4.77343 h -1.03125 v -1.09375 h 1.03125 v -2.05469 l 1.39843,-0.84375 v 2.89844 h 1.41407 v 1.09375 h -1.41407 v 4.85156 q 0,0.60156 0.0703,0.77344 0.0781,0.17187 0.24218,0.27343 0.17188,0.10157 0.48438,0.10157 0.23437,0 0.61719,-0.0547 z m 1.375,1.25781 v -11.45312 h 1.40625 v 4.10937 q 0.98437,-1.14062 2.48437,-1.14062 0.92188,0 1.60156,0.36718 0.67969,0.35938 0.96875,1 0.29688,0.64063 0.29688,1.85938 v 5.25781 h -1.40625 v -5.25781 q 0,-1.05469 -0.46094,-1.53125 -0.45312,-0.48438 -1.28906,-0.48438 -0.625,0 -1.17969,0.32813 -0.54687,0.32031 -0.78125,0.875 -0.23437,0.55469 -0.23437,1.53125 v 4.53906 z m 8.90625,-9.83594 v -1.61718 h 1.40625 v 1.61718 z m 0,9.83594 v -8.29687 h 1.40625 v 8.29687 z m 3.54687,0 v -8.29687 h 1.26563 v 1.17968 q 0.91406,-1.36718 2.64062,-1.36718 0.75,0 1.375,0.27343 0.63281,0.26563 0.94531,0.70313 0.3125,0.4375 0.4375,1.03906 0.0781,0.39063 0.0781,1.36719 v 5.10156 h -1.40625 v -5.04687 q 0,-0.85938 -0.16406,-1.28125 -0.16407,-0.42969 -0.58594,-0.67969 -0.41406,-0.25781 -0.97656,-0.25781 -0.89844,0 -1.55469,0.57031 -0.64844,0.57031 -0.64844,2.16406 v 4.53125 z m 16.41406,-1.25781 0.20313,1.24219 q -0.59375,0.125 -1.0625,0.125 -0.76563,0 -1.1875,-0.24219 -0.42188,-0.24219 -0.59375,-0.63281 -0.17188,-0.39844 -0.17188,-1.66407 v -4.77343 h -1.03125 v -1.09375 h 1.03125 v -2.05469 l 1.39844,-0.84375 v 2.89844 h 1.41406 v 1.09375 h -1.41406 v 4.85156 q 0,0.60156 0.0703,0.77344 0.0781,0.17187 0.24219,0.27343 0.17188,0.10157 0.48438,0.10157 0.23437,0 0.61718,-0.0547 z m 1.375,1.25781 v -11.45312 h 1.40625 v 4.10937 q 0.98438,-1.14062 2.48438,-1.14062 0.92187,0 1.60156,0.36718 0.67969,0.35938 0.96875,1 0.29688,0.64063 0.29688,1.85938 v 5.25781 h -1.40625 v -5.25781 q 0,-1.05469 -0.46094,-1.53125 -0.45313,-0.48438 -1.28906,-0.48438 -0.625,0 -1.17969,0.32813 -0.54688,0.32031 -0.78125,0.875 -0.23438,0.55469 -0.23438,1.53125 v 4.53906 z m 14.57813,-2.67187 1.45312,0.17968 q -0.34375,1.27344 -1.27343,1.97657 -0.92969,0.70312 -2.375,0.70312 -1.82032,0 -2.89063,-1.11719 -1.0625,-1.125 -1.0625,-3.14843 0,-2.09375 1.07813,-3.25 1.07812,-1.15625 2.79687,-1.15625 1.66406,0 2.71875,1.13281 1.05469,1.13281 1.05469,3.1875 0,0.125 -0.008,0.375 h -6.1875 q 0.0781,1.36719 0.77343,2.09375 0.69532,0.72656 1.73438,0.72656 0.77344,0 1.32031,-0.40625 0.54688,-0.40625 0.86719,-1.29687 z m -4.61719,-2.27344 h 4.63281 q -0.0937,-1.04688 -0.53125,-1.57031 -0.67187,-0.8125 -1.74218,-0.8125 -0.96875,0 -1.63282,0.64843 -0.65625,0.64844 -0.72656,1.73438 z m 11.71875,2.46875 1.39063,-0.21875 q 0.11718,0.83594 0.64843,1.28125 0.53907,0.44531 1.5,0.44531 0.96875,0 1.4375,-0.39062 0.46875,-0.39844 0.46875,-0.92969 0,-0.47656 -0.41406,-0.75 -0.28906,-0.1875 -1.4375,-0.47656 -1.54687,-0.39063 -2.14844,-0.67188 -0.59375,-0.28906 -0.90625,-0.78906 -0.30468,-0.50781 -0.30468,-1.11719 0,-0.55469 0.25,-1.02344 0.25781,-0.47656 0.69531,-0.78906 0.32812,-0.24219 0.89062,-0.40625 0.57032,-0.17187 1.21875,-0.17187 0.97657,0 1.71094,0.28125 0.74219,0.28125 1.09375,0.76562 0.35156,0.47656 0.48438,1.28125 l -1.375,0.1875 q -0.0937,-0.64062 -0.54688,-1 -0.44531,-0.35937 -1.26562,-0.35937 -0.96875,0 -1.38282,0.32031 -0.41406,0.32031 -0.41406,0.75 0,0.27344 0.17188,0.49219 0.17187,0.22656 0.53906,0.375 0.21094,0.0781 1.24219,0.35937 1.49218,0.39844 2.07812,0.65625 0.59375,0.25 0.92969,0.73438 0.33594,0.48437 0.33594,1.20312 0,0.70313 -0.41407,1.32813 -0.40625,0.61718 -1.17968,0.96093 -0.77344,0.33594 -1.75,0.33594 -1.61719,0 -2.46875,-0.67187 -0.84375,-0.67188 -1.07813,-1.99219 z m 8.5625,2.47656 v -11.45312 h 1.40625 v 4.10937 q 0.98438,-1.14062 2.48438,-1.14062 0.92187,0 1.60156,0.36718 0.67969,0.35938 0.96875,1 0.29687,0.64063 0.29687,1.85938 v 5.25781 h -1.40625 v -5.25781 q 0,-1.05469 -0.46093,-1.53125 -0.45313,-0.48438 -1.28907,-0.48438 -0.625,0 -1.17968,0.32813 -0.54688,0.32031 -0.78125,0.875 -0.23438,0.55469 -0.23438,1.53125 v 4.53906 z m 8.90625,-9.83594 v -1.61718 h 1.40625 v 1.61718 z m 0,9.83594 v -8.29687 h 1.40625 v 8.29687 z m 3.88281,0 v -7.20312 h -1.24218 v -1.09375 h 1.24218 v -0.88282 q 0,-0.83593 0.14844,-1.24218 0.20313,-0.54688 0.71094,-0.88282 0.51562,-0.34375 1.4375,-0.34375 0.59375,0 1.3125,0.14063 l -0.21094,1.22656 q -0.4375,-0.0781 -0.82812,-0.0781 -0.64063,0 -0.90625,0.27343 -0.26563,0.27344 -0.26563,1.02344 v 0.76563 h 1.61719 v 1.09375 h -1.61719 v 7.20312 z m 7.17969,-1.25781 0.20313,1.24219 q -0.59375,0.125 -1.0625,0.125 -0.76563,0 -1.1875,-0.24219 -0.42188,-0.24219 -0.59375,-0.63281 -0.17188,-0.39844 -0.17188,-1.66407 v -4.77343 h -1.03125 v -1.09375 h 1.03125 v -2.05469 l 1.39844,-0.84375 v 2.89844 h 1.41406 v 1.09375 h -1.41406 v 4.85156 q 0,0.60156 0.0703,0.77344 0.0781,0.17187 0.24219,0.27343 0.17187,0.10157 0.48437,0.10157 0.23438,0 0.61719,-0.0547 z m 8.89063,0 0.20312,1.24219 q -0.59375,0.125 -1.0625,0.125 -0.76562,0 -1.1875,-0.24219 -0.42187,-0.24219 -0.59375,-0.63281 -0.17187,-0.39844 -0.17187,-1.66407 v -4.77343 h -1.03125 v -1.09375 h 1.03125 v -2.05469 l 1.39843,-0.84375 v 2.89844 h 1.41407 v 1.09375 h -1.41407 v 4.85156 q 0,0.60156 0.0703,0.77344 0.0781,0.17187 0.24218,0.27343 0.17188,0.10157 0.48438,0.10157 0.23437,0 0.61719,-0.0547 z m 1.38281,-8.57813 v -1.61718 h 1.40625 v 1.61718 z m 0,9.83594 v -8.29687 h 1.40625 v 8.29687 z m 3.54687,0 v -8.29687 h 1.25782 v 1.16406 q 0.39062,-0.60938 1.03906,-0.97656 0.64844,-0.375 1.47656,-0.375 0.92188,0 1.50781,0.38281 0.59375,0.38281 0.83594,1.07031 0.98438,-1.45312 2.5625,-1.45312 1.23438,0 1.89844,0.6875 0.66406,0.67968 0.66406,2.10156 v 5.69531 h -1.39844 v -5.22656 q 0,-0.84375 -0.14062,-1.21094 -0.13281,-0.375 -0.49219,-0.60156 -0.35937,-0.22656 -0.84375,-0.22656 -0.875,0 -1.45312,0.58593 -0.57813,0.57813 -0.57813,1.85938 v 4.82031 h -1.40625 v -5.39062 q 0,-0.9375 -0.34375,-1.40625 -0.34375,-0.46875 -1.125,-0.46875 -0.59375,0 -1.10156,0.3125 -0.5,0.3125 -0.72656,0.91406 -0.22657,0.60156 -0.22657,1.73437 v 4.30469 z m 19.00782,-2.67187 1.45312,0.17968 q -0.34375,1.27344 -1.27344,1.97657 -0.92968,0.70312 -2.375,0.70312 -1.82031,0 -2.89062,-1.11719 -1.0625,-1.125 -1.0625,-3.14843 0,-2.09375 1.07812,-3.25 1.07813,-1.15625 2.79688,-1.15625 1.66406,0 2.71875,1.13281 1.05469,1.13281 1.05469,3.1875 0,0.125 -0.008,0.375 h -6.1875 q 0.0781,1.36719 0.77344,2.09375 0.69531,0.72656 1.73438,0.72656 0.77343,0 1.32031,-0.40625 0.54687,-0.40625 0.86719,-1.29687 z m -4.61719,-2.27344 h 4.63281 q -0.0937,-1.04688 -0.53125,-1.57031 -0.67187,-0.8125 -1.74219,-0.8125 -0.96875,0 -1.63281,0.64843 -0.65625,0.64844 -0.72656,1.73438 z m 8.23437,4.94531 v -1.60156 h 1.60157 v 1.60156 z"
       id="flowRoot4302-6"
       transform="translate(-20,372.36182)"
       aria-label="Each shift the driver must travel to service all assigned visits within the shift time." />
    <flowRoot
       xml:space="preserve"
       id="flowRoot937"
       style="color:currentColor;font-style:normal;font-variant:normal;font-weight:normal;font-stretch:normal;font-size:16px;font-family:Arial;-inkscape-font-specification:Arial;text-align:center;writing-mode:lr-tb;text-anchor:middle;display:inline;overflow:visible;visibility:visible;opacity:1;vector-effect:none;fill:currentColor;fill-opacity:1;fill-rule:nonzero;stroke:#8f5902;stroke-width:3;stroke-linecap:round;stroke-linejoin:round;stroke-miterlimit:4;stroke-dasharray:none;stroke-dashoffset:0;stroke-opacity:1;marker:none;enable-background:accumulate"><flowRegion
         id="flowRegion939"><rect
           id="rect941"
           width="52.987019"
           height="116.1039"
           x="-94.285713"
           y="141.03894" /></flowRegion><flowPara
         id="flowPara943" /></flowRoot>
    <rect
       style="fill:#888a85;stroke:none;stroke-width:1;stroke-linecap:round;stroke-linejoin:round;stroke-dasharray:none;stroke-opacity:1"
       id="rect3"
       width="500"
       height="50"
       x="220.00049"
       y="652.36182" />
    <rect
       style="fill:#ffffff;fill-opacity:1;stroke:none;stroke-width:0.999999;stroke-linecap:round;stroke-linejoin:round;stroke-dasharray:none;stroke-opacity:1"
       rx="5"
       ry="5"
       id="rect14"
       width="400"
       height="40"
       x="270.00049"
       y="657.36182" />
    <rect
       style="fill:url(#linearGradient14);fill-opacity:1;stroke:none;stroke-width:0.999996;stroke-linecap:round;stroke-linejoin:round;stroke-dasharray:none;stroke-opacity:1"
       id="rect12"
       width="20.000002"
       height="50"
       x="200.00049"
       y="652.36182" />
    <rect
       style="fill:url(#linearGradient13);fill-opacity:1;stroke:none;stroke-width:0.999996;stroke-linecap:round;stroke-linejoin:round;stroke-dasharray:none;stroke-opacity:1"
       id="rect13"
       width="20.000002"
       height="50"
       x="-740.00049"
       y="652.36182"
       transform="scale(-1,1)" />
    <path
       style="font-size:22px;line-height:1.25;font-family:'Liberation Sans';-inkscape-font-specification:'Liberation Sans, Normal'"
       d="M 339.52344,54.420113 V 38.672066 h 3.13672 l 3.72754,11.150391 q 0.51562,1.557617 0.75195,2.331054 0.26855,-0.859375 0.83789,-2.524414 l 3.77051,-10.957031 h 2.80371 v 15.748047 h -2.00879 V 41.239449 l -4.57617,13.180664 h -1.87989 l -4.55468,-13.40625 v 13.40625 z m 17.42383,-5.704102 q 0,-3.168945 1.76171,-4.694336 1.47168,-1.267578 3.58789,-1.267578 2.35254,0 3.84571,1.546875 1.49316,1.536133 1.49316,4.253907 0,2.202148 -0.66601,3.469726 -0.65528,1.256836 -1.92286,1.955078 -1.25683,0.698242 -2.75,0.698242 -2.3955,0 -3.87792,-1.536132 -1.47168,-1.536133 -1.47168,-4.425782 z m 1.9873,0 q 0,2.191407 0.95605,3.28711 0.95606,1.084961 2.40625,1.084961 1.43946,0 2.39551,-1.095703 0.95606,-1.095704 0.95606,-3.340821 0,-2.116211 -0.9668,-3.201172 -0.95605,-1.095703 -2.38477,-1.095703 -1.45019,0 -2.40625,1.084961 -0.95605,1.084961 -0.95605,3.276367 z m 10.96777,5.704102 V 43.01191 h 1.74024 v 1.62207 q 1.25683,-1.879883 3.63086,-1.879883 1.03125,0 1.89062,0.375977 0.87012,0.365234 1.29981,0.966797 0.42968,0.601562 0.60156,1.428711 0.10742,0.537109 0.10742,1.879882 v 7.014649 h -1.93359 V 47.48066 q 0,-1.181641 -0.22559,-1.761719 -0.22558,-0.59082 -0.80566,-0.93457 -0.56934,-0.354492 -1.34278,-0.354492 -1.23535,0 -2.13769,0.784179 -0.8916,0.78418 -0.8916,2.975586 v 6.230469 z m 25.09375,0 H 393.0625 V 42.098824 q -0.69824,0.666015 -1.83691,1.332031 -1.12793,0.666016 -2.03028,0.999024 v -1.869141 q 1.62207,-0.762695 2.83594,-1.847656 1.21387,-1.084961 1.71875,-2.105469 h 1.24609 z m 4.73731,-4.726563 v -1.944336 h 5.94043 v 1.944336 z m 8.54004,4.726563 v -9.904297 h -1.70801 V 43.01191 h 1.70801 v -1.213867 q 0,-1.149414 0.2041,-1.708008 0.2793,-0.751953 0.97754,-1.213867 0.70898,-0.472657 1.97656,-0.472657 0.81641,0 1.80469,0.19336 l -0.29004,1.686523 q -0.60156,-0.107422 -1.13867,-0.107422 -0.88086,0 -1.2461,0.375977 -0.36523,0.375976 -0.36523,1.407226 v 1.052735 h 2.22363 v 1.503906 h -2.22363 v 9.904297 z m 13.45996,-3.673828 1.99805,0.24707 q -0.47266,1.750977 -1.75098,2.717774 -1.27832,0.966796 -3.26563,0.966796 -2.50293,0 -3.97461,-1.536132 -1.46093,-1.546875 -1.46093,-4.329102 0,-2.878906 1.48242,-4.46875 1.48242,-1.589844 3.8457,-1.589844 2.28809,0 3.73828,1.557617 1.4502,1.557618 1.4502,4.382813 0,0.171875 -0.0107,0.515625 h -8.50782 q 0.10743,1.879883 1.06348,2.878906 0.95605,0.999024 2.38477,0.999024 1.06347,0 1.81543,-0.558594 0.75195,-0.558594 1.19238,-1.783203 z m -6.34863,-3.125977 h 6.37011 q -0.1289,-1.439453 -0.73047,-2.159179 -0.92382,-1.117188 -2.3955,-1.117188 -1.33204,0 -2.24512,0.891602 -0.90234,0.891601 -0.99902,2.384765 z m 12.55761,6.799805 h -1.79394 V 38.672066 h 1.93359 v 5.618164 q 1.22461,-1.536133 3.12598,-1.536133 1.05273,0 1.9873,0.429688 0.94531,0.418945 1.54688,1.192383 0.6123,0.762695 0.95605,1.847656 0.34375,1.084961 0.34375,2.320312 0,2.932618 -1.45019,4.533203 -1.4502,1.600586 -3.48047,1.600586 -2.01953,0 -3.16895,-1.686523 z m -0.0215,-5.790039 q 0,2.051758 0.55859,2.964844 0.91309,1.493164 2.47071,1.493164 1.26757,0 2.1914,-1.095703 0.92383,-1.106446 0.92383,-3.28711 0,-2.234375 -0.8916,-3.297851 -0.88086,-1.063477 -2.1377,-1.063477 -1.26758,0 -2.1914,1.106445 -0.92383,1.095703 -0.92383,3.179688 z"
       id="flowRoot6"
       transform="translate(-282.02002,630.80496)"
       aria-label="Mon 1-feb" />
    <g
       id="g81"
       transform="translate(0,-10.000387)">
      <path
         style="display:inline;fill:none;stroke:#555753;stroke-width:1;stroke-linecap:round;stroke-linejoin:round;stroke-dasharray:none;stroke-opacity:1"
         d="m 220.00049,612.36218 v -10.4615"
         id="path6-3" />
      <path
         style="font-size:14px;line-height:1.25;font-family:'Liberation Sans';-inkscape-font-specification:'Liberation Sans, Normal';text-align:center;text-anchor:middle"
         d="m 422.47021,42.271695 q 0,-1.777344 0.36231,-2.857422 0.36914,-1.086914 1.08691,-1.674805 0.72461,-0.58789 1.81836,-0.58789 0.80664,0 1.41504,0.328125 0.6084,0.321289 1.00488,0.936523 0.39649,0.608398 0.62208,1.490234 0.22558,0.875 0.22558,2.365235 0,1.763672 -0.3623,2.850586 -0.36231,1.080078 -1.08692,1.674804 -0.71777,0.587891 -1.81836,0.587891 -1.44922,0 -2.27636,-1.039063 -0.99122,-1.250976 -0.99122,-4.074218 z m 1.26465,0 q 0,2.467773 0.57422,3.288086 0.58106,0.813476 1.42871,0.813476 0.84766,0 1.42188,-0.820312 0.58105,-0.820313 0.58105,-3.28125 0,-2.47461 -0.58105,-3.288086 -0.57422,-0.813477 -1.43555,-0.813477 -0.84766,0 -1.35351,0.717774 -0.63575,0.916015 -0.63575,3.383789 z m 8.41504,-0.492188 q -0.76562,-0.280273 -1.13476,-0.799804 -0.36914,-0.519532 -0.36914,-1.244141 0,-1.09375 0.78613,-1.838867 0.78613,-0.745117 2.0918,-0.745117 1.3125,0 2.1123,0.765625 0.79981,0.758789 0.79981,1.852539 0,0.697265 -0.36915,1.216796 -0.3623,0.512696 -1.10742,0.792969 0.92285,0.300781 1.40137,0.970703 0.48535,0.669922 0.48535,1.59961 0,1.285156 -0.90918,2.160156 -0.90918,0.875 -2.39258,0.875 -1.48339,0 -2.39257,-0.875 -0.90918,-0.881836 -0.90918,-2.194336 0,-0.977539 0.49218,-1.633789 0.49903,-0.663086 1.41504,-0.902344 z m -0.24609,-2.084961 q 0,0.710938 0.45801,1.16211 0.458,0.451172 1.18945,0.451172 0.71094,0 1.16211,-0.444336 0.45801,-0.451172 0.45801,-1.100586 0,-0.676758 -0.47168,-1.134766 -0.46485,-0.464844 -1.16211,-0.464844 -0.7041,0 -1.16895,0.451172 -0.46484,0.451172 -0.46484,1.080078 z m -0.39649,4.62793 q 0,0.526367 0.2461,1.018555 0.25293,0.492187 0.74512,0.765625 0.49218,0.266601 1.05957,0.266601 0.88183,0 1.45605,-0.567383 0.57422,-0.567382 0.57422,-1.442382 0,-0.888672 -0.59473,-1.469727 -0.58789,-0.581055 -1.47656,-0.581055 -0.86816,0 -1.44238,0.574219 -0.56739,0.574219 -0.56739,1.435547 z m 7.21875,-2.966797 v -1.401367 h 1.40137 v 1.401367 z m 0,5.858399 V 45.81271 h 1.40137 v 1.401368 z m 3.20606,-4.942383 q 0,-1.777344 0.3623,-2.857422 0.36914,-1.086914 1.08692,-1.674805 0.72461,-0.58789 1.81836,-0.58789 0.80664,0 1.41504,0.328125 0.60839,0.321289 1.00488,0.936523 0.39648,0.608398 0.62207,1.490234 0.22559,0.875 0.22559,2.365235 0,1.763672 -0.36231,2.850586 -0.3623,1.080078 -1.08691,1.674804 -0.71778,0.587891 -1.81836,0.587891 -1.44922,0 -2.27637,-1.039063 -0.99121,-1.250976 -0.99121,-4.074218 z m 1.26465,0 q 0,2.467773 0.57422,3.288086 0.58105,0.813476 1.42871,0.813476 0.84765,0 1.42187,-0.820312 0.58106,-0.820313 0.58106,-3.28125 0,-2.47461 -0.58106,-3.288086 -0.57422,-0.813477 -1.43554,-0.813477 -0.84766,0 -1.35352,0.717774 -0.63574,0.916015 -0.63574,3.383789 z m 6.52148,0 q 0,-1.777344 0.36231,-2.857422 0.36914,-1.086914 1.08691,-1.674805 0.72461,-0.58789 1.81836,-0.58789 0.80664,0 1.41504,0.328125 0.6084,0.321289 1.00488,0.936523 0.39649,0.608398 0.62207,1.490234 0.22559,0.875 0.22559,2.365235 0,1.763672 -0.36231,2.850586 -0.3623,1.080078 -1.08691,1.674804 -0.71777,0.587891 -1.81836,0.587891 -1.44922,0 -2.27637,-1.039063 -0.99121,-1.250976 -0.99121,-4.074218 z m 1.26465,0 q 0,2.467773 0.57422,3.288086 0.58105,0.813476 1.42871,0.813476 0.84766,0 1.42187,-0.820312 0.58106,-0.820313 0.58106,-3.28125 0,-2.47461 -0.58106,-3.288086 -0.57421,-0.813477 -1.43554,-0.813477 -0.84766,0 -1.35352,0.717774 -0.63574,0.916015 -0.63574,3.383789 z"
         id="flowRoot2-4-9"
         transform="translate(-219.40576,548.04988)"
         aria-label="08:00" />
      <path
         style="display:inline;fill:none;stroke:currentColor;stroke-width:1;stroke-linecap:round;stroke-linejoin:round;stroke-dasharray:none;stroke-opacity:1;marker-start:url(#ArrowTriangleStylized-4_reversed)"
         d="m 750.00049,612.3625 h -560"
         id="path17-0" />
      <path
         style="display:inline;fill:none;stroke:#555753;stroke-width:1;stroke-linecap:round;stroke-linejoin:round;stroke-dasharray:none;stroke-opacity:1"
         d="m 270.00053,612.36218 v -10.4615"
         id="path7" />
      <path
         style="font-size:14px;line-height:1.25;font-family:'Liberation Sans';-inkscape-font-specification:'Liberation Sans, Normal';text-align:center;text-anchor:middle"
         d="m 422.47021,42.271695 q 0,-1.777344 0.36231,-2.857422 0.36914,-1.086914 1.08691,-1.674805 0.72461,-0.58789 1.81836,-0.58789 0.80664,0 1.41504,0.328125 0.6084,0.321289 1.00488,0.936523 0.39649,0.608398 0.62208,1.490234 0.22558,0.875 0.22558,2.365235 0,1.763672 -0.3623,2.850586 -0.36231,1.080078 -1.08692,1.674804 -0.71777,0.587891 -1.81836,0.587891 -1.44922,0 -2.27636,-1.039063 -0.99122,-1.250976 -0.99122,-4.074218 z m 1.26465,0 q 0,2.467773 0.57422,3.288086 0.58106,0.813476 1.42871,0.813476 0.84766,0 1.42188,-0.820312 0.58105,-0.820313 0.58105,-3.28125 0,-2.47461 -0.58105,-3.288086 -0.57422,-0.813477 -1.43555,-0.813477 -0.84766,0 -1.35351,0.717774 -0.63575,0.916015 -0.63575,3.383789 z m 6.70606,2.625 1.18262,-0.109375 q 0.15039,0.833984 0.57421,1.209961 0.42383,0.375976 1.08692,0.375976 0.56738,0 0.99121,-0.259765 0.43066,-0.259766 0.7041,-0.69043 0.27344,-0.4375 0.45801,-1.175781 0.18457,-0.738282 0.18457,-1.503907 0,-0.08203 -0.007,-0.246093 -0.36914,0.58789 -1.01172,0.957031 -0.63574,0.362305 -1.38086,0.362305 -1.24414,0 -2.10546,-0.902344 -0.86133,-0.902344 -0.86133,-2.378906 0,-1.524414 0.89551,-2.454102 0.90234,-0.929687 2.25585,-0.929687 0.97754,0 1.78418,0.526367 0.81348,0.526367 1.23047,1.503906 0.42383,0.970703 0.42383,2.816406 0,1.920899 -0.41699,3.0625 -0.41699,1.134766 -1.24414,1.729492 -0.82031,0.594727 -1.92774,0.594727 -1.17578,0 -1.92089,-0.649414 -0.74512,-0.65625 -0.89551,-1.838867 z m 5.03808,-4.422852 q 0,-1.05957 -0.56738,-1.68164 -0.56055,-0.622071 -1.35351,-0.622071 -0.82032,0 -1.42872,0.669922 -0.60839,0.669922 -0.60839,1.736328 0,0.957031 0.57421,1.558594 0.58106,0.594727 1.42872,0.594727 0.85449,0 1.40136,-0.594727 0.55371,-0.601563 0.55371,-1.661133 z m 3.24707,0.881836 v -1.401367 h 1.40137 v 1.401367 z m 0,5.858399 V 45.81271 h 1.40137 v 1.401368 z m 3.20606,-4.942383 q 0,-1.777344 0.3623,-2.857422 0.36914,-1.086914 1.08692,-1.674805 0.72461,-0.58789 1.81836,-0.58789 0.80664,0 1.41504,0.328125 0.60839,0.321289 1.00488,0.936523 0.39648,0.608398 0.62207,1.490234 0.22559,0.875 0.22559,2.365235 0,1.763672 -0.36231,2.850586 -0.3623,1.080078 -1.08691,1.674804 -0.71778,0.587891 -1.81836,0.587891 -1.44922,0 -2.27637,-1.039063 -0.99121,-1.250976 -0.99121,-4.074218 z m 1.26465,0 q 0,2.467773 0.57422,3.288086 0.58105,0.813476 1.42871,0.813476 0.84765,0 1.42187,-0.820312 0.58106,-0.820313 0.58106,-3.28125 0,-2.47461 -0.58106,-3.288086 -0.57422,-0.813477 -1.43554,-0.813477 -0.84766,0 -1.35352,0.717774 -0.63574,0.916015 -0.63574,3.383789 z m 6.52148,0 q 0,-1.777344 0.36231,-2.857422 0.36914,-1.086914 1.08691,-1.674805 0.72461,-0.58789 1.81836,-0.58789 0.80664,0 1.41504,0.328125 0.6084,0.321289 1.00488,0.936523 0.39649,0.608398 0.62207,1.490234 0.22559,0.875 0.22559,2.365235 0,1.763672 -0.36231,2.850586 -0.3623,1.080078 -1.08691,1.674804 -0.71777,0.587891 -1.81836,0.587891 -1.44922,0 -2.27637,-1.039063 -0.99121,-1.250976 -0.99121,-4.074218 z m 1.26465,0 q 0,2.467773 0.57422,3.288086 0.58105,0.813476 1.42871,0.813476 0.84766,0 1.42187,-0.820312 0.58106,-0.820313 0.58106,-3.28125 0,-2.47461 -0.58106,-3.288086 -0.57421,-0.813477 -1.43554,-0.813477 -0.84766,0 -1.35352,0.717774 -0.63574,0.916015 -0.63574,3.383789 z"
         id="flowRoot7"
         transform="translate(-169.40572,548.04988)"
         aria-label="09:00" />
      <path
         style="display:inline;fill:none;stroke:#555753;stroke-width:1;stroke-linecap:round;stroke-linejoin:round;stroke-dasharray:none;stroke-opacity:1"
         d="m 320.00021,612.36218 v -10.4615"
         id="path8" />
      <path
         style="font-size:14px;line-height:1.25;font-family:'Liberation Sans';-inkscape-font-specification:'Liberation Sans, Normal';text-align:center;text-anchor:middle"
         d="m 427.10498,47.214078 h -1.23047 v -7.840821 q -0.44433,0.423828 -1.16894,0.847656 -0.71778,0.423829 -1.292,0.635743 v -1.189453 q 1.03223,-0.485352 1.80469,-1.175782 0.77246,-0.690429 1.09375,-1.339843 h 0.79297 z m 3.15137,-4.942383 q 0,-1.777344 0.3623,-2.857422 0.36914,-1.086914 1.08692,-1.674805 0.72461,-0.58789 1.81836,-0.58789 0.80664,0 1.41503,0.328125 0.6084,0.321289 1.00489,0.936523 0.39648,0.608398 0.62207,1.490234 0.22558,0.875 0.22558,2.365235 0,1.763672 -0.3623,2.850586 -0.36231,1.080078 -1.08691,1.674804 -0.71778,0.587891 -1.81836,0.587891 -1.44922,0 -2.27637,-1.039063 -0.99121,-1.250976 -0.99121,-4.074218 z m 1.26465,0 q 0,2.467773 0.57421,3.288086 0.58106,0.813476 1.42872,0.813476 0.84765,0 1.42187,-0.820312 0.58106,-0.820313 0.58106,-3.28125 0,-2.47461 -0.58106,-3.288086 -0.57422,-0.813477 -1.43555,-0.813477 -0.84765,0 -1.35351,0.717774 -0.63574,0.916015 -0.63574,3.383789 z m 7.20507,-0.916016 v -1.401367 h 1.40137 v 1.401367 z m 0,5.858399 V 45.81271 h 1.40137 v 1.401368 z m 3.20606,-4.942383 q 0,-1.777344 0.3623,-2.857422 0.36914,-1.086914 1.08692,-1.674805 0.72461,-0.58789 1.81836,-0.58789 0.80664,0 1.41504,0.328125 0.60839,0.321289 1.00488,0.936523 0.39648,0.608398 0.62207,1.490234 0.22559,0.875 0.22559,2.365235 0,1.763672 -0.36231,2.850586 -0.3623,1.080078 -1.08691,1.674804 -0.71778,0.587891 -1.81836,0.587891 -1.44922,0 -2.27637,-1.039063 -0.99121,-1.250976 -0.99121,-4.074218 z m 1.26465,0 q 0,2.467773 0.57422,3.288086 0.58105,0.813476 1.42871,0.813476 0.84765,0 1.42187,-0.820312 0.58106,-0.820313 0.58106,-3.28125 0,-2.47461 -0.58106,-3.288086 -0.57422,-0.813477 -1.43554,-0.813477 -0.84766,0 -1.35352,0.717774 -0.63574,0.916015 -0.63574,3.383789 z m 6.52148,0 q 0,-1.777344 0.36231,-2.857422 0.36914,-1.086914 1.08691,-1.674805 0.72461,-0.58789 1.81836,-0.58789 0.80664,0 1.41504,0.328125 0.6084,0.321289 1.00488,0.936523 0.39649,0.608398 0.62207,1.490234 0.22559,0.875 0.22559,2.365235 0,1.763672 -0.36231,2.850586 -0.3623,1.080078 -1.08691,1.674804 -0.71777,0.587891 -1.81836,0.587891 -1.44922,0 -2.27637,-1.039063 -0.99121,-1.250976 -0.99121,-4.074218 z m 1.26465,0 q 0,2.467773 0.57422,3.288086 0.58105,0.813476 1.42871,0.813476 0.84766,0 1.42187,-0.820312 0.58106,-0.820313 0.58106,-3.28125 0,-2.47461 -0.58106,-3.288086 -0.57421,-0.813477 -1.43554,-0.813477 -0.84766,0 -1.35352,0.717774 -0.63574,0.916015 -0.63574,3.383789 z"
         id="flowRoot8"
         transform="translate(-119.40604,548.04988)"
         aria-label="10:00" />
      <path
         style="display:inline;fill:none;stroke:#555753;stroke-width:1;stroke-linecap:round;stroke-linejoin:round;stroke-dasharray:none;stroke-opacity:1"
         d="m 370.00021,612.36218 v -10.4615"
         id="path9" />
      <path
         style="font-size:14px;line-height:1.25;font-family:'Liberation Sans';-inkscape-font-specification:'Liberation Sans, Normal';text-align:center;text-anchor:middle"
         d="m 427.62451,47.214078 h -1.23047 v -7.840821 q -0.44433,0.423828 -1.16894,0.847656 -0.71778,0.423829 -1.29199,0.635743 v -1.189453 q 1.03222,-0.485352 1.80468,-1.175782 0.77246,-0.690429 1.09375,-1.339843 h 0.79297 z m 6.74707,0 h -1.23047 v -7.840821 q -0.44433,0.423828 -1.16894,0.847656 -0.71778,0.423829 -1.29199,0.635743 v -1.189453 q 1.03222,-0.485352 1.80468,-1.175782 0.77246,-0.690429 1.09375,-1.339843 h 0.79297 z m 3.83496,-5.858399 v -1.401367 h 1.40137 v 1.401367 z m 0,5.858399 V 45.81271 h 1.40137 v 1.401368 z m 3.20606,-4.942383 q 0,-1.777344 0.3623,-2.857422 0.36914,-1.086914 1.08692,-1.674805 0.72461,-0.58789 1.81836,-0.58789 0.80664,0 1.41503,0.328125 0.6084,0.321289 1.00489,0.936523 0.39648,0.608398 0.62207,1.490234 0.22558,0.875 0.22558,2.365235 0,1.763672 -0.3623,2.850586 -0.36231,1.080078 -1.08691,1.674804 -0.71778,0.587891 -1.81836,0.587891 -1.44922,0 -2.27637,-1.039063 -0.99121,-1.250976 -0.99121,-4.074218 z m 1.26465,0 q 0,2.467773 0.57421,3.288086 0.58106,0.813476 1.42872,0.813476 0.84765,0 1.42187,-0.820312 0.58106,-0.820313 0.58106,-3.28125 0,-2.47461 -0.58106,-3.288086 -0.57422,-0.813477 -1.43555,-0.813477 -0.84765,0 -1.35351,0.717774 -0.63574,0.916015 -0.63574,3.383789 z m 6.52148,0 q 0,-1.777344 0.36231,-2.857422 0.36914,-1.086914 1.08691,-1.674805 0.72461,-0.58789 1.81836,-0.58789 0.80664,0 1.41504,0.328125 0.6084,0.321289 1.00488,0.936523 0.39648,0.608398 0.62207,1.490234 0.22559,0.875 0.22559,2.365235 0,1.763672 -0.36231,2.850586 -0.3623,1.080078 -1.08691,1.674804 -0.71778,0.587891 -1.81836,0.587891 -1.44922,0 -2.27637,-1.039063 -0.99121,-1.250976 -0.99121,-4.074218 z m 1.26465,0 q 0,2.467773 0.57422,3.288086 0.58105,0.813476 1.42871,0.813476 0.84765,0 1.42187,-0.820312 0.58106,-0.820313 0.58106,-3.28125 0,-2.47461 -0.58106,-3.288086 -0.57422,-0.813477 -1.43554,-0.813477 -0.84766,0 -1.35352,0.717774 -0.63574,0.916015 -0.63574,3.383789 z"
         id="flowRoot9"
         transform="translate(-69.406036,548.04988)"
         aria-label="11:00" />
      <path
         style="display:inline;fill:none;stroke:#555753;stroke-width:1;stroke-linecap:round;stroke-linejoin:round;stroke-dasharray:none;stroke-opacity:1"
         d="m 420.00021,612.36218 v -10.4615"
         id="path10" />
      <path
         style="font-size:14px;line-height:1.25;font-family:'Liberation Sans';-inkscape-font-specification:'Liberation Sans, Normal';text-align:center;text-anchor:middle"
         d="m 427.10498,47.214078 h -1.23047 v -7.840821 q -0.44433,0.423828 -1.16894,0.847656 -0.71778,0.423829 -1.292,0.635743 v -1.189453 q 1.03223,-0.485352 1.80469,-1.175782 0.77246,-0.690429 1.09375,-1.339843 h 0.79297 z m 9.61816,-1.182618 v 1.182618 h -6.62402 q -0.0137,-0.444336 0.14356,-0.854493 0.25293,-0.676757 0.80664,-1.333007 0.56054,-0.65625 1.61328,-1.517579 1.63379,-1.339843 2.20801,-2.11914 0.57421,-0.786133 0.57421,-1.483399 0,-0.731445 -0.52636,-1.230468 -0.51953,-0.50586 -1.36035,-0.50586 -0.88868,0 -1.42188,0.533203 -0.5332,0.533203 -0.54004,1.476563 l -1.26465,-0.129883 q 0.12989,-1.415039 0.97754,-2.15332 0.84766,-0.745117 2.27637,-0.745117 1.44238,0 2.2832,0.799804 0.84082,0.799805 0.84082,1.982422 0,0.601563 -0.24609,1.182617 -0.24609,0.581055 -0.82031,1.223633 -0.56739,0.642578 -1.89356,1.763672 -1.10742,0.929687 -1.42187,1.264648 -0.31446,0.328125 -0.51953,0.663086 z m 2.00293,-4.675781 v -1.401367 h 1.40137 v 1.401367 z m 0,5.858399 V 45.81271 h 1.40137 v 1.401368 z m 3.20606,-4.942383 q 0,-1.777344 0.3623,-2.857422 0.36914,-1.086914 1.08692,-1.674805 0.72461,-0.58789 1.81836,-0.58789 0.80664,0 1.41504,0.328125 0.60839,0.321289 1.00488,0.936523 0.39648,0.608398 0.62207,1.490234 0.22559,0.875 0.22559,2.365235 0,1.763672 -0.36231,2.850586 -0.3623,1.080078 -1.08691,1.674804 -0.71778,0.587891 -1.81836,0.587891 -1.44922,0 -2.27637,-1.039063 -0.99121,-1.250976 -0.99121,-4.074218 z m 1.26465,0 q 0,2.467773 0.57422,3.288086 0.58105,0.813476 1.42871,0.813476 0.84765,0 1.42187,-0.820312 0.58106,-0.820313 0.58106,-3.28125 0,-2.47461 -0.58106,-3.288086 -0.57422,-0.813477 -1.43554,-0.813477 -0.84766,0 -1.35352,0.717774 -0.63574,0.916015 -0.63574,3.383789 z m 6.52148,0 q 0,-1.777344 0.36231,-2.857422 0.36914,-1.086914 1.08691,-1.674805 0.72461,-0.58789 1.81836,-0.58789 0.80664,0 1.41504,0.328125 0.6084,0.321289 1.00488,0.936523 0.39649,0.608398 0.62207,1.490234 0.22559,0.875 0.22559,2.365235 0,1.763672 -0.36231,2.850586 -0.3623,1.080078 -1.08691,1.674804 -0.71777,0.587891 -1.81836,0.587891 -1.44922,0 -2.27637,-1.039063 -0.99121,-1.250976 -0.99121,-4.074218 z m 1.26465,0 q 0,2.467773 0.57422,3.288086 0.58105,0.813476 1.42871,0.813476 0.84766,0 1.42187,-0.820312 0.58106,-0.820313 0.58106,-3.28125 0,-2.47461 -0.58106,-3.288086 -0.57421,-0.813477 -1.43554,-0.813477 -0.84766,0 -1.35352,0.717774 -0.63574,0.916015 -0.63574,3.383789 z"
         id="flowRoot10"
         transform="translate(-19.406031,548.04988)"
         aria-label="12:00" />
      <path
         style="display:inline;fill:none;stroke:#555753;stroke-width:1;stroke-linecap:round;stroke-linejoin:round;stroke-dasharray:none;stroke-opacity:1"
         d="m 470.00021,612.36218 v -10.4615"
         id="path11" />
      <path
         style="font-size:14px;line-height:1.25;font-family:'Liberation Sans';-inkscape-font-specification:'Liberation Sans, Normal';text-align:center;text-anchor:middle"
         d="m 427.10498,47.214078 h -1.23047 v -7.840821 q -0.44433,0.423828 -1.16894,0.847656 -0.71778,0.423829 -1.292,0.635743 v -1.189453 q 1.03223,-0.485352 1.80469,-1.175782 0.77246,-0.690429 1.09375,-1.339843 h 0.79297 z m 3.1582,-2.645508 1.23047,-0.164063 q 0.21192,1.045899 0.71778,1.510742 0.51269,0.458008 1.24414,0.458008 0.86816,0 1.46289,-0.601562 0.60156,-0.601563 0.60156,-1.490235 0,-0.847656 -0.55371,-1.394531 -0.55371,-0.553711 -1.4082,-0.553711 -0.34864,0 -0.86817,0.136719 l 0.13672,-1.080078 q 0.12305,0.01367 0.19824,0.01367 0.78614,0 1.41504,-0.410157 0.62891,-0.410156 0.62891,-1.264648 0,-0.676758 -0.45801,-1.121094 -0.45801,-0.444336 -1.18262,-0.444336 -0.71777,0 -1.19629,0.451172 -0.47851,0.451172 -0.61523,1.353516 l -1.23047,-0.21875 q 0.22559,-1.237305 1.02539,-1.914063 0.79981,-0.683593 1.98926,-0.683593 0.82031,0 1.51074,0.355468 0.69043,0.348633 1.05274,0.957032 0.36914,0.608398 0.36914,1.291992 0,0.649414 -0.34864,1.182617 -0.34863,0.533203 -1.03222,0.847656 0.88867,0.205078 1.38086,0.854492 0.49218,0.642578 0.49218,1.613282 0,1.3125 -0.95703,2.228515 -0.95703,0.90918 -2.41992,0.90918 -1.31934,0 -2.19434,-0.786133 -0.86816,-0.786133 -0.99121,-2.037109 z m 8.46289,-3.212891 v -1.401367 h 1.40137 v 1.401367 z m 0,5.858399 V 45.81271 h 1.40137 v 1.401368 z m 3.20606,-4.942383 q 0,-1.777344 0.3623,-2.857422 0.36914,-1.086914 1.08692,-1.674805 0.72461,-0.58789 1.81836,-0.58789 0.80664,0 1.41504,0.328125 0.60839,0.321289 1.00488,0.936523 0.39648,0.608398 0.62207,1.490234 0.22559,0.875 0.22559,2.365235 0,1.763672 -0.36231,2.850586 -0.3623,1.080078 -1.08691,1.674804 -0.71778,0.587891 -1.81836,0.587891 -1.44922,0 -2.27637,-1.039063 -0.99121,-1.250976 -0.99121,-4.074218 z m 1.26465,0 q 0,2.467773 0.57422,3.288086 0.58105,0.813476 1.42871,0.813476 0.84765,0 1.42187,-0.820312 0.58106,-0.820313 0.58106,-3.28125 0,-2.47461 -0.58106,-3.288086 -0.57422,-0.813477 -1.43554,-0.813477 -0.84766,0 -1.35352,0.717774 -0.63574,0.916015 -0.63574,3.383789 z m 6.52148,0 q 0,-1.777344 0.36231,-2.857422 0.36914,-1.086914 1.08691,-1.674805 0.72461,-0.58789 1.81836,-0.58789 0.80664,0 1.41504,0.328125 0.6084,0.321289 1.00488,0.936523 0.39649,0.608398 0.62207,1.490234 0.22559,0.875 0.22559,2.365235 0,1.763672 -0.36231,2.850586 -0.3623,1.080078 -1.08691,1.674804 -0.71777,0.587891 -1.81836,0.587891 -1.44922,0 -2.27637,-1.039063 -0.99121,-1.250976 -0.99121,-4.074218 z m 1.26465,0 q 0,2.467773 0.57422,3.288086 0.58105,0.813476 1.42871,0.813476 0.84766,0 1.42187,-0.820312 0.58106,-0.820313 0.58106,-3.28125 0,-2.47461 -0.58106,-3.288086 -0.57421,-0.813477 -1.43554,-0.813477 -0.84766,0 -1.35352,0.717774 -0.63574,0.916015 -0.63574,3.383789 z"
         id="flowRoot11"
         transform="translate(30.593969,548.04988)"
         aria-label="13:00" />
      <path
         style="display:inline;fill:none;stroke:#555753;stroke-width:1;stroke-linecap:round;stroke-linejoin:round;stroke-dasharray:none;stroke-opacity:1"
         d="m 520.00021,612.36218 v -10.4615"
         id="path12" />
      <path
         style="font-size:14px;line-height:1.25;font-family:'Liberation Sans';-inkscape-font-specification:'Liberation Sans, Normal';text-align:center;text-anchor:middle"
         d="m 427.10498,47.214078 h -1.23047 v -7.840821 q -0.44433,0.423828 -1.16894,0.847656 -0.71778,0.423829 -1.292,0.635743 v -1.189453 q 1.03223,-0.485352 1.80469,-1.175782 0.77246,-0.690429 1.09375,-1.339843 h 0.79297 z m 7.0957,0 v -2.399415 h -4.34765 v -1.127929 l 4.57324,-6.494141 h 1.00488 v 6.494141 h 1.35352 v 1.127929 h -1.35352 v 2.399415 z m 0,-3.527344 v -4.518555 l -3.13769,4.518555 z m 4.52539,-2.331055 v -1.401367 h 1.40137 v 1.401367 z m 0,5.858399 V 45.81271 h 1.40137 v 1.401368 z m 3.20606,-4.942383 q 0,-1.777344 0.3623,-2.857422 0.36914,-1.086914 1.08692,-1.674805 0.72461,-0.58789 1.81836,-0.58789 0.80664,0 1.41504,0.328125 0.60839,0.321289 1.00488,0.936523 0.39648,0.608398 0.62207,1.490234 0.22559,0.875 0.22559,2.365235 0,1.763672 -0.36231,2.850586 -0.3623,1.080078 -1.08691,1.674804 -0.71778,0.587891 -1.81836,0.587891 -1.44922,0 -2.27637,-1.039063 -0.99121,-1.250976 -0.99121,-4.074218 z m 1.26465,0 q 0,2.467773 0.57422,3.288086 0.58105,0.813476 1.42871,0.813476 0.84765,0 1.42187,-0.820312 0.58106,-0.820313 0.58106,-3.28125 0,-2.47461 -0.58106,-3.288086 -0.57422,-0.813477 -1.43554,-0.813477 -0.84766,0 -1.35352,0.717774 -0.63574,0.916015 -0.63574,3.383789 z m 6.52148,0 q 0,-1.777344 0.36231,-2.857422 0.36914,-1.086914 1.08691,-1.674805 0.72461,-0.58789 1.81836,-0.58789 0.80664,0 1.41504,0.328125 0.6084,0.321289 1.00488,0.936523 0.39649,0.608398 0.62207,1.490234 0.22559,0.875 0.22559,2.365235 0,1.763672 -0.36231,2.850586 -0.3623,1.080078 -1.08691,1.674804 -0.71777,0.587891 -1.81836,0.587891 -1.44922,0 -2.27637,-1.039063 -0.99121,-1.250976 -0.99121,-4.074218 z m 1.26465,0 q 0,2.467773 0.57422,3.288086 0.58105,0.813476 1.42871,0.813476 0.84766,0 1.42187,-0.820312 0.58106,-0.820313 0.58106,-3.28125 0,-2.47461 -0.58106,-3.288086 -0.57421,-0.813477 -1.43554,-0.813477 -0.84766,0 -1.35352,0.717774 -0.63574,0.916015 -0.63574,3.383789 z"
         id="flowRoot39"
         transform="translate(80.593969,548.04988)"
         aria-label="14:00" />
      <path
         style="display:inline;fill:none;stroke:#555753;stroke-width:1;stroke-linecap:round;stroke-linejoin:round;stroke-dasharray:none;stroke-opacity:1"
         d="m 570.00021,612.36218 v -10.4615"
         id="path39" />
      <path
         style="font-size:14px;line-height:1.25;font-family:'Liberation Sans';-inkscape-font-specification:'Liberation Sans, Normal';text-align:center;text-anchor:middle"
         d="m 427.10498,47.214078 h -1.23047 v -7.840821 q -0.44433,0.423828 -1.16894,0.847656 -0.71778,0.423829 -1.292,0.635743 v -1.189453 q 1.03223,-0.485352 1.80469,-1.175782 0.77246,-0.690429 1.09375,-1.339843 h 0.79297 z m 3.15137,-2.625 1.29199,-0.109375 q 0.14355,0.943359 0.66309,1.421875 0.52636,0.471679 1.26464,0.471679 0.88868,0 1.50391,-0.669922 0.61523,-0.669922 0.61523,-1.777343 0,-1.052735 -0.59472,-1.661133 -0.58789,-0.608399 -1.54492,-0.608399 -0.59473,0 -1.07325,0.273438 -0.47851,0.266601 -0.75195,0.697265 l -1.15527,-0.15039 0.9707,-5.147461 h 4.9834 v 1.175781 h -3.99902 l -0.54004,2.69336 q 0.90234,-0.628907 1.89355,-0.628907 1.3125,0 2.21485,0.90918 0.90234,0.90918 0.90234,2.337891 0,1.360351 -0.79297,2.351562 -0.96387,1.216797 -2.63184,1.216797 -1.36718,0 -2.23535,-0.765625 -0.86133,-0.765625 -0.98437,-2.030273 z m 8.46972,-3.233399 v -1.401367 h 1.40137 v 1.401367 z m 0,5.858399 V 45.81271 h 1.40137 v 1.401368 z m 3.20606,-4.942383 q 0,-1.777344 0.3623,-2.857422 0.36914,-1.086914 1.08692,-1.674805 0.72461,-0.58789 1.81836,-0.58789 0.80664,0 1.41504,0.328125 0.60839,0.321289 1.00488,0.936523 0.39648,0.608398 0.62207,1.490234 0.22559,0.875 0.22559,2.365235 0,1.763672 -0.36231,2.850586 -0.3623,1.080078 -1.08691,1.674804 -0.71778,0.587891 -1.81836,0.587891 -1.44922,0 -2.27637,-1.039063 -0.99121,-1.250976 -0.99121,-4.074218 z m 1.26465,0 q 0,2.467773 0.57422,3.288086 0.58105,0.813476 1.42871,0.813476 0.84765,0 1.42187,-0.820312 0.58106,-0.820313 0.58106,-3.28125 0,-2.47461 -0.58106,-3.288086 -0.57422,-0.813477 -1.43554,-0.813477 -0.84766,0 -1.35352,0.717774 -0.63574,0.916015 -0.63574,3.383789 z m 6.52148,0 q 0,-1.777344 0.36231,-2.857422 0.36914,-1.086914 1.08691,-1.674805 0.72461,-0.58789 1.81836,-0.58789 0.80664,0 1.41504,0.328125 0.6084,0.321289 1.00488,0.936523 0.39649,0.608398 0.62207,1.490234 0.22559,0.875 0.22559,2.365235 0,1.763672 -0.36231,2.850586 -0.3623,1.080078 -1.08691,1.674804 -0.71777,0.587891 -1.81836,0.587891 -1.44922,0 -2.27637,-1.039063 -0.99121,-1.250976 -0.99121,-4.074218 z m 1.26465,0 q 0,2.467773 0.57422,3.288086 0.58105,0.813476 1.42871,0.813476 0.84766,0 1.42187,-0.820312 0.58106,-0.820313 0.58106,-3.28125 0,-2.47461 -0.58106,-3.288086 -0.57421,-0.813477 -1.43554,-0.813477 -0.84766,0 -1.35352,0.717774 -0.63574,0.916015 -0.63574,3.383789 z"
         id="flowRoot42"
         transform="translate(130.59397,548.04988)"
         aria-label="15:00" />
      <path
         style="display:inline;fill:none;stroke:#555753;stroke-width:1;stroke-linecap:round;stroke-linejoin:round;stroke-dasharray:none;stroke-opacity:1"
         d="m 620.00021,612.36218 v -10.4615"
         id="path45" />
      <path
         style="font-size:14px;line-height:1.25;font-family:'Liberation Sans';-inkscape-font-specification:'Liberation Sans, Normal';text-align:center;text-anchor:middle"
         d="m 427.10498,47.214078 h -1.23047 v -7.840821 q -0.44433,0.423828 -1.16894,0.847656 -0.71778,0.423829 -1.292,0.635743 v -1.189453 q 1.03223,-0.485352 1.80469,-1.175782 0.77246,-0.690429 1.09375,-1.339843 h 0.79297 z m 9.53613,-7.567383 -1.22363,0.0957 q -0.16406,-0.72461 -0.46484,-1.052735 -0.49903,-0.526367 -1.23047,-0.526367 -0.58789,0 -1.03223,0.328125 -0.58105,0.423828 -0.91601,1.237305 -0.33497,0.813477 -0.34864,2.317383 0.44434,-0.676758 1.08692,-1.004883 0.64258,-0.328125 1.34668,-0.328125 1.23047,0 2.09179,0.90918 0.86817,0.902343 0.86817,2.33789 0,0.94336 -0.41016,1.756836 -0.40332,0.806641 -1.11426,1.237305 -0.71093,0.430664 -1.61328,0.430664 -1.53808,0 -2.50879,-1.12793 -0.9707,-1.134765 -0.9707,-3.732422 0,-2.905273 1.07324,-4.224609 0.93653,-1.148437 2.52246,-1.148437 1.18262,0 1.93457,0.663085 0.75879,0.663086 0.90918,1.832032 z m -5.02441,4.320312 q 0,0.635742 0.2666,1.216797 0.27344,0.581055 0.75879,0.888672 0.48535,0.300781 1.01855,0.300781 0.7793,0 1.33985,-0.628906 0.56055,-0.628906 0.56055,-1.708984 0,-1.039063 -0.55372,-1.633789 -0.55371,-0.601563 -1.39453,-0.601563 -0.83398,0 -1.41504,0.601563 -0.58105,0.594726 -0.58105,1.565429 z m 7.10937,-2.611328 v -1.401367 h 1.40137 v 1.401367 z m 0,5.858399 V 45.81271 h 1.40137 v 1.401368 z m 3.20606,-4.942383 q 0,-1.777344 0.3623,-2.857422 0.36914,-1.086914 1.08692,-1.674805 0.72461,-0.58789 1.81836,-0.58789 0.80664,0 1.41504,0.328125 0.60839,0.321289 1.00488,0.936523 0.39648,0.608398 0.62207,1.490234 0.22559,0.875 0.22559,2.365235 0,1.763672 -0.36231,2.850586 -0.3623,1.080078 -1.08691,1.674804 -0.71778,0.587891 -1.81836,0.587891 -1.44922,0 -2.27637,-1.039063 -0.99121,-1.250976 -0.99121,-4.074218 z m 1.26465,0 q 0,2.467773 0.57422,3.288086 0.58105,0.813476 1.42871,0.813476 0.84765,0 1.42187,-0.820312 0.58106,-0.820313 0.58106,-3.28125 0,-2.47461 -0.58106,-3.288086 -0.57422,-0.813477 -1.43554,-0.813477 -0.84766,0 -1.35352,0.717774 -0.63574,0.916015 -0.63574,3.383789 z m 6.52148,0 q 0,-1.777344 0.36231,-2.857422 0.36914,-1.086914 1.08691,-1.674805 0.72461,-0.58789 1.81836,-0.58789 0.80664,0 1.41504,0.328125 0.6084,0.321289 1.00488,0.936523 0.39649,0.608398 0.62207,1.490234 0.22559,0.875 0.22559,2.365235 0,1.763672 -0.36231,2.850586 -0.3623,1.080078 -1.08691,1.674804 -0.71777,0.587891 -1.81836,0.587891 -1.44922,0 -2.27637,-1.039063 -0.99121,-1.250976 -0.99121,-4.074218 z m 1.26465,0 q 0,2.467773 0.57422,3.288086 0.58105,0.813476 1.42871,0.813476 0.84766,0 1.42187,-0.820312 0.58106,-0.820313 0.58106,-3.28125 0,-2.47461 -0.58106,-3.288086 -0.57421,-0.813477 -1.43554,-0.813477 -0.84766,0 -1.35352,0.717774 -0.63574,0.916015 -0.63574,3.383789 z"
         id="flowRoot45"
         transform="translate(180.59396,548.04988)"
         aria-label="16:00" />
      <path
         style="display:inline;fill:none;stroke:#555753;stroke-width:1;stroke-linecap:round;stroke-linejoin:round;stroke-dasharray:none;stroke-opacity:1"
         d="m 670.00021,612.36218 v -10.4615"
         id="path46" />
      <path
         style="font-size:14px;line-height:1.25;font-family:'Liberation Sans';-inkscape-font-specification:'Liberation Sans, Normal';text-align:center;text-anchor:middle"
         d="m 427.10498,47.214078 h -1.23047 v -7.840821 q -0.44433,0.423828 -1.16894,0.847656 -0.71778,0.423829 -1.292,0.635743 v -1.189453 q 1.03223,-0.485352 1.80469,-1.175782 0.77246,-0.690429 1.09375,-1.339843 h 0.79297 z m 3.2334,-8.708985 v -1.182617 h 6.4873 v 0.957031 q -0.95703,1.018555 -1.90039,2.707031 -0.93652,1.688477 -1.44922,3.472657 -0.36914,1.257812 -0.47168,2.754883 h -1.26464 q 0.0205,-1.182618 0.46484,-2.857422 0.44434,-1.674805 1.27148,-3.226563 0.83399,-1.558594 1.77051,-2.625 z m 8.38769,2.850586 v -1.401367 h 1.40137 v 1.401367 z m 0,5.858399 V 45.81271 h 1.40137 v 1.401368 z m 3.20606,-4.942383 q 0,-1.777344 0.3623,-2.857422 0.36914,-1.086914 1.08692,-1.674805 0.72461,-0.58789 1.81836,-0.58789 0.80664,0 1.41504,0.328125 0.60839,0.321289 1.00488,0.936523 0.39648,0.608398 0.62207,1.490234 0.22559,0.875 0.22559,2.365235 0,1.763672 -0.36231,2.850586 -0.3623,1.080078 -1.08691,1.674804 -0.71778,0.587891 -1.81836,0.587891 -1.44922,0 -2.27637,-1.039063 -0.99121,-1.250976 -0.99121,-4.074218 z m 1.26465,0 q 0,2.467773 0.57422,3.288086 0.58105,0.813476 1.42871,0.813476 0.84765,0 1.42187,-0.820312 0.58106,-0.820313 0.58106,-3.28125 0,-2.47461 -0.58106,-3.288086 -0.57422,-0.813477 -1.43554,-0.813477 -0.84766,0 -1.35352,0.717774 -0.63574,0.916015 -0.63574,3.383789 z m 6.52148,0 q 0,-1.777344 0.36231,-2.857422 0.36914,-1.086914 1.08691,-1.674805 0.72461,-0.58789 1.81836,-0.58789 0.80664,0 1.41504,0.328125 0.6084,0.321289 1.00488,0.936523 0.39649,0.608398 0.62207,1.490234 0.22559,0.875 0.22559,2.365235 0,1.763672 -0.36231,2.850586 -0.3623,1.080078 -1.08691,1.674804 -0.71777,0.587891 -1.81836,0.587891 -1.44922,0 -2.27637,-1.039063 -0.99121,-1.250976 -0.99121,-4.074218 z m 1.26465,0 q 0,2.467773 0.57422,3.288086 0.58105,0.813476 1.42871,0.813476 0.84766,0 1.42187,-0.820312 0.58106,-0.820313 0.58106,-3.28125 0,-2.47461 -0.58106,-3.288086 -0.57421,-0.813477 -1.43554,-0.813477 -0.84766,0 -1.35352,0.717774 -0.63574,0.916015 -0.63574,3.383789 z"
         id="flowRoot46"
         transform="translate(230.59396,548.04988)"
         aria-label="17:00" />
      <path
         style="display:inline;fill:none;stroke:#555753;stroke-width:1;stroke-linecap:round;stroke-linejoin:round;stroke-dasharray:none;stroke-opacity:1"
         d="m 720.00021,612.36218 v -10.4615"
         id="path47" />
      <path
         style="font-size:14px;line-height:1.25;font-family:'Liberation Sans';-inkscape-font-specification:'Liberation Sans, Normal';text-align:center;text-anchor:middle"
         d="m 427.10498,47.214078 h -1.23047 v -7.840821 q -0.44433,0.423828 -1.16894,0.847656 -0.71778,0.423829 -1.292,0.635743 v -1.189453 q 1.03223,-0.485352 1.80469,-1.175782 0.77246,-0.690429 1.09375,-1.339843 h 0.79297 z m 5.04492,-5.434571 q -0.76562,-0.280273 -1.13476,-0.799804 -0.36914,-0.519532 -0.36914,-1.244141 0,-1.09375 0.78613,-1.838867 0.78613,-0.745117 2.0918,-0.745117 1.3125,0 2.1123,0.765625 0.79981,0.758789 0.79981,1.852539 0,0.697265 -0.36915,1.216796 -0.3623,0.512696 -1.10742,0.792969 0.92285,0.300781 1.40137,0.970703 0.48535,0.669922 0.48535,1.59961 0,1.285156 -0.90918,2.160156 -0.90918,0.875 -2.39258,0.875 -1.48339,0 -2.39257,-0.875 -0.90918,-0.881836 -0.90918,-2.194336 0,-0.977539 0.49218,-1.633789 0.49903,-0.663086 1.41504,-0.902344 z m -0.24609,-2.084961 q 0,0.710938 0.45801,1.16211 0.458,0.451172 1.18945,0.451172 0.71094,0 1.16211,-0.444336 0.45801,-0.451172 0.45801,-1.100586 0,-0.676758 -0.47168,-1.134766 -0.46485,-0.464844 -1.16211,-0.464844 -0.7041,0 -1.16895,0.451172 -0.46484,0.451172 -0.46484,1.080078 z m -0.39649,4.62793 q 0,0.526367 0.2461,1.018555 0.25293,0.492187 0.74512,0.765625 0.49218,0.266601 1.05957,0.266601 0.88183,0 1.45605,-0.567383 0.57422,-0.567382 0.57422,-1.442382 0,-0.888672 -0.59473,-1.469727 -0.58789,-0.581055 -1.47656,-0.581055 -0.86816,0 -1.44238,0.574219 -0.56739,0.574219 -0.56739,1.435547 z m 7.21875,-2.966797 v -1.401367 h 1.40137 v 1.401367 z m 0,5.858399 V 45.81271 h 1.40137 v 1.401368 z m 3.20606,-4.942383 q 0,-1.777344 0.3623,-2.857422 0.36914,-1.086914 1.08692,-1.674805 0.72461,-0.58789 1.81836,-0.58789 0.80664,0 1.41504,0.328125 0.60839,0.321289 1.00488,0.936523 0.39648,0.608398 0.62207,1.490234 0.22559,0.875 0.22559,2.365235 0,1.763672 -0.36231,2.850586 -0.3623,1.080078 -1.08691,1.674804 -0.71778,0.587891 -1.81836,0.587891 -1.44922,0 -2.27637,-1.039063 -0.99121,-1.250976 -0.99121,-4.074218 z m 1.26465,0 q 0,2.467773 0.57422,3.288086 0.58105,0.813476 1.42871,0.813476 0.84765,0 1.42187,-0.820312 0.58106,-0.820313 0.58106,-3.28125 0,-2.47461 -0.58106,-3.288086 -0.57422,-0.813477 -1.43554,-0.813477 -0.84766,0 -1.35352,0.717774 -0.63574,0.916015 -0.63574,3.383789 z m 6.52148,0 q 0,-1.777344 0.36231,-2.857422 0.36914,-1.086914 1.08691,-1.674805 0.72461,-0.58789 1.81836,-0.58789 0.80664,0 1.41504,0.328125 0.6084,0.321289 1.00488,0.936523 0.39649,0.608398 0.62207,1.490234 0.22559,0.875 0.22559,2.365235 0,1.763672 -0.36231,2.850586 -0.3623,1.080078 -1.08691,1.674804 -0.71777,0.587891 -1.81836,0.587891 -1.44922,0 -2.27637,-1.039063 -0.99121,-1.250976 -0.99121,-4.074218 z m 1.26465,0 q 0,2.467773 0.57422,3.288086 0.58105,0.813476 1.42871,0.813476 0.84766,0 1.42187,-0.820312 0.58106,-0.820313 0.58106,-3.28125 0,-2.47461 -0.58106,-3.288086 -0.57421,-0.813477 -1.43554,-0.813477 -0.84766,0 -1.35352,0.717774 -0.63574,0.916015 -0.63574,3.383789 z"
         id="flowRoot48"
         transform="translate(280.59396,548.04988)"
         aria-label="18:00" />
    </g>
    <g
       id="g80"
       transform="translate(26.687502,0.13289409)">
      <path
         style="font-size:22px;line-height:1.25;font-family:'Liberation Sans';-inkscape-font-specification:'Liberation Sans, Normal'"
         d="m 350.82422,48.898629 2.08398,0.526367 q -0.65527,2.567383 -2.36328,3.920898 -1.69726,1.342774 -4.15722,1.342774 -2.5459,0 -4.14649,-1.03125 -1.58984,-1.041993 -2.42773,-3.007813 -0.82715,-1.96582 -0.82715,-4.22168 0,-2.459961 0.93457,-4.286132 0.94531,-1.836914 2.6748,-2.782227 1.74024,-0.956055 3.82422,-0.956055 2.36328,0 3.97461,1.203125 1.61133,1.203125 2.24512,3.383789 l -2.05176,0.483399 q -0.54785,-1.71875 -1.58984,-2.50293 -1.042,-0.78418 -2.6211,-0.78418 -1.81543,0 -3.04004,0.870118 -1.21386,0.870117 -1.708,2.341797 -0.49414,1.460937 -0.49414,3.018554 0,2.008789 0.58007,3.512696 0.59082,1.493164 1.82618,2.234375 1.23535,0.74121 2.6748,0.74121 1.75098,0 2.96484,-1.009765 1.21387,-1.009766 1.64356,-2.99707 z m 11.84863,4.114257 q -1.07422,0.913086 -2.07324,1.289063 -0.98828,0.375976 -2.12695,0.375976 -1.87989,0 -2.88965,-0.913086 -1.00977,-0.923828 -1.00977,-2.352539 0,-0.83789 0.37598,-1.52539 0.38672,-0.698242 0.99902,-1.117188 0.62305,-0.418945 1.39649,-0.633789 0.56933,-0.15039 1.71875,-0.290039 2.34179,-0.279297 3.44824,-0.666015 0.0107,-0.397461 0.0107,-0.504883 0,-1.181641 -0.54785,-1.665039 -0.74121,-0.655274 -2.20215,-0.655274 -1.36426,0 -2.01953,0.483399 -0.64453,0.472656 -0.95606,1.686523 l -1.89062,-0.257812 q 0.25781,-1.213868 0.84863,-1.955079 0.59082,-0.751953 1.70801,-1.149414 1.11719,-0.408203 2.58887,-0.408203 1.46094,0 2.37402,0.34375 0.91309,0.34375 1.34277,0.870117 0.42969,0.515625 0.60157,1.310547 0.0967,0.494141 0.0967,1.783203 v 2.578125 q 0,2.69629 0.11816,3.416016 0.12891,0.708984 0.49414,1.364258 h -2.01953 q -0.30078,-0.601563 -0.38672,-1.407227 z m -0.16113,-4.318359 q -1.05274,0.429687 -3.1582,0.730469 -1.19239,0.171875 -1.68653,0.386718 -0.49414,0.214844 -0.76269,0.63379 -0.26856,0.408203 -0.26856,0.913085 0,0.773438 0.58008,1.289063 0.59082,0.515625 1.71875,0.515625 1.11719,0 1.9873,-0.483398 0.87012,-0.494141 1.27833,-1.342774 0.31152,-0.655273 0.31152,-1.933594 z m 4.93066,5.725586 V 43.01191 h 1.74024 v 1.729492 q 0.66601,-1.213867 1.22461,-1.600586 0.56933,-0.386719 1.24609,-0.386719 0.97754,0 1.9873,0.623047 l -0.66601,1.793945 q -0.70899,-0.418945 -1.41797,-0.418945 -0.63379,0 -1.13867,0.386719 -0.50488,0.375976 -0.71973,1.052734 -0.32226,1.03125 -0.32226,2.25586 v 5.972656 z m 7.30469,0 V 38.672066 h 1.93359 v 15.748047 z"
         id="flowRoot78"
         transform="translate(-282.02002,543.88779)"
         aria-label="Carl" />
      <g
         id="g79"
         transform="matrix(0.30769231,0,0,0.30769231,24.833944,425.4101)"
         style="stroke-width:3.25">
        <path
           id="path78"
           style="opacity:1;fill:#555753;fill-opacity:1;stroke:none;stroke-width:6.5;stroke-linecap:round;stroke-linejoin:round"
           d="m 25,512.36218 c -2.769997,0 -5,2.23 -5,5 v 30 c 0,2.77 2.230003,5 5,5 h 2 c 0,4.41828 3.581722,8 8,8 4.418278,0 8,-3.58172 8,-8 h 19 c 0,4.41828 3.581722,8 8,8 4.418278,0 8,-3.58172 8,-8 h 2 c 2.769997,0 5,-2.23 5,-5 v -10.74953 c 0,-9.46883 -13.158756,-24.25047 -21.889457,-24.25047 z" />
        <path
           id="path79"
           style="opacity:1;fill:#ffffff;fill-opacity:1;stroke:none;stroke-width:6.5;stroke-linecap:round;stroke-linejoin:round"
           d="m 62.5,515.29934 c -2.769997,0 -3,0.23 -3,3 v 11.99984 c 0,2.77 0.230003,3 3,3 h 2 11 2 c 3.119681,0 2.5,-0.64616 2.5,-2.74542 0,-2.68955 -8.658756,-15.25442 -17.389457,-15.25442 z" />
      </g>
    </g>
  </g>
</svg>
