<?xml version="1.0" encoding="UTF-8" standalone="no"?>
<svg
   width="800"
   height="600"
   id="svg2"
   version="1.1"
   xmlns="http://www.w3.org/2000/svg"
   xmlns:svg="http://www.w3.org/2000/svg"
   xmlns:rdf="http://www.w3.org/1999/02/22-rdf-syntax-ns#"
   xmlns:cc="http://creativecommons.org/ns#"
   xmlns:dc="http://purl.org/dc/elements/1.1/">
  <defs
     id="defs4">
    <rect
       x="0"
       y="552.36218"
       width="400"
       height="30"
       id="rect610" />
    <linearGradient
       id="linearGradient4083">
      <stop
         id="stop4085"
         offset="0"
         style="stop-color:#ffffff;stop-opacity:0;" />
      <stop
         style="stop-color:#ffffff;stop-opacity:0;"
         offset="0.75"
         id="stop4089" />
      <stop
         id="stop4087"
         offset="1"
         style="stop-color:#ffffff;stop-opacity:1;" />
    </linearGradient>
    <linearGradient
       id="linearGradient4032">
      <stop
         id="stop4034"
         offset="0"
         style="stop-color:#fff7c2;stop-opacity:0.63829786" />
      <stop
         style="stop-color:#fcaf3e;stop-opacity:0.18348624;"
         offset="0.59394139"
         id="stop4036" />
      <stop
         id="stop4038"
         offset="0.83850551"
         style="stop-color:#fcaf3e;stop-opacity:0.50458717;" />
      <stop
         id="stop4040"
         offset="1"
         style="stop-color:#fcaf3e;stop-opacity:1;" />
    </linearGradient>
    <linearGradient
       id="linearGradient4026">
      <stop
         id="stop4028"
         offset="0"
         style="stop-color:#fff9c6;stop-opacity:1" />
      <stop
         style="stop-color:#fff28c;stop-opacity:1;"
         offset="0.54166669"
         id="stop4042" />
      <stop
         id="stop4030"
         offset="1"
         style="stop-color:#ffea85;stop-opacity:1;" />
    </linearGradient>
    <rect
       x="0"
       y="552.36218"
       width="400"
       height="30"
       id="rect618" />
    <rect
       x="0"
       y="552.36218"
       width="150"
       height="19.999759"
       id="rect1670" />
    <rect
       x="0"
       y="552.36218"
       width="150"
       height="19.999759"
       id="rect1680" />
    <rect
       x="0"
       y="552.36218"
       width="150"
       height="19.99976"
       id="rect1670-3" />
    <rect
       x="0"
       y="552.36218"
       width="150"
       height="19.99976"
       id="rect1754" />
    <rect
       x="0"
       y="552.36218"
       width="150"
       height="19.999759"
       id="rect2097" />
    <rect
       x="0"
       y="552.36218"
       width="150"
       height="19.999759"
       id="rect2369" />
    <rect
       x="0"
       y="552.36218"
       width="150"
       height="19.999759"
       id="rect2381" />
    <rect
       x="0"
       y="552.36218"
       width="150"
       height="19.99976"
       id="rect624-6" />
    <rect
       x="0"
       y="552.36218"
       width="150"
       height="19.99976"
       id="rect2535-3" />
    <rect
       x="0"
       y="552.36218"
       width="150"
       height="19.99976"
       id="rect2543-1" />
    <rect
       x="0"
       y="552.36218"
       width="150"
       height="19.99976"
       id="rect579-7" />
    <rect
       x="0"
       y="552.36218"
       width="150"
       height="19.99976"
       id="rect591-5" />
    <rect
       x="0"
       y="552.36218"
       width="150"
       height="19.99976"
       id="rect597-9" />
    <rect
       x="0"
       y="552.36218"
       width="150"
       height="19.99976"
       id="rect603-6" />
    <rect
       x="0"
       y="552.36218"
       width="150"
       height="19.99976"
       id="rect1442-2" />
    <rect
       x="0"
       y="552.36218"
       width="150"
       height="19.99976"
       id="rect1457-7" />
    <rect
       x="0"
       y="552.36218"
       width="150"
       height="19.99976"
       id="rect1467-8" />
    <rect
       x="0"
       y="552.36218"
       width="150"
       height="19.99976"
       id="rect1494-5" />
    <rect
       x="0"
       y="552.36218"
       width="150"
       height="19.99976"
       id="rect1496-7" />
    <rect
       x="0"
       y="552.36218"
       width="150"
       height="19.99976"
       id="rect1498-4" />
    <rect
       x="0"
       y="552.36218"
       width="150"
       height="19.99976"
       id="rect1524-1" />
    <rect
       x="0"
       y="552.36218"
       width="150"
       height="19.99976"
       id="rect1526-8" />
    <rect
       x="0"
       y="552.36218"
       width="150"
       height="19.99976"
       id="rect1528-5" />
    <rect
       x="0"
       y="552.36218"
       width="150"
       height="19.99976"
       id="rect1554-8" />
    <rect
       x="0"
       y="552.36218"
       width="150"
       height="19.99976"
       id="rect1556-8" />
    <rect
       x="0"
       y="552.36218"
       width="150"
       height="19.99976"
       id="rect1558-9" />
    <rect
       x="0"
       y="552.36218"
       width="150"
       height="19.99976"
       id="rect1646-4" />
    <rect
       x="0"
       y="552.36218"
       width="150"
       height="19.99976"
       id="rect1648-3" />
    <rect
       x="0"
       y="552.36218"
       width="150"
       height="19.99976"
       id="rect1650-0" />
    <rect
       x="0"
       y="552.36218"
       width="150"
       height="19.99976"
       id="rect1652-3" />
    <rect
       x="0"
       y="552.36218"
       width="150"
       height="19.99976"
       id="rect1654-0" />
    <rect
       x="0"
       y="552.36218"
       width="150"
       height="19.99976"
       id="rect1656-9" />
    <rect
       x="0"
       y="552.36218"
       width="150"
       height="19.99976"
       id="rect1658-2" />
    <rect
       x="0"
       y="552.36218"
       width="150"
       height="19.99976"
       id="rect1660-5" />
    <rect
       x="0"
       y="552.36218"
       width="350.68832"
       height="82.629898"
       id="rect3091-4-0" />
    <rect
       x="0"
       y="552.36218"
       width="150"
       height="19.99976"
       id="rect2051-7-5" />
    <rect
       x="0"
       y="552.36218"
       width="150"
       height="19.99976"
       id="rect2033-0-9" />
    <rect
       x="0"
       y="552.36218"
       width="150"
       height="19.99976"
       id="rect2015-3-4" />
    <rect
       x="0"
       y="552.36218"
       width="150"
       height="19.99976"
       id="rect1777-1-6" />
    <rect
       x="0"
       y="552.36218"
       width="150"
       height="19.99976"
       id="rect1821-9-9" />
    <rect
       x="0"
       y="552.36218"
       width="150"
       height="19.99976"
       id="rect2017-8-2" />
    <rect
       x="0"
       y="552.36218"
       width="150"
       height="19.99976"
       id="rect2035-4-2" />
    <rect
       x="0"
       y="552.36218"
       width="150"
       height="19.99976"
       id="rect2053-7-4" />
    <rect
       x="0"
       y="552.36218"
       width="150"
       height="19.99976"
       id="rect2055-6-7" />
    <rect
       x="0"
       y="552.36218"
       width="150"
       height="19.99976"
       id="rect2037-8-7" />
    <rect
       x="0"
       y="552.36218"
       width="150"
       height="19.99976"
       id="rect2019-6-5" />
    <rect
       x="0"
       y="552.36218"
       width="150"
       height="19.99976"
       id="rect1845-7-4" />
  </defs>
  <metadata
     id="metadata7">
    <rdf:RDF>
      <cc:Work
         rdf:about="">
        <dc:format>image/svg+xml</dc:format>
        <dc:type
           rdf:resource="http://purl.org/dc/dcmitype/StillImage" />
        <dc:language>en</dc:language>
        <cc:license
           rdf:resource="https://timefold.ai/product/license/" />
      </cc:Work>
    </rdf:RDF>
  </metadata>
  <g
     id="layer1"
     transform="translate(0,-452.36218)"
     style="display:inline">
    <path
       d="M 200.85826,253.62814 V 226.9042 h 9.20572 q 3.11719,0 4.75781,0.38281 2.29687,0.52865 3.91927,1.91406 2.11458,1.78646 3.15364,4.57552 1.05729,2.77083 1.05729,6.34375 0,3.04426 -0.71094,5.39582 -0.71093,2.35156 -1.82291,3.90104 -1.11198,1.53125 -2.44271,2.42448 -1.3125,0.875 -3.1901,1.33073 -1.85937,0.45573 -4.28385,0.45573 z m 3.53645,-3.15365 h 5.70573 q 2.64323,0 4.13802,-0.49218 1.51302,-0.49219 2.40624,-1.38542 1.25782,-1.25781 1.95052,-3.37239 0.71094,-2.13281 0.71094,-5.15885 0,-4.19271 -1.38542,-6.43489 -1.36718,-2.26042 -3.33593,-3.02604 -1.42187,-0.54688 -4.57552,-0.54688 h -5.61458 z m 21.78384,-6.52603 q 0,-5.3776 2.98958,-7.96614 2.4974,-2.15104 6.08854,-2.15104 3.99218,0 6.52603,2.625 2.53386,2.60676 2.53386,7.21874 0,3.73698 -1.13021,5.88802 -1.11198,2.13281 -3.26302,3.3177 -2.13281,1.1849 -4.66666,1.1849 -4.0651,0 -6.58073,-2.60677 -2.49739,-2.60677 -2.49739,-7.51041 z m 3.37239,0 q 0,3.71874 1.6224,5.57812 1.62239,1.84114 4.08333,1.84114 2.4427,0 4.0651,-1.85937 1.62239,-1.85938 1.62239,-5.66927 0,-3.59114 -1.64062,-5.43228 -1.6224,-1.85938 -4.04687,-1.85938 -2.46094,0 -4.08333,1.84115 -1.6224,1.84114 -1.6224,5.55989 z m 18.61196,9.67968 v -19.35936 h 2.9349 v 2.71614 q 0.91146,-1.42187 2.42447,-2.27864 1.51302,-0.875 3.44531,-0.875 2.15104,0 3.51823,0.89323 1.38542,0.89323 1.95052,2.49739 2.29687,-3.39062 5.97916,-3.39062 2.88021,0 4.42968,1.60416 1.54948,1.58594 1.54948,4.90365 v 13.28905 h -3.26302 v -12.19531 q 0,-1.96874 -0.32812,-2.82551 -0.3099,-0.875 -1.14844,-1.40365 -0.83854,-0.52864 -1.96874,-0.52864 -2.04167,0 -3.39063,1.36718 -1.34895,1.34896 -1.34895,4.33854 v 11.24739 h -3.28125 v -12.57812 q 0,-2.1875 -0.80208,-3.28125 -0.80209,-1.09374 -2.625,-1.09374 -1.38542,0 -2.57031,0.72916 -1.16667,0.72917 -1.69531,2.13281 -0.52865,1.40365 -0.52865,4.04687 v 10.04427 z m 43.73174,-2.38802 q -1.82292,1.54948 -3.51823,2.1875 -1.67708,0.63802 -3.60937,0.63802 -3.1901,0 -4.90364,-1.54948 -1.71354,-1.56771 -1.71354,-3.99219 0,-1.42187 0.63802,-2.58854 0.65625,-1.18489 1.69531,-1.89583 1.05729,-0.71093 2.36979,-1.07552 0.96614,-0.25521 2.91666,-0.49218 3.97396,-0.47396 5.85156,-1.13021 0.0182,-0.67448 0.0182,-0.85677 0,-2.00521 -0.92969,-2.82552 -1.25781,-1.11198 -3.73697,-1.11198 -2.31511,0 -3.42708,0.82031 -1.09375,0.80209 -1.6224,2.86198 l -3.20833,-0.4375 q 0.4375,-2.05989 1.4401,-3.3177 1.00261,-1.27605 2.89844,-1.95052 1.89583,-0.69271 4.39322,-0.69271 2.47917,0 4.02865,0.58333 1.54947,0.58333 2.27864,1.47656 0.72917,0.875 1.02083,2.22396 0.16406,0.83854 0.16406,3.02604 v 4.37499 q 0,4.57552 0.20053,5.79687 0.21874,1.20313 0.83854,2.31511 h -3.42708 q -0.51042,-1.02084 -0.65625,-2.38802 z M 291.6212,243.912 q -1.78646,0.72916 -5.35937,1.23958 -2.02344,0.29167 -2.86198,0.65625 -0.83854,0.36458 -1.29427,1.07552 -0.45573,0.69271 -0.45573,1.54948 0,1.3125 0.98438,2.1875 1.0026,0.875 2.91666,0.875 1.89583,0 3.37239,-0.82032 1.47657,-0.83854 2.16927,-2.27864 0.52865,-1.11198 0.52865,-3.28125 z m 8.42187,-13.23436 v -3.77344 h 3.28125 v 3.77344 z m 0,22.9505 v -19.35936 h 3.28125 v 19.35936 z m 8.27603,0 v -19.35936 h 2.95312 v 2.7526 q 2.13281,-3.1901 6.16146,-3.1901 1.74999,0 3.20833,0.63802 1.47656,0.61979 2.20572,1.64062 0.72917,1.02083 1.02084,2.42448 0.18229,0.91146 0.18229,3.1901 v 11.90364 h -3.28125 V 241.8521 q 0,-2.0052 -0.38281,-2.98958 -0.38281,-1.0026 -1.36719,-1.58593 -0.96614,-0.60156 -2.27864,-0.60156 -2.09635,0 -3.6276,1.33072 -1.51302,1.33073 -1.51302,5.04948 v 10.57291 z m 31.13539,0 v -19.35936 h 2.9349 v 2.71614 q 0.91145,-1.42187 2.42447,-2.27864 1.51302,-0.875 3.44531,-0.875 2.15104,0 3.51823,0.89323 1.38541,0.89323 1.95052,2.49739 2.29687,-3.39062 5.97916,-3.39062 2.8802,0 4.42968,1.60416 1.54948,1.58594 1.54948,4.90365 v 13.28905 h -3.26302 v -12.19531 q 0,-1.96874 -0.32812,-2.82551 -0.3099,-0.875 -1.14844,-1.40365 -0.83854,-0.52864 -1.96875,-0.52864 -2.04166,0 -3.39062,1.36718 -1.34896,1.34896 -1.34896,4.33854 v 11.24739 h -3.28124 v -12.57812 q 0,-2.1875 -0.80209,-3.28125 -0.80208,-1.09374 -2.62499,-1.09374 -1.38542,0 -2.57031,0.72916 -1.16667,0.72917 -1.69532,2.13281 -0.52864,1.40365 -0.52864,4.04687 v 10.04427 z m 29.87759,-9.67968 q 0,-5.3776 2.98958,-7.96614 2.49739,-2.15104 6.08853,-2.15104 3.99219,0 6.52604,2.625 2.53385,2.60676 2.53385,7.21874 0,3.73698 -1.13021,5.88802 -1.11197,2.13281 -3.26301,3.3177 -2.13281,1.1849 -4.66667,1.1849 -4.0651,0 -6.58072,-2.60677 -2.49739,-2.60677 -2.49739,-7.51041 z m 3.37239,0 q 0,3.71874 1.62239,5.57812 1.6224,1.84114 4.08333,1.84114 2.44271,0 4.0651,-1.85937 1.6224,-1.85938 1.6224,-5.66927 0,-3.59114 -1.64062,-5.43228 -1.6224,-1.85938 -4.04688,-1.85938 -2.46093,0 -4.08333,1.84115 -1.62239,1.84114 -1.62239,5.55989 z m 31.17185,9.67968 v -2.44271 q -1.84115,2.88021 -5.41406,2.88021 -2.3151,0 -4.26562,-1.27604 -1.93229,-1.27605 -3.00781,-3.55469 -1.05729,-2.29687 -1.05729,-5.26822 0,-2.89844 0.96614,-5.25 0.96615,-2.36979 2.89844,-3.6276 1.93229,-1.25781 4.3203,-1.25781 1.75,0 3.11719,0.74739 1.36719,0.72917 2.22396,1.91406 v -9.58853 h 3.26301 v 26.72394 z m -10.37239,-9.66145 q 0,3.71874 1.56771,5.55989 1.5677,1.84114 3.70051,1.84114 2.15104,0 3.64583,-1.75 1.51302,-1.76822 1.51302,-5.3776 0,-3.97395 -1.53125,-5.83332 -1.53124,-1.85938 -3.77343,-1.85938 -2.1875,0 -3.66406,1.78646 -1.45833,1.78646 -1.45833,5.63281 z m 31.82809,3.42708 3.39063,0.41927 q -0.80209,2.97135 -2.97136,4.61197 -2.16926,1.64063 -5.54166,1.64063 -4.24739,0 -6.74478,-2.60677 -2.47917,-2.625 -2.47917,-7.34635 0,-4.88541 2.51562,-7.58333 2.51563,-2.69791 6.52604,-2.69791 3.88281,0 6.34375,2.64323 2.46093,2.64322 2.46093,7.43749 0,0.29167 -0.0182,0.875 H 414.3763 q 0.1823,3.1901 1.80469,4.88541 1.62239,1.69531 4.04687,1.69531 1.80469,0 3.08073,-0.94791 1.27604,-0.94792 2.02343,-3.02604 z m -10.77342,-5.30469 h 10.80988 q -0.21875,-2.4427 -1.23958,-3.66406 -1.56771,-1.89583 -4.0651,-1.89583 -2.26042,0 -3.80989,1.51302 -1.53125,1.51302 -1.69531,4.04687 z m 18.21091,11.53906 V 226.9042 h 3.28125 v 26.72394 z m 31.37238,-7.09114 3.22656,0.41927 q -0.52865,3.33593 -2.71614,5.23176 -2.16927,1.87761 -5.34115,1.87761 -3.97395,0 -6.39843,-2.58854 -2.40625,-2.60677 -2.40625,-7.45573 0,-3.13541 1.03907,-5.48697 1.03906,-2.35156 3.15364,-3.51823 2.13281,-1.18489 4.6302,-1.18489 3.15365,0 5.15885,1.60416 2.00521,1.58594 2.57031,4.52083 l -3.1901,0.49219 q -0.45573,-1.95052 -1.62239,-2.93489 -1.14844,-0.98438 -2.78906,-0.98438 -2.47917,0 -4.02864,1.78646 -1.54948,1.76823 -1.54948,5.61458 0,3.90104 1.49479,5.66926 1.49479,1.76823 3.90104,1.76823 1.93229,0 3.22656,-1.18489 1.29427,-1.1849 1.64062,-3.64583 z m 4.8125,-2.58854 q 0,-5.3776 2.98958,-7.96614 2.4974,-2.15104 6.08854,-2.15104 3.99218,0 6.52603,2.625 2.53386,2.60676 2.53386,7.21874 0,3.73698 -1.13021,5.88802 -1.11198,2.13281 -3.26302,3.3177 -2.13281,1.1849 -4.66666,1.1849 -4.0651,0 -6.58073,-2.60677 -2.49739,-2.60677 -2.49739,-7.51041 z m 3.37239,0 q 0,3.71874 1.6224,5.57812 1.62239,1.84114 4.08333,1.84114 2.4427,0 4.0651,-1.85937 1.62239,-1.85938 1.62239,-5.66927 0,-3.59114 -1.64062,-5.43228 -1.62239,-1.85938 -4.04687,-1.85938 -2.46094,0 -4.08333,1.84115 -1.6224,1.84114 -1.6224,5.55989 z m 18.61196,9.67968 v -19.35936 h 2.9349 v 2.71614 q 0.91146,-1.42187 2.42448,-2.27864 1.51301,-0.875 3.4453,-0.875 2.15104,0 3.51823,0.89323 1.38542,0.89323 1.95052,2.49739 2.29687,-3.39062 5.97916,-3.39062 2.88021,0 4.42969,1.60416 1.54947,1.58594 1.54947,4.90365 v 13.28905 h -3.26301 v -12.19531 q 0,-1.96874 -0.32813,-2.82551 -0.30989,-0.875 -1.14844,-1.40365 -0.83854,-0.52864 -1.96874,-0.52864 -2.04167,0 -3.39063,1.36718 -1.34895,1.34896 -1.34895,4.33854 v 11.24739 h -3.28125 v -12.57812 q 0,-2.1875 -0.80208,-3.28125 -0.80209,-1.09374 -2.625,-1.09374 -1.38542,0 -2.57031,0.72916 -1.16667,0.72917 -1.69531,2.13281 -0.52865,1.40365 -0.52865,4.04687 v 10.04427 z m 31.09894,7.41926 v -26.77862 h 2.98958 v 2.51562 q 1.05729,-1.47656 2.38802,-2.20573 1.33073,-0.74739 3.22656,-0.74739 2.47917,0 4.375,1.27604 1.89583,1.27604 2.86198,3.60937 0.96614,2.3151 0.96614,5.08593 0,2.97136 -1.07552,5.35937 -1.05729,2.36979 -3.09896,3.64583 -2.02343,1.25782 -4.26562,1.25782 -1.64062,0 -2.95312,-0.69271 -1.29427,-0.69271 -2.13281,-1.75 v 9.42447 z m 2.97135,-16.98957 q 0,3.73698 1.51302,5.52343 1.51302,1.78646 3.66406,1.78646 2.1875,0 3.73698,-1.84114 1.56771,-1.85938 1.56771,-5.74219 0,-3.70051 -1.53125,-5.54166 -1.51302,-1.84114 -3.6276,-1.84114 -2.09636,0 -3.71875,1.96875 -1.60417,1.95052 -1.60417,5.68749 z m 30.42446,7.18229 q -1.82292,1.54948 -3.51823,2.1875 -1.67708,0.63802 -3.60937,0.63802 -3.1901,0 -4.90364,-1.54948 -1.71354,-1.56771 -1.71354,-3.99219 0,-1.42187 0.63802,-2.58854 0.65624,-1.18489 1.69531,-1.89583 1.05729,-0.71093 2.36979,-1.07552 0.96614,-0.25521 2.91666,-0.49218 3.97396,-0.47396 5.85156,-1.13021 0.0182,-0.67448 0.0182,-0.85677 0,-2.00521 -0.92969,-2.82552 -1.25781,-1.11198 -3.73698,-1.11198 -2.3151,0 -3.42708,0.82031 -1.09375,0.80209 -1.62239,2.86198 l -3.20833,-0.4375 q 0.4375,-2.05989 1.4401,-3.3177 1.00261,-1.27605 2.89844,-1.95052 1.89583,-0.69271 4.39322,-0.69271 2.47917,0 4.02864,0.58333 1.54948,0.58333 2.27865,1.47656 0.72916,0.875 1.02083,2.22396 0.16406,0.83854 0.16406,3.02604 v 4.37499 q 0,4.57552 0.20052,5.79687 0.21875,1.20313 0.83854,2.31511 h -3.42708 q -0.51041,-1.02084 -0.65624,-2.38802 z m -0.27344,-7.32812 q -1.78646,0.72916 -5.35937,1.23958 -2.02344,0.29167 -2.86198,0.65625 -0.83854,0.36458 -1.29427,1.07552 -0.45573,0.69271 -0.45573,1.54948 0,1.3125 0.98438,2.1875 1.0026,0.875 2.91666,0.875 1.89583,0 3.37239,-0.82032 1.47656,-0.83854 2.16927,-2.27864 0.52865,-1.11198 0.52865,-3.28125 z m 8.36718,9.71614 v -19.35936 h 2.95312 v 2.93489 q 1.13021,-2.05989 2.07812,-2.71614 0.96615,-0.65625 2.11458,-0.65625 1.65886,0 3.3724,1.05729 l -1.13021,3.04427 q -1.20313,-0.71094 -2.40625,-0.71094 -1.07552,0 -1.93229,0.65625 -0.85677,0.63802 -1.22135,1.78646 -0.54688,1.75 -0.54688,3.82812 v 10.13541 z m 12.48696,-22.9505 v -3.77344 h 3.28125 v 3.77344 z m 0,22.9505 v -19.35936 h 3.28125 v 19.35936 z m 6.96353,-5.77864 3.24479,-0.51042 q 0.27343,1.95052 1.51302,2.98958 1.25781,1.03906 3.49999,1.03906 2.26042,0 3.35417,-0.91146 1.09375,-0.92968 1.09375,-2.16926 0,-1.11198 -0.96615,-1.75 -0.67448,-0.4375 -3.35416,-1.11198 -3.60938,-0.91146 -5.01302,-1.56771 -1.38542,-0.67448 -2.11458,-1.84114 -0.71094,-1.1849 -0.71094,-2.60677 0,-1.29427 0.58333,-2.38802 0.60157,-1.11198 1.6224,-1.84114 0.76562,-0.56511 2.07812,-0.94792 1.33073,-0.40104 2.84375,-0.40104 2.27864,0 3.99218,0.65625 1.73177,0.65625 2.55208,1.78645 0.82032,1.11198 1.13021,2.98959 l -3.20833,0.43749 q -0.21875,-1.49479 -1.27604,-2.33333 -1.03906,-0.83854 -2.95312,-0.83854 -2.26042,0 -3.22656,0.7474 -0.96615,0.74739 -0.96615,1.75 0,0.63802 0.40105,1.14843 0.40104,0.52865 1.25781,0.875 0.49218,0.18229 2.89843,0.83854 3.48177,0.92969 4.84896,1.53125 1.38541,0.58333 2.16926,1.71354 0.78386,1.13021 0.78386,2.80729 0,1.64062 -0.96615,3.09896 -0.94791,1.4401 -2.7526,2.24218 -1.80468,0.78386 -4.08333,0.78386 -3.77343,0 -5.76041,-1.56771 -1.96875,-1.56771 -2.51562,-4.64843 z m 18.7578,-3.90104 q 0,-5.3776 2.98958,-7.96614 2.49739,-2.15104 6.08854,-2.15104 3.99218,0 6.52603,2.625 2.53385,2.60676 2.53385,7.21874 0,3.73698 -1.1302,5.88802 -1.11198,2.13281 -3.26302,3.3177 -2.13281,1.1849 -4.66666,1.1849 -4.0651,0 -6.58073,-2.60677 -2.49739,-2.60677 -2.49739,-7.51041 z m 3.37239,0 q 0,3.71874 1.6224,5.57812 1.62239,1.84114 4.08333,1.84114 2.4427,0 4.0651,-1.85937 1.62239,-1.85938 1.62239,-5.66927 0,-3.59114 -1.64062,-5.43228 -1.6224,-1.85938 -4.04687,-1.85938 -2.46094,0 -4.08333,1.84115 -1.6224,1.84114 -1.6224,5.55989 z m 18.61196,9.67968 v -19.35936 h 2.95313 v 2.7526 q 2.13281,-3.1901 6.16145,-3.1901 1.75,0 3.20833,0.63802 1.47656,0.61979 2.20573,1.64062 0.72916,1.02083 1.02083,2.42448 0.18229,0.91146 0.18229,3.1901 v 11.90364 h -3.28125 V 241.8521 q 0,-2.0052 -0.38281,-2.98958 -0.38281,-1.0026 -1.36719,-1.58593 -0.96614,-0.60156 -2.27864,-0.60156 -2.09635,0 -3.6276,1.33072 -1.51302,1.33073 -1.51302,5.04948 v 10.57291 z"
       id="flowRoot4302"
       style="font-size:37.3333px;font-family:'Liberation Sans';-inkscape-font-specification:'Liberation Sans, Normal';text-align:center;text-anchor:middle"
       transform="translate(-20,252.36213)"
       aria-label="Domain model comparison" />
    <g
       id="g3709"
       transform="translate(0,19.999997)" />
    <flowRoot
       xml:space="preserve"
       id="flowRoot4157"
       style="font-style:normal;font-weight:normal;line-height:0.01%;font-family:sans-serif;letter-spacing:0px;word-spacing:0px;fill:#000000;fill-opacity:1;stroke:none;stroke-width:1px;stroke-linecap:butt;stroke-linejoin:miter;stroke-opacity:1"><flowRegion
         id="flowRegion4159"
         style="font-family:sans-serif"><rect
           id="rect4161"
           width="10.955056"
           height="72.471909"
           x="16.011236"
           y="-53.932568"
           style="font-family:sans-serif" /></flowRegion><flowPara
         id="flowPara4163"
         style="font-size:40px;line-height:1.25;font-family:sans-serif"> </flowPara></flowRoot>
    <path
       style="font-size:16px;line-height:1.25;font-family:'Liberation Sans';-inkscape-font-specification:'Liberation Sans, Normal';text-align:center;text-anchor:middle"
       d="M 153.10156,164.41207 157.5,152.95895 h 1.63281 l 4.6875,11.45312 h -1.72656 l -1.33594,-3.46875 h -4.78906 l -1.25781,3.46875 z m 3.30469,-4.70312 h 3.88281 l -1.19531,-3.17188 q -0.54688,-1.44531 -0.8125,-2.375 -0.21875,1.10156 -0.61719,2.1875 z m 12.14062,4.70312 v -11.45312 h 2.28125 l 2.71094,8.10937 q 0.375,1.13281 0.54688,1.69531 0.19531,-0.625 0.60937,-1.83593 l 2.74219,-7.96875 h 2.03906 v 11.45312 h -1.46094 v -9.58594 l -3.32812,9.58594 h -1.36719 l -3.3125,-9.75 v 9.75 z m 13.63282,0 v -11.45312 h 1.51562 v 11.45312 z m 4.1875,0 v -11.45312 h 4.32031 q 1.14062,0 1.74219,0.10937 0.84375,0.14063 1.41406,0.53906 0.57031,0.39063 0.91406,1.10157 0.35156,0.71093 0.35156,1.5625 0,1.46093 -0.92968,2.47656 -0.92969,1.00781 -3.35938,1.00781 h -2.9375 v 4.65625 z m 1.51562,-6.00781 h 2.96094 q 1.46875,0 2.08594,-0.54688 0.61718,-0.54687 0.61718,-1.53906 0,-0.71875 -0.36718,-1.22656 -0.35938,-0.51563 -0.95313,-0.67969 -0.38281,-0.10156 -1.41406,-0.10156 h -2.92969 z m 12.57031,3.53125 1.39063,-0.21875 q 0.11719,0.83594 0.64844,1.28125 0.53906,0.44531 1.5,0.44531 0.96875,0 1.4375,-0.39062 0.46875,-0.39844 0.46875,-0.92969 0,-0.47656 -0.41407,-0.75 -0.28906,-0.1875 -1.4375,-0.47656 -1.54687,-0.39063 -2.14843,-0.67188 -0.59375,-0.28906 -0.90625,-0.78906 -0.30469,-0.50781 -0.30469,-1.11719 0,-0.55469 0.25,-1.02344 0.25781,-0.47656 0.69531,-0.78906 0.32813,-0.24219 0.89063,-0.40625 0.57031,-0.17187 1.21875,-0.17187 0.97656,0 1.71093,0.28125 0.74219,0.28125 1.09375,0.76562 0.35157,0.47656 0.48438,1.28125 l -1.375,0.1875 q -0.0937,-0.64062 -0.54688,-1 -0.44531,-0.35937 -1.26562,-0.35937 -0.96875,0 -1.38281,0.32031 -0.41407,0.32031 -0.41407,0.75 0,0.27344 0.17188,0.49219 0.17187,0.22656 0.53906,0.375 0.21094,0.0781 1.24219,0.35937 1.49219,0.39844 2.07812,0.65625 0.59375,0.25 0.92969,0.73438 0.33594,0.48437 0.33594,1.20312 0,0.70313 -0.41406,1.32813 -0.40625,0.61718 -1.17969,0.96093 -0.77344,0.33594 -1.75,0.33594 -1.61719,0 -2.46875,-0.67187 -0.84375,-0.67188 -1.07813,-1.99219 z m 8.03907,-1.67188 q 0,-2.30468 1.28125,-3.41406 1.07031,-0.92187 2.60937,-0.92187 1.71094,0 2.79688,1.125 1.08593,1.11718 1.08593,3.09375 0,1.60156 -0.48437,2.52343 -0.47656,0.91407 -1.39844,1.42188 -0.91406,0.50781 -2,0.50781 -1.74219,0 -2.82031,-1.11719 -1.07031,-1.11718 -1.07031,-3.21875 z m 1.44531,0 q 0,1.59375 0.69531,2.39063 0.69531,0.78906 1.75,0.78906 1.04688,0 1.74219,-0.79687 0.69531,-0.79688 0.69531,-2.42969 0,-1.53906 -0.70312,-2.32813 -0.69532,-0.79687 -1.73438,-0.79687 -1.05469,0 -1.75,0.78906 -0.69531,0.78906 -0.69531,2.38281 z m 7.94531,4.14844 v -11.45312 h 1.40625 v 11.45312 z m 5.89063,0 -3.15625,-8.29687 h 1.48437 l 1.78125,4.96875 q 0.28906,0.80468 0.53125,1.67187 0.1875,-0.65625 0.52344,-1.57812 l 1.84375,-5.0625 h 1.44531 l -3.14062,8.29687 z m 11.375,-2.67187 1.45312,0.17968 q -0.34375,1.27344 -1.27344,1.97657 -0.92968,0.70312 -2.375,0.70312 -1.82031,0 -2.89062,-1.11719 -1.0625,-1.125 -1.0625,-3.14843 0,-2.09375 1.07812,-3.25 1.07813,-1.15625 2.79688,-1.15625 1.66406,0 2.71875,1.13281 1.05469,1.13281 1.05469,3.1875 0,0.125 -0.008,0.375 h -6.1875 q 0.0781,1.36719 0.77344,2.09375 0.69531,0.72656 1.73438,0.72656 0.77343,0 1.32031,-0.40625 0.54687,-0.40625 0.86719,-1.29687 z m -4.61719,-2.27344 h 4.63281 q -0.0937,-1.04688 -0.53125,-1.57031 -0.67187,-0.8125 -1.74219,-0.8125 -0.96875,0 -1.63281,0.64843 -0.65625,0.64844 -0.72656,1.73438 z m 7.82031,4.94531 v -8.29687 h 1.26563 v 1.25781 q 0.48437,-0.88281 0.89062,-1.16406 0.41406,-0.28125 0.90625,-0.28125 0.71094,0 1.44531,0.45312 l -0.48437,1.30469 q -0.51563,-0.30469 -1.03125,-0.30469 -0.46094,0 -0.82813,0.28125 -0.36718,0.27344 -0.52343,0.76563 -0.23438,0.75 -0.23438,1.64062 v 4.34375 z m 5.35156,-7.39844 -0.35937,-2.14062 v -1.91406 h 1.60156 v 1.91406 l -0.375,2.14062 z m 2.48438,4.92188 1.39062,-0.21875 q 0.11719,0.83594 0.64844,1.28125 0.53906,0.44531 1.5,0.44531 0.96875,0 1.4375,-0.39062 0.46875,-0.39844 0.46875,-0.92969 0,-0.47656 -0.41406,-0.75 -0.28906,-0.1875 -1.4375,-0.47656 -1.54688,-0.39063 -2.14844,-0.67188 -0.59375,-0.28906 -0.90625,-0.78906 -0.30469,-0.50781 -0.30469,-1.11719 0,-0.55469 0.25,-1.02344 0.25782,-0.47656 0.69532,-0.78906 0.32812,-0.24219 0.89062,-0.40625 0.57031,-0.17187 1.21875,-0.17187 0.97656,0 1.71094,0.28125 0.74219,0.28125 1.09375,0.76562 0.35156,0.47656 0.48437,1.28125 l -1.375,0.1875 q -0.0937,-0.64062 -0.54687,-1 -0.44531,-0.35937 -1.26563,-0.35937 -0.96875,0 -1.38281,0.32031 -0.41406,0.32031 -0.41406,0.75 0,0.27344 0.17187,0.49219 0.17188,0.22656 0.53907,0.375 0.21093,0.0781 1.24218,0.35937 1.49219,0.39844 2.07813,0.65625 0.59375,0.25 0.92969,0.73438 0.33593,0.48437 0.33593,1.20312 0,0.70313 -0.41406,1.32813 -0.40625,0.61718 -1.17969,0.96093 -0.77343,0.33594 -1.75,0.33594 -1.61718,0 -2.46875,-0.67187 -0.84375,-0.67188 -1.07812,-1.99219 z m 13.00781,2.47656 v -8.29687 h 1.25781 v 1.16406 q 0.39063,-0.60938 1.03907,-0.97656 0.64843,-0.375 1.47656,-0.375 0.92187,0 1.50781,0.38281 0.59375,0.38281 0.83594,1.07031 0.98437,-1.45312 2.5625,-1.45312 1.23437,0 1.89844,0.6875 0.66406,0.67968 0.66406,2.10156 v 5.69531 h -1.39844 v -5.22656 q 0,-0.84375 -0.14062,-1.21094 -0.13282,-0.375 -0.49219,-0.60156 -0.35938,-0.22656 -0.84375,-0.22656 -0.875,0 -1.45313,0.58593 -0.57812,0.57813 -0.57812,1.85938 v 4.82031 H 264.125 v -5.39062 q 0,-0.9375 -0.34375,-1.40625 -0.34375,-0.46875 -1.125,-0.46875 -0.59375,0 -1.10156,0.3125 -0.5,0.3125 -0.72657,0.91406 -0.22656,0.60156 -0.22656,1.73437 v 4.30469 z M 272,160.26363 q 0,-2.30468 1.28125,-3.41406 1.07031,-0.92187 2.60937,-0.92187 1.71094,0 2.79688,1.125 1.08594,1.11718 1.08594,3.09375 0,1.60156 -0.48438,2.52343 -0.47656,0.91407 -1.39844,1.42188 -0.91406,0.50781 -2,0.50781 -1.74218,0 -2.82031,-1.11719 Q 272,162.3652 272,160.26363 Z m 1.44531,0 q 0,1.59375 0.69531,2.39063 0.69532,0.78906 1.75,0.78906 1.04688,0 1.74219,-0.79687 0.69531,-0.79688 0.69531,-2.42969 0,-1.53906 -0.70312,-2.32813 -0.69531,-0.79687 -1.73438,-0.79687 -1.05468,0 -1.75,0.78906 -0.69531,0.78906 -0.69531,2.38281 z m 13.35938,4.14844 v -1.04687 q -0.78907,1.23437 -2.32032,1.23437 -0.99218,0 -1.82812,-0.54687 -0.82813,-0.54688 -1.28906,-1.52344 -0.45313,-0.98438 -0.45313,-2.25781 0,-1.24219 0.41406,-2.25 0.41407,-1.01563 1.24219,-1.55469 0.82813,-0.53906 1.85156,-0.53906 0.75,0 1.33594,0.32031 0.58594,0.3125 0.95313,0.82031 v -4.10937 h 1.39843 v 11.45312 z m -4.44532,-4.14062 q 0,1.59375 0.67188,2.38281 0.67187,0.78906 1.58594,0.78906 0.92187,0 1.5625,-0.75 0.64843,-0.75781 0.64843,-2.30469 0,-1.70312 -0.65625,-2.5 -0.65625,-0.79687 -1.61718,-0.79687 -0.9375,0 -1.57032,0.76562 -0.625,0.76563 -0.625,2.41407 z M 296,161.7402 l 1.45312,0.17968 q -0.34375,1.27344 -1.27343,1.97657 -0.92969,0.70312 -2.375,0.70312 -1.82032,0 -2.89063,-1.11719 -1.0625,-1.125 -1.0625,-3.14843 0,-2.09375 1.07813,-3.25 1.07812,-1.15625 2.79687,-1.15625 1.66406,0 2.71875,1.13281 1.05469,1.13281 1.05469,3.1875 0,0.125 -0.008,0.375 h -6.1875 q 0.0781,1.36719 0.77343,2.09375 0.69532,0.72656 1.73438,0.72656 0.77344,0 1.32031,-0.40625 0.54688,-0.40625 0.86719,-1.29687 z m -4.61719,-2.27344 h 4.63281 q -0.0937,-1.04688 -0.53125,-1.57031 -0.67187,-0.8125 -1.74218,-0.8125 -0.96875,0 -1.63282,0.64843 -0.65625,0.64844 -0.72656,1.73438 z m 7.80469,4.94531 v -11.45312 h 1.40625 v 11.45312 z m 8.03125,0 v -8.29687 h 1.25781 v 1.16406 q 0.39063,-0.60938 1.03906,-0.97656 0.64844,-0.375 1.47657,-0.375 0.92187,0 1.50781,0.38281 0.59375,0.38281 0.83594,1.07031 0.98437,-1.45312 2.5625,-1.45312 1.23437,0 1.89843,0.6875 0.66407,0.67968 0.66407,2.10156 v 5.69531 h -1.39844 v -5.22656 q 0,-0.84375 -0.14063,-1.21094 -0.13281,-0.375 -0.49218,-0.60156 -0.35938,-0.22656 -0.84375,-0.22656 -0.875,0 -1.45313,0.58593 -0.57812,0.57813 -0.57812,1.85938 v 4.82031 h -1.40625 v -5.39062 q 0,-0.9375 -0.34375,-1.40625 -0.34375,-0.46875 -1.125,-0.46875 -0.59375,0 -1.10157,0.3125 -0.5,0.3125 -0.72656,0.91406 -0.22656,0.60156 -0.22656,1.73437 v 4.30469 z m 19.00781,-2.67187 1.45313,0.17968 q -0.34375,1.27344 -1.27344,1.97657 -0.92969,0.70312 -2.375,0.70312 -1.82031,0 -2.89063,-1.11719 -1.0625,-1.125 -1.0625,-3.14843 0,-2.09375 1.07813,-3.25 1.07812,-1.15625 2.79687,-1.15625 1.66407,0 2.71875,1.13281 1.05469,1.13281 1.05469,3.1875 0,0.125 -0.008,0.375 h -6.1875 q 0.0781,1.36719 0.77344,2.09375 0.69531,0.72656 1.73437,0.72656 0.77344,0 1.32031,-0.40625 0.54688,-0.40625 0.86719,-1.29687 z m -4.61719,-2.27344 h 4.63282 q -0.0937,-1.04688 -0.53125,-1.57031 -0.67188,-0.8125 -1.74219,-0.8125 -0.96875,0 -1.63281,0.64843 -0.65625,0.64844 -0.72657,1.73438 z m 7.83594,4.94531 v -8.29687 h 1.25781 v 1.16406 q 0.39063,-0.60938 1.03907,-0.97656 0.64843,-0.375 1.47656,-0.375 0.92187,0 1.50781,0.38281 0.59375,0.38281 0.83594,1.07031 0.98437,-1.45312 2.5625,-1.45312 1.23437,0 1.89844,0.6875 0.66406,0.67968 0.66406,2.10156 v 5.69531 h -1.39844 v -5.22656 q 0,-0.84375 -0.14062,-1.21094 -0.13282,-0.375 -0.49219,-0.60156 -0.35938,-0.22656 -0.84375,-0.22656 -0.875,0 -1.45313,0.58593 -0.57812,0.57813 -0.57812,1.85938 v 4.82031 H 334.375 v -5.39062 q 0,-0.9375 -0.34375,-1.40625 -0.34375,-0.46875 -1.125,-0.46875 -0.59375,0 -1.10156,0.3125 -0.5,0.3125 -0.72657,0.91406 -0.22656,0.60156 -0.22656,1.73437 v 4.30469 z M 342.25,160.26363 q 0,-2.30468 1.28125,-3.41406 1.07031,-0.92187 2.60937,-0.92187 1.71094,0 2.79688,1.125 1.08594,1.11718 1.08594,3.09375 0,1.60156 -0.48438,2.52343 -0.47656,0.91407 -1.39844,1.42188 -0.91406,0.50781 -2,0.50781 -1.74218,0 -2.82031,-1.11719 Q 342.25,162.3652 342.25,160.26363 Z m 1.44531,0 q 0,1.59375 0.69531,2.39063 0.69532,0.78906 1.75,0.78906 1.04688,0 1.74219,-0.79687 0.69531,-0.79688 0.69531,-2.42969 0,-1.53906 -0.70312,-2.32813 -0.69531,-0.79687 -1.73438,-0.79687 -1.05468,0 -1.75,0.78906 -0.69531,0.78906 -0.69531,2.38281 z m 7.96094,4.14844 v -8.29687 h 1.26562 v 1.25781 q 0.48438,-0.88281 0.89063,-1.16406 0.41406,-0.28125 0.90625,-0.28125 0.71094,0 1.44531,0.45312 l -0.48437,1.30469 q -0.51563,-0.30469 -1.03125,-0.30469 -0.46094,0 -0.82813,0.28125 -0.36719,0.27344 -0.52344,0.76563 -0.23437,0.75 -0.23437,1.64062 v 4.34375 z m 5.28125,3.19531 -0.15625,-1.32031 q 0.46094,0.125 0.80469,0.125 0.46875,0 0.75,-0.15625 0.28125,-0.15625 0.46093,-0.4375 0.13282,-0.21094 0.42969,-1.04687 0.0391,-0.11719 0.125,-0.34375 l -3.14844,-8.3125 h 1.51563 l 1.72656,4.80468 q 0.33594,0.91407 0.60156,1.92188 0.24219,-0.96875 0.57813,-1.89063 l 1.77344,-4.83593 h 1.40625 l -3.15625,8.4375 q -0.50782,1.36718 -0.78907,1.88281 -0.375,0.69531 -0.85937,1.01562 -0.48438,0.32813 -1.15625,0.32813 -0.40625,0 -0.90625,-0.17188 z m 17.94531,-3.19531 v -1.21875 q -0.96875,1.40625 -2.63281,1.40625 -0.73438,0 -1.375,-0.28125 -0.63281,-0.28125 -0.94531,-0.70312 -0.30469,-0.42969 -0.42969,-1.04688 -0.0859,-0.41406 -0.0859,-1.3125 v -5.14062 h 1.40625 v 4.60156 q 0,1.10156 0.0859,1.48437 0.13281,0.55469 0.5625,0.875 0.42969,0.3125 1.0625,0.3125 0.63281,0 1.1875,-0.32031 0.55469,-0.32812 0.78125,-0.88281 0.23437,-0.5625 0.23437,-1.625 v -4.44531 h 1.40625 v 8.29687 z m 2.89844,-2.47656 1.39062,-0.21875 q 0.11719,0.83594 0.64844,1.28125 0.53906,0.44531 1.5,0.44531 0.96875,0 1.4375,-0.39062 0.46875,-0.39844 0.46875,-0.92969 0,-0.47656 -0.41406,-0.75 -0.28906,-0.1875 -1.4375,-0.47656 -1.54688,-0.39063 -2.14844,-0.67188 -0.59375,-0.28906 -0.90625,-0.78906 -0.30469,-0.50781 -0.30469,-1.11719 0,-0.55469 0.25,-1.02344 0.25782,-0.47656 0.69532,-0.78906 0.32812,-0.24219 0.89062,-0.40625 0.57031,-0.17187 1.21875,-0.17187 0.97656,0 1.71094,0.28125 0.74219,0.28125 1.09375,0.76562 0.35156,0.47656 0.48437,1.28125 l -1.375,0.1875 q -0.0937,-0.64062 -0.54687,-1 -0.44531,-0.35937 -1.26563,-0.35937 -0.96875,0 -1.38281,0.32031 -0.41406,0.32031 -0.41406,0.75 0,0.27344 0.17187,0.49219 0.17188,0.22656 0.53907,0.375 0.21093,0.0781 1.24218,0.35937 1.49219,0.39844 2.07813,0.65625 0.59375,0.25 0.92969,0.73438 0.33593,0.48437 0.33593,1.20312 0,0.70313 -0.41406,1.32813 -0.40625,0.61718 -1.17969,0.96093 -0.77343,0.33594 -1.75,0.33594 -1.61718,0 -2.46875,-0.67187 -0.84375,-0.67188 -1.07812,-1.99219 z m 13.97656,1.45312 q -0.78125,0.66407 -1.50781,0.9375 -0.71875,0.27344 -1.54688,0.27344 -1.36718,0 -2.10156,-0.66406 -0.73437,-0.67188 -0.73437,-1.71094 0,-0.60937 0.27343,-1.10937 0.28125,-0.50782 0.72657,-0.8125 0.45312,-0.30469 1.01562,-0.46094 0.41406,-0.10938 1.25,-0.21094 1.70313,-0.20312 2.50781,-0.48437 0.008,-0.28907 0.008,-0.36719 0,-0.85938 -0.39844,-1.21094 -0.53906,-0.47656 -1.60156,-0.47656 -0.99219,0 -1.46875,0.35156 -0.46875,0.34375 -0.69532,1.22656 l -1.375,-0.1875 q 0.1875,-0.88281 0.61719,-1.42187 0.42969,-0.54688 1.24219,-0.83594 0.8125,-0.29687 1.88281,-0.29687 1.0625,0 1.72656,0.25 0.66407,0.25 0.97657,0.63281 0.3125,0.375 0.4375,0.95312 0.0703,0.35938 0.0703,1.29688 v 1.875 q 0,1.96094 0.0859,2.48437 0.0937,0.51563 0.35937,0.99219 h -1.46875 q -0.21875,-0.4375 -0.28125,-1.02344 z m -0.11719,-3.14062 q -0.76562,0.3125 -2.29687,0.53125 -0.86719,0.125 -1.22656,0.28125 -0.35938,0.15625 -0.55469,0.46094 -0.19531,0.29687 -0.19531,0.66406 0,0.5625 0.42187,0.9375 0.42969,0.375 1.25,0.375 0.8125,0 1.44531,-0.35156 0.63282,-0.35938 0.92969,-0.97657 0.22656,-0.47656 0.22656,-1.40625 z m 3.34375,4.85156 1.36719,0.20313 q 0.0859,0.63281 0.47656,0.92187 0.52344,0.39063 1.42969,0.39063 0.97656,0 1.50781,-0.39063 0.53125,-0.39062 0.71875,-1.09375 0.10938,-0.42969 0.10157,-1.80469 -0.92188,1.08594 -2.29688,1.08594 -1.71094,0 -2.64844,-1.23437 -0.9375,-1.23438 -0.9375,-2.96094 0,-1.1875 0.42969,-2.1875 0.42969,-1.00781 1.24219,-1.55469 0.82031,-0.54687 1.92187,-0.54687 1.46875,0 2.42188,1.1875 v -1 h 1.29687 v 7.17187 q 0,1.9375 -0.39843,2.74219 -0.39063,0.8125 -1.25,1.28125 -0.85157,0.46875 -2.10157,0.46875 -1.48437,0 -2.39843,-0.67188 -0.91407,-0.66406 -0.88282,-2.00781 z m 1.16407,-4.98437 q 0,1.63281 0.64843,2.38281 0.64844,0.75 1.625,0.75 0.96875,0 1.625,-0.74219 0.65625,-0.75 0.65625,-2.34375 0,-1.52344 -0.67968,-2.29687 -0.67188,-0.77344 -1.625,-0.77344 -0.9375,0 -1.59375,0.76562 -0.65625,0.75782 -0.65625,2.25782 z m 13.67187,1.625 1.45313,0.17968 q -0.34375,1.27344 -1.27344,1.97657 -0.92969,0.70312 -2.375,0.70312 -1.82031,0 -2.89063,-1.11719 -1.0625,-1.125 -1.0625,-3.14843 0,-2.09375 1.07813,-3.25 1.07812,-1.15625 2.79687,-1.15625 1.66407,0 2.71875,1.13281 1.05469,1.13281 1.05469,3.1875 0,0.125 -0.008,0.375 h -6.1875 q 0.0781,1.36719 0.77344,2.09375 0.69531,0.72656 1.73437,0.72656 0.77344,0 1.32031,-0.40625 0.54688,-0.40625 0.86719,-1.29687 z m -4.61719,-2.27344 h 4.63282 q -0.0937,-1.04688 -0.53125,-1.57031 -0.67188,-0.8125 -1.74219,-0.8125 -0.96875,0 -1.63281,0.64843 -0.65625,0.64844 -0.72657,1.73438 z m 12.02344,5.63281 1.36719,0.20313 q 0.0859,0.63281 0.47656,0.92187 0.52344,0.39063 1.42969,0.39063 0.97656,0 1.50781,-0.39063 0.53125,-0.39062 0.71875,-1.09375 0.10938,-0.42969 0.10156,-1.80469 -0.92187,1.08594 -2.29687,1.08594 -1.71094,0 -2.64844,-1.23437 -0.9375,-1.23438 -0.9375,-2.96094 0,-1.1875 0.42969,-2.1875 0.42969,-1.00781 1.24219,-1.55469 0.82031,-0.54687 1.92187,-0.54687 1.46875,0 2.42188,1.1875 v -1 h 1.29687 v 7.17187 q 0,1.9375 -0.39844,2.74219 -0.39062,0.8125 -1.25,1.28125 -0.85156,0.46875 -2.10156,0.46875 -1.48437,0 -2.39844,-0.67188 -0.91406,-0.66406 -0.88281,-2.00781 z m 1.16406,-4.98437 q 0,1.63281 0.64844,2.38281 0.64844,0.75 1.625,0.75 0.96875,0 1.625,-0.74219 0.65625,-0.75 0.65625,-2.34375 0,-1.52344 -0.67969,-2.29687 -0.67187,-0.77344 -1.625,-0.77344 -0.9375,0 -1.59375,0.76562 -0.65625,0.75782 -0.65625,2.25782 z m 7.97657,4.29687 v -8.29687 h 1.26562 v 1.25781 q 0.48438,-0.88281 0.89063,-1.16406 0.41406,-0.28125 0.90625,-0.28125 0.71093,0 1.44531,0.45312 l -0.48438,1.30469 q -0.51562,-0.30469 -1.03125,-0.30469 -0.46093,0 -0.82812,0.28125 -0.36719,0.27344 -0.52344,0.76563 -0.23437,0.75 -0.23437,1.64062 v 4.34375 z m 4.82031,-4.14844 q 0,-2.30468 1.28125,-3.41406 1.07031,-0.92187 2.60937,-0.92187 1.71094,0 2.79688,1.125 1.08594,1.11718 1.08594,3.09375 0,1.60156 -0.48438,2.52343 -0.47656,0.91407 -1.39844,1.42188 -0.91406,0.50781 -2,0.50781 -1.74218,0 -2.82031,-1.11719 -1.07031,-1.11718 -1.07031,-3.21875 z m 1.44531,0 q 0,1.59375 0.69531,2.39063 0.69532,0.78906 1.75,0.78906 1.04688,0 1.74219,-0.79687 0.69531,-0.79688 0.69531,-2.42969 0,-1.53906 -0.70312,-2.32813 -0.69531,-0.79687 -1.73438,-0.79687 -1.05468,0 -1.75,0.78906 -0.69531,0.78906 -0.69531,2.38281 z m 9.50781,4.14844 -2.53906,-8.29687 h 1.45313 l 1.32031,4.78906 0.49219,1.78125 q 0.0312,-0.13281 0.42968,-1.71094 l 1.32032,-4.85937 h 1.44531 l 1.24219,4.8125 0.41406,1.58593 0.47656,-1.60156 1.42188,-4.79687 h 1.36718 l -2.59375,8.29687 h -1.46093 l -1.32032,-4.96875 -0.32031,-1.41406 -1.67969,6.38281 z m 9.46094,-2.47656 1.39063,-0.21875 q 0.11718,0.83594 0.64843,1.28125 0.53907,0.44531 1.5,0.44531 0.96875,0 1.4375,-0.39062 0.46875,-0.39844 0.46875,-0.92969 0,-0.47656 -0.41406,-0.75 -0.28906,-0.1875 -1.4375,-0.47656 -1.54687,-0.39063 -2.14844,-0.67188 -0.59375,-0.28906 -0.90625,-0.78906 -0.30468,-0.50781 -0.30468,-1.11719 0,-0.55469 0.25,-1.02344 0.25781,-0.47656 0.69531,-0.78906 0.32812,-0.24219 0.89062,-0.40625 0.57032,-0.17187 1.21875,-0.17187 0.97657,0 1.71094,0.28125 0.74219,0.28125 1.09375,0.76562 0.35156,0.47656 0.48438,1.28125 l -1.375,0.1875 q -0.0937,-0.64062 -0.54688,-1 -0.44531,-0.35937 -1.26562,-0.35937 -0.96875,0 -1.38282,0.32031 -0.41406,0.32031 -0.41406,0.75 0,0.27344 0.17188,0.49219 0.17187,0.22656 0.53906,0.375 0.21094,0.0781 1.24219,0.35937 1.49218,0.39844 2.07812,0.65625 0.59375,0.25 0.92969,0.73438 0.33594,0.48437 0.33594,1.20312 0,0.70313 -0.41407,1.32813 -0.40625,0.61718 -1.17968,0.96093 -0.77344,0.33594 -1.75,0.33594 -1.61719,0 -2.46875,-0.67187 -0.84375,-0.67188 -1.07813,-1.99219 z m 18.6875,-0.19531 1.45313,0.17968 q -0.34375,1.27344 -1.27344,1.97657 -0.92969,0.70312 -2.375,0.70312 -1.82031,0 -2.89063,-1.11719 -1.0625,-1.125 -1.0625,-3.14843 0,-2.09375 1.07813,-3.25 1.07812,-1.15625 2.79687,-1.15625 1.66407,0 2.71875,1.13281 1.05469,1.13281 1.05469,3.1875 0,0.125 -0.008,0.375 h -6.1875 q 0.0781,1.36719 0.77344,2.09375 0.69531,0.72656 1.73437,0.72656 0.77344,0 1.32031,-0.40625 0.54688,-0.40625 0.86719,-1.29687 z m -4.61719,-2.27344 h 4.63282 q -0.0937,-1.04688 -0.53125,-1.57031 -0.67188,-0.8125 -1.74219,-0.8125 -0.96875,0 -1.63281,0.64843 -0.65625,0.64844 -0.72657,1.73438 z m 6.89844,4.94531 3.03125,-4.3125 -2.80469,-3.98437 h 1.75782 l 1.27343,1.94531 q 0.35938,0.55469 0.57813,0.92969 0.34375,-0.51563 0.63281,-0.91407 l 1.39844,-1.96093 h 1.67969 l -2.86719,3.90625 3.08594,4.39062 h -1.72657 l -1.70312,-2.57812 -0.45313,-0.69532 -2.17968,3.27344 z m 8.9375,3.17969 V 156.1152 h 1.28125 v 1.07812 q 0.45313,-0.63281 1.02344,-0.94531 0.57031,-0.32031 1.38281,-0.32031 1.0625,0 1.875,0.54687 0.8125,0.54688 1.22656,1.54688 0.41407,0.99218 0.41407,2.17968 0,1.27344 -0.46094,2.29688 -0.45313,1.01562 -1.32813,1.5625 -0.86718,0.53906 -1.82812,0.53906 -0.70313,0 -1.26563,-0.29687 -0.55468,-0.29688 -0.91406,-0.75 v 4.03906 z m 1.27344,-7.28125 q 0,1.60156 0.64844,2.36719 0.64843,0.76562 1.57031,0.76562 0.9375,0 1.60156,-0.78906 0.67188,-0.79688 0.67188,-2.46094 0,-1.58594 -0.65625,-2.375 -0.64844,-0.78906 -1.55469,-0.78906 -0.89844,0 -1.59375,0.84375 -0.6875,0.83594 -0.6875,2.4375 z m 7.10156,-0.0469 q 0,-2.30468 1.28125,-3.41406 1.07031,-0.92187 2.60938,-0.92187 1.71093,0 2.79687,1.125 1.08594,1.11718 1.08594,3.09375 0,1.60156 -0.48438,2.52343 -0.47656,0.91407 -1.39843,1.42188 -0.91407,0.50781 -2,0.50781 -1.74219,0 -2.82032,-1.11719 -1.07031,-1.11718 -1.07031,-3.21875 z m 1.44531,0 q 0,1.59375 0.69532,2.39063 0.69531,0.78906 1.75,0.78906 1.04687,0 1.74218,-0.79687 0.69532,-0.79688 0.69532,-2.42969 0,-1.53906 -0.70313,-2.32813 -0.69531,-0.79687 -1.73437,-0.79687 -1.05469,0 -1.75,0.78906 -0.69532,0.78906 -0.69532,2.38281 z m 7.97657,4.14844 v -8.29687 h 1.26562 v 1.17968 q 0.91406,-1.36718 2.64063,-1.36718 0.75,0 1.375,0.27343 0.63281,0.26563 0.94531,0.70313 0.3125,0.4375 0.4375,1.03906 0.0781,0.39063 0.0781,1.36719 v 5.10156 h -1.40625 v -5.04687 q 0,-0.85938 -0.16406,-1.28125 -0.16406,-0.42969 -0.58594,-0.67969 -0.41406,-0.25781 -0.97656,-0.25781 -0.89844,0 -1.55469,0.57031 -0.64843,0.57031 -0.64843,2.16406 v 4.53125 z m 14.57812,-2.67187 1.45313,0.17968 q -0.34375,1.27344 -1.27344,1.97657 -0.92969,0.70312 -2.375,0.70312 -1.82031,0 -2.89063,-1.11719 -1.0625,-1.125 -1.0625,-3.14843 0,-2.09375 1.07813,-3.25 1.07812,-1.15625 2.79687,-1.15625 1.66407,0 2.71875,1.13281 1.05469,1.13281 1.05469,3.1875 0,0.125 -0.008,0.375 h -6.1875 q 0.0781,1.36719 0.77344,2.09375 0.69531,0.72656 1.73437,0.72656 0.77344,0 1.32031,-0.40625 0.54688,-0.40625 0.86719,-1.29687 z m -4.61719,-2.27344 h 4.63282 q -0.0937,-1.04688 -0.53125,-1.57031 -0.67188,-0.8125 -1.74219,-0.8125 -0.96875,0 -1.63281,0.64843 -0.65625,0.64844 -0.72657,1.73438 z m 7.83594,4.94531 v -8.29687 h 1.26563 v 1.17968 q 0.91406,-1.36718 2.64062,-1.36718 0.75,0 1.375,0.27343 0.63281,0.26563 0.94531,0.70313 0.3125,0.4375 0.4375,1.03906 0.0781,0.39063 0.0781,1.36719 v 5.10156 h -1.40625 v -5.04687 q 0,-0.85938 -0.16406,-1.28125 -0.16407,-0.42969 -0.58594,-0.67969 -0.41406,-0.25781 -0.97656,-0.25781 -0.89844,0 -1.55469,0.57031 -0.64844,0.57031 -0.64844,2.16406 v 4.53125 z m 11.96875,-1.25781 0.20313,1.24219 q -0.59375,0.125 -1.0625,0.125 -0.76563,0 -1.1875,-0.24219 -0.42188,-0.24219 -0.59375,-0.63281 -0.17188,-0.39844 -0.17188,-1.66407 v -4.77343 h -1.03125 v -1.09375 h 1.03125 v -2.05469 l 1.39844,-0.84375 v 2.89844 h 1.41406 v 1.09375 h -1.41406 v 4.85156 q 0,0.60156 0.0703,0.77344 0.0781,0.17187 0.24219,0.27343 0.17187,0.10157 0.48437,0.10157 0.23438,0 0.61719,-0.0547 z m 1.38281,-8.57813 v -1.61718 h 1.40625 v 1.61718 z m 0,9.83594 v -8.29687 h 1.40625 v 8.29687 z m 8.96094,-1.02344 q -0.78125,0.66407 -1.50781,0.9375 -0.71875,0.27344 -1.54688,0.27344 -1.36718,0 -2.10156,-0.66406 -0.73437,-0.67188 -0.73437,-1.71094 0,-0.60937 0.27343,-1.10937 0.28125,-0.50782 0.72657,-0.8125 0.45312,-0.30469 1.01562,-0.46094 0.41406,-0.10938 1.25,-0.21094 1.70313,-0.20312 2.50781,-0.48437 0.008,-0.28907 0.008,-0.36719 0,-0.85938 -0.39844,-1.21094 -0.53906,-0.47656 -1.60156,-0.47656 -0.99219,0 -1.46875,0.35156 -0.46875,0.34375 -0.69532,1.22656 l -1.375,-0.1875 q 0.1875,-0.88281 0.61719,-1.42187 0.42969,-0.54688 1.24219,-0.83594 0.8125,-0.29687 1.88281,-0.29687 1.0625,0 1.72656,0.25 0.66407,0.25 0.97657,0.63281 0.3125,0.375 0.4375,0.95312 0.0703,0.35938 0.0703,1.29688 v 1.875 q 0,1.96094 0.0859,2.48437 0.0937,0.51563 0.35937,0.99219 h -1.46875 q -0.21875,-0.4375 -0.28125,-1.02344 z m -0.11719,-3.14062 q -0.76562,0.3125 -2.29687,0.53125 -0.86719,0.125 -1.22656,0.28125 -0.35938,0.15625 -0.55469,0.46094 -0.19531,0.29687 -0.19531,0.66406 0,0.5625 0.42187,0.9375 0.42969,0.375 1.25,0.375 0.8125,0 1.44531,-0.35156 0.63282,-0.35938 0.92969,-0.97657 0.22656,-0.47656 0.22656,-1.40625 z m 3.57032,4.16406 v -11.45312 h 1.40625 v 11.45312 z m 3.55468,0 v -11.45312 h 1.40625 v 11.45312 z m 3.52344,3.19531 -0.15625,-1.32031 q 0.46094,0.125 0.80469,0.125 0.46875,0 0.75,-0.15625 0.28125,-0.15625 0.46094,-0.4375 0.13281,-0.21094 0.42968,-1.04687 0.0391,-0.11719 0.125,-0.34375 l -3.14843,-8.3125 h 1.51562 l 1.72656,4.80468 q 0.33594,0.91407 0.60157,1.92188 0.24218,-0.96875 0.57812,-1.89063 l 1.77344,-4.83593 h 1.40625 l -3.15625,8.4375 q -0.50781,1.36718 -0.78906,1.88281 -0.375,0.69531 -0.85938,1.01562 -0.48437,0.32813 -1.15625,0.32813 -0.40625,0 -0.90625,-0.17188 z m 7.24219,-3.19531 v -1.60156 h 1.60156 v 1.60156 q 0,0.88281 -0.3125,1.42188 -0.3125,0.54687 -0.99219,0.84375 l -0.39062,-0.60157 q 0.44531,-0.19531 0.65625,-0.57812 0.21094,-0.375 0.23437,-1.08594 z m 13.96094,0 v -1.21875 q -0.96875,1.40625 -2.63282,1.40625 -0.73437,0 -1.375,-0.28125 -0.63281,-0.28125 -0.94531,-0.70312 -0.30469,-0.42969 -0.42969,-1.04688 -0.0859,-0.41406 -0.0859,-1.3125 v -5.14062 h 1.40625 v 4.60156 q 0,1.10156 0.0859,1.48437 0.13282,0.55469 0.5625,0.875 0.42969,0.3125 1.0625,0.3125 0.63282,0 1.1875,-0.32031 0.55469,-0.32812 0.78125,-0.88281 Q 571,161.62301 571,160.56051 v -4.44531 h 1.40625 v 8.29687 z m 3.46093,0 v -8.29687 h 1.26563 v 1.17968 q 0.91406,-1.36718 2.64062,-1.36718 0.75,0 1.375,0.27343 0.63282,0.26563 0.94532,0.70313 0.3125,0.4375 0.4375,1.03906 0.0781,0.39063 0.0781,1.36719 v 5.10156 h -1.40625 v -5.04687 q 0,-0.85938 -0.16406,-1.28125 -0.16406,-0.42969 -0.58594,-0.67969 -0.41406,-0.25781 -0.97656,-0.25781 -0.89844,0 -1.55469,0.57031 -0.64844,0.57031 -0.64844,2.16406 v 4.53125 z m 8.86719,0 v -11.45312 h 1.40625 v 11.45312 z m 3.59375,-9.83594 v -1.61718 h 1.40625 v 1.61718 z m 0,9.83594 v -8.29687 h 1.40625 v 8.29687 z m 3.55469,0 v -11.45312 h 1.40625 v 6.53125 l 3.32812,-3.375 h 1.82032 l -3.17188,3.07812 3.49219,5.21875 h -1.73438 l -2.74218,-4.24219 -0.99219,0.95313 v 3.28906 z m 13.67187,-2.67187 1.45313,0.17968 q -0.34375,1.27344 -1.27344,1.97657 -0.92969,0.70312 -2.375,0.70312 -1.82031,0 -2.89062,-1.11719 -1.0625,-1.125 -1.0625,-3.14843 0,-2.09375 1.07812,-3.25 1.07813,-1.15625 2.79688,-1.15625 1.66406,0 2.71875,1.13281 1.05468,1.13281 1.05468,3.1875 0,0.125 -0.008,0.375 h -6.1875 q 0.0781,1.36719 0.77344,2.09375 0.69531,0.72656 1.73437,0.72656 0.77344,0 1.32032,-0.40625 0.54687,-0.40625 0.86718,-1.29687 z m -4.61718,-2.27344 h 4.63281 q -0.0937,-1.04688 -0.53125,-1.57031 -0.67188,-0.8125 -1.74219,-0.8125 -0.96875,0 -1.63281,0.64843 -0.65625,0.64844 -0.72656,1.73438 z m 15.08593,4.94531 v -10.10156 h -3.77343 v -1.35156 h 9.07812 v 1.35156 h -3.78906 v 10.10156 z m 6.09375,-9.83594 v -1.61718 h 1.40625 v 1.61718 z m 0,9.83594 v -8.29687 h 1.40625 v 8.29687 z m 3.54688,0 v -8.29687 h 1.25781 v 1.16406 q 0.39063,-0.60938 1.03906,-0.97656 0.64844,-0.375 1.47657,-0.375 0.92187,0 1.50781,0.38281 0.59375,0.38281 0.83594,1.07031 0.98437,-1.45312 2.5625,-1.45312 1.23437,0 1.89843,0.6875 0.66407,0.67968 0.66407,2.10156 v 5.69531 H 634.25 v -5.22656 q 0,-0.84375 -0.14063,-1.21094 -0.13281,-0.375 -0.49218,-0.60156 -0.35938,-0.22656 -0.84375,-0.22656 -0.875,0 -1.45313,0.58593 -0.57812,0.57813 -0.57812,1.85938 v 4.82031 h -1.40625 v -5.39062 q 0,-0.9375 -0.34375,-1.40625 -0.34375,-0.46875 -1.125,-0.46875 -0.59375,0 -1.10157,0.3125 -0.5,0.3125 -0.72656,0.91406 -0.22656,0.60156 -0.22656,1.73437 v 4.30469 z m 19.00781,-2.67187 1.45313,0.17968 q -0.34375,1.27344 -1.27344,1.97657 -0.92969,0.70312 -2.375,0.70312 -1.82031,0 -2.89063,-1.11719 -1.0625,-1.125 -1.0625,-3.14843 0,-2.09375 1.07813,-3.25 1.07812,-1.15625 2.79687,-1.15625 1.66407,0 2.71875,1.13281 1.05469,1.13281 1.05469,3.1875 0,0.125 -0.008,0.375 h -6.1875 q 0.0781,1.36719 0.77344,2.09375 0.69531,0.72656 1.73437,0.72656 0.77344,0 1.32031,-0.40625 0.54688,-0.40625 0.86719,-1.29687 z m -4.61719,-2.27344 h 4.63282 q -0.0937,-1.04688 -0.53125,-1.57031 -0.67188,-0.8125 -1.74219,-0.8125 -0.96875,0 -1.63281,0.64843 -0.65625,0.64844 -0.72657,1.73438 z m 8.17188,4.94531 v -7.20312 h -1.24219 v -1.09375 h 1.24219 v -0.88282 q 0,-0.83593 0.14844,-1.24218 0.20312,-0.54688 0.71093,-0.88282 0.51563,-0.34375 1.4375,-0.34375 0.59375,0 1.3125,0.14063 l -0.21093,1.22656 q -0.4375,-0.0781 -0.82813,-0.0781 -0.64062,0 -0.90625,0.27343 -0.26562,0.27344 -0.26562,1.02344 v 0.76563 h 1.61718 v 1.09375 h -1.61718 v 7.20312 z m 3.58594,-4.14844 q 0,-2.30468 1.28125,-3.41406 1.07031,-0.92187 2.60937,-0.92187 1.71094,0 2.79688,1.125 1.08593,1.11718 1.08593,3.09375 0,1.60156 -0.48437,2.52343 -0.47656,0.91407 -1.39844,1.42188 -0.91406,0.50781 -2,0.50781 -1.74219,0 -2.82031,-1.11719 -1.07031,-1.11718 -1.07031,-3.21875 z m 1.44531,0 q 0,1.59375 0.69531,2.39063 0.69531,0.78906 1.75,0.78906 1.04688,0 1.74219,-0.79687 0.69531,-0.79688 0.69531,-2.42969 0,-1.53906 -0.70312,-2.32813 -0.69532,-0.79687 -1.73438,-0.79687 -1.05469,0 -1.75,0.78906 Q 652,158.66988 652,160.26363 Z m 7.94531,4.14844 v -11.45312 h 1.40625 v 11.45312 z m 8.96875,0 v -1.04687 q -0.78906,1.23437 -2.32031,1.23437 -0.99219,0 -1.82813,-0.54687 -0.82812,-0.54688 -1.28906,-1.52344 -0.45312,-0.98438 -0.45312,-2.25781 0,-1.24219 0.41406,-2.25 0.41406,-1.01563 1.24219,-1.55469 0.82812,-0.53906 1.85156,-0.53906 0.75,0 1.33594,0.32031 0.58593,0.3125 0.95312,0.82031 v -4.10937 h 1.39844 v 11.45312 z m -4.44531,-4.14062 q 0,1.59375 0.67187,2.38281 0.67188,0.78906 1.58594,0.78906 0.92188,0 1.5625,-0.75 0.64844,-0.75781 0.64844,-2.30469 0,-1.70312 -0.65625,-2.5 -0.65625,-0.79687 -1.61719,-0.79687 -0.9375,0 -1.57031,0.76562 -0.625,0.76563 -0.625,2.41407 z m 7.96875,-3.25782 -0.35938,-2.14062 v -1.91406 h 1.60157 v 1.91406 l -0.375,2.14062 z m 2.48437,4.92188 1.39063,-0.21875 q 0.11719,0.83594 0.64844,1.28125 0.53906,0.44531 1.5,0.44531 0.96875,0 1.4375,-0.39062 0.46875,-0.39844 0.46875,-0.92969 0,-0.47656 -0.41407,-0.75 -0.28906,-0.1875 -1.4375,-0.47656 -1.54687,-0.39063 -2.14843,-0.67188 -0.59375,-0.28906 -0.90625,-0.78906 -0.30469,-0.50781 -0.30469,-1.11719 0,-0.55469 0.25,-1.02344 0.25781,-0.47656 0.69531,-0.78906 0.32813,-0.24219 0.89063,-0.40625 0.57031,-0.17187 1.21875,-0.17187 0.97656,0 1.71093,0.28125 0.74219,0.28125 1.09375,0.76562 0.35157,0.47656 0.48438,1.28125 l -1.375,0.1875 q -0.0937,-0.64062 -0.54688,-1 -0.44531,-0.35937 -1.26562,-0.35937 -0.96875,0 -1.38281,0.32031 -0.41407,0.32031 -0.41407,0.75 0,0.27344 0.17188,0.49219 0.17187,0.22656 0.53906,0.375 0.21094,0.0781 1.24219,0.35937 1.49219,0.39844 2.07812,0.65625 0.59375,0.25 0.92969,0.73438 0.33594,0.48437 0.33594,1.20312 0,0.70313 -0.41406,1.32813 -0.40625,0.61718 -1.17969,0.96093 -0.77344,0.33594 -1.75,0.33594 -1.61719,0 -2.46875,-0.67187 -0.84375,-0.67188 -1.07813,-1.99219 z m 8.96094,2.47656 v -1.60156 h 1.60156 v 1.60156 z"
       id="flowRoot4302-6"
       transform="translate(-20,372.36182)"
       aria-label="A MIP solver's model memory usage grows exponentially, unlike Timefold's." />
    <flowRoot
       xml:space="preserve"
       id="flowRoot937"
       style="color:#000000;font-style:normal;font-variant:normal;font-weight:normal;font-stretch:normal;font-size:16px;font-family:Arial;-inkscape-font-specification:Arial;text-align:center;writing-mode:lr-tb;text-anchor:middle;display:inline;overflow:visible;visibility:visible;opacity:1;vector-effect:none;fill:#a40000;fill-opacity:1;fill-rule:nonzero;stroke:#8f5902;stroke-width:3;stroke-linecap:round;stroke-linejoin:round;stroke-miterlimit:4;stroke-dasharray:none;stroke-dashoffset:0;stroke-opacity:1;marker:none;enable-background:accumulate"><flowRegion
         id="flowRegion939"><rect
           id="rect941"
           width="52.987019"
           height="116.1039"
           x="-94.285713"
           y="141.03894" /></flowRegion><flowPara
         id="flowPara943" /></flowRoot>
    <path
       style="font-weight:bold;font-size:18px;line-height:1.15;font-family:'Liberation Sans';-inkscape-font-specification:'Liberation Sans';text-align:center;white-space:pre;stroke-linecap:round;stroke-linejoin:round"
       d="m 156.41943,567.67491 v -12.88477 h 3.89356 l 2.33789,8.78906 2.31152,-8.78906 h 3.90235 v 12.88477 h -2.417 v -10.14258 l -2.55761,10.14258 h -2.50489 l -2.54882,-10.14258 v 10.14258 z m 14.9502,0 v -12.88477 h 2.60156 v 12.88477 z m 5.08008,0 v -12.88477 h 4.1748 q 2.37305,0 3.09375,0.19336 1.10742,0.29004 1.85449,1.26563 0.74707,0.96679 0.74707,2.50488 0,1.18652 -0.43066,1.99512 -0.43066,0.80859 -1.09863,1.27441 -0.65918,0.45703 -1.34473,0.60645 -0.93164,0.18457 -2.69824,0.18457 h -1.69629 v 4.86035 z m 2.60156,-10.70508 v 3.65625 h 1.42383 q 1.53808,0 2.05664,-0.20215 0.51855,-0.20215 0.80859,-0.63281 0.29883,-0.43067 0.29883,-1.00195 0,-0.70313 -0.41309,-1.16016 -0.41308,-0.45703 -1.04589,-0.57129 -0.46582,-0.0879 -1.87207,-0.0879 z m 13.19238,8.04199 2.47852,-0.37793 q 0.1582,0.72071 0.6416,1.09863 0.4834,0.36915 1.35352,0.36915 0.958,0 1.4414,-0.35157 0.3252,-0.24609 0.3252,-0.65918 0,-0.28125 -0.17578,-0.46582 -0.18457,-0.17578 -0.82618,-0.32519 -2.98828,-0.65918 -3.78808,-1.2041 -1.10742,-0.75586 -1.10742,-2.10059 0,-1.21289 0.958,-2.03906 0.95801,-0.82617 2.97071,-0.82617 1.91601,0 2.84765,0.62402 0.93164,0.62402 1.28321,1.8457 l -2.32911,0.43067 q -0.14941,-0.54493 -0.57128,-0.83496 -0.41309,-0.29004 -1.18653,-0.29004 -0.97558,0 -1.39746,0.27246 -0.28125,0.19336 -0.28125,0.50097 0,0.26368 0.24609,0.44825 0.33399,0.24609 2.30274,0.69433 1.97754,0.44824 2.75976,1.09863 0.77344,0.65918 0.77344,1.83692 0,1.2832 -1.07226,2.20605 -1.07227,0.92286 -3.17285,0.92286 -1.90723,0 -3.02344,-0.77344 -1.10742,-0.77344 -1.4502,-2.10059 z m 10.30957,-2.13574 q 0,-1.23047 0.60645,-2.38184 0.60644,-1.15136 1.71387,-1.75781 1.11621,-0.60644 2.4873,-0.60644 2.11816,0 3.47168,1.37988 1.35352,1.37109 1.35352,3.47168 0,2.11816 -1.3711,3.51562 -1.3623,1.38868 -3.43652,1.38868 -1.28321,0 -2.45215,-0.58008 -1.16016,-0.58008 -1.7666,-1.69629 -0.60645,-1.125 -0.60645,-2.7334 z m 2.53125,0.13184 q 0,1.38867 0.65918,2.12695 0.65918,0.73828 1.62598,0.73828 0.9668,0 1.61719,-0.73828 0.65918,-0.73828 0.65918,-2.14453 0,-1.3711 -0.65918,-2.10938 -0.65039,-0.73828 -1.61719,-0.73828 -0.9668,0 -1.62598,0.73828 -0.65918,0.73828 -0.65918,2.12696 z m 9.03516,4.66699 v -12.88477 h 2.46973 v 12.88477 z m 7.56738,0 -3.76172,-9.33399 h 2.59278 l 1.75781,4.76368 0.50976,1.59082 q 0.20215,-0.60645 0.25489,-0.79981 0.12304,-0.39551 0.26367,-0.79101 l 1.77539,-4.76368 h 2.54004 l -3.70899,9.33399 z m 12.84961,-2.97071 2.46094,0.41309 q -0.47461,1.35352 -1.50293,2.06543 -1.01953,0.70313 -2.55762,0.70313 -2.43457,0 -3.60351,-1.59083 -0.92286,-1.27441 -0.92286,-3.21679 0,-2.32031 1.2129,-3.62988 1.21289,-1.31836 3.06738,-1.31836 2.08301,0 3.28711,1.37988 1.2041,1.37109 1.15136,4.20996 h -6.1875 q 0.0264,1.09863 0.59766,1.71387 0.57129,0.60644 1.42383,0.60644 0.58008,0 0.97558,-0.3164 0.39551,-0.31641 0.59766,-1.01954 z m 0.14063,-2.49609 q -0.0264,-1.07226 -0.55371,-1.62598 -0.52735,-0.5625 -1.28321,-0.5625 -0.80859,0 -1.33594,0.58887 -0.52734,0.58887 -0.51855,1.59961 z m 6.8291,5.4668 h -2.46973 v -9.33399 h 2.29395 v 1.32715 q 0.58886,-0.94043 1.05468,-1.23926 0.47461,-0.29882 1.07227,-0.29882 0.84375,0 1.62598,0.46582 l -0.76465,2.15332 q -0.62403,-0.4043 -1.16016,-0.4043 -0.51855,0 -0.8789,0.29004 -0.36036,0.28125 -0.57129,1.02832 -0.20215,0.74707 -0.20215,3.12891 z"
       id="text608"
       transform="translate(0,10.000238)"
       aria-label="MIP solver" />
    <path
       style="font-weight:bold;font-size:18px;line-height:1.15;font-family:'Liberation Sans';-inkscape-font-specification:'Liberation Sans';text-align:center;white-space:pre;stroke-linecap:round;stroke-linejoin:round"
       d="m 166.87402,567.67491 v -10.70508 h -3.82324 v -2.17969 h 10.23926 v 2.17969 h -3.81445 v 10.70508 z m 7.75196,-10.59961 v -2.28516 h 2.46972 v 2.28516 z m 0,10.59961 v -9.33399 h 2.46972 v 9.33399 z m 4.8164,-9.33399 h 2.27637 v 1.27442 q 1.22168,-1.48535 2.90918,-1.48535 0.89648,0 1.55566,0.36914 0.65918,0.36914 1.08106,1.11621 0.61523,-0.74707 1.32715,-1.11621 0.71191,-0.36914 1.5205,-0.36914 1.02832,0 1.74024,0.42187 0.71191,0.41309 1.06348,1.22168 0.25488,0.59766 0.25488,1.93359 v 5.96778 h -2.46973 v -5.33496 q 0,-1.38868 -0.25488,-1.79297 -0.34277,-0.52735 -1.05469,-0.52735 -0.51855,0 -0.97558,0.31641 -0.45704,0.31641 -0.65918,0.93164 -0.20215,0.60645 -0.20215,1.92481 v 4.48242 h -2.46973 v -5.11524 q 0,-1.3623 -0.13184,-1.75781 -0.13183,-0.39551 -0.41308,-0.58887 -0.27246,-0.19336 -0.74707,-0.19336 -0.57129,0 -1.02832,0.30762 -0.45703,0.30762 -0.65918,0.8877 -0.19336,0.58007 -0.19336,1.9248 v 4.53516 h -2.46973 z m 21.59473,6.36328 2.46094,0.41309 q -0.47461,1.35352 -1.50293,2.06543 -1.01953,0.70313 -2.55762,0.70313 -2.43457,0 -3.60352,-1.59083 -0.92285,-1.27441 -0.92285,-3.21679 0,-2.32031 1.21289,-3.62988 1.21289,-1.31836 3.06739,-1.31836 2.083,0 3.28711,1.37988 1.2041,1.37109 1.15136,4.20996 h -6.1875 q 0.0264,1.09863 0.59766,1.71387 0.57129,0.60644 1.42383,0.60644 0.58008,0 0.97558,-0.3164 0.39551,-0.31641 0.59766,-1.01954 z m 0.14062,-2.49609 q -0.0264,-1.07226 -0.55371,-1.62598 -0.52734,-0.5625 -1.2832,-0.5625 -0.80859,0 -1.33594,0.58887 -0.52734,0.58887 -0.51855,1.59961 z m 3.38379,-3.86719 h 1.3711 v -0.70312 q 0,-1.17774 0.24609,-1.75781 0.25488,-0.58008 0.92285,-0.94043 0.67676,-0.36914 1.70508,-0.36914 1.05469,0 2.06543,0.3164 l -0.33398,1.72266 q -0.58887,-0.14063 -1.13379,-0.14063 -0.53614,0 -0.77344,0.25489 -0.22852,0.24609 -0.22852,0.958 v 0.65918 h 1.84571 v 1.94239 h -1.84571 v 7.3916 h -2.46972 v -7.3916 h -1.3711 z m 6.50391,4.53516 q 0,-1.23047 0.60644,-2.38184 0.60645,-1.15136 1.71387,-1.75781 1.11621,-0.60644 2.48731,-0.60644 2.11816,0 3.47168,1.37988 1.35351,1.37109 1.35351,3.47168 0,2.11816 -1.37109,3.51562 -1.36231,1.38868 -3.43653,1.38868 -1.2832,0 -2.45214,-0.58008 -1.16016,-0.58008 -1.76661,-1.69629 -0.60644,-1.125 -0.60644,-2.7334 z m 2.53125,0.13184 q 0,1.38867 0.65918,2.12695 0.65918,0.73828 1.62598,0.73828 0.96679,0 1.61718,-0.73828 0.65918,-0.73828 0.65918,-2.14453 0,-1.3711 -0.65918,-2.10938 -0.65039,-0.73828 -1.61718,-0.73828 -0.9668,0 -1.62598,0.73828 -0.65918,0.73828 -0.65918,2.12696 z m 9.03516,4.66699 v -12.88477 h 2.46972 v 12.88477 z m 13.56152,0 h -2.29395 v -1.3711 q -0.57129,0.79981 -1.35351,1.19532 -0.77344,0.38672 -1.56445,0.38672 -1.6084,0 -2.75977,-1.292 -1.14258,-1.30078 -1.14258,-3.62109 0,-2.37305 1.11621,-3.60352 1.11621,-1.23925 2.82129,-1.23925 1.56445,0 2.70703,1.30078 v -4.64063 h 2.46973 z m -6.5918,-4.86914 q 0,1.49414 0.41309,2.16211 0.59765,0.96679 1.66992,0.96679 0.85254,0 1.4502,-0.7207 0.59765,-0.72949 0.59765,-2.1709 0,-1.6084 -0.58008,-2.31152 -0.58007,-0.71192 -1.48535,-0.71192 -0.8789,0 -1.47656,0.70313 -0.58887,0.69434 -0.58887,2.08301 z"
       id="text616"
       transform="translate(400.00031,10.000241)"
       aria-label="Timefold" />
    <g
       id="g1771"
       transform="translate(100.18633,-249.842)">
      <g
         id="g1688"
         transform="translate(60,5)">
        <path
           style="color:#000000;display:inline;overflow:visible;visibility:visible;fill:none;fill-rule:evenodd;stroke:#000000;stroke-width:1px;stroke-linecap:round;stroke-linejoin:round;stroke-miterlimit:4;stroke-dasharray:none;stroke-dashoffset:0;stroke-opacity:1;marker:none;enable-background:accumulate"
           d="M 400,862.36218 H 520"
           id="path1682" />
        <path
           style="color:#000000;display:inline;overflow:visible;visibility:visible;fill:none;fill-rule:evenodd;stroke:#000000;stroke-width:1px;stroke-linecap:round;stroke-linejoin:round;stroke-miterlimit:4;stroke-dasharray:none;stroke-dashoffset:0;stroke-opacity:1;marker:none;enable-background:accumulate"
           d="m 510,852.36218 10,10 -10,10"
           id="path1684" />
      </g>
      <g
         id="g1668"
         transform="translate(200.5,200.5)">
        <rect
           style="color:#000000;overflow:visible;fill:none;stroke:#000000;stroke-width:1;stroke-linecap:round;stroke-linejoin:round;stroke-opacity:1"
           id="rect1662"
           width="60"
           height="30"
           x="200"
           y="652.36218"
           rx="5"
           ry="5" />
        <path
           style="font-size:16px;line-height:1.15;font-family:'Liberation Sans';-inkscape-font-specification:'Liberation Sans';text-align:center;text-anchor:middle;white-space:pre;stroke-linecap:round;stroke-linejoin:round"
           d="m 59.710937,562.29371 1.429688,-0.125 q 0.101562,0.85938 0.46875,1.41406 0.375,0.54688 1.15625,0.89063 0.78125,0.33594 1.757812,0.33594 0.867188,0 1.53125,-0.25782 0.664063,-0.25781 0.984375,-0.70312 0.328125,-0.45313 0.328125,-0.98438 0,-0.53906 -0.3125,-0.9375 -0.3125,-0.40625 -1.03125,-0.67968 -0.460937,-0.17969 -2.039062,-0.55469 -1.578125,-0.38281 -2.210938,-0.71875 -0.820312,-0.42969 -1.226562,-1.0625 -0.398438,-0.64063 -0.398438,-1.42969 0,-0.86719 0.492188,-1.61719 0.492187,-0.75781 1.4375,-1.14843 0.945312,-0.39063 2.101562,-0.39063 1.273438,0 2.242188,0.41406 0.976562,0.40625 1.5,1.20313 0.523437,0.79687 0.5625,1.80469 l -1.453125,0.10937 q -0.117188,-1.08594 -0.796875,-1.64062 -0.671875,-0.55469 -1.992188,-0.55469 -1.375,0 -2.007812,0.50781 -0.625,0.5 -0.625,1.21094 0,0.61719 0.445312,1.01562 0.4375,0.39844 2.28125,0.82032 1.851563,0.41406 2.539063,0.72656 1,0.46094 1.476562,1.17187 0.476563,0.70313 0.476563,1.625 0,0.91407 -0.523438,1.72657 -0.523437,0.80468 -1.507812,1.25781 -0.976563,0.44531 -2.203125,0.44531 -1.554688,0 -2.609375,-0.45312 -1.046875,-0.45313 -1.648438,-1.35938 -0.59375,-0.91406 -0.625,-2.0625 z M 70.71875,565.9734 V 554.52027 H 72.125 v 4.10938 q 0.984375,-1.14063 2.484375,-1.14063 0.921875,0 1.601562,0.36719 0.679688,0.35938 0.96875,1 0.296875,0.64063 0.296875,1.85938 v 5.25781 h -1.40625 v -5.25781 q 0,-1.05469 -0.460937,-1.53125 -0.453125,-0.48438 -1.289063,-0.48438 -0.625,0 -1.179687,0.32813 -0.546875,0.32031 -0.78125,0.875 -0.234375,0.55468 -0.234375,1.53125 v 4.53906 z m 8.90625,-9.83594 v -1.61719 h 1.40625 v 1.61719 z m 0,9.83594 v -8.29688 h 1.40625 v 8.29688 z m 3.882812,0 v -7.20313 h -1.242187 v -1.09375 h 1.242187 v -0.88281 q 0,-0.83594 0.148438,-1.24219 0.203125,-0.54687 0.710937,-0.88281 0.515625,-0.34375 1.4375,-0.34375 0.59375,0 1.3125,0.14063 l -0.210937,1.22656 q -0.4375,-0.0781 -0.828125,-0.0781 -0.640625,0 -0.90625,0.27344 -0.265625,0.27344 -0.265625,1.02344 v 0.76562 h 1.617187 v 1.09375 H 84.90625 v 7.20313 z m 7.179688,-1.25781 0.203125,1.24218 q -0.59375,0.125 -1.0625,0.125 -0.765625,0 -1.1875,-0.24218 -0.421875,-0.24219 -0.59375,-0.63282 Q 87.875,564.80934 87.875,563.54371 v -4.77344 h -1.03125 v -1.09375 H 87.875 v -2.05468 l 1.398437,-0.84375 v 2.89843 H 90.6875 v 1.09375 h -1.414063 v 4.85157 q 0,0.60156 0.07031,0.77343 0.07813,0.17188 0.242187,0.27344 0.171875,0.10156 0.484375,0.10156 0.234375,0 0.617188,-0.0547 z"
           id="text1666"
           transform="translate(155.50391,106.89269)"
           aria-label="Shift" />
      </g>
      <g
         id="g1678"
         transform="translate(380.5,200.5)">
        <rect
           style="color:#000000;overflow:visible;fill:none;stroke:#000000;stroke-width:0.999999;stroke-linecap:round;stroke-linejoin:round;stroke-opacity:1"
           id="rect1672"
           width="90"
           height="30"
           x="200"
           y="652.36218"
           rx="4.9999995"
           ry="5" />
        <path
           style="font-size:16px;line-height:1.15;font-family:'Liberation Sans';-inkscape-font-specification:'Liberation Sans';text-align:center;text-anchor:middle;white-space:pre;stroke-linecap:round;stroke-linejoin:round"
           d="m 40.691406,565.9734 v -11.45313 h 8.28125 v 1.35157 h -6.765625 v 3.50781 h 6.335938 v 1.34375 h -6.335938 v 3.89844 h 7.03125 v 1.35156 z m 10.460938,0 v -8.29688 h 1.257812 v 1.16407 q 0.390625,-0.60938 1.039063,-0.97657 0.648437,-0.375 1.476562,-0.375 0.921875,0 1.507813,0.38282 0.59375,0.38281 0.835937,1.07031 0.984375,-1.45313 2.5625,-1.45313 1.234375,0 1.898438,0.6875 0.664062,0.67969 0.664062,2.10157 v 5.69531 h -1.398437 v -5.22656 q 0,-0.84375 -0.140625,-1.21094 -0.132813,-0.375 -0.492188,-0.60156 -0.359375,-0.22657 -0.84375,-0.22657 -0.875,0 -1.453125,0.58594 -0.578125,0.57813 -0.578125,1.85938 v 4.82031 h -1.40625 v -5.39063 q 0,-0.9375 -0.34375,-1.40625 -0.34375,-0.46875 -1.125,-0.46875 -0.59375,0 -1.101562,0.3125 -0.5,0.3125 -0.726563,0.91407 -0.226562,0.60156 -0.226562,1.73437 v 4.30469 z m 13.328125,3.17969 v -11.47657 h 1.28125 v 1.07813 q 0.453125,-0.63281 1.023437,-0.94531 0.570313,-0.32032 1.382813,-0.32032 1.0625,0 1.875,0.54688 0.8125,0.54687 1.226562,1.54687 0.414063,0.99219 0.414063,2.17969 0,1.27344 -0.460938,2.29688 -0.453125,1.01562 -1.328125,1.5625 -0.867187,0.53906 -1.828125,0.53906 -0.703125,0 -1.265625,-0.29688 -0.554687,-0.29687 -0.914062,-0.75 v 4.03907 z m 1.273437,-7.28125 q 0,1.60156 0.648438,2.36718 0.648437,0.76563 1.570312,0.76563 0.9375,0 1.601563,-0.78906 0.671875,-0.79688 0.671875,-2.46094 0,-1.58594 -0.65625,-2.375 -0.648438,-0.78906 -1.554688,-0.78906 -0.898437,0 -1.59375,0.84375 -0.6875,0.83593 -0.6875,2.4375 z m 7.59375,4.10156 v -11.45313 h 1.40625 v 11.45313 z m 3.0625,-4.14844 q 0,-2.30469 1.28125,-3.41406 1.070313,-0.92188 2.609375,-0.92188 1.710938,0 2.796875,1.125 1.085938,1.11719 1.085938,3.09375 0,1.60157 -0.484375,2.52344 -0.476563,0.91406 -1.398438,1.42188 -0.914062,0.50781 -2,0.50781 -1.742187,0 -2.820312,-1.11719 -1.070313,-1.11719 -1.070313,-3.21875 z m 1.445313,0 q 0,1.59375 0.695312,2.39063 0.695313,0.78906 1.75,0.78906 1.046875,0 1.742188,-0.79688 0.695312,-0.79687 0.695312,-2.42968 0,-1.53907 -0.703125,-2.32813 -0.695312,-0.79687 -1.734375,-0.79687 -1.054687,0 -1.75,0.78906 -0.695312,0.78906 -0.695312,2.38281 z m 7.914062,7.34375 -0.15625,-1.32031 q 0.460938,0.125 0.804688,0.125 0.46875,0 0.75,-0.15625 0.28125,-0.15625 0.460937,-0.4375 0.132813,-0.21094 0.429688,-1.04688 0.03906,-0.11718 0.125,-0.34375 l -3.148438,-8.3125 h 1.515625 l 1.726563,4.80469 q 0.335937,0.91406 0.601562,1.92188 0.242188,-0.96875 0.578125,-1.89063 l 1.773438,-4.83594 h 1.40625 l -3.15625,8.4375 q -0.507813,1.36719 -0.789063,1.88282 -0.375,0.69531 -0.859375,1.01562 -0.484375,0.32813 -1.15625,0.32813 -0.40625,0 -0.90625,-0.17188 z m 13.742188,-5.86719 1.453121,0.17969 q -0.34375,1.27344 -1.273434,1.97656 -0.929687,0.70313 -2.375,0.70313 -1.820312,0 -2.890625,-1.11719 -1.0625,-1.125 -1.0625,-3.14844 0,-2.09375 1.078125,-3.25 1.078125,-1.15625 2.796875,-1.15625 1.664063,0 2.71875,1.13282 1.054689,1.13281 1.054689,3.1875 0,0.125 -0.008,0.375 h -6.187504 q 0.07813,1.36718 0.773438,2.09375 0.695312,0.72656 1.734375,0.72656 0.773437,0 1.320312,-0.40625 0.546875,-0.40625 0.867188,-1.29688 z m -4.617188,-2.27343 h 4.632813 q -0.09375,-1.04688 -0.53125,-1.57032 -0.671875,-0.8125 -1.742188,-0.8125 -0.96875,0 -1.632812,0.64844 -0.65625,0.64844 -0.726563,1.73438 z m 13.515629,2.27343 1.45312,0.17969 q -0.34375,1.27344 -1.27344,1.97656 -0.92968,0.70313 -2.375,0.70313 -1.82031,0 -2.89062,-1.11719 -1.0625,-1.125 -1.0625,-3.14844 0,-2.09375 1.07812,-3.25 1.07813,-1.15625 2.79688,-1.15625 1.66406,0 2.71875,1.13282 1.05469,1.13281 1.05469,3.1875 0,0.125 -0.008,0.375 h -6.1875 q 0.0781,1.36718 0.77344,2.09375 0.69531,0.72656 1.73438,0.72656 0.77343,0 1.32031,-0.40625 0.54687,-0.40625 0.86719,-1.29688 z m -4.61719,-2.27343 h 4.63281 q -0.0937,-1.04688 -0.53125,-1.57032 -0.67187,-0.8125 -1.74219,-0.8125 -0.96875,0 -1.63281,0.64844 -0.65625,0.64844 -0.72656,1.73438 z"
           id="text1676"
           transform="translate(169.69922,106.89269)"
           aria-label="Employee" />
      </g>
      <path
         style="font-size:16px;line-height:1.15;font-family:'Liberation Sans';-inkscape-font-specification:'Liberation Sans';text-align:end;text-anchor:end;white-space:pre;stroke-linecap:round;stroke-linejoin:round"
         d="m 123.97656,560.32496 q 0,-2.03125 0.41407,-3.26562 0.42187,-1.24219 1.24218,-1.91407 0.82813,-0.67187 2.07813,-0.67187 0.92187,0 1.61718,0.375 0.69532,0.36719 1.14844,1.07031 0.45313,0.69531 0.71094,1.70313 0.25781,1 0.25781,2.70312 0,2.01563 -0.41406,3.25781 -0.41406,1.23438 -1.24219,1.91407 -0.82031,0.67187 -2.07812,0.67187 -1.65625,0 -2.60156,-1.1875 -1.13282,-1.42969 -1.13282,-4.65625 z m 1.44532,0 q 0,2.82031 0.65625,3.75781 0.66406,0.92969 1.63281,0.92969 0.96875,0 1.625,-0.9375 0.66406,-0.9375 0.66406,-3.75 0,-2.82812 -0.66406,-3.75781 -0.65625,-0.92969 -1.64063,-0.92969 -0.96875,0 -1.54687,0.82031 -0.72656,1.04688 -0.72656,3.86719 z m 8.24218,5.64844 v -1.60156 h 1.60156 v 1.60156 z m 4.44531,0 v -1.60156 h 1.60157 v 1.60156 z m 8.95313,0 h -1.40625 v -8.96094 q -0.50781,0.48438 -1.33594,0.96875 -0.82031,0.48438 -1.47656,0.72656 v -1.35937 q 1.17969,-0.55469 2.0625,-1.34375 0.88281,-0.78906 1.25,-1.53125 h 0.90625 z"
         id="text1666-6"
         transform="translate(411.2815,291.73266)"
         aria-label="0..1" />
      <path
         d="m 0.5,556.62184 0.359375,-1.10938 q 1.2421875,0.4375 1.8046875,0.75781 -0.1484375,-1.41406 -0.15625,-1.94531 H 3.640625 q -0.023437,0.77344 -0.1796875,1.9375 0.8046875,-0.40625 1.84375,-0.75 l 0.359375,1.10938 q -0.9921875,0.32812 -1.9453125,0.4375 0.4765625,0.41406 1.34375,1.47656 l -0.9375,0.66406 q -0.453125,-0.61719 -1.0703125,-1.67969 -0.578125,1.10157 -1.015625,1.67969 l -0.921875,-0.66406 q 0.90625,-1.11719 1.296875,-1.47656 Q 1.40625,556.86402 0.5,556.62184 Z"
         id="text1752"
         style="font-size:16px;line-height:1.15;font-family:'Liberation Sans';-inkscape-font-specification:'Liberation Sans';white-space:pre;stroke-linecap:round;stroke-linejoin:round"
         transform="translate(470.74219,291.73266)"
         aria-label="*" />
    </g>
    <path
       d="m 1.3359375,567.67491 v -12.88477 h 2.5664063 l 3.0498046,9.12305 q 0.421875,1.27441 0.6152344,1.90723 0.2197266,-0.70313 0.6855469,-2.06543 l 3.0849613,-8.96485 h 2.293945 v 12.88477 H 11.988281 V 556.89073 L 8.2441406,567.67491 H 6.7060547 L 2.9794922,556.70616 v 10.96875 z m 14.2558595,-4.66699 q 0,-2.59278 1.441406,-3.84082 1.204102,-1.03711 2.935547,-1.03711 1.924805,0 3.146484,1.26562 1.22168,1.25684 1.22168,3.48047 0,1.80176 -0.544922,2.83887 -0.536133,1.02832 -1.573242,1.59961 -1.02832,0.57129 -2.25,0.57129 -1.959961,0 -3.172852,-1.25684 -1.204101,-1.25684 -1.204101,-3.62109 z m 1.625976,0 q 0,1.79296 0.782227,2.68945 0.782227,0.88769 1.96875,0.88769 1.177734,0 1.959961,-0.89648 0.782226,-0.89648 0.782226,-2.7334 0,-1.73144 -0.791015,-2.61914 -0.782227,-0.89648 -1.951172,-0.89648 -1.186523,0 -1.96875,0.88769 -0.782227,0.8877 -0.782227,2.68067 z m 15.029297,4.66699 v -1.17774 q -0.887695,1.38868 -2.610351,1.38868 -1.116211,0 -2.056641,-0.61524 -0.931641,-0.61523 -1.450195,-1.71387 -0.509766,-1.10742 -0.509766,-2.54004 0,-1.39746 0.46582,-2.53125 0.465821,-1.14257 1.397461,-1.74902 0.931641,-0.60644 2.083008,-0.60644 0.84375,0 1.50293,0.36035 0.65918,0.35156 1.072266,0.92285 v -4.62305 h 1.573242 v 12.88477 z m -5.000976,-4.65821 q 0,1.79297 0.755859,2.68067 0.755859,0.88769 1.78418,0.88769 1.037109,0 1.757812,-0.84375 0.729492,-0.85254 0.729492,-2.59277 0,-1.91602 -0.738281,-2.8125 -0.738281,-0.89648 -1.819336,-0.89648 -1.054687,0 -1.766601,0.86132 -0.703125,0.86133 -0.703125,2.71582 z m 15.345703,1.65235 1.634765,0.20215 q -0.386718,1.43261 -1.432617,2.22363 -1.045898,0.79102 -2.671875,0.79102 -2.047851,0 -3.251953,-1.25684 -1.195312,-1.26563 -1.195312,-3.54199 0,-2.35547 1.21289,-3.65625 1.212891,-1.30078 3.146485,-1.30078 1.87207,0 3.058593,1.27441 1.186524,1.27441 1.186524,3.58594 0,0.14062 -0.0088,0.42187 H 37.30957 q 0.08789,1.53809 0.870117,2.35547 0.782227,0.81738 1.951172,0.81738 0.870118,0 1.485352,-0.45703 0.615234,-0.45703 0.975586,-1.45898 z m -5.194336,-2.55762 h 5.211914 q -0.105469,-1.17773 -0.597656,-1.7666 -0.75586,-0.91406 -1.959961,-0.91406 -1.089844,0 -1.836914,0.72949 -0.738282,0.72949 -0.817383,1.95117 z m 8.780273,5.56348 v -12.88477 h 1.582032 v 12.88477 z m 4.473633,-7.53223 v -1.80176 h 1.801758 v 1.80176 z m 0,7.53223 v -1.80176 h 1.801758 v 1.80176 z"
       id="text2095"
       style="font-size:18px;line-height:1.15;font-family:'Liberation Sans';-inkscape-font-specification:'Liberation Sans';white-space:pre;stroke-linecap:round;stroke-linejoin:round"
       transform="translate(427.80355,56.778861)"
       aria-label="Model:" />
    <g
       id="g6566"
       transform="translate(0,4.693785)">
      <path
         d="M 2.6455078,567.67491 H 1.1777344 v -12.88477 h 1.5820312 v 4.59668 q 1.0019532,-1.25683 2.5576172,-1.25683 0.8613281,0 1.6259766,0.35156 0.7734375,0.34277 1.265625,0.97558 0.5009765,0.62403 0.7822265,1.51172 0.28125,0.8877 0.28125,1.89844 0,2.39941 -1.1865234,3.70898 -1.1865234,1.30958 -2.8476563,1.30958 -1.6523437,0 -2.5927734,-1.37989 z m -0.017578,-4.73731 q 0,1.67871 0.4570312,2.42578 0.7470704,1.22168 2.0214844,1.22168 1.0371094,0 1.7929688,-0.89648 0.7558593,-0.90527 0.7558593,-2.68945 0,-1.82813 -0.7294922,-2.69825 -0.7207031,-0.87011 -1.7490234,-0.87011 -1.0371094,0 -1.7929687,0.90527 -0.7558594,0.89648 -0.7558594,2.60156 z m 7.9804683,0.0703 q 0,-2.59278 1.441407,-3.84082 1.204101,-1.03711 2.935547,-1.03711 1.924804,0 3.146484,1.26562 1.22168,1.25684 1.22168,3.48047 0,1.80176 -0.544922,2.83887 -0.536133,1.02832 -1.573242,1.59961 -1.028321,0.57129 -2.25,0.57129 -1.959961,0 -3.172852,-1.25684 -1.204102,-1.25684 -1.204102,-3.62109 z m 1.625977,0 q 0,1.79296 0.782227,2.68945 0.782226,0.88769 1.96875,0.88769 1.177734,0 1.95996,-0.89648 0.782227,-0.89648 0.782227,-2.7334 0,-1.73144 -0.791016,-2.61914 -0.782226,-0.89648 -1.951171,-0.89648 -1.186524,0 -1.96875,0.88769 -0.782227,0.8877 -0.782227,2.68067 z m 8.384766,0 q 0,-2.59278 1.441406,-3.84082 1.204101,-1.03711 2.935547,-1.03711 1.924804,0 3.146484,1.26562 1.22168,1.25684 1.22168,3.48047 0,1.80176 -0.544922,2.83887 -0.536133,1.02832 -1.573242,1.59961 -1.028321,0.57129 -2.25,0.57129 -1.959961,0 -3.172852,-1.25684 -1.204101,-1.25684 -1.204101,-3.62109 z m 1.625976,0 q 0,1.79296 0.782227,2.68945 0.782226,0.88769 1.96875,0.88769 1.177734,0 1.959961,-0.89648 0.782226,-0.89648 0.782226,-2.7334 0,-1.73144 -0.791015,-2.61914 -0.782227,-0.89648 -1.951172,-0.89648 -1.186524,0 -1.96875,0.88769 -0.782227,0.8877 -0.782227,2.68067 z m 8.938477,4.66699 v -12.88477 h 1.582031 v 12.88477 z m 10.423828,-3.00586 1.634765,0.20215 q -0.386718,1.43261 -1.432617,2.22363 -1.045898,0.79102 -2.671875,0.79102 -2.047851,0 -3.251953,-1.25684 -1.195312,-1.26563 -1.195312,-3.54199 0,-2.35547 1.21289,-3.65625 1.212891,-1.30078 3.146485,-1.30078 1.87207,0 3.058593,1.27441 1.186524,1.27441 1.186524,3.58594 0,0.14062 -0.0088,0.42187 h -6.960938 q 0.08789,1.53809 0.870117,2.35547 0.782227,0.81738 1.951172,0.81738 0.870118,0 1.485352,-0.45703 0.615234,-0.45703 0.975586,-1.45898 z m -5.194336,-2.55762 H 41.625 q -0.105469,-1.17773 -0.597656,-1.7666 -0.75586,-0.91406 -1.959961,-0.91406 -1.089844,0 -1.836914,0.72949 -0.738282,0.72949 -0.817383,1.95117 z m 14.90625,4.41211 q -0.878906,0.74707 -1.696289,1.05469 -0.808594,0.30762 -1.740235,0.30762 -1.538085,0 -2.364257,-0.74708 -0.826172,-0.75585 -0.826172,-1.9248 0,-0.68555 0.307617,-1.24805 0.316406,-0.57129 0.817383,-0.91406 0.509765,-0.34277 1.142578,-0.51855 0.46582,-0.12305 1.40625,-0.23731 1.916016,-0.22851 2.821289,-0.54492 0.0088,-0.3252 0.0088,-0.41309 0,-0.96679 -0.448242,-1.3623 -0.606445,-0.53613 -1.801758,-0.53613 -1.116211,0 -1.652344,0.3955 -0.527343,0.38672 -0.782226,1.37989 l -1.546875,-0.21094 q 0.210937,-0.99316 0.694336,-1.59961 0.483398,-0.61523 1.397461,-0.94043 0.914062,-0.33398 2.118164,-0.33398 1.195312,0 1.942382,0.28125 0.747071,0.28125 1.098633,0.71191 0.351563,0.42187 0.492188,1.07227 0.0791,0.40429 0.0791,1.45898 v 2.10937 q 0,2.20606 0.09668,2.79493 0.105469,0.58007 0.404297,1.11621 h -1.652344 q -0.246094,-0.49219 -0.316406,-1.15137 z m -0.131836,-3.5332 q -0.861328,0.35156 -2.583984,0.59765 -0.975586,0.14063 -1.379883,0.31641 -0.404297,0.17578 -0.624024,0.51855 -0.219726,0.33399 -0.219726,0.74707 0,0.63282 0.474609,1.05469 0.483399,0.42188 1.40625,0.42188 0.914063,0 1.625977,-0.39551 0.711914,-0.4043 1.045898,-1.09863 0.254883,-0.53614 0.254883,-1.58203 z m 4.051758,4.68457 v -9.33399 h 1.423828 v 1.32715 q 1.02832,-1.53808 2.970703,-1.53808 0.84375,0 1.546875,0.30761 0.711914,0.29883 1.063477,0.79102 0.351562,0.49219 0.492187,1.16894 0.08789,0.43946 0.08789,1.53809 v 5.73926 h -1.582032 v -5.67774 q 0,-0.96679 -0.18457,-1.4414 -0.18457,-0.4834 -0.65918,-0.76465 -0.46582,-0.29004 -1.098632,-0.29004 -1.010743,0 -1.749024,0.6416 -0.729492,0.6416 -0.729492,2.43457 v 5.09766 z m 10.045898,3.57715 v -16.46192 h 3.489258 v 1.30957 h -1.907227 v 13.84278 h 1.907227 v 1.30957 z m 12.612305,0 h -3.489258 v -1.30957 h 1.907227 v -13.84278 h -1.907227 v -1.30957 h 3.489258 z m 2.390625,0 v -16.46192 h 3.489258 v 1.30957 h -1.907227 v 13.84278 h 1.907227 v 1.30957 z m 12.612305,0 h -3.489258 v -1.30957 h 1.907226 v -13.84278 h -1.907226 v -1.30957 h 3.489258 z"
         id="text2327"
         style="font-size:18px;line-height:1.15;font-family:'Liberation Sans';-inkscape-font-specification:'Liberation Sans';white-space:pre;stroke-linecap:round;stroke-linejoin:round"
         transform="translate(188.44468,52.085076)"
         aria-label="boolean[ ][ ]" />
      <path
         d="m 1.3359375,567.67491 v -12.88477 h 2.5664063 l 3.0498046,9.12305 q 0.421875,1.27441 0.6152344,1.90723 0.2197266,-0.70313 0.6855469,-2.06543 l 3.0849613,-8.96485 h 2.293945 v 12.88477 H 11.988281 V 556.89073 L 8.2441406,567.67491 H 6.7060547 L 2.9794922,556.70616 v 10.96875 z m 14.2558595,-4.66699 q 0,-2.59278 1.441406,-3.84082 1.204102,-1.03711 2.935547,-1.03711 1.924805,0 3.146484,1.26562 1.22168,1.25684 1.22168,3.48047 0,1.80176 -0.544922,2.83887 -0.536133,1.02832 -1.573242,1.59961 -1.02832,0.57129 -2.25,0.57129 -1.959961,0 -3.172852,-1.25684 -1.204101,-1.25684 -1.204101,-3.62109 z m 1.625976,0 q 0,1.79296 0.782227,2.68945 0.782227,0.88769 1.96875,0.88769 1.177734,0 1.959961,-0.89648 0.782226,-0.89648 0.782226,-2.7334 0,-1.73144 -0.791015,-2.61914 -0.782227,-0.89648 -1.951172,-0.89648 -1.186523,0 -1.96875,0.88769 -0.782227,0.8877 -0.782227,2.68067 z m 15.029297,4.66699 v -1.17774 q -0.887695,1.38868 -2.610351,1.38868 -1.116211,0 -2.056641,-0.61524 -0.931641,-0.61523 -1.450195,-1.71387 -0.509766,-1.10742 -0.509766,-2.54004 0,-1.39746 0.46582,-2.53125 0.465821,-1.14257 1.397461,-1.74902 0.931641,-0.60644 2.083008,-0.60644 0.84375,0 1.50293,0.36035 0.65918,0.35156 1.072266,0.92285 v -4.62305 h 1.573242 v 12.88477 z m -5.000976,-4.65821 q 0,1.79297 0.755859,2.68067 0.755859,0.88769 1.78418,0.88769 1.037109,0 1.757812,-0.84375 0.729492,-0.85254 0.729492,-2.59277 0,-1.91602 -0.738281,-2.8125 -0.738281,-0.89648 -1.819336,-0.89648 -1.054687,0 -1.766601,0.86132 -0.703125,0.86133 -0.703125,2.71582 z m 15.345703,1.65235 1.634765,0.20215 q -0.386718,1.43261 -1.432617,2.22363 -1.045898,0.79102 -2.671875,0.79102 -2.047851,0 -3.251953,-1.25684 -1.195312,-1.26563 -1.195312,-3.54199 0,-2.35547 1.21289,-3.65625 1.212891,-1.30078 3.146485,-1.30078 1.87207,0 3.058593,1.27441 1.186524,1.27441 1.186524,3.58594 0,0.14062 -0.0088,0.42187 H 37.30957 q 0.08789,1.53809 0.870117,2.35547 0.782227,0.81738 1.951172,0.81738 0.870118,0 1.485352,-0.45703 0.615234,-0.45703 0.975586,-1.45898 z m -5.194336,-2.55762 h 5.211914 q -0.105469,-1.17773 -0.597656,-1.7666 -0.75586,-0.91406 -1.959961,-0.91406 -1.089844,0 -1.836914,0.72949 -0.738282,0.72949 -0.817383,1.95117 z m 8.780273,5.56348 v -12.88477 h 1.582032 v 12.88477 z m 4.473633,-7.53223 v -1.80176 h 1.801758 v 1.80176 z m 0,7.53223 v -1.80176 h 1.801758 v 1.80176 z"
         id="text2367"
         style="font-size:18px;line-height:1.15;font-family:'Liberation Sans';-inkscape-font-specification:'Liberation Sans';white-space:pre;stroke-linecap:round;stroke-linejoin:round"
         transform="translate(117.22231,52.085076)"
         aria-label="Model:" />
    </g>
  </g>
</svg>
