<?xml version="1.0" encoding="UTF-8" standalone="no"?>
<svg
   width="800"
   height="600"
   id="svg2"
   version="1.1"
   xmlns="http://www.w3.org/2000/svg"
   xmlns:svg="http://www.w3.org/2000/svg"
   xmlns:rdf="http://www.w3.org/1999/02/22-rdf-syntax-ns#"
   xmlns:cc="http://creativecommons.org/ns#"
   xmlns:dc="http://purl.org/dc/elements/1.1/">
  <defs
     id="defs4">
    <marker
       style="overflow:visible"
       id="Triangle-02_reversed"
       refX="0"
       refY="0"
       orient="auto"
       markerWidth="2"
       markerHeight="2"
       viewBox="0 0 1 1"
       preserveAspectRatio="xMidYMid">
      <g
         transform="rotate(180,0,0)"
         id="g1">
        <path
           transform="scale(0.5)"
           style="fill:#000000;fill:context-stroke;fill-rule:evenodd;stroke:context-stroke;stroke-width:1pt"
           d="M 5.77,0 -2.88,5 V -5 Z"
           id="path1" />
      </g>
    </marker>
    <marker
       style="overflow:visible"
       id="Triangle-02-6_reversed"
       refX="0"
       refY="0"
       orient="auto"
       markerWidth="2"
       markerHeight="2"
       viewBox="0 0 1 1"
       preserveAspectRatio="xMidYMid">
      <g
         transform="rotate(180,0,0)"
         id="g2">
        <path
           transform="scale(0.5)"
           style="fill:#000000;fill:context-stroke;fill-rule:evenodd;stroke:context-stroke;stroke-width:1pt"
           d="M 5.77,0 -2.88,5 V -5 Z"
           id="path2" />
      </g>
    </marker>
    <marker
       style="overflow:visible"
       id="Triangle-02-6-2_reversed"
       refX="0"
       refY="0"
       orient="auto"
       markerWidth="2"
       markerHeight="2"
       viewBox="0 0 1 1"
       preserveAspectRatio="xMidYMid">
      <g
         transform="rotate(180,0,0)"
         id="g3">
        <path
           transform="scale(0.5)"
           style="fill:#000000;fill:context-stroke;fill-rule:evenodd;stroke:context-stroke;stroke-width:1pt"
           d="M 5.77,0 -2.88,5 V -5 Z"
           id="path3" />
      </g>
    </marker>
  </defs>
  <metadata
     id="metadata7">
    <rdf:RDF>
      <cc:Work
         rdf:about="">
        <dc:format>image/svg+xml</dc:format>
        <dc:type
           rdf:resource="http://purl.org/dc/dcmitype/StillImage" />
        <dc:language>en</dc:language>
        <cc:license
           rdf:resource="https://timefold.ai/product/license/" />
      </cc:Work>
    </rdf:RDF>
  </metadata>
  <g
     id="layer1"
     transform="translate(0,-378.8106)"
     style="display:inline">
    <path
       style="font-size:37.3333px;font-family:Arial;-inkscape-font-specification:Arial;text-align:center;text-anchor:middle"
       d="m 378.11853,245.04221 3.33593,-0.29167 q 0.23698,2.00521 1.09375,3.29948 0.875,1.27604 2.69791,2.07812 1.82292,0.78385 4.10156,0.78385 2.02344,0 3.57292,-0.60156 1.54947,-0.60156 2.29687,-1.64062 0.76562,-1.05729 0.76562,-2.29688 0,-1.25781 -0.72916,-2.18749 -0.72917,-0.94792 -2.40625,-1.58594 -1.07552,-0.41927 -4.75781,-1.29427 -3.68229,-0.89323 -5.15885,-1.67708 -1.91406,-1.0026 -2.86198,-2.47917 -0.92968,-1.49479 -0.92968,-3.33593 0,-2.02344 1.14843,-3.77344 1.14844,-1.76822 3.35417,-2.67968 2.20573,-0.91146 4.90364,-0.91146 2.97135,0 5.23177,0.96615 2.27864,0.94791 3.49999,2.80729 1.22136,1.85937 1.3125,4.21093 l -3.39062,0.25521 q -0.27344,-2.53385 -1.85937,-3.82812 -1.56771,-1.29427 -4.64844,-1.29427 -3.20833,0 -4.68489,1.18489 -1.45833,1.16667 -1.45833,2.82552 0,1.4401 1.03906,2.36979 1.02083,0.92969 5.32291,1.91406 4.32031,0.96615 5.92448,1.69531 2.33333,1.07552 3.44531,2.73437 1.11197,1.64063 1.11197,3.79167 0,2.13281 -1.22135,4.02864 -1.22135,1.8776 -3.51822,2.93489 -2.27865,1.03907 -5.14063,1.03907 -3.6276,0 -6.08853,-1.0573 -2.44271,-1.05729 -3.84635,-3.17187 -1.38542,-2.13281 -1.45833,-4.81249 z m 25.7031,8.58593 V 226.9042 h 3.28125 v 15.23957 l 7.76561,-7.87499 h 4.2474 l -7.40104,7.18228 8.14843,12.17708 h -4.04687 l -6.39843,-9.89843 -2.3151,2.22395 v 7.67448 z m 18.66665,-22.9505 v -3.77344 h 3.28125 v 3.77344 z m 0,22.9505 v -19.35936 h 3.28125 v 19.35936 z m 8.20312,0 V 226.9042 h 3.28124 v 26.72394 z m 8.29426,0 V 226.9042 h 3.28125 v 26.72394 z m 7.05468,-5.77864 3.24479,-0.51042 q 0.27344,1.95052 1.51302,2.98958 1.25781,1.03906 3.5,1.03906 2.26041,0 3.35416,-0.91146 1.09375,-0.92968 1.09375,-2.16926 0,-1.11198 -0.96614,-1.75 -0.67448,-0.4375 -3.35417,-1.11198 -3.60937,-0.91146 -5.01301,-1.56771 -1.38542,-0.67448 -2.11459,-1.84114 -0.71093,-1.1849 -0.71093,-2.60677 0,-1.29427 0.58333,-2.38802 0.60156,-1.11198 1.62239,-1.84114 0.76563,-0.56511 2.07813,-0.94792 1.33073,-0.40104 2.84374,-0.40104 2.27865,0 3.99219,0.65625 1.73177,0.65625 2.55208,1.78645 0.82031,1.11198 1.13021,2.98959 l -3.20833,0.43749 q -0.21875,-1.49479 -1.27604,-2.33333 -1.03907,-0.83854 -2.95313,-0.83854 -2.26041,0 -3.22656,0.7474 -0.96614,0.74739 -0.96614,1.75 0,0.63802 0.40104,1.14843 0.40104,0.52865 1.25781,0.875 0.49219,0.18229 2.89844,0.83854 3.48176,0.92969 4.84895,1.53125 1.38542,0.58333 2.16927,1.71354 0.78385,1.13021 0.78385,2.80729 0,1.64062 -0.96614,3.09896 -0.94792,1.4401 -2.7526,2.24218 -1.80469,0.78386 -4.08333,0.78386 -3.77344,0 -5.76041,-1.56771 -1.96875,-1.56771 -2.51563,-4.64843 z"
       id="flowRoot4302"
       transform="translate(-20,194.36213)"
       aria-label="Skills" />
    <g
       id="g3709"
       transform="translate(0,19.999997)" />
    <path
       style="font-size:16px;line-height:1.25;font-family:Arial;-inkscape-font-specification:Arial;text-align:center;text-anchor:middle"
       d="m 228.33594,164.41207 4.39843,-11.45312 h 1.63282 l 4.6875,11.45312 h -1.72657 l -1.33593,-3.46875 h -4.78907 l -1.25781,3.46875 z m 3.30468,-4.70312 h 3.88282 l -1.19532,-3.17188 q -0.54687,-1.44531 -0.8125,-2.375 -0.21875,1.10156 -0.61718,2.1875 z m 7.88282,2.22656 1.39062,-0.21875 q 0.11719,0.83594 0.64844,1.28125 0.53906,0.44531 1.5,0.44531 0.96875,0 1.4375,-0.39062 0.46875,-0.39844 0.46875,-0.92969 0,-0.47656 -0.41406,-0.75 -0.28907,-0.1875 -1.4375,-0.47656 -1.54688,-0.39063 -2.14844,-0.67188 -0.59375,-0.28906 -0.90625,-0.78906 -0.30469,-0.50781 -0.30469,-1.11719 0,-0.55469 0.25,-1.02344 0.25781,-0.47656 0.69531,-0.78906 0.32813,-0.24219 0.89063,-0.40625 0.57031,-0.17187 1.21875,-0.17187 0.97656,0 1.71094,0.28125 0.74218,0.28125 1.09375,0.76562 0.35156,0.47656 0.48437,1.28125 l -1.375,0.1875 q -0.0937,-0.64062 -0.54687,-1 -0.44532,-0.35937 -1.26563,-0.35937 -0.96875,0 -1.38281,0.32031 -0.41406,0.32031 -0.41406,0.75 0,0.27344 0.17187,0.49219 0.17188,0.22656 0.53906,0.375 0.21094,0.0781 1.24219,0.35937 1.49219,0.39844 2.07813,0.65625 0.59375,0.25 0.92968,0.73438 0.33594,0.48437 0.33594,1.20312 0,0.70313 -0.41406,1.32813 -0.40625,0.61718 -1.17969,0.96093 -0.77344,0.33594 -1.75,0.33594 -1.61719,0 -2.46875,-0.67187 -0.84375,-0.67188 -1.07812,-1.99219 z m 8,0 1.39062,-0.21875 q 0.11719,0.83594 0.64844,1.28125 0.53906,0.44531 1.5,0.44531 0.96875,0 1.4375,-0.39062 0.46875,-0.39844 0.46875,-0.92969 0,-0.47656 -0.41406,-0.75 -0.28907,-0.1875 -1.4375,-0.47656 -1.54688,-0.39063 -2.14844,-0.67188 -0.59375,-0.28906 -0.90625,-0.78906 -0.30469,-0.50781 -0.30469,-1.11719 0,-0.55469 0.25,-1.02344 0.25781,-0.47656 0.69531,-0.78906 0.32813,-0.24219 0.89063,-0.40625 0.57031,-0.17187 1.21875,-0.17187 0.97656,0 1.71094,0.28125 0.74218,0.28125 1.09375,0.76562 0.35156,0.47656 0.48437,1.28125 l -1.375,0.1875 q -0.0937,-0.64062 -0.54687,-1 -0.44532,-0.35937 -1.26563,-0.35937 -0.96875,0 -1.38281,0.32031 -0.41406,0.32031 -0.41406,0.75 0,0.27344 0.17187,0.49219 0.17188,0.22656 0.53906,0.375 0.21094,0.0781 1.24219,0.35937 1.49219,0.39844 2.07813,0.65625 0.59375,0.25 0.92968,0.73438 0.33594,0.48437 0.33594,1.20312 0,0.70313 -0.41406,1.32813 -0.40625,0.61718 -1.17969,0.96093 -0.77344,0.33594 -1.75,0.33594 -1.61719,0 -2.46875,-0.67187 -0.84375,-0.67188 -1.07812,-1.99219 z m 8.57031,-7.35938 v -1.61718 H 257.5 v 1.61718 z m 0,9.83594 V 156.1152 H 257.5 v 8.29687 z m 3.28906,0.6875 1.36719,0.20313 q 0.0859,0.63281 0.47656,0.92187 0.52344,0.39063 1.42969,0.39063 0.97656,0 1.50781,-0.39063 0.53125,-0.39062 0.71875,-1.09375 0.10938,-0.42969 0.10156,-1.80469 -0.92187,1.08594 -2.29687,1.08594 -1.71094,0 -2.64844,-1.23437 -0.9375,-1.23438 -0.9375,-2.96094 0,-1.1875 0.42969,-2.1875 0.42969,-1.00781 1.24219,-1.55469 0.82031,-0.54687 1.92187,-0.54687 1.46875,0 2.42188,1.1875 v -1 h 1.29687 v 7.17187 q 0,1.9375 -0.39844,2.74219 -0.39062,0.8125 -1.25,1.28125 -0.85156,0.46875 -2.10156,0.46875 -1.48437,0 -2.39844,-0.67188 -0.91406,-0.66406 -0.88281,-2.00781 z m 1.16406,-4.98437 q 0,1.63281 0.64844,2.38281 0.64844,0.75 1.625,0.75 0.96875,0 1.625,-0.74219 0.65625,-0.75 0.65625,-2.34375 0,-1.52344 -0.67969,-2.29687 -0.67187,-0.77344 -1.625,-0.77344 -0.9375,0 -1.59375,0.76562 -0.65625,0.75782 -0.65625,2.25782 z m 7.99219,4.29687 v -8.29687 h 1.26563 v 1.17968 q 0.91406,-1.36718 2.64062,-1.36718 0.75,0 1.375,0.27343 0.63281,0.26563 0.94531,0.70313 0.3125,0.4375 0.4375,1.03906 0.0781,0.39063 0.0781,1.36719 v 5.10156 H 273.875 v -5.04687 q 0,-0.85938 -0.16406,-1.28125 -0.16407,-0.42969 -0.58594,-0.67969 -0.41406,-0.25781 -0.97656,-0.25781 -0.89844,0 -1.55469,0.57031 -0.64844,0.57031 -0.64844,2.16406 v 4.53125 z m 16.41406,-1.25781 0.20313,1.24219 q -0.59375,0.125 -1.0625,0.125 -0.76563,0 -1.1875,-0.24219 -0.42188,-0.24219 -0.59375,-0.63281 -0.17188,-0.39844 -0.17188,-1.66407 v -4.77343 h -1.03125 v -1.09375 h 1.03125 v -2.05469 l 1.39844,-0.84375 v 2.89844 h 1.41406 v 1.09375 h -1.41406 v 4.85156 q 0,0.60156 0.0703,0.77344 0.0781,0.17187 0.24219,0.27343 0.17188,0.10157 0.48438,0.10157 0.23437,0 0.61718,-0.0547 z m 1.375,1.25781 v -11.45312 h 1.40625 v 4.10937 q 0.98438,-1.14062 2.48438,-1.14062 0.92187,0 1.60156,0.36718 0.67969,0.35938 0.96875,1 0.29688,0.64063 0.29688,1.85938 v 5.25781 h -1.40625 v -5.25781 q 0,-1.05469 -0.46094,-1.53125 -0.45313,-0.48438 -1.28906,-0.48438 -0.625,0 -1.17969,0.32813 -0.54688,0.32031 -0.78125,0.875 -0.23438,0.55469 -0.23438,1.53125 v 4.53906 z m 14.57813,-2.67187 1.45312,0.17968 q -0.34375,1.27344 -1.27343,1.97657 -0.92969,0.70312 -2.375,0.70312 -1.82032,0 -2.89063,-1.11719 -1.0625,-1.125 -1.0625,-3.14843 0,-2.09375 1.07813,-3.25 1.07812,-1.15625 2.79687,-1.15625 1.66406,0 2.71875,1.13281 1.05469,1.13281 1.05469,3.1875 0,0.125 -0.008,0.375 h -6.1875 q 0.0781,1.36719 0.77343,2.09375 0.69532,0.72656 1.73438,0.72656 0.77344,0 1.32031,-0.40625 0.54688,-0.40625 0.86719,-1.29687 z m -4.61719,-2.27344 h 4.63281 q -0.0937,-1.04688 -0.53125,-1.57031 -0.67187,-0.8125 -1.74218,-0.8125 -0.96875,0 -1.63282,0.64843 -0.65625,0.64844 -0.72656,1.73438 z m 17.96094,2.27344 1.45312,0.17968 q -0.34375,1.27344 -1.27343,1.97657 -0.92969,0.70312 -2.375,0.70312 -1.82032,0 -2.89063,-1.11719 -1.0625,-1.125 -1.0625,-3.14843 0,-2.09375 1.07813,-3.25 1.07812,-1.15625 2.79687,-1.15625 1.66406,0 2.71875,1.13281 1.05469,1.13281 1.05469,3.1875 0,0.125 -0.008,0.375 h -6.1875 q 0.0781,1.36719 0.77343,2.09375 0.69532,0.72656 1.73438,0.72656 0.77344,0 1.32031,-0.40625 0.54688,-0.40625 0.86719,-1.29687 z m -4.61719,-2.27344 h 4.63281 q -0.0937,-1.04688 -0.53125,-1.57031 -0.67187,-0.8125 -1.74218,-0.8125 -0.96875,0 -1.63282,0.64843 -0.65625,0.64844 -0.72656,1.73438 z m 7.83594,4.94531 v -8.29687 h 1.25781 v 1.16406 q 0.39063,-0.60938 1.03906,-0.97656 0.64844,-0.375 1.47657,-0.375 0.92187,0 1.50781,0.38281 0.59375,0.38281 0.83594,1.07031 0.98437,-1.45312 2.5625,-1.45312 1.23437,0 1.89843,0.6875 0.66407,0.67968 0.66407,2.10156 v 5.69531 h -1.39844 v -5.22656 q 0,-0.84375 -0.14063,-1.21094 -0.13281,-0.375 -0.49218,-0.60156 -0.35938,-0.22656 -0.84375,-0.22656 -0.875,0 -1.45313,0.58593 -0.57812,0.57813 -0.57812,1.85938 v 4.82031 h -1.40625 v -5.39062 q 0,-0.9375 -0.34375,-1.40625 -0.34375,-0.46875 -1.125,-0.46875 -0.59375,0 -1.10157,0.3125 -0.5,0.3125 -0.72656,0.91406 -0.22656,0.60156 -0.22656,1.73437 v 4.30469 z m 13.32812,3.17969 V 156.1152 h 1.28125 v 1.07812 q 0.45313,-0.63281 1.02344,-0.94531 0.57031,-0.32031 1.38281,-0.32031 1.0625,0 1.875,0.54687 0.8125,0.54688 1.22657,1.54688 0.41406,0.99218 0.41406,2.17968 0,1.27344 -0.46094,2.29688 -0.45312,1.01562 -1.32812,1.5625 -0.86719,0.53906 -1.82813,0.53906 -0.70312,0 -1.26562,-0.29687 -0.55469,-0.29688 -0.91407,-0.75 v 4.03906 z m 1.27344,-7.28125 q 0,1.60156 0.64844,2.36719 0.64844,0.76562 1.57031,0.76562 0.9375,0 1.60156,-0.78906 0.67188,-0.79688 0.67188,-2.46094 0,-1.58594 -0.65625,-2.375 -0.64844,-0.78906 -1.55469,-0.78906 -0.89844,0 -1.59375,0.84375 -0.6875,0.83594 -0.6875,2.4375 z m 7.59375,4.10156 v -11.45312 h 1.40625 v 11.45312 z m 3.0625,-4.14844 q 0,-2.30468 1.28125,-3.41406 1.07031,-0.92187 2.60938,-0.92187 1.71093,0 2.79687,1.125 1.08594,1.11718 1.08594,3.09375 0,1.60156 -0.48438,2.52343 -0.47656,0.91407 -1.39843,1.42188 -0.91407,0.50781 -2,0.50781 -1.74219,0 -2.82032,-1.11719 -1.07031,-1.11718 -1.07031,-3.21875 z m 1.44531,0 q 0,1.59375 0.69532,2.39063 0.69531,0.78906 1.75,0.78906 1.04687,0 1.74218,-0.79687 0.69532,-0.79688 0.69532,-2.42969 0,-1.53906 -0.70313,-2.32813 -0.69531,-0.79687 -1.73437,-0.79687 -1.05469,0 -1.75,0.78906 -0.69532,0.78906 -0.69532,2.38281 z m 7.91407,7.34375 -0.15625,-1.32031 q 0.46093,0.125 0.80468,0.125 0.46875,0 0.75,-0.15625 0.28125,-0.15625 0.46094,-0.4375 0.13281,-0.21094 0.42969,-1.04687 0.0391,-0.11719 0.125,-0.34375 l -3.14844,-8.3125 h 1.51563 l 1.72656,4.80468 q 0.33594,0.91407 0.60156,1.92188 0.24219,-0.96875 0.57813,-1.89063 l 1.77343,-4.83593 h 1.40625 l -3.15625,8.4375 q -0.50781,1.36718 -0.78906,1.88281 -0.375,0.69531 -0.85937,1.01562 -0.48438,0.32813 -1.15625,0.32813 -0.40625,0 -0.90625,-0.17188 z m 13.74218,-5.86718 1.45313,0.17968 q -0.34375,1.27344 -1.27344,1.97657 -0.92969,0.70312 -2.375,0.70312 -1.82031,0 -2.89062,-1.11719 -1.0625,-1.125 -1.0625,-3.14843 0,-2.09375 1.07812,-3.25 1.07813,-1.15625 2.79688,-1.15625 1.66406,0 2.71875,1.13281 1.05468,1.13281 1.05468,3.1875 0,0.125 -0.008,0.375 h -6.1875 q 0.0781,1.36719 0.77344,2.09375 0.69531,0.72656 1.73437,0.72656 0.77344,0 1.32032,-0.40625 0.54687,-0.40625 0.86718,-1.29687 z m -4.61718,-2.27344 h 4.63281 q -0.0937,-1.04688 -0.53125,-1.57031 -0.67188,-0.8125 -1.74219,-0.8125 -0.96875,0 -1.63281,0.64843 -0.65625,0.64844 -0.72656,1.73438 z m 13.51562,2.27344 1.45313,0.17968 q -0.34375,1.27344 -1.27344,1.97657 -0.92969,0.70312 -2.375,0.70312 -1.82031,0 -2.89063,-1.11719 -1.0625,-1.125 -1.0625,-3.14843 0,-2.09375 1.07813,-3.25 1.07812,-1.15625 2.79687,-1.15625 1.66407,0 2.71875,1.13281 1.05469,1.13281 1.05469,3.1875 0,0.125 -0.008,0.375 h -6.1875 q 0.0781,1.36719 0.77344,2.09375 0.69531,0.72656 1.73437,0.72656 0.77344,0 1.32031,-0.40625 0.54688,-0.40625 0.86719,-1.29687 z m -4.61719,-2.27344 h 4.63282 q -0.0937,-1.04688 -0.53125,-1.57031 -0.67188,-0.8125 -1.74219,-0.8125 -0.96875,0 -1.63281,0.64843 -0.65625,0.64844 -0.72657,1.73438 z m 13.8125,4.94531 -2.53906,-8.29687 h 1.45313 l 1.32031,4.78906 0.49219,1.78125 q 0.0312,-0.13281 0.42968,-1.71094 l 1.32032,-4.85937 h 1.44531 l 1.24219,4.8125 0.41406,1.58593 0.47656,-1.60156 1.42188,-4.79687 h 1.36718 l -2.59375,8.29687 h -1.46093 l -1.32032,-4.96875 -0.32031,-1.41406 -1.67969,6.38281 z m 10.03125,-9.83594 v -1.61718 h 1.40625 v 1.61718 z m 0,9.83594 v -8.29687 h 1.40625 v 8.29687 z m 6.61719,-1.25781 0.20313,1.24219 q -0.59375,0.125 -1.0625,0.125 -0.76563,0 -1.1875,-0.24219 -0.42188,-0.24219 -0.59375,-0.63281 -0.17188,-0.39844 -0.17188,-1.66407 v -4.77343 h -1.03125 v -1.09375 h 1.03125 v -2.05469 l 1.39844,-0.84375 v 2.89844 h 1.41406 v 1.09375 h -1.41406 v 4.85156 q 0,0.60156 0.0703,0.77344 0.0781,0.17187 0.24219,0.27343 0.17187,0.10157 0.48437,0.10157 0.23438,0 0.61719,-0.0547 z m 1.375,1.25781 v -11.45312 h 1.40625 v 4.10937 q 0.98438,-1.14062 2.48438,-1.14062 0.92187,0 1.60156,0.36718 0.67969,0.35938 0.96875,1 0.29687,0.64063 0.29687,1.85938 v 5.25781 h -1.40625 v -5.25781 q 0,-1.05469 -0.46093,-1.53125 -0.45313,-0.48438 -1.28907,-0.48438 -0.625,0 -1.17968,0.32813 -0.54688,0.32031 -0.78125,0.875 -0.23438,0.55469 -0.23438,1.53125 v 4.53906 z m 16.41406,-1.25781 0.20313,1.24219 q -0.59375,0.125 -1.0625,0.125 -0.76563,0 -1.1875,-0.24219 -0.42188,-0.24219 -0.59375,-0.63281 -0.17188,-0.39844 -0.17188,-1.66407 v -4.77343 h -1.03125 v -1.09375 h 1.03125 v -2.05469 l 1.39844,-0.84375 v 2.89844 h 1.41406 v 1.09375 h -1.41406 v 4.85156 q 0,0.60156 0.0703,0.77344 0.0781,0.17187 0.24219,0.27343 0.17188,0.10157 0.48438,0.10157 0.23437,0 0.61718,-0.0547 z m 1.375,1.25781 v -11.45312 h 1.40625 v 4.10937 q 0.98438,-1.14062 2.48438,-1.14062 0.92187,0 1.60156,0.36718 0.67969,0.35938 0.96875,1 0.29688,0.64063 0.29688,1.85938 v 5.25781 h -1.40625 v -5.25781 q 0,-1.05469 -0.46094,-1.53125 -0.45313,-0.48438 -1.28906,-0.48438 -0.625,0 -1.17969,0.32813 -0.54688,0.32031 -0.78125,0.875 -0.23438,0.55469 -0.23438,1.53125 v 4.53906 z m 14.57813,-2.67187 1.45312,0.17968 q -0.34375,1.27344 -1.27343,1.97657 -0.92969,0.70312 -2.375,0.70312 -1.82032,0 -2.89063,-1.11719 -1.0625,-1.125 -1.0625,-3.14843 0,-2.09375 1.07813,-3.25 1.07812,-1.15625 2.79687,-1.15625 1.66406,0 2.71875,1.13281 1.05469,1.13281 1.05469,3.1875 0,0.125 -0.008,0.375 h -6.1875 q 0.0781,1.36719 0.77343,2.09375 0.69532,0.72656 1.73438,0.72656 0.77344,0 1.32031,-0.40625 0.54688,-0.40625 0.86719,-1.29687 z m -4.61719,-2.27344 h 4.63281 q -0.0937,-1.04688 -0.53125,-1.57031 -0.67187,-0.8125 -1.74218,-0.8125 -0.96875,0 -1.63282,0.64843 -0.65625,0.64844 -0.72656,1.73438 z m 17.69531,1.90625 1.38282,0.17969 q -0.22657,1.42968 -1.16407,2.24218 -0.92968,0.80469 -2.28906,0.80469 -1.70312,0 -2.74219,-1.10937 -1.03125,-1.11719 -1.03125,-3.19532 0,-1.34375 0.44532,-2.35156 0.44531,-1.00781 1.35156,-1.50781 0.91406,-0.50781 1.98437,-0.50781 1.35157,0 2.21094,0.6875 0.85938,0.67968 1.10156,1.9375 l -1.36718,0.21093 q -0.19532,-0.83593 -0.69532,-1.25781 -0.49218,-0.42187 -1.19531,-0.42187 -1.0625,0 -1.72656,0.76562 -0.66406,0.75781 -0.66406,2.40625 0,1.67188 0.64062,2.42969 0.64063,0.75781 1.67188,0.75781 0.82812,0 1.38281,-0.50781 0.55469,-0.50781 0.70312,-1.5625 z m 2.0625,-1.10938 q 0,-2.30468 1.28125,-3.41406 1.07032,-0.92187 2.60938,-0.92187 1.71094,0 2.79687,1.125 1.08594,1.11718 1.08594,3.09375 0,1.60156 -0.48437,2.52343 -0.47657,0.91407 -1.39844,1.42188 -0.91406,0.50781 -2,0.50781 -1.74219,0 -2.82031,-1.11719 -1.07032,-1.11718 -1.07032,-3.21875 z m 1.44532,0 q 0,1.59375 0.69531,2.39063 0.69531,0.78906 1.75,0.78906 1.04687,0 1.74219,-0.79687 0.69531,-0.79688 0.69531,-2.42969 0,-1.53906 -0.70313,-2.32813 -0.69531,-0.79687 -1.73437,-0.79687 -1.05469,0 -1.75,0.78906 -0.69531,0.78906 -0.69531,2.38281 z m 7.96093,4.14844 v -8.29687 h 1.26563 v 1.25781 q 0.48437,-0.88281 0.89062,-1.16406 0.41407,-0.28125 0.90625,-0.28125 0.71094,0 1.44532,0.45312 l -0.48438,1.30469 q -0.51562,-0.30469 -1.03125,-0.30469 -0.46094,0 -0.82812,0.28125 -0.36719,0.27344 -0.52344,0.76563 -0.23438,0.75 -0.23438,1.64062 v 4.34375 z m 5.32813,0 v -8.29687 h 1.26562 v 1.25781 q 0.48438,-0.88281 0.89063,-1.16406 0.41406,-0.28125 0.90625,-0.28125 0.71094,0 1.44531,0.45312 l -0.48437,1.30469 q -0.51563,-0.30469 -1.03125,-0.30469 -0.46094,0 -0.82813,0.28125 -0.36719,0.27344 -0.52344,0.76563 -0.23437,0.75 -0.23437,1.64062 v 4.34375 z m 11.02344,-2.67187 1.45312,0.17968 q -0.34375,1.27344 -1.27344,1.97657 -0.92968,0.70312 -2.375,0.70312 -1.82031,0 -2.89062,-1.11719 -1.0625,-1.125 -1.0625,-3.14843 0,-2.09375 1.07812,-3.25 1.07813,-1.15625 2.79688,-1.15625 1.66406,0 2.71875,1.13281 1.05469,1.13281 1.05469,3.1875 0,0.125 -0.008,0.375 h -6.1875 q 0.0781,1.36719 0.77344,2.09375 0.69531,0.72656 1.73438,0.72656 0.77343,0 1.32031,-0.40625 0.54687,-0.40625 0.86719,-1.29687 z m -4.61719,-2.27344 h 4.63281 q -0.0937,-1.04688 -0.53125,-1.57031 -0.67187,-0.8125 -1.74219,-0.8125 -0.96875,0 -1.63281,0.64843 -0.65625,0.64844 -0.72656,1.73438 z m 13.25,1.90625 1.38281,0.17969 q -0.22656,1.42968 -1.16406,2.24218 -0.92969,0.80469 -2.28906,0.80469 -1.70313,0 -2.74219,-1.10937 Q 478,162.37301 478,160.29488 q 0,-1.34375 0.44531,-2.35156 0.44531,-1.00781 1.35156,-1.50781 0.91407,-0.50781 1.98438,-0.50781 1.35156,0 2.21094,0.6875 0.85937,0.67968 1.10156,1.9375 l -1.36719,0.21093 q -0.19531,-0.83593 -0.69531,-1.25781 -0.49219,-0.42187 -1.19531,-0.42187 -1.0625,0 -1.72657,0.76562 -0.66406,0.75781 -0.66406,2.40625 0,1.67188 0.64063,2.42969 0.64062,0.75781 1.67187,0.75781 0.82813,0 1.38281,-0.50781 0.55469,-0.50781 0.70313,-1.5625 z m 5.65625,1.78125 0.20312,1.24219 q -0.59375,0.125 -1.0625,0.125 -0.76562,0 -1.1875,-0.24219 -0.42187,-0.24219 -0.59375,-0.63281 -0.17187,-0.39844 -0.17187,-1.66407 v -4.77343 h -1.03125 v -1.09375 h 1.03125 v -2.05469 l 1.39844,-0.84375 v 2.89844 H 489.5 v 1.09375 h -1.41406 v 4.85156 q 0,0.60156 0.0703,0.77344 0.0781,0.17187 0.24219,0.27343 0.17187,0.10157 0.48437,0.10157 0.23438,0 0.61719,-0.0547 z m 5.25781,-1.21875 1.39063,-0.21875 q 0.11718,0.83594 0.64843,1.28125 0.53907,0.44531 1.5,0.44531 0.96875,0 1.4375,-0.39062 0.46875,-0.39844 0.46875,-0.92969 0,-0.47656 -0.41406,-0.75 -0.28906,-0.1875 -1.4375,-0.47656 -1.54687,-0.39063 -2.14844,-0.67188 -0.59375,-0.28906 -0.90625,-0.78906 -0.30468,-0.50781 -0.30468,-1.11719 0,-0.55469 0.25,-1.02344 0.25781,-0.47656 0.69531,-0.78906 0.32812,-0.24219 0.89062,-0.40625 0.57032,-0.17187 1.21875,-0.17187 0.97657,0 1.71094,0.28125 0.74219,0.28125 1.09375,0.76562 0.35156,0.47656 0.48438,1.28125 l -1.375,0.1875 q -0.0937,-0.64062 -0.54688,-1 -0.44531,-0.35937 -1.26562,-0.35937 -0.96875,0 -1.38282,0.32031 -0.41406,0.32031 -0.41406,0.75 0,0.27344 0.17188,0.49219 0.17187,0.22656 0.53906,0.375 0.21094,0.0781 1.24219,0.35937 1.49218,0.39844 2.07812,0.65625 0.59375,0.25 0.92969,0.73438 0.33594,0.48437 0.33594,1.20312 0,0.70313 -0.41407,1.32813 -0.40625,0.61718 -1.17968,0.96093 -0.77344,0.33594 -1.75,0.33594 -1.61719,0 -2.46875,-0.67187 -0.84375,-0.67188 -1.07813,-1.99219 z m 8.57031,2.47656 v -11.45312 h 1.40625 v 6.53125 l 3.32813,-3.375 h 1.82031 l -3.17187,3.07812 3.49218,5.21875 h -1.73437 l -2.74219,-4.24219 -0.99219,0.95313 v 3.28906 z m 8,-9.83594 v -1.61718 h 1.40625 v 1.61718 z m 0,9.83594 v -8.29687 h 1.40625 v 8.29687 z m 3.51563,0 V 152.95895 H 516.25 v 11.45312 z m 3.55469,0 v -11.45312 h 1.40625 v 11.45312 z m 3.02343,-2.47656 1.39063,-0.21875 q 0.11719,0.83594 0.64844,1.28125 0.53906,0.44531 1.5,0.44531 0.96875,0 1.4375,-0.39062 0.46875,-0.39844 0.46875,-0.92969 0,-0.47656 -0.41407,-0.75 -0.28906,-0.1875 -1.4375,-0.47656 -1.54687,-0.39063 -2.14843,-0.67188 -0.59375,-0.28906 -0.90625,-0.78906 -0.30469,-0.50781 -0.30469,-1.11719 0,-0.55469 0.25,-1.02344 0.25781,-0.47656 0.69531,-0.78906 0.32813,-0.24219 0.89063,-0.40625 0.57031,-0.17187 1.21875,-0.17187 0.97656,0 1.71093,0.28125 0.74219,0.28125 1.09375,0.76562 0.35157,0.47656 0.48438,1.28125 l -1.375,0.1875 q -0.0937,-0.64062 -0.54688,-1 -0.44531,-0.35937 -1.26562,-0.35937 -0.96875,0 -1.38281,0.32031 -0.41407,0.32031 -0.41407,0.75 0,0.27344 0.17188,0.49219 0.17187,0.22656 0.53906,0.375 0.21094,0.0781 1.24219,0.35937 1.49219,0.39844 2.07812,0.65625 0.59375,0.25 0.92969,0.73438 0.33594,0.48437 0.33594,1.20312 0,0.70313 -0.41406,1.32813 -0.40625,0.61718 -1.17969,0.96093 -0.77344,0.33594 -1.75,0.33594 -1.61719,0 -2.46875,-0.67187 -0.84375,-0.67188 -1.07813,-1.99219 z m 16.07813,1.21875 0.20312,1.24219 q -0.59375,0.125 -1.0625,0.125 -0.76562,0 -1.1875,-0.24219 -0.42187,-0.24219 -0.59375,-0.63281 -0.17187,-0.39844 -0.17187,-1.66407 v -4.77343 h -1.03125 v -1.09375 h 1.03125 v -2.05469 l 1.39844,-0.84375 v 2.89844 H 537.5 v 1.09375 h -1.41406 v 4.85156 q 0,0.60156 0.0703,0.77344 0.0781,0.17187 0.24219,0.27343 0.17187,0.10157 0.48437,0.10157 0.23438,0 0.61719,-0.0547 z m 0.85156,-2.89063 q 0,-2.30468 1.28125,-3.41406 1.07031,-0.92187 2.60938,-0.92187 1.71093,0 2.79687,1.125 1.08594,1.11718 1.08594,3.09375 0,1.60156 -0.48438,2.52343 -0.47656,0.91407 -1.39843,1.42188 -0.91407,0.50781 -2,0.50781 -1.74219,0 -2.82032,-1.11719 -1.07031,-1.11718 -1.07031,-3.21875 z m 1.44531,0 q 0,1.59375 0.69532,2.39063 0.69531,0.78906 1.75,0.78906 1.04687,0 1.74218,-0.79687 0.69532,-0.79688 0.69532,-2.42969 0,-1.53906 -0.70313,-2.32813 -0.69531,-0.79687 -1.73437,-0.79687 -1.05469,0 -1.75,0.78906 -0.69532,0.78906 -0.69532,2.38281 z m 15.49219,2.89063 0.20313,1.24219 q -0.59375,0.125 -1.0625,0.125 -0.76563,0 -1.1875,-0.24219 -0.42188,-0.24219 -0.59375,-0.63281 -0.17188,-0.39844 -0.17188,-1.66407 v -4.77343 h -1.03125 v -1.09375 h 1.03125 v -2.05469 l 1.39844,-0.84375 v 2.89844 h 1.41406 v 1.09375 H 553.875 v 4.85156 q 0,0.60156 0.0703,0.77344 0.0781,0.17187 0.24219,0.27343 0.17187,0.10157 0.48437,0.10157 0.23438,0 0.61719,-0.0547 z m 1.375,1.25781 v -11.45312 h 1.40625 v 4.10937 q 0.98438,-1.14062 2.48438,-1.14062 0.92187,0 1.60156,0.36718 0.67969,0.35938 0.96875,1 0.29687,0.64063 0.29687,1.85938 v 5.25781 h -1.40625 v -5.25781 q 0,-1.05469 -0.46093,-1.53125 -0.45313,-0.48438 -1.28907,-0.48438 -0.625,0 -1.17968,0.32813 -0.54688,0.32031 -0.78125,0.875 -0.23438,0.55469 -0.23438,1.53125 v 4.53906 z m 14.57813,-2.67187 1.45312,0.17968 q -0.34375,1.27344 -1.27344,1.97657 -0.92968,0.70312 -2.375,0.70312 -1.82031,0 -2.89062,-1.11719 -1.0625,-1.125 -1.0625,-3.14843 0,-2.09375 1.07812,-3.25 1.07813,-1.15625 2.79688,-1.15625 1.66406,0 2.71875,1.13281 1.05469,1.13281 1.05469,3.1875 0,0.125 -0.008,0.375 h -6.1875 q 0.0781,1.36719 0.77344,2.09375 0.69531,0.72656 1.73438,0.72656 0.77343,0 1.32031,-0.40625 0.54687,-0.40625 0.86719,-1.29687 z m -4.61719,-2.27344 h 4.63281 q -0.0937,-1.04688 -0.53125,-1.57031 -0.67187,-0.8125 -1.74219,-0.8125 -0.96875,0 -1.63281,0.64843 -0.65625,0.64844 -0.72656,1.73438 z m 11.71875,2.46875 1.39062,-0.21875 q 0.11719,0.83594 0.64844,1.28125 0.53906,0.44531 1.5,0.44531 0.96875,0 1.4375,-0.39062 0.46875,-0.39844 0.46875,-0.92969 0,-0.47656 -0.41406,-0.75 -0.28906,-0.1875 -1.4375,-0.47656 -1.54688,-0.39063 -2.14844,-0.67188 -0.59375,-0.28906 -0.90625,-0.78906 -0.30469,-0.50781 -0.30469,-1.11719 0,-0.55469 0.25,-1.02344 0.25782,-0.47656 0.69532,-0.78906 0.32812,-0.24219 0.89062,-0.40625 0.57031,-0.17187 1.21875,-0.17187 0.97656,0 1.71094,0.28125 0.74219,0.28125 1.09375,0.76562 0.35156,0.47656 0.48437,1.28125 l -1.375,0.1875 q -0.0937,-0.64062 -0.54687,-1 -0.44531,-0.35937 -1.26563,-0.35937 -0.96875,0 -1.38281,0.32031 -0.41406,0.32031 -0.41406,0.75 0,0.27344 0.17187,0.49219 0.17188,0.22656 0.53907,0.375 0.21093,0.0781 1.24218,0.35937 1.49219,0.39844 2.07813,0.65625 0.59375,0.25 0.92969,0.73438 0.33593,0.48437 0.33593,1.20312 0,0.70313 -0.41406,1.32813 -0.40625,0.61718 -1.17969,0.96093 -0.77343,0.33594 -1.75,0.33594 -1.61718,0 -2.46875,-0.67187 -0.84375,-0.67188 -1.07812,-1.99219 z m 8.5625,2.47656 v -11.45312 h 1.40625 v 4.10937 q 0.98437,-1.14062 2.48437,-1.14062 0.92188,0 1.60157,0.36718 0.67968,0.35938 0.96875,1 0.29687,0.64063 0.29687,1.85938 v 5.25781 h -1.40625 v -5.25781 q 0,-1.05469 -0.46094,-1.53125 -0.45312,-0.48438 -1.28906,-0.48438 -0.625,0 -1.17969,0.32813 -0.54687,0.32031 -0.78125,0.875 -0.23437,0.55469 -0.23437,1.53125 v 4.53906 z m 8.90625,-9.83594 v -1.61718 h 1.40625 v 1.61718 z m 0,9.83594 v -8.29687 h 1.40625 v 8.29687 z m 3.88281,0 v -7.20312 h -1.24219 v -1.09375 h 1.24219 v -0.88282 q 0,-0.83593 0.14844,-1.24218 0.20312,-0.54688 0.71094,-0.88282 0.51562,-0.34375 1.4375,-0.34375 0.59375,0 1.3125,0.14063 l -0.21094,1.22656 q -0.4375,-0.0781 -0.82813,-0.0781 -0.64062,0 -0.90625,0.27343 -0.26562,0.27344 -0.26562,1.02344 v 0.76563 h 1.61719 v 1.09375 h -1.61719 v 7.20312 z m 7.17969,-1.25781 0.20312,1.24219 q -0.59375,0.125 -1.0625,0.125 -0.76562,0 -1.1875,-0.24219 -0.42187,-0.24219 -0.59375,-0.63281 -0.17187,-0.39844 -0.17187,-1.66407 v -4.77343 h -1.03125 v -1.09375 h 1.03125 v -2.05469 l 1.39844,-0.84375 v 2.89844 h 1.41406 v 1.09375 h -1.41406 v 4.85156 q 0,0.60156 0.0703,0.77344 0.0781,0.17187 0.24219,0.27343 0.17187,0.10157 0.48437,0.10157 0.23438,0 0.61719,-0.0547 z m 1.77344,1.25781 v -1.60156 H 610.25 v 1.60156 z"
       id="flowRoot4302-6"
       transform="translate(-20,314.36182)"
       aria-label="Assign the employee with the correct skills to the shift." />
    <flowRoot
       xml:space="preserve"
       id="flowRoot937"
       style="color:#000000;font-style:normal;font-variant:normal;font-weight:normal;font-stretch:normal;font-size:16px;font-family:Arial;-inkscape-font-specification:Arial;text-align:center;writing-mode:lr-tb;text-anchor:middle;display:inline;overflow:visible;visibility:visible;opacity:1;vector-effect:none;fill:#000000;fill-opacity:1;fill-rule:nonzero;stroke:#8f5902;stroke-width:3;stroke-linecap:round;stroke-linejoin:round;stroke-miterlimit:4;stroke-dasharray:none;stroke-dashoffset:0;stroke-opacity:1;marker:none;enable-background:accumulate"><flowRegion
         id="flowRegion939"><rect
           id="rect941"
           width="52.987019"
           height="116.1039"
           x="-94.285713"
           y="141.03894" /></flowRegion><flowPara
         id="flowPara943" /></flowRoot>
    <g
       id="g80"
       transform="translate(-0.86929902,86.928291)"
       style="display:inline" />
  </g>
  <g
     id="g360"
     style="display:inline;mix-blend-mode:normal"
     transform="translate(353.22987,-83.38541)">
    <path
       style="display:inline;fill:#000000;stroke:#000000;stroke-width:0.827449;stroke-linecap:round;stroke-linejoin:round;stroke-dasharray:none;stroke-opacity:1;fill-opacity:1"
       d="M -132.91383,440.86468 V 321.90613"
       id="path339" />
    <path
       style="font-size:14px;line-height:1.25;font-family:Arial;-inkscape-font-specification:Arial;stroke-width:1.00083"
       d="M 338.92969,47.214078 V 37.192593 h 1.99609 l 2.37207,7.095703 q 0.32813,0.991211 0.47852,1.483399 0.1709,-0.546875 0.5332,-1.606446 l 2.39941,-6.972656 h 1.78418 v 10.021485 h -1.27832 v -8.387696 l -2.91211,8.387696 h -1.19628 l -2.89844,-8.53125 v 8.53125 z m 11.08789,-3.629883 q 0,-2.016602 1.12109,-2.987305 0.93653,-0.806641 2.2832,-0.806641 1.49708,0 2.44727,0.984375 0.9502,0.977539 0.9502,2.707032 0,1.401367 -0.42383,2.208007 -0.41699,0.799805 -1.22364,1.244141 -0.7998,0.444336 -1.75,0.444336 -1.52441,0 -2.46777,-0.977539 -0.93652,-0.977539 -0.93652,-2.816406 z m 1.26465,0 q 0,1.394531 0.60839,2.091797 0.6084,0.690429 1.53125,0.690429 0.91602,0 1.52442,-0.697265 0.6084,-0.697266 0.6084,-2.125977 0,-1.34668 -0.61524,-2.037109 -0.6084,-0.697266 -1.51758,-0.697266 -0.92285,0 -1.53125,0.69043 -0.60839,0.690429 -0.60839,2.084961 z m 6.97949,3.629883 v -7.259766 h 1.10742 v 1.032226 q 0.79981,-1.196289 2.31055,-1.196289 0.65625,0 1.20312,0.239258 0.55371,0.232422 0.82715,0.615235 0.27344,0.382812 0.38281,0.909179 0.0684,0.341797 0.0684,1.196289 v 4.463868 h -1.23047 v -4.416016 q 0,-0.751953 -0.14355,-1.121094 -0.14356,-0.375976 -0.5127,-0.594726 -0.3623,-0.225586 -0.85449,-0.225586 -0.78613,0 -1.36035,0.499023 -0.56738,0.499024 -0.56738,1.893555 v 3.964844 z m 15.96875,0 H 373 v -7.840821 q -0.44434,0.423828 -1.16895,0.847656 -0.71777,0.423829 -1.29199,0.635743 v -1.189453 q 1.03223,-0.485352 1.80469,-1.175782 0.77246,-0.690429 1.09375,-1.339843 h 0.79297 z m 7.6084,0 V 37.192593 h 6.76074 v 1.182617 h -5.43457 v 3.103516 h 4.70312 v 1.182617 h -4.70312 v 4.552735 z m 13.2959,-2.337891 1.27148,0.157226 q -0.30078,1.114258 -1.11426,1.729493 -0.81347,0.615234 -2.07812,0.615234 -1.59278,0 -2.5293,-0.977539 -0.92969,-0.984375 -0.92969,-2.754883 0,-1.832031 0.94336,-2.84375 0.94336,-1.011719 2.44727,-1.011719 1.45605,0 2.3789,0.991211 0.92286,0.991211 0.92286,2.789063 0,0.109375 -0.007,0.328125 h -5.41406 q 0.0684,1.196289 0.67675,1.832031 0.6084,0.635742 1.51758,0.635742 0.67676,0 1.15528,-0.355468 0.47851,-0.355469 0.75879,-1.134766 z m -4.04004,-1.989258 h 4.05371 q -0.082,-0.916016 -0.46485,-1.374023 -0.58789,-0.710938 -1.52441,-0.710938 -0.84766,0 -1.42871,0.567383 -0.57422,0.567383 -0.63574,1.517578 z m 7.99121,4.327149 h -1.1416 V 37.192593 h 1.23046 v 3.575195 q 0.7793,-0.977539 1.98926,-0.977539 0.66992,0 1.26465,0.273438 0.60156,0.266601 0.98438,0.758789 0.38964,0.485352 0.60839,1.175781 0.21875,0.69043 0.21875,1.476563 0,1.866211 -0.92285,2.884765 -0.92285,1.018555 -2.21484,1.018555 -1.28516,0 -2.0166,-1.073242 z m -0.0137,-3.684571 q 0,1.305664 0.35546,1.886719 0.58106,0.950195 1.57227,0.950195 0.80664,0 1.39453,-0.697265 0.58789,-0.704102 0.58789,-2.091797 0,-1.421875 -0.56738,-2.098633 -0.56055,-0.676758 -1.36035,-0.676758 -0.80664,0 -1.39453,0.704102 -0.58789,0.697265 -0.58789,2.023437 z"
       id="flowRoot339"
       transform="matrix(0.99833337,0,0,1,-443.7269,286.23376)"
       aria-label="Mon 1 Feb" />
    <path
       style="display:inline;mix-blend-mode:normal;fill:none;stroke:#000000;stroke-width:0.827353;stroke-linecap:round;stroke-linejoin:round;stroke-dasharray:none;stroke-opacity:1"
       d="M -12.90465,440.83661 V 321.93587"
       id="path340" />
    <path
       style="font-size:14px;line-height:1.25;font-family:Arial;-inkscape-font-specification:Arial;stroke-width:1.00083"
       d="M 341.52051,47.214078 V 38.37521 h -3.30176 v -1.182617 h 7.94336 v 1.182617 h -3.31543 v 8.838868 z m 10.08301,0 v -1.066407 q -0.84766,1.230469 -2.30372,1.230469 -0.64257,0 -1.20312,-0.246094 -0.55371,-0.246093 -0.82715,-0.615234 -0.2666,-0.375977 -0.37598,-0.916016 -0.0752,-0.362304 -0.0752,-1.148437 v -4.498047 h 1.23047 v 4.026367 q 0,0.963867 0.0752,1.298828 0.11621,0.485352 0.49219,0.765625 0.37598,0.273438 0.92969,0.273438 0.55371,0 1.03906,-0.280274 0.48535,-0.287109 0.68359,-0.772461 0.20508,-0.492187 0.20508,-1.421875 v -3.889648 h 1.23047 v 7.259766 z m 7.99804,-2.337891 1.27149,0.157226 q -0.30078,1.114258 -1.11426,1.729493 -0.81348,0.615234 -2.07813,0.615234 -1.59277,0 -2.52929,-0.977539 -0.92969,-0.984375 -0.92969,-2.754883 0,-1.832031 0.94336,-2.84375 0.94336,-1.011719 2.44726,-1.011719 1.45606,0 2.37891,0.991211 0.92285,0.991211 0.92285,2.789063 0,0.109375 -0.007,0.328125 h -5.41407 q 0.0684,1.196289 0.67676,1.832031 0.6084,0.635742 1.51758,0.635742 0.67676,0 1.15527,-0.355468 0.47852,-0.355469 0.75879,-1.134766 z m -4.04004,-1.989258 h 4.05371 q -0.082,-0.916016 -0.46484,-1.374023 -0.58789,-0.710938 -1.52441,-0.710938 -0.84766,0 -1.42871,0.567383 -0.57422,0.567383 -0.63575,1.517578 z m 16.8711,3.144531 v 1.182618 h -6.62403 q -0.0137,-0.444336 0.14356,-0.854493 0.25293,-0.676757 0.80664,-1.333007 0.56055,-0.65625 1.61328,-1.517579 1.63379,-1.339843 2.20801,-2.11914 0.57422,-0.786133 0.57422,-1.483399 0,-0.731445 -0.52637,-1.230468 -0.51953,-0.50586 -1.36035,-0.50586 -0.88867,0 -1.42188,0.533203 -0.5332,0.533203 -0.54004,1.476563 l -1.26464,-0.129883 q 0.12988,-1.415039 0.97753,-2.15332 0.84766,-0.745117 2.27637,-0.745117 1.44238,0 2.2832,0.799804 0.84083,0.799805 0.84083,1.982422 0,0.601563 -0.2461,1.182617 -0.24609,0.581055 -0.82031,1.223633 -0.56738,0.642578 -1.89356,1.763672 -1.10742,0.929687 -1.42187,1.264648 -0.31445,0.328125 -0.51953,0.663086 z m 5.77636,1.182618 V 37.192593 h 6.76075 v 1.182617 h -5.43457 v 3.103516 h 4.70312 v 1.182617 h -4.70312 v 4.552735 z m 13.2959,-2.337891 1.27149,0.157226 q -0.30078,1.114258 -1.11426,1.729493 -0.81348,0.615234 -2.07813,0.615234 -1.59277,0 -2.52929,-0.977539 -0.92969,-0.984375 -0.92969,-2.754883 0,-1.832031 0.94336,-2.84375 0.94336,-1.011719 2.44726,-1.011719 1.45606,0 2.37891,0.991211 0.92285,0.991211 0.92285,2.789063 0,0.109375 -0.007,0.328125 h -5.41407 q 0.0684,1.196289 0.67676,1.832031 0.6084,0.635742 1.51758,0.635742 0.67676,0 1.15527,-0.355468 0.47852,-0.355469 0.75879,-1.134766 z m -4.04004,-1.989258 h 4.05371 q -0.082,-0.916016 -0.46484,-1.374023 -0.58789,-0.710938 -1.52441,-0.710938 -0.84766,0 -1.42871,0.567383 -0.57422,0.567383 -0.63575,1.517578 z m 7.99121,4.327149 h -1.1416 V 37.192593 h 1.23047 v 3.575195 q 0.7793,-0.977539 1.98926,-0.977539 0.66992,0 1.26465,0.273438 0.60156,0.266601 0.98437,0.758789 0.38965,0.485352 0.6084,1.175781 0.21875,0.69043 0.21875,1.476563 0,1.866211 -0.92285,2.884765 -0.92285,1.018555 -2.21484,1.018555 -1.28516,0 -2.01661,-1.073242 z m -0.0137,-3.684571 q 0,1.305664 0.35547,1.886719 0.58106,0.950195 1.57227,0.950195 0.80664,0 1.39453,-0.697265 0.58789,-0.704102 0.58789,-2.091797 0,-1.421875 -0.56738,-2.098633 -0.56055,-0.676758 -1.36036,-0.676758 -0.80664,0 -1.39453,0.704102 -0.58789,0.697265 -0.58789,2.023437 z"
       id="flowRoot340"
       transform="matrix(0.99833337,0,0,1,-321.55467,286.23376)"
       aria-label="Tue 2 Feb" />
    <path
       style="display:inline;opacity:1;mix-blend-mode:normal;fill:none;stroke:#000000;stroke-width:0.939055;stroke-linecap:round;stroke-linejoin:round;stroke-dasharray:none;stroke-opacity:1;marker-start:url(#Triangle-02_reversed)"
       d="M 260.11023,339.16556 H -132.75093"
       id="path341" />
    <path
       style="display:inline;opacity:1;mix-blend-mode:normal;fill:none;stroke:#000000;stroke-width:0.939037;stroke-linecap:round;stroke-linejoin:round;stroke-dasharray:none;stroke-opacity:1;marker-start:url(#Triangle-02-6_reversed)"
       d="M 260.10544,390.60706 H -132.75064"
       id="path342" />
    <path
       style="display:inline;opacity:1;mix-blend-mode:normal;fill:none;stroke:#000000;stroke-width:0.939037;stroke-linecap:round;stroke-linejoin:round;stroke-dasharray:none;stroke-opacity:1;marker-start:url(#Triangle-02-6-2_reversed)"
       d="M 260.10544,442.0487 H -132.75064"
       id="path343" />
    <path
       style="font-size:14px;line-height:1.25;font-family:Arial;-inkscape-font-specification:Arial;stroke-width:1.00083"
       d="m 340.7207,47.214078 -2.65918,-10.021485 h 1.36035 l 1.52442,6.569336 q 0.24609,1.032227 0.42383,2.050781 0.38281,-1.606445 0.45117,-1.852539 l 1.90723,-6.767578 h 1.5996 l 1.43555,5.072266 q 0.54004,1.886719 0.7793,3.547851 0.1914,-0.950195 0.49902,-2.180664 l 1.57227,-6.439453 h 1.33301 l -2.74805,10.021485 h -1.27832 l -2.11231,-7.635743 q -0.2666,-0.957031 -0.31445,-1.175781 -0.15723,0.69043 -0.29394,1.175781 l -2.12598,7.635743 z m 16.02344,-2.337891 1.27148,0.157226 q -0.30078,1.114258 -1.11425,1.729493 -0.81348,0.615234 -2.07813,0.615234 -1.59277,0 -2.52929,-0.977539 -0.92969,-0.984375 -0.92969,-2.754883 0,-1.832031 0.94336,-2.84375 0.94336,-1.011719 2.44726,-1.011719 1.45606,0 2.37891,0.991211 0.92285,0.991211 0.92285,2.789063 0,0.109375 -0.007,0.328125 h -5.41406 q 0.0684,1.196289 0.67676,1.832031 0.6084,0.635742 1.51758,0.635742 0.67676,0 1.15527,-0.355468 0.47852,-0.355469 0.75879,-1.134766 z m -4.04004,-1.989258 h 4.05371 q -0.082,-0.916016 -0.46484,-1.374023 -0.58789,-0.710938 -1.52442,-0.710938 -0.84765,0 -1.42871,0.567383 -0.57422,0.567383 -0.63574,1.517578 z m 11.56641,4.327149 v -0.916016 q -0.69043,1.080078 -2.03028,1.080078 -0.86816,0 -1.59961,-0.478516 -0.7246,-0.478515 -1.12792,-1.333007 -0.39649,-0.861329 -0.39649,-1.975586 0,-1.086914 0.36231,-1.96875 0.3623,-0.888672 1.08691,-1.360352 0.72461,-0.47168 1.62012,-0.47168 0.65625,0 1.16894,0.280274 0.5127,0.273437 0.83399,0.717773 v -3.595703 h 1.22363 v 10.021485 z m -3.88965,-3.623047 q 0,1.394531 0.58789,2.084961 0.58789,0.690429 1.3877,0.690429 0.80664,0 1.36718,-0.65625 0.56739,-0.663086 0.56739,-2.016601 0,-1.490235 -0.57422,-2.1875 -0.57422,-0.697266 -1.41504,-0.697266 -0.82031,0 -1.37403,0.669922 -0.54687,0.669922 -0.54687,2.112305 z m 10.52051,0.977539 1.23047,-0.164063 q 0.21191,1.045899 0.71777,1.510742 0.51269,0.458008 1.24414,0.458008 0.86816,0 1.46289,-0.601562 0.60156,-0.601563 0.60156,-1.490235 0,-0.847656 -0.55371,-1.394531 -0.55371,-0.553711 -1.4082,-0.553711 -0.34863,0 -0.86817,0.136719 l 0.13672,-1.080078 q 0.12305,0.01367 0.19825,0.01367 0.78613,0 1.41503,-0.410157 0.62891,-0.410156 0.62891,-1.264648 0,-0.676758 -0.45801,-1.121094 -0.458,-0.444336 -1.18261,-0.444336 -0.71778,0 -1.19629,0.451172 -0.47852,0.451172 -0.61524,1.353516 l -1.23047,-0.21875 q 0.22559,-1.237305 1.02539,-1.914063 0.79981,-0.683593 1.98926,-0.683593 0.82031,0 1.51074,0.355468 0.69043,0.348633 1.05274,0.957032 0.36914,0.608398 0.36914,1.291992 0,0.649414 -0.34863,1.182617 -0.34864,0.533203 -1.03223,0.847656 0.88867,0.205078 1.38086,0.854492 0.49219,0.642578 0.49219,1.613282 0,1.3125 -0.95703,2.228515 -0.95704,0.90918 -2.41993,0.90918 -1.31933,0 -2.19433,-0.786133 -0.86817,-0.786133 -0.99121,-2.037109 z m 12.23633,2.645508 V 37.192593 h 6.76074 v 1.182617 h -5.43457 v 3.103516 h 4.70312 v 1.182617 h -4.70312 v 4.552735 z m 13.29589,-2.337891 1.27149,0.157226 q -0.30078,1.114258 -1.11426,1.729493 -0.81348,0.615234 -2.07812,0.615234 -1.59278,0 -2.5293,-0.977539 -0.92969,-0.984375 -0.92969,-2.754883 0,-1.832031 0.94336,-2.84375 0.94336,-1.011719 2.44727,-1.011719 1.45605,0 2.3789,0.991211 0.92285,0.991211 0.92285,2.789063 0,0.109375 -0.007,0.328125 h -5.41406 q 0.0684,1.196289 0.67675,1.832031 0.6084,0.635742 1.51758,0.635742 0.67676,0 1.15527,-0.355468 0.47852,-0.355469 0.75879,-1.134766 z m -4.04004,-1.989258 h 4.05372 q -0.082,-0.916016 -0.46485,-1.374023 -0.58789,-0.710938 -1.52441,-0.710938 -0.84766,0 -1.42871,0.567383 -0.57422,0.567383 -0.63575,1.517578 z m 7.99122,4.327149 h -1.14161 V 37.192593 h 1.23047 v 3.575195 q 0.7793,-0.977539 1.98926,-0.977539 0.66992,0 1.26465,0.273438 0.60156,0.266601 0.98437,0.758789 0.38965,0.485352 0.6084,1.175781 0.21875,0.69043 0.21875,1.476563 0,1.866211 -0.92285,2.884765 -0.92285,1.018555 -2.21484,1.018555 -1.28516,0 -2.0166,-1.073242 z m -0.0137,-3.684571 q 0,1.305664 0.35547,1.886719 0.58106,0.950195 1.57227,0.950195 0.80664,0 1.39453,-0.697265 0.58789,-0.704102 0.58789,-2.091797 0,-1.421875 -0.56738,-2.098633 -0.56055,-0.676758 -1.36035,-0.676758 -0.80665,0 -1.39454,0.704102 -0.58789,0.697265 -0.58789,2.023437 z"
       id="flowRoot343"
       transform="matrix(0.99833337,0,0,1,-203.93649,286.23376)"
       aria-label="Wed 3 Feb" />
    <path
       style="font-size:16.0303px;font-family:Arial;-inkscape-font-specification:Arial;stroke-width:0.999998"
       d="m -172.90278,409.89438 v -11.47482 h 4.30501 q 1.31499,0 2.10555,0.35223 0.79838,0.3444 1.24453,1.07234 0.45399,0.72011 0.45399,1.51067 0,0.73577 -0.39919,1.38543 -0.3992,0.64967 -1.20541,1.04886 1.04103,0.30526 1.59677,1.04103 0.56357,0.73576 0.56357,1.73766 0,0.80621 -0.3444,1.50284 -0.33658,0.6888 -0.83753,1.06451 -0.50094,0.37571 -1.26019,0.57139 -0.75142,0.18786 -1.84724,0.18786 z m 1.5185,-6.6532 h 2.48125 q 1.00972,0 1.44805,-0.13307 0.57922,-0.1722 0.86883,-0.57139 0.29743,-0.39919 0.29743,-1.00189 0,-0.57139 -0.27395,-1.0019 -0.27396,-0.43832 -0.78273,-0.59487 -0.50877,-0.16437 -1.74549,-0.16437 h -2.29339 z m 0,5.29908 h 2.85696 q 0.73576,0 1.0332,-0.0548 0.52443,-0.0939 0.87666,-0.3131 0.35223,-0.21916 0.57922,-0.63401 0.22699,-0.42267 0.22699,-0.97058 0,-0.64184 -0.32875,-1.11148 -0.32874,-0.47746 -0.91579,-0.66532 -0.57922,-0.19568 -1.67504,-0.19568 h -2.65345 z m 14.74662,-1.32282 1.45588,0.18003 q -0.3444,1.27585 -1.27585,1.98031 -0.93145,0.70445 -2.3795,0.70445 -1.82376,0 -2.8961,-1.1193 -1.06451,-1.12713 -1.06451,-3.1544 0,-2.09771 1.08017,-3.25615 1.08016,-1.15844 2.80217,-1.15844 1.66721,0 2.7239,1.13495 1.05668,1.13496 1.05668,3.19354 0,0.12524 -0.008,0.37571 h -6.19921 q 0.0783,1.36978 0.7749,2.09772 0.69663,0.72793 1.73766,0.72793 0.7749,0 1.32281,-0.40702 0.54791,-0.40701 0.86883,-1.29933 z m -4.62593,-2.27774 h 4.64158 q -0.0939,-1.04886 -0.53225,-1.57329 -0.67315,-0.81403 -1.74549,-0.81403 -0.97058,0 -1.6359,0.64966 -0.6575,0.64967 -0.72794,1.73766 z m 10.9269,3.69448 0.20351,1.24454 q -0.59487,0.12524 -1.06451,0.12524 -0.76708,0 -1.18975,-0.24265 -0.42267,-0.24264 -0.59487,-0.63401 -0.1722,-0.39919 -0.1722,-1.66721 v -4.78248 h -1.03321 v -1.09582 h 1.03321 v -2.05858 l 1.40108,-0.84535 v 2.90393 h 1.41674 v 1.09582 h -1.41674 v 4.86075 q 0,0.6027 0.0705,0.77491 0.0783,0.1722 0.24264,0.27395 0.1722,0.10176 0.4853,0.10176 0.23481,0 0.61835,-0.0548 z m 1.37761,1.2602 v -11.47482 h 1.40891 v 4.11716 q 0.98624,-1.14278 2.48908,-1.14278 0.92362,0 1.6046,0.36788 0.68097,0.36005 0.97058,1.00189 0.29744,0.64184 0.29744,1.8629 v 5.26777 h -1.40892 v -5.26777 q 0,-1.05669 -0.46181,-1.53415 -0.45398,-0.48529 -1.2915,-0.48529 -0.62618,0 -1.18192,0.32874 -0.54791,0.32092 -0.78273,0.87666 -0.23482,0.55574 -0.23482,1.53415 v 4.54766 z"
       id="text344"
       transform="scale(1.0018917,0.99811188)"
       aria-label="Beth" />
    <path
       style="font-size:16.0303px;font-family:Arial;-inkscape-font-specification:Arial;stroke-width:0.999998"
       d="m -169.63096,359.89957 4.40676,-11.47482 h 1.63591 l 4.69637,11.47482 h -1.72983 l -1.33847,-3.47532 h -4.79813 l -1.26019,3.47532 z m 3.31094,-4.71203 h 3.89017 l -1.19758,-3.17789 q -0.54791,-1.44805 -0.81404,-2.37949 -0.21916,1.10364 -0.61835,2.19164 z m 8.46131,4.71203 v -8.31259 h 1.26802 v 1.18192 q 0.91579,-1.36978 2.64562,-1.36978 0.75142,0 1.37761,0.27396 0.63401,0.26613 0.9471,0.70446 0.31309,0.43832 0.43833,1.04103 0.0783,0.39136 0.0783,1.36977 v 5.11123 h -1.40891 v -5.05644 q 0,-0.861 -0.16437,-1.28367 -0.16438,-0.4305 -0.58705,-0.68098 -0.41485,-0.2583 -0.97841,-0.2583 -0.90014,0 -1.55763,0.57139 -0.64967,0.5714 -0.64967,2.16817 v 4.53983 z m 8.91529,0 v -8.31259 h 1.26802 v 1.18192 q 0.91579,-1.36978 2.64562,-1.36978 0.75142,0 1.37761,0.27396 0.63401,0.26613 0.9471,0.70446 0.31309,0.43832 0.43833,1.04103 0.0783,0.39136 0.0783,1.36977 v 5.11123 h -1.40891 v -5.05644 q 0,-0.861 -0.16437,-1.28367 -0.16438,-0.4305 -0.58705,-0.68098 -0.41485,-0.2583 -0.97841,-0.2583 -0.90014,0 -1.55764,0.57139 -0.64966,0.5714 -0.64966,2.16817 v 4.53983 z"
       id="text345"
       transform="scale(1.0018917,0.99811188)"
       aria-label="Ann" />
    <path
       style="display:inline;mix-blend-mode:normal;fill:none;stroke:#000000;stroke-width:0.827353;stroke-linecap:round;stroke-linejoin:round;stroke-dasharray:none;stroke-opacity:1"
       d="M 107.1844,440.8453 V 321.94455"
       id="path345" />
    <path
       style="display:inline;mix-blend-mode:normal;fill:none;stroke:#000000;stroke-width:0.827353;stroke-linecap:round;stroke-linejoin:round;stroke-dasharray:none;stroke-opacity:1"
       d="M 227.27353,440.8453 V 321.94455"
       id="path346" />
  </g>
</svg>
