<?xml version="1.0" encoding="UTF-8" standalone="no"?>
<svg
   width="800"
   height="600"
   id="svg2"
   version="1.1"
   xml:space="preserve"
   xmlns:xlink="http://www.w3.org/1999/xlink"
   xmlns="http://www.w3.org/2000/svg"
   xmlns:svg="http://www.w3.org/2000/svg"
   xmlns:rdf="http://www.w3.org/1999/02/22-rdf-syntax-ns#"
   xmlns:cc="http://creativecommons.org/ns#"
   xmlns:dc="http://purl.org/dc/elements/1.1/"><defs
     id="defs4"><linearGradient
       y2="259.30499"
       y1="259.30499"
       gradientTransform="matrix(1,0,0,-1,8.3999,368.3)"
       x2="195.59801"
       gradientUnits="userSpaceOnUse"
       x1="129.342"
       id="al"><stop
         id="stop1487"
         offset="0"
         stop-color="#FAC700" /><stop
         id="stop1489"
         offset=".415"
         stop-color="#F7C400" /><stop
         id="stop1491"
         offset="1"
         stop-color="#F7C400" /></linearGradient><linearGradient
       y2="259.311"
       y1="259.311"
       gradientTransform="matrix(1,0,0,-1,8.3999,368.3)"
       x2="195.554"
       gradientUnits="userSpaceOnUse"
       x1="129.293"
       id="am"><stop
         id="stop1496"
         offset="0"
         stop-color="#F6C200" /><stop
         id="stop1498"
         offset=".415"
         stop-color="#EFBC00" /><stop
         id="stop1500"
         offset="1"
         stop-color="#EFBC00" /></linearGradient><linearGradient
       y2="259.31699"
       y1="259.31699"
       gradientTransform="matrix(1,0,0,-1,8.3999,368.3)"
       x2="195.50999"
       gradientUnits="userSpaceOnUse"
       x1="129.245"
       id="an"><stop
         id="stop1505"
         offset="0"
         stop-color="#F1BD00" /><stop
         id="stop1507"
         offset=".415"
         stop-color="#E8B500" /><stop
         id="stop1509"
         offset="1"
         stop-color="#E8B500" /></linearGradient><linearGradient
       y2="259.32199"
       y1="259.32199"
       gradientTransform="matrix(1,0,0,-1,8.3999,368.3)"
       x2="195.465"
       gradientUnits="userSpaceOnUse"
       x1="129.196"
       id="ao"><stop
         id="stop1514"
         offset="0"
         stop-color="#EDB800" /><stop
         id="stop1516"
         offset=".415"
         stop-color="#E0AD00" /><stop
         id="stop1518"
         offset="1"
         stop-color="#E0AD00" /></linearGradient><linearGradient
       y2="259.327"
       y1="259.327"
       gradientTransform="matrix(1,0,0,-1,8.3999,368.3)"
       x2="195.422"
       gradientUnits="userSpaceOnUse"
       x1="129.14799"
       id="ap"><stop
         id="stop1523"
         offset="0"
         stop-color="#E9B300" /><stop
         id="stop1525"
         offset=".415"
         stop-color="#D8A500" /><stop
         id="stop1527"
         offset="1"
         stop-color="#D8A500" /></linearGradient><linearGradient
       y2="259.332"
       y1="259.332"
       gradientTransform="matrix(1,0,0,-1,8.3999,368.3)"
       x2="195.379"
       gradientUnits="userSpaceOnUse"
       x1="129.099"
       id="aq"><stop
         id="stop1532"
         offset="0"
         stop-color="#E4AE00" /><stop
         id="stop1534"
         offset=".415"
         stop-color="#D19E00" /><stop
         id="stop1536"
         offset="1"
         stop-color="#D19E00" /></linearGradient><linearGradient
       y2="259.336"
       y1="259.336"
       gradientTransform="matrix(1,0,0,-1,8.3999,368.3)"
       x2="195.338"
       gradientUnits="userSpaceOnUse"
       x1="129.05099"
       id="ar"><stop
         id="stop1541"
         offset="0"
         stop-color="#E0A900" /><stop
         id="stop1543"
         offset=".415"
         stop-color="#C99600" /><stop
         id="stop1545"
         offset="1"
         stop-color="#C99600" /></linearGradient><linearGradient
       y2="259.34"
       y1="259.34"
       gradientTransform="matrix(1,0,0,-1,8.3999,368.3)"
       x2="195.29601"
       gradientUnits="userSpaceOnUse"
       x1="129.00301"
       id="w"><stop
         id="stop1550"
         offset="0"
         stop-color="#DCA400" /><stop
         id="stop1552"
         offset=".415"
         stop-color="#C18E00" /><stop
         id="stop1554"
         offset="1"
         stop-color="#C18E00" /></linearGradient><linearGradient
       y2="259.34299"
       y1="259.34299"
       gradientTransform="matrix(1,0,0,-1,8.3999,368.3)"
       x2="195.255"
       gradientUnits="userSpaceOnUse"
       x1="128.95399"
       id="x"><stop
         id="stop1559"
         offset="0"
         stop-color="#D79F00" /><stop
         id="stop1561"
         offset=".415"
         stop-color="#BA8700" /><stop
         id="stop1563"
         offset="1"
         stop-color="#BA8700" /></linearGradient><linearGradient
       y2="259.34799"
       y1="259.34799"
       gradientTransform="matrix(1,0,0,-1,8.3999,368.3)"
       x2="195.216"
       gradientUnits="userSpaceOnUse"
       x1="128.90601"
       id="y"><stop
         id="stop1568"
         offset="0"
         stop-color="#D39B00" /><stop
         id="stop1570"
         offset=".415"
         stop-color="#B27F00" /><stop
         id="stop1572"
         offset="1"
         stop-color="#B27F00" /></linearGradient><linearGradient
       y2="259.35001"
       y1="259.35001"
       gradientTransform="matrix(1,0,0,-1,8.3999,368.3)"
       x2="195.17599"
       gradientUnits="userSpaceOnUse"
       x1="128.85699"
       id="z"><stop
         id="stop1577"
         offset="0"
         stop-color="#CF9600" /><stop
         id="stop1579"
         offset=".415"
         stop-color="#a70" /><stop
         id="stop1581"
         offset="1"
         stop-color="#a70" /></linearGradient><linearGradient
       y2="259.354"
       y1="259.354"
       gradientTransform="matrix(1,0,0,-1,8.3999,368.3)"
       x2="195.13699"
       gradientUnits="userSpaceOnUse"
       x1="128.80901"
       id="aa"><stop
         id="stop1586"
         offset="0"
         stop-color="#CA9100" /><stop
         id="stop1588"
         offset=".415"
         stop-color="#A37000" /><stop
         id="stop1590"
         offset="1"
         stop-color="#A37000" /></linearGradient><linearGradient
       y2="259.35599"
       y1="259.35599"
       gradientTransform="matrix(1,0,0,-1,8.3999,368.3)"
       x2="195.099"
       gradientUnits="userSpaceOnUse"
       x1="128.75999"
       id="ab"><stop
         id="stop1595"
         offset="0"
         stop-color="#C68C00" /><stop
         id="stop1597"
         offset=".415"
         stop-color="#9B6800" /><stop
         id="stop1599"
         offset="1"
         stop-color="#9B6800" /></linearGradient><linearGradient
       y2="259.358"
       y1="259.358"
       gradientTransform="matrix(1,0,0,-1,8.3999,368.3)"
       x2="195.062"
       gradientUnits="userSpaceOnUse"
       x1="128.71201"
       id="ac"><stop
         id="stop1604"
         offset="0"
         stop-color="#C28700" /><stop
         id="stop1606"
         offset=".415"
         stop-color="#936000" /><stop
         id="stop1608"
         offset="1"
         stop-color="#936000" /></linearGradient><linearGradient
       y2="259.35999"
       y1="259.35999"
       gradientTransform="matrix(1,0,0,-1,8.3999,368.3)"
       x2="195.02499"
       gradientUnits="userSpaceOnUse"
       x1="128.66299"
       id="ad"><stop
         id="stop1613"
         offset="0"
         stop-color="#BD8200" /><stop
         id="stop1615"
         offset=".415"
         stop-color="#8C5900" /><stop
         id="stop1617"
         offset="1"
         stop-color="#8C5900" /></linearGradient><linearGradient
       y2="259.362"
       y1="259.362"
       gradientTransform="matrix(1,0,0,-1,8.3999,368.3)"
       x2="194.989"
       gradientUnits="userSpaceOnUse"
       x1="128.61501"
       id="ae"><stop
         id="stop1622"
         offset="0"
         stop-color="#B97D00" /><stop
         id="stop1624"
         offset=".415"
         stop-color="#845100" /><stop
         id="stop1626"
         offset="1"
         stop-color="#845100" /></linearGradient><linearGradient
       y2="259.36401"
       y1="259.36401"
       gradientTransform="matrix(1,0,0,-1,8.3999,368.3)"
       x2="194.95399"
       gradientUnits="userSpaceOnUse"
       x1="128.567"
       id="af"><stop
         id="stop1631"
         offset="0"
         stop-color="#B57800" /><stop
         id="stop1633"
         offset=".415"
         stop-color="#7C4900" /><stop
         id="stop1635"
         offset="1"
         stop-color="#7C4900" /></linearGradient><linearGradient
       y2="259.366"
       y1="259.366"
       gradientTransform="matrix(1,0,0,-1,8.3999,368.3)"
       x2="194.918"
       gradientUnits="userSpaceOnUse"
       x1="128.51801"
       id="ah"><stop
         id="stop1640"
         offset="0"
         stop-color="#B07300" /><stop
         id="stop1642"
         offset=".415"
         stop-color="#754200" /><stop
         id="stop1644"
         offset="1"
         stop-color="#754200" /></linearGradient><linearGradient
       y2="259.367"
       y1="259.367"
       gradientTransform="matrix(1,0,0,-1,8.3999,368.3)"
       x2="194.886"
       gradientUnits="userSpaceOnUse"
       x1="128.47"
       id="ai"><stop
         id="stop1649"
         offset="0"
         stop-color="#AC6E00" /><stop
         id="stop1651"
         offset=".415"
         stop-color="#6D3A00" /><stop
         id="stop1653"
         offset="1"
         stop-color="#6D3A00" /></linearGradient><linearGradient
       y2="259.36899"
       y1="259.36899"
       gradientTransform="matrix(1,0,0,-1,8.3999,368.3)"
       x2="194.85001"
       gradientUnits="userSpaceOnUse"
       x1="128.42101"
       id="aj"><stop
         id="stop1658"
         offset="0"
         stop-color="#A86A00" /><stop
         id="stop1660"
         offset=".415"
         stop-color="#663200" /><stop
         id="stop1662"
         offset="1"
         stop-color="#663200" /></linearGradient><linearGradient
       id="linearGradient4689"><stop
         style="stop-color:#5a9fd4;stop-opacity:1;"
         offset="0"
         id="stop4691" /><stop
         style="stop-color:#306998;stop-opacity:1;"
         offset="1"
         id="stop4693" /></linearGradient><linearGradient
       id="linearGradient4671"><stop
         style="stop-color:#ffd43b;stop-opacity:1;"
         offset="0"
         id="stop4673" /><stop
         style="stop-color:#ffe873;stop-opacity:1"
         offset="1"
         id="stop4675" /></linearGradient><linearGradient
       x1="-7708.7969"
       y1="-803.36011"
       x2="-7633.1528"
       y2="-714.90741"
       id="SVGID_1_-2"
       gradientUnits="userSpaceOnUse"
       gradientTransform="matrix(0.4226,-0.9063,0.9063,0.4226,4226.9761,-6584.5938)"><stop
         id="stop4704"
         style="stop-color:#f69923;stop-opacity:1"
         offset="0" /><stop
         id="stop4706"
         style="stop-color:#f79a23;stop-opacity:1"
         offset="0.3123" /><stop
         id="stop4708"
         style="stop-color:#e97826;stop-opacity:1"
         offset="0.83829999" /></linearGradient><linearGradient
       x1="-8268.6387"
       y1="-813.12323"
       x2="-7728.9585"
       y2="-813.12323"
       id="SVGID_2_-4"
       gradientUnits="userSpaceOnUse"
       gradientTransform="matrix(0.4226,-0.9063,0.9063,0.4226,4226.9761,-6584.5938)"><stop
         id="stop4729"
         style="stop-color:#9e2064;stop-opacity:1"
         offset="0.3233" /><stop
         id="stop4731"
         style="stop-color:#c92037;stop-opacity:1"
         offset="0.63020003" /><stop
         id="stop4733"
         style="stop-color:#cd2335;stop-opacity:1"
         offset="0.75139999" /><stop
         id="stop4735"
         style="stop-color:#e97826;stop-opacity:1"
         offset="1" /></linearGradient><linearGradient
       x1="-8203.4922"
       y1="-758.99402"
       x2="-7881.895"
       y2="-758.99402"
       id="SVGID_3_-0"
       gradientUnits="userSpaceOnUse"
       gradientTransform="matrix(0.4226,-0.9063,0.9063,0.4226,4226.9761,-6584.5938)"><stop
         id="stop4740"
         style="stop-color:#282662;stop-opacity:1"
         offset="0" /><stop
         id="stop4742"
         style="stop-color:#662e8d;stop-opacity:1"
         offset="0.0954839" /><stop
         id="stop4744"
         style="stop-color:#9f2064;stop-opacity:1"
         offset="0.78820002" /><stop
         id="stop4746"
         style="stop-color:#cd2032;stop-opacity:1"
         offset="0.94870001" /></linearGradient><linearGradient
       x1="-8238.3281"
       y1="-818.15222"
       x2="-7698.647"
       y2="-818.15222"
       id="SVGID_4_-6"
       gradientUnits="userSpaceOnUse"
       gradientTransform="matrix(0.4226,-0.9063,0.9063,0.4226,4226.9761,-6584.5938)"><stop
         id="stop4751"
         style="stop-color:#9e2064;stop-opacity:1"
         offset="0.3233" /><stop
         id="stop4753"
         style="stop-color:#c92037;stop-opacity:1"
         offset="0.63020003" /><stop
         id="stop4755"
         style="stop-color:#cd2335;stop-opacity:1"
         offset="0.75139999" /><stop
         id="stop4757"
         style="stop-color:#e97826;stop-opacity:1"
         offset="1" /></linearGradient><linearGradient
       x1="-8198.9678"
       y1="-810.85059"
       x2="-7915.3501"
       y2="-810.85059"
       id="SVGID_5_-2"
       gradientUnits="userSpaceOnUse"
       gradientTransform="matrix(0.4226,-0.9063,0.9063,0.4226,4226.9761,-6584.5938)"><stop
         id="stop4762"
         style="stop-color:#282662;stop-opacity:1"
         offset="0" /><stop
         id="stop4764"
         style="stop-color:#662e8d;stop-opacity:1"
         offset="0.0954839" /><stop
         id="stop4766"
         style="stop-color:#9f2064;stop-opacity:1"
         offset="0.78820002" /><stop
         id="stop4768"
         style="stop-color:#cd2032;stop-opacity:1"
         offset="0.94870001" /></linearGradient><linearGradient
       x1="-8238.3281"
       y1="-762.29712"
       x2="-7698.647"
       y2="-762.29712"
       id="SVGID_6_-99"
       gradientUnits="userSpaceOnUse"
       gradientTransform="matrix(0.4226,-0.9063,0.9063,0.4226,4226.9761,-6584.5938)"><stop
         id="stop4773"
         style="stop-color:#9e2064;stop-opacity:1"
         offset="0.3233" /><stop
         id="stop4775"
         style="stop-color:#c92037;stop-opacity:1"
         offset="0.63020003" /><stop
         id="stop4777"
         style="stop-color:#cd2335;stop-opacity:1"
         offset="0.75139999" /><stop
         id="stop4779"
         style="stop-color:#e97826;stop-opacity:1"
         offset="1" /></linearGradient><linearGradient
       x1="-8271.8057"
       y1="-765.07068"
       x2="-7732.125"
       y2="-765.07068"
       id="SVGID_7_-0"
       gradientUnits="userSpaceOnUse"
       gradientTransform="matrix(0.4226,-0.9063,0.9063,0.4226,4226.9761,-6584.5938)"><stop
         id="stop4784"
         style="stop-color:#9e2064;stop-opacity:1"
         offset="0.3233" /><stop
         id="stop4786"
         style="stop-color:#c92037;stop-opacity:1"
         offset="0.63020003" /><stop
         id="stop4788"
         style="stop-color:#cd2335;stop-opacity:1"
         offset="0.75139999" /><stop
         id="stop4790"
         style="stop-color:#e97826;stop-opacity:1"
         offset="1" /></linearGradient><linearGradient
       x1="-8238.3281"
       y1="-745.68481"
       x2="-7698.647"
       y2="-745.68481"
       id="SVGID_8_-8"
       gradientUnits="userSpaceOnUse"
       gradientTransform="matrix(0.4226,-0.9063,0.9063,0.4226,4226.9761,-6584.5938)"><stop
         id="stop4799"
         style="stop-color:#9e2064;stop-opacity:1"
         offset="0.3233" /><stop
         id="stop4801"
         style="stop-color:#c92037;stop-opacity:1"
         offset="0.63020003" /><stop
         id="stop4803"
         style="stop-color:#cd2335;stop-opacity:1"
         offset="0.75139999" /><stop
         id="stop4805"
         style="stop-color:#e97826;stop-opacity:1"
         offset="1" /></linearGradient><linearGradient
       x1="-8238.3281"
       y1="-747.58557"
       x2="-7698.647"
       y2="-747.58557"
       id="SVGID_9_-1"
       gradientUnits="userSpaceOnUse"
       gradientTransform="matrix(0.4226,-0.9063,0.9063,0.4226,4226.9761,-6584.5938)"><stop
         id="stop4814"
         style="stop-color:#9e2064;stop-opacity:1"
         offset="0.3233" /><stop
         id="stop4816"
         style="stop-color:#c92037;stop-opacity:1"
         offset="0.63020003" /><stop
         id="stop4818"
         style="stop-color:#cd2335;stop-opacity:1"
         offset="0.75139999" /><stop
         id="stop4820"
         style="stop-color:#e97826;stop-opacity:1"
         offset="1" /></linearGradient><linearGradient
       x1="-7935.1431"
       y1="-747.9668"
       x2="-7815.856"
       y2="-747.9668"
       id="SVGID_10_-31"
       gradientUnits="userSpaceOnUse"
       gradientTransform="matrix(0.4226,-0.9063,0.9063,0.4226,4226.9761,-6584.5938)"><stop
         id="stop4829"
         style="stop-color:#9e2064;stop-opacity:1"
         offset="0.3233" /><stop
         id="stop4831"
         style="stop-color:#c92037;stop-opacity:1"
         offset="0.63020003" /><stop
         id="stop4833"
         style="stop-color:#cd2335;stop-opacity:1"
         offset="0.75139999" /><stop
         id="stop4835"
         style="stop-color:#e97826;stop-opacity:1"
         offset="1" /></linearGradient><linearGradient
       xlink:href="#linearGradient4689"
       id="linearGradient1478"
       gradientUnits="userSpaceOnUse"
       gradientTransform="matrix(0.562541,0,0,0.567972,-9.399749,-5.305317)"
       x1="26.648937"
       y1="20.603781"
       x2="135.66525"
       y2="114.39767" /><linearGradient
       xlink:href="#linearGradient4671"
       id="linearGradient1475"
       gradientUnits="userSpaceOnUse"
       gradientTransform="matrix(0.562541,0,0,0.567972,-9.399749,-5.305317)"
       x1="150.96111"
       y1="192.35176"
       x2="112.03144"
       y2="137.27299" /><radialGradient
       id="ag-2-2"
       gradientUnits="userSpaceOnUse"
       cy="-551.03998"
       cx="274.82199"
       gradientTransform="matrix(0.5671,0,0,-0.2835,81.263,201.645)"
       r="165.384"><stop
         stop-opacity=".502"
         offset="0"
         id="stop9-3-8" /><stop
         stop-opacity="0"
         offset="1"
         id="stop11-6-3" /></radialGradient><radialGradient
       id="ak-0-0"
       gradientUnits="userSpaceOnUse"
       cy="-551.04199"
       cx="268.79401"
       gradientTransform="matrix(0.5823,0,0,-0.2835,-61.6052,201.14)"
       r="165.383"><stop
         stop-opacity=".502"
         offset="0"
         id="stop16-0-1" /><stop
         stop-opacity="0"
         offset="1"
         id="stop18-6-7" /></radialGradient><linearGradient
       x1="255.97696"
       y1="-0.02816"
       x2="0.025599999"
       y2="256.0256"
       id="a"
       gradientUnits="userSpaceOnUse"
       gradientTransform="matrix(0.09737713,0,0,0.09737713,381.78875,202.09719)"><stop
         stop-color="#E44857"
         offset=".344%"
         id="stop1" /><stop
         stop-color="#C711E1"
         offset="46.89%"
         id="stop2" /><stop
         stop-color="#7F52FF"
         offset="100%"
         id="stop3" /></linearGradient></defs><metadata
     id="metadata7"><rdf:RDF><cc:Work
         rdf:about=""><dc:format>image/svg+xml</dc:format><dc:type
           rdf:resource="http://purl.org/dc/dcmitype/StillImage" /><dc:language>en</dc:language><cc:license
           rdf:resource="https://timefold.ai/product/license/" /></cc:Work></rdf:RDF></metadata><g
     id="layer1"
     transform="translate(0,-452.36218)"
     style="display:inline"><g
       id="g3709"
       transform="translate(0,19.999997)" /><flowRoot
       xml:space="preserve"
       id="flowRoot4157"
       style="font-style:normal;font-weight:normal;line-height:0.01%;font-family:sans-serif;letter-spacing:0px;word-spacing:0px;fill:#000000;fill-opacity:1;stroke:none"><flowRegion
         id="flowRegion4159"
         style="font-family:sans-serif"><rect
           id="rect4161"
           width="10.955056"
           height="72.471909"
           x="16.011236"
           y="-53.932568" /></flowRegion><flowPara
         id="flowPara4163"
         style="font-size:40px;line-height:1.25;font-family:sans-serif"> </flowPara></flowRoot><path
       style="font-size:14px;line-height:1.25;font-family:'Liberation Sans';-inkscape-font-specification:'Liberation Sans, Normal';text-align:center;text-anchor:middle"
       d="m 306.021,162.61056 v -8.83887 h -3.30176 v -1.18261 h 7.94336 v 1.18261 h -3.31543 v 8.83887 z m 5.33203,-8.60644 v -1.41504 h 1.23047 v 1.41504 z m 0,8.60644 v -7.25976 h 1.23047 v 7.25976 z m 3.10351,0 v -7.25976 h 1.10059 v 1.01855 q 0.3418,-0.5332 0.90918,-0.85449 0.56738,-0.32813 1.29199,-0.32813 0.80664,0 1.31934,0.33496 0.51953,0.33497 0.73144,0.93653 0.86133,-1.27149 2.24219,-1.27149 1.08008,0 1.66113,0.60157 0.58106,0.59472 0.58106,1.83886 v 4.9834 h -1.22364 v -4.57324 q 0,-0.73828 -0.12304,-1.05957 -0.11621,-0.32813 -0.43067,-0.52637 -0.31445,-0.19824 -0.73828,-0.19824 -0.76562,0 -1.27148,0.5127 -0.50586,0.50585 -0.50586,1.62695 v 4.21777 h -1.23047 v -4.71679 q 0,-0.82032 -0.30078,-1.23047 -0.30078,-0.41016 -0.98438,-0.41016 -0.51953,0 -0.96386,0.27344 -0.4375,0.27344 -0.63575,0.7998 -0.19824,0.52637 -0.19824,1.51758 v 3.7666 z m 16.63184,-2.33789 1.27148,0.15723 q -0.30078,1.11426 -1.11425,1.72949 -0.81348,0.61523 -2.07813,0.61523 -1.59277,0 -2.5293,-0.97753 -0.92968,-0.98438 -0.92968,-2.75489 0,-1.83203 0.94336,-2.84375 0.94335,-1.01172 2.44726,-1.01172 1.45606,0 2.37891,0.99121 0.92285,0.99122 0.92285,2.78907 0,0.10937 -0.007,0.32812 h -5.41406 q 0.0684,1.19629 0.67676,1.83203 0.6084,0.63575 1.51758,0.63575 0.67675,0 1.15527,-0.35547 0.47852,-0.35547 0.75879,-1.13477 z m -4.04004,-1.98926 h 4.05371 q -0.082,-0.91601 -0.46484,-1.37402 -0.58789,-0.71094 -1.52442,-0.71094 -0.84765,0 -1.42871,0.56739 -0.57422,0.56738 -0.63574,1.51757 z m 7.15039,4.32715 v -6.30273 h -1.08691 v -0.95703 h 1.08691 v -0.77246 q 0,-0.73145 0.12988,-1.08692 0.17774,-0.47851 0.62207,-0.77246 0.45118,-0.30078 1.25782,-0.30078 0.51953,0 1.14843,0.12305 l -0.18457,1.07324 q -0.38281,-0.0684 -0.72461,-0.0684 -0.56054,0 -0.79296,0.23926 -0.23243,0.23925 -0.23243,0.8955 v 0.66993 h 1.41504 v 0.95703 h -1.41504 v 6.30273 z m 3.1377,-3.62988 q 0,-2.0166 1.12109,-2.98731 0.93652,-0.80664 2.2832,-0.80664 1.49707,0 2.44727,0.98438 0.95019,0.97754 0.95019,2.70703 0,1.40137 -0.42382,2.20801 -0.417,0.7998 -1.22364,1.24414 -0.7998,0.44433 -1.75,0.44433 -1.52441,0 -2.46777,-0.97753 -0.93652,-0.97754 -0.93652,-2.81641 z m 1.26464,0 q 0,1.39453 0.6084,2.0918 0.6084,0.69043 1.53125,0.69043 0.91602,0 1.52442,-0.69727 0.6084,-0.69727 0.6084,-2.12598 0,-1.34668 -0.61524,-2.03711 -0.6084,-0.69726 -1.51758,-0.69726 -0.92285,0 -1.53125,0.69043 -0.6084,0.69043 -0.6084,2.08496 z m 6.95215,3.62988 v -10.02148 h 1.23047 v 10.02148 z m 7.84766,0 v -0.91601 q -0.69043,1.08007 -2.03027,1.08007 -0.86817,0 -1.59961,-0.47851 -0.72461,-0.47852 -1.12793,-1.33301 -0.39649,-0.86133 -0.39649,-1.97558 0,-1.08692 0.36231,-1.96875 0.3623,-0.88868 1.08691,-1.36036 0.72461,-0.47168 1.62012,-0.47168 0.65625,0 1.16894,0.28028 0.5127,0.27343 0.83399,0.71777 v -3.5957 h 1.22363 v 10.02148 z m -3.88965,-3.62304 q 0,1.39453 0.58789,2.08496 0.58789,0.69043 1.3877,0.69043 0.80664,0 1.36718,-0.65625 0.56739,-0.66309 0.56739,-2.01661 0,-1.49023 -0.57422,-2.1875 -0.57422,-0.69726 -1.41504,-0.69726 -0.82031,0 -1.37402,0.66992 -0.54688,0.66992 -0.54688,2.11231 z m 12.19531,3.62304 -2.22168,-7.25976 h 1.27149 l 1.15527,4.19043 0.43067,1.55859 q 0.0273,-0.11621 0.37597,-1.49707 l 1.15528,-4.25195 h 1.26464 l 1.08692,4.21093 0.3623,1.3877 0.41699,-1.40137 1.24415,-4.19726 h 1.19628 l -2.26953,7.25976 h -1.27832 l -1.15527,-4.34765 -0.28027,-1.23731 -1.46973,5.58496 z m 8.3125,-3.62988 q 0,-2.0166 1.1211,-2.98731 0.93652,-0.80664 2.2832,-0.80664 1.49707,0 2.44727,0.98438 0.95019,0.97754 0.95019,2.70703 0,1.40137 -0.42383,2.20801 -0.41699,0.7998 -1.22363,1.24414 -0.7998,0.44433 -1.75,0.44433 -1.52441,0 -2.46777,-0.97753 -0.93653,-0.97754 -0.93653,-2.81641 z m 1.26465,0 q 0,1.39453 0.6084,2.0918 0.6084,0.69043 1.53125,0.69043 0.91602,0 1.52441,-0.69727 0.6084,-0.69727 0.6084,-2.12598 0,-1.34668 -0.61523,-2.03711 -0.6084,-0.69726 -1.51758,-0.69726 -0.92285,0 -1.53125,0.69043 -0.6084,0.69043 -0.6084,2.08496 z m 6.96582,3.62988 v -7.25976 h 1.10742 v 1.10058 q 0.42383,-0.77246 0.7793,-1.01855 0.36231,-0.2461 0.79297,-0.2461 0.62207,0 1.26465,0.39649 l -0.42383,1.1416 q -0.45117,-0.2666 -0.90234,-0.2666 -0.40332,0 -0.72461,0.24609 -0.32129,0.23926 -0.45801,0.66992 -0.20508,0.65625 -0.20508,1.43555 v 3.80078 z m 4.68262,0 v -10.02148 h 1.23047 v 5.71484 l 2.91211,-2.95312 h 1.59277 l -2.77539,2.69336 3.05566,4.5664 h -1.51757 l -2.39942,-3.71191 -0.86816,0.83398 v 2.87793 z m 6.50098,-2.16699 1.21679,-0.19141 q 0.10254,0.73145 0.56739,1.1211 0.47167,0.38965 1.3125,0.38965 0.84765,0 1.25781,-0.3418 0.41015,-0.34863 0.41015,-0.81348 0,-0.41699 -0.3623,-0.65625 -0.25293,-0.16406 -1.25781,-0.41699 -1.35352,-0.3418 -1.87989,-0.58789 -0.51953,-0.25293 -0.79296,-0.69043 -0.26661,-0.44434 -0.26661,-0.97754 0,-0.48535 0.21875,-0.89551 0.22559,-0.41699 0.6084,-0.69043 0.28711,-0.21191 0.7793,-0.35547 0.49902,-0.15039 1.06641,-0.15039 0.85449,0 1.49707,0.2461 0.64941,0.24609 0.95703,0.66992 0.30761,0.41699 0.42382,1.12109 l -1.20312,0.16407 q -0.082,-0.56055 -0.47852,-0.875 -0.38964,-0.31446 -1.10742,-0.31446 -0.84765,0 -1.20996,0.28028 -0.3623,0.28027 -0.3623,0.65625 0,0.23925 0.15039,0.43066 0.15039,0.19824 0.47168,0.32813 0.18457,0.0684 1.08691,0.31445 1.30567,0.34863 1.81836,0.57422 0.51953,0.21875 0.81348,0.64258 0.29394,0.42382 0.29394,1.05273 0,0.61523 -0.3623,1.16211 -0.35547,0.54004 -1.03223,0.84082 -0.67676,0.29394 -1.53125,0.29394 -1.41504,0 -2.16016,-0.58789 -0.73828,-0.58789 -0.94335,-1.74316 z m 10.92382,-1.46289 q 0,-2.0166 1.1211,-2.98731 0.93652,-0.80664 2.2832,-0.80664 1.49707,0 2.44727,0.98438 0.95019,0.97754 0.95019,2.70703 0,1.40137 -0.42383,2.20801 -0.41699,0.7998 -1.22363,1.24414 -0.7998,0.44433 -1.75,0.44433 -1.52441,0 -2.46777,-0.97753 -0.93653,-0.97754 -0.93653,-2.81641 z m 1.26465,0 q 0,1.39453 0.6084,2.0918 0.6084,0.69043 1.53125,0.69043 0.91602,0 1.52441,-0.69727 0.6084,-0.69727 0.6084,-2.12598 0,-1.34668 -0.61523,-2.03711 -0.6084,-0.69726 -1.51758,-0.69726 -0.92285,0 -1.53125,0.69043 -0.6084,0.69043 -0.6084,2.08496 z m 6.97949,3.62988 v -7.25976 h 1.10743 v 1.03222 q 0.7998,-1.19629 2.31054,-1.19629 0.65625,0 1.20313,0.23926 0.55371,0.23242 0.82715,0.61524 0.27343,0.38281 0.38281,0.90918 0.0684,0.34179 0.0684,1.19628 v 4.46387 h -1.23047 v -4.41601 q 0,-0.75196 -0.14356,-1.1211 -0.14355,-0.37597 -0.51269,-0.59472 -0.36231,-0.22559 -0.85449,-0.22559 -0.78614,0 -1.36035,0.49902 -0.56739,0.49903 -0.56739,1.89356 v 3.96484 z m 16.41309,-0.89551 q -0.68359,0.58106 -1.31934,0.82032 -0.6289,0.23925 -1.35351,0.23925 -1.19629,0 -1.83887,-0.58105 -0.64258,-0.58789 -0.64258,-1.49707 0,-0.5332 0.23926,-0.9707 0.24609,-0.44434 0.63574,-0.71094 0.39649,-0.2666 0.88868,-0.40332 0.3623,-0.0957 1.09375,-0.18457 1.49023,-0.17774 2.19433,-0.42383 0.007,-0.25293 0.007,-0.32129 0,-0.75195 -0.34864,-1.05957 -0.47168,-0.41699 -1.40136,-0.41699 -0.86817,0 -1.28516,0.30762 -0.41016,0.30078 -0.6084,1.07324 l -1.20312,-0.16406 q 0.16406,-0.77247 0.54004,-1.24415 0.37597,-0.47851 1.08691,-0.73144 0.71094,-0.25977 1.64746,-0.25977 0.92969,0 1.51074,0.21875 0.58106,0.21875 0.8545,0.55371 0.27343,0.32813 0.38281,0.83399 0.0615,0.31445 0.0615,1.13476 v 1.64063 q 0,1.71582 0.0752,2.17383 0.082,0.45117 0.31445,0.86816 h -1.28516 q -0.1914,-0.38281 -0.24609,-0.89551 z m -0.10254,-2.74804 q -0.66992,0.27343 -2.00976,0.46484 -0.75879,0.10938 -1.07325,0.24609 -0.31445,0.13672 -0.48535,0.40333 -0.1709,0.25976 -0.1709,0.58105 0,0.49219 0.36914,0.82031 0.37598,0.32813 1.09375,0.32813 0.71094,0 1.26465,-0.30762 0.55371,-0.31445 0.81348,-0.85449 0.19824,-0.41699 0.19824,-1.23047 z m 3.12402,3.64355 v -10.02148 h 1.23047 v 10.02148 z m 3.11036,0 v -10.02148 h 1.23046 v 10.02148 z m 7.02734,0 v -7.25976 h 1.10059 v 1.01855 q 0.34179,-0.5332 0.90918,-0.85449 0.56738,-0.32813 1.29199,-0.32813 0.80664,0 1.31933,0.33496 0.51953,0.33497 0.73145,0.93653 0.86133,-1.27149 2.24219,-1.27149 1.08007,0 1.66113,0.60157 0.58105,0.59472 0.58105,1.83886 v 4.9834 h -1.22363 v -4.57324 q 0,-0.73828 -0.12305,-1.05957 -0.11621,-0.32813 -0.43066,-0.52637 -0.31445,-0.19824 -0.73828,-0.19824 -0.76563,0 -1.27149,0.5127 -0.50585,0.50585 -0.50585,1.62695 v 4.21777 h -1.23047 v -4.71679 q 0,-0.82032 -0.30078,-1.23047 -0.30079,-0.41016 -0.98438,-0.41016 -0.51953,0 -0.96387,0.27344 -0.4375,0.27344 -0.63574,0.7998 -0.19824,0.52637 -0.19824,1.51758 v 3.7666 z m 16.39941,-0.89551 q -0.68359,0.58106 -1.31933,0.82032 -0.62891,0.23925 -1.35352,0.23925 -1.19629,0 -1.83886,-0.58105 -0.64258,-0.58789 -0.64258,-1.49707 0,-0.5332 0.23925,-0.9707 0.2461,-0.44434 0.63575,-0.71094 0.39648,-0.2666 0.88867,-0.40332 0.3623,-0.0957 1.09375,-0.18457 1.49023,-0.17774 2.19433,-0.42383 0.007,-0.25293 0.007,-0.32129 0,-0.75195 -0.34863,-1.05957 -0.47168,-0.41699 -1.40137,-0.41699 -0.86816,0 -1.28516,0.30762 -0.41015,0.30078 -0.60839,1.07324 l -1.20313,-0.16406 q 0.16406,-0.77247 0.54004,-1.24415 0.37598,-0.47851 1.08691,-0.73144 0.71094,-0.25977 1.64747,-0.25977 0.92968,0 1.51074,0.21875 0.58105,0.21875 0.85449,0.55371 0.27344,0.32813 0.38281,0.83399 0.0615,0.31445 0.0615,1.13476 v 1.64063 q 0,1.71582 0.0752,2.17383 0.082,0.45117 0.31445,0.86816 h -1.28515 q -0.19141,-0.38281 -0.2461,-0.89551 z m -0.10254,-2.74804 q -0.66992,0.27343 -2.00976,0.46484 -0.75879,0.10938 -1.07324,0.24609 -0.31446,0.13672 -0.48535,0.40333 -0.1709,0.25976 -0.1709,0.58105 0,0.49219 0.36914,0.82031 0.37597,0.32813 1.09375,0.32813 0.71094,0 1.26465,-0.30762 0.55371,-0.31445 0.81347,-0.85449 0.19824,-0.41699 0.19824,-1.23047 z m 3.14454,-4.94922 v -1.42871 h 1.23046 v 1.42871 z m -1.5586,11.40918 0.23242,-1.0459 q 0.36914,0.0957 0.58106,0.0957 0.37598,0 0.56055,-0.25293 0.18457,-0.24609 0.18457,-1.24414 v -7.6289 h 1.23046 v 7.65625 q 0,1.33984 -0.34863,1.86621 -0.44433,0.68359 -1.47656,0.68359 -0.49902,0 -0.96387,-0.12988 z m 4.21778,-6.44629 q 0,-2.0166 1.12109,-2.98731 0.93652,-0.80664 2.2832,-0.80664 1.49707,0 2.44727,0.98438 0.95019,0.97754 0.95019,2.70703 0,1.40137 -0.42382,2.20801 -0.417,0.7998 -1.22364,1.24414 -0.7998,0.44433 -1.75,0.44433 -1.52441,0 -2.46777,-0.97753 -0.93652,-0.97754 -0.93652,-2.81641 z m 1.26464,0 q 0,1.39453 0.6084,2.0918 0.6084,0.69043 1.53125,0.69043 0.91602,0 1.52442,-0.69727 0.6084,-0.69727 0.6084,-2.12598 0,-1.34668 -0.61524,-2.03711 -0.6084,-0.69726 -1.51758,-0.69726 -0.92285,0 -1.53125,0.69043 -0.6084,0.69043 -0.6084,2.08496 z m 6.96582,3.62988 v -7.25976 h 1.10743 v 1.10058 q 0.42382,-0.77246 0.77929,-1.01855 0.36231,-0.2461 0.79297,-0.2461 0.62207,0 1.26465,0.39649 l -0.42383,1.1416 q -0.45117,-0.2666 -0.90234,-0.2666 -0.40332,0 -0.72461,0.24609 -0.32129,0.23926 -0.45801,0.66992 -0.20508,0.65625 -0.20508,1.43555 v 3.80078 z m 8.56543,2.78223 V 155.3508 h 1.1211 v 0.94336 q 0.39648,-0.55372 0.89551,-0.82715 0.49902,-0.28028 1.20996,-0.28028 0.92968,0 1.64062,0.47852 0.71094,0.47852 1.07324,1.35352 0.36231,0.86816 0.36231,1.90722 0,1.11426 -0.40332,2.00977 -0.39649,0.88867 -1.16211,1.36718 -0.75879,0.47168 -1.59961,0.47168 -0.61523,0 -1.10742,-0.25976 -0.48535,-0.25977 -0.79981,-0.65625 v 3.53418 z m 1.11426,-6.3711 q 0,1.40137 0.56738,2.07129 0.56739,0.66993 1.37403,0.66993 0.82031,0 1.40137,-0.69043 0.58789,-0.69727 0.58789,-2.15332 0,-1.3877 -0.57422,-2.07813 -0.56739,-0.69043 -1.36035,-0.69043 -0.78614,0 -1.39454,0.73828 -0.60156,0.73145 -0.60156,2.13281 z m 6.64453,3.58887 v -10.02148 h 1.23047 v 10.02148 z m 7.875,-0.89551 q -0.68359,0.58106 -1.31933,0.82032 -0.62891,0.23925 -1.35352,0.23925 -1.19629,0 -1.83887,-0.58105 -0.64257,-0.58789 -0.64257,-1.49707 0,-0.5332 0.23925,-0.9707 0.2461,-0.44434 0.63575,-0.71094 0.39648,-0.2666 0.88867,-0.40332 0.3623,-0.0957 1.09375,-0.18457 1.49023,-0.17774 2.19433,-0.42383 0.007,-0.25293 0.007,-0.32129 0,-0.75195 -0.34863,-1.05957 -0.47168,-0.41699 -1.40137,-0.41699 -0.86816,0 -1.28516,0.30762 -0.41015,0.30078 -0.60839,1.07324 l -1.20313,-0.16406 q 0.16406,-0.77247 0.54004,-1.24415 0.37598,-0.47851 1.08691,-0.73144 0.71094,-0.25977 1.64746,-0.25977 0.92969,0 1.51075,0.21875 0.58105,0.21875 0.85449,0.55371 0.27344,0.32813 0.38281,0.83399 0.0615,0.31445 0.0615,1.13476 v 1.64063 q 0,1.71582 0.0752,2.17383 0.082,0.45117 0.31445,0.86816 h -1.28515 q -0.19141,-0.38281 -0.2461,-0.89551 z m -0.10254,-2.74804 q -0.66992,0.27343 -2.00976,0.46484 -0.75879,0.10938 -1.07324,0.24609 -0.31446,0.13672 -0.48536,0.40333 -0.17089,0.25976 -0.17089,0.58105 0,0.49219 0.36914,0.82031 0.37597,0.32813 1.09375,0.32813 0.71093,0 1.26465,-0.30762 0.55371,-0.31445 0.81347,-0.85449 0.19824,-0.41699 0.19824,-1.23047 z m 5.83789,2.54297 0.17774,1.08691 q -0.51953,0.10938 -0.92969,0.10938 -0.66992,0 -1.03906,-0.21192 -0.36914,-0.21191 -0.51953,-0.55371 -0.15039,-0.34863 -0.15039,-1.45605 v -4.17676 h -0.90235 v -0.95703 h 0.90235 v -1.79786 l 1.22363,-0.73828 v 2.53614 h 1.2373 v 0.95703 h -1.2373 v 4.24511 q 0,0.52637 0.0615,0.67676 0.0684,0.15039 0.21192,0.23926 0.15039,0.0889 0.42383,0.0889 0.20507,0 0.54003,-0.0478 z m 1.49708,1.10058 v -6.30273 h -1.08692 v -0.95703 h 1.08692 v -0.77246 q 0,-0.73145 0.12988,-1.08692 0.17773,-0.47851 0.62207,-0.77246 0.45117,-0.30078 1.25781,-0.30078 0.51953,0 1.14844,0.12305 l -0.18457,1.07324 q -0.38281,-0.0684 -0.72461,-0.0684 -0.56055,0 -0.79297,0.23926 -0.23242,0.23925 -0.23242,0.8955 v 0.66993 h 1.41504 v 0.95703 h -1.41504 v 6.30273 z m 3.13769,-3.62988 q 0,-2.0166 1.12109,-2.98731 0.93653,-0.80664 2.28321,-0.80664 1.49707,0 2.44726,0.98438 0.9502,0.97754 0.9502,2.70703 0,1.40137 -0.42383,2.20801 -0.41699,0.7998 -1.22363,1.24414 -0.79981,0.44433 -1.75,0.44433 -1.52442,0 -2.46778,-0.97753 -0.93652,-0.97754 -0.93652,-2.81641 z m 1.26465,0 q 0,1.39453 0.6084,2.0918 0.6084,0.69043 1.53125,0.69043 0.91601,0 1.52441,-0.69727 0.6084,-0.69727 0.6084,-2.12598 0,-1.34668 -0.61523,-2.03711 -0.6084,-0.69726 -1.51758,-0.69726 -0.92285,0 -1.53125,0.69043 -0.6084,0.69043 -0.6084,2.08496 z m 6.96582,3.62988 v -7.25976 h 1.10742 v 1.10058 q 0.42383,-0.77246 0.7793,-1.01855 0.3623,-0.2461 0.79297,-0.2461 0.62207,0 1.26465,0.39649 l -0.42383,1.1416 q -0.45117,-0.2666 -0.90235,-0.2666 -0.40332,0 -0.72461,0.24609 -0.32129,0.23926 -0.458,0.66992 -0.20508,0.65625 -0.20508,1.43555 v 3.80078 z m 4.67578,0 v -7.25976 h 1.10059 v 1.01855 q 0.34179,-0.5332 0.90918,-0.85449 0.56738,-0.32813 1.29199,-0.32813 0.80664,0 1.31933,0.33496 0.51954,0.33497 0.73145,0.93653 0.86133,-1.27149 2.24219,-1.27149 1.08008,0 1.66113,0.60157 0.58105,0.59472 0.58105,1.83886 v 4.9834 h -1.22363 v -4.57324 q 0,-0.73828 -0.12305,-1.05957 -0.11621,-0.32813 -0.43066,-0.52637 -0.31445,-0.19824 -0.73828,-0.19824 -0.76563,0 -1.27148,0.5127 -0.50586,0.50585 -0.50586,1.62695 v 4.21777 h -1.23047 v -4.71679 q 0,-0.82032 -0.30078,-1.23047 -0.30079,-0.41016 -0.98438,-0.41016 -0.51953,0 -0.96387,0.27344 -0.4375,0.27344 -0.63574,0.7998 -0.19824,0.52637 -0.19824,1.51758 v 3.7666 z m 11.16992,-2.16699 1.2168,-0.19141 q 0.10254,0.73145 0.56738,1.1211 0.47168,0.38965 1.3125,0.38965 0.84766,0 1.25781,-0.3418 0.41016,-0.34863 0.41016,-0.81348 0,-0.41699 -0.3623,-0.65625 -0.25293,-0.16406 -1.25782,-0.41699 -1.35351,-0.3418 -1.87988,-0.58789 -0.51953,-0.25293 -0.79297,-0.69043 -0.2666,-0.44434 -0.2666,-0.97754 0,-0.48535 0.21875,-0.89551 0.22559,-0.41699 0.6084,-0.69043 0.28711,-0.21191 0.7793,-0.35547 0.49902,-0.15039 1.0664,-0.15039 0.85449,0 1.49707,0.2461 0.64942,0.24609 0.95703,0.66992 0.30762,0.41699 0.42383,1.12109 l -1.20312,0.16407 q -0.082,-0.56055 -0.47852,-0.875 -0.38965,-0.31446 -1.10742,-0.31446 -0.84766,0 -1.20996,0.28028 -0.36231,0.28027 -0.36231,0.65625 0,0.23925 0.15039,0.43066 0.15039,0.19824 0.47168,0.32813 0.18457,0.0684 1.08692,0.31445 1.30566,0.34863 1.81836,0.57422 0.51953,0.21875 0.81347,0.64258 0.29395,0.42382 0.29395,1.05273 0,0.61523 -0.36231,1.16211 -0.35546,0.54004 -1.03222,0.84082 -0.67676,0.29394 -1.53125,0.29394 -1.41504,0 -2.16016,-0.58789 -0.73828,-0.58789 -0.94336,-1.74316 z m 7.84082,2.16699 v -1.40137 h 1.40137 v 1.40137 z"
       id="flowRoot4302-6"
       transform="translate(-20,372.36182)"
       aria-label="Timefold works on all major platforms." /><path
       style="font-size:36px;line-height:1.25;font-family:'Liberation Sans';-inkscape-font-specification:'Liberation Sans, Normal';text-align:center;text-anchor:middle"
       d="m 338.12988,243.392 3.41016,0.86133 q -1.07227,4.20117 -3.86719,6.41602 -2.77734,2.19726 -6.80273,2.19726 -4.16602,0 -6.78516,-1.6875 -2.60156,-1.70508 -3.97266,-4.92187 -1.35351,-3.2168 -1.35351,-6.90821 0,-4.02539 1.5293,-7.01367 1.54687,-3.00586 4.37695,-4.55273 2.84766,-1.56446 6.25781,-1.56446 3.86719,0 6.50391,1.96875 2.63672,1.96875 3.67383,5.53711 l -3.35743,0.79102 q -0.89648,-2.8125 -2.60156,-4.0957 -1.70508,-1.28321 -4.28906,-1.28321 -2.9707,0 -4.97461,1.42383 -1.98633,1.42383 -2.79492,3.83203 -0.8086,2.39063 -0.8086,4.93946 0,3.28711 0.94922,5.74804 0.9668,2.44336 2.98828,3.65625 2.02149,1.21289 4.37696,1.21289 2.86523,0 4.85156,-1.65234 1.98633,-1.65234 2.68945,-4.9043 z m 6.0293,-0.29883 q 0,-5.18554 2.88281,-7.68164 2.40821,-2.07421 5.8711,-2.07421 3.84961,0 6.29296,2.53125 2.44336,2.51367 2.44336,6.96093 0,3.60352 -1.08984,5.67774 -1.07227,2.05664 -3.14648,3.19922 -2.05664,1.14257 -4.5,1.14257 -3.91993,0 -6.34571,-2.51367 -2.4082,-2.51367 -2.4082,-7.24219 z m 3.25195,0 q 0,3.58594 1.56446,5.37891 1.56445,1.77539 3.9375,1.77539 2.35546,0 3.91992,-1.79297 1.56445,-1.79297 1.56445,-5.46679 0,-3.46289 -1.58203,-5.23829 -1.56445,-1.79296 -3.90234,-1.79296 -2.37305,0 -3.9375,1.77539 -1.56446,1.77539 -1.56446,5.36132 z m 17.94727,9.33399 v -18.66797 h 2.83008 v 2.61914 q 0.8789,-1.37109 2.33789,-2.19726 1.45898,-0.84375 3.32226,-0.84375 2.07422,0 3.39258,0.86132 1.33594,0.86133 1.88086,2.40821 2.21484,-3.26953 5.76563,-3.26953 2.77734,0 4.27148,1.54687 1.49414,1.5293 1.49414,4.72852 v 12.81445 h -3.14648 v -11.75977 q 0,-1.89843 -0.31641,-2.72461 -0.29883,-0.84375 -1.10742,-1.35351 -0.8086,-0.50977 -1.89844,-0.50977 -1.96875,0 -3.26953,1.31836 -1.30078,1.30078 -1.30078,4.1836 v 10.8457 h -3.16406 v -12.12891 q 0,-2.10937 -0.77344,-3.16406 -0.77344,-1.05469 -2.53125,-1.05469 -1.33594,0 -2.47852,0.70313 -1.125,0.70312 -1.63476,2.05664 -0.50977,1.35351 -0.50977,3.90234 v 9.68555 z m 29.98828,7.1543 v -25.82227 h 2.88281 v 2.42578 q 1.01953,-1.42383 2.30274,-2.12695 1.2832,-0.7207 3.11132,-0.7207 2.39063,0 4.21875,1.23046 1.82813,1.23047 2.75977,3.48047 0.93164,2.23242 0.93164,4.9043 0,2.86523 -1.03711,5.16797 -1.01953,2.28515 -2.98828,3.51562 -1.95117,1.21289 -4.11328,1.21289 -1.58203,0 -2.84766,-0.66796 -1.24804,-0.66797 -2.05664,-1.6875 v 9.08789 z m 2.86523,-16.38282 q 0,3.60352 1.45899,5.32618 1.45898,1.72265 3.5332,1.72265 2.10938,0 3.60352,-1.77539 1.51172,-1.79297 1.51172,-5.53711 0,-3.56836 -1.47657,-5.34375 -1.45898,-1.77539 -3.49804,-1.77539 -2.02149,0 -3.58594,1.89844 -1.54688,1.88086 -1.54688,5.48437 z m 29.33789,6.92578 q -1.75781,1.49415 -3.39257,2.10938 -1.61719,0.61523 -3.48047,0.61523 -3.07617,0 -4.72852,-1.49414 -1.65234,-1.51172 -1.65234,-3.84961 0,-1.37109 0.61523,-2.49609 0.63282,-1.14258 1.63477,-1.82812 1.01953,-0.68555 2.28515,-1.03711 0.93165,-0.2461 2.8125,-0.47461 3.83204,-0.45703 5.64258,-1.08985 0.0176,-0.65039 0.0176,-0.82617 0,-1.93359 -0.89648,-2.72461 -1.21289,-1.07226 -3.60352,-1.07226 -2.23242,0 -3.30469,0.79101 -1.05468,0.77344 -1.56445,2.75977 l -3.09375,-0.42188 q 0.42188,-1.98633 1.38867,-3.19922 0.9668,-1.23047 2.79492,-1.88086 1.82813,-0.66796 4.23633,-0.66796 2.39063,0 3.88477,0.5625 1.49414,0.5625 2.19726,1.42382 0.70313,0.84375 0.98438,2.14453 0.1582,0.8086 0.1582,2.91797 v 4.21875 q 0,4.41211 0.19336,5.58985 0.21094,1.16015 0.80859,2.23242 h -3.30468 q -0.49219,-0.98438 -0.63282,-2.30274 z m -0.26367,-7.0664 q -1.72265,0.70312 -5.16797,1.19531 -1.95117,0.28125 -2.75976,0.63281 -0.8086,0.35157 -1.24805,1.03711 -0.43945,0.66797 -0.43945,1.49414 0,1.26563 0.94922,2.10938 0.96679,0.84375 2.8125,0.84375 1.82812,0 3.25195,-0.79102 1.42383,-0.80859 2.0918,-2.19726 0.50976,-1.07227 0.50976,-3.16407 z m 15.01172,6.53906 0.45703,2.79492 q -1.33593,0.28125 -2.39062,0.28125 -1.72266,0 -2.67188,-0.54492 -0.94922,-0.54492 -1.33593,-1.42383 -0.38672,-0.89648 -0.38672,-3.74414 v -10.74023 h -2.32032 v -2.46094 h 2.32032 v -4.62305 l 3.14648,-1.89843 v 6.52148 h 3.18164 v 2.46094 h -3.18164 v 10.91601 q 0,1.35352 0.1582,1.74024 0.17579,0.38672 0.54493,0.61523 0.38671,0.22852 1.08984,0.22852 0.52734,0 1.38867,-0.12305 z m 3.11133,-19.30078 v -3.63867 h 3.16406 v 3.63867 z m 0,22.13086 v -18.66797 h 3.16406 v 18.66797 z m 10.89844,0 h -2.93555 v -25.76953 h 3.16406 v 9.19336 q 2.00391,-2.51367 5.11524,-2.51367 1.72265,0 3.25195,0.70312 1.54688,0.68555 2.53125,1.95117 1.00195,1.24805 1.56445,3.02344 0.5625,1.77539 0.5625,3.79687 0,4.79883 -2.37304,7.41797 -2.37305,2.61914 -5.69532,2.61914 -3.30468,0 -5.18554,-2.75976 z m -0.0352,-9.47461 q 0,3.35742 0.91406,4.85156 1.49414,2.44336 4.04297,2.44336 2.07422,0 3.58594,-1.79297 1.51172,-1.81054 1.51172,-5.3789 0,-3.65625 -1.45899,-5.39649 -1.4414,-1.74023 -3.49804,-1.74023 -2.07422,0 -3.58594,1.81054 -1.51172,1.79297 -1.51172,5.20313 z m 17.15625,-12.65625 v -3.63867 h 3.16406 v 3.63867 z m 0,22.13086 v -18.66797 h 3.16406 v 18.66797 z m 7.91016,0 v -25.76953 h 3.16406 v 25.76953 z m 8.08593,-22.13086 v -3.63867 h 3.16407 v 3.63867 z m 0,22.13086 v -18.66797 h 3.16407 v 18.66797 z m 14.88868,-2.83008 0.45703,2.79492 q -1.33594,0.28125 -2.39063,0.28125 -1.72265,0 -2.67187,-0.54492 -0.94922,-0.54492 -1.33594,-1.42383 -0.38672,-0.89648 -0.38672,-3.74414 v -10.74023 h -2.32031 v -2.46094 h 2.32031 v -4.62305 l 3.14649,-1.89843 v 6.52148 h 3.18164 v 2.46094 h -3.18164 v 10.91601 q 0,1.35352 0.1582,1.74024 0.17578,0.38672 0.54492,0.61523 0.38672,0.22852 1.08984,0.22852 0.52735,0 1.38868,-0.12305 z m 2.95312,10.01953 -0.35156,-2.9707 q 1.03711,0.28125 1.81055,0.28125 1.05468,0 1.6875,-0.35156 0.63281,-0.35157 1.03711,-0.98438 0.29882,-0.47461 0.96679,-2.35547 0.0879,-0.26367 0.28125,-0.77343 l -7.08398,-18.70313 h 3.41015 l 3.88477,10.81055 q 0.75586,2.05664 1.35352,4.32422 0.54492,-2.17969 1.30078,-4.25391 l 3.99023,-10.88086 h 3.16406 l -7.10156,18.98438 q -1.14258,3.07617 -1.77539,4.23632 -0.84375,1.56446 -1.93359,2.28516 -1.08985,0.73828 -2.60157,0.73828 -0.91406,0 -2.03906,-0.38672 z"
       id="flowRoot4302"
       transform="translate(-20,252.36198)"
       aria-label="Compatibility" /><g
       id="Layer_1-2"
       transform="matrix(0.6,0,0,0.6,256.447,557.36218)"
       style="stroke-width:1.66667"><g
         id="g31206"
         style="stroke-width:1.66667"><path
           d="M 52,25 V 0 H 25 V 25 H 9.1 L 0,50 h 25 v 50 h 28.35 c 5.25,0 9.95,-3.29 11.75,-8.22 l 5.46,-15.01 c 0,0 0.64,-1.76 2.52,-1.76 h 39.62 l 9.1,-25 H 89.05 c -5.25,0 -9.95,3.29 -11.75,8.22 l -5.46,15.01 c 0,0 -0.64,1.76 -2.52,1.76 H 51.99 V 50 h 19.55 c 5.25,0 9.95,-3.29 11.75,-8.22 l 5.46,-15.01 c 0,0 0.64,-1.76 2.52,-1.76 h 44.62 L 145,0 H 107.25 C 102,0 97.3,3.29 95.5,8.22 l -5.46,15.01 c 0,0 -0.64,1.76 -2.52,1.76 H 51.99 Z"
           id="path31186"
           style="stroke-width:1.66667" /><g
           id="g31204"
           style="stroke-width:1.66667"><path
             d="m 214.81,66.3 -2.12,5.83 c -0.63,1.72 -2.26,2.86 -4.09,2.86 h -9.26 c -2.4,0 -4.34,-1.94 -4.34,-4.34 v -27.5 h -6.49 V 35.98 H 195 v -11 h 10.71 v 11 h 7.85 v 7.17 h -7.85 v 23.14 h 9.1 z"
             id="path31188"
             style="stroke-width:1.66667" /><path
             d="m 370.25,28.7 h -7.39 V 36 h 7.39 v 7.17 h -7.39 V 75.01 H 352.15 V 43.17 h -6.49 V 36 h 6.49 V 24.34 c 0,-2.4 1.94,-4.34 4.34,-4.34 h 16.93 l -3.16,8.7 z"
             id="path31190"
             style="stroke-width:1.66667" /><path
             d="M 218.99,30 V 20 h 10.71 v 10 z m 10.71,6 V 75 H 218.99 V 36 Z"
             id="path31192"
             style="stroke-width:1.66667" /><path
             d="m 248.56,36 v 5.28 h 0.15 c 1.41,-2.01 3.1,-3.57 5.09,-4.68 1.99,-1.11 4.26,-1.66 6.83,-1.66 2.57,0 4.72,0.48 6.75,1.43 2.04,0.96 3.58,2.64 4.64,5.05 1.16,-1.71 2.73,-3.22 4.72,-4.53 1.99,-1.31 4.34,-1.96 7.05,-1.96 2.06,0 3.97,0.25 5.73,0.76 1.76,0.5 3.27,1.31 4.53,2.41 1.26,1.11 2.24,2.55 2.94,4.34 0.7,1.79 1.06,3.94 1.06,6.45 v 26.1 h -10.71 v -22.1 c 0,-1.31 -0.05,-2.54 -0.15,-3.7 -0.1,-1.16 -0.38,-2.16 -0.83,-3.02 -0.45,-0.85 -1.12,-1.53 -2,-2.04 -0.88,-0.5 -2.08,-0.75 -3.58,-0.75 -1.5,0 -2.73,0.29 -3.66,0.87 -0.93,0.58 -1.66,1.33 -2.19,2.26 -0.53,0.93 -0.88,1.99 -1.06,3.17 -0.18,1.18 -0.26,2.38 -0.26,3.58 V 74.99 H 262.9 V 53.11 c 0,-1.16 -0.03,-2.3 -0.08,-3.43 -0.05,-1.13 -0.26,-2.17 -0.64,-3.13 -0.38,-0.95 -1.01,-1.72 -1.89,-2.3 -0.88,-0.58 -2.18,-0.87 -3.89,-0.87 -0.5,0 -1.17,0.11 -2,0.34 -0.83,0.23 -1.63,0.65 -2.41,1.28 -0.78,0.63 -1.45,1.53 -2,2.71 -0.55,1.18 -0.83,2.73 -0.83,4.64 v 22.63 h -10.71 v -39 h 10.11 z"
             id="path31194"
             style="stroke-width:1.66667" /><path
             d="m 317.97,65.64 c 1.61,1.56 3.92,2.34 6.94,2.34 2.16,0 4.02,-0.54 5.58,-1.62 1.56,-1.08 2.51,-2.22 2.87,-3.43 h 9.43 c -1.51,4.68 -3.82,8.02 -6.94,10.03 -3.12,2.01 -6.89,3.02 -11.32,3.02 -3.07,0 -5.84,-0.49 -8.3,-1.47 -2.47,-0.98 -4.55,-2.38 -6.26,-4.19 -1.71,-1.81 -3.03,-3.97 -3.96,-6.49 -0.93,-2.51 -1.4,-5.28 -1.4,-8.3 0,-3.02 0.48,-5.63 1.43,-8.15 0.95,-2.51 2.31,-4.69 4.07,-6.53 1.76,-1.83 3.86,-3.28 6.3,-4.34 2.44,-1.06 5.14,-1.59 8.11,-1.59 3.32,0 6.21,0.64 8.68,1.92 2.46,1.28 4.49,3.01 6.07,5.17 1.58,2.16 2.73,4.63 3.43,7.39 0.7,2.77 0.95,5.66 0.75,8.68 h -28.14 c 0.15,3.47 1.03,5.99 2.64,7.54 z m 12.11,-20.52 c -1.28,-1.41 -3.23,-2.11 -5.85,-2.11 -1.71,0 -3.13,0.29 -4.26,0.87 -1.13,0.58 -2.04,1.3 -2.72,2.15 -0.68,0.86 -1.16,1.76 -1.43,2.72 -0.28,0.96 -0.44,1.81 -0.49,2.57 h 17.43 c -0.5,-2.72 -1.4,-4.78 -2.68,-6.19 z"
             id="path31196"
             style="stroke-width:1.66667" /><path
             d="m 375.16,47.05 c 0.95,-2.54 2.31,-4.7 4.07,-6.49 1.76,-1.79 3.87,-3.17 6.34,-4.15 2.46,-0.98 5.23,-1.47 8.3,-1.47 3.07,0 5.85,0.49 8.34,1.47 2.49,0.98 4.61,2.36 6.37,4.15 1.76,1.79 3.12,3.95 4.07,6.49 0.95,2.54 1.43,5.37 1.43,8.49 0,3.12 -0.48,5.94 -1.43,8.45 -0.96,2.51 -2.31,4.66 -4.07,6.45 -1.76,1.79 -3.89,3.16 -6.37,4.11 -2.49,0.96 -5.27,1.43 -8.34,1.43 -3.07,0 -5.84,-0.48 -8.3,-1.43 -2.47,-0.95 -4.58,-2.33 -6.34,-4.11 -1.76,-1.79 -3.12,-3.94 -4.07,-6.45 -0.96,-2.51 -1.43,-5.33 -1.43,-8.45 0,-3.12 0.48,-5.95 1.43,-8.49 z m 9.73,13.05 c 0.3,1.48 0.82,2.82 1.55,4 0.73,1.18 1.7,2.13 2.9,2.83 1.21,0.7 2.72,1.06 4.53,1.06 1.81,0 3.33,-0.35 4.56,-1.06 1.23,-0.7 2.21,-1.65 2.94,-2.83 0.73,-1.18 1.24,-2.51 1.55,-4 0.3,-1.48 0.45,-3 0.45,-4.57 0,-1.57 -0.15,-3.09 -0.45,-4.6 -0.3,-1.51 -0.82,-2.84 -1.55,-4 -0.73,-1.16 -1.71,-2.1 -2.94,-2.83 -1.23,-0.73 -2.75,-1.09 -4.56,-1.09 -1.81,0 -3.32,0.37 -4.53,1.09 -1.21,0.73 -2.18,1.67 -2.9,2.83 -0.73,1.16 -1.25,2.49 -1.55,4 -0.3,1.51 -0.45,3.04 -0.45,4.6 0,1.56 0.15,3.08 0.45,4.57 z"
             id="path31198"
             style="stroke-width:1.66667" /><path
             d="M 432.04,20 V 75 H 421.33 V 20 Z"
             id="path31200"
             style="stroke-width:1.66667" /><path
             d="m 468.18,70.02 c -1.26,2.11 -2.9,3.63 -4.94,4.56 -2.04,0.93 -4.34,1.4 -6.9,1.4 -2.92,0 -5.48,-0.57 -7.69,-1.7 -2.21,-1.13 -4.04,-2.66 -5.47,-4.6 -1.43,-1.94 -2.52,-4.16 -3.24,-6.68 -0.73,-2.51 -1.09,-5.13 -1.09,-7.85 0,-2.72 0.36,-5.14 1.09,-7.58 0.73,-2.44 1.81,-4.59 3.24,-6.45 1.43,-1.86 3.23,-3.36 5.39,-4.49 2.16,-1.13 4.68,-1.7 7.54,-1.7 2.31,0 4.51,0.49 6.6,1.47 2.09,0.98 3.73,2.43 4.94,4.34 h 0.15 V 19.99 h 10.71 v 55 h -10.18 v -4.98 h -0.15 z m -0.45,-19.28 c -0.3,-1.48 -0.82,-2.79 -1.55,-3.92 -0.73,-1.13 -1.67,-2.05 -2.83,-2.75 -1.16,-0.7 -2.62,-1.06 -4.38,-1.06 -1.76,0 -3.24,0.35 -4.45,1.06 -1.21,0.71 -2.18,1.63 -2.9,2.79 -0.73,1.16 -1.26,2.48 -1.58,3.96 -0.33,1.48 -0.49,3.03 -0.49,4.64 0,1.51 0.18,3.02 0.53,4.53 0.35,1.51 0.92,2.86 1.7,4.04 0.78,1.18 1.76,2.14 2.94,2.87 1.18,0.73 2.6,1.09 4.26,1.09 1.76,0 3.23,-0.35 4.41,-1.06 1.18,-0.7 2.12,-1.65 2.83,-2.83 0.7,-1.18 1.21,-2.53 1.51,-4.04 0.3,-1.51 0.45,-3.07 0.45,-4.68 0,-1.61 -0.15,-3.16 -0.45,-4.64 z"
             id="path31202"
             style="stroke-width:1.66667" /></g></g></g><g
       id="g16553"
       transform="translate(75.148903,322.36218)"
       style="display:inline"><g
         id="g12709"
         transform="matrix(0.72895776,0,0,0.72895776,22.795851,-241.29748)"
         style="display:inline;stroke-width:1.37182"><path
           id="path5-8"
           d="m 130.89306,823.04526 c 0,0 -2.62116,1.52429 1.86539,2.04009 5.43533,0.62007 8.21326,0.53115 14.20302,-0.6025 0,0 1.57477,0.98741 3.77404,1.84264 -13.42747,5.75479 -30.38901,-0.33332 -19.84245,-3.28023"
           style="fill:#5382a1;stroke-width:0.253615" /><path
           id="path7-5"
           d="m 129.2523,815.53563 c 0,0 -2.93989,2.17617 1.54999,2.64057 5.80618,0.599 10.39145,0.64799 18.32573,-0.87982 0,0 1.09742,1.11258 2.82304,1.72101 -16.23461,4.74722 -34.31705,0.37437 -22.69876,-3.48176"
           style="fill:#5382a1;stroke-width:0.253615" /><path
           id="path9-7"
           d="m 143.08446,802.79682 c 3.30852,3.80917 -0.86928,7.23693 -0.86928,7.23693 0,0 8.4009,-4.33679 4.54275,-9.7675 -3.6034,-5.06446 -6.36673,-7.5808 8.5928,-16.2568 0,0 -23.48153,5.86461 -12.26627,18.78737"
           style="fill:#e76f00;stroke-width:0.253615" /><path
           id="path11-1"
           d="m 160.84337,828.59983 c 0,0 1.93971,1.59824 -2.13623,2.83469 -7.75052,2.34791 -32.25847,3.0569 -39.06668,0.0935 -2.44738,-1.06469 2.14215,-2.54221 3.58583,-2.85225 1.50563,-0.32649 2.36603,-0.26566 2.36603,-0.26566 -2.72173,-1.91734 -17.59215,3.76479 -7.55343,5.39206 27.37703,4.43977 49.90571,-1.99924 42.80448,-5.20238"
           style="fill:#5382a1;stroke-width:0.253615" /><path
           id="path13-97"
           d="m 132.15354,807.7548 c 0,0 -12.46631,2.96096 -4.41463,4.03619 3.39966,0.45516 10.17681,0.35219 16.48956,-0.17674 5.15912,-0.4352 10.3395,-1.36049 10.3395,-1.36049 0,0 -1.81917,0.77906 -3.1353,1.67774 -12.65931,3.32941 -37.11476,1.78053 -30.07435,-1.62506 5.95408,-2.87813 10.79522,-2.55164 10.79522,-2.55164"
           style="fill:#5382a1;stroke-width:0.253615" /><path
           id="path15-7"
           d="m 154.51657,820.25494 c 12.86878,-6.68712 6.91877,-13.11337 2.76573,-12.2476 -1.01792,0.21187 -1.47179,0.39545 -1.47179,0.39545 0,0 0.37789,-0.59197 1.09964,-0.84821 8.21603,-2.88849 14.53469,8.51923 -2.65222,13.03739 0,1.8e-4 0.19911,-0.17785 0.25864,-0.33703"
           style="fill:#5382a1;stroke-width:0.253615" /><path
           id="path17-4"
           d="m 146.75793,770 c 0,0 7.12693,7.12933 -6.75959,18.09223 -11.13558,8.79414 -2.53926,13.80832 -0.005,19.53722 -6.50002,-5.8646 -11.27017,-11.02724 -8.06998,-15.83214 4.69712,-7.05316 17.70973,-10.4728 14.83419,-21.79731"
           style="fill:#e76f00;stroke-width:0.253615" /><path
           id="path19"
           d="m 133.41808,838.37546 c 12.35243,0.79071 31.32097,-0.43871 31.77022,-6.28353 0,0 -0.86355,2.21573 -10.20861,3.97537 -10.54306,1.98408 -23.54642,1.75243 -31.25886,0.48086 1.9e-4,-1.9e-4 1.57884,1.30669 9.69725,1.8273"
           style="fill:#5382a1;stroke-width:0.253615" /></g><path
         style="font-size:13.2778px;line-height:1.25;font-family:'Liberation Sans';-inkscape-font-specification:'Liberation Sans, Normal'"
         d="m 223.92939,172.60478 1.13458,-0.1556 q 0.0454,1.0892 0.40845,1.49116 0.36306,0.40197 1.00491,0.40197 0.47328,0 0.81689,-0.21395 0.34362,-0.22044 0.47328,-0.58998 0.12967,-0.37604 0.12967,-1.19293 v -6.54814 h 1.25776 v 6.47682 q 0,1.19293 -0.29175,1.84774 -0.28526,0.65482 -0.91414,0.99843 -0.6224,0.34362 -1.46523,0.34362 -1.25128,0 -1.91906,-0.71965 -0.66129,-0.71965 -0.63536,-2.13949 z m 11.62456,1.84774 q -0.64833,0.55108 -1.25128,0.778 -0.59646,0.22691 -1.28369,0.22691 -1.13458,0 -1.74401,-0.55108 -0.60943,-0.55756 -0.60943,-1.41984 0,-0.5057 0.22691,-0.92063 0.2334,-0.42141 0.60295,-0.67426 0.37603,-0.25285 0.84283,-0.38252 0.34362,-0.0908 1.03733,-0.17505 1.41336,-0.16856 2.08114,-0.40196 0.006,-0.23988 0.006,-0.30472 0,-0.71316 -0.33065,-1.00491 -0.44734,-0.39548 -1.32907,-0.39548 -0.82338,0 -1.21886,0.29175 -0.389,0.28526 -0.57702,1.01788 l -1.14106,-0.1556 q 0.1556,-0.73261 0.51218,-1.17996 0.35658,-0.45383 1.03085,-0.69372 0.67426,-0.24636 1.56247,-0.24636 0.88173,0 1.43281,0.20746 0.55108,0.20747 0.81041,0.52515 0.25934,0.3112 0.36307,0.79096 0.0584,0.29824 0.0584,1.07623 v 1.55599 q 0,1.62731 0.0713,2.06169 0.0778,0.4279 0.29823,0.82338 h -1.21886 q -0.18154,-0.36306 -0.2334,-0.84931 z m -0.0972,-2.60629 q -0.63537,0.25934 -1.90609,0.44087 -0.71965,0.10373 -1.01788,0.2334 -0.29823,0.12966 -0.46031,0.38251 -0.16209,0.24637 -0.16209,0.55108 0,0.4668 0.3501,0.778 0.35658,0.3112 1.03733,0.3112 0.67426,0 1.19941,-0.29175 0.52515,-0.29823 0.77151,-0.81041 0.18802,-0.39549 0.18802,-1.167 z m 4.90137,3.4556 -2.61925,-6.88526 h 1.23183 l 1.47819,4.12338 q 0.23988,0.66778 0.44086,1.38742 0.1556,-0.54459 0.43439,-1.30962 l 1.53005,-4.20118 h 1.19941 l -2.60628,6.88526 z m 9.21926,-0.84931 q -0.64833,0.55108 -1.25128,0.778 -0.59646,0.22691 -1.28369,0.22691 -1.13458,0 -1.74401,-0.55108 -0.60943,-0.55756 -0.60943,-1.41984 0,-0.5057 0.22691,-0.92063 0.2334,-0.42141 0.60295,-0.67426 0.37603,-0.25285 0.84283,-0.38252 0.34361,-0.0908 1.03733,-0.17505 1.41336,-0.16856 2.08114,-0.40196 0.006,-0.23988 0.006,-0.30472 0,-0.71316 -0.33065,-1.00491 -0.44735,-0.39548 -1.32907,-0.39548 -0.82338,0 -1.21886,0.29175 -0.389,0.28526 -0.57702,1.01788 l -1.14106,-0.1556 q 0.1556,-0.73261 0.51218,-1.17996 0.35658,-0.45383 1.03085,-0.69372 0.67426,-0.24636 1.56247,-0.24636 0.88173,0 1.43281,0.20746 0.55108,0.20747 0.81041,0.52515 0.25934,0.3112 0.36307,0.79096 0.0584,0.29824 0.0584,1.07623 v 1.55599 q 0,1.62731 0.0713,2.06169 0.0778,0.4279 0.29824,0.82338 h -1.21886 q -0.18154,-0.36306 -0.2334,-0.84931 z m -0.0973,-2.60629 q -0.63537,0.25934 -1.90609,0.44087 -0.71965,0.10373 -1.01788,0.2334 -0.29823,0.12966 -0.46032,0.38251 -0.16208,0.24637 -0.16208,0.55108 0,0.4668 0.3501,0.778 0.35658,0.3112 1.03733,0.3112 0.67426,0 1.19941,-0.29175 0.52515,-0.29823 0.77151,-0.81041 0.18802,-0.39549 0.18802,-1.167 z"
         id="flowRoot3309-0"
         transform="matrix(1.6568991,0,0,1.6568991,-217.52771,62.002988)"
         aria-label="Java" /></g><rect
       style="display:inline;fill:none;stroke:#000000;stroke-width:0.886464;stroke-linecap:round;stroke-linejoin:round;stroke-miterlimit:4;stroke-dasharray:none;stroke-opacity:1"
       id="rect22070"
       width="589.11353"
       height="69.113533"
       x="30.443235"
       y="632.80542"
       rx="3.926765"
       ry="5.0030017" /><g
       id="g23349"
       transform="translate(8.026104,322.36218)"
       style="display:inline"><g
         id="g23339"
         transform="matrix(1.3982561,0,0,1.3982561,308.82591,-935.11351)"
         style="display:inline;stroke-width:0.715176"><path
           fill="url(#a)"
           d="m 406.71729,227.02573 h -24.92854 v -24.92854 h 24.92854 l -12.46427,12.45931 z"
           id="path3"
           style="display:inline;fill:url(#a);stroke-width:0.0973772"
           transform="matrix(0.71517657,0,0,0.71517657,-226.60514,761.74423)" /></g><path
         style="font-size:13.2778px;line-height:1.25;font-family:'Liberation Sans';-inkscape-font-specification:'Liberation Sans, Normal'"
         d="m 224.51937,175.30183 v -9.50452 h 1.25776 v 4.71336 l 4.71984,-4.71336 h 1.70511 l -3.98723,3.85109 4.16228,5.65343 h -1.65972 l -3.38429,-4.81061 -1.55599,1.5171 v 3.29351 z m 8.32456,-3.44263 q 0,-1.91257 1.06326,-2.8332 0.88821,-0.76503 2.16542,-0.76503 1.41984,0 2.32102,0.93359 0.90118,0.92712 0.90118,2.56739 0,1.32908 -0.40196,2.09411 -0.39548,0.75854 -1.16051,1.17996 -0.75855,0.42141 -1.65973,0.42141 -1.44577,0 -2.34047,-0.92711 -0.88821,-0.92711 -0.88821,-2.67112 z m 1.19941,0 q 0,1.32259 0.57701,1.98389 0.57702,0.65481 1.45226,0.65481 0.86876,0 1.44578,-0.66129 0.57701,-0.6613 0.57701,-2.01631 0,-1.27721 -0.5835,-1.93202 -0.57701,-0.6613 -1.43929,-0.6613 -0.87524,0 -1.45226,0.65481 -0.57701,0.65482 -0.57701,1.97741 z m 9.16739,2.39882 0.16856,1.03085 q -0.49273,0.10373 -0.88173,0.10373 -0.63536,0 -0.98546,-0.20098 -0.3501,-0.20098 -0.49273,-0.52515 -0.14263,-0.33065 -0.14263,-1.38094 v -3.9613 h -0.8558 v -0.90766 h 0.8558 v -1.70511 l 1.16051,-0.7002 v 2.40531 h 1.17348 v 0.90766 h -1.17348 v 4.02613 q 0,0.49921 0.0583,0.64185 0.0648,0.14263 0.20098,0.22691 0.14263,0.0843 0.40197,0.0843 0.1945,0 0.51218,-0.0454 z m 1.11512,1.04381 v -9.50452 h 1.167 v 9.50452 z m 2.98232,-8.16247 v -1.34205 h 1.167 v 1.34205 z m 0,8.16247 v -6.88526 h 1.167 v 6.88526 z m 2.94342,0 v -6.88526 h 1.05029 v 0.97898 q 0.75855,-1.13458 2.19136,-1.13458 0.6224,0 1.14106,0.22691 0.52515,0.22044 0.78448,0.5835 0.25933,0.36307 0.36307,0.86228 0.0648,0.32417 0.0648,1.13458 v 4.23359 h -1.167 v -4.18821 q 0,-0.71316 -0.13614,-1.06326 -0.13615,-0.35658 -0.48625,-0.56405 -0.34362,-0.21395 -0.81041,-0.21395 -0.74558,0 -1.29018,0.47328 -0.53812,0.47329 -0.53812,1.79588 v 3.76031 z"
         id="flowRoot23347"
         transform="matrix(1.6568991,0,0,1.6568991,36.49192,62.002988)"
         aria-label="Kotlin" /></g><rect
       style="display:inline;fill:none;stroke:#000000;stroke-width:0.605347;stroke-linecap:round;stroke-linejoin:round;stroke-miterlimit:4;stroke-dasharray:none;stroke-opacity:1"
       id="rect22072"
       width="139.39465"
       height="69.394653"
       x="630.30267"
       y="632.66486"
       rx="3.9346993"
       ry="2.3283033" /><g
       id="g16563"
       transform="translate(49.669219,322.36218)"
       style="display:inline"><g
         id="g12864"
         transform="translate(226.37363)"><path
           style="font-size:13.2778px;line-height:1.25;font-family:'Liberation Sans';-inkscape-font-specification:'Liberation Sans, Normal'"
           d="m 224.57124,175.30183 v -9.50452 h 3.58526 q 0.94656,0 1.44578,0.0908 0.70019,0.1167 1.17348,0.44735 0.47328,0.32416 0.75854,0.91414 0.29175,0.58998 0.29175,1.29666 0,1.21238 -0.77151,2.05521 -0.77152,0.83635 -2.78782,0.83635 H 225.829 v 3.86404 z m 1.25776,-4.98565 h 2.45717 q 1.21886,0 1.73104,-0.45384 0.51218,-0.45383 0.51218,-1.27721 0,-0.59646 -0.30472,-1.01787 -0.29823,-0.4279 -0.79096,-0.56405 -0.31768,-0.0843 -1.17348,-0.0843 H 225.829 Z m 7.39744,7.63732 -0.12966,-1.09567 q 0.38251,0.10373 0.66778,0.10373 0.38899,0 0.62239,-0.12967 0.2334,-0.12966 0.38252,-0.36306 0.11021,-0.17505 0.35658,-0.86876 0.0324,-0.0972 0.10373,-0.28527 l -2.61277,-6.89823 h 1.25776 l 1.43281,3.98723 q 0.27878,0.75854 0.49922,1.59489 0.20098,-0.80393 0.47976,-1.56896 l 1.47171,-4.01316 h 1.16699 l -2.61925,7.00196 q -0.42141,1.13458 -0.65481,1.56248 -0.3112,0.57701 -0.71317,0.84283 -0.40196,0.2723 -0.95952,0.2723 -0.33714,0 -0.75207,-0.14264 z m 9.23871,-3.69548 0.16856,1.03085 q -0.49273,0.10373 -0.88173,0.10373 -0.63536,0 -0.98546,-0.20098 -0.3501,-0.20098 -0.49273,-0.52515 -0.14263,-0.33065 -0.14263,-1.38094 v -3.9613 h -0.8558 v -0.90766 h 0.8558 v -1.70511 l 1.16051,-0.7002 v 2.40531 h 1.17348 v 0.90766 h -1.17348 v 4.02613 q 0,0.49921 0.0583,0.64185 0.0648,0.14263 0.20098,0.22691 0.14263,0.0843 0.40197,0.0843 0.19449,0 0.51218,-0.0454 z m 1.14106,1.04381 v -9.50452 h 1.16699 v 3.41022 q 0.8169,-0.94656 2.06169,-0.94656 0.76503,0 1.32908,0.30471 0.56404,0.29824 0.80393,0.82987 0.24636,0.53163 0.24636,1.54302 v 4.36326 h -1.16699 v -4.36326 q 0,-0.87524 -0.38252,-1.27072 -0.37603,-0.40197 -1.06974,-0.40197 -0.51867,0 -0.97898,0.2723 -0.45383,0.26581 -0.64833,0.72613 -0.1945,0.46031 -0.1945,1.27073 v 3.76679 z m 6.95009,-3.44263 q 0,-1.91257 1.06327,-2.8332 0.88821,-0.76503 2.16542,-0.76503 1.41984,0 2.32102,0.93359 0.90118,0.92712 0.90118,2.56739 0,1.32908 -0.40197,2.09411 -0.39548,0.75854 -1.16051,1.17996 -0.75854,0.42141 -1.65972,0.42141 -1.44578,0 -2.34047,-0.92711 -0.88822,-0.92711 -0.88822,-2.67112 z m 1.19942,0 q 0,1.32259 0.57701,1.98389 0.57701,0.65481 1.45226,0.65481 0.86876,0 1.44577,-0.66129 0.57702,-0.6613 0.57702,-2.01631 0,-1.27721 -0.5835,-1.93202 -0.57701,-0.6613 -1.43929,-0.6613 -0.87525,0 -1.45226,0.65481 -0.57701,0.65482 -0.57701,1.97741 z m 6.61945,3.44263 v -6.88526 h 1.05029 v 0.97898 q 0.75855,-1.13458 2.19136,-1.13458 0.62239,0 1.14106,0.22691 0.52514,0.22044 0.78448,0.5835 0.25933,0.36307 0.36306,0.86228 0.0648,0.32417 0.0648,1.13458 v 4.23359 h -1.16699 v -4.18821 q 0,-0.71316 -0.13615,-1.06326 -0.13615,-0.35658 -0.48625,-0.56405 -0.34361,-0.21395 -0.81041,-0.21395 -0.74558,0 -1.29018,0.47328 -0.53811,0.47329 -0.53811,1.79588 v 3.76031 z"
           id="flowRoot12850"
           transform="matrix(1.6568991,0,0,1.6568991,36.49192,62.002988)"
           aria-label="Python" /></g><g
         id="g12998"
         transform="matrix(0.2224417,0,0,0.2224417,599.09425,332.84949)"
         style="stroke-width:4.49555"><path
           style="fill:url(#linearGradient1478);fill-opacity:1;stroke-width:4.49555"
           d="m 60.510156,6.3979729 c -4.583653,0.021298 -8.960939,0.4122177 -12.8125,1.09375 C 36.35144,9.4962267 34.291407,13.691825 34.291406,21.429223 v 10.21875 h 26.8125 v 3.40625 h -26.8125 -10.0625 c -7.792459,0 -14.6157592,4.683717 -16.7500002,13.59375 -2.46182,10.212966 -2.5710151,16.586023 0,27.25 1.9059283,7.937852 6.4575432,13.593748 14.2500002,13.59375 h 9.21875 v -12.25 c 0,-8.849902 7.657144,-16.656248 16.75,-16.65625 h 26.78125 c 7.454951,0 13.406253,-6.138164 13.40625,-13.625 v -25.53125 c 0,-7.266339 -6.12998,-12.7247775 -13.40625,-13.9375001 -4.605987,-0.7667253 -9.385097,-1.1150483 -13.96875,-1.09375 z m -14.5,8.2187501 c 2.769547,0 5.03125,2.298646 5.03125,5.125 -2e-6,2.816336 -2.261703,5.09375 -5.03125,5.09375 -2.779476,-1e-6 -5.03125,-2.277415 -5.03125,-5.09375 -1e-6,-2.826353 2.251774,-5.125 5.03125,-5.125 z"
           id="path1948" /><path
           style="fill:url(#linearGradient1475);fill-opacity:1;stroke-width:4.49555"
           d="m 91.228906,35.054223 v 11.90625 c 0,9.230755 -7.825895,16.999999 -16.75,17 h -26.78125 c -7.335833,0 -13.406249,6.278483 -13.40625,13.625 v 25.531247 c 0,7.26634 6.318588,11.54032 13.40625,13.625 8.487331,2.49561 16.626237,2.94663 26.78125,0 6.750155,-1.95439 13.406253,-5.88761 13.40625,-13.625 V 92.897973 h -26.78125 v -3.40625 h 26.78125 13.406254 c 7.79246,0 10.69625,-5.435408 13.40624,-13.59375 2.79933,-8.398886 2.68022,-16.475776 0,-27.25 -1.92578,-7.757441 -5.60387,-13.59375 -13.40624,-13.59375 z m -15.0625,64.65625 c 2.779478,3e-6 5.03125,2.277417 5.03125,5.093747 -2e-6,2.82635 -2.251775,5.125 -5.03125,5.125 -2.76955,0 -5.03125,-2.29865 -5.03125,-5.125 2e-6,-2.81633 2.261697,-5.093747 5.03125,-5.093747 z"
           id="path1950" /></g></g></g><style
     type="text/css"
     id="style1">
	.st0{fill:url(#ICON_00000088831890668800157600000002638584723837204667_);}
</style></svg>
