<?xml version="1.0" encoding="UTF-8" standalone="no"?>
<!-- Created with Inkscape (http://www.inkscape.org/) -->

<svg
   width="800"
   height="600"
   id="svg2"
   version="1.1"
   xmlns="http://www.w3.org/2000/svg"
   xmlns:svg="http://www.w3.org/2000/svg"
   xmlns:rdf="http://www.w3.org/1999/02/22-rdf-syntax-ns#"
   xmlns:cc="http://creativecommons.org/ns#"
   xmlns:dc="http://purl.org/dc/elements/1.1/">
  <defs
     id="defs4">
    <rect
       x="548.57273"
       y="341.12512"
       width="200.51066"
       height="73.394451"
       id="rect23214" />
    <linearGradient
       id="linearGradient2675">
      <stop
         id="stop2677"
         offset="0.0000000"
         style="stop-color:#5b5b97;stop-opacity:1.0000000;" />
      <stop
         id="stop2679"
         offset="1.0000000"
         style="stop-color:#1b1b43;stop-opacity:1.0000000;" />
    </linearGradient>
    <linearGradient
       id="linearGradient3290-7">
      <stop
         style="stop-color:#fffcde;stop-opacity:1.0000000;"
         offset="0.0000000"
         id="stop3292-1" />
      <stop
         id="stop3294-7"
         offset="0.64485979"
         style="stop-color:#f6e76a;stop-opacity:1.0000000;" />
      <stop
         style="stop-color:#ffb738;stop-opacity:1.0000000;"
         offset="1.0000000"
         id="stop3296-6" />
    </linearGradient>
    <linearGradient
       id="linearGradient8543">
      <stop
         id="stop8545"
         offset="0"
         style="stop-color:#fffef5;stop-opacity:0.94117647;" />
      <stop
         id="stop8547"
         offset="1"
         style="stop-color:#729fcf;stop-opacity:1;" />
    </linearGradient>
    <linearGradient
       id="linearGradient11202">
      <stop
         id="stop11204"
         offset="0"
         style="stop-color:#729fcf;stop-opacity:0;" />
      <stop
         id="stop11206"
         offset="1"
         style="stop-color:#729fcf;stop-opacity:1;" />
    </linearGradient>
    <linearGradient
       id="linearGradient4454">
      <stop
         id="stop4456"
         offset="0.0000000"
         style="stop-color:#729fcf;stop-opacity:0.20784314;" />
      <stop
         id="stop4458"
         offset="1.0000000"
         style="stop-color:#729fcf;stop-opacity:0.67619050;" />
    </linearGradient>
    <linearGradient
       id="linearGradient4467">
      <stop
         id="stop4469"
         offset="0"
         style="stop-color:#ffffff;stop-opacity:1;" />
      <stop
         id="stop4471"
         offset="1.0000000"
         style="stop-color:#ffffff;stop-opacity:0.24761905;" />
    </linearGradient>
    <linearGradient
       id="linearGradient4083">
      <stop
         id="stop4085"
         offset="0"
         style="stop-color:#ffffff;stop-opacity:0;" />
      <stop
         style="stop-color:#ffffff;stop-opacity:0;"
         offset="0.75"
         id="stop4089" />
      <stop
         id="stop4087"
         offset="1"
         style="stop-color:#ffffff;stop-opacity:1;" />
    </linearGradient>
    <linearGradient
       id="linearGradient4032">
      <stop
         id="stop4034"
         offset="0"
         style="stop-color:#fff7c2;stop-opacity:0.63829786" />
      <stop
         style="stop-color:#fcaf3e;stop-opacity:0.18348624;"
         offset="0.59394139"
         id="stop4036" />
      <stop
         id="stop4038"
         offset="0.83850551"
         style="stop-color:#fcaf3e;stop-opacity:0.50458717;" />
      <stop
         id="stop4040"
         offset="1"
         style="stop-color:#fcaf3e;stop-opacity:1;" />
    </linearGradient>
    <linearGradient
       id="linearGradient4026">
      <stop
         id="stop4028"
         offset="0"
         style="stop-color:#fff9c6;stop-opacity:1" />
      <stop
         style="stop-color:#fff28c;stop-opacity:1;"
         offset="0.54166669"
         id="stop4042" />
      <stop
         id="stop4030"
         offset="1"
         style="stop-color:#ffea85;stop-opacity:1;" />
    </linearGradient>
    <linearGradient
       id="linearGradient3863">
      <stop
         id="stop3879"
         offset="0"
         style="stop-color:#ffffff;stop-opacity:1;" />
      <stop
         style="stop-color:#eeeeec;stop-opacity:1;"
         offset="1"
         id="stop3867" />
    </linearGradient>
    <linearGradient
       id="linearGradient3889">
      <stop
         style="stop-color:#ffffff;stop-opacity:1;"
         offset="0"
         id="stop3891" />
      <stop
         style="stop-color:#f7f7f7;stop-opacity:1;"
         offset="1"
         id="stop3893" />
    </linearGradient>
    <clipPath
       clipPathUnits="userSpaceOnUse"
       id="clipPath3416-05-0-3">
      <g
         id="g3418-9-9-6">
        <path
           transform="translate(0,452.36218)"
           id="path3420-5-6-7"
           d="M 439.48919,336.86148 410,300 l 40,-20 40,20 -29.81644,37.27054"
           style="fill:#8ae234;stroke:none" />
        <path
           style="fill:#8ae234;stroke:none"
           d="m 443.53687,818.90496 -16.83814,43.09824 -37.32051,-24.64102 -2.67949,-44.64102 46.99742,7.15788"
           id="path3422-2-2-5" />
        <path
           id="path3424-2-5-3"
           d="m 466.54077,799.84296 46.76051,-7.1218 -2.6795,44.64102 -37.32051,24.64101 -16.92275,-43.31479"
           style="fill:#8ae234;stroke:none" />
      </g>
    </clipPath>
    <radialGradient
       gradientUnits="userSpaceOnUse"
       fy="39.5928"
       fx="25.0527"
       r="15.7572"
       cy="39.5928"
       cx="25.0527"
       id="aigrd2-9"
       gradientTransform="matrix(0.617019,0,0,0.617019,357.23526,915.18886)">
      <stop
         id="stop8602-1"
         style="stop-color:#777777;stop-opacity:1.0000000;"
         offset="0.0000000" />
      <stop
         id="stop8604-27"
         style="stop-color:#000000"
         offset="1" />
    </radialGradient>
    <radialGradient
       gradientTransform="matrix(1.25,0,0,1.25,-6.479446,-13.37211)"
       id="aigrd2-2-3-6"
       cx="25.0527"
       cy="39.5928"
       r="15.7572"
       fx="25.0527"
       fy="39.5928"
       gradientUnits="userSpaceOnUse">
      <stop
         offset="0.0000000"
         style="stop-color:#777777;stop-opacity:1.0000000;"
         id="stop8602-1-1-1" />
      <stop
         offset="1"
         style="stop-color:#000000"
         id="stop8604-3-7-5" />
    </radialGradient>
    <radialGradient
       gradientUnits="userSpaceOnUse"
       fy="39.5928"
       fx="25.0527"
       r="15.7572"
       cy="39.5928"
       cx="25.0527"
       id="aigrd2-27-5"
       gradientTransform="matrix(0.617019,0,0,0.617019,357.23526,915.18886)">
      <stop
         id="stop8602-4-6"
         style="stop-color:#777777;stop-opacity:1.0000000;"
         offset="0.0000000" />
      <stop
         id="stop8604-2-93"
         style="stop-color:#000000"
         offset="1" />
    </radialGradient>
    <radialGradient
       gradientUnits="userSpaceOnUse"
       fy="39.5928"
       fx="25.0527"
       r="15.7572"
       cy="39.5928"
       cx="25.0527"
       id="aigrd2-27-2-5"
       gradientTransform="matrix(0.617019,0,0,0.617019,357.23526,915.18886)">
      <stop
         id="stop8602-4-3-2"
         style="stop-color:#777777;stop-opacity:1.0000000;"
         offset="0.0000000" />
      <stop
         id="stop8604-2-9-5"
         style="stop-color:#000000"
         offset="1" />
    </radialGradient>
  </defs>
  <metadata
     id="metadata7">
    <rdf:RDF>
      <cc:Work
         rdf:about="">
        <dc:format>image/svg+xml</dc:format>
        <dc:type
           rdf:resource="http://purl.org/dc/dcmitype/StillImage" />
        <dc:language>en</dc:language>
        <cc:license
           rdf:resource="https://timefold.ai/license" />
      </cc:Work>
    </rdf:RDF>
  </metadata>
  <g
     id="layer1"
     transform="translate(0,-452.36218)"
     style="display:inline">
    <g
       id="g3709"
       transform="translate(0,19.999997)" />
    <flowRoot
       xml:space="preserve"
       id="flowRoot4157"
       style="font-style:normal;font-weight:normal;line-height:0.01%;font-family:sans-serif;letter-spacing:0px;word-spacing:0px;fill:#000000;fill-opacity:1;stroke:none"><flowRegion
         id="flowRegion4159"
         style="font-family:sans-serif"><rect
           id="rect4161"
           width="10.955056"
           height="72.471909"
           x="16.011236"
           y="-53.932568"
           style="font-family:sans-serif" /></flowRegion><flowPara
         id="flowPara4163"
         style="font-size:40px;line-height:1.25;font-family:sans-serif"> </flowPara></flowRoot>
    <g
       id="Layer_1-2"
       transform="matrix(0.4,0,0,0.4,304.298,711.99126)"
       style="display:inline;stroke-width:1.66667">
      <g
         id="g31206"
         style="stroke-width:1.66667">
        <path
           d="M 52,25 V 0 H 25 V 25 H 9.1 L 0,50 h 25 v 50 h 28.35 c 5.25,0 9.95,-3.29 11.75,-8.22 l 5.46,-15.01 c 0,0 0.64,-1.76 2.52,-1.76 h 39.62 l 9.1,-25 H 89.05 c -5.25,0 -9.95,3.29 -11.75,8.22 l -5.46,15.01 c 0,0 -0.64,1.76 -2.52,1.76 H 51.99 V 50 h 19.55 c 5.25,0 9.95,-3.29 11.75,-8.22 l 5.46,-15.01 c 0,0 0.64,-1.76 2.52,-1.76 h 44.62 L 145,0 H 107.25 C 102,0 97.3,3.29 95.5,8.22 l -5.46,15.01 c 0,0 -0.64,1.76 -2.52,1.76 H 51.99 Z"
           id="path31186"
           style="stroke-width:1.66667" />
        <g
           id="g31204"
           style="stroke-width:1.66667">
          <path
             d="m 214.81,66.3 -2.12,5.83 c -0.63,1.72 -2.26,2.86 -4.09,2.86 h -9.26 c -2.4,0 -4.34,-1.94 -4.34,-4.34 v -27.5 h -6.49 V 35.98 H 195 v -11 h 10.71 v 11 h 7.85 v 7.17 h -7.85 v 23.14 h 9.1 z"
             id="path31188"
             style="stroke-width:1.66667" />
          <path
             d="m 370.25,28.7 h -7.39 V 36 h 7.39 v 7.17 h -7.39 V 75.01 H 352.15 V 43.17 h -6.49 V 36 h 6.49 V 24.34 c 0,-2.4 1.94,-4.34 4.34,-4.34 h 16.93 l -3.16,8.7 z"
             id="path31190"
             style="stroke-width:1.66667" />
          <path
             d="M 218.99,30 V 20 h 10.71 v 10 z m 10.71,6 V 75 H 218.99 V 36 Z"
             id="path31192"
             style="stroke-width:1.66667" />
          <path
             d="m 248.56,36 v 5.28 h 0.15 c 1.41,-2.01 3.1,-3.57 5.09,-4.68 1.99,-1.11 4.26,-1.66 6.83,-1.66 2.57,0 4.72,0.48 6.75,1.43 2.04,0.96 3.58,2.64 4.64,5.05 1.16,-1.71 2.73,-3.22 4.72,-4.53 1.99,-1.31 4.34,-1.96 7.05,-1.96 2.06,0 3.97,0.25 5.73,0.76 1.76,0.5 3.27,1.31 4.53,2.41 1.26,1.11 2.24,2.55 2.94,4.34 0.7,1.79 1.06,3.94 1.06,6.45 v 26.1 h -10.71 v -22.1 c 0,-1.31 -0.05,-2.54 -0.15,-3.7 -0.1,-1.16 -0.38,-2.16 -0.83,-3.02 -0.45,-0.85 -1.12,-1.53 -2,-2.04 -0.88,-0.5 -2.08,-0.75 -3.58,-0.75 -1.5,0 -2.73,0.29 -3.66,0.87 -0.93,0.58 -1.66,1.33 -2.19,2.26 -0.53,0.93 -0.88,1.99 -1.06,3.17 -0.18,1.18 -0.26,2.38 -0.26,3.58 V 74.99 H 262.9 V 53.11 c 0,-1.16 -0.03,-2.3 -0.08,-3.43 -0.05,-1.13 -0.26,-2.17 -0.64,-3.13 -0.38,-0.95 -1.01,-1.72 -1.89,-2.3 -0.88,-0.58 -2.18,-0.87 -3.89,-0.87 -0.5,0 -1.17,0.11 -2,0.34 -0.83,0.23 -1.63,0.65 -2.41,1.28 -0.78,0.63 -1.45,1.53 -2,2.71 -0.55,1.18 -0.83,2.73 -0.83,4.64 v 22.63 h -10.71 v -39 h 10.11 z"
             id="path31194"
             style="stroke-width:1.66667" />
          <path
             d="m 317.97,65.64 c 1.61,1.56 3.92,2.34 6.94,2.34 2.16,0 4.02,-0.54 5.58,-1.62 1.56,-1.08 2.51,-2.22 2.87,-3.43 h 9.43 c -1.51,4.68 -3.82,8.02 -6.94,10.03 -3.12,2.01 -6.89,3.02 -11.32,3.02 -3.07,0 -5.84,-0.49 -8.3,-1.47 -2.47,-0.98 -4.55,-2.38 -6.26,-4.19 -1.71,-1.81 -3.03,-3.97 -3.96,-6.49 -0.93,-2.51 -1.4,-5.28 -1.4,-8.3 0,-3.02 0.48,-5.63 1.43,-8.15 0.95,-2.51 2.31,-4.69 4.07,-6.53 1.76,-1.83 3.86,-3.28 6.3,-4.34 2.44,-1.06 5.14,-1.59 8.11,-1.59 3.32,0 6.21,0.64 8.68,1.92 2.46,1.28 4.49,3.01 6.07,5.17 1.58,2.16 2.73,4.63 3.43,7.39 0.7,2.77 0.95,5.66 0.75,8.68 h -28.14 c 0.15,3.47 1.03,5.99 2.64,7.54 z m 12.11,-20.52 c -1.28,-1.41 -3.23,-2.11 -5.85,-2.11 -1.71,0 -3.13,0.29 -4.26,0.87 -1.13,0.58 -2.04,1.3 -2.72,2.15 -0.68,0.86 -1.16,1.76 -1.43,2.72 -0.28,0.96 -0.44,1.81 -0.49,2.57 h 17.43 c -0.5,-2.72 -1.4,-4.78 -2.68,-6.19 z"
             id="path31196"
             style="stroke-width:1.66667" />
          <path
             d="m 375.16,47.05 c 0.95,-2.54 2.31,-4.7 4.07,-6.49 1.76,-1.79 3.87,-3.17 6.34,-4.15 2.46,-0.98 5.23,-1.47 8.3,-1.47 3.07,0 5.85,0.49 8.34,1.47 2.49,0.98 4.61,2.36 6.37,4.15 1.76,1.79 3.12,3.95 4.07,6.49 0.95,2.54 1.43,5.37 1.43,8.49 0,3.12 -0.48,5.94 -1.43,8.45 -0.96,2.51 -2.31,4.66 -4.07,6.45 -1.76,1.79 -3.89,3.16 -6.37,4.11 -2.49,0.96 -5.27,1.43 -8.34,1.43 -3.07,0 -5.84,-0.48 -8.3,-1.43 -2.47,-0.95 -4.58,-2.33 -6.34,-4.11 -1.76,-1.79 -3.12,-3.94 -4.07,-6.45 -0.96,-2.51 -1.43,-5.33 -1.43,-8.45 0,-3.12 0.48,-5.95 1.43,-8.49 z m 9.73,13.05 c 0.3,1.48 0.82,2.82 1.55,4 0.73,1.18 1.7,2.13 2.9,2.83 1.21,0.7 2.72,1.06 4.53,1.06 1.81,0 3.33,-0.35 4.56,-1.06 1.23,-0.7 2.21,-1.65 2.94,-2.83 0.73,-1.18 1.24,-2.51 1.55,-4 0.3,-1.48 0.45,-3 0.45,-4.57 0,-1.57 -0.15,-3.09 -0.45,-4.6 -0.3,-1.51 -0.82,-2.84 -1.55,-4 -0.73,-1.16 -1.71,-2.1 -2.94,-2.83 -1.23,-0.73 -2.75,-1.09 -4.56,-1.09 -1.81,0 -3.32,0.37 -4.53,1.09 -1.21,0.73 -2.18,1.67 -2.9,2.83 -0.73,1.16 -1.25,2.49 -1.55,4 -0.3,1.51 -0.45,3.04 -0.45,4.6 0,1.56 0.15,3.08 0.45,4.57 z"
             id="path31198"
             style="stroke-width:1.66667" />
          <path
             d="M 432.04,20 V 75 H 421.33 V 20 Z"
             id="path31200"
             style="stroke-width:1.66667" />
          <path
             d="m 468.18,70.02 c -1.26,2.11 -2.9,3.63 -4.94,4.56 -2.04,0.93 -4.34,1.4 -6.9,1.4 -2.92,0 -5.48,-0.57 -7.69,-1.7 -2.21,-1.13 -4.04,-2.66 -5.47,-4.6 -1.43,-1.94 -2.52,-4.16 -3.24,-6.68 -0.73,-2.51 -1.09,-5.13 -1.09,-7.85 0,-2.72 0.36,-5.14 1.09,-7.58 0.73,-2.44 1.81,-4.59 3.24,-6.45 1.43,-1.86 3.23,-3.36 5.39,-4.49 2.16,-1.13 4.68,-1.7 7.54,-1.7 2.31,0 4.51,0.49 6.6,1.47 2.09,0.98 3.73,2.43 4.94,4.34 h 0.15 V 19.99 h 10.71 v 55 h -10.18 v -4.98 h -0.15 z m -0.45,-19.28 c -0.3,-1.48 -0.82,-2.79 -1.55,-3.92 -0.73,-1.13 -1.67,-2.05 -2.83,-2.75 -1.16,-0.7 -2.62,-1.06 -4.38,-1.06 -1.76,0 -3.24,0.35 -4.45,1.06 -1.21,0.71 -2.18,1.63 -2.9,2.79 -0.73,1.16 -1.26,2.48 -1.58,3.96 -0.33,1.48 -0.49,3.03 -0.49,4.64 0,1.51 0.18,3.02 0.53,4.53 0.35,1.51 0.92,2.86 1.7,4.04 0.78,1.18 1.76,2.14 2.94,2.87 1.18,0.73 2.6,1.09 4.26,1.09 1.76,0 3.23,-0.35 4.41,-1.06 1.18,-0.7 2.12,-1.65 2.83,-2.83 0.7,-1.18 1.21,-2.53 1.51,-4.04 0.3,-1.51 0.45,-3.07 0.45,-4.68 0,-1.61 -0.15,-3.16 -0.45,-4.64 z"
             id="path31202"
             style="stroke-width:1.66667" />
        </g>
      </g>
    </g>
    <g
       id="text23212"
       style="font-size:16px;line-height:1.15;-inkscape-font-specification:sans-serif;text-align:center;white-space:pre;stroke-width:1px;stroke-linecap:round;stroke-linejoin:round"
       transform="translate(-248.27734,416.52373)"
       aria-label="Planning optimization&#10;made easy">
      <path
         style="font-style:italic"
         d="m 570.94922,349.38322 q -0.71875,0.59375 -1.60938,0.89063 -0.88281,0.28906 -2.13281,0.28906 h -1.69531 l -1.00781,4.35937 h -1.5625 l 2.6875,-11.63281 h 3.0625 q 1.0625,0 1.75781,0.1875 0.69531,0.1875 1.14062,0.53906 0.46094,0.35157 0.70313,0.85938 0.24219,0.5 0.24219,1.21094 0,0.95312 -0.41407,1.8125 -0.41406,0.85156 -1.17187,1.48437 z m -0.0703,-3.03125 q 0,-0.39844 -0.13282,-0.74219 -0.13281,-0.34375 -0.41406,-0.5625 -0.33594,-0.25781 -0.79687,-0.36718 -0.45313,-0.11719 -1.1875,-0.11719 h -1.44532 l -1.10156,4.74219 h 1.39063 q 0.9375,0 1.55468,-0.17188 0.625,-0.17187 1.07813,-0.54687 0.53125,-0.44532 0.78906,-1 0.26563,-0.55469 0.26563,-1.23438 z m 5.89843,-3.58594 -2.8125,12.15625 h -1.46875 l 2.8125,-12.15625 z m 6.48438,7.55469 q -1.20313,0.0469 -2.14063,0.1875 -0.92968,0.13281 -1.53906,0.39063 -0.63281,0.25781 -0.96094,0.70312 -0.32812,0.4375 -0.32812,1.09375 0,0.5625 0.38281,0.85938 0.38281,0.29687 1.1875,0.29687 0.71094,0 1.44531,-0.3125 0.74219,-0.32031 1.38282,-0.76562 z m -0.85156,3.67188 q -0.21094,0.125 -0.57813,0.35937 -0.35937,0.22656 -0.73437,0.39063 -0.39844,0.17968 -0.89063,0.29687 -0.49219,0.125 -1.13281,0.125 -1.03906,0 -1.6875,-0.60156 -0.64844,-0.60938 -0.64844,-1.58594 0,-1.03906 0.45313,-1.75 0.46093,-0.71875 1.35937,-1.17187 0.88281,-0.44532 2.125,-0.64063 1.25,-0.20312 2.84375,-0.25 0.0469,-0.21875 0.0781,-0.375 0.0312,-0.16406 0.0312,-0.33594 0,-0.375 -0.14844,-0.60937 -0.14844,-0.23438 -0.42188,-0.375 -0.27343,-0.14063 -0.64062,-0.1875 -0.35938,-0.0547 -0.79688,-0.0547 -0.66406,0 -1.51562,0.21875 -0.85156,0.21094 -1.38281,0.42188 h -0.0781 l 0.28906,-1.46875 q 0.44532,-0.11719 1.30469,-0.26563 0.85938,-0.14844 1.64844,-0.14844 1.625,0 2.4375,0.50782 0.8125,0.50781 0.8125,1.60937 0,0.21094 -0.0391,0.45313 -0.0312,0.23437 -0.0781,0.44531 l -1.36719,5.92187 h -1.46093 z m 12.8125,-5.80469 q 0,0.1875 -0.0391,0.50781 -0.0312,0.32031 -0.0937,0.5625 l -1.3125,5.66406 h -1.46875 l 1.14844,-4.96875 q 0.0937,-0.41406 0.14063,-0.71875 0.0547,-0.3125 0.0547,-0.61718 0,-0.65625 -0.32812,-0.98438 -0.32031,-0.33594 -1.16406,-0.33594 -0.59375,0 -1.3125,0.32813 -0.71094,0.32812 -1.39063,0.78125 l -1.50781,6.51562 h -1.46875 l 2.01562,-8.72656 h 1.46875 l -0.22656,0.96875 q 0.83594,-0.58594 1.5625,-0.89844 0.73438,-0.3125 1.50781,-0.3125 1.14063,0 1.77344,0.57813 0.64063,0.57031 0.64063,1.65625 z m 10.125,0 q 0,0.1875 -0.0391,0.50781 -0.0312,0.32031 -0.0937,0.5625 l -1.3125,5.66406 h -1.46875 l 1.14844,-4.96875 q 0.0937,-0.41406 0.14063,-0.71875 0.0547,-0.3125 0.0547,-0.61718 0,-0.65625 -0.32812,-0.98438 -0.32031,-0.33594 -1.16406,-0.33594 -0.59375,0 -1.3125,0.32813 -0.71094,0.32812 -1.39063,0.78125 l -1.50781,6.51562 h -1.46875 l 2.01562,-8.72656 h 1.46875 l -0.22656,0.96875 q 0.83594,-0.58594 1.5625,-0.89844 0.73438,-0.3125 1.50781,-0.3125 1.14063,0 1.77344,0.57813 0.64063,0.57031 0.64063,1.65625 z m 5.66406,-4.97656 -0.35156,1.52343 h -1.65625 l 0.35156,-1.52343 z m -0.78125,2.98437 -2.01563,8.72656 h -1.46875 l 2.01563,-8.72656 z m 9.63281,1.99219 q 0,0.1875 -0.0391,0.50781 -0.0312,0.32031 -0.0937,0.5625 l -1.3125,5.66406 h -1.46875 l 1.14844,-4.96875 q 0.0937,-0.41406 0.14062,-0.71875 0.0547,-0.3125 0.0547,-0.61718 0,-0.65625 -0.32813,-0.98438 -0.32031,-0.33594 -1.16406,-0.33594 -0.59375,0 -1.3125,0.32813 -0.71094,0.32812 -1.39062,0.78125 l -1.50782,6.51562 h -1.46875 l 2.01563,-8.72656 h 1.46875 l -0.22656,0.96875 q 0.83593,-0.58594 1.5625,-0.89844 0.73437,-0.3125 1.50781,-0.3125 1.14062,0 1.77344,0.57813 0.64062,0.57031 0.64062,1.65625 z m 10.45313,-1.99219 -1.77344,7.75781 q -0.51563,2.21875 -1.69531,3.24219 -1.17188,1.03125 -3.26563,1.03125 -0.67187,0 -1.35937,-0.10156 -0.67969,-0.10156 -1.25,-0.27344 l 0.33593,-1.46094 h 0.0781 q 0.4375,0.19532 1.17969,0.375 0.74218,0.17969 1.39843,0.17969 0.74219,0 1.25782,-0.19531 0.52343,-0.1875 0.85937,-0.51563 0.32813,-0.32812 0.53125,-0.76562 0.21094,-0.42969 0.32813,-0.96875 l 0.17968,-0.76563 q -0.78906,0.53125 -1.39062,0.79688 -0.60156,0.25781 -1.53906,0.25781 -1.27344,0 -1.99219,-0.77344 -0.71875,-0.78125 -0.71875,-2.19531 0,-1.13281 0.36719,-2.19531 0.375,-1.07031 1.03906,-1.89844 0.64844,-0.80469 1.55469,-1.28906 0.91406,-0.48438 1.95312,-0.48438 0.75,0 1.33594,0.17188 0.59375,0.17187 1.03125,0.44531 l 0.17969,-0.375 z m -1.82813,1.57031 q -0.5,-0.25781 -1.03125,-0.39843 -0.52344,-0.14844 -1.0625,-0.14844 -0.76562,0 -1.39844,0.35156 -0.625,0.34375 -1.07812,0.96094 -0.42969,0.57812 -0.67188,1.39844 -0.23437,0.8125 -0.23437,1.625 0,0.92187 0.42187,1.42968 0.42188,0.5 1.35157,0.5 0.64843,0 1.3125,-0.27343 0.66406,-0.27344 1.30468,-0.6875 z m 16.90625,1.51563 q 0,1.17187 -0.35937,2.25 -0.35938,1.07812 -1.01563,1.875 -0.67969,0.82812 -1.57031,1.29687 -0.89063,0.46094 -2.07813,0.46094 -1.55468,0 -2.42968,-0.88281 -0.86719,-0.89063 -0.86719,-2.45313 0,-1.17187 0.35156,-2.23437 0.35938,-1.0625 1.03125,-1.89063 0.64844,-0.79687 1.58594,-1.27343 0.94531,-0.47657 2.0625,-0.47657 1.50781,0 2.39844,0.85938 0.89062,0.85937 0.89062,2.46875 z m -2.39062,3.29687 q 0.42187,-0.625 0.64062,-1.44531 0.22656,-0.82031 0.22656,-1.73437 0,-1.09375 -0.52343,-1.65625 -0.52344,-0.5625 -1.47657,-0.5625 -0.75781,0 -1.35937,0.36718 -0.60156,0.35938 -1.03906,0.99219 -0.42188,0.61719 -0.64844,1.44531 -0.22656,0.82813 -0.22656,1.71875 0,1.07813 0.52343,1.65625 0.52344,0.57813 1.48438,0.57813 0.75,0 1.35937,-0.35938 0.60938,-0.35937 1.03907,-1 z m 12.39062,-3.625 q 0,1.29688 -0.40625,2.4375 -0.39844,1.14063 -1.0625,1.9375 -0.67187,0.82032 -1.5625,1.29688 -0.89062,0.46875 -1.89844,0.46875 -0.70312,0 -1.29687,-0.16406 -0.58594,-0.15625 -1.07031,-0.46094 l -0.84375,3.67187 h -1.46875 l 2.75781,-11.94531 h 1.46875 l -0.21094,0.91406 q 0.72656,-0.50781 1.42969,-0.82812 0.70312,-0.32813 1.55469,-0.32813 1.27343,0 1.9375,0.78907 0.67187,0.78906 0.67187,2.21093 z m -1.53906,0.28125 q 0,-0.92968 -0.40625,-1.42968 -0.40625,-0.50782 -1.29688,-0.50782 -0.64843,0 -1.34375,0.32032 -0.69531,0.32031 -1.29687,0.72656 l -1.14063,4.94531 q 0.50782,0.27344 0.96875,0.40625 0.46094,0.13281 1.11719,0.13281 0.80469,0 1.44531,-0.39062 0.64844,-0.39063 1.07032,-1.01563 0.44531,-0.65625 0.66406,-1.46093 0.21875,-0.80469 0.21875,-1.72657 z m 9.1875,-3.03906 -0.26563,1.1875 h -3.03125 l -0.9375,4.02344 q -0.0781,0.30469 -0.14062,0.70312 -0.0625,0.39063 -0.0625,0.625 0,0.57032 0.28906,0.85157 0.28906,0.27343 1.07031,0.27343 0.32032,0 0.75782,-0.10937 0.44531,-0.10938 0.60156,-0.17188 h 0.0781 l -0.27343,1.26563 q -0.4375,0.10937 -0.9375,0.17969 -0.49219,0.0703 -0.875,0.0703 -1.07813,0 -1.67188,-0.46875 -0.58594,-0.47656 -0.58594,-1.5 0,-0.25 0.0312,-0.49219 0.0391,-0.25 0.10157,-0.5625 l 1.08593,-4.6875 h -0.99218 l 0.26562,-1.1875 h 0.99219 l 0.58594,-2.50781 h 1.46875 l -0.58594,2.50781 z m 4.03906,-2.98437 -0.35156,1.52343 h -1.65625 l 0.35156,-1.52343 z m -0.78125,2.98437 -2.01562,8.72656 h -1.46875 l 2.01562,-8.72656 z m 15.07813,1.92969 q 0,0.25781 -0.0391,0.54687 -0.0312,0.28907 -0.10156,0.58594 l -1.3125,5.66406 h -1.46875 l 1.14844,-4.96875 q 0.0937,-0.41406 0.14844,-0.76562 0.0625,-0.35156 0.0625,-0.65625 0,-0.59375 -0.29688,-0.91406 -0.29687,-0.32032 -1.13281,-0.32032 -0.61719,0 -1.30469,0.34375 -0.6875,0.34375 -1.36719,0.80469 -0.0156,0.19531 -0.0547,0.44531 -0.0312,0.25 -0.0781,0.44532 l -1.28906,5.58593 h -1.46875 l 1.14844,-4.96875 q 0.10156,-0.48437 0.16406,-0.78906 0.0625,-0.3125 0.0625,-0.63281 0,-0.71094 -0.39063,-0.96875 -0.39062,-0.26563 -1.05468,-0.26563 -0.46875,0 -1.04688,0.24219 -0.57812,0.23438 -1.53906,0.86719 l -1.50781,6.51562 h -1.46875 l 2.01562,-8.72656 h 1.46875 l -0.22656,0.96875 q 0.82031,-0.57031 1.51562,-0.89062 0.70313,-0.32032 1.47657,-0.32032 0.88281,0 1.42968,0.375 0.55469,0.375 0.73438,1.03907 1.03125,-0.75 1.85156,-1.07813 0.82031,-0.33594 1.61719,-0.33594 1.14844,0 1.72656,0.57032 0.57813,0.57031 0.57813,1.60156 z m 5.66406,-4.91406 -0.35156,1.52343 h -1.65625 l 0.35156,-1.52343 z m -0.78125,2.98437 -2.01563,8.72656 h -1.46875 l 2.01563,-8.72656 z m 7.25781,8.72656 h -7.04687 l 0.25,-1.08593 6.48437,-6.46875 h -4.99219 l 0.27344,-1.17188 h 6.83594 l -0.24219,1.04688 -6.51562,6.50781 h 5.22656 z m 8.42969,-4.60156 q -1.20313,0.0469 -2.14063,0.1875 -0.92968,0.13281 -1.53906,0.39063 -0.63281,0.25781 -0.96094,0.70312 -0.32812,0.4375 -0.32812,1.09375 0,0.5625 0.38281,0.85938 0.38281,0.29687 1.1875,0.29687 0.71094,0 1.44531,-0.3125 0.74219,-0.32031 1.38282,-0.76562 z m -0.85156,3.67188 q -0.21094,0.125 -0.57813,0.35937 -0.35937,0.22656 -0.73437,0.39063 -0.39844,0.17968 -0.89063,0.29687 -0.49219,0.125 -1.13281,0.125 -1.03906,0 -1.6875,-0.60156 -0.64844,-0.60938 -0.64844,-1.58594 0,-1.03906 0.45313,-1.75 0.46093,-0.71875 1.35937,-1.17187 0.88281,-0.44532 2.125,-0.64063 1.25,-0.20312 2.84375,-0.25 0.0469,-0.21875 0.0781,-0.375 0.0312,-0.16406 0.0312,-0.33594 0,-0.375 -0.14844,-0.60937 -0.14844,-0.23438 -0.42188,-0.375 -0.27343,-0.14063 -0.64062,-0.1875 -0.35938,-0.0547 -0.79688,-0.0547 -0.66406,0 -1.51562,0.21875 -0.85156,0.21094 -1.38281,0.42188 h -0.0781 l 0.28906,-1.46875 q 0.44532,-0.11719 1.30469,-0.26563 0.85938,-0.14844 1.64844,-0.14844 1.625,0 2.4375,0.50782 0.8125,0.50781 0.8125,1.60937 0,0.21094 -0.0391,0.45313 -0.0312,0.23437 -0.0781,0.44531 l -1.36719,5.92187 h -1.46093 z m 10.61718,-7.79688 -0.26562,1.1875 h -3.03125 l -0.9375,4.02344 q -0.0781,0.30469 -0.14063,0.70312 -0.0625,0.39063 -0.0625,0.625 0,0.57032 0.28907,0.85157 0.28906,0.27343 1.07031,0.27343 0.32031,0 0.75781,-0.10937 0.44531,-0.10938 0.60156,-0.17188 h 0.0781 l -0.27344,1.26563 q -0.4375,0.10937 -0.9375,0.17969 -0.49219,0.0703 -0.875,0.0703 -1.07812,0 -1.67187,-0.46875 -0.58594,-0.47656 -0.58594,-1.5 0,-0.25 0.0312,-0.49219 0.0391,-0.25 0.10156,-0.5625 l 1.08594,-4.6875 h -0.99219 l 0.26563,-1.1875 h 0.99218 l 0.58594,-2.50781 h 1.46875 l -0.58594,2.50781 z m 4.03907,-2.98437 -0.35157,1.52343 h -1.65625 l 0.35157,-1.52343 z m -0.78125,2.98437 -2.01563,8.72656 h -1.46875 l 2.01563,-8.72656 z m 9.46875,3.08594 q 0,1.17187 -0.35938,2.25 -0.35937,1.07812 -1.01562,1.875 -0.67969,0.82812 -1.57032,1.29687 -0.89062,0.46094 -2.07812,0.46094 -1.55469,0 -2.42969,-0.88281 -0.86719,-0.89063 -0.86719,-2.45313 0,-1.17187 0.35157,-2.23437 0.35937,-1.0625 1.03125,-1.89063 0.64843,-0.79687 1.58593,-1.27343 0.94532,-0.47657 2.0625,-0.47657 1.50782,0 2.39844,0.85938 0.89063,0.85937 0.89063,2.46875 z m -2.39063,3.29687 q 0.42188,-0.625 0.64063,-1.44531 0.22656,-0.82031 0.22656,-1.73437 0,-1.09375 -0.52344,-1.65625 -0.52344,-0.5625 -1.47656,-0.5625 -0.75781,0 -1.35938,0.36718 -0.60156,0.35938 -1.03906,0.99219 -0.42187,0.61719 -0.64844,1.44531 -0.22656,0.82813 -0.22656,1.71875 0,1.07813 0.52344,1.65625 0.52344,0.57813 1.48437,0.57813 0.75,0 1.35938,-0.35938 0.60937,-0.35937 1.03906,-1 z m 12.26563,-4.39062 q 0,0.1875 -0.0391,0.50781 -0.0312,0.32031 -0.0937,0.5625 l -1.3125,5.66406 h -1.46875 l 1.14844,-4.96875 q 0.0937,-0.41406 0.14063,-0.71875 0.0547,-0.3125 0.0547,-0.61718 0,-0.65625 -0.32812,-0.98438 -0.32031,-0.33594 -1.16406,-0.33594 -0.59375,0 -1.3125,0.32813 -0.71094,0.32812 -1.39063,0.78125 l -1.50781,6.51562 h -1.46875 l 2.01562,-8.72656 h 1.46875 l -0.22656,0.96875 q 0.83594,-0.58594 1.5625,-0.89844 0.73438,-0.3125 1.50781,-0.3125 1.14063,0 1.77344,0.57813 0.64063,0.57031 0.64063,1.65625 z"
         id="path1" />
      <path
         style="font-style:italic"
         d="m 619.83594,366.5254 q 0,0.25782 -0.0391,0.54688 -0.0312,0.28906 -0.10156,0.58594 l -1.3125,5.66406 h -1.46875 l 1.14844,-4.96875 q 0.0937,-0.41406 0.14844,-0.76563 0.0625,-0.35156 0.0625,-0.65625 0,-0.59375 -0.29688,-0.91406 -0.29687,-0.32031 -1.13281,-0.32031 -0.61719,0 -1.30469,0.34375 -0.6875,0.34375 -1.36719,0.80469 -0.0156,0.19531 -0.0547,0.44531 -0.0312,0.25 -0.0781,0.44531 l -1.28906,5.58594 h -1.46875 l 1.14844,-4.96875 q 0.10156,-0.48438 0.16406,-0.78906 0.0625,-0.3125 0.0625,-0.63282 0,-0.71093 -0.39063,-0.96875 -0.39062,-0.26562 -1.05468,-0.26562 -0.46875,0 -1.04688,0.24219 -0.57812,0.23437 -1.53906,0.86718 l -1.50781,6.51563 h -1.46875 l 2.01562,-8.72656 h 1.46875 l -0.22656,0.96875 q 0.82031,-0.57032 1.51562,-0.89063 0.70313,-0.32031 1.47657,-0.32031 0.88281,0 1.42968,0.375 0.55469,0.375 0.73438,1.03906 1.03125,-0.75 1.85156,-1.07812 0.82031,-0.33594 1.61719,-0.33594 1.14844,0 1.72656,0.57031 0.57813,0.57031 0.57813,1.60156 z m 7.77343,2.19532 q -1.20312,0.0469 -2.14062,0.1875 -0.92969,0.13281 -1.53906,0.39062 -0.63282,0.25781 -0.96094,0.70313 -0.32813,0.4375 -0.32813,1.09375 0,0.5625 0.38282,0.85937 0.38281,0.29688 1.1875,0.29688 0.71093,0 1.44531,-0.3125 0.74219,-0.32032 1.38281,-0.76563 z m -0.85156,3.67187 q -0.21094,0.125 -0.57812,0.35938 -0.35938,0.22656 -0.73438,0.39062 -0.39844,0.17969 -0.89062,0.29688 -0.49219,0.125 -1.13282,0.125 -1.03906,0 -1.6875,-0.60157 -0.64843,-0.60937 -0.64843,-1.58593 0,-1.03907 0.45312,-1.75 0.46094,-0.71875 1.35938,-1.17188 0.88281,-0.44531 2.125,-0.64062 1.25,-0.20313 2.84375,-0.25 0.0469,-0.21875 0.0781,-0.375 0.0312,-0.16407 0.0312,-0.33594 0,-0.375 -0.14844,-0.60938 -0.14843,-0.23437 -0.42187,-0.375 -0.27344,-0.14062 -0.64063,-0.1875 -0.35937,-0.0547 -0.79687,-0.0547 -0.66406,0 -1.51563,0.21875 -0.85156,0.21093 -1.38281,0.42187 h -0.0781 l 0.28906,-1.46875 q 0.44531,-0.11719 1.30469,-0.26562 0.85937,-0.14844 1.64843,-0.14844 1.625,0 2.4375,0.50781 0.8125,0.50781 0.8125,1.60938 0,0.21093 -0.0391,0.45312 -0.0312,0.23438 -0.0781,0.44531 L 628,373.32228 h -1.46094 z m 13.96094,-11.22656 -2.8125,12.15625 h -1.46875 l 0.21094,-0.91406 q -0.99219,0.67968 -1.60157,0.91406 -0.60156,0.24219 -1.3125,0.24219 -1.23437,0 -1.96093,-0.78125 -0.71875,-0.78125 -0.71875,-2.27344 0,-1.25781 0.39062,-2.375 0.39063,-1.125 1.0625,-1.96875 0.66406,-0.83594 1.57031,-1.32031 0.90625,-0.49219 1.92188,-0.49219 0.69531,0 1.28125,0.14844 0.58594,0.14843 1.09375,0.44531 l 0.875,-3.78125 z m -2.625,5 q -0.52344,-0.27344 -1.03125,-0.39844 -0.5,-0.13281 -1.07031,-0.13281 -0.8125,0 -1.45313,0.39062 -0.63281,0.39063 -1.08594,1.07032 -0.41406,0.61718 -0.64062,1.48437 -0.21875,0.86719 -0.21875,1.67969 0,0.95312 0.40625,1.46094 0.41406,0.5 1.33594,0.5 0.65625,0 1.33593,-0.32813 0.6875,-0.32812 1.26563,-0.71875 z m 9.76562,1.84375 q 0.0391,-0.22656 0.0547,-0.38281 0.0156,-0.15625 0.0156,-0.34375 0,-0.83594 -0.46094,-1.30469 -0.45313,-0.46875 -1.46094,-0.46875 -1.10937,0 -1.96875,0.6875 -0.85937,0.6875 -1.16406,1.8125 z m -2.9375,5.51562 q -1.8125,0 -2.84375,-0.85156 -1.03125,-0.85156 -1.03125,-2.49219 0,-2.39843 1.51563,-4.10937 1.51562,-1.71875 3.75,-1.71875 1.48437,0 2.27344,0.74219 0.78906,0.73437 0.78906,2.07031 0,0.23437 -0.0703,0.74219 -0.0625,0.50781 -0.21094,1.17968 h -6.42969 q -0.0469,0.22657 -0.0703,0.44532 -0.0156,0.21875 -0.0156,0.40625 0,1.10156 0.67188,1.73437 0.67187,0.625 1.90625,0.625 0.85937,0 1.76562,-0.33594 0.91407,-0.33593 1.53125,-0.75781 h 0.0859 l -0.32031,1.58594 q -0.39063,0.14062 -0.70313,0.25781 -0.3125,0.11719 -0.79687,0.23438 -0.48438,0.11718 -0.85938,0.17968 -0.375,0.0625 -0.9375,0.0625 z m 18.09375,-5.51562 q 0.0391,-0.22656 0.0547,-0.38281 0.0156,-0.15625 0.0156,-0.34375 0,-0.83594 -0.46094,-1.30469 -0.45313,-0.46875 -1.46094,-0.46875 -1.10937,0 -1.96875,0.6875 -0.85937,0.6875 -1.16406,1.8125 z m -2.9375,5.51562 q -1.8125,0 -2.84375,-0.85156 -1.03125,-0.85156 -1.03125,-2.49219 0,-2.39843 1.51563,-4.10937 1.51562,-1.71875 3.75,-1.71875 1.48437,0 2.27344,0.74219 0.78906,0.73437 0.78906,2.07031 0,0.23437 -0.0703,0.74219 -0.0625,0.50781 -0.21094,1.17968 h -6.42969 q -0.0469,0.22657 -0.0703,0.44532 -0.0156,0.21875 -0.0156,0.40625 0,1.10156 0.67188,1.73437 0.67187,0.625 1.90625,0.625 0.85937,0 1.76562,-0.33594 0.91407,-0.33593 1.53125,-0.75781 h 0.0859 l -0.32031,1.58594 q -0.39063,0.14062 -0.70313,0.25781 -0.3125,0.11719 -0.79687,0.23438 -0.48438,0.11718 -0.85938,0.17968 -0.375,0.0625 -0.9375,0.0625 z m 11.79688,-4.80468 q -1.20313,0.0469 -2.14063,0.1875 -0.92968,0.13281 -1.53906,0.39062 -0.63281,0.25781 -0.96094,0.70313 -0.32812,0.4375 -0.32812,1.09375 0,0.5625 0.38281,0.85937 0.38281,0.29688 1.1875,0.29688 0.71094,0 1.44531,-0.3125 0.74219,-0.32032 1.38282,-0.76563 z m -0.85156,3.67187 q -0.21094,0.125 -0.57813,0.35938 -0.35937,0.22656 -0.73437,0.39062 -0.39844,0.17969 -0.89063,0.29688 -0.49219,0.125 -1.13281,0.125 -1.03906,0 -1.6875,-0.60157 -0.64844,-0.60937 -0.64844,-1.58593 0,-1.03907 0.45313,-1.75 0.46093,-0.71875 1.35937,-1.17188 0.88281,-0.44531 2.125,-0.64062 1.25,-0.20313 2.84375,-0.25 0.0469,-0.21875 0.0781,-0.375 0.0312,-0.16407 0.0312,-0.33594 0,-0.375 -0.14844,-0.60938 -0.14844,-0.23437 -0.42188,-0.375 -0.27343,-0.14062 -0.64062,-0.1875 -0.35938,-0.0547 -0.79688,-0.0547 -0.66406,0 -1.51562,0.21875 -0.85156,0.21093 -1.38281,0.42187 h -0.0781 l 0.28906,-1.46875 q 0.44532,-0.11719 1.30469,-0.26562 0.85938,-0.14844 1.64844,-0.14844 1.625,0 2.4375,0.50781 0.8125,0.50781 0.8125,1.60938 0,0.21093 -0.0391,0.45312 -0.0312,0.23438 -0.0781,0.44531 l -1.36719,5.92188 h -1.46093 z m 6.79687,1.14063 q -0.97656,0 -1.75,-0.24219 -0.76562,-0.24219 -1.28125,-0.52344 l 0.32813,-1.57031 h 0.0781 q 0.16406,0.14062 0.42188,0.33594 0.26562,0.1875 0.67187,0.375 0.36719,0.17968 0.83594,0.3125 0.47656,0.125 1.01562,0.125 1.10157,0 1.72657,-0.40625 0.625,-0.40625 0.625,-1.19532 0,-0.41406 -0.32032,-0.63281 -0.32031,-0.22656 -0.92187,-0.36719 -0.30469,-0.0703 -0.73438,-0.15625 -0.42187,-0.0859 -0.85937,-0.20312 -0.91406,-0.25781 -1.35156,-0.74219 -0.4375,-0.49219 -0.4375,-1.19531 0,-0.60938 0.26562,-1.14063 0.26563,-0.53125 0.78906,-0.97656 0.5,-0.42187 1.27344,-0.67969 0.77344,-0.26562 1.71875,-0.26562 0.78125,0 1.55469,0.19531 0.78125,0.19531 1.27344,0.48438 l -0.3125,1.5 h -0.0781 q -0.125,-0.10157 -0.38281,-0.27344 -0.25,-0.17188 -0.64063,-0.35156 -0.33593,-0.14844 -0.78906,-0.25782 -0.44531,-0.10937 -0.92969,-0.10937 -0.97656,0 -1.58593,0.41406 -0.60938,0.40625 -0.60938,1.11719 0,0.39062 0.29688,0.65625 0.29687,0.25781 0.90625,0.40625 0.38281,0.0937 0.79687,0.17969 0.42188,0.0781 0.8125,0.17187 0.90625,0.22656 1.35938,0.70313 0.46093,0.47656 0.46093,1.19531 0,0.60156 -0.28906,1.17969 -0.28125,0.57031 -0.82031,0.99218 -0.55469,0.44532 -1.34375,0.69532 -0.78906,0.25 -1.77344,0.25 z m 7.1875,3.00781 h -1.61719 l 2.53907,-3.72656 -1.57813,-8.21875 h 1.50781 l 1.23438,6.49218 4.17187,-6.49218 h 1.60157 z"
         id="path2" />
    </g>
  </g>
</svg>
