<?xml version="1.0" encoding="UTF-8" standalone="no"?>
<!-- Created with Inkscape (http://www.inkscape.org/) -->

<svg
   width="800"
   height="600"
   id="svg2"
   version="1.1"
   xmlns="http://www.w3.org/2000/svg"
   xmlns:svg="http://www.w3.org/2000/svg"
   xmlns:rdf="http://www.w3.org/1999/02/22-rdf-syntax-ns#"
   xmlns:cc="http://creativecommons.org/ns#"
   xmlns:dc="http://purl.org/dc/elements/1.1/">
  <defs
     id="defs4">
    <rect
       x="548.57273"
       y="341.12512"
       width="200.51066"
       height="73.394451"
       id="rect23214" />
    <linearGradient
       id="linearGradient2675">
      <stop
         id="stop2677"
         offset="0.0000000"
         style="stop-color:#5b5b97;stop-opacity:1.0000000;" />
      <stop
         id="stop2679"
         offset="1.0000000"
         style="stop-color:#1b1b43;stop-opacity:1.0000000;" />
    </linearGradient>
    <linearGradient
       id="linearGradient3290-7">
      <stop
         style="stop-color:#fffcde;stop-opacity:1.0000000;"
         offset="0.0000000"
         id="stop3292-1" />
      <stop
         id="stop3294-7"
         offset="0.64485979"
         style="stop-color:#f6e76a;stop-opacity:1.0000000;" />
      <stop
         style="stop-color:#ffb738;stop-opacity:1.0000000;"
         offset="1.0000000"
         id="stop3296-6" />
    </linearGradient>
    <linearGradient
       id="linearGradient8543">
      <stop
         id="stop8545"
         offset="0"
         style="stop-color:#fffef5;stop-opacity:0.94117647;" />
      <stop
         id="stop8547"
         offset="1"
         style="stop-color:#729fcf;stop-opacity:1;" />
    </linearGradient>
    <linearGradient
       id="linearGradient11202">
      <stop
         id="stop11204"
         offset="0"
         style="stop-color:#729fcf;stop-opacity:0;" />
      <stop
         id="stop11206"
         offset="1"
         style="stop-color:#729fcf;stop-opacity:1;" />
    </linearGradient>
    <linearGradient
       id="linearGradient4454">
      <stop
         id="stop4456"
         offset="0.0000000"
         style="stop-color:#729fcf;stop-opacity:0.20784314;" />
      <stop
         id="stop4458"
         offset="1.0000000"
         style="stop-color:#729fcf;stop-opacity:0.67619050;" />
    </linearGradient>
    <linearGradient
       id="linearGradient4467">
      <stop
         id="stop4469"
         offset="0"
         style="stop-color:#ffffff;stop-opacity:1;" />
      <stop
         id="stop4471"
         offset="1.0000000"
         style="stop-color:#ffffff;stop-opacity:0.24761905;" />
    </linearGradient>
    <linearGradient
       id="linearGradient4083">
      <stop
         id="stop4085"
         offset="0"
         style="stop-color:#ffffff;stop-opacity:0;" />
      <stop
         style="stop-color:#ffffff;stop-opacity:0;"
         offset="0.75"
         id="stop4089" />
      <stop
         id="stop4087"
         offset="1"
         style="stop-color:#ffffff;stop-opacity:1;" />
    </linearGradient>
    <linearGradient
       id="linearGradient4032">
      <stop
         id="stop4034"
         offset="0"
         style="stop-color:#fff7c2;stop-opacity:0.63829786" />
      <stop
         style="stop-color:#fcaf3e;stop-opacity:0.18348624;"
         offset="0.59394139"
         id="stop4036" />
      <stop
         id="stop4038"
         offset="0.83850551"
         style="stop-color:#fcaf3e;stop-opacity:0.50458717;" />
      <stop
         id="stop4040"
         offset="1"
         style="stop-color:#fcaf3e;stop-opacity:1;" />
    </linearGradient>
    <linearGradient
       id="linearGradient4026">
      <stop
         id="stop4028"
         offset="0"
         style="stop-color:#fff9c6;stop-opacity:1" />
      <stop
         style="stop-color:#fff28c;stop-opacity:1;"
         offset="0.54166669"
         id="stop4042" />
      <stop
         id="stop4030"
         offset="1"
         style="stop-color:#ffea85;stop-opacity:1;" />
    </linearGradient>
    <linearGradient
       id="linearGradient3863">
      <stop
         id="stop3879"
         offset="0"
         style="stop-color:#ffffff;stop-opacity:1;" />
      <stop
         style="stop-color:#eeeeec;stop-opacity:1;"
         offset="1"
         id="stop3867" />
    </linearGradient>
    <linearGradient
       id="linearGradient3889">
      <stop
         style="stop-color:#ffffff;stop-opacity:1;"
         offset="0"
         id="stop3891" />
      <stop
         style="stop-color:#f7f7f7;stop-opacity:1;"
         offset="1"
         id="stop3893" />
    </linearGradient>
    <clipPath
       clipPathUnits="userSpaceOnUse"
       id="clipPath3416-05-0-3">
      <g
         id="g3418-9-9-6">
        <path
           transform="translate(0,452.36218)"
           id="path3420-5-6-7"
           d="M 439.48919,336.86148 410,300 l 40,-20 40,20 -29.81644,37.27054"
           style="fill:#8ae234;stroke:none" />
        <path
           style="fill:#8ae234;stroke:none"
           d="m 443.53687,818.90496 -16.83814,43.09824 -37.32051,-24.64102 -2.67949,-44.64102 46.99742,7.15788"
           id="path3422-2-2-5" />
        <path
           id="path3424-2-5-3"
           d="m 466.54077,799.84296 46.76051,-7.1218 -2.6795,44.64102 -37.32051,24.64101 -16.92275,-43.31479"
           style="fill:#8ae234;stroke:none" />
      </g>
    </clipPath>
    <radialGradient
       gradientUnits="userSpaceOnUse"
       fy="39.5928"
       fx="25.0527"
       r="15.7572"
       cy="39.5928"
       cx="25.0527"
       id="aigrd2-9"
       gradientTransform="matrix(0.617019,0,0,0.617019,357.23526,915.18886)">
      <stop
         id="stop8602-1"
         style="stop-color:#777777;stop-opacity:1.0000000;"
         offset="0.0000000" />
      <stop
         id="stop8604-27"
         style="stop-color:#000000"
         offset="1" />
    </radialGradient>
    <radialGradient
       gradientTransform="matrix(1.25,0,0,1.25,-6.479446,-13.37211)"
       id="aigrd2-2-3-6"
       cx="25.0527"
       cy="39.5928"
       r="15.7572"
       fx="25.0527"
       fy="39.5928"
       gradientUnits="userSpaceOnUse">
      <stop
         offset="0.0000000"
         style="stop-color:#777777;stop-opacity:1.0000000;"
         id="stop8602-1-1-1" />
      <stop
         offset="1"
         style="stop-color:#000000"
         id="stop8604-3-7-5" />
    </radialGradient>
    <radialGradient
       gradientUnits="userSpaceOnUse"
       fy="39.5928"
       fx="25.0527"
       r="15.7572"
       cy="39.5928"
       cx="25.0527"
       id="aigrd2-27-5"
       gradientTransform="matrix(0.617019,0,0,0.617019,357.23526,915.18886)">
      <stop
         id="stop8602-4-6"
         style="stop-color:#777777;stop-opacity:1.0000000;"
         offset="0.0000000" />
      <stop
         id="stop8604-2-93"
         style="stop-color:#000000"
         offset="1" />
    </radialGradient>
    <radialGradient
       gradientUnits="userSpaceOnUse"
       fy="39.5928"
       fx="25.0527"
       r="15.7572"
       cy="39.5928"
       cx="25.0527"
       id="aigrd2-27-2-5"
       gradientTransform="matrix(0.617019,0,0,0.617019,357.23526,915.18886)">
      <stop
         id="stop8602-4-3-2"
         style="stop-color:#777777;stop-opacity:1.0000000;"
         offset="0.0000000" />
      <stop
         id="stop8604-2-9-5"
         style="stop-color:#000000"
         offset="1" />
    </radialGradient>
  </defs>
  <metadata
     id="metadata7">
    <rdf:RDF>
      <cc:Work
         rdf:about="">
        <dc:format>image/svg+xml</dc:format>
        <dc:type
           rdf:resource="http://purl.org/dc/dcmitype/StillImage" />
        <dc:language>en</dc:language>
        <cc:license
           rdf:resource="https://timefold.ai/license" />
      </cc:Work>
    </rdf:RDF>
  </metadata>
  <g
     id="layer1"
     transform="translate(0,-452.36218)"
     style="display:inline">
    <g
       id="g3709"
       transform="translate(0,19.999997)" />
    <flowRoot
       xml:space="preserve"
       id="flowRoot4157"
       style="font-style:normal;font-weight:normal;line-height:0.01%;font-family:sans-serif;letter-spacing:0px;word-spacing:0px;fill:#000000;fill-opacity:1;stroke:none"><flowRegion
         id="flowRegion4159"
         style="font-family:sans-serif"><rect
           id="rect4161"
           width="10.955056"
           height="72.471909"
           x="16.011236"
           y="-53.932568"
           style="font-family:sans-serif" /></flowRegion><flowPara
         id="flowPara4163"
         style="font-size:40px;line-height:1.25;font-family:sans-serif"> </flowPara></flowRoot>
    <g
       id="Layer_1-2"
       transform="matrix(0.4,0,0,0.4,304.298,711.99126)"
       style="display:inline;stroke-width:1.66667">
      <g
         id="g31206"
         style="stroke-width:1.66667">
        <path
           d="M 52,25 V 0 H 25 V 25 H 9.1 L 0,50 h 25 v 50 h 28.35 c 5.25,0 9.95,-3.29 11.75,-8.22 l 5.46,-15.01 c 0,0 0.64,-1.76 2.52,-1.76 h 39.62 l 9.1,-25 H 89.05 c -5.25,0 -9.95,3.29 -11.75,8.22 l -5.46,15.01 c 0,0 -0.64,1.76 -2.52,1.76 H 51.99 V 50 h 19.55 c 5.25,0 9.95,-3.29 11.75,-8.22 l 5.46,-15.01 c 0,0 0.64,-1.76 2.52,-1.76 h 44.62 L 145,0 H 107.25 C 102,0 97.3,3.29 95.5,8.22 l -5.46,15.01 c 0,0 -0.64,1.76 -2.52,1.76 H 51.99 Z"
           id="path31186"
           style="stroke-width:1.66667" />
        <g
           id="g31204"
           style="stroke-width:1.66667">
          <path
             d="m 214.81,66.3 -2.12,5.83 c -0.63,1.72 -2.26,2.86 -4.09,2.86 h -9.26 c -2.4,0 -4.34,-1.94 -4.34,-4.34 v -27.5 h -6.49 V 35.98 H 195 v -11 h 10.71 v 11 h 7.85 v 7.17 h -7.85 v 23.14 h 9.1 z"
             id="path31188"
             style="stroke-width:1.66667" />
          <path
             d="m 370.25,28.7 h -7.39 V 36 h 7.39 v 7.17 h -7.39 V 75.01 H 352.15 V 43.17 h -6.49 V 36 h 6.49 V 24.34 c 0,-2.4 1.94,-4.34 4.34,-4.34 h 16.93 l -3.16,8.7 z"
             id="path31190"
             style="stroke-width:1.66667" />
          <path
             d="M 218.99,30 V 20 h 10.71 v 10 z m 10.71,6 V 75 H 218.99 V 36 Z"
             id="path31192"
             style="stroke-width:1.66667" />
          <path
             d="m 248.56,36 v 5.28 h 0.15 c 1.41,-2.01 3.1,-3.57 5.09,-4.68 1.99,-1.11 4.26,-1.66 6.83,-1.66 2.57,0 4.72,0.48 6.75,1.43 2.04,0.96 3.58,2.64 4.64,5.05 1.16,-1.71 2.73,-3.22 4.72,-4.53 1.99,-1.31 4.34,-1.96 7.05,-1.96 2.06,0 3.97,0.25 5.73,0.76 1.76,0.5 3.27,1.31 4.53,2.41 1.26,1.11 2.24,2.55 2.94,4.34 0.7,1.79 1.06,3.94 1.06,6.45 v 26.1 h -10.71 v -22.1 c 0,-1.31 -0.05,-2.54 -0.15,-3.7 -0.1,-1.16 -0.38,-2.16 -0.83,-3.02 -0.45,-0.85 -1.12,-1.53 -2,-2.04 -0.88,-0.5 -2.08,-0.75 -3.58,-0.75 -1.5,0 -2.73,0.29 -3.66,0.87 -0.93,0.58 -1.66,1.33 -2.19,2.26 -0.53,0.93 -0.88,1.99 -1.06,3.17 -0.18,1.18 -0.26,2.38 -0.26,3.58 V 74.99 H 262.9 V 53.11 c 0,-1.16 -0.03,-2.3 -0.08,-3.43 -0.05,-1.13 -0.26,-2.17 -0.64,-3.13 -0.38,-0.95 -1.01,-1.72 -1.89,-2.3 -0.88,-0.58 -2.18,-0.87 -3.89,-0.87 -0.5,0 -1.17,0.11 -2,0.34 -0.83,0.23 -1.63,0.65 -2.41,1.28 -0.78,0.63 -1.45,1.53 -2,2.71 -0.55,1.18 -0.83,2.73 -0.83,4.64 v 22.63 h -10.71 v -39 h 10.11 z"
             id="path31194"
             style="stroke-width:1.66667" />
          <path
             d="m 317.97,65.64 c 1.61,1.56 3.92,2.34 6.94,2.34 2.16,0 4.02,-0.54 5.58,-1.62 1.56,-1.08 2.51,-2.22 2.87,-3.43 h 9.43 c -1.51,4.68 -3.82,8.02 -6.94,10.03 -3.12,2.01 -6.89,3.02 -11.32,3.02 -3.07,0 -5.84,-0.49 -8.3,-1.47 -2.47,-0.98 -4.55,-2.38 -6.26,-4.19 -1.71,-1.81 -3.03,-3.97 -3.96,-6.49 -0.93,-2.51 -1.4,-5.28 -1.4,-8.3 0,-3.02 0.48,-5.63 1.43,-8.15 0.95,-2.51 2.31,-4.69 4.07,-6.53 1.76,-1.83 3.86,-3.28 6.3,-4.34 2.44,-1.06 5.14,-1.59 8.11,-1.59 3.32,0 6.21,0.64 8.68,1.92 2.46,1.28 4.49,3.01 6.07,5.17 1.58,2.16 2.73,4.63 3.43,7.39 0.7,2.77 0.95,5.66 0.75,8.68 h -28.14 c 0.15,3.47 1.03,5.99 2.64,7.54 z m 12.11,-20.52 c -1.28,-1.41 -3.23,-2.11 -5.85,-2.11 -1.71,0 -3.13,0.29 -4.26,0.87 -1.13,0.58 -2.04,1.3 -2.72,2.15 -0.68,0.86 -1.16,1.76 -1.43,2.72 -0.28,0.96 -0.44,1.81 -0.49,2.57 h 17.43 c -0.5,-2.72 -1.4,-4.78 -2.68,-6.19 z"
             id="path31196"
             style="stroke-width:1.66667" />
          <path
             d="m 375.16,47.05 c 0.95,-2.54 2.31,-4.7 4.07,-6.49 1.76,-1.79 3.87,-3.17 6.34,-4.15 2.46,-0.98 5.23,-1.47 8.3,-1.47 3.07,0 5.85,0.49 8.34,1.47 2.49,0.98 4.61,2.36 6.37,4.15 1.76,1.79 3.12,3.95 4.07,6.49 0.95,2.54 1.43,5.37 1.43,8.49 0,3.12 -0.48,5.94 -1.43,8.45 -0.96,2.51 -2.31,4.66 -4.07,6.45 -1.76,1.79 -3.89,3.16 -6.37,4.11 -2.49,0.96 -5.27,1.43 -8.34,1.43 -3.07,0 -5.84,-0.48 -8.3,-1.43 -2.47,-0.95 -4.58,-2.33 -6.34,-4.11 -1.76,-1.79 -3.12,-3.94 -4.07,-6.45 -0.96,-2.51 -1.43,-5.33 -1.43,-8.45 0,-3.12 0.48,-5.95 1.43,-8.49 z m 9.73,13.05 c 0.3,1.48 0.82,2.82 1.55,4 0.73,1.18 1.7,2.13 2.9,2.83 1.21,0.7 2.72,1.06 4.53,1.06 1.81,0 3.33,-0.35 4.56,-1.06 1.23,-0.7 2.21,-1.65 2.94,-2.83 0.73,-1.18 1.24,-2.51 1.55,-4 0.3,-1.48 0.45,-3 0.45,-4.57 0,-1.57 -0.15,-3.09 -0.45,-4.6 -0.3,-1.51 -0.82,-2.84 -1.55,-4 -0.73,-1.16 -1.71,-2.1 -2.94,-2.83 -1.23,-0.73 -2.75,-1.09 -4.56,-1.09 -1.81,0 -3.32,0.37 -4.53,1.09 -1.21,0.73 -2.18,1.67 -2.9,2.83 -0.73,1.16 -1.25,2.49 -1.55,4 -0.3,1.51 -0.45,3.04 -0.45,4.6 0,1.56 0.15,3.08 0.45,4.57 z"
             id="path31198"
             style="stroke-width:1.66667" />
          <path
             d="M 432.04,20 V 75 H 421.33 V 20 Z"
             id="path31200"
             style="stroke-width:1.66667" />
          <path
             d="m 468.18,70.02 c -1.26,2.11 -2.9,3.63 -4.94,4.56 -2.04,0.93 -4.34,1.4 -6.9,1.4 -2.92,0 -5.48,-0.57 -7.69,-1.7 -2.21,-1.13 -4.04,-2.66 -5.47,-4.6 -1.43,-1.94 -2.52,-4.16 -3.24,-6.68 -0.73,-2.51 -1.09,-5.13 -1.09,-7.85 0,-2.72 0.36,-5.14 1.09,-7.58 0.73,-2.44 1.81,-4.59 3.24,-6.45 1.43,-1.86 3.23,-3.36 5.39,-4.49 2.16,-1.13 4.68,-1.7 7.54,-1.7 2.31,0 4.51,0.49 6.6,1.47 2.09,0.98 3.73,2.43 4.94,4.34 h 0.15 V 19.99 h 10.71 v 55 h -10.18 v -4.98 h -0.15 z m -0.45,-19.28 c -0.3,-1.48 -0.82,-2.79 -1.55,-3.92 -0.73,-1.13 -1.67,-2.05 -2.83,-2.75 -1.16,-0.7 -2.62,-1.06 -4.38,-1.06 -1.76,0 -3.24,0.35 -4.45,1.06 -1.21,0.71 -2.18,1.63 -2.9,2.79 -0.73,1.16 -1.26,2.48 -1.58,3.96 -0.33,1.48 -0.49,3.03 -0.49,4.64 0,1.51 0.18,3.02 0.53,4.53 0.35,1.51 0.92,2.86 1.7,4.04 0.78,1.18 1.76,2.14 2.94,2.87 1.18,0.73 2.6,1.09 4.26,1.09 1.76,0 3.23,-0.35 4.41,-1.06 1.18,-0.7 2.12,-1.65 2.83,-2.83 0.7,-1.18 1.21,-2.53 1.51,-4.04 0.3,-1.51 0.45,-3.07 0.45,-4.68 0,-1.61 -0.15,-3.16 -0.45,-4.64 z"
             id="path31202"
             style="stroke-width:1.66667" />
        </g>
      </g>
    </g>
    <g
       id="text23212"
       style="font-size:16px;line-height:1.15;-inkscape-font-specification:sans-serif;text-align:center;white-space:pre;stroke-width:1px;stroke-linecap:round;stroke-linejoin:round"
       transform="translate(-248.27734,416.52373)"
       aria-label="Planning optimization&#10;made easy">
      <path
         style="font-style:italic"
         d="m 570.94922,349.38322 q -0.71875,0.59375 -1.60938,0.89063 -0.88281,0.28906 -2.13281,0.28906 h -1.69531 l -1.00781,4.35937 h -1.5625 l 2.6875,-11.63281 h 3.0625 q 1.0625,0 1.75781,0.1875 0.69531,0.1875 1.14062,0.53906 0.46094,0.35157 0.70313,0.85938 0.24219,0.5 0.24219,1.21094 0,0.95312 -0.41407,1.8125 -0.41406,0.85156 -1.17187,1.48437 z m -0.0703,-3.03125 q 0,-0.39844 -0.13282,-0.74219 -0.13281,-0.34375 -0.41406,-0.5625 -0.33594,-0.25781 -0.79687,-0.36718 -0.45313,-0.11719 -1.1875,-0.11719 h -1.44532 l -1.10156,4.74219 h 1.39063 q 0.9375,0 1.55468,-0.17188 0.625,-0.17187 1.07813,-0.54687 0.53125,-0.44532 0.78906,-1 0.26563,-0.55469 0.26563,-1.23438 z m 5.89843,-3.58594 -2.8125,12.15625 h -1.46875 l 2.8125,-12.15625 z m 6.48438,7.55469 q -1.20313,0.0469 -2.14063,0.1875 -0.92968,0.13281 -1.53906,0.39063 -0.63281,0.25781 -0.96094,0.70312 -0.32812,0.4375 -0.32812,1.09375 0,0.5625 0.38281,0.85938 0.38281,0.29687 1.1875,0.29687 0.71094,0 1.44531,-0.3125 0.74219,-0.32031 1.38282,-0.76562 z m -0.85156,3.67188 q -0.21094,0.125 -0.57813,0.35937 -0.35937,0.22656 -0.73437,0.39063 -0.39844,0.17968 -0.89063,0.29687 -0.49219,0.125 -1.13281,0.125 -1.03906,0 -1.6875,-0.60156 -0.64844,-0.60938 -0.64844,-1.58594 0,-1.03906 0.45313,-1.75 0.46093,-0.71875 1.35937,-1.17187 0.88281,-0.44532 2.125,-0.64063 1.25,-0.20312 2.84375,-0.25 0.0469,-0.21875 0.0781,-0.375 0.0312,-0.16406 0.0312,-0.33594 0,-0.375 -0.14844,-0.60937 -0.14844,-0.23438 -0.42188,-0.375 -0.27343,-0.14063 -0.64062,-0.1875 -0.35938,-0.0547 -0.79688,-0.0547 -0.66406,0 -1.51562,0.21875 -0.85156,0.21094 -1.38281,0.42188 h -0.0781 l 0.28906,-1.46875 q 0.44532,-0.11719 1.30469,-0.26563 0.85938,-0.14844 1.64844,-0.14844 1.625,0 2.4375,0.50782 0.8125,0.50781 0.8125,1.60937 0,0.21094 -0.0391,0.45313 -0.0312,0.23437 -0.0781,0.44531 l -1.36719,5.92187 h -1.46093 z m 12.8125,-5.80469 q 0,0.1875 -0.0391,0.50781 -0.0312,0.32031 -0.0937,0.5625 l -1.3125,5.66406 h -1.46875 l 1.14844,-4.96875 q 0.0937,-0.41406 0.14063,-0.71875 0.0547,-0.3125 0.0547,-0.61718 0,-0.65625 -0.32812,-0.98438 -0.32031,-0.33594 -1.16406,-0.33594 -0.59375,0 -1.3125,0.32813 -0.71094,0.32812 -1.39063,0.78125 l -1.50781,6.51562 h -1.46875 l 2.01562,-8.72656 h 1.46875 l -0.22656,0.96875 q 0.83594,-0.58594 1.5625,-0.89844 0.73438,-0.3125 1.50781,-0.3125 1.14063,0 1.77344,0.57813 0.64063,0.57031 0.64063,1.65625 z m 10.125,0 q 0,0.1875 -0.0391,0.50781 -0.0312,0.32031 -0.0937,0.5625 l -1.3125,5.66406 h -1.46875 l 1.14844,-4.96875 q 0.0937,-0.41406 0.14063,-0.71875 0.0547,-0.3125 0.0547,-0.61718 0,-0.65625 -0.32812,-0.98438 -0.32031,-0.33594 -1.16406,-0.33594 -0.59375,0 -1.3125,0.32813 -0.71094,0.32812 -1.39063,0.78125 l -1.50781,6.51562 h -1.46875 l 2.01562,-8.72656 h 1.46875 l -0.22656,0.96875 q 0.83594,-0.58594 1.5625,-0.89844 0.73438,-0.3125 1.50781,-0.3125 1.14063,0 1.77344,0.57813 0.64063,0.57031 0.64063,1.65625 z m 5.66406,-4.97656 -0.35156,1.52343 h -1.65625 l 0.35156,-1.52343 z m -0.78125,2.98437 -2.01563,8.72656 h -1.46875 l 2.01563,-8.72656 z m 9.63281,1.99219 q 0,0.1875 -0.0391,0.50781 -0.0312,0.32031 -0.0937,0.5625 l -1.3125,5.66406 h -1.46875 l 1.14844,-4.96875 q 0.0937,-0.41406 0.14062,-0.71875 0.0547,-0.3125 0.0547,-0.61718 0,-0.65625 -0.32813,-0.98438 -0.32031,-0.33594 -1.16406,-0.33594 -0.59375,0 -1.3125,0.32813 -0.71094,0.32812 -1.39062,0.78125 l -1.50782,6.51562 h -1.46875 l 2.01563,-8.72656 h 1.46875 l -0.22656,0.96875 q 0.83593,-0.58594 1.5625,-0.89844 0.73437,-0.3125 1.50781,-0.3125 1.14062,0 1.77344,0.57813 0.64062,0.57031 0.64062,1.65625 z m 10.45313,-1.99219 -1.77344,7.75781 q -0.51563,2.21875 -1.69531,3.24219 -1.17188,1.03125 -3.26563,1.03125 -0.67187,0 -1.35937,-0.10156 -0.67969,-0.10156 -1.25,-0.27344 l 0.33593,-1.46094 h 0.0781 q 0.4375,0.19532 1.17969,0.375 0.74218,0.17969 1.39843,0.17969 0.74219,0 1.25782,-0.19531 0.52343,-0.1875 0.85937,-0.51563 0.32813,-0.32812 0.53125,-0.76562 0.21094,-0.42969 0.32813,-0.96875 l 0.17968,-0.76563 q -0.78906,0.53125 -1.39062,0.79688 -0.60156,0.25781 -1.53906,0.25781 -1.27344,0 -1.99219,-0.77344 -0.71875,-0.78125 -0.71875,-2.19531 0,-1.13281 0.36719,-2.19531 0.375,-1.07031 1.03906,-1.89844 0.64844,-0.80469 1.55469,-1.28906 0.91406,-0.48438 1.95312,-0.48438 0.75,0 1.33594,0.17188 0.59375,0.17187 1.03125,0.44531 l 0.17969,-0.375 z m -1.82813,1.57031 q -0.5,-0.25781 -1.03125,-0.39843 -0.52344,-0.14844 -1.0625,-0.14844 -0.76562,0 -1.39844,0.35156 -0.625,0.34375 -1.07812,0.96094 -0.42969,0.57812 -0.67188,1.39844 -0.23437,0.8125 -0.23437,1.625 0,0.92187 0.42187,1.42968 0.42188,0.5 1.35157,0.5 0.64843,0 1.3125,-0.27343 0.66406,-0.27344 1.30468,-0.6875 z m 16.90625,1.51563 q 0,1.17187 -0.35937,2.25 -0.35938,1.07812 -1.01563,1.875 -0.67969,0.82812 -1.57031,1.29687 -0.89063,0.46094 -2.07813,0.46094 -1.55468,0 -2.42968,-0.88281 -0.86719,-0.89063 -0.86719,-2.45313 0,-1.17187 0.35156,-2.23437 0.35938,-1.0625 1.03125,-1.89063 0.64844,-0.79687 1.58594,-1.27343 0.94531,-0.47657 2.0625,-0.47657 1.50781,0 2.39844,0.85938 0.89062,0.85937 0.89062,2.46875 z m -2.39062,3.29687 q 0.42187,-0.625 0.64062,-1.44531 0.22656,-0.82031 0.22656,-1.73437 0,-1.09375 -0.52343,-1.65625 -0.52344,-0.5625 -1.47657,-0.5625 -0.75781,0 -1.35937,0.36718 -0.60156,0.35938 -1.03906,0.99219 -0.42188,0.61719 -0.64844,1.44531 -0.22656,0.82813 -0.22656,1.71875 0,1.07813 0.52343,1.65625 0.52344,0.57813 1.48438,0.57813 0.75,0 1.35937,-0.35938 0.60938,-0.35937 1.03907,-1 z m 12.39062,-3.625 q 0,1.29688 -0.40625,2.4375 -0.39844,1.14063 -1.0625,1.9375 -0.67187,0.82032 -1.5625,1.29688 -0.89062,0.46875 -1.89844,0.46875 -0.70312,0 -1.29687,-0.16406 -0.58594,-0.15625 -1.07031,-0.46094 l -0.84375,3.67187 h -1.46875 l 2.75781,-11.94531 h 1.46875 l -0.21094,0.91406 q 0.72656,-0.50781 1.42969,-0.82812 0.70312,-0.32813 1.55469,-0.32813 1.27343,0 1.9375,0.78907 0.67187,0.78906 0.67187,2.21093 z m -1.53906,0.28125 q 0,-0.92968 -0.40625,-1.42968 -0.40625,-0.50782 -1.29688,-0.50782 -0.64843,0 -1.34375,0.32032 -0.69531,0.32031 -1.29687,0.72656 l -1.14063,4.94531 q 0.50782,0.27344 0.96875,0.40625 0.46094,0.13281 1.11719,0.13281 0.80469,0 1.44531,-0.39062 0.64844,-0.39063 1.07032,-1.01563 0.44531,-0.65625 0.66406,-1.46093 0.21875,-0.80469 0.21875,-1.72657 z m 9.1875,-3.03906 -0.26563,1.1875 h -3.03125 l -0.9375,4.02344 q -0.0781,0.30469 -0.14062,0.70312 -0.0625,0.39063 -0.0625,0.625 0,0.57032 0.28906,0.85157 0.28906,0.27343 1.07031,0.27343 0.32032,0 0.75782,-0.10937 0.44531,-0.10938 0.60156,-0.17188 h 0.0781 l -0.27343,1.26563 q -0.4375,0.10937 -0.9375,0.17969 -0.49219,0.0703 -0.875,0.0703 -1.07813,0 -1.67188,-0.46875 -0.58594,-0.47656 -0.58594,-1.5 0,-0.25 0.0312,-0.49219 0.0391,-0.25 0.10157,-0.5625 l 1.08593,-4.6875 h -0.99218 l 0.26562,-1.1875 h 0.99219 l 0.58594,-2.50781 h 1.46875 l -0.58594,2.50781 z m 4.03906,-2.98437 -0.35156,1.52343 h -1.65625 l 0.35156,-1.52343 z m -0.78125,2.98437 -2.01562,8.72656 h -1.46875 l 2.01562,-8.72656 z m 15.07813,1.92969 q 0,0.25781 -0.0391,0.54687 -0.0312,0.28907 -0.10156,0.58594 l -1.3125,5.66406 h -1.46875 l 1.14844,-4.96875 q 0.0937,-0.41406 0.14844,-0.76562 0.0625,-0.35156 0.0625,-0.65625 0,-0.59375 -0.29688,-0.91406 -0.29687,-0.32032 -1.13281,-0.32032 -0.61719,0 -1.30469,0.34375 -0.6875,0.34375 -1.36719,0.80469 -0.0156,0.19531 -0.0547,0.44531 -0.0312,0.25 -0.0781,0.44532 l -1.28906,5.58593 h -1.46875 l 1.14844,-4.96875 q 0.10156,-0.48437 0.16406,-0.78906 0.0625,-0.3125 0.0625,-0.63281 0,-0.71094 -0.39063,-0.96875 -0.39062,-0.26563 -1.05468,-0.26563 -0.46875,0 -1.04688,0.24219 -0.57812,0.23438 -1.53906,0.86719 l -1.50781,6.51562 h -1.46875 l 2.01562,-8.72656 h 1.46875 l -0.22656,0.96875 q 0.82031,-0.57031 1.51562,-0.89062 0.70313,-0.32032 1.47657,-0.32032 0.88281,0 1.42968,0.375 0.55469,0.375 0.73438,1.03907 1.03125,-0.75 1.85156,-1.07813 0.82031,-0.33594 1.61719,-0.33594 1.14844,0 1.72656,0.57032 0.57813,0.57031 0.57813,1.60156 z m 5.66406,-4.91406 -0.35156,1.52343 h -1.65625 l 0.35156,-1.52343 z m -0.78125,2.98437 -2.01563,8.72656 h -1.46875 l 2.01563,-8.72656 z m 7.25781,8.72656 h -7.04687 l 0.25,-1.08593 6.48437,-6.46875 h -4.99219 l 0.27344,-1.17188 h 6.83594 l -0.24219,1.04688 -6.51562,6.50781 h 5.22656 z m 8.42969,-4.60156 q -1.20313,0.0469 -2.14063,0.1875 -0.92968,0.13281 -1.53906,0.39063 -0.63281,0.25781 -0.96094,0.70312 -0.32812,0.4375 -0.32812,1.09375 0,0.5625 0.38281,0.85938 0.38281,0.29687 1.1875,0.29687 0.71094,0 1.44531,-0.3125 0.74219,-0.32031 1.38282,-0.76562 z m -0.85156,3.67188 q -0.21094,0.125 -0.57813,0.35937 -0.35937,0.22656 -0.73437,0.39063 -0.39844,0.17968 -0.89063,0.29687 -0.49219,0.125 -1.13281,0.125 -1.03906,0 -1.6875,-0.60156 -0.64844,-0.60938 -0.64844,-1.58594 0,-1.03906 0.45313,-1.75 0.46093,-0.71875 1.35937,-1.17187 0.88281,-0.44532 2.125,-0.64063 1.25,-0.20312 2.84375,-0.25 0.0469,-0.21875 0.0781,-0.375 0.0312,-0.16406 0.0312,-0.33594 0,-0.375 -0.14844,-0.60937 -0.14844,-0.23438 -0.42188,-0.375 -0.27343,-0.14063 -0.64062,-0.1875 -0.35938,-0.0547 -0.79688,-0.0547 -0.66406,0 -1.51562,0.21875 -0.85156,0.21094 -1.38281,0.42188 h -0.0781 l 0.28906,-1.46875 q 0.44532,-0.11719 1.30469,-0.26563 0.85938,-0.14844 1.64844,-0.14844 1.625,0 2.4375,0.50782 0.8125,0.50781 0.8125,1.60937 0,0.21094 -0.0391,0.45313 -0.0312,0.23437 -0.0781,0.44531 l -1.36719,5.92187 h -1.46093 z m 10.61718,-7.79688 -0.26562,1.1875 h -3.03125 l -0.9375,4.02344 q -0.0781,0.30469 -0.14063,0.70312 -0.0625,0.39063 -0.0625,0.625 0,0.57032 0.28907,0.85157 0.28906,0.27343 1.07031,0.27343 0.32031,0 0.75781,-0.10937 0.44531,-0.10938 0.60156,-0.17188 h 0.0781 l -0.27344,1.26563 q -0.4375,0.10937 -0.9375,0.17969 -0.49219,0.0703 -0.875,0.0703 -1.07812,0 -1.67187,-0.46875 -0.58594,-0.47656 -0.58594,-1.5 0,-0.25 0.0312,-0.49219 0.0391,-0.25 0.10156,-0.5625 l 1.08594,-4.6875 h -0.99219 l 0.26563,-1.1875 h 0.99218 l 0.58594,-2.50781 h 1.46875 l -0.58594,2.50781 z m 4.03907,-2.98437 -0.35157,1.52343 h -1.65625 l 0.35157,-1.52343 z m -0.78125,2.98437 -2.01563,8.72656 h -1.46875 l 2.01563,-8.72656 z m 9.46875,3.08594 q 0,1.17187 -0.35938,2.25 -0.35937,1.07812 -1.01562,1.875 -0.67969,0.82812 -1.57032,1.29687 -0.89062,0.46094 -2.07812,0.46094 -1.55469,0 -2.42969,-0.88281 -0.86719,-0.89063 -0.86719,-2.45313 0,-1.17187 0.35157,-2.23437 0.35937,-1.0625 1.03125,-1.89063 0.64843,-0.79687 1.58593,-1.27343 0.94532,-0.47657 2.0625,-0.47657 1.50782,0 2.39844,0.85938 0.89063,0.85937 0.89063,2.46875 z m -2.39063,3.29687 q 0.42188,-0.625 0.64063,-1.44531 0.22656,-0.82031 0.22656,-1.73437 0,-1.09375 -0.52344,-1.65625 -0.52344,-0.5625 -1.47656,-0.5625 -0.75781,0 -1.35938,0.36718 -0.60156,0.35938 -1.03906,0.99219 -0.42187,0.61719 -0.64844,1.44531 -0.22656,0.82813 -0.22656,1.71875 0,1.07813 0.52344,1.65625 0.52344,0.57813 1.48437,0.57813 0.75,0 1.35938,-0.35938 0.60937,-0.35937 1.03906,-1 z m 12.26563,-4.39062 q 0,0.1875 -0.0391,0.50781 -0.0312,0.32031 -0.0937,0.5625 l -1.3125,5.66406 h -1.46875 l 1.14844,-4.96875 q 0.0937,-0.41406 0.14063,-0.71875 0.0547,-0.3125 0.0547,-0.61718 0,-0.65625 -0.32812,-0.98438 -0.32031,-0.33594 -1.16406,-0.33594 -0.59375,0 -1.3125,0.32813 -0.71094,0.32812 -1.39063,0.78125 l -1.50781,6.51562 h -1.46875 l 2.01562,-8.72656 h 1.46875 l -0.22656,0.96875 q 0.83594,-0.58594 1.5625,-0.89844 0.73438,-0.3125 1.50781,-0.3125 1.14063,0 1.77344,0.57813 0.64063,0.57031 0.64063,1.65625 z"
         id="path1" />
      <path
         style="font-style:italic"
         d="m 619.83594,366.5254 q 0,0.25782 -0.0391,0.54688 -0.0312,0.28906 -0.10156,0.58594 l -1.3125,5.66406 h -1.46875 l 1.14844,-4.96875 q 0.0937,-0.41406 0.14844,-0.76563 0.0625,-0.35156 0.0625,-0.65625 0,-0.59375 -0.29688,-0.91406 -0.29687,-0.32031 -1.13281,-0.32031 -0.61719,0 -1.30469,0.34375 -0.6875,0.34375 -1.36719,0.80469 -0.0156,0.19531 -0.0547,0.44531 -0.0312,0.25 -0.0781,0.44531 l -1.28906,5.58594 h -1.46875 l 1.14844,-4.96875 q 0.10156,-0.48438 0.16406,-0.78906 0.0625,-0.3125 0.0625,-0.63282 0,-0.71093 -0.39063,-0.96875 -0.39062,-0.26562 -1.05468,-0.26562 -0.46875,0 -1.04688,0.24219 -0.57812,0.23437 -1.53906,0.86718 l -1.50781,6.51563 h -1.46875 l 2.01562,-8.72656 h 1.46875 l -0.22656,0.96875 q 0.82031,-0.57032 1.51562,-0.89063 0.70313,-0.32031 1.47657,-0.32031 0.88281,0 1.42968,0.375 0.55469,0.375 0.73438,1.03906 1.03125,-0.75 1.85156,-1.07812 0.82031,-0.33594 1.61719,-0.33594 1.14844,0 1.72656,0.57031 0.57813,0.57031 0.57813,1.60156 z m 7.77343,2.19532 q -1.20312,0.0469 -2.14062,0.1875 -0.92969,0.13281 -1.53906,0.39062 -0.63282,0.25781 -0.96094,0.70313 -0.32813,0.4375 -0.32813,1.09375 0,0.5625 0.38282,0.85937 0.38281,0.29688 1.1875,0.29688 0.71093,0 1.44531,-0.3125 0.74219,-0.32032 1.38281,-0.76563 z m -0.85156,3.67187 q -0.21094,0.125 -0.57812,0.35938 -0.35938,0.22656 -0.73438,0.39062 -0.39844,0.17969 -0.89062,0.29688 -0.49219,0.125 -1.13282,0.125 -1.03906,0 -1.6875,-0.60157 -0.64843,-0.60937 -0.64843,-1.58593 0,-1.03907 0.45312,-1.75 0.46094,-0.71875 1.35938,-1.17188 0.88281,-0.44531 2.125,-0.64062 1.25,-0.20313 2.84375,-0.25 0.0469,-0.21875 0.0781,-0.375 0.0312,-0.16407 0.0312,-0.33594 0,-0.375 -0.14844,-0.60938 -0.14843,-0.23437 -0.42187,-0.375 -0.27344,-0.14062 -0.64063,-0.1875 -0.35937,-0.0547 -0.79687,-0.0547 -0.66406,0 -1.51563,0.21875 -0.85156,0.21093 -1.38281,0.42187 h -0.0781 l 0.28906,-1.46875 q 0.44531,-0.11719 1.30469,-0.26562 0.85937,-0.14844 1.64843,-0.14844 1.625,0 2.4375,0.50781 0.8125,0.50781 0.8125,1.60938 0,0.21093 -0.0391,0.45312 -0.0312,0.23438 -0.0781,0.44531 L 628,373.32228 h -1.46094 z m 13.96094,-11.22656 -2.8125,12.15625 h -1.46875 l 0.21094,-0.91406 q -0.99219,0.67968 -1.60157,0.91406 -0.60156,0.24219 -1.3125,0.24219 -1.23437,0 -1.96093,-0.78125 -0.71875,-0.78125 -0.71875,-2.27344 0,-1.25781 0.39062,-2.375 0.39063,-1.125 1.0625,-1.96875 0.66406,-0.83594 1.57031,-1.32031 0.90625,-0.49219 1.92188,-0.49219 0.69531,0 1.28125,0.14844 0.58594,0.14843 1.09375,0.44531 l 0.875,-3.78125 z m -2.625,5 q -0.52344,-0.27344 -1.03125,-0.39844 -0.5,-0.13281 -1.07031,-0.13281 -0.8125,0 -1.45313,0.39062 -0.63281,0.39063 -1.08594,1.07032 -0.41406,0.61718 -0.64062,1.48437 -0.21875,0.86719 -0.21875,1.67969 0,0.95312 0.40625,1.46094 0.41406,0.5 1.33594,0.5 0.65625,0 1.33593,-0.32813 0.6875,-0.32812 1.26563,-0.71875 z m 9.76562,1.84375 q 0.0391,-0.22656 0.0547,-0.38281 0.0156,-0.15625 0.0156,-0.34375 0,-0.83594 -0.46094,-1.30469 -0.45313,-0.46875 -1.46094,-0.46875 -1.10937,0 -1.96875,0.6875 -0.85937,0.6875 -1.16406,1.8125 z m -2.9375,5.51562 q -1.8125,0 -2.84375,-0.85156 -1.03125,-0.85156 -1.03125,-2.49219 0,-2.39843 1.51563,-4.10937 1.51562,-1.71875 3.75,-1.71875 1.48437,0 2.27344,0.74219 0.78906,0.73437 0.78906,2.07031 0,0.23437 -0.0703,0.74219 -0.0625,0.50781 -0.21094,1.17968 h -6.42969 q -0.0469,0.22657 -0.0703,0.44532 -0.0156,0.21875 -0.0156,0.40625 0,1.10156 0.67188,1.73437 0.67187,0.625 1.90625,0.625 0.85937,0 1.76562,-0.33594 0.91407,-0.33593 1.53125,-0.75781 h 0.0859 l -0.32031,1.58594 q -0.39063,0.14062 -0.70313,0.25781 -0.3125,0.11719 -0.79687,0.23438 -0.48438,0.11718 -0.85938,0.17968 -0.375,0.0625 -0.9375,0.0625 z m 18.09375,-5.51562 q 0.0391,-0.22656 0.0547,-0.38281 0.0156,-0.15625 0.0156,-0.34375 0,-0.83594 -0.46094,-1.30469 -0.45313,-0.46875 -1.46094,-0.46875 -1.10937,0 -1.96875,0.6875 -0.85937,0.6875 -1.16406,1.8125 z m -2.9375,5.51562 q -1.8125,0 -2.84375,-0.85156 -1.03125,-0.85156 -1.03125,-2.49219 0,-2.39843 1.51563,-4.10937 1.51562,-1.71875 3.75,-1.71875 1.48437,0 2.27344,0.74219 0.78906,0.73437 0.78906,2.07031 0,0.23437 -0.0703,0.74219 -0.0625,0.50781 -0.21094,1.17968 h -6.42969 q -0.0469,0.22657 -0.0703,0.44532 -0.0156,0.21875 -0.0156,0.40625 0,1.10156 0.67188,1.73437 0.67187,0.625 1.90625,0.625 0.85937,0 1.76562,-0.33594 0.91407,-0.33593 1.53125,-0.75781 h 0.0859 l -0.32031,1.58594 q -0.39063,0.14062 -0.70313,0.25781 -0.3125,0.11719 -0.79687,0.23438 -0.48438,0.11718 -0.85938,0.17968 -0.375,0.0625 -0.9375,0.0625 z m 11.79688,-4.80468 q -1.20313,0.0469 -2.14063,0.1875 -0.92968,0.13281 -1.53906,0.39062 -0.63281,0.25781 -0.96094,0.70313 -0.32812,0.4375 -0.32812,1.09375 0,0.5625 0.38281,0.85937 0.38281,0.29688 1.1875,0.29688 0.71094,0 1.44531,-0.3125 0.74219,-0.32032 1.38282,-0.76563 z m -0.85156,3.67187 q -0.21094,0.125 -0.57813,0.35938 -0.35937,0.22656 -0.73437,0.39062 -0.39844,0.17969 -0.89063,0.29688 -0.49219,0.125 -1.13281,0.125 -1.03906,0 -1.6875,-0.60157 -0.64844,-0.60937 -0.64844,-1.58593 0,-1.03907 0.45313,-1.75 0.46093,-0.71875 1.35937,-1.17188 0.88281,-0.44531 2.125,-0.64062 1.25,-0.20313 2.84375,-0.25 0.0469,-0.21875 0.0781,-0.375 0.0312,-0.16407 0.0312,-0.33594 0,-0.375 -0.14844,-0.60938 -0.14844,-0.23437 -0.42188,-0.375 -0.27343,-0.14062 -0.64062,-0.1875 -0.35938,-0.0547 -0.79688,-0.0547 -0.66406,0 -1.51562,0.21875 -0.85156,0.21093 -1.38281,0.42187 h -0.0781 l 0.28906,-1.46875 q 0.44532,-0.11719 1.30469,-0.26562 0.85938,-0.14844 1.64844,-0.14844 1.625,0 2.4375,0.50781 0.8125,0.50781 0.8125,1.60938 0,0.21093 -0.0391,0.45312 -0.0312,0.23438 -0.0781,0.44531 l -1.36719,5.92188 h -1.46093 z m 6.79687,1.14063 q -0.97656,0 -1.75,-0.24219 -0.76562,-0.24219 -1.28125,-0.52344 l 0.32813,-1.57031 h 0.0781 q 0.16406,0.14062 0.42188,0.33594 0.26562,0.1875 0.67187,0.375 0.36719,0.17968 0.83594,0.3125 0.47656,0.125 1.01562,0.125 1.10157,0 1.72657,-0.40625 0.625,-0.40625 0.625,-1.19532 0,-0.41406 -0.32032,-0.63281 -0.32031,-0.22656 -0.92187,-0.36719 -0.30469,-0.0703 -0.73438,-0.15625 -0.42187,-0.0859 -0.85937,-0.20312 -0.91406,-0.25781 -1.35156,-0.74219 -0.4375,-0.49219 -0.4375,-1.19531 0,-0.60938 0.26562,-1.14063 0.26563,-0.53125 0.78906,-0.97656 0.5,-0.42187 1.27344,-0.67969 0.77344,-0.26562 1.71875,-0.26562 0.78125,0 1.55469,0.19531 0.78125,0.19531 1.27344,0.48438 l -0.3125,1.5 h -0.0781 q -0.125,-0.10157 -0.38281,-0.27344 -0.25,-0.17188 -0.64063,-0.35156 -0.33593,-0.14844 -0.78906,-0.25782 -0.44531,-0.10937 -0.92969,-0.10937 -0.97656,0 -1.58593,0.41406 -0.60938,0.40625 -0.60938,1.11719 0,0.39062 0.29688,0.65625 0.29687,0.25781 0.90625,0.40625 0.38281,0.0937 0.79687,0.17969 0.42188,0.0781 0.8125,0.17187 0.90625,0.22656 1.35938,0.70313 0.46093,0.47656 0.46093,1.19531 0,0.60156 -0.28906,1.17969 -0.28125,0.57031 -0.82031,0.99218 -0.55469,0.44532 -1.34375,0.69532 -0.78906,0.25 -1.77344,0.25 z m 7.1875,3.00781 h -1.61719 l 2.53907,-3.72656 -1.57813,-8.21875 h 1.50781 l 1.23438,6.49218 4.17187,-6.49218 h 1.60157 z"
         id="path2" />
    </g>
  </g>
  <g
     id="layer2"
     style="display:inline">
    <path
       style="font-style:italic;font-size:14px;line-height:1.25;font-family:'Liberation Sans';-inkscape-font-specification:'Arial Italic';text-align:center;text-anchor:middle;fill:#a40000"
       d="m 314.36914,160.19926 2.09863,-10.02148 h 1.33301 l -0.86816,4.16308 h 5.19531 l 0.86816,-4.16308 h 1.33985 l -2.0918,10.02148 h -1.33984 l 0.98437,-4.72363 h -5.18847 l -0.99122,4.72363 z m 11.74414,-8.62012 0.29395,-1.40136 h 1.23047 l -0.29395,1.40136 z m -1.80469,8.62012 1.51758,-7.25977 h 1.23731 l -1.51758,7.25977 z m 3.08985,0.65625 1.25097,0.11621 q -0.0137,0.42383 0.10254,0.63574 0.11621,0.21192 0.36914,0.32813 0.33496,0.15039 0.86817,0.15039 1.12109,0 1.61328,-0.58106 0.32129,-0.38964 0.59473,-1.69531 l 0.12304,-0.58789 q -0.96386,0.97754 -2.05078,0.97754 -1.10058,0 -1.8457,-0.80664 -0.73828,-0.81348 -0.73828,-2.29688 0,-1.22363 0.58105,-2.24902 0.58789,-1.02539 1.39453,-1.54492 0.80664,-0.52637 1.66114,-0.52637 1.42871,0 2.20117,1.35352 l 0.24609,-1.18946 h 1.13477 l -1.46289,7.00684 q -0.23926,1.15527 -0.62891,1.79785 -0.38965,0.64942 -1.08691,1.00488 -0.69043,0.35547 -1.59961,0.35547 -0.875,0 -1.51075,-0.22558 -0.6289,-0.22559 -0.94336,-0.66309 -0.30761,-0.43066 -0.30761,-0.99121 0,-0.1709 0.0342,-0.36914 z m 1.54492,-3.86914 q 0,0.74512 0.14355,1.12109 0.20508,0.52637 0.58106,0.80664 0.38281,0.27344 0.84765,0.27344 0.6084,0 1.20997,-0.42383 0.60156,-0.43066 0.9707,-1.32617 0.37598,-0.89551 0.37598,-1.70898 0,-0.89551 -0.49903,-1.42188 -0.49219,-0.5332 -1.22363,-0.5332 -0.45117,0 -0.875,0.24609 -0.42383,0.23926 -0.79297,0.73828 -0.3623,0.49219 -0.55371,1.18262 -0.18457,0.69043 -0.18457,1.0459 z m 6.30957,3.21289 2.0918,-10.02148 h 1.2373 l -0.7998,3.84863 q 0.69043,-0.66992 1.28515,-0.95703 0.59473,-0.29395 1.22364,-0.29395 0.90234,0 1.40136,0.47852 0.49903,0.47168 0.49903,1.25097 0,0.38282 -0.21875,1.40821 l -0.89551,4.28613 h -1.23731 l 0.92286,-4.39551 q 0.19824,-0.95703 0.19824,-1.20312 0,-0.35547 -0.2461,-0.58106 -0.24609,-0.22558 -0.71093,-0.22558 -0.66993,0 -1.27832,0.35546 -0.6084,0.34864 -0.95704,0.96387 -0.34179,0.6084 -0.6289,1.96875 l -0.64942,3.11719 z m 13.11816,-2.46777 1.20313,0.12304 q -0.25977,0.89551 -1.19629,1.70215 -0.92969,0.80664 -2.22168,0.80664 -0.80664,0 -1.4834,-0.36914 -0.66992,-0.37598 -1.02539,-1.08691 -0.34863,-0.71094 -0.34863,-1.62012 0,-1.18945 0.54687,-2.30371 0.55371,-1.12109 1.42871,-1.66113 0.875,-0.54688 1.89356,-0.54688 1.29883,0 2.07129,0.80664 0.77929,0.80664 0.77929,2.20117 0,0.53321 -0.0957,1.09375 h -5.3457 q -0.0274,0.21192 -0.0274,0.38282 0,1.01855 0.46485,1.55859 0.47168,0.5332 1.14844,0.5332 0.63574,0 1.25097,-0.41699 0.61524,-0.41699 0.95703,-1.20312 z m -3.5957,-1.79786 h 4.07422 q 0.007,-0.1914 0.007,-0.27343 0,-0.92969 -0.46485,-1.42188 -0.46484,-0.49902 -1.19629,-0.49902 -0.79297,0 -1.44922,0.54687 -0.64941,0.54688 -0.9707,1.64746 z m 6.04981,4.26563 1.51757,-7.25977 h 1.09375 l -0.30761,1.4834 q 0.56054,-0.84082 1.09375,-1.24414 0.54004,-0.40332 1.10058,-0.40332 0.36914,0 0.90918,0.2666 l -0.50586,1.14844 q -0.32129,-0.23242 -0.7041,-0.23242 -0.64941,0 -1.33301,0.72461 -0.68359,0.72461 -1.07324,2.60449 l -0.61523,2.91211 z m 13.50781,-1.3125 q -1.30567,1.47656 -2.67285,1.47656 -0.84082,0 -1.36036,-0.47851 -0.51269,-0.48536 -0.51269,-1.18262 0,-0.45801 0.23242,-1.57227 l 0.875,-4.19043 h 1.23731 l -0.97071,4.64161 q -0.12304,0.58105 -0.12304,0.90234 0,0.41016 0.24609,0.64258 0.25293,0.22558 0.73828,0.22558 0.51953,0 1.01172,-0.25293 0.49902,-0.25293 0.85449,-0.68359 0.36231,-0.43066 0.58789,-1.01855 0.15039,-0.37598 0.34864,-1.31934 l 0.65625,-3.1377 h 1.2373 l -1.51758,7.25977 h -1.1416 z m 5.72168,0.30762 -0.20508,1.01172 q -0.44434,0.11621 -0.86133,0.11621 -0.73828,0 -1.17578,-0.36231 -0.32813,-0.27344 -0.32813,-0.74512 0,-0.23925 0.17774,-1.10058 l 0.88184,-4.21777 h -0.97754 l 0.19824,-0.95704 h 0.97754 l 0.37597,-1.78418 1.41504,-0.85449 -0.55371,2.63867 h 1.2168 l -0.20508,0.95704 h -1.20996 l -0.84082,4.01269 q -0.15723,0.76563 -0.15723,0.91602 0,0.21875 0.12305,0.33496 0.12988,0.11621 0.41699,0.11621 0.41016,0 0.73145,-0.082 z m 2.75488,-7.61524 0.29395,-1.40136 h 1.23046 l -0.29394,1.40136 z m -1.80469,8.62012 1.51758,-7.25977 h 1.23731 l -1.51758,7.25977 z m 3.0625,0 2.0918,-10.02148 h 1.2373 l -2.09179,10.02148 z m 4.96289,-8.62012 0.29395,-1.40136 h 1.23047 l -0.29395,1.40136 z m -1.80468,8.62012 1.51757,-7.25977 h 1.23731 l -1.51758,7.25977 z m 2.96679,0 0.19824,-0.95703 3.90333,-4.39551 q 0.41699,-0.46484 0.92968,-0.96387 -0.88183,0.0889 -1.26465,0.0889 h -2.70019 l 0.21875,-1.03223 h 5.6123 l -0.16406,0.7793 -3.9375,4.42285 q -0.33496,0.37598 -0.99805,1.03223 1.03223,-0.0615 1.41504,-0.0615 h 2.85743 l -0.22559,1.08691 z m 12.08594,-0.90234 q -0.64258,0.55371 -1.2373,0.81347 -0.59473,0.25293 -1.27149,0.25293 -1.00488,0 -1.62012,-0.58789 -0.61523,-0.59473 -0.61523,-1.51758 0,-0.6084 0.27344,-1.07324 0.28027,-0.47168 0.73828,-0.75195 0.45801,-0.28711 1.12109,-0.41016 0.41699,-0.082 1.5791,-0.12988 1.16895,-0.0478 1.67481,-0.24609 0.14355,-0.50586 0.14355,-0.84083 0,-0.43066 -0.31445,-0.67675 -0.43066,-0.3418 -1.25781,-0.3418 -0.7793,0 -1.27832,0.34863 -0.49219,0.3418 -0.71778,0.97754 l -1.25097,-0.10937 q 0.38281,-1.08008 1.20996,-1.6543 0.83398,-0.57422 2.09863,-0.57422 1.34668,0 2.13281,0.64258 0.60157,0.47852 0.60157,1.24414 0,0.58105 -0.1709,1.34668 l -0.40332,1.80469 q -0.19141,0.86133 -0.19141,1.40136 0,0.3418 0.15039,0.98438 h -1.25098 q -0.10253,-0.35547 -0.14355,-0.90234 z m 0.45801,-2.77539 q -0.25977,0.10253 -0.56055,0.15722 -0.29394,0.0547 -0.99121,0.11621 -1.08008,0.0957 -1.52441,0.2461 -0.44434,0.14355 -0.66993,0.46484 -0.22558,0.32129 -0.22558,0.71094 0,0.51953 0.35547,0.85449 0.3623,0.33496 1.02539,0.33496 0.61523,0 1.18261,-0.32129 0.56739,-0.32812 0.89551,-0.90918 0.32813,-0.58105 0.5127,-1.65429 z m 5.32519,2.67285 -0.20507,1.01172 q -0.44434,0.11621 -0.86133,0.11621 -0.73828,0 -1.17578,-0.36231 -0.32813,-0.27344 -0.32813,-0.74512 0,-0.23925 0.17774,-1.10058 l 0.88183,-4.21777 h -0.97754 l 0.19824,-0.95704 h 0.97754 l 0.37598,-1.78418 1.41504,-0.85449 -0.55371,2.63867 h 1.21679 l -0.20507,0.95704 h -1.20996 l -0.84082,4.01269 q -0.15723,0.76563 -0.15723,0.91602 0,0.21875 0.12305,0.33496 0.12988,0.11621 0.41699,0.11621 0.41015,0 0.73144,-0.082 z m 2.75489,-7.61524 0.29394,-1.40136 h 1.23047 l -0.29395,1.40136 z m -1.80469,8.62012 1.51758,-7.25977 h 1.2373 l -1.51758,7.25977 z m 3.37695,-2.75488 q 0,-2.12598 1.25098,-3.52051 1.03222,-1.14844 2.70703,-1.14844 1.3125,0 2.1123,0.82031 0.80664,0.82032 0.80664,2.21485 0,1.25097 -0.50585,2.33105 -0.50586,1.07324 -1.44239,1.64746 -0.92968,0.57422 -1.96191,0.57422 -0.84766,0 -1.54492,-0.3623 -0.69043,-0.36231 -1.05957,-1.02539 -0.36231,-0.66309 -0.36231,-1.53125 z m 1.23731,-0.12305 q 0,1.02539 0.49218,1.55859 0.49219,0.52637 1.25098,0.52637 0.39648,0 0.78613,-0.15723 0.38965,-0.16406 0.72461,-0.49218 0.33496,-0.32813 0.56739,-0.74512 0.23925,-0.42383 0.38281,-0.90918 0.21191,-0.67676 0.21191,-1.29883 0,-0.98437 -0.49902,-1.52441 -0.49219,-0.54688 -1.24414,-0.54688 -0.58106,0 -1.05957,0.28028 -0.47852,0.27343 -0.86817,0.80664 -0.38281,0.5332 -0.56738,1.24414 -0.17773,0.7041 -0.17773,1.25781 z m 6.33007,2.87793 1.51758,-7.25977 h 1.1211 l -0.26661,1.26465 q 0.73145,-0.74511 1.36719,-1.08691 0.63574,-0.3418 1.29883,-0.3418 0.88184,0 1.38086,0.47852 0.50586,0.47851 0.50586,1.27832 0,0.40332 -0.17774,1.27148 l -0.92285,4.39551 h -1.2373 l 0.96387,-4.60059 q 0.14355,-0.66992 0.14355,-0.99121 0,-0.3623 -0.25293,-0.58789 -0.24609,-0.22558 -0.71777,-0.22558 -0.9502,0 -1.69532,0.68359 -0.73828,0.68359 -1.08691,2.34473 l -0.7041,3.37695 z"
       id="flowRoot5371"
       transform="rotate(-20.696954,611.23665,725.24672)"
       aria-label="Higher utilization" />
    <g
       style="display:inline"
       transform="translate(-460.72671,-397.86217)"
       id="g3662">
      <g
         id="g3652"
         transform="matrix(0.75,0,0,0.75,182.125,-119.03446)">
        <path
           style="font-size:20px;line-height:1.25;font-family:'Liberation Sans';-inkscape-font-specification:'Liberation Sans, Normal'"
           d="M 39.03125,349.55415 V 336.9272 h -4.716797 v -1.68946 h 11.347656 v 1.68946 h -4.736328 v 12.62695 z m 8.349609,0 v -14.31641 h 1.757813 v 5.13672 q 1.230469,-1.42578 3.105469,-1.42578 1.152343,0 2.001953,0.45899 0.849609,0.44922 1.210937,1.25 0.371094,0.80078 0.371094,2.32422 v 6.57226 h -1.757813 v -6.57226 q 0,-1.31836 -0.576171,-1.91407 -0.566407,-0.60547 -1.611329,-0.60547 -0.78125,0 -1.474609,0.41016 -0.683594,0.40039 -0.976562,1.09375 -0.292969,0.69336 -0.292969,1.91406 v 5.67383 z m 11.132813,-12.29492 v -2.02149 h 1.757812 v 2.02149 z m 0,12.29492 v -10.37109 h 1.757812 v 10.37109 z m 4.433594,0 v -10.37109 h 1.582031 v 1.47461 q 1.142578,-1.70899 3.300781,-1.70899 0.9375,0 1.71875,0.3418 0.791016,0.33203 1.181641,0.87891 0.390625,0.54687 0.546875,1.29882 0.09766,0.48828 0.09766,1.70899 v 6.37695 h -1.757813 v -6.30859 q 0,-1.07422 -0.205078,-1.60157 -0.205078,-0.5371 -0.732422,-0.8496 -0.517578,-0.32227 -1.220703,-0.32227 -1.123047,0 -1.943359,0.71289 -0.810547,0.71289 -0.810547,2.70508 v 5.66406 z m 10.800781,0.85938 1.708984,0.2539 q 0.107422,0.79102 0.595703,1.15235 0.654297,0.48828 1.78711,0.48828 1.220703,0 1.884765,-0.48828 0.664063,-0.48829 0.898438,-1.36719 0.136719,-0.53711 0.126953,-2.25586 -1.152344,1.35742 -2.871094,1.35742 -2.138672,0 -3.310547,-1.54297 -1.171875,-1.54297 -1.171875,-3.70117 0,-1.48437 0.53711,-2.73437 0.537109,-1.25977 1.552734,-1.94336 1.025391,-0.6836 2.402344,-0.6836 1.835937,0 3.027344,1.48438 v -1.25 h 1.621093 v 8.96484 q 0,2.42188 -0.498047,3.42774 -0.488281,1.01562 -1.5625,1.60156 -1.064453,0.58594 -2.626953,0.58594 -1.855468,0 -2.998047,-0.83985 -1.142578,-0.83008 -1.103515,-2.50976 z m 1.455078,-6.23047 q 0,2.04101 0.810547,2.97851 0.810547,0.9375 2.03125,0.9375 1.210937,0 2.03125,-0.92773 0.820312,-0.9375 0.820312,-2.92969 0,-1.9043 -0.849609,-2.87109 -0.839844,-0.9668 -2.03125,-0.9668 -1.171875,0 -1.992188,0.95703 -0.820312,0.94727 -0.820312,2.82227 z m 21.679687,5.37109 H 95.125 v -11.20117 q -0.634766,0.60547 -1.669922,1.21094 -1.025391,0.60547 -1.845703,0.9082 v -1.69922 q 1.474609,-0.69336 2.578125,-1.67969 1.103516,-0.98632 1.5625,-1.91406 h 1.132812 z"
           id="flowRoot3475"
           transform="translate(376.1545,590.82285)"
           aria-label="Thing 1" />
        <path
           style="font-size:20px;line-height:1.25;font-family:'Liberation Sans';-inkscape-font-specification:'Liberation Sans, Normal'"
           d="M 39.03125,369.55415 V 356.9272 h -4.716797 v -1.68946 h 11.347656 v 1.68946 h -4.736328 v 12.62695 z m 8.349609,0 v -14.31641 h 1.757813 v 5.13672 q 1.230469,-1.42578 3.105469,-1.42578 1.152343,0 2.001953,0.45899 0.849609,0.44922 1.210937,1.25 0.371094,0.80078 0.371094,2.32422 v 6.57226 h -1.757813 v -6.57226 q 0,-1.31836 -0.576171,-1.91407 -0.566407,-0.60547 -1.611329,-0.60547 -0.78125,0 -1.474609,0.41016 -0.683594,0.40039 -0.976562,1.09375 -0.292969,0.69336 -0.292969,1.91406 v 5.67383 z m 11.132813,-12.29492 v -2.02149 h 1.757812 v 2.02149 z m 0,12.29492 v -10.37109 h 1.757812 v 10.37109 z m 4.433594,0 v -10.37109 h 1.582031 v 1.47461 q 1.142578,-1.70899 3.300781,-1.70899 0.9375,0 1.71875,0.3418 0.791016,0.33203 1.181641,0.87891 0.390625,0.54687 0.546875,1.29882 0.09766,0.48828 0.09766,1.70899 v 6.37695 h -1.757813 v -6.30859 q 0,-1.07422 -0.205078,-1.60157 -0.205078,-0.5371 -0.732422,-0.8496 -0.517578,-0.32227 -1.220703,-0.32227 -1.123047,0 -1.943359,0.71289 -0.810547,0.71289 -0.810547,2.70508 v 5.66406 z m 10.800781,0.85938 1.708984,0.2539 q 0.107422,0.79102 0.595703,1.15235 0.654297,0.48828 1.78711,0.48828 1.220703,0 1.884765,-0.48828 0.664063,-0.48829 0.898438,-1.36719 0.136719,-0.53711 0.126953,-2.25586 -1.152344,1.35742 -2.871094,1.35742 -2.138672,0 -3.310547,-1.54297 -1.171875,-1.54297 -1.171875,-3.70117 0,-1.48437 0.53711,-2.73437 0.537109,-1.25977 1.552734,-1.94336 1.025391,-0.6836 2.402344,-0.6836 1.835937,0 3.027344,1.48438 v -1.25 h 1.621093 v 8.96484 q 0,2.42188 -0.498047,3.42774 -0.488281,1.01562 -1.5625,1.60156 -1.064453,0.58594 -2.626953,0.58594 -1.855468,0 -2.998047,-0.83985 -1.142578,-0.83008 -1.103515,-2.50976 z m 1.455078,-6.23047 q 0,2.04101 0.810547,2.97851 0.810547,0.9375 2.03125,0.9375 1.210937,0 2.03125,-0.92773 0.820312,-0.9375 0.820312,-2.92969 0,-1.9043 -0.849609,-2.87109 -0.839844,-0.9668 -2.03125,-0.9668 -1.171875,0 -1.992188,0.95703 -0.820312,0.94727 -0.820312,2.82227 z M 99.5,367.8647 v 1.68945 h -9.462891 q -0.01953,-0.63476 0.205078,-1.2207 0.361329,-0.9668 1.152344,-1.9043 0.800781,-0.9375 2.304688,-2.16797 2.333984,-1.91406 3.154297,-3.02734 0.820312,-1.12305 0.820312,-2.11914 0,-1.04492 -0.751953,-1.75781 -0.742188,-0.72266 -1.943359,-0.72266 -1.269532,0 -2.03125,0.76172 -0.761719,0.76172 -0.771485,2.10937 l -1.80664,-0.18554 q 0.185546,-2.02149 1.396484,-3.07618 1.210937,-1.06445 3.251953,-1.06445 2.060547,0 3.261719,1.14258 1.201172,1.14258 1.201172,2.83203 0,0.85938 -0.351563,1.68945 -0.351562,0.83008 -1.171875,1.74805 -0.810547,0.91797 -2.705078,2.51953 -1.582031,1.32813 -2.03125,1.80664 -0.449219,0.46875 -0.742187,0.94727 z"
           id="flowRoot3483"
           transform="translate(376.1545,620.82285)"
           aria-label="Thing 2" />
        <g
           transform="translate(0,259.99997)"
           id="g3547">
          <path
             style="font-size:18px;line-height:1.25;font-family:'Liberation Sans';-inkscape-font-specification:'Liberation Sans, Normal';text-align:center;text-anchor:middle"
             d="m 23.371582,358.02022 v -12.88477 h 1.749023 l 6.767579,10.11622 v -10.11622 h 1.634765 v 12.88477 h -1.749023 l -6.767578,-10.125 v 10.125 z m 12.225586,-4.66699 q 0,-2.59278 1.441406,-3.84082 1.204102,-1.03711 2.935547,-1.03711 1.924805,0 3.146484,1.26562 1.22168,1.25684 1.22168,3.48047 0,1.80176 -0.544922,2.83887 -0.536133,1.02832 -1.573242,1.59961 -1.02832,0.57129 -2.25,0.57129 -1.959961,0 -3.172851,-1.25684 -1.204102,-1.25683 -1.204102,-3.62109 z m 1.625977,0 q 0,1.79297 0.782226,2.68945 0.782227,0.8877 1.96875,0.8877 1.177734,0 1.959961,-0.89649 0.782227,-0.89648 0.782227,-2.7334 0,-1.73144 -0.791016,-2.61914 -0.782227,-0.89648 -1.951172,-0.89648 -1.186523,0 -1.96875,0.88769 -0.782226,0.8877 -0.782226,2.68067 z m 11.566406,4.66699 -3.550781,-9.33398 h 1.669921 l 2.003907,5.58984 q 0.325195,0.90527 0.597656,1.88086 0.210937,-0.73828 0.588867,-1.77539 l 2.074219,-5.69531 h 1.625976 l -3.533203,9.33398 z m 12.796875,-3.00586 1.634765,0.20215 q -0.386718,1.43262 -1.432617,2.22363 -1.045898,0.79102 -2.671875,0.79102 -2.047851,0 -3.251953,-1.25684 -1.195312,-1.26562 -1.195312,-3.54199 0,-2.35547 1.21289,-3.65625 1.212891,-1.30078 3.146485,-1.30078 1.87207,0 3.058593,1.27441 1.186524,1.27442 1.186524,3.58594 0,0.14062 -0.0088,0.42187 h -6.960938 q 0.08789,1.53809 0.870117,2.35547 0.782227,0.81739 1.951172,0.81739 0.870117,0 1.485352,-0.45703 0.615234,-0.45704 0.975586,-1.45899 z m -5.194336,-2.55762 h 5.211914 q -0.105469,-1.17773 -0.597656,-1.7666 -0.75586,-0.91406 -1.959961,-0.91406 -1.089844,0 -1.836914,0.72949 -0.738282,0.72949 -0.817383,1.95117 z m 8.81543,5.56348 v -9.33398 h 1.415039 v 1.30957 q 0.439453,-0.68555 1.168945,-1.09864 0.729492,-0.42187 1.661133,-0.42187 1.037109,0 1.696289,0.43066 0.667969,0.43067 0.940429,1.2041 1.107422,-1.63476 2.882813,-1.63476 1.388672,0 2.135742,0.77344 0.74707,0.76464 0.74707,2.36425 v 6.40723 h -1.573242 v -5.87988 q 0,-0.94922 -0.158203,-1.36231 -0.149414,-0.42187 -0.553711,-0.67676 -0.404297,-0.25488 -0.949219,-0.25488 -0.984375,0 -1.634765,0.65918 -0.650391,0.65039 -0.650391,2.0918 v 5.42285 h -1.582031 v -6.06445 q 0,-1.05469 -0.386719,-1.58203 -0.386719,-0.52735 -1.265625,-0.52735 -0.667969,0 -1.239258,0.35156 -0.5625,0.35157 -0.817382,1.02832 -0.254883,0.67676 -0.254883,1.95118 v 4.84277 z m 16.453125,0 h -1.467774 v -12.88477 h 1.582031 v 4.59668 q 1.001953,-1.25683 2.557618,-1.25683 0.861328,0 1.625976,0.35156 0.773438,0.34277 1.265625,0.97559 0.500977,0.62402 0.782227,1.51172 0.28125,0.88769 0.28125,1.89843 0,2.39942 -1.186524,3.70899 -1.186523,1.30957 -2.847656,1.30957 -1.652344,0 -2.592773,-1.37989 z m -0.01758,-4.7373 q 0,1.67871 0.457032,2.42578 0.74707,1.22168 2.021484,1.22168 1.037109,0 1.792969,-0.89649 0.755859,-0.90527 0.755859,-2.68945 0,-1.82813 -0.729492,-2.69824 -0.720703,-0.87012 -1.749023,-0.87012 -1.03711,0 -1.792969,0.90527 -0.75586,0.89649 -0.75586,2.60157 z m 14.958985,1.73144 1.634765,0.20215 q -0.386718,1.43262 -1.432617,2.22363 -1.045898,0.79102 -2.671875,0.79102 -2.047851,0 -3.251953,-1.25684 -1.195312,-1.26562 -1.195312,-3.54199 0,-2.35547 1.21289,-3.65625 1.212891,-1.30078 3.146485,-1.30078 1.87207,0 3.058593,1.27441 1.186524,1.27442 1.186524,3.58594 0,0.14062 -0.0088,0.42187 h -6.960938 q 0.08789,1.53809 0.870117,2.35547 0.782227,0.81739 1.951172,0.81739 0.870117,0 1.485352,-0.45703 0.615234,-0.45704 0.975586,-1.45899 z m -5.194336,-2.55762 h 5.211914 q -0.105469,-1.17773 -0.597656,-1.7666 -0.75586,-0.91406 -1.959961,-0.91406 -1.089844,0 -1.836914,0.72949 -0.738282,0.72949 -0.817383,1.95117 z m 8.797855,5.56348 v -9.33398 h 1.42382 v 1.41503 q 0.54493,-0.99316 1.00196,-1.30957 0.46582,-0.3164 1.01953,-0.3164 0.7998,0 1.62598,0.50976 l -0.54493,1.46778 q -0.58007,-0.34278 -1.16015,-0.34278 -0.51856,0 -0.93164,0.31641 -0.41309,0.30762 -0.58887,0.86133 -0.26367,0.84375 -0.26367,1.8457 v 4.88672 z"
             id="flowRoot3491"
             transform="translate(524.77539,250.55466)"
             aria-label="November" />
          <path
             id="path3493"
             d="M 410.58267,641.86254 H 690.50012"
             style="fill:none;stroke:#000000;stroke-width:1.33333325px;stroke-linecap:butt;stroke-linejoin:miter;stroke-opacity:1" />
          <path
             id="path3495"
             d="m 570.5,632.86245 v 9.00009"
             style="fill:none;stroke:#000000;stroke-width:1.33333349px;stroke-linecap:butt;stroke-linejoin:miter;stroke-opacity:1" />
          <path
             id="path3497"
             d="m 530.5,632.8625 v 9.00009"
             style="fill:none;stroke:#000000;stroke-width:1.33333349px;stroke-linecap:butt;stroke-linejoin:miter;stroke-opacity:1" />
          <path
             id="path3499"
             d="m 650.5,632.8624 v 9.00009"
             style="fill:none;stroke:#000000;stroke-width:1.33333349px;stroke-linecap:butt;stroke-linejoin:miter;stroke-opacity:1" />
          <path
             id="path3501"
             d="m 610.5,632.86245 v 9.00009"
             style="fill:none;stroke:#000000;stroke-width:1.33333349px;stroke-linecap:butt;stroke-linejoin:miter;stroke-opacity:1" />
          <path
             style="font-size:12px;line-height:1.25;font-family:'Liberation Sans';-inkscape-font-specification:'Liberation Sans, Normal';text-align:center;text-anchor:middle"
             d="m 96.358398,352.61765 h -1.054687 v -6.72071 q -0.380859,0.36328 -1.001953,0.72657 -0.615235,0.36328 -1.107422,0.54492 v -1.01953 q 0.884766,-0.41602 1.546875,-1.00782 0.662109,-0.59179 0.9375,-1.14843 h 0.679687 z"
             id="flowRoot3509"
             transform="translate(414.77539,270.55466)"
             aria-label="1" />
          <path
             style="font-size:12px;line-height:1.25;font-family:'Liberation Sans';-inkscape-font-specification:'Liberation Sans, Normal';text-align:center;text-anchor:middle"
             d="m 110.42676,353.28366 v 1.01367 h -5.67774 q -0.0117,-0.38086 0.12305,-0.73242 0.2168,-0.58008 0.69141,-1.14258 0.48047,-0.5625 1.38281,-1.30078 1.40039,-1.14843 1.89258,-1.8164 0.49218,-0.67383 0.49218,-1.27149 0,-0.62695 -0.45117,-1.05469 -0.44531,-0.43359 -1.16601,-0.43359 -0.76172,0 -1.21875,0.45703 -0.45703,0.45703 -0.46289,1.26563 l -1.08399,-0.11133 q 0.11133,-1.21289 0.83789,-1.8457 0.72657,-0.63868 1.95117,-0.63868 1.23633,0 1.95704,0.68555 0.7207,0.68555 0.7207,1.69922 0,0.51562 -0.21094,1.01367 -0.21094,0.49805 -0.70312,1.04883 -0.48633,0.55078 -1.62305,1.51172 -0.94922,0.79687 -1.21875,1.08398 -0.26953,0.28125 -0.44531,0.56836 z"
             id="flowRoot3517"
             transform="translate(442.27787,268.87446)"
             aria-label="2" />
          <path
             style="font-size:12px;line-height:1.25;font-family:'Liberation Sans';-inkscape-font-specification:'Liberation Sans, Normal';text-align:center;text-anchor:middle"
             d="m 81.891602,350.85007 1.054687,-0.14063 q 0.181641,0.89649 0.615234,1.29493 0.439454,0.39257 1.066407,0.39257 0.74414,0 1.253906,-0.51562 0.515625,-0.51563 0.515625,-1.27735 0,-0.72656 -0.474609,-1.19531 -0.47461,-0.47461 -1.207032,-0.47461 -0.298828,0 -0.74414,0.11719 l 0.117187,-0.92578 q 0.105469,0.0117 0.169922,0.0117 0.673828,0 1.212891,-0.35156 0.539062,-0.35157 0.539062,-1.08399 0,-0.58008 -0.392578,-0.96094 -0.392578,-0.38086 -1.013672,-0.38086 -0.615234,0 -1.02539,0.38672 -0.410157,0.38672 -0.527344,1.16016 l -1.054688,-0.1875 q 0.19336,-1.06055 0.878907,-1.64063 0.685546,-0.58593 1.705078,-0.58593 0.703125,0 1.294922,0.30468 0.591796,0.29883 0.902343,0.82032 0.316407,0.52148 0.316407,1.10742 0,0.55664 -0.298829,1.01367 -0.298828,0.45703 -0.884765,0.72656 0.761719,0.17578 1.183594,0.73242 0.421875,0.55079 0.421875,1.38282 0,1.125 -0.820313,1.91015 -0.820312,0.7793 -2.074219,0.7793 -1.130859,0 -1.880859,-0.67383 -0.744141,-0.67383 -0.849609,-1.74609 z"
             id="flowRoot3525"
             transform="translate(505.27539,270.05466)"
             aria-label="3" />
          <path
             style="font-size:12px;line-height:1.25;font-family:'Liberation Sans';-inkscape-font-specification:'Liberation Sans, Normal';text-align:center;text-anchor:middle"
             d="m 97.764648,354.79733 v -2.05664 h -3.726562 v -0.96679 l 3.919922,-5.56641 h 0.861328 v 5.56641 h 1.160156 v 0.96679 h -1.160156 v 2.05664 z m 0,-3.02343 v -3.87305 l -2.689453,3.87305 z"
             id="flowRoot3533"
             transform="translate(532.77787,268.37446)"
             aria-label="4" />
          <path
             style="font-size:12px;line-height:1.25;font-family:'Liberation Sans';-inkscape-font-specification:'Liberation Sans, Normal';text-align:center;text-anchor:middle"
             d="m 104.66309,349.44772 1.10742,-0.0937 q 0.12304,0.8086 0.56836,1.21875 0.45117,0.4043 1.08398,0.4043 0.76172,0 1.28906,-0.57422 0.52735,-0.57422 0.52735,-1.52343 0,-0.90235 -0.50977,-1.42383 -0.5039,-0.52149 -1.32422,-0.52149 -0.50976,0 -0.91992,0.23438 -0.41015,0.22851 -0.64453,0.59765 l -0.99023,-0.1289 0.83203,-4.41211 h 4.27148 v 1.00781 h -3.42773 l -0.46289,2.30859 q 0.77343,-0.53906 1.62304,-0.53906 1.125,0 1.89844,0.7793 0.77344,0.7793 0.77344,2.00391 0,1.16601 -0.67969,2.01562 -0.82617,1.04297 -2.25586,1.04297 -1.17187,0 -1.91601,-0.65625 -0.73829,-0.65625 -0.84375,-1.74024 z"
             id="flowRoot3541"
             transform="translate(562.49805,271.47401)"
             aria-label="5" />
          <path
             id="path3543"
             d="m 490.5,592.86221 v 169"
             style="fill:none;stroke:#000000;stroke-width:1.33333349px;stroke-linecap:butt;stroke-linejoin:miter;stroke-opacity:1" />
          <path
             id="path3545"
             d="m 690.50012,592.86221 v 169"
             style="fill:none;stroke:#000000;stroke-width:1.33333349px;stroke-linecap:butt;stroke-linejoin:miter;stroke-opacity:1" />
        </g>
        <g
           id="g3568"
           transform="translate(270.00002,190)">
          <rect
             ry="6.6666665"
             rx="6.6666656"
             y="772.86218"
             x="240.49998"
             height="49"
             width="79"
             id="rect3549"
             style="fill:#fcaf3e;fill-opacity:1;stroke:#000000;stroke-width:1.33333337;stroke-linecap:round;stroke-linejoin:round;stroke-miterlimit:4;stroke-dasharray:none" />
          <path
             style="font-size:22px;line-height:1.25;font-family:'Liberation Sans';-inkscape-font-specification:'Liberation Sans, Normal';text-align:center;text-anchor:middle"
             d="m 93.753418,119.8166 v -15.74805 h 5.424805 q 1.836917,0 2.803707,0.22559 1.35352,0.31152 2.30957,1.12793 1.2461,1.05273 1.8584,2.69629 0.62305,1.63281 0.62305,3.73828 0,1.79394 -0.41895,3.17968 -0.41894,1.38575 -1.07421,2.29883 -0.65528,0.90235 -1.43946,1.42871 -0.77344,0.51563 -1.87988,0.78418 -1.0957,0.26856 -2.524415,0.26856 z m 2.083984,-1.8584 h 3.362305 q 1.557613,0 2.438473,-0.29004 0.89161,-0.29004 1.41797,-0.81641 0.74121,-0.74121 1.14942,-1.9873 0.41894,-1.25684 0.41894,-3.04004 0,-2.4707 -0.8164,-3.79199 -0.80567,-1.33203 -1.96582,-1.78321 -0.8379,-0.32226 -2.696294,-0.32226 h -3.308594 z"
             id="flowRoot3557"
             transform="translate(180,672.36217)"
             aria-label="D" />
          <path
             style="font-size:12px;line-height:1.25;font-family:'Liberation Sans';-inkscape-font-specification:'Liberation Sans, Normal';text-align:center;text-anchor:middle"
             d="m 95.798828,110.80905 h -1.054687 v -6.7207 q -0.38086,0.36328 -1.001954,0.72656 -0.615234,0.36328 -1.107421,0.54492 v -1.01953 q 0.884765,-0.41601 1.546875,-1.00781 0.662109,-0.5918 0.9375,-1.14844 h 0.679687 z m 2.583984,-2.57812 v -1.06055 h 3.240238 v 1.06055 z m 4.119138,0.31054 1.05469,-0.14062 q 0.18164,0.89648 0.61524,1.29492 0.43945,0.39258 1.0664,0.39258 0.74414,0 1.25391,-0.51563 0.51562,-0.51562 0.51562,-1.27734 0,-0.72656 -0.47461,-1.19531 -0.47461,-0.47461 -1.20703,-0.47461 -0.29883,0 -0.74414,0.11719 l 0.11719,-0.92578 q 0.10547,0.0117 0.16992,0.0117 0.67383,0 1.21289,-0.35156 0.53906,-0.35156 0.53906,-1.08398 0,-0.58008 -0.39257,-0.96094 -0.39258,-0.38086 -1.01368,-0.38086 -0.61523,0 -1.02539,0.38672 -0.41015,0.38672 -0.52734,1.16016 l -1.05469,-0.1875 q 0.19336,-1.06055 0.87891,-1.64063 0.68555,-0.58594 1.70508,-0.58594 0.70312,0 1.29492,0.30469 0.5918,0.29883 0.90234,0.82031 0.31641,0.52149 0.31641,1.10742 0,0.55665 -0.29883,1.01368 -0.29883,0.45703 -0.88477,0.72656 0.76172,0.17578 1.1836,0.73242 0.42187,0.55078 0.42187,1.38281 0,1.125 -0.82031,1.91016 -0.82031,0.7793 -2.07422,0.7793 -1.13086,0 -1.88086,-0.67383 -0.74414,-0.67383 -0.84961,-1.7461 z"
             id="flowRoot3566"
             transform="translate(180,702.36217)"
             aria-label="1-3" />
        </g>
        <g
           transform="translate(270.00002,140)"
           id="g3606">
          <rect
             style="fill:#8ae234;fill-opacity:1;stroke:#000000;stroke-width:1.33333337;stroke-linecap:round;stroke-linejoin:round;stroke-miterlimit:4;stroke-dasharray:none"
             id="rect3570"
             width="39"
             height="49"
             x="240.5"
             y="772.86218"
             rx="6.6666656"
             ry="6.6666665" />
          <path
             style="font-size:22px;line-height:1.25;font-family:'Liberation Sans';-inkscape-font-specification:'Liberation Sans, Normal';text-align:center;text-anchor:middle"
             d="m 74.274414,119.8166 v -15.74805 h 5.908203 q 1.804688,0 2.889649,0.4834 1.095703,0.47266 1.708007,1.47168 0.623047,0.98828 0.623047,2.07324 0,1.00977 -0.547851,1.90137 -0.547852,0.8916 -1.654297,1.43945 1.428711,0.41895 2.191406,1.42871 0.773438,1.00977 0.773438,2.38477 0,1.10644 -0.472657,2.0625 -0.461914,0.94531 -1.149414,1.46094 -0.6875,0.51562 -1.729492,0.78417 -1.03125,0.25782 -2.535156,0.25782 z m 2.083984,-9.13086 h 3.405274 q 1.385742,0 1.987305,-0.18262 0.794921,-0.23633 1.192382,-0.78418 0.408203,-0.54785 0.408203,-1.375 0,-0.78418 -0.375976,-1.375 -0.375977,-0.60156 -1.074219,-0.81641 -0.698242,-0.22558 -2.395508,-0.22558 h -3.147461 z m 0,7.27246 h 3.920899 q 1.009765,0 1.417969,-0.0752 0.719726,-0.1289 1.203125,-0.42968 0.483398,-0.30079 0.794921,-0.87012 0.311524,-0.58008 0.311524,-1.33203 0,-0.88086 -0.451172,-1.52539 -0.451172,-0.65528 -1.256836,-0.91309 Q 81.503906,112.54414 80,112.54414 h -3.641602 z"
             id="flowRoot3578"
             transform="translate(180,672.36217)"
             aria-label="B" />
          <path
             style="font-size:12px;line-height:1.25;font-family:'Liberation Sans';-inkscape-font-specification:'Liberation Sans, Normal';text-align:center;text-anchor:middle"
             d="m 75.798828,110.80905 h -1.054687 v -6.7207 q -0.38086,0.36328 -1.001954,0.72656 -0.615234,0.36328 -1.107421,0.54492 v -1.01953 q 0.884765,-0.41601 1.546875,-1.00781 0.662109,-0.5918 0.9375,-1.14844 h 0.679687 z m 2.583984,-2.57812 v -1.06055 h 3.240235 v 1.06055 z m 9.65625,1.56445 v 1.01367 h -5.677734 q -0.01172,-0.38086 0.123047,-0.73242 0.216797,-0.58008 0.691406,-1.14258 0.480469,-0.5625 1.382813,-1.30078 1.40039,-1.14844 1.892578,-1.8164 0.492187,-0.67383 0.492187,-1.27149 0,-0.62695 -0.451172,-1.05469 -0.445312,-0.43359 -1.166015,-0.43359 -0.761719,0 -1.21875,0.45703 -0.457031,0.45703 -0.462891,1.26563 l -1.083984,-0.11133 q 0.111328,-1.21289 0.83789,-1.84571 0.726563,-0.63867 1.951172,-0.63867 1.236328,0 1.957032,0.68555 0.720703,0.68555 0.720703,1.69922 0,0.51562 -0.210938,1.01367 -0.210937,0.49805 -0.703125,1.04883 -0.486328,0.55078 -1.623047,1.51172 -0.949218,0.79687 -1.21875,1.08398 -0.269531,0.28125 -0.445312,0.56836 z"
             id="flowRoot3586"
             transform="translate(180,702.36217)"
             aria-label="1-2" />
          <rect
             ry="6.6666665"
             rx="6.6666656"
             y="772.86218"
             x="360.50009"
             height="49"
             width="39"
             id="rect3588"
             style="fill:#fce94f;fill-opacity:1;stroke:#000000;stroke-width:1.33333337;stroke-linecap:round;stroke-linejoin:round;stroke-miterlimit:4;stroke-dasharray:none" />
          <path
             style="font-size:22px;line-height:1.25;font-family:'Liberation Sans';-inkscape-font-specification:'Liberation Sans, Normal';text-align:center;text-anchor:middle"
             d="m 84.989746,114.29511 2.083984,0.52637 q -0.655273,2.56738 -2.363281,3.9209 -1.697265,1.34277 -4.157226,1.34277 -2.545899,0 -4.146485,-1.03125 -1.589843,-1.04199 -2.427734,-3.00781 -0.827149,-1.96582 -0.827149,-4.22168 0,-2.45996 0.934571,-4.28613 0.945312,-1.83692 2.674804,-2.78223 1.740235,-0.95605 3.824219,-0.95605 2.363281,0 3.97461,1.20312 1.611328,1.20313 2.245117,3.38379 l -2.051758,0.4834 q -0.547852,-1.71875 -1.589844,-2.50293 -1.041992,-0.78418 -2.621094,-0.78418 -1.815429,0 -3.040039,0.87012 -1.213867,0.87011 -1.708007,2.34179 -0.494141,1.46094 -0.494141,3.01856 0,2.00879 0.580078,3.51269 0.59082,1.49317 1.826172,2.23438 1.235352,0.74121 2.674805,0.74121 1.750976,0 2.964843,-1.00977 1.213868,-1.00976 1.643555,-2.99707 z"
             id="flowRoot3596"
             transform="translate(300.0001,672.36217)"
             aria-label="C" />
          <path
             style="font-size:12px;line-height:1.25;font-family:'Liberation Sans';-inkscape-font-specification:'Liberation Sans, Normal';text-align:center;text-anchor:middle"
             d="m 75.207031,110.80905 v -2.05664 h -3.726562 v -0.96679 l 3.919922,-5.56641 h 0.861328 v 5.56641 h 1.160156 v 0.96679 h -1.160156 v 2.05664 z m 0,-3.02343 v -3.87305 l -2.689453,3.87305 z m 3.175781,0.44531 v -1.06055 h 3.240235 v 1.06055 z m 4.113282,0.32812 1.107422,-0.0937 q 0.123046,0.8086 0.568359,1.21875 0.451172,0.4043 1.083984,0.4043 0.761719,0 1.289063,-0.57422 0.527344,-0.57422 0.527344,-1.52344 0,-0.90234 -0.509766,-1.42382 -0.503906,-0.52149 -1.324219,-0.52149 -0.509765,0 -0.919922,0.23438 -0.410156,0.22851 -0.644531,0.59765 l -0.990234,-0.1289 0.832031,-4.41211 h 4.271484 v 1.00781 h -3.427734 l -0.462891,2.30859 q 0.773438,-0.53906 1.623047,-0.53906 1.125,0 1.898438,0.7793 0.773437,0.77929 0.773437,2.0039 0,1.16602 -0.679687,2.01563 -0.826172,1.04297 -2.25586,1.04297 -1.171875,0 -1.916015,-0.65625 -0.738282,-0.65625 -0.84375,-1.74024 z"
             id="flowRoot3604"
             transform="translate(300.0001,702.36217)"
             aria-label="4-5" />
        </g>
        <g
           transform="translate(310.00003,140)"
           id="g3626">
          <rect
             style="fill:#729fcf;fill-opacity:1;stroke:#000000;stroke-width:1.33333337;stroke-linecap:round;stroke-linejoin:round;stroke-miterlimit:4;stroke-dasharray:none"
             id="rect3608"
             width="79"
             height="49"
             x="240.49998"
             y="772.86218"
             rx="6.6666656"
             ry="6.6666665" />
          <path
             style="font-size:22px;line-height:1.25;font-family:'Liberation Sans';-inkscape-font-specification:'Liberation Sans, Normal';text-align:center;text-anchor:middle"
             d="m 94.40332,119.8166 v -15.74805 h 11.38672 v 1.8584 h -9.302735 v 4.82324 h 8.711915 v 1.84766 h -8.711915 v 5.36035 h 9.667965 v 1.8584 z"
             id="flowRoot3616"
             transform="translate(180,672.36217)"
             aria-label="E" />
          <path
             style="font-size:12px;line-height:1.25;font-family:'Liberation Sans';-inkscape-font-specification:'Liberation Sans, Normal';text-align:center;text-anchor:middle"
             d="m 97.369141,109.79538 v 1.01367 h -5.677735 q -0.01172,-0.38086 0.123047,-0.73242 0.216797,-0.58008 0.691406,-1.14258 0.480469,-0.5625 1.382813,-1.30078 1.40039,-1.14844 1.892578,-1.8164 0.492187,-0.67383 0.492187,-1.27149 0,-0.62695 -0.451171,-1.05469 -0.445313,-0.43359 -1.166016,-0.43359 -0.761719,0 -1.21875,0.45703 -0.457031,0.45703 -0.462891,1.26563 l -1.083984,-0.11133 q 0.111328,-1.21289 0.837891,-1.84571 0.726562,-0.63867 1.951171,-0.63867 1.236329,0 1.957032,0.68555 0.720703,0.68555 0.720703,1.69922 0,0.51562 -0.210938,1.01367 -0.210937,0.49805 -0.703125,1.04883 -0.486328,0.55078 -1.623047,1.51172 -0.949218,0.79687 -1.21875,1.08398 -0.269531,0.28125 -0.445312,0.56836 z m 1.013671,-1.56445 v -1.06055 h 3.240238 v 1.06055 z m 7.494138,2.57812 v -2.05664 h -3.72656 v -0.96679 l 3.91992,-5.56641 h 0.86133 v 5.56641 h 1.16016 v 0.96679 h -1.16016 v 2.05664 z m 0,-3.02343 v -3.87305 l -2.68945,3.87305 z"
             id="flowRoot3624"
             transform="translate(180,702.36217)"
             aria-label="2-4" />
        </g>
        <g
           id="g3628"
           transform="translate(430.00004,190)" />
        <g
           transform="translate(430.00004,140)"
           id="g3630" />
        <g
           id="g3650"
           transform="translate(350.00003,190)">
          <rect
             ry="6.6666665"
             rx="6.6666656"
             y="772.86218"
             x="240.49998"
             height="49"
             width="79"
             id="rect3632"
             style="fill:#ad7fa8;fill-opacity:1;stroke:#000000;stroke-width:1.33333337;stroke-linecap:round;stroke-linejoin:round;stroke-miterlimit:4;stroke-dasharray:none" />
          <path
             style="font-size:22px;line-height:1.25;font-family:'Liberation Sans';-inkscape-font-specification:'Liberation Sans, Normal';text-align:center;text-anchor:middle"
             d="m 92.630859,119.8166 6.047852,-15.74805 h 2.245119 l 6.44531,15.74805 h -2.37402 l -1.83692,-4.76953 h -6.584958 l -1.729492,4.76953 z m 4.543946,-6.4668 h 5.338865 l -1.64355,-4.36133 q -0.75196,-1.9873 -1.11719,-3.26562 -0.300782,1.51465 -0.848633,3.00781 z"
             id="flowRoot3640"
             transform="translate(180,672.36217)"
             aria-label="A" />
          <path
             style="font-size:12px;line-height:1.25;font-family:'Liberation Sans';-inkscape-font-specification:'Liberation Sans, Normal';text-align:center;text-anchor:middle"
             d="m 91.832031,108.54147 1.054688,-0.14062 q 0.18164,0.89648 0.615234,1.29492 0.439453,0.39258 1.066406,0.39258 0.744141,0 1.253907,-0.51563 0.515625,-0.51562 0.515625,-1.27734 0,-0.72656 -0.47461,-1.19531 -0.474609,-0.47461 -1.207031,-0.47461 -0.298828,0 -0.744141,0.11719 l 0.117188,-0.92578 q 0.105469,0.0117 0.169922,0.0117 0.673828,0 1.21289,-0.35156 0.539063,-0.35156 0.539063,-1.08398 0,-0.58008 -0.392578,-0.96094 -0.392578,-0.38086 -1.013672,-0.38086 -0.615235,0 -1.025391,0.38672 -0.410156,0.38672 -0.527344,1.16016 l -1.054687,-0.1875 q 0.193359,-1.06055 0.878906,-1.64063 0.685547,-0.58594 1.705078,-0.58594 0.703125,0 1.294922,0.30469 0.591797,0.29883 0.902344,0.82031 0.316406,0.52149 0.316406,1.10742 0,0.55665 -0.298828,1.01368 -0.298828,0.45703 -0.884766,0.72656 0.761719,0.17578 1.183594,0.73242 0.421875,0.55078 0.421875,1.38281 0,1.125 -0.820312,1.91016 -0.820313,0.7793 -2.074219,0.7793 -1.130859,0 -1.880859,-0.67383 -0.744141,-0.67383 -0.84961,-1.7461 z m 6.550781,-0.31054 v -1.06055 h 3.240238 v 1.06055 z m 4.113278,0.32812 1.10743,-0.0937 q 0.12304,0.8086 0.56836,1.21875 0.45117,0.4043 1.08398,0.4043 0.76172,0 1.28906,-0.57422 0.52735,-0.57422 0.52735,-1.52344 0,-0.90234 -0.50977,-1.42382 -0.50391,-0.52149 -1.32422,-0.52149 -0.50976,0 -0.91992,0.23438 -0.41016,0.22851 -0.64453,0.59765 l -0.99024,-0.1289 0.83204,-4.41211 h 4.27148 v 1.00781 h -3.42773 l -0.4629,2.30859 q 0.77344,-0.53906 1.62305,-0.53906 1.125,0 1.89844,0.7793 0.77344,0.77929 0.77344,2.0039 0,1.16602 -0.67969,2.01563 -0.82617,1.04297 -2.25586,1.04297 -1.17188,0 -1.91602,-0.65625 -0.73828,-0.65625 -0.84375,-1.74024 z"
             id="flowRoot3648"
             transform="translate(180,702.36217)"
             aria-label="3-5" />
        </g>
      </g>
      <path
         style="font-weight:bold;font-size:16px;line-height:1.25;font-family:'Liberation Sans';-inkscape-font-specification:'Arial Bold';text-align:center;text-anchor:middle;fill:#2e3436"
         d="m 270.68164,185.15816 v -11.45312 h 8.49219 v 1.9375 h -6.17969 v 2.53906 h 5.75 v 1.92969 h -5.75 v 3.11719 h 6.39844 v 1.92968 z m 16.07813,3.15625 v -4.17187 q -0.42969,0.55469 -1.07032,0.88281 -0.64062,0.32031 -1.38281,0.32031 -1.41406,0 -2.32812,-1.0625 -1.07813,-1.24218 -1.07813,-3.36718 0,-2 1.00781,-3.11719 1.01563,-1.125 2.51563,-1.125 0.82812,0 1.42969,0.35156 0.60937,0.35156 1.07812,1.0625 v -1.22656 h 2.02344 v 11.45312 z m 0.0703,-7.40625 q 0,-1.27343 -0.52344,-1.89062 -0.51562,-0.625 -1.29687,-0.625 -0.79688,0 -1.33594,0.63281 -0.53125,0.63281 -0.53125,2.00781 0,1.36719 0.51562,1.97657 0.51563,0.60156 1.27344,0.60156 0.75781,0 1.32813,-0.67969 0.57031,-0.67969 0.57031,-2.02344 z m 9.74219,4.25 v -1.24218 q -0.45313,0.66406 -1.19532,1.04687 -0.73437,0.38281 -1.55468,0.38281 -0.83594,0 -1.5,-0.36718 -0.66407,-0.36719 -0.96094,-1.03125 -0.29688,-0.66407 -0.29688,-1.83594 v -5.25 h 2.19532 v 3.8125 q 0,1.75 0.11718,2.14844 0.125,0.39062 0.44532,0.625 0.32031,0.22656 0.8125,0.22656 0.5625,0 1.00781,-0.30469 0.44531,-0.3125 0.60937,-0.76562 0.16407,-0.46094 0.16407,-2.24219 v -3.5 h 2.19531 v 8.29687 z m 4.3125,-9.42187 v -2.03125 h 2.19531 v 2.03125 z m 0,9.42187 v -8.29687 h 2.19531 v 8.29687 z m 4.38281,-8.29687 h 2.04687 v 1.21875 q 0.39844,-0.625 1.07813,-1.01563 0.67969,-0.39062 1.50781,-0.39062 1.44531,0 2.45313,1.13281 1.00781,1.13281 1.00781,3.15625 0,2.07813 -1.01563,3.23438 -1.01562,1.14843 -2.46093,1.14843 -0.6875,0 -1.25,-0.27343 -0.55469,-0.27344 -1.17188,-0.9375 v 4.17968 h -2.19531 z m 2.17187,4.00781 q 0,1.39844 0.55469,2.07031 0.55469,0.66407 1.35156,0.66407 0.76563,0 1.27344,-0.60938 0.50781,-0.61719 0.50781,-2.01562 0,-1.30469 -0.52343,-1.9375 -0.52344,-0.63282 -1.29688,-0.63282 -0.80469,0 -1.33594,0.625 -0.53125,0.61719 -0.53125,1.83594 z m 7.5,-4.00781 h 2.02344 v 1.13281 q 1.08594,-1.32031 2.58594,-1.32031 0.79687,0 1.38281,0.32812 0.58594,0.32813 0.96094,0.99219 0.54687,-0.66406 1.17969,-0.99219 0.63281,-0.32812 1.35156,-0.32812 0.91406,0 1.54687,0.375 0.63282,0.36719 0.94532,1.08594 0.22656,0.53125 0.22656,1.71875 v 5.30468 h -2.19531 v -4.74218 q 0,-1.23438 -0.22657,-1.59375 -0.30468,-0.46875 -0.9375,-0.46875 -0.46093,0 -0.86718,0.28125 -0.40625,0.28125 -0.58594,0.82812 -0.17969,0.53906 -0.17969,1.71094 v 3.98437 h -2.19531 v -4.54687 q 0,-1.21094 -0.11719,-1.5625 -0.11719,-0.35156 -0.36719,-0.52344 -0.24218,-0.17187 -0.66406,-0.17187 -0.50781,0 -0.91406,0.27343 -0.40625,0.27344 -0.58594,0.78907 -0.17187,0.51562 -0.17187,1.71093 v 4.03125 h -2.19532 z m 19.19532,5.65625 2.1875,0.36719 q -0.42188,1.20312 -1.33594,1.83593 -0.90625,0.625 -2.27344,0.625 -2.16406,0 -3.20312,-1.41406 -0.82032,-1.13281 -0.82032,-2.85937 0,-2.0625 1.07813,-3.22657 1.07812,-1.17187 2.72656,-1.17187 1.85156,0 2.92188,1.22656 1.07031,1.21875 1.02343,3.74219 h -5.5 q 0.0234,0.97656 0.53125,1.52344 0.50782,0.53906 1.26563,0.53906 0.51562,0 0.86719,-0.28125 0.35156,-0.28125 0.53125,-0.90625 z m 0.125,-2.21875 q -0.0234,-0.95313 -0.49219,-1.44531 -0.46875,-0.5 -1.14063,-0.5 -0.71875,0 -1.1875,0.52343 -0.46875,0.52344 -0.46093,1.42188 z m 11.51562,4.85937 h -2.19531 v -4.23437 q 0,-1.34375 -0.14063,-1.73438 -0.14062,-0.39843 -0.46093,-0.61718 -0.3125,-0.21875 -0.75782,-0.21875 -0.57031,0 -1.02343,0.3125 -0.45313,0.3125 -0.625,0.82812 -0.16407,0.51563 -0.16407,1.90625 v 3.75781 h -2.19531 v -8.29687 h 2.03906 v 1.21875 q 1.08594,-1.40625 2.73438,-1.40625 0.72656,0 1.32812,0.26562 0.60157,0.25782 0.90625,0.66407 0.3125,0.40625 0.42969,0.92187 0.125,0.51563 0.125,1.47656 z m 6.03125,-8.29687 v 1.75 h -1.5 v 3.34375 q 0,1.01562 0.0391,1.1875 0.0469,0.16406 0.19532,0.27344 0.15625,0.10937 0.375,0.10937 0.30468,0 0.88281,-0.21094 l 0.1875,1.70313 q -0.76563,0.32812 -1.73438,0.32812 -0.59375,0 -1.07031,-0.19531 -0.47656,-0.20312 -0.70312,-0.51562 -0.21875,-0.32032 -0.30469,-0.85938 -0.0703,-0.38281 -0.0703,-1.54687 v -3.61719 h -1.00782 v -1.75 h 1.00782 v -1.64844 l 2.20312,-1.28125 v 2.92969 z m 5.19531,5.92969 2.20313,-0.33594 q 0.14062,0.64062 0.57031,0.97656 0.42969,0.32813 1.20313,0.32813 0.85156,0 1.28125,-0.3125 0.28906,-0.21875 0.28906,-0.58594 0,-0.25 -0.15625,-0.41406 -0.16406,-0.15625 -0.73438,-0.28907 -2.65625,-0.58593 -3.36718,-1.07031 -0.98438,-0.67187 -0.98438,-1.86719 0,-1.07812 0.85156,-1.8125 0.85157,-0.73437 2.64063,-0.73437 1.70312,0 2.53125,0.55469 0.82812,0.55468 1.14062,1.64062 l -2.07031,0.38281 q -0.13281,-0.48437 -0.50781,-0.74218 -0.36719,-0.25782 -1.05469,-0.25782 -0.86719,0 -1.24219,0.24219 -0.25,0.17188 -0.25,0.44531 0,0.23438 0.21875,0.39844 0.29688,0.21875 2.04688,0.61719 1.75781,0.39844 2.45312,0.97656 0.6875,0.58594 0.6875,1.63281 0,1.14063 -0.95312,1.96094 -0.95313,0.82031 -2.82031,0.82031 -1.69532,0 -2.6875,-0.6875 -0.98438,-0.6875 -1.28907,-1.86718 z m 16.90625,-3.47657 -2.16406,0.39063 q -0.10937,-0.64844 -0.5,-0.97656 -0.38281,-0.32813 -1,-0.32813 -0.82031,0 -1.3125,0.57031 -0.48437,0.5625 -0.48437,1.89063 0,1.47656 0.49218,2.08594 0.5,0.60937 1.33594,0.60937 0.625,0 1.02344,-0.35156 0.39844,-0.35938 0.5625,-1.22656 l 2.15625,0.36718 q -0.33594,1.48438 -1.28906,2.24219 -0.95313,0.75781 -2.55469,0.75781 -1.82031,0 -2.90625,-1.14843 -1.07813,-1.14844 -1.07813,-3.17969 0,-2.05469 1.08594,-3.19531 1.08594,-1.14844 2.9375,-1.14844 1.51563,0 2.40625,0.65625 0.89844,0.64844 1.28906,1.98437 z m 3.85157,-5.60937 v 4.21094 q 1.0625,-1.24219 2.53906,-1.24219 0.75781,0 1.36719,0.28125 0.60937,0.28125 0.91406,0.71875 0.3125,0.4375 0.42187,0.96875 0.11719,0.53125 0.11719,1.64844 v 4.86718 h -2.19531 v -4.38281 q 0,-1.30469 -0.125,-1.65625 -0.125,-0.35156 -0.44531,-0.55469 -0.3125,-0.21093 -0.78907,-0.21093 -0.54687,0 -0.97656,0.26562 -0.42969,0.26563 -0.63281,0.80469 -0.19531,0.53125 -0.19531,1.57812 v 4.15625 h -2.19532 v -11.45312 z m 12.39062,8.8125 2.1875,0.36719 q -0.42187,1.20312 -1.33594,1.83593 -0.90625,0.625 -2.27343,0.625 -2.16407,0 -3.20313,-1.41406 -0.82031,-1.13281 -0.82031,-2.85937 0,-2.0625 1.07812,-3.22657 1.07813,-1.17187 2.72657,-1.17187 1.85156,0 2.92187,1.22656 1.07031,1.21875 1.02344,3.74219 h -5.5 q 0.0234,0.97656 0.53125,1.52344 0.50781,0.53906 1.26562,0.53906 0.51563,0 0.86719,-0.28125 0.35156,-0.28125 0.53125,-0.90625 z m 0.125,-2.21875 q -0.0234,-0.95313 -0.49219,-1.44531 -0.46875,-0.5 -1.14062,-0.5 -0.71875,0 -1.1875,0.52343 -0.46875,0.52344 -0.46094,1.42188 z m 11.57813,4.85937 h -2.03907 v -1.21875 q -0.50781,0.71094 -1.20312,1.0625 -0.6875,0.34375 -1.39063,0.34375 -1.42968,0 -2.45312,-1.14843 -1.01563,-1.15625 -1.01563,-3.21875 0,-2.10938 0.99219,-3.20313 0.99219,-1.10156 2.50781,-1.10156 1.39063,0 2.40625,1.15625 v -4.125 h 2.19532 z m -5.85938,-4.32812 q 0,1.32812 0.36719,1.92187 0.53125,0.85938 1.48437,0.85938 0.75782,0 1.28907,-0.64063 0.53125,-0.64843 0.53125,-1.92968 0,-1.42969 -0.51563,-2.05469 -0.51562,-0.63281 -1.32031,-0.63281 -0.78125,0 -1.3125,0.625 -0.52344,0.61718 -0.52344,1.85156 z m 13.48438,4.32812 v -1.24218 q -0.45313,0.66406 -1.19532,1.04687 -0.73437,0.38281 -1.55468,0.38281 -0.83594,0 -1.5,-0.36718 -0.66407,-0.36719 -0.96094,-1.03125 -0.29688,-0.66407 -0.29688,-1.83594 v -5.25 h 2.19532 v 3.8125 q 0,1.75 0.11718,2.14844 0.125,0.39062 0.44532,0.625 0.32031,0.22656 0.8125,0.22656 0.5625,0 1.00781,-0.30469 0.44531,-0.3125 0.60937,-0.76562 0.16407,-0.46094 0.16407,-2.24219 v -3.5 h 2.19531 v 8.29687 z m 4.3125,0 v -11.45312 h 2.19531 v 11.45312 z m 4.44531,-9.42187 v -2.03125 h 2.19531 v 2.03125 z m 0,9.42187 v -8.29687 h 2.19531 v 8.29687 z m 11.99219,0 h -2.19532 v -4.23437 q 0,-1.34375 -0.14062,-1.73438 -0.14063,-0.39843 -0.46094,-0.61718 -0.3125,-0.21875 -0.75781,-0.21875 -0.57031,0 -1.02344,0.3125 -0.45312,0.3125 -0.625,0.82812 -0.16406,0.51563 -0.16406,1.90625 v 3.75781 h -2.19531 v -8.29687 h 2.03906 v 1.21875 q 1.08594,-1.40625 2.73437,-1.40625 0.72657,0 1.32813,0.26562 0.60156,0.25782 0.90625,0.66407 0.3125,0.40625 0.42969,0.92187 0.125,0.51563 0.125,1.47656 z m 2.02343,0.54688 2.50782,0.30469 q 0.0625,0.4375 0.28906,0.60156 0.3125,0.23437 0.98437,0.23437 0.85938,0 1.28907,-0.25781 0.28906,-0.17187 0.4375,-0.55469 0.10156,-0.27343 0.10156,-1.00781 v -1.21094 q -0.98438,1.34375 -2.48438,1.34375 -1.67187,0 -2.64843,-1.41406 -0.76563,-1.11719 -0.76563,-2.78125 0,-2.08594 1,-3.1875 1.00781,-1.10156 2.5,-1.10156 1.53906,0 2.53906,1.35156 v -1.16406 h 2.05469 v 7.44531 q 0,1.46875 -0.24219,2.19531 -0.24218,0.72657 -0.67968,1.14063 -0.4375,0.41406 -1.17188,0.64844 -0.72656,0.23437 -1.84375,0.23437 -2.10937,0 -2.99219,-0.72656 -0.88281,-0.71875 -0.88281,-1.82813 0,-0.10937 0.008,-0.26562 z m 1.96094,-4.86719 q 0,1.32031 0.50781,1.9375 0.51563,0.60938 1.26563,0.60938 0.80469,0 1.35937,-0.625 0.55469,-0.63282 0.55469,-1.86719 0,-1.28906 -0.53125,-1.91406 -0.53125,-0.625 -1.34375,-0.625 -0.78906,0 -1.30469,0.61718 -0.50781,0.60938 -0.50781,1.86719 z"
         id="flowRoot3660"
         transform="translate(239.68335,321.61695)"
         aria-label="Equipment scheduling" />
    </g>
  </g>
</svg>
