<?xml version="1.0" encoding="UTF-8" standalone="no"?>
<!-- Created with Inkscape (http://www.inkscape.org/) -->

<svg
   width="800"
   height="600"
   id="svg2"
   version="1.1"
   xmlns="http://www.w3.org/2000/svg"
   xmlns:svg="http://www.w3.org/2000/svg"
   xmlns:rdf="http://www.w3.org/1999/02/22-rdf-syntax-ns#"
   xmlns:cc="http://creativecommons.org/ns#"
   xmlns:dc="http://purl.org/dc/elements/1.1/">
  <defs
     id="defs4">
    <linearGradient
       id="linearGradient2152-7">
      <stop
         id="stop2154-1"
         offset="0.0000000"
         style="stop-color:#9aa29a;stop-opacity:1.0000000;" />
      <stop
         id="stop2156-9"
         offset="1.0000000"
         style="stop-color:#b5beb5;stop-opacity:1.0000000;" />
    </linearGradient>
    <linearGradient
       id="linearGradient37935-4">
      <stop
         id="stop37937-7"
         offset="0.0000000"
         style="stop-color:#9497b3;stop-opacity:1.0000000;" />
      <stop
         id="stop37939-5"
         offset="1.0000000"
         style="stop-color:#4c4059;stop-opacity:1.0000000;" />
    </linearGradient>
    <linearGradient
       id="linearGradient2145-1">
      <stop
         style="stop-color:#fffffd;stop-opacity:1.0000000;"
         offset="0.0000000"
         id="stop2147-3" />
      <stop
         style="stop-color:#cbcbc9;stop-opacity:1.0000000;"
         offset="1.0000000"
         id="stop2149-6" />
    </linearGradient>
    <linearGradient
       id="linearGradient42174-0">
      <stop
         style="stop-color:#a0a0a0;stop-opacity:1.0000000;"
         offset="0.0000000"
         id="stop42176-3" />
      <stop
         style="stop-color:#ffffff;stop-opacity:1.0000000;"
         offset="1.0000000"
         id="stop42178-0" />
    </linearGradient>
    <linearGradient
       id="linearGradient10653-0">
      <stop
         style="stop-color:#f3f4ff;stop-opacity:1.0000000;"
         offset="0.0000000"
         id="stop10655-6" />
      <stop
         style="stop-color:#9193af;stop-opacity:1.0000000;"
         offset="1.0000000"
         id="stop10657-1" />
    </linearGradient>
    <linearGradient
       id="linearGradient3290-1-4-9-7">
      <stop
         style="stop-color:#fffcde;stop-opacity:1.0000000;"
         offset="0.0000000"
         id="stop3292-5-2-1-8" />
      <stop
         id="stop3294-2-0-9-6"
         offset="0.64485979"
         style="stop-color:#f6e76a;stop-opacity:1.0000000;" />
      <stop
         style="stop-color:#ffb738;stop-opacity:1.0000000;"
         offset="1.0000000"
         id="stop3296-41-2-7-5" />
    </linearGradient>
    <radialGradient
       gradientTransform="matrix(1.25,0,0,-1.25,173.52055,478.02666)"
       id="aigrd2-3-6-2-8"
       cx="25.0527"
       cy="39.5928"
       r="15.7572"
       fx="25.0527"
       fy="39.5928"
       gradientUnits="userSpaceOnUse">
      <stop
         offset="0.0000000"
         style="stop-color:#777777;stop-opacity:1.0000000;"
         id="stop8602-8-5-1-9" />
      <stop
         offset="1"
         style="stop-color:#000000"
         id="stop8604-8-9-5-9" />
    </radialGradient>
    <linearGradient
       id="linearGradient4268-4-1-1">
      <stop
         style="stop-color:#f9abab;stop-opacity:1;"
         offset="0"
         id="stop4270-1-0-5" />
      <stop
         id="stop4314-5-0-5"
         offset="0.63999999"
         style="stop-color:#f46a6a;stop-opacity:1;" />
      <stop
         id="stop4276-0-7-4"
         offset="1"
         style="stop-color:#ef2929;stop-opacity:1;" />
    </linearGradient>
    <linearGradient
       id="linearGradient4316-4-7-5">
      <stop
         style="stop-color:#fef5a6;stop-opacity:1;"
         offset="0"
         id="stop4318-3-0-9" />
      <stop
         style="stop-color:#fce94f;stop-opacity:1;"
         offset="1"
         id="stop4320-9-0-3" />
    </linearGradient>
    <linearGradient
       id="linearGradient3962-9-2-1-8-4">
      <stop
         id="stop3964-5-7-9-3-9-9"
         offset="0"
         style="stop-color:#fdf291;stop-opacity:1;" />
      <stop
         id="stop4134-5-6-7-9-7-0"
         offset="0.15517241"
         style="stop-color:#fce94f;stop-opacity:1;" />
      <stop
         id="stop4346-9-9-1-9-1"
         offset="0.75"
         style="stop-color:#edd400;stop-opacity:1;" />
      <stop
         id="stop3966-2-2-0-1-5"
         offset="1"
         style="stop-color:#c4a000;stop-opacity:1;" />
    </linearGradient>
    <linearGradient
       id="linearGradient3290-1-4-9-8">
      <stop
         style="stop-color:#fffcde;stop-opacity:1.0000000;"
         offset="0.0000000"
         id="stop3292-5-2-1-3" />
      <stop
         id="stop3294-2-0-9-1"
         offset="0.64485979"
         style="stop-color:#f6e76a;stop-opacity:1.0000000;" />
      <stop
         style="stop-color:#ffb738;stop-opacity:1.0000000;"
         offset="1.0000000"
         id="stop3296-41-2-7-59" />
    </linearGradient>
    <radialGradient
       gradientTransform="matrix(1.25,0,0,-1.25,173.52055,478.02666)"
       id="aigrd2-3-6-2-5"
       cx="25.0527"
       cy="39.5928"
       r="15.7572"
       fx="25.0527"
       fy="39.5928"
       gradientUnits="userSpaceOnUse">
      <stop
         offset="0.0000000"
         style="stop-color:#777777;stop-opacity:1.0000000;"
         id="stop8602-8-5-1-93" />
      <stop
         offset="1"
         style="stop-color:#000000"
         id="stop8604-8-9-5-2" />
    </radialGradient>
    <linearGradient
       id="linearGradient4268-4-1-6">
      <stop
         style="stop-color:#f9abab;stop-opacity:1;"
         offset="0"
         id="stop4270-1-0-2" />
      <stop
         id="stop4314-5-0-8"
         offset="0.63999999"
         style="stop-color:#f46a6a;stop-opacity:1;" />
      <stop
         id="stop4276-0-7-5"
         offset="1"
         style="stop-color:#ef2929;stop-opacity:1;" />
    </linearGradient>
    <linearGradient
       id="linearGradient4316-4-7-8">
      <stop
         style="stop-color:#fef5a6;stop-opacity:1;"
         offset="0"
         id="stop4318-3-0-1" />
      <stop
         style="stop-color:#fce94f;stop-opacity:1;"
         offset="1"
         id="stop4320-9-0-7" />
    </linearGradient>
    <linearGradient
       id="linearGradient2152-9">
      <stop
         id="stop2154-5"
         offset="0.0000000"
         style="stop-color:#9aa29a;stop-opacity:1.0000000;" />
      <stop
         id="stop2156-0"
         offset="1.0000000"
         style="stop-color:#b5beb5;stop-opacity:1.0000000;" />
    </linearGradient>
    <linearGradient
       id="linearGradient37935-0">
      <stop
         id="stop37937-5"
         offset="0.0000000"
         style="stop-color:#9497b3;stop-opacity:1.0000000;" />
      <stop
         id="stop37939-7"
         offset="1.0000000"
         style="stop-color:#4c4059;stop-opacity:1.0000000;" />
    </linearGradient>
    <linearGradient
       id="linearGradient2145-8">
      <stop
         style="stop-color:#fffffd;stop-opacity:1.0000000;"
         offset="0.0000000"
         id="stop2147-2" />
      <stop
         style="stop-color:#cbcbc9;stop-opacity:1.0000000;"
         offset="1.0000000"
         id="stop2149-3" />
    </linearGradient>
    <linearGradient
       id="linearGradient42174-5">
      <stop
         style="stop-color:#a0a0a0;stop-opacity:1.0000000;"
         offset="0.0000000"
         id="stop42176-6" />
      <stop
         style="stop-color:#ffffff;stop-opacity:1.0000000;"
         offset="1.0000000"
         id="stop42178-4" />
    </linearGradient>
    <linearGradient
       id="linearGradient10653-09">
      <stop
         style="stop-color:#f3f4ff;stop-opacity:1.0000000;"
         offset="0.0000000"
         id="stop10655-65" />
      <stop
         style="stop-color:#9193af;stop-opacity:1.0000000;"
         offset="1.0000000"
         id="stop10657-3" />
    </linearGradient>
    <linearGradient
       id="linearGradient3290-1-4-9-2">
      <stop
         style="stop-color:#fffcde;stop-opacity:1.0000000;"
         offset="0.0000000"
         id="stop3292-5-2-1-0" />
      <stop
         id="stop3294-2-0-9-9"
         offset="0.64485979"
         style="stop-color:#f6e76a;stop-opacity:1.0000000;" />
      <stop
         style="stop-color:#ffb738;stop-opacity:1.0000000;"
         offset="1.0000000"
         id="stop3296-41-2-7-1" />
    </linearGradient>
    <radialGradient
       gradientTransform="matrix(1.25,0,0,-1.25,173.52055,478.02666)"
       id="aigrd2-3-6-2-52"
       cx="25.0527"
       cy="39.5928"
       r="15.7572"
       fx="25.0527"
       fy="39.5928"
       gradientUnits="userSpaceOnUse">
      <stop
         offset="0.0000000"
         style="stop-color:#777777;stop-opacity:1.0000000;"
         id="stop8602-8-5-1-1" />
      <stop
         offset="1"
         style="stop-color:#000000"
         id="stop8604-8-9-5-4" />
    </radialGradient>
    <linearGradient
       id="linearGradient3962-9-23-7-4">
      <stop
         id="stop3964-5-7-4-6-2"
         offset="0.0000000"
         style="stop-color:#d3e9ff;stop-opacity:1.0000000;" />
      <stop
         id="stop4134-5-6-1-8-8"
         offset="0.15517241"
         style="stop-color:#d3e9ff;stop-opacity:1.0000000;" />
      <stop
         id="stop4346-9-3-6-9"
         offset="0.75000000"
         style="stop-color:#4074ae;stop-opacity:1.0000000;" />
      <stop
         id="stop3966-2-3-2-9"
         offset="1.0000000"
         style="stop-color:#36486c;stop-opacity:1.0000000;" />
    </linearGradient>
    <linearGradient
       id="linearGradient4750-6-0-8-0">
      <stop
         id="stop4752-8-8-4-6"
         offset="0"
         style="stop-color:#ffffff;stop-opacity:1;" />
      <stop
         id="stop4758-1-6-4-2"
         offset="0.37931034"
         style="stop-color:#fefefe;stop-opacity:1.0000000;" />
      <stop
         id="stop4754-0-1-3-5"
         offset="1.0000000"
         style="stop-color:#1d1d1d;stop-opacity:1.0000000;" />
    </linearGradient>
    <linearGradient
       id="linearGradient4126-1-7-0-0">
      <stop
         id="stop4128-5-5-2-9-9"
         offset="0.0000000"
         style="stop-color:#ffffff;stop-opacity:1.0000000;" />
      <stop
         id="stop4130-6-4-4-1"
         offset="1.0000000"
         style="stop-color:#ffffff;stop-opacity:0.16494845;" />
    </linearGradient>
    <linearGradient
       id="linearGradient3962-9-2-1-8-6">
      <stop
         id="stop3964-5-7-9-3-9-94"
         offset="0"
         style="stop-color:#fdf291;stop-opacity:1;" />
      <stop
         id="stop4134-5-6-7-9-7-7"
         offset="0.15517241"
         style="stop-color:#fce94f;stop-opacity:1;" />
      <stop
         id="stop4346-9-9-1-9-3"
         offset="0.75"
         style="stop-color:#edd400;stop-opacity:1;" />
      <stop
         id="stop3966-2-2-0-1-9"
         offset="1"
         style="stop-color:#c4a000;stop-opacity:1;" />
    </linearGradient>
  </defs>
  <metadata
     id="metadata7">
    <rdf:RDF>
      <cc:Work
         rdf:about="">
        <dc:format>image/svg+xml</dc:format>
        <dc:type
           rdf:resource="http://purl.org/dc/dcmitype/StillImage" />
        <dc:language>en</dc:language>
        <cc:license
           rdf:resource="https://timefold.ai/license" />
      </cc:Work>
    </rdf:RDF>
  </metadata>
  <g
     id="layer1"
     transform="translate(0,-452.36218)"
     style="display:inline">
    <g
       id="g3709"
       transform="translate(0,19.999997)" />
    <flowRoot
       xml:space="preserve"
       id="flowRoot4157"
       style="font-style:normal;font-weight:normal;line-height:0.01%;font-family:sans-serif;letter-spacing:0px;word-spacing:0px;fill:#000000;fill-opacity:1;stroke:none"><flowRegion
         id="flowRegion4159"
         style="font-family:sans-serif"><rect
           id="rect4161"
           width="10.955056"
           height="72.471909"
           x="16.011236"
           y="-53.932568" /></flowRegion><flowPara
         id="flowPara4163"
         style="font-size:40px;line-height:1.25;font-family:sans-serif"> </flowPara></flowRoot>
    <path
       style="font-size:36px;line-height:1.25;font-family:'Liberation Sans';-inkscape-font-specification:'Liberation Sans, Normal';text-align:center;text-anchor:middle"
       d="m 199.14844,242.42716 -6.83789,-25.76953 h 3.49804 l 3.91993,16.89258 q 0.63281,2.65429 1.08984,5.27343 0.98437,-4.13086 1.16016,-4.76367 l 4.90429,-17.40234 h 4.11328 l 3.69141,13.04297 q 1.38867,4.85156 2.00391,9.12304 0.49218,-2.44336 1.2832,-5.60742 l 4.04297,-16.55859 h 3.42773 l -7.0664,25.76953 h -3.28711 l -5.43164,-19.63477 q -0.68555,-2.46093 -0.8086,-3.02343 -0.40429,1.77539 -0.75586,3.02343 l -5.46679,19.63477 z m 29.07422,0 v -25.76953 h 3.16406 v 9.24609 q 2.21484,-2.5664 5.58984,-2.5664 2.07422,0 3.60352,0.82617 1.52929,0.80859 2.17969,2.25 0.66796,1.4414 0.66796,4.18359 v 11.83008 h -3.16406 v -11.83008 q 0,-2.37305 -1.03711,-3.44531 -1.01953,-1.08985 -2.90039,-1.08985 -1.40625,0 -2.6543,0.73829 -1.23046,0.7207 -1.75781,1.96875 -0.52734,1.24804 -0.52734,3.44531 v 10.21289 z m 32.20312,-2.30274 q -1.75781,1.49415 -3.39258,2.10938 -1.61718,0.61523 -3.48047,0.61523 -3.07617,0 -4.72851,-1.49414 -1.65235,-1.51172 -1.65235,-3.84961 0,-1.37109 0.61524,-2.49609 0.63281,-1.14258 1.63476,-1.82812 1.01954,-0.68555 2.28516,-1.03711 0.93164,-0.2461 2.8125,-0.47461 3.83203,-0.45703 5.64258,-1.08985 0.0176,-0.65039 0.0176,-0.82617 0,-1.93359 -0.89649,-2.72461 -1.21289,-1.07226 -3.60351,-1.07226 -2.23242,0 -3.30469,0.79101 -1.05469,0.77344 -1.56445,2.75977 l -3.09375,-0.42188 q 0.42187,-1.98633 1.38867,-3.19922 0.9668,-1.23047 2.79492,-1.88086 1.82813,-0.66796 4.23633,-0.66796 2.39062,0 3.88476,0.5625 1.49414,0.5625 2.19727,1.42382 0.70312,0.84375 0.98437,2.14453 0.15821,0.8086 0.15821,2.91797 v 4.21875 q 0,4.41211 0.19336,5.58985 0.21093,1.16015 0.80859,2.23242 h -3.30469 q -0.49218,-0.98438 -0.63281,-2.30274 z m -0.26367,-7.0664 q -1.72266,0.70312 -5.16797,1.19531 -1.95117,0.28125 -2.75977,0.63281 -0.80859,0.35157 -1.24804,1.03711 -0.43946,0.66797 -0.43946,1.49414 0,1.26563 0.94922,2.10938 0.9668,0.84375 2.8125,0.84375 1.82813,0 3.25196,-0.79102 1.42382,-0.80859 2.09179,-2.19726 0.50977,-1.07227 0.50977,-3.16407 z m 15.01172,6.53906 0.45703,2.79492 q -1.33594,0.28125 -2.39063,0.28125 -1.72265,0 -2.67187,-0.54492 -0.94922,-0.54492 -1.33594,-1.42383 -0.38672,-0.89648 -0.38672,-3.74414 v -10.74023 h -2.32031 v -2.46094 h 2.32031 v -4.62305 l 3.14649,-1.89843 v 6.52148 h 3.18164 v 2.46094 h -3.18164 v 10.91601 q 0,1.35352 0.1582,1.74024 0.17578,0.38672 0.54492,0.61523 0.38672,0.22852 1.08985,0.22852 0.52734,0 1.38867,-0.12305 z m 13.11328,-19.30078 v -3.63867 h 3.16406 v 3.63867 z m 0,22.13086 v -18.66797 h 3.16406 v 18.66797 z m 6.71484,-5.57227 3.12891,-0.49218 q 0.26367,1.88086 1.45898,2.88281 1.21289,1.00195 3.375,1.00195 2.17969,0 3.23438,-0.8789 1.05469,-0.89649 1.05469,-2.0918 0,-1.07227 -0.93164,-1.6875 -0.6504,-0.42188 -3.23438,-1.07227 -3.48047,-0.8789 -4.83398,-1.51172 -1.33594,-0.65039 -2.03907,-1.77539 -0.68554,-1.14257 -0.68554,-2.51367 0,-1.24805 0.5625,-2.30273 0.58007,-1.07227 1.56445,-1.77539 0.73828,-0.54493 2.00391,-0.91407 1.2832,-0.38671 2.74218,-0.38671 2.19727,0 3.84961,0.63281 1.66992,0.63281 2.46094,1.72265 0.79102,1.07227 1.08984,2.88282 l -3.09375,0.42187 q -0.21093,-1.4414 -1.23046,-2.25 -1.00196,-0.80859 -2.84766,-0.80859 -2.17969,0 -3.11133,0.7207 -0.93164,0.7207 -0.93164,1.6875 0,0.61524 0.38672,1.10742 0.38672,0.50977 1.21289,0.84375 0.47461,0.17578 2.79492,0.8086 3.35742,0.89648 4.67578,1.47656 1.33594,0.5625 2.0918,1.65234 0.75586,1.08985 0.75586,2.70703 0,1.58204 -0.93164,2.98829 -0.91406,1.38867 -2.6543,2.1621 -1.74023,0.75586 -3.9375,0.75586 -3.63867,0 -5.55469,-1.51171 -1.89843,-1.51172 -2.42578,-4.48243 z m 41.44922,3.26953 q -1.75781,1.49415 -3.39258,2.10938 -1.61718,0.61523 -3.48047,0.61523 -3.07617,0 -4.72851,-1.49414 -1.65234,-1.51172 -1.65234,-3.84961 0,-1.37109 0.61523,-2.49609 0.63281,-1.14258 1.63477,-1.82812 1.01953,-0.68555 2.28515,-1.03711 0.93164,-0.2461 2.8125,-0.47461 3.83203,-0.45703 5.64258,-1.08985 0.0176,-0.65039 0.0176,-0.82617 0,-1.93359 -0.89649,-2.72461 -1.21289,-1.07226 -3.60351,-1.07226 -2.23242,0 -3.30469,0.79101 -1.05469,0.77344 -1.56445,2.75977 l -3.09375,-0.42188 q 0.42187,-1.98633 1.38867,-3.19922 0.9668,-1.23047 2.79492,-1.88086 1.82813,-0.66796 4.23633,-0.66796 2.39062,0 3.88476,0.5625 1.49415,0.5625 2.19727,1.42382 0.70313,0.84375 0.98438,2.14453 0.1582,0.8086 0.1582,2.91797 v 4.21875 q 0,4.41211 0.19336,5.58985 0.21094,1.16015 0.80859,2.23242 h -3.30469 q -0.49218,-0.98438 -0.63281,-2.30274 z m -0.26367,-7.0664 q -1.72266,0.70312 -5.16797,1.19531 -1.95117,0.28125 -2.75976,0.63281 -0.8086,0.35157 -1.24805,1.03711 -0.43945,0.66797 -0.43945,1.49414 0,1.26563 0.94921,2.10938 0.9668,0.84375 2.8125,0.84375 1.82813,0 3.25196,-0.79102 1.42383,-0.80859 2.09179,-2.19726 0.50977,-1.07227 0.50977,-3.16407 z m 18.10547,16.52344 v -25.82227 h 2.88281 v 2.42578 q 1.01953,-1.42383 2.30274,-2.12695 1.2832,-0.7207 3.11132,-0.7207 2.39063,0 4.21875,1.23046 1.82813,1.23047 2.75977,3.48047 0.93164,2.23242 0.93164,4.9043 0,2.86523 -1.03711,5.16797 -1.01953,2.28515 -2.98828,3.51562 -1.95117,1.21289 -4.11328,1.21289 -1.58203,0 -2.84766,-0.66796 -1.24805,-0.66797 -2.05664,-1.6875 v 9.08789 z m 2.86523,-16.38282 q 0,3.60352 1.45899,5.32618 1.45898,1.72265 3.5332,1.72265 2.10938,0 3.60352,-1.77539 1.51171,-1.79297 1.51171,-5.53711 0,-3.56836 -1.47656,-5.34375 -1.45898,-1.77539 -3.49804,-1.77539 -2.02149,0 -3.58594,1.89844 -1.54688,1.88086 -1.54688,5.48437 z m 17.08594,9.22852 v -25.76953 h 3.16406 v 25.76953 z m 20.25,-2.30274 q -1.75781,1.49415 -3.39258,2.10938 -1.61719,0.61523 -3.48047,0.61523 -3.07617,0 -4.72851,-1.49414 -1.65235,-1.51172 -1.65235,-3.84961 0,-1.37109 0.61524,-2.49609 0.63281,-1.14258 1.63476,-1.82812 1.01954,-0.68555 2.28516,-1.03711 0.93164,-0.2461 2.8125,-0.47461 3.83203,-0.45703 5.64258,-1.08985 0.0176,-0.65039 0.0176,-0.82617 0,-1.93359 -0.89649,-2.72461 -1.21289,-1.07226 -3.60351,-1.07226 -2.23243,0 -3.30469,0.79101 -1.05469,0.77344 -1.56445,2.75977 l -3.09375,-0.42188 q 0.42187,-1.98633 1.38867,-3.19922 0.96679,-1.23047 2.79492,-1.88086 1.82812,-0.66796 4.23633,-0.66796 2.39062,0 3.88476,0.5625 1.49414,0.5625 2.19727,1.42382 0.70312,0.84375 0.98437,2.14453 0.15821,0.8086 0.15821,2.91797 v 4.21875 q 0,4.41211 0.19336,5.58985 0.21093,1.16015 0.80859,2.23242 h -3.30469 q -0.49218,-0.98438 -0.63281,-2.30274 z m -0.26367,-7.0664 q -1.72266,0.70312 -5.16797,1.19531 -1.95117,0.28125 -2.75977,0.63281 -0.80859,0.35157 -1.24804,1.03711 -0.43946,0.66797 -0.43946,1.49414 0,1.26563 0.94922,2.10938 0.9668,0.84375 2.8125,0.84375 1.82813,0 3.25196,-0.79102 1.42382,-0.80859 2.09179,-2.19726 0.50977,-1.07227 0.50977,-3.16407 z m 8.10351,9.36914 v -18.66797 h 2.84766 v 2.6543 q 2.05664,-3.07617 5.94141,-3.07617 1.6875,0 3.09375,0.61523 1.42382,0.59766 2.12695,1.58203 0.70312,0.98438 0.98437,2.33789 0.17579,0.87891 0.17579,3.07617 v 11.47852 h -3.16407 v -11.35547 q 0,-1.93359 -0.36914,-2.88281 -0.36914,-0.9668 -1.31836,-1.5293 -0.93164,-0.58008 -2.19726,-0.58008 -2.02149,0 -3.49805,1.28321 -1.45898,1.2832 -1.45898,4.86914 v 10.19531 z m 20.02149,0 v -18.66797 h 2.84765 v 2.6543 q 2.05665,-3.07617 5.94141,-3.07617 1.6875,0 3.09375,0.61523 1.42383,0.59766 2.12695,1.58203 0.70313,0.98438 0.98438,2.33789 0.17578,0.87891 0.17578,3.07617 v 11.47852 h -3.16406 v -11.35547 q 0,-1.93359 -0.36914,-2.88281 -0.36914,-0.9668 -1.31836,-1.5293 -0.93164,-0.58008 -2.19727,-0.58008 -2.02148,0 -3.49804,1.28321 -1.45899,1.2832 -1.45899,4.86914 v 10.19531 z m 20.03906,-22.13086 v -3.63867 h 3.16406 v 3.63867 z m 0,22.13086 v -18.66797 h 3.16406 v 18.66797 z m 7.98047,0 v -18.66797 h 2.84766 v 2.6543 q 2.05664,-3.07617 5.9414,-3.07617 1.6875,0 3.09375,0.61523 1.42383,0.59766 2.12696,1.58203 0.70312,0.98438 0.98437,2.33789 0.17578,0.87891 0.17578,3.07617 v 11.47852 h -3.16406 v -11.35547 q 0,-1.93359 -0.36914,-2.88281 -0.36914,-0.9668 -1.31836,-1.5293 -0.93164,-0.58008 -2.19727,-0.58008 -2.02148,0 -3.49804,1.28321 -1.45899,1.2832 -1.45899,4.86914 v 10.19531 z m 19.44141,1.54687 3.07617,0.45704 q 0.19336,1.42382 1.07226,2.07421 1.17774,0.87891 3.2168,0.87891 2.19727,0 3.39258,-0.87891 1.19531,-0.8789 1.61719,-2.46093 0.24609,-0.9668 0.22851,-4.06055 -2.07422,2.44336 -5.16797,2.44336 -3.84961,0 -5.95898,-2.77734 -2.10938,-2.77735 -2.10938,-6.66211 0,-2.67188 0.9668,-4.92188 0.9668,-2.26758 2.79492,-3.49805 1.84571,-1.23046 4.32422,-1.23046 3.30469,0 5.44922,2.67187 v -2.25 h 2.91797 v 16.13672 q 0,4.35937 -0.89649,6.16992 -0.8789,1.82813 -2.8125,2.88281 -1.91601,1.05469 -4.72851,1.05469 -3.33985,0 -5.39649,-1.51172 -2.05664,-1.49414 -1.98632,-4.51758 z m 2.61914,-11.21484 q 0,3.67383 1.45898,5.36133 1.45899,1.6875 3.65625,1.6875 2.17969,0 3.65625,-1.66992 1.47656,-1.6875 1.47656,-5.27344 0,-3.42774 -1.52929,-5.16797 -1.51172,-1.74023 -3.65625,-1.74023 -2.10938,0 -3.58594,1.72265 -1.47656,1.70508 -1.47656,5.08008 z m 27.98437,16.82227 v -25.82227 h 2.88281 v 2.42578 q 1.01954,-1.42383 2.30274,-2.12695 1.2832,-0.7207 3.11133,-0.7207 2.39062,0 4.21875,1.23046 1.82812,1.23047 2.75976,3.48047 0.93164,2.23242 0.93164,4.9043 0,2.86523 -1.03711,5.16797 -1.01953,2.28515 -2.98828,3.51562 -1.95117,1.21289 -4.11328,1.21289 -1.58203,0 -2.84766,-0.66796 -1.24804,-0.66797 -2.05664,-1.6875 v 9.08789 z m 2.86524,-16.38282 q 0,3.60352 1.45898,5.32618 1.45898,1.72265 3.5332,1.72265 2.10938,0 3.60352,-1.77539 1.51172,-1.79297 1.51172,-5.53711 0,-3.56836 -1.47656,-5.34375 -1.45899,-1.77539 -3.49805,-1.77539 -2.02149,0 -3.58594,1.89844 -1.54687,1.88086 -1.54687,5.48437 z m 17.12109,9.22852 v -18.66797 h 2.84766 v 2.83008 q 1.08984,-1.98633 2.0039,-2.61914 0.93164,-0.63281 2.03906,-0.63281 1.59961,0 3.25196,1.01953 l -1.08985,2.93554 q -1.16015,-0.68554 -2.32031,-0.68554 -1.03711,0 -1.86328,0.63281 -0.82617,0.61523 -1.17773,1.72266 -0.52735,1.6875 -0.52735,3.6914 v 9.77344 z m 10.8457,-9.33399 q 0,-5.18554 2.88282,-7.68164 2.4082,-2.07421 5.87109,-2.07421 3.84961,0 6.29297,2.53125 2.44336,2.51367 2.44336,6.96093 0,3.60352 -1.08985,5.67774 -1.07226,2.05664 -3.14648,3.19922 -2.05664,1.14257 -4.5,1.14257 -3.91992,0 -6.3457,-2.51367 -2.40821,-2.51367 -2.40821,-7.24219 z m 3.25196,0 q 0,3.58594 1.56445,5.37891 1.56445,1.77539 3.9375,1.77539 2.35547,0 3.91992,-1.79297 1.56445,-1.79297 1.56445,-5.46679 0,-3.46289 -1.58203,-5.23829 -1.56445,-1.79296 -3.90234,-1.79296 -2.37305,0 -3.9375,1.77539 -1.56445,1.77539 -1.56445,5.36132 z m 20.86523,9.33399 h -2.93555 v -25.76953 h 3.16407 v 9.19336 q 2.0039,-2.51367 5.11523,-2.51367 1.72266,0 3.25195,0.70312 1.54688,0.68555 2.53125,1.95117 1.00196,1.24805 1.56446,3.02344 0.5625,1.77539 0.5625,3.79687 0,4.79883 -2.37305,7.41797 -2.37305,2.61914 -5.69531,2.61914 -3.30469,0 -5.18555,-2.75976 z m -0.0352,-9.47461 q 0,3.35742 0.91407,4.85156 1.49414,2.44336 4.04297,2.44336 2.07421,0 3.58593,-1.79297 1.51172,-1.81054 1.51172,-5.3789 0,-3.65625 -1.45898,-5.39649 -1.44141,-1.74023 -3.49805,-1.74023 -2.07422,0 -3.58594,1.81054 -1.51172,1.79297 -1.51172,5.20313 z m 17.06836,9.47461 v -25.76953 h 3.16407 v 25.76953 z m 20.84766,-6.01172 3.26953,0.4043 q -0.77344,2.86523 -2.86523,4.44726 -2.0918,1.58203 -5.34375,1.58203 -4.09571,0 -6.50391,-2.51367 -2.39062,-2.53125 -2.39062,-7.08398 0,-4.71094 2.42578,-7.3125 2.42578,-2.60156 6.29297,-2.60156 3.74414,0 6.11718,2.54882 2.37305,2.54883 2.37305,7.17188 0,0.28125 -0.0176,0.84375 h -13.92187 q 0.17578,3.07617 1.74023,4.71094 1.56445,1.63476 3.90234,1.63476 1.74024,0 2.97071,-0.91406 1.23047,-0.91406 1.95117,-2.91797 z m -10.38867,-5.11523 h 10.42383 q -0.21094,-2.35547 -1.19532,-3.53321 -1.51172,-1.82812 -3.91992,-1.82812 -2.17969,0 -3.67383,1.45898 -1.47656,1.45899 -1.63476,3.90235 z m 17.63086,11.12695 v -18.66797 h 2.83008 v 2.61914 q 0.8789,-1.37109 2.33789,-2.19726 1.45898,-0.84375 3.32226,-0.84375 2.07422,0 3.39258,0.86132 1.33594,0.86133 1.88086,2.40821 2.21484,-3.26953 5.76562,-3.26953 2.77735,0 4.27149,1.54687 1.49414,1.5293 1.49414,4.72852 v 12.81445 h -3.14649 v -11.75977 q 0,-1.89843 -0.3164,-2.72461 -0.29883,-0.84375 -1.10742,-1.35351 -0.8086,-0.50977 -1.89844,-0.50977 -1.96875,0 -3.26953,1.31836 -1.30078,1.30078 -1.30078,4.1836 v 10.8457 h -3.16407 v -12.12891 q 0,-2.10937 -0.77343,-3.16406 -0.77344,-1.05469 -2.53125,-1.05469 -1.33594,0 -2.47852,0.70313 -1.125,0.70312 -1.63476,2.05664 -0.50977,1.35351 -0.50977,3.90234 v 9.68555 z m 35.91211,-6.3457 q -0.0176,-0.63282 -0.0176,-0.94922 0,-1.86328 0.52734,-3.2168 0.38672,-1.01953 1.24805,-2.05664 0.63281,-0.75586 2.26758,-2.19727 1.65234,-1.45898 2.14453,-2.32031 0.49219,-0.86133 0.49219,-1.88086 0,-1.8457 -1.44141,-3.23437 -1.44141,-1.40625 -3.5332,-1.40625 -2.02149,0 -3.375,1.26562 -1.35352,1.26563 -1.77539,3.95508 l -3.25196,-0.38672 q 0.43946,-3.60351 2.60157,-5.51953 2.17968,-1.91602 5.74804,-1.91602 3.7793,0 6.0293,2.05665 2.25,2.05664 2.25,4.9746 0,1.6875 -0.79102,3.11133 -0.79101,1.42383 -3.09375,3.46289 -1.54687,1.3711 -2.02148,2.02149 -0.47461,0.65039 -0.70313,1.49414 -0.22851,0.84375 -0.26367,2.74219 z m -0.19336,6.3457 v -3.60352 h 3.60351 v 3.60352 z"
       id="flowRoot4302"
       transform="translate(-20,262.36198)"
       aria-label="What is a planning problem?" />
    <path
       style="font-size:16px;line-height:1.25;font-family:'Liberation Sans';-inkscape-font-specification:'Liberation Sans, Normal';text-align:center;text-anchor:middle"
       d="m 225.13672,148.83395 q 0,-2.85157 1.53125,-4.46094 1.53125,-1.61719 3.95312,-1.61719 1.58594,0 2.85938,0.75781 1.27344,0.75782 1.9375,2.11719 0.67187,1.35156 0.67187,3.07031 0,1.74219 -0.70312,3.11719 -0.70313,1.375 -1.99219,2.08594 -1.28906,0.70312 -2.78125,0.70312 -1.61719,0 -2.89062,-0.78125 -1.27344,-0.78125 -1.92969,-2.13281 -0.65625,-1.35156 -0.65625,-2.85937 z m 1.5625,0.0234 q 0,2.07032 1.10937,3.26563 1.11719,1.1875 2.79688,1.1875 1.71094,0 2.8125,-1.20313 1.10937,-1.20312 1.10937,-3.41406 0,-1.39844 -0.47656,-2.4375 -0.46875,-1.04687 -1.38281,-1.61719 -0.90625,-0.57812 -2.03906,-0.57812 -1.60938,0 -2.77344,1.10937 -1.15625,1.10157 -1.15625,3.6875 z m 11.16406,8.73438 V 146.1152 h 1.28125 v 1.07812 q 0.45313,-0.63281 1.02344,-0.94531 0.57031,-0.32031 1.38281,-0.32031 1.0625,0 1.875,0.54687 0.8125,0.54688 1.22656,1.54688 0.41407,0.99218 0.41407,2.17968 0,1.27344 -0.46094,2.29688 -0.45313,1.01562 -1.32813,1.5625 -0.86718,0.53906 -1.82812,0.53906 -0.70313,0 -1.26563,-0.29687 -0.55468,-0.29688 -0.91406,-0.75 v 4.03906 z m 1.27344,-7.28125 q 0,1.60156 0.64844,2.36719 0.64843,0.76562 1.57031,0.76562 0.9375,0 1.60156,-0.78906 0.67188,-0.79688 0.67188,-2.46094 0,-1.58594 -0.65625,-2.375 -0.64844,-0.78906 -1.55469,-0.78906 -0.89844,0 -1.59375,0.84375 -0.6875,0.83594 -0.6875,2.4375 z m 10.69531,2.84375 0.20313,1.24219 q -0.59375,0.125 -1.0625,0.125 -0.76563,0 -1.1875,-0.24219 -0.42188,-0.24219 -0.59375,-0.63281 -0.17188,-0.39844 -0.17188,-1.66407 v -4.77343 h -1.03125 v -1.09375 h 1.03125 v -2.05469 l 1.39844,-0.84375 v 2.89844 h 1.41406 v 1.09375 h -1.41406 v 4.85156 q 0,0.60156 0.0703,0.77344 0.0781,0.17187 0.24219,0.27343 0.17187,0.10157 0.48437,0.10157 0.23438,0 0.61719,-0.0547 z m 1.38281,-8.57813 v -1.61718 h 1.40625 v 1.61718 z m 0,9.83594 v -8.29687 h 1.40625 v 8.29687 z m 3.54688,0 v -8.29687 h 1.25781 v 1.16406 q 0.39063,-0.60938 1.03906,-0.97656 0.64844,-0.375 1.47657,-0.375 0.92187,0 1.50781,0.38281 0.59375,0.38281 0.83594,1.07031 0.98437,-1.45312 2.5625,-1.45312 1.23437,0 1.89843,0.6875 0.66407,0.67968 0.66407,2.10156 v 5.69531 h -1.39844 v -5.22656 q 0,-0.84375 -0.14063,-1.21094 -0.13281,-0.375 -0.49218,-0.60156 -0.35938,-0.22656 -0.84375,-0.22656 -0.875,0 -1.45313,0.58593 -0.57812,0.57813 -0.57812,1.85938 v 4.82031 h -1.40625 v -5.39062 q 0,-0.9375 -0.34375,-1.40625 -0.34375,-0.46875 -1.125,-0.46875 -0.59375,0 -1.10157,0.3125 -0.5,0.3125 -0.72656,0.91406 -0.22656,0.60156 -0.22656,1.73437 v 4.30469 z m 13.33594,-9.83594 v -1.61718 h 1.40625 v 1.61718 z m 0,9.83594 v -8.29687 h 1.40625 v 8.29687 z m 2.80468,0 v -1.14062 l 5.28125,-6.0625 q -0.89843,0.0469 -1.58593,0.0469 h -3.38282 v -1.14062 h 6.78125 v 0.92968 l -4.49218,5.26563 -0.86719,0.96094 q 0.94531,-0.0703 1.77344,-0.0703 h 3.83593 v 1.21094 z m 14.42188,-2.67187 1.45312,0.17968 q -0.34375,1.27344 -1.27343,1.97657 -0.92969,0.70312 -2.375,0.70312 -1.82032,0 -2.89063,-1.11719 -1.0625,-1.125 -1.0625,-3.14843 0,-2.09375 1.07813,-3.25 1.07812,-1.15625 2.79687,-1.15625 1.66406,0 2.71875,1.13281 1.05469,1.13281 1.05469,3.1875 0,0.125 -0.008,0.375 h -6.1875 q 0.0781,1.36719 0.77343,2.09375 0.69532,0.72656 1.73438,0.72656 0.77344,0 1.32031,-0.40625 0.54688,-0.40625 0.86719,-1.29687 z m -4.61719,-2.27344 h 4.63281 q -0.0937,-1.04688 -0.53125,-1.57031 -0.67187,-0.8125 -1.74218,-0.8125 -0.96875,0 -1.63282,0.64843 -0.65625,0.64844 -0.72656,1.73438 z m 12.02344,5.63281 1.36719,0.20313 q 0.0859,0.63281 0.47656,0.92187 0.52344,0.39063 1.42969,0.39063 0.97656,0 1.50781,-0.39063 0.53125,-0.39062 0.71875,-1.09375 0.10937,-0.42969 0.10156,-1.80469 -0.92187,1.08594 -2.29687,1.08594 -1.71094,0 -2.64844,-1.23437 -0.9375,-1.23438 -0.9375,-2.96094 0,-1.1875 0.42969,-2.1875 0.42968,-1.00781 1.24218,-1.55469 0.82032,-0.54687 1.92188,-0.54687 1.46875,0 2.42187,1.1875 v -1 h 1.29688 v 7.17187 q 0,1.9375 -0.39844,2.74219 -0.39062,0.8125 -1.25,1.28125 -0.85156,0.46875 -2.10156,0.46875 -1.48438,0 -2.39844,-0.67188 -0.91406,-0.66406 -0.88281,-2.00781 z m 1.16406,-4.98437 q 0,1.63281 0.64844,2.38281 0.64844,0.75 1.625,0.75 0.96875,0 1.625,-0.74219 0.65625,-0.75 0.65625,-2.34375 0,-1.52344 -0.67969,-2.29687 -0.67187,-0.77344 -1.625,-0.77344 -0.9375,0 -1.59375,0.76562 -0.65625,0.75782 -0.65625,2.25782 z m 7.46875,0.14843 q 0,-2.30468 1.28125,-3.41406 1.07031,-0.92187 2.60938,-0.92187 1.71093,0 2.79687,1.125 1.08594,1.11718 1.08594,3.09375 0,1.60156 -0.48438,2.52343 -0.47656,0.91407 -1.39843,1.42188 -0.91407,0.50781 -2,0.50781 -1.74219,0 -2.82032,-1.11719 -1.07031,-1.11718 -1.07031,-3.21875 z m 1.44531,0 q 0,1.59375 0.69532,2.39063 0.69531,0.78906 1.75,0.78906 1.04687,0 1.74218,-0.79687 0.69532,-0.79688 0.69532,-2.42969 0,-1.53906 -0.70313,-2.32813 -0.69531,-0.79687 -1.73437,-0.79687 -1.05469,0 -1.75,0.78906 -0.69532,0.78906 -0.69532,2.38281 z m 13.39063,3.125 q -0.78125,0.66407 -1.50781,0.9375 -0.71875,0.27344 -1.54688,0.27344 -1.36719,0 -2.10156,-0.66406 -0.73438,-0.67188 -0.73438,-1.71094 0,-0.60937 0.27344,-1.10937 0.28125,-0.50782 0.72656,-0.8125 0.45313,-0.30469 1.01563,-0.46094 0.41406,-0.10938 1.25,-0.21094 1.70312,-0.20312 2.50781,-0.48437 0.008,-0.28907 0.008,-0.36719 0,-0.85938 -0.39843,-1.21094 -0.53907,-0.47656 -1.60157,-0.47656 -0.99218,0 -1.46875,0.35156 -0.46875,0.34375 -0.69531,1.22656 l -1.375,-0.1875 q 0.1875,-0.88281 0.61719,-1.42187 0.42969,-0.54688 1.24219,-0.83594 0.8125,-0.29687 1.88281,-0.29687 1.0625,0 1.72656,0.25 0.66406,0.25 0.97656,0.63281 0.3125,0.375 0.4375,0.95312 0.0703,0.35938 0.0703,1.29688 v 1.875 q 0,1.96094 0.0859,2.48437 0.0937,0.51563 0.35938,0.99219 h -1.46875 q -0.21875,-0.4375 -0.28125,-1.02344 z m -0.11719,-3.14062 q -0.76562,0.3125 -2.29687,0.53125 -0.86719,0.125 -1.22657,0.28125 -0.35937,0.15625 -0.55468,0.46094 -0.19532,0.29687 -0.19532,0.66406 0,0.5625 0.42188,0.9375 0.42969,0.375 1.25,0.375 0.8125,0 1.44531,-0.35156 0.63281,-0.35938 0.92969,-0.97657 0.22656,-0.47656 0.22656,-1.40625 z m 3.57031,4.16406 v -11.45312 h 1.40625 v 11.45312 z m 3.02344,-2.47656 1.39063,-0.21875 q 0.11718,0.83594 0.64843,1.28125 0.53907,0.44531 1.5,0.44531 0.96875,0 1.4375,-0.39062 0.46875,-0.39844 0.46875,-0.92969 0,-0.47656 -0.41406,-0.75 -0.28906,-0.1875 -1.4375,-0.47656 -1.54687,-0.39063 -2.14844,-0.67188 -0.59375,-0.28906 -0.90625,-0.78906 -0.30468,-0.50781 -0.30468,-1.11719 0,-0.55469 0.25,-1.02344 0.25781,-0.47656 0.69531,-0.78906 0.32812,-0.24219 0.89062,-0.40625 0.57032,-0.17187 1.21875,-0.17187 0.97657,0 1.71094,0.28125 0.74219,0.28125 1.09375,0.76562 0.35156,0.47656 0.48438,1.28125 l -1.375,0.1875 q -0.0937,-0.64062 -0.54688,-1 -0.44531,-0.35937 -1.26562,-0.35937 -0.96875,0 -1.38282,0.32031 -0.41406,0.32031 -0.41406,0.75 0,0.27344 0.17188,0.49219 0.17187,0.22656 0.53906,0.375 0.21094,0.0781 1.24219,0.35937 1.49218,0.39844 2.07812,0.65625 0.59375,0.25 0.92969,0.73438 0.33594,0.48437 0.33594,1.20312 0,0.70313 -0.41407,1.32813 -0.40625,0.61718 -1.17968,0.96093 -0.77344,0.33594 -1.75,0.33594 -1.61719,0 -2.46875,-0.67187 -0.84375,-0.67188 -1.07813,-1.99219 z m 14.53906,2.47656 -2.53906,-8.29687 h 1.45313 l 1.32031,4.78906 0.49219,1.78125 q 0.0312,-0.13281 0.42968,-1.71094 l 1.32032,-4.85937 h 1.44531 l 1.24219,4.8125 0.41406,1.58593 0.47656,-1.60156 1.42188,-4.79687 h 1.36718 l -2.59375,8.29687 h -1.46093 l -1.32032,-4.96875 -0.32031,-1.41406 -1.67969,6.38281 z m 10.03125,-9.83594 v -1.61718 h 1.40625 v 1.61718 z m 0,9.83594 v -8.29687 h 1.40625 v 8.29687 z m 6.61719,-1.25781 0.20313,1.24219 q -0.59375,0.125 -1.0625,0.125 -0.76563,0 -1.1875,-0.24219 -0.42188,-0.24219 -0.59375,-0.63281 -0.17188,-0.39844 -0.17188,-1.66407 v -4.77343 h -1.03125 v -1.09375 h 1.03125 v -2.05469 l 1.39844,-0.84375 v 2.89844 h 1.41406 v 1.09375 h -1.41406 v 4.85156 q 0,0.60156 0.0703,0.77344 0.0781,0.17187 0.24219,0.27343 0.17187,0.10157 0.48437,0.10157 0.23438,0 0.61719,-0.0547 z m 1.375,1.25781 v -11.45312 h 1.40625 v 4.10937 q 0.98438,-1.14062 2.48438,-1.14062 0.92187,0 1.60156,0.36718 0.67969,0.35938 0.96875,1 0.29687,0.64063 0.29687,1.85938 v 5.25781 h -1.40625 v -5.25781 q 0,-1.05469 -0.46093,-1.53125 -0.45313,-0.48438 -1.28907,-0.48438 -0.625,0 -1.17968,0.32813 -0.54688,0.32031 -0.78125,0.875 -0.23438,0.55469 -0.23438,1.53125 v 4.53906 z m 13.3125,0 v -11.45312 h 1.40625 v 11.45312 z m 3.59375,-9.83594 v -1.61718 h 1.40625 v 1.61718 z m 0,9.83594 v -8.29687 h 1.40625 v 8.29687 z m 3.54688,0 v -8.29687 h 1.25781 v 1.16406 q 0.39062,-0.60938 1.03906,-0.97656 0.64844,-0.375 1.47656,-0.375 0.92188,0 1.50782,0.38281 0.59375,0.38281 0.83593,1.07031 0.98438,-1.45312 2.5625,-1.45312 1.23438,0 1.89844,0.6875 0.66406,0.67968 0.66406,2.10156 v 5.69531 h -1.39843 v -5.22656 q 0,-0.84375 -0.14063,-1.21094 -0.13281,-0.375 -0.49219,-0.60156 -0.35937,-0.22656 -0.84375,-0.22656 -0.875,0 -1.45312,0.58593 -0.57813,0.57813 -0.57813,1.85938 v 4.82031 h -1.40625 v -5.39062 q 0,-0.9375 -0.34375,-1.40625 -0.34375,-0.46875 -1.125,-0.46875 -0.59375,0 -1.10156,0.3125 -0.5,0.3125 -0.72656,0.91406 -0.22656,0.60156 -0.22656,1.73437 v 4.30469 z m 13.33593,-9.83594 v -1.61718 h 1.40625 v 1.61718 z m 0,9.83594 v -8.29687 h 1.40625 v 8.29687 z m 6.61719,-1.25781 0.20313,1.24219 q -0.59375,0.125 -1.0625,0.125 -0.76563,0 -1.1875,-0.24219 -0.42188,-0.24219 -0.59375,-0.63281 -0.17188,-0.39844 -0.17188,-1.66407 v -4.77343 h -1.03125 v -1.09375 h 1.03125 v -2.05469 l 1.39844,-0.84375 v 2.89844 h 1.41406 v 1.09375 h -1.41406 v 4.85156 q 0,0.60156 0.0703,0.77344 0.0781,0.17187 0.24219,0.27343 0.17187,0.10157 0.48437,0.10157 0.23438,0 0.61719,-0.0547 z m 7.05469,-1.41406 1.45312,0.17968 q -0.34375,1.27344 -1.27343,1.97657 -0.92969,0.70312 -2.375,0.70312 -1.82032,0 -2.89063,-1.11719 -1.0625,-1.125 -1.0625,-3.14843 0,-2.09375 1.07813,-3.25 1.07812,-1.15625 2.79687,-1.15625 1.66406,0 2.71875,1.13281 1.05469,1.13281 1.05469,3.1875 0,0.125 -0.008,0.375 h -6.1875 q 0.0781,1.36719 0.77343,2.09375 0.69532,0.72656 1.73438,0.72656 0.77344,0 1.32031,-0.40625 0.54688,-0.40625 0.86719,-1.29687 z m -4.61719,-2.27344 h 4.63281 q -0.0937,-1.04688 -0.53125,-1.57031 -0.67187,-0.8125 -1.74218,-0.8125 -0.96875,0 -1.63282,0.64843 -0.65625,0.64844 -0.72656,1.73438 z m 13.21875,4.94531 v -1.04687 q -0.78906,1.23437 -2.32031,1.23437 -0.99219,0 -1.82813,-0.54687 -0.82812,-0.54688 -1.28906,-1.52344 -0.45312,-0.98438 -0.45312,-2.25781 0,-1.24219 0.41406,-2.25 0.41406,-1.01563 1.24219,-1.55469 0.82812,-0.53906 1.85156,-0.53906 0.75,0 1.33594,0.32031 0.58593,0.3125 0.95312,0.82031 v -4.10937 h 1.39844 v 11.45312 z m -4.44531,-4.14062 q 0,1.59375 0.67187,2.38281 0.67188,0.78906 1.58594,0.78906 0.92188,0 1.5625,-0.75 0.64844,-0.75781 0.64844,-2.30469 0,-1.70312 -0.65625,-2.5 -0.65625,-0.79687 -1.61719,-0.79687 -0.9375,0 -1.57031,0.76562 -0.625,0.76563 -0.625,2.41407 z m 12.39062,4.14062 v -8.29687 h 1.26563 v 1.25781 q 0.48437,-0.88281 0.89062,-1.16406 0.41407,-0.28125 0.90625,-0.28125 0.71094,0 1.44532,0.45312 l -0.48438,1.30469 q -0.51562,-0.30469 -1.03125,-0.30469 -0.46094,0 -0.82812,0.28125 -0.36719,0.27344 -0.52344,0.76563 -0.23438,0.75 -0.23438,1.64062 v 4.34375 z m 11.02344,-2.67187 1.45313,0.17968 q -0.34375,1.27344 -1.27344,1.97657 -0.92969,0.70312 -2.375,0.70312 -1.82031,0 -2.89063,-1.11719 -1.0625,-1.125 -1.0625,-3.14843 0,-2.09375 1.07813,-3.25 1.07812,-1.15625 2.79687,-1.15625 1.66407,0 2.71875,1.13281 1.05469,1.13281 1.05469,3.1875 0,0.125 -0.008,0.375 h -6.1875 q 0.0781,1.36719 0.77344,2.09375 0.69531,0.72656 1.73437,0.72656 0.77344,0 1.32031,-0.40625 0.54688,-0.40625 0.86719,-1.29687 z m -4.61719,-2.27344 h 4.63282 q -0.0937,-1.04688 -0.53125,-1.57031 -0.67188,-0.8125 -1.74219,-0.8125 -0.96875,0 -1.63281,0.64843 -0.65625,0.64844 -0.72657,1.73438 z m 7.27344,2.46875 1.39063,-0.21875 q 0.11718,0.83594 0.64843,1.28125 0.53907,0.44531 1.5,0.44531 0.96875,0 1.4375,-0.39062 0.46875,-0.39844 0.46875,-0.92969 0,-0.47656 -0.41406,-0.75 -0.28906,-0.1875 -1.4375,-0.47656 -1.54687,-0.39063 -2.14844,-0.67188 -0.59375,-0.28906 -0.90625,-0.78906 -0.30468,-0.50781 -0.30468,-1.11719 0,-0.55469 0.25,-1.02344 0.25781,-0.47656 0.69531,-0.78906 0.32812,-0.24219 0.89062,-0.40625 0.57032,-0.17187 1.21875,-0.17187 0.97657,0 1.71094,0.28125 0.74219,0.28125 1.09375,0.76562 0.35156,0.47656 0.48438,1.28125 l -1.375,0.1875 q -0.0937,-0.64062 -0.54688,-1 -0.44531,-0.35937 -1.26562,-0.35937 -0.96875,0 -1.38282,0.32031 -0.41406,0.32031 -0.41406,0.75 0,0.27344 0.17188,0.49219 0.17187,0.22656 0.53906,0.375 0.21094,0.0781 1.24219,0.35937 1.49218,0.39844 2.07812,0.65625 0.59375,0.25 0.92969,0.73438 0.33594,0.48437 0.33594,1.20312 0,0.70313 -0.41407,1.32813 -0.40625,0.61718 -1.17968,0.96093 -0.77344,0.33594 -1.75,0.33594 -1.61719,0 -2.46875,-0.67187 -0.84375,-0.67188 -1.07813,-1.99219 z m 8.03906,-1.67188 q 0,-2.30468 1.28125,-3.41406 1.07032,-0.92187 2.60938,-0.92187 1.71094,0 2.79687,1.125 1.08594,1.11718 1.08594,3.09375 0,1.60156 -0.48437,2.52343 -0.47657,0.91407 -1.39844,1.42188 -0.91406,0.50781 -2,0.50781 -1.74219,0 -2.82031,-1.11719 -1.07032,-1.11718 -1.07032,-3.21875 z m 1.44532,0 q 0,1.59375 0.69531,2.39063 0.69531,0.78906 1.75,0.78906 1.04687,0 1.74219,-0.79687 0.69531,-0.79688 0.69531,-2.42969 0,-1.53906 -0.70313,-2.32813 -0.69531,-0.79687 -1.73437,-0.79687 -1.05469,0 -1.75,0.78906 -0.69531,0.78906 -0.69531,2.38281 z m 13.41406,4.14844 v -1.21875 q -0.96875,1.40625 -2.63281,1.40625 -0.73438,0 -1.375,-0.28125 -0.63282,-0.28125 -0.94532,-0.70312 -0.30468,-0.42969 -0.42968,-1.04688 -0.0859,-0.41406 -0.0859,-1.3125 v -5.14062 h 1.40625 v 4.60156 q 0,1.10156 0.0859,1.48437 0.13281,0.55469 0.5625,0.875 0.42968,0.3125 1.0625,0.3125 0.63281,0 1.1875,-0.32031 0.55468,-0.32812 0.78125,-0.88281 0.23437,-0.5625 0.23437,-1.625 v -4.44531 h 1.40625 v 8.29687 z m 3.44531,0 v -8.29687 h 1.26563 v 1.25781 q 0.48437,-0.88281 0.89062,-1.16406 0.41406,-0.28125 0.90625,-0.28125 0.71094,0 1.44531,0.45312 l -0.48437,1.30469 q -0.51563,-0.30469 -1.03125,-0.30469 -0.46094,0 -0.82813,0.28125 -0.36718,0.27344 -0.52343,0.76563 -0.23438,0.75 -0.23438,1.64062 v 4.34375 z m 10.75781,-3.03906 1.38282,0.17969 q -0.22657,1.42968 -1.16407,2.24218 -0.92968,0.80469 -2.28906,0.80469 -1.70312,0 -2.74219,-1.10937 -1.03125,-1.11719 -1.03125,-3.19532 0,-1.34375 0.44532,-2.35156 0.44531,-1.00781 1.35156,-1.50781 0.91406,-0.50781 1.98437,-0.50781 1.35157,0 2.21094,0.6875 0.85938,0.67968 1.10156,1.9375 l -1.36718,0.21093 q -0.19532,-0.83593 -0.69532,-1.25781 -0.49218,-0.42187 -1.19531,-0.42187 -1.0625,0 -1.72656,0.76562 -0.66406,0.75781 -0.66406,2.40625 0,1.67188 0.64062,2.42969 0.64063,0.75781 1.67188,0.75781 0.82812,0 1.38281,-0.50781 0.55469,-0.50781 0.70312,-1.5625 z m 8.26563,0.36719 1.45312,0.17968 q -0.34375,1.27344 -1.27343,1.97657 -0.92969,0.70312 -2.375,0.70312 -1.82032,0 -2.89063,-1.11719 -1.0625,-1.125 -1.0625,-3.14843 0,-2.09375 1.07813,-3.25 1.07812,-1.15625 2.79687,-1.15625 1.66406,0 2.71875,1.13281 1.05469,1.13281 1.05469,3.1875 0,0.125 -0.008,0.375 h -6.1875 q 0.0781,1.36719 0.77343,2.09375 0.69532,0.72656 1.73438,0.72656 0.77344,0 1.32031,-0.40625 0.54688,-0.40625 0.86719,-1.29687 z m -4.61719,-2.27344 h 4.63281 q -0.0937,-1.04688 -0.53125,-1.57031 -0.67187,-0.8125 -1.74218,-0.8125 -0.96875,0 -1.63282,0.64843 -0.65625,0.64844 -0.72656,1.73438 z m 7.27344,2.46875 1.39062,-0.21875 q 0.11719,0.83594 0.64844,1.28125 0.53906,0.44531 1.5,0.44531 0.96875,0 1.4375,-0.39062 0.46875,-0.39844 0.46875,-0.92969 0,-0.47656 -0.41406,-0.75 -0.28906,-0.1875 -1.4375,-0.47656 -1.54688,-0.39063 -2.14844,-0.67188 -0.59375,-0.28906 -0.90625,-0.78906 -0.30469,-0.50781 -0.30469,-1.11719 0,-0.55469 0.25,-1.02344 0.25782,-0.47656 0.69532,-0.78906 0.32812,-0.24219 0.89062,-0.40625 0.57031,-0.17187 1.21875,-0.17187 0.97656,0 1.71094,0.28125 0.74219,0.28125 1.09375,0.76562 0.35156,0.47656 0.48437,1.28125 l -1.375,0.1875 q -0.0937,-0.64062 -0.54687,-1 -0.44531,-0.35937 -1.26563,-0.35937 -0.96875,0 -1.38281,0.32031 -0.41406,0.32031 -0.41406,0.75 0,0.27344 0.17187,0.49219 0.17188,0.22656 0.53907,0.375 0.21093,0.0781 1.24218,0.35937 1.49219,0.39844 2.07813,0.65625 0.59375,0.25 0.92969,0.73438 0.33593,0.48437 0.33593,1.20312 0,0.70313 -0.41406,1.32813 -0.40625,0.61718 -1.17969,0.96093 -0.77343,0.33594 -1.75,0.33594 -1.61718,0 -2.46875,-0.67187 -0.84375,-0.67188 -1.07812,-1.99219 z m 18.44531,2.47656 v -1.21875 q -0.96875,1.40625 -2.63281,1.40625 -0.73438,0 -1.375,-0.28125 -0.63281,-0.28125 -0.94531,-0.70312 -0.30469,-0.42969 -0.42969,-1.04688 -0.0859,-0.41406 -0.0859,-1.3125 v -5.14062 h 1.40625 v 4.60156 q 0,1.10156 0.0859,1.48437 0.13281,0.55469 0.5625,0.875 0.42969,0.3125 1.0625,0.3125 0.63281,0 1.1875,-0.32031 0.55469,-0.32812 0.78125,-0.88281 0.23437,-0.5625 0.23437,-1.625 v -4.44531 h 1.40625 v 8.29687 z m 3.46094,0 v -8.29687 h 1.26562 v 1.17968 q 0.91407,-1.36718 2.64063,-1.36718 0.75,0 1.375,0.27343 0.63281,0.26563 0.94531,0.70313 0.3125,0.4375 0.4375,1.03906 0.0781,0.39063 0.0781,1.36719 v 5.10156 h -1.40625 v -5.04687 q 0,-0.85938 -0.16407,-1.28125 -0.16406,-0.42969 -0.58593,-0.67969 -0.41407,-0.25781 -0.97657,-0.25781 -0.89843,0 -1.55468,0.57031 -0.64844,0.57031 -0.64844,2.16406 v 4.53125 z m 14.28125,0 v -1.04687 q -0.78906,1.23437 -2.32031,1.23437 -0.99219,0 -1.82813,-0.54687 -0.82812,-0.54688 -1.28906,-1.52344 -0.45313,-0.98438 -0.45313,-2.25781 0,-1.24219 0.41407,-2.25 0.41406,-1.01563 1.24218,-1.55469 0.82813,-0.53906 1.85157,-0.53906 0.75,0 1.33593,0.32031 0.58594,0.3125 0.95313,0.82031 v -4.10937 h 1.39844 v 11.45312 z m -4.44531,-4.14062 q 0,1.59375 0.67187,2.38281 0.67188,0.78906 1.58594,0.78906 0.92187,0 1.5625,-0.75 0.64844,-0.75781 0.64844,-2.30469 0,-1.70312 -0.65625,-2.5 -0.65625,-0.79687 -1.61719,-0.79687 -0.9375,0 -1.57031,0.76562 -0.625,0.76563 -0.625,2.41407 z m 13.64062,1.46875 1.45313,0.17968 q -0.34375,1.27344 -1.27344,1.97657 -0.92969,0.70312 -2.375,0.70312 -1.82031,0 -2.89063,-1.11719 -1.0625,-1.125 -1.0625,-3.14843 0,-2.09375 1.07813,-3.25 1.07812,-1.15625 2.79687,-1.15625 1.66407,0 2.71875,1.13281 1.05469,1.13281 1.05469,3.1875 0,0.125 -0.008,0.375 h -6.1875 q 0.0781,1.36719 0.77344,2.09375 0.69531,0.72656 1.73437,0.72656 0.77344,0 1.32031,-0.40625 0.54688,-0.40625 0.86719,-1.29687 z m -4.61719,-2.27344 h 4.63282 q -0.0937,-1.04688 -0.53125,-1.57031 -0.67188,-0.8125 -1.74219,-0.8125 -0.96875,0 -1.63281,0.64843 -0.65625,0.64844 -0.72657,1.73438 z m 7.82032,4.94531 v -8.29687 h 1.26562 v 1.25781 q 0.48438,-0.88281 0.89063,-1.16406 0.41406,-0.28125 0.90625,-0.28125 0.71093,0 1.44531,0.45312 l -0.48438,1.30469 q -0.51562,-0.30469 -1.03125,-0.30469 -0.46093,0 -0.82812,0.28125 -0.36719,0.27344 -0.52344,0.76563 -0.23437,0.75 -0.23437,1.64062 v 4.34375 z m 15.20312,-3.03906 1.38281,0.17969 q -0.22656,1.42968 -1.16406,2.24218 -0.92969,0.80469 -2.28906,0.80469 -1.70313,0 -2.74219,-1.10937 -1.03125,-1.11719 -1.03125,-3.19532 0,-1.34375 0.44531,-2.35156 0.44532,-1.00781 1.35157,-1.50781 0.91406,-0.50781 1.98437,-0.50781 1.35156,0 2.21094,0.6875 0.85937,0.67968 1.10156,1.9375 l -1.36719,0.21093 q -0.19531,-0.83593 -0.69531,-1.25781 -0.49219,-0.42187 -1.19531,-0.42187 -1.0625,0 -1.72656,0.76562 -0.66407,0.75781 -0.66407,2.40625 0,1.67188 0.64063,2.42969 0.64062,0.75781 1.67187,0.75781 0.82813,0 1.38282,-0.50781 0.55468,-0.50781 0.70312,-1.5625 z m 2.0625,-1.10938 q 0,-2.30468 1.28125,-3.41406 1.07031,-0.92187 2.60938,-0.92187 1.71093,0 2.79687,1.125 1.08594,1.11718 1.08594,3.09375 0,1.60156 -0.48438,2.52343 -0.47656,0.91407 -1.39843,1.42188 -0.91407,0.50781 -2,0.50781 -1.74219,0 -2.82032,-1.11719 -1.07031,-1.11718 -1.07031,-3.21875 z m 1.44531,0 q 0,1.59375 0.69532,2.39063 0.69531,0.78906 1.75,0.78906 1.04687,0 1.74218,-0.79687 0.69532,-0.79688 0.69532,-2.42969 0,-1.53906 -0.70313,-2.32813 -0.69531,-0.79687 -1.73437,-0.79687 -1.05469,0 -1.75,0.78906 -0.69532,0.78906 -0.69532,2.38281 z m 7.97657,4.14844 v -8.29687 h 1.26562 v 1.17968 q 0.91406,-1.36718 2.64063,-1.36718 0.75,0 1.375,0.27343 0.63281,0.26563 0.94531,0.70313 0.3125,0.4375 0.4375,1.03906 0.0781,0.39063 0.0781,1.36719 v 5.10156 h -1.40625 v -5.04687 q 0,-0.85938 -0.16406,-1.28125 -0.16406,-0.42969 -0.58594,-0.67969 -0.41406,-0.25781 -0.97656,-0.25781 -0.89844,0 -1.55469,0.57031 -0.64843,0.57031 -0.64843,2.16406 v 4.53125 z m 8.33593,-2.47656 1.39063,-0.21875 q 0.11719,0.83594 0.64844,1.28125 0.53906,0.44531 1.5,0.44531 0.96875,0 1.4375,-0.39062 0.46875,-0.39844 0.46875,-0.92969 0,-0.47656 -0.41407,-0.75 -0.28906,-0.1875 -1.4375,-0.47656 -1.54687,-0.39063 -2.14843,-0.67188 -0.59375,-0.28906 -0.90625,-0.78906 -0.30469,-0.50781 -0.30469,-1.11719 0,-0.55469 0.25,-1.02344 0.25781,-0.47656 0.69531,-0.78906 0.32813,-0.24219 0.89063,-0.40625 0.57031,-0.17187 1.21875,-0.17187 0.97656,0 1.71093,0.28125 0.74219,0.28125 1.09375,0.76562 0.35157,0.47656 0.48438,1.28125 l -1.375,0.1875 q -0.0937,-0.64062 -0.54688,-1 -0.44531,-0.35937 -1.26562,-0.35937 -0.96875,0 -1.38281,0.32031 -0.41407,0.32031 -0.41407,0.75 0,0.27344 0.17188,0.49219 0.17187,0.22656 0.53906,0.375 0.21094,0.0781 1.24219,0.35937 1.49219,0.39844 2.07812,0.65625 0.59375,0.25 0.92969,0.73438 0.33594,0.48437 0.33594,1.20312 0,0.70313 -0.41406,1.32813 -0.40625,0.61718 -1.17969,0.96093 -0.77344,0.33594 -1.75,0.33594 -1.61719,0 -2.46875,-0.67187 -0.84375,-0.67188 -1.07813,-1.99219 z m 11.63282,1.21875 0.20312,1.24219 q -0.59375,0.125 -1.0625,0.125 -0.76562,0 -1.1875,-0.24219 -0.42187,-0.24219 -0.59375,-0.63281 -0.17187,-0.39844 -0.17187,-1.66407 v -4.77343 h -1.03125 v -1.09375 h 1.03125 v -2.05469 l 1.39843,-0.84375 v 2.89844 h 1.41407 v 1.09375 h -1.41407 v 4.85156 q 0,0.60156 0.0703,0.77344 0.0781,0.17187 0.24218,0.27343 0.17188,0.10157 0.48438,0.10157 0.23437,0 0.61719,-0.0547 z m 1.35937,1.25781 v -8.29687 h 1.26563 v 1.25781 q 0.48437,-0.88281 0.89062,-1.16406 0.41406,-0.28125 0.90625,-0.28125 0.71094,0 1.44531,0.45312 l -0.48437,1.30469 q -0.51563,-0.30469 -1.03125,-0.30469 -0.46094,0 -0.82813,0.28125 -0.36718,0.27344 -0.52343,0.76563 -0.23438,0.75 -0.23438,1.64062 v 4.34375 z m 10.75781,-1.02344 q -0.78125,0.66407 -1.50781,0.9375 -0.71875,0.27344 -1.54687,0.27344 -1.36719,0 -2.10157,-0.66406 -0.73437,-0.67188 -0.73437,-1.71094 0,-0.60937 0.27344,-1.10937 0.28125,-0.50782 0.72656,-0.8125 0.45312,-0.30469 1.01562,-0.46094 0.41407,-0.10938 1.25,-0.21094 1.70313,-0.20312 2.50782,-0.48437 0.008,-0.28907 0.008,-0.36719 0,-0.85938 -0.39844,-1.21094 -0.53906,-0.47656 -1.60156,-0.47656 -0.99219,0 -1.46875,0.35156 -0.46875,0.34375 -0.69531,1.22656 l -1.375,-0.1875 q 0.1875,-0.88281 0.61718,-1.42187 0.42969,-0.54688 1.24219,-0.83594 0.8125,-0.29687 1.88281,-0.29687 1.0625,0 1.72657,0.25 0.66406,0.25 0.97656,0.63281 0.3125,0.375 0.4375,0.95312 0.0703,0.35938 0.0703,1.29688 v 1.875 q 0,1.96094 0.0859,2.48437 0.0937,0.51563 0.35937,0.99219 h -1.46875 q -0.21875,-0.4375 -0.28125,-1.02344 z m -0.11718,-3.14062 q -0.76563,0.3125 -2.29688,0.53125 -0.86719,0.125 -1.22656,0.28125 -0.35938,0.15625 -0.55469,0.46094 -0.19531,0.29687 -0.19531,0.66406 0,0.5625 0.42187,0.9375 0.42969,0.375 1.25,0.375 0.8125,0 1.44532,-0.35156 0.63281,-0.35938 0.92968,-0.97657 0.22657,-0.47656 0.22657,-1.40625 z m 3.60937,-5.67188 v -1.61718 h 1.40625 v 1.61718 z m 0,9.83594 v -8.29687 h 1.40625 v 8.29687 z m 3.54688,0 v -8.29687 h 1.26562 v 1.17968 q 0.91406,-1.36718 2.64063,-1.36718 0.75,0 1.375,0.27343 0.63281,0.26563 0.94531,0.70313 0.3125,0.4375 0.4375,1.03906 0.0781,0.39063 0.0781,1.36719 v 5.10156 h -1.40625 v -5.04687 q 0,-0.85938 -0.16406,-1.28125 -0.16406,-0.42969 -0.58594,-0.67969 -0.41406,-0.25781 -0.97656,-0.25781 -0.89844,0 -1.55469,0.57031 -0.64843,0.57031 -0.64843,2.16406 v 4.53125 z m 11.96875,-1.25781 0.20312,1.24219 q -0.59375,0.125 -1.0625,0.125 -0.76562,0 -1.1875,-0.24219 -0.42187,-0.24219 -0.59375,-0.63281 -0.17187,-0.39844 -0.17187,-1.66407 v -4.77343 h -1.03125 v -1.09375 h 1.03125 v -2.05469 l 1.39843,-0.84375 v 2.89844 h 1.41407 v 1.09375 h -1.41407 v 4.85156 q 0,0.60156 0.0703,0.77344 0.0781,0.17187 0.24218,0.27343 0.17188,0.10157 0.48438,0.10157 0.23437,0 0.61719,-0.0547 z m 0.8125,-1.21875 1.39062,-0.21875 q 0.11719,0.83594 0.64844,1.28125 0.53906,0.44531 1.5,0.44531 0.96875,0 1.4375,-0.39062 0.46875,-0.39844 0.46875,-0.92969 0,-0.47656 -0.41406,-0.75 -0.28907,-0.1875 -1.4375,-0.47656 -1.54688,-0.39063 -2.14844,-0.67188 -0.59375,-0.28906 -0.90625,-0.78906 -0.30469,-0.50781 -0.30469,-1.11719 0,-0.55469 0.25,-1.02344 0.25781,-0.47656 0.69531,-0.78906 0.32813,-0.24219 0.89063,-0.40625 0.57031,-0.17187 1.21875,-0.17187 0.97656,0 1.71094,0.28125 0.74218,0.28125 1.09375,0.76562 0.35156,0.47656 0.48437,1.28125 l -1.375,0.1875 q -0.0937,-0.64062 -0.54687,-1 -0.44532,-0.35937 -1.26563,-0.35937 -0.96875,0 -1.38281,0.32031 -0.41406,0.32031 -0.41406,0.75 0,0.27344 0.17187,0.49219 0.17188,0.22656 0.53906,0.375 0.21094,0.0781 1.24219,0.35937 1.49219,0.39844 2.07813,0.65625 0.59375,0.25 0.92968,0.73438 0.33594,0.48437 0.33594,1.20312 0,0.70313 -0.41406,1.32813 -0.40625,0.61718 -1.17969,0.96093 -0.77344,0.33594 -1.75,0.33594 -1.61719,0 -2.46875,-0.67187 -0.84375,-0.67188 -1.07812,-1.99219 z"
       id="flowRoot4302-6"
       transform="translate(-20,382.36205)"
       aria-label="Optimize goals with limited resources under constraints" />
    <path
       style="font-weight:bold;font-size:24px;line-height:1.25;font-family:'Liberation Sans';-inkscape-font-specification:'\'Liberation Sans, Normal\' Bold';fill:#2e3436"
       d="m 284.52734,193.61225 q 0,-2.625 0.78516,-4.40625 0.58594,-1.3125 1.59375,-2.35547 1.01953,-1.04297 2.22656,-1.54688 1.60547,-0.67968 3.70313,-0.67968 3.79687,0 6.07031,2.35546 2.28516,2.35547 2.28516,6.55079 0,4.16015 -2.26172,6.51562 -2.26172,2.34375 -6.04688,2.34375 -3.83203,0 -6.09375,-2.33203 -2.26172,-2.34375 -2.26172,-6.44531 z m 3.57422,-0.11719 q 0,2.91797 1.34766,4.42969 1.34765,1.5 3.42187,1.5 2.07422,0 3.39844,-1.48828 1.33594,-1.5 1.33594,-4.48829 0,-2.95312 -1.30078,-4.40625 -1.28907,-1.45312 -3.4336,-1.45312 -2.14453,0 -3.45703,1.47656 -1.3125,1.46485 -1.3125,4.42969 z m 15.67969,-3.84375 h 3.07031 v 1.82812 q 0.59766,-0.9375 1.61719,-1.52343 1.01953,-0.58594 2.26172,-0.58594 2.16797,0 3.67969,1.69922 1.51171,1.69922 1.51171,4.73437 0,3.11719 -1.52343,4.85157 -1.52344,1.72265 -3.69141,1.72265 -1.03125,0 -1.875,-0.41015 -0.83203,-0.41016 -1.75781,-1.40625 v 6.26953 h -3.29297 z m 3.25781,6.01172 q 0,2.09765 0.83203,3.10547 0.83203,0.99609 2.02735,0.99609 1.14843,0 1.91015,-0.91406 0.76172,-0.92578 0.76172,-3.02344 0,-1.95703 -0.78515,-2.90625 -0.78516,-0.94922 -1.94532,-0.94922 -1.20703,0 -2.0039,0.9375 -0.79688,0.92578 -0.79688,2.75391 z m 17.20313,-6.01172 v 2.625 h -2.25 v 5.01562 q 0,1.52344 0.0586,1.78125 0.0703,0.2461 0.29297,0.41016 0.23437,0.16406 0.5625,0.16406 0.45703,0 1.32422,-0.3164 l 0.28125,2.55468 q -1.14844,0.49219 -2.60156,0.49219 -0.89063,0 -1.60547,-0.29297 -0.71485,-0.30468 -1.05469,-0.77343 -0.32813,-0.48047 -0.45703,-1.28907 -0.10547,-0.57422 -0.10547,-2.32031 v -5.42578 h -1.51172 v -2.625 h 1.51172 v -2.47266 l 3.30469,-1.92187 v 4.39453 z m 2.28515,-1.6875 v -3.04688 h 3.29297 v 3.04688 z m 0,14.13281 v -12.44531 h 3.29297 v 12.44531 z m 6.42188,-12.44531 h 3.03515 v 1.69922 q 1.62891,-1.98047 3.87891,-1.98047 1.19531,0 2.07422,0.49219 0.87891,0.49218 1.44141,1.48828 0.82031,-0.9961 1.76953,-1.48828 0.94922,-0.49219 2.02734,-0.49219 1.37109,0 2.32031,0.5625 0.94922,0.55078 1.41797,1.62891 0.33985,0.79687 0.33985,2.57812 v 7.95703 h -3.29297 v -7.11328 q 0,-1.85156 -0.33985,-2.39062 -0.45703,-0.70313 -1.40625,-0.70313 -0.6914,0 -1.30078,0.42188 -0.60937,0.42187 -0.8789,1.24218 -0.26954,0.8086 -0.26954,2.56641 v 5.97656 h -3.29296 v -6.82031 q 0,-1.81641 -0.17579,-2.34375 -0.17578,-0.52734 -0.55078,-0.78516 -0.36328,-0.25781 -0.99609,-0.25781 -0.76172,0 -1.37109,0.41016 -0.60938,0.41015 -0.87891,1.18359 -0.25781,0.77344 -0.25781,2.56641 v 6.04687 h -3.29297 z m 21.58594,-1.6875 v -3.04688 h 3.29296 v 3.04688 z m 0,14.13281 v -12.44531 h 3.29296 v 12.44531 z m 5.34375,0 v -2.5664 l 4.66406,-5.35547 q 1.14844,-1.3125 1.69922,-1.86328 -0.57422,0.0351 -1.51172,0.0469 l -4.39453,0.0234 v -2.73047 H 370.625 v 2.33203 l -4.75781,5.48438 -1.67578,1.8164 q 1.37109,-0.082 1.69921,-0.082 h 5.09766 v 2.89453 z m 20.53125,-3.96094 3.28125,0.55079 q -0.63282,1.80468 -2.00391,2.7539 -1.35938,0.9375 -3.41016,0.9375 -3.24609,0 -4.80468,-2.12109 -1.23047,-1.69922 -1.23047,-4.28906 0,-3.09375 1.61718,-4.83985 1.61719,-1.75781 4.08985,-1.75781 2.77734,0 4.38281,1.83984 1.60547,1.82813 1.53516,5.61328 h -8.25 q 0.0351,1.46485 0.79687,2.28516 0.76172,0.80859 1.89844,0.80859 0.77344,0 1.30078,-0.42187 0.52734,-0.42188 0.79688,-1.35938 z m 0.1875,-3.32812 q -0.0352,-1.42969 -0.73829,-2.16797 -0.70312,-0.75 -1.71093,-0.75 -1.07813,0 -1.78125,0.78516 -0.70313,0.78515 -0.69141,2.13281 z m 12.3164,8.10937 3.76172,0.45704 q 0.0937,0.65625 0.43359,0.90234 0.46875,0.35156 1.47657,0.35156 1.28906,0 1.93359,-0.38672 0.43359,-0.25781 0.65625,-0.83203 0.15234,-0.41015 0.15234,-1.51172 v -1.8164 q -1.47656,2.01562 -3.72656,2.01562 -2.50781,0 -3.97265,-2.12109 -1.14844,-1.67578 -1.14844,-4.17188 0,-3.1289 1.5,-4.78125 1.51172,-1.65234 3.75,-1.65234 2.30859,0 3.80859,2.02734 v -1.74609 h 3.08203 v 11.16797 q 0,2.20312 -0.36328,3.29297 -0.36328,1.08984 -1.01953,1.71093 -0.65625,0.6211 -1.75781,0.97266 -1.08985,0.35156 -2.76563,0.35156 -3.16406,0 -4.48828,-1.08984 -1.32422,-1.07813 -1.32422,-2.74219 0,-0.16406 0.0117,-0.39844 z m 2.94141,-7.30078 q 0,1.98047 0.76172,2.90625 0.77343,0.91407 1.89843,0.91407 1.20704,0 2.03907,-0.9375 0.83203,-0.94922 0.83203,-2.80079 0,-1.93359 -0.79688,-2.87109 -0.79687,-0.9375 -2.01562,-0.9375 -1.1836,0 -1.95703,0.92578 -0.76172,0.91406 -0.76172,2.80078 z m 11.26172,0.082 q 0,-1.64062 0.80859,-3.17578 0.80859,-1.53515 2.28516,-2.34375 1.48828,-0.80859 3.3164,-0.80859 2.82422,0 4.62891,1.83984 1.80469,1.82813 1.80469,4.62891 0,2.82422 -1.82813,4.6875 -1.8164,1.85156 -4.58203,1.85156 -1.71094,0 -3.26953,-0.77344 -1.54688,-0.77343 -2.35547,-2.26171 -0.80859,-1.5 -0.80859,-3.64454 z m 3.375,0.17579 q 0,1.85156 0.8789,2.83593 0.87891,0.98438 2.16797,0.98438 1.28906,0 2.15625,-0.98438 0.87891,-0.98437 0.87891,-2.85937 0,-1.82813 -0.87891,-2.8125 -0.86719,-0.98438 -2.15625,-0.98438 -1.28906,0 -2.16797,0.98438 -0.8789,0.98437 -0.8789,2.83594 z M 425,193.44818 l -2.98828,-0.53906 q 0.5039,-1.80469 1.73437,-2.67187 1.23047,-0.86719 3.65625,-0.86719 2.20313,0 3.28125,0.52734 1.07813,0.51563 1.51172,1.32422 0.44531,0.79688 0.44531,2.94141 l -0.0351,3.84375 q 0,1.64062 0.15234,2.42578 0.16406,0.77344 0.59766,1.66406 h -3.25781 q -0.12891,-0.32812 -0.31641,-0.97265 -0.082,-0.29297 -0.11719,-0.38672 -0.84375,0.82031 -1.80469,1.23047 -0.96093,0.41015 -2.05078,0.41015 -1.92187,0 -3.03515,-1.04297 -1.10157,-1.04297 -1.10157,-2.63672 0,-1.05468 0.50391,-1.875 0.50391,-0.83203 1.40625,-1.26562 0.91406,-0.44531 2.625,-0.77344 2.30859,-0.43359 3.19922,-0.80859 v -0.32813 q 0,-0.94922 -0.46875,-1.34765 -0.46875,-0.41016 -1.76953,-0.41016 -0.87891,0 -1.3711,0.35156 -0.49218,0.33985 -0.79687,1.20703 z m 4.40625,2.67188 q -0.63281,0.21094 -2.00391,0.50391 -1.37109,0.29296 -1.79297,0.57421 -0.64453,0.45704 -0.64453,1.16016 0,0.69141 0.51563,1.19531 0.51562,0.50391 1.3125,0.50391 0.89062,0 1.69922,-0.58594 0.59765,-0.44531 0.78515,-1.08984 0.12891,-0.42188 0.12891,-1.60547 z m 6.48047,5.97656 v -17.17969 h 3.29297 v 17.17969 z m 5.50781,-3.55078 3.30469,-0.50391 q 0.21094,0.96094 0.85547,1.46485 0.64453,0.49219 1.80468,0.49219 1.27735,0 1.92188,-0.46875 0.43359,-0.32813 0.43359,-0.87891 0,-0.375 -0.23437,-0.62109 -0.2461,-0.23438 -1.10156,-0.4336 -3.98438,-0.8789 -5.05079,-1.60547 -1.47656,-1.00781 -1.47656,-2.80078 0,-1.61719 1.27735,-2.71875 1.27734,-1.10156 3.96093,-1.10156 2.55469,0 3.79688,0.83203 1.24219,0.83203 1.71094,2.46094 l -3.10547,0.57422 q -0.19922,-0.72657 -0.76172,-1.11328 -0.55078,-0.38672 -1.58203,-0.38672 -1.30078,0 -1.86328,0.36328 -0.375,0.25781 -0.375,0.66797 0,0.35156 0.32812,0.59765 0.44531,0.32813 3.07031,0.92578 2.63672,0.59766 3.67969,1.46485 1.03125,0.8789 1.03125,2.44922 0,1.71093 -1.42969,2.9414 -1.42968,1.23047 -4.23047,1.23047 -2.54296,0 -4.03125,-1.03125 -1.47656,-1.03125 -1.93359,-2.80078 z"
       id="flowRoot6947"
       transform="translate(-253.48405,391.8831)"
       aria-label="Optimize goals" />
    <path
       style="font-weight:bold;font-size:24px;line-height:1.25;font-family:'Liberation Sans';-inkscape-font-specification:'\'Liberation Sans, Normal\' Bold';fill:#2e3436"
       d="m 287.66797,202.09662 -4.10156,-17.17969 h 3.55078 l 2.58984,11.80079 3.14063,-11.80079 h 4.125 l 3.01171,12 2.63672,-12 h 3.49219 l -4.17187,17.17969 h -3.67969 l -3.42188,-12.84375 -3.41015,12.84375 z m 19.98047,-14.13281 v -3.04688 h 3.29297 v 3.04688 z m 0,14.13281 v -12.44531 h 3.29297 v 12.44531 z m 12.375,-12.44531 v 2.625 h -2.25 v 5.01562 q 0,1.52344 0.0586,1.78125 0.0703,0.2461 0.29297,0.41016 0.23437,0.16406 0.5625,0.16406 0.45703,0 1.32422,-0.3164 l 0.28125,2.55468 q -1.14844,0.49219 -2.60156,0.49219 -0.89063,0 -1.60547,-0.29297 -0.71485,-0.30468 -1.05469,-0.77343 -0.32813,-0.48047 -0.45703,-1.28907 -0.10547,-0.57422 -0.10547,-2.32031 v -5.42578 h -1.51172 v -2.625 h 1.51172 v -2.47266 l 3.30469,-1.92187 v 4.39453 z m 5.5664,-4.73438 v 6.31641 q 1.59375,-1.86328 3.8086,-1.86328 1.13672,0 2.05078,0.42187 0.91406,0.42188 1.37109,1.07813 0.46875,0.65625 0.63281,1.45312 0.17579,0.79688 0.17579,2.47266 v 7.30078 h -3.29297 v -6.57422 q 0,-1.95703 -0.1875,-2.48437 -0.1875,-0.52735 -0.66797,-0.83203 -0.46875,-0.31641 -1.1836,-0.31641 -0.82031,0 -1.46484,0.39844 -0.64453,0.39844 -0.94922,1.20703 -0.29297,0.79687 -0.29297,2.36719 v 6.23437 h -3.29297 v -17.17969 z m 18.04688,17.17969 v -17.17969 h 3.29297 v 17.17969 z m 6.66797,-14.13281 v -3.04688 h 3.29297 v 3.04688 z m 0,14.13281 v -12.44531 h 3.29297 v 12.44531 z m 6.42187,-12.44531 h 3.03516 v 1.69922 q 1.6289,-1.98047 3.8789,-1.98047 1.19532,0 2.07422,0.49219 0.87891,0.49218 1.44141,1.48828 0.82031,-0.9961 1.76953,-1.48828 0.94922,-0.49219 2.02734,-0.49219 1.3711,0 2.32032,0.5625 0.94922,0.55078 1.41797,1.62891 0.33984,0.79687 0.33984,2.57812 v 7.95703 h -3.29297 v -7.11328 q 0,-1.85156 -0.33984,-2.39062 -0.45703,-0.70313 -1.40625,-0.70313 -0.69141,0 -1.30078,0.42188 -0.60938,0.42187 -0.87891,1.24218 -0.26953,0.8086 -0.26953,2.56641 v 5.97656 H 364.25 v -6.82031 q 0,-1.81641 -0.17578,-2.34375 -0.17578,-0.52734 -0.55078,-0.78516 -0.36328,-0.25781 -0.9961,-0.25781 -0.76172,0 -1.37109,0.41016 -0.60938,0.41015 -0.87891,1.18359 -0.25781,0.77344 -0.25781,2.56641 v 6.04687 h -3.29297 z m 21.58594,-1.6875 v -3.04688 h 3.29297 v 3.04688 z m 0,14.13281 v -12.44531 h 3.29297 v 12.44531 z m 12.375,-12.44531 v 2.625 h -2.25 v 5.01562 q 0,1.52344 0.0586,1.78125 0.0703,0.2461 0.29297,0.41016 0.23438,0.16406 0.5625,0.16406 0.45703,0 1.32422,-0.3164 l 0.28125,2.55468 q -1.14844,0.49219 -2.60156,0.49219 -0.89063,0 -1.60547,-0.29297 -0.71484,-0.30468 -1.05469,-0.77343 -0.32812,-0.48047 -0.45703,-1.28907 -0.10547,-0.57422 -0.10547,-2.32031 v -5.42578 h -1.51172 v -2.625 h 1.51172 v -2.47266 l 3.30469,-1.92187 v 4.39453 z m 9.49219,8.48437 3.28125,0.55079 q -0.63282,1.80468 -2.00391,2.7539 -1.35937,0.9375 -3.41016,0.9375 -3.24609,0 -4.80468,-2.12109 -1.23047,-1.69922 -1.23047,-4.28906 0,-3.09375 1.61719,-4.83985 1.61718,-1.75781 4.08984,-1.75781 2.77734,0 4.38281,1.83984 1.60547,1.82813 1.53516,5.61328 h -8.25 q 0.0351,1.46485 0.79687,2.28516 0.76172,0.80859 1.89844,0.80859 0.77344,0 1.30078,-0.42187 0.52735,-0.42188 0.79688,-1.35938 z m 0.1875,-3.32812 q -0.0352,-1.42969 -0.73828,-2.16797 -0.70313,-0.75 -1.71094,-0.75 -1.07813,0 -1.78125,0.78516 -0.70313,0.78515 -0.69141,2.13281 z m 17.36718,7.28906 h -3.05859 v -1.82812 q -0.76172,1.0664 -1.80469,1.59375 -1.03125,0.51562 -2.08593,0.51562 -2.14454,0 -3.67969,-1.72265 -1.52344,-1.73438 -1.52344,-4.82813 0,-3.16406 1.48828,-4.80469 1.48828,-1.65234 3.76172,-1.65234 2.08594,0 3.60938,1.73437 v -6.1875 h 3.29296 z m -8.78906,-6.49219 q 0,1.99219 0.55078,2.88282 0.79688,1.28906 2.22657,1.28906 1.13671,0 1.93359,-0.96094 0.79687,-0.97265 0.79687,-2.89453 0,-2.14453 -0.77343,-3.08203 -0.77344,-0.94922 -1.98047,-0.94922 -1.17188,0 -1.96875,0.9375 -0.78516,0.92578 -0.78516,2.77734 z m 21.85547,6.49219 h -3.29297 v -12.44531 h 3.0586 v 1.76953 q 0.78515,-1.25391 1.40625,-1.65234 0.63281,-0.39844 1.42968,-0.39844 1.125,0 2.16797,0.62109 l -1.01953,2.8711 q -0.83203,-0.53907 -1.54687,-0.53907 -0.69141,0 -1.17188,0.38672 -0.48047,0.375 -0.76172,1.3711 -0.26953,0.99609 -0.26953,4.17187 z m 13.39453,-3.96094 3.28125,0.55079 q -0.63281,1.80468 -2.0039,2.7539 -1.35938,0.9375 -3.41016,0.9375 -3.24609,0 -4.80469,-2.12109 -1.23047,-1.69922 -1.23047,-4.28906 0,-3.09375 1.61719,-4.83985 1.61719,-1.75781 4.08984,-1.75781 2.77735,0 4.38282,1.83984 1.60547,1.82813 1.53515,5.61328 h -8.25 q 0.0352,1.46485 0.79688,2.28516 0.76172,0.80859 1.89844,0.80859 0.77343,0 1.30078,-0.42187 0.52734,-0.42188 0.79687,-1.35938 z m 0.1875,-3.32812 q -0.0351,-1.42969 -0.73828,-2.16797 -0.70312,-0.75 -1.71094,-0.75 -1.07812,0 -1.78125,0.78516 -0.70312,0.78515 -0.6914,2.13281 z m 4.79297,3.73828 3.30469,-0.50391 q 0.21094,0.96094 0.85547,1.46485 0.64453,0.49219 1.80468,0.49219 1.27735,0 1.92188,-0.46875 0.43359,-0.32813 0.43359,-0.87891 0,-0.375 -0.23437,-0.62109 -0.2461,-0.23438 -1.10156,-0.4336 -3.98438,-0.8789 -5.05079,-1.60547 -1.47656,-1.00781 -1.47656,-2.80078 0,-1.61719 1.27735,-2.71875 1.27734,-1.10156 3.96093,-1.10156 2.55469,0 3.79688,0.83203 1.24219,0.83203 1.71094,2.46094 l -3.10547,0.57422 q -0.19922,-0.72657 -0.76172,-1.11328 -0.55078,-0.38672 -1.58203,-0.38672 -1.30078,0 -1.86328,0.36328 -0.375,0.25781 -0.375,0.66797 0,0.35156 0.32812,0.59765 0.44531,0.32813 3.07031,0.92578 2.63672,0.59766 3.67969,1.46485 1.03125,0.8789 1.03125,2.44922 0,1.71093 -1.42969,2.9414 -1.42968,1.23047 -4.23047,1.23047 -2.54296,0 -4.03125,-1.03125 -1.47656,-1.03125 -1.93359,-2.80078 z m 13.74609,-2.84766 q 0,-1.64062 0.8086,-3.17578 0.80859,-1.53515 2.28515,-2.34375 1.48829,-0.80859 3.31641,-0.80859 2.82422,0 4.62891,1.83984 1.80468,1.82813 1.80468,4.62891 0,2.82422 -1.82812,4.6875 -1.81641,1.85156 -4.58203,1.85156 -1.71094,0 -3.26953,-0.77344 -1.54688,-0.77343 -2.35547,-2.26171 -0.8086,-1.5 -0.8086,-3.64454 z m 3.375,0.17579 q 0,1.85156 0.87891,2.83593 0.87891,0.98438 2.16797,0.98438 1.28906,0 2.15625,-0.98438 0.87891,-0.98437 0.87891,-2.85937 0,-1.82813 -0.87891,-2.8125 -0.86719,-0.98438 -2.15625,-0.98438 -1.28906,0 -2.16797,0.98438 -0.87891,0.98437 -0.87891,2.83594 z m 20.23829,6.22265 v -1.86328 q -0.67969,0.99609 -1.79297,1.57031 -1.10157,0.57422 -2.33203,0.57422 -1.25391,0 -2.25,-0.55078 -0.9961,-0.55078 -1.44141,-1.54687 -0.44531,-0.9961 -0.44531,-2.75391 v -7.875 h 3.29297 v 5.71875 q 0,2.625 0.17578,3.22266 0.1875,0.58593 0.66797,0.9375 0.48046,0.33984 1.21875,0.33984 0.84375,0 1.51171,-0.45703 0.66797,-0.46875 0.91407,-1.14844 0.24609,-0.69141 0.24609,-3.36328 v -5.25 h 3.29297 v 12.44531 z m 9.62109,0 h -3.29297 v -12.44531 h 3.05859 v 1.76953 q 0.78516,-1.25391 1.40625,-1.65234 0.63282,-0.39844 1.42969,-0.39844 1.125,0 2.16797,0.62109 l -1.01953,2.8711 q -0.83203,-0.53907 -1.54688,-0.53907 -0.6914,0 -1.17187,0.38672 -0.48047,0.375 -0.76172,1.3711 -0.26953,0.99609 -0.26953,4.17187 z m 17.03906,-8.76562 -3.24609,0.58593 q -0.16406,-0.97265 -0.75,-1.46484 -0.57422,-0.49219 -1.5,-0.49219 -1.23047,0 -1.96875,0.85547 -0.72656,0.84375 -0.72656,2.83594 0,2.21484 0.73828,3.12891 0.75,0.91406 2.0039,0.91406 0.9375,0 1.53516,-0.52735 0.59766,-0.53906 0.84375,-1.83984 l 3.23437,0.55078 q -0.5039,2.22656 -1.93359,3.36328 -1.42969,1.13672 -3.83203,1.13672 -2.73047,0 -4.35938,-1.72265 -1.61718,-1.72266 -1.61718,-4.76954 0,-3.08203 1.6289,-4.79296 1.62891,-1.72266 4.40625,-1.72266 2.27344,0 3.60938,0.98437 1.34765,0.97266 1.93359,2.97657 z m 9.70313,4.80468 3.28125,0.55079 q -0.63282,1.80468 -2.00391,2.7539 -1.35937,0.9375 -3.41016,0.9375 -3.24609,0 -4.80468,-2.12109 -1.23047,-1.69922 -1.23047,-4.28906 0,-3.09375 1.61719,-4.83985 1.61718,-1.75781 4.08984,-1.75781 2.77734,0 4.38281,1.83984 1.60547,1.82813 1.53516,5.61328 h -8.25 q 0.0352,1.46485 0.79687,2.28516 0.76172,0.80859 1.89844,0.80859 0.77344,0 1.30078,-0.42187 0.52735,-0.42188 0.79688,-1.35938 z m 0.1875,-3.32812 q -0.0352,-1.42969 -0.73828,-2.16797 -0.70313,-0.75 -1.71094,-0.75 -1.07813,0 -1.78125,0.78516 -0.70313,0.78515 -0.69141,2.13281 z m 4.79297,3.73828 3.30468,-0.50391 q 0.21094,0.96094 0.85547,1.46485 0.64453,0.49219 1.80469,0.49219 1.27734,0 1.92187,-0.46875 0.4336,-0.32813 0.4336,-0.87891 0,-0.375 -0.23438,-0.62109 -0.24609,-0.23438 -1.10156,-0.4336 -3.98437,-0.8789 -5.05078,-1.60547 -1.47656,-1.00781 -1.47656,-2.80078 0,-1.61719 1.27734,-2.71875 1.27734,-1.10156 3.96094,-1.10156 2.55469,0 3.79687,0.83203 1.24219,0.83203 1.71094,2.46094 l -3.10547,0.57422 q -0.19922,-0.72657 -0.76172,-1.11328 -0.55078,-0.38672 -1.58203,-0.38672 -1.30078,0 -1.86328,0.36328 -0.375,0.25781 -0.375,0.66797 0,0.35156 0.32813,0.59765 0.44531,0.32813 3.07031,0.92578 2.63672,0.59766 3.67969,1.46485 1.03125,0.8789 1.03125,2.44922 0,1.71093 -1.42969,2.9414 -1.42969,1.23047 -4.23047,1.23047 -2.54297,0 -4.03125,-1.03125 -1.47656,-1.03125 -1.93359,-2.80078 z"
       id="flowRoot5781"
       transform="translate(-253.48405,551.88328)"
       aria-label="With limited resources" />
    <path
       style="font-weight:bold;font-size:24px;line-height:1.25;font-family:'Liberation Sans';-inkscape-font-specification:'\'Liberation Sans, Normal\' Bold';fill:#2e3436"
       d="m 285.20703,184.91693 h 3.46875 v 9.30469 q 0,2.21485 0.12891,2.8711 0.22265,1.05468 1.05468,1.69921 0.84375,0.63282 2.29688,0.63282 1.47656,0 2.22656,-0.59766 0.75,-0.60937 0.90235,-1.48828 0.15234,-0.87891 0.15234,-2.91797 v -9.50391 h 3.46875 v 9.02344 q 0,3.09375 -0.28125,4.3711 -0.28125,1.27734 -1.04297,2.15625 -0.75,0.8789 -2.01562,1.40625 -1.26563,0.51562 -3.30469,0.51562 -2.46094,0 -3.73828,-0.5625 -1.26563,-0.57422 -2.00391,-1.47656 -0.73828,-0.91406 -0.97266,-1.91016 -0.33984,-1.47656 -0.33984,-4.35937 z m 28.65234,17.17969 h -3.29296 v -6.35156 q 0,-2.01563 -0.21094,-2.60156 -0.21094,-0.59766 -0.69141,-0.92578 -0.46875,-0.32813 -1.13672,-0.32813 -0.85547,0 -1.53515,0.46875 -0.67969,0.46875 -0.9375,1.24219 -0.2461,0.77344 -0.2461,2.85937 v 5.63672 h -3.29297 v -12.44531 h 3.0586 v 1.82812 q 1.6289,-2.10937 4.10156,-2.10937 1.08984,0 1.99219,0.39844 0.90234,0.38672 1.35937,0.99609 0.46875,0.60938 0.64453,1.38281 0.1875,0.77344 0.1875,2.21485 z m 14.75391,0 h -3.05859 v -1.82812 q -0.76172,1.0664 -1.80469,1.59375 -1.03125,0.51562 -2.08594,0.51562 -2.14453,0 -3.67969,-1.72265 -1.52343,-1.73438 -1.52343,-4.82813 0,-3.16406 1.48828,-4.80469 1.48828,-1.65234 3.76172,-1.65234 2.08593,0 3.60937,1.73437 v -6.1875 h 3.29297 z m -8.78906,-6.49219 q 0,1.99219 0.55078,2.88282 0.79687,1.28906 2.22656,1.28906 1.13672,0 1.9336,-0.96094 0.79687,-0.97265 0.79687,-2.89453 0,-2.14453 -0.77344,-3.08203 -0.77343,-0.94922 -1.98047,-0.94922 -1.17187,0 -1.96875,0.9375 -0.78515,0.92578 -0.78515,2.77734 z m 19.24219,2.53125 3.28125,0.55079 q -0.63282,1.80468 -2.00391,2.7539 -1.35938,0.9375 -3.41016,0.9375 -3.24609,0 -4.80468,-2.12109 -1.23047,-1.69922 -1.23047,-4.28906 0,-3.09375 1.61718,-4.83985 1.61719,-1.75781 4.08985,-1.75781 2.77734,0 4.38281,1.83984 1.60547,1.82813 1.53516,5.61328 h -8.25 q 0.0351,1.46485 0.79687,2.28516 0.76172,0.80859 1.89844,0.80859 0.77344,0 1.30078,-0.42187 0.52734,-0.42188 0.79688,-1.35938 z m 0.1875,-3.32812 q -0.0352,-1.42969 -0.73829,-2.16797 -0.70312,-0.75 -1.71093,-0.75 -1.07813,0 -1.78125,0.78516 -0.70313,0.78515 -0.69141,2.13281 z m 9.10546,7.28906 h -3.29296 v -12.44531 h 3.05859 v 1.76953 q 0.78516,-1.25391 1.40625,-1.65234 0.63281,-0.39844 1.42969,-0.39844 1.125,0 2.16797,0.62109 l -1.01954,2.8711 q -0.83203,-0.53907 -1.54687,-0.53907 -0.69141,0 -1.17188,0.38672 -0.48046,0.375 -0.76171,1.3711 -0.26954,0.99609 -0.26954,4.17187 z m 23.70704,-8.76562 -3.2461,0.58593 q -0.16406,-0.97265 -0.75,-1.46484 -0.57422,-0.49219 -1.5,-0.49219 -1.23047,0 -1.96875,0.85547 -0.72656,0.84375 -0.72656,2.83594 0,2.21484 0.73828,3.12891 0.75,0.91406 2.00391,0.91406 0.9375,0 1.53515,-0.52735 0.59766,-0.53906 0.84375,-1.83984 l 3.23438,0.55078 q -0.50391,2.22656 -1.9336,3.36328 -1.42968,1.13672 -3.83203,1.13672 -2.73047,0 -4.35937,-1.72265 -1.61719,-1.72266 -1.61719,-4.76954 0,-3.08203 1.62891,-4.79296 1.6289,-1.72266 4.40625,-1.72266 2.27343,0 3.60937,0.98437 1.34766,0.97266 1.9336,2.97657 z m 1.73437,2.36718 q 0,-1.64062 0.80859,-3.17578 0.8086,-1.53515 2.28516,-2.34375 1.48828,-0.80859 3.31641,-0.80859 2.82422,0 4.6289,1.83984 1.80469,1.82813 1.80469,4.62891 0,2.82422 -1.82812,4.6875 -1.81641,1.85156 -4.58204,1.85156 -1.71093,0 -3.26953,-0.77344 -1.54687,-0.77343 -2.35547,-2.26171 -0.80859,-1.5 -0.80859,-3.64454 z m 3.375,0.17579 q 0,1.85156 0.87891,2.83593 0.8789,0.98438 2.16797,0.98438 1.28906,0 2.15625,-0.98438 0.8789,-0.98437 0.8789,-2.85937 0,-1.82813 -0.8789,-2.8125 -0.86719,-0.98438 -2.15625,-0.98438 -1.28907,0 -2.16797,0.98438 -0.87891,0.98437 -0.87891,2.83594 z m 23.36719,6.22265 H 397.25 v -6.35156 q 0,-2.01563 -0.21094,-2.60156 -0.21094,-0.59766 -0.6914,-0.92578 -0.46875,-0.32813 -1.13672,-0.32813 -0.85547,0 -1.53516,0.46875 -0.67969,0.46875 -0.9375,1.24219 -0.24609,0.77344 -0.24609,2.85937 v 5.63672 h -3.29297 v -12.44531 h 3.05859 v 1.82812 q 1.62891,-2.10937 4.10156,-2.10937 1.08985,0 1.99219,0.39844 0.90235,0.38672 1.35938,0.99609 0.46875,0.60938 0.64453,1.38281 0.1875,0.77344 0.1875,2.21485 z m 2.17969,-3.55078 3.30468,-0.50391 q 0.21094,0.96094 0.85547,1.46485 0.64453,0.49219 1.80469,0.49219 1.27734,0 1.92187,-0.46875 0.4336,-0.32813 0.4336,-0.87891 0,-0.375 -0.23438,-0.62109 -0.24609,-0.23438 -1.10156,-0.4336 -3.98437,-0.8789 -5.05078,-1.60547 -1.47656,-1.00781 -1.47656,-2.80078 0,-1.61719 1.27734,-2.71875 1.27734,-1.10156 3.96094,-1.10156 2.55469,0 3.79687,0.83203 1.24219,0.83203 1.71094,2.46094 l -3.10547,0.57422 q -0.19922,-0.72657 -0.76172,-1.11328 -0.55078,-0.38672 -1.58203,-0.38672 -1.30078,0 -1.86328,0.36328 -0.375,0.25781 -0.375,0.66797 0,0.35156 0.32813,0.59765 0.44531,0.32813 3.07031,0.92578 2.63672,0.59766 3.67969,1.46485 1.03125,0.8789 1.03125,2.44922 0,1.71093 -1.42969,2.9414 -1.42969,1.23047 -4.23047,1.23047 -2.54297,0 -4.03125,-1.03125 -1.47656,-1.03125 -1.93359,-2.80078 z m 20.21484,-8.89453 v 2.625 h -2.25 v 5.01562 q 0,1.52344 0.0586,1.78125 0.0703,0.2461 0.29297,0.41016 0.23438,0.16406 0.5625,0.16406 0.45703,0 1.32422,-0.3164 l 0.28125,2.55468 q -1.14844,0.49219 -2.60156,0.49219 -0.89063,0 -1.60547,-0.29297 -0.71484,-0.30468 -1.05469,-0.77343 -0.32812,-0.48047 -0.45703,-1.28907 -0.10547,-0.57422 -0.10547,-2.32031 v -5.42578 h -1.51172 v -2.625 h 1.51172 v -2.47266 l 3.30469,-1.92187 v 4.39453 z m 5.4375,12.44531 h -3.29297 v -12.44531 h 3.05859 v 1.76953 q 0.78516,-1.25391 1.40625,-1.65234 0.63282,-0.39844 1.42969,-0.39844 1.125,0 2.16797,0.62109 l -1.01953,2.8711 q -0.83203,-0.53907 -1.54688,-0.53907 -0.6914,0 -1.17187,0.38672 -0.48047,0.375 -0.76172,1.3711 -0.26953,0.99609 -0.26953,4.17187 z m 8.64844,-8.64844 -2.98828,-0.53906 q 0.5039,-1.80469 1.73437,-2.67187 1.23047,-0.86719 3.65625,-0.86719 2.20313,0 3.28125,0.52734 1.07813,0.51563 1.51172,1.32422 0.44531,0.79688 0.44531,2.94141 l -0.0351,3.84375 q 0,1.64062 0.15234,2.42578 0.16406,0.77344 0.59766,1.66406 h -3.25782 q -0.1289,-0.32812 -0.3164,-0.97265 -0.082,-0.29297 -0.11719,-0.38672 -0.84375,0.82031 -1.80469,1.23047 -0.96094,0.41015 -2.05078,0.41015 -1.92187,0 -3.03516,-1.04297 -1.10156,-1.04297 -1.10156,-2.63672 0,-1.05468 0.50391,-1.875 0.5039,-0.83203 1.40625,-1.26562 0.91406,-0.44531 2.625,-0.77344 2.30859,-0.43359 3.19922,-0.80859 v -0.32813 q 0,-0.94922 -0.46875,-1.34765 -0.46875,-0.41016 -1.76953,-0.41016 -0.87891,0 -1.3711,0.35156 -0.49219,0.33985 -0.79687,1.20703 z m 4.40625,2.67188 q -0.63282,0.21094 -2.00391,0.50391 -1.37109,0.29296 -1.79297,0.57421 -0.64453,0.45704 -0.64453,1.16016 0,0.69141 0.51563,1.19531 0.51562,0.50391 1.3125,0.50391 0.89062,0 1.69921,-0.58594 0.59766,-0.44531 0.78516,-1.08984 0.12891,-0.42188 0.12891,-1.60547 z m 6.48047,-8.15625 v -3.04688 h 3.29296 v 3.04688 z m 0,14.13281 v -12.44531 h 3.29296 v 12.44531 z m 17.98828,0 h -3.29297 v -6.35156 q 0,-2.01563 -0.21094,-2.60156 -0.21094,-0.59766 -0.69141,-0.92578 -0.46875,-0.32813 -1.13671,-0.32813 -0.85547,0 -1.53516,0.46875 -0.67969,0.46875 -0.9375,1.24219 -0.24609,0.77344 -0.24609,2.85937 v 5.63672 h -3.29297 v -12.44531 h 3.05859 v 1.82812 q 1.62891,-2.10937 4.10156,-2.10937 1.08985,0 1.99219,0.39844 0.90234,0.38672 1.35938,0.99609 0.46875,0.60938 0.64453,1.38281 0.1875,0.77344 0.1875,2.21485 z m 9.04687,-12.44531 v 2.625 h -2.25 v 5.01562 q 0,1.52344 0.0586,1.78125 0.0703,0.2461 0.29296,0.41016 0.23438,0.16406 0.5625,0.16406 0.45704,0 1.32422,-0.3164 l 0.28125,2.55468 q -1.14843,0.49219 -2.60156,0.49219 -0.89062,0 -1.60547,-0.29297 -0.71484,-0.30468 -1.05469,-0.77343 -0.32812,-0.48047 -0.45703,-1.28907 -0.10547,-0.57422 -0.10547,-2.32031 v -5.42578 h -1.51171 v -2.625 h 1.51171 v -2.47266 l 3.30469,-1.92187 v 4.39453 z m 1.125,8.89453 3.30469,-0.50391 q 0.21094,0.96094 0.85547,1.46485 0.64453,0.49219 1.80469,0.49219 1.27734,0 1.92187,-0.46875 0.43359,-0.32813 0.43359,-0.87891 0,-0.375 -0.23437,-0.62109 -0.24609,-0.23438 -1.10156,-0.4336 -3.98438,-0.8789 -5.05078,-1.60547 -1.47657,-1.00781 -1.47657,-2.80078 0,-1.61719 1.27735,-2.71875 1.27734,-1.10156 3.96093,-1.10156 2.55469,0 3.79688,0.83203 1.24219,0.83203 1.71094,2.46094 l -3.10547,0.57422 q -0.19922,-0.72657 -0.76172,-1.11328 -0.55078,-0.38672 -1.58203,-0.38672 -1.30078,0 -1.86328,0.36328 -0.375,0.25781 -0.375,0.66797 0,0.35156 0.32812,0.59765 0.44531,0.32813 3.07031,0.92578 2.63672,0.59766 3.67969,1.46485 1.03125,0.8789 1.03125,2.44922 0,1.71093 -1.42969,2.9414 -1.42968,1.23047 -4.23046,1.23047 -2.54297,0 -4.03125,-1.03125 -1.47657,-1.03125 -1.9336,-2.80078 z"
       id="flowRoot5789"
       transform="translate(-253.48405,711.88263)"
       aria-label="Under constraints" />
    <flowRoot
       style="font-style:normal;font-variant:normal;font-weight:normal;font-stretch:normal;line-height:0.01%;font-family:'Liberation Sans';-inkscape-font-specification:'Liberation Sans, Normal';text-align:start;writing-mode:lr-tb;text-anchor:start;fill:#000000;fill-opacity:1;stroke:none"
       id="flowRoot6522"
       xml:space="preserve"
       transform="translate(-10.374182,749.67022)"><flowRegion
         id="flowRegion6524"><rect
           style="font-size:16px;text-align:start;text-anchor:start"
           y="77.933083"
           x="390.37387"
           height="30.000002"
           width="380"
           id="rect6526" /></flowRegion><flowPara
         id="flowPara6528"
         style="font-size:18px;line-height:1.25"> </flowPara></flowRoot>
  </g>
</svg>
