<?xml version="1.0" encoding="UTF-8" standalone="no"?>
<!-- Created with Inkscape (http://www.inkscape.org/) -->

<svg
   width="800"
   height="600"
   id="svg2"
   version="1.1"
   xmlns="http://www.w3.org/2000/svg"
   xmlns:svg="http://www.w3.org/2000/svg"
   xmlns:rdf="http://www.w3.org/1999/02/22-rdf-syntax-ns#"
   xmlns:cc="http://creativecommons.org/ns#"
   xmlns:dc="http://purl.org/dc/elements/1.1/">
  <defs
     id="defs4" />
  <metadata
     id="metadata7">
    <rdf:RDF>
      <cc:Work
         rdf:about="">
        <dc:format>image/svg+xml</dc:format>
        <dc:type
           rdf:resource="http://purl.org/dc/dcmitype/StillImage" />
        <dc:language>en</dc:language>
        <cc:license
           rdf:resource="https://timefold.ai/license" />
      </cc:Work>
    </rdf:RDF>
  </metadata>
  <g
     id="layer1"
     transform="translate(0,-452.36218)"
     style="display:inline">
    <path
       style="font-size:36px;line-height:1.25;font-family:'Liberation Sans';-inkscape-font-specification:'Liberation Sans, Normal';text-align:center;text-anchor:middle"
       d="m 102.6709,252.42716 v -25.76953 h 18.63281 v 3.04101 h -15.22266 v 7.89258 h 14.25586 v 3.02344 h -14.25586 v 8.77148 h 15.82032 v 3.04102 z m 23.53711,0 v -18.66797 h 2.83008 v 2.61914 q 0.8789,-1.37109 2.33789,-2.19726 1.45898,-0.84375 3.32226,-0.84375 2.07422,0 3.39258,0.86132 1.33594,0.86133 1.88086,2.40821 2.21484,-3.26953 5.76562,-3.26953 2.77735,0 4.27149,1.54687 1.49414,1.5293 1.49414,4.72852 v 12.81445 h -3.14648 v -11.75977 q 0,-1.89843 -0.31641,-2.72461 -0.29883,-0.84375 -1.10742,-1.35351 -0.8086,-0.50977 -1.89844,-0.50977 -1.96875,0 -3.26953,1.31836 -1.30078,1.30078 -1.30078,4.1836 v 10.8457 h -3.16407 v -12.12891 q 0,-2.10937 -0.77343,-3.16406 -0.77344,-1.05469 -2.53125,-1.05469 -1.33594,0 -2.47852,0.70313 -1.125,0.70312 -1.63476,2.05664 -0.50977,1.35351 -0.50977,3.90234 v 9.68555 z m 29.98828,7.1543 v -25.82227 h 2.88281 v 2.42578 q 1.01953,-1.42383 2.30274,-2.12695 1.2832,-0.7207 3.11132,-0.7207 2.39063,0 4.21875,1.23046 1.82813,1.23047 2.75977,3.48047 0.93164,2.23242 0.93164,4.9043 0,2.86523 -1.03711,5.16797 -1.01953,2.28515 -2.98828,3.51562 -1.95117,1.21289 -4.11328,1.21289 -1.58203,0 -2.84766,-0.66796 -1.24804,-0.66797 -2.05664,-1.6875 v 9.08789 z m 2.86523,-16.38282 q 0,3.60352 1.45899,5.32618 1.45898,1.72265 3.5332,1.72265 2.10938,0 3.60352,-1.77539 1.51172,-1.79297 1.51172,-5.53711 0,-3.56836 -1.47657,-5.34375 -1.45898,-1.77539 -3.49804,-1.77539 -2.02149,0 -3.58594,1.89844 -1.54688,1.88086 -1.54688,5.48437 z m 17.08594,9.22852 v -25.76953 h 3.16406 v 25.76953 z m 6.89063,-9.33399 q 0,-5.18554 2.88281,-7.68164 2.4082,-2.07421 5.87109,-2.07421 3.84961,0 6.29297,2.53125 2.44336,2.51367 2.44336,6.96093 0,3.60352 -1.08984,5.67774 -1.07227,2.05664 -3.14649,3.19922 -2.05664,1.14257 -4.5,1.14257 -3.91992,0 -6.3457,-2.51367 -2.4082,-2.51367 -2.4082,-7.24219 z m 3.25195,0 q 0,3.58594 1.56445,5.37891 1.56446,1.77539 3.9375,1.77539 2.35547,0 3.91992,-1.79297 1.56446,-1.79297 1.56446,-5.46679 0,-3.46289 -1.58203,-5.23829 -1.56446,-1.79296 -3.90235,-1.79296 -2.37304,0 -3.9375,1.77539 -1.56445,1.77539 -1.56445,5.36132 z m 17.80664,16.52344 -0.35156,-2.9707 q 1.03711,0.28125 1.81054,0.28125 1.05469,0 1.6875,-0.35156 0.63282,-0.35157 1.03711,-0.98438 0.29883,-0.47461 0.9668,-2.35547 0.0879,-0.26367 0.28125,-0.77343 l -7.08398,-18.70313 h 3.41015 l 3.88477,10.81055 q 0.75586,2.05664 1.35351,4.32422 0.54493,-2.17969 1.30078,-4.25391 l 3.99024,-10.88086 h 3.16406 l -7.10156,18.98438 q -1.14258,3.07617 -1.77539,4.23632 -0.84375,1.56446 -1.9336,2.28516 -1.08984,0.73828 -2.60156,0.73828 -0.91406,0 -2.03906,-0.38672 z m 30.91992,-13.20117 3.26953,0.4043 q -0.77343,2.86523 -2.86523,4.44726 -2.0918,1.58203 -5.34375,1.58203 -4.0957,0 -6.50391,-2.51367 -2.39062,-2.53125 -2.39062,-7.08398 0,-4.71094 2.42578,-7.3125 2.42578,-2.60156 6.29297,-2.60156 3.74414,0 6.11718,2.54882 2.37305,2.54883 2.37305,7.17188 0,0.28125 -0.0176,0.84375 h -13.92187 q 0.17578,3.07617 1.74023,4.71094 1.56446,1.63476 3.90235,1.63476 1.74023,0 2.9707,-0.91406 1.23047,-0.91406 1.95117,-2.91797 z m -10.38867,-5.11523 h 10.42383 q -0.21094,-2.35547 -1.19531,-3.53321 -1.51172,-1.82812 -3.91993,-1.82812 -2.17968,0 -3.67382,1.45898 -1.47657,1.45899 -1.63477,3.90235 z m 30.41016,5.11523 3.26953,0.4043 q -0.77344,2.86523 -2.86524,4.44726 -2.09179,1.58203 -5.34375,1.58203 -4.0957,0 -6.5039,-2.51367 -2.39063,-2.53125 -2.39063,-7.08398 0,-4.71094 2.42578,-7.3125 2.42578,-2.60156 6.29297,-2.60156 3.74414,0 6.11719,2.54882 2.37305,2.54883 2.37305,7.17188 0,0.28125 -0.0176,0.84375 h -13.92188 q 0.17578,3.07617 1.74024,4.71094 1.56445,1.63476 3.90234,1.63476 1.74024,0 2.9707,-0.91406 1.23047,-0.91406 1.95118,-2.91797 z m -10.38868,-5.11523 h 10.42383 q -0.21094,-2.35547 -1.19531,-3.53321 -1.51172,-1.82812 -3.91992,-1.82812 -2.17969,0 -3.67383,1.45898 -1.47656,1.45899 -1.63477,3.90235 z m 26.36719,5.55468 3.12891,-0.49218 q 0.26367,1.88086 1.45898,2.88281 1.21289,1.00195 3.375,1.00195 2.17969,0 3.23438,-0.8789 1.05468,-0.89649 1.05468,-2.0918 0,-1.07227 -0.93164,-1.6875 -0.65039,-0.42188 -3.23437,-1.07227 -3.48047,-0.8789 -4.83399,-1.51172 -1.33593,-0.65039 -2.03906,-1.77539 -0.68554,-1.14257 -0.68554,-2.51367 0,-1.24805 0.5625,-2.30273 0.58007,-1.07227 1.56445,-1.77539 0.73828,-0.54493 2.0039,-0.91407 1.28321,-0.38671 2.74219,-0.38671 2.19727,0 3.84961,0.63281 1.66992,0.63281 2.46094,1.72265 0.79101,1.07227 1.08984,2.88282 l -3.09375,0.42187 q -0.21093,-1.4414 -1.23047,-2.25 -1.00195,-0.80859 -2.84765,-0.80859 -2.17969,0 -3.11133,0.7207 -0.93164,0.7207 -0.93164,1.6875 0,0.61524 0.38672,1.10742 0.38672,0.50977 1.21289,0.84375 0.47461,0.17578 2.79492,0.8086 3.35742,0.89648 4.67578,1.47656 1.33594,0.5625 2.0918,1.65234 0.75586,1.08985 0.75586,2.70703 0,1.58204 -0.93164,2.98829 -0.91407,1.38867 -2.6543,2.1621 -1.74023,0.75586 -3.9375,0.75586 -3.63867,0 -5.55469,-1.51171 -1.89843,-1.51172 -2.42578,-4.48243 z m 19.26563,5.57227 v -25.76953 h 3.16406 v 9.24609 q 2.21484,-2.5664 5.58984,-2.5664 2.07422,0 3.60352,0.82617 1.5293,0.80859 2.17969,2.25 0.66796,1.4414 0.66796,4.18359 v 11.83008 h -3.16406 v -11.83008 q 0,-2.37305 -1.03711,-3.44531 -1.01953,-1.08985 -2.90039,-1.08985 -1.40625,0 -2.65429,0.73829 -1.23047,0.7207 -1.75782,1.96875 -0.52734,1.24804 -0.52734,3.44531 v 10.21289 z m 20.03906,-22.13086 v -3.63867 h 3.16406 v 3.63867 z m 0,22.13086 v -18.66797 h 3.16406 v 18.66797 z m 8.73633,0 v -16.20703 h -2.79492 v -2.46094 h 2.79492 v -1.98633 q 0,-1.88086 0.33398,-2.79492 0.45703,-1.23047 1.59961,-1.98633 1.16016,-0.77344 3.23438,-0.77344 1.33593,0 2.95312,0.31641 l -0.47461,2.75977 q -0.98437,-0.17578 -1.86328,-0.17578 -1.44141,0 -2.03906,0.61523 -0.59766,0.61523 -0.59766,2.30273 v 1.72266 h 3.63867 v 2.46094 h -3.63867 v 16.20703 z m 16.15429,-2.83008 0.45704,2.79492 q -1.33594,0.28125 -2.39063,0.28125 -1.72266,0 -2.67187,-0.54492 -0.94922,-0.54492 -1.33594,-1.42383 -0.38672,-0.89648 -0.38672,-3.74414 v -10.74023 h -2.32031 v -2.46094 h 2.32031 v -4.62305 l 3.14648,-1.89843 v 6.52148 h 3.18164 v 2.46094 h -3.18164 v 10.91601 q 0,1.35352 0.15821,1.74024 0.17578,0.38672 0.54492,0.61523 0.38672,0.22852 1.08984,0.22852 0.52735,0 1.38867,-0.12305 z m 13.06055,2.83008 v -18.66797 h 2.84766 v 2.83008 q 1.08984,-1.98633 2.0039,-2.61914 0.93164,-0.63281 2.03907,-0.63281 1.59961,0 3.25195,1.01953 l -1.08984,2.93554 q -1.16016,-0.68554 -2.32032,-0.68554 -1.03711,0 -1.86328,0.63281 -0.82617,0.61523 -1.17773,1.72266 -0.52735,1.6875 -0.52735,3.6914 v 9.77344 z m 10.8457,-9.33399 q 0,-5.18554 2.88282,-7.68164 2.4082,-2.07421 5.87109,-2.07421 3.84961,0 6.29297,2.53125 2.44336,2.51367 2.44336,6.96093 0,3.60352 -1.08985,5.67774 -1.07226,2.05664 -3.14648,3.19922 -2.05664,1.14257 -4.5,1.14257 -3.91992,0 -6.3457,-2.51367 -2.40821,-2.51367 -2.40821,-7.24219 z m 3.25196,0 q 0,3.58594 1.56445,5.37891 1.56445,1.77539 3.9375,1.77539 2.35547,0 3.91992,-1.79297 1.56446,-1.79297 1.56446,-5.46679 0,-3.46289 -1.58204,-5.23829 -1.56445,-1.79296 -3.90234,-1.79296 -2.37305,0 -3.9375,1.77539 -1.56445,1.77539 -1.56445,5.36132 z m 16.68164,3.76172 3.1289,-0.49218 q 0.26368,1.88086 1.45899,2.88281 1.21289,1.00195 3.375,1.00195 2.17969,0 3.23437,-0.8789 1.05469,-0.89649 1.05469,-2.0918 0,-1.07227 -0.93164,-1.6875 -0.65039,-0.42188 -3.23437,-1.07227 -3.48047,-0.8789 -4.83399,-1.51172 -1.33594,-0.65039 -2.03906,-1.77539 -0.68555,-1.14257 -0.68555,-2.51367 0,-1.24805 0.5625,-2.30273 0.58008,-1.07227 1.56445,-1.77539 0.73829,-0.54493 2.00391,-0.91407 1.2832,-0.38671 2.74219,-0.38671 2.19726,0 3.84961,0.63281 1.66992,0.63281 2.46094,1.72265 0.79101,1.07227 1.08984,2.88282 l -3.09375,0.42187 q -0.21094,-1.4414 -1.23047,-2.25 -1.00195,-0.80859 -2.84766,-0.80859 -2.17968,0 -3.11132,0.7207 -0.93164,0.7207 -0.93164,1.6875 0,0.61524 0.38671,1.10742 0.38672,0.50977 1.21289,0.84375 0.47461,0.17578 2.79493,0.8086 3.35742,0.89648 4.67578,1.47656 1.33594,0.5625 2.09179,1.65234 0.75586,1.08985 0.75586,2.70703 0,1.58204 -0.93164,2.98829 -0.91406,1.38867 -2.65429,2.1621 -1.74024,0.75586 -3.9375,0.75586 -3.63868,0 -5.55469,-1.51171 -1.89844,-1.51172 -2.42578,-4.48243 z m 26.17383,2.74219 0.45703,2.79492 q -1.33594,0.28125 -2.39063,0.28125 -1.72265,0 -2.67187,-0.54492 -0.94922,-0.54492 -1.33594,-1.42383 -0.38672,-0.89648 -0.38672,-3.74414 v -10.74023 h -2.32031 v -2.46094 h 2.32031 v -4.62305 l 3.14649,-1.89843 v 6.52148 h 3.18164 v 2.46094 h -3.18164 v 10.91601 q 0,1.35352 0.1582,1.74024 0.17578,0.38672 0.54492,0.61523 0.38672,0.22852 1.08984,0.22852 0.52735,0 1.38868,-0.12305 z m 15.87304,-3.18164 3.26953,0.4043 q -0.77343,2.86523 -2.86523,4.44726 -2.0918,1.58203 -5.34375,1.58203 -4.0957,0 -6.50391,-2.51367 -2.39062,-2.53125 -2.39062,-7.08398 0,-4.71094 2.42578,-7.3125 2.42578,-2.60156 6.29297,-2.60156 3.74414,0 6.11719,2.54882 2.37304,2.54883 2.37304,7.17188 0,0.28125 -0.0176,0.84375 h -13.92187 q 0.17578,3.07617 1.74023,4.71094 1.56446,1.63476 3.90235,1.63476 1.74023,0 2.9707,-0.91406 1.23047,-0.91406 1.95117,-2.91797 z m -10.38867,-5.11523 h 10.42383 q -0.21094,-2.35547 -1.19531,-3.53321 -1.51172,-1.82812 -3.91993,-1.82812 -2.17968,0 -3.67382,1.45898 -1.47657,1.45899 -1.63477,3.90235 z m 17.5957,11.12695 v -18.66797 h 2.84766 v 2.83008 q 1.08984,-1.98633 2.00391,-2.61914 0.93164,-0.63281 2.03906,-0.63281 1.59961,0 3.25195,1.01953 l -1.08984,2.93554 q -1.16016,-0.68554 -2.32031,-0.68554 -1.03711,0 -1.86329,0.63281 -0.82617,0.61523 -1.17773,1.72266 -0.52734,1.6875 -0.52734,3.6914 v 9.77344 z m 12.04102,-22.13086 v -3.63867 h 3.16406 v 3.63867 z m 0,22.13086 v -18.66797 h 3.16406 v 18.66797 z m 7.98047,0 v -18.66797 h 2.84765 v 2.6543 q 2.05665,-3.07617 5.94141,-3.07617 1.6875,0 3.09375,0.61523 1.42383,0.59766 2.12695,1.58203 0.70313,0.98438 0.98438,2.33789 0.17578,0.87891 0.17578,3.07617 v 11.47852 h -3.16406 v -11.35547 q 0,-1.93359 -0.36914,-2.88281 -0.36914,-0.9668 -1.31836,-1.5293 -0.93164,-0.58008 -2.19727,-0.58008 -2.02148,0 -3.49804,1.28321 -1.45899,1.2832 -1.45899,4.86914 v 10.19531 z m 19.4414,1.54687 3.07618,0.45704 q 0.19336,1.42382 1.07226,2.07421 1.17774,0.87891 3.2168,0.87891 2.19726,0 3.39258,-0.87891 1.19531,-0.8789 1.61718,-2.46093 0.2461,-0.9668 0.22852,-4.06055 -2.07422,2.44336 -5.16797,2.44336 -3.84961,0 -5.95898,-2.77734 -2.10938,-2.77735 -2.10938,-6.66211 0,-2.67188 0.9668,-4.92188 0.9668,-2.26758 2.79492,-3.49805 1.8457,-1.23046 4.32422,-1.23046 3.30469,0 5.44922,2.67187 v -2.25 h 2.91797 v 16.13672 q 0,4.35937 -0.89649,6.16992 -0.8789,1.82813 -2.8125,2.88281 -1.91601,1.05469 -4.72851,1.05469 -3.33985,0 -5.39649,-1.51172 -2.05664,-1.49414 -1.98633,-4.51758 z m 2.61915,-11.21484 q 0,3.67383 1.45898,5.36133 1.45898,1.6875 3.65625,1.6875 2.17969,0 3.65625,-1.66992 1.47656,-1.6875 1.47656,-5.27344 0,-3.42774 -1.52929,-5.16797 -1.51172,-1.74023 -3.65625,-1.74023 -2.10938,0 -3.58594,1.72265 -1.47656,1.70508 -1.47656,5.08008 z m 27.98437,9.66797 v -18.66797 h 2.83008 v 2.61914 q 0.8789,-1.37109 2.33789,-2.19726 1.45898,-0.84375 3.32226,-0.84375 2.07422,0 3.39258,0.86132 1.33594,0.86133 1.88086,2.40821 2.21485,-3.26953 5.76563,-3.26953 2.77734,0 4.27148,1.54687 1.49414,1.5293 1.49414,4.72852 v 12.81445 h -3.14648 v -11.75977 q 0,-1.89843 -0.31641,-2.72461 -0.29883,-0.84375 -1.10742,-1.35351 -0.80859,-0.50977 -1.89844,-0.50977 -1.96875,0 -3.26953,1.31836 -1.30078,1.30078 -1.30078,4.1836 v 10.8457 h -3.16406 v -12.12891 q 0,-2.10937 -0.77344,-3.16406 -0.77344,-1.05469 -2.53125,-1.05469 -1.33594,0 -2.47852,0.70313 -1.125,0.70312 -1.63476,2.05664 -0.50977,1.35351 -0.50977,3.90234 v 9.68555 z m 28.81055,-9.33399 q 0,-5.18554 2.88281,-7.68164 2.4082,-2.07421 5.87109,-2.07421 3.84961,0 6.29297,2.53125 2.44336,2.51367 2.44336,6.96093 0,3.60352 -1.08984,5.67774 -1.07227,2.05664 -3.14649,3.19922 -2.05664,1.14257 -4.5,1.14257 -3.91992,0 -6.3457,-2.51367 -2.4082,-2.51367 -2.4082,-7.24219 z m 3.25195,0 q 0,3.58594 1.56445,5.37891 1.56446,1.77539 3.9375,1.77539 2.35547,0 3.91993,-1.79297 1.56445,-1.79297 1.56445,-5.46679 0,-3.46289 -1.58203,-5.23829 -1.56446,-1.79296 -3.90235,-1.79296 -2.37304,0 -3.9375,1.77539 -1.56445,1.77539 -1.56445,5.36132 z m 30.05859,9.33399 v -2.35547 q -1.77539,2.77734 -5.2207,2.77734 -2.23242,0 -4.11328,-1.23046 -1.86328,-1.23047 -2.90039,-3.42774 -1.01953,-2.21484 -1.01953,-5.08008 0,-2.79492 0.93164,-5.0625 0.93164,-2.28515 2.79492,-3.49804 1.86328,-1.21289 4.16602,-1.21289 1.6875,0 3.00586,0.7207 1.31835,0.70312 2.14453,1.8457 v -9.24609 h 3.14648 v 25.76953 z m -10.00195,-9.31641 q 0,3.58594 1.51172,5.36133 1.51172,1.77539 3.56836,1.77539 2.07422,0 3.51562,-1.6875 1.45899,-1.70508 1.45899,-5.18555 0,-3.83203 -1.47656,-5.625 -1.47657,-1.79296 -3.63868,-1.79296 -2.10937,0 -3.5332,1.72265 -1.40625,1.72266 -1.40625,5.43164 z m 30.69141,3.30469 3.26953,0.4043 q -0.77344,2.86523 -2.86524,4.44726 -2.09179,1.58203 -5.34375,1.58203 -4.0957,0 -6.5039,-2.51367 -2.39063,-2.53125 -2.39063,-7.08398 0,-4.71094 2.42578,-7.3125 2.42579,-2.60156 6.29297,-2.60156 3.74414,0 6.11719,2.54882 2.37305,2.54883 2.37305,7.17188 0,0.28125 -0.0176,0.84375 h -13.92188 q 0.17579,3.07617 1.74024,4.71094 1.56445,1.63476 3.90234,1.63476 1.74024,0 2.97071,-0.91406 1.23046,-0.91406 1.95117,-2.91797 z m -10.38867,-5.11523 h 10.42382 q -0.21093,-2.35547 -1.19531,-3.53321 -1.51172,-1.82812 -3.91992,-1.82812 -2.17969,0 -3.67383,1.45898 -1.47656,1.45899 -1.63476,3.90235 z m 17.56054,11.12695 v -25.76953 h 3.16406 v 25.76953 z m 8.08594,-22.13086 v -3.63867 h 3.16406 v 3.63867 z m 0,22.13086 v -18.66797 h 3.16406 v 18.66797 z m 7.98047,0 v -18.66797 h 2.84765 v 2.6543 q 2.05665,-3.07617 5.94141,-3.07617 1.6875,0 3.09375,0.61523 1.42383,0.59766 2.12695,1.58203 0.70313,0.98438 0.98438,2.33789 0.17578,0.87891 0.17578,3.07617 v 11.47852 h -3.16406 v -11.35547 q 0,-1.93359 -0.36914,-2.88281 -0.36914,-0.9668 -1.31836,-1.5293 -0.93164,-0.58008 -2.19727,-0.58008 -2.02148,0 -3.49804,1.28321 -1.45899,1.2832 -1.45899,4.86914 v 10.19531 z m 19.4414,1.54687 3.07618,0.45704 q 0.19336,1.42382 1.07226,2.07421 1.17774,0.87891 3.2168,0.87891 2.19726,0 3.39258,-0.87891 1.19531,-0.8789 1.61718,-2.46093 0.2461,-0.9668 0.22852,-4.06055 -2.07422,2.44336 -5.16797,2.44336 -3.84961,0 -5.95898,-2.77734 -2.10938,-2.77735 -2.10938,-6.66211 0,-2.67188 0.9668,-4.92188 0.9668,-2.26758 2.79492,-3.49805 1.8457,-1.23046 4.32422,-1.23046 3.30469,0 5.44922,2.67187 v -2.25 h 2.91797 v 16.13672 q 0,4.35937 -0.89649,6.16992 -0.8789,1.82813 -2.8125,2.88281 -1.91601,1.05469 -4.72851,1.05469 -3.33985,0 -5.39649,-1.51172 -2.05664,-1.49414 -1.98633,-4.51758 z m 2.61915,-11.21484 q 0,3.67383 1.45898,5.36133 1.45898,1.6875 3.65625,1.6875 2.17969,0 3.65625,-1.66992 1.47656,-1.6875 1.47656,-5.27344 0,-3.42774 -1.52929,-5.16797 -1.51172,-1.74023 -3.65625,-1.74023 -2.10938,0 -3.58594,1.72265 -1.47656,1.70508 -1.47656,5.08008 z m 27.40429,11.21484 3.07617,0.45704 q 0.19336,1.42382 1.07227,2.07421 1.17773,0.87891 3.2168,0.87891 2.19726,0 3.39257,-0.87891 1.19532,-0.8789 1.61719,-2.46093 0.2461,-0.9668 0.22852,-4.06055 -2.07422,2.44336 -5.16797,2.44336 -3.84961,0 -5.95899,-2.77734 -2.10937,-2.77735 -2.10937,-6.66211 0,-2.67188 0.9668,-4.92188 0.96679,-2.26758 2.79492,-3.49805 1.8457,-1.23046 4.32422,-1.23046 3.30468,0 5.44922,2.67187 v -2.25 h 2.91796 v 16.13672 q 0,4.35937 -0.89648,6.16992 -0.87891,1.82813 -2.8125,2.88281 -1.91602,1.05469 -4.72852,1.05469 -3.33984,0 -5.39648,-1.51172 -2.05664,-1.49414 -1.98633,-4.51758 z m 2.61914,-11.21484 q 0,3.67383 1.45899,5.36133 1.45898,1.6875 3.65625,1.6875 2.17968,0 3.65625,-1.66992 1.47656,-1.6875 1.47656,-5.27344 0,-3.42774 -1.5293,-5.16797 -1.51172,-1.74023 -3.65625,-1.74023 -2.10937,0 -3.58593,1.72265 -1.47657,1.70508 -1.47657,5.08008 z m 30.2168,9.66797 v -2.74219 q -2.17969,3.16406 -5.92383,3.16406 -1.65234,0 -3.09375,-0.63281 -1.42383,-0.63281 -2.12695,-1.58203 -0.68555,-0.9668 -0.9668,-2.35547 -0.19336,-0.93164 -0.19336,-2.95312 v -11.56641 h 3.16406 v 10.35352 q 0,2.47851 0.19336,3.33984 0.29883,1.24805 1.26563,1.96875 0.9668,0.70312 2.39062,0.70312 1.42383,0 2.67188,-0.7207 1.24805,-0.73828 1.75781,-1.98633 0.52735,-1.26562 0.52735,-3.65625 v -10.00195 h 3.16406 v 18.66797 z m 7.80469,-22.13086 v -3.63867 h 3.16406 v 3.63867 z m 0,22.13086 v -18.66797 h 3.16406 v 18.66797 z m 20.09179,0 v -2.35547 q -1.77539,2.77734 -5.2207,2.77734 -2.23242,0 -4.11328,-1.23046 -1.86328,-1.23047 -2.90039,-3.42774 -1.01953,-2.21484 -1.01953,-5.08008 0,-2.79492 0.93164,-5.0625 0.93164,-2.28515 2.79492,-3.49804 1.86328,-1.21289 4.16602,-1.21289 1.6875,0 3.00586,0.7207 1.31835,0.70312 2.14453,1.8457 v -9.24609 h 3.14648 v 25.76953 z m -10.00195,-9.31641 q 0,3.58594 1.51172,5.36133 1.51172,1.77539 3.56836,1.77539 2.07422,0 3.51562,-1.6875 1.45899,-1.70508 1.45899,-5.18555 0,-3.83203 -1.47656,-5.625 -1.47657,-1.79296 -3.63868,-1.79296 -2.10937,0 -3.5332,1.72265 -1.40625,1.72266 -1.40625,5.43164 z m 30.69141,3.30469 3.26953,0.4043 q -0.77344,2.86523 -2.86524,4.44726 -2.09179,1.58203 -5.34375,1.58203 -4.0957,0 -6.5039,-2.51367 -2.39063,-2.53125 -2.39063,-7.08398 0,-4.71094 2.42578,-7.3125 2.42579,-2.60156 6.29297,-2.60156 3.74414,0 6.11719,2.54882 2.37305,2.54883 2.37305,7.17188 0,0.28125 -0.0176,0.84375 h -13.92188 q 0.17579,3.07617 1.74024,4.71094 1.56445,1.63476 3.90234,1.63476 1.74024,0 2.97071,-0.91406 1.23046,-0.91406 1.95117,-2.91797 z m -10.38867,-5.11523 h 10.42382 q -0.21093,-2.35547 -1.19531,-3.53321 -1.51172,-1.82812 -3.91992,-1.82812 -2.17969,0 -3.67383,1.45898 -1.47656,1.45899 -1.63476,3.90235 z"
       id="flowRoot4302"
       transform="translate(-20,262.36198)"
       aria-label="Employee shift rostering modeling guide" />
    <g
       id="g3709"
       transform="translate(0,19.999997)" />
    <flowRoot
       xml:space="preserve"
       id="flowRoot4157"
       style="font-style:normal;font-weight:normal;line-height:0.01%;font-family:sans-serif;letter-spacing:0px;word-spacing:0px;fill:#000000;fill-opacity:1;stroke:none"><flowRegion
         id="flowRegion4159"
         style="font-family:sans-serif"><rect
           id="rect4161"
           width="10.955056"
           height="72.471909"
           x="16.011236"
           y="-53.932568" /></flowRegion><flowPara
         id="flowPara4163"
         style="font-size:40px;line-height:1.25;font-family:sans-serif"> </flowPara></flowRoot>
    <flowRoot
       xml:space="preserve"
       id="flowRoot4140"
       style="font-style:normal;font-weight:normal;line-height:0.01%;font-family:sans-serif;letter-spacing:0px;word-spacing:0px;fill:#000000;fill-opacity:1;stroke:none;stroke-width:1px;stroke-linecap:butt;stroke-linejoin:miter;stroke-opacity:1"><flowRegion
         id="flowRegion4142"
         style="font-family:sans-serif"><rect
           id="rect4144"
           width="299.39639"
           height="103.82294"
           x="-49.496983"
           y="84.507042" /></flowRegion><flowPara
         id="flowPara4146"
         style="font-size:40px;line-height:1.25;font-family:sans-serif"> </flowPara></flowRoot>
    <rect
       ry="5"
       rx="4.999999"
       y="562.86279"
       x="220.5"
       height="29"
       width="159"
       id="rect4472"
       style="display:inline;opacity:0.5;fill:#8ae234;stroke:none" />
    <path
       style="font-style:italic;font-size:10px;line-height:1.25;font-family:'Liberation Sans';-inkscape-font-specification:'Arial Italic';text-align:center;text-anchor:middle;fill:#4e9a06"
       d="m 523.62793,52.013282 q -0.31738,0.366211 -0.71289,0.590821 -0.39063,0.219726 -0.78613,0.219726 -0.43457,0 -0.84473,-0.253906 -0.41016,-0.253906 -0.66895,-0.78125 -0.2539,-0.527344 -0.2539,-1.157226 0,-0.776368 0.39551,-1.552735 0.40039,-0.78125 0.99121,-1.171875 0.59082,-0.390625 1.14746,-0.390625 0.4248,0 0.81054,0.22461 0.38575,0.219726 0.66407,0.673828 l 0.16601,-0.756836 h 0.87403 l -0.70313,3.276367 q -0.14648,0.683594 -0.14648,0.756836 0,0.131836 0.0976,0.229492 0.10254,0.09277 0.24414,0.09277 0.25879,0 0.67871,-0.297851 0.55665,-0.390625 0.87891,-1.044922 0.32715,-0.65918 0.32715,-1.357422 0,-0.81543 -0.41992,-1.523437 -0.41504,-0.708008 -1.24512,-1.132813 -0.8252,-0.424805 -1.82617,-0.424805 -1.14258,0 -2.08985,0.53711 -0.94238,0.532226 -1.46484,1.533203 -0.51758,0.996094 -0.51758,2.138672 0,1.196289 0.51758,2.060547 0.52246,0.864258 1.50391,1.274414 0.98633,0.415039 2.18261,0.415039 1.2793,0 2.14356,-0.429688 0.86426,-0.429687 1.29394,-1.044922 h 0.88379 q -0.24902,0.512696 -0.85449,1.044922 -0.60547,0.532227 -1.44043,0.839844 -0.83496,0.3125 -2.01172,0.3125 -1.08398,0 -2.00195,-0.27832 -0.91309,-0.278321 -1.55762,-0.839844 -0.64453,-0.556641 -0.97168,-1.28418 -0.41015,-0.922851 -0.41015,-1.992187 0,-1.191406 0.48828,-2.270508 0.5957,-1.323242 1.68945,-2.026367 1.09863,-0.703125 2.66113,-0.703125 1.21094,0 2.17286,0.498047 0.96679,0.493164 1.52343,1.474609 0.47364,0.844727 0.47364,1.835938 0,1.416015 -0.9961,2.514648 -0.88867,0.986328 -1.94336,0.986328 -0.33691,0 -0.54687,-0.102539 -0.20508,-0.102539 -0.30274,-0.292969 -0.0635,-0.12207 -0.0928,-0.419922 z m -2.36328,-1.323242 q 0,0.668946 0.31738,1.040039 0.31738,0.371094 0.72754,0.371094 0.27344,0 0.57617,-0.161133 0.30274,-0.166015 0.57617,-0.488281 0.27832,-0.322266 0.45411,-0.81543 0.17578,-0.498047 0.17578,-0.996093 0,-0.664063 -0.33203,-1.030274 -0.32715,-0.366211 -0.80079,-0.366211 -0.3125,0 -0.59082,0.161133 -0.27343,0.15625 -0.53222,0.507813 -0.25879,0.351562 -0.41504,0.854492 -0.15625,0.502929 -0.15625,0.922851 z m 7.27539,2.119141 1.49902,-7.158203 h 2.98828 q 0.77637,0 1.16211,0.180664 0.39063,0.175781 0.64453,0.610351 0.25391,0.429688 0.25391,0.966797 0,0.444336 -0.18066,0.903321 -0.18067,0.458984 -0.45899,0.756836 -0.27344,0.297851 -0.55664,0.449218 -0.2832,0.151367 -0.60547,0.22461 -0.68847,0.161132 -1.3916,0.161132 h -1.79199 l -0.60547,2.905274 z m 1.7334,-3.71582 h 1.57715 q 0.91796,0 1.34765,-0.195313 0.42969,-0.200195 0.68848,-0.605469 0.25879,-0.405273 0.25879,-0.859375 0,-0.351562 -0.13672,-0.571289 -0.13672,-0.224609 -0.38574,-0.327148 -0.24903,-0.107422 -0.95703,-0.107422 h -1.83594 z m 4.77051,3.71582 1.49414,-7.158203 h 0.88378 l -1.49414,7.158203 z m 5.78613,-0.644531 q -0.45899,0.395507 -0.88379,0.581054 -0.42481,0.180664 -0.9082,0.180664 -0.71778,0 -1.15723,-0.419921 -0.43945,-0.424805 -0.43945,-1.083985 0,-0.43457 0.19531,-0.766601 0.20019,-0.336914 0.52734,-0.53711 0.32715,-0.205078 0.80078,-0.292969 0.29786,-0.05859 1.12793,-0.09277 0.83496,-0.03418 1.19629,-0.175781 0.10254,-0.361328 0.10254,-0.600586 0,-0.307617 -0.22461,-0.483399 -0.30762,-0.24414 -0.89844,-0.24414 -0.55664,0 -0.91308,0.249023 -0.35156,0.244141 -0.5127,0.698242 l -0.89355,-0.07813 q 0.27344,-0.771484 0.86426,-1.18164 0.5957,-0.410156 1.49902,-0.410156 0.96191,0 1.52344,0.458984 0.42968,0.341797 0.42968,0.888672 0,0.415039 -0.12207,0.961914 l -0.28808,1.289062 q -0.13672,0.615235 -0.13672,1.000977 0,0.244141 0.10742,0.703125 h -0.89355 q -0.0733,-0.253906 -0.10254,-0.644531 z m 0.32715,-1.982422 q -0.18555,0.07324 -0.40039,0.112304 -0.20997,0.03906 -0.70801,0.08301 -0.77149,0.06836 -1.08887,0.175782 -0.31738,0.102539 -0.47851,0.332031 -0.16114,0.229492 -0.16114,0.507812 0,0.371094 0.25391,0.610352 0.25879,0.239258 0.73242,0.239258 0.43945,0 0.84473,-0.229493 0.40527,-0.234375 0.63965,-0.649414 0.23437,-0.415039 0.36621,-1.18164 z m 1.73828,2.626953 1.08398,-5.185547 h 0.80078 l -0.19043,0.90332 q 0.52246,-0.532226 0.97657,-0.776367 0.4541,-0.24414 0.92773,-0.24414 0.62988,0 0.98633,0.341796 0.36133,0.341797 0.36133,0.913086 0,0.288086 -0.12696,0.908203 l -0.65918,3.139649 h -0.88379 l 0.68848,-3.286133 q 0.10254,-0.478516 0.10254,-0.708008 0,-0.258789 -0.18066,-0.419922 -0.17578,-0.161132 -0.5127,-0.161132 -0.67871,0 -1.21094,0.488281 -0.52734,0.488281 -0.77636,1.674805 l -0.50293,2.412109 z m 5.56152,0 1.08399,-5.185547 h 0.80078 l -0.19043,0.90332 q 0.52246,-0.532226 0.97656,-0.776367 0.4541,-0.24414 0.92773,-0.24414 0.62989,0 0.98633,0.341796 0.36133,0.341797 0.36133,0.913086 0,0.288086 -0.12695,0.908203 l -0.65918,3.139649 h -0.88379 l 0.68847,-3.286133 q 0.10254,-0.478516 0.10254,-0.708008 0,-0.258789 -0.18066,-0.419922 -0.17578,-0.161132 -0.5127,-0.161132 -0.67871,0 -1.21093,0.488281 -0.52735,0.488281 -0.77637,1.674805 l -0.50293,2.412109 z m 6.81641,-6.157227 0.20996,-1.000976 h 0.8789 l -0.20996,1.000976 z m -1.28907,6.157227 1.08399,-5.185547 h 0.88379 l -1.08399,5.185547 z m 2.25586,0 1.08399,-5.185547 h 0.80078 l -0.19043,0.90332 q 0.52246,-0.532226 0.97656,-0.776367 0.4541,-0.24414 0.92774,-0.24414 0.62988,0 0.98633,0.341796 0.36132,0.341797 0.36132,0.913086 0,0.288086 -0.12695,0.908203 l -0.65918,3.139649 h -0.88379 l 0.68848,-3.286133 q 0.10254,-0.478516 0.10254,-0.708008 0,-0.258789 -0.18067,-0.419922 -0.17578,-0.161132 -0.51269,-0.161132 -0.67871,0 -1.21094,0.488281 -0.52734,0.488281 -0.77637,1.674805 l -0.50293,2.412109 z m 5.5127,0.46875 0.89355,0.08301 q -0.01,0.302734 0.0733,0.454101 0.083,0.151367 0.26367,0.234375 0.23926,0.107422 0.62012,0.107422 0.80078,0 1.15234,-0.415039 0.22949,-0.27832 0.4248,-1.210937 l 0.0879,-0.419922 q -0.68847,0.698242 -1.46484,0.698242 -0.78613,0 -1.31836,-0.576172 -0.52734,-0.581055 -0.52734,-1.640625 0,-0.874023 0.41504,-1.606445 0.41992,-0.732422 0.99609,-1.103516 0.57617,-0.375976 1.18652,-0.375976 1.02051,0 1.57227,0.966796 l 0.17578,-0.849609 h 0.81055 l -1.04492,5.004883 q -0.1709,0.825195 -0.44922,1.28418 -0.27832,0.463867 -0.77637,0.717773 -0.49316,0.253906 -1.14258,0.253906 -0.625,0 -1.0791,-0.161133 -0.44922,-0.161132 -0.67383,-0.473632 -0.21972,-0.307618 -0.21972,-0.708008 0,-0.122071 0.0244,-0.263672 z m 1.10352,-2.763672 q 0,0.532227 0.10253,0.800781 0.14649,0.375977 0.41504,0.576172 0.27344,0.195313 0.60547,0.195313 0.43457,0 0.86426,-0.302735 0.42969,-0.307617 0.69336,-0.947265 0.26855,-0.639649 0.26855,-1.220703 0,-0.639649 -0.35644,-1.015625 -0.35156,-0.38086 -0.87402,-0.38086 -0.32227,0 -0.625,0.175781 -0.30274,0.170899 -0.56641,0.527344 -0.25879,0.351563 -0.39551,0.844727 -0.13183,0.493164 -0.13183,0.74707 z m 4.62402,2.294922 1.49902,-7.158203 h 5.16602 l -0.1709,0.815429 h -4.20899 l -0.46875,2.226563 h 4.10157 l -0.1709,0.81543 h -4.10156 l -0.51758,2.490234 h 4.50683 l -0.17089,0.810547 z m 6.55273,0 1.08399,-5.185547 h 0.80078 l -0.19043,0.90332 q 0.52246,-0.532226 0.97656,-0.776367 0.4541,-0.24414 0.92774,-0.24414 0.62988,0 0.98632,0.341796 0.36133,0.341797 0.36133,0.913086 0,0.288086 -0.12695,0.908203 l -0.65918,3.139649 h -0.88379 l 0.68848,-3.286133 q 0.10254,-0.478516 0.10254,-0.708008 0,-0.258789 -0.18067,-0.419922 -0.17578,-0.161132 -0.51269,-0.161132 -0.67871,0 -1.21094,0.488281 -0.52734,0.488281 -0.77637,1.674805 l -0.50293,2.412109 z m 7.62696,-0.717774 -0.14649,0.722657 q -0.31738,0.08301 -0.61523,0.08301 -0.52735,0 -0.83985,-0.25879 -0.23437,-0.195312 -0.23437,-0.532226 0,-0.170899 0.12695,-0.786133 l 0.62988,-3.012695 h -0.69824 l 0.1416,-0.683594 h 0.69825 l 0.26855,-1.274414 1.01074,-0.610352 -0.3955,1.884766 h 0.86914 l -0.14649,0.683594 h -0.86426 l -0.60058,2.866211 q -0.11231,0.546875 -0.11231,0.654297 0,0.15625 0.0879,0.239257 0.0928,0.08301 0.29786,0.08301 0.29296,0 0.52246,-0.05859 z m 1.96777,-5.439453 0.20996,-1.000976 h 0.87891 l -0.20996,1.000976 z m -1.28906,6.157227 1.08398,-5.185547 h 0.88379 l -1.08398,5.185547 z m 4.32129,-0.717774 -0.14649,0.722657 q -0.31738,0.08301 -0.61523,0.08301 -0.52735,0 -0.83985,-0.25879 -0.23437,-0.195312 -0.23437,-0.532226 0,-0.170899 0.12695,-0.786133 l 0.62988,-3.012695 h -0.69824 l 0.1416,-0.683594 h 0.69825 l 0.26855,-1.274414 1.01074,-0.610352 -0.3955,1.884766 h 0.86914 l -0.14649,0.683594 h -0.86426 l -0.60058,2.866211 q -0.11231,0.546875 -0.11231,0.654297 0,0.15625 0.0879,0.239257 0.0928,0.08301 0.29786,0.08301 0.29296,0 0.52246,-0.05859 z m 0.38086,2.719727 0.0537,-0.830078 q 0.27343,0.07813 0.53222,0.07813 0.26856,0 0.43457,-0.12207 0.21485,-0.161133 0.46875,-0.605469 l 0.28321,-0.507813 -0.86426,-5.200195 h 0.86914 l 0.39062,2.62207 q 0.11719,0.776368 0.2002,1.552735 l 2.31934,-4.174805 h 0.92285 l -3.30567,5.874023 q -0.47851,0.859375 -0.84961,1.137696 -0.37109,0.27832 -0.85449,0.27832 -0.30762,0 -0.60058,-0.102539 z"
       id="flowRoot4592"
       transform="translate(-255.48338,503.50571)"
       aria-label="@PlanningEntity" />
    <rect
       ry="5"
       rx="4.999999"
       y="562.86279"
       x="30.499998"
       height="29"
       width="119"
       id="rect4494"
       style="display:inline;fill:none;stroke:#000000;stroke-width:0.99999988;stroke-linecap:round;stroke-linejoin:round;stroke-miterlimit:4;stroke-dasharray:none" />
    <path
       style="font-size:20px;line-height:1.25;font-family:'Liberation Sans';-inkscape-font-specification:'Liberation Sans, Normal';text-align:center;text-anchor:middle"
       d="m 380.88867,47.192823 1.78711,-0.15625 q 0.12695,1.074219 0.58594,1.767578 0.46875,0.683594 1.44531,1.113281 0.97656,0.419922 2.19727,0.419922 1.08398,0 1.91406,-0.322266 0.83008,-0.322265 1.23047,-0.878906 0.41015,-0.566406 0.41015,-1.230469 0,-0.673828 -0.39062,-1.171875 -0.39063,-0.507812 -1.28906,-0.849609 -0.57618,-0.224609 -2.54883,-0.693359 -1.97266,-0.478516 -2.76367,-0.898438 -1.02539,-0.537109 -1.53321,-1.328125 -0.49804,-0.800781 -0.49804,-1.787109 0,-1.083985 0.61523,-2.021485 0.61524,-0.947265 1.79688,-1.435546 1.18164,-0.488282 2.62695,-0.488282 1.5918,0 2.80273,0.517578 1.22071,0.507813 1.875,1.503907 0.6543,0.996093 0.70313,2.255859 l -1.81641,0.136719 q -0.14648,-1.357422 -0.99609,-2.050781 -0.83985,-0.69336 -2.49024,-0.69336 -1.71875,0 -2.50976,0.634766 -0.78125,0.625 -0.78125,1.513672 0,0.771484 0.55664,1.269531 0.54687,0.498047 2.85156,1.025391 2.31445,0.517578 3.17383,0.908203 1.25,0.576172 1.8457,1.464843 0.59571,0.878907 0.59571,2.03125 0,1.142579 -0.6543,2.158204 -0.6543,1.005859 -1.88477,1.572265 -1.2207,0.556641 -2.7539,0.556641 -1.94336,0 -3.26172,-0.566406 -1.3086,-0.566407 -2.06055,-1.699219 -0.74219,-1.142578 -0.78125,-2.578125 z m 13.75977,4.599609 V 37.476026 h 1.75781 v 5.136719 q 1.23047,-1.425782 3.10547,-1.425782 1.15234,0 2.00195,0.458985 0.84961,0.449219 1.21094,1.25 0.37109,0.800781 0.37109,2.324219 v 6.572265 h -1.75781 v -6.572265 q 0,-1.31836 -0.57617,-1.914063 -0.56641,-0.605469 -1.61133,-0.605469 -0.78125,0 -1.47461,0.410157 -0.68359,0.40039 -0.97656,1.09375 -0.29297,0.693359 -0.29297,1.914062 v 5.673828 z M 405.78125,39.49751 v -2.021484 h 1.75781 v 2.021484 z m 0,12.294922 V 41.421338 h 1.75781 v 10.371094 z m 4.85352,0 v -9.003906 h -1.55274 v -1.367188 h 1.55274 v -1.103515 q 0,-1.044922 0.18554,-1.552735 0.25391,-0.683593 0.88867,-1.103515 0.64454,-0.429688 1.79688,-0.429688 0.74219,0 1.64062,0.175782 l -0.26367,1.533203 q -0.54687,-0.09766 -1.03515,-0.09766 -0.80079,0 -1.13282,0.341797 -0.33203,0.341797 -0.33203,1.279297 v 0.957031 h 2.02149 v 1.367188 h -2.02149 v 9.003906 z m 8.9746,-1.572265 0.25391,1.552734 q -0.74219,0.15625 -1.32812,0.15625 -0.95704,0 -1.48438,-0.302734 -0.52734,-0.302735 -0.74219,-0.791016 -0.21484,-0.498047 -0.21484,-2.080078 v -5.966797 h -1.28906 v -1.367188 h 1.28906 v -2.568359 l 1.74805,-1.054687 v 3.623046 h 1.76757 v 1.367188 h -1.76757 v 6.064453 q 0,0.751953 0.0879,0.966797 0.0976,0.214844 0.30273,0.341797 0.21485,0.126953 0.60547,0.126953 0.29297,0 0.77148,-0.06836 z"
       id="flowRoot4496"
       transform="translate(-309.99999,528.58573)"
       aria-label="Shift" />
    <rect
       style="display:inline;fill:none;stroke:#000000;stroke-width:0.99999988;stroke-linecap:round;stroke-linejoin:round;stroke-miterlimit:4;stroke-dasharray:none"
       id="rect4504"
       width="119"
       height="29"
       x="450.5"
       y="562.86279"
       rx="4.999999"
       ry="5" />
    <path
       style="font-size:20px;line-height:1.25;font-family:'Liberation Sans';-inkscape-font-specification:'Liberation Sans, Normal';text-align:center;text-anchor:middle"
       d="M 357.11426,51.792432 V 37.476026 h 10.35156 v 1.689453 h -8.45703 v 4.384766 h 7.91992 v 1.679687 h -7.91992 v 4.873047 h 8.78906 v 1.689453 z m 13.07617,0 V 41.421338 h 1.57227 v 1.455079 q 0.48828,-0.761719 1.29882,-1.220704 0.81055,-0.46875 1.84571,-0.46875 1.15234,0 1.88476,0.478516 0.74219,0.478516 1.04492,1.337891 1.23047,-1.816407 3.20313,-1.816407 1.54297,0 2.37305,0.859375 0.83007,0.84961 0.83007,2.626954 v 7.11914 h -1.74804 v -6.533203 q 0,-1.054687 -0.17578,-1.513672 -0.16602,-0.46875 -0.61524,-0.751953 -0.44922,-0.283203 -1.05469,-0.283203 -1.09375,0 -1.8164,0.732422 -0.72266,0.722656 -0.72266,2.324219 v 6.02539 h -1.75781 v -6.738281 q 0,-1.171875 -0.42969,-1.757813 -0.42969,-0.585937 -1.40625,-0.585937 -0.74219,0 -1.37695,0.390625 -0.625,0.390625 -0.9082,1.142578 -0.28321,0.751953 -0.28321,2.167969 v 5.380859 z m 16.66016,3.97461 V 41.421338 h 1.60156 v 1.347657 q 0.5664,-0.791016 1.2793,-1.181641 0.71289,-0.400391 1.72851,-0.400391 1.32813,0 2.34375,0.683594 1.01563,0.683594 1.5332,1.933594 0.51758,1.240234 0.51758,2.724609 0,1.591797 -0.57617,2.871094 -0.56641,1.269531 -1.66016,1.953125 -1.08398,0.673828 -2.28515,0.673828 -0.87891,0 -1.58203,-0.371094 -0.69336,-0.371093 -1.14258,-0.9375 v 5.048829 z m 1.59179,-9.101563 q 0,2.001953 0.81055,2.958984 0.81055,0.957032 1.96289,0.957032 1.17188,0 2.00195,-0.986328 0.83985,-0.996094 0.83985,-3.076172 0,-1.982422 -0.82032,-2.96875 -0.81054,-0.986328 -1.94335,-0.986328 -1.12305,0 -1.99219,1.054687 -0.85938,1.044922 -0.85938,3.046875 z m 9.49219,5.126953 V 37.476026 h 1.75781 v 14.316406 z m 3.82813,-5.185547 q 0,-2.880859 1.60156,-4.267578 1.33789,-1.152344 3.26172,-1.152344 2.13867,0 3.49609,1.40625 1.35742,1.396485 1.35742,3.867188 0,2.001953 -0.60547,3.154297 -0.5957,1.142578 -1.74804,1.777344 -1.14258,0.634765 -2.5,0.634765 -2.17774,0 -3.52539,-1.396484 -1.33789,-1.396485 -1.33789,-4.023438 z m 1.80664,0 q 0,1.992188 0.86914,2.988282 0.86914,0.986328 2.1875,0.986328 1.30859,0 2.17773,-0.996094 0.86914,-0.996094 0.86914,-3.037109 0,-1.923829 -0.8789,-2.910157 -0.86915,-0.996093 -2.16797,-0.996093 -1.31836,0 -2.1875,0.986328 -0.86914,0.986328 -0.86914,2.978515 z m 9.89257,9.179688 -0.19531,-1.650391 q 0.57617,0.15625 1.00586,0.15625 0.58594,0 0.9375,-0.195312 0.35156,-0.195313 0.57617,-0.546875 0.16602,-0.263672 0.53711,-1.308594 0.0488,-0.146484 0.15625,-0.429688 l -3.93554,-10.390625 h 1.89453 l 2.1582,6.00586 q 0.41992,1.142578 0.75195,2.402344 0.30274,-1.210938 0.72266,-2.363282 l 2.2168,-6.044922 h 1.75781 l -3.94531,10.546875 q -0.63477,1.708985 -0.98633,2.353516 -0.46875,0.869141 -1.07422,1.269531 -0.60547,0.410157 -1.44531,0.410157 -0.50782,0 -1.13282,-0.214844 z m 17.17774,-7.333985 1.8164,0.22461 q -0.42968,1.591797 -1.59179,2.470703 -1.16211,0.878906 -2.96875,0.878906 -2.27539,0 -3.61328,-1.396484 -1.32813,-1.40625 -1.32813,-3.935547 0,-2.617188 1.34766,-4.0625 1.34765,-1.445313 3.49609,-1.445313 2.08008,0 3.39844,1.416016 1.31836,1.416016 1.31836,3.984375 0,0.15625 -0.01,0.46875 h -7.73437 q 0.0976,1.708984 0.96679,2.617188 0.86915,0.908203 2.16797,0.908203 0.9668,0 1.65039,-0.507813 0.6836,-0.507812 1.08399,-1.621094 z m -5.77149,-2.841796 h 5.79102 q -0.11719,-1.308594 -0.66406,-1.962891 -0.83985,-1.015625 -2.17774,-1.015625 -1.21093,0 -2.04101,0.810547 -0.82032,0.810547 -0.90821,2.167969 z m 16.89454,2.841796 1.8164,0.22461 q -0.42969,1.591797 -1.5918,2.470703 -1.1621,0.878906 -2.96875,0.878906 -2.27539,0 -3.61328,-1.396484 -1.32812,-1.40625 -1.32812,-3.935547 0,-2.617188 1.34765,-4.0625 1.34766,-1.445313 3.4961,-1.445313 2.08008,0 3.39844,1.416016 1.31836,1.416016 1.31836,3.984375 0,0.15625 -0.01,0.46875 h -7.73438 q 0.0977,1.708984 0.9668,2.617188 0.86914,0.908203 2.16797,0.908203 0.9668,0 1.65039,-0.507813 0.68359,-0.507812 1.08399,-1.621094 z m -5.77149,-2.841796 h 5.79102 q -0.11719,-1.308594 -0.66407,-1.962891 -0.83984,-1.015625 -2.17773,-1.015625 -1.21094,0 -2.04102,0.810547 -0.82031,0.810547 -0.9082,2.167969 z"
       id="flowRoot4506"
       transform="translate(110.00001,528.58573)"
       aria-label="Employee" />
    <rect
       style="display:inline;fill:none;stroke:#000000;stroke-width:1;stroke-linecap:round;stroke-linejoin:round;stroke-miterlimit:4;stroke-dasharray:none"
       id="rect4514"
       width="159"
       height="29"
       x="220.5"
       y="562.86279"
       rx="4.9999995"
       ry="5" />
    <path
       style="font-size:20px;line-height:1.25;font-family:'Liberation Sans';-inkscape-font-specification:'Liberation Sans, Normal';text-align:center;text-anchor:middle"
       d="m 348.64258,47.192823 1.78711,-0.15625 q 0.12695,1.074219 0.58593,1.767578 0.46875,0.683594 1.44532,1.113281 0.97656,0.419922 2.19726,0.419922 1.08399,0 1.91407,-0.322266 0.83007,-0.322265 1.23046,-0.878906 0.41016,-0.566406 0.41016,-1.230469 0,-0.673828 -0.39062,-1.171875 -0.39063,-0.507812 -1.28907,-0.849609 -0.57617,-0.224609 -2.54883,-0.693359 -1.97265,-0.478516 -2.76367,-0.898438 -1.02539,-0.537109 -1.5332,-1.328125 -0.49805,-0.800781 -0.49805,-1.787109 0,-1.083985 0.61524,-2.021485 0.61523,-0.947265 1.79687,-1.435546 1.18164,-0.488282 2.62696,-0.488282 1.59179,0 2.80273,0.517578 1.2207,0.507813 1.875,1.503907 0.6543,0.996093 0.70312,2.255859 l -1.8164,0.136719 q -0.14649,-1.357422 -0.9961,-2.050781 -0.83984,-0.69336 -2.49023,-0.69336 -1.71875,0 -2.50977,0.634766 -0.78125,0.625 -0.78125,1.513672 0,0.771484 0.55665,1.269531 0.54687,0.498047 2.85156,1.025391 2.31445,0.517578 3.17383,0.908203 1.25,0.576172 1.8457,1.464843 0.5957,0.878907 0.5957,2.03125 0,1.142579 -0.65429,2.158204 -0.6543,1.005859 -1.88477,1.572265 -1.2207,0.556641 -2.75391,0.556641 -1.94336,0 -3.26172,-0.566406 -1.30859,-0.566407 -2.06054,-1.699219 -0.74219,-1.142578 -0.78125,-2.578125 z m 13.75976,4.599609 V 37.476026 h 1.75782 v 5.136719 q 1.23046,-1.425782 3.10546,-1.425782 1.15235,0 2.00196,0.458985 0.84961,0.449219 1.21094,1.25 0.37109,0.800781 0.37109,2.324219 v 6.572265 h -1.75781 v -6.572265 q 0,-1.31836 -0.57618,-1.914063 -0.5664,-0.605469 -1.61132,-0.605469 -0.78125,0 -1.47461,0.410157 -0.6836,0.40039 -0.97657,1.09375 -0.29296,0.693359 -0.29296,1.914062 v 5.673828 z M 373.53516,39.49751 v -2.021484 h 1.75781 v 2.021484 z m 0,12.294922 V 41.421338 h 1.75781 v 10.371094 z m 4.85351,0 v -9.003906 h -1.55273 v -1.367188 h 1.55273 v -1.103515 q 0,-1.044922 0.18555,-1.552735 0.2539,-0.683593 0.88867,-1.103515 0.64453,-0.429688 1.79688,-0.429688 0.74218,0 1.64062,0.175782 l -0.26367,1.533203 q -0.54688,-0.09766 -1.03516,-0.09766 -0.80078,0 -1.13281,0.341797 -0.33203,0.341797 -0.33203,1.279297 v 0.957031 h 2.02148 v 1.367188 h -2.02148 v 9.003906 z m 8.97461,-1.572265 0.25391,1.552734 q -0.74219,0.15625 -1.32813,0.15625 -0.95703,0 -1.48437,-0.302734 -0.52735,-0.302735 -0.74219,-0.791016 -0.21484,-0.498047 -0.21484,-2.080078 v -5.966797 h -1.28907 v -1.367188 h 1.28907 v -2.568359 l 1.74804,-1.054687 v 3.623046 h 1.76758 v 1.367188 h -1.76758 v 6.064453 q 0,0.751953 0.0879,0.966797 0.0977,0.214844 0.30274,0.341797 0.21484,0.126953 0.60547,0.126953 0.29297,0 0.77148,-0.06836 z m 0.37109,1.572265 5.49805,-14.316406 h 2.04102 l 5.85937,14.316406 h -2.1582 l -1.66992,-4.335937 h -5.98633 l -1.57227,4.335937 z m 4.13086,-5.878906 h 4.85352 l -1.49414,-3.964844 q -0.68359,-1.80664 -1.01563,-2.96875 -0.27343,1.376953 -0.77148,2.734375 z m 9.85352,2.783203 1.73828,-0.273437 q 0.14649,1.044921 0.81055,1.601562 0.67383,0.556641 1.875,0.556641 1.21094,0 1.79687,-0.488282 0.58594,-0.498046 0.58594,-1.162109 0,-0.595703 -0.51758,-0.9375 -0.36133,-0.234375 -1.79687,-0.595703 -1.9336,-0.488281 -2.68555,-0.839844 -0.74219,-0.361328 -1.13281,-0.986328 -0.38086,-0.634766 -0.38086,-1.396484 0,-0.69336 0.3125,-1.279297 0.32226,-0.595703 0.86914,-0.986328 0.41016,-0.302735 1.11328,-0.507813 0.71289,-0.214844 1.52344,-0.214844 1.2207,0 2.13867,0.351563 0.92773,0.351562 1.36719,0.957031 0.43945,0.595703 0.60547,1.601563 l -1.71875,0.234375 q -0.11719,-0.800782 -0.6836,-1.25 -0.55664,-0.449219 -1.58203,-0.449219 -1.21094,0 -1.72851,0.400391 -0.51758,0.40039 -0.51758,0.9375 0,0.341796 0.21484,0.615234 0.21484,0.283203 0.67383,0.46875 0.26367,0.09766 1.55273,0.449219 1.86524,0.498047 2.59766,0.820312 0.74219,0.3125 1.16211,0.917969 0.41992,0.605469 0.41992,1.503906 0,0.878906 -0.51758,1.660156 -0.50781,0.771485 -1.47461,1.201172 -0.96679,0.419922 -2.1875,0.419922 -2.02148,0 -3.08593,-0.839844 -1.05469,-0.839843 -1.34766,-2.490234 z m 10,0 1.73828,-0.273437 q 0.14649,1.044921 0.81055,1.601562 0.67383,0.556641 1.875,0.556641 1.21094,0 1.79687,-0.488282 0.58594,-0.498046 0.58594,-1.162109 0,-0.595703 -0.51758,-0.9375 -0.36133,-0.234375 -1.79687,-0.595703 -1.9336,-0.488281 -2.68555,-0.839844 -0.74219,-0.361328 -1.13281,-0.986328 -0.38086,-0.634766 -0.38086,-1.396484 0,-0.69336 0.3125,-1.279297 0.32226,-0.595703 0.86914,-0.986328 0.41016,-0.302735 1.11328,-0.507813 0.71289,-0.214844 1.52344,-0.214844 1.2207,0 2.13867,0.351563 0.92773,0.351562 1.36719,0.957031 0.43945,0.595703 0.60547,1.601563 l -1.71875,0.234375 q -0.11719,-0.800782 -0.6836,-1.25 -0.55664,-0.449219 -1.58203,-0.449219 -1.21094,0 -1.72851,0.400391 -0.51758,0.40039 -0.51758,0.9375 0,0.341796 0.21484,0.615234 0.21484,0.283203 0.67383,0.46875 0.26367,0.09766 1.55273,0.449219 1.86524,0.498047 2.59766,0.820312 0.74219,0.3125 1.16211,0.917969 0.41992,0.605469 0.41992,1.503906 0,0.878906 -0.51758,1.660156 -0.50781,0.771485 -1.47461,1.201172 -0.96679,0.419922 -2.1875,0.419922 -2.02148,0 -3.08593,-0.839844 -1.05469,-0.839843 -1.34766,-2.490234 z m 10.71289,-9.199219 v -2.021484 h 1.75781 v 2.021484 z m 0,12.294922 V 41.421338 h 1.75781 v 10.371094 z m 4.11133,0.859375 1.70898,0.253906 q 0.10742,0.791016 0.59571,1.152344 0.65429,0.488281 1.78711,0.488281 1.2207,0 1.88476,-0.488281 0.66406,-0.488281 0.89844,-1.367187 0.13672,-0.53711 0.12695,-2.25586 -1.15234,1.357422 -2.87109,1.357422 -2.13867,0 -3.31055,-1.542969 -1.17187,-1.542968 -1.17187,-3.701171 0,-1.484375 0.53711,-2.734375 0.5371,-1.259766 1.55273,-1.94336 1.02539,-0.683594 2.40234,-0.683594 1.83594,0 3.02735,1.484375 v -1.25 h 1.62109 v 8.964844 q 0,2.421875 -0.49805,3.427735 -0.48828,1.015625 -1.5625,1.601562 -1.06445,0.585938 -2.62695,0.585938 -1.85547,0 -2.99805,-0.839844 -1.14257,-0.830078 -1.10351,-2.509766 z m 1.45508,-6.230469 q 0,2.041016 0.81054,2.978516 0.81055,0.9375 2.03125,0.9375 1.21094,0 2.03125,-0.927734 0.82032,-0.9375 0.82032,-2.929688 0,-1.904297 -0.84961,-2.871094 -0.83985,-0.966796 -2.03125,-0.966796 -1.17188,0 -1.99219,0.957031 -0.82031,0.947265 -0.82031,2.822265 z m 9.99023,5.371094 V 41.421338 h 1.58203 v 1.47461 q 1.14258,-1.708985 3.30078,-1.708985 0.9375,0 1.71875,0.341797 0.79102,0.332032 1.18164,0.878907 0.39063,0.546875 0.54688,1.298828 0.0977,0.488281 0.0977,1.708984 v 6.376953 h -1.75782 v -6.308594 q 0,-1.074218 -0.20508,-1.601562 -0.20507,-0.537109 -0.73242,-0.849609 -0.51758,-0.322266 -1.2207,-0.322266 -1.12305,0 -1.94336,0.712891 -0.81055,0.71289 -0.81055,2.705078 v 5.664062 z m 11.12305,0 V 41.421338 h 1.57226 v 1.455079 q 0.48828,-0.761719 1.29883,-1.220704 0.81055,-0.46875 1.8457,-0.46875 1.15235,0 1.88477,0.478516 0.74219,0.478516 1.04492,1.337891 1.23047,-1.816407 3.20313,-1.816407 1.54297,0 2.37304,0.859375 0.83008,0.84961 0.83008,2.626954 v 7.11914 h -1.74804 v -6.533203 q 0,-1.054687 -0.17579,-1.513672 -0.16601,-0.46875 -0.61523,-0.751953 -0.44922,-0.283203 -1.05469,-0.283203 -1.09375,0 -1.8164,0.732422 -0.72266,0.722656 -0.72266,2.324219 v 6.02539 h -1.75781 v -6.738281 q 0,-1.171875 -0.42969,-1.757813 -0.42969,-0.585937 -1.40625,-0.585937 -0.74219,0 -1.37695,0.390625 -0.625,0.390625 -0.90821,1.142578 -0.2832,0.751953 -0.2832,2.167969 v 5.380859 z m 23.75976,-3.339844 1.81641,0.22461 q -0.42969,1.591797 -1.5918,2.470703 -1.16211,0.878906 -2.96875,0.878906 -2.27539,0 -3.61328,-1.396484 -1.32812,-1.40625 -1.32812,-3.935547 0,-2.617188 1.34765,-4.0625 1.34766,-1.445313 3.4961,-1.445313 2.08007,0 3.39843,1.416016 1.31836,1.416016 1.31836,3.984375 0,0.15625 -0.01,0.46875 h -7.73438 q 0.0977,1.708984 0.9668,2.617188 0.86914,0.908203 2.16797,0.908203 0.9668,0 1.65039,-0.507813 0.68359,-0.507812 1.08398,-1.621094 z m -5.77148,-2.841796 h 5.79101 q -0.11718,-1.308594 -0.66406,-1.962891 -0.83984,-1.015625 -2.17773,-1.015625 -1.21094,0 -2.04102,0.810547 -0.82031,0.810547 -0.9082,2.167969 z m 9.79492,6.18164 V 41.421338 h 1.58203 v 1.47461 q 1.14258,-1.708985 3.30078,-1.708985 0.9375,0 1.71875,0.341797 0.79102,0.332032 1.18164,0.878907 0.39063,0.546875 0.54688,1.298828 0.0977,0.488281 0.0977,1.708984 v 6.376953 h -1.75782 v -6.308594 q 0,-1.074218 -0.20508,-1.601562 -0.20507,-0.537109 -0.73242,-0.849609 -0.51758,-0.322266 -1.2207,-0.322266 -1.12305,0 -1.94336,0.712891 -0.81055,0.71289 -0.81055,2.705078 v 5.664062 z m 14.96094,-1.572265 0.2539,1.552734 q -0.74218,0.15625 -1.32812,0.15625 -0.95703,0 -1.48438,-0.302734 -0.52734,-0.302735 -0.74218,-0.791016 -0.21485,-0.498047 -0.21485,-2.080078 v -5.966797 h -1.28906 v -1.367188 h 1.28906 v -2.568359 l 1.74805,-1.054687 v 3.623046 h 1.76758 v 1.367188 h -1.76758 v 6.064453 q 0,0.751953 0.0879,0.966797 0.0977,0.214844 0.30274,0.341797 0.21484,0.126953 0.60546,0.126953 0.29297,0 0.77149,-0.06836 z"
       id="flowRoot4516"
       transform="translate(-119.99998,528.58574)"
       aria-label="ShiftAssignment" />
    <g
       id="flowRoot4544"
       style="line-height:0.01%;font-family:'Liberation Sans';-inkscape-font-specification:'Liberation Sans, Normal';text-align:center;text-anchor:middle;fill:#555753"
       transform="translate(-309.99999,568.58594)"
       aria-label="1 Feb 06:00-14:00&#10;1 Feb 14:00-22:00&#10;1 Feb 22:00-06:00&#10;2 Feb 06:00-14:00">
      <path
         style="font-size:15px;line-height:1.25"
         d="m 344.29199,47.28866 h -1.31836 v -8.400879 q -0.47607,0.454102 -1.25244,0.908203 -0.76904,0.454102 -1.38428,0.681153 v -1.274414 q 1.10596,-0.52002 1.9336,-1.259766 0.82763,-0.739746 1.17187,-1.435547 h 0.84961 z m 8.15186,0 V 36.551355 h 7.24365 v 1.26709 h -5.82275 v 3.325196 h 5.03906 v 1.267089 h -5.03906 v 4.87793 z m 14.2456,-2.504883 1.36231,0.168457 q -0.32227,1.193848 -1.19385,1.853028 -0.87158,0.659179 -2.22656,0.659179 -1.70655,0 -2.70996,-1.047363 -0.9961,-1.054687 -0.9961,-2.95166 0,-1.962891 1.01075,-3.046875 1.01074,-1.083984 2.62207,-1.083984 1.56005,0 2.54882,1.062011 0.98877,1.062012 0.98877,2.988281 0,0.117188 -0.007,0.351563 h -5.80078 q 0.0732,1.281738 0.7251,1.962891 0.65185,0.681152 1.62597,0.681152 0.7251,0 1.23779,-0.380859 0.5127,-0.38086 0.81299,-1.215821 z m -4.32861,-2.131347 h 4.34326 q -0.0879,-0.981446 -0.49805,-1.472168 -0.62988,-0.761719 -1.6333,-0.761719 -0.9082,0 -1.53076,0.60791 -0.61523,0.60791 -0.68115,1.625977 z m 8.56201,4.63623 h -1.22314 V 36.551355 h 1.31836 v 3.830567 q 0.83496,-1.047363 2.13134,-1.047363 0.71778,0 1.35498,0.292968 0.64454,0.285645 1.05469,0.812989 0.41748,0.520019 0.65186,1.259765 0.23437,0.739746 0.23437,1.582031 0,1.999512 -0.98877,3.090821 -0.98877,1.091308 -2.37304,1.091308 -1.37696,0 -2.16065,-1.149902 z m -0.0146,-3.947754 q 0,1.398926 0.38086,2.021485 0.62256,1.018066 1.68457,1.018066 0.86426,0 1.49414,-0.74707 0.62989,-0.754395 0.62989,-2.241211 0,-1.523438 -0.60791,-2.248535 -0.60059,-0.725098 -1.45752,-0.725098 -0.86426,0 -1.49414,0.754394 -0.62989,0.747071 -0.62989,2.167969 z m 10.94239,-1.347656 q 0,-1.904297 0.38818,-3.061524 0.39551,-1.16455 1.16455,-1.794433 0.77637,-0.629883 1.94824,-0.629883 0.86426,0 1.51612,0.351563 0.65185,0.344238 1.07666,1.003418 0.4248,0.651855 0.6665,1.596679 0.2417,0.9375 0.2417,2.53418 0,1.889648 -0.38818,3.054199 -0.38819,1.157227 -1.16456,1.794434 -0.76904,0.629883 -1.94824,0.629883 -1.55273,0 -2.43896,-1.113282 -1.06201,-1.340332 -1.06201,-4.365234 z m 1.35498,0 q 0,2.644043 0.61523,3.522949 0.62256,0.871582 1.53076,0.871582 0.90821,0 1.52344,-0.878906 0.62256,-0.878906 0.62256,-3.515625 0,-2.651367 -0.62256,-3.522949 -0.61523,-0.871582 -1.53809,-0.871582 -0.9082,0 -1.45019,0.769043 -0.68115,0.981445 -0.68115,3.625488 z m 13.82812,-2.8125 -1.31103,0.102539 q -0.17579,-0.776367 -0.49805,-1.12793 -0.53467,-0.563965 -1.31836,-0.563965 -0.62988,0 -1.10596,0.351563 -0.62256,0.454102 -0.98144,1.325684 -0.35889,0.871582 -0.37354,2.48291 0.47608,-0.725098 1.16455,-1.07666 0.68848,-0.351563 1.44287,-0.351563 1.31836,0 2.24122,0.974121 0.93017,0.966797 0.93017,2.504883 0,1.010742 -0.43945,1.882324 -0.43213,0.864258 -1.19385,1.325684 -0.76172,0.461426 -1.72852,0.461426 -1.64794,0 -2.68798,-1.208497 -1.04004,-1.21582 -1.04004,-3.999023 0,-3.112793 1.1499,-4.526367 1.00342,-1.230469 2.70264,-1.230469 1.26709,0 2.07275,0.710449 0.81299,0.71045 0.97412,1.962891 z m -5.3833,4.628906 q 0,0.681153 0.28565,1.303711 0.29296,0.622559 0.81298,0.952149 0.52002,0.322265 1.09131,0.322265 0.83496,0 1.43555,-0.673828 0.60058,-0.673828 0.60058,-1.831055 0,-1.113281 -0.59326,-1.750488 -0.59326,-0.644531 -1.49414,-0.644531 -0.89355,0 -1.51611,0.644531 -0.62256,0.637207 -0.62256,1.677246 z m 7.61719,-2.797851 V 39.51034 h 1.50146 v 1.501465 z m 0,6.276855 v -1.501465 h 1.50146 v 1.501465 z m 3.43506,-5.29541 q 0,-1.904297 0.38818,-3.061524 0.39551,-1.16455 1.16455,-1.794433 0.77637,-0.629883 1.94824,-0.629883 0.86426,0 1.51612,0.351563 0.65185,0.344238 1.07666,1.003418 0.4248,0.651855 0.6665,1.596679 0.2417,0.9375 0.2417,2.53418 0,1.889648 -0.38818,3.054199 -0.38819,1.157227 -1.16455,1.794434 -0.76905,0.629883 -1.94825,0.629883 -1.55273,0 -2.43896,-1.113282 -1.06201,-1.340332 -1.06201,-4.365234 z m 1.35498,0 q 0,2.644043 0.61523,3.522949 0.62256,0.871582 1.53076,0.871582 0.90821,0 1.52344,-0.878906 0.62256,-0.878906 0.62256,-3.515625 0,-2.651367 -0.62256,-3.522949 -0.61523,-0.871582 -1.53809,-0.871582 -0.9082,0 -1.45019,0.769043 -0.68115,0.981445 -0.68115,3.625488 z m 6.9873,0 q 0,-1.904297 0.38819,-3.061524 0.3955,-1.16455 1.16455,-1.794433 0.77636,-0.629883 1.94824,-0.629883 0.86426,0 1.51611,0.351563 0.65186,0.344238 1.07666,1.003418 0.42481,0.651855 0.66651,1.596679 0.24169,0.9375 0.24169,2.53418 0,1.889648 -0.38818,3.054199 -0.38818,1.157227 -1.16455,1.794434 -0.76904,0.629883 -1.94824,0.629883 -1.55274,0 -2.43897,-1.113282 -1.06201,-1.340332 -1.06201,-4.365234 z m 1.35498,0 q 0,2.644043 0.61524,3.522949 0.62256,0.871582 1.53076,0.871582 0.9082,0 1.52344,-0.878906 0.62255,-0.878906 0.62255,-3.515625 0,-2.651367 -0.62255,-3.522949 -0.61524,-0.871582 -1.53809,-0.871582 -0.9082,0 -1.4502,0.769043 -0.68115,0.981445 -0.68115,3.625488 z m 6.84082,2.072754 V 42.74032 h 4.0503 v 1.325684 z m 10.10742,3.222656 h -1.31835 v -8.400879 q -0.47608,0.454102 -1.25245,0.908203 -0.76904,0.454102 -1.38427,0.681153 v -1.274414 q 1.10595,-0.52002 1.93359,-1.259766 0.82764,-0.739746 1.17188,-1.435547 h 0.8496 z m 7.60254,0 v -2.570801 h -4.6582 v -1.208496 l 4.8999,-6.958008 h 1.07666 v 6.958008 h 1.4502 v 1.208496 h -1.4502 v 2.570801 z m 0,-3.779297 v -4.841308 l -3.36181,4.841308 z m 4.84864,-2.497558 V 39.51034 h 1.50146 v 1.501465 z m 0,6.276855 v -1.501465 h 1.50146 v 1.501465 z m 3.43505,-5.29541 q 0,-1.904297 0.38819,-3.061524 0.39551,-1.16455 1.16455,-1.794433 0.77637,-0.629883 1.94824,-0.629883 0.86426,0 1.51611,0.351563 0.65186,0.344238 1.07666,1.003418 0.42481,0.651855 0.66651,1.596679 0.2417,0.9375 0.2417,2.53418 0,1.889648 -0.38819,3.054199 -0.38818,1.157227 -1.16455,1.794434 -0.76904,0.629883 -1.94824,0.629883 -1.55273,0 -2.43896,-1.113282 -1.06202,-1.340332 -1.06202,-4.365234 z m 1.35499,0 q 0,2.644043 0.61523,3.522949 0.62256,0.871582 1.53076,0.871582 0.9082,0 1.52344,-0.878906 0.62256,-0.878906 0.62256,-3.515625 0,-2.651367 -0.62256,-3.522949 -0.61524,-0.871582 -1.53809,-0.871582 -0.9082,0 -1.45019,0.769043 -0.68115,0.981445 -0.68115,3.625488 z m 6.9873,0 q 0,-1.904297 0.38818,-3.061524 0.39551,-1.16455 1.16455,-1.794433 0.77637,-0.629883 1.94825,-0.629883 0.86425,0 1.51611,0.351563 0.65186,0.344238 1.07666,1.003418 0.4248,0.651855 0.6665,1.596679 0.2417,0.9375 0.2417,2.53418 0,1.889648 -0.38818,3.054199 -0.38818,1.157227 -1.16455,1.794434 -0.76904,0.629883 -1.94824,0.629883 -1.55274,0 -2.43897,-1.113282 -1.06201,-1.340332 -1.06201,-4.365234 z m 1.35498,0 q 0,2.644043 0.61523,3.522949 0.62256,0.871582 1.53077,0.871582 0.9082,0 1.52343,-0.878906 0.62256,-0.878906 0.62256,-3.515625 0,-2.651367 -0.62256,-3.522949 -0.61523,-0.871582 -1.53808,-0.871582 -0.9082,0 -1.4502,0.769043 -0.68115,0.981445 -0.68115,3.625488 z"
         id="path1" />
      <path
         style="font-size:15px;line-height:1.25"
         d="m 344.29199,66.03866 h -1.31836 v -8.400879 q -0.47607,0.454102 -1.25244,0.908203 -0.76904,0.454102 -1.38428,0.681153 v -1.274414 q 1.10596,-0.52002 1.9336,-1.259766 0.82763,-0.739746 1.17187,-1.435547 h 0.84961 z m 8.15186,0 V 55.301355 h 7.24365 v 1.26709 h -5.82275 v 3.325196 h 5.03906 v 1.267089 h -5.03906 v 4.87793 z m 14.2456,-2.504883 1.36231,0.168457 q -0.32227,1.193848 -1.19385,1.853028 -0.87158,0.659179 -2.22656,0.659179 -1.70655,0 -2.70996,-1.047363 -0.9961,-1.054687 -0.9961,-2.95166 0,-1.962891 1.01075,-3.046875 1.01074,-1.083984 2.62207,-1.083984 1.56005,0 2.54882,1.062011 0.98877,1.062012 0.98877,2.988281 0,0.117188 -0.007,0.351563 h -5.80078 q 0.0732,1.281738 0.7251,1.962891 0.65185,0.681152 1.62597,0.681152 0.7251,0 1.23779,-0.380859 0.5127,-0.38086 0.81299,-1.215821 z m -4.32861,-2.131347 h 4.34326 q -0.0879,-0.981446 -0.49805,-1.472168 -0.62988,-0.761719 -1.6333,-0.761719 -0.9082,0 -1.53076,0.60791 -0.61523,0.60791 -0.68115,1.625977 z m 8.56201,4.63623 h -1.22314 V 55.301355 h 1.31836 v 3.830567 q 0.83496,-1.047363 2.13134,-1.047363 0.71778,0 1.35498,0.292968 0.64454,0.285645 1.05469,0.812989 0.41748,0.520019 0.65186,1.259765 0.23437,0.739746 0.23437,1.582031 0,1.999512 -0.98877,3.090821 -0.98877,1.091308 -2.37304,1.091308 -1.37696,0 -2.16065,-1.149902 z m -0.0146,-3.947754 q 0,1.398926 0.38086,2.021485 0.62256,1.018066 1.68457,1.018066 0.86426,0 1.49414,-0.74707 0.62989,-0.754395 0.62989,-2.241211 0,-1.523438 -0.60791,-2.248535 -0.60059,-0.725098 -1.45752,-0.725098 -0.86426,0 -1.49414,0.754394 -0.62989,0.747071 -0.62989,2.167969 z m 15.90821,3.947754 h -1.31836 v -8.400879 q -0.47608,0.454102 -1.25244,0.908203 -0.76905,0.454102 -1.38428,0.681153 v -1.274414 q 1.10596,-0.52002 1.93359,-1.259766 0.82764,-0.739746 1.17188,-1.435547 h 0.84961 z m 7.60254,0 v -2.570801 h -4.65821 v -1.208496 l 4.8999,-6.958008 h 1.07666 v 6.958008 h 1.4502 v 1.208496 h -1.4502 v 2.570801 z m 0,-3.779297 v -4.841308 l -3.36182,4.841308 z m 4.84863,-2.497558 V 58.26034 h 1.50146 v 1.501465 z m 0,6.276855 v -1.501465 h 1.50146 v 1.501465 z m 3.43506,-5.29541 q 0,-1.904297 0.38818,-3.061524 0.39551,-1.16455 1.16455,-1.794433 0.77637,-0.629883 1.94824,-0.629883 0.86426,0 1.51612,0.351563 0.65185,0.344238 1.07666,1.003418 0.4248,0.651855 0.6665,1.596679 0.2417,0.9375 0.2417,2.53418 0,1.889648 -0.38818,3.054199 -0.38819,1.157227 -1.16455,1.794434 -0.76905,0.629883 -1.94825,0.629883 -1.55273,0 -2.43896,-1.113282 -1.06201,-1.340332 -1.06201,-4.365234 z m 1.35498,0 q 0,2.644043 0.61523,3.522949 0.62256,0.871582 1.53076,0.871582 0.90821,0 1.52344,-0.878906 0.62256,-0.878906 0.62256,-3.515625 0,-2.651367 -0.62256,-3.522949 -0.61523,-0.871582 -1.53809,-0.871582 -0.9082,0 -1.45019,0.769043 -0.68115,0.981445 -0.68115,3.625488 z m 6.9873,0 q 0,-1.904297 0.38819,-3.061524 0.3955,-1.16455 1.16455,-1.794433 0.77636,-0.629883 1.94824,-0.629883 0.86426,0 1.51611,0.351563 0.65186,0.344238 1.07666,1.003418 0.42481,0.651855 0.66651,1.596679 0.24169,0.9375 0.24169,2.53418 0,1.889648 -0.38818,3.054199 -0.38818,1.157227 -1.16455,1.794434 -0.76904,0.629883 -1.94824,0.629883 -1.55274,0 -2.43897,-1.113282 -1.06201,-1.340332 -1.06201,-4.365234 z m 1.35498,0 q 0,2.644043 0.61524,3.522949 0.62256,0.871582 1.53076,0.871582 0.9082,0 1.52344,-0.878906 0.62255,-0.878906 0.62255,-3.515625 0,-2.651367 -0.62255,-3.522949 -0.61524,-0.871582 -1.53809,-0.871582 -0.9082,0 -1.4502,0.769043 -0.68115,0.981445 -0.68115,3.625488 z m 6.84082,2.072754 V 61.49032 h 4.0503 v 1.325684 z m 12.07032,1.955566 v 1.26709 h -7.09717 q -0.0146,-0.476074 0.15381,-0.915527 0.27099,-0.725098 0.86425,-1.428223 0.60059,-0.703125 1.72852,-1.625976 1.75049,-1.435547 2.36572,-2.270508 0.61524,-0.842285 0.61524,-1.589356 0,-0.783691 -0.56397,-1.318359 -0.55664,-0.541992 -1.45752,-0.541992 -0.95215,0 -1.52344,0.571289 -0.57128,0.571289 -0.57861,1.582031 l -1.35498,-0.13916 q 0.13916,-1.516113 1.04736,-2.307129 0.90821,-0.79834 2.43897,-0.79834 1.54541,0 2.44629,0.856934 0.90088,0.856933 0.90088,2.124023 0,0.644531 -0.26368,1.26709 -0.26367,0.622559 -0.8789,1.311035 -0.60791,0.688477 -2.02881,1.889649 -1.18652,0.996093 -1.52344,1.35498 -0.33691,0.351563 -0.55664,0.710449 z m 8.34228,0 v 1.26709 h -7.09717 q -0.0147,-0.476074 0.15381,-0.915527 0.271,-0.725098 0.86426,-1.428223 0.60058,-0.703125 1.72851,-1.625976 1.75049,-1.435547 2.36573,-2.270508 0.61523,-0.842285 0.61523,-1.589356 0,-0.783691 -0.56396,-1.318359 -0.55664,-0.541992 -1.45752,-0.541992 -0.95215,0 -1.52344,0.571289 -0.57129,0.571289 -0.57861,1.582031 l -1.35498,-0.13916 q 0.13916,-1.516113 1.04736,-2.307129 0.9082,-0.79834 2.43896,-0.79834 1.54541,0 2.44629,0.856934 0.90088,0.856933 0.90088,2.124023 0,0.644531 -0.26367,1.26709 -0.26367,0.622559 -0.87891,1.311035 -0.60791,0.688477 -2.0288,1.889649 -1.18653,0.996093 -1.52344,1.35498 -0.33692,0.351563 -0.55664,0.710449 z m 2.146,-5.009765 V 58.26034 h 1.50146 v 1.501465 z m 0,6.276855 v -1.501465 h 1.50146 v 1.501465 z m 3.43505,-5.29541 q 0,-1.904297 0.38819,-3.061524 0.39551,-1.16455 1.16455,-1.794433 0.77637,-0.629883 1.94824,-0.629883 0.86426,0 1.51611,0.351563 0.65186,0.344238 1.07666,1.003418 0.42481,0.651855 0.66651,1.596679 0.2417,0.9375 0.2417,2.53418 0,1.889648 -0.38819,3.054199 -0.38818,1.157227 -1.16455,1.794434 -0.76904,0.629883 -1.94824,0.629883 -1.55273,0 -2.43896,-1.113282 -1.06202,-1.340332 -1.06202,-4.365234 z m 1.35499,0 q 0,2.644043 0.61523,3.522949 0.62256,0.871582 1.53076,0.871582 0.9082,0 1.52344,-0.878906 0.62256,-0.878906 0.62256,-3.515625 0,-2.651367 -0.62256,-3.522949 -0.61524,-0.871582 -1.53809,-0.871582 -0.9082,0 -1.45019,0.769043 -0.68115,0.981445 -0.68115,3.625488 z m 6.9873,0 q 0,-1.904297 0.38818,-3.061524 0.39551,-1.16455 1.16455,-1.794433 0.77637,-0.629883 1.94825,-0.629883 0.86425,0 1.51611,0.351563 0.65186,0.344238 1.07666,1.003418 0.4248,0.651855 0.6665,1.596679 0.2417,0.9375 0.2417,2.53418 0,1.889648 -0.38818,3.054199 -0.38818,1.157227 -1.16455,1.794434 -0.76904,0.629883 -1.94824,0.629883 -1.55274,0 -2.43897,-1.113282 -1.06201,-1.340332 -1.06201,-4.365234 z m 1.35498,0 q 0,2.644043 0.61523,3.522949 0.62256,0.871582 1.53077,0.871582 0.9082,0 1.52343,-0.878906 0.62256,-0.878906 0.62256,-3.515625 0,-2.651367 -0.62256,-3.522949 -0.61523,-0.871582 -1.53808,-0.871582 -0.9082,0 -1.4502,0.769043 -0.68115,0.981445 -0.68115,3.625488 z"
         id="path2" />
      <path
         style="font-size:15px;line-height:1.25"
         d="m 344.29199,84.78866 h -1.31836 v -8.400879 q -0.47607,0.454102 -1.25244,0.908203 -0.76904,0.454102 -1.38428,0.681153 v -1.274414 q 1.10596,-0.52002 1.9336,-1.259766 0.82763,-0.739746 1.17187,-1.435547 h 0.84961 z m 8.15186,0 V 74.051355 h 7.24365 v 1.26709 h -5.82275 v 3.325196 h 5.03906 v 1.267089 h -5.03906 v 4.87793 z m 14.2456,-2.504883 1.36231,0.168457 q -0.32227,1.193848 -1.19385,1.853028 -0.87158,0.659179 -2.22656,0.659179 -1.70655,0 -2.70996,-1.047363 -0.9961,-1.054687 -0.9961,-2.95166 0,-1.962891 1.01075,-3.046875 1.01074,-1.083984 2.62207,-1.083984 1.56005,0 2.54882,1.062011 0.98877,1.062012 0.98877,2.988281 0,0.117188 -0.007,0.351563 h -5.80078 q 0.0732,1.281738 0.7251,1.962891 0.65185,0.681152 1.62597,0.681152 0.7251,0 1.23779,-0.380859 0.5127,-0.38086 0.81299,-1.215821 z m -4.32861,-2.131347 h 4.34326 q -0.0879,-0.981446 -0.49805,-1.472168 -0.62988,-0.761719 -1.6333,-0.761719 -0.9082,0 -1.53076,0.60791 -0.61523,0.60791 -0.68115,1.625977 z m 8.56201,4.63623 h -1.22314 V 74.051355 h 1.31836 v 3.830567 q 0.83496,-1.047363 2.13134,-1.047363 0.71778,0 1.35498,0.292968 0.64454,0.285645 1.05469,0.812989 0.41748,0.520019 0.65186,1.259765 0.23437,0.739746 0.23437,1.582031 0,1.999512 -0.98877,3.090821 -0.98877,1.091308 -2.37304,1.091308 -1.37696,0 -2.16065,-1.149902 z m -0.0146,-3.947754 q 0,1.398926 0.38086,2.021485 0.62256,1.018066 1.68457,1.018066 0.86426,0 1.49414,-0.74707 0.62989,-0.754395 0.62989,-2.241211 0,-1.523438 -0.60791,-2.248535 -0.60059,-0.725098 -1.45752,-0.725098 -0.86426,0 -1.49414,0.754394 -0.62989,0.747071 -0.62989,2.167969 z m 17.8711,2.680664 v 1.26709 h -7.09717 q -0.0146,-0.476074 0.15381,-0.915527 0.27099,-0.725098 0.86426,-1.428223 0.60058,-0.703125 1.72851,-1.625976 1.75049,-1.435547 2.36572,-2.270508 0.61524,-0.842285 0.61524,-1.589356 0,-0.783691 -0.56397,-1.318359 -0.55664,-0.541992 -1.45752,-0.541992 -0.95214,0 -1.52343,0.571289 -0.57129,0.571289 -0.57862,1.582031 l -1.35498,-0.13916 q 0.13916,-1.516113 1.04737,-2.307129 0.9082,-0.79834 2.43896,-0.79834 1.54541,0 2.44629,0.856934 0.90088,0.856933 0.90088,2.124023 0,0.644531 -0.26367,1.26709 -0.26368,0.622559 -0.87891,1.311035 -0.60791,0.688477 -2.02881,1.889649 -1.18652,0.996093 -1.52344,1.35498 -0.33691,0.351563 -0.55664,0.710449 z m 8.34228,0 v 1.26709 h -7.09717 q -0.0146,-0.476074 0.15381,-0.915527 0.271,-0.725098 0.86426,-1.428223 0.60059,-0.703125 1.72852,-1.625976 1.75048,-1.435547 2.36572,-2.270508 0.61523,-0.842285 0.61523,-1.589356 0,-0.783691 -0.56396,-1.318359 -0.55664,-0.541992 -1.45752,-0.541992 -0.95215,0 -1.52344,0.571289 -0.57129,0.571289 -0.57861,1.582031 l -1.35498,-0.13916 q 0.13916,-1.516113 1.04736,-2.307129 0.9082,-0.79834 2.43897,-0.79834 1.54541,0 2.44628,0.856934 0.90088,0.856933 0.90088,2.124023 0,0.644531 -0.26367,1.26709 -0.26367,0.622559 -0.8789,1.311035 -0.60791,0.688477 -2.02881,1.889649 -1.18653,0.996093 -1.52344,1.35498 -0.33691,0.351563 -0.55664,0.710449 z m 2.146,-5.009765 V 77.01034 h 1.50146 v 1.501465 z m 0,6.276855 v -1.501465 h 1.50146 v 1.501465 z m 3.43506,-5.29541 q 0,-1.904297 0.38818,-3.061524 0.39551,-1.16455 1.16455,-1.794433 0.77637,-0.629883 1.94824,-0.629883 0.86426,0 1.51612,0.351563 0.65185,0.344238 1.07666,1.003418 0.4248,0.651855 0.6665,1.596679 0.2417,0.9375 0.2417,2.53418 0,1.889648 -0.38818,3.054199 -0.38819,1.157227 -1.16455,1.794434 -0.76905,0.629883 -1.94825,0.629883 -1.55273,0 -2.43896,-1.113282 -1.06201,-1.340332 -1.06201,-4.365234 z m 1.35498,0 q 0,2.644043 0.61523,3.522949 0.62256,0.871582 1.53076,0.871582 0.90821,0 1.52344,-0.878906 0.62256,-0.878906 0.62256,-3.515625 0,-2.651367 -0.62256,-3.522949 -0.61523,-0.871582 -1.53809,-0.871582 -0.9082,0 -1.45019,0.769043 -0.68115,0.981445 -0.68115,3.625488 z m 6.9873,0 q 0,-1.904297 0.38819,-3.061524 0.3955,-1.16455 1.16455,-1.794433 0.77636,-0.629883 1.94824,-0.629883 0.86426,0 1.51611,0.351563 0.65186,0.344238 1.07666,1.003418 0.42481,0.651855 0.66651,1.596679 0.24169,0.9375 0.24169,2.53418 0,1.889648 -0.38818,3.054199 -0.38818,1.157227 -1.16455,1.794434 -0.76904,0.629883 -1.94824,0.629883 -1.55274,0 -2.43897,-1.113282 -1.06201,-1.340332 -1.06201,-4.365234 z m 1.35498,0 q 0,2.644043 0.61524,3.522949 0.62256,0.871582 1.53076,0.871582 0.9082,0 1.52344,-0.878906 0.62255,-0.878906 0.62255,-3.515625 0,-2.651367 -0.62255,-3.522949 -0.61524,-0.871582 -1.53809,-0.871582 -0.9082,0 -1.4502,0.769043 -0.68115,0.981445 -0.68115,3.625488 z m 6.84082,2.072754 V 80.24032 h 4.0503 v 1.325684 z m 5.1416,-2.072754 q 0,-1.904297 0.38819,-3.061524 0.39551,-1.16455 1.16455,-1.794433 0.77637,-0.629883 1.94824,-0.629883 0.86426,0 1.51611,0.351563 0.65186,0.344238 1.07666,1.003418 0.42481,0.651855 0.66651,1.596679 0.2417,0.9375 0.2417,2.53418 0,1.889648 -0.38819,3.054199 -0.38818,1.157227 -1.16455,1.794434 -0.76904,0.629883 -1.94824,0.629883 -1.55273,0 -2.43896,-1.113282 -1.06202,-1.340332 -1.06202,-4.365234 z m 1.35498,0 q 0,2.644043 0.61524,3.522949 0.62256,0.871582 1.53076,0.871582 0.9082,0 1.52344,-0.878906 0.62256,-0.878906 0.62256,-3.515625 0,-2.651367 -0.62256,-3.522949 -0.61524,-0.871582 -1.53809,-0.871582 -0.9082,0 -1.45019,0.769043 -0.68116,0.981445 -0.68116,3.625488 z m 13.82813,-2.8125 -1.31104,0.102539 q -0.17578,-0.776367 -0.49804,-1.12793 -0.53467,-0.563965 -1.31836,-0.563965 -0.62988,0 -1.10596,0.351563 -0.62256,0.454102 -0.98144,1.325684 -0.35889,0.871582 -0.37354,2.48291 0.47607,-0.725098 1.16455,-1.07666 0.68848,-0.351563 1.44287,-0.351563 1.31836,0 2.24121,0.974121 0.93018,0.966797 0.93018,2.504883 0,1.010742 -0.43945,1.882324 -0.43213,0.864258 -1.19385,1.325684 -0.76172,0.461426 -1.72852,0.461426 -1.64795,0 -2.68799,-1.208497 -1.04003,-1.21582 -1.04003,-3.999023 0,-3.112793 1.1499,-4.526367 1.00342,-1.230469 2.70263,-1.230469 1.26709,0 2.07276,0.710449 0.81299,0.71045 0.97412,1.962891 z m -5.3833,4.628906 q 0,0.681153 0.28564,1.303711 0.29297,0.622559 0.81299,0.952149 0.52002,0.322265 1.09131,0.322265 0.83496,0 1.43555,-0.673828 0.60058,-0.673828 0.60058,-1.831055 0,-1.113281 -0.59326,-1.750488 -0.59326,-0.644531 -1.49414,-0.644531 -0.89355,0 -1.51611,0.644531 -0.62256,0.637207 -0.62256,1.677246 z m 7.61719,-2.797851 V 77.01034 h 1.50146 v 1.501465 z m 0,6.276855 v -1.501465 h 1.50146 v 1.501465 z m 3.43505,-5.29541 q 0,-1.904297 0.38819,-3.061524 0.39551,-1.16455 1.16455,-1.794433 0.77637,-0.629883 1.94824,-0.629883 0.86426,0 1.51611,0.351563 0.65186,0.344238 1.07666,1.003418 0.42481,0.651855 0.66651,1.596679 0.2417,0.9375 0.2417,2.53418 0,1.889648 -0.38819,3.054199 -0.38818,1.157227 -1.16455,1.794434 -0.76904,0.629883 -1.94824,0.629883 -1.55273,0 -2.43896,-1.113282 -1.06202,-1.340332 -1.06202,-4.365234 z m 1.35499,0 q 0,2.644043 0.61523,3.522949 0.62256,0.871582 1.53076,0.871582 0.9082,0 1.52344,-0.878906 0.62256,-0.878906 0.62256,-3.515625 0,-2.651367 -0.62256,-3.522949 -0.61524,-0.871582 -1.53809,-0.871582 -0.9082,0 -1.45019,0.769043 -0.68115,0.981445 -0.68115,3.625488 z m 6.9873,0 q 0,-1.904297 0.38818,-3.061524 0.39551,-1.16455 1.16455,-1.794433 0.77637,-0.629883 1.94825,-0.629883 0.86425,0 1.51611,0.351563 0.65186,0.344238 1.07666,1.003418 0.4248,0.651855 0.6665,1.596679 0.2417,0.9375 0.2417,2.53418 0,1.889648 -0.38818,3.054199 -0.38818,1.157227 -1.16455,1.794434 -0.76904,0.629883 -1.94824,0.629883 -1.55274,0 -2.43897,-1.113282 -1.06201,-1.340332 -1.06201,-4.365234 z m 1.35498,0 q 0,2.644043 0.61523,3.522949 0.62256,0.871582 1.53077,0.871582 0.9082,0 1.52343,-0.878906 0.62256,-0.878906 0.62256,-3.515625 0,-2.651367 -0.62256,-3.522949 -0.61523,-0.871582 -1.53808,-0.871582 -0.9082,0 -1.4502,0.769043 -0.68115,0.981445 -0.68115,3.625488 z"
         id="path3" />
      <path
         style="font-size:15px;line-height:1.25"
         d="m 346.25488,102.27157 v 1.26709 h -7.09717 q -0.0146,-0.47607 0.15381,-0.91553 0.271,-0.72509 0.86426,-1.42822 0.60059,-0.70312 1.72852,-1.625976 1.75049,-1.435547 2.36572,-2.270508 0.61523,-0.842285 0.61523,-1.589356 0,-0.783691 -0.56396,-1.318359 -0.55664,-0.541992 -1.45752,-0.541992 -0.95215,0 -1.52344,0.571289 -0.57129,0.571289 -0.57861,1.582031 l -1.35498,-0.13916 q 0.13916,-1.516113 1.04736,-2.307129 0.9082,-0.79834 2.43897,-0.79834 1.54541,0 2.44629,0.856934 0.90087,0.856933 0.90087,2.124023 0,0.644531 -0.26367,1.26709 -0.26367,0.622559 -0.8789,1.311035 -0.60791,0.688477 -2.02881,1.889648 -1.18653,0.99609 -1.52344,1.35498 -0.33691,0.35156 -0.55664,0.71045 z m 6.18897,1.26709 V 92.801355 h 7.24365 v 1.26709 h -5.82275 v 3.325196 h 5.03906 v 1.267089 h -5.03906 v 4.87793 z m 14.2456,-2.50488 1.36231,0.16845 q -0.32227,1.19385 -1.19385,1.85303 -0.87158,0.65918 -2.22656,0.65918 -1.70655,0 -2.70996,-1.04736 -0.9961,-1.05469 -0.9961,-2.951662 0,-1.962891 1.01075,-3.046875 1.01074,-1.083984 2.62207,-1.083984 1.56005,0 2.54882,1.062011 0.98877,1.062012 0.98877,2.988281 0,0.117188 -0.007,0.351563 h -5.80078 q 0.0732,1.281736 0.7251,1.962886 0.65185,0.68116 1.62597,0.68116 0.7251,0 1.23779,-0.38086 0.5127,-0.38086 0.81299,-1.21582 z m -4.32861,-2.13135 h 4.34326 q -0.0879,-0.981446 -0.49805,-1.472168 -0.62988,-0.761719 -1.6333,-0.761719 -0.9082,0 -1.53076,0.60791 -0.61523,0.60791 -0.68115,1.625977 z m 8.56201,4.63623 h -1.22314 V 92.801355 h 1.31836 v 3.830567 q 0.83496,-1.047363 2.13134,-1.047363 0.71778,0 1.35498,0.292968 0.64454,0.285645 1.05469,0.812989 0.41748,0.520019 0.65186,1.259765 0.23437,0.739746 0.23437,1.582031 0,1.999508 -0.98877,3.090818 -0.98877,1.09131 -2.37304,1.09131 -1.37696,0 -2.16065,-1.1499 z m -0.0146,-3.947754 q 0,1.398924 0.38086,2.021484 0.62256,1.01807 1.68457,1.01807 0.86426,0 1.49414,-0.74707 0.62989,-0.7544 0.62989,-2.241214 0,-1.523438 -0.60791,-2.248535 -0.60059,-0.725098 -1.45752,-0.725098 -0.86426,0 -1.49414,0.754394 -0.62989,0.747071 -0.62989,2.167969 z m 10.94239,-1.347656 q 0,-1.904297 0.38818,-3.061524 0.39551,-1.16455 1.16455,-1.794433 0.77637,-0.629883 1.94824,-0.629883 0.86426,0 1.51612,0.351563 0.65185,0.344238 1.07666,1.003418 0.4248,0.651855 0.6665,1.596679 0.2417,0.9375 0.2417,2.53418 0,1.88965 -0.38818,3.0542 -0.38819,1.15723 -1.16456,1.79443 -0.76904,0.62989 -1.94824,0.62989 -1.55273,0 -2.43896,-1.11329 -1.06201,-1.34033 -1.06201,-4.36523 z m 1.35498,0 q 0,2.64404 0.61523,3.52295 0.62256,0.87158 1.53076,0.87158 0.90821,0 1.52344,-0.87891 0.62256,-0.8789 0.62256,-3.51562 0,-2.651367 -0.62256,-3.522949 -0.61523,-0.871582 -1.53809,-0.871582 -0.9082,0 -1.45019,0.769043 -0.68115,0.981445 -0.68115,3.625488 z m 13.82812,-2.8125 -1.31103,0.102539 q -0.17579,-0.776367 -0.49805,-1.12793 -0.53467,-0.563965 -1.31836,-0.563965 -0.62988,0 -1.10596,0.351563 -0.62256,0.454102 -0.98144,1.325684 -0.35889,0.871582 -0.37354,2.48291 0.47608,-0.725098 1.16455,-1.07666 0.68848,-0.351563 1.44287,-0.351563 1.31836,0 2.24122,0.974121 0.93017,0.966797 0.93017,2.504881 0,1.01074 -0.43945,1.88233 -0.43213,0.86425 -1.19385,1.32568 -0.76172,0.46143 -1.72852,0.46143 -1.64794,0 -2.68798,-1.2085 -1.04004,-1.21582 -1.04004,-3.999024 0,-3.112793 1.1499,-4.526367 1.00342,-1.230469 2.70264,-1.230469 1.26709,0 2.07275,0.710449 0.81299,0.71045 0.97412,1.962891 z m -5.3833,4.62891 q 0,0.68115 0.28565,1.30371 0.29296,0.62256 0.81298,0.95215 0.52002,0.32226 1.09131,0.32226 0.83496,0 1.43555,-0.67383 0.60058,-0.67383 0.60058,-1.83105 0,-1.113283 -0.59326,-1.75049 -0.59326,-0.644531 -1.49414,-0.644531 -0.89355,0 -1.51611,0.644531 -0.62256,0.637207 -0.62256,1.67725 z m 7.61719,-2.797855 V 95.76034 h 1.50146 v 1.501465 z m 0,6.276855 v -1.50146 h 1.50146 v 1.50146 z m 3.43506,-5.29541 q 0,-1.904297 0.38818,-3.061524 0.39551,-1.16455 1.16455,-1.794433 0.77637,-0.629883 1.94824,-0.629883 0.86426,0 1.51612,0.351563 0.65185,0.344238 1.07666,1.003418 0.4248,0.651855 0.6665,1.596679 0.2417,0.9375 0.2417,2.53418 0,1.88965 -0.38818,3.0542 -0.38819,1.15723 -1.16455,1.79443 -0.76905,0.62989 -1.94825,0.62989 -1.55273,0 -2.43896,-1.11329 -1.06201,-1.34033 -1.06201,-4.36523 z m 1.35498,0 q 0,2.64404 0.61523,3.52295 0.62256,0.87158 1.53076,0.87158 0.90821,0 1.52344,-0.87891 0.62256,-0.8789 0.62256,-3.51562 0,-2.651367 -0.62256,-3.522949 -0.61523,-0.871582 -1.53809,-0.871582 -0.9082,0 -1.45019,0.769043 -0.68115,0.981445 -0.68115,3.625488 z m 6.9873,0 q 0,-1.904297 0.38819,-3.061524 0.3955,-1.16455 1.16455,-1.794433 0.77636,-0.629883 1.94824,-0.629883 0.86426,0 1.51611,0.351563 0.65186,0.344238 1.07666,1.003418 0.42481,0.651855 0.66651,1.596679 0.24169,0.9375 0.24169,2.53418 0,1.88965 -0.38818,3.0542 -0.38818,1.15723 -1.16455,1.79443 -0.76904,0.62989 -1.94824,0.62989 -1.55274,0 -2.43897,-1.11329 -1.06201,-1.34033 -1.06201,-4.36523 z m 1.35498,0 q 0,2.64404 0.61524,3.52295 0.62256,0.87158 1.53076,0.87158 0.9082,0 1.52344,-0.87891 0.62255,-0.8789 0.62255,-3.51562 0,-2.651367 -0.62255,-3.522949 -0.61524,-0.871582 -1.53809,-0.871582 -0.9082,0 -1.4502,0.769043 -0.68115,0.981445 -0.68115,3.625488 z m 6.84082,2.07275 v -1.32568 h 4.0503 v 1.32568 z m 10.10742,3.22266 h -1.31835 v -8.400879 q -0.47608,0.454102 -1.25245,0.908203 -0.76904,0.454102 -1.38427,0.681153 v -1.274414 q 1.10595,-0.52002 1.93359,-1.259766 0.82764,-0.739746 1.17188,-1.435547 h 0.8496 z m 7.60254,0 v -2.5708 h -4.6582 v -1.208497 l 4.8999,-6.958008 h 1.07666 v 6.958008 h 1.4502 v 1.208497 h -1.4502 v 2.5708 z m 0,-3.779297 v -4.841308 l -3.36181,4.841308 z m 4.84864,-2.497558 V 95.76034 h 1.50146 v 1.501465 z m 0,6.276855 v -1.50146 h 1.50146 v 1.50146 z m 3.43505,-5.29541 q 0,-1.904297 0.38819,-3.061524 0.39551,-1.16455 1.16455,-1.794433 0.77637,-0.629883 1.94824,-0.629883 0.86426,0 1.51611,0.351563 0.65186,0.344238 1.07666,1.003418 0.42481,0.651855 0.66651,1.596679 0.2417,0.9375 0.2417,2.53418 0,1.88965 -0.38819,3.0542 -0.38818,1.15723 -1.16455,1.79443 -0.76904,0.62989 -1.94824,0.62989 -1.55273,0 -2.43896,-1.11329 -1.06202,-1.34033 -1.06202,-4.36523 z m 1.35499,0 q 0,2.64404 0.61523,3.52295 0.62256,0.87158 1.53076,0.87158 0.9082,0 1.52344,-0.87891 0.62256,-0.8789 0.62256,-3.51562 0,-2.651367 -0.62256,-3.522949 -0.61524,-0.871582 -1.53809,-0.871582 -0.9082,0 -1.45019,0.769043 -0.68115,0.981445 -0.68115,3.625488 z m 6.9873,0 q 0,-1.904297 0.38818,-3.061524 0.39551,-1.16455 1.16455,-1.794433 0.77637,-0.629883 1.94825,-0.629883 0.86425,0 1.51611,0.351563 0.65186,0.344238 1.07666,1.003418 0.4248,0.651855 0.6665,1.596679 0.2417,0.9375 0.2417,2.53418 0,1.88965 -0.38818,3.0542 -0.38818,1.15723 -1.16455,1.79443 -0.76904,0.62989 -1.94824,0.62989 -1.55274,0 -2.43897,-1.11329 -1.06201,-1.34033 -1.06201,-4.36523 z m 1.35498,0 q 0,2.64404 0.61523,3.52295 0.62256,0.87158 1.53077,0.87158 0.9082,0 1.52343,-0.87891 0.62256,-0.8789 0.62256,-3.51562 0,-2.651367 -0.62256,-3.522949 -0.61523,-0.871582 -1.53808,-0.871582 -0.9082,0 -1.4502,0.769043 -0.68115,0.981445 -0.68115,3.625488 z"
         id="path4" />
    </g>
    <g
       id="flowRoot4558"
       style="line-height:0.01%;font-family:'Liberation Sans';-inkscape-font-specification:'Liberation Sans, Normal';text-align:center;text-anchor:middle;fill:#555753"
       transform="translate(110.00001,568.58594)"
       aria-label="Ann&#10;Bert&#10;Carl">
      <path
         style="font-size:15px;line-height:1.25"
         d="m 386.6333,47.28866 4.12354,-10.737305 h 1.53076 l 4.39453,10.737305 h -1.61865 l -1.25244,-3.251953 h -4.48975 l -1.1792,3.251953 z m 3.09815,-4.40918 h 3.64013 l -1.1206,-2.973632 q -0.5127,-1.354981 -0.76172,-2.226563 -0.20508,1.032715 -0.57862,2.050781 z m 7.91748,4.40918 v -7.77832 h 1.18652 v 1.105957 q 0.85693,-1.281738 2.47559,-1.281738 0.70312,0 1.28906,0.256347 0.59326,0.249024 0.88623,0.65918 0.29297,0.410156 0.41015,0.974121 0.0733,0.366211 0.0733,1.281738 v 4.782715 h -1.31836 v -4.731445 q 0,-0.805664 -0.15381,-1.201172 -0.15381,-0.402832 -0.54932,-0.637207 -0.38818,-0.241699 -0.91553,-0.241699 -0.84228,0 -1.45751,0.534668 -0.60791,0.534668 -0.60791,2.028808 v 4.248047 z m 8.34228,0 v -7.77832 h 1.18652 v 1.105957 q 0.85694,-1.281738 2.47559,-1.281738 0.70313,0 1.28906,0.256347 0.59326,0.249024 0.88623,0.65918 0.29297,0.410156 0.41016,0.974121 0.0732,0.366211 0.0732,1.281738 v 4.782715 h -1.31836 v -4.731445 q 0,-0.805664 -0.15381,-1.201172 -0.1538,-0.402832 -0.54931,-0.637207 -0.38819,-0.241699 -0.91553,-0.241699 -0.84229,0 -1.45752,0.534668 -0.60791,0.534668 -0.60791,2.028808 v 4.248047 z"
         id="path5" />
      <path
         style="font-size:15px;line-height:1.25"
         d="M 387.34375,66.03866 V 55.301355 h 4.02832 q 1.23047,0 1.97022,0.32959 0.74707,0.322266 1.16455,1.003418 0.4248,0.673828 0.4248,1.413574 0,0.688477 -0.37353,1.296387 -0.37354,0.60791 -1.12793,0.981445 0.97412,0.285645 1.49414,0.974122 0.52734,0.688476 0.52734,1.625976 0,0.754395 -0.32227,1.40625 -0.31494,0.644531 -0.78369,0.996094 -0.46875,0.351562 -1.1792,0.534668 -0.70312,0.175781 -1.72851,0.175781 z m 1.4209,-6.225586 h 2.32178 q 0.94482,0 1.35498,-0.124512 0.54199,-0.161132 0.81298,-0.534668 0.27832,-0.373535 0.27832,-0.9375 0,-0.534668 -0.25634,-0.9375 -0.25635,-0.410156 -0.73242,-0.55664 -0.47608,-0.153809 -1.63331,-0.153809 h -2.14599 z m 0,4.958496 h 2.67334 q 0.68847,0 0.9668,-0.05127 0.49072,-0.08789 0.82031,-0.292969 0.32959,-0.205078 0.54199,-0.593262 0.2124,-0.395508 0.2124,-0.908203 0,-0.600586 -0.30762,-1.040039 -0.30761,-0.446777 -0.85693,-0.622559 -0.54199,-0.183105 -1.56738,-0.183105 h -2.48291 z m 13.79883,-1.237793 1.3623,0.168457 q -0.32226,1.193848 -1.19385,1.853028 -0.87158,0.659179 -2.22656,0.659179 -1.70654,0 -2.70996,-1.047363 -0.99609,-1.054687 -0.99609,-2.95166 0,-1.962891 1.01074,-3.046875 1.01074,-1.083984 2.62207,-1.083984 1.56006,0 2.54883,1.062011 0.98877,1.062012 0.98877,2.988281 0,0.117188 -0.007,0.351563 h -5.80078 q 0.0732,1.281738 0.7251,1.962891 0.65185,0.681152 1.62598,0.681152 0.72509,0 1.23779,-0.380859 0.51269,-0.38086 0.81299,-1.215821 z m -4.32862,-2.131347 h 4.34326 q -0.0879,-0.981446 -0.49804,-1.472168 -0.62988,-0.761719 -1.6333,-0.761719 -0.90821,0 -1.53076,0.60791 -0.61524,0.60791 -0.68116,1.625977 z m 7.33155,4.63623 v -7.77832 h 1.18652 v 1.179199 q 0.4541,-0.827637 0.83496,-1.091309 0.38818,-0.263671 0.84961,-0.263671 0.6665,0 1.35498,0.424804 l -0.4541,1.223145 q -0.4834,-0.285645 -0.9668,-0.285645 -0.43213,0 -0.77637,0.263672 -0.34423,0.256348 -0.49072,0.717774 -0.21972,0.703125 -0.21972,1.538085 v 4.072266 z m 7.88818,-1.179199 0.19043,1.164551 q -0.55664,0.117187 -0.99609,0.117187 -0.71778,0 -1.11329,-0.227051 -0.3955,-0.22705 -0.55664,-0.593261 -0.16113,-0.373536 -0.16113,-1.560059 V 59.28573 h -0.9668 v -1.02539 h 0.9668 v -1.92627 l 1.31104,-0.791015 v 2.717285 h 1.32568 v 1.02539 h -1.32568 v 4.54834 q 0,0.563965 0.0659,0.725098 0.0733,0.161133 0.22705,0.256348 0.16114,0.09521 0.45411,0.09521 0.21972,0 0.57861,-0.05127 z"
         id="path6" />
      <path
         style="font-size:15px;line-height:1.25"
         d="m 395.06714,81.024012 1.4209,0.358886 q -0.44678,1.750489 -1.61133,2.67334 -1.15723,0.915528 -2.83447,0.915528 -1.73584,0 -2.82715,-0.703125 -1.08399,-0.71045 -1.65528,-2.050782 -0.56396,-1.340332 -0.56396,-2.878418 0,-1.677246 0.63721,-2.922363 0.64453,-1.252441 1.82373,-1.896973 1.18652,-0.651855 2.60742,-0.651855 1.61133,0 2.70996,0.820312 1.09863,0.820313 1.53076,2.307129 l -1.39892,0.32959 q -0.37354,-1.171875 -1.08399,-1.706543 -0.71045,-0.534668 -1.78711,-0.534668 -1.23779,0 -2.07275,0.593262 -0.82764,0.593262 -1.16455,1.59668 -0.33692,0.996093 -0.33692,2.058105 0,1.369629 0.39551,2.39502 0.40283,1.018066 1.24512,1.523437 0.84228,0.505371 1.82373,0.505371 1.19385,0 2.02148,-0.688476 0.82764,-0.688477 1.12061,-2.043457 z m 8.07861,2.805175 q -0.73242,0.622559 -1.41357,0.878907 -0.67383,0.256347 -1.4502,0.256347 -1.28174,0 -1.97021,-0.622558 -0.68848,-0.629883 -0.68848,-1.604004 0,-0.571289 0.25635,-1.040039 0.26367,-0.476074 0.68115,-0.761719 0.42481,-0.285645 0.95215,-0.432129 0.38818,-0.102539 1.17187,-0.197754 1.59668,-0.190429 2.35108,-0.454101 0.007,-0.270996 0.007,-0.344239 0,-0.805664 -0.37353,-1.135254 -0.50537,-0.446777 -1.50147,-0.446777 -0.93017,0 -1.37695,0.32959 -0.43945,0.322266 -0.65186,1.149902 l -1.28906,-0.175781 q 0.17578,-0.827637 0.57862,-1.333008 0.40283,-0.512695 1.16455,-0.783691 0.76171,-0.27832 1.76513,-0.27832 0.9961,0 1.61865,0.234375 0.62256,0.234375 0.91553,0.593261 0.29297,0.351563 0.41016,0.893555 0.0659,0.336914 0.0659,1.21582 v 1.757813 q 0,1.838379 0.0806,2.329101 0.0879,0.483399 0.33692,0.930176 h -1.37696 q -0.20507,-0.410156 -0.26367,-0.959473 z m -0.10986,-2.944336 q -0.71777,0.292969 -2.15332,0.498047 -0.81299,0.117188 -1.1499,0.263672 -0.33692,0.146485 -0.52002,0.432129 -0.18311,0.27832 -0.18311,0.622559 0,0.527343 0.39551,0.878906 0.40283,0.351562 1.17187,0.351562 0.76172,0 1.35498,-0.329589 0.59327,-0.336914 0.87159,-0.915528 0.2124,-0.446777 0.2124,-1.318359 z m 3.36182,3.903809 v -7.77832 h 1.18652 v 1.179199 q 0.4541,-0.827637 0.83496,-1.091309 0.38818,-0.263671 0.84961,-0.263671 0.6665,0 1.35498,0.424804 l -0.4541,1.223145 q -0.4834,-0.285645 -0.9668,-0.285645 -0.43213,0 -0.77637,0.263672 -0.34423,0.256348 -0.49072,0.717774 -0.21973,0.703125 -0.21973,1.538085 v 4.072266 z m 4.98046,0 V 74.051355 h 1.31836 V 84.78866 Z"
         id="path7" />
    </g>
  </g>
</svg>
