<?xml version="1.0" encoding="UTF-8" standalone="no"?>
<svg
   width="800"
   height="600"
   id="svg2"
   version="1.1"
   xml:space="preserve"
   xmlns="http://www.w3.org/2000/svg"
   xmlns:svg="http://www.w3.org/2000/svg"
   xmlns:rdf="http://www.w3.org/1999/02/22-rdf-syntax-ns#"
   xmlns:cc="http://creativecommons.org/ns#"
   xmlns:dc="http://purl.org/dc/elements/1.1/"><defs
     id="defs4" /><metadata
     id="metadata7"><rdf:RDF><cc:Work
         rdf:about=""><dc:format>image/svg+xml</dc:format><dc:type
           rdf:resource="http://purl.org/dc/dcmitype/StillImage" /><dc:language>en</dc:language><cc:license
           rdf:resource="https://timefold.ai/product/license/" /></cc:Work></rdf:RDF></metadata><g
     id="layer1"
     transform="translate(0,-378.8106)"
     style="display:inline"><path
       style="font-size:37.3333px;font-family:Arial;-inkscape-font-specification:Arial;text-align:center;text-anchor:middle"
       d="M 57.462568,253.62814 V 226.9042 h 11.848948 q 3.572913,0 5.432287,0.72917 1.859373,0.71093 2.971351,2.53385 1.111979,1.82291 1.111979,4.02864 0,2.84375 -1.841145,4.79427 -1.841144,1.95052 -5.687495,2.47916 1.403645,0.67448 2.132811,1.33073 1.549478,1.42187 2.934893,3.55469 l 4.648434,7.27343 h -4.447913 l -3.536455,-5.55989 q -1.549478,-2.40625 -2.552082,-3.68229 -1.002603,-1.27604 -1.804686,-1.78646 -0.783853,-0.51042 -1.604165,-0.71094 -0.601562,-0.1276 -1.968748,-0.1276 h -4.101559 v 11.86718 z m 3.536455,-14.92968 h 7.601556 q 2.424477,0 3.791663,-0.49219 1.367187,-0.51041 2.078124,-1.60416 0.710936,-1.11198 0.710936,-2.40625 0,-1.89583 -1.385415,-3.11718 -1.367186,-1.22136 -4.338538,-1.22136 h -8.458326 z m 36.203094,8.69531 3.390623,0.41927 q -0.802083,2.97135 -2.971352,4.61197 -2.169269,1.64063 -5.541662,1.64063 -4.247393,0 -6.744786,-2.60677 -2.479165,-2.625 -2.479165,-7.34635 0,-4.88541 2.515623,-7.58333 2.515623,-2.69791 6.526036,-2.69791 3.882809,0 6.343745,2.64323 2.460931,2.64322 2.460931,7.43749 0,0.29167 -0.0182,0.875 H 86.246397 q 0.182292,3.1901 1.804686,4.88541 1.622395,1.69531 4.046872,1.69531 1.804686,0 3.080726,-0.94791 1.276041,-0.94792 2.023436,-3.02604 z m -10.773428,-5.30469 h 10.809886 q -0.218749,-2.4427 -1.239582,-3.66406 -1.567707,-1.89583 -4.065101,-1.89583 -2.260414,0 -3.809892,1.51302 -1.531249,1.51302 -1.695311,4.04687 z m 30.624971,18.95832 v -9.47916 q -0.76562,1.07552 -2.15104,1.78646 -1.36719,0.71094 -2.91666,0.71094 -3.44531,0 -5.94271,-2.75261 -2.47916,-2.7526 -2.47916,-7.54686 0,-2.91667 1.0026,-5.23177 1.02083,-2.3151 2.93489,-3.5 1.93229,-1.20312 4.22917,-1.20312 3.59114,0 5.65103,3.02604 v -2.58854 h 2.95313 v 26.77862 z m -10.11718,-17.15363 q 0,3.73698 1.56771,5.61458 1.56771,1.85937 3.7552,1.85937 2.09636,0 3.60938,-1.76823 1.51301,-1.78645 1.51301,-5.41405 0,-3.86458 -1.60416,-5.8151 -1.58594,-1.95052 -3.73698,-1.95052 -2.13281,0 -3.6276,1.82291 -1.47656,1.80469 -1.47656,5.65104 z m 31.22654,9.73437 v -2.84375 q -2.26041,3.28125 -6.14322,3.28125 -1.71354,0 -3.20833,-0.65625 -1.47656,-0.65625 -2.20573,-1.64063 -0.71094,-1.0026 -1.0026,-2.4427 -0.20052,-0.96615 -0.20052,-3.0625 v -11.99478 h 3.28124 v 10.73697 q 0,2.57031 0.20052,3.46354 0.3099,1.29427 1.3125,2.04166 1.00261,0.72917 2.47917,0.72917 1.47656,0 2.77083,-0.7474 1.29427,-0.76562 1.82291,-2.05989 0.54688,-1.3125 0.54688,-3.79167 v -10.37238 h 3.28125 v 19.35936 z m 8.09374,-22.9505 v -3.77344 h 3.28125 v 3.77344 z m 0,22.9505 v -19.35936 h 3.28125 v 19.35936 z m 8.23958,0 v -19.35936 h 2.95312 v 2.93489 q 1.13021,-2.05989 2.07813,-2.71614 0.96614,-0.65625 2.11458,-0.65625 1.65885,0 3.37239,1.05729 l -1.13021,3.04427 q -1.20312,-0.71094 -2.40624,-0.71094 -1.07552,0 -1.93229,0.65625 -0.85677,0.63802 -1.22136,1.78646 -0.54687,1.75 -0.54687,3.82812 v 10.13541 z m 25.72133,-6.23437 3.39063,0.41927 q -0.80209,2.97135 -2.97136,4.61197 -2.16927,1.64063 -5.54166,1.64063 -4.24739,0 -6.74478,-2.60677 -2.47917,-2.625 -2.47917,-7.34635 0,-4.88541 2.51562,-7.58333 2.51563,-2.69791 6.52604,-2.69791 3.88281,0 6.34375,2.64323 2.46093,2.64322 2.46093,7.43749 0,0.29167 -0.0182,0.875 h -14.43749 q 0.1823,3.1901 1.80469,4.88541 1.62239,1.69531 4.04687,1.69531 1.80469,0 3.08073,-0.94791 1.27604,-0.94792 2.02343,-3.02604 z m -10.77342,-5.30469 h 10.80988 q -0.21875,-2.4427 -1.23958,-3.66406 -1.56771,-1.89583 -4.0651,-1.89583 -2.26042,0 -3.80989,1.51302 -1.53125,1.51302 -1.69531,4.04687 z m 30.84372,11.53906 v -2.44271 q -1.84115,2.88021 -5.41406,2.88021 -2.3151,0 -4.26562,-1.27604 -1.93229,-1.27605 -3.00781,-3.55469 -1.05729,-2.29687 -1.05729,-5.26822 0,-2.89844 0.96614,-5.25 0.96615,-2.36979 2.89844,-3.6276 1.93229,-1.25781 4.32031,-1.25781 1.74999,0 3.11718,0.74739 1.36719,0.72917 2.22396,1.91406 v -9.58853 h 3.26301 v 26.72394 z m -10.37239,-9.66145 q 0,3.71874 1.56771,5.55989 1.5677,1.84114 3.70051,1.84114 2.15104,0 3.64583,-1.75 1.51302,-1.76822 1.51302,-5.3776 0,-3.97395 -1.53125,-5.83332 -1.53124,-1.85938 -3.77343,-1.85938 -2.1875,0 -3.66406,1.78646 -1.45833,1.78646 -1.45833,5.63281 z m 32.52081,9.66145 -5.92448,-19.35936 h 3.39062 l 3.08073,11.17447 1.14844,4.15624 q 0.0729,-0.30989 1.0026,-3.99218 l 3.08073,-11.33853 h 3.37239 l 2.89843,11.22916 0.96615,3.70051 1.11198,-3.73697 3.3177,-11.1927 h 3.1901 l -6.05207,19.35936 h -3.40885 l -3.08073,-11.59374 -0.7474,-3.29948 -3.91926,14.89322 z m 36.64058,-6.23437 3.39062,0.41927 q -0.80208,2.97135 -2.97135,4.61197 -2.16927,1.64063 -5.54166,1.64063 -4.24739,0 -6.74479,-2.60677 -2.47916,-2.625 -2.47916,-7.34635 0,-4.88541 2.51562,-7.58333 2.51563,-2.69791 6.52604,-2.69791 3.88281,0 6.34374,2.64323 2.46094,2.64322 2.46094,7.43749 0,0.29167 -0.0182,0.875 h -14.43749 q 0.18229,3.1901 1.80469,4.88541 1.62239,1.69531 4.04687,1.69531 1.80469,0 3.08073,-0.94791 1.27604,-0.94792 2.02343,-3.02604 z m -10.77343,-5.30469 h 10.80989 q -0.21875,-2.4427 -1.23958,-3.66406 -1.56771,-1.89583 -4.0651,-1.89583 -2.26042,0 -3.8099,1.51302 -1.53124,1.51302 -1.69531,4.04687 z m 31.53643,5.30469 3.39062,0.41927 q -0.80208,2.97135 -2.97135,4.61197 -2.16927,1.64063 -5.54166,1.64063 -4.24739,0 -6.74478,-2.60677 -2.47917,-2.625 -2.47917,-7.34635 0,-4.88541 2.51562,-7.58333 2.51563,-2.69791 6.52604,-2.69791 3.88281,0 6.34374,2.64323 2.46094,2.64322 2.46094,7.43749 0,0.29167 -0.0182,0.875 h -14.43749 q 0.18229,3.1901 1.80469,4.88541 1.62239,1.69531 4.04687,1.69531 1.80469,0 3.08073,-0.94791 1.27604,-0.94792 2.02343,-3.02604 z m -10.77343,-5.30469 h 10.80989 q -0.21875,-2.4427 -1.23958,-3.66406 -1.56771,-1.89583 -4.0651,-1.89583 -2.26042,0 -3.80989,1.51302 -1.53125,1.51302 -1.69532,4.04687 z m 18.30208,11.53906 V 226.9042 h 3.28125 v 15.23957 l 7.76562,-7.87499 h 4.24739 l -7.40103,7.18228 8.14843,12.17708 h -4.04687 l -6.39844,-9.89843 -2.3151,2.22395 v 7.67448 z m 31.90101,-6.23437 3.39062,0.41927 q -0.80208,2.97135 -2.97135,4.61197 -2.16927,1.64063 -5.54166,1.64063 -4.24739,0 -6.74479,-2.60677 -2.47916,-2.625 -2.47916,-7.34635 0,-4.88541 2.51562,-7.58333 2.51562,-2.69791 6.52604,-2.69791 3.88281,0 6.34374,2.64323 2.46094,2.64322 2.46094,7.43749 0,0.29167 -0.0182,0.875 h -14.43749 q 0.18229,3.1901 1.80469,4.88541 1.62239,1.69531 4.04687,1.69531 1.80468,0 3.08072,-0.94791 1.27604,-0.94792 2.02344,-3.02604 z m -10.77343,-5.30469 h 10.80989 q -0.21875,-2.4427 -1.23958,-3.66406 -1.56771,-1.89583 -4.06511,-1.89583 -2.26041,0 -3.80989,1.51302 -1.53125,1.51302 -1.69531,4.04687 z m 18.28385,11.53906 v -19.35936 h 2.95312 v 2.7526 q 2.13282,-3.1901 6.16146,-3.1901 1.75,0 3.20833,0.63802 1.47656,0.61979 2.20573,1.64062 0.72916,1.02083 1.02083,2.42448 0.18229,0.91146 0.18229,3.1901 v 11.90364 h -3.28125 V 241.8521 q 0,-2.0052 -0.38281,-2.98958 -0.38281,-1.0026 -1.36719,-1.58593 -0.96614,-0.60156 -2.27864,-0.60156 -2.09635,0 -3.6276,1.33072 -1.51302,1.33073 -1.51302,5.04948 v 10.57291 z m 33.32289,0 v -2.44271 q -1.84115,2.88021 -5.41406,2.88021 -2.3151,0 -4.26562,-1.27604 -1.93229,-1.27605 -3.00781,-3.55469 -1.05729,-2.29687 -1.05729,-5.26822 0,-2.89844 0.96614,-5.25 0.96615,-2.36979 2.89844,-3.6276 1.93229,-1.25781 4.32031,-1.25781 1.75,0 3.11718,0.74739 1.36719,0.72917 2.22396,1.91406 v -9.58853 h 3.26302 v 26.72394 z m -10.37239,-9.66145 q 0,3.71874 1.56771,5.55989 1.56771,1.84114 3.70052,1.84114 2.15104,0 3.64583,-1.75 1.51302,-1.76822 1.51302,-5.3776 0,-3.97395 -1.53125,-5.83332 -1.53125,-1.85938 -3.77344,-1.85938 -2.1875,0 -3.66406,1.78646 -1.45833,1.78646 -1.45833,5.63281 z m 17.263,3.88281 3.24479,-0.51042 q 0.27344,1.95052 1.51302,2.98958 1.25781,1.03906 3.5,1.03906 2.26041,0 3.35416,-0.91146 1.09375,-0.92968 1.09375,-2.16926 0,-1.11198 -0.96614,-1.75 -0.67448,-0.4375 -3.35417,-1.11198 -3.60937,-0.91146 -5.01301,-1.56771 -1.38542,-0.67448 -2.11458,-1.84114 -0.71094,-1.1849 -0.71094,-2.60677 0,-1.29427 0.58333,-2.38802 0.60156,-1.11198 1.6224,-1.84114 0.76562,-0.56511 2.07812,-0.94792 1.33073,-0.40104 2.84375,-0.40104 2.27864,0 3.99218,0.65625 1.73177,0.65625 2.55208,1.78645 0.82031,1.11198 1.13021,2.98959 l -3.20833,0.43749 q -0.21875,-1.49479 -1.27604,-2.33333 -1.03906,-0.83854 -2.95312,-0.83854 -2.26042,0 -3.22656,0.7474 -0.96615,0.74739 -0.96615,1.75 0,0.63802 0.40104,1.14843 0.40104,0.52865 1.25781,0.875 0.49219,0.18229 2.89844,0.83854 3.48177,0.92969 4.84895,1.53125 1.38542,0.58333 2.16927,1.71354 0.78386,1.13021 0.78386,2.80729 0,1.64062 -0.96615,3.09896 -0.94792,1.4401 -2.7526,2.24218 -1.80469,0.78386 -4.08333,0.78386 -3.77344,0 -5.76041,-1.56771 -1.96875,-1.56771 -2.51563,-4.64843 z m 33.92445,5.77864 -5.92448,-19.35936 h 3.39063 l 3.08072,11.17447 1.14844,4.15624 q 0.0729,-0.30989 1.0026,-3.99218 l 3.08073,-11.33853 h 3.37239 l 2.89844,11.22916 0.96614,3.70051 1.11198,-3.73697 3.31771,-11.1927 h 3.1901 l -6.05208,19.35936 h -3.40885 l -3.08073,-11.59374 -0.74739,-3.29948 -3.91927,14.89322 z m 22.16664,-9.67968 q 0,-5.3776 2.98958,-7.96614 2.49739,-2.15104 6.08854,-2.15104 3.99218,0 6.52603,2.625 2.53385,2.60676 2.53385,7.21874 0,3.73698 -1.1302,5.88802 -1.11198,2.13281 -3.26302,3.3177 -2.13281,1.1849 -4.66666,1.1849 -4.0651,0 -6.58073,-2.60677 -2.49739,-2.60677 -2.49739,-7.51041 z m 3.37239,0 q 0,3.71874 1.6224,5.57812 1.62239,1.84114 4.08333,1.84114 2.4427,0 4.0651,-1.85937 1.62239,-1.85938 1.62239,-5.66927 0,-3.59114 -1.64062,-5.43228 -1.6224,-1.85938 -4.04687,-1.85938 -2.46094,0 -4.08333,1.84115 -1.6224,1.84114 -1.6224,5.55989 z m 18.5755,9.67968 v -19.35936 h 2.95313 v 2.93489 q 1.1302,-2.05989 2.07812,-2.71614 0.96615,-0.65625 2.11458,-0.65625 1.65885,0 3.37239,1.05729 l -1.1302,3.04427 q -1.20313,-0.71094 -2.40625,-0.71094 -1.07552,0 -1.93229,0.65625 -0.85677,0.63802 -1.22135,1.78646 -0.54688,1.75 -0.54688,3.82812 v 10.13541 z m 12.48697,0 V 226.9042 h 3.28125 v 15.23957 l 7.76562,-7.87499 h 4.24739 l -7.40103,7.18228 8.14843,12.17708 h -4.04688 l -6.39843,-9.89843 -2.3151,2.22395 v 7.67448 z m 31.90102,-6.23437 3.39063,0.41927 q -0.80209,2.97135 -2.97136,4.61197 -2.16926,1.64063 -5.54166,1.64063 -4.24739,0 -6.74478,-2.60677 -2.47917,-2.625 -2.47917,-7.34635 0,-4.88541 2.51562,-7.58333 2.51563,-2.69791 6.52604,-2.69791 3.88281,0 6.34375,2.64323 2.46093,2.64322 2.46093,7.43749 0,0.29167 -0.0182,0.875 H 478.4648 q 0.1823,3.1901 1.80469,4.88541 1.62239,1.69531 4.04687,1.69531 1.80469,0 3.08073,-0.94791 1.27604,-0.94792 2.02343,-3.02604 z m -10.77342,-5.30469 h 10.80988 q -0.21875,-2.4427 -1.23958,-3.66406 -1.56771,-1.89583 -4.0651,-1.89583 -2.26042,0 -3.80989,1.51302 -1.53125,1.51302 -1.69531,4.04687 z m 30.84372,11.53906 v -2.44271 q -1.84115,2.88021 -5.41406,2.88021 -2.3151,0 -4.26562,-1.27604 -1.93229,-1.27605 -3.00781,-3.55469 -1.05729,-2.29687 -1.05729,-5.26822 0,-2.89844 0.96614,-5.25 0.96615,-2.36979 2.89844,-3.6276 1.93229,-1.25781 4.32031,-1.25781 1.74999,0 3.11718,0.74739 1.36719,0.72917 2.22396,1.91406 v -9.58853 h 3.26301 v 26.72394 z m -10.37239,-9.66145 q 0,3.71874 1.56771,5.55989 1.5677,1.84114 3.70051,1.84114 2.15104,0 3.64583,-1.75 1.51302,-1.76822 1.51302,-5.3776 0,-3.97395 -1.53124,-5.83332 -1.53125,-1.85938 -3.77344,-1.85938 -2.1875,0 -3.66406,1.78646 -1.45833,1.78646 -1.45833,5.63281 z m 28.96614,-13.28905 v -3.77344 h 3.28124 v 3.77344 z m 0,22.9505 v -19.35936 h 3.28124 v 19.35936 z m 8.27602,0 v -19.35936 h 2.95312 v 2.7526 q 2.13281,-3.1901 6.16145,-3.1901 1.75,0 3.20833,0.63802 1.47657,0.61979 2.20573,1.64062 0.72917,1.02083 1.02083,2.42448 0.1823,0.91146 0.1823,3.1901 v 11.90364 H 548.8111 V 241.8521 q 0,-2.0052 -0.38281,-2.98958 -0.38282,-1.0026 -1.36719,-1.58593 -0.96614,-0.60156 -2.27864,-0.60156 -2.09636,0 -3.6276,1.33072 -1.51302,1.33073 -1.51302,5.04948 v 10.57291 z m 43.76818,-2.38802 q -1.82292,1.54948 -3.51823,2.1875 -1.67708,0.63802 -3.60937,0.63802 -3.1901,0 -4.90364,-1.54948 -1.71354,-1.56771 -1.71354,-3.99219 0,-1.42187 0.63802,-2.58854 0.65625,-1.18489 1.69531,-1.89583 1.05729,-0.71093 2.36979,-1.07552 0.96614,-0.25521 2.91666,-0.49218 3.97396,-0.47396 5.85156,-1.13021 0.0182,-0.67448 0.0182,-0.85677 0,-2.00521 -0.92969,-2.82552 -1.25781,-1.11198 -3.73697,-1.11198 -2.31511,0 -3.42709,0.82031 -1.09374,0.80209 -1.62239,2.86198 l -3.20833,-0.4375 q 0.4375,-2.05989 1.4401,-3.3177 1.00261,-1.27605 2.89844,-1.95052 1.89583,-0.69271 4.39322,-0.69271 2.47917,0 4.02865,0.58333 1.54947,0.58333 2.27864,1.47656 0.72917,0.875 1.02083,2.22396 0.16406,0.83854 0.16406,3.02604 v 4.37499 q 0,4.57552 0.20052,5.79687 0.21875,1.20313 0.83855,2.31511 h -3.42708 q -0.51042,-1.02084 -0.65625,-2.38802 z m -0.27344,-7.32812 q -1.78646,0.72916 -5.35937,1.23958 -2.02344,0.29167 -2.86198,0.65625 -0.83854,0.36458 -1.29427,1.07552 -0.45573,0.69271 -0.45573,1.54948 0,1.3125 0.98438,2.1875 1.0026,0.875 2.91666,0.875 1.89583,0 3.37239,-0.82032 1.47657,-0.83854 2.16927,-2.27864 0.52865,-1.11198 0.52865,-3.28125 z m 18.73958,9.71614 v -19.35936 h 2.95313 v 2.93489 q 1.1302,-2.05989 2.07812,-2.71614 0.96614,-0.65625 2.11458,-0.65625 1.65885,0 3.37239,1.05729 l -1.1302,3.04427 q -1.20313,-0.71094 -2.40625,-0.71094 -1.07552,0 -1.93229,0.65625 -0.85677,0.63802 -1.22136,1.78646 -0.54687,1.75 -0.54687,3.82812 v 10.13541 z m 11.24736,-9.67968 q 0,-5.3776 2.98958,-7.96614 2.49739,-2.15104 6.08854,-2.15104 3.99218,0 6.52603,2.625 2.53385,2.60676 2.53385,7.21874 0,3.73698 -1.1302,5.88802 -1.11198,2.13281 -3.26302,3.3177 -2.13281,1.1849 -4.66666,1.1849 -4.0651,0 -6.58073,-2.60677 -2.49739,-2.60677 -2.49739,-7.51041 z m 3.37239,0 q 0,3.71874 1.6224,5.57812 1.62239,1.84114 4.08333,1.84114 2.4427,0 4.0651,-1.85937 1.62239,-1.85938 1.62239,-5.66927 0,-3.59114 -1.64062,-5.43228 -1.6224,-1.85938 -4.04687,-1.85938 -2.46094,0 -4.08333,1.84115 -1.6224,1.84114 -1.6224,5.55989 z m 18.53905,9.67968 V 226.9042 h 3.28124 v 26.72394 z m 8.29431,0 V 226.9042 h 3.28124 v 26.72394 z m 8.38539,-22.9505 v -3.77344 h 3.28125 v 3.77344 z m 0,22.9505 v -19.35936 h 3.28125 v 19.35936 z m 8.27602,0 v -19.35936 h 2.95313 v 2.7526 q 2.13281,-3.1901 6.16145,-3.1901 1.75,0 3.20833,0.63802 1.47656,0.61979 2.20573,1.64062 0.72916,1.02083 1.02083,2.42448 0.18229,0.91146 0.18229,3.1901 v 11.90364 h -3.28124 V 241.8521 q 0,-2.0052 -0.38282,-2.98958 -0.38281,-1.0026 -1.36718,-1.58593 -0.96615,-0.60156 -2.27865,-0.60156 -2.09635,0 -3.6276,1.33072 -1.51302,1.33073 -1.51302,5.04948 v 10.57291 z m 20.16144,1.60416 3.1901,0.47396 q 0.20053,1.47656 1.11198,2.15104 1.22136,0.91146 3.33594,0.91146 2.27864,0 3.51822,-0.91146 1.23959,-0.91146 1.67709,-2.55208 0.2552,-1.0026 0.23697,-4.21094 -2.15104,2.53386 -5.35937,2.53386 -3.99218,0 -6.17968,-2.88021 -2.1875,-2.88021 -2.1875,-6.90885 0,-2.77083 1.00261,-5.10416 1.0026,-2.35156 2.89843,-3.6276 1.91406,-1.27604 4.48437,-1.27604 3.42708,0 5.65104,2.77083 v -2.33333 h 3.02604 v 16.73436 q 0,4.52083 -0.92969,6.39843 -0.91145,1.89583 -2.91666,2.98958 -1.98698,1.09375 -4.90364,1.09375 -3.46354,0 -5.59635,-1.56771 -2.13281,-1.54947 -2.0599,-4.68489 z m 2.71615,-11.6302 q 0,3.8099 1.51302,5.55989 1.51302,1.75 3.79166,1.75 2.26041,0 3.79166,-1.73177 1.53125,-1.74999 1.53125,-5.46874 0,-3.55469 -1.58593,-5.35937 -1.56771,-1.80469 -3.79167,-1.80469 -2.1875,0 -3.71874,1.78646 -1.53125,1.76823 -1.53125,5.26822 z m 32.5937,10.02604 -5.92447,-19.35936 h 3.39062 l 3.08073,11.17447 1.14844,4.15624 q 0.0729,-0.30989 1.0026,-3.99218 l 3.08073,-11.33853 h 3.37239 l 2.89843,11.22916 0.96615,3.70051 1.11198,-3.73697 3.3177,-11.1927 h 3.1901 l -6.05207,19.35936 h -3.40886 l -3.08072,-11.59374 -0.7474,-3.29948 -3.91926,14.89322 z m 23.40626,-22.9505 v -3.77344 h 3.28125 v 3.77344 z m 0,22.9505 v -19.35936 h 3.28125 v 19.35936 z m 8.27602,0 v -19.35936 h 2.95312 v 2.7526 q 2.13281,-3.1901 6.16145,-3.1901 1.75,0 3.20834,0.63802 1.47656,0.61979 2.20572,1.64062 0.72917,1.02083 1.02084,2.42448 0.18229,0.91146 0.18229,3.1901 v 11.90364 h -3.28125 V 241.8521 q 0,-2.0052 -0.38281,-2.98958 -0.38281,-1.0026 -1.36719,-1.58593 -0.96614,-0.60156 -2.27864,-0.60156 -2.09636,0 -3.6276,1.33072 -1.51302,1.33073 -1.51302,5.04948 v 10.57291 z m 33.32288,0 v -2.44271 q -1.84114,2.88021 -5.41405,2.88021 -2.31511,0 -4.26562,-1.27604 -1.93229,-1.27605 -3.00781,-3.55469 -1.0573,-2.29687 -1.0573,-5.26822 0,-2.89844 0.96615,-5.25 0.96614,-2.36979 2.89843,-3.6276 1.93229,-1.25781 4.32031,-1.25781 1.75,0 3.11719,0.74739 1.36718,0.72917 2.22396,1.91406 v -9.58853 h 3.26301 v 26.72394 z m -10.37238,-9.66145 q 0,3.71874 1.5677,5.55989 1.56771,1.84114 3.70052,1.84114 2.15104,0 3.64583,-1.75 1.51302,-1.76822 1.51302,-5.3776 0,-3.97395 -1.53125,-5.83332 -1.53125,-1.85938 -3.77343,-1.85938 -2.1875,0 -3.66406,1.78646 -1.45833,1.78646 -1.45833,5.63281 z m 17.35415,-0.0182 q 0,-5.3776 2.98958,-7.96614 2.49739,-2.15104 6.08853,-2.15104 3.99219,0 6.52604,2.625 2.53385,2.60676 2.53385,7.21874 0,3.73698 -1.1302,5.88802 -1.11198,2.13281 -3.26302,3.3177 -2.13281,1.1849 -4.66667,1.1849 -4.0651,0 -6.58072,-2.60677 -2.49739,-2.60677 -2.49739,-7.51041 z m 3.37239,0 q 0,3.71874 1.62239,5.57812 1.6224,1.84114 4.08333,1.84114 2.44271,0 4.06511,-1.85937 1.62239,-1.85938 1.62239,-5.66927 0,-3.59114 -1.64062,-5.43228 -1.6224,-1.85938 -4.04688,-1.85938 -2.46093,0 -4.08333,1.84115 -1.62239,1.84114 -1.62239,5.55989 z m 22.18487,9.67968 -5.92447,-19.35936 h 3.39062 l 3.08073,11.17447 1.14844,4.15624 q 0.0729,-0.30989 1.0026,-3.99218 l 3.08073,-11.33853 h 3.37239 l 2.89843,11.22916 0.96615,3.70051 1.11198,-3.73697 3.3177,-11.1927 h 3.1901 l -6.05207,19.35936 h -3.40886 l -3.08072,-11.59374 -0.7474,-3.29948 -3.91927,14.89322 z"
       id="flowRoot4302"
       transform="translate(-43.91144,194.36213)"
       aria-label="Required weekends worked in a rolling window" /><g
       id="g3709"
       transform="translate(0,19.999997)" /><path
       style="font-size:16px;line-height:1.25;font-family:Arial;-inkscape-font-specification:Arial;text-align:center;text-anchor:middle"
       d="m 252.33594,164.41207 4.39843,-11.45312 h 1.63282 l 4.6875,11.45312 h -1.72657 l -1.33593,-3.46875 h -4.78907 l -1.25781,3.46875 z m 3.30468,-4.70312 h 3.88282 l -1.19532,-3.17188 q -0.54687,-1.44531 -0.8125,-2.375 -0.21875,1.10156 -0.61718,2.1875 z m 7.88282,2.22656 1.39062,-0.21875 q 0.11719,0.83594 0.64844,1.28125 0.53906,0.44531 1.5,0.44531 0.96875,0 1.4375,-0.39062 0.46875,-0.39844 0.46875,-0.92969 0,-0.47656 -0.41406,-0.75 -0.28907,-0.1875 -1.4375,-0.47656 -1.54688,-0.39063 -2.14844,-0.67188 -0.59375,-0.28906 -0.90625,-0.78906 -0.30469,-0.50781 -0.30469,-1.11719 0,-0.55469 0.25,-1.02344 0.25781,-0.47656 0.69531,-0.78906 0.32813,-0.24219 0.89063,-0.40625 0.57031,-0.17187 1.21875,-0.17187 0.97656,0 1.71094,0.28125 0.74218,0.28125 1.09375,0.76562 0.35156,0.47656 0.48437,1.28125 l -1.375,0.1875 q -0.0937,-0.64062 -0.54687,-1 -0.44532,-0.35937 -1.26563,-0.35937 -0.96875,0 -1.38281,0.32031 -0.41406,0.32031 -0.41406,0.75 0,0.27344 0.17187,0.49219 0.17188,0.22656 0.53906,0.375 0.21094,0.0781 1.24219,0.35937 1.49219,0.39844 2.07813,0.65625 0.59375,0.25 0.92968,0.73438 0.33594,0.48437 0.33594,1.20312 0,0.70313 -0.41406,1.32813 -0.40625,0.61718 -1.17969,0.96093 -0.77344,0.33594 -1.75,0.33594 -1.61719,0 -2.46875,-0.67187 -0.84375,-0.67188 -1.07812,-1.99219 z m 8,0 1.39062,-0.21875 q 0.11719,0.83594 0.64844,1.28125 0.53906,0.44531 1.5,0.44531 0.96875,0 1.4375,-0.39062 0.46875,-0.39844 0.46875,-0.92969 0,-0.47656 -0.41406,-0.75 -0.28907,-0.1875 -1.4375,-0.47656 -1.54688,-0.39063 -2.14844,-0.67188 -0.59375,-0.28906 -0.90625,-0.78906 -0.30469,-0.50781 -0.30469,-1.11719 0,-0.55469 0.25,-1.02344 0.25781,-0.47656 0.69531,-0.78906 0.32813,-0.24219 0.89063,-0.40625 0.57031,-0.17187 1.21875,-0.17187 0.97656,0 1.71094,0.28125 0.74218,0.28125 1.09375,0.76562 0.35156,0.47656 0.48437,1.28125 l -1.375,0.1875 q -0.0937,-0.64062 -0.54687,-1 -0.44532,-0.35937 -1.26563,-0.35937 -0.96875,0 -1.38281,0.32031 -0.41406,0.32031 -0.41406,0.75 0,0.27344 0.17187,0.49219 0.17188,0.22656 0.53906,0.375 0.21094,0.0781 1.24219,0.35937 1.49219,0.39844 2.07813,0.65625 0.59375,0.25 0.92968,0.73438 0.33594,0.48437 0.33594,1.20312 0,0.70313 -0.41406,1.32813 -0.40625,0.61718 -1.17969,0.96093 -0.77344,0.33594 -1.75,0.33594 -1.61719,0 -2.46875,-0.67187 -0.84375,-0.67188 -1.07812,-1.99219 z m 8.57031,-7.35938 v -1.61718 H 281.5 v 1.61718 z m 0,9.83594 V 156.1152 H 281.5 v 8.29687 z m 3.28906,0.6875 1.36719,0.20313 q 0.0859,0.63281 0.47656,0.92187 0.52344,0.39063 1.42969,0.39063 0.97656,0 1.50781,-0.39063 0.53125,-0.39062 0.71875,-1.09375 0.10938,-0.42969 0.10156,-1.80469 -0.92187,1.08594 -2.29687,1.08594 -1.71094,0 -2.64844,-1.23437 -0.9375,-1.23438 -0.9375,-2.96094 0,-1.1875 0.42969,-2.1875 0.42969,-1.00781 1.24219,-1.55469 0.82031,-0.54687 1.92187,-0.54687 1.46875,0 2.42188,1.1875 v -1 h 1.29687 v 7.17187 q 0,1.9375 -0.39844,2.74219 -0.39062,0.8125 -1.25,1.28125 -0.85156,0.46875 -2.10156,0.46875 -1.48437,0 -2.39844,-0.67188 -0.91406,-0.66406 -0.88281,-2.00781 z m 1.16406,-4.98437 q 0,1.63281 0.64844,2.38281 0.64844,0.75 1.625,0.75 0.96875,0 1.625,-0.74219 0.65625,-0.75 0.65625,-2.34375 0,-1.52344 -0.67969,-2.29687 -0.67187,-0.77344 -1.625,-0.77344 -0.9375,0 -1.59375,0.76562 -0.65625,0.75782 -0.65625,2.25782 z m 7.99219,4.29687 v -8.29687 h 1.26563 v 1.17968 q 0.91406,-1.36718 2.64062,-1.36718 0.75,0 1.375,0.27343 0.63281,0.26563 0.94531,0.70313 0.3125,0.4375 0.4375,1.03906 0.0781,0.39063 0.0781,1.36719 v 5.10156 H 297.875 v -5.04687 q 0,-0.85938 -0.16406,-1.28125 -0.16407,-0.42969 -0.58594,-0.67969 -0.41406,-0.25781 -0.97656,-0.25781 -0.89844,0 -1.55469,0.57031 -0.64844,0.57031 -0.64844,2.16406 v 4.53125 z m 11.38281,0 4.39844,-11.45312 h 1.63281 l 4.6875,11.45312 h -1.72656 l -1.33594,-3.46875 h -4.78906 l -1.25781,3.46875 z m 3.30469,-4.70312 h 3.88281 l -1.19531,-3.17188 q -0.54687,-1.44531 -0.8125,-2.375 -0.21875,1.10156 -0.61719,2.1875 z m 8.44531,4.70312 v -8.29687 h 1.26563 v 1.17968 q 0.91406,-1.36718 2.64062,-1.36718 0.75,0 1.375,0.27343 0.63282,0.26563 0.94532,0.70313 0.3125,0.4375 0.4375,1.03906 0.0781,0.39063 0.0781,1.36719 v 5.10156 h -1.40625 v -5.04687 q 0,-0.85938 -0.16406,-1.28125 -0.16406,-0.42969 -0.58594,-0.67969 -0.41406,-0.25781 -0.97656,-0.25781 -0.89844,0 -1.55469,0.57031 -0.64844,0.57031 -0.64844,2.16406 v 4.53125 z m 8.89844,0 v -8.29687 h 1.26563 v 1.17968 q 0.91406,-1.36718 2.64062,-1.36718 0.75,0 1.375,0.27343 0.63281,0.26563 0.94531,0.70313 0.3125,0.4375 0.4375,1.03906 0.0781,0.39063 0.0781,1.36719 v 5.10156 h -1.40625 v -5.04687 q 0,-0.85938 -0.16406,-1.28125 -0.16407,-0.42969 -0.58594,-0.67969 -0.41406,-0.25781 -0.97656,-0.25781 -0.89844,0 -1.55469,0.57031 -0.64844,0.57031 -0.64844,2.16406 v 4.53125 z m 12.78125,-2.47656 1.39063,-0.21875 q 0.11718,0.83594 0.64843,1.28125 0.53907,0.44531 1.5,0.44531 0.96875,0 1.4375,-0.39062 0.46875,-0.39844 0.46875,-0.92969 0,-0.47656 -0.41406,-0.75 -0.28906,-0.1875 -1.4375,-0.47656 -1.54687,-0.39063 -2.14844,-0.67188 -0.59375,-0.28906 -0.90625,-0.78906 -0.30468,-0.50781 -0.30468,-1.11719 0,-0.55469 0.25,-1.02344 0.25781,-0.47656 0.69531,-0.78906 0.32812,-0.24219 0.89062,-0.40625 0.57032,-0.17187 1.21875,-0.17187 0.97657,0 1.71094,0.28125 0.74219,0.28125 1.09375,0.76562 0.35156,0.47656 0.48438,1.28125 l -1.375,0.1875 q -0.0937,-0.64062 -0.54688,-1 -0.44531,-0.35937 -1.26562,-0.35937 -0.96875,0 -1.38282,0.32031 -0.41406,0.32031 -0.41406,0.75 0,0.27344 0.17188,0.49219 0.17187,0.22656 0.53906,0.375 0.21094,0.0781 1.24219,0.35937 1.49218,0.39844 2.07812,0.65625 0.59375,0.25 0.92969,0.73438 0.33594,0.48437 0.33594,1.20312 0,0.70313 -0.41407,1.32813 -0.40625,0.61718 -1.17968,0.96093 -0.77344,0.33594 -1.75,0.33594 -1.61719,0 -2.46875,-0.67187 -0.84375,-0.67188 -1.07813,-1.99219 z m 8.5625,2.47656 v -11.45312 h 1.40625 v 4.10937 q 0.98438,-1.14062 2.48438,-1.14062 0.92187,0 1.60156,0.36718 0.67969,0.35938 0.96875,1 0.29687,0.64063 0.29687,1.85938 v 5.25781 h -1.40625 v -5.25781 q 0,-1.05469 -0.46093,-1.53125 -0.45313,-0.48438 -1.28907,-0.48438 -0.625,0 -1.17968,0.32813 -0.54688,0.32031 -0.78125,0.875 -0.23438,0.55469 -0.23438,1.53125 v 4.53906 z m 8.90625,-9.83594 v -1.61718 h 1.40625 v 1.61718 z m 0,9.83594 v -8.29687 h 1.40625 v 8.29687 z m 3.88281,0 v -7.20312 h -1.24218 v -1.09375 h 1.24218 v -0.88282 q 0,-0.83593 0.14844,-1.24218 0.20313,-0.54688 0.71094,-0.88282 0.51562,-0.34375 1.4375,-0.34375 0.59375,0 1.3125,0.14063 l -0.21094,1.22656 q -0.4375,-0.0781 -0.82812,-0.0781 -0.64063,0 -0.90625,0.27343 -0.26563,0.27344 -0.26563,1.02344 v 0.76563 h 1.61719 v 1.09375 h -1.61719 v 7.20312 z m 7.17969,-1.25781 0.20313,1.24219 q -0.59375,0.125 -1.0625,0.125 -0.76563,0 -1.1875,-0.24219 -0.42188,-0.24219 -0.59375,-0.63281 -0.17188,-0.39844 -0.17188,-1.66407 v -4.77343 h -1.03125 v -1.09375 h 1.03125 v -2.05469 l 1.39844,-0.84375 v 2.89844 h 1.41406 v 1.09375 h -1.41406 v 4.85156 q 0,0.60156 0.0703,0.77344 0.0781,0.17187 0.24219,0.27343 0.17187,0.10157 0.48437,0.10157 0.23438,0 0.61719,-0.0547 z m 0.8125,-1.21875 1.39063,-0.21875 q 0.11718,0.83594 0.64843,1.28125 0.53907,0.44531 1.5,0.44531 0.96875,0 1.4375,-0.39062 0.46875,-0.39844 0.46875,-0.92969 0,-0.47656 -0.41406,-0.75 -0.28906,-0.1875 -1.4375,-0.47656 -1.54687,-0.39063 -2.14844,-0.67188 -0.59375,-0.28906 -0.90625,-0.78906 -0.30468,-0.50781 -0.30468,-1.11719 0,-0.55469 0.25,-1.02344 0.25781,-0.47656 0.69531,-0.78906 0.32812,-0.24219 0.89062,-0.40625 0.57032,-0.17187 1.21875,-0.17187 0.97657,0 1.71094,0.28125 0.74219,0.28125 1.09375,0.76562 0.35156,0.47656 0.48438,1.28125 l -1.375,0.1875 q -0.0937,-0.64062 -0.54688,-1 -0.44531,-0.35937 -1.26562,-0.35937 -0.96875,0 -1.38282,0.32031 -0.41406,0.32031 -0.41406,0.75 0,0.27344 0.17188,0.49219 0.17187,0.22656 0.53906,0.375 0.21094,0.0781 1.24219,0.35937 1.49218,0.39844 2.07812,0.65625 0.59375,0.25 0.92969,0.73438 0.33594,0.48437 0.33594,1.20312 0,0.70313 -0.41407,1.32813 -0.40625,0.61718 -1.17968,0.96093 -0.77344,0.33594 -1.75,0.33594 -1.61719,0 -2.46875,-0.67187 -0.84375,-0.67188 -1.07813,-1.99219 z m 12.48438,-1.67188 q 0,-2.30468 1.28125,-3.41406 1.07031,-0.92187 2.60937,-0.92187 1.71094,0 2.79688,1.125 1.08593,1.11718 1.08593,3.09375 0,1.60156 -0.48437,2.52343 -0.47656,0.91407 -1.39844,1.42188 -0.91406,0.50781 -2,0.50781 -1.74219,0 -2.82031,-1.11719 -1.07031,-1.11718 -1.07031,-3.21875 z m 1.44531,0 q 0,1.59375 0.69531,2.39063 0.69531,0.78906 1.75,0.78906 1.04688,0 1.74219,-0.79687 0.69531,-0.79688 0.69531,-2.42969 0,-1.53906 -0.70312,-2.32813 -0.69532,-0.79687 -1.73438,-0.79687 -1.05469,0 -1.75,0.78906 -0.69531,0.78906 -0.69531,2.38281 z m 7.97656,4.14844 v -8.29687 h 1.26563 v 1.17968 q 0.91406,-1.36718 2.64062,-1.36718 0.75,0 1.375,0.27343 0.63281,0.26563 0.94531,0.70313 0.3125,0.4375 0.4375,1.03906 0.0781,0.39063 0.0781,1.36719 v 5.10156 h -1.40625 v -5.04687 q 0,-0.85938 -0.16406,-1.28125 -0.16407,-0.42969 -0.58594,-0.67969 -0.41406,-0.25781 -0.97656,-0.25781 -0.89844,0 -1.55469,0.57031 -0.64844,0.57031 -0.64844,2.16406 v 4.53125 z m 18.75781,-1.02344 q -0.78125,0.66407 -1.50781,0.9375 -0.71875,0.27344 -1.54687,0.27344 -1.36719,0 -2.10157,-0.66406 -0.73437,-0.67188 -0.73437,-1.71094 0,-0.60937 0.27344,-1.10937 0.28125,-0.50782 0.72656,-0.8125 0.45312,-0.30469 1.01562,-0.46094 0.41407,-0.10938 1.25,-0.21094 1.70313,-0.20312 2.50782,-0.48437 0.008,-0.28907 0.008,-0.36719 0,-0.85938 -0.39844,-1.21094 -0.53906,-0.47656 -1.60156,-0.47656 -0.99219,0 -1.46875,0.35156 -0.46875,0.34375 -0.69531,1.22656 l -1.375,-0.1875 q 0.1875,-0.88281 0.61718,-1.42187 0.42969,-0.54688 1.24219,-0.83594 0.8125,-0.29687 1.88281,-0.29687 1.0625,0 1.72657,0.25 0.66406,0.25 0.97656,0.63281 0.3125,0.375 0.4375,0.95312 0.0703,0.35938 0.0703,1.29688 v 1.875 q 0,1.96094 0.0859,2.48437 0.0937,0.51563 0.35937,0.99219 h -1.46875 q -0.21875,-0.4375 -0.28125,-1.02344 z m -0.11718,-3.14062 q -0.76563,0.3125 -2.29688,0.53125 -0.86719,0.125 -1.22656,0.28125 -0.35938,0.15625 -0.55469,0.46094 -0.19531,0.29687 -0.19531,0.66406 0,0.5625 0.42187,0.9375 0.42969,0.375 1.25,0.375 0.8125,0 1.44532,-0.35156 0.63281,-0.35938 0.92968,-0.97657 0.22657,-0.47656 0.22657,-1.40625 z m 8.04687,4.16406 v -8.29687 h 1.25781 v 1.16406 q 0.39063,-0.60938 1.03907,-0.97656 0.64843,-0.375 1.47656,-0.375 0.92187,0 1.50781,0.38281 0.59375,0.38281 0.83594,1.07031 0.98437,-1.45312 2.5625,-1.45312 1.23437,0 1.89844,0.6875 0.66406,0.67968 0.66406,2.10156 v 5.69531 h -1.39844 v -5.22656 q 0,-0.84375 -0.14062,-1.21094 -0.13282,-0.375 -0.49219,-0.60156 -0.35938,-0.22656 -0.84375,-0.22656 -0.875,0 -1.45313,0.58593 -0.57812,0.57813 -0.57812,1.85938 v 4.82031 h -1.40625 v -5.39062 q 0,-0.9375 -0.34375,-1.40625 -0.34375,-0.46875 -1.125,-0.46875 -0.59375,0 -1.10156,0.3125 -0.5,0.3125 -0.72657,0.91406 -0.22656,0.60156 -0.22656,1.73437 v 4.30469 z m 18.74219,-1.02344 q -0.78125,0.66407 -1.50781,0.9375 -0.71875,0.27344 -1.54688,0.27344 -1.36719,0 -2.10156,-0.66406 -0.73438,-0.67188 -0.73438,-1.71094 0,-0.60937 0.27344,-1.10937 0.28125,-0.50782 0.72656,-0.8125 0.45313,-0.30469 1.01563,-0.46094 0.41406,-0.10938 1.25,-0.21094 1.70312,-0.20312 2.50781,-0.48437 0.008,-0.28907 0.008,-0.36719 0,-0.85938 -0.39843,-1.21094 -0.53907,-0.47656 -1.60157,-0.47656 -0.99218,0 -1.46875,0.35156 -0.46875,0.34375 -0.69531,1.22656 l -1.375,-0.1875 q 0.1875,-0.88281 0.61719,-1.42187 0.42969,-0.54688 1.24219,-0.83594 0.8125,-0.29687 1.88281,-0.29687 1.0625,0 1.72656,0.25 0.66406,0.25 0.97656,0.63281 0.3125,0.375 0.4375,0.95312 0.0703,0.35938 0.0703,1.29688 v 1.875 q 0,1.96094 0.0859,2.48437 0.0937,0.51563 0.35938,0.99219 h -1.46875 q -0.21875,-0.4375 -0.28125,-1.02344 z m -0.11719,-3.14062 q -0.76562,0.3125 -2.29687,0.53125 -0.86719,0.125 -1.22657,0.28125 -0.35937,0.15625 -0.55468,0.46094 -0.19532,0.29687 -0.19532,0.66406 0,0.5625 0.42188,0.9375 0.42969,0.375 1.25,0.375 0.8125,0 1.44531,-0.35156 0.63281,-0.35938 0.92969,-0.97657 0.22656,-0.47656 0.22656,-1.40625 z m 2.66406,4.16406 3.03125,-4.3125 -2.80468,-3.98437 h 1.75781 l 1.27344,1.94531 q 0.35937,0.55469 0.57812,0.92969 0.34375,-0.51563 0.63281,-0.91407 l 1.39844,-1.96093 h 1.67969 l -2.86719,3.90625 3.08594,4.39062 h -1.72656 l -1.70313,-2.57812 -0.45312,-0.69532 -2.17969,3.27344 z m 8.94532,-9.83594 v -1.61718 h 1.40625 v 1.61718 z m 0,9.83594 v -8.29687 h 1.40625 v 8.29687 z m 3.54687,0 v -8.29687 h 1.25781 v 1.16406 q 0.39063,-0.60938 1.03907,-0.97656 0.64843,-0.375 1.47656,-0.375 0.92187,0 1.50781,0.38281 0.59375,0.38281 0.83594,1.07031 0.98437,-1.45312 2.5625,-1.45312 1.23437,0 1.89844,0.6875 0.66406,0.67968 0.66406,2.10156 v 5.69531 h -1.39844 v -5.22656 q 0,-0.84375 -0.14062,-1.21094 -0.13282,-0.375 -0.49219,-0.60156 -0.35938,-0.22656 -0.84375,-0.22656 -0.875,0 -1.45313,0.58593 -0.57812,0.57813 -0.57812,1.85938 v 4.82031 H 454 v -5.39062 q 0,-0.9375 -0.34375,-1.40625 -0.34375,-0.46875 -1.125,-0.46875 -0.59375,0 -1.10156,0.3125 -0.5,0.3125 -0.72657,0.91406 -0.22656,0.60156 -0.22656,1.73437 v 4.30469 z m 18.76563,0 v -1.21875 q -0.96875,1.40625 -2.63282,1.40625 -0.73437,0 -1.375,-0.28125 -0.63281,-0.28125 -0.94531,-0.70312 -0.30469,-0.42969 -0.42969,-1.04688 -0.0859,-0.41406 -0.0859,-1.3125 v -5.14062 h 1.40625 v 4.60156 q 0,1.10156 0.0859,1.48437 0.13282,0.55469 0.5625,0.875 0.42969,0.3125 1.0625,0.3125 0.63282,0 1.1875,-0.32031 0.55469,-0.32812 0.78125,-0.88281 0.23438,-0.5625 0.23438,-1.625 v -4.44531 h 1.40625 v 8.29687 z m 3.46093,0 v -8.29687 h 1.25782 v 1.16406 q 0.39062,-0.60938 1.03906,-0.97656 0.64844,-0.375 1.47656,-0.375 0.92188,0 1.50781,0.38281 0.59375,0.38281 0.83594,1.07031 0.98438,-1.45312 2.5625,-1.45312 1.23438,0 1.89844,0.6875 0.66406,0.67968 0.66406,2.10156 v 5.69531 h -1.39844 v -5.22656 q 0,-0.84375 -0.14062,-1.21094 -0.13281,-0.375 -0.49219,-0.60156 -0.35937,-0.22656 -0.84375,-0.22656 -0.875,0 -1.45312,0.58593 -0.57813,0.57813 -0.57813,1.85938 v 4.82031 h -1.40625 v -5.39062 q 0,-0.9375 -0.34375,-1.40625 -0.34375,-0.46875 -1.125,-0.46875 -0.59375,0 -1.10156,0.3125 -0.5,0.3125 -0.72656,0.91406 -0.22657,0.60156 -0.22657,1.73437 v 4.30469 z m 17.25,-4.14844 q 0,-2.30468 1.28125,-3.41406 1.07032,-0.92187 2.60938,-0.92187 1.71094,0 2.79687,1.125 1.08594,1.11718 1.08594,3.09375 0,1.60156 -0.48437,2.52343 -0.47657,0.91407 -1.39844,1.42188 -0.91406,0.50781 -2,0.50781 -1.74219,0 -2.82031,-1.11719 -1.07032,-1.11718 -1.07032,-3.21875 z m 1.44532,0 q 0,1.59375 0.69531,2.39063 0.69531,0.78906 1.75,0.78906 1.04687,0 1.74219,-0.79687 0.69531,-0.79688 0.69531,-2.42969 0,-1.53906 -0.70313,-2.32813 -0.69531,-0.79687 -1.73437,-0.79687 -1.05469,0 -1.75,0.78906 -0.69531,0.78906 -0.69531,2.38281 z m 8.3125,4.14844 v -7.20312 h -1.24219 v -1.09375 h 1.24219 v -0.88282 q 0,-0.83593 0.14843,-1.24218 0.20313,-0.54688 0.71094,-0.88282 0.51563,-0.34375 1.4375,-0.34375 0.59375,0 1.3125,0.14063 l -0.21094,1.22656 q -0.4375,-0.0781 -0.82812,-0.0781 -0.64063,0 -0.90625,0.27343 -0.26563,0.27344 -0.26563,1.02344 v 0.76563 h 1.61719 v 1.09375 h -1.61719 v 7.20312 z m 13.46093,0 h -1.40625 v -8.96094 q -0.50781,0.48438 -1.33593,0.96875 -0.82032,0.48438 -1.47657,0.72657 v -1.35938 q 1.17969,-0.55469 2.0625,-1.34375 0.88282,-0.78906 1.25,-1.53125 h 0.90625 z m 9.96875,0 -2.53906,-8.29687 h 1.45313 l 1.32031,4.78906 0.49219,1.78125 q 0.0312,-0.13281 0.42968,-1.71094 l 1.32032,-4.85937 h 1.44531 l 1.24219,4.8125 0.41406,1.58593 0.47656,-1.60156 1.42188,-4.79687 h 1.36718 l -2.59375,8.29687 h -1.46093 l -1.32032,-4.96875 -0.32031,-1.41406 -1.67969,6.38281 z m 15.70313,-2.67187 1.45312,0.17968 q -0.34375,1.27344 -1.27343,1.97657 -0.92969,0.70312 -2.375,0.70312 -1.82032,0 -2.89063,-1.11719 -1.0625,-1.125 -1.0625,-3.14843 0,-2.09375 1.07813,-3.25 1.07812,-1.15625 2.79687,-1.15625 1.66406,0 2.71875,1.13281 1.05469,1.13281 1.05469,3.1875 0,0.125 -0.008,0.375 h -6.1875 q 0.0781,1.36719 0.77343,2.09375 0.69532,0.72656 1.73438,0.72656 0.77344,0 1.32031,-0.40625 0.54688,-0.40625 0.86719,-1.29687 z m -4.61719,-2.27344 h 4.63281 q -0.0937,-1.04688 -0.53125,-1.57031 -0.67187,-0.8125 -1.74218,-0.8125 -0.96875,0 -1.63282,0.64843 -0.65625,0.64844 -0.72656,1.73438 z m 13.51563,2.27344 1.45312,0.17968 q -0.34375,1.27344 -1.27344,1.97657 -0.92968,0.70312 -2.375,0.70312 -1.82031,0 -2.89062,-1.11719 -1.0625,-1.125 -1.0625,-3.14843 0,-2.09375 1.07812,-3.25 1.07813,-1.15625 2.79688,-1.15625 1.66406,0 2.71875,1.13281 1.05469,1.13281 1.05469,3.1875 0,0.125 -0.008,0.375 h -6.1875 q 0.0781,1.36719 0.77344,2.09375 0.69531,0.72656 1.73438,0.72656 0.77343,0 1.32031,-0.40625 0.54687,-0.40625 0.86719,-1.29687 z m -4.61719,-2.27344 h 4.63281 q -0.0937,-1.04688 -0.53125,-1.57031 -0.67187,-0.8125 -1.74219,-0.8125 -0.96875,0 -1.63281,0.64843 -0.65625,0.64844 -0.72656,1.73438 z m 7.84375,4.94531 v -11.45312 h 1.40625 v 6.53125 l 3.32812,-3.375 h 1.82032 l -3.17188,3.07812 3.49219,5.21875 h -1.73438 l -2.74218,-4.24219 -0.99219,0.95313 v 3.28906 z m 13.67187,-2.67187 1.45313,0.17968 q -0.34375,1.27344 -1.27344,1.97657 -0.92969,0.70312 -2.375,0.70312 -1.82031,0 -2.89062,-1.11719 -1.0625,-1.125 -1.0625,-3.14843 0,-2.09375 1.07812,-3.25 1.07813,-1.15625 2.79688,-1.15625 1.66406,0 2.71875,1.13281 1.05468,1.13281 1.05468,3.1875 0,0.125 -0.008,0.375 h -6.1875 q 0.0781,1.36719 0.77344,2.09375 0.69531,0.72656 1.73437,0.72656 0.77344,0 1.32032,-0.40625 0.54687,-0.40625 0.86718,-1.29687 z m -4.61718,-2.27344 H 563.25 q -0.0937,-1.04688 -0.53125,-1.57031 -0.67188,-0.8125 -1.74219,-0.8125 -0.96875,0 -1.63281,0.64843 -0.65625,0.64844 -0.72656,1.73438 z m 7.83593,4.94531 v -8.29687 h 1.26563 v 1.17968 q 0.91406,-1.36718 2.64062,-1.36718 0.75,0 1.375,0.27343 0.63282,0.26563 0.94532,0.70313 0.3125,0.4375 0.4375,1.03906 0.0781,0.39063 0.0781,1.36719 v 5.10156 h -1.40625 v -5.04687 q 0,-0.85938 -0.16406,-1.28125 -0.16406,-0.42969 -0.58594,-0.67969 -0.41406,-0.25781 -0.97656,-0.25781 -0.89844,0 -1.55469,0.57031 -0.64844,0.57031 -0.64844,2.16406 v 4.53125 z m 14.28125,0 v -1.04687 q -0.78906,1.23437 -2.32031,1.23437 -0.99219,0 -1.82812,-0.54687 -0.82813,-0.54688 -1.28907,-1.52344 -0.45312,-0.98438 -0.45312,-2.25781 0,-1.24219 0.41406,-2.25 0.41406,-1.01563 1.24219,-1.55469 0.82812,-0.53906 1.85156,-0.53906 0.75,0 1.33594,0.32031 0.58594,0.3125 0.95312,0.82031 v -4.10937 h 1.39844 v 11.45312 z m -4.44531,-4.14062 q 0,1.59375 0.67188,2.38281 0.67187,0.78906 1.58593,0.78906 0.92188,0 1.5625,-0.75 0.64844,-0.75781 0.64844,-2.30469 0,-1.70312 -0.65625,-2.5 -0.65625,-0.79687 -1.61719,-0.79687 -0.9375,0 -1.57031,0.76562 -0.625,0.76563 -0.625,2.41407 z m 8.35938,4.14062 v -1.60156 H 586.25 v 1.60156 z"
       id="flowRoot4302-6"
       transform="translate(-20,314.36182)"
       aria-label="Assign Ann shifts on a maximum of 1 weekend." /><flowRoot
       xml:space="preserve"
       id="flowRoot937"
       style="color:#000000;font-style:normal;font-variant:normal;font-weight:normal;font-stretch:normal;font-size:16px;font-family:Arial;-inkscape-font-specification:Arial;text-align:center;writing-mode:lr-tb;text-anchor:middle;display:inline;overflow:visible;visibility:visible;opacity:1;vector-effect:none;fill:#a40000;fill-opacity:1;fill-rule:nonzero;stroke:#8f5902;stroke-width:3;stroke-linecap:round;stroke-linejoin:round;stroke-miterlimit:4;stroke-dasharray:none;stroke-dashoffset:0;stroke-opacity:1;marker:none;enable-background:accumulate"><flowRegion
         id="flowRegion939"><rect
           id="rect941"
           width="52.987019"
           height="116.1039"
           x="-94.285713"
           y="141.03894" /></flowRegion><flowPara
         id="flowPara943" /></flowRoot><g
       id="g80"
       transform="translate(-0.86929902,86.928291)"
       style="display:inline" /></g><g
     id="layer2"
     style="display:inline"><path
       style="font-size:16px;line-height:1.25;font-family:Arial;-inkscape-font-specification:Arial;text-align:center;text-anchor:middle"
       d="m 213.17187,155.76363 -1.39843,0.10938 q -0.1875,-0.82813 -0.53125,-1.20313 -0.57032,-0.60156 -1.40625,-0.60156 -0.67188,0 -1.17969,0.375 -0.66406,0.48438 -1.04688,1.41406 -0.38281,0.92969 -0.39843,2.64844 0.50781,-0.77344 1.24218,-1.14844 0.73438,-0.375 1.53907,-0.375 1.40625,0 2.39062,1.03907 0.99219,1.03125 0.99219,2.67187 0,1.07813 -0.46875,2.00781 -0.46094,0.92188 -1.27344,1.41407 -0.8125,0.49218 -1.84375,0.49218 -1.75781,0 -2.86719,-1.28906 -1.10937,-1.29687 -1.10937,-4.26562 0,-3.32032 1.22656,-4.82813 1.07031,-1.3125 2.88281,-1.3125 1.35157,0 2.21094,0.75781 0.86719,0.75782 1.03906,2.09375 z m -5.74218,4.9375 q 0,0.72657 0.30468,1.39063 0.3125,0.66406 0.86719,1.01562 0.55469,0.34375 1.16406,0.34375 0.89063,0 1.53125,-0.71875 0.64063,-0.71875 0.64063,-1.95312 0,-1.1875 -0.63281,-1.86719 -0.63282,-0.6875 -1.59375,-0.6875 -0.95313,0 -1.61719,0.6875 -0.66406,0.67969 -0.66406,1.78906 z m 11.61718,1.23438 1.39063,-0.21875 q 0.11719,0.83594 0.64844,1.28125 0.53906,0.44531 1.5,0.44531 0.96875,0 1.4375,-0.39062 0.46875,-0.39844 0.46875,-0.92969 0,-0.47656 -0.41407,-0.75 -0.28906,-0.1875 -1.4375,-0.47656 -1.54687,-0.39063 -2.14843,-0.67188 -0.59375,-0.28906 -0.90625,-0.78906 -0.30469,-0.50781 -0.30469,-1.11719 0,-0.55469 0.25,-1.02344 0.25781,-0.47656 0.69531,-0.78906 0.32813,-0.24219 0.89063,-0.40625 0.57031,-0.17187 1.21875,-0.17187 0.97656,0 1.71093,0.28125 0.74219,0.28125 1.09375,0.76562 0.35157,0.47656 0.48438,1.28125 l -1.375,0.1875 q -0.0937,-0.64062 -0.54688,-1 -0.44531,-0.35937 -1.26562,-0.35937 -0.96875,0 -1.38281,0.32031 -0.41407,0.32031 -0.41407,0.75 0,0.27344 0.17188,0.49219 0.17187,0.22656 0.53906,0.375 0.21094,0.0781 1.24219,0.35937 1.49219,0.39844 2.07812,0.65625 0.59375,0.25 0.92969,0.73438 0.33594,0.48437 0.33594,1.20312 0,0.70313 -0.41406,1.32813 -0.40625,0.61718 -1.17969,0.96093 -0.77344,0.33594 -1.75,0.33594 -1.61719,0 -2.46875,-0.67187 -0.84375,-0.67188 -1.07813,-1.99219 z m 8.5625,2.47656 v -11.45312 h 1.40625 v 4.10937 Q 230,155.9277 231.5,155.9277 q 0.92187,0 1.60156,0.36718 0.67969,0.35938 0.96875,1 0.29688,0.64063 0.29688,1.85938 v 5.25781 h -1.40625 v -5.25781 q 0,-1.05469 -0.46094,-1.53125 -0.45313,-0.48438 -1.28906,-0.48438 -0.625,0 -1.17969,0.32813 -0.54688,0.32031 -0.78125,0.875 -0.23438,0.55469 -0.23438,1.53125 v 4.53906 z m 8.90625,-9.83594 v -1.61718 h 1.40625 v 1.61718 z m 0,9.83594 v -8.29687 h 1.40625 v 8.29687 z m 3.88282,0 v -7.20312 h -1.24219 v -1.09375 h 1.24219 v -0.88282 q 0,-0.83593 0.14843,-1.24218 0.20313,-0.54688 0.71094,-0.88282 0.51563,-0.34375 1.4375,-0.34375 0.59375,0 1.3125,0.14063 l -0.21094,1.22656 q -0.4375,-0.0781 -0.82812,-0.0781 -0.64063,0 -0.90625,0.27343 -0.26563,0.27344 -0.26563,1.02344 v 0.76563 h 1.61719 v 1.09375 h -1.61719 v 7.20312 z m 7.17968,-1.25781 0.20313,1.24219 q -0.59375,0.125 -1.0625,0.125 -0.76563,0 -1.1875,-0.24219 -0.42188,-0.24219 -0.59375,-0.63281 -0.17188,-0.39844 -0.17188,-1.66407 v -4.77343 h -1.03125 v -1.09375 h 1.03125 v -2.05469 l 1.39844,-0.84375 v 2.89844 h 1.41406 v 1.09375 h -1.41406 v 4.85156 q 0,0.60156 0.0703,0.77344 0.0781,0.17187 0.24219,0.27343 0.17188,0.10157 0.48438,0.10157 0.23437,0 0.61718,-0.0547 z m 0.8125,-1.21875 1.39063,-0.21875 q 0.11719,0.83594 0.64844,1.28125 0.53906,0.44531 1.5,0.44531 0.96875,0 1.4375,-0.39062 0.46875,-0.39844 0.46875,-0.92969 0,-0.47656 -0.41407,-0.75 -0.28906,-0.1875 -1.4375,-0.47656 -1.54687,-0.39063 -2.14843,-0.67188 -0.59375,-0.28906 -0.90625,-0.78906 -0.30469,-0.50781 -0.30469,-1.11719 0,-0.55469 0.25,-1.02344 0.25781,-0.47656 0.69531,-0.78906 0.32813,-0.24219 0.89063,-0.40625 0.57031,-0.17187 1.21875,-0.17187 0.97656,0 1.71093,0.28125 0.74219,0.28125 1.09375,0.76562 0.35157,0.47656 0.48438,1.28125 l -1.375,0.1875 q -0.0937,-0.64062 -0.54688,-1 -0.44531,-0.35937 -1.26562,-0.35937 -0.96875,0 -1.38281,0.32031 -0.41407,0.32031 -0.41407,0.75 0,0.27344 0.17188,0.49219 0.17187,0.22656 0.53906,0.375 0.21094,0.0781 1.24219,0.35937 1.49219,0.39844 2.07812,0.65625 0.59375,0.25 0.92969,0.73438 0.33594,0.48437 0.33594,1.20312 0,0.70313 -0.41406,1.32813 -0.40625,0.61718 -1.17969,0.96093 -0.77344,0.33594 -1.75,0.33594 -1.61719,0 -2.46875,-0.67187 -0.84375,-0.67188 -1.07813,-1.99219 z m 14.53907,2.47656 -2.53907,-8.29687 h 1.45313 l 1.32031,4.78906 0.49219,1.78125 q 0.0312,-0.13281 0.42969,-1.71094 l 1.32031,-4.85937 h 1.44531 l 1.24219,4.8125 0.41406,1.58593 0.47656,-1.60156 1.42188,-4.79687 h 1.36719 l -2.59375,8.29687 h -1.46094 l -1.32031,-4.96875 -0.32032,-1.41406 -1.67968,6.38281 z m 15.70312,-2.67187 1.45313,0.17968 q -0.34375,1.27344 -1.27344,1.97657 -0.92969,0.70312 -2.375,0.70312 -1.82031,0 -2.89063,-1.11719 -1.0625,-1.125 -1.0625,-3.14843 0,-2.09375 1.07813,-3.25 1.07812,-1.15625 2.79687,-1.15625 1.66407,0 2.71875,1.13281 1.05469,1.13281 1.05469,3.1875 0,0.125 -0.008,0.375 h -6.1875 q 0.0781,1.36719 0.77344,2.09375 0.69531,0.72656 1.73437,0.72656 0.77344,0 1.32031,-0.40625 0.54688,-0.40625 0.86719,-1.29687 z m -4.61719,-2.27344 h 4.63282 q -0.0937,-1.04688 -0.53125,-1.57031 -0.67188,-0.8125 -1.74219,-0.8125 -0.96875,0 -1.63281,0.64843 -0.65625,0.64844 -0.72657,1.73438 z m 7.82032,4.94531 v -8.29687 h 1.26562 v 1.25781 q 0.48438,-0.88281 0.89063,-1.16406 0.41406,-0.28125 0.90625,-0.28125 0.71093,0 1.44531,0.45312 l -0.48438,1.30469 q -0.51562,-0.30469 -1.03125,-0.30469 -0.46093,0 -0.82812,0.28125 -0.36719,0.27344 -0.52344,0.76563 -0.23437,0.75 -0.23437,1.64062 v 4.34375 z m 11.02343,-2.67187 1.45313,0.17968 q -0.34375,1.27344 -1.27344,1.97657 -0.92969,0.70312 -2.375,0.70312 -1.82031,0 -2.89062,-1.11719 -1.0625,-1.125 -1.0625,-3.14843 0,-2.09375 1.07812,-3.25 1.07813,-1.15625 2.79688,-1.15625 1.66406,0 2.71875,1.13281 1.05468,1.13281 1.05468,3.1875 0,0.125 -0.008,0.375 h -6.1875 q 0.0781,1.36719 0.77344,2.09375 0.69531,0.72656 1.73437,0.72656 0.77344,0 1.32032,-0.40625 0.54687,-0.40625 0.86718,-1.29687 z m -4.61718,-2.27344 h 4.63281 q -0.0937,-1.04688 -0.53125,-1.57031 -0.67188,-0.8125 -1.74219,-0.8125 -0.96875,0 -1.63281,0.64843 -0.65625,0.64844 -0.72656,1.73438 z m 12.28125,4.94531 v -8.29687 h 1.26562 v 1.17968 q 0.91406,-1.36718 2.64063,-1.36718 0.75,0 1.375,0.27343 0.63281,0.26563 0.94531,0.70313 0.3125,0.4375 0.4375,1.03906 0.0781,0.39063 0.0781,1.36719 v 5.10156 h -1.40625 v -5.04687 q 0,-0.85938 -0.16406,-1.28125 -0.16406,-0.42969 -0.58594,-0.67969 -0.41406,-0.25781 -0.97656,-0.25781 -0.89844,0 -1.55469,0.57031 -0.64843,0.57031 -0.64843,2.16406 v 4.53125 z m 8.375,-4.14844 q 0,-2.30468 1.28125,-3.41406 1.07031,-0.92187 2.60937,-0.92187 1.71094,0 2.79688,1.125 1.08593,1.11718 1.08593,3.09375 0,1.60156 -0.48437,2.52343 -0.47656,0.91407 -1.39844,1.42188 -0.91406,0.50781 -2,0.50781 -1.74219,0 -2.82031,-1.11719 -1.07031,-1.11718 -1.07031,-3.21875 z m 1.44531,0 q 0,1.59375 0.69531,2.39063 0.69531,0.78906 1.75,0.78906 1.04688,0 1.74219,-0.79687 0.69531,-0.79688 0.69531,-2.42969 0,-1.53906 -0.70312,-2.32813 -0.69532,-0.79687 -1.73438,-0.79687 -1.05469,0 -1.75,0.78906 -0.69531,0.78906 -0.69531,2.38281 z m 11.04687,2.89063 0.20313,1.24219 q -0.59375,0.125 -1.0625,0.125 -0.76563,0 -1.1875,-0.24219 -0.42188,-0.24219 -0.59375,-0.63281 -0.17188,-0.39844 -0.17188,-1.66407 v -4.77343 h -1.03125 v -1.09375 h 1.03125 v -2.05469 l 1.39844,-0.84375 v 2.89844 h 1.41406 v 1.09375 h -1.41406 v 4.85156 q 0,0.60156 0.0703,0.77344 0.0781,0.17187 0.24219,0.27343 0.17188,0.10157 0.48438,0.10157 0.23437,0 0.61718,-0.0547 z m 11.23438,0.23437 q -0.78125,0.66407 -1.50781,0.9375 -0.71875,0.27344 -1.54688,0.27344 -1.36719,0 -2.10156,-0.66406 -0.73438,-0.67188 -0.73438,-1.71094 0,-0.60937 0.27344,-1.10937 0.28125,-0.50782 0.72656,-0.8125 0.45313,-0.30469 1.01563,-0.46094 0.41406,-0.10938 1.25,-0.21094 1.70312,-0.20312 2.50781,-0.48437 0.008,-0.28907 0.008,-0.36719 0,-0.85938 -0.39843,-1.21094 -0.53907,-0.47656 -1.60157,-0.47656 -0.99218,0 -1.46875,0.35156 -0.46875,0.34375 -0.69531,1.22656 l -1.375,-0.1875 q 0.1875,-0.88281 0.61719,-1.42187 0.42969,-0.54688 1.24219,-0.83594 0.8125,-0.29687 1.88281,-0.29687 1.0625,0 1.72656,0.25 0.66406,0.25 0.97656,0.63281 0.3125,0.375 0.4375,0.95312 0.0703,0.35938 0.0703,1.29688 v 1.875 q 0,1.96094 0.0859,2.48437 0.0937,0.51563 0.35938,0.99219 h -1.46875 q -0.21875,-0.4375 -0.28125,-1.02344 z m -0.11719,-3.14062 q -0.76562,0.3125 -2.29687,0.53125 -0.86719,0.125 -1.22657,0.28125 -0.35937,0.15625 -0.55468,0.46094 -0.19532,0.29687 -0.19532,0.66406 0,0.5625 0.42188,0.9375 0.42969,0.375 1.25,0.375 0.8125,0 1.44531,-0.35156 0.63281,-0.35938 0.92969,-0.97657 0.22656,-0.47656 0.22656,-1.40625 z m 3.03906,1.6875 1.39063,-0.21875 q 0.11719,0.83594 0.64844,1.28125 0.53906,0.44531 1.5,0.44531 0.96875,0 1.4375,-0.39062 0.46875,-0.39844 0.46875,-0.92969 0,-0.47656 -0.41407,-0.75 -0.28906,-0.1875 -1.4375,-0.47656 -1.54687,-0.39063 -2.14843,-0.67188 -0.59375,-0.28906 -0.90625,-0.78906 -0.30469,-0.50781 -0.30469,-1.11719 0,-0.55469 0.25,-1.02344 0.25781,-0.47656 0.69531,-0.78906 0.32813,-0.24219 0.89063,-0.40625 0.57031,-0.17187 1.21875,-0.17187 0.97656,0 1.71093,0.28125 0.74219,0.28125 1.09375,0.76562 0.35157,0.47656 0.48438,1.28125 l -1.375,0.1875 q -0.0937,-0.64062 -0.54688,-1 -0.44531,-0.35937 -1.26562,-0.35937 -0.96875,0 -1.38281,0.32031 -0.41407,0.32031 -0.41407,0.75 0,0.27344 0.17188,0.49219 0.17187,0.22656 0.53906,0.375 0.21094,0.0781 1.24219,0.35937 1.49219,0.39844 2.07812,0.65625 0.59375,0.25 0.92969,0.73438 0.33594,0.48437 0.33594,1.20312 0,0.70313 -0.41406,1.32813 -0.40625,0.61718 -1.17969,0.96093 -0.77344,0.33594 -1.75,0.33594 -1.61719,0 -2.46875,-0.67187 -0.84375,-0.67188 -1.07813,-1.99219 z m 8,0 1.39063,-0.21875 q 0.11719,0.83594 0.64844,1.28125 0.53906,0.44531 1.5,0.44531 0.96875,0 1.4375,-0.39062 0.46875,-0.39844 0.46875,-0.92969 0,-0.47656 -0.41407,-0.75 -0.28906,-0.1875 -1.4375,-0.47656 -1.54687,-0.39063 -2.14843,-0.67188 -0.59375,-0.28906 -0.90625,-0.78906 -0.30469,-0.50781 -0.30469,-1.11719 0,-0.55469 0.25,-1.02344 0.25781,-0.47656 0.69531,-0.78906 0.32813,-0.24219 0.89063,-0.40625 0.57031,-0.17187 1.21875,-0.17187 0.97656,0 1.71093,0.28125 0.74219,0.28125 1.09375,0.76562 0.35157,0.47656 0.48438,1.28125 l -1.375,0.1875 q -0.0937,-0.64062 -0.54688,-1 -0.44531,-0.35937 -1.26562,-0.35937 -0.96875,0 -1.38281,0.32031 -0.41407,0.32031 -0.41407,0.75 0,0.27344 0.17188,0.49219 0.17187,0.22656 0.53906,0.375 0.21094,0.0781 1.24219,0.35937 1.49219,0.39844 2.07812,0.65625 0.59375,0.25 0.92969,0.73438 0.33594,0.48437 0.33594,1.20312 0,0.70313 -0.41406,1.32813 -0.40625,0.61718 -1.17969,0.96093 -0.77344,0.33594 -1.75,0.33594 -1.61719,0 -2.46875,-0.67187 -0.84375,-0.67188 -1.07813,-1.99219 z m 8.57032,-7.35938 v -1.61718 h 1.40625 v 1.61718 z m 0,9.83594 v -8.29687 h 1.40625 v 8.29687 z m 3.28906,0.6875 1.36719,0.20313 q 0.0859,0.63281 0.47656,0.92187 0.52344,0.39063 1.42969,0.39063 0.97656,0 1.50781,-0.39063 0.53125,-0.39062 0.71875,-1.09375 0.10937,-0.42969 0.10156,-1.80469 -0.92187,1.08594 -2.29687,1.08594 -1.71094,0 -2.64844,-1.23437 -0.9375,-1.23438 -0.9375,-2.96094 0,-1.1875 0.42969,-2.1875 0.42968,-1.00781 1.24218,-1.55469 0.82032,-0.54687 1.92188,-0.54687 1.46875,0 2.42187,1.1875 v -1 h 1.29688 v 7.17187 q 0,1.9375 -0.39844,2.74219 -0.39062,0.8125 -1.25,1.28125 -0.85156,0.46875 -2.10156,0.46875 -1.48438,0 -2.39844,-0.67188 -0.91406,-0.66406 -0.88281,-2.00781 z m 1.16406,-4.98437 q 0,1.63281 0.64844,2.38281 0.64844,0.75 1.625,0.75 0.96875,0 1.625,-0.74219 0.65625,-0.75 0.65625,-2.34375 0,-1.52344 -0.67969,-2.29687 -0.67187,-0.77344 -1.625,-0.77344 -0.9375,0 -1.59375,0.76562 -0.65625,0.75782 -0.65625,2.25782 z m 7.99219,4.29687 v -8.29687 h 1.26562 v 1.17968 q 0.91407,-1.36718 2.64063,-1.36718 0.75,0 1.375,0.27343 0.63281,0.26563 0.94531,0.70313 0.3125,0.4375 0.4375,1.03906 0.0781,0.39063 0.0781,1.36719 v 5.10156 h -1.40625 v -5.04687 q 0,-0.85938 -0.16407,-1.28125 -0.16406,-0.42969 -0.58593,-0.67969 -0.41407,-0.25781 -0.97657,-0.25781 -0.89843,0 -1.55468,0.57031 -0.64844,0.57031 -0.64844,2.16406 v 4.53125 z m 14.57812,-2.67187 1.45313,0.17968 q -0.34375,1.27344 -1.27344,1.97657 -0.92969,0.70312 -2.375,0.70312 -1.82031,0 -2.89062,-1.11719 -1.0625,-1.125 -1.0625,-3.14843 0,-2.09375 1.07812,-3.25 1.07813,-1.15625 2.79688,-1.15625 1.66406,0 2.71875,1.13281 1.05468,1.13281 1.05468,3.1875 0,0.125 -0.008,0.375 h -6.1875 q 0.0781,1.36719 0.77344,2.09375 0.69531,0.72656 1.73437,0.72656 0.77344,0 1.32032,-0.40625 0.54687,-0.40625 0.86718,-1.29687 z m -4.61718,-2.27344 h 4.63281 q -0.0937,-1.04688 -0.53125,-1.57031 -0.67188,-0.8125 -1.74219,-0.8125 -0.96875,0 -1.63281,0.64843 -0.65625,0.64844 -0.72656,1.73438 z m 13.21875,4.94531 v -1.04687 q -0.78907,1.23437 -2.32032,1.23437 -0.99218,0 -1.82812,-0.54687 -0.82813,-0.54688 -1.28906,-1.52344 -0.45313,-0.98438 -0.45313,-2.25781 0,-1.24219 0.41406,-2.25 0.41407,-1.01563 1.24219,-1.55469 0.82813,-0.53906 1.85156,-0.53906 0.75,0 1.33594,0.32031 0.58594,0.3125 0.95313,0.82031 v -4.10937 h 1.39843 v 11.45312 z m -4.44532,-4.14062 q 0,1.59375 0.67188,2.38281 0.67187,0.78906 1.58594,0.78906 0.92187,0 1.5625,-0.75 0.64843,-0.75781 0.64843,-2.30469 0,-1.70312 -0.65625,-2.5 -0.65625,-0.79687 -1.61718,-0.79687 -0.9375,0 -1.57032,0.76562 -0.625,0.76563 -0.625,2.41407 z m 15.47657,2.88281 0.20312,1.24219 q -0.59375,0.125 -1.0625,0.125 -0.76562,0 -1.1875,-0.24219 -0.42187,-0.24219 -0.59375,-0.63281 -0.17187,-0.39844 -0.17187,-1.66407 v -4.77343 h -1.03125 v -1.09375 h 1.03125 v -2.05469 l 1.39843,-0.84375 v 2.89844 h 1.41407 v 1.09375 h -1.41407 v 4.85156 q 0,0.60156 0.0703,0.77344 0.0781,0.17187 0.24218,0.27343 0.17188,0.10157 0.48438,0.10157 0.23437,0 0.61719,-0.0547 z m 0.85156,-2.89063 q 0,-2.30468 1.28125,-3.41406 1.07031,-0.92187 2.60937,-0.92187 1.71094,0 2.79688,1.125 1.08594,1.11718 1.08594,3.09375 0,1.60156 -0.48438,2.52343 -0.47656,0.91407 -1.39844,1.42188 -0.91406,0.50781 -2,0.50781 -1.74218,0 -2.82031,-1.11719 -1.07031,-1.11718 -1.07031,-3.21875 z m 1.44531,0 q 0,1.59375 0.69531,2.39063 0.69532,0.78906 1.75,0.78906 1.04688,0 1.74219,-0.79687 0.69531,-0.79688 0.69531,-2.42969 0,-1.53906 -0.70312,-2.32813 -0.69531,-0.79687 -1.73438,-0.79687 -1.05468,0 -1.75,0.78906 -0.69531,0.78906 -0.69531,2.38281 z m 17.83594,3.125 q -0.78125,0.66407 -1.50781,0.9375 -0.71875,0.27344 -1.54688,0.27344 -1.36719,0 -2.10156,-0.66406 -0.73438,-0.67188 -0.73438,-1.71094 0,-0.60937 0.27344,-1.10937 0.28125,-0.50782 0.72656,-0.8125 0.45313,-0.30469 1.01563,-0.46094 0.41406,-0.10938 1.25,-0.21094 1.70312,-0.20312 2.50781,-0.48437 0.008,-0.28907 0.008,-0.36719 0,-0.85938 -0.39843,-1.21094 -0.53907,-0.47656 -1.60157,-0.47656 -0.99218,0 -1.46875,0.35156 -0.46875,0.34375 -0.69531,1.22656 l -1.375,-0.1875 q 0.1875,-0.88281 0.61719,-1.42187 0.42969,-0.54688 1.24219,-0.83594 0.8125,-0.29687 1.88281,-0.29687 1.0625,0 1.72656,0.25 0.66406,0.25 0.97656,0.63281 0.3125,0.375 0.4375,0.95312 0.0703,0.35938 0.0703,1.29688 v 1.875 q 0,1.96094 0.0859,2.48437 0.0937,0.51563 0.35938,0.99219 h -1.46875 q -0.21875,-0.4375 -0.28125,-1.02344 z m -0.11719,-3.14062 q -0.76562,0.3125 -2.29687,0.53125 -0.86719,0.125 -1.22657,0.28125 -0.35937,0.15625 -0.55468,0.46094 -0.19532,0.29687 -0.19532,0.66406 0,0.5625 0.42188,0.9375 0.42969,0.375 1.25,0.375 0.8125,0 1.44531,-0.35156 0.63281,-0.35938 0.92969,-0.97657 0.22656,-0.47656 0.22656,-1.40625 z m 5.90625,4.16406 -3.15625,-8.29687 h 1.48438 l 1.78125,4.96875 q 0.28906,0.80468 0.53125,1.67187 0.1875,-0.65625 0.52343,-1.57812 l 1.84375,-5.0625 h 1.44532 l -3.14063,8.29687 z m 5.17188,-4.14844 q 0,-2.30468 1.28125,-3.41406 1.07031,-0.92187 2.60937,-0.92187 1.71094,0 2.79688,1.125 1.08593,1.11718 1.08593,3.09375 0,1.60156 -0.48437,2.52343 -0.47656,0.91407 -1.39844,1.42188 -0.91406,0.50781 -2,0.50781 -1.74219,0 -2.82031,-1.11719 -1.07031,-1.11718 -1.07031,-3.21875 z m 1.44531,0 q 0,1.59375 0.69531,2.39063 0.69531,0.78906 1.75,0.78906 1.04688,0 1.74219,-0.79687 0.69531,-0.79688 0.69531,-2.42969 0,-1.53906 -0.70312,-2.32813 -0.69532,-0.79687 -1.73438,-0.79687 -1.05469,0 -1.75,0.78906 -0.69531,0.78906 -0.69531,2.38281 z m 7.98437,-5.6875 v -1.61718 h 1.40625 v 1.61718 z m 0,9.83594 v -8.29687 h 1.40625 v 8.29687 z m 8.92969,0 v -1.04687 q -0.78906,1.23437 -2.32031,1.23437 -0.99219,0 -1.82813,-0.54687 -0.82812,-0.54688 -1.28906,-1.52344 -0.45312,-0.98438 -0.45312,-2.25781 0,-1.24219 0.41406,-2.25 0.41406,-1.01563 1.24219,-1.55469 0.82812,-0.53906 1.85156,-0.53906 0.75,0 1.33594,0.32031 0.58593,0.3125 0.95312,0.82031 v -4.10937 h 1.39844 v 11.45312 z m -4.44531,-4.14062 q 0,1.59375 0.67187,2.38281 0.67188,0.78906 1.58594,0.78906 0.92188,0 1.5625,-0.75 0.64844,-0.75781 0.64844,-2.30469 0,-1.70312 -0.65625,-2.5 -0.65625,-0.79687 -1.61719,-0.79687 -0.9375,0 -1.57031,0.76562 -0.625,0.76563 -0.625,2.41407 z m 13.70312,4.14062 h -1.30468 v -11.45312 h 1.40625 v 4.08593 q 0.89062,-1.11718 2.27343,-1.11718 0.76563,0 1.44532,0.3125 0.6875,0.30468 1.125,0.86718 0.44531,0.55469 0.69531,1.34375 0.25,0.78907 0.25,1.6875 0,2.13282 -1.05469,3.29688 -1.05469,1.16406 -2.53125,1.16406 -1.46875,0 -2.30469,-1.22656 z m -0.0156,-4.21094 q 0,1.49219 0.40625,2.15625 0.66406,1.08594 1.79687,1.08594 0.92188,0 1.59375,-0.79687 0.67188,-0.80469 0.67188,-2.39063 0,-1.625 -0.64844,-2.39844 -0.64062,-0.77343 -1.55469,-0.77343 -0.92187,0 -1.59375,0.80468 -0.67187,0.79688 -0.67187,2.3125 z m 7.60156,4.21094 v -8.29687 h 1.26563 v 1.25781 q 0.48437,-0.88281 0.89062,-1.16406 0.41406,-0.28125 0.90625,-0.28125 0.71094,0 1.44531,0.45312 l -0.48437,1.30469 q -0.51563,-0.30469 -1.03125,-0.30469 -0.46094,0 -0.82813,0.28125 -0.36718,0.27344 -0.52343,0.76563 -0.23438,0.75 -0.23438,1.64062 v 4.34375 z m 11.02344,-2.67187 1.45312,0.17968 q -0.34375,1.27344 -1.27343,1.97657 -0.92969,0.70312 -2.375,0.70312 -1.82032,0 -2.89063,-1.11719 -1.0625,-1.125 -1.0625,-3.14843 0,-2.09375 1.07813,-3.25 1.07812,-1.15625 2.79687,-1.15625 1.66406,0 2.71875,1.13281 1.05469,1.13281 1.05469,3.1875 0,0.125 -0.008,0.375 h -6.1875 q 0.0781,1.36719 0.77343,2.09375 0.69532,0.72656 1.73438,0.72656 0.77344,0 1.32031,-0.40625 0.54688,-0.40625 0.86719,-1.29687 z m -4.61719,-2.27344 h 4.63281 q -0.0937,-1.04688 -0.53125,-1.57031 -0.67187,-0.8125 -1.74218,-0.8125 -0.96875,0 -1.63282,0.64843 -0.65625,0.64844 -0.72656,1.73438 z m 13.25,3.92187 q -0.78125,0.66407 -1.50781,0.9375 -0.71875,0.27344 -1.54688,0.27344 -1.36718,0 -2.10156,-0.66406 -0.73437,-0.67188 -0.73437,-1.71094 0,-0.60937 0.27343,-1.10937 0.28125,-0.50782 0.72657,-0.8125 0.45312,-0.30469 1.01562,-0.46094 0.41406,-0.10938 1.25,-0.21094 1.70313,-0.20312 2.50781,-0.48437 0.008,-0.28907 0.008,-0.36719 0,-0.85938 -0.39844,-1.21094 -0.53906,-0.47656 -1.60156,-0.47656 -0.99219,0 -1.46875,0.35156 -0.46875,0.34375 -0.69532,1.22656 l -1.375,-0.1875 q 0.1875,-0.88281 0.61719,-1.42187 0.42969,-0.54688 1.24219,-0.83594 0.8125,-0.29687 1.88281,-0.29687 1.0625,0 1.72656,0.25 0.66407,0.25 0.97657,0.63281 0.3125,0.375 0.4375,0.95312 0.0703,0.35938 0.0703,1.29688 v 1.875 q 0,1.96094 0.0859,2.48437 0.0937,0.51563 0.35937,0.99219 h -1.46875 q -0.21875,-0.4375 -0.28125,-1.02344 z m -0.11719,-3.14062 q -0.76562,0.3125 -2.29687,0.53125 -0.86719,0.125 -1.22656,0.28125 -0.35938,0.15625 -0.55469,0.46094 -0.19531,0.29687 -0.19531,0.66406 0,0.5625 0.42187,0.9375 0.42969,0.375 1.25,0.375 0.8125,0 1.44531,-0.35156 0.63282,-0.35938 0.92969,-0.97657 0.22656,-0.47656 0.22656,-1.40625 z m 3.60938,4.16406 v -11.45312 h 1.40625 v 6.53125 l 3.32812,-3.375 h 1.82032 l -3.17188,3.07812 3.49219,5.21875 h -1.73438 l -2.74218,-4.24219 -0.99219,0.95313 v 3.28906 z m 8,-9.83594 v -1.61718 h 1.40625 v 1.61718 z m 0,9.83594 v -8.29687 h 1.40625 v 8.29687 z m 3.54687,0 v -8.29687 h 1.26563 v 1.17968 q 0.91406,-1.36718 2.64062,-1.36718 0.75,0 1.375,0.27343 0.63282,0.26563 0.94532,0.70313 0.3125,0.4375 0.4375,1.03906 0.0781,0.39063 0.0781,1.36719 v 5.10156 h -1.40625 v -5.04687 q 0,-0.85938 -0.16406,-1.28125 -0.16406,-0.42969 -0.58594,-0.67969 -0.41406,-0.25781 -0.97656,-0.25781 -0.89844,0 -1.55469,0.57031 -0.64844,0.57031 -0.64844,2.16406 v 4.53125 z m 8.64063,0.6875 1.36719,0.20313 q 0.0859,0.63281 0.47656,0.92187 0.52344,0.39063 1.42969,0.39063 0.97656,0 1.50781,-0.39063 0.53125,-0.39062 0.71875,-1.09375 0.10937,-0.42969 0.10156,-1.80469 -0.92187,1.08594 -2.29687,1.08594 -1.71094,0 -2.64844,-1.23437 -0.9375,-1.23438 -0.9375,-2.96094 0,-1.1875 0.42969,-2.1875 0.42968,-1.00781 1.24218,-1.55469 0.82032,-0.54687 1.92188,-0.54687 1.46875,0 2.42187,1.1875 v -1 h 1.29688 v 7.17187 q 0,1.9375 -0.39844,2.74219 -0.39062,0.8125 -1.25,1.28125 -0.85156,0.46875 -2.10156,0.46875 -1.48438,0 -2.39844,-0.67188 -0.91406,-0.66406 -0.88281,-2.00781 z m 1.16406,-4.98437 q 0,1.63281 0.64844,2.38281 0.64844,0.75 1.625,0.75 0.96875,0 1.625,-0.74219 0.65625,-0.75 0.65625,-2.34375 0,-1.52344 -0.67969,-2.29687 -0.67187,-0.77344 -1.625,-0.77344 -0.9375,0 -1.59375,0.76562 -0.65625,0.75782 -0.65625,2.25782 z m 12.4375,4.29687 v -11.45312 h 1.40625 v 4.10937 q 0.98438,-1.14062 2.48438,-1.14062 0.92187,0 1.60156,0.36718 0.67969,0.35938 0.96875,1 0.29687,0.64063 0.29687,1.85938 v 5.25781 h -1.40625 v -5.25781 q 0,-1.05469 -0.46093,-1.53125 -0.45313,-0.48438 -1.28907,-0.48438 -0.625,0 -1.17968,0.32813 -0.54688,0.32031 -0.78125,0.875 -0.23438,0.55469 -0.23438,1.53125 v 4.53906 z m 14.3125,-1.02344 q -0.78125,0.66407 -1.50781,0.9375 -0.71875,0.27344 -1.54688,0.27344 -1.36718,0 -2.10156,-0.66406 -0.73437,-0.67188 -0.73437,-1.71094 0,-0.60937 0.27343,-1.10937 0.28125,-0.50782 0.72657,-0.8125 0.45312,-0.30469 1.01562,-0.46094 0.41406,-0.10938 1.25,-0.21094 1.70313,-0.20312 2.50781,-0.48437 0.008,-0.28907 0.008,-0.36719 0,-0.85938 -0.39844,-1.21094 -0.53906,-0.47656 -1.60156,-0.47656 -0.99219,0 -1.46875,0.35156 -0.46875,0.34375 -0.69532,1.22656 l -1.375,-0.1875 q 0.1875,-0.88281 0.61719,-1.42187 0.42969,-0.54688 1.24219,-0.83594 0.8125,-0.29687 1.88281,-0.29687 1.0625,0 1.72656,0.25 0.66407,0.25 0.97657,0.63281 0.3125,0.375 0.4375,0.95312 0.0703,0.35938 0.0703,1.29688 v 1.875 q 0,1.96094 0.0859,2.48437 0.0937,0.51563 0.35937,0.99219 h -1.46875 q -0.21875,-0.4375 -0.28125,-1.02344 z m -0.11719,-3.14062 q -0.76562,0.3125 -2.29687,0.53125 -0.86719,0.125 -1.22656,0.28125 -0.35938,0.15625 -0.55469,0.46094 -0.19531,0.29687 -0.19531,0.66406 0,0.5625 0.42187,0.9375 0.42969,0.375 1.25,0.375 0.8125,0 1.44531,-0.35156 0.63282,-0.35938 0.92969,-0.97657 0.22656,-0.47656 0.22656,-1.40625 z m 3.58594,4.16406 v -8.29687 h 1.26563 v 1.25781 q 0.48437,-0.88281 0.89062,-1.16406 0.41406,-0.28125 0.90625,-0.28125 0.71094,0 1.44531,0.45312 l -0.48437,1.30469 q -0.51563,-0.30469 -1.03125,-0.30469 -0.46094,0 -0.82813,0.28125 -0.36718,0.27344 -0.52343,0.76563 -0.23438,0.75 -0.23438,1.64062 v 4.34375 z m 10.72656,0 v -1.04687 q -0.78906,1.23437 -2.32031,1.23437 -0.99219,0 -1.82812,-0.54687 -0.82813,-0.54688 -1.28907,-1.52344 -0.45312,-0.98438 -0.45312,-2.25781 0,-1.24219 0.41406,-2.25 0.41406,-1.01563 1.24219,-1.55469 0.82812,-0.53906 1.85156,-0.53906 0.75,0 1.33594,0.32031 0.58594,0.3125 0.95312,0.82031 v -4.10937 h 1.39844 v 11.45312 z m -4.44531,-4.14062 q 0,1.59375 0.67188,2.38281 0.67187,0.78906 1.58593,0.78906 0.92188,0 1.5625,-0.75 0.64844,-0.75781 0.64844,-2.30469 0,-1.70312 -0.65625,-2.5 -0.65625,-0.79687 -1.61719,-0.79687 -0.9375,0 -1.57031,0.76562 -0.625,0.76563 -0.625,2.41407 z m 17.82031,1.10156 1.38282,0.17969 q -0.22657,1.42968 -1.16407,2.24218 -0.92968,0.80469 -2.28906,0.80469 -1.70312,0 -2.74219,-1.10937 -1.03125,-1.11719 -1.03125,-3.19532 0,-1.34375 0.44532,-2.35156 0.44531,-1.00781 1.35156,-1.50781 0.91406,-0.50781 1.98437,-0.50781 1.35157,0 2.21094,0.6875 0.85938,0.67968 1.10156,1.9375 l -1.36718,0.21093 q -0.19532,-0.83593 -0.69532,-1.25781 -0.49218,-0.42187 -1.19531,-0.42187 -1.0625,0 -1.72656,0.76562 -0.66406,0.75781 -0.66406,2.40625 0,1.67188 0.64062,2.42969 0.64063,0.75781 1.67188,0.75781 0.82812,0 1.38281,-0.50781 0.55469,-0.50781 0.70312,-1.5625 z m 2.0625,-1.10938 q 0,-2.30468 1.28125,-3.41406 1.07032,-0.92187 2.60938,-0.92187 1.71094,0 2.79687,1.125 1.08594,1.11718 1.08594,3.09375 0,1.60156 -0.48437,2.52343 -0.47657,0.91407 -1.39844,1.42188 -0.91406,0.50781 -2,0.50781 -1.74219,0 -2.82031,-1.11719 -1.07032,-1.11718 -1.07032,-3.21875 z m 1.44532,0 q 0,1.59375 0.69531,2.39063 0.69531,0.78906 1.75,0.78906 1.04687,0 1.74219,-0.79687 0.69531,-0.79688 0.69531,-2.42969 0,-1.53906 -0.70313,-2.32813 -0.69531,-0.79687 -1.73437,-0.79687 -1.05469,0 -1.75,0.78906 -0.69531,0.78906 -0.69531,2.38281 z m 7.97656,4.14844 v -8.29687 h 1.26562 v 1.17968 q 0.91407,-1.36718 2.64063,-1.36718 0.75,0 1.375,0.27343 0.63281,0.26563 0.94531,0.70313 0.3125,0.4375 0.4375,1.03906 0.0781,0.39063 0.0781,1.36719 v 5.10156 h -1.40625 v -5.04687 q 0,-0.85938 -0.16407,-1.28125 -0.16406,-0.42969 -0.58593,-0.67969 -0.41407,-0.25781 -0.97657,-0.25781 -0.89843,0 -1.55468,0.57031 -0.64844,0.57031 -0.64844,2.16406 v 4.53125 z m 8.33594,-2.47656 1.39062,-0.21875 q 0.11719,0.83594 0.64844,1.28125 0.53906,0.44531 1.5,0.44531 0.96875,0 1.4375,-0.39062 0.46875,-0.39844 0.46875,-0.92969 0,-0.47656 -0.41406,-0.75 -0.28907,-0.1875 -1.4375,-0.47656 -1.54688,-0.39063 -2.14844,-0.67188 -0.59375,-0.28906 -0.90625,-0.78906 -0.30469,-0.50781 -0.30469,-1.11719 0,-0.55469 0.25,-1.02344 0.25781,-0.47656 0.69531,-0.78906 0.32813,-0.24219 0.89063,-0.40625 0.57031,-0.17187 1.21875,-0.17187 0.97656,0 1.71094,0.28125 0.74218,0.28125 1.09375,0.76562 0.35156,0.47656 0.48437,1.28125 l -1.375,0.1875 q -0.0937,-0.64062 -0.54687,-1 -0.44532,-0.35937 -1.26563,-0.35937 -0.96875,0 -1.38281,0.32031 -0.41406,0.32031 -0.41406,0.75 0,0.27344 0.17187,0.49219 0.17188,0.22656 0.53906,0.375 0.21094,0.0781 1.24219,0.35937 1.49219,0.39844 2.07813,0.65625 0.59375,0.25 0.92968,0.73438 0.33594,0.48437 0.33594,1.20312 0,0.70313 -0.41406,1.32813 -0.40625,0.61718 -1.17969,0.96093 -0.77344,0.33594 -1.75,0.33594 -1.61719,0 -2.46875,-0.67187 -0.84375,-0.67188 -1.07812,-1.99219 z m 11.63281,1.21875 0.20312,1.24219 q -0.59375,0.125 -1.0625,0.125 -0.76562,0 -1.1875,-0.24219 -0.42187,-0.24219 -0.59375,-0.63281 -0.17187,-0.39844 -0.17187,-1.66407 v -4.77343 H 591.5 v -1.09375 h 1.03125 v -2.05469 l 1.39844,-0.84375 v 2.89844 h 1.41406 v 1.09375 h -1.41406 v 4.85156 q 0,0.60156 0.0703,0.77344 0.0781,0.17187 0.24219,0.27343 0.17187,0.10157 0.48437,0.10157 0.23438,0 0.61719,-0.0547 z m 1.35937,1.25781 v -8.29687 h 1.26563 v 1.25781 q 0.48437,-0.88281 0.89062,-1.16406 0.41407,-0.28125 0.90625,-0.28125 0.71094,0 1.44532,0.45312 l -0.48438,1.30469 q -0.51562,-0.30469 -1.03125,-0.30469 -0.46094,0 -0.82812,0.28125 -0.36719,0.27344 -0.52344,0.76563 -0.23438,0.75 -0.23438,1.64062 v 4.34375 z m 10.75782,-1.02344 q -0.78125,0.66407 -1.50782,0.9375 -0.71875,0.27344 -1.54687,0.27344 -1.36719,0 -2.10156,-0.66406 -0.73438,-0.67188 -0.73438,-1.71094 0,-0.60937 0.27344,-1.10937 0.28125,-0.50782 0.72656,-0.8125 0.45313,-0.30469 1.01563,-0.46094 0.41406,-0.10938 1.25,-0.21094 1.70312,-0.20312 2.50781,-0.48437 0.008,-0.28907 0.008,-0.36719 0,-0.85938 -0.39844,-1.21094 -0.53906,-0.47656 -1.60156,-0.47656 -0.99219,0 -1.46875,0.35156 -0.46875,0.34375 -0.69531,1.22656 l -1.375,-0.1875 q 0.1875,-0.88281 0.61719,-1.42187 0.42968,-0.54688 1.24218,-0.83594 0.8125,-0.29687 1.88282,-0.29687 1.0625,0 1.72656,0.25 0.66406,0.25 0.97656,0.63281 0.3125,0.375 0.4375,0.95312 0.0703,0.35938 0.0703,1.29688 v 1.875 q 0,1.96094 0.0859,2.48437 0.0937,0.51563 0.35938,0.99219 h -1.46875 q -0.21875,-0.4375 -0.28125,-1.02344 z m -0.11719,-3.14062 q -0.76563,0.3125 -2.29688,0.53125 -0.86718,0.125 -1.22656,0.28125 -0.35937,0.15625 -0.55469,0.46094 -0.19531,0.29687 -0.19531,0.66406 0,0.5625 0.42188,0.9375 0.42968,0.375 1.25,0.375 0.8125,0 1.44531,-0.35156 0.63281,-0.35938 0.92969,-0.97657 0.22656,-0.47656 0.22656,-1.40625 z m 3.60937,-5.67188 v -1.61718 h 1.40625 v 1.61718 z m 0,9.83594 v -8.29687 h 1.40625 v 8.29687 z m 3.54688,0 v -8.29687 h 1.26562 v 1.17968 q 0.91407,-1.36718 2.64063,-1.36718 0.75,0 1.375,0.27343 0.63281,0.26563 0.94531,0.70313 0.3125,0.4375 0.4375,1.03906 0.0781,0.39063 0.0781,1.36719 v 5.10156 h -1.40625 v -5.04687 q 0,-0.85938 -0.16407,-1.28125 -0.16406,-0.42969 -0.58593,-0.67969 -0.41407,-0.25781 -0.97657,-0.25781 -0.89843,0 -1.55468,0.57031 -0.64844,0.57031 -0.64844,2.16406 v 4.53125 z m 11.96875,-1.25781 0.20312,1.24219 q -0.59375,0.125 -1.0625,0.125 -0.76562,0 -1.1875,-0.24219 -0.42187,-0.24219 -0.59375,-0.63281 -0.17187,-0.39844 -0.17187,-1.66407 v -4.77343 H 622.625 v -1.09375 h 1.03125 v -2.05469 l 1.39844,-0.84375 v 2.89844 h 1.41406 v 1.09375 h -1.41406 v 4.85156 q 0,0.60156 0.0703,0.77344 0.0781,0.17187 0.24219,0.27343 0.17187,0.10157 0.48437,0.10157 0.23438,0 0.61719,-0.0547 z m 0.8125,-1.21875 1.39062,-0.21875 q 0.11719,0.83594 0.64844,1.28125 0.53906,0.44531 1.5,0.44531 0.96875,0 1.4375,-0.39062 0.46875,-0.39844 0.46875,-0.92969 0,-0.47656 -0.41406,-0.75 -0.28906,-0.1875 -1.4375,-0.47656 -1.54688,-0.39063 -2.14844,-0.67188 -0.59375,-0.28906 -0.90625,-0.78906 -0.30469,-0.50781 -0.30469,-1.11719 0,-0.55469 0.25,-1.02344 0.25782,-0.47656 0.69532,-0.78906 0.32812,-0.24219 0.89062,-0.40625 0.57031,-0.17187 1.21875,-0.17187 0.97656,0 1.71094,0.28125 0.74219,0.28125 1.09375,0.76562 0.35156,0.47656 0.48437,1.28125 l -1.375,0.1875 q -0.0937,-0.64062 -0.54687,-1 -0.44531,-0.35937 -1.26563,-0.35937 -0.96875,0 -1.38281,0.32031 -0.41406,0.32031 -0.41406,0.75 0,0.27344 0.17187,0.49219 0.17188,0.22656 0.53907,0.375 0.21093,0.0781 1.24218,0.35937 1.49219,0.39844 2.07813,0.65625 0.59375,0.25 0.92969,0.73438 0.33593,0.48437 0.33593,1.20312 0,0.70313 -0.41406,1.32813 -0.40625,0.61718 -1.17969,0.96093 -0.77343,0.33594 -1.75,0.33594 -1.61718,0 -2.46875,-0.67187 -0.84375,-0.67188 -1.07812,-1.99219 z"
       id="flowRoot4302-6-9-1"
       transform="translate(-14.61113,348.1906)"
       aria-label="6 shifts were not assigned to avoid breaking hard constraints " /></g><g
     id="layer6"><g
       id="g6-5-6"
       transform="matrix(0.94065575,0,0,1,443.15872,-238.69917)"
       style="display:inline;stroke-width:1.03106;stroke-dasharray:none"><rect
         style="fill: #F51515;fill-opacity:1;stroke: #F51515;stroke-width:0.835738;stroke-linecap:round;stroke-linejoin:round;stroke-miterlimit:4;stroke-dasharray:none;stroke-opacity:1"
         id="rect3-7-8"
         width="94.842194"
         height="49.492264"
         x="209.86293"
         y="652.72717" /><path
         style="font-weight:bold;font-size:13.7475px;font-family:Arial;-inkscape-font-specification:Arial;fill:#ffffff"
         d="m 227.08141,701.55319 1.93324,-0.18795 q 0.17453,0.97333 0.70483,1.42979 0.53701,0.45646 1.44322,0.45646 0.9599,0 1.44322,-0.40275 0.49002,-0.40948 0.49002,-0.9532 0,-0.34906 -0.20809,-0.59071 -0.20138,-0.24837 -0.71154,-0.42961 -0.34906,-0.12083 -1.5909,-0.42961 -1.59761,-0.39605 -2.24203,-0.97334 -0.9062,-0.81223 -0.9062,-1.98023 0,-0.75181 0.42289,-1.40294 0.42961,-0.65784 1.22842,-1.00018 0.80552,-0.34235 1.93995,-0.34235 1.85269,0 2.78575,0.81223 0.93977,0.81223 0.98676,2.16819 l -1.98694,0.0873 q -0.12754,-0.75853 -0.55044,-1.08745 -0.41618,-0.33563 -1.25526,-0.33563 -0.86594,0 -1.35596,0.35577 -0.31549,0.22823 -0.31549,0.61085 0,0.34906 0.29535,0.59743 0.37591,0.31549 1.82584,0.65784 1.44993,0.34234 2.14134,0.71154 0.69811,0.36248 1.08745,1.00018 0.39604,0.63099 0.39604,1.56405 0,0.84579 -0.46988,1.58418 -0.46989,0.73839 -1.32911,1.10088 -0.85922,0.35577 -2.14133,0.35577 -1.86612,0 -2.8663,-0.85922 -1.00019,-0.86593 -1.19485,-2.51725 z m 14.35164,3.20194 v -1.06731 q -0.38934,0.57057 -1.02704,0.89949 -0.63099,0.32892 -1.33582,0.32892 -0.71825,0 -1.28882,-0.31549 -0.57058,-0.3155 -0.82566,-0.88607 -0.25508,-0.57058 -0.25508,-1.57748 v -4.51089 h 1.88625 v 3.27577 q 0,1.50363 0.10069,1.84598 0.10741,0.33563 0.38262,0.53701 0.27522,0.19466 0.69812,0.19466 0.48331,0 0.86593,-0.26179 0.38262,-0.26851 0.52359,-0.65784 0.14096,-0.39604 0.14096,-1.92653 v -3.00726 h 1.88626 v 7.12883 z m 10.18979,0 h -1.88625 v -3.63826 q 0,-1.15457 -0.12083,-1.49021 -0.12082,-0.34234 -0.39604,-0.53029 -0.26851,-0.18796 -0.65113,-0.18796 -0.49002,0 -0.87936,0.26851 -0.38933,0.2685 -0.53701,0.71154 -0.14096,0.44303 -0.14096,1.63788 v 3.22879 H 245.125 v -7.12883 h 1.752 v 1.04717 q 0.93306,-1.20828 2.34943,-1.20828 0.62428,0 1.14115,0.22823 0.51687,0.22152 0.77867,0.57058 0.2685,0.34906 0.36919,0.79209 0.1074,0.44303 0.1074,1.26869 z m 11.70015,-1.752 v 1.752 h -6.61196 q 0.1074,-0.99347 0.64441,-1.87954 0.53702,-0.89279 2.1212,-2.36286 1.2754,-1.18813 1.56405,-1.61103 0.38933,-0.584 0.38933,-1.15458 0,-0.63098 -0.34234,-0.96662 -0.33564,-0.34234 -0.93306,-0.34234 -0.59072,0 -0.93977,0.35577 -0.34906,0.35577 -0.40276,1.18142 l -1.87954,-0.18795 q 0.16781,-1.55733 1.05388,-2.23531 0.88607,-0.67798 2.21518,-0.67798 1.45664,0 2.28901,0.78538 0.83237,0.78538 0.83237,1.95338 0,0.66455 -0.24166,1.26869 -0.23494,0.59743 -0.75181,1.25527 -0.34235,0.43632 -1.23513,1.25526 -0.89278,0.81894 -1.13444,1.08745 -0.23494,0.26851 -0.38262,0.52359 z m 2.89315,-3.55771 q -0.73168,-0.30878 -1.06731,-0.84579 -0.32892,-0.54372 -0.32892,-1.18814 0,-1.10087 0.76524,-1.81913 0.77195,-0.71825 2.18832,-0.71825 1.40294,0 2.1749,0.71825 0.77867,0.71826 0.77867,1.81913 0,0.68469 -0.35577,1.2217 -0.35577,0.5303 -1.00019,0.81223 0.81894,0.32892 1.24184,0.95991 0.42961,0.63099 0.42961,1.45665 0,1.36266 -0.87264,2.21517 -0.86594,0.85251 -2.30915,0.85251 -1.34253,0 -2.23532,-0.70483 -1.05388,-0.83237 -1.05388,-2.2823 0,-0.79881 0.39604,-1.46336 0.39605,-0.67126 1.24856,-1.03375 z m 0.38933,-1.89968 q 0,0.56387 0.3155,0.87936 0.3222,0.3155 0.8525,0.3155 0.53701,0 0.85922,-0.3155 0.32221,-0.32221 0.32221,-0.88607 0,-0.5303 -0.32221,-0.84579 -0.31549,-0.32221 -0.83908,-0.32221 -0.54373,0 -0.86593,0.32221 -0.32221,0.32221 -0.32221,0.8525 z m -0.17453,4.21555 q 0,0.77866 0.39605,1.21499 0.40276,0.43632 1.00018,0.43632 0.584,0 0.96662,-0.41619 0.38262,-0.42289 0.38262,-1.21499 0,-0.6914 -0.38933,-1.10758 -0.38933,-0.4229 -0.98676,-0.4229 -0.6914,0 -1.03375,0.4766 -0.33563,0.4766 -0.33563,1.03375 z"
         id="text4-6-9"
         transform="scale(1.0330121,0.96804287)"
         aria-label="Sun 28" /></g><g
       id="g6-5-6-0"
       transform="matrix(0.94065575,0,0,1,353.08972,-238.65313)"
       style="display:inline;stroke-width:1.03106;stroke-dasharray:none"><rect
         style="fill: #F51515;fill-opacity:1;stroke: #F51515;stroke-width:0.835738;stroke-linecap:round;stroke-linejoin:round;stroke-miterlimit:4;stroke-dasharray:none;stroke-opacity:1"
         id="rect3-7-8-1"
         width="94.842194"
         height="49.492264"
         x="209.86293"
         y="652.72717" /><path
         style="font-weight:bold;font-size:13.7475px;font-family:Arial;-inkscape-font-specification:Arial;fill:#ffffff"
         d="m 229.36371,701.55319 1.93324,-0.18795 q 0.17453,0.97333 0.70483,1.42979 0.53701,0.45646 1.44322,0.45646 0.95991,0 1.44322,-0.40275 0.49002,-0.40948 0.49002,-0.9532 0,-0.34906 -0.20809,-0.59071 -0.20138,-0.24837 -0.71154,-0.42961 -0.34906,-0.12083 -1.5909,-0.42961 -1.59761,-0.39605 -2.24202,-0.97334 -0.90621,-0.81223 -0.90621,-1.98023 0,-0.75181 0.4229,-1.40294 0.42961,-0.65784 1.22841,-1.00018 0.80552,-0.34235 1.93996,-0.34235 1.85269,0 2.78574,0.81223 0.93977,0.81223 0.98676,2.16819 l -1.98694,0.0873 q -0.12754,-0.75853 -0.55044,-1.08745 -0.41618,-0.33563 -1.25526,-0.33563 -0.86593,0 -1.35596,0.35577 -0.31549,0.22823 -0.31549,0.61085 0,0.34906 0.29536,0.59743 0.3759,0.31549 1.82584,0.65784 1.44993,0.34234 2.14133,0.71154 0.69811,0.36248 1.08745,1.00018 0.39604,0.63099 0.39604,1.56405 0,0.84579 -0.46988,1.58418 -0.46989,0.73839 -1.3291,1.10088 -0.85922,0.35577 -2.14134,0.35577 -1.86611,0 -2.8663,-0.85922 -1.00018,-0.86593 -1.19485,-2.51725 z m 11.06915,-1.752 -1.71172,-0.30878 q 0.28864,-1.03375 0.99347,-1.53048 0.70483,-0.49674 2.09435,-0.49674 1.26197,0 1.87954,0.30207 0.61756,0.29536 0.86593,0.75853 0.25508,0.45646 0.25508,1.68488 l -0.0201,2.20174 q 0,0.93977 0.0873,1.38952 0.094,0.44304 0.34234,0.9532 h -1.86611 q -0.0738,-0.18796 -0.18125,-0.55715 -0.047,-0.16782 -0.0671,-0.22152 -0.48331,0.46989 -1.03375,0.70483 -0.55044,0.23494 -1.17471,0.23494 -1.10088,0 -1.73858,-0.59743 -0.63099,-0.59742 -0.63099,-1.51034 0,-0.60414 0.28865,-1.07402 0.28864,-0.4766 0.80551,-0.72497 0.52359,-0.25508 1.50364,-0.44303 1.32239,-0.24837 1.83255,-0.46318 v -0.18795 q 0,-0.54373 -0.26851,-0.77196 -0.2685,-0.23494 -1.01361,-0.23494 -0.50344,0 -0.78538,0.20138 -0.28193,0.19467 -0.45646,0.6914 z m 2.52396,1.53049 q -0.36248,0.12082 -1.14786,0.28864 -0.78538,0.16782 -1.02704,0.32892 -0.36919,0.26179 -0.36919,0.66455 0,0.39605 0.29535,0.68469 0.29536,0.28865 0.75182,0.28865 0.51016,0 0.97333,-0.33564 0.34235,-0.25508 0.44975,-0.62427 0.0738,-0.24166 0.0738,-0.91963 z m 6.98115,-3.70538 v 1.50363 h -1.28883 v 2.87301 q 0,0.87265 0.0336,1.02032 0.0403,0.14097 0.16781,0.23495 0.13426,0.094 0.32221,0.094 0.26179,0 0.75853,-0.18124 l 0.1611,1.46336 q -0.65784,0.28193 -1.4902,0.28193 -0.51017,0 -0.91964,-0.16782 -0.40947,-0.17452 -0.60414,-0.44303 -0.18795,-0.27522 -0.26179,-0.73839 -0.0604,-0.32892 -0.0604,-1.32911 v -3.10795 h -0.86593 v -1.50363 h 0.86593 v -1.41637 l 1.89296,-1.10088 v 2.51725 z m 11.09601,5.37683 v 1.752 h -6.61196 q 0.1074,-0.99347 0.64441,-1.87954 0.53702,-0.89279 2.1212,-2.36286 1.2754,-1.18813 1.56405,-1.61103 0.38933,-0.584 0.38933,-1.15458 0,-0.63098 -0.34234,-0.96662 -0.33564,-0.34234 -0.93306,-0.34234 -0.59071,0 -0.93977,0.35577 -0.34906,0.35577 -0.40276,1.18142 l -1.87954,-0.18795 q 0.16781,-1.55733 1.05388,-2.23531 0.88607,-0.67798 2.21518,-0.67798 1.45664,0 2.28901,0.78538 0.83237,0.78538 0.83237,1.95338 0,0.66455 -0.24166,1.26869 -0.23494,0.59743 -0.75181,1.25527 -0.34235,0.43632 -1.23513,1.25526 -0.89278,0.81894 -1.13444,1.08745 -0.23494,0.26851 -0.38262,0.52359 z m 1.2754,-6.20249 v -1.752 h 6.45085 v 1.36938 q -0.7988,0.78538 -1.62446,2.25545 -0.82565,1.47007 -1.26197,3.12809 -0.42961,1.65131 -0.4229,2.95357 h -1.81913 q 0.047,-2.04065 0.83908,-4.16184 0.79881,-2.1212 2.12791,-3.79265 z"
         id="text4-6-9-9"
         transform="scale(1.0330121,0.96804287)"
         aria-label="Sat 27" /></g><g
       id="g6-5-6-9"
       transform="matrix(0.94065575,0,0,1,443.5073,-323.5753)"
       style="display:inline;stroke-width:1.03106;stroke-dasharray:none"><rect
         style="fill: #F51515;fill-opacity:1;stroke: #F51515;stroke-width:0.835738;stroke-linecap:round;stroke-linejoin:round;stroke-miterlimit:4;stroke-dasharray:none;stroke-opacity:1"
         id="rect3-7-8-0"
         width="94.842194"
         height="49.492264"
         x="209.86293"
         y="652.72717" /><path
         style="font-weight:bold;font-size:13.7475px;font-family:Arial;-inkscape-font-specification:Arial;fill:#ffffff"
         d="m 227.89028,701.55319 1.93324,-0.18795 q 0.17453,0.97333 0.70483,1.42979 0.53701,0.45646 1.44321,0.45646 0.95991,0 1.44322,-0.40275 0.49003,-0.40948 0.49003,-0.9532 0,-0.34906 -0.2081,-0.59071 -0.20137,-0.24837 -0.71154,-0.42961 -0.34905,-0.12083 -1.59089,-0.42961 -1.59761,-0.39605 -2.24203,-0.97334 -0.9062,-0.81223 -0.9062,-1.98023 0,-0.75181 0.42289,-1.40294 0.42961,-0.65784 1.22842,-1.00018 0.80551,-0.34235 1.93995,-0.34235 1.85269,0 2.78575,0.81223 0.93977,0.81223 0.98676,2.16819 l -1.98694,0.0873 q -0.12754,-0.75853 -0.55044,-1.08745 -0.41619,-0.33563 -1.25527,-0.33563 -0.86593,0 -1.35595,0.35577 -0.3155,0.22823 -0.3155,0.61085 0,0.34906 0.29536,0.59743 0.37591,0.31549 1.82584,0.65784 1.44993,0.34234 2.14134,0.71154 0.69811,0.36248 1.08744,1.00018 0.39605,0.63099 0.39605,1.56405 0,0.84579 -0.46989,1.58418 -0.46988,0.73839 -1.3291,1.10088 -0.85922,0.35577 -2.14133,0.35577 -1.86612,0 -2.8663,-0.85922 -1.00019,-0.86593 -1.19485,-2.51725 z m 14.35163,3.20194 v -1.06731 q -0.38933,0.57057 -1.02703,0.89949 -0.63099,0.32892 -1.33582,0.32892 -0.71825,0 -1.28883,-0.31549 -0.57057,-0.3155 -0.82565,-0.88607 -0.25508,-0.57058 -0.25508,-1.57748 v -4.51089 h 1.88625 v 3.27577 q 0,1.50363 0.10069,1.84598 0.1074,0.33563 0.38262,0.53701 0.27522,0.19466 0.69812,0.19466 0.48331,0 0.86593,-0.26179 0.38262,-0.26851 0.52359,-0.65784 0.14096,-0.39604 0.14096,-1.92653 v -3.00726 h 1.88625 v 7.12883 z m 10.1898,0 h -1.88625 v -3.63826 q 0,-1.15457 -0.12083,-1.49021 -0.12083,-0.34234 -0.39604,-0.53029 -0.26851,-0.18796 -0.65113,-0.18796 -0.49002,0 -0.87936,0.26851 -0.38933,0.2685 -0.53701,0.71154 -0.14097,0.44303 -0.14097,1.63788 v 3.22879 h -1.88625 v -7.12883 h 1.752 v 1.04717 q 0.93306,-1.20828 2.34943,-1.20828 0.62427,0 1.14115,0.22823 0.51687,0.22152 0.77866,0.57058 0.26851,0.34906 0.3692,0.79209 0.1074,0.44303 0.1074,1.26869 z m 11.70015,-1.752 v 1.752 h -6.61196 q 0.1074,-0.99347 0.64441,-1.87954 0.53701,-0.89279 2.1212,-2.36286 1.2754,-1.18813 1.56405,-1.61103 0.38933,-0.584 0.38933,-1.15458 0,-0.63098 -0.34235,-0.96662 -0.33563,-0.34234 -0.93305,-0.34234 -0.59072,0 -0.93977,0.35577 -0.34906,0.35577 -0.40276,1.18142 l -1.87954,-0.18795 q 0.16781,-1.55733 1.05388,-2.23531 0.88607,-0.67798 2.21517,-0.67798 1.45665,0 2.28902,0.78538 0.83237,0.78538 0.83237,1.95338 0,0.66455 -0.24166,1.26869 -0.23494,0.59743 -0.75182,1.25527 -0.34234,0.43632 -1.23512,1.25526 -0.89279,0.81894 -1.13444,1.08745 -0.23494,0.26851 -0.38262,0.52359 z m 6.10179,1.752 h -1.88625 v -7.1087 q -1.03375,0.96663 -2.43669,1.4298 v -1.71173 q 0.73839,-0.24165 1.60432,-0.91292 0.86593,-0.67797 1.18814,-1.57747 h 1.53048 z"
         id="text4-6-9-1"
         transform="scale(1.0330121,0.96804287)"
         aria-label="Sun 21" /></g><g
       id="g6-5-6-4"
       transform="matrix(0.94065575,0,0,1,353.41528,-323.4683)"
       style="display:inline;stroke-width:1.03106;stroke-dasharray:none"><rect
         style="fill: #F51515;fill-opacity:1;stroke: #F51515;stroke-width:0.835738;stroke-linecap:round;stroke-linejoin:round;stroke-miterlimit:4;stroke-dasharray:none;stroke-opacity:1"
         id="rect3-7-8-8"
         width="94.842194"
         height="49.492264"
         x="209.86293"
         y="652.72717" /><path
         style="font-weight:bold;font-size:13.7475px;font-family:Arial;-inkscape-font-specification:Arial;fill:#ffffff"
         d="m 229.39726,701.55319 1.93325,-0.18795 q 0.17452,0.97333 0.70482,1.42979 0.53702,0.45646 1.44322,0.45646 0.95991,0 1.44322,-0.40275 0.49003,-0.40948 0.49003,-0.9532 0,-0.34906 -0.2081,-0.59071 -0.20138,-0.24837 -0.71154,-0.42961 -0.34905,-0.12083 -1.59089,-0.42961 -1.59761,-0.39605 -2.24203,-0.97334 -0.90621,-0.81223 -0.90621,-1.98023 0,-0.75181 0.4229,-1.40294 0.42961,-0.65784 1.22842,-1.00018 0.80551,-0.34235 1.93995,-0.34235 1.85269,0 2.78575,0.81223 0.93977,0.81223 0.98676,2.16819 l -1.98695,0.0873 q -0.12754,-0.75853 -0.55043,-1.08745 -0.41619,-0.33563 -1.25527,-0.33563 -0.86593,0 -1.35595,0.35577 -0.3155,0.22823 -0.3155,0.61085 0,0.34906 0.29536,0.59743 0.37591,0.31549 1.82584,0.65784 1.44993,0.34234 2.14133,0.71154 0.69812,0.36248 1.08745,1.00018 0.39605,0.63099 0.39605,1.56405 0,0.84579 -0.46989,1.58418 -0.46988,0.73839 -1.3291,1.10088 -0.85922,0.35577 -2.14133,0.35577 -1.86612,0 -2.86631,-0.85922 -1.00018,-0.86593 -1.19485,-2.51725 z m 11.06916,-1.752 -1.71173,-0.30878 q 0.28865,-1.03375 0.99348,-1.53048 0.70482,-0.49674 2.09434,-0.49674 1.26198,0 1.87954,0.30207 0.61757,0.29536 0.86593,0.75853 0.25508,0.45646 0.25508,1.68488 l -0.0201,2.20174 q 0,0.93977 0.0873,1.38952 0.094,0.44304 0.34235,0.9532 h -1.86612 q -0.0738,-0.18796 -0.18124,-0.55715 -0.047,-0.16782 -0.0671,-0.22152 -0.48331,0.46989 -1.03375,0.70483 -0.55043,0.23494 -1.17471,0.23494 -1.10087,0 -1.73857,-0.59743 -0.63099,-0.59742 -0.63099,-1.51034 0,-0.60414 0.28864,-1.07402 0.28864,-0.4766 0.80552,-0.72497 0.52358,-0.25508 1.50363,-0.44303 1.32239,-0.24837 1.83255,-0.46318 v -0.18795 q 0,-0.54373 -0.2685,-0.77196 -0.26851,-0.23494 -1.01361,-0.23494 -0.50345,0 -0.78538,0.20138 -0.28193,0.19467 -0.45646,0.6914 z m 2.52395,1.53049 q -0.36248,0.12082 -1.14786,0.28864 -0.78538,0.16782 -1.02703,0.32892 -0.3692,0.26179 -0.3692,0.66455 0,0.39605 0.29536,0.68469 0.29535,0.28865 0.75181,0.28865 0.51016,0 0.97334,-0.33564 0.34234,-0.25508 0.44974,-0.62427 0.0738,-0.24166 0.0738,-0.91963 z m 6.98116,-3.70538 v 1.50363 h -1.28883 v 2.87301 q 0,0.87265 0.0336,1.02032 0.0403,0.14097 0.16782,0.23495 0.13425,0.094 0.3222,0.094 0.2618,0 0.75853,-0.18124 l 0.16111,1.46336 q -0.65784,0.28193 -1.49021,0.28193 -0.51016,0 -0.91963,-0.16782 -0.40947,-0.17452 -0.60414,-0.44303 -0.18796,-0.27522 -0.26179,-0.73839 -0.0604,-0.32892 -0.0604,-1.32911 v -3.10795 h -0.86593 v -1.50363 h 0.86593 v -1.41637 l 1.89297,-1.10088 v 2.51725 z m 11.096,5.37683 v 1.752 h -6.61196 q 0.10741,-0.99347 0.64442,-1.87954 0.53701,-0.89279 2.1212,-2.36286 1.2754,-1.18813 1.56404,-1.61103 0.38934,-0.584 0.38934,-1.15458 0,-0.63098 -0.34235,-0.96662 -0.33563,-0.34234 -0.93306,-0.34234 -0.59071,0 -0.93977,0.35577 -0.34906,0.35577 -0.40276,1.18142 l -1.87954,-0.18795 q 0.16782,-1.55733 1.05389,-2.23531 0.88607,-0.67798 2.21517,-0.67798 1.45665,0 2.28901,0.78538 0.83237,0.78538 0.83237,1.95338 0,0.66455 -0.24165,1.26869 -0.23495,0.59743 -0.75182,1.25527 -0.34234,0.43632 -1.23513,1.25526 -0.89278,0.81894 -1.13443,1.08745 -0.23495,0.26851 -0.38263,0.52359 z m 4.46391,-8.12902 q 1.4298,0 2.23531,1.02032 0.95991,1.20828 0.95991,4.00745 0,2.79246 -0.96662,4.01417 -0.7988,1.00689 -2.2286,1.00689 -1.4365,0 -2.31586,-1.10087 -0.87936,-1.10759 -0.87936,-3.94032 0,-2.77904 0.96662,-4.00074 0.79881,-1.0069 2.2286,-1.0069 z m 0,1.56405 q -0.34234,0 -0.61085,0.22152 -0.26851,0.2148 -0.41618,0.77866 -0.19467,0.73168 -0.19467,2.46354 0,1.73187 0.17453,2.38299 0.17453,0.64442 0.43632,0.85922 0.26851,0.21481 0.61085,0.21481 0.34235,0 0.61085,-0.21481 0.26851,-0.22152 0.41619,-0.78538 0.19466,-0.72496 0.19466,-2.45683 0,-1.73186 -0.17453,-2.37627 -0.17452,-0.65113 -0.44303,-0.86593 -0.26179,-0.22152 -0.60414,-0.22152 z"
         id="text4-6-9-6"
         transform="scale(1.0330121,0.96804287)"
         aria-label="Sat 20" /></g><g
       id="g6-5-6-08"
       transform="matrix(0.94065575,0,0,1,443.2863,-410.30026)"
       style="display:inline;stroke-width:1.03106;stroke-dasharray:none"><rect
         style="fill: #F51515;fill-opacity:1;stroke: #F51515;stroke-width:0.835738;stroke-linecap:round;stroke-linejoin:round;stroke-miterlimit:4;stroke-dasharray:none;stroke-opacity:1"
         id="rect3-7-8-10"
         width="94.842194"
         height="49.492264"
         x="209.86293"
         y="652.72717" /><path
         style="font-weight:bold;font-size:13.7475px;font-family:Arial;-inkscape-font-specification:Arial;fill:#ffffff"
         d="m 226.93038,701.55319 1.93324,-0.18795 q 0.17453,0.97333 0.70483,1.42979 0.53701,0.45646 1.44321,0.45646 0.95991,0 1.44322,-0.40275 0.49003,-0.40948 0.49003,-0.9532 0,-0.34906 -0.2081,-0.59071 -0.20137,-0.24837 -0.71154,-0.42961 -0.34905,-0.12083 -1.59089,-0.42961 -1.59761,-0.39605 -2.24203,-0.97334 -0.9062,-0.81223 -0.9062,-1.98023 0,-0.75181 0.42289,-1.40294 0.42961,-0.65784 1.22842,-1.00018 0.80551,-0.34235 1.93995,-0.34235 1.85269,0 2.78575,0.81223 0.93977,0.81223 0.98676,2.16819 l -1.98694,0.0873 q -0.12754,-0.75853 -0.55044,-1.08745 -0.41619,-0.33563 -1.25527,-0.33563 -0.86593,0 -1.35595,0.35577 -0.3155,0.22823 -0.3155,0.61085 0,0.34906 0.29536,0.59743 0.37591,0.31549 1.82584,0.65784 1.44993,0.34234 2.14134,0.71154 0.69811,0.36248 1.08744,1.00018 0.39605,0.63099 0.39605,1.56405 0,0.84579 -0.46989,1.58418 -0.46988,0.73839 -1.3291,1.10088 -0.85922,0.35577 -2.14133,0.35577 -1.86612,0 -2.8663,-0.85922 -1.00019,-0.86593 -1.19485,-2.51725 z m 14.35163,3.20194 v -1.06731 q -0.38933,0.57057 -1.02703,0.89949 -0.63099,0.32892 -1.33582,0.32892 -0.71825,0 -1.28883,-0.31549 -0.57057,-0.3155 -0.82565,-0.88607 -0.25508,-0.57058 -0.25508,-1.57748 v -4.51089 h 1.88625 v 3.27577 q 0,1.50363 0.10069,1.84598 0.1074,0.33563 0.38262,0.53701 0.27522,0.19466 0.69812,0.19466 0.48331,0 0.86593,-0.26179 0.38262,-0.26851 0.52359,-0.65784 0.14096,-0.39604 0.14096,-1.92653 v -3.00726 h 1.88625 v 7.12883 z m 10.1898,0 h -1.88625 v -3.63826 q 0,-1.15457 -0.12083,-1.49021 -0.12083,-0.34234 -0.39604,-0.53029 -0.26851,-0.18796 -0.65113,-0.18796 -0.49002,0 -0.87936,0.26851 -0.38933,0.2685 -0.53701,0.71154 -0.14097,0.44303 -0.14097,1.63788 v 3.22879 h -1.88625 v -7.12883 h 1.752 v 1.04717 q 0.93306,-1.20828 2.34943,-1.20828 0.62427,0 1.14115,0.22823 0.51687,0.22152 0.77866,0.57058 0.26851,0.34906 0.3692,0.79209 0.1074,0.44303 0.1074,1.26869 z m 10.15624,0 h -1.88626 v -7.1087 q -1.03374,0.96663 -2.43669,1.4298 v -1.71173 q 0.73839,-0.24165 1.60432,-0.91292 0.86594,-0.67797 1.18814,-1.57747 h 1.53049 z m 6.51798,0 v -1.98023 h -4.02759 v -1.65131 l 4.26924,-6.24948 h 1.58419 v 6.24276 h 1.2217 v 1.65803 h -1.2217 v 1.98023 z m 0,-3.63826 v -3.36303 l -2.26217,3.36303 z"
         id="text4-6-9-3"
         transform="scale(1.0330121,0.96804287)"
         aria-label="Sun 14" /></g><g
       id="g6-5-6-084"
       transform="matrix(0.94065575,0,0,1,353.42885,-410.36811)"
       style="display:inline;stroke-width:1.03106;stroke-dasharray:none"><rect
         style="fill: #F51515;fill-opacity:1;stroke: #F51515;stroke-width:0.835738;stroke-linecap:round;stroke-linejoin:round;stroke-miterlimit:4;stroke-dasharray:none;stroke-opacity:1"
         id="rect3-7-8-9"
         width="94.842194"
         height="49.492264"
         x="209.86293"
         y="652.72717" /><path
         style="font-weight:bold;font-size:13.7475px;font-family:Arial;-inkscape-font-specification:Arial;fill:#ffffff"
         d="m 229.35364,701.55319 1.93324,-0.18795 q 0.17453,0.97333 0.70483,1.42979 0.53701,0.45646 1.44322,0.45646 0.95991,0 1.44322,-0.40275 0.49002,-0.40948 0.49002,-0.9532 0,-0.34906 -0.20809,-0.59071 -0.20138,-0.24837 -0.71154,-0.42961 -0.34906,-0.12083 -1.5909,-0.42961 -1.59761,-0.39605 -2.24202,-0.97334 -0.90621,-0.81223 -0.90621,-1.98023 0,-0.75181 0.4229,-1.40294 0.42961,-0.65784 1.22841,-1.00018 0.80552,-0.34235 1.93996,-0.34235 1.85269,0 2.78574,0.81223 0.93977,0.81223 0.98676,2.16819 l -1.98694,0.0873 q -0.12754,-0.75853 -0.55044,-1.08745 -0.41618,-0.33563 -1.25526,-0.33563 -0.86593,0 -1.35596,0.35577 -0.31549,0.22823 -0.31549,0.61085 0,0.34906 0.29535,0.59743 0.37591,0.31549 1.82584,0.65784 1.44994,0.34234 2.14134,0.71154 0.69811,0.36248 1.08745,1.00018 0.39604,0.63099 0.39604,1.56405 0,0.84579 -0.46988,1.58418 -0.46989,0.73839 -1.32911,1.10088 -0.85921,0.35577 -2.14133,0.35577 -1.86612,0 -2.8663,-0.85922 -1.00018,-0.86593 -1.19485,-2.51725 z m 11.06915,-1.752 -1.71172,-0.30878 q 0.28864,-1.03375 0.99347,-1.53048 0.70483,-0.49674 2.09435,-0.49674 1.26197,0 1.87954,0.30207 0.61756,0.29536 0.86593,0.75853 0.25508,0.45646 0.25508,1.68488 l -0.0201,2.20174 q 0,0.93977 0.0873,1.38952 0.094,0.44304 0.34234,0.9532 h -1.86612 q -0.0738,-0.18796 -0.18124,-0.55715 -0.047,-0.16782 -0.0671,-0.22152 -0.48331,0.46989 -1.03375,0.70483 -0.55044,0.23494 -1.17471,0.23494 -1.10088,0 -1.73858,-0.59743 -0.63099,-0.59742 -0.63099,-1.51034 0,-0.60414 0.28865,-1.07402 0.28864,-0.4766 0.80551,-0.72497 0.52359,-0.25508 1.50364,-0.44303 1.32239,-0.24837 1.83255,-0.46318 v -0.18795 q 0,-0.54373 -0.26851,-0.77196 -0.2685,-0.23494 -1.01361,-0.23494 -0.50345,0 -0.78538,0.20138 -0.28193,0.19467 -0.45646,0.6914 z m 2.52396,1.53049 q -0.36248,0.12082 -1.14786,0.28864 -0.78538,0.16782 -1.02704,0.32892 -0.36919,0.26179 -0.36919,0.66455 0,0.39605 0.29535,0.68469 0.29536,0.28865 0.75182,0.28865 0.51016,0 0.97333,-0.33564 0.34235,-0.25508 0.44975,-0.62427 0.0738,-0.24166 0.0738,-0.91963 z m 6.98115,-3.70538 v 1.50363 h -1.28883 v 2.87301 q 0,0.87265 0.0336,1.02032 0.0403,0.14097 0.16781,0.23495 0.13426,0.094 0.32221,0.094 0.26179,0 0.75853,-0.18124 l 0.1611,1.46336 q -0.65784,0.28193 -1.49021,0.28193 -0.51016,0 -0.91963,-0.16782 -0.40947,-0.17452 -0.60414,-0.44303 -0.18795,-0.27522 -0.26179,-0.73839 -0.0604,-0.32892 -0.0604,-1.32911 v -3.10795 h -0.86594 v -1.50363 h 0.86594 v -1.41637 l 1.89296,-1.10088 v 2.51725 z m 9.5521,7.12883 h -1.88626 v -7.1087 q -1.03374,0.96663 -2.43669,1.4298 v -1.71173 q 0.73839,-0.24165 1.60433,-0.91292 0.86593,-0.67797 1.18813,-1.57747 H 259.48 Z m 2.75218,-2.61122 1.82584,-0.22152 q 0.0873,0.69812 0.46989,1.06731 0.38262,0.3692 0.92634,0.3692 0.584,0 0.98005,-0.44304 0.40276,-0.44303 0.40276,-1.19485 0,-0.71154 -0.38262,-1.12772 -0.38262,-0.41619 -0.93306,-0.41619 -0.36248,0 -0.86593,0.14097 l 0.20809,-1.5372 q 0.76524,0.0201 1.168,-0.32892 0.40276,-0.35577 0.40276,-0.93977 0,-0.49673 -0.29536,-0.79209 -0.29535,-0.29536 -0.78538,-0.29536 -0.48331,0 -0.82565,0.33563 -0.34235,0.33564 -0.41619,0.98005 l -1.73857,-0.29536 q 0.18124,-0.89278 0.54372,-1.42308 0.3692,-0.53701 1.02033,-0.83908 0.65783,-0.30878 1.47006,-0.30878 1.38952,0 2.2286,0.88607 0.69141,0.72497 0.69141,1.63789 0,1.29554 -1.41637,2.06749 0.84579,0.18124 1.34924,0.81223 0.51016,0.63099 0.51016,1.52377 0,1.29554 -0.94648,2.20846 -0.94649,0.91292 -2.35614,0.91292 -1.33582,0 -2.21517,-0.76524 -0.87936,-0.77195 -1.02033,-2.01379 z"
         id="text4-6-9-30"
         transform="scale(1.0330121,0.96804287)"
         aria-label="Sat 13" /></g><g
       id="g6-5-1"
       transform="matrix(0.94065575,0,0,1,443.6613,-495.2863)"
       style="display:inline;stroke-width:1.03106;stroke-dasharray:none"><rect
         style="fill: #4900F8;fill-opacity:1;stroke: #4900F8;stroke-width:0.835738;stroke-linecap:round;stroke-linejoin:round;stroke-miterlimit:4;stroke-dasharray:none;stroke-opacity:1"
         id="rect3-7-1"
         width="94.842194"
         height="49.492264"
         x="209.86293"
         y="652.72717" /><path
         style="font-weight:bold;font-size:13.7475px;font-family:Arial;-inkscape-font-specification:Arial;fill:#ffffff"
         d="m 230.9009,701.55319 1.93324,-0.18795 q 0.17453,0.97333 0.70483,1.42979 0.53701,0.45646 1.44321,0.45646 0.95991,0 1.44322,-0.40275 0.49003,-0.40948 0.49003,-0.9532 0,-0.34906 -0.2081,-0.59071 -0.20137,-0.24837 -0.71154,-0.42961 -0.34905,-0.12083 -1.59089,-0.42961 -1.59761,-0.39605 -2.24203,-0.97334 -0.9062,-0.81223 -0.9062,-1.98023 0,-0.75181 0.42289,-1.40294 0.42961,-0.65784 1.22842,-1.00018 0.80551,-0.34235 1.93995,-0.34235 1.85269,0 2.78575,0.81223 0.93977,0.81223 0.98676,2.16819 l -1.98694,0.0873 q -0.12754,-0.75853 -0.55044,-1.08745 -0.41619,-0.33563 -1.25527,-0.33563 -0.86593,0 -1.35595,0.35577 -0.3155,0.22823 -0.3155,0.61085 0,0.34906 0.29536,0.59743 0.37591,0.31549 1.82584,0.65784 1.44993,0.34234 2.14134,0.71154 0.69811,0.36248 1.08744,1.00018 0.39605,0.63099 0.39605,1.56405 0,0.84579 -0.46989,1.58418 -0.46988,0.73839 -1.3291,1.10088 -0.85922,0.35577 -2.14133,0.35577 -1.86612,0 -2.8663,-0.85922 -1.00019,-0.86593 -1.19485,-2.51725 z m 14.35163,3.20194 v -1.06731 q -0.38933,0.57057 -1.02703,0.89949 -0.63099,0.32892 -1.33582,0.32892 -0.71825,0 -1.28883,-0.31549 -0.57057,-0.3155 -0.82565,-0.88607 -0.25508,-0.57058 -0.25508,-1.57748 v -4.51089 h 1.88625 v 3.27577 q 0,1.50363 0.10069,1.84598 0.1074,0.33563 0.38262,0.53701 0.27522,0.19466 0.69812,0.19466 0.48331,0 0.86593,-0.26179 0.38262,-0.26851 0.52359,-0.65784 0.14096,-0.39604 0.14096,-1.92653 v -3.00726 h 1.88625 v 7.12883 z m 10.1898,0 h -1.88625 v -3.63826 q 0,-1.15457 -0.12083,-1.49021 -0.12083,-0.34234 -0.39604,-0.53029 -0.26851,-0.18796 -0.65113,-0.18796 -0.49002,0 -0.87936,0.26851 -0.38933,0.2685 -0.53701,0.71154 -0.14097,0.44303 -0.14097,1.63788 v 3.22879 h -1.88625 v -7.12883 h 1.752 v 1.04717 q 0.93306,-1.20828 2.34943,-1.20828 0.62427,0 1.14115,0.22823 0.51687,0.22152 0.77866,0.57058 0.26851,0.34906 0.3692,0.79209 0.1074,0.44303 0.1074,1.26869 z m 5.32984,-7.95449 v -1.752 h 6.45086 v 1.36938 q -0.79881,0.78538 -1.62446,2.25545 -0.82566,1.47007 -1.26198,3.12809 -0.42961,1.65131 -0.4229,2.95357 h -1.81913 q 0.047,-2.04065 0.83909,-4.16184 0.7988,-2.1212 2.1279,-3.79265 z"
         id="text4-6-4"
         transform="scale(1.0330121,0.96804287)"
         aria-label="Sun 7" /></g><g
       id="g6-5-5"
       transform="matrix(0.94065575,0,0,1,353.6843,-495.4003)"
       style="display:inline;stroke-width:1.03106;stroke-dasharray:none"><rect
         style="fill: #4900F8;fill-opacity:1;stroke: #4900F8;stroke-width:0.835738;stroke-linecap:round;stroke-linejoin:round;stroke-miterlimit:4;stroke-dasharray:none;stroke-opacity:1"
         id="rect3-7-75"
         width="94.842194"
         height="49.492264"
         x="209.86293"
         y="652.72717" /><path
         style="font-weight:bold;font-size:13.7475px;font-family:Arial;-inkscape-font-specification:Arial;fill:#ffffff"
         d="m 233.12615,701.55319 1.93324,-0.18795 q 0.17453,0.97333 0.70483,1.42979 0.53701,0.45646 1.44321,0.45646 0.95991,0 1.44322,-0.40275 0.49003,-0.40948 0.49003,-0.9532 0,-0.34906 -0.20809,-0.59071 -0.20138,-0.24837 -0.71155,-0.42961 -0.34905,-0.12083 -1.59089,-0.42961 -1.59761,-0.39605 -2.24203,-0.97334 -0.9062,-0.81223 -0.9062,-1.98023 0,-0.75181 0.42289,-1.40294 0.42961,-0.65784 1.22842,-1.00018 0.80551,-0.34235 1.93995,-0.34235 1.85269,0 2.78575,0.81223 0.93977,0.81223 0.98676,2.16819 l -1.98694,0.0873 q -0.12754,-0.75853 -0.55044,-1.08745 -0.41619,-0.33563 -1.25527,-0.33563 -0.86593,0 -1.35595,0.35577 -0.3155,0.22823 -0.3155,0.61085 0,0.34906 0.29536,0.59743 0.37591,0.31549 1.82584,0.65784 1.44993,0.34234 2.14134,0.71154 0.69811,0.36248 1.08744,1.00018 0.39605,0.63099 0.39605,1.56405 0,0.84579 -0.46988,1.58418 -0.46989,0.73839 -1.32911,1.10088 -0.85922,0.35577 -2.14133,0.35577 -1.86612,0 -2.8663,-0.85922 -1.00019,-0.86593 -1.19485,-2.51725 z m 11.06915,-1.752 -1.71172,-0.30878 q 0.28864,-1.03375 0.99347,-1.53048 0.70482,-0.49674 2.09434,-0.49674 1.26198,0 1.87954,0.30207 0.61757,0.29536 0.86594,0.75853 0.25508,0.45646 0.25508,1.68488 l -0.0201,2.20174 q 0,0.93977 0.0873,1.38952 0.094,0.44304 0.34235,0.9532 h -1.86612 q -0.0738,-0.18796 -0.18124,-0.55715 -0.047,-0.16782 -0.0671,-0.22152 -0.48331,0.46989 -1.03374,0.70483 -0.55044,0.23494 -1.17472,0.23494 -1.10087,0 -1.73857,-0.59743 -0.63099,-0.59742 -0.63099,-1.51034 0,-0.60414 0.28864,-1.07402 0.28865,-0.4766 0.80552,-0.72497 0.52359,-0.25508 1.50363,-0.44303 1.32239,-0.24837 1.83256,-0.46318 v -0.18795 q 0,-0.54373 -0.26851,-0.77196 -0.26851,-0.23494 -1.01361,-0.23494 -0.50345,0 -0.78538,0.20138 -0.28193,0.19467 -0.45646,0.6914 z m 2.52396,1.53049 q -0.36249,0.12082 -1.14787,0.28864 -0.78538,0.16782 -1.02703,0.32892 -0.3692,0.26179 -0.3692,0.66455 0,0.39605 0.29536,0.68469 0.29536,0.28865 0.75182,0.28865 0.51016,0 0.97333,-0.33564 0.34234,-0.25508 0.44975,-0.62427 0.0738,-0.24166 0.0738,-0.91963 z m 6.98115,-3.70538 v 1.50363 h -1.28883 v 2.87301 q 0,0.87265 0.0336,1.02032 0.0403,0.14097 0.16782,0.23495 0.13425,0.094 0.32221,0.094 0.26179,0 0.75852,-0.18124 l 0.16111,1.46336 q -0.65784,0.28193 -1.49021,0.28193 -0.51016,0 -0.91963,-0.16782 -0.40947,-0.17452 -0.60414,-0.44303 -0.18795,-0.27522 -0.26179,-0.73839 -0.0604,-0.32892 -0.0604,-1.32911 v -3.10795 h -0.86593 v -1.50363 h 0.86593 v -1.41637 l 1.89297,-1.10088 v 2.51725 z m 11.11614,-0.30207 -1.82584,0.20138 q -0.0671,-0.56387 -0.34906,-0.83237 -0.28193,-0.26851 -0.73167,-0.26851 -0.59743,0 -1.01361,0.53701 -0.40948,0.53702 -0.51688,2.23532 0.70483,-0.83237 1.752,-0.83237 1.18143,0 2.02051,0.89949 0.84579,0.8995 0.84579,2.32258 0,1.51034 -0.88607,2.42326 -0.88607,0.91292 -2.27558,0.91292 -1.49021,0 -2.45012,-1.15457 -0.95991,-1.16129 -0.95991,-3.79936 0,-2.7052 1.00019,-3.90005 1.00018,-1.19485 2.59779,-1.19485 1.12101,0 1.85269,0.63099 0.73839,0.62428 0.93977,1.81913 z m -4.27595,4.11485 q 0,0.91963 0.42289,1.42308 0.4229,0.49674 0.96662,0.49674 0.52359,0 0.87265,-0.40948 0.34906,-0.40947 0.34906,-1.34252 0,-0.95991 -0.37591,-1.40295 -0.37591,-0.44974 -0.93977,-0.44974 -0.54373,0 -0.91964,0.4296 -0.3759,0.4229 -0.3759,1.25527 z"
         id="text4-6-0"
         transform="scale(1.0330121,0.96804287)"
         aria-label="Sat 6" /></g></g></svg>
