<?xml version="1.0" encoding="UTF-8" standalone="no"?>
<svg
   width="800"
   height="600"
   viewBox="0 0 800 600"
   fill="none"
   version="1.1"
   id="svg968"
   xmlns="http://www.w3.org/2000/svg"
   xmlns:svg="http://www.w3.org/2000/svg">
  <path
     d="m 287.647,120 v -15 h -16.2 v 15 h -9.54 l -5.46,15 h 15 v 30 h 17.01 c 3.15,0 5.97,-1.974 7.05,-4.932 l 3.276,-9.006 c 0,0 0.384,-1.056 1.512,-1.056 h 23.772 l 5.46,-15 h -19.65 c -3.15,0 -5.97,1.974 -7.05,4.932 l -3.276,9.006 c 0,0 -0.384,1.056 -1.512,1.056 h -10.398 v -15 h 11.73 c 3.15,0 5.97,-1.974 7.05,-4.932 l 3.276,-9.006 c 0,0 0.384,-1.056 1.512,-1.056 h 26.772 L 343.447,105 h -22.65 c -3.15,0 -5.97,1.974 -7.05,4.932 l -3.276,9.006 c 0,0 -0.384,1.056 -1.512,1.056 h -21.318 z"
     fill="#000000"
     id="path1" />
  <path
     d="m 385.333,144.78 -1.272,3.498 c -0.378,1.032 -1.356,1.716 -2.454,1.716 h -5.556 c -1.44,0 -2.604,-1.164 -2.604,-2.604 v -16.5 h -3.894 v -4.302 h 3.894 v -6.6 h 6.426 v 6.6 h 4.71 v 4.302 h -4.71 v 13.884 h 5.46 z"
     fill="#000000"
     id="path2" />
  <path
     d="m 478.597,122.22 h -4.434 v 4.38 h 4.434 v 4.302 h -4.434 v 19.104 h -6.426 v -19.104 h -3.894 V 126.6 h 3.894 v -6.996 c 0,-1.44 1.164,-2.604 2.604,-2.604 h 10.158 l -1.896,5.22 z"
     fill="#000000"
     id="path3" />
  <path
     d="m 387.841,123 v -6 h 6.426 v 6 z m 6.426,3.6 V 150 h -6.426 v -23.4 z"
     fill="#000000"
     id="path4" />
  <path
     d="m 405.584,126.6 v 3.168 h 0.09 c 0.846,-1.206 1.86,-2.142 3.054,-2.808 1.194,-0.666 2.556,-0.996 4.098,-0.996 1.542,0 2.832,0.288 4.05,0.858 1.224,0.576 2.148,1.584 2.784,3.03 0.696,-1.026 1.638,-1.932 2.832,-2.718 1.194,-0.786 2.604,-1.176 4.23,-1.176 1.236,0 2.382,0.15 3.438,0.456 1.056,0.3 1.962,0.786 2.718,1.446 0.756,0.666 1.344,1.53 1.764,2.604 0.42,1.074 0.636,2.364 0.636,3.87 v 15.66 h -6.426 v -13.26 c 0,-0.786 -0.03,-1.524 -0.09,-2.22 -0.06,-0.696 -0.228,-1.296 -0.498,-1.812 -0.27,-0.51 -0.672,-0.918 -1.2,-1.224 -0.528,-0.3 -1.248,-0.45 -2.148,-0.45 -0.9,0 -1.638,0.174 -2.196,0.522 -0.558,0.348 -0.996,0.798 -1.314,1.356 -0.318,0.558 -0.528,1.194 -0.636,1.902 -0.108,0.708 -0.156,1.428 -0.156,2.148 v 13.038 h -6.426 v -13.128 c 0,-0.696 -0.018,-1.38 -0.048,-2.058 -0.03,-0.678 -0.156,-1.302 -0.384,-1.878 -0.228,-0.57 -0.606,-1.032 -1.134,-1.38 -0.528,-0.348 -1.308,-0.522 -2.334,-0.522 -0.3,0 -0.702,0.066 -1.2,0.204 -0.498,0.138 -0.978,0.39 -1.446,0.768 -0.468,0.378 -0.87,0.918 -1.2,1.626 -0.33,0.708 -0.498,1.638 -0.498,2.784 v 13.578 h -6.426 v -23.4 h 6.066 z"
     fill="#000000"
     id="path5" />
  <path
     d="m 447.229,144.384 c 0.966,0.936 2.352,1.404 4.164,1.404 1.296,0 2.412,-0.324 3.348,-0.972 0.936,-0.648 1.506,-1.332 1.722,-2.058 h 5.658 c -0.906,2.808 -2.292,4.812 -4.164,6.018 -1.872,1.206 -4.134,1.812 -6.792,1.812 -1.842,0 -3.504,-0.294 -4.98,-0.882 -1.482,-0.588 -2.73,-1.428 -3.756,-2.514 -1.026,-1.086 -1.818,-2.382 -2.376,-3.894 -0.558,-1.506 -0.84,-3.168 -0.84,-4.98 0,-1.812 0.288,-3.378 0.858,-4.89 0.57,-1.506 1.386,-2.814 2.442,-3.918 1.056,-1.098 2.316,-1.968 3.78,-2.604 1.464,-0.636 3.084,-0.954 4.866,-0.954 1.992,0 3.726,0.384 5.208,1.152 1.476,0.768 2.694,1.806 3.642,3.102 0.948,1.296 1.638,2.778 2.058,4.434 0.42,1.662 0.57,3.396 0.45,5.208 h -16.884 c 0.09,2.082 0.618,3.594 1.584,4.524 z m 7.266,-12.312 c -0.768,-0.846 -1.938,-1.266 -3.51,-1.266 -1.026,0 -1.878,0.174 -2.556,0.522 -0.678,0.348 -1.224,0.78 -1.632,1.29 -0.408,0.516 -0.696,1.056 -0.858,1.632 -0.168,0.576 -0.264,1.086 -0.294,1.542 h 10.458 c -0.3,-1.632 -0.84,-2.868 -1.608,-3.714 z"
     fill="#000000"
     id="path6" />
  <path
     d="m 481.544,133.23 c 0.57,-1.524 1.386,-2.82 2.442,-3.894 1.056,-1.074 2.322,-1.902 3.804,-2.49 1.476,-0.588 3.138,-0.882 4.98,-0.882 1.842,0 3.51,0.294 5.004,0.882 1.494,0.588 2.766,1.416 3.822,2.49 1.056,1.074 1.872,2.37 2.442,3.894 0.57,1.524 0.858,3.222 0.858,5.094 0,1.872 -0.288,3.564 -0.858,5.07 -0.576,1.506 -1.386,2.796 -2.442,3.87 -1.056,1.074 -2.334,1.896 -3.822,2.466 -1.494,0.576 -3.162,0.858 -5.004,0.858 -1.842,0 -3.504,-0.288 -4.98,-0.858 -1.482,-0.57 -2.748,-1.398 -3.804,-2.466 -1.056,-1.074 -1.872,-2.364 -2.442,-3.87 -0.576,-1.506 -0.858,-3.198 -0.858,-5.07 0,-1.872 0.288,-3.57 0.858,-5.094 z m 5.838,7.83 c 0.18,0.888 0.492,1.692 0.93,2.4 0.438,0.708 1.02,1.278 1.74,1.698 0.726,0.42 1.632,0.636 2.718,0.636 1.086,0 1.998,-0.21 2.736,-0.636 0.738,-0.42 1.326,-0.99 1.764,-1.698 0.438,-0.708 0.744,-1.506 0.93,-2.4 0.18,-0.888 0.27,-1.8 0.27,-2.742 0,-0.942 -0.09,-1.854 -0.27,-2.76 -0.18,-0.906 -0.492,-1.704 -0.93,-2.4 -0.438,-0.696 -1.026,-1.26 -1.764,-1.698 -0.738,-0.438 -1.65,-0.654 -2.736,-0.654 -1.086,0 -1.992,0.222 -2.718,0.654 -0.726,0.438 -1.308,1.002 -1.74,1.698 -0.438,0.696 -0.75,1.494 -0.93,2.4 -0.18,0.906 -0.27,1.824 -0.27,2.76 0,0.936 0.09,1.848 0.27,2.742 z"
     fill="#000000"
     id="path7" />
  <path
     d="m 515.671,117 v 33 h -6.426 v -33 z"
     fill="#000000"
     id="path8" />
  <path
     d="m 537.355,147.012 c -0.756,1.266 -1.74,2.178 -2.964,2.736 -1.224,0.558 -2.604,0.84 -4.14,0.84 -1.752,0 -3.288,-0.342 -4.614,-1.02 -1.326,-0.678 -2.424,-1.596 -3.282,-2.76 -0.858,-1.164 -1.512,-2.496 -1.944,-4.008 -0.438,-1.506 -0.654,-3.078 -0.654,-4.71 0,-1.632 0.216,-3.084 0.654,-4.548 0.438,-1.464 1.086,-2.754 1.944,-3.87 0.858,-1.116 1.938,-2.016 3.234,-2.694 1.296,-0.678 2.808,-1.02 4.524,-1.02 1.386,0 2.706,0.294 3.96,0.882 1.254,0.588 2.238,1.458 2.964,2.604 h 0.09 v -12.45 h 6.426 v 33 h -6.108 v -2.988 h -0.09 z m -0.27,-11.568 c -0.18,-0.888 -0.492,-1.674 -0.93,-2.352 -0.438,-0.678 -1.002,-1.23 -1.698,-1.65 -0.696,-0.42 -1.572,-0.636 -2.628,-0.636 -1.056,0 -1.944,0.21 -2.67,0.636 -0.726,0.426 -1.308,0.978 -1.74,1.674 -0.438,0.696 -0.756,1.488 -0.948,2.376 -0.198,0.888 -0.294,1.818 -0.294,2.784 0,0.906 0.108,1.812 0.318,2.718 0.21,0.906 0.552,1.716 1.02,2.424 0.468,0.708 1.056,1.284 1.764,1.722 0.708,0.438 1.56,0.654 2.556,0.654 1.056,0 1.938,-0.21 2.646,-0.636 0.708,-0.42 1.272,-0.99 1.698,-1.698 0.42,-0.708 0.726,-1.518 0.906,-2.424 0.18,-0.906 0.27,-1.842 0.27,-2.808 0,-0.966 -0.09,-1.896 -0.27,-2.784 z"
     fill="#000000"
     id="path9" />
  <rect
     x="30.5"
     y="180.5"
     width="739"
     height="69"
     rx="4.5"
     stroke="#000000"
     id="rect9" />
  <path
     d="m 260.049,225.388 c 0,0 -1.452,0.844 1.034,1.13 3.011,0.343 4.55,0.294 7.868,-0.334 0,0 0.873,0.547 2.091,1.021 -7.439,3.188 -16.836,-0.185 -10.993,-1.817 z"
     fill="#5382a1"
     id="path10" />
  <path
     d="m 259.141,221.227 c 0,0 -1.629,1.206 0.859,1.463 3.216,0.332 5.757,0.359 10.152,-0.487 0,0 0.608,0.616 1.564,0.953 -8.994,2.63 -19.012,0.207 -12.575,-1.929 z"
     fill="#5382a1"
     id="path11" />
  <path
     d="m 266.803,214.17 c 1.833,2.11 -0.481,4.009 -0.481,4.009 0,0 4.654,-2.403 2.516,-5.411 -1.996,-2.806 -3.527,-4.2 4.761,-9.007 0,0 -13.009,3.249 -6.796,10.409 z"
     fill="#e76f00"
     id="path12" />
  <path
     d="m 276.642,228.465 c 0,0 1.075,0.885 -1.183,1.57 -4.294,1.301 -17.872,1.694 -21.644,0.052 -1.355,-0.59 1.187,-1.408 1.987,-1.58 0.834,-0.181 1.311,-0.147 1.311,-0.147 -1.508,-1.063 -9.746,2.085 -4.185,2.987 15.167,2.46 27.648,-1.108 23.714,-2.882 z"
     fill="#5382a1"
     id="path13" />
  <path
     d="m 260.747,216.916 c 0,0 -6.907,1.641 -2.446,2.237 1.884,0.252 5.638,0.195 9.135,-0.098 2.859,-0.241 5.729,-0.754 5.729,-0.754 0,0 -1.008,0.432 -1.737,0.929 -7.014,1.845 -20.562,0.987 -16.662,-0.9 3.299,-1.594 5.981,-1.414 5.981,-1.414 z"
     fill="#5382a1"
     id="path14" />
  <path
     d="m 273.137,223.842 c 7.13,-3.705 3.833,-7.265 1.533,-6.786 -0.564,0.118 -0.816,0.219 -0.816,0.219 0,0 0.21,-0.328 0.609,-0.469 4.552,-1.601 8.053,4.719 -1.469,7.222 0,0 0.11,-0.098 0.143,-0.186 z"
     fill="#5382a1"
     id="path15" />
  <path
     d="m 268.839,196 c 0,0 3.948,3.95 -3.745,10.023 -6.169,4.872 -1.407,7.65 -0.003,10.824 -3.601,-3.249 -6.243,-6.109 -4.471,-8.771 2.603,-3.908 9.812,-5.802 8.219,-12.076 z"
     fill="#e76f00"
     id="path16" />
  <path
     d="m 261.448,233.881 c 6.843,0.438 17.352,-0.244 17.601,-3.482 0,0 -0.479,1.228 -5.656,2.203 -5.841,1.099 -13.045,0.971 -17.318,0.266 0,0 0.875,0.724 5.373,1.013 z"
     fill="#5382a1"
     id="path17" />
  <path
     d="m 291.51,217.75 1.367,-0.188 c 0.036,0.875 0.2,1.474 0.492,1.797 0.292,0.323 0.695,0.485 1.211,0.485 0.38,0 0.708,-0.086 0.984,-0.258 0.276,-0.177 0.467,-0.414 0.571,-0.711 0.104,-0.302 0.156,-0.781 0.156,-1.438 v -7.89 h 1.516 v 7.805 c 0,0.958 -0.118,1.7 -0.352,2.226 -0.229,0.526 -0.596,0.927 -1.101,1.203 -0.5,0.276 -1.089,0.414 -1.766,0.414 -1.005,0 -1.776,-0.289 -2.313,-0.867 -0.531,-0.578 -0.786,-1.437 -0.765,-2.578 z m 14.008,2.227 c -0.521,0.442 -1.024,0.755 -1.508,0.937 -0.479,0.182 -0.995,0.273 -1.547,0.273 -0.912,0 -1.612,-0.221 -2.102,-0.664 -0.489,-0.447 -0.734,-1.018 -0.734,-1.711 0,-0.406 0.091,-0.776 0.273,-1.109 0.188,-0.338 0.43,-0.609 0.727,-0.812 0.302,-0.204 0.641,-0.357 1.016,-0.461 0.276,-0.073 0.692,-0.144 1.25,-0.211 1.135,-0.136 1.971,-0.297 2.507,-0.485 0.006,-0.192 0.008,-0.315 0.008,-0.367 0,-0.573 -0.133,-0.976 -0.398,-1.211 -0.36,-0.317 -0.893,-0.476 -1.602,-0.476 -0.661,0 -1.151,0.117 -1.469,0.351 -0.312,0.229 -0.544,0.638 -0.695,1.227 l -1.375,-0.188 c 0.125,-0.588 0.331,-1.062 0.617,-1.422 0.287,-0.364 0.701,-0.643 1.243,-0.836 0.541,-0.197 1.169,-0.296 1.882,-0.296 0.709,0 1.284,0.083 1.727,0.25 0.443,0.166 0.768,0.377 0.976,0.632 0.209,0.25 0.355,0.568 0.438,0.954 0.047,0.239 0.07,0.671 0.07,1.296 v 1.875 c 0,1.308 0.029,2.136 0.086,2.485 0.063,0.344 0.182,0.674 0.36,0.992 h -1.469 c -0.146,-0.292 -0.24,-0.633 -0.281,-1.023 z m -0.118,-3.141 c -0.51,0.208 -1.276,0.385 -2.296,0.531 -0.579,0.084 -0.987,0.177 -1.227,0.281 -0.24,0.105 -0.425,0.258 -0.555,0.461 -0.13,0.198 -0.195,0.42 -0.195,0.664 0,0.375 0.141,0.688 0.422,0.938 0.286,0.25 0.703,0.375 1.25,0.375 0.541,0 1.023,-0.117 1.445,-0.352 0.422,-0.239 0.732,-0.565 0.93,-0.976 0.151,-0.318 0.226,-0.787 0.226,-1.406 z m 5.914,4.164 -3.156,-8.297 h 1.485 l 1.781,4.969 c 0.193,0.536 0.37,1.094 0.531,1.672 0.125,-0.438 0.3,-0.964 0.524,-1.578 l 1.843,-5.063 h 1.446 L 312.627,221 Z m 11.11,-1.023 c -0.521,0.442 -1.024,0.755 -1.508,0.937 -0.479,0.182 -0.995,0.273 -1.547,0.273 -0.911,0 -1.612,-0.221 -2.101,-0.664 -0.49,-0.447 -0.735,-1.018 -0.735,-1.711 0,-0.406 0.091,-0.776 0.274,-1.109 0.187,-0.338 0.429,-0.609 0.726,-0.812 0.302,-0.204 0.641,-0.357 1.016,-0.461 0.276,-0.073 0.693,-0.144 1.25,-0.211 1.135,-0.136 1.971,-0.297 2.508,-0.485 0.005,-0.192 0.007,-0.315 0.007,-0.367 0,-0.573 -0.132,-0.976 -0.398,-1.211 -0.359,-0.317 -0.893,-0.476 -1.602,-0.476 -0.661,0 -1.151,0.117 -1.468,0.351 -0.313,0.229 -0.545,0.638 -0.696,1.227 l -1.375,-0.188 c 0.125,-0.588 0.331,-1.062 0.618,-1.422 0.286,-0.364 0.7,-0.643 1.242,-0.836 0.541,-0.197 1.169,-0.296 1.883,-0.296 0.708,0 1.283,0.083 1.726,0.25 0.443,0.166 0.768,0.377 0.977,0.632 0.208,0.25 0.354,0.568 0.437,0.954 0.047,0.239 0.071,0.671 0.071,1.296 v 1.875 c 0,1.308 0.028,2.136 0.085,2.485 0.063,0.344 0.183,0.674 0.36,0.992 h -1.469 c -0.146,-0.292 -0.24,-0.633 -0.281,-1.023 z m -0.117,-3.141 c -0.511,0.208 -1.276,0.385 -2.297,0.531 -0.578,0.084 -0.987,0.177 -1.227,0.281 -0.239,0.105 -0.424,0.258 -0.554,0.461 -0.131,0.198 -0.196,0.42 -0.196,0.664 0,0.375 0.141,0.688 0.422,0.938 0.287,0.25 0.703,0.375 1.25,0.375 0.542,0 1.024,-0.117 1.445,-0.352 0.422,-0.239 0.732,-0.565 0.93,-0.976 0.151,-0.318 0.227,-0.787 0.227,-1.406 z"
     fill="#000000"
     id="path18" />
  <path
     d="m 495.976,227.464 h -24.928 v -24.928 h 24.928 l -12.464,12.459 z"
     fill="url(#paint0_linear_55_2)"
     id="path19"
     style="fill:url(#paint0_linear_55_2)" />
  <path
     d="m 509.148,221 v -11.453 h 1.516 v 5.68 l 5.688,-5.68 h 2.054 l -4.804,4.641 5.015,6.812 h -2 l -4.078,-5.797 -1.875,1.828 V 221 Z m 10.032,-4.148 c 0,-1.537 0.427,-2.675 1.281,-3.414 0.713,-0.615 1.583,-0.922 2.609,-0.922 1.141,0 2.073,0.375 2.797,1.125 0.724,0.744 1.086,1.776 1.086,3.093 0,1.068 -0.161,1.909 -0.484,2.524 -0.318,0.609 -0.784,1.083 -1.399,1.422 -0.609,0.338 -1.276,0.508 -2,0.508 -1.161,0 -2.101,-0.373 -2.82,-1.118 -0.714,-0.744 -1.07,-1.817 -1.07,-3.218 z m 1.445,0 c 0,1.062 0.232,1.859 0.695,2.39 0.464,0.526 1.047,0.789 1.75,0.789 0.698,0 1.279,-0.265 1.742,-0.797 0.464,-0.531 0.696,-1.341 0.696,-2.429 0,-1.026 -0.235,-1.802 -0.703,-2.328 -0.464,-0.532 -1.042,-0.797 -1.735,-0.797 -0.703,0 -1.286,0.263 -1.75,0.789 -0.463,0.526 -0.695,1.32 -0.695,2.383 z m 11.055,2.89 0.203,1.242 c -0.396,0.084 -0.75,0.125 -1.063,0.125 -0.51,0 -0.906,-0.08 -1.187,-0.242 -0.281,-0.161 -0.479,-0.372 -0.594,-0.633 -0.115,-0.265 -0.172,-0.82 -0.172,-1.664 v -4.773 h -1.031 v -1.094 h 1.031 v -2.055 l 1.399,-0.843 v 2.898 h 1.414 v 1.094 h -1.414 v 4.851 c 0,0.401 0.023,0.659 0.07,0.774 0.052,0.114 0.133,0.206 0.242,0.273 0.115,0.068 0.276,0.102 0.484,0.102 0.157,0 0.362,-0.018 0.618,-0.055 z m 1.351,1.258 v -11.453 h 1.407 V 221 Z m 3.602,-9.836 v -1.617 h 1.406 v 1.617 z m 0,9.836 v -8.297 h 1.406 V 221 Z m 3.555,0 v -8.297 h 1.265 v 1.18 c 0.609,-0.912 1.49,-1.367 2.641,-1.367 0.5,0 0.958,0.091 1.375,0.273 0.422,0.177 0.737,0.412 0.945,0.703 0.208,0.292 0.354,0.638 0.438,1.039 0.052,0.261 0.078,0.716 0.078,1.367 V 221 h -1.407 v -5.047 c 0,-0.573 -0.054,-1 -0.164,-1.281 -0.109,-0.287 -0.304,-0.513 -0.586,-0.68 -0.276,-0.172 -0.601,-0.258 -0.976,-0.258 -0.599,0 -1.117,0.19 -1.555,0.571 -0.432,0.38 -0.648,1.101 -0.648,2.164 V 221 Z"
     fill="#000000"
     id="path20" />
  <rect
     x="30.5"
     y="260.5"
     width="739"
     height="69"
     rx="4.5"
     stroke="#000000"
     id="rect20" />
  <path
     fill-rule="evenodd"
     clip-rule="evenodd"
     d="m 155.067,275 h 20 l 10,10 v 30 h -30 z"
     stroke="#000000"
     stroke-linecap="round"
     stroke-linejoin="round"
     id="path21" />
  <path
     fill-rule="evenodd"
     clip-rule="evenodd"
     d="m 175.067,275 v 10 h 10"
     fill="#000000"
     id="path22" />
  <path
     d="m 175.067,275 v 10 h 10"
     stroke="#000000"
     stroke-linecap="round"
     stroke-linejoin="round"
     id="path23" />
  <path
     d="m 187.067,289 h -34 c -1.656,0 -3,1.343 -3,3 v 14 c 0,1.657 1.344,3 3,3 h 34 c 1.657,0 3,-1.343 3,-3 v -14 c 0,-1.657 -1.343,-3 -3,-3 z"
     fill="#000000"
     id="path24" />
  <path
     d="m 203.302,301 v -11.453 h 4.32 c 0.76,0 1.341,0.036 1.742,0.109 0.563,0.094 1.034,0.274 1.414,0.539 0.381,0.261 0.685,0.628 0.914,1.102 0.235,0.474 0.352,0.995 0.352,1.562 0,0.974 -0.31,1.8 -0.93,2.477 -0.62,0.672 -1.739,1.008 -3.359,1.008 h -2.938 V 301 Z m 1.515,-6.008 h 2.961 c 0.979,0 1.675,-0.182 2.086,-0.547 0.412,-0.364 0.617,-0.877 0.617,-1.539 0,-0.479 -0.122,-0.888 -0.367,-1.226 -0.239,-0.344 -0.557,-0.571 -0.953,-0.68 -0.255,-0.068 -0.726,-0.102 -1.414,-0.102 h -2.93 z m 8.946,6.008 v -11.453 h 1.406 V 301 Z m 9.008,-1.023 c -0.521,0.442 -1.024,0.755 -1.508,0.937 -0.479,0.182 -0.995,0.274 -1.547,0.274 -0.912,0 -1.612,-0.222 -2.102,-0.665 -0.489,-0.447 -0.734,-1.018 -0.734,-1.711 0,-0.406 0.091,-0.776 0.273,-1.109 0.188,-0.338 0.43,-0.609 0.727,-0.812 0.302,-0.203 0.641,-0.357 1.016,-0.461 0.276,-0.073 0.692,-0.144 1.25,-0.211 1.135,-0.136 1.971,-0.297 2.507,-0.485 0.006,-0.192 0.008,-0.315 0.008,-0.367 0,-0.573 -0.133,-0.976 -0.398,-1.211 -0.36,-0.317 -0.894,-0.476 -1.602,-0.476 -0.661,0 -1.151,0.117 -1.469,0.351 -0.312,0.229 -0.544,0.638 -0.695,1.227 l -1.375,-0.188 c 0.125,-0.588 0.331,-1.062 0.617,-1.422 0.287,-0.364 0.701,-0.643 1.242,-0.836 0.542,-0.197 1.17,-0.296 1.883,-0.296 0.709,0 1.284,0.083 1.727,0.25 0.443,0.166 0.768,0.377 0.976,0.632 0.209,0.25 0.355,0.568 0.438,0.954 0.047,0.239 0.07,0.671 0.07,1.296 v 1.875 c 0,1.308 0.029,2.136 0.086,2.485 0.063,0.344 0.182,0.674 0.36,0.992 h -1.469 c -0.146,-0.292 -0.24,-0.633 -0.281,-1.023 z m -0.118,-3.141 c -0.51,0.208 -1.276,0.385 -2.297,0.531 -0.578,0.084 -0.987,0.177 -1.226,0.281 -0.24,0.105 -0.425,0.258 -0.555,0.461 -0.13,0.198 -0.195,0.42 -0.195,0.664 0,0.375 0.141,0.688 0.422,0.938 0.286,0.25 0.703,0.375 1.25,0.375 0.541,0 1.023,-0.117 1.445,-0.352 0.422,-0.239 0.732,-0.565 0.93,-0.976 0.151,-0.318 0.226,-0.787 0.226,-1.406 z m 3.618,-5.672 v -1.617 h 1.406 v 1.617 z m 0,9.836 v -8.297 h 1.406 V 301 Z m 3.554,0 v -8.297 h 1.266 v 1.18 c 0.609,-0.912 1.489,-1.367 2.64,-1.367 0.5,0 0.959,0.091 1.375,0.273 0.422,0.177 0.737,0.412 0.946,0.703 0.208,0.292 0.354,0.638 0.437,1.039 0.052,0.261 0.078,0.716 0.078,1.367 V 301 h -1.406 v -5.047 c 0,-0.573 -0.055,-1 -0.164,-1.281 -0.109,-0.287 -0.305,-0.513 -0.586,-0.68 -0.276,-0.172 -0.601,-0.258 -0.976,-0.258 -0.599,0 -1.118,0.19 -1.555,0.571 -0.432,0.38 -0.649,1.101 -0.649,2.164 V 301 Z m 12.766,-3.25 1.367,-0.188 c 0.036,0.876 0.201,1.474 0.492,1.797 0.292,0.323 0.696,0.485 1.211,0.485 0.38,0 0.708,-0.086 0.985,-0.258 0.276,-0.177 0.466,-0.414 0.57,-0.711 0.104,-0.302 0.156,-0.781 0.156,-1.437 v -7.891 h 1.516 v 7.805 c 0,0.958 -0.117,1.7 -0.352,2.226 -0.229,0.526 -0.596,0.927 -1.101,1.203 -0.5,0.276 -1.089,0.414 -1.766,0.414 -1.005,0 -1.776,-0.289 -2.313,-0.867 -0.531,-0.578 -0.786,-1.437 -0.765,-2.578 z m 14.008,2.227 c -0.521,0.442 -1.024,0.755 -1.508,0.937 -0.479,0.182 -0.995,0.274 -1.547,0.274 -0.912,0 -1.612,-0.222 -2.102,-0.665 -0.489,-0.447 -0.734,-1.018 -0.734,-1.711 0,-0.406 0.091,-0.776 0.273,-1.109 0.188,-0.338 0.43,-0.609 0.727,-0.812 0.302,-0.203 0.641,-0.357 1.016,-0.461 0.276,-0.073 0.692,-0.144 1.25,-0.211 1.135,-0.136 1.971,-0.297 2.507,-0.485 0.006,-0.192 0.008,-0.315 0.008,-0.367 0,-0.573 -0.133,-0.976 -0.398,-1.211 -0.36,-0.317 -0.893,-0.476 -1.602,-0.476 -0.661,0 -1.151,0.117 -1.468,0.351 -0.313,0.229 -0.545,0.638 -0.696,1.227 l -1.375,-0.188 c 0.125,-0.588 0.331,-1.062 0.617,-1.422 0.287,-0.364 0.701,-0.643 1.243,-0.836 0.541,-0.197 1.169,-0.296 1.882,-0.296 0.709,0 1.284,0.083 1.727,0.25 0.443,0.166 0.768,0.377 0.977,0.632 0.208,0.25 0.354,0.568 0.437,0.954 0.047,0.239 0.07,0.671 0.07,1.296 v 1.875 c 0,1.308 0.029,2.136 0.086,2.485 0.063,0.344 0.183,0.674 0.36,0.992 h -1.469 c -0.146,-0.292 -0.24,-0.633 -0.281,-1.023 z m -0.118,-3.141 c -0.51,0.208 -1.276,0.385 -2.296,0.531 -0.579,0.084 -0.987,0.177 -1.227,0.281 -0.24,0.105 -0.424,0.258 -0.555,0.461 -0.13,0.198 -0.195,0.42 -0.195,0.664 0,0.375 0.141,0.688 0.422,0.938 0.286,0.25 0.703,0.375 1.25,0.375 0.542,0 1.023,-0.117 1.445,-0.352 0.422,-0.239 0.732,-0.565 0.93,-0.976 0.151,-0.318 0.226,-0.787 0.226,-1.406 z m 5.915,4.164 -3.157,-8.297 h 1.485 l 1.781,4.969 c 0.193,0.536 0.37,1.094 0.531,1.672 0.125,-0.438 0.3,-0.964 0.524,-1.578 l 1.843,-5.063 h 1.446 L 263.708,301 Z m 11.109,-1.023 c -0.521,0.442 -1.024,0.755 -1.508,0.937 -0.479,0.182 -0.995,0.274 -1.547,0.274 -0.911,0 -1.612,-0.222 -2.101,-0.665 -0.49,-0.447 -0.735,-1.018 -0.735,-1.711 0,-0.406 0.091,-0.776 0.274,-1.109 0.187,-0.338 0.429,-0.609 0.726,-0.812 0.302,-0.203 0.641,-0.357 1.016,-0.461 0.276,-0.073 0.693,-0.144 1.25,-0.211 1.135,-0.136 1.971,-0.297 2.508,-0.485 0.005,-0.192 0.008,-0.315 0.008,-0.367 0,-0.573 -0.133,-0.976 -0.399,-1.211 -0.359,-0.317 -0.893,-0.476 -1.601,-0.476 -0.662,0 -1.152,0.117 -1.469,0.351 -0.313,0.229 -0.545,0.638 -0.696,1.227 l -1.375,-0.188 c 0.125,-0.588 0.331,-1.062 0.618,-1.422 0.286,-0.364 0.7,-0.643 1.242,-0.836 0.541,-0.197 1.169,-0.296 1.883,-0.296 0.708,0 1.283,0.083 1.726,0.25 0.443,0.166 0.768,0.377 0.977,0.632 0.208,0.25 0.354,0.568 0.437,0.954 0.047,0.239 0.071,0.671 0.071,1.296 v 1.875 c 0,1.308 0.028,2.136 0.086,2.485 0.062,0.344 0.182,0.674 0.359,0.992 h -1.469 c -0.146,-0.292 -0.239,-0.633 -0.281,-1.023 z m -0.117,-3.141 c -0.511,0.208 -1.276,0.385 -2.297,0.531 -0.578,0.084 -0.987,0.177 -1.227,0.281 -0.239,0.105 -0.424,0.258 -0.554,0.461 -0.131,0.198 -0.196,0.42 -0.196,0.664 0,0.375 0.141,0.688 0.422,0.938 0.287,0.25 0.703,0.375 1.25,0.375 0.542,0 1.024,-0.117 1.445,-0.352 0.422,-0.239 0.732,-0.565 0.93,-0.976 0.151,-0.318 0.227,-0.787 0.227,-1.406 z"
     fill="#000000"
     id="path25" />
  <path
     d="m 385.276,282.029 -6.159,3.554 6.159,3.556 z"
     fill="#4695eb"
     id="path26" />
  <path
     d="m 372.959,282.029 v 7.11 l 6.158,-3.556 z"
     fill="#ff004a"
     id="path27" />
  <path
     d="m 379.117,292.695 6.159,-3.556 -6.159,-3.556 -6.158,3.556 z"
     fill="#091313"
     id="path28" />
  <path
     d="m 366.466,293.274 6.158,3.556 v -7.11 z"
     fill="#4695eb"
     id="path29" />
  <path
     d="m 372.624,303.94 6.158,-3.554 -6.158,-3.556 z"
     fill="#ff004a"
     id="path30" />
  <path
     d="m 378.782,293.274 -6.158,-3.554 v 7.11 l 6.158,3.556 z"
     fill="#091313"
     id="path31" />
  <path
     d="m 385.61,303.94 v -7.11 l -6.158,3.556 z"
     fill="#4695eb"
     id="path32" />
  <path
     d="m 391.769,293.274 -6.159,-3.554 v 7.11 z"
     fill="#ff004a"
     id="path33" />
  <path
     d="m 379.452,293.274 v 7.112 l 6.158,-3.556 v -7.11 z"
     fill="#091313"
     id="path34" />
  <path
     d="m 392.482,275 h -26.729 c -1.759,0.005 -3.444,0.706 -4.687,1.949 -1.243,1.243 -1.944,2.928 -1.949,4.686 v 26.73 c 0.005,1.758 0.706,3.443 1.949,4.686 1.243,1.243 2.928,1.944 4.687,1.949 h 18.305 l -4.941,-12.001 -3.583,7.577 h -9.781 c -0.585,-0.008 -1.143,-0.243 -1.556,-0.656 -0.413,-0.413 -0.648,-0.971 -0.656,-1.555 v -26.73 c 0.008,-0.584 0.243,-1.142 0.656,-1.555 0.413,-0.413 0.971,-0.648 1.556,-0.656 h 26.729 c 0.584,0.008 1.142,0.243 1.555,0.656 0.413,0.413 0.648,0.971 0.656,1.555 v 26.73 c -0.008,0.584 -0.243,1.142 -0.656,1.555 -0.413,0.413 -0.971,0.648 -1.555,0.656 h -5.801 l 1.822,4.424 h 3.975 c 1.758,-0.005 3.443,-0.706 4.686,-1.949 1.243,-1.243 1.944,-2.928 1.949,-4.686 v -26.73 c -0.005,-1.757 -0.705,-3.441 -1.947,-4.685 -1.243,-1.243 -2.927,-1.944 -4.684,-1.95 z"
     fill="#4695eb"
     id="path35" />
  <path
     d="m 421.027,299.773 c 0.703,0.485 1.352,0.839 1.946,1.063 l -0.446,1.055 c -0.823,-0.297 -1.643,-0.766 -2.461,-1.407 -0.849,0.474 -1.786,0.711 -2.812,0.711 -1.037,0 -1.977,-0.25 -2.82,-0.75 -0.844,-0.5 -1.495,-1.203 -1.954,-2.109 -0.453,-0.906 -0.679,-1.927 -0.679,-3.063 0,-1.13 0.229,-2.158 0.687,-3.085 0.459,-0.928 1.11,-1.633 1.953,-2.118 0.849,-0.484 1.797,-0.726 2.844,-0.726 1.057,0 2.011,0.252 2.86,0.758 0.848,0.5 1.494,1.203 1.937,2.109 0.448,0.901 0.672,1.919 0.672,3.055 0,0.942 -0.143,1.791 -0.43,2.546 -0.286,0.75 -0.719,1.404 -1.297,1.961 z m -3.336,-1.937 c 0.875,0.245 1.597,0.609 2.164,1.094 0.891,-0.813 1.336,-2.034 1.336,-3.664 0,-0.927 -0.158,-1.737 -0.476,-2.43 -0.313,-0.693 -0.774,-1.229 -1.383,-1.609 -0.604,-0.386 -1.284,-0.579 -2.039,-0.579 -1.13,0 -2.068,0.388 -2.813,1.164 -0.744,0.771 -1.117,1.925 -1.117,3.461 0,1.49 0.367,2.633 1.102,3.43 0.739,0.797 1.682,1.195 2.828,1.195 0.542,0 1.052,-0.101 1.531,-0.304 -0.474,-0.308 -0.974,-0.526 -1.5,-0.656 z M 430.059,301 v -1.219 c -0.646,0.938 -1.524,1.407 -2.633,1.407 -0.49,0 -0.948,-0.094 -1.375,-0.282 -0.422,-0.187 -0.737,-0.422 -0.946,-0.703 -0.203,-0.286 -0.346,-0.635 -0.429,-1.047 -0.058,-0.276 -0.086,-0.713 -0.086,-1.312 v -5.141 h 1.406 v 4.602 c 0,0.734 0.029,1.229 0.086,1.484 0.089,0.37 0.276,0.662 0.563,0.875 0.286,0.208 0.64,0.313 1.062,0.313 0.422,0 0.818,-0.107 1.188,-0.321 0.369,-0.218 0.63,-0.513 0.781,-0.883 0.156,-0.375 0.234,-0.916 0.234,-1.625 v -4.445 h 1.406 V 301 Z m 8.882,-1.023 c -0.52,0.442 -1.023,0.755 -1.507,0.937 -0.48,0.182 -0.995,0.274 -1.547,0.274 -0.912,0 -1.612,-0.222 -2.102,-0.665 -0.489,-0.447 -0.734,-1.018 -0.734,-1.711 0,-0.406 0.091,-0.776 0.273,-1.109 0.188,-0.338 0.43,-0.609 0.727,-0.812 0.302,-0.203 0.64,-0.357 1.015,-0.461 0.276,-0.073 0.693,-0.144 1.25,-0.211 1.136,-0.136 1.972,-0.297 2.508,-0.485 0.005,-0.192 0.008,-0.315 0.008,-0.367 0,-0.573 -0.133,-0.976 -0.398,-1.211 -0.36,-0.317 -0.894,-0.476 -1.602,-0.476 -0.661,0 -1.151,0.117 -1.469,0.351 -0.312,0.229 -0.544,0.638 -0.695,1.227 l -1.375,-0.188 c 0.125,-0.588 0.331,-1.062 0.617,-1.422 0.287,-0.364 0.701,-0.643 1.242,-0.836 0.542,-0.197 1.17,-0.296 1.883,-0.296 0.708,0 1.284,0.083 1.727,0.25 0.442,0.166 0.768,0.377 0.976,0.632 0.209,0.25 0.354,0.568 0.438,0.954 0.047,0.239 0.07,0.671 0.07,1.296 v 1.875 c 0,1.308 0.029,2.136 0.086,2.485 0.063,0.344 0.182,0.674 0.359,0.992 h -1.468 c -0.146,-0.292 -0.24,-0.633 -0.282,-1.023 z m -0.117,-3.141 c -0.51,0.208 -1.276,0.385 -2.297,0.531 -0.578,0.084 -0.987,0.177 -1.226,0.281 -0.24,0.105 -0.425,0.258 -0.555,0.461 -0.13,0.198 -0.195,0.42 -0.195,0.664 0,0.375 0.14,0.688 0.422,0.938 0.286,0.25 0.703,0.375 1.25,0.375 0.541,0 1.023,-0.117 1.445,-0.352 0.422,-0.239 0.732,-0.565 0.93,-0.976 0.151,-0.318 0.226,-0.787 0.226,-1.406 z m 3.594,4.164 v -8.297 h 1.266 v 1.258 c 0.323,-0.589 0.619,-0.977 0.89,-1.164 0.276,-0.188 0.578,-0.281 0.906,-0.281 0.474,0 0.956,0.151 1.446,0.453 l -0.485,1.304 c -0.343,-0.203 -0.687,-0.304 -1.031,-0.304 -0.307,0 -0.583,0.093 -0.828,0.281 -0.245,0.182 -0.419,0.438 -0.523,0.766 -0.157,0.5 -0.235,1.046 -0.235,1.64 V 301 Z m 5.352,0 v -11.453 h 1.406 v 6.531 l 3.328,-3.375 h 1.82 l -3.172,3.078 3.493,5.219 h -1.735 l -2.742,-4.242 -0.992,0.953 V 301 Z m 13.429,0 v -1.219 c -0.646,0.938 -1.523,1.407 -2.633,1.407 -0.489,0 -0.948,-0.094 -1.375,-0.282 -0.421,-0.187 -0.737,-0.422 -0.945,-0.703 -0.203,-0.286 -0.346,-0.635 -0.43,-1.047 -0.057,-0.276 -0.086,-0.713 -0.086,-1.312 v -5.141 h 1.407 v 4.602 c 0,0.734 0.028,1.229 0.086,1.484 0.088,0.37 0.276,0.662 0.562,0.875 0.287,0.208 0.641,0.313 1.063,0.313 0.422,0 0.817,-0.107 1.187,-0.321 0.37,-0.218 0.63,-0.513 0.781,-0.883 0.157,-0.375 0.235,-0.916 0.235,-1.625 v -4.445 h 1.406 V 301 Z m 2.906,-2.477 1.391,-0.218 c 0.078,0.557 0.294,0.984 0.649,1.281 0.359,0.297 0.859,0.445 1.5,0.445 0.645,0 1.125,-0.13 1.437,-0.39 0.313,-0.266 0.469,-0.576 0.469,-0.93 0,-0.318 -0.138,-0.568 -0.414,-0.75 -0.193,-0.125 -0.672,-0.284 -1.438,-0.477 -1.031,-0.26 -1.747,-0.484 -2.148,-0.672 -0.396,-0.192 -0.698,-0.455 -0.906,-0.789 -0.204,-0.338 -0.305,-0.711 -0.305,-1.117 0,-0.37 0.083,-0.711 0.25,-1.023 0.172,-0.318 0.403,-0.581 0.695,-0.789 0.219,-0.162 0.516,-0.297 0.891,-0.406 0.38,-0.115 0.786,-0.172 1.219,-0.172 0.651,0 1.221,0.093 1.71,0.281 0.495,0.187 0.86,0.443 1.094,0.765 0.235,0.318 0.396,0.745 0.485,1.282 l -1.375,0.187 c -0.063,-0.427 -0.245,-0.76 -0.547,-1 -0.297,-0.239 -0.719,-0.359 -1.266,-0.359 -0.646,0 -1.107,0.107 -1.383,0.32 -0.276,0.214 -0.414,0.464 -0.414,0.75 0,0.182 0.058,0.347 0.172,0.492 0.115,0.151 0.294,0.276 0.539,0.375 0.141,0.052 0.555,0.172 1.242,0.36 0.995,0.265 1.688,0.484 2.078,0.656 0.396,0.167 0.706,0.411 0.93,0.734 0.224,0.323 0.336,0.724 0.336,1.203 0,0.469 -0.138,0.912 -0.414,1.329 -0.271,0.411 -0.664,0.731 -1.18,0.961 -0.515,0.224 -1.099,0.336 -1.75,0.336 -1.078,0 -1.901,-0.224 -2.468,-0.672 -0.563,-0.448 -0.922,-1.112 -1.079,-1.993 z"
     fill="#000000"
     id="path36" />
  <path
     d="m 575.919,300.501 c -3.081,4.105 -9.663,2.719 -13.882,2.918 0,0 -0.747,0.042 -1.499,0.166 0,0 0.284,-0.122 0.647,-0.247 2.963,-1.025 4.364,-1.23 6.165,-2.155 3.383,-1.734 6.75,-5.509 7.435,-9.43 -1.287,3.771 -5.204,7.018 -8.77,8.336 -2.441,0.901 -6.856,1.777 -6.856,1.778 0.002,0.003 -0.176,-0.093 -0.179,-0.095 -3.002,-1.46 -3.089,-7.963 2.364,-10.059 2.39,-0.919 4.677,-0.414 7.261,-1.029 2.757,-0.655 5.949,-2.722 7.246,-5.423 1.455,4.315 3.202,11.065 0.068,15.24 z m 0.053,-16.577 c -0.367,0.872 -0.814,1.657 -1.33,2.359 -2.272,-2.331 -5.442,-3.783 -8.946,-3.783 -6.893,0 -12.5,5.608 -12.5,12.499 0,3.613 1.542,6.871 4.001,9.155 l 0.274,0.243 c -0.457,-0.373 -0.528,-1.044 -0.157,-1.502 0.373,-0.458 1.044,-0.528 1.502,-0.158 0.458,0.372 0.528,1.045 0.157,1.503 -0.37,0.459 -1.043,0.528 -1.501,0.158 l 0.186,0.165 c 2.175,1.831 4.978,2.937 8.038,2.937 6.589,0 11.999,-5.127 12.462,-11.599 0.343,-3.168 -0.593,-7.192 -2.186,-11.977 z"
     fill="#5fb832"
     id="path37" />
  <path
     d="m 590.947,297.32 1.43,-0.125 c 0.068,0.573 0.224,1.045 0.469,1.414 0.25,0.365 0.635,0.662 1.156,0.891 0.521,0.224 1.107,0.336 1.758,0.336 0.578,0 1.088,-0.086 1.531,-0.258 0.443,-0.172 0.771,-0.406 0.984,-0.703 0.219,-0.302 0.329,-0.63 0.329,-0.984 0,-0.36 -0.105,-0.672 -0.313,-0.938 -0.208,-0.271 -0.552,-0.497 -1.031,-0.68 -0.308,-0.119 -0.987,-0.304 -2.039,-0.554 -1.052,-0.255 -1.789,-0.495 -2.211,-0.719 -0.547,-0.286 -0.956,-0.641 -1.227,-1.062 -0.265,-0.428 -0.398,-0.904 -0.398,-1.43 0,-0.578 0.164,-1.117 0.492,-1.617 0.328,-0.506 0.807,-0.888 1.437,-1.149 0.631,-0.26 1.331,-0.39 2.102,-0.39 0.849,0 1.596,0.138 2.242,0.414 0.651,0.27 1.151,0.672 1.5,1.203 0.349,0.531 0.537,1.133 0.563,1.804 l -1.453,0.11 c -0.079,-0.724 -0.344,-1.271 -0.797,-1.641 -0.448,-0.37 -1.112,-0.554 -1.992,-0.554 -0.917,0 -1.586,0.169 -2.008,0.507 -0.417,0.334 -0.625,0.737 -0.625,1.211 0,0.412 0.148,0.75 0.445,1.016 0.292,0.266 1.052,0.539 2.281,0.82 1.235,0.276 2.081,0.518 2.539,0.727 0.667,0.307 1.159,0.698 1.477,1.172 0.318,0.468 0.476,1.01 0.476,1.625 0,0.609 -0.174,1.185 -0.523,1.726 -0.349,0.537 -0.852,0.956 -1.508,1.258 -0.651,0.297 -1.385,0.445 -2.203,0.445 -1.036,0 -1.906,-0.151 -2.609,-0.453 -0.698,-0.302 -1.248,-0.755 -1.649,-1.359 -0.396,-0.61 -0.604,-1.297 -0.625,-2.063 z m 11.008,6.86 v -11.477 h 1.281 v 1.078 c 0.302,-0.422 0.644,-0.737 1.024,-0.945 0.38,-0.214 0.841,-0.32 1.383,-0.32 0.708,0 1.333,0.182 1.875,0.546 0.541,0.365 0.95,0.881 1.226,1.547 0.276,0.662 0.414,1.388 0.414,2.18 0,0.849 -0.153,1.615 -0.461,2.297 -0.302,0.677 -0.745,1.198 -1.328,1.562 -0.578,0.36 -1.187,0.54 -1.828,0.54 -0.469,0 -0.891,-0.099 -1.266,-0.297 -0.369,-0.198 -0.674,-0.448 -0.914,-0.75 v 4.039 z m 1.274,-7.282 c 0,1.068 0.216,1.857 0.648,2.368 0.432,0.51 0.956,0.765 1.57,0.765 0.625,0 1.159,-0.263 1.602,-0.789 0.448,-0.531 0.672,-1.351 0.672,-2.461 0,-1.057 -0.219,-1.849 -0.657,-2.375 -0.432,-0.526 -0.95,-0.789 -1.554,-0.789 -0.599,0 -1.13,0.281 -1.594,0.844 -0.458,0.557 -0.687,1.37 -0.687,2.437 z m 7.617,4.102 v -8.297 h 1.265 v 1.258 c 0.323,-0.589 0.62,-0.977 0.891,-1.164 0.276,-0.188 0.578,-0.281 0.906,-0.281 0.474,0 0.956,0.151 1.446,0.453 l -0.485,1.304 c -0.344,-0.203 -0.687,-0.304 -1.031,-0.304 -0.307,0 -0.583,0.093 -0.828,0.281 -0.245,0.182 -0.42,0.438 -0.524,0.766 -0.156,0.5 -0.234,1.046 -0.234,1.64 V 301 Z m 5.351,-9.836 v -1.617 h 1.407 v 1.617 z m 0,9.836 v -8.297 h 1.407 V 301 Z m 3.555,0 v -8.297 h 1.266 v 1.18 c 0.609,-0.912 1.489,-1.367 2.64,-1.367 0.5,0 0.959,0.091 1.375,0.273 0.422,0.177 0.737,0.412 0.946,0.703 0.208,0.292 0.354,0.638 0.437,1.039 0.052,0.261 0.078,0.716 0.078,1.367 V 301 h -1.406 v -5.047 c 0,-0.573 -0.055,-1 -0.164,-1.281 -0.11,-0.287 -0.305,-0.513 -0.586,-0.68 -0.276,-0.172 -0.602,-0.258 -0.977,-0.258 -0.599,0 -1.117,0.19 -1.554,0.571 -0.433,0.38 -0.649,1.101 -0.649,2.164 V 301 Z m 8.648,0.688 1.368,0.203 c 0.057,0.421 0.216,0.729 0.476,0.921 0.349,0.261 0.826,0.391 1.43,0.391 0.651,0 1.153,-0.13 1.508,-0.391 0.354,-0.26 0.593,-0.624 0.718,-1.093 0.073,-0.287 0.107,-0.888 0.102,-1.805 -0.615,0.724 -1.38,1.086 -2.297,1.086 -1.141,0 -2.023,-0.411 -2.648,-1.234 -0.625,-0.823 -0.938,-1.81 -0.938,-2.961 0,-0.792 0.143,-1.521 0.43,-2.188 0.286,-0.672 0.7,-1.19 1.242,-1.555 0.547,-0.364 1.188,-0.546 1.922,-0.546 0.979,0 1.786,0.395 2.422,1.187 v -1 h 1.297 v 7.172 c 0,1.292 -0.133,2.206 -0.399,2.742 -0.26,0.542 -0.677,0.969 -1.25,1.281 -0.568,0.313 -1.268,0.469 -2.101,0.469 -0.99,0 -1.789,-0.224 -2.399,-0.672 -0.609,-0.442 -0.903,-1.112 -0.883,-2.007 z m 1.164,-4.985 c 0,1.089 0.217,1.883 0.649,2.383 0.432,0.5 0.974,0.75 1.625,0.75 0.646,0 1.187,-0.247 1.625,-0.742 0.437,-0.5 0.656,-1.282 0.656,-2.344 0,-1.016 -0.226,-1.781 -0.68,-2.297 -0.447,-0.515 -0.989,-0.773 -1.625,-0.773 -0.625,0 -1.156,0.255 -1.593,0.765 -0.438,0.506 -0.657,1.258 -0.657,2.258 z"
     fill="#000000"
     id="path38" />
  <rect
     x="30.5"
     y="340.5"
     width="739"
     height="49"
     rx="4.5"
     stroke="#000000"
     id="rect38" />
  <path
     d="m 241.293,353.056 c -0.165,0.39 -0.295,1.237 -0.354,2.371 l 1.274,0.617 c -0.021,-0.812 0.01,-1.575 0.091,-2.269 0.005,-0.052 0.01,-0.082 0.01,-0.082 -0.001,0.028 -0.008,0.054 -0.01,0.082 -0.025,0.228 -0.08,0.945 -0.005,2.238 0.527,-0.43 1.286,-1.159 1.887,-1.782 -0.635,-1.296 -1.424,-1.522 -1.424,-1.522 0,0 -1.129,-0.456 -1.469,0.347 z"
     fill="url(#paint1_linear_55_2)"
     id="path39"
     style="fill:url(#paint1_linear_55_2)" />
  <path
     d="m 245.711,362.843 c -0.059,0.065 -0.121,0.127 -0.183,0.189 0.032,-0.029 0.065,-0.065 0.095,-0.097 0.032,-0.029 0.062,-0.062 0.088,-0.092 z"
     fill="#be202e"
     id="path40" />
  <path
     opacity="0.35"
     d="m 245.711,362.843 c -0.059,0.065 -0.121,0.127 -0.183,0.189 0.032,-0.029 0.065,-0.065 0.095,-0.097 0.032,-0.029 0.062,-0.062 0.088,-0.092 z"
     fill="#be202e"
     id="path41" />
  <path
     d="m 245.245,361.827 c -0.004,0.002 -0.004,0.002 0,0 0.01,-0.008 0.018,-0.019 0.029,-0.027 0.04,-0.04 0.08,-0.08 0.114,-0.121 -0.044,0.048 -0.095,0.096 -0.143,0.148 z"
     fill="#be202e"
     id="path42" />
  <path
     opacity="0.35"
     d="m 245.245,361.827 c -0.004,0.002 -0.004,0.002 0,0 0.01,-0.008 0.018,-0.019 0.029,-0.027 0.04,-0.04 0.08,-0.08 0.114,-0.121 -0.044,0.048 -0.095,0.096 -0.143,0.148 z"
     fill="#be202e"
     id="path43" />
  <path
     d="m 242.547,359.805 c -0.059,-0.424 -0.113,-0.841 -0.161,-1.251 -0.05,-0.425 -0.088,-0.843 -0.117,-1.257 -0.002,-0.025 -0.005,-0.05 -0.005,-0.072 -0.027,-0.403 -0.048,-0.797 -0.057,-1.182 l -1.271,-0.613 c -0.003,0.077 -0.009,0.156 -0.012,0.239 -0.013,0.305 -0.023,0.629 -0.025,0.969 -0.003,0.384 0,0.784 0.007,1.203 0.009,0.385 0.025,0.787 0.046,1.196 0.02,0.35 0.044,0.704 0.072,1.064 0.001,0.016 0.002,0.026 0.003,0.041 l 1.701,0.862 c -0.059,-0.402 -0.121,-0.802 -0.181,-1.199 z"
     fill="url(#paint2_linear_55_2)"
     id="path44"
     style="fill:url(#paint2_linear_55_2)" />
  <path
     d="m 245.06,369.867 c 0.094,0.318 0.189,0.646 0.293,0.977 0.003,0.004 0.002,0.01 0.005,0.013 0.014,0.049 0.026,0.094 0.043,0.14 0.068,0.224 0.134,0.423 0.274,0.879 0.275,-0.057 0.619,0.067 0.977,0.233 -0.23,-0.277 -0.548,-0.462 -0.929,-0.505 1.042,-0.695 1.728,-1.59 1.631,-2.658 -0.01,-0.094 -0.023,-0.192 -0.042,-0.291 -0.016,0.409 -0.185,0.705 -0.684,1.028 0.471,-0.829 0.601,-1.391 0.545,-2.118 -0.014,-0.173 -0.035,-0.356 -0.067,-0.553 -0.151,1.083 -0.732,1.784 -1.582,2.198 l -0.516,0.476 c 0.018,0.061 0.034,0.119 0.052,0.181 z"
     fill="url(#paint3_linear_55_2)"
     id="path45"
     style="fill:url(#paint3_linear_55_2)" />
  <path
     d="m 244.398,368.415 c -0.108,-0.404 -0.216,-0.814 -0.326,-1.227 -0.103,-0.397 -0.203,-0.796 -0.302,-1.202 -0.099,-0.405 -0.194,-0.813 -0.289,-1.221 -0.097,-0.418 -0.188,-0.834 -0.276,-1.253 -0.088,-0.413 -0.169,-0.832 -0.252,-1.244 -0.029,-0.15 -0.057,-0.297 -0.083,-0.449 -0.047,-0.255 -0.091,-0.513 -0.135,-0.771 -0.005,-0.013 -0.005,-0.028 -0.01,-0.041 l -1.691,-0.864 c 0.002,0.025 0.007,0.054 0.006,0.082 0.034,0.383 0.067,0.772 0.112,1.163 0.045,0.397 0.095,0.795 0.154,1.197 0.05,0.339 0.104,0.676 0.16,1.016 0.012,0.067 0.026,0.137 0.037,0.204 0.078,0.421 0.161,0.827 0.252,1.206 0.101,0.431 0.209,0.835 0.319,1.211 0.074,0.246 0.146,0.484 0.22,0.709 0.063,0.189 0.133,0.379 0.201,0.566 0.161,0.44 0.341,0.867 0.534,1.284 l 1.71,0.866 c -0.092,-0.314 -0.176,-0.634 -0.268,-0.958 -0.024,-0.09 -0.047,-0.18 -0.073,-0.274 z"
     fill="url(#paint4_linear_55_2)"
     id="path46"
     style="fill:url(#paint4_linear_55_2)" />
  <path
     d="m 243.054,368.838 c 0.235,0.503 0.495,0.989 0.787,1.452 0.01,0.014 0.019,0.034 0.029,0.048 -0.472,-0.19 -1.31,-0.102 -1.304,-0.101 0.865,0.3 1.623,0.667 2.102,1.224 -0.19,0.209 -0.546,0.368 -0.994,0.498 0.619,0.067 0.964,-0.041 1.09,-0.096 -0.323,0.269 -0.504,0.762 -0.663,1.292 0.364,-0.595 0.725,-0.989 1.076,-1.139 0.513,1.702 1.132,3.547 1.816,5.482 0.116,-0.149 0.129,-0.315 0.081,-0.483 -0.126,-0.348 -0.941,-2.65 -1.871,-5.776 -0.026,-0.087 -0.05,-0.178 -0.079,-0.269 -0.008,-0.026 -0.014,-0.048 -0.023,-0.075 -0.095,-0.327 -0.192,-0.664 -0.291,-1.011 -0.021,-0.08 -0.044,-0.155 -0.066,-0.236 l -0.002,-0.003 -1.71,-0.867 c 0.006,0.023 0.012,0.04 0.022,0.06 z"
     fill="url(#paint5_linear_55_2)"
     id="path47"
     style="fill:url(#paint5_linear_55_2)" />
  <path
     d="m 242.927,361.041 c 0.01,0.057 0.021,0.108 0.031,0.166 0.032,0.169 0.062,0.34 0.097,0.513 0.036,0.188 0.075,0.38 0.113,0.578 0.019,0.099 0.038,0.198 0.059,0.3 0.062,0.304 0.129,0.615 0.197,0.935 0.086,0.394 0.178,0.799 0.278,1.22 0.094,0.398 0.194,0.813 0.3,1.235 0.102,0.403 0.206,0.815 0.32,1.242 0.1,0.377 0.208,0.766 0.317,1.163 0.004,0.019 0.013,0.039 0.016,0.058 0.11,0.392 0.225,0.797 0.344,1.209 0.002,0.009 0.004,0.019 0.009,0.026 l 0.516,-0.476 c -0.013,0.005 -0.024,0.012 -0.04,0.019 0.612,-0.578 1.136,-1.737 1.256,-2.781 0.056,-0.481 0.05,-0.992 -0.016,-1.551 -0.047,-0.416 -0.132,-0.853 -0.248,-1.326 -0.102,-0.409 -0.227,-0.844 -0.38,-1.301 -0.095,0.193 -0.229,0.383 -0.394,0.569 -0.03,0.032 -0.059,0.065 -0.089,0.097 -0.03,0.033 -0.062,0.062 -0.096,0.097 0.452,-0.702 0.506,-1.455 0.372,-2.238 -0.082,0.232 -0.243,0.576 -0.511,0.885 -0.034,0.041 -0.074,0.082 -0.114,0.122 -0.011,0.008 -0.019,0.019 -0.033,0.029 0.15,-0.25 0.261,-0.487 0.332,-0.727 0.017,-0.05 0.027,-0.101 0.038,-0.152 0.019,-0.077 0.031,-0.156 0.043,-0.235 0.005,-0.052 0.012,-0.1 0.017,-0.152 0.009,-0.119 0.009,-0.243 -0.002,-0.369 -0.003,-0.041 -0.004,-0.078 -0.01,-0.116 -0.01,-0.057 -0.018,-0.111 -0.028,-0.162 -0.041,-0.239 -0.087,-0.447 -0.133,-0.628 -0.023,-0.09 -0.045,-0.171 -0.068,-0.245 -0.011,-0.03 -0.016,-0.059 -0.027,-0.088 -0.027,-0.082 -0.05,-0.157 -0.074,-0.219 -0.036,-0.092 -0.068,-0.165 -0.094,-0.216 -0.008,0.033 -0.02,0.068 -0.038,0.103 -0.106,0.25 -0.354,0.593 -0.58,0.834 -0.003,0.002 -0.007,0.005 -0.008,0.011 -0.022,0.021 -0.047,0.045 -0.07,0.073 0.001,-0.006 0.008,-0.011 0.009,-0.017 l -1.625,1.488 c 0.014,0.011 0.015,0.021 0.014,0.027 z"
     fill="url(#paint6_linear_55_2)"
     id="path48"
     style="fill:url(#paint6_linear_55_2)" />
  <path
     d="m 242.299,356.013 c 0.02,0.357 0.051,0.758 0.091,1.201 0.003,0.025 0.002,0.047 0.008,0.069 0.037,0.387 0.085,0.803 0.145,1.258 0.051,0.392 0.108,0.807 0.179,1.254 0.058,0.387 0.13,0.791 0.203,1.221 l 1.625,-1.489 c 0.339,-0.613 0.413,-0.995 0.409,-1.47 -0.002,-0.127 -0.01,-0.262 -0.02,-0.399 -0.026,-0.416 -0.075,-0.858 -0.146,-1.284 -0.067,-0.413 -0.149,-0.809 -0.242,-1.149 -0.059,-0.219 -0.122,-0.415 -0.186,-0.583 -0.059,-0.145 -0.119,-0.278 -0.18,-0.405 -0.599,0.617 -1.359,1.346 -1.886,1.776 z"
     fill="url(#paint7_linear_55_2)"
     id="path49"
     style="fill:url(#paint7_linear_55_2)" />
  <path
     d="m 245.626,362.938 c -0.03,0.033 -0.062,0.062 -0.096,0.097 0.03,-0.032 0.06,-0.065 0.096,-0.097 z"
     fill="#be202e"
     id="path50" />
  <path
     opacity="0.35"
     d="m 245.626,362.938 c -0.03,0.033 -0.062,0.062 -0.096,0.097 0.03,-0.032 0.06,-0.065 0.096,-0.097 z"
     fill="#be202e"
     id="path51" />
  <path
     d="m 245.626,362.938 c -0.03,0.033 -0.062,0.062 -0.096,0.097 0.03,-0.032 0.06,-0.065 0.096,-0.097 z"
     fill="url(#paint8_linear_55_2)"
     id="path52"
     style="fill:url(#paint8_linear_55_2)" />
  <path
     d="m 245.241,361.829 c 0.01,-0.007 0.018,-0.018 0.032,-0.029 -0.01,0.008 -0.018,0.019 -0.032,0.029 z"
     fill="#be202e"
     id="path53" />
  <path
     opacity="0.35"
     d="m 245.241,361.829 c 0.01,-0.007 0.018,-0.018 0.032,-0.029 -0.01,0.008 -0.018,0.019 -0.032,0.029 z"
     fill="#be202e"
     id="path54" />
  <path
     d="m 245.241,361.829 c 0.01,-0.007 0.018,-0.018 0.032,-0.029 -0.01,0.008 -0.018,0.019 -0.032,0.029 z"
     fill="url(#paint9_linear_55_2)"
     id="path55"
     style="fill:url(#paint9_linear_55_2)" />
  <path
     d="m 257.946,353.375 c -0.443,0.183 -1.221,0.762 -2.169,1.627 l 0.535,1.509 c 0.628,-0.67 1.259,-1.26 1.876,-1.754 0.045,-0.038 0.073,-0.058 0.073,-0.058 -0.023,0.021 -0.05,0.037 -0.073,0.058 -0.202,0.164 -0.815,0.697 -1.783,1.798 0.766,0.073 1.957,0.089 2.935,0.064 0.52,-1.547 0.064,-2.356 0.064,-2.356 0,0 -0.547,-1.264 -1.458,-0.888 z"
     fill="url(#paint10_linear_55_2)"
     id="path56"
     style="fill:url(#paint10_linear_55_2)" />
  <path
     d="m 253.726,364.764 c -0.099,0.005 -0.199,0.005 -0.298,0.006 0.05,0.002 0.104,0 0.154,-0.003 0.049,0.003 0.099,0 0.144,-0.003 z"
     fill="#be202e"
     id="path57" />
  <path
     opacity="0.35"
     d="m 253.726,364.764 c -0.099,0.005 -0.199,0.005 -0.298,0.006 0.05,0.002 0.104,0 0.154,-0.003 0.049,0.003 0.099,0 0.144,-0.003 z"
     fill="#be202e"
     id="path58" />
  <path
     d="m 254.158,363.575 c -0.005,-10e-4 -0.005,-10e-4 0,0 0.015,0.002 0.03,-10e-4 0.044,0.001 0.065,0 0.129,0 0.19,-0.006 -0.075,0.003 -0.154,0.002 -0.234,0.005 z"
     fill="#be202e"
     id="path59" />
  <path
     opacity="0.35"
     d="m 254.158,363.575 c -0.005,-10e-4 -0.005,-10e-4 0,0 0.015,0.002 0.03,-10e-4 0.044,0.001 0.065,0 0.129,0 0.19,-0.006 -0.075,0.003 -0.154,0.002 -0.234,0.005 z"
     fill="#be202e"
     id="path60" />
  <path
     d="m 253.593,359.805 c 0.289,-0.389 0.577,-0.767 0.864,-1.136 0.299,-0.382 0.6,-0.748 0.905,-1.104 0.018,-0.022 0.036,-0.045 0.053,-0.062 0.299,-0.347 0.595,-0.68 0.894,-0.997 l -0.537,-1.504 c -0.063,0.06 -0.131,0.119 -0.2,0.183 -0.252,0.235 -0.517,0.488 -0.789,0.76 -0.308,0.307 -0.623,0.632 -0.95,0.975 -0.299,0.317 -0.606,0.653 -0.914,0.999 -0.262,0.298 -0.524,0.601 -0.787,0.914 -0.012,0.013 -0.019,0.022 -0.03,0.035 l 0.684,2.046 c 0.273,-0.371 0.54,-0.743 0.807,-1.109 z"
     fill="url(#paint11_linear_55_2)"
     id="path61"
     style="fill:url(#paint11_linear_55_2)" />
  <path
     d="m 247.621,369.901 c -0.177,0.331 -0.36,0.67 -0.54,1.02 -10e-4,0.005 -0.006,0.009 -0.007,0.014 -0.027,0.05 -0.054,0.096 -0.076,0.147 -0.124,0.234 -0.229,0.447 -0.477,0.925 0.266,0.173 0.444,0.545 0.601,0.964 0.034,-0.406 -0.075,-0.808 -0.347,-1.145 1.391,0.269 2.654,0.093 3.425,-0.843 0.067,-0.085 0.134,-0.174 0.198,-0.268 -0.339,0.316 -0.71,0.42 -1.369,0.284 1.038,-0.293 1.589,-0.643 2.122,-1.272 0.126,-0.15 0.254,-0.315 0.385,-0.498 -0.981,0.751 -2.006,0.854 -3.02,0.512 l -0.793,-0.027 c -0.034,0.064 -0.067,0.123 -0.102,0.187 z"
     fill="url(#paint12_linear_55_2)"
     id="path62"
     style="fill:url(#paint12_linear_55_2)" />
  <path
     d="m 248.241,368.206 c 0.234,-0.411 0.473,-0.827 0.713,-1.247 0.232,-0.401 0.469,-0.802 0.712,-1.207 0.242,-0.405 0.49,-0.809 0.737,-1.213 0.254,-0.414 0.511,-0.821 0.774,-1.228 0.257,-0.403 0.524,-0.804 0.785,-1.202 0.096,-0.144 0.19,-0.284 0.291,-0.427 0.164,-0.243 0.333,-0.486 0.502,-0.728 0.007,-0.014 0.019,-0.027 0.026,-0.041 l -0.676,-2.039 c -0.018,0.022 -0.037,0.049 -0.06,0.07 -0.276,0.336 -0.559,0.675 -0.833,1.026 -0.28,0.355 -0.555,0.715 -0.828,1.086 -0.229,0.313 -0.453,0.627 -0.678,0.945 -0.044,0.063 -0.088,0.131 -0.132,0.194 -0.272,0.4 -0.527,0.793 -0.756,1.171 -0.261,0.427 -0.494,0.838 -0.705,1.228 -0.137,0.257 -0.267,0.505 -0.386,0.745 -0.099,0.203 -0.194,0.412 -0.289,0.616 -0.219,0.482 -0.414,0.968 -0.59,1.457 l 0.689,2.056 c 0.176,-0.325 0.362,-0.649 0.545,-0.984 0.053,-0.091 0.106,-0.182 0.159,-0.278 z"
     fill="url(#paint13_linear_55_2)"
     id="path63"
     style="fill:url(#paint13_linear_55_2)" />
  <path
     d="m 246.824,367.478 c -0.211,0.593 -0.388,1.19 -0.521,1.794 -0.003,0.02 -0.011,0.043 -0.014,0.063 -0.229,-0.529 -0.974,-1.123 -0.97,-1.118 0.458,0.929 0.777,1.827 0.72,2.655 -0.32,0.017 -0.733,-0.137 -1.196,-0.388 0.445,0.545 0.809,0.732 0.954,0.788 -0.474,-0.04 -1.011,0.213 -1.56,0.514 0.765,-0.19 1.368,-0.22 1.771,-0.062 -0.939,1.777 -1.907,3.754 -2.894,5.856 0.212,-0.028 0.354,-0.151 0.449,-0.325 0.174,-0.38 1.348,-2.881 3.083,-6.136 0.048,-0.091 0.101,-0.183 0.15,-0.279 0.014,-0.028 0.027,-0.051 0.041,-0.079 0.183,-0.339 0.373,-0.687 0.569,-1.045 0.047,-0.082 0.088,-0.16 0.135,-0.242 v -0.005 l -0.688,-2.056 c -0.013,0.023 -0.021,0.041 -0.029,0.065 z"
     fill="url(#paint14_linear_55_2)"
     id="path64"
     style="fill:url(#paint14_linear_55_2)" />
  <path
     d="m 252.918,361.101 c -0.038,0.054 -0.07,0.104 -0.108,0.158 -0.108,0.162 -0.22,0.324 -0.329,0.491 -0.121,0.18 -0.242,0.365 -0.369,0.555 -0.063,0.094 -0.126,0.189 -0.19,0.288 -0.192,0.294 -0.385,0.597 -0.584,0.91 -0.245,0.384 -0.491,0.784 -0.746,1.202 -0.241,0.395 -0.49,0.809 -0.74,1.232 -0.238,0.406 -0.482,0.821 -0.729,1.255 -0.219,0.383 -0.441,0.781 -0.669,1.188 -0.012,0.018 -0.021,0.042 -0.033,0.06 -0.223,0.403 -0.452,0.819 -0.683,1.246 -0.006,0.009 -0.013,0.018 -0.014,0.028 l 0.793,0.027 c -0.014,-0.007 -0.029,-0.009 -0.047,-0.017 0.952,0.021 2.295,-0.495 3.221,-1.24 0.426,-0.343 0.829,-0.759 1.219,-1.261 0.293,-0.373 0.572,-0.793 0.854,-1.266 0.243,-0.41 0.487,-0.859 0.728,-1.348 -0.23,0.08 -0.489,0.126 -0.769,0.144 -0.05,0.003 -0.1,0.005 -0.15,0.008 -0.05,0.003 -0.099,0 -0.153,0.002 0.921,-0.206 1.563,-0.77 2.077,-1.506 -0.251,0.121 -0.654,0.27 -1.114,0.306 -0.061,0.006 -0.125,0.007 -0.189,0.007 -0.015,-0.002 -0.03,0.001 -0.05,-0.002 0.319,-0.082 0.597,-0.185 0.844,-0.322 0.054,-0.027 0.103,-0.059 0.152,-0.091 0.077,-0.048 0.149,-0.102 0.221,-0.156 0.045,-0.038 0.09,-0.071 0.135,-0.109 0.102,-0.089 0.201,-0.188 0.291,-0.299 0.03,-0.035 0.059,-0.065 0.085,-0.101 0.037,-0.054 0.074,-0.103 0.106,-0.153 0.157,-0.224 0.286,-0.428 0.392,-0.61 0.053,-0.092 0.099,-0.174 0.14,-0.252 0.015,-0.033 0.034,-0.059 0.049,-0.092 0.042,-0.088 0.083,-0.166 0.113,-0.236 0.045,-0.102 0.077,-0.186 0.096,-0.248 -0.032,0.02 -0.07,0.039 -0.111,0.053 -0.285,0.117 -0.757,0.196 -1.13,0.21 -0.005,0 -0.01,-10e-4 -0.015,0.003 -0.035,0 -0.074,-0.001 -0.115,0.003 0.006,-0.004 0.016,-0.003 0.021,-0.007 l -2.491,-0.093 c 0.002,0.02 -0.004,0.029 -0.009,0.033 z"
     fill="url(#paint15_linear_55_2)"
     id="path65"
     style="fill:url(#paint15_linear_55_2)" />
  <path
     d="m 256.405,356.555 c -0.267,0.302 -0.56,0.65 -0.88,1.039 -0.018,0.022 -0.035,0.039 -0.048,0.062 -0.278,0.34 -0.57,0.713 -0.884,1.127 -0.27,0.357 -0.553,0.736 -0.852,1.152 -0.26,0.358 -0.524,0.74 -0.806,1.144 l 2.491,0.093 c 0.76,-0.225 1.124,-0.473 1.497,-0.859 0.099,-0.104 0.2,-0.218 0.302,-0.337 0.309,-0.355 0.62,-0.75 0.901,-1.149 0.274,-0.386 0.524,-0.77 0.718,-1.118 0.127,-0.224 0.232,-0.431 0.314,-0.617 0.068,-0.163 0.125,-0.318 0.177,-0.469 -0.973,0.021 -2.163,0.005 -2.93,-0.068 z"
     fill="url(#paint16_linear_55_2)"
     id="path66"
     style="fill:url(#paint16_linear_55_2)" />
  <path
     d="m 253.581,364.772 c -0.05,0.003 -0.099,0.001 -0.154,0.002 0.05,-0.002 0.1,-0.005 0.154,-0.002 z"
     fill="#be202e"
     id="path67" />
  <path
     opacity="0.35"
     d="m 253.581,364.772 c -0.05,0.003 -0.099,0.001 -0.154,0.002 0.05,-0.002 0.1,-0.005 0.154,-0.002 z"
     fill="#be202e"
     id="path68" />
  <path
     d="m 253.581,364.772 c -0.05,0.003 -0.099,0.001 -0.154,0.002 0.05,-0.002 0.1,-0.005 0.154,-0.002 z"
     fill="url(#paint17_linear_55_2)"
     id="path69"
     style="fill:url(#paint17_linear_55_2)" />
  <path
     d="m 254.153,363.574 c 0.014,0.002 0.029,0 0.049,0.002 -0.015,-0.002 -0.03,10e-4 -0.049,-0.002 z"
     fill="#be202e"
     id="path70" />
  <path
     opacity="0.35"
     d="m 254.153,363.574 c 0.014,0.002 0.029,0 0.049,0.002 -0.015,-0.002 -0.03,10e-4 -0.049,-0.002 z"
     fill="#be202e"
     id="path71" />
  <path
     d="m 254.153,363.574 c 0.014,0.002 0.029,0 0.049,0.002 -0.015,-0.002 -0.03,10e-4 -0.049,-0.002 z"
     fill="url(#paint18_linear_55_2)"
     id="path72"
     style="fill:url(#paint18_linear_55_2)" />
  <path
     d="m 273.063,371 v -11.453 h 2.282 l 2.711,8.109 c 0.25,0.755 0.432,1.321 0.547,1.696 0.13,-0.417 0.333,-1.029 0.609,-1.836 l 2.742,-7.969 h 2.039 V 371 h -1.461 v -9.586 L 279.204,371 h -1.367 l -3.313,-9.75 V 371 Z m 18.61,-1.023 c -0.521,0.442 -1.024,0.755 -1.508,0.937 -0.479,0.182 -0.995,0.274 -1.547,0.274 -0.911,0 -1.612,-0.222 -2.101,-0.665 -0.49,-0.447 -0.735,-1.018 -0.735,-1.711 0,-0.406 0.091,-0.776 0.274,-1.109 0.187,-0.338 0.429,-0.609 0.726,-0.812 0.302,-0.203 0.641,-0.357 1.016,-0.461 0.276,-0.073 0.693,-0.144 1.25,-0.211 1.135,-0.136 1.971,-0.297 2.508,-0.485 0.005,-0.192 0.007,-0.315 0.007,-0.367 0,-0.573 -0.132,-0.976 -0.398,-1.211 -0.359,-0.317 -0.893,-0.476 -1.602,-0.476 -0.661,0 -1.151,0.117 -1.468,0.351 -0.313,0.229 -0.545,0.638 -0.696,1.227 l -1.375,-0.188 c 0.125,-0.588 0.331,-1.062 0.618,-1.422 0.286,-0.364 0.7,-0.643 1.242,-0.836 0.541,-0.197 1.169,-0.296 1.883,-0.296 0.708,0 1.283,0.083 1.726,0.25 0.443,0.166 0.768,0.377 0.977,0.632 0.208,0.25 0.354,0.568 0.437,0.954 0.047,0.239 0.071,0.671 0.071,1.296 v 1.875 c 0,1.308 0.028,2.136 0.085,2.485 0.063,0.344 0.183,0.674 0.36,0.992 h -1.469 c -0.146,-0.292 -0.239,-0.633 -0.281,-1.023 z m -0.117,-3.141 c -0.511,0.208 -1.276,0.385 -2.297,0.531 -0.578,0.084 -0.987,0.177 -1.227,0.281 -0.239,0.105 -0.424,0.258 -0.554,0.461 -0.131,0.198 -0.196,0.42 -0.196,0.664 0,0.375 0.141,0.688 0.422,0.938 0.287,0.25 0.703,0.375 1.25,0.375 0.542,0 1.024,-0.117 1.445,-0.352 0.422,-0.239 0.732,-0.565 0.93,-0.976 0.151,-0.318 0.227,-0.787 0.227,-1.406 z m 5.914,4.164 -3.157,-8.297 h 1.485 l 1.781,4.969 c 0.193,0.536 0.37,1.094 0.531,1.672 0.125,-0.438 0.3,-0.964 0.524,-1.578 l 1.844,-5.063 h 1.445 L 298.782,371 Z m 11.375,-2.672 1.453,0.18 c -0.229,0.849 -0.654,1.508 -1.274,1.976 -0.619,0.469 -1.411,0.704 -2.375,0.704 -1.213,0 -2.177,-0.373 -2.89,-1.118 -0.709,-0.75 -1.063,-1.799 -1.063,-3.148 0,-1.396 0.36,-2.479 1.078,-3.25 0.719,-0.771 1.651,-1.156 2.797,-1.156 1.11,0 2.016,0.377 2.719,1.132 0.703,0.756 1.055,1.818 1.055,3.188 0,0.083 -0.003,0.208 -0.008,0.375 h -6.188 c 0.052,0.911 0.31,1.609 0.774,2.094 0.463,0.484 1.042,0.726 1.734,0.726 0.516,0 0.956,-0.135 1.321,-0.406 0.364,-0.271 0.653,-0.703 0.867,-1.297 z m -4.617,-2.273 h 4.632 c -0.062,-0.698 -0.239,-1.222 -0.531,-1.571 -0.448,-0.541 -1.029,-0.812 -1.742,-0.812 -0.646,0 -1.19,0.216 -1.633,0.648 -0.437,0.433 -0.68,1.011 -0.726,1.735 z m 7.843,4.945 v -8.297 h 1.266 v 1.18 c 0.609,-0.912 1.489,-1.367 2.641,-1.367 0.5,0 0.958,0.091 1.375,0.273 0.421,0.177 0.737,0.412 0.945,0.703 0.208,0.292 0.354,0.638 0.437,1.039 0.052,0.261 0.078,0.716 0.078,1.367 V 371 h -1.406 v -5.047 c 0,-0.573 -0.054,-1 -0.164,-1.281 -0.109,-0.287 -0.305,-0.513 -0.586,-0.68 -0.276,-0.172 -0.601,-0.258 -0.976,-0.258 -0.599,0 -1.118,0.19 -1.555,0.571 -0.432,0.38 -0.648,1.101 -0.648,2.164 V 371 Z"
     fill="#000000"
     id="path73" />
  <path
     d="m 499.055,354.832 c -0.928,-0.922 -2.18,-1.449 -3.493,-1.472 -1.312,-0.022 -2.582,0.463 -3.541,1.352 -0.048,0.045 -0.086,0.1 -0.113,0.161 -0.026,0.06 -0.039,0.125 -0.039,0.191 0,0.066 0.013,0.131 0.039,0.192 0.027,0.06 0.065,0.115 0.113,0.16 l 0.61,0.62 c 0.083,0.081 0.192,0.131 0.308,0.138 0.116,0.008 0.231,-0.026 0.324,-0.096 0.585,-0.464 1.328,-0.685 2.074,-0.618 0.745,0.068 1.436,0.419 1.927,0.98 0.491,0.561 0.745,1.289 0.708,2.032 -0.037,0.742 -0.362,1.442 -0.907,1.952 -4.019,3.986 -9.382,-7.191 -21.557,-1.43 -0.205,0.098 -0.388,0.237 -0.536,0.409 -0.149,0.172 -0.26,0.372 -0.327,0.588 -0.066,0.217 -0.087,0.444 -0.061,0.669 0.027,0.225 0.1,0.442 0.215,0.637 l 2.089,3.581 c 0.217,0.374 0.573,0.648 0.991,0.762 0.419,0.114 0.866,0.059 1.244,-0.152 l 0.05,-0.029 -0.039,0.029 0.915,-0.507 c 1.032,-0.636 2.007,-1.359 2.916,-2.159 0.09,-0.081 0.206,-0.128 0.328,-0.132 0.121,-0.004 0.24,0.035 0.335,0.111 0.052,0.043 0.093,0.096 0.122,0.155 0.03,0.06 0.046,0.126 0.048,0.192 0.002,0.067 -0.01,0.133 -0.036,0.194 -0.025,0.062 -0.064,0.117 -0.113,0.163 -0.956,0.855 -1.986,1.625 -3.079,2.3 h -0.031 l -0.926,0.514 c -0.391,0.218 -0.832,0.332 -1.281,0.331 -0.464,0.001 -0.921,-0.119 -1.324,-0.348 -0.403,-0.229 -0.738,-0.56 -0.971,-0.959 l -1.976,-3.384 c -3.778,2.669 -6.098,7.797 -4.842,14.29 0.021,0.11 0.079,0.209 0.165,0.28 0.086,0.071 0.195,0.111 0.307,0.111 h 2.228 c 0.122,0.003 0.242,-0.04 0.333,-0.121 0.092,-0.081 0.149,-0.194 0.16,-0.316 0.104,-0.786 0.493,-1.508 1.094,-2.031 0.601,-0.523 1.373,-0.812 2.173,-0.812 0.799,0 1.571,0.289 2.172,0.812 0.601,0.523 0.99,1.245 1.095,2.031 0.014,0.116 0.07,0.222 0.157,0.3 0.088,0.077 0.201,0.119 0.318,0.119 h 2.178 c 0.117,0 0.23,-0.043 0.317,-0.12 0.088,-0.077 0.144,-0.183 0.158,-0.299 0.105,-0.786 0.494,-1.508 1.095,-2.031 0.601,-0.523 1.373,-0.812 2.172,-0.812 0.8,0 1.572,0.289 2.173,0.812 0.601,0.523 0.99,1.245 1.095,2.031 0.014,0.116 0.07,0.222 0.158,0.299 0.087,0.077 0.2,0.12 0.317,0.12 h 2.164 c 0.126,10e-4 0.248,-0.049 0.338,-0.137 0.091,-0.089 0.142,-0.209 0.144,-0.334 0.05,-3.029 0.873,-6.508 3.217,-8.251 8.124,-6.032 5.988,-11.202 4.108,-13.068 z m -8.283,9.11 -1.55,-0.771 c 0,-0.165 0.042,-0.327 0.123,-0.471 0.081,-0.144 0.198,-0.265 0.339,-0.352 0.141,-0.086 0.302,-0.135 0.468,-0.142 0.166,-0.007 0.331,0.028 0.479,0.102 0.148,0.074 0.275,0.184 0.368,0.321 0.093,0.136 0.149,0.294 0.164,0.458 0.014,0.165 -0.015,0.33 -0.083,0.48 -0.068,0.15 -0.174,0.28 -0.308,0.378 z"
     fill="url(#paint19_linear_55_2)"
     id="path74"
     style="fill:url(#paint19_linear_55_2)" />
  <path
     d="m 519.384,366.508 v -1.344 l 4.851,-0.008 v 4.25 c -0.744,0.594 -1.513,1.042 -2.304,1.344 -0.792,0.297 -1.605,0.445 -2.438,0.445 -1.125,0 -2.148,-0.239 -3.07,-0.718 -0.917,-0.485 -1.61,-1.183 -2.078,-2.094 -0.469,-0.912 -0.703,-1.93 -0.703,-3.055 0,-1.114 0.231,-2.154 0.695,-3.117 0.469,-0.969 1.141,-1.688 2.016,-2.156 0.875,-0.469 1.882,-0.703 3.023,-0.703 0.828,0 1.575,0.135 2.242,0.406 0.672,0.265 1.198,0.638 1.578,1.117 0.38,0.479 0.67,1.104 0.867,1.875 l -1.367,0.375 c -0.172,-0.583 -0.385,-1.042 -0.64,-1.375 -0.256,-0.333 -0.62,-0.599 -1.094,-0.797 -0.474,-0.203 -1,-0.305 -1.578,-0.305 -0.693,0 -1.292,0.107 -1.797,0.321 -0.505,0.208 -0.914,0.484 -1.227,0.828 -0.307,0.344 -0.547,0.721 -0.718,1.133 -0.292,0.708 -0.438,1.476 -0.438,2.304 0,1.021 0.175,1.875 0.524,2.563 0.354,0.687 0.867,1.198 1.539,1.531 0.671,0.333 1.385,0.5 2.14,0.5 0.656,0 1.297,-0.125 1.922,-0.375 0.625,-0.255 1.099,-0.526 1.422,-0.812 v -2.133 z m 6.898,4.492 v -8.297 h 1.266 v 1.258 c 0.323,-0.589 0.62,-0.977 0.89,-1.164 0.277,-0.188 0.579,-0.281 0.907,-0.281 0.474,0 0.955,0.151 1.445,0.453 l -0.484,1.304 c -0.344,-0.203 -0.688,-0.304 -1.032,-0.304 -0.307,0 -0.583,0.093 -0.828,0.281 -0.245,0.182 -0.419,0.438 -0.523,0.766 -0.156,0.5 -0.235,1.046 -0.235,1.64 V 371 Z m 10.758,-1.023 c -0.521,0.442 -1.023,0.755 -1.508,0.937 -0.479,0.182 -0.995,0.274 -1.547,0.274 -0.911,0 -1.612,-0.222 -2.101,-0.665 -0.49,-0.447 -0.735,-1.018 -0.735,-1.711 0,-0.406 0.092,-0.776 0.274,-1.109 0.187,-0.338 0.43,-0.609 0.726,-0.812 0.302,-0.203 0.641,-0.357 1.016,-0.461 0.276,-0.073 0.693,-0.144 1.25,-0.211 1.135,-0.136 1.971,-0.297 2.508,-0.485 0.005,-0.192 0.008,-0.315 0.008,-0.367 0,-0.573 -0.133,-0.976 -0.399,-1.211 -0.359,-0.317 -0.893,-0.476 -1.601,-0.476 -0.662,0 -1.151,0.117 -1.469,0.351 -0.313,0.229 -0.544,0.638 -0.695,1.227 l -1.375,-0.188 c 0.125,-0.588 0.33,-1.062 0.617,-1.422 0.286,-0.364 0.7,-0.643 1.242,-0.836 0.542,-0.197 1.169,-0.296 1.883,-0.296 0.708,0 1.284,0.083 1.726,0.25 0.443,0.166 0.769,0.377 0.977,0.632 0.208,0.25 0.354,0.568 0.437,0.954 0.047,0.239 0.071,0.671 0.071,1.296 v 1.875 c 0,1.308 0.028,2.136 0.086,2.485 0.062,0.344 0.182,0.674 0.359,0.992 h -1.469 c -0.146,-0.292 -0.239,-0.633 -0.281,-1.023 z m -0.117,-3.141 c -0.511,0.208 -1.276,0.385 -2.297,0.531 -0.578,0.084 -0.987,0.177 -1.227,0.281 -0.239,0.105 -0.424,0.258 -0.554,0.461 -0.13,0.198 -0.196,0.42 -0.196,0.664 0,0.375 0.141,0.688 0.422,0.938 0.287,0.25 0.703,0.375 1.25,0.375 0.542,0 1.024,-0.117 1.446,-0.352 0.421,-0.239 0.731,-0.565 0.929,-0.976 0.151,-0.318 0.227,-0.787 0.227,-1.406 z m 8.992,4.164 v -1.047 c -0.526,0.823 -1.299,1.235 -2.32,1.235 -0.662,0 -1.271,-0.183 -1.828,-0.547 -0.552,-0.365 -0.982,-0.873 -1.289,-1.524 -0.303,-0.656 -0.454,-1.409 -0.454,-2.258 0,-0.828 0.138,-1.578 0.414,-2.25 0.277,-0.677 0.691,-1.195 1.243,-1.554 0.552,-0.36 1.169,-0.539 1.851,-0.539 0.5,0 0.946,0.106 1.336,0.32 0.391,0.208 0.708,0.482 0.953,0.82 v -4.109 h 1.399 V 371 Z m -4.445,-4.141 c 0,1.063 0.224,1.857 0.672,2.383 0.448,0.526 0.976,0.789 1.586,0.789 0.614,0 1.135,-0.25 1.562,-0.75 0.432,-0.505 0.648,-1.273 0.648,-2.304 0,-1.136 -0.218,-1.969 -0.656,-2.5 -0.437,-0.532 -0.976,-0.797 -1.617,-0.797 -0.625,0 -1.148,0.255 -1.57,0.765 -0.417,0.511 -0.625,1.315 -0.625,2.414 z m 7.937,4.141 v -11.453 h 1.406 V 371 Z m 9.274,-2.672 1.453,0.18 c -0.229,0.849 -0.654,1.508 -1.274,1.976 -0.619,0.469 -1.411,0.704 -2.375,0.704 -1.213,0 -2.177,-0.373 -2.89,-1.118 -0.709,-0.75 -1.063,-1.799 -1.063,-3.148 0,-1.396 0.36,-2.479 1.078,-3.25 0.719,-0.771 1.651,-1.156 2.797,-1.156 1.11,0 2.016,0.377 2.719,1.132 0.703,0.756 1.055,1.818 1.055,3.188 0,0.083 -0.003,0.208 -0.008,0.375 h -6.188 c 0.052,0.911 0.31,1.609 0.774,2.094 0.463,0.484 1.041,0.726 1.734,0.726 0.516,0 0.956,-0.135 1.32,-0.406 0.365,-0.271 0.654,-0.703 0.868,-1.297 z m -4.618,-2.273 h 4.633 c -0.062,-0.698 -0.239,-1.222 -0.531,-1.571 -0.448,-0.541 -1.029,-0.812 -1.742,-0.812 -0.646,0 -1.19,0.216 -1.633,0.648 -0.437,0.433 -0.68,1.011 -0.727,1.735 z"
     fill="#000000"
     id="path75" />
  <defs
     id="defs968">
    <linearGradient
       id="paint0_linear_55_2"
       x1="495.974"
       y1="202.533"
       x2="471.04999"
       y2="227.467"
       gradientUnits="userSpaceOnUse">
      <stop
         offset="0.00344"
         stop-color="#E44857"
         id="stop820" />
      <stop
         offset="0.4689"
         stop-color="#C711E1"
         id="stop821" />
      <stop
         offset="1"
         stop-color="#7F52FF"
         id="stop822" />
    </linearGradient>
    <linearGradient
       id="paint1_linear_55_2"
       x1="241.48399"
       y1="355.21399"
       x2="244.599"
       y2="351.254"
       gradientUnits="userSpaceOnUse">
      <stop
         stop-color="#F69923"
         id="stop823" />
      <stop
         offset="0.3123"
         stop-color="#F79A23"
         id="stop824" />
      <stop
         offset="0.8383"
         stop-color="#E97826"
         id="stop825" />
    </linearGradient>
    <linearGradient
       id="paint2_linear_55_2"
       x1="245.81"
       y1="379.06799"
       x2="241.24001"
       y2="356.15302"
       gradientUnits="userSpaceOnUse">
      <stop
         offset="0.3233"
         stop-color="#9E2064"
         id="stop826" />
      <stop
         offset="0.6302"
         stop-color="#C92037"
         id="stop827" />
      <stop
         offset="0.7514"
         stop-color="#CD2335"
         id="stop828" />
      <stop
         offset="1"
         stop-color="#E97826"
         id="stop829" />
    </linearGradient>
    <linearGradient
       id="paint3_linear_55_2"
       x1="247.556"
       y1="375.84299"
       x2="244.83299"
       y2="362.18799"
       gradientUnits="userSpaceOnUse">
      <stop
         stop-color="#282662"
         id="stop830" />
      <stop
         offset="0.0954839"
         stop-color="#662E8D"
         id="stop831" />
      <stop
         offset="0.7882"
         stop-color="#9F2064"
         id="stop832" />
      <stop
         offset="0.9487"
         stop-color="#CD2032"
         id="stop833" />
    </linearGradient>
    <linearGradient
       id="paint4_linear_55_2"
       x1="245.34"
       y1="377.823"
       x2="240.771"
       y2="354.909"
       gradientUnits="userSpaceOnUse">
      <stop
         offset="0.3233"
         stop-color="#9E2064"
         id="stop834" />
      <stop
         offset="0.6302"
         stop-color="#C92037"
         id="stop835" />
      <stop
         offset="0.7514"
         stop-color="#CD2335"
         id="stop836" />
      <stop
         offset="1"
         stop-color="#E97826"
         id="stop837" />
    </linearGradient>
    <linearGradient
       id="paint5_linear_55_2"
       x1="245.317"
       y1="376.09"
       x2="242.91499"
       y2="364.048"
       gradientUnits="userSpaceOnUse">
      <stop
         stop-color="#282662"
         id="stop838" />
      <stop
         offset="0.0954839"
         stop-color="#662E8D"
         id="stop839" />
      <stop
         offset="0.7882"
         stop-color="#9F2064"
         id="stop840" />
      <stop
         offset="0.9487"
         stop-color="#CD2032"
         id="stop841" />
    </linearGradient>
    <linearGradient
       id="paint6_linear_55_2"
       x1="247.711"
       y1="377.35001"
       x2="243.142"
       y2="354.436"
       gradientUnits="userSpaceOnUse">
      <stop
         offset="0.3233"
         stop-color="#9E2064"
         id="stop842" />
      <stop
         offset="0.6302"
         stop-color="#C92037"
         id="stop843" />
      <stop
         offset="0.7514"
         stop-color="#CD2335"
         id="stop844" />
      <stop
         offset="1"
         stop-color="#E97826"
         id="stop845" />
    </linearGradient>
    <linearGradient
       id="paint7_linear_55_2"
       x1="247.877"
       y1="378.79501"
       x2="243.308"
       y2="355.88101"
       gradientUnits="userSpaceOnUse">
      <stop
         offset="0.3233"
         stop-color="#9E2064"
         id="stop846" />
      <stop
         offset="0.6302"
         stop-color="#C92037"
         id="stop847" />
      <stop
         offset="0.7514"
         stop-color="#CD2335"
         id="stop848" />
      <stop
         offset="1"
         stop-color="#E97826"
         id="stop849" />
    </linearGradient>
    <linearGradient
       id="paint8_linear_55_2"
       x1="248.41701"
       y1="377.20999"
       x2="243.84801"
       y2="354.29501"
       gradientUnits="userSpaceOnUse">
      <stop
         offset="0.3233"
         stop-color="#9E2064"
         id="stop850" />
      <stop
         offset="0.6302"
         stop-color="#C92037"
         id="stop851" />
      <stop
         offset="0.7514"
         stop-color="#CD2335"
         id="stop852" />
      <stop
         offset="1"
         stop-color="#E97826"
         id="stop853" />
    </linearGradient>
    <linearGradient
       id="paint9_linear_55_2"
       x1="248.33501"
       y1="377.22501"
       x2="243.765"
       y2="354.31201"
       gradientUnits="userSpaceOnUse">
      <stop
         offset="0.3233"
         stop-color="#9E2064"
         id="stop854" />
      <stop
         offset="0.6302"
         stop-color="#C92037"
         id="stop855" />
      <stop
         offset="0.7514"
         stop-color="#CD2335"
         id="stop856" />
      <stop
         offset="1"
         stop-color="#E97826"
         id="stop857" />
    </linearGradient>
    <linearGradient
       id="paint10_linear_55_2"
       x1="256.384"
       y1="355.26401"
       x2="262.039"
       y2="354.55099"
       gradientUnits="userSpaceOnUse">
      <stop
         stop-color="#F69923"
         id="stop858" />
      <stop
         offset="0.3123"
         stop-color="#F79A23"
         id="stop859" />
      <stop
         offset="0.8383"
         stop-color="#E97826"
         id="stop860" />
    </linearGradient>
    <linearGradient
       id="paint11_linear_55_2"
       x1="240.91499"
       y1="377.90302"
       x2="255.44299"
       y2="355.82599"
       gradientUnits="userSpaceOnUse">
      <stop
         offset="0.3233"
         stop-color="#9E2064"
         id="stop861" />
      <stop
         offset="0.6302"
         stop-color="#C92037"
         id="stop862" />
      <stop
         offset="0.7514"
         stop-color="#CD2335"
         id="stop863" />
      <stop
         offset="1"
         stop-color="#E97826"
         id="stop864" />
    </linearGradient>
    <linearGradient
       id="paint12_linear_55_2"
       x1="244.883"
       y1="376.69501"
       x2="253.53999"
       y2="363.539"
       gradientUnits="userSpaceOnUse">
      <stop
         stop-color="#282662"
         id="stop865" />
      <stop
         offset="0.0954839"
         stop-color="#662E8D"
         id="stop866" />
      <stop
         offset="0.7882"
         stop-color="#9F2064"
         id="stop867" />
      <stop
         offset="0.9487"
         stop-color="#CD2032"
         id="stop868" />
    </linearGradient>
    <linearGradient
       id="paint13_linear_55_2"
       x1="241.52499"
       y1="376.52802"
       x2="256.052"
       y2="354.45099"
       gradientUnits="userSpaceOnUse">
      <stop
         offset="0.3233"
         stop-color="#9E2064"
         id="stop869" />
      <stop
         offset="0.6302"
         stop-color="#C92037"
         id="stop870" />
      <stop
         offset="0.7514"
         stop-color="#CD2335"
         id="stop871" />
      <stop
         offset="1"
         stop-color="#E97826"
         id="stop872" />
    </linearGradient>
    <linearGradient
       id="paint14_linear_55_2"
       x1="242.883"
       y1="375.11401"
       x2="250.51801"
       y2="363.51199"
       gradientUnits="userSpaceOnUse">
      <stop
         stop-color="#282662"
         id="stop873" />
      <stop
         offset="0.0954839"
         stop-color="#662E8D"
         id="stop874" />
      <stop
         offset="0.7882"
         stop-color="#9F2064"
         id="stop875" />
      <stop
         offset="0.9487"
         stop-color="#CD2032"
         id="stop876" />
    </linearGradient>
    <linearGradient
       id="paint15_linear_55_2"
       x1="243.81"
       y1="378.03101"
       x2="258.33801"
       y2="355.95401"
       gradientUnits="userSpaceOnUse">
      <stop
         offset="0.3233"
         stop-color="#9E2064"
         id="stop877" />
      <stop
         offset="0.6302"
         stop-color="#C92037"
         id="stop878" />
      <stop
         offset="0.7514"
         stop-color="#CD2335"
         id="stop879" />
      <stop
         offset="1"
         stop-color="#E97826"
         id="stop880" />
    </linearGradient>
    <linearGradient
       id="paint16_linear_55_2"
       x1="242.795"
       y1="379.32599"
       x2="257.323"
       y2="357.24899"
       gradientUnits="userSpaceOnUse">
      <stop
         offset="0.3233"
         stop-color="#9E2064"
         id="stop881" />
      <stop
         offset="0.6302"
         stop-color="#C92037"
         id="stop882" />
      <stop
         offset="0.7514"
         stop-color="#CD2335"
         id="stop883" />
      <stop
         offset="1"
         stop-color="#E97826"
         id="stop884" />
    </linearGradient>
    <linearGradient
       id="paint17_linear_55_2"
       x1="244.489"
       y1="378.479"
       x2="259.017"
       y2="356.40201"
       gradientUnits="userSpaceOnUse">
      <stop
         offset="0.3233"
         stop-color="#9E2064"
         id="stop885" />
      <stop
         offset="0.6302"
         stop-color="#C92037"
         id="stop886" />
      <stop
         offset="0.7514"
         stop-color="#CD2335"
         id="stop887" />
      <stop
         offset="1"
         stop-color="#E97826"
         id="stop888" />
    </linearGradient>
    <linearGradient
       id="paint18_linear_55_2"
       x1="244.412"
       y1="378.42599"
       x2="258.93701"
       y2="356.35001"
       gradientUnits="userSpaceOnUse">
      <stop
         offset="0.3233"
         stop-color="#9E2064"
         id="stop889" />
      <stop
         offset="0.6302"
         stop-color="#C92037"
         id="stop890" />
      <stop
         offset="0.7514"
         stop-color="#CD2335"
         id="stop891" />
      <stop
         offset="1"
         stop-color="#E97826"
         id="stop892" />
    </linearGradient>
    <linearGradient
       id="paint19_linear_55_2"
       x1="470.32999"
       y1="352.24301"
       x2="495.43701"
       y2="376.53299"
       gradientUnits="userSpaceOnUse">
      <stop
         stop-color="#209BC4"
         id="stop893" />
      <stop
         offset="1"
         stop-color="#4DC9C0"
         id="stop894" />
    </linearGradient>
  </defs>
</svg>
