<?xml version="1.0" encoding="UTF-8" standalone="no"?>
<svg
   width="800"
   height="600"
   viewBox="0 0 800 600"
   fill="none"
   version="1.1"
   id="svg968"
   xmlns="http://www.w3.org/2000/svg"
   xmlns:svg="http://www.w3.org/2000/svg">
  <path
     d="m 287.647,120 v -15 h -16.2 v 15 h -9.54 l -5.46,15 h 15 v 30 h 17.01 c 3.15,0 5.97,-1.974 7.05,-4.932 l 3.276,-9.006 c 0,0 0.384,-1.056 1.512,-1.056 h 23.772 l 5.46,-15 h -19.65 c -3.15,0 -5.97,1.974 -7.05,4.932 l -3.276,9.006 c 0,0 -0.384,1.056 -1.512,1.056 h -10.398 v -15 h 11.73 c 3.15,0 5.97,-1.974 7.05,-4.932 l 3.276,-9.006 c 0,0 0.384,-1.056 1.512,-1.056 h 26.772 L 343.447,105 h -22.65 c -3.15,0 -5.97,1.974 -7.05,4.932 l -3.276,9.006 c 0,0 -0.384,1.056 -1.512,1.056 h -21.318 z"
     fill="#000000"
     id="path1" />
  <path
     d="m 385.333,144.78 -1.272,3.498 c -0.378,1.032 -1.356,1.716 -2.454,1.716 h -5.556 c -1.44,0 -2.604,-1.164 -2.604,-2.604 v -16.5 h -3.894 v -4.302 h 3.894 v -6.6 h 6.426 v 6.6 h 4.71 v 4.302 h -4.71 v 13.884 h 5.46 z"
     fill="#000000"
     id="path2" />
  <path
     d="m 478.597,122.22 h -4.434 v 4.38 h 4.434 v 4.302 h -4.434 v 19.104 h -6.426 v -19.104 h -3.894 V 126.6 h 3.894 v -6.996 c 0,-1.44 1.164,-2.604 2.604,-2.604 h 10.158 l -1.896,5.22 z"
     fill="#000000"
     id="path3" />
  <path
     d="m 387.841,123 v -6 h 6.426 v 6 z m 6.426,3.6 V 150 h -6.426 v -23.4 z"
     fill="#000000"
     id="path4" />
  <path
     d="m 405.584,126.6 v 3.168 h 0.09 c 0.846,-1.206 1.86,-2.142 3.054,-2.808 1.194,-0.666 2.556,-0.996 4.098,-0.996 1.542,0 2.832,0.288 4.05,0.858 1.224,0.576 2.148,1.584 2.784,3.03 0.696,-1.026 1.638,-1.932 2.832,-2.718 1.194,-0.786 2.604,-1.176 4.23,-1.176 1.236,0 2.382,0.15 3.438,0.456 1.056,0.3 1.962,0.786 2.718,1.446 0.756,0.666 1.344,1.53 1.764,2.604 0.42,1.074 0.636,2.364 0.636,3.87 v 15.66 h -6.426 v -13.26 c 0,-0.786 -0.03,-1.524 -0.09,-2.22 -0.06,-0.696 -0.228,-1.296 -0.498,-1.812 -0.27,-0.51 -0.672,-0.918 -1.2,-1.224 -0.528,-0.3 -1.248,-0.45 -2.148,-0.45 -0.9,0 -1.638,0.174 -2.196,0.522 -0.558,0.348 -0.996,0.798 -1.314,1.356 -0.318,0.558 -0.528,1.194 -0.636,1.902 -0.108,0.708 -0.156,1.428 -0.156,2.148 v 13.038 h -6.426 v -13.128 c 0,-0.696 -0.018,-1.38 -0.048,-2.058 -0.03,-0.678 -0.156,-1.302 -0.384,-1.878 -0.228,-0.57 -0.606,-1.032 -1.134,-1.38 -0.528,-0.348 -1.308,-0.522 -2.334,-0.522 -0.3,0 -0.702,0.066 -1.2,0.204 -0.498,0.138 -0.978,0.39 -1.446,0.768 -0.468,0.378 -0.87,0.918 -1.2,1.626 -0.33,0.708 -0.498,1.638 -0.498,2.784 v 13.578 h -6.426 v -23.4 h 6.066 z"
     fill="#000000"
     id="path5" />
  <path
     d="m 447.229,144.384 c 0.966,0.936 2.352,1.404 4.164,1.404 1.296,0 2.412,-0.324 3.348,-0.972 0.936,-0.648 1.506,-1.332 1.722,-2.058 h 5.658 c -0.906,2.808 -2.292,4.812 -4.164,6.018 -1.872,1.206 -4.134,1.812 -6.792,1.812 -1.842,0 -3.504,-0.294 -4.98,-0.882 -1.482,-0.588 -2.73,-1.428 -3.756,-2.514 -1.026,-1.086 -1.818,-2.382 -2.376,-3.894 -0.558,-1.506 -0.84,-3.168 -0.84,-4.98 0,-1.812 0.288,-3.378 0.858,-4.89 0.57,-1.506 1.386,-2.814 2.442,-3.918 1.056,-1.098 2.316,-1.968 3.78,-2.604 1.464,-0.636 3.084,-0.954 4.866,-0.954 1.992,0 3.726,0.384 5.208,1.152 1.476,0.768 2.694,1.806 3.642,3.102 0.948,1.296 1.638,2.778 2.058,4.434 0.42,1.662 0.57,3.396 0.45,5.208 h -16.884 c 0.09,2.082 0.618,3.594 1.584,4.524 z m 7.266,-12.312 c -0.768,-0.846 -1.938,-1.266 -3.51,-1.266 -1.026,0 -1.878,0.174 -2.556,0.522 -0.678,0.348 -1.224,0.78 -1.632,1.29 -0.408,0.516 -0.696,1.056 -0.858,1.632 -0.168,0.576 -0.264,1.086 -0.294,1.542 h 10.458 c -0.3,-1.632 -0.84,-2.868 -1.608,-3.714 z"
     fill="#000000"
     id="path6" />
  <path
     d="m 481.544,133.23 c 0.57,-1.524 1.386,-2.82 2.442,-3.894 1.056,-1.074 2.322,-1.902 3.804,-2.49 1.476,-0.588 3.138,-0.882 4.98,-0.882 1.842,0 3.51,0.294 5.004,0.882 1.494,0.588 2.766,1.416 3.822,2.49 1.056,1.074 1.872,2.37 2.442,3.894 0.57,1.524 0.858,3.222 0.858,5.094 0,1.872 -0.288,3.564 -0.858,5.07 -0.576,1.506 -1.386,2.796 -2.442,3.87 -1.056,1.074 -2.334,1.896 -3.822,2.466 -1.494,0.576 -3.162,0.858 -5.004,0.858 -1.842,0 -3.504,-0.288 -4.98,-0.858 -1.482,-0.57 -2.748,-1.398 -3.804,-2.466 -1.056,-1.074 -1.872,-2.364 -2.442,-3.87 -0.576,-1.506 -0.858,-3.198 -0.858,-5.07 0,-1.872 0.288,-3.57 0.858,-5.094 z m 5.838,7.83 c 0.18,0.888 0.492,1.692 0.93,2.4 0.438,0.708 1.02,1.278 1.74,1.698 0.726,0.42 1.632,0.636 2.718,0.636 1.086,0 1.998,-0.21 2.736,-0.636 0.738,-0.42 1.326,-0.99 1.764,-1.698 0.438,-0.708 0.744,-1.506 0.93,-2.4 0.18,-0.888 0.27,-1.8 0.27,-2.742 0,-0.942 -0.09,-1.854 -0.27,-2.76 -0.18,-0.906 -0.492,-1.704 -0.93,-2.4 -0.438,-0.696 -1.026,-1.26 -1.764,-1.698 -0.738,-0.438 -1.65,-0.654 -2.736,-0.654 -1.086,0 -1.992,0.222 -2.718,0.654 -0.726,0.438 -1.308,1.002 -1.74,1.698 -0.438,0.696 -0.75,1.494 -0.93,2.4 -0.18,0.906 -0.27,1.824 -0.27,2.76 0,0.936 0.09,1.848 0.27,2.742 z"
     fill="#000000"
     id="path7" />
  <path
     d="m 515.671,117 v 33 h -6.426 v -33 z"
     fill="#000000"
     id="path8" />
  <path
     d="m 537.355,147.012 c -0.756,1.266 -1.74,2.178 -2.964,2.736 -1.224,0.558 -2.604,0.84 -4.14,0.84 -1.752,0 -3.288,-0.342 -4.614,-1.02 -1.326,-0.678 -2.424,-1.596 -3.282,-2.76 -0.858,-1.164 -1.512,-2.496 -1.944,-4.008 -0.438,-1.506 -0.654,-3.078 -0.654,-4.71 0,-1.632 0.216,-3.084 0.654,-4.548 0.438,-1.464 1.086,-2.754 1.944,-3.87 0.858,-1.116 1.938,-2.016 3.234,-2.694 1.296,-0.678 2.808,-1.02 4.524,-1.02 1.386,0 2.706,0.294 3.96,0.882 1.254,0.588 2.238,1.458 2.964,2.604 h 0.09 v -12.45 h 6.426 v 33 h -6.108 v -2.988 h -0.09 z m -0.27,-11.568 c -0.18,-0.888 -0.492,-1.674 -0.93,-2.352 -0.438,-0.678 -1.002,-1.23 -1.698,-1.65 -0.696,-0.42 -1.572,-0.636 -2.628,-0.636 -1.056,0 -1.944,0.21 -2.67,0.636 -0.726,0.426 -1.308,0.978 -1.74,1.674 -0.438,0.696 -0.756,1.488 -0.948,2.376 -0.198,0.888 -0.294,1.818 -0.294,2.784 0,0.906 0.108,1.812 0.318,2.718 0.21,0.906 0.552,1.716 1.02,2.424 0.468,0.708 1.056,1.284 1.764,1.722 0.708,0.438 1.56,0.654 2.556,0.654 1.056,0 1.938,-0.21 2.646,-0.636 0.708,-0.42 1.272,-0.99 1.698,-1.698 0.42,-0.708 0.726,-1.518 0.906,-2.424 0.18,-0.906 0.27,-1.842 0.27,-2.808 0,-0.966 -0.09,-1.896 -0.27,-2.784 z"
     fill="#000000"
     id="path9" />
  <rect
     x="30.5"
     y="180.5"
     width="739"
     height="69"
     rx="4.5"
     stroke="#000000"
     id="rect9" />
  <path
     d="m 260.049,225.388 c 0,0 -1.452,0.844 1.034,1.13 3.011,0.343 4.55,0.294 7.868,-0.334 0,0 0.873,0.547 2.091,1.021 -7.439,3.188 -16.836,-0.185 -10.993,-1.817 z"
     fill="#5382a1"
     id="path10" />
  <path
     d="m 259.141,221.227 c 0,0 -1.629,1.206 0.859,1.463 3.216,0.332 5.757,0.359 10.152,-0.487 0,0 0.608,0.616 1.564,0.953 -8.994,2.63 -19.012,0.207 -12.575,-1.929 z"
     fill="#5382a1"
     id="path11" />
  <path
     d="m 266.803,214.17 c 1.833,2.11 -0.481,4.009 -0.481,4.009 0,0 4.654,-2.403 2.516,-5.411 -1.996,-2.806 -3.527,-4.2 4.761,-9.007 0,0 -13.009,3.249 -6.796,10.409 z"
     fill="#e76f00"
     id="path12" />
  <path
     d="m 276.642,228.465 c 0,0 1.075,0.885 -1.183,1.57 -4.294,1.301 -17.872,1.694 -21.644,0.052 -1.355,-0.59 1.187,-1.408 1.987,-1.58 0.834,-0.181 1.311,-0.147 1.311,-0.147 -1.508,-1.063 -9.746,2.085 -4.185,2.987 15.167,2.46 27.648,-1.108 23.714,-2.882 z"
     fill="#5382a1"
     id="path13" />
  <path
     d="m 260.747,216.916 c 0,0 -6.907,1.641 -2.446,2.237 1.884,0.252 5.638,0.195 9.135,-0.098 2.859,-0.241 5.729,-0.754 5.729,-0.754 0,0 -1.008,0.432 -1.737,0.929 -7.014,1.845 -20.562,0.987 -16.662,-0.9 3.299,-1.594 5.981,-1.414 5.981,-1.414 z"
     fill="#5382a1"
     id="path14" />
  <path
     d="m 273.137,223.842 c 7.13,-3.705 3.833,-7.265 1.533,-6.786 -0.564,0.118 -0.816,0.219 -0.816,0.219 0,0 0.21,-0.328 0.609,-0.469 4.552,-1.601 8.053,4.719 -1.469,7.222 0,0 0.11,-0.098 0.143,-0.186 z"
     fill="#5382a1"
     id="path15" />
  <path
     d="m 268.839,196 c 0,0 3.948,3.95 -3.745,10.023 -6.169,4.872 -1.407,7.65 -0.003,10.824 -3.601,-3.249 -6.243,-6.109 -4.471,-8.771 2.603,-3.908 9.812,-5.802 8.219,-12.076 z"
     fill="#e76f00"
     id="path16" />
  <path
     d="m 261.448,233.881 c 6.843,0.438 17.352,-0.244 17.601,-3.482 0,0 -0.479,1.228 -5.656,2.203 -5.841,1.099 -13.045,0.971 -17.318,0.266 0,0 0.875,0.724 5.373,1.013 z"
     fill="#5382a1"
     id="path17" />
  <path
     d="m 291.51,217.75 1.367,-0.188 c 0.036,0.875 0.2,1.474 0.492,1.797 0.292,0.323 0.695,0.485 1.211,0.485 0.38,0 0.708,-0.086 0.984,-0.258 0.276,-0.177 0.467,-0.414 0.571,-0.711 0.104,-0.302 0.156,-0.781 0.156,-1.438 v -7.89 h 1.516 v 7.805 c 0,0.958 -0.118,1.7 -0.352,2.226 -0.229,0.526 -0.596,0.927 -1.101,1.203 -0.5,0.276 -1.089,0.414 -1.766,0.414 -1.005,0 -1.776,-0.289 -2.313,-0.867 -0.531,-0.578 -0.786,-1.437 -0.765,-2.578 z m 14.008,2.227 c -0.521,0.442 -1.024,0.755 -1.508,0.937 -0.479,0.182 -0.995,0.273 -1.547,0.273 -0.912,0 -1.612,-0.221 -2.102,-0.664 -0.489,-0.447 -0.734,-1.018 -0.734,-1.711 0,-0.406 0.091,-0.776 0.273,-1.109 0.188,-0.338 0.43,-0.609 0.727,-0.812 0.302,-0.204 0.641,-0.357 1.016,-0.461 0.276,-0.073 0.692,-0.144 1.25,-0.211 1.135,-0.136 1.971,-0.297 2.507,-0.485 0.006,-0.192 0.008,-0.315 0.008,-0.367 0,-0.573 -0.133,-0.976 -0.398,-1.211 -0.36,-0.317 -0.893,-0.476 -1.602,-0.476 -0.661,0 -1.151,0.117 -1.469,0.351 -0.312,0.229 -0.544,0.638 -0.695,1.227 l -1.375,-0.188 c 0.125,-0.588 0.331,-1.062 0.617,-1.422 0.287,-0.364 0.701,-0.643 1.243,-0.836 0.541,-0.197 1.169,-0.296 1.882,-0.296 0.709,0 1.284,0.083 1.727,0.25 0.443,0.166 0.768,0.377 0.976,0.632 0.209,0.25 0.355,0.568 0.438,0.954 0.047,0.239 0.07,0.671 0.07,1.296 v 1.875 c 0,1.308 0.029,2.136 0.086,2.485 0.063,0.344 0.182,0.674 0.36,0.992 h -1.469 c -0.146,-0.292 -0.24,-0.633 -0.281,-1.023 z m -0.118,-3.141 c -0.51,0.208 -1.276,0.385 -2.296,0.531 -0.579,0.084 -0.987,0.177 -1.227,0.281 -0.24,0.105 -0.425,0.258 -0.555,0.461 -0.13,0.198 -0.195,0.42 -0.195,0.664 0,0.375 0.141,0.688 0.422,0.938 0.286,0.25 0.703,0.375 1.25,0.375 0.541,0 1.023,-0.117 1.445,-0.352 0.422,-0.239 0.732,-0.565 0.93,-0.976 0.151,-0.318 0.226,-0.787 0.226,-1.406 z m 5.914,4.164 -3.156,-8.297 h 1.485 l 1.781,4.969 c 0.193,0.536 0.37,1.094 0.531,1.672 0.125,-0.438 0.3,-0.964 0.524,-1.578 l 1.843,-5.063 h 1.446 L 312.627,221 Z m 11.11,-1.023 c -0.521,0.442 -1.024,0.755 -1.508,0.937 -0.479,0.182 -0.995,0.273 -1.547,0.273 -0.911,0 -1.612,-0.221 -2.101,-0.664 -0.49,-0.447 -0.735,-1.018 -0.735,-1.711 0,-0.406 0.091,-0.776 0.274,-1.109 0.187,-0.338 0.429,-0.609 0.726,-0.812 0.302,-0.204 0.641,-0.357 1.016,-0.461 0.276,-0.073 0.693,-0.144 1.25,-0.211 1.135,-0.136 1.971,-0.297 2.508,-0.485 0.005,-0.192 0.007,-0.315 0.007,-0.367 0,-0.573 -0.132,-0.976 -0.398,-1.211 -0.359,-0.317 -0.893,-0.476 -1.602,-0.476 -0.661,0 -1.151,0.117 -1.468,0.351 -0.313,0.229 -0.545,0.638 -0.696,1.227 l -1.375,-0.188 c 0.125,-0.588 0.331,-1.062 0.618,-1.422 0.286,-0.364 0.7,-0.643 1.242,-0.836 0.541,-0.197 1.169,-0.296 1.883,-0.296 0.708,0 1.283,0.083 1.726,0.25 0.443,0.166 0.768,0.377 0.977,0.632 0.208,0.25 0.354,0.568 0.437,0.954 0.047,0.239 0.071,0.671 0.071,1.296 v 1.875 c 0,1.308 0.028,2.136 0.085,2.485 0.063,0.344 0.183,0.674 0.36,0.992 h -1.469 c -0.146,-0.292 -0.24,-0.633 -0.281,-1.023 z m -0.117,-3.141 c -0.511,0.208 -1.276,0.385 -2.297,0.531 -0.578,0.084 -0.987,0.177 -1.227,0.281 -0.239,0.105 -0.424,0.258 -0.554,0.461 -0.131,0.198 -0.196,0.42 -0.196,0.664 0,0.375 0.141,0.688 0.422,0.938 0.287,0.25 0.703,0.375 1.25,0.375 0.542,0 1.024,-0.117 1.445,-0.352 0.422,-0.239 0.732,-0.565 0.93,-0.976 0.151,-0.318 0.227,-0.787 0.227,-1.406 z"
     fill="#000000"
     id="path18" />
  <path
     d="m 495.976,227.464 h -24.928 v -24.928 h 24.928 l -12.464,12.459 z"
     fill="url(#paint0_linear_55_2)"
     id="path19"
     style="fill:url(#paint0_linear_55_2)" />
  <path
     d="m 509.148,221 v -11.453 h 1.516 v 5.68 l 5.688,-5.68 h 2.054 l -4.804,4.641 5.015,6.812 h -2 l -4.078,-5.797 -1.875,1.828 V 221 Z m 10.032,-4.148 c 0,-1.537 0.427,-2.675 1.281,-3.414 0.713,-0.615 1.583,-0.922 2.609,-0.922 1.141,0 2.073,0.375 2.797,1.125 0.724,0.744 1.086,1.776 1.086,3.093 0,1.068 -0.161,1.909 -0.484,2.524 -0.318,0.609 -0.784,1.083 -1.399,1.422 -0.609,0.338 -1.276,0.508 -2,0.508 -1.161,0 -2.101,-0.373 -2.82,-1.118 -0.714,-0.744 -1.07,-1.817 -1.07,-3.218 z m 1.445,0 c 0,1.062 0.232,1.859 0.695,2.39 0.464,0.526 1.047,0.789 1.75,0.789 0.698,0 1.279,-0.265 1.742,-0.797 0.464,-0.531 0.696,-1.341 0.696,-2.429 0,-1.026 -0.235,-1.802 -0.703,-2.328 -0.464,-0.532 -1.042,-0.797 -1.735,-0.797 -0.703,0 -1.286,0.263 -1.75,0.789 -0.463,0.526 -0.695,1.32 -0.695,2.383 z m 11.055,2.89 0.203,1.242 c -0.396,0.084 -0.75,0.125 -1.063,0.125 -0.51,0 -0.906,-0.08 -1.187,-0.242 -0.281,-0.161 -0.479,-0.372 -0.594,-0.633 -0.115,-0.265 -0.172,-0.82 -0.172,-1.664 v -4.773 h -1.031 v -1.094 h 1.031 v -2.055 l 1.399,-0.843 v 2.898 h 1.414 v 1.094 h -1.414 v 4.851 c 0,0.401 0.023,0.659 0.07,0.774 0.052,0.114 0.133,0.206 0.242,0.273 0.115,0.068 0.276,0.102 0.484,0.102 0.157,0 0.362,-0.018 0.618,-0.055 z m 1.351,1.258 v -11.453 h 1.407 V 221 Z m 3.602,-9.836 v -1.617 h 1.406 v 1.617 z m 0,9.836 v -8.297 h 1.406 V 221 Z m 3.555,0 v -8.297 h 1.265 v 1.18 c 0.609,-0.912 1.49,-1.367 2.641,-1.367 0.5,0 0.958,0.091 1.375,0.273 0.422,0.177 0.737,0.412 0.945,0.703 0.208,0.292 0.354,0.638 0.438,1.039 0.052,0.261 0.078,0.716 0.078,1.367 V 221 h -1.407 v -5.047 c 0,-0.573 -0.054,-1 -0.164,-1.281 -0.109,-0.287 -0.304,-0.513 -0.586,-0.68 -0.276,-0.172 -0.601,-0.258 -0.976,-0.258 -0.599,0 -1.117,0.19 -1.555,0.571 -0.432,0.38 -0.648,1.101 -0.648,2.164 V 221 Z"
     fill="#000000"
     id="path20" />
  <defs
     id="defs968">
    <linearGradient
       id="paint0_linear_55_2"
       x1="495.974"
       y1="202.533"
       x2="471.04999"
       y2="227.467"
       gradientUnits="userSpaceOnUse">
      <stop
         offset="0.00344"
         stop-color="#E44857"
         id="stop820" />
      <stop
         offset="0.4689"
         stop-color="#C711E1"
         id="stop821" />
      <stop
         offset="1"
         stop-color="#7F52FF"
         id="stop822" />
    </linearGradient>
  </defs>
</svg>
