<?xml version="1.0" encoding="UTF-8" standalone="no"?>
<svg
   version="1.1"
   id="svg2"
   height="600"
   width="800"
   xmlns="http://www.w3.org/2000/svg"
   xmlns:svg="http://www.w3.org/2000/svg"
   xmlns:rdf="http://www.w3.org/1999/02/22-rdf-syntax-ns#"
   xmlns:cc="http://creativecommons.org/ns#"
   xmlns:dc="http://purl.org/dc/elements/1.1/">
  <defs
     id="defs4">
    <rect
       x="330"
       y="440"
       width="100"
       height="50"
       id="rect10" />
  </defs>
  <metadata
     id="metadata7">
    <rdf:RDF>
      <cc:Work
         rdf:about="">
        <dc:format>image/svg+xml</dc:format>
        <dc:type
           rdf:resource="http://purl.org/dc/dcmitype/StillImage" />
        <dc:language>en</dc:language>
        <cc:license
           rdf:resource="https://timefold.ai/product/license/" />
      </cc:Work>
    </rdf:RDF>
  </metadata>
  <g
     style="display:inline"
     transform="translate(0,-452.36218)"
     id="layer1">
    <g
       transform="translate(0,19.999997)"
       id="g3709" />
    <flowRoot
       style="color:currentColor;font-style:normal;font-variant:normal;font-weight:normal;font-stretch:normal;font-size:16px;font-family:Arial;-inkscape-font-specification:Arial;text-align:center;writing-mode:lr-tb;text-anchor:middle;display:inline;overflow:visible;visibility:visible;opacity:1;vector-effect:none;fill:#a40000;fill-opacity:1;fill-rule:nonzero;stroke:#8f5902;stroke-width:3;stroke-linecap:round;stroke-linejoin:round;stroke-miterlimit:4;stroke-dasharray:none;stroke-dashoffset:0;stroke-opacity:1;marker:none;enable-background:accumulate"
       id="flowRoot937"
       xml:space="preserve"><flowRegion
         id="flowRegion939"><rect
           y="141.03894"
           x="-94.285713"
           height="116.1039"
           width="52.987019"
           id="rect941" /></flowRegion><flowPara
         id="flowPara943" /></flowRoot>
    <text
       xml:space="preserve"
       transform="translate(0,452.36218)"
       id="text10"
       style="font-size:32px;line-height:1.15;font-family:sans-serif;-inkscape-font-specification:sans-serif;text-align:center;text-decoration:none;text-decoration-line:none;text-decoration-color:currentColor;white-space:pre;shape-inside:url(#rect10);display:inline;fill: #FFFFFF;stroke: #FFFFFF;stroke-width:1px;stroke-linecap:round;stroke-linejoin:round;stroke-opacity:1;-inkscape-stroke:none;stop-color:currentColor" /> rx="5" ry="5"
  </g>
  <g
     id="layer6"
     style="display:inline" />
  <g
     style="display:inline"
     id="layer2" />
  <g
     id="layer5"
     style="display:inline" />
  <g
     id="layer4"
     style="display:inline" />
  <g
     id="layer3">
    <g
       fill="#fff"
       id="g9"
       style="display:inline;fill:currentColor;fill-opacity:1;stroke-width:1.77777"
       transform="matrix(0.5625,0,0,0.5625,540,215.34937)">
      <path
         d="M 104,50 V 0 H 50 V 50 H 18.2 L 0,100 h 50 v 100 h 56.7 c 10.51,0 19.9,-6.57 23.49,-16.45 l 10.93,-30.03 c 0,0 1.29,-3.52 5.03,-3.52 h 79.25 l 18.2,-50 h -65.49 c -10.51,0 -19.9,6.57 -23.49,16.45 l -10.93,30.03 c 0,0 -1.28,3.52 -5.03,3.52 h -34.65 v -50 h 39.1 c 10.51,0 19.9,-6.57 23.49,-16.45 l 10.93,-30.03 c 0,0 1.29,-3.52 5.03,-3.52 h 89.25 L 290,0 H 214.51 C 204,0 194.61,6.57 191.02,16.45 l -10.93,30.03 c 0,0 -1.28,3.52 -5.03,3.52 h -71.05 z"
         id="path1"
         style="fill:currentColor;fill-opacity:1;stroke-width:1.77777" />
      <path
         d="m 26.3,291.3 -2.12,5.83 c -0.63,1.72 -2.26,2.86 -4.09,2.86 h -9.26 c -2.4,0 -4.34,-1.94 -4.34,-4.34 v -27.5 H 0 v -7.17 h 6.49 v -11 H 17.2 v 11 h 7.85 v 7.17 H 17.2 v 23.14 h 9.1 z"
         id="path2-4"
         style="fill:currentColor;fill-opacity:1;stroke-width:1.77777" />
      <path
         d="m 181.74,253.7 h -7.39 v 7.3 h 7.39 v 7.17 h -7.39 v 31.84 h -10.71 v -31.84 h -6.49 V 261 h 6.49 v -11.66 c 0,-2.4 1.94,-4.34 4.34,-4.34 h 16.93 l -3.16,8.7 z"
         id="path3"
         style="fill:currentColor;fill-opacity:1;stroke-width:1.77777" />
      <path
         d="m 30.48,255 v -10 h 10.71 v 10 z m 10.71,6 v 39 H 30.48 v -39 z"
         id="path4-9"
         style="fill:currentColor;fill-opacity:1;stroke-width:1.77777" />
      <path
         d="m 60.05,261 v 5.28 h 0.15 c 1.41,-2.01 3.1,-3.57 5.09,-4.68 1.99,-1.11 4.26,-1.66 6.83,-1.66 2.57,0 4.72,0.48 6.75,1.43 2.04,0.96 3.58,2.64 4.64,5.05 1.16,-1.71 2.73,-3.22 4.72,-4.53 1.99,-1.31 4.34,-1.96 7.05,-1.96 2.06,0 3.97,0.25 5.73,0.76 1.76,0.5 3.27,1.31 4.53,2.41 1.26,1.11 2.24,2.55 2.94,4.34 0.7,1.79 1.06,3.94 1.06,6.45 v 26.1 H 98.83 v -22.1 c 0,-1.31 -0.05,-2.54 -0.15,-3.7 -0.1,-1.16 -0.38,-2.16 -0.83,-3.02 -0.45,-0.85 -1.12,-1.53 -2,-2.04 -0.88,-0.5 -2.08,-0.75 -3.58,-0.75 -1.5,0 -2.73,0.29 -3.66,0.87 -0.93,0.58 -1.66,1.33 -2.19,2.26 -0.53,0.93 -0.88,1.99 -1.06,3.17 -0.18,1.18 -0.26,2.38 -0.26,3.58 v 21.73 H 74.39 v -21.88 c 0,-1.16 -0.03,-2.3 -0.08,-3.43 -0.05,-1.13 -0.26,-2.17 -0.64,-3.13 -0.38,-0.95 -1.01,-1.72 -1.89,-2.3 -0.88,-0.58 -2.18,-0.87 -3.89,-0.87 -0.5,0 -1.17,0.11 -2,0.34 -0.83,0.23 -1.63,0.65 -2.41,1.28 -0.78,0.63 -1.45,1.53 -2,2.71 -0.55,1.18 -0.83,2.73 -0.83,4.64 v 22.63 H 49.94 v -39 h 10.11 z"
         id="path5"
         style="fill:currentColor;fill-opacity:1;stroke-width:1.77777" />
      <path
         d="m 129.46,290.64 c 1.61,1.56 3.92,2.34 6.94,2.34 2.16,0 4.02,-0.54 5.58,-1.62 1.56,-1.08 2.51,-2.22 2.87,-3.43 h 9.43 c -1.51,4.68 -3.82,8.02 -6.94,10.03 -3.12,2.01 -6.89,3.02 -11.32,3.02 -3.07,0 -5.84,-0.49 -8.3,-1.47 -2.47,-0.98 -4.55,-2.38 -6.26,-4.19 -1.71,-1.81 -3.03,-3.97 -3.96,-6.49 -0.93,-2.51 -1.4,-5.28 -1.4,-8.3 0,-3.02 0.48,-5.63 1.43,-8.15 0.95,-2.51 2.31,-4.69 4.07,-6.53 1.76,-1.83 3.86,-3.28 6.3,-4.34 2.44,-1.06 5.14,-1.59 8.11,-1.59 3.32,0 6.21,0.64 8.68,1.92 2.46,1.28 4.49,3.01 6.07,5.17 1.58,2.16 2.73,4.63 3.43,7.39 0.7,2.77 0.95,5.66 0.75,8.68 H 126.8 c 0.15,3.47 1.03,5.99 2.64,7.54 z m 12.11,-20.52 c -1.28,-1.41 -3.23,-2.11 -5.85,-2.11 -1.71,0 -3.13,0.29 -4.26,0.87 -1.13,0.58 -2.04,1.3 -2.72,2.15 -0.68,0.86 -1.16,1.76 -1.43,2.72 -0.28,0.96 -0.44,1.81 -0.49,2.57 h 17.43 c -0.5,-2.72 -1.4,-4.78 -2.68,-6.19 z"
         id="path6"
         style="fill:currentColor;fill-opacity:1;stroke-width:1.77777" />
      <path
         d="m 186.64,272.05 c 0.95,-2.54 2.31,-4.7 4.07,-6.49 1.76,-1.79 3.87,-3.17 6.34,-4.15 2.46,-0.98 5.23,-1.47 8.3,-1.47 3.07,0 5.85,0.49 8.34,1.47 2.49,0.98 4.61,2.36 6.37,4.15 1.76,1.79 3.12,3.95 4.07,6.49 0.95,2.54 1.43,5.37 1.43,8.49 0,3.12 -0.48,5.94 -1.43,8.45 -0.96,2.51 -2.31,4.66 -4.07,6.45 -1.76,1.79 -3.89,3.16 -6.37,4.11 -2.49,0.96 -5.27,1.43 -8.34,1.43 -3.07,0 -5.84,-0.48 -8.3,-1.43 -2.47,-0.95 -4.58,-2.33 -6.34,-4.11 -1.76,-1.79 -3.12,-3.94 -4.07,-6.45 -0.96,-2.51 -1.43,-5.33 -1.43,-8.45 0,-3.12 0.48,-5.95 1.43,-8.49 z m 9.73,13.05 c 0.3,1.48 0.82,2.82 1.55,4 0.73,1.18 1.7,2.13 2.9,2.83 1.21,0.7 2.72,1.06 4.53,1.06 1.81,0 3.33,-0.35 4.56,-1.06 1.23,-0.7 2.21,-1.65 2.94,-2.83 0.73,-1.18 1.24,-2.51 1.55,-4 0.3,-1.48 0.45,-3 0.45,-4.57 0,-1.57 -0.15,-3.09 -0.45,-4.6 -0.3,-1.51 -0.82,-2.84 -1.55,-4 -0.73,-1.16 -1.71,-2.1 -2.94,-2.83 -1.23,-0.73 -2.75,-1.09 -4.56,-1.09 -1.81,0 -3.32,0.37 -4.53,1.09 -1.21,0.73 -2.18,1.67 -2.9,2.83 -0.73,1.16 -1.25,2.49 -1.55,4 -0.3,1.51 -0.45,3.04 -0.45,4.6 0,1.56 0.15,3.08 0.45,4.57 z"
         id="path7"
         style="fill:currentColor;fill-opacity:1;stroke-width:1.77777" />
      <path
         d="m 243.53,245 v 55 h -10.71 v -55 z"
         id="path8"
         style="fill:currentColor;fill-opacity:1;stroke-width:1.77777" />
      <path
         d="m 279.66,295.02 c -1.26,2.11 -2.9,3.63 -4.94,4.56 -2.04,0.93 -4.34,1.4 -6.9,1.4 -2.92,0 -5.48,-0.57 -7.69,-1.7 -2.21,-1.13 -4.04,-2.66 -5.47,-4.6 -1.43,-1.94 -2.52,-4.16 -3.24,-6.68 -0.73,-2.51 -1.09,-5.13 -1.09,-7.85 0,-2.72 0.36,-5.14 1.09,-7.58 0.73,-2.44 1.81,-4.59 3.24,-6.45 1.43,-1.86 3.23,-3.36 5.39,-4.49 2.16,-1.13 4.68,-1.7 7.54,-1.7 2.31,0 4.51,0.49 6.6,1.47 2.09,0.98 3.73,2.43 4.94,4.34 h 0.15 v -20.75 h 10.71 v 55 h -10.18 v -4.98 h -0.15 z m -0.45,-19.28 c -0.3,-1.48 -0.82,-2.79 -1.55,-3.92 -0.73,-1.13 -1.67,-2.05 -2.83,-2.75 -1.16,-0.7 -2.62,-1.06 -4.38,-1.06 -1.76,0 -3.24,0.35 -4.45,1.06 -1.21,0.71 -2.18,1.63 -2.9,2.79 -0.73,1.16 -1.26,2.48 -1.58,3.96 -0.33,1.48 -0.49,3.03 -0.49,4.64 0,1.51 0.18,3.02 0.53,4.53 0.35,1.51 0.92,2.86 1.7,4.04 0.78,1.18 1.76,2.14 2.94,2.87 1.18,0.73 2.6,1.09 4.26,1.09 1.76,0 3.23,-0.35 4.41,-1.06 1.18,-0.7 2.12,-1.65 2.83,-2.83 0.7,-1.18 1.21,-2.53 1.51,-4.04 0.3,-1.51 0.45,-3.07 0.45,-4.68 0,-1.61 -0.15,-3.16 -0.45,-4.64 z"
         id="path9"
         style="fill:currentColor;fill-opacity:1;stroke-width:1.77777" />
    </g>
    <g
       id="g18"
       transform="translate(26.074)"
       style="display:inline">
      <g
         id="g7"
         transform="translate(33.926,9.9995)">
        <path
           id="path2"
           style="color:currentColor;display:inline;overflow:visible;fill: #E5E5E6;fill-opacity:1;stroke: #E5E5E6;stroke-width:1;stroke-linecap:round;stroke-linejoin:round;stroke-opacity:1;stroke-dasharray:none" rx="5" ry="5"
           d="m 240,187.1325 25,40 -25,40 h 175 l 25,-40 -25,-40 z" />
        <g
           id="flowRoot1307"
           style="font-size:24px;line-height:0.01%;font-family:'Liberation Sans';-inkscape-font-specification:'Liberation Sans, Normal';text-align:center;text-anchor:middle"
           transform="translate(355.91797,288.69213)"
           aria-label="planning&#10;problem">
          <path
             style="fill:black;line-height:1.25"
             d="m -59.710937,-65.585019 v -17.214844 h 1.921875 v 1.617188 q 0.679687,-0.949219 1.535156,-1.417969 0.855469,-0.480469 2.074219,-0.480469 1.59375,0 2.8125,0.820313 1.21875,0.820312 1.839843,2.320312 0.621094,1.488282 0.621094,3.269532 0,1.910156 -0.691406,3.445312 -0.679688,1.523438 -1.992188,2.34375 -1.300781,0.808594 -2.742187,0.808594 -1.054688,0 -1.898438,-0.445313 -0.832031,-0.445312 -1.371093,-1.125 v 6.058594 z m 1.910156,-10.921875 q 0,2.402344 0.972656,3.550781 0.972656,1.148438 2.355469,1.148438 1.40625,0 2.402344,-1.183594 1.007812,-1.195312 1.007812,-3.691406 0,-2.378906 -0.984375,-3.5625 -0.972656,-1.183594 -2.332031,-1.183594 -1.347656,0 -2.390625,1.265625 -1.03125,1.253906 -1.03125,3.65625 z m 11.390625,6.152344 v -17.179688 h 2.109375 v 17.179688 z m 13.5,-1.535156 q -1.171875,0.996093 -2.261719,1.40625 -1.078125,0.410156 -2.320312,0.410156 -2.050782,0 -3.152344,-0.996094 -1.101563,-1.007812 -1.101563,-2.566406 0,-0.914063 0.410157,-1.664063 0.421875,-0.761718 1.089843,-1.21875 0.679688,-0.457031 1.523438,-0.691406 0.621094,-0.164062 1.875,-0.316406 2.554687,-0.304688 3.761719,-0.726563 0.01172,-0.433593 0.01172,-0.550781 0,-1.289062 -0.597656,-1.816406 -0.808594,-0.714844 -2.402344,-0.714844 -1.488281,0 -2.203125,0.527344 -0.703125,0.515625 -1.042968,1.839844 l -2.0625,-0.28125 q 0.28125,-1.324219 0.925781,-2.132813 0.644531,-0.820312 1.863281,-1.253906 1.21875,-0.445313 2.824219,-0.445313 1.59375,0 2.589844,0.375 0.996093,0.375 1.464843,0.949219 0.46875,0.5625 0.65625,1.429688 0.105469,0.539062 0.105469,1.945312 v 2.8125 q 0,2.941406 0.128906,3.726563 0.140625,0.773437 0.539063,1.488281 h -2.203125 q -0.328125,-0.65625 -0.421875,-1.535156 z m -0.175781,-4.710938 q -1.148438,0.46875 -3.445313,0.796875 -1.300781,0.1875 -1.839844,0.421875 -0.539062,0.234375 -0.832031,0.691406 -0.292969,0.445313 -0.292969,0.996094 0,0.84375 0.632813,1.40625 0.644531,0.5625 1.875,0.5625 1.21875,0 2.167969,-0.527344 0.949218,-0.539062 1.394531,-1.464843 0.339844,-0.714844 0.339844,-2.109375 z m 5.402343,6.246094 v -12.445313 h 1.898438 v 1.769532 q 1.371094,-2.050782 3.960937,-2.050782 1.125,0 2.0625,0.410157 0.949219,0.398437 1.417969,1.054687 0.46875,0.65625 0.65625,1.558594 0.117188,0.585937 0.117188,2.050781 v 7.652344 h -2.109375 v -7.570313 q 0,-1.289062 -0.246094,-1.921875 -0.246094,-0.644531 -0.878906,-1.019531 -0.621094,-0.386719 -1.464844,-0.386719 -1.347656,0 -2.332031,0.855469 -0.972657,0.855469 -0.972657,3.246094 v 6.796875 z m 13.347656,0 v -12.445313 h 1.898438 v 1.769532 q 1.371094,-2.050782 3.9609375,-2.050782 1.125,0 2.0625,0.410157 0.9492188,0.398437 1.4179688,1.054687 0.46875,0.65625 0.65625,1.558594 0.1171875,0.585937 0.1171875,2.050781 v 7.652344 h -2.109375 v -7.570313 q 0,-1.289062 -0.2460938,-1.921875 -0.2460937,-0.644531 -0.8789062,-1.019531 -0.6210938,-0.386719 -1.4648438,-0.386719 -1.347656,0 -2.332031,0.855469 -0.972657,0.855469 -0.972657,3.246094 v 6.796875 z m 13.3593755,-14.753906 v -2.425782 h 2.109375 v 2.425782 z m 0,14.753906 v -12.445313 h 2.109375 v 12.445313 z m 5.3203125,0 v -12.445313 h 1.8984375 v 1.769532 q 1.3710937,-2.050782 3.9609375,-2.050782 1.125,0 2.0625,0.410157 0.949219,0.398437 1.417969,1.054687 0.46875,0.65625 0.65625,1.558594 0.117187,0.585937 0.117187,2.050781 v 7.652344 h -2.109375 v -7.570313 q 0,-1.289062 -0.246093,-1.921875 -0.246094,-0.644531 -0.878907,-1.019531 -0.621093,-0.386719 -1.4648435,-0.386719 -1.3476562,0 -2.3320313,0.855469 -0.9726562,0.855469 -0.9726562,3.246094 v 6.796875 z m 12.960937,1.03125 2.050782,0.304687 q 0.128906,0.949219 0.714843,1.382813 0.785157,0.585937 2.144532,0.585937 1.464843,0 2.261718,-0.585937 0.796875,-0.585938 1.078125,-1.640625 0.164063,-0.644531 0.152344,-2.707031 -1.382812,1.628906 -3.445312,1.628906 -2.566407,0 -3.972657,-1.851563 -1.40625,-1.851562 -1.40625,-4.441406 0,-1.78125 0.644532,-3.28125 0.644531,-1.511719 1.863281,-2.332031 1.230469,-0.820313 2.882812,-0.820313 2.203125,0 3.632813,1.78125 v -1.5 h 1.945312 v 10.757813 q 0,2.90625 -0.597656,4.113281 -0.585937,1.21875 -1.875,1.921875 -1.277344,0.703125 -3.152344,0.703125 -2.226562,0 -3.597656,-1.007812 -1.371094,-0.996094 -1.324219,-3.011719 z m 1.746094,-7.476563 q 0,2.449219 0.972656,3.574219 0.972657,1.125 2.4375,1.125 1.453125,0 2.4375,-1.113281 0.984375,-1.125 0.984375,-3.515625 0,-2.285156 -1.019531,-3.445313 -1.007812,-1.160156 -2.4375,-1.160156 -1.40625,0 -2.390625,1.148438 -0.984375,1.136718 -0.984375,3.386718 z"
             id="path10" />
          <path
             style="fill:black;line-height:1.25"
             d="m -57.689453,-35.585019 v -17.214844 h 1.921875 v 1.617188 q 0.679687,-0.949219 1.535156,-1.417969 0.855469,-0.480469 2.074219,-0.480469 1.59375,0 2.8125,0.820313 1.21875,0.820312 1.839844,2.320312 0.621093,1.488282 0.621093,3.269532 0,1.910156 -0.691406,3.445312 -0.679687,1.523438 -1.992187,2.34375 -1.300782,0.808594 -2.742188,0.808594 -1.054687,0 -1.898437,-0.445313 -0.832032,-0.445312 -1.371094,-1.125 v 6.058594 z m 1.910156,-10.921875 q 0,2.402344 0.972656,3.550781 0.972657,1.148438 2.355469,1.148438 1.40625,0 2.402344,-1.183594 1.007812,-1.195312 1.007812,-3.691406 0,-2.378906 -0.984375,-3.5625 -0.972656,-1.183594 -2.332031,-1.183594 -1.347656,0 -2.390625,1.265625 -1.03125,1.253906 -1.03125,3.65625 z m 11.414063,6.152344 v -12.445313 h 1.898437 v 1.886719 q 0.726563,-1.324219 1.335938,-1.746094 0.621093,-0.421875 1.359375,-0.421875 1.066406,0 2.167968,0.679688 l -0.726562,1.957031 q -0.773438,-0.457031 -1.546875,-0.457031 -0.691406,0 -1.242188,0.421875 -0.550781,0.410156 -0.785156,1.148437 -0.351562,1.125 -0.351562,2.460938 v 6.515625 z m 7.230468,-6.222656 q 0,-3.457032 1.921875,-5.121094 1.605469,-1.382813 3.914063,-1.382813 2.566406,0 4.195312,1.6875 1.628907,1.675782 1.628907,4.640625 0,2.402344 -0.726563,3.785157 -0.714844,1.371093 -2.097656,2.132812 -1.371094,0.761719 -3,0.761719 -2.613281,0 -4.230469,-1.675781 -1.605469,-1.675782 -1.605469,-4.828125 z m 2.167969,0 q 0,2.390625 1.042969,3.585937 1.042969,1.183594 2.625,1.183594 1.570312,0 2.613281,-1.195313 1.042969,-1.195312 1.042969,-3.644531 0,-2.308594 -1.054688,-3.492187 -1.042968,-1.195313 -2.601562,-1.195313 -1.582031,0 -2.625,1.183594 -1.042969,1.183594 -1.042969,3.574219 z m 13.910156,6.222656 h -1.957031 v -17.179688 h 2.109375 v 6.128907 q 1.335938,-1.675782 3.410156,-1.675782 1.148438,0 2.167969,0.46875 1.03125,0.457032 1.6875,1.300782 0.667969,0.832031 1.042969,2.015625 0.375,1.183593 0.375,2.53125 0,3.199218 -1.582031,4.945312 -1.582032,1.746094 -3.796875,1.746094 -2.203125,0 -3.457032,-1.839844 z m -0.02344,-6.316406 q 0,2.238281 0.609375,3.234375 0.996094,1.628906 2.695312,1.628906 1.382813,0 2.390625,-1.195313 1.007813,-1.207031 1.007813,-3.585937 0,-2.4375 -0.972656,-3.597656 -0.960938,-1.160157 -2.332032,-1.160157 -1.382812,0 -2.390625,1.207032 -1.007812,1.195312 -1.007812,3.46875 z m 11.3789061,6.316406 v -17.179688 h 2.109375 v 17.179688 z m 13.8984375,-4.007813 2.1796875,0.269532 q -0.515625,1.910156 -1.9101562,2.964843 -1.3945313,1.054688 -3.56250002,1.054688 -2.73046878,0 -4.33593748,-1.675781 -1.59375,-1.6875 -1.59375,-4.722657 0,-3.140625 1.6171875,-4.875 1.6171875,-1.734375 4.19531247,-1.734375 2.49609373,0 4.07812503,1.699219 1.5820312,1.699219 1.5820312,4.78125 0,0.1875 -0.011719,0.5625 h -9.28125 q 0.1171875,2.050781 1.1601562,3.140625 1.04296878,1.089844 2.60156253,1.089844 1.16015627,0 1.98046877,-0.609375 0.8203125,-0.609375 1.3007812,-1.945313 z m -6.9257812,-3.410156 h 6.9492187 q -0.140625,-1.570312 -0.796875,-2.355469 -1.0078125,-1.21875 -2.61328122,-1.21875 -1.453125,0 -2.44921878,0.972657 -0.984375,0.972656 -1.0898437,2.601562 z m 11.7539062,7.417969 v -12.445313 h 1.8867184 v 1.746094 q 0.585938,-0.914062 1.558594,-1.464844 0.972656,-0.5625 2.214844,-0.5625 1.382812,0 2.261719,0.574219 0.890625,0.574219 1.253906,1.605469 1.476562,-2.179688 3.84375,-2.179688 1.851562,0 2.847656,1.03125 0.996094,1.019532 0.996094,3.152344 v 8.542969 h -2.097656 v -7.839844 q 0,-1.265625 -0.210938,-1.816406 -0.199219,-0.5625 -0.738281,-0.902344 -0.539063,-0.339844 -1.265625,-0.339844 -1.3125,0 -2.179688,0.878907 -0.867187,0.867187 -0.867187,2.789062 v 7.230469 h -2.109375 v -8.085938 q 0,-1.40625 -0.515625,-2.109375 -0.515625,-0.703125 -1.6875,-0.703125 -0.890625,0 -1.652344,0.46875 -0.75,0.46875 -1.089844,1.371094 -0.339843,0.902344 -0.339843,2.601563 v 6.457031 z"
             id="path11" />
        </g>
      </g>
      <g
         id="g8"
         transform="translate(33.926,-9.9995)">
        <path
           id="path4"
           style="color:currentColor;display:inline;overflow:visible;fill: #E5E5E6;fill-opacity:1;stroke: #E5E5E6;stroke-width:1;stroke-linecap:round;stroke-linejoin:round;stroke-opacity:1;stroke-dasharray:none" rx="5" ry="5"
           d="m 440,332.8675 -25,40 25,40 H 265 l -25,-40 25,-40 z" />
        <g
           id="flowRoot6"
           style="font-size:24px;line-height:0.01%;font-family:'Liberation Sans';-inkscape-font-specification:'Liberation Sans, Normal';text-align:center;text-anchor:middle"
           transform="translate(355.91797,436.80018)"
           aria-label="optimized&#10;solution">
          <path
             style="fill:black;line-height:1.25"
             d="m -66.478516,-76.577206 q 0,-3.457032 1.921875,-5.121094 1.605469,-1.382813 3.914063,-1.382813 2.566406,0 4.195312,1.6875 1.628907,1.675782 1.628907,4.640625 0,2.402344 -0.726563,3.785157 -0.714844,1.371093 -2.097656,2.132812 -1.371094,0.761719 -3,0.761719 -2.613281,0 -4.230469,-1.675781 -1.605469,-1.675782 -1.605469,-4.828125 z m 2.167969,0 q 0,2.390625 1.042969,3.585937 1.042969,1.183594 2.625,1.183594 1.570312,0 2.613281,-1.195313 1.042969,-1.195312 1.042969,-3.644531 0,-2.308594 -1.054688,-3.492187 -1.042968,-1.195313 -2.601562,-1.195313 -1.582031,0 -2.625,1.183594 -1.042969,1.183594 -1.042969,3.574219 z m 11.964844,10.992187 v -17.214844 h 1.921875 v 1.617188 q 0.679687,-0.949219 1.535156,-1.417969 0.855469,-0.480469 2.074219,-0.480469 1.59375,0 2.8125,0.820313 1.21875,0.820312 1.839844,2.320312 0.621093,1.488282 0.621093,3.269532 0,1.910156 -0.691406,3.445312 -0.679687,1.523438 -1.992187,2.34375 -1.300782,0.808594 -2.742188,0.808594 -1.054687,0 -1.898437,-0.445313 -0.832032,-0.445312 -1.371094,-1.125 v 6.058594 z m 1.910156,-10.921875 q 0,2.402344 0.972656,3.550781 0.972657,1.148438 2.355469,1.148438 1.40625,0 2.402344,-1.183594 1.007812,-1.195312 1.007812,-3.691406 0,-2.378906 -0.984375,-3.5625 -0.972656,-1.183594 -2.332031,-1.183594 -1.347656,0 -2.390625,1.265625 -1.03125,1.253906 -1.03125,3.65625 z m 16.042969,4.265625 0.304687,1.863281 q -0.890625,0.1875 -1.59375,0.1875 -1.148437,0 -1.78125,-0.363281 -0.632812,-0.363281 -0.890625,-0.949219 -0.257812,-0.597656 -0.257812,-2.496093 v -7.160157 h -1.546875 v -1.640625 h 1.546875 v -3.082031 l 2.097656,-1.265625 v 4.347656 h 2.121094 v 1.640625 h -2.121094 v 7.277344 q 0,0.902344 0.105469,1.160156 0.117187,0.257813 0.363281,0.410157 0.257813,0.152343 0.726563,0.152343 0.351562,0 0.925781,-0.08203 z m 2.074219,-12.867187 v -2.425782 h 2.109375 v 2.425782 z m 0,14.753906 v -12.445313 h 2.109375 v 12.445313 z m 5.320312,0 v -12.445313 h 1.886719 v 1.746094 q 0.585937,-0.914062 1.558594,-1.464844 0.972656,-0.5625 2.214843,-0.5625 1.382813,0 2.261719,0.574219 0.890625,0.574219 1.253906,1.605469 1.476563,-2.179688 3.84375,-2.179688 1.851563,0 2.847657,1.03125 0.996093,1.019532 0.996093,3.152344 v 8.542969 h -2.097656 v -7.839844 q 0,-1.265625 -0.210937,-1.816406 -0.199219,-0.5625 -0.738282,-0.902344 -0.539062,-0.339844 -1.265625,-0.339844 -1.3125,0 -2.179687,0.878907 -0.867188,0.867187 -0.867188,2.789062 v 7.230469 h -2.109375 v -8.085938 q 0,-1.40625 -0.515625,-2.109375 -0.515625,-0.703125 -1.6875,-0.703125 -0.890625,0 -1.652343,0.46875 -0.75,0.46875 -1.089844,1.371094 -0.339844,0.902344 -0.339844,2.601563 v 6.457031 z m 20.0039064,-14.753906 v -2.425782 h 2.109375 v 2.425782 z m 0,14.753906 v -12.445313 h 2.109375 v 12.445313 z m 4.2070312,0 v -1.710938 l 7.921875,-9.09375 q -1.3476562,0.07031 -2.3789062,0.07031 h -5.0742188 v -1.710938 h 10.171875 v 1.394532 l -6.7382812,7.898437 -1.30078127,1.441406 q 1.41796877,-0.105468 2.66015627,-0.105468 h 5.7539062 v 1.816406 z m 21.6328124,-4.007813 2.179688,0.269532 q -0.515625,1.910156 -1.910157,2.964843 -1.394531,1.054688 -3.5625,1.054688 -2.730468,0 -4.335937,-1.675781 -1.5937501,-1.6875 -1.5937501,-4.722657 0,-3.140625 1.6171871,-4.875 1.617188,-1.734375 4.195313,-1.734375 2.496094,0 4.078125,1.699219 1.582031,1.699219 1.582031,4.78125 0,0.1875 -0.01172,0.5625 h -9.28125 q 0.117188,2.050781 1.160157,3.140625 1.042968,1.089844 2.601562,1.089844 1.160156,0 1.980469,-0.609375 0.820312,-0.609375 1.300781,-1.945313 z m -6.925781,-3.410156 h 6.949219 q -0.140625,-1.570312 -0.796875,-2.355469 -1.007813,-1.21875 -2.613282,-1.21875 -1.453125,0 -2.449218,0.972657 -0.984375,0.972656 -1.089844,2.601562 z m 19.828125,7.417969 v -1.570313 q -1.183594,1.851563 -3.480469,1.851563 -1.488281,0 -2.742187,-0.820313 -1.242188,-0.820312 -1.933594,-2.285156 -0.679688,-1.476562 -0.679688,-3.386719 0,-1.863281 0.621094,-3.375 0.621094,-1.523437 1.863281,-2.332031 1.242188,-0.808594 2.777344,-0.808594 1.125,0 2.003906,0.480469 0.878907,0.46875 1.429688,1.230469 v -6.164063 h 2.097656 v 17.179688 z m -6.667969,-6.210938 q 0,2.390625 1.007813,3.574219 1.007812,1.183594 2.378906,1.183594 1.382812,0 2.34375,-1.125 0.972656,-1.136719 0.972656,-3.457031 0,-2.554688 -0.984375,-3.75 -0.984375,-1.195313 -2.425781,-1.195313 -1.40625,0 -2.355469,1.148438 -0.9375,1.148437 -0.9375,3.621093 z"
             id="path12" />
          <path
             style="fill:black;line-height:1.25"
             d="m -56.541016,-44.069394 2.085938,-0.328125 q 0.175781,1.253906 0.972656,1.921875 0.808594,0.667969 2.25,0.667969 1.453125,0 2.15625,-0.585938 0.703125,-0.597656 0.703125,-1.394531 0,-0.714844 -0.621094,-1.125 -0.433593,-0.28125 -2.15625,-0.714844 -2.320312,-0.585937 -3.222656,-1.007812 -0.890625,-0.433594 -1.359375,-1.183594 -0.457031,-0.761719 -0.457031,-1.675781 0,-0.832031 0.375,-1.535156 0.386719,-0.714844 1.042969,-1.183594 0.492187,-0.363281 1.335937,-0.609375 0.855469,-0.257813 1.828125,-0.257813 1.464844,0 2.566406,0.421875 1.113282,0.421875 1.640625,1.148438 0.527344,0.714844 0.726563,1.921875 l -2.0625,0.28125 q -0.140625,-0.960938 -0.820313,-1.5 -0.667968,-0.539063 -1.898437,-0.539063 -1.453125,0 -2.074219,0.480469 -0.621094,0.480469 -0.621094,1.125 0,0.410156 0.257813,0.738281 0.257812,0.339844 0.808594,0.5625 0.316406,0.117188 1.863281,0.539063 2.238281,0.597656 3.117187,0.984375 0.890625,0.375 1.394532,1.101562 0.503906,0.726563 0.503906,1.804688 0,1.054687 -0.621094,1.992187 -0.609375,0.925782 -1.769531,1.441407 -1.160156,0.503906 -2.625,0.503906 -2.425781,0 -3.703125,-1.007813 -1.265625,-1.007812 -1.617188,-2.988281 z m 12.058594,-2.507812 q 0,-3.457032 1.921875,-5.121094 1.605469,-1.382813 3.914063,-1.382813 2.566406,0 4.195312,1.6875 1.628906,1.675782 1.628906,4.640625 0,2.402344 -0.726562,3.785157 -0.714844,1.371093 -2.097656,2.132812 -1.371094,0.761719 -3,0.761719 -2.613282,0 -4.230469,-1.675781 -1.605469,-1.675782 -1.605469,-4.828125 z m 2.167969,0 q 0,2.390625 1.042969,3.585937 1.042968,1.183594 2.625,1.183594 1.570312,0 2.613281,-1.195313 1.042969,-1.195312 1.042969,-3.644531 0,-2.308594 -1.054688,-3.492187 -1.042969,-1.195313 -2.601562,-1.195313 -1.582032,0 -2.625,1.183594 -1.042969,1.183594 -1.042969,3.574219 z m 11.917969,6.222656 v -17.179688 h 2.109375 v 17.179688 z m 13.535156,0 v -1.828125 q -1.453125,2.109375 -3.949219,2.109375 -1.101562,0 -2.0625,-0.421875 -0.949219,-0.421875 -1.417969,-1.054688 -0.457031,-0.644531 -0.644531,-1.570312 -0.128906,-0.621094 -0.128906,-1.96875 v -7.710938 h 2.109375 v 6.902344 q 0,1.652344 0.128906,2.226563 0.199219,0.832031 0.84375,1.3125 0.644531,0.46875 1.59375,0.46875 0.949219,0 1.78125,-0.480469 0.832031,-0.492188 1.171875,-1.324219 0.351563,-0.84375 0.351563,-2.4375 v -6.667969 h 2.109375 v 12.445313 z m 9.7968749,-1.886719 0.3046875,1.863281 q -0.890625,0.1875 -1.59375,0.1875 -1.1484375,0 -1.7812504,-0.363281 -0.632812,-0.363281 -0.890625,-0.949219 -0.257812,-0.597656 -0.257812,-2.496093 v -7.160157 h -1.546875 v -1.640625 h 1.546875 v -3.082031 l 2.0976561,-1.265625 v 4.347656 h 2.1210938 v 1.640625 h -2.1210938 v 7.277344 q 0,0.902344 0.1054688,1.160156 0.1171875,0.257813 0.3632812,0.410157 0.2578125,0.152343 0.7265625,0.152343 0.3515625,0 0.9257813,-0.08203 z m 2.0742187,-12.867187 v -2.425782 h 2.109375 v 2.425782 z m 0,14.753906 v -12.445313 h 2.109375 v 12.445313 z m 4.53515627,-6.222656 q 0,-3.457032 1.92187503,-5.121094 1.6054687,-1.382813 3.9140625,-1.382813 2.5664062,0 4.1953125,1.6875 1.6289061,1.675782 1.6289061,4.640625 0,2.402344 -0.726562,3.785157 -0.7148441,1.371093 -2.0976566,2.132812 -1.3710938,0.761719 -3,0.761719 -2.6132813,0 -4.2304688,-1.675781 -1.60546873,-1.675782 -1.60546873,-4.828125 z m 2.16796873,0 q 0,2.390625 1.0429688,3.585937 1.0429687,1.183594 2.625,1.183594 1.5703125,0 2.6132812,-1.195313 1.0429688,-1.195312 1.0429688,-3.644531 0,-2.308594 -1.0546875,-3.492187 -1.0429688,-1.195313 -2.6015625,-1.195313 -1.5820313,0 -2.625,1.183594 -1.0429688,1.183594 -1.0429688,3.574219 z m 11.9648434,6.222656 v -12.445313 h 1.898438 v 1.769532 q 1.371094,-2.050782 3.960937,-2.050782 1.125,0 2.0625,0.410157 0.949219,0.398437 1.417969,1.054687 0.46875,0.65625 0.65625,1.558594 0.117188,0.585937 0.117188,2.050781 v 7.652344 h -2.109375 v -7.570313 q 0,-1.289062 -0.246094,-1.921875 -0.246094,-0.644531 -0.878906,-1.019531 -0.621094,-0.386719 -1.464844,-0.386719 -1.347656,0 -2.332031,0.855469 -0.972657,0.855469 -0.972657,3.246094 v 6.796875 z"
             id="path13" />
        </g>
      </g>
    </g>
    <g
       id="flowRoot1307-0"
       style="font-size:40px;line-height:0.01%;font-family:'Liberation Sans';-inkscape-font-specification:'Liberation Sans, Normal';text-align:center;text-anchor:middle"
       transform="translate(190.91479,341.51865)"
       aria-label="your&#10;software">
      <path
         style="fill:black;line-height:1.25"
         d="m -54.860352,-76.684667 h 5.839844 l 4.960938,14.726563 4.84375,-14.726563 h 5.683593 l -7.324218,19.960938 -1.308594,3.613281 q -0.722656,1.816406 -1.386719,2.773437 -0.644531,0.957032 -1.503906,1.542969 -0.839844,0.605469 -2.089844,0.9375 -1.230469,0.332031 -2.792969,0.332031 -1.582031,0 -3.105468,-0.332031 l -0.488282,-4.296875 q 1.289063,0.253906 2.324219,0.253906 1.914063,0 2.832031,-1.132812 0.917969,-1.113281 1.40625,-2.851563 z m 23.574219,10.078125 q 0,-2.734375 1.347656,-5.292969 1.347657,-2.558593 3.808594,-3.90625 2.480469,-1.347656 5.527344,-1.347656 4.707031,0 7.714844,3.066406 3.0078122,3.046875 3.0078122,7.714844 0,4.707031 -3.0468752,7.8125 -3.027344,3.085938 -7.636719,3.085938 -2.851562,0 -5.449218,-1.289063 -2.578125,-1.289062 -3.925782,-3.769531 -1.347656,-2.5 -1.347656,-6.074219 z m 5.625,0.292969 q 0,3.085937 1.464844,4.726562 1.464844,1.640625 3.613281,1.640625 2.148438,0 3.59375,-1.640625 1.464844,-1.640625 1.464844,-4.765625 0,-3.046875 -1.464844,-4.6875 -1.445312,-1.640625 -3.59375,-1.640625 -2.148437,0 -3.613281,1.640625 -1.464844,1.640625 -1.464844,4.726563 z m 33.7304689,10.371094 v -3.105469 q -1.1328125,1.660156 -2.9882812,2.617187 -1.8359375,0.957032 -3.8867188,0.957032 -2.08984371,0 -3.75,-0.917969 -1.6601562,-0.917969 -2.4023437,-2.578125 -0.7421875,-1.660156 -0.7421875,-4.589844 v -13.125 h 5.48828124 v 9.53125 q 0,4.375 0.29296875,5.371094 0.3125,0.976562 1.11328121,1.5625 0.8007813,0.566406 2.03125,0.566406 1.40625,0 2.5195313,-0.761719 1.1132812,-0.78125 1.5234375,-1.914062 0.4101562,-1.152344 0.4101562,-5.605469 v -8.75 h 5.4882811 v 20.742188 z m 16.0351561,0 h -5.488281 v -20.742188 h 5.097656 v 2.949219 q 1.308594,-2.089844 2.34375,-2.753906 1.054688,-0.664063 2.382813,-0.664063 1.875,0 3.613281,1.035156 l -1.699219,4.785157 q -1.386719,-0.898438 -2.578125,-0.898438 -1.152344,0 -1.953125,0.644531 -0.800781,0.625 -1.269531,2.285157 -0.449219,1.660156 -0.449219,6.953125 z"
         id="path14" />
      <path
         style="fill:black;line-height:1.25"
         d="m -93.102539,-11.860448 5.507812,-0.839844 q 0.351563,1.601563 1.425782,2.441406 1.074218,0.8203129 3.007812,0.8203129 2.128906,0 3.203125,-0.7812499 0.722656,-0.546875 0.722656,-1.464844 0,-0.625 -0.390625,-1.035156 -0.410156,-0.390625 -1.835937,-0.722656 -6.640625,-1.464844 -8.417969,-2.675782 -2.460937,-1.679687 -2.460937,-4.667968 0,-2.695313 2.128906,-4.53125 2.128906,-1.835938 6.601562,-1.835938 4.257813,0 6.328125,1.386719 2.070313,1.386719 2.851563,4.101562 l -5.175781,0.957032 q -0.332032,-1.210938 -1.269532,-1.855469 -0.917968,-0.644531 -2.636718,-0.644531 -2.167969,0 -3.105469,0.605468 -0.625,0.429688 -0.625,1.113282 0,0.585937 0.546875,0.996093 0.742187,0.546875 5.117187,1.542969 4.394532,0.996094 6.132813,2.441406 1.71875,1.464844 1.71875,4.082032 0,2.8515621 -2.382813,4.9023434 -2.382812,2.0507812 -7.050781,2.0507812 -4.238281,0 -6.71875,-1.71875 -2.460937,-1.71875 -3.222656,-4.6679686 z m 22.910156,-4.746094 q 0,-2.734375 1.347656,-5.292969 1.347657,-2.558593 3.808594,-3.90625 2.480469,-1.347656 5.527344,-1.347656 4.707031,0 7.714844,3.066406 3.007812,3.046875 3.007812,7.714844 0,4.707031 -3.046875,7.8125001 -3.027344,3.0859375 -7.636719,3.0859375 -2.851562,0 -5.449218,-1.2890625 -2.578125,-1.2890625 -3.925782,-3.7695311 -1.347656,-2.5 -1.347656,-6.074219 z m 5.625,0.292969 q 0,3.085937 1.464844,4.726562 1.464844,1.6406254 3.613281,1.6406254 2.148438,0 3.59375,-1.6406254 1.464844,-1.640625 1.464844,-4.765625 0,-3.046875 -1.464844,-4.6875 -1.445312,-1.640625 -3.59375,-1.640625 -2.148437,0 -3.613281,1.640625 -1.464844,1.640625 -1.464844,4.726563 z m 17.675781,-10.371094 h 3.046875 v -1.5625 q 0,-2.617187 0.546875,-3.90625 0.566407,-1.289062 2.050782,-2.089844 1.503906,-0.820312 3.789062,-0.820312 2.34375,0 4.589844,0.703125 l -0.742188,3.828125 q -1.308593,-0.3125 -2.519531,-0.3125 -1.191406,0 -1.71875,0.566406 -0.507812,0.546875 -0.507812,2.128906 v 1.464844 h 4.101562 v 4.316406 h -4.101562 v 16.4257816 h -5.488282 V -22.368261 h -3.046875 z m 25.234375,0 v 4.375 h -3.75 v 8.359375 q 0,2.539063 0.09766,2.96875 0.117187,0.410156 0.488281,0.683594 0.390625,0.273437 0.9375,0.273437 0.761719,0 2.207031,-0.527343 l 0.46875,4.2578121 q -1.914062,0.8203125 -4.335937,0.8203125 -1.484375,0 -2.675782,-0.4882812 -1.191406,-0.5078125 -1.757812,-1.2890625 -0.546875,-0.8007813 -0.761719,-2.1484375 -0.175781,-0.9570314 -0.175781,-3.8671874 v -9.042969 h -2.519531 v -4.375 h 2.519531 v -4.121094 l 5.507812,-3.203125 v 7.324219 z m 7.675782,20.7421876 -6.5625,-20.7421876 h 5.332031 l 3.886719,13.59375 3.5742184,-13.59375 h 5.2929688 l 3.45703124,13.59375 3.96484376,-13.59375 H 10.374023 L 3.7138672,-5.9424794 h -5.2734375 l -3.5742188,-13.3398436 -3.515625,13.3398436 z m 31.347656,-14.4140626 -4.980469,-0.898437 q 0.839844,-3.007813 2.890625,-4.453125 2.050781,-1.445313 6.09375,-1.445313 3.671875,0 5.46875,0.878906 1.796875,0.859375 2.519531,2.207032 0.742188,1.328125 0.742188,4.902343 l -0.05859,6.40625 q 0,2.734375 0.253906,4.0429691 0.273438,1.2890625 0.996094,2.7734375 h -5.429687 q -0.214844,-0.546875 -0.527344,-1.6210937 -0.136719,-0.4882813 -0.195313,-0.6445313 -1.40625,1.3671875 -3.007812,2.0507813 -1.601563,0.6835937 -3.417969,0.6835937 -3.203125,0 -5.058594,-1.7382812 -1.835937,-1.7382813 -1.835937,-4.3945314 0,-1.757812 0.839844,-3.125 0.839843,-1.386719 2.34375,-2.109375 1.523437,-0.742187 4.375,-1.289062 3.847656,-0.722657 5.332031,-1.347657 v -0.546875 q 0,-1.582031 -0.78125,-2.246093 -0.78125,-0.683594 -2.949219,-0.683594 -1.464844,0 -2.285156,0.585937 -0.820313,0.566407 -1.328125,2.011719 z m 7.34375,4.453125 q -1.054688,0.351563 -3.339844,0.839844 -2.285156,0.488281 -2.988281,0.957031 -1.074219,0.761719 -1.074219,1.933594 0,1.152344 0.859375,1.992187 0.859375,0.8398441 2.1875,0.8398441 1.484375,0 2.832031,-0.9765621 0.996094,-0.742188 1.308594,-1.816407 0.214844,-0.703125 0.214844,-2.675781 z m 16.054687,9.9609376 H 35.276367 V -26.684667 h 5.097656 v 2.949219 q 1.308594,-2.089844 2.34375,-2.753906 1.054688,-0.664063 2.382813,-0.664063 1.875,0 3.613281,1.035156 l -1.699219,4.785157 q -1.386718,-0.898438 -2.578125,-0.898438 -1.152343,0 -1.953125,0.644531 -0.800781,0.625 -1.269531,2.285157 -0.449219,1.660156 -0.449219,6.953125 z m 22.324219,-6.6015626 5.46875,0.917969 q -1.054687,3.0078124 -3.339844,4.5898436 -2.265625,1.5625 -5.683593,1.5625 -5.410157,0 -8.007813,-3.5351562 -2.050781,-2.8320314 -2.050781,-7.1484374 0,-5.15625 2.695312,-8.066406 2.695313,-2.929688 6.816407,-2.929688 4.628906,0 7.304687,3.066406 2.675781,3.046875 2.558594,9.355469 h -13.75 q 0.05859,2.441406 1.328125,3.808594 1.269531,1.3476561 3.164062,1.3476561 1.289063,0 2.167969,-0.7031251 0.878906,-0.703125 1.328125,-2.265625 z m 0.3125,-5.546875 q -0.05859,-2.382812 -1.230469,-3.613281 -1.171875,-1.25 -2.851562,-1.25 -1.796875,0 -2.96875,1.308594 -1.171875,1.308593 -1.152344,3.554687 z"
         id="path15" />
    </g>
  </g>
</svg>
