<?xml version="1.0" encoding="UTF-8" standalone="no"?>
<!-- Created with Inkscape (http://www.inkscape.org/) -->

<svg
   width="800"
   height="600"
   id="svg2"
   version="1.1"
   xmlns="http://www.w3.org/2000/svg"
   xmlns:svg="http://www.w3.org/2000/svg"
   xmlns:rdf="http://www.w3.org/1999/02/22-rdf-syntax-ns#"
   xmlns:cc="http://creativecommons.org/ns#"
   xmlns:dc="http://purl.org/dc/elements/1.1/">
  <defs
     id="defs4" />
  <metadata
     id="metadata7">
    <rdf:RDF>
      <cc:Work
         rdf:about="">
        <dc:format>image/svg+xml</dc:format>
        <dc:type
           rdf:resource="http://purl.org/dc/dcmitype/StillImage" />
        <dc:language>en</dc:language>
        <cc:license
           rdf:resource="https://timefold.ai/license" />
      </cc:Work>
    </rdf:RDF>
  </metadata>
  <g
     id="layer1"
     transform="translate(0,-452.36218)"
     style="display:inline">
    <g
       id="g3709"
       transform="translate(0,19.999997)" />
    <flowRoot
       xml:space="preserve"
       id="flowRoot4157"
       style="font-style:normal;font-weight:normal;line-height:0.01%;font-family:sans-serif;letter-spacing:0px;word-spacing:0px;fill:#000000;fill-opacity:1;stroke:none"><flowRegion
         id="flowRegion4159"
         style="font-family:sans-serif"><rect
           id="rect4161"
           width="10.955056"
           height="72.471909"
           x="16.011236"
           y="-53.932568" /></flowRegion><flowPara
         id="flowPara4163"
         style="font-size:40px;line-height:1.25;font-family:sans-serif"> </flowPara></flowRoot>
    <path
       style="font-size:36px;line-height:1.25;font-family:'Liberation Sans';-inkscape-font-specification:'Liberation Sans, Normal';text-align:center;text-anchor:middle"
       d="m 216.6123,229.87638 q 0,-6.41602 3.44532,-10.03711 3.44531,-3.63867 8.89453,-3.63867 3.56836,0 6.43359,1.70507 2.86524,1.70508 4.35938,4.76368 1.51172,3.04101 1.51172,6.9082 0,3.91992 -1.58204,7.01367 -1.58203,3.09375 -4.48242,4.69336 -2.90039,1.58203 -6.25781,1.58203 -3.63867,0 -6.50391,-1.75781 -2.86523,-1.75781 -4.34179,-4.79883 -1.47657,-3.04101 -1.47657,-6.43359 z m 3.51563,0.0527 q 0,4.65821 2.49609,7.34766 2.51368,2.67187 6.29297,2.67187 3.84961,0 6.32813,-2.70703 2.49609,-2.70703 2.49609,-7.68164 0,-3.14648 -1.07226,-5.48437 -1.05469,-2.35547 -3.11133,-3.63868 -2.03907,-1.30078 -4.58789,-1.30078 -3.6211,0 -6.24024,2.4961 -2.60156,2.47851 -2.60156,8.29687 z m 30.30469,12.49805 -7.10157,-18.66797 h 3.33985 l 4.00781,11.17969 q 0.65039,1.81054 1.19531,3.76172 0.42188,-1.47657 1.17774,-3.55078 l 4.14844,-11.39063 h 3.25195 l -7.06641,18.66797 z m 25.59375,-6.01172 3.26953,0.4043 q -0.77344,2.86523 -2.86524,4.44726 -2.09179,1.58203 -5.34375,1.58203 -4.0957,0 -6.5039,-2.51367 -2.39063,-2.53125 -2.39063,-7.08398 0,-4.71094 2.42578,-7.3125 2.42579,-2.60156 6.29297,-2.60156 3.74414,0 6.11719,2.54882 2.37305,2.54883 2.37305,7.17188 0,0.28125 -0.0176,0.84375 h -13.92188 q 0.17579,3.07617 1.74024,4.71094 1.56445,1.63476 3.90234,1.63476 1.74024,0 2.97071,-0.91406 1.23046,-0.91406 1.95117,-2.91797 z m -10.38867,-5.11523 h 10.42382 q -0.21093,-2.35547 -1.19531,-3.53321 -1.51172,-1.82812 -3.91992,-1.82812 -2.17969,0 -3.67383,1.45898 -1.47656,1.45899 -1.63476,3.90235 z m 17.5957,11.12695 v -18.66797 h 2.84765 v 2.83008 q 1.08985,-1.98633 2.00391,-2.61914 0.93164,-0.63281 2.03906,-0.63281 1.59961,0 3.25196,1.01953 l -1.08985,2.93554 q -1.16015,-0.68554 -2.32031,-0.68554 -1.03711,0 -1.86328,0.63281 -0.82617,0.61523 -1.17774,1.72266 -0.52734,1.6875 -0.52734,3.6914 v 9.77344 z m 24.20508,-6.83789 3.11132,0.4043 q -0.50976,3.21679 -2.61914,5.04492 -2.09179,1.81054 -5.15039,1.81054 -3.83203,0 -6.16992,-2.49609 -2.32031,-2.51367 -2.32031,-7.18945 0,-3.02344 1.00195,-5.29102 1.00196,-2.26758 3.04102,-3.39258 2.05664,-1.14257 4.46484,-1.14257 3.04102,0 4.97461,1.54687 1.93359,1.5293 2.47852,4.35938 l -3.07618,0.4746 q -0.43945,-1.88085 -1.56445,-2.83007 -1.10742,-0.94922 -2.68945,-0.94922 -2.39063,0 -3.88477,1.72265 -1.49414,1.70508 -1.49414,5.41407 0,3.76172 1.44141,5.46679 1.4414,1.70508 3.76172,1.70508 1.86328,0 3.11133,-1.14258 1.24804,-1.14257 1.58203,-3.51562 z m 4.64062,-2.4961 q 0,-5.18554 2.88281,-7.68164 2.40821,-2.07421 5.8711,-2.07421 3.84961,0 6.29297,2.53125 2.44336,2.51367 2.44336,6.96093 0,3.60352 -1.08985,5.67774 -1.07226,2.05664 -3.14648,3.19922 -2.05664,1.14257 -4.5,1.14257 -3.91992,0 -6.34571,-2.51367 -2.4082,-2.51367 -2.4082,-7.24219 z m 3.25195,0 q 0,3.58594 1.56446,5.37891 1.56445,1.77539 3.9375,1.77539 2.35547,0 3.91992,-1.79297 1.56445,-1.79297 1.56445,-5.46679 0,-3.46289 -1.58203,-5.23829 -1.56445,-1.79296 -3.90234,-1.79296 -2.37305,0 -3.9375,1.77539 -1.56446,1.77539 -1.56446,5.36132 z m 17.94727,9.33399 v -18.66797 h 2.84766 v 2.6543 q 2.05664,-3.07617 5.9414,-3.07617 1.6875,0 3.09375,0.61523 1.42383,0.59766 2.12696,1.58203 0.70312,0.98438 0.98437,2.33789 0.17578,0.87891 0.17578,3.07617 v 11.47852 h -3.16406 v -11.35547 q 0,-1.93359 -0.36914,-2.88281 -0.36914,-0.9668 -1.31836,-1.5293 -0.93164,-0.58008 -2.19727,-0.58008 -2.02148,0 -3.49804,1.28321 -1.45899,1.2832 -1.45899,4.86914 v 10.19531 z m 18.75586,-5.57227 3.12891,-0.49218 q 0.26367,1.88086 1.45898,2.88281 1.21289,1.00195 3.375,1.00195 2.17969,0 3.23438,-0.8789 1.05468,-0.89649 1.05468,-2.0918 0,-1.07227 -0.93164,-1.6875 -0.65039,-0.42188 -3.23437,-1.07227 -3.48047,-0.8789 -4.83399,-1.51172 -1.33593,-0.65039 -2.03906,-1.77539 -0.68555,-1.14257 -0.68555,-2.51367 0,-1.24805 0.5625,-2.30273 0.58008,-1.07227 1.56446,-1.77539 0.73828,-0.54493 2.0039,-0.91407 1.28321,-0.38671 2.74219,-0.38671 2.19727,0 3.84961,0.63281 1.66992,0.63281 2.46094,1.72265 0.79101,1.07227 1.08984,2.88282 l -3.09375,0.42187 q -0.21094,-1.4414 -1.23047,-2.25 -1.00195,-0.80859 -2.84765,-0.80859 -2.17969,0 -3.11133,0.7207 -0.93164,0.7207 -0.93164,1.6875 0,0.61524 0.38672,1.10742 0.38671,0.50977 1.21289,0.84375 0.47461,0.17578 2.79492,0.8086 3.35742,0.89648 4.67578,1.47656 1.33594,0.5625 2.0918,1.65234 0.75586,1.08985 0.75586,2.70703 0,1.58204 -0.93164,2.98829 -0.91407,1.38867 -2.6543,2.1621 -1.74024,0.75586 -3.9375,0.75586 -3.63867,0 -5.55469,-1.51171 -1.89844,-1.51172 -2.42578,-4.48243 z m 26.17383,2.74219 0.45703,2.79492 q -1.33594,0.28125 -2.39063,0.28125 -1.72265,0 -2.67187,-0.54492 -0.94922,-0.54492 -1.33594,-1.42383 -0.38672,-0.89648 -0.38672,-3.74414 v -10.74023 h -2.32031 v -2.46094 h 2.32031 v -4.62305 l 3.14649,-1.89843 v 6.52148 h 3.18164 v 2.46094 h -3.18164 v 10.91601 q 0,1.35352 0.1582,1.74024 0.17578,0.38672 0.54492,0.61523 0.38672,0.22852 1.08985,0.22852 0.52734,0 1.38867,-0.12305 z m 3.05859,2.83008 v -18.66797 h 2.84766 v 2.83008 q 1.08984,-1.98633 2.0039,-2.61914 0.93164,-0.63281 2.03907,-0.63281 1.59961,0 3.25195,1.01953 l -1.08984,2.93554 q -1.16016,-0.68554 -2.32032,-0.68554 -1.03711,0 -1.86328,0.63281 -0.82617,0.61523 -1.17773,1.72266 -0.52735,1.6875 -0.52735,3.6914 v 9.77344 z m 24.20508,-2.30274 q -1.75781,1.49415 -3.39258,2.10938 -1.61719,0.61523 -3.48047,0.61523 -3.07617,0 -4.72851,-1.49414 -1.65235,-1.51172 -1.65235,-3.84961 0,-1.37109 0.61524,-2.49609 0.63281,-1.14258 1.63476,-1.82812 1.01953,-0.68555 2.28516,-1.03711 0.93164,-0.2461 2.8125,-0.47461 3.83203,-0.45703 5.64258,-1.08985 0.0176,-0.65039 0.0176,-0.82617 0,-1.93359 -0.89649,-2.72461 -1.21289,-1.07226 -3.60351,-1.07226 -2.23243,0 -3.30469,0.79101 -1.05469,0.77344 -1.56445,2.75977 l -3.09375,-0.42188 q 0.42187,-1.98633 1.38867,-3.19922 0.96679,-1.23047 2.79492,-1.88086 1.82812,-0.66796 4.23633,-0.66796 2.39062,0 3.88476,0.5625 1.49414,0.5625 2.19727,1.42382 0.70312,0.84375 0.98437,2.14453 0.15821,0.8086 0.15821,2.91797 v 4.21875 q 0,4.41211 0.19336,5.58985 0.21093,1.16015 0.80859,2.23242 h -3.30469 q -0.49219,-0.98438 -0.63281,-2.30274 z m -0.26367,-7.0664 q -1.72266,0.70312 -5.16797,1.19531 -1.95117,0.28125 -2.75977,0.63281 -0.80859,0.35157 -1.24804,1.03711 -0.43946,0.66797 -0.43946,1.49414 0,1.26563 0.94922,2.10938 0.9668,0.84375 2.8125,0.84375 1.82813,0 3.25196,-0.79102 1.42382,-0.80859 2.09179,-2.19726 0.50977,-1.07227 0.50977,-3.16407 z m 8.12109,-12.76172 v -3.63867 h 3.16406 v 3.63867 z m 0,22.13086 v -18.66797 h 3.16406 v 18.66797 z m 7.98047,0 v -18.66797 h 2.84766 v 2.6543 q 2.05664,-3.07617 5.9414,-3.07617 1.6875,0 3.09375,0.61523 1.42383,0.59766 2.12696,1.58203 0.70312,0.98438 0.98437,2.33789 0.17578,0.87891 0.17578,3.07617 v 11.47852 h -3.16406 v -11.35547 q 0,-1.93359 -0.36914,-2.88281 -0.36914,-0.9668 -1.31836,-1.5293 -0.93164,-0.58008 -2.19727,-0.58008 -2.02148,0 -3.49804,1.28321 -1.45899,1.2832 -1.45899,4.86914 v 10.19531 z m 32.80078,-6.01172 3.26953,0.4043 q -0.77343,2.86523 -2.86523,4.44726 -2.0918,1.58203 -5.34375,1.58203 -4.0957,0 -6.50391,-2.51367 -2.39062,-2.53125 -2.39062,-7.08398 0,-4.71094 2.42578,-7.3125 2.42578,-2.60156 6.29297,-2.60156 3.74414,0 6.11718,2.54882 2.37305,2.54883 2.37305,7.17188 0,0.28125 -0.0176,0.84375 H 443.5459 q 0.17578,3.07617 1.74023,4.71094 1.56446,1.63476 3.90235,1.63476 1.74023,0 2.9707,-0.91406 1.23047,-0.91406 1.95117,-2.91797 z m -10.38867,-5.11523 h 10.42383 q -0.21094,-2.35547 -1.19531,-3.53321 -1.51172,-1.82812 -3.91993,-1.82812 -2.17968,0 -3.67382,1.45898 -1.47657,1.45899 -1.63477,3.90235 z m 29.74219,11.12695 v -2.35547 q -1.77539,2.77734 -5.22071,2.77734 -2.23242,0 -4.11328,-1.23046 -1.86328,-1.23047 -2.90039,-3.42774 -1.01953,-2.21484 -1.01953,-5.08008 0,-2.79492 0.93164,-5.0625 0.93164,-2.28515 2.79492,-3.49804 1.86328,-1.21289 4.16602,-1.21289 1.6875,0 3.00586,0.7207 1.31836,0.70312 2.14453,1.8457 v -9.24609 h 3.14648 v 25.76953 z m -10.00196,-9.31641 q 0,3.58594 1.51172,5.36133 1.51172,1.77539 3.56836,1.77539 2.07422,0 3.51563,-1.6875 1.45898,-1.70508 1.45898,-5.18555 0,-3.83203 -1.47656,-5.625 -1.47656,-1.79296 -3.63867,-1.79296 -2.10938,0 -3.53321,1.72265 -1.40625,1.72266 -1.40625,5.43164 z m 27.91407,16.47071 v -25.82227 h 2.88281 v 2.42578 q 1.01953,-1.42383 2.30273,-2.12695 1.28321,-0.7207 3.11133,-0.7207 2.39063,0 4.21875,1.23046 1.82813,1.23047 2.75977,3.48047 0.93164,2.23242 0.93164,4.9043 0,2.86523 -1.03711,5.16797 -1.01953,2.28515 -2.98828,3.51562 -1.95117,1.21289 -4.11328,1.21289 -1.58204,0 -2.84766,-0.66796 -1.24805,-0.66797 -2.05664,-1.6875 v 9.08789 z m 2.86523,-16.38282 q 0,3.60352 1.45899,5.32618 1.45898,1.72265 3.5332,1.72265 2.10937,0 3.60351,-1.77539 1.51172,-1.79297 1.51172,-5.53711 0,-3.56836 -1.47656,-5.34375 -1.45898,-1.77539 -3.49805,-1.77539 -2.02148,0 -3.58593,1.89844 -1.54688,1.88086 -1.54688,5.48437 z m 17.08594,9.22852 v -25.76953 h 3.16406 v 25.76953 z m 20.25,-2.30274 q -1.75781,1.49415 -3.39258,2.10938 -1.61719,0.61523 -3.48047,0.61523 -3.07617,0 -4.72851,-1.49414 -1.65235,-1.51172 -1.65235,-3.84961 0,-1.37109 0.61524,-2.49609 0.63281,-1.14258 1.63476,-1.82812 1.01953,-0.68555 2.28516,-1.03711 0.93164,-0.2461 2.8125,-0.47461 3.83203,-0.45703 5.64258,-1.08985 0.0176,-0.65039 0.0176,-0.82617 0,-1.93359 -0.89648,-2.72461 -1.21289,-1.07226 -3.60352,-1.07226 -2.23242,0 -3.30468,0.79101 -1.05469,0.77344 -1.56446,2.75977 l -3.09375,-0.42188 q 0.42188,-1.98633 1.38868,-3.19922 0.96679,-1.23047 2.79492,-1.88086 1.82812,-0.66796 4.23633,-0.66796 2.39062,0 3.88476,0.5625 1.49414,0.5625 2.19727,1.42382 0.70312,0.84375 0.98437,2.14453 0.15821,0.8086 0.15821,2.91797 v 4.21875 q 0,4.41211 0.19335,5.58985 0.21094,1.16015 0.8086,2.23242 h -3.30469 q -0.49219,-0.98438 -0.63281,-2.30274 z m -0.26367,-7.0664 q -1.72266,0.70312 -5.16797,1.19531 -1.95117,0.28125 -2.75977,0.63281 -0.80859,0.35157 -1.24804,1.03711 -0.43946,0.66797 -0.43946,1.49414 0,1.26563 0.94922,2.10938 0.9668,0.84375 2.8125,0.84375 1.82813,0 3.25195,-0.79102 1.42383,-0.80859 2.0918,-2.19726 0.50977,-1.07227 0.50977,-3.16407 z m 8.10351,9.36914 v -18.66797 h 2.84766 v 2.6543 q 2.05664,-3.07617 5.9414,-3.07617 1.6875,0 3.09375,0.61523 1.42383,0.59766 2.12696,1.58203 0.70312,0.98438 0.98437,2.33789 0.17578,0.87891 0.17578,3.07617 v 11.47852 h -3.16406 v -11.35547 q 0,-1.93359 -0.36914,-2.88281 -0.36914,-0.9668 -1.31836,-1.5293 -0.93164,-0.58008 -2.19726,-0.58008 -2.02149,0 -3.49805,1.28321 -1.45899,1.2832 -1.45899,4.86914 v 10.19531 z m 20.02149,0 v -18.66797 h 2.84765 v 2.6543 q 2.05664,-3.07617 5.94141,-3.07617 1.6875,0 3.09375,0.61523 1.42383,0.59766 2.12695,1.58203 0.70313,0.98438 0.98438,2.33789 0.17578,0.87891 0.17578,3.07617 v 11.47852 h -3.16406 v -11.35547 q 0,-1.93359 -0.36914,-2.88281 -0.36915,-0.9668 -1.31836,-1.5293 -0.93164,-0.58008 -2.19727,-0.58008 -2.02148,0 -3.49805,1.28321 -1.45898,1.2832 -1.45898,4.86914 v 10.19531 z m 20.03906,-22.13086 v -3.63867 h 3.16406 v 3.63867 z m 0,22.13086 v -18.66797 h 3.16406 v 18.66797 z m 7.98047,0 v -18.66797 h 2.84765 v 2.6543 q 2.05664,-3.07617 5.94141,-3.07617 1.6875,0 3.09375,0.61523 1.42383,0.59766 2.12695,1.58203 0.70313,0.98438 0.98438,2.33789 0.17578,0.87891 0.17578,3.07617 v 11.47852 h -3.16406 v -11.35547 q 0,-1.93359 -0.36914,-2.88281 -0.36914,-0.9668 -1.31836,-1.5293 -0.93164,-0.58008 -2.19727,-0.58008 -2.02148,0 -3.49805,1.28321 -1.45898,1.2832 -1.45898,4.86914 v 10.19531 z m 19.4414,1.54687 3.07618,0.45704 q 0.19336,1.42382 1.07226,2.07421 1.17774,0.87891 3.2168,0.87891 2.19726,0 3.39258,-0.87891 1.19531,-0.8789 1.61718,-2.46093 0.2461,-0.9668 0.22852,-4.06055 -2.07422,2.44336 -5.16797,2.44336 -3.84961,0 -5.95898,-2.77734 -2.10938,-2.77735 -2.10938,-6.66211 0,-2.67188 0.9668,-4.92188 0.9668,-2.26758 2.79492,-3.49805 1.8457,-1.23046 4.32422,-1.23046 3.30469,0 5.44922,2.67187 v -2.25 h 2.91797 v 16.13672 q 0,4.35937 -0.89649,6.16992 -0.8789,1.82813 -2.8125,2.88281 -1.91601,1.05469 -4.72851,1.05469 -3.33985,0 -5.39649,-1.51172 -2.05664,-1.49414 -1.98633,-4.51758 z m 2.61914,-11.21484 q 0,3.67383 1.45899,5.36133 1.45898,1.6875 3.65625,1.6875 2.17969,0 3.65625,-1.66992 1.47656,-1.6875 1.47656,-5.27344 0,-3.42774 -1.5293,-5.16797 -1.51171,-1.74023 -3.65625,-1.74023 -2.10937,0 -3.58593,1.72265 -1.47657,1.70508 -1.47657,5.08008 z"
       id="flowRoot4302"
       transform="translate(-20,262.36198)"
       aria-label="Overconstrained planning" />
    <path
       style="font-size:16px;line-height:1.25;font-family:'Liberation Sans';-inkscape-font-specification:'Liberation Sans, Normal';text-align:center;text-anchor:middle"
       d="m 111.53906,154.41207 v -11.45312 h 1.51563 v 11.45312 z m 4.34375,0 v -7.20312 h -1.24218 v -1.09375 h 1.24218 v -0.88282 q 0,-0.83593 0.14844,-1.24218 0.20313,-0.54688 0.71094,-0.88282 0.51562,-0.34375 1.4375,-0.34375 0.59375,0 1.3125,0.14063 l -0.21094,1.22656 q -0.4375,-0.0781 -0.82812,-0.0781 -0.64063,0 -0.90625,0.27343 -0.26563,0.27344 -0.26563,1.02344 v 0.76563 h 1.61719 v 1.09375 h -1.61719 v 7.20312 z m 11.625,-1.25781 0.20313,1.24219 q -0.59375,0.125 -1.0625,0.125 -0.76563,0 -1.1875,-0.24219 -0.42188,-0.24219 -0.59375,-0.63281 -0.17188,-0.39844 -0.17188,-1.66407 v -4.77343 h -1.03125 v -1.09375 h 1.03125 v -2.05469 l 1.39844,-0.84375 v 2.89844 h 1.41406 v 1.09375 h -1.41406 v 4.85156 q 0,0.60156 0.0703,0.77344 0.0781,0.17187 0.24219,0.27343 0.17188,0.10157 0.48438,0.10157 0.23437,0 0.61718,-0.0547 z m 1.375,1.25781 v -11.45312 h 1.40625 v 4.10937 q 0.98438,-1.14062 2.48438,-1.14062 0.92187,0 1.60156,0.36718 0.67969,0.35938 0.96875,1 0.29687,0.64063 0.29687,1.85938 v 5.25781 h -1.40625 v -5.25781 q 0,-1.05469 -0.46093,-1.53125 -0.45313,-0.48438 -1.28907,-0.48438 -0.625,0 -1.17968,0.32813 -0.54688,0.32031 -0.78125,0.875 -0.23438,0.55469 -0.23438,1.53125 v 4.53906 z m 14.57813,-2.67187 1.45312,0.17968 q -0.34375,1.27344 -1.27344,1.97657 -0.92968,0.70312 -2.375,0.70312 -1.82031,0 -2.89062,-1.11719 -1.0625,-1.125 -1.0625,-3.14843 0,-2.09375 1.07812,-3.25 1.07813,-1.15625 2.79688,-1.15625 1.66406,0 2.71875,1.13281 1.05469,1.13281 1.05469,3.1875 0,0.125 -0.008,0.375 h -6.1875 q 0.0781,1.36719 0.77344,2.09375 0.69531,0.72656 1.73438,0.72656 0.77343,0 1.32031,-0.40625 0.54687,-0.40625 0.86719,-1.29687 z m -4.61719,-2.27344 h 4.63281 q -0.0937,-1.04688 -0.53125,-1.57031 -0.67187,-0.8125 -1.74219,-0.8125 -0.96875,0 -1.63281,0.64843 -0.65625,0.64844 -0.72656,1.73438 z m 7.82031,4.94531 v -8.29687 h 1.26563 v 1.25781 q 0.48437,-0.88281 0.89062,-1.16406 0.41406,-0.28125 0.90625,-0.28125 0.71094,0 1.44531,0.45312 l -0.48437,1.30469 q -0.51563,-0.30469 -1.03125,-0.30469 -0.46094,0 -0.82813,0.28125 -0.36718,0.27344 -0.52343,0.76563 -0.23438,0.75 -0.23438,1.64062 v 4.34375 z m 11.02344,-2.67187 1.45312,0.17968 q -0.34375,1.27344 -1.27343,1.97657 -0.92969,0.70312 -2.375,0.70312 -1.82032,0 -2.89063,-1.11719 -1.0625,-1.125 -1.0625,-3.14843 0,-2.09375 1.07813,-3.25 1.07812,-1.15625 2.79687,-1.15625 1.66406,0 2.71875,1.13281 1.05469,1.13281 1.05469,3.1875 0,0.125 -0.008,0.375 h -6.1875 q 0.0781,1.36719 0.77343,2.09375 0.69532,0.72656 1.73438,0.72656 0.77344,0 1.32031,-0.40625 0.54688,-0.40625 0.86719,-1.29687 z m -4.61719,-2.27344 h 4.63281 q -0.0937,-1.04688 -0.53125,-1.57031 -0.67187,-0.8125 -1.74218,-0.8125 -0.96875,0 -1.63282,0.64843 -0.65625,0.64844 -0.72656,1.73438 z m 12.28906,-4.89063 v -1.61718 h 1.40625 v 1.61718 z m 0,9.83594 v -8.29687 h 1.40625 v 8.29687 z m 2.98438,-2.47656 1.39062,-0.21875 q 0.11719,0.83594 0.64844,1.28125 0.53906,0.44531 1.5,0.44531 0.96875,0 1.4375,-0.39062 0.46875,-0.39844 0.46875,-0.92969 0,-0.47656 -0.41406,-0.75 -0.28906,-0.1875 -1.4375,-0.47656 -1.54688,-0.39063 -2.14844,-0.67188 -0.59375,-0.28906 -0.90625,-0.78906 -0.30469,-0.50781 -0.30469,-1.11719 0,-0.55469 0.25,-1.02344 0.25782,-0.47656 0.69532,-0.78906 0.32812,-0.24219 0.89062,-0.40625 0.57031,-0.17187 1.21875,-0.17187 0.97656,0 1.71094,0.28125 0.74219,0.28125 1.09375,0.76562 0.35156,0.47656 0.48437,1.28125 l -1.375,0.1875 q -0.0937,-0.64062 -0.54687,-1 -0.44531,-0.35937 -1.26563,-0.35937 -0.96875,0 -1.38281,0.32031 -0.41406,0.32031 -0.41406,0.75 0,0.27344 0.17187,0.49219 0.17188,0.22656 0.53907,0.375 0.21093,0.0781 1.24218,0.35937 1.49219,0.39844 2.07813,0.65625 0.59375,0.25 0.92969,0.73438 0.33593,0.48437 0.33593,1.20312 0,0.70313 -0.41406,1.32813 -0.40625,0.61718 -1.17969,0.96093 -0.77343,0.33594 -1.75,0.33594 -1.61718,0 -2.46875,-0.67187 -0.84375,-0.67188 -1.07812,-1.99219 z m 13.00781,2.47656 v -8.29687 h 1.26563 v 1.17968 q 0.91406,-1.36718 2.64062,-1.36718 0.75,0 1.375,0.27343 0.63281,0.26563 0.94531,0.70313 0.3125,0.4375 0.4375,1.03906 0.0781,0.39063 0.0781,1.36719 v 5.10156 h -1.40625 v -5.04687 q 0,-0.85938 -0.16406,-1.28125 -0.16407,-0.42969 -0.58594,-0.67969 -0.41406,-0.25781 -0.97656,-0.25781 -0.89844,0 -1.55469,0.57031 -0.64844,0.57031 -0.64844,2.16406 v 4.53125 z m 8.375,-4.14844 q 0,-2.30468 1.28125,-3.41406 1.07031,-0.92187 2.60938,-0.92187 1.71093,0 2.79687,1.125 1.08594,1.11718 1.08594,3.09375 0,1.60156 -0.48438,2.52343 -0.47656,0.91407 -1.39843,1.42188 -0.91407,0.50781 -2,0.50781 -1.74219,0 -2.82032,-1.11719 -1.07031,-1.11718 -1.07031,-3.21875 z m 1.44531,0 q 0,1.59375 0.69532,2.39063 0.69531,0.78906 1.75,0.78906 1.04687,0 1.74218,-0.79687 0.69532,-0.79688 0.69532,-2.42969 0,-1.53906 -0.70313,-2.32813 -0.69531,-0.79687 -1.73437,-0.79687 -1.05469,0 -1.75,0.78906 -0.69532,0.78906 -0.69532,2.38281 z m 12.75782,4.14844 v -7.20312 h -1.24219 v -1.09375 h 1.24219 v -0.88282 q 0,-0.83593 0.14843,-1.24218 0.20313,-0.54688 0.71094,-0.88282 0.51563,-0.34375 1.4375,-0.34375 0.59375,0 1.3125,0.14063 l -0.21094,1.22656 q -0.4375,-0.0781 -0.82812,-0.0781 -0.64063,0 -0.90625,0.27343 -0.26563,0.27344 -0.26563,1.02344 v 0.76563 h 1.61719 v 1.09375 h -1.61719 v 7.20312 z m 9.78906,-2.67187 1.45312,0.17968 q -0.34375,1.27344 -1.27343,1.97657 -0.92969,0.70312 -2.375,0.70312 -1.82032,0 -2.89063,-1.11719 -1.0625,-1.125 -1.0625,-3.14843 0,-2.09375 1.07813,-3.25 1.07812,-1.15625 2.79687,-1.15625 1.66406,0 2.71875,1.13281 1.05469,1.13281 1.05469,3.1875 0,0.125 -0.008,0.375 h -6.1875 q 0.0781,1.36719 0.77343,2.09375 0.69532,0.72656 1.73438,0.72656 0.77344,0 1.32031,-0.40625 0.54688,-0.40625 0.86719,-1.29687 z m -4.61719,-2.27344 h 4.63281 q -0.0937,-1.04688 -0.53125,-1.57031 -0.67187,-0.8125 -1.74218,-0.8125 -0.96875,0 -1.63282,0.64843 -0.65625,0.64844 -0.72656,1.73438 z m 13.25,3.92187 q -0.78125,0.66407 -1.50781,0.9375 -0.71875,0.27344 -1.54688,0.27344 -1.36718,0 -2.10156,-0.66406 -0.73437,-0.67188 -0.73437,-1.71094 0,-0.60937 0.27343,-1.10937 0.28125,-0.50782 0.72657,-0.8125 0.45312,-0.30469 1.01562,-0.46094 0.41406,-0.10938 1.25,-0.21094 1.70313,-0.20312 2.50781,-0.48437 0.008,-0.28907 0.008,-0.36719 0,-0.85938 -0.39844,-1.21094 -0.53906,-0.47656 -1.60156,-0.47656 -0.99219,0 -1.46875,0.35156 -0.46875,0.34375 -0.69532,1.22656 l -1.375,-0.1875 q 0.1875,-0.88281 0.61719,-1.42187 0.42969,-0.54688 1.24219,-0.83594 0.8125,-0.29687 1.88281,-0.29687 1.0625,0 1.72656,0.25 0.66407,0.25 0.97657,0.63281 0.3125,0.375 0.4375,0.95312 0.0703,0.35938 0.0703,1.29688 v 1.875 q 0,1.96094 0.0859,2.48437 0.0937,0.51563 0.35937,0.99219 h -1.46875 q -0.21875,-0.4375 -0.28125,-1.02344 z m -0.11719,-3.14062 q -0.76562,0.3125 -2.29687,0.53125 -0.86719,0.125 -1.22656,0.28125 -0.35938,0.15625 -0.55469,0.46094 -0.19531,0.29687 -0.19531,0.66406 0,0.5625 0.42187,0.9375 0.42969,0.375 1.25,0.375 0.8125,0 1.44531,-0.35156 0.63282,-0.35938 0.92969,-0.97657 0.22656,-0.47656 0.22656,-1.40625 z m 3.03907,1.6875 1.39062,-0.21875 q 0.11719,0.83594 0.64844,1.28125 0.53906,0.44531 1.5,0.44531 0.96875,0 1.4375,-0.39062 0.46875,-0.39844 0.46875,-0.92969 0,-0.47656 -0.41406,-0.75 -0.28907,-0.1875 -1.4375,-0.47656 -1.54688,-0.39063 -2.14844,-0.67188 -0.59375,-0.28906 -0.90625,-0.78906 -0.30469,-0.50781 -0.30469,-1.11719 0,-0.55469 0.25,-1.02344 0.25781,-0.47656 0.69531,-0.78906 0.32813,-0.24219 0.89063,-0.40625 0.57031,-0.17187 1.21875,-0.17187 0.97656,0 1.71094,0.28125 0.74218,0.28125 1.09375,0.76562 0.35156,0.47656 0.48437,1.28125 l -1.375,0.1875 q -0.0937,-0.64062 -0.54687,-1 -0.44532,-0.35937 -1.26563,-0.35937 -0.96875,0 -1.38281,0.32031 -0.41406,0.32031 -0.41406,0.75 0,0.27344 0.17187,0.49219 0.17188,0.22656 0.53906,0.375 0.21094,0.0781 1.24219,0.35937 1.49219,0.39844 2.07813,0.65625 0.59375,0.25 0.92968,0.73438 0.33594,0.48437 0.33594,1.20312 0,0.70313 -0.41406,1.32813 -0.40625,0.61718 -1.17969,0.96093 -0.77344,0.33594 -1.75,0.33594 -1.61719,0 -2.46875,-0.67187 -0.84375,-0.67188 -1.07812,-1.99219 z m 8.57031,-7.35938 v -1.61718 H 235.25 v 1.61718 z m 0,9.83594 V 146.1152 H 235.25 v 8.29687 z m 4.84375,0 h -1.30469 v -11.45312 h 1.40625 v 4.08593 q 0.89063,-1.11718 2.27344,-1.11718 0.76562,0 1.44531,0.3125 0.6875,0.30468 1.125,0.86718 0.44531,0.55469 0.69531,1.34375 0.25,0.78907 0.25,1.6875 0,2.13282 -1.05468,3.29688 -1.05469,1.16406 -2.53125,1.16406 -1.46875,0 -2.30469,-1.22656 z m -0.0156,-4.21094 q 0,1.49219 0.40625,2.15625 0.66407,1.08594 1.79688,1.08594 0.92187,0 1.59375,-0.79687 0.67187,-0.80469 0.67187,-2.39063 0,-1.625 -0.64843,-2.39844 -0.64063,-0.77343 -1.55469,-0.77343 -0.92188,0 -1.59375,0.80468 -0.67188,0.79688 -0.67188,2.3125 z m 7.58594,4.21094 v -11.45312 h 1.40625 v 11.45312 z m 9.26563,-2.67187 1.45312,0.17968 q -0.34375,1.27344 -1.27344,1.97657 -0.92968,0.70312 -2.375,0.70312 -1.82031,0 -2.89062,-1.11719 -1.0625,-1.125 -1.0625,-3.14843 0,-2.09375 1.07812,-3.25 1.07813,-1.15625 2.79688,-1.15625 1.66406,0 2.71875,1.13281 1.05469,1.13281 1.05469,3.1875 0,0.125 -0.008,0.375 h -6.1875 q 0.0781,1.36719 0.77344,2.09375 0.69531,0.72656 1.73438,0.72656 0.77343,0 1.32031,-0.40625 0.54687,-0.40625 0.86719,-1.29687 z m -4.61719,-2.27344 h 4.63281 q -0.0937,-1.04688 -0.53125,-1.57031 -0.67187,-0.8125 -1.74219,-0.8125 -0.96875,0 -1.63281,0.64843 -0.65625,0.64844 -0.72656,1.73438 z m 11.71875,2.46875 1.39062,-0.21875 q 0.11719,0.83594 0.64844,1.28125 0.53906,0.44531 1.5,0.44531 0.96875,0 1.4375,-0.39062 0.46875,-0.39844 0.46875,-0.92969 0,-0.47656 -0.41406,-0.75 -0.28906,-0.1875 -1.4375,-0.47656 -1.54688,-0.39063 -2.14844,-0.67188 -0.59375,-0.28906 -0.90625,-0.78906 -0.30469,-0.50781 -0.30469,-1.11719 0,-0.55469 0.25,-1.02344 0.25782,-0.47656 0.69532,-0.78906 0.32812,-0.24219 0.89062,-0.40625 0.57031,-0.17187 1.21875,-0.17187 0.97656,0 1.71094,0.28125 0.74219,0.28125 1.09375,0.76562 0.35156,0.47656 0.48437,1.28125 l -1.375,0.1875 q -0.0937,-0.64062 -0.54687,-1 -0.44531,-0.35937 -1.26563,-0.35937 -0.96875,0 -1.38281,0.32031 -0.41406,0.32031 -0.41406,0.75 0,0.27344 0.17187,0.49219 0.17188,0.22656 0.53907,0.375 0.21093,0.0781 1.24218,0.35937 1.49219,0.39844 2.07813,0.65625 0.59375,0.25 0.92969,0.73438 0.33593,0.48437 0.33593,1.20312 0,0.70313 -0.41406,1.32813 -0.40625,0.61718 -1.17969,0.96093 -0.77343,0.33594 -1.75,0.33594 -1.61718,0 -2.46875,-0.67187 -0.84375,-0.67188 -1.07812,-1.99219 z m 8.03906,-1.67188 q 0,-2.30468 1.28125,-3.41406 1.07031,-0.92187 2.60938,-0.92187 1.71093,0 2.79687,1.125 1.08594,1.11718 1.08594,3.09375 0,1.60156 -0.48438,2.52343 -0.47656,0.91407 -1.39843,1.42188 -0.91407,0.50781 -2,0.50781 -1.74219,0 -2.82032,-1.11719 -1.07031,-1.11718 -1.07031,-3.21875 z m 1.44531,0 q 0,1.59375 0.69532,2.39063 0.69531,0.78906 1.75,0.78906 1.04687,0 1.74218,-0.79687 0.69532,-0.79688 0.69532,-2.42969 0,-1.53906 -0.70313,-2.32813 -0.69531,-0.79687 -1.73437,-0.79687 -1.05469,0 -1.75,0.78906 -0.69532,0.78906 -0.69532,2.38281 z m 7.94532,4.14844 v -11.45312 h 1.40625 v 11.45312 z m 9.02343,0 v -1.21875 q -0.96875,1.40625 -2.63281,1.40625 -0.73437,0 -1.375,-0.28125 -0.63281,-0.28125 -0.94531,-0.70312 -0.30469,-0.42969 -0.42969,-1.04688 -0.0859,-0.41406 -0.0859,-1.3125 v -5.14062 h 1.40625 v 4.60156 q 0,1.10156 0.0859,1.48437 0.13281,0.55469 0.5625,0.875 0.42969,0.3125 1.0625,0.3125 0.63281,0 1.1875,-0.32031 0.55469,-0.32812 0.78125,-0.88281 0.23438,-0.5625 0.23438,-1.625 v -4.44531 h 1.40625 v 8.29687 z m 6.53125,-1.25781 0.20313,1.24219 q -0.59375,0.125 -1.0625,0.125 -0.76563,0 -1.1875,-0.24219 -0.42188,-0.24219 -0.59375,-0.63281 -0.17188,-0.39844 -0.17188,-1.66407 v -4.77343 h -1.03125 v -1.09375 h 1.03125 v -2.05469 l 1.39844,-0.84375 v 2.89844 h 1.41406 v 1.09375 h -1.41406 v 4.85156 q 0,0.60156 0.0703,0.77344 0.0781,0.17187 0.24219,0.27343 0.17188,0.10157 0.48438,0.10157 0.23437,0 0.61718,-0.0547 z m 1.38282,-8.57813 v -1.61718 h 1.40625 v 1.61718 z m 0,9.83594 v -8.29687 h 1.40625 v 8.29687 z m 3.02343,-4.14844 q 0,-2.30468 1.28125,-3.41406 1.07032,-0.92187 2.60938,-0.92187 1.71094,0 2.79687,1.125 1.08594,1.11718 1.08594,3.09375 0,1.60156 -0.48437,2.52343 -0.47657,0.91407 -1.39844,1.42188 -0.91406,0.50781 -2,0.50781 -1.74219,0 -2.82031,-1.11719 -1.07032,-1.11718 -1.07032,-3.21875 z m 1.44532,0 q 0,1.59375 0.69531,2.39063 0.69531,0.78906 1.75,0.78906 1.04687,0 1.74219,-0.79687 0.69531,-0.79688 0.69531,-2.42969 0,-1.53906 -0.70313,-2.32813 -0.69531,-0.79687 -1.73437,-0.79687 -1.05469,0 -1.75,0.78906 -0.69531,0.78906 -0.69531,2.38281 z m 7.97656,4.14844 v -8.29687 h 1.26562 v 1.17968 q 0.91407,-1.36718 2.64063,-1.36718 0.75,0 1.375,0.27343 0.63281,0.26563 0.94531,0.70313 0.3125,0.4375 0.4375,1.03906 0.0781,0.39063 0.0781,1.36719 v 5.10156 h -1.40625 v -5.04687 q 0,-0.85938 -0.16407,-1.28125 -0.16406,-0.42969 -0.58593,-0.67969 -0.41407,-0.25781 -0.97657,-0.25781 -0.89843,0 -1.55468,0.57031 -0.64844,0.57031 -0.64844,2.16406 v 4.53125 z m 16.41406,-1.25781 0.20313,1.24219 q -0.59375,0.125 -1.0625,0.125 -0.76563,0 -1.1875,-0.24219 -0.42188,-0.24219 -0.59375,-0.63281 -0.17188,-0.39844 -0.17188,-1.66407 v -4.77343 h -1.03125 v -1.09375 h 1.03125 v -2.05469 l 1.39844,-0.84375 v 2.89844 h 1.41406 v 1.09375 h -1.41406 v 4.85156 q 0,0.60156 0.0703,0.77344 0.0781,0.17187 0.24219,0.27343 0.17187,0.10157 0.48437,0.10157 0.23438,0 0.61719,-0.0547 z m 1.375,1.25781 v -11.45312 h 1.40625 v 4.10937 q 0.98438,-1.14062 2.48438,-1.14062 0.92187,0 1.60156,0.36718 0.67969,0.35938 0.96875,1 0.29687,0.64063 0.29687,1.85938 v 5.25781 h -1.40625 v -5.25781 q 0,-1.05469 -0.46093,-1.53125 -0.45313,-0.48438 -1.28907,-0.48438 -0.625,0 -1.17968,0.32813 -0.54688,0.32031 -0.78125,0.875 -0.23438,0.55469 -0.23438,1.53125 v 4.53906 z m 14.3125,-1.02344 q -0.78125,0.66407 -1.50781,0.9375 -0.71875,0.27344 -1.54688,0.27344 -1.36718,0 -2.10156,-0.66406 -0.73437,-0.67188 -0.73437,-1.71094 0,-0.60937 0.27343,-1.10937 0.28125,-0.50782 0.72657,-0.8125 0.45312,-0.30469 1.01562,-0.46094 0.41406,-0.10938 1.25,-0.21094 1.70313,-0.20312 2.50781,-0.48437 0.008,-0.28907 0.008,-0.36719 0,-0.85938 -0.39844,-1.21094 -0.53906,-0.47656 -1.60156,-0.47656 -0.99219,0 -1.46875,0.35156 -0.46875,0.34375 -0.69532,1.22656 l -1.375,-0.1875 q 0.1875,-0.88281 0.61719,-1.42187 0.42969,-0.54688 1.24219,-0.83594 0.8125,-0.29687 1.88281,-0.29687 1.0625,0 1.72656,0.25 0.66407,0.25 0.97657,0.63281 0.3125,0.375 0.4375,0.95312 0.0703,0.35938 0.0703,1.29688 v 1.875 q 0,1.96094 0.0859,2.48437 0.0937,0.51563 0.35937,0.99219 h -1.46875 q -0.21875,-0.4375 -0.28125,-1.02344 z m -0.11719,-3.14062 q -0.76562,0.3125 -2.29687,0.53125 -0.86719,0.125 -1.22656,0.28125 -0.35938,0.15625 -0.55469,0.46094 -0.19531,0.29687 -0.19531,0.66406 0,0.5625 0.42187,0.9375 0.42969,0.375 1.25,0.375 0.8125,0 1.44531,-0.35156 0.63282,-0.35938 0.92969,-0.97657 0.22656,-0.47656 0.22656,-1.40625 z m 6.67188,2.90625 0.20312,1.24219 q -0.59375,0.125 -1.0625,0.125 -0.76562,0 -1.1875,-0.24219 -0.42187,-0.24219 -0.59375,-0.63281 -0.17187,-0.39844 -0.17187,-1.66407 v -4.77343 H 344.25 v -1.09375 h 1.03125 v -2.05469 l 1.39844,-0.84375 v 2.89844 h 1.41406 v 1.09375 h -1.41406 v 4.85156 q 0,0.60156 0.0703,0.77344 0.0781,0.17187 0.24219,0.27343 0.17187,0.10157 0.48437,0.10157 0.23438,0 0.61719,-0.0547 z m 11.23437,0.23437 q -0.78125,0.66407 -1.50781,0.9375 -0.71875,0.27344 -1.54687,0.27344 -1.36719,0 -2.10157,-0.66406 -0.73437,-0.67188 -0.73437,-1.71094 0,-0.60937 0.27344,-1.10937 0.28125,-0.50782 0.72656,-0.8125 0.45312,-0.30469 1.01562,-0.46094 0.41407,-0.10938 1.25,-0.21094 1.70313,-0.20312 2.50782,-0.48437 0.008,-0.28907 0.008,-0.36719 0,-0.85938 -0.39844,-1.21094 -0.53906,-0.47656 -1.60156,-0.47656 -0.99219,0 -1.46875,0.35156 -0.46875,0.34375 -0.69531,1.22656 l -1.375,-0.1875 q 0.1875,-0.88281 0.61718,-1.42187 0.42969,-0.54688 1.24219,-0.83594 0.8125,-0.29687 1.88281,-0.29687 1.0625,0 1.72657,0.25 0.66406,0.25 0.97656,0.63281 0.3125,0.375 0.4375,0.95312 0.0703,0.35938 0.0703,1.29688 v 1.875 q 0,1.96094 0.0859,2.48437 0.0937,0.51563 0.35937,0.99219 h -1.46875 q -0.21875,-0.4375 -0.28125,-1.02344 z m -0.11718,-3.14062 q -0.76563,0.3125 -2.29688,0.53125 -0.86719,0.125 -1.22656,0.28125 -0.35938,0.15625 -0.55469,0.46094 -0.19531,0.29687 -0.19531,0.66406 0,0.5625 0.42187,0.9375 0.42969,0.375 1.25,0.375 0.8125,0 1.44532,-0.35156 0.63281,-0.35938 0.92968,-0.97657 0.22657,-0.47656 0.22657,-1.40625 z m 3.03906,1.6875 1.39062,-0.21875 q 0.11719,0.83594 0.64844,1.28125 0.53906,0.44531 1.5,0.44531 0.96875,0 1.4375,-0.39062 0.46875,-0.39844 0.46875,-0.92969 0,-0.47656 -0.41406,-0.75 -0.28906,-0.1875 -1.4375,-0.47656 -1.54688,-0.39063 -2.14844,-0.67188 -0.59375,-0.28906 -0.90625,-0.78906 -0.30469,-0.50781 -0.30469,-1.11719 0,-0.55469 0.25,-1.02344 0.25782,-0.47656 0.69532,-0.78906 0.32812,-0.24219 0.89062,-0.40625 0.57031,-0.17187 1.21875,-0.17187 0.97656,0 1.71094,0.28125 0.74219,0.28125 1.09375,0.76562 0.35156,0.47656 0.48437,1.28125 l -1.375,0.1875 q -0.0937,-0.64062 -0.54687,-1 -0.44531,-0.35937 -1.26563,-0.35937 -0.96875,0 -1.38281,0.32031 -0.41406,0.32031 -0.41406,0.75 0,0.27344 0.17187,0.49219 0.17188,0.22656 0.53907,0.375 0.21093,0.0781 1.24218,0.35937 1.49219,0.39844 2.07813,0.65625 0.59375,0.25 0.92969,0.73438 0.33593,0.48437 0.33593,1.20312 0,0.70313 -0.41406,1.32813 -0.40625,0.61718 -1.17969,0.96093 -0.77343,0.33594 -1.75,0.33594 -1.61718,0 -2.46875,-0.67187 -0.84375,-0.67188 -1.07812,-1.99219 z m 8,0 1.39062,-0.21875 q 0.11719,0.83594 0.64844,1.28125 0.53906,0.44531 1.5,0.44531 0.96875,0 1.4375,-0.39062 0.46875,-0.39844 0.46875,-0.92969 0,-0.47656 -0.41406,-0.75 -0.28906,-0.1875 -1.4375,-0.47656 -1.54688,-0.39063 -2.14844,-0.67188 -0.59375,-0.28906 -0.90625,-0.78906 -0.30469,-0.50781 -0.30469,-1.11719 0,-0.55469 0.25,-1.02344 0.25782,-0.47656 0.69532,-0.78906 0.32812,-0.24219 0.89062,-0.40625 0.57031,-0.17187 1.21875,-0.17187 0.97656,0 1.71094,0.28125 0.74219,0.28125 1.09375,0.76562 0.35156,0.47656 0.48437,1.28125 l -1.375,0.1875 q -0.0937,-0.64062 -0.54687,-1 -0.44531,-0.35937 -1.26563,-0.35937 -0.96875,0 -1.38281,0.32031 -0.41406,0.32031 -0.41406,0.75 0,0.27344 0.17187,0.49219 0.17188,0.22656 0.53907,0.375 0.21093,0.0781 1.24218,0.35937 1.49219,0.39844 2.07813,0.65625 0.59375,0.25 0.92969,0.73438 0.33593,0.48437 0.33593,1.20312 0,0.70313 -0.41406,1.32813 -0.40625,0.61718 -1.17969,0.96093 -0.77343,0.33594 -1.75,0.33594 -1.61718,0 -2.46875,-0.67187 -0.84375,-0.67188 -1.07812,-1.99219 z m 8.57031,-7.35938 v -1.61718 h 1.40625 v 1.61718 z m 0,9.83594 v -8.29687 h 1.40625 v 8.29687 z m 3.28906,0.6875 1.36719,0.20313 q 0.0859,0.63281 0.47656,0.92187 0.52344,0.39063 1.42969,0.39063 0.97656,0 1.50781,-0.39063 0.53125,-0.39062 0.71875,-1.09375 0.10938,-0.42969 0.10157,-1.80469 -0.92188,1.08594 -2.29688,1.08594 -1.71094,0 -2.64844,-1.23437 -0.9375,-1.23438 -0.9375,-2.96094 0,-1.1875 0.42969,-2.1875 0.42969,-1.00781 1.24219,-1.55469 0.82031,-0.54687 1.92187,-0.54687 1.46875,0 2.42188,1.1875 v -1 h 1.29687 v 7.17187 q 0,1.9375 -0.39843,2.74219 -0.39063,0.8125 -1.25,1.28125 -0.85157,0.46875 -2.10157,0.46875 -1.48437,0 -2.39843,-0.67188 -0.91407,-0.66406 -0.88282,-2.00781 z m 1.16407,-4.98437 q 0,1.63281 0.64843,2.38281 0.64844,0.75 1.625,0.75 0.96875,0 1.625,-0.74219 0.65625,-0.75 0.65625,-2.34375 0,-1.52344 -0.67968,-2.29687 -0.67188,-0.77344 -1.625,-0.77344 -0.9375,0 -1.59375,0.76562 -0.65625,0.75782 -0.65625,2.25782 z m 7.99218,4.29687 v -8.29687 h 1.26563 v 1.17968 q 0.91406,-1.36718 2.64062,-1.36718 0.75,0 1.375,0.27343 0.63282,0.26563 0.94532,0.70313 0.3125,0.4375 0.4375,1.03906 0.0781,0.39063 0.0781,1.36719 v 5.10156 h -1.40625 v -5.04687 q 0,-0.85938 -0.16406,-1.28125 -0.16406,-0.42969 -0.58594,-0.67969 -0.41406,-0.25781 -0.97656,-0.25781 -0.89844,0 -1.55469,0.57031 -0.64844,0.57031 -0.64844,2.16406 v 4.53125 z m 8.33594,-2.47656 1.39063,-0.21875 q 0.11718,0.83594 0.64843,1.28125 0.53907,0.44531 1.5,0.44531 0.96875,0 1.4375,-0.39062 0.46875,-0.39844 0.46875,-0.92969 0,-0.47656 -0.41406,-0.75 -0.28906,-0.1875 -1.4375,-0.47656 -1.54687,-0.39063 -2.14844,-0.67188 -0.59375,-0.28906 -0.90625,-0.78906 -0.30468,-0.50781 -0.30468,-1.11719 0,-0.55469 0.25,-1.02344 0.25781,-0.47656 0.69531,-0.78906 0.32812,-0.24219 0.89062,-0.40625 0.57032,-0.17187 1.21875,-0.17187 0.97657,0 1.71094,0.28125 0.74219,0.28125 1.09375,0.76562 0.35156,0.47656 0.48438,1.28125 l -1.375,0.1875 q -0.0937,-0.64062 -0.54688,-1 -0.44531,-0.35937 -1.26562,-0.35937 -0.96875,0 -1.38282,0.32031 -0.41406,0.32031 -0.41406,0.75 0,0.27344 0.17188,0.49219 0.17187,0.22656 0.53906,0.375 0.21094,0.0781 1.24219,0.35937 1.49218,0.39844 2.07812,0.65625 0.59375,0.25 0.92969,0.73438 0.33594,0.48437 0.33594,1.20312 0,0.70313 -0.41407,1.32813 -0.40625,0.61718 -1.17968,0.96093 -0.77344,0.33594 -1.75,0.33594 -1.61719,0 -2.46875,-0.67187 -0.84375,-0.67188 -1.07813,-1.99219 z m 18.6875,-0.19531 1.45313,0.17968 q -0.34375,1.27344 -1.27344,1.97657 -0.92969,0.70312 -2.375,0.70312 -1.82031,0 -2.89063,-1.11719 -1.0625,-1.125 -1.0625,-3.14843 0,-2.09375 1.07813,-3.25 1.07812,-1.15625 2.79687,-1.15625 1.66407,0 2.71875,1.13281 1.05469,1.13281 1.05469,3.1875 0,0.125 -0.008,0.375 h -6.1875 q 0.0781,1.36719 0.77344,2.09375 0.69531,0.72656 1.73437,0.72656 0.77344,0 1.32031,-0.40625 0.54688,-0.40625 0.86719,-1.29687 z m -4.61719,-2.27344 h 4.63282 q -0.0937,-1.04688 -0.53125,-1.57031 -0.67188,-0.8125 -1.74219,-0.8125 -0.96875,0 -1.63281,0.64843 -0.65625,0.64844 -0.72657,1.73438 z m 10.14063,4.94531 -3.15625,-8.29687 h 1.48437 l 1.78125,4.96875 q 0.28907,0.80468 0.53125,1.67187 0.1875,-0.65625 0.52344,-1.57812 l 1.84375,-5.0625 h 1.44531 l -3.14062,8.29687 z m 11.375,-2.67187 1.45312,0.17968 q -0.34375,1.27344 -1.27343,1.97657 -0.92969,0.70312 -2.375,0.70312 -1.82032,0 -2.89063,-1.11719 -1.0625,-1.125 -1.0625,-3.14843 0,-2.09375 1.07813,-3.25 1.07812,-1.15625 2.79687,-1.15625 1.66406,0 2.71875,1.13281 1.05469,1.13281 1.05469,3.1875 0,0.125 -0.008,0.375 h -6.1875 q 0.0781,1.36719 0.77343,2.09375 0.69532,0.72656 1.73438,0.72656 0.77344,0 1.32031,-0.40625 0.54688,-0.40625 0.86719,-1.29687 z m -4.61719,-2.27344 h 4.63281 q -0.0937,-1.04688 -0.53125,-1.57031 -0.67187,-0.8125 -1.74218,-0.8125 -0.96875,0 -1.63282,0.64843 -0.65625,0.64844 -0.72656,1.73438 z m 7.82031,4.94531 v -8.29687 h 1.26563 v 1.25781 q 0.48437,-0.88281 0.89062,-1.16406 0.41407,-0.28125 0.90625,-0.28125 0.71094,0 1.44532,0.45312 l -0.48438,1.30469 q -0.51562,-0.30469 -1.03125,-0.30469 -0.46094,0 -0.82812,0.28125 -0.36719,0.27344 -0.52344,0.76563 -0.23438,0.75 -0.23438,1.64062 v 4.34375 z m 5.28125,3.19531 -0.15625,-1.32031 q 0.46094,0.125 0.80469,0.125 0.46875,0 0.75,-0.15625 0.28125,-0.15625 0.46094,-0.4375 0.13281,-0.21094 0.42969,-1.04687 0.0391,-0.11719 0.125,-0.34375 l -3.14844,-8.3125 h 1.51562 l 1.72657,4.80468 q 0.33593,0.91407 0.60156,1.92188 0.24219,-0.96875 0.57812,-1.89063 l 1.77344,-4.83593 h 1.40625 l -3.15625,8.4375 q -0.50781,1.36718 -0.78906,1.88281 -0.375,0.69531 -0.85938,1.01562 -0.48437,0.32813 -1.15625,0.32813 -0.40625,0 -0.90625,-0.17188 z m 11.13282,-4.45312 0.20312,1.24219 q -0.59375,0.125 -1.0625,0.125 -0.76562,0 -1.1875,-0.24219 -0.42187,-0.24219 -0.59375,-0.63281 -0.17187,-0.39844 -0.17187,-1.66407 v -4.77343 h -1.03125 v -1.09375 h 1.03125 v -2.05469 l 1.39843,-0.84375 v 2.89844 h 1.41407 v 1.09375 h -1.41407 v 4.85156 q 0,0.60156 0.0703,0.77344 0.0781,0.17187 0.24218,0.27343 0.17188,0.10157 0.48438,0.10157 0.23437,0 0.61719,-0.0547 z m 1.375,1.25781 v -11.45312 h 1.40625 v 4.10937 q 0.98437,-1.14062 2.48437,-1.14062 0.92188,0 1.60156,0.36718 0.67969,0.35938 0.96875,1 0.29688,0.64063 0.29688,1.85938 v 5.25781 h -1.40625 v -5.25781 q 0,-1.05469 -0.46094,-1.53125 -0.45312,-0.48438 -1.28906,-0.48438 -0.625,0 -1.17969,0.32813 -0.54687,0.32031 -0.78125,0.875 -0.23437,0.55469 -0.23437,1.53125 v 4.53906 z m 8.90625,-9.83594 v -1.61718 h 1.40625 v 1.61718 z m 0,9.83594 v -8.29687 h 1.40625 v 8.29687 z m 3.54687,0 v -8.29687 h 1.26563 v 1.17968 q 0.91406,-1.36718 2.64062,-1.36718 0.75,0 1.375,0.27343 0.63281,0.26563 0.94531,0.70313 0.3125,0.4375 0.4375,1.03906 0.0781,0.39063 0.0781,1.36719 v 5.10156 h -1.40625 v -5.04687 q 0,-0.85938 -0.16406,-1.28125 -0.16407,-0.42969 -0.58594,-0.67969 -0.41406,-0.25781 -0.97656,-0.25781 -0.89844,0 -1.55469,0.57031 -0.64844,0.57031 -0.64844,2.16406 v 4.53125 z m 8.64063,0.6875 1.36718,0.20313 q 0.0859,0.63281 0.47657,0.92187 0.52343,0.39063 1.42968,0.39063 0.97657,0 1.50782,-0.39063 0.53125,-0.39062 0.71875,-1.09375 0.10937,-0.42969 0.10156,-1.80469 -0.92188,1.08594 -2.29688,1.08594 -1.71093,0 -2.64843,-1.23437 -0.9375,-1.23438 -0.9375,-2.96094 0,-1.1875 0.42968,-2.1875 0.42969,-1.00781 1.24219,-1.55469 0.82031,-0.54687 1.92188,-0.54687 1.46875,0 2.42187,1.1875 v -1 h 1.29688 v 7.17187 q 0,1.9375 -0.39844,2.74219 -0.39063,0.8125 -1.25,1.28125 -0.85156,0.46875 -2.10156,0.46875 -1.48438,0 -2.39844,-0.67188 -0.91406,-0.66406 -0.88281,-2.00781 z m 1.16406,-4.98437 q 0,1.63281 0.64844,2.38281 0.64843,0.75 1.625,0.75 0.96875,0 1.625,-0.74219 0.65625,-0.75 0.65625,-2.34375 0,-1.52344 -0.67969,-2.29687 -0.67188,-0.77344 -1.625,-0.77344 -0.9375,0 -1.59375,0.76562 -0.65625,0.75782 -0.65625,2.25782 z m 8.35937,4.29687 v -1.60156 h 1.60157 v 1.60156 q 0,0.88281 -0.3125,1.42188 -0.3125,0.54687 -0.99219,0.84375 l -0.39063,-0.60157 q 0.44532,-0.19531 0.65625,-0.57812 0.21094,-0.375 0.23438,-1.08594 z m 11.59375,-1.25781 0.20313,1.24219 q -0.59375,0.125 -1.0625,0.125 -0.76563,0 -1.1875,-0.24219 -0.42188,-0.24219 -0.59375,-0.63281 -0.17188,-0.39844 -0.17188,-1.66407 v -4.77343 h -1.03125 v -1.09375 h 1.03125 v -2.05469 l 1.39844,-0.84375 v 2.89844 h 1.41406 v 1.09375 h -1.41406 v 4.85156 q 0,0.60156 0.0703,0.77344 0.0781,0.17187 0.24219,0.27343 0.17188,0.10157 0.48438,0.10157 0.23437,0 0.61718,-0.0547 z m 1.375,1.25781 v -11.45312 h 1.40625 v 4.10937 q 0.98438,-1.14062 2.48438,-1.14062 0.92187,0 1.60156,0.36718 0.67969,0.35938 0.96875,1 0.29688,0.64063 0.29688,1.85938 v 5.25781 h -1.40625 v -5.25781 q 0,-1.05469 -0.46094,-1.53125 -0.45313,-0.48438 -1.28906,-0.48438 -0.625,0 -1.17969,0.32813 -0.54688,0.32031 -0.78125,0.875 -0.23438,0.55469 -0.23438,1.53125 v 4.53906 z m 14.57813,-2.67187 1.45312,0.17968 q -0.34375,1.27344 -1.27343,1.97657 -0.92969,0.70312 -2.375,0.70312 -1.82032,0 -2.89063,-1.11719 -1.0625,-1.125 -1.0625,-3.14843 0,-2.09375 1.07813,-3.25 1.07812,-1.15625 2.79687,-1.15625 1.66406,0 2.71875,1.13281 1.05469,1.13281 1.05469,3.1875 0,0.125 -0.008,0.375 h -6.1875 q 0.0781,1.36719 0.77343,2.09375 0.69532,0.72656 1.73438,0.72656 0.77344,0 1.32031,-0.40625 0.54688,-0.40625 0.86719,-1.29687 z m -4.61719,-2.27344 h 4.63281 q -0.0937,-1.04688 -0.53125,-1.57031 -0.67187,-0.8125 -1.74218,-0.8125 -0.96875,0 -1.63282,0.64843 -0.65625,0.64844 -0.72656,1.73438 z m 7.83594,4.94531 v -8.29687 h 1.26562 v 1.17968 q 0.91407,-1.36718 2.64063,-1.36718 0.75,0 1.375,0.27343 0.63281,0.26563 0.94531,0.70313 0.3125,0.4375 0.4375,1.03906 0.0781,0.39063 0.0781,1.36719 v 5.10156 h -1.40625 v -5.04687 q 0,-0.85938 -0.16407,-1.28125 -0.16406,-0.42969 -0.58593,-0.67969 -0.41407,-0.25781 -0.97657,-0.25781 -0.89843,0 -1.55468,0.57031 -0.64844,0.57031 -0.64844,2.16406 v 4.53125 z m 18.75781,-1.02344 q -0.78125,0.66407 -1.50781,0.9375 -0.71875,0.27344 -1.54688,0.27344 -1.36718,0 -2.10156,-0.66406 -0.73437,-0.67188 -0.73437,-1.71094 0,-0.60937 0.27343,-1.10937 0.28125,-0.50782 0.72657,-0.8125 0.45312,-0.30469 1.01562,-0.46094 0.41406,-0.10938 1.25,-0.21094 1.70313,-0.20312 2.50781,-0.48437 0.008,-0.28907 0.008,-0.36719 0,-0.85938 -0.39844,-1.21094 -0.53906,-0.47656 -1.60156,-0.47656 -0.99219,0 -1.46875,0.35156 -0.46875,0.34375 -0.69532,1.22656 l -1.375,-0.1875 q 0.1875,-0.88281 0.61719,-1.42187 0.42969,-0.54688 1.24219,-0.83594 0.8125,-0.29687 1.88281,-0.29687 1.0625,0 1.72656,0.25 0.66407,0.25 0.97657,0.63281 0.3125,0.375 0.4375,0.95312 0.0703,0.35938 0.0703,1.29688 v 1.875 q 0,1.96094 0.0859,2.48437 0.0937,0.51563 0.35937,0.99219 h -1.46875 q -0.21875,-0.4375 -0.28125,-1.02344 z m -0.11719,-3.14062 q -0.76562,0.3125 -2.29687,0.53125 -0.86719,0.125 -1.22656,0.28125 -0.35938,0.15625 -0.55469,0.46094 -0.19531,0.29687 -0.19531,0.66406 0,0.5625 0.42187,0.9375 0.42969,0.375 1.25,0.375 0.8125,0 1.44531,-0.35156 0.63282,-0.35938 0.92969,-0.97657 0.22656,-0.47656 0.22656,-1.40625 z m 3.03907,1.6875 1.39062,-0.21875 q 0.11719,0.83594 0.64844,1.28125 0.53906,0.44531 1.5,0.44531 0.96875,0 1.4375,-0.39062 0.46875,-0.39844 0.46875,-0.92969 0,-0.47656 -0.41406,-0.75 -0.28907,-0.1875 -1.4375,-0.47656 -1.54688,-0.39063 -2.14844,-0.67188 -0.59375,-0.28906 -0.90625,-0.78906 -0.30469,-0.50781 -0.30469,-1.11719 0,-0.55469 0.25,-1.02344 0.25781,-0.47656 0.69531,-0.78906 0.32813,-0.24219 0.89063,-0.40625 0.57031,-0.17187 1.21875,-0.17187 0.97656,0 1.71094,0.28125 0.74218,0.28125 1.09375,0.76562 0.35156,0.47656 0.48437,1.28125 l -1.375,0.1875 q -0.0937,-0.64062 -0.54687,-1 -0.44532,-0.35937 -1.26563,-0.35937 -0.96875,0 -1.38281,0.32031 -0.41406,0.32031 -0.41406,0.75 0,0.27344 0.17187,0.49219 0.17188,0.22656 0.53906,0.375 0.21094,0.0781 1.24219,0.35937 1.49219,0.39844 2.07813,0.65625 0.59375,0.25 0.92968,0.73438 0.33594,0.48437 0.33594,1.20312 0,0.70313 -0.41406,1.32813 -0.40625,0.61718 -1.17969,0.96093 -0.77344,0.33594 -1.75,0.33594 -1.61719,0 -2.46875,-0.67187 -0.84375,-0.67188 -1.07812,-1.99219 z m 8,0 1.39062,-0.21875 q 0.11719,0.83594 0.64844,1.28125 0.53906,0.44531 1.5,0.44531 0.96875,0 1.4375,-0.39062 0.46875,-0.39844 0.46875,-0.92969 0,-0.47656 -0.41406,-0.75 -0.28907,-0.1875 -1.4375,-0.47656 -1.54688,-0.39063 -2.14844,-0.67188 -0.59375,-0.28906 -0.90625,-0.78906 -0.30469,-0.50781 -0.30469,-1.11719 0,-0.55469 0.25,-1.02344 0.25781,-0.47656 0.69531,-0.78906 0.32813,-0.24219 0.89063,-0.40625 0.57031,-0.17187 1.21875,-0.17187 0.97656,0 1.71094,0.28125 0.74218,0.28125 1.09375,0.76562 0.35156,0.47656 0.48437,1.28125 l -1.375,0.1875 q -0.0937,-0.64062 -0.54687,-1 -0.44532,-0.35937 -1.26563,-0.35937 -0.96875,0 -1.38281,0.32031 -0.41406,0.32031 -0.41406,0.75 0,0.27344 0.17187,0.49219 0.17188,0.22656 0.53906,0.375 0.21094,0.0781 1.24219,0.35937 1.49219,0.39844 2.07813,0.65625 0.59375,0.25 0.92968,0.73438 0.33594,0.48437 0.33594,1.20312 0,0.70313 -0.41406,1.32813 -0.40625,0.61718 -1.17969,0.96093 -0.77344,0.33594 -1.75,0.33594 -1.61719,0 -2.46875,-0.67187 -0.84375,-0.67188 -1.07812,-1.99219 z m 8.57031,-7.35938 v -1.61718 h 1.40625 v 1.61718 z m 0,9.83594 v -8.29687 h 1.40625 v 8.29687 z m 3.28906,0.6875 1.36719,0.20313 q 0.0859,0.63281 0.47656,0.92187 0.52344,0.39063 1.42969,0.39063 0.97656,0 1.50781,-0.39063 0.53125,-0.39062 0.71875,-1.09375 0.10938,-0.42969 0.10156,-1.80469 -0.92187,1.08594 -2.29687,1.08594 -1.71094,0 -2.64844,-1.23437 -0.9375,-1.23438 -0.9375,-2.96094 0,-1.1875 0.42969,-2.1875 0.42969,-1.00781 1.24219,-1.55469 0.82031,-0.54687 1.92187,-0.54687 1.46875,0 2.42188,1.1875 v -1 h 1.29687 v 7.17187 q 0,1.9375 -0.39844,2.74219 -0.39062,0.8125 -1.25,1.28125 -0.85156,0.46875 -2.10156,0.46875 -1.48437,0 -2.39844,-0.67188 -0.91406,-0.66406 -0.88281,-2.00781 z m 1.16406,-4.98437 q 0,1.63281 0.64844,2.38281 0.64844,0.75 1.625,0.75 0.96875,0 1.625,-0.74219 0.65625,-0.75 0.65625,-2.34375 0,-1.52344 -0.67969,-2.29687 -0.67187,-0.77344 -1.625,-0.77344 -0.9375,0 -1.59375,0.76562 -0.65625,0.75782 -0.65625,2.25782 z m 7.99219,4.29687 v -8.29687 h 1.26563 v 1.17968 q 0.91406,-1.36718 2.64062,-1.36718 0.75,0 1.375,0.27343 0.63281,0.26563 0.94531,0.70313 0.3125,0.4375 0.4375,1.03906 0.0781,0.39063 0.0781,1.36719 v 5.10156 h -1.40625 v -5.04687 q 0,-0.85938 -0.16406,-1.28125 -0.16407,-0.42969 -0.58594,-0.67969 -0.41406,-0.25781 -0.97656,-0.25781 -0.89844,0 -1.55469,0.57031 -0.64844,0.57031 -0.64844,2.16406 v 4.53125 z m 18.75781,-1.02344 q -0.78125,0.66407 -1.50781,0.9375 -0.71875,0.27344 -1.54687,0.27344 -1.36719,0 -2.10157,-0.66406 -0.73437,-0.67188 -0.73437,-1.71094 0,-0.60937 0.27344,-1.10937 0.28125,-0.50782 0.72656,-0.8125 0.45312,-0.30469 1.01562,-0.46094 0.41407,-0.10938 1.25,-0.21094 1.70313,-0.20312 2.50782,-0.48437 0.008,-0.28907 0.008,-0.36719 0,-0.85938 -0.39844,-1.21094 -0.53906,-0.47656 -1.60156,-0.47656 -0.99219,0 -1.46875,0.35156 -0.46875,0.34375 -0.69531,1.22656 l -1.375,-0.1875 q 0.1875,-0.88281 0.61718,-1.42187 0.42969,-0.54688 1.24219,-0.83594 0.8125,-0.29687 1.88281,-0.29687 1.0625,0 1.72657,0.25 0.66406,0.25 0.97656,0.63281 0.3125,0.375 0.4375,0.95312 0.0703,0.35938 0.0703,1.29688 v 1.875 q 0,1.96094 0.0859,2.48437 0.0937,0.51563 0.35937,0.99219 h -1.46875 q -0.21875,-0.4375 -0.28125,-1.02344 z m -0.11718,-3.14062 q -0.76563,0.3125 -2.29688,0.53125 -0.86719,0.125 -1.22656,0.28125 -0.35938,0.15625 -0.55469,0.46094 -0.19531,0.29687 -0.19531,0.66406 0,0.5625 0.42187,0.9375 0.42969,0.375 1.25,0.375 0.8125,0 1.44532,-0.35156 0.63281,-0.35938 0.92968,-0.97657 0.22657,-0.47656 0.22657,-1.40625 z m 3.03906,1.6875 1.39062,-0.21875 q 0.11719,0.83594 0.64844,1.28125 0.53906,0.44531 1.5,0.44531 0.96875,0 1.4375,-0.39062 0.46875,-0.39844 0.46875,-0.92969 0,-0.47656 -0.41406,-0.75 -0.28906,-0.1875 -1.4375,-0.47656 -1.54688,-0.39063 -2.14844,-0.67188 -0.59375,-0.28906 -0.90625,-0.78906 -0.30469,-0.50781 -0.30469,-1.11719 0,-0.55469 0.25,-1.02344 0.25782,-0.47656 0.69532,-0.78906 0.32812,-0.24219 0.89062,-0.40625 0.57031,-0.17187 1.21875,-0.17187 0.97656,0 1.71094,0.28125 0.74219,0.28125 1.09375,0.76562 0.35156,0.47656 0.48437,1.28125 l -1.375,0.1875 q -0.0937,-0.64062 -0.54687,-1 -0.44531,-0.35937 -1.26563,-0.35937 -0.96875,0 -1.38281,0.32031 -0.41406,0.32031 -0.41406,0.75 0,0.27344 0.17187,0.49219 0.17188,0.22656 0.53907,0.375 0.21093,0.0781 1.24218,0.35937 1.49219,0.39844 2.07813,0.65625 0.59375,0.25 0.92969,0.73438 0.33593,0.48437 0.33593,1.20312 0,0.70313 -0.41406,1.32813 -0.40625,0.61718 -1.17969,0.96093 -0.77343,0.33594 -1.75,0.33594 -1.61718,0 -2.46875,-0.67187 -0.84375,-0.67188 -1.07812,-1.99219 z m 13.00781,2.47656 v -8.29687 h 1.25781 v 1.16406 q 0.39063,-0.60938 1.03907,-0.97656 0.64843,-0.375 1.47656,-0.375 0.92187,0 1.50781,0.38281 0.59375,0.38281 0.83594,1.07031 0.98437,-1.45312 2.5625,-1.45312 1.23437,0 1.89844,0.6875 0.66406,0.67968 0.66406,2.10156 v 5.69531 h -1.39844 v -5.22656 q 0,-0.84375 -0.14062,-1.21094 -0.13282,-0.375 -0.49219,-0.60156 -0.35938,-0.22656 -0.84375,-0.22656 -0.875,0 -1.45313,0.58593 -0.57812,0.57813 -0.57812,1.85938 v 4.82031 H 607.875 v -5.39062 q 0,-0.9375 -0.34375,-1.40625 -0.34375,-0.46875 -1.125,-0.46875 -0.59375,0 -1.10156,0.3125 -0.5,0.3125 -0.72657,0.91406 -0.22656,0.60156 -0.22656,1.73437 v 4.30469 z m 18.74219,-1.02344 q -0.78125,0.66407 -1.50781,0.9375 -0.71875,0.27344 -1.54688,0.27344 -1.36719,0 -2.10156,-0.66406 -0.73438,-0.67188 -0.73438,-1.71094 0,-0.60937 0.27344,-1.10937 0.28125,-0.50782 0.72656,-0.8125 0.45313,-0.30469 1.01563,-0.46094 0.41406,-0.10938 1.25,-0.21094 1.70312,-0.20312 2.50781,-0.48437 0.008,-0.28907 0.008,-0.36719 0,-0.85938 -0.39843,-1.21094 -0.53907,-0.47656 -1.60157,-0.47656 -0.99218,0 -1.46875,0.35156 -0.46875,0.34375 -0.69531,1.22656 l -1.375,-0.1875 q 0.1875,-0.88281 0.61719,-1.42187 0.42969,-0.54688 1.24219,-0.83594 0.8125,-0.29687 1.88281,-0.29687 1.0625,0 1.72656,0.25 0.66406,0.25 0.97656,0.63281 0.3125,0.375 0.4375,0.95312 0.0703,0.35938 0.0703,1.29688 v 1.875 q 0,1.96094 0.0859,2.48437 0.0937,0.51563 0.35938,0.99219 h -1.46875 q -0.21875,-0.4375 -0.28125,-1.02344 z m -0.11719,-3.14062 q -0.76562,0.3125 -2.29687,0.53125 -0.86719,0.125 -1.22657,0.28125 -0.35937,0.15625 -0.55468,0.46094 -0.19532,0.29687 -0.19532,0.66406 0,0.5625 0.42188,0.9375 0.42969,0.375 1.25,0.375 0.8125,0 1.44531,-0.35156 0.63281,-0.35938 0.92969,-0.97657 0.22656,-0.47656 0.22656,-1.40625 z m 3.60156,4.16406 v -8.29687 h 1.26563 v 1.17968 q 0.91406,-1.36718 2.64062,-1.36718 0.75,0 1.375,0.27343 0.63282,0.26563 0.94532,0.70313 0.3125,0.4375 0.4375,1.03906 0.0781,0.39063 0.0781,1.36719 v 5.10156 h -1.40625 v -5.04687 q 0,-0.85938 -0.16406,-1.28125 -0.16406,-0.42969 -0.58594,-0.67969 -0.41406,-0.25781 -0.97656,-0.25781 -0.89844,0 -1.55469,0.57031 -0.64844,0.57031 -0.64844,2.16406 v 4.53125 z m 8.83594,3.19531 -0.15625,-1.32031 q 0.46094,0.125 0.80469,0.125 0.46875,0 0.75,-0.15625 0.28125,-0.15625 0.46094,-0.4375 0.13281,-0.21094 0.42968,-1.04687 0.0391,-0.11719 0.125,-0.34375 l -3.14843,-8.3125 h 1.51562 l 1.72656,4.80468 q 0.33594,0.91407 0.60157,1.92188 0.24218,-0.96875 0.57812,-1.89063 l 1.77344,-4.83593 h 1.40625 l -3.15625,8.4375 q -0.50781,1.36718 -0.78906,1.88281 -0.375,0.69531 -0.85938,1.01562 -0.48437,0.32813 -1.15625,0.32813 -0.40625,0 -0.90625,-0.17188 z m 17.92188,-4.21875 q -0.78125,0.66407 -1.50782,0.9375 -0.71875,0.27344 -1.54687,0.27344 -1.36719,0 -2.10156,-0.66406 -0.73438,-0.67188 -0.73438,-1.71094 0,-0.60937 0.27344,-1.10937 0.28125,-0.50782 0.72656,-0.8125 0.45313,-0.30469 1.01563,-0.46094 0.41406,-0.10938 1.25,-0.21094 1.70312,-0.20312 2.50781,-0.48437 0.008,-0.28907 0.008,-0.36719 0,-0.85938 -0.39844,-1.21094 -0.53906,-0.47656 -1.60156,-0.47656 -0.99219,0 -1.46875,0.35156 -0.46875,0.34375 -0.69531,1.22656 l -1.375,-0.1875 q 0.1875,-0.88281 0.61719,-1.42187 0.42968,-0.54688 1.24218,-0.83594 0.8125,-0.29687 1.88282,-0.29687 1.0625,0 1.72656,0.25 0.66406,0.25 0.97656,0.63281 0.3125,0.375 0.4375,0.95312 0.0703,0.35938 0.0703,1.29688 v 1.875 q 0,1.96094 0.0859,2.48437 0.0937,0.51563 0.35938,0.99219 h -1.46875 q -0.21875,-0.4375 -0.28125,-1.02344 z m -0.11719,-3.14062 q -0.76563,0.3125 -2.29688,0.53125 -0.86718,0.125 -1.22656,0.28125 -0.35937,0.15625 -0.55469,0.46094 -0.19531,0.29687 -0.19531,0.66406 0,0.5625 0.42188,0.9375 0.42968,0.375 1.25,0.375 0.8125,0 1.44531,-0.35156 0.63281,-0.35938 0.92969,-0.97657 0.22656,-0.47656 0.22656,-1.40625 z m 3.03906,1.6875 1.39063,-0.21875 q 0.11718,0.83594 0.64843,1.28125 0.53907,0.44531 1.5,0.44531 0.96875,0 1.4375,-0.39062 0.46875,-0.39844 0.46875,-0.92969 0,-0.47656 -0.41406,-0.75 -0.28906,-0.1875 -1.4375,-0.47656 -1.54687,-0.39063 -2.14844,-0.67188 -0.59375,-0.28906 -0.90625,-0.78906 -0.30468,-0.50781 -0.30468,-1.11719 0,-0.55469 0.25,-1.02344 0.25781,-0.47656 0.69531,-0.78906 0.32812,-0.24219 0.89062,-0.40625 0.57032,-0.17187 1.21875,-0.17187 0.97657,0 1.71094,0.28125 0.74219,0.28125 1.09375,0.76562 0.35156,0.47656 0.48438,1.28125 l -1.375,0.1875 q -0.0937,-0.64062 -0.54688,-1 -0.44531,-0.35937 -1.26562,-0.35937 -0.96875,0 -1.38282,0.32031 -0.41406,0.32031 -0.41406,0.75 0,0.27344 0.17188,0.49219 0.17187,0.22656 0.53906,0.375 0.21094,0.0781 1.24219,0.35937 1.49218,0.39844 2.07812,0.65625 0.59375,0.25 0.92969,0.73438 0.33594,0.48437 0.33594,1.20312 0,0.70313 -0.41407,1.32813 -0.40625,0.61718 -1.17968,0.96093 -0.77344,0.33594 -1.75,0.33594 -1.61719,0 -2.46875,-0.67187 -0.84375,-0.67188 -1.07813,-1.99219 z m 13.00781,5.65625 V 146.1152 h 1.28125 v 1.07812 q 0.45313,-0.63281 1.02344,-0.94531 0.57031,-0.32031 1.38281,-0.32031 1.0625,0 1.875,0.54687 0.8125,0.54688 1.22657,1.54688 0.41406,0.99218 0.41406,2.17968 0,1.27344 -0.46094,2.29688 -0.45312,1.01562 -1.32812,1.5625 -0.86719,0.53906 -1.82813,0.53906 -0.70312,0 -1.26562,-0.29687 -0.55469,-0.29688 -0.91407,-0.75 v 4.03906 z m 1.27344,-7.28125 q 0,1.60156 0.64844,2.36719 0.64844,0.76562 1.57031,0.76562 0.9375,0 1.60156,-0.78906 0.67188,-0.79688 0.67188,-2.46094 0,-1.58594 -0.65625,-2.375 -0.64844,-0.78906 -1.55469,-0.78906 -0.89844,0 -1.59375,0.84375 -0.6875,0.83594 -0.6875,2.4375 z m 7.10156,-0.0469 q 0,-2.30468 1.28125,-3.41406 1.07032,-0.92187 2.60938,-0.92187 1.71094,0 2.79687,1.125 1.08594,1.11718 1.08594,3.09375 0,1.60156 -0.48437,2.52343 -0.47657,0.91407 -1.39844,1.42188 -0.91406,0.50781 -2,0.50781 -1.74219,0 -2.82031,-1.11719 -1.07032,-1.11718 -1.07032,-3.21875 z m 1.44532,0 q 0,1.59375 0.69531,2.39063 0.69531,0.78906 1.75,0.78906 1.04687,0 1.74219,-0.79687 0.69531,-0.79688 0.69531,-2.42969 0,-1.53906 -0.70313,-2.32813 -0.69531,-0.79687 -1.73437,-0.79687 -1.05469,0 -1.75,0.78906 -0.69531,0.78906 -0.69531,2.38281 z m 7.41406,1.67188 1.39062,-0.21875 q 0.11719,0.83594 0.64844,1.28125 0.53906,0.44531 1.5,0.44531 0.96875,0 1.4375,-0.39062 0.46875,-0.39844 0.46875,-0.92969 0,-0.47656 -0.41406,-0.75 -0.28906,-0.1875 -1.4375,-0.47656 -1.54688,-0.39063 -2.14844,-0.67188 -0.59375,-0.28906 -0.90625,-0.78906 -0.30469,-0.50781 -0.30469,-1.11719 0,-0.55469 0.25,-1.02344 0.25782,-0.47656 0.69532,-0.78906 0.32812,-0.24219 0.89062,-0.40625 0.57031,-0.17187 1.21875,-0.17187 0.97656,0 1.71094,0.28125 0.74219,0.28125 1.09375,0.76562 0.35156,0.47656 0.48437,1.28125 l -1.375,0.1875 q -0.0937,-0.64062 -0.54687,-1 -0.44531,-0.35937 -1.26563,-0.35937 -0.96875,0 -1.38281,0.32031 -0.41406,0.32031 -0.41406,0.75 0,0.27344 0.17187,0.49219 0.17188,0.22656 0.53907,0.375 0.21093,0.0781 1.24218,0.35937 1.49219,0.39844 2.07813,0.65625 0.59375,0.25 0.92969,0.73438 0.33593,0.48437 0.33593,1.20312 0,0.70313 -0.41406,1.32813 -0.40625,0.61718 -1.17969,0.96093 -0.77343,0.33594 -1.75,0.33594 -1.61718,0 -2.46875,-0.67187 -0.84375,-0.67188 -1.07812,-1.99219 z m 8,0 1.39062,-0.21875 q 0.11719,0.83594 0.64844,1.28125 0.53906,0.44531 1.5,0.44531 0.96875,0 1.4375,-0.39062 0.46875,-0.39844 0.46875,-0.92969 0,-0.47656 -0.41406,-0.75 -0.28906,-0.1875 -1.4375,-0.47656 -1.54688,-0.39063 -2.14844,-0.67188 -0.59375,-0.28906 -0.90625,-0.78906 -0.30469,-0.50781 -0.30469,-1.11719 0,-0.55469 0.25,-1.02344 0.25782,-0.47656 0.69532,-0.78906 0.32812,-0.24219 0.89062,-0.40625 0.57031,-0.17187 1.21875,-0.17187 0.97656,0 1.71094,0.28125 0.74219,0.28125 1.09375,0.76562 0.35156,0.47656 0.48437,1.28125 l -1.375,0.1875 q -0.0937,-0.64062 -0.54687,-1 -0.44531,-0.35937 -1.26563,-0.35937 -0.96875,0 -1.38281,0.32031 -0.41406,0.32031 -0.41406,0.75 0,0.27344 0.17187,0.49219 0.17188,0.22656 0.53907,0.375 0.21093,0.0781 1.24218,0.35937 1.49219,0.39844 2.07813,0.65625 0.59375,0.25 0.92969,0.73438 0.33593,0.48437 0.33593,1.20312 0,0.70313 -0.41406,1.32813 -0.40625,0.61718 -1.17969,0.96093 -0.77343,0.33594 -1.75,0.33594 -1.61718,0 -2.46875,-0.67187 -0.84375,-0.67188 -1.07812,-1.99219 z m 8.57031,-7.35938 v -1.61718 h 1.40625 v 1.61718 z m 0,9.83594 v -8.29687 h 1.40625 v 8.29687 z m 4.84375,0 h -1.30469 v -11.45312 h 1.40625 v 4.08593 q 0.89063,-1.11718 2.27344,-1.11718 0.76563,0 1.44531,0.3125 0.6875,0.30468 1.125,0.86718 0.44532,0.55469 0.69532,1.34375 0.25,0.78907 0.25,1.6875 0,2.13282 -1.05469,3.29688 -1.05469,1.16406 -2.53125,1.16406 -1.46875,0 -2.30469,-1.22656 z m -0.0156,-4.21094 q 0,1.49219 0.40625,2.15625 0.66406,1.08594 1.79687,1.08594 0.92188,0 1.59375,-0.79687 0.67188,-0.80469 0.67188,-2.39063 0,-1.625 -0.64844,-2.39844 -0.64063,-0.77343 -1.55469,-0.77343 -0.92187,0 -1.59375,0.80468 -0.67187,0.79688 -0.67187,2.3125 z m 7.58593,4.21094 v -11.45312 h 1.40625 v 11.45312 z m 9.26563,-2.67187 1.45312,0.17968 q -0.34375,1.27344 -1.27343,1.97657 -0.92969,0.70312 -2.375,0.70312 -1.82032,0 -2.89063,-1.11719 -1.0625,-1.125 -1.0625,-3.14843 0,-2.09375 1.07813,-3.25 1.07812,-1.15625 2.79687,-1.15625 1.66406,0 2.71875,1.13281 1.05469,1.13281 1.05469,3.1875 0,0.125 -0.008,0.375 h -6.1875 q 0.0781,1.36719 0.77343,2.09375 0.69532,0.72656 1.73438,0.72656 0.77344,0 1.32031,-0.40625 0.54688,-0.40625 0.86719,-1.29687 z m -4.61719,-2.27344 h 4.63281 q -0.0937,-1.04688 -0.53125,-1.57031 -0.67187,-0.8125 -1.74218,-0.8125 -0.96875,0 -1.63282,0.64843 -0.65625,0.64844 -0.72656,1.73438 z m 8.23438,4.94531 v -1.60156 h 1.60156 v 1.60156 z"
       id="flowRoot4302-6"
       transform="translate(-20,382.36205)"
       aria-label="If there is no feasible solution that assigns everything, then assign as many as possible." />
    <path
       style="font-size:14px;line-height:1.25;font-family:'Liberation Sans';-inkscape-font-specification:'Liberation Sans, Normal';text-align:center;text-anchor:middle"
       d="m 248.45117,132.87423 1.32617,0.33496 q -0.41699,1.63379 -1.5039,2.49512 -1.08008,0.85449 -2.64551,0.85449 -1.62012,0 -2.63867,-0.65625 -1.01172,-0.66308 -1.54492,-1.91406 -0.52637,-1.25097 -0.52637,-2.68652 0,-1.56543 0.59473,-2.72754 0.60156,-1.16895 1.70214,-1.77051 1.10743,-0.6084 2.4336,-0.6084 1.5039,0 2.52929,0.76563 1.02539,0.76562 1.42872,2.15332 l -1.30567,0.30762 q -0.34863,-1.09375 -1.01172,-1.59278 -0.66308,-0.49902 -1.66797,-0.49902 -1.15527,0 -1.93457,0.55371 -0.77246,0.55371 -1.08691,1.49023 -0.31445,0.92969 -0.31445,1.9209 0,1.27832 0.36914,2.23535 0.37597,0.9502 1.16211,1.42188 0.78613,0.47168 1.70214,0.47168 1.11426,0 1.88672,-0.64258 0.77246,-0.64258 1.0459,-1.90723 z m 2.95996,3.51368 v -10.02149 h 3.78028 q 0.99804,0 1.52441,0.0957 0.73828,0.12305 1.2373,0.47168 0.49903,0.3418 0.79981,0.96387 0.30762,0.62207 0.30762,1.36719 0,1.27832 -0.81348,2.16699 -0.81348,0.88184 -2.93945,0.88184 h -2.57032 v 4.07422 z m 1.32617,-5.25684 h 2.59082 q 1.28516,0 1.8252,-0.47852 0.54004,-0.47851 0.54004,-1.34668 0,-0.6289 -0.32129,-1.07324 -0.31445,-0.45117 -0.83398,-0.59472 -0.33497,-0.0889 -1.23731,-0.0889 h -2.56348 z m 14.5879,-4.76465 h 1.32617 v 5.79004 q 0,1.51074 -0.3418,2.39941 -0.3418,0.88868 -1.2373,1.44922 -0.88868,0.55371 -2.3379,0.55371 -1.4082,0 -2.30371,-0.48535 -0.8955,-0.48535 -1.27832,-1.40136 -0.38281,-0.92286 -0.38281,-2.51563 v -5.79004 h 1.32617 v 5.7832 q 0,1.30567 0.23926,1.92774 0.24609,0.61523 0.83399,0.95019 0.59472,0.33497 1.44921,0.33497 1.46289,0 2.08496,-0.66309 0.62208,-0.66309 0.62208,-2.54981 z"
       id="flowRoot3472-8"
       transform="translate(-90.00017,438.58511)"
       aria-label="CPU" />
    <rect
       style="fill:#ef2929;fill-opacity:1;stroke:none;display:inline"
       id="rect3275"
       width="60"
       height="40"
       x="60"
       y="657.36212" />
    <g
       style="fill:#ffffff;fill-opacity:1;stroke:none;display:inline"
       transform="translate(-20.5,-29.500014)"
       id="g3278">
      <rect
         ry="5"
         rx="4.999999"
         y="692.86218"
         x="80.5"
         height="29"
         width="89"
         id="rect3280"
         style="fill:#ffffff;fill-opacity:1;stroke:none" />
      <path
         style="font-size:14.4849px;line-height:1.25;font-family:'Liberation Sans';-inkscape-font-specification:'Liberation Sans, Normal';text-align:center;text-anchor:middle"
         d="m 265.39187,83.120748 1.27309,-0.169745 q 0.21925,1.082124 0.74263,1.563068 0.53045,0.473871 1.28723,0.473871 0.89824,0 1.51356,-0.622398 0.6224,-0.622398 0.6224,-1.54185 0,-0.877015 -0.57289,-1.442831 -0.57289,-0.57289 -1.45698,-0.57289 -0.3607,0 -0.89823,0.141455 l 0.14145,-1.117488 q 0.12731,0.01415 0.20511,0.01415 0.81336,0 1.46405,-0.424363 0.65069,-0.424362 0.65069,-1.30845 0,-0.700198 -0.47387,-1.159924 -0.47387,-0.459726 -1.22358,-0.459726 -0.74263,0 -1.23772,0.466799 -0.49509,0.466798 -0.63654,1.400395 l -1.27309,-0.226326 q 0.2334,-1.28016 1.0609,-1.980358 0.82751,-0.70727 2.05816,-0.70727 0.84873,0 1.56307,0.36778 0.71434,0.360708 1.0892,0.990179 0.38192,0.629471 0.38192,1.336742 0,0.671907 -0.36071,1.223578 -0.3607,0.551671 -1.06797,0.877015 0.91945,0.212181 1.42868,0.884088 0.50924,0.664834 0.50924,1.669159 0,1.357959 -0.99018,2.305702 -0.99018,0.940669 -2.50374,0.940669 -1.36503,0 -2.27034,-0.813361 -0.89823,-0.813361 -1.02554,-2.107666 z"
         id="flowRoot3282"
         transform="matrix(1.6568991,0,0,1.6568991,-320.39408,571.72151)"
         aria-label="3" />
    </g>
    <g
       id="g3290"
       transform="translate(-20,-30.000054)"
       style="opacity:0.5;display:inline">
      <rect
         style="fill:#729fcf;stroke:#000000;stroke-width:1;stroke-linecap:round;stroke-linejoin:round;stroke-miterlimit:4;stroke-dasharray:none"
         id="rect3292"
         width="89"
         height="29"
         x="80.5"
         y="692.86218"
         rx="4.999999"
         ry="5" />
      <path
         style="font-size:14.4849px;line-height:1.25;font-family:'Liberation Sans';-inkscape-font-specification:'Liberation Sans, Normal';text-align:center;text-anchor:middle"
         d="m 265.39187,83.120748 1.27309,-0.169745 q 0.21925,1.082124 0.74263,1.563068 0.53045,0.473871 1.28723,0.473871 0.89824,0 1.51356,-0.622398 0.6224,-0.622398 0.6224,-1.54185 0,-0.877015 -0.57289,-1.442831 -0.57289,-0.57289 -1.45698,-0.57289 -0.3607,0 -0.89823,0.141455 l 0.14145,-1.117488 q 0.12731,0.01415 0.20511,0.01415 0.81336,0 1.46405,-0.424363 0.65069,-0.424362 0.65069,-1.30845 0,-0.700198 -0.47387,-1.159924 -0.47387,-0.459726 -1.22358,-0.459726 -0.74263,0 -1.23772,0.466799 -0.49509,0.466798 -0.63654,1.400395 l -1.27309,-0.226326 q 0.2334,-1.28016 1.0609,-1.980358 0.82751,-0.70727 2.05816,-0.70727 0.84873,0 1.56307,0.36778 0.71434,0.360708 1.0892,0.990179 0.38192,0.629471 0.38192,1.336742 0,0.671907 -0.36071,1.223578 -0.3607,0.551671 -1.06797,0.877015 0.91945,0.212181 1.42868,0.884088 0.50924,0.664834 0.50924,1.669159 0,1.357959 -0.99018,2.305702 -0.99018,0.940669 -2.50374,0.940669 -1.36503,0 -2.27034,-0.813361 -0.89823,-0.813361 -1.02554,-2.107666 z"
         id="flowRoot3294"
         transform="matrix(1.6568991,0,0,1.6568991,-320.39408,571.72151)"
         aria-label="3" />
    </g>
    <rect
       style="fill:none;stroke:#000000;stroke-width:0.99999994;stroke-linecap:round;stroke-linejoin:round;stroke-miterlimit:4;stroke-dasharray:none;display:inline"
       id="rect3304"
       width="149"
       height="29"
       x="120.5"
       y="662.86212"
       rx="4.999999"
       ry="5" />
    <path
       style="font-size:14px;line-height:1.25;font-family:'Liberation Sans';-inkscape-font-specification:'Liberation Sans, Normal';text-align:center;text-anchor:middle"
       d="m 350.39258,97.719937 3.87597,-5.222656 -3.41796,-4.798828 h 1.5791 l 1.81836,2.570312 q 0.56738,0.799805 0.80664,1.230469 0.33496,-0.546875 0.79297,-1.141602 l 2.0166,-2.659179 h 1.44238 l -3.52051,4.723632 3.79395,5.297852 h -1.64063 l -2.52246,-3.575195 q -0.21191,-0.307618 -0.4375,-0.669922 -0.33496,0.546875 -0.47851,0.751953 l -2.51563,3.493164 z"
       id="flowRoot3306"
       transform="translate(-59.96908,583.47083)"
       aria-label="X" />
    <path
       style="font-size:14px;line-height:1.25;font-family:'Liberation Sans';-inkscape-font-specification:'Liberation Sans, Normal';text-align:center;text-anchor:middle"
       d="M 354.23437,97.719937 V 93.47482 l -3.8623,-5.776367 h 1.61328 l 1.97559,3.021484 q 0.54687,0.847656 1.01855,1.695312 0.45117,-0.786132 1.09375,-1.770507 l 1.94141,-2.946289 h 1.54492 l -3.99902,5.776367 v 4.245117 z"
       id="flowRoot3314"
       transform="translate(-59.96908,623.47109)"
       aria-label="Y" />
    <path
       style="font-size:14px;line-height:1.25;font-family:'Liberation Sans';-inkscape-font-specification:'Liberation Sans, Normal';fill:#ce5c00"
       d="m 352.04785,96.53732 v 1.182617 h -6.62402 q -0.0137,-0.444336 0.14355,-0.854492 0.25293,-0.676758 0.80664,-1.333008 0.56055,-0.65625 1.61328,-1.517578 1.63379,-1.339844 2.20801,-2.119141 0.57422,-0.786133 0.57422,-1.483398 0,-0.731446 -0.52637,-1.230469 -0.51953,-0.505859 -1.36035,-0.505859 -0.88867,0 -1.42187,0.533203 -0.53321,0.533203 -0.54004,1.476562 l -1.26465,-0.129883 q 0.12988,-1.415039 0.97754,-2.15332 0.84766,-0.745117 2.27637,-0.745117 1.44238,0 2.2832,0.799805 0.84082,0.799804 0.84082,1.982421 0,0.601563 -0.24609,1.182618 -0.2461,0.581054 -0.82032,1.223632 -0.56738,0.642579 -1.89355,1.763672 -1.10742,0.929688 -1.42188,1.264649 -0.31445,0.328125 -0.51953,0.663086 z m 1.31934,-3.759766 q 0,-1.777344 0.3623,-2.857422 0.36914,-1.086914 1.08692,-1.674804 0.72461,-0.587891 1.81836,-0.587891 0.80664,0 1.41503,0.328125 0.6084,0.321289 1.00489,0.936523 0.39648,0.608399 0.62207,1.490235 0.22558,0.875 0.22558,2.365234 0,1.763672 -0.3623,2.850586 -0.36231,1.080078 -1.08692,1.674805 -0.71777,0.58789 -1.81835,0.58789 -1.44922,0 -2.27637,-1.039062 -0.99121,-1.250977 -0.99121,-4.074219 z m 1.26465,0 q 0,2.467774 0.57421,3.288086 0.58106,0.813477 1.42872,0.813477 0.84765,0 1.42187,-0.820313 0.58106,-0.820312 0.58106,-3.28125 0,-2.474609 -0.58106,-3.288086 -0.57422,-0.813476 -1.43555,-0.813476 -0.84765,0 -1.35351,0.717773 -0.63574,0.916016 -0.63574,3.383789 z m 6.52148,0 q 0,-1.777344 0.3623,-2.857422 0.36915,-1.086914 1.08692,-1.674804 0.72461,-0.587891 1.81836,-0.587891 0.80664,0 1.41504,0.328125 0.6084,0.321289 1.00488,0.936523 0.39648,0.608399 0.62207,1.490235 0.22559,0.875 0.22559,2.365234 0,1.763672 -0.36231,2.850586 -0.3623,1.080078 -1.08691,1.674805 -0.71778,0.58789 -1.81836,0.58789 -1.44922,0 -2.27637,-1.039062 -0.99121,-1.250977 -0.99121,-4.074219 z m 1.26465,0 q 0,2.467774 0.57422,3.288086 0.58105,0.813477 1.42871,0.813477 0.84765,0 1.42187,-0.820313 0.58106,-0.820312 0.58106,-3.28125 0,-2.474609 -0.58106,-3.288086 -0.57422,-0.813476 -1.43554,-0.813476 -0.84766,0 -1.35352,0.717773 -0.63574,0.916016 -0.63574,3.383789 z m 13.3164,6.384766 v -1.230469 q -0.92285,-0.116211 -1.5039,-0.410156 -0.57422,-0.300782 -0.99805,-0.963867 -0.41699,-0.663086 -0.48535,-1.620118 l 1.2373,-0.232422 q 0.14356,0.991211 0.50586,1.456055 0.51954,0.65625 1.24414,0.731445 v -3.916992 q -0.75878,-0.143554 -1.55175,-0.58789 -0.58789,-0.328125 -0.90918,-0.90918 -0.31446,-0.581055 -0.31446,-1.319336 0,-1.3125 0.92969,-2.125977 0.62207,-0.546875 1.8457,-0.669921 v -0.587891 h 0.72461 v 0.587891 q 1.07325,0.102539 1.70215,0.628906 0.80664,0.669922 0.97071,1.838867 l -1.27149,0.191406 q -0.10937,-0.724609 -0.45801,-1.107422 -0.34179,-0.389648 -0.94336,-0.512695 v 3.547852 q 0.92969,0.232422 1.23047,0.362304 0.57422,0.25293 0.93653,0.615235 0.3623,0.362304 0.55371,0.861328 0.19824,0.499023 0.19824,1.080078 0,1.27832 -0.81348,2.132812 -0.81347,0.854493 -2.10547,0.916016 v 1.244141 z m 0,-10.773438 q -0.71777,0.109375 -1.13476,0.574219 -0.41016,0.464844 -0.41016,1.100586 0,0.628906 0.34864,1.052734 0.35546,0.423828 1.19628,0.676758 z m 0.72461,8.503906 q 0.71778,-0.08887 1.18262,-0.62207 0.47168,-0.533203 0.47168,-1.319336 0,-0.669922 -0.33496,-1.073242 -0.32812,-0.410156 -1.31934,-0.731445 z"
       id="flowRoot3322"
       transform="translate(-24.999847,583.47083)"
       aria-label="200 $" />
    <path
       style="font-size:14px;line-height:1.25;font-family:'Liberation Sans';-inkscape-font-specification:'Liberation Sans, Normal';fill:#ce5c00"
       d="m 345.58789,95.074429 1.23047,-0.164062 q 0.21191,1.045898 0.71777,1.510742 0.5127,0.458008 1.24414,0.458008 0.86817,0 1.46289,-0.601563 0.60157,-0.601562 0.60157,-1.490234 0,-0.847657 -0.55371,-1.394532 -0.55372,-0.55371 -1.40821,-0.55371 -0.34863,0 -0.86816,0.136718 l 0.13672,-1.080078 q 0.12304,0.01367 0.19824,0.01367 0.78613,0 1.41504,-0.410156 0.6289,-0.410156 0.6289,-1.264649 0,-0.676757 -0.458,-1.121093 -0.45801,-0.444336 -1.18262,-0.444336 -0.71777,0 -1.19629,0.451172 -0.47852,0.451171 -0.61523,1.353515 l -1.23047,-0.21875 q 0.22558,-1.237305 1.02539,-1.914062 0.7998,-0.683594 1.98926,-0.683594 0.82031,0 1.51074,0.355469 0.69043,0.348632 1.05273,0.957031 0.36914,0.608398 0.36914,1.291992 0,0.649414 -0.34863,1.182617 -0.34863,0.533203 -1.03223,0.847657 0.88868,0.205078 1.38086,0.854492 0.49219,0.642578 0.49219,1.613281 0,1.3125 -0.95703,2.228516 -0.95703,0.909179 -2.41992,0.909179 -1.31934,0 -2.19434,-0.786133 -0.86816,-0.786132 -0.99121,-2.037109 z m 7.7793,-2.296875 q 0,-1.777344 0.3623,-2.857422 0.36914,-1.086914 1.08692,-1.674804 0.72461,-0.587891 1.81836,-0.587891 0.80664,0 1.41503,0.328125 0.6084,0.321289 1.00489,0.936523 0.39648,0.608399 0.62207,1.490235 0.22558,0.875 0.22558,2.365234 0,1.763672 -0.3623,2.850586 -0.36231,1.080078 -1.08692,1.674805 -0.71777,0.58789 -1.81835,0.58789 -1.44922,0 -2.27637,-1.039062 -0.99121,-1.250977 -0.99121,-4.074219 z m 1.26465,0 q 0,2.467774 0.57421,3.288086 0.58106,0.813477 1.42872,0.813477 0.84765,0 1.42187,-0.820313 0.58106,-0.820312 0.58106,-3.28125 0,-2.474609 -0.58106,-3.288086 -0.57422,-0.813476 -1.43555,-0.813476 -0.84765,0 -1.35351,0.717773 -0.63574,0.916016 -0.63574,3.383789 z m 6.52148,0 q 0,-1.777344 0.3623,-2.857422 0.36915,-1.086914 1.08692,-1.674804 0.72461,-0.587891 1.81836,-0.587891 0.80664,0 1.41504,0.328125 0.6084,0.321289 1.00488,0.936523 0.39648,0.608399 0.62207,1.490235 0.22559,0.875 0.22559,2.365234 0,1.763672 -0.36231,2.850586 -0.3623,1.080078 -1.08691,1.674805 -0.71778,0.58789 -1.81836,0.58789 -1.44922,0 -2.27637,-1.039062 -0.99121,-1.250977 -0.99121,-4.074219 z m 1.26465,0 q 0,2.467774 0.57422,3.288086 0.58105,0.813477 1.42871,0.813477 0.84765,0 1.42187,-0.820313 0.58106,-0.820312 0.58106,-3.28125 0,-2.474609 -0.58106,-3.288086 -0.57422,-0.813476 -1.43554,-0.813476 -0.84766,0 -1.35352,0.717773 -0.63574,0.916016 -0.63574,3.383789 z m 13.3164,6.384766 v -1.230469 q -0.92285,-0.116211 -1.5039,-0.410156 -0.57422,-0.300782 -0.99805,-0.963867 -0.41699,-0.663086 -0.48535,-1.620118 l 1.2373,-0.232422 q 0.14356,0.991211 0.50586,1.456055 0.51954,0.65625 1.24414,0.731445 v -3.916992 q -0.75878,-0.143554 -1.55175,-0.58789 -0.58789,-0.328125 -0.90918,-0.90918 -0.31446,-0.581055 -0.31446,-1.319336 0,-1.3125 0.92969,-2.125977 0.62207,-0.546875 1.8457,-0.669921 v -0.587891 h 0.72461 v 0.587891 q 1.07325,0.102539 1.70215,0.628906 0.80664,0.669922 0.97071,1.838867 l -1.27149,0.191406 q -0.10937,-0.724609 -0.45801,-1.107422 -0.34179,-0.389648 -0.94336,-0.512695 v 3.547852 q 0.92969,0.232422 1.23047,0.362304 0.57422,0.25293 0.93653,0.615235 0.3623,0.362304 0.55371,0.861328 0.19824,0.499023 0.19824,1.080078 0,1.27832 -0.81348,2.132812 -0.81347,0.854493 -2.10547,0.916016 v 1.244141 z m 0,-10.773438 q -0.71777,0.109375 -1.13476,0.574219 -0.41016,0.464844 -0.41016,1.100586 0,0.628906 0.34864,1.052734 0.35546,0.423828 1.19628,0.676758 z m 0.72461,8.503906 q 0.71778,-0.08887 1.18262,-0.62207 0.47168,-0.533203 0.47168,-1.319336 0,-0.669922 -0.33496,-1.073242 -0.32812,-0.410156 -1.31934,-0.731445 z"
       id="flowRoot3330"
       transform="translate(-24.999847,623.47109)"
       aria-label="300 $" />
    <rect
       ry="5"
       rx="4.999999"
       y="702.86212"
       x="90.5"
       height="29"
       width="179"
       id="rect3338"
       style="fill:none;stroke:#000000;stroke-width:0.99999994;stroke-linecap:round;stroke-linejoin:round;stroke-miterlimit:4;stroke-dasharray:none;display:inline" />
    <path
       style="font-size:14px;line-height:1.25;font-family:'Liberation Sans';-inkscape-font-specification:'Liberation Sans, Normal';text-align:center;text-anchor:middle"
       d="m 357.51074,97.719937 v -7.259766 h 1.10742 v 1.032227 q 0.79981,-1.196289 2.31055,-1.196289 0.65625,0 1.20313,0.239258 0.55371,0.232421 0.82714,0.615234 0.27344,0.382812 0.38282,0.90918 0.0684,0.341797 0.0684,1.196289 v 4.463867 h -1.23047 v -4.416016 q 0,-0.751953 -0.14356,-1.121093 -0.14355,-0.375977 -0.51269,-0.594727 -0.36231,-0.225586 -0.85449,-0.225586 -0.78614,0 -1.36036,0.499023 -0.56738,0.499024 -0.56738,1.893555 v 3.964844 z m 12.54395,0 v -1.066406 q -0.84766,1.230468 -2.30371,1.230468 -0.64258,0 -1.20313,-0.246093 -0.55371,-0.246094 -0.82715,-0.615235 -0.2666,-0.375976 -0.37597,-0.916015 -0.0752,-0.362305 -0.0752,-1.148438 V 90.460171 H 366.5 v 4.026367 q 0,0.963868 0.0752,1.298829 0.11621,0.485351 0.49218,0.765625 0.37598,0.273437 0.92969,0.273437 0.55371,0 1.03906,-0.280273 0.48535,-0.28711 0.6836,-0.772461 0.20507,-0.492188 0.20507,-1.421875 v -3.889649 h 1.23047 v 7.259766 z m 3.00097,0 V 87.698453 h 1.23047 v 10.021484 z m 3.11036,0 V 87.698453 h 1.23046 v 10.021484 z"
       id="flowRoot3340"
       transform="translate(-72.45346,663.47109)"
       aria-label="null" />
    <path
       style="font-size:14px;line-height:1.25;font-family:'Liberation Sans';-inkscape-font-specification:'Liberation Sans, Normal';fill:#c4a000"
       d="m 350.68066,97.719937 v -1.066406 q -0.84765,1.230468 -2.30371,1.230468 -0.64258,0 -1.20312,-0.246093 -0.55371,-0.246094 -0.82715,-0.615235 -0.2666,-0.375976 -0.37598,-0.916015 -0.0752,-0.362305 -0.0752,-1.148438 v -4.498047 h 1.23047 v 4.026367 q 0,0.963868 0.0752,1.298829 0.11621,0.485351 0.49219,0.765625 0.37598,0.273437 0.92969,0.273437 0.55371,0 1.03906,-0.280273 0.48535,-0.28711 0.68359,-0.772461 0.20508,-0.492188 0.20508,-1.421875 v -3.889649 h 1.23047 v 7.259766 z m 3.02832,0 v -7.259766 h 1.10743 v 1.032227 q 0.7998,-1.196289 2.31054,-1.196289 0.65625,0 1.20313,0.239258 0.55371,0.232421 0.82715,0.615234 0.27343,0.382812 0.38281,0.90918 0.0684,0.341797 0.0684,1.196289 v 4.463867 h -1.23047 v -4.416016 q 0,-0.751953 -0.14356,-1.121093 -0.14355,-0.375977 -0.51269,-0.594727 -0.36231,-0.225586 -0.85449,-0.225586 -0.78614,0 -1.36035,0.499023 -0.56739,0.499024 -0.56739,1.893555 v 3.964844 z m 12.52344,-0.895508 q -0.68359,0.581055 -1.31933,0.820313 -0.62891,0.239257 -1.35352,0.239257 -1.19629,0 -1.83887,-0.581054 -0.64258,-0.587891 -0.64258,-1.497071 0,-0.533203 0.23926,-0.970703 0.2461,-0.444336 0.63574,-0.710937 0.39649,-0.266602 0.88868,-0.403321 0.3623,-0.0957 1.09375,-0.18457 1.49023,-0.177734 2.19433,-0.423828 0.007,-0.25293 0.007,-0.321289 0,-0.751953 -0.34863,-1.05957 -0.47168,-0.416993 -1.40137,-0.416993 -0.86817,0 -1.28516,0.307618 -0.41015,0.300781 -0.6084,1.073242 l -1.20312,-0.164063 q 0.16406,-0.772461 0.54004,-1.24414 0.37597,-0.478516 1.08691,-0.731446 0.71094,-0.259765 1.64746,-0.259765 0.92969,0 1.51075,0.21875 0.58105,0.21875 0.85449,0.553711 0.27343,0.328125 0.38281,0.833984 0.0615,0.314453 0.0615,1.134766 v 1.640625 q 0,1.71582 0.0752,2.173828 0.082,0.451172 0.31445,0.868164 h -1.28515 q -0.19141,-0.382813 -0.2461,-0.895508 z m -0.10254,-2.748047 q -0.66992,0.273438 -2.00976,0.464844 -0.75879,0.109375 -1.07325,0.246094 -0.31445,0.136718 -0.48535,0.40332 -0.1709,0.259766 -0.1709,0.581055 0,0.492187 0.36915,0.820312 0.37597,0.328125 1.09375,0.328125 0.71093,0 1.26464,-0.307617 0.55371,-0.314453 0.81348,-0.854492 0.19824,-0.416992 0.19824,-1.230469 z m 2.65918,1.476563 1.2168,-0.191407 q 0.10254,0.731446 0.56738,1.121094 0.47168,0.389649 1.3125,0.389649 0.84766,0 1.25781,-0.341797 0.41016,-0.348633 0.41016,-0.813477 0,-0.416992 -0.3623,-0.65625 -0.25293,-0.164062 -1.25782,-0.416992 -1.35351,-0.341797 -1.87988,-0.587891 -0.51953,-0.252929 -0.79297,-0.690429 -0.2666,-0.444336 -0.2666,-0.977539 0,-0.485352 0.21875,-0.895508 0.22559,-0.416992 0.6084,-0.69043 0.28711,-0.211914 0.7793,-0.355469 0.49902,-0.15039 1.0664,-0.15039 0.85449,0 1.49707,0.246094 0.64942,0.246093 0.95703,0.669921 0.30762,0.416993 0.42383,1.121094 l -1.20312,0.164063 q -0.082,-0.560547 -0.47852,-0.875 -0.38965,-0.314453 -1.10742,-0.314453 -0.84766,0 -1.20996,0.280273 -0.36231,0.280273 -0.36231,0.65625 0,0.239258 0.15039,0.430664 0.15039,0.198242 0.47168,0.328125 0.18457,0.06836 1.08692,0.314453 1.30566,0.348633 1.81836,0.574219 0.51953,0.21875 0.81347,0.642578 0.29395,0.423828 0.29395,1.052734 0,0.615235 -0.36231,1.16211 -0.35546,0.540039 -1.03222,0.84082 -0.67676,0.293945 -1.53125,0.293945 -1.41504,0 -2.16016,-0.58789 -0.73828,-0.587891 -0.94336,-1.743164 z m 7,0 1.2168,-0.191407 q 0.10254,0.731446 0.56738,1.121094 0.47168,0.389649 1.3125,0.389649 0.84766,0 1.25781,-0.341797 0.41016,-0.348633 0.41016,-0.813477 0,-0.416992 -0.3623,-0.65625 -0.25293,-0.164062 -1.25782,-0.416992 -1.35351,-0.341797 -1.87988,-0.587891 -0.51953,-0.252929 -0.79297,-0.690429 -0.2666,-0.444336 -0.2666,-0.977539 0,-0.485352 0.21875,-0.895508 0.22559,-0.416992 0.6084,-0.69043 0.28711,-0.211914 0.7793,-0.355469 0.49902,-0.15039 1.0664,-0.15039 0.85449,0 1.49707,0.246094 0.64942,0.246093 0.95703,0.669921 0.30762,0.416993 0.42383,1.121094 l -1.20312,0.164063 q -0.082,-0.560547 -0.47852,-0.875 -0.38965,-0.314453 -1.10742,-0.314453 -0.84766,0 -1.20996,0.280273 -0.36231,0.280273 -0.36231,0.65625 0,0.239258 0.15039,0.430664 0.15039,0.198242 0.47168,0.328125 0.18457,0.06836 1.08692,0.314453 1.30566,0.348633 1.81836,0.574219 0.51953,0.21875 0.81347,0.642578 0.29395,0.423828 0.29395,1.052734 0,0.615235 -0.36231,1.16211 -0.35546,0.540039 -1.03222,0.84082 -0.67676,0.293945 -1.53125,0.293945 -1.41504,0 -2.16016,-0.58789 -0.73828,-0.587891 -0.94336,-1.743164 z m 7.49903,-6.439453 v -1.415039 h 1.23046 v 1.415039 z m 0,8.606445 v -7.259766 h 1.23046 v 7.259766 z m 2.87793,0.601562 1.19628,0.177735 q 0.0752,0.553711 0.417,0.80664 0.458,0.341797 1.25097,0.341797 0.8545,0 1.31934,-0.341797 0.46484,-0.341796 0.62891,-0.957031 0.0957,-0.375976 0.0889,-1.579101 -0.80664,0.950195 -2.00976,0.950195 -1.49707,0 -2.31739,-1.080078 -0.82031,-1.080078 -0.82031,-2.590821 0,-1.039062 0.37598,-1.914062 0.37597,-0.881836 1.08691,-1.360352 0.71778,-0.478515 1.68164,-0.478515 1.28516,0 2.11914,1.039062 v -0.875 h 1.13477 v 6.275391 q 0,1.695312 -0.34863,2.399414 -0.3418,0.710937 -1.09375,1.121094 -0.74512,0.41016 -1.83887,0.41016 -1.29883,0 -2.09863,-0.58789 -0.79981,-0.581059 -0.77246,-1.756841 z m 1.01855,-4.361328 q 0,1.428711 0.56738,2.084961 0.56739,0.65625 1.42188,0.65625 0.84765,0 1.42187,-0.649414 0.57422,-0.65625 0.57422,-2.050781 0,-1.333008 -0.59472,-2.009766 -0.5879,-0.676758 -1.42188,-0.676758 -0.82031,0 -1.39453,0.669922 -0.57422,0.663086 -0.57422,1.975586 z m 6.99316,3.759766 v -7.259766 h 1.10743 v 1.032227 q 0.7998,-1.196289 2.31054,-1.196289 0.65625,0 1.20313,0.239258 0.55371,0.232421 0.82715,0.615234 0.27343,0.382812 0.38281,0.90918 0.0684,0.341797 0.0684,1.196289 v 4.463867 h -1.23047 v -4.416016 q 0,-0.751953 -0.14356,-1.121093 -0.14355,-0.375977 -0.51269,-0.594727 -0.36231,-0.225586 -0.85449,-0.225586 -0.78614,0 -1.36035,0.499023 -0.56739,0.499024 -0.56739,1.893555 v 3.964844 z m 12.75586,-2.337891 1.27149,0.157227 q -0.30078,1.114258 -1.11426,1.729492 -0.81348,0.615234 -2.07812,0.615234 -1.59278,0 -2.5293,-0.977539 -0.92969,-0.984375 -0.92969,-2.754882 0,-1.832032 0.94336,-2.84375 0.94336,-1.011719 2.44727,-1.011719 1.45605,0 2.3789,0.991211 0.92285,0.991211 0.92285,2.789062 0,0.109375 -0.007,0.328125 h -5.41406 q 0.0684,1.196289 0.67675,1.832031 0.6084,0.635743 1.51758,0.635743 0.67676,0 1.15527,-0.355469 0.47852,-0.355469 0.75879,-1.134766 z m -4.04004,-1.989258 h 4.05372 q -0.082,-0.916015 -0.46485,-1.374023 -0.58789,-0.710937 -1.52441,-0.710937 -0.84766,0 -1.42871,0.567382 -0.57422,0.567383 -0.63575,1.517578 z m 11.56641,4.327149 v -0.916016 q -0.69043,1.080078 -2.03027,1.080078 -0.86817,0 -1.59961,-0.478515 -0.72461,-0.478516 -1.12793,-1.333008 -0.39649,-0.861328 -0.39649,-1.975586 0,-1.086914 0.36231,-1.96875 0.3623,-0.888672 1.08691,-1.360352 0.72461,-0.471679 1.62012,-0.471679 0.65625,0 1.16895,0.280273 0.51269,0.273438 0.83398,0.717774 v -3.595703 h 1.22363 v 10.021484 z m -3.88965,-3.623047 q 0,1.394531 0.58789,2.084961 0.58789,0.69043 1.3877,0.69043 0.80664,0 1.36719,-0.65625 0.56738,-0.663086 0.56738,-2.016602 0,-1.490234 -0.57422,-2.1875 -0.57422,-0.697266 -1.41504,-0.697266 -0.82031,0 -1.37402,0.669922 -0.54688,0.669922 -0.54688,2.112305 z"
       id="flowRoot3348"
       transform="translate(-24.999847,663.47109)"
       aria-label="unassigned" />
    <g
       transform="translate(100.00015,59.999966)"
       id="g3356"
       style="display:inline">
      <rect
         style="fill:#8ae234;stroke:#000000;stroke-width:1;stroke-linecap:round;stroke-linejoin:round;stroke-miterlimit:4;stroke-dasharray:none"
         id="rect3358"
         width="119.00001"
         height="29"
         x="50.499851"
         y="602.86218"
         rx="4.999999"
         ry="5" />
      <path
         style="font-size:14.4849px;line-height:1.25;font-family:'Liberation Sans';-inkscape-font-specification:'Liberation Sans, Normal';text-align:center;text-anchor:middle"
         d="m 278.51848,85.857885 v -2.48252 h -4.49824 v -1.166996 l 4.73164,-6.71907 h 1.03969 v 6.71907 h 1.4004 v 1.166996 h -1.4004 v 2.48252 z m 0,-3.649516 v -4.675058 l -3.24637,4.675058 z"
         id="flowRoot3360"
         transform="matrix(1.6568991,0,0,1.6568991,-350.39408,481.72151)"
         aria-label="4&#10; " />
    </g>
    <g
       id="g3370"
       transform="translate(100.00015,99.999986)"
       style="display:inline">
      <rect
         ry="5"
         rx="4.999999"
         y="602.86218"
         x="80.5"
         height="29"
         width="89"
         id="rect3372"
         style="fill:#ad7fa8;stroke:#000000;stroke-width:0.99999994;stroke-linecap:round;stroke-linejoin:round;stroke-miterlimit:4;stroke-dasharray:none" />
      <path
         style="font-size:14.4849px;line-height:1.25;font-family:'Liberation Sans';-inkscape-font-specification:'Liberation Sans, Normal';text-align:center;text-anchor:middle"
         d="m 283.49832,83.120748 1.27308,-0.169745 q 0.21926,1.082124 0.74264,1.563068 0.53045,0.473871 1.28723,0.473871 0.89823,0 1.51356,-0.622398 0.6224,-0.622398 0.6224,-1.54185 0,-0.877015 -0.57289,-1.442831 -0.57289,-0.57289 -1.45698,-0.57289 -0.36071,0 -0.89823,0.141455 l 0.14145,-1.117488 q 0.12731,0.01415 0.20511,0.01415 0.81336,0 1.46405,-0.424363 0.65069,-0.424362 0.65069,-1.30845 0,-0.700198 -0.47387,-1.159924 -0.47387,-0.459726 -1.22358,-0.459726 -0.74264,0 -1.23773,0.466799 -0.49508,0.466798 -0.63654,1.400395 l -1.27309,-0.226326 q 0.2334,-1.28016 1.06091,-1.980358 0.82751,-0.70727 2.05816,-0.70727 0.84872,0 1.56307,0.36778 0.71434,0.360708 1.08919,0.990179 0.38193,0.629471 0.38193,1.336742 0,0.671907 -0.36071,1.223578 -0.36071,0.551671 -1.06798,0.877015 0.91945,0.212181 1.42869,0.884088 0.50923,0.664834 0.50923,1.669159 0,1.357959 -0.99018,2.305702 -0.99017,0.940669 -2.50373,0.940669 -1.36504,0 -2.27034,-0.813361 -0.89824,-0.813361 -1.02554,-2.107666 z"
         id="flowRoot3374"
         transform="matrix(1.6568991,0,0,1.6568991,-350.39408,481.72151)"
         aria-label="3&#10; " />
    </g>
    <path
       style="font-size:14px;line-height:1.25;font-family:'Liberation Sans';-inkscape-font-specification:'Liberation Sans, Normal';text-align:center;text-anchor:middle;fill:#a40000"
       d="m 273.15479,85.31857 v 1.182617 h -6.62403 q -0.0137,-0.444336 0.14356,-0.854492 0.25293,-0.676758 0.80664,-1.333008 0.56054,-0.65625 1.61328,-1.517578 1.63379,-1.339844 2.20801,-2.119141 0.57421,-0.786133 0.57421,-1.483398 0,-0.731446 -0.52636,-1.230469 -0.51953,-0.505859 -1.36035,-0.505859 -0.88868,0 -1.42188,0.533203 -0.5332,0.533203 -0.54004,1.476562 l -1.26465,-0.129883 q 0.12989,-1.415039 0.97754,-2.15332 0.84766,-0.745117 2.27637,-0.745117 1.44238,0 2.2832,0.799805 0.84082,0.799804 0.84082,1.982421 0,0.601563 -0.24609,1.182618 -0.24609,0.581054 -0.82031,1.223632 -0.56739,0.642579 -1.89356,1.763672 -1.10742,0.929688 -1.42187,1.264649 -0.31446,0.328125 -0.51953,0.663086 z"
       id="flowRoot3384"
       transform="translate(-180.18799,563.47096)"
       aria-label="2" />
    <g
       style="display:inline"
       transform="translate(10,99.999986)"
       id="g3392">
      <rect
         style="fill:#e9b96e;stroke:#000000;stroke-width:0.99999994;stroke-linecap:round;stroke-linejoin:round;stroke-miterlimit:4;stroke-dasharray:none"
         id="rect3394"
         width="89"
         height="29"
         x="80.5"
         y="602.86218"
         rx="4.999999"
         ry="5" />
      <path
         style="font-size:14.4849px;line-height:1.25;font-family:'Liberation Sans';-inkscape-font-specification:'Liberation Sans, Normal';text-align:center;text-anchor:middle"
         d="m 283.49832,83.120748 1.27308,-0.169745 q 0.21926,1.082124 0.74264,1.563068 0.53045,0.473871 1.28723,0.473871 0.89823,0 1.51356,-0.622398 0.6224,-0.622398 0.6224,-1.54185 0,-0.877015 -0.57289,-1.442831 -0.57289,-0.57289 -1.45698,-0.57289 -0.36071,0 -0.89823,0.141455 l 0.14145,-1.117488 q 0.12731,0.01415 0.20511,0.01415 0.81336,0 1.46405,-0.424363 0.65069,-0.424362 0.65069,-1.30845 0,-0.700198 -0.47387,-1.159924 -0.47387,-0.459726 -1.22358,-0.459726 -0.74264,0 -1.23773,0.466799 -0.49508,0.466798 -0.63654,1.400395 l -1.27309,-0.226326 q 0.2334,-1.28016 1.06091,-1.980358 0.82751,-0.70727 2.05816,-0.70727 0.84872,0 1.56307,0.36778 0.71434,0.360708 1.08919,0.990179 0.38193,0.629471 0.38193,1.336742 0,0.671907 -0.36071,1.223578 -0.36071,0.551671 -1.06798,0.877015 0.91945,0.212181 1.42869,0.884088 0.50923,0.664834 0.50923,1.669159 0,1.357959 -0.99018,2.305702 -0.99017,0.940669 -2.50373,0.940669 -1.36504,0 -2.27034,-0.813361 -0.89824,-0.813361 -1.02554,-2.107666 z"
         id="flowRoot3396"
         transform="matrix(1.6568991,0,0,1.6568991,-350.39408,481.72151)"
         aria-label="3&#10; " />
    </g>
  </g>
</svg>
