<?xml version="1.0" encoding="UTF-8" standalone="no"?>
<!-- Created with Inkscape (http://www.inkscape.org/) -->

<svg
   width="800"
   height="600"
   id="svg2"
   version="1.1"
   xmlns="http://www.w3.org/2000/svg"
   xmlns:svg="http://www.w3.org/2000/svg"
   xmlns:rdf="http://www.w3.org/1999/02/22-rdf-syntax-ns#"
   xmlns:cc="http://creativecommons.org/ns#"
   xmlns:dc="http://purl.org/dc/elements/1.1/">
  <defs
     id="defs4">
    <marker
       orient="auto"
       refY="0"
       refX="0"
       id="marker7156"
       style="overflow:visible">
      <path
         id="path7158"
         d="M 0,0 5,-5 -12.5,0 5,5 0,0 Z"
         style="fill:#000000;fill-opacity:1;fill-rule:evenodd;stroke:#000000;stroke-width:1pt;stroke-opacity:1"
         transform="matrix(-0.8,0,0,-0.8,-10,0)" />
    </marker>
    <marker
       orient="auto"
       refY="0"
       refX="0"
       id="marker6489"
       style="overflow:visible">
      <path
         id="path6491"
         d="M 0,0 5,-5 -12.5,0 5,5 0,0 Z"
         style="fill:#000000;fill-opacity:1;fill-rule:evenodd;stroke:#000000;stroke-width:1pt;stroke-opacity:1"
         transform="matrix(-0.8,0,0,-0.8,-10,0)" />
    </marker>
  </defs>
  <metadata
     id="metadata7">
    <rdf:RDF>
      <cc:Work
         rdf:about="">
        <dc:format>image/svg+xml</dc:format>
        <dc:type
           rdf:resource="http://purl.org/dc/dcmitype/StillImage" />
        <dc:language>en</dc:language>
        <cc:license
           rdf:resource="https://timefold.ai/license" />
      </cc:Work>
    </rdf:RDF>
  </metadata>
  <g
     id="layer1"
     transform="translate(0,-452.36218)"
     style="display:inline">
    <path
       style="font-size:35px;line-height:1.25;font-family:'Liberation Sans';-inkscape-font-specification:'Liberation Sans, Normal';text-align:center;text-anchor:middle"
       d="m 176.65771,251.5264 v -25.05371 h 11.1084 q 3.34961,0 5.09278,0.6836 1.74316,0.6665 2.78564,2.37549 1.04248,1.70898 1.04248,3.77685 0,2.66602 -1.72607,4.49463 -1.72608,1.82861 -5.33203,2.32422 1.31591,0.63232 1.99951,1.24756 1.45263,1.33301 2.75146,3.33252 l 4.35791,6.81884 h -4.16992 l -3.31543,-5.2124 q -1.45264,-2.25586 -2.39258,-3.45215 -0.93994,-1.19629 -1.69189,-1.6748 -0.73486,-0.47852 -1.50391,-0.6665 -0.56396,-0.11963 -1.8457,-0.11963 h -3.84522 v 11.12548 z m 3.31543,-13.99658 h 7.12647 q 2.27295,0 3.55469,-0.46142 1.28174,-0.47852 1.94824,-1.50391 0.6665,-1.04248 0.6665,-2.25586 0,-1.77734 -1.29883,-2.92236 -1.28173,-1.14502 -4.06738,-1.14502 h -7.92969 z m 33.94043,8.15186 3.17872,0.39306 q -0.75196,2.78565 -2.78565,4.32374 -2.03369,1.53808 -5.19531,1.53808 -3.98194,0 -6.32324,-2.44385 -2.32422,-2.46093 -2.32422,-6.8872 0,-4.58008 2.3584,-7.10938 2.35839,-2.5293 6.11816,-2.5293 3.64014,0 5.94727,2.47803 2.30712,2.47803 2.30712,6.97266 0,0.27344 -0.0171,0.82031 h -13.53515 q 0.1709,2.99072 1.69189,4.58008 1.521,1.58935 3.79395,1.58935 1.69189,0 2.88818,-0.88867 1.19629,-0.88867 1.89697,-2.83691 z m -10.10009,-4.97315 h 10.13427 q -0.20507,-2.29004 -1.16211,-3.43505 -1.46972,-1.77735 -3.81103,-1.77735 -2.11914,0 -3.57178,1.41846 -1.43554,1.41846 -1.58935,3.79394 z m 28.98437,8.57911 q -1.70898,1.45263 -3.29834,2.05078 -1.57226,0.59814 -3.38379,0.59814 -2.99072,0 -4.59717,-1.45264 -1.60644,-1.46972 -1.60644,-3.74267 0,-1.33301 0.59814,-2.42676 0.61524,-1.11084 1.58936,-1.77734 0.99121,-0.66651 2.22168,-1.0083 0.90576,-0.23926 2.73437,-0.46143 3.72559,-0.44434 5.48584,-1.05957 0.0171,-0.63232 0.0171,-0.80322 0,-1.87989 -0.87158,-2.64893 -1.1792,-1.04248 -3.50342,-1.04248 -2.17041,0 -3.21289,0.76904 -1.02539,0.75196 -1.52099,2.68311 l -3.00782,-0.41016 q 0.41016,-1.93115 1.3501,-3.11035 0.93994,-1.19629 2.71729,-1.82861 1.77734,-0.64942 4.11865,-0.64942 2.32422,0 3.77686,0.54688 1.45263,0.54687 2.13623,1.38428 0.68359,0.82031 0.95703,2.08496 0.15381,0.78613 0.15381,2.83691 v 4.10156 q 0,4.28956 0.18798,5.43457 0.20508,1.12793 0.78614,2.17041 h -3.21289 q -0.47852,-0.95703 -0.61524,-2.23876 z m -0.25635,-6.87012 q -1.6748,0.68359 -5.02441,1.16211 -1.89697,0.27343 -2.68311,0.61523 -0.78613,0.3418 -1.21337,1.0083 -0.42725,0.64942 -0.42725,1.45264 0,1.23047 0.92285,2.05078 0.93994,0.82031 2.73438,0.82031 1.77734,0 3.16162,-0.76904 1.38427,-0.78613 2.03369,-2.13623 0.4956,-1.04248 0.4956,-3.07617 z m 7.81006,9.10888 v -25.05371 h 3.07617 v 25.05371 z m 6.64795,-7.51953 v -3.09326 h 9.45069 v 3.09326 z m 19.56787,4.76807 0.44434,2.71729 q -1.29883,0.27343 -2.32422,0.27343 -1.6748,0 -2.59766,-0.52978 -0.92285,-0.52979 -1.29882,-1.38428 -0.37598,-0.87158 -0.37598,-3.64014 v -10.44189 h -2.25586 v -2.39258 h 2.25586 v -4.49463 l 3.05908,-1.8457 v 6.34033 h 3.09326 v 2.39258 h -3.09326 v 10.61279 q 0,1.31592 0.15381,1.6919 0.1709,0.37597 0.52978,0.59814 0.37598,0.22217 1.05958,0.22217 0.51269,0 1.35009,-0.11963 z m 3.02491,-18.76465 v -3.5376 h 3.07617 v 3.5376 z m 0,21.51611 v -18.14941 h 3.07617 v 18.14941 z m 7.75878,0 v -18.14941 h 2.75147 v 2.54639 q 0.85449,-1.33301 2.27295,-2.13623 1.41846,-0.82032 3.22998,-0.82032 2.0166,0 3.29834,0.83741 1.29883,0.8374 1.82861,2.34131 2.15332,-3.17872 5.60547,-3.17872 2.7002,0 4.15283,1.50391 1.45264,1.48682 1.45264,4.59717 v 12.45849 h -3.05908 v -11.4331 q 0,-1.8457 -0.30762,-2.64893 -0.29053,-0.82031 -1.07666,-1.31591 -0.78613,-0.49561 -1.8457,-0.49561 -1.91407,0 -3.17871,1.28174 -1.26465,1.26465 -1.26465,4.06738 v 10.54443 h -3.07617 v -11.79199 q 0,-2.05078 -0.75196,-3.07617 -0.75195,-1.02539 -2.46094,-1.02539 -1.29882,0 -2.40966,0.68359 -1.09375,0.6836 -1.58936,1.99952 -0.4956,1.31591 -0.4956,3.79394 v 9.4165 z m 41.57959,-5.84472 3.17871,0.39306 q -0.75195,2.78565 -2.78564,4.32374 -2.03369,1.53808 -5.19531,1.53808 -3.98194,0 -6.32324,-2.44385 -2.32422,-2.46093 -2.32422,-6.8872 0,-4.58008 2.3584,-7.10938 2.35839,-2.5293 6.11816,-2.5293 3.64014,0 5.94727,2.47803 2.30712,2.47803 2.30712,6.97266 0,0.27344 -0.0171,0.82031 h -13.53515 q 0.1709,2.99072 1.69189,4.58008 1.521,1.58935 3.79395,1.58935 1.69189,0 2.88818,-0.88867 1.19629,-0.88867 1.89697,-2.83691 z m -10.10009,-4.97315 h 10.13427 q -0.20507,-2.29004 -1.16211,-3.43505 -1.46972,-1.77735 -3.81103,-1.77735 -2.11914,0 -3.57178,1.41846 -1.43555,1.41846 -1.58935,3.79394 z m 26.86523,17.77344 v -25.10498 h 2.80274 v 2.3584 q 0.99121,-1.38428 2.23876,-2.06787 1.24756,-0.70069 3.02491,-0.70069 2.32422,0 4.10156,1.19629 1.77734,1.19629 2.6831,3.38379 0.90577,2.17041 0.90577,4.76807 0,2.78564 -1.0083,5.02441 -0.99122,2.22168 -2.90528,3.41797 -1.89697,1.1792 -3.99902,1.1792 -1.53809,0 -2.76856,-0.64941 -1.21337,-0.64942 -1.99951,-1.64063 v 8.83545 z m 2.78565,-15.92773 q 0,3.50341 1.41845,5.17822 1.41846,1.6748 3.43506,1.6748 2.05078,0 3.50342,-1.72607 1.46973,-1.74316 1.46973,-5.3833 0,-3.46924 -1.43555,-5.19531 -1.41846,-1.72608 -3.40088,-1.72608 -1.96533,0 -3.48633,1.84571 -1.5039,1.82861 -1.5039,5.33203 z m 16.61132,8.97216 v -25.05371 h 3.07618 v 25.05371 z m 19.6875,-2.23876 q -1.70898,1.45263 -3.29834,2.05078 -1.57226,0.59814 -3.38379,0.59814 -2.99072,0 -4.59716,-1.45264 -1.60645,-1.46972 -1.60645,-3.74267 0,-1.33301 0.59815,-2.42676 0.61523,-1.11084 1.58935,-1.77734 0.99121,-0.66651 2.22168,-1.0083 0.90576,-0.23926 2.73438,-0.46143 3.72558,-0.44434 5.48584,-1.05957 0.0171,-0.63232 0.0171,-0.80322 0,-1.87989 -0.87159,-2.64893 -1.1792,-1.04248 -3.50341,-1.04248 -2.17041,0 -3.2129,0.76904 -1.02539,0.75196 -1.52099,2.68311 l -3.00781,-0.41016 q 0.41015,-1.93115 1.35009,-3.11035 0.93995,-1.19629 2.71729,-1.82861 1.77734,-0.64942 4.11865,-0.64942 2.32422,0 3.77686,0.54688 1.45263,0.54687 2.13623,1.38428 0.68359,0.82031 0.95703,2.08496 0.15381,0.78613 0.15381,2.83691 v 4.10156 q 0,4.28956 0.18799,5.43457 0.20507,1.12793 0.78613,2.17041 h -3.21289 q -0.47852,-0.95703 -0.61524,-2.23876 z m -0.25634,-6.87012 q -1.67481,0.68359 -5.02442,1.16211 -1.89697,0.27343 -2.6831,0.61523 -0.78614,0.3418 -1.21338,1.0083 -0.42725,0.64942 -0.42725,1.45264 0,1.23047 0.92285,2.05078 0.93994,0.82031 2.73438,0.82031 1.77734,0 3.16162,-0.76904 1.38428,-0.78613 2.03369,-2.13623 0.49561,-1.04248 0.49561,-3.07617 z m 7.87841,9.10888 v -18.14941 h 2.76856 v 2.58057 q 1.99951,-2.99073 5.77637,-2.99073 1.64062,0 3.00781,0.59815 1.38428,0.58105 2.06787,1.53808 0.68359,0.95704 0.95703,2.27295 0.1709,0.8545 0.1709,2.99073 v 11.15966 h -3.07617 v -11.04003 q 0,-1.87989 -0.35889,-2.80274 -0.35889,-0.93994 -1.28174,-1.48682 -0.90576,-0.56396 -2.13623,-0.56396 -1.96533,0 -3.40088,1.24756 -1.41845,1.24756 -1.41845,4.73389 v 9.9121 z m 19.46534,0 v -18.14941 h 2.76855 v 2.58057 q 1.99951,-2.99073 5.77637,-2.99073 1.64062,0 3.00781,0.59815 1.38428,0.58105 2.06787,1.53808 0.68359,0.95704 0.95703,2.27295 0.1709,0.8545 0.1709,2.99073 v 11.15966 h -3.07617 v -11.04003 q 0,-1.87989 -0.35889,-2.80274 -0.35888,-0.93994 -1.28174,-1.48682 -0.90576,-0.56396 -2.13623,-0.56396 -1.96533,0 -3.40088,1.24756 -1.41845,1.24756 -1.41845,4.73389 v 9.9121 z m 19.48242,-21.51611 v -3.5376 h 3.07617 v 3.5376 z m 0,21.51611 v -18.14941 h 3.07617 v 18.14941 z m 7.75879,0 v -18.14941 h 2.76855 v 2.58057 q 1.99951,-2.99073 5.77637,-2.99073 1.64062,0 3.00781,0.59815 1.38428,0.58105 2.06787,1.53808 0.6836,0.95704 0.95703,2.27295 0.1709,0.8545 0.1709,2.99073 v 11.15966 h -3.07617 v -11.04003 q 0,-1.87989 -0.35889,-2.80274 -0.35888,-0.93994 -1.28174,-1.48682 -0.90576,-0.56396 -2.13623,-0.56396 -1.96533,0 -3.40087,1.24756 -1.41846,1.24756 -1.41846,4.73389 v 9.9121 z m 18.90136,1.50391 2.99073,0.44434 q 0.18798,1.38427 1.04248,2.0166 1.14502,0.85449 3.12744,0.85449 2.13623,0 3.29834,-0.85449 1.16211,-0.85449 1.57226,-2.39258 0.23926,-0.93994 0.22217,-3.94775 -2.0166,2.37548 -5.02441,2.37548 -3.74268,0 -5.79346,-2.70019 -2.05078,-2.7002 -2.05078,-6.47705 0,-2.59766 0.93994,-4.78516 0.93994,-2.20459 2.71729,-3.40088 1.79443,-1.19629 4.2041,-1.19629 3.21289,0 5.29785,2.59766 v -2.1875 h 2.83691 v 15.68848 q 0,4.23828 -0.87158,5.99853 -0.85449,1.77735 -2.73437,2.80274 -1.8628,1.02539 -4.59717,1.02539 -3.24707,0 -5.24658,-1.46973 -1.99952,-1.45264 -1.93116,-4.39209 z m 2.54639,-10.90332 q 0,3.57178 1.41846,5.2124 1.41845,1.64063 3.55469,1.64063 2.11914,0 3.55468,-1.62354 1.43555,-1.64062 1.43555,-5.12695 0,-3.33252 -1.48682,-5.02441 -1.46972,-1.6919 -3.55468,-1.6919 -2.05079,0 -3.48633,1.67481 -1.43555,1.65771 -1.43555,4.93896 z m 39.05029,2.75147 3.02491,0.39306 q -0.49561,3.12744 -2.54639,4.90479 -2.03369,1.76025 -5.00733,1.76025 -3.72558,0 -5.99853,-2.42676 -2.25586,-2.44384 -2.25586,-6.98974 0,-2.93946 0.97412,-5.14405 0.97412,-2.20459 2.95654,-3.29834 1.99952,-1.11084 4.34082,-1.11084 2.95655,0 4.83643,1.50391 1.87988,1.48682 2.40967,4.23828 l -2.99072,0.46143 q -0.42725,-1.82862 -1.521,-2.75147 -1.07666,-0.92285 -2.61475,-0.92285 -2.32422,0 -3.77685,1.67481 -1.45264,1.65771 -1.45264,5.26367 0,3.65722 1.40137,5.31494 1.40137,1.65771 3.65723,1.65771 1.81152,0 3.0249,-1.11084 1.21338,-1.11084 1.53808,-3.41796 z m 4.51172,-2.42676 q 0,-5.04151 2.80274,-7.46826 2.34131,-2.01661 5.708,-2.01661 3.74268,0 6.11817,2.46094 2.37549,2.44385 2.37549,6.76758 0,3.50342 -1.05957,5.52002 -1.04248,1.99951 -3.05909,3.11035 -1.99951,1.11084 -4.375,1.11084 -3.81103,0 -6.16943,-2.44385 -2.34131,-2.44384 -2.34131,-7.04101 z m 3.16162,0 q 0,3.48633 1.521,5.22949 1.521,1.72607 3.82812,1.72607 2.29004,0 3.81104,-1.74316 1.521,-1.74316 1.521,-5.31494 0,-3.3667 -1.53809,-5.09277 -1.521,-1.74317 -3.79395,-1.74317 -2.30712,0 -3.82812,1.72608 -1.521,1.72607 -1.521,5.2124 z m 17.44873,9.0747 v -18.14941 h 2.76856 v 2.58057 q 1.99951,-2.99073 5.77637,-2.99073 1.64062,0 3.00781,0.59815 1.38428,0.58105 2.06787,1.53808 0.68359,0.95704 0.95703,2.27295 0.1709,0.8545 0.1709,2.99073 v 11.15966 h -3.07617 v -11.04003 q 0,-1.87989 -0.35889,-2.80274 -0.35889,-0.93994 -1.28174,-1.48682 -0.90576,-0.56396 -2.13623,-0.56396 -1.96533,0 -3.40088,1.24756 -1.41845,1.24756 -1.41845,4.73389 v 9.9121 z m 31.3086,-6.64794 3.0249,0.39306 q -0.49561,3.12744 -2.54639,4.90479 -2.03369,1.76025 -5.00732,1.76025 -3.72559,0 -5.99854,-2.42676 -2.25586,-2.44384 -2.25586,-6.98974 0,-2.93946 0.97413,-5.14405 0.97412,-2.20459 2.95654,-3.29834 1.99951,-1.11084 4.34082,-1.11084 2.95654,0 4.83642,1.50391 1.87989,1.48682 2.40967,4.23828 l -2.99072,0.46143 q -0.42725,-1.82862 -1.521,-2.75147 -1.07666,-0.92285 -2.61474,-0.92285 -2.32422,0 -3.77686,1.67481 -1.45263,1.65771 -1.45263,5.26367 0,3.65722 1.40136,5.31494 1.40137,1.65771 3.65723,1.65771 1.81152,0 3.0249,-1.11084 1.21338,-1.11084 1.53809,-3.41796 z m 17.55127,6.64794 v -2.66601 q -2.11914,3.07617 -5.75928,3.07617 -1.60645,0 -3.00781,-0.61523 -1.38428,-0.61524 -2.06787,-1.53809 -0.66651,-0.93994 -0.93995,-2.29004 -0.18798,-0.90576 -0.18798,-2.87109 v -11.24512 h 3.07617 v 10.06592 q 0,2.40967 0.18799,3.24707 0.29052,1.21338 1.23047,1.91406 0.93994,0.6836 2.32421,0.6836 1.38428,0 2.59766,-0.70069 1.21338,-0.71777 1.70898,-1.93115 0.5127,-1.23047 0.5127,-3.55469 v -9.72412 h 3.07617 v 18.14941 z m 7.53662,0 v -18.14941 h 2.76855 v 2.75147 q 1.05957,-1.93116 1.94825,-2.54639 0.90576,-0.61524 1.98242,-0.61524 1.55517,0 3.16162,0.99122 l -1.05957,2.854 q -1.12793,-0.6665 -2.25586,-0.6665 -1.0083,0 -1.81153,0.61523 -0.80322,0.59814 -1.14501,1.6748 -0.5127,1.64063 -0.5127,3.58887 v 9.50195 z m 11.65527,0 v -18.14941 h 2.76856 v 2.75147 q 1.05957,-1.93116 1.94824,-2.54639 0.90576,-0.61524 1.98242,-0.61524 1.55518,0 3.16162,0.99122 l -1.05957,2.854 q -1.12793,-0.6665 -2.25586,-0.6665 -1.0083,0 -1.81152,0.61523 -0.80322,0.59814 -1.14502,1.6748 -0.5127,1.64063 -0.5127,3.58887 v 9.50195 z m 24.11377,-5.84472 3.17871,0.39306 q -0.75195,2.78565 -2.78564,4.32374 -2.03369,1.53808 -5.19531,1.53808 -3.98194,0 -6.32325,-2.44385 -2.32422,-2.46093 -2.32422,-6.8872 0,-4.58008 2.3584,-7.10938 2.3584,-2.5293 6.11817,-2.5293 3.64013,0 5.94726,2.47803 2.30713,2.47803 2.30713,6.97266 0,0.27344 -0.0171,0.82031 h -13.53515 q 0.17089,2.99072 1.69189,4.58008 1.521,1.58935 3.79394,1.58935 1.6919,0 2.88819,-0.88867 1.19629,-0.88867 1.89697,-2.83691 z m -10.1001,-4.97315 h 10.13428 q -0.20508,-2.29004 -1.16211,-3.43505 -1.46973,-1.77735 -3.81103,-1.77735 -2.11914,0 -3.57178,1.41846 -1.43555,1.41846 -1.58936,3.79394 z m 17.14112,10.81787 v -18.14941 h 2.76855 v 2.58057 q 1.99951,-2.99073 5.77637,-2.99073 1.64062,0 3.00781,0.59815 1.38428,0.58105 2.06787,1.53808 0.6836,0.95704 0.95703,2.27295 0.1709,0.8545 0.1709,2.99073 v 11.15966 h -3.07617 v -11.04003 q 0,-1.87989 -0.35889,-2.80274 -0.35888,-0.93994 -1.28173,-1.48682 -0.90577,-0.56396 -2.13624,-0.56396 -1.96533,0 -3.40087,1.24756 -1.41846,1.24756 -1.41846,4.73389 v 9.9121 z m 31.30859,-6.64794 3.0249,0.39306 q -0.4956,3.12744 -2.54638,4.90479 -2.0337,1.76025 -5.00733,1.76025 -3.72558,0 -5.99853,-2.42676 -2.25586,-2.44384 -2.25586,-6.98974 0,-2.93946 0.97412,-5.14405 0.97412,-2.20459 2.95654,-3.29834 1.99951,-1.11084 4.34082,-1.11084 2.95654,0 4.83643,1.50391 1.87988,1.48682 2.40967,4.23828 l -2.99073,0.46143 q -0.42724,-1.82862 -1.52099,-2.75147 -1.07666,-0.92285 -2.61475,-0.92285 -2.32422,0 -3.77685,1.67481 -1.45264,1.65771 -1.45264,5.26367 0,3.65722 1.40137,5.31494 1.40136,1.65771 3.65722,1.65771 1.81153,0 3.0249,-1.11084 1.21338,-1.11084 1.53809,-3.41796 z m 5.52002,13.63769 -0.3418,-2.88818 q 1.0083,0.27343 1.76026,0.27343 1.02539,0 1.64062,-0.34179 0.61524,-0.3418 1.0083,-0.95703 0.29053,-0.46143 0.93994,-2.29004 0.0855,-0.25635 0.27344,-0.75196 l -6.88721,-18.18359 h 3.31543 l 3.77686,10.51025 q 0.73486,1.99952 1.31592,4.20411 0.52978,-2.11914 1.26465,-4.13575 l 3.87939,-10.57861 h 3.07617 l -6.90429,18.45703 q -1.11084,2.99072 -1.72608,4.11865 -0.82031,1.521 -1.87988,2.22168 -1.05957,0.71778 -2.5293,0.71778 -0.88867,0 -1.98242,-0.37598 z"
       id="flowRoot4302"
       transform="translate(-20,262.36198)"
       aria-label="Real-time planning concurrency" />
    <g
       id="g3709"
       transform="translate(0,19.999997)" />
    <flowRoot
       xml:space="preserve"
       id="flowRoot4157"
       style="font-style:normal;font-weight:normal;line-height:0.01%;font-family:sans-serif;letter-spacing:0px;word-spacing:0px;fill:#000000;fill-opacity:1;stroke:none;stroke-width:1px;stroke-linecap:butt;stroke-linejoin:miter;stroke-opacity:1"><flowRegion
         id="flowRegion4159"
         style="font-family:sans-serif"><rect
           id="rect4161"
           width="10.955056"
           height="72.471909"
           x="16.011236"
           y="-53.932568"
           style="font-family:sans-serif" /></flowRegion><flowPara
         id="flowPara4163"
         style="font-size:40px;line-height:1.25;font-family:sans-serif"> </flowPara></flowRoot>
    <path
       style="font-size:15px;line-height:1.25;font-family:'Liberation Sans';-inkscape-font-specification:'Liberation Sans, Normal';text-align:center;text-anchor:middle"
       d="m 215.81909,163.51132 -2.84912,-10.73731 h 1.45752 l 1.6333,7.03858 q 0.26367,1.10595 0.4541,2.19726 0.41016,-1.72119 0.4834,-1.98486 l 2.04346,-7.25098 h 1.71387 l 1.53808,5.43457 q 0.57861,2.02149 0.83496,3.80127 0.20508,-1.01806 0.53467,-2.33642 l 1.68457,-6.89942 h 1.42822 l -2.94433,10.73731 h -1.36963 l -2.26319,-8.18116 q -0.28564,-1.02539 -0.33691,-1.25976 -0.16846,0.73974 -0.31494,1.25976 l -2.27783,8.18116 z m 12.11426,0 v -10.73731 h 1.31836 v 3.85254 q 0.92285,-1.06934 2.3291,-1.06934 0.86426,0 1.50147,0.34424 0.6372,0.33692 0.9082,0.9375 0.27832,0.60059 0.27832,1.74317 v 4.9292 h -1.31836 v -4.9292 q 0,-0.98877 -0.43213,-1.43555 -0.4248,-0.4541 -1.2085,-0.4541 -0.58593,0 -1.10595,0.30762 -0.5127,0.30029 -0.73242,0.82031 -0.21973,0.52002 -0.21973,1.43555 v 4.25537 z m 13.66699,-2.50489 1.36231,0.16846 q -0.32227,1.19385 -1.19385,1.85303 -0.87158,0.65918 -2.22656,0.65918 -1.70655,0 -2.70996,-1.04737 -0.9961,-1.05468 -0.9961,-2.95166 0,-1.96289 1.01074,-3.04687 1.01075,-1.08399 2.62207,-1.08399 1.56006,0 2.54883,1.06202 0.98877,1.06201 0.98877,2.98828 0,0.11719 -0.007,0.35156 h -5.80078 q 0.0732,1.28174 0.72509,1.96289 0.65186,0.68115 1.62598,0.68115 0.7251,0 1.23779,-0.38086 0.5127,-0.38086 0.81299,-1.21582 z m -4.32861,-2.13134 h 4.34326 q -0.0879,-0.98145 -0.49805,-1.47217 -0.62988,-0.76172 -1.6333,-0.76172 -0.9082,0 -1.53076,0.60791 -0.61523,0.60791 -0.68115,1.62598 z m 7.34619,4.63623 V 155.733 h 1.18652 v 1.10595 q 0.85694,-1.28174 2.47559,-1.28174 0.70312,0 1.28906,0.25635 0.59326,0.24903 0.88623,0.65918 0.29297,0.41016 0.41016,0.97412 0.0732,0.36621 0.0732,1.28174 v 4.78272 h -1.31836 v -4.73145 q 0,-0.80566 -0.15381,-1.20117 -0.15381,-0.40283 -0.54931,-0.63721 -0.38819,-0.2417 -0.91553,-0.2417 -0.84229,0 -1.45752,0.53467 -0.60791,0.53467 -0.60791,2.02881 v 4.24805 z m 17.58545,-0.95948 q -0.73242,0.62256 -1.41358,0.87891 -0.67382,0.25635 -1.45019,0.25635 -1.28174,0 -1.97022,-0.62256 -0.68847,-0.62988 -0.68847,-1.604 0,-0.57129 0.25635,-1.04004 0.26367,-0.47608 0.68115,-0.76172 0.4248,-0.28565 0.95215,-0.43213 0.38818,-0.10254 1.17187,-0.19776 1.59668,-0.19043 2.35108,-0.4541 0.007,-0.27099 0.007,-0.34424 0,-0.80566 -0.37354,-1.13525 -0.50537,-0.44678 -1.50146,-0.44678 -0.93018,0 -1.37695,0.32959 -0.43946,0.32227 -0.65186,1.14991 l -1.28906,-0.17579 q 0.17578,-0.82763 0.57861,-1.333 0.40283,-0.5127 1.16455,-0.78369 0.76172,-0.27833 1.76514,-0.27833 0.99609,0 1.61865,0.23438 0.62256,0.23437 0.91553,0.59326 0.29297,0.35156 0.41016,0.89356 0.0659,0.33691 0.0659,1.21582 v 1.75781 q 0,1.83838 0.0806,2.3291 0.0879,0.4834 0.33691,0.93018 h -1.37695 q -0.20508,-0.41016 -0.26367,-0.95948 z m -0.10986,-2.94433 q -0.71778,0.29297 -2.15332,0.49804 -0.81299,0.11719 -1.14991,0.26368 -0.33691,0.14648 -0.52002,0.43213 -0.1831,0.27832 -0.1831,0.62255 0,0.52735 0.39551,0.87891 0.40283,0.35156 1.17187,0.35156 0.76172,0 1.35498,-0.32959 0.59326,-0.33691 0.87158,-0.91552 0.21241,-0.44678 0.21241,-1.31836 z m 3.37646,3.90381 V 155.733 h 1.18652 v 1.10595 q 0.85694,-1.28174 2.47559,-1.28174 0.70313,0 1.28906,0.25635 0.59326,0.24903 0.88623,0.65918 0.29297,0.41016 0.41016,0.97412 0.0732,0.36621 0.0732,1.28174 v 4.78272 h -1.31836 v -4.73145 q 0,-0.80566 -0.15381,-1.20117 -0.15381,-0.40283 -0.54931,-0.63721 -0.38819,-0.2417 -0.91553,-0.2417 -0.84229,0 -1.45752,0.53467 -0.60791,0.53467 -0.60791,2.02881 v 4.24805 z m 13.38867,0 v -0.98145 q -0.73974,1.15723 -2.17529,1.15723 -0.93018,0 -1.71387,-0.5127 -0.77636,-0.51269 -1.20849,-1.42822 -0.42481,-0.92285 -0.42481,-2.1167 0,-1.16455 0.38819,-2.10937 0.38818,-0.95215 1.16455,-1.45752 0.77636,-0.50538 1.73584,-0.50538 0.70312,0 1.25244,0.3003 0.54931,0.29297 0.89355,0.76904 v -3.85254 h 1.31104 v 10.73731 z m -4.16748,-3.88184 q 0,1.49414 0.62988,2.23389 0.62989,0.73974 1.48682,0.73974 0.86426,0 1.46485,-0.70312 0.60791,-0.71045 0.60791,-2.16065 0,-1.59668 -0.61524,-2.34375 -0.61523,-0.74707 -1.51611,-0.74707 -0.87891,0 -1.47217,0.71778 -0.58594,0.71777 -0.58594,2.26318 z m 11.63086,3.88184 v -10.73731 h 1.31836 v 3.85254 q 0.92285,-1.06934 2.3291,-1.06934 0.86426,0 1.50147,0.34424 0.6372,0.33692 0.9082,0.9375 0.27832,0.60059 0.27832,1.74317 v 4.9292 h -1.31836 v -4.9292 q 0,-0.98877 -0.43213,-1.43555 -0.4248,-0.4541 -1.20849,-0.4541 -0.58594,0 -1.10596,0.30762 -0.5127,0.30029 -0.73242,0.82031 -0.21973,0.52002 -0.21973,1.43555 v 4.25537 z m 7.85156,-3.88916 q 0,-2.16065 1.20118,-3.20069 1.00341,-0.86426 2.44628,-0.86426 1.60401,0 2.62208,1.05469 1.01806,1.04737 1.01806,2.90039 0,1.50147 -0.4541,2.36573 -0.44678,0.85693 -1.31104,1.333 -0.85693,0.47608 -1.875,0.47608 -1.6333,0 -2.64404,-1.04737 -1.00342,-1.04736 -1.00342,-3.01757 z m 1.35498,0 q 0,1.49414 0.65186,2.24121 0.65186,0.73974 1.64062,0.73974 0.98145,0 1.63331,-0.74707 0.65185,-0.74707 0.65185,-2.27783 0,-1.44287 -0.65918,-2.18262 -0.65185,-0.74707 -1.62598,-0.74707 -0.98876,0 -1.64062,0.73975 -0.65186,0.73975 -0.65186,2.23389 z m 8.91358,3.88916 -2.38037,-7.77832 h 1.3623 l 1.2378,4.48974 0.46142,1.66992 q 0.0293,-0.12451 0.40283,-1.604 l 1.2378,-4.55566 h 1.35498 l 1.16455,4.51171 0.38818,1.48682 0.44678,-1.50146 1.33301,-4.49707 h 1.28173 l -2.43164,7.77832 h -1.36963 l -1.23779,-4.65821 -0.30029,-1.32568 -1.57471,5.98389 z m 13.57178,-9.2212 v -1.51611 h 1.31836 v 1.51611 z m 0,9.2212 V 155.733 h 1.31836 v 7.77832 z m 2.79785,-2.32178 1.30371,-0.20508 q 0.10986,0.78369 0.60791,1.20117 0.50537,0.41748 1.40625,0.41748 0.9082,0 1.34765,-0.36621 0.43946,-0.37353 0.43946,-0.87158 0,-0.44678 -0.38819,-0.70312 -0.27099,-0.17579 -1.34765,-0.44678 -1.4502,-0.36621 -2.01416,-0.62988 -0.55664,-0.271 -0.84961,-0.73975 -0.28565,-0.47608 -0.28565,-1.04736 0,-0.52002 0.23438,-0.95948 0.2417,-0.44677 0.65185,-0.73974 0.30762,-0.22705 0.83497,-0.38086 0.53466,-0.16114 1.14257,-0.16114 0.91553,0 1.60401,0.26368 0.6958,0.26367 1.02539,0.71777 0.32959,0.44678 0.4541,1.20117 l -1.28906,0.17578 q -0.0879,-0.60058 -0.5127,-0.9375 -0.41748,-0.33691 -1.18652,-0.33691 -0.9082,0 -1.29639,0.30029 -0.38818,0.3003 -0.38818,0.70313 0,0.25634 0.16113,0.46142 0.16113,0.21241 0.50537,0.35157 0.19776,0.0732 1.16455,0.33691 1.39893,0.37353 1.94825,0.61523 0.55664,0.23438 0.87158,0.68848 0.31494,0.4541 0.31494,1.12793 0,0.65918 -0.38819,1.24512 -0.38085,0.57861 -1.10595,0.90088 -0.7251,0.31494 -1.64063,0.31494 -1.51611,0 -2.31445,-0.62989 -0.79102,-0.62988 -1.01074,-1.86767 z m 15.07324,1.14258 0.19043,1.16455 q -0.55664,0.11719 -0.99609,0.11719 -0.71778,0 -1.11329,-0.22706 -0.3955,-0.22705 -0.55664,-0.59326 -0.16113,-0.37353 -0.16113,-1.56006 v -4.47509 h -0.9668 V 155.733 h 0.9668 v -1.92627 l 1.31104,-0.79102 v 2.71729 h 1.32568 v 1.02539 h -1.32568 v 4.54834 q 0,0.56396 0.0659,0.72509 0.0732,0.16114 0.22705,0.25635 0.16114,0.0952 0.45411,0.0952 0.21972,0 0.57861,-0.0513 z m 1.28906,1.1792 v -10.73731 h 1.31836 v 3.85254 q 0.92285,-1.06934 2.3291,-1.06934 0.86426,0 1.50147,0.34424 0.63721,0.33692 0.9082,0.9375 0.27832,0.60059 0.27832,1.74317 v 4.9292 h -1.31836 v -4.9292 q 0,-0.98877 -0.43213,-1.43555 -0.4248,-0.4541 -1.20849,-0.4541 -0.58594,0 -1.10596,0.30762 -0.5127,0.30029 -0.73242,0.82031 -0.21973,0.52002 -0.21973,1.43555 v 4.25537 z m 13.66699,-2.50489 1.36231,0.16846 q -0.32227,1.19385 -1.19385,1.85303 -0.87158,0.65918 -2.22656,0.65918 -1.70654,0 -2.70996,-1.04737 -0.9961,-1.05468 -0.9961,-2.95166 0,-1.96289 1.01075,-3.04687 1.01074,-1.08399 2.62207,-1.08399 1.56006,0 2.54882,1.06202 0.98877,1.06201 0.98877,2.98828 0,0.11719 -0.007,0.35156 h -5.80078 q 0.0732,1.28174 0.7251,1.96289 0.65185,0.68115 1.62597,0.68115 0.7251,0 1.2378,-0.38086 0.51269,-0.38086 0.81298,-1.21582 z m -4.32861,-2.13134 h 4.34326 q -0.0879,-0.98145 -0.49804,-1.47217 -0.62989,-0.76172 -1.6333,-0.76172 -0.90821,0 -1.53077,0.60791 -0.61523,0.60791 -0.68115,1.62598 z m 10.98633,2.31445 1.30371,-0.20508 q 0.10986,0.78369 0.60791,1.20117 0.50537,0.41748 1.40625,0.41748 0.9082,0 1.34766,-0.36621 0.43945,-0.37353 0.43945,-0.87158 0,-0.44678 -0.38818,-0.70312 -0.271,-0.17579 -1.34766,-0.44678 -1.4502,-0.36621 -2.01416,-0.62988 -0.55664,-0.271 -0.84961,-0.73975 -0.28564,-0.47608 -0.28564,-1.04736 0,-0.52002 0.23437,-0.95948 0.2417,-0.44677 0.65186,-0.73974 0.30761,-0.22705 0.83496,-0.38086 0.53467,-0.16114 1.14258,-0.16114 0.91552,0 1.604,0.26368 0.6958,0.26367 1.02539,0.71777 0.32959,0.44678 0.4541,1.20117 l -1.28906,0.17578 q -0.0879,-0.60058 -0.5127,-0.9375 -0.41748,-0.33691 -1.18652,-0.33691 -0.9082,0 -1.29639,0.30029 -0.38818,0.3003 -0.38818,0.70313 0,0.25634 0.16113,0.46142 0.16114,0.21241 0.50537,0.35157 0.19776,0.0732 1.16455,0.33691 1.39893,0.37353 1.94825,0.61523 0.55664,0.23438 0.87158,0.68848 0.31494,0.4541 0.31494,1.12793 0,0.65918 -0.38818,1.24512 -0.38086,0.57861 -1.10596,0.90088 -0.7251,0.31494 -1.64063,0.31494 -1.51611,0 -2.31445,-0.62989 -0.79101,-0.62988 -1.01074,-1.86767 z m 7.53662,-1.56738 q 0,-2.16065 1.20117,-3.20069 1.00342,-0.86426 2.44629,-0.86426 1.60401,0 2.62207,1.05469 1.01807,1.04737 1.01807,2.90039 0,1.50147 -0.4541,2.36573 -0.44678,0.85693 -1.31104,1.333 -0.85693,0.47608 -1.875,0.47608 -1.6333,0 -2.64404,-1.04737 -1.00342,-1.04736 -1.00342,-3.01757 z m 1.35498,0 q 0,1.49414 0.65186,2.24121 0.65185,0.73974 1.64062,0.73974 0.98145,0 1.6333,-0.74707 0.65186,-0.74707 0.65186,-2.27783 0,-1.44287 -0.65918,-2.18262 -0.65186,-0.74707 -1.62598,-0.74707 -0.98877,0 -1.64062,0.73975 -0.65186,0.73975 -0.65186,2.23389 z m 7.44873,3.88916 v -10.73731 h 1.31836 v 10.73731 z m 8.45947,0 v -1.14258 q -0.9082,1.31836 -2.46826,1.31836 -0.68847,0 -1.28906,-0.26367 -0.59326,-0.26368 -0.88623,-0.65918 -0.28565,-0.40284 -0.40283,-0.98145 -0.0806,-0.38818 -0.0806,-1.23047 V 155.733 h 1.31836 v 4.31396 q 0,1.03272 0.0806,1.3916 0.12451,0.52002 0.52734,0.82031 0.40283,0.29297 0.99609,0.29297 0.59327,0 1.11329,-0.30029 0.52001,-0.30762 0.73242,-0.82764 0.21972,-0.52734 0.21972,-1.52343 V 155.733 h 1.31836 v 7.77832 z m 6.12305,-1.1792 0.19043,1.16455 q -0.55664,0.11719 -0.99609,0.11719 -0.71778,0 -1.11328,-0.22706 -0.39551,-0.22705 -0.55665,-0.59326 -0.16113,-0.37353 -0.16113,-1.56006 v -4.47509 h -0.96679 V 155.733 h 0.96679 v -1.92627 l 1.31104,-0.79102 v 2.71729 h 1.32568 v 1.02539 h -1.32568 v 4.54834 q 0,0.56396 0.0659,0.72509 0.0732,0.16114 0.22705,0.25635 0.16113,0.0952 0.4541,0.0952 0.21972,0 0.57861,-0.0513 z m 1.29639,-8.042 v -1.51611 h 1.31836 v 1.51611 z m 0,9.2212 V 155.733 h 1.31836 v 7.77832 z m 2.83447,-3.88916 q 0,-2.16065 1.20117,-3.20069 1.00342,-0.86426 2.44629,-0.86426 1.60401,0 2.62207,1.05469 1.01807,1.04737 1.01807,2.90039 0,1.50147 -0.4541,2.36573 -0.44678,0.85693 -1.31104,1.333 -0.85693,0.47608 -1.875,0.47608 -1.6333,0 -2.64404,-1.04737 -1.00342,-1.04736 -1.00342,-3.01757 z m 1.35498,0 q 0,1.49414 0.65186,2.24121 0.65185,0.73974 1.64062,0.73974 0.98145,0 1.6333,-0.74707 0.65186,-0.74707 0.65186,-2.27783 0,-1.44287 -0.65918,-2.18262 -0.65186,-0.74707 -1.62598,-0.74707 -0.98877,0 -1.64062,0.73975 -0.65186,0.73975 -0.65186,2.23389 z m 7.47803,3.88916 V 155.733 h 1.18652 v 1.10595 q 0.85694,-1.28174 2.47559,-1.28174 0.70312,0 1.28906,0.25635 0.59326,0.24903 0.88623,0.65918 0.29297,0.41016 0.41016,0.97412 0.0732,0.36621 0.0732,1.28174 v 4.78272 h -1.31836 v -4.73145 q 0,-0.80566 -0.15381,-1.20117 -0.15381,-0.40283 -0.54932,-0.63721 -0.38818,-0.2417 -0.91552,-0.2417 -0.84229,0 -1.45752,0.53467 -0.60791,0.53467 -0.60791,2.02881 v 4.24805 z m 17.58545,-2.84912 1.29638,0.16845 q -0.2124,1.34033 -1.0913,2.10205 -0.87159,0.7544 -2.146,0.7544 -1.59668,0 -2.5708,-1.04004 -0.9668,-1.04736 -0.9668,-2.99561 0,-1.25976 0.41748,-2.20459 0.41748,-0.94482 1.26709,-1.41357 0.85694,-0.47608 1.86035,-0.47608 1.26709,0 2.07276,0.64454 0.80566,0.6372 1.03271,1.8164 l -1.28174,0.19776 q -0.1831,-0.7837 -0.65185,-1.1792 -0.46143,-0.39551 -1.12061,-0.39551 -0.99609,0 -1.61865,0.71777 -0.62256,0.71045 -0.62256,2.25586 0,1.56738 0.60059,2.27783 0.60058,0.71045 1.56738,0.71045 0.77637,0 1.29639,-0.47607 0.52002,-0.47608 0.65918,-1.46484 z m 2.39502,2.84912 v -10.73731 h 1.31836 v 10.73731 z m 2.87109,-3.88916 q 0,-2.16065 1.20117,-3.20069 1.00342,-0.86426 2.44629,-0.86426 1.60401,0 2.62207,1.05469 1.01807,1.04737 1.01807,2.90039 0,1.50147 -0.4541,2.36573 -0.44678,0.85693 -1.31104,1.333 -0.85693,0.47608 -1.875,0.47608 -1.6333,0 -2.64404,-1.04737 -1.00342,-1.04736 -1.00342,-3.01757 z m 1.35498,0 q 0,1.49414 0.65186,2.24121 0.65185,0.73974 1.64062,0.73974 0.98145,0 1.6333,-0.74707 0.65186,-0.74707 0.65186,-2.27783 0,-1.44287 -0.65918,-2.18262 -0.65186,-0.74707 -1.62598,-0.74707 -0.98877,0 -1.64062,0.73975 -0.65186,0.73975 -0.65186,2.23389 z m 7.47803,3.88916 V 155.733 h 1.18652 v 1.10595 q 0.85694,-1.28174 2.47559,-1.28174 0.70312,0 1.28906,0.25635 0.59326,0.24903 0.88623,0.65918 0.29297,0.41016 0.41016,0.97412 0.0732,0.36621 0.0732,1.28174 v 4.78272 h -1.31836 v -4.73145 q 0,-0.80566 -0.15381,-1.20117 -0.15381,-0.40283 -0.54932,-0.63721 -0.38818,-0.2417 -0.91552,-0.2417 -0.84229,0 -1.45752,0.53467 -0.60791,0.53467 -0.60791,2.02881 v 4.24805 z m 13.66699,-2.50489 1.36231,0.16846 q -0.32227,1.19385 -1.19385,1.85303 -0.87158,0.65918 -2.22656,0.65918 -1.70655,0 -2.70997,-1.04737 -0.99609,-1.05468 -0.99609,-2.95166 0,-1.96289 1.01074,-3.04687 1.01074,-1.08399 2.62207,-1.08399 1.56006,0 2.54883,1.06202 0.98877,1.06201 0.98877,2.98828 0,0.11719 -0.007,0.35156 h -5.80078 q 0.0732,1.28174 0.72509,1.96289 0.65186,0.68115 1.62598,0.68115 0.7251,0 1.23779,-0.38086 0.5127,-0.38086 0.81299,-1.21582 z m -4.32861,-2.13134 h 4.34326 q -0.0879,-0.98145 -0.49805,-1.47217 -0.62988,-0.76172 -1.6333,-0.76172 -0.9082,0 -1.53076,0.60791 -0.61523,0.60791 -0.68115,1.62598 z m 12.39258,4.63623 v -0.98145 q -0.73975,1.15723 -2.1753,1.15723 -0.93017,0 -1.71386,-0.5127 -0.77637,-0.51269 -1.2085,-1.42822 -0.42481,-0.92285 -0.42481,-2.1167 0,-1.16455 0.38819,-2.10937 0.38818,-0.95215 1.16455,-1.45752 0.77637,-0.50538 1.73584,-0.50538 0.70312,0 1.25244,0.3003 0.54932,0.29297 0.89355,0.76904 v -3.85254 h 1.31104 v 10.73731 z m -4.16749,-3.88184 q 0,1.49414 0.62989,2.23389 0.62988,0.73974 1.48681,0.73974 0.86426,0 1.46485,-0.70312 0.60791,-0.71045 0.60791,-2.16065 0,-1.59668 -0.61524,-2.34375 -0.61523,-0.74707 -1.51611,-0.74707 -0.87891,0 -1.47217,0.71778 -0.58594,0.71777 -0.58594,2.26318 z m 14.50928,2.70264 0.19043,1.16455 q -0.55664,0.11719 -0.99609,0.11719 -0.71778,0 -1.11328,-0.22706 -0.39551,-0.22705 -0.55664,-0.59326 -0.16114,-0.37353 -0.16114,-1.56006 v -4.47509 h -0.96679 V 155.733 h 0.96679 v -1.92627 l 1.31104,-0.79102 v 2.71729 h 1.32568 v 1.02539 h -1.32568 v 4.54834 q 0,0.56396 0.0659,0.72509 0.0732,0.16114 0.22705,0.25635 0.16113,0.0952 0.4541,0.0952 0.21973,0 0.57861,-0.0513 z m 0.79834,-2.70996 q 0,-2.16065 1.20117,-3.20069 1.00342,-0.86426 2.44629,-0.86426 1.60401,0 2.62207,1.05469 1.01807,1.04737 1.01807,2.90039 0,1.50147 -0.4541,2.36573 -0.44678,0.85693 -1.31104,1.333 -0.85693,0.47608 -1.875,0.47608 -1.6333,0 -2.64404,-1.04737 -1.00342,-1.04736 -1.00342,-3.01757 z m 1.35498,0 q 0,1.49414 0.65186,2.24121 0.65185,0.73974 1.64062,0.73974 0.98145,0 1.6333,-0.74707 0.65186,-0.74707 0.65186,-2.27783 0,-1.44287 -0.65918,-2.18262 -0.65186,-0.74707 -1.62598,-0.74707 -0.98877,0 -1.64062,0.73975 -0.65186,0.73975 -0.65186,2.23389 z m 16.72119,2.92968 q -0.73242,0.62256 -1.41357,0.87891 -0.67383,0.25635 -1.4502,0.25635 -1.28173,0 -1.97021,-0.62256 -0.68848,-0.62988 -0.68848,-1.604 0,-0.57129 0.25635,-1.04004 0.26367,-0.47608 0.68115,-0.76172 0.42481,-0.28565 0.95215,-0.43213 0.38819,-0.10254 1.17188,-0.19776 1.59668,-0.19043 2.35107,-0.4541 0.007,-0.27099 0.007,-0.34424 0,-0.80566 -0.37353,-1.13525 -0.50537,-0.44678 -1.50147,-0.44678 -0.93017,0 -1.37695,0.32959 -0.43945,0.32227 -0.65185,1.14991 l -1.28907,-0.17579 q 0.17579,-0.82763 0.57862,-1.333 0.40283,-0.5127 1.16455,-0.78369 0.76172,-0.27833 1.76513,-0.27833 0.9961,0 1.61866,0.23438 0.62256,0.23437 0.91552,0.59326 0.29297,0.35156 0.41016,0.89356 0.0659,0.33691 0.0659,1.21582 v 1.75781 q 0,1.83838 0.0806,2.3291 0.0879,0.4834 0.33692,0.93018 h -1.37695 q -0.20508,-0.41016 -0.26368,-0.95948 z m -0.10986,-2.94433 q -0.71777,0.29297 -2.15332,0.49804 -0.81299,0.11719 -1.1499,0.26368 -0.33692,0.14648 -0.52002,0.43213 -0.18311,0.27832 -0.18311,0.62255 0,0.52735 0.39551,0.87891 0.40283,0.35156 1.17188,0.35156 0.76171,0 1.35498,-0.32959 0.59326,-0.33691 0.87158,-0.91552 0.2124,-0.44678 0.2124,-1.31836 z m 5.53711,3.90381 -2.95898,-7.77832 h 1.3916 l 1.66992,4.6582 q 0.271,0.75439 0.49805,1.56738 0.17578,-0.61523 0.49072,-1.47949 l 1.72851,-4.74609 h 1.35498 l -2.94433,7.77832 z m 4.84863,-3.88916 q 0,-2.16065 1.20117,-3.20069 1.00342,-0.86426 2.44629,-0.86426 1.60401,0 2.62207,1.05469 1.01807,1.04737 1.01807,2.90039 0,1.50147 -0.4541,2.36573 -0.44678,0.85693 -1.31104,1.333 -0.85693,0.47608 -1.875,0.47608 -1.6333,0 -2.64404,-1.04737 -1.00342,-1.04736 -1.00342,-3.01757 z m 1.35498,0 q 0,1.49414 0.65186,2.24121 0.65185,0.73974 1.64062,0.73974 0.98145,0 1.6333,-0.74707 0.65186,-0.74707 0.65186,-2.27783 0,-1.44287 -0.65918,-2.18262 -0.65186,-0.74707 -1.62598,-0.74707 -0.98877,0 -1.64062,0.73975 -0.65186,0.73975 -0.65186,2.23389 z m 7.48535,-5.33204 v -1.51611 h 1.31836 v 1.51611 z m 0,9.2212 V 155.733 h 1.31836 v 7.77832 z m 8.37159,0 v -0.98145 q -0.73975,1.15723 -2.1753,1.15723 -0.93017,0 -1.71386,-0.5127 -0.77637,-0.51269 -1.2085,-1.42822 -0.4248,-0.92285 -0.4248,-2.1167 0,-1.16455 0.38818,-2.10937 0.38818,-0.95215 1.16455,-1.45752 0.77637,-0.50538 1.73584,-0.50538 0.70313,0 1.25244,0.3003 0.54932,0.29297 0.89356,0.76904 v -3.85254 h 1.31103 v 10.73731 z m -4.16748,-3.88184 q 0,1.49414 0.62988,2.23389 0.62988,0.73974 1.48682,0.73974 0.86425,0 1.46484,-0.70312 0.60791,-0.71045 0.60791,-2.16065 0,-1.59668 -0.61523,-2.34375 -0.61524,-0.74707 -1.51612,-0.74707 -0.8789,0 -1.47217,0.71778 -0.58593,0.71777 -0.58593,2.26318 z m 11.61621,3.88184 V 155.733 h 1.18652 v 1.1792 q 0.4541,-0.82764 0.83496,-1.09131 0.38819,-0.26368 0.84961,-0.26368 0.66651,0 1.35498,0.42481 l -0.4541,1.22314 q -0.4834,-0.28564 -0.9668,-0.28564 -0.43213,0 -0.77636,0.26367 -0.34424,0.25635 -0.49073,0.71777 -0.21972,0.70313 -0.21972,1.53809 v 4.07227 z m 10.08545,-0.95948 q -0.73243,0.62256 -1.41358,0.87891 -0.67383,0.25635 -1.45019,0.25635 -1.28174,0 -1.97022,-0.62256 -0.68847,-0.62988 -0.68847,-1.604 0,-0.57129 0.25634,-1.04004 0.26368,-0.47608 0.68116,-0.76172 0.4248,-0.28565 0.95214,-0.43213 0.38819,-0.10254 1.17188,-0.19776 1.59668,-0.19043 2.35107,-0.4541 0.007,-0.27099 0.007,-0.34424 0,-0.80566 -0.37354,-1.13525 -0.50537,-0.44678 -1.50146,-0.44678 -0.93018,0 -1.37696,0.32959 -0.43945,0.32227 -0.65185,1.14991 l -1.28906,-0.17579 q 0.17578,-0.82763 0.57861,-1.333 0.40283,-0.5127 1.16455,-0.78369 0.76172,-0.27833 1.76514,-0.27833 0.99609,0 1.61865,0.23438 0.62256,0.23437 0.91553,0.59326 0.29297,0.35156 0.41015,0.89356 0.0659,0.33691 0.0659,1.21582 v 1.75781 q 0,1.83838 0.0806,2.3291 0.0879,0.4834 0.33691,0.93018 h -1.37695 q -0.20508,-0.41016 -0.26367,-0.95948 z m -0.10987,-2.94433 q -0.71777,0.29297 -2.15332,0.49804 -0.81299,0.11719 -1.1499,0.26368 -0.33691,0.14648 -0.52002,0.43213 -0.1831,0.27832 -0.1831,0.62255 0,0.52735 0.3955,0.87891 0.40284,0.35156 1.17188,0.35156 0.76172,0 1.35498,-0.32959 0.59326,-0.33691 0.87158,-0.91552 0.2124,-0.44678 0.2124,-1.31836 z m 8.45215,1.05469 1.29639,0.16845 q -0.2124,1.34033 -1.09131,2.10205 -0.87158,0.7544 -2.146,0.7544 -1.59668,0 -2.5708,-1.04004 -0.96679,-1.04736 -0.96679,-2.99561 0,-1.25976 0.41748,-2.20459 0.41748,-0.94482 1.26709,-1.41357 0.85693,-0.47608 1.86035,-0.47608 1.26709,0 2.07275,0.64454 0.80567,0.6372 1.03272,1.8164 l -1.28174,0.19776 q -0.18311,-0.7837 -0.65186,-1.1792 -0.46142,-0.39551 -1.1206,-0.39551 -0.9961,0 -1.61865,0.71777 -0.62256,0.71045 -0.62256,2.25586 0,1.56738 0.60058,2.27783 0.60059,0.71045 1.56739,0.71045 0.77636,0 1.29638,-0.47607 0.52002,-0.47608 0.65918,-1.46484 z m 7.74903,0.34423 1.3623,0.16846 q -0.32227,1.19385 -1.19385,1.85303 -0.87158,0.65918 -2.22656,0.65918 -1.70654,0 -2.70996,-1.04737 -0.99609,-1.05468 -0.99609,-2.95166 0,-1.96289 1.01074,-3.04687 1.01074,-1.08399 2.62207,-1.08399 1.56006,0 2.54883,1.06202 0.98877,1.06201 0.98877,2.98828 0,0.11719 -0.007,0.35156 h -5.80078 q 0.0732,1.28174 0.7251,1.96289 0.65185,0.68115 1.62597,0.68115 0.7251,0 1.2378,-0.38086 0.51269,-0.38086 0.81299,-1.21582 z m -4.32862,-2.13134 h 4.34326 q -0.0879,-0.98145 -0.49804,-1.47217 -0.62989,-0.76172 -1.6333,-0.76172 -0.90821,0 -1.53077,0.60791 -0.61523,0.60791 -0.68115,1.62598 z m 16.58936,1.78711 1.29638,0.16845 q -0.2124,1.34033 -1.0913,2.10205 -0.87159,0.7544 -2.146,0.7544 -1.59668,0 -2.5708,-1.04004 -0.9668,-1.04736 -0.9668,-2.99561 0,-1.25976 0.41748,-2.20459 0.41748,-0.94482 1.26709,-1.41357 0.85694,-0.47608 1.86035,-0.47608 1.26709,0 2.07276,0.64454 0.80566,0.6372 1.03271,1.8164 l -1.28174,0.19776 q -0.1831,-0.7837 -0.65185,-1.1792 -0.46143,-0.39551 -1.12061,-0.39551 -0.99609,0 -1.61865,0.71777 -0.62256,0.71045 -0.62256,2.25586 0,1.56738 0.60059,2.27783 0.60058,0.71045 1.56738,0.71045 0.77637,0 1.29639,-0.47607 0.52002,-0.47608 0.65918,-1.46484 z m 1.93359,-1.04004 q 0,-2.16065 1.20117,-3.20069 1.00342,-0.86426 2.44629,-0.86426 1.60401,0 2.62207,1.05469 1.01807,1.04737 1.01807,2.90039 0,1.50147 -0.4541,2.36573 -0.44678,0.85693 -1.31104,1.333 -0.85693,0.47608 -1.875,0.47608 -1.6333,0 -2.64404,-1.04737 -1.00342,-1.04736 -1.00342,-3.01757 z m 1.35498,0 q 0,1.49414 0.65186,2.24121 0.65185,0.73974 1.64062,0.73974 0.98145,0 1.6333,-0.74707 0.65186,-0.74707 0.65186,-2.27783 0,-1.44287 -0.65918,-2.18262 -0.65186,-0.74707 -1.62598,-0.74707 -0.98877,0 -1.64062,0.73975 -0.65186,0.73975 -0.65186,2.23389 z m 7.47803,3.88916 V 155.733 h 1.18652 v 1.10595 q 0.85694,-1.28174 2.47559,-1.28174 0.70312,0 1.28906,0.25635 0.59326,0.24903 0.88623,0.65918 0.29297,0.41016 0.41016,0.97412 0.0732,0.36621 0.0732,1.28174 v 4.78272 h -1.31836 v -4.73145 q 0,-0.80566 -0.15381,-1.20117 -0.15381,-0.40283 -0.54931,-0.63721 -0.38819,-0.2417 -0.91553,-0.2417 -0.84229,0 -1.45752,0.53467 -0.60791,0.53467 -0.60791,2.02881 v 4.24805 z m 13.38867,0 v -0.98145 q -0.73975,1.15723 -2.17529,1.15723 -0.93018,0 -1.71387,-0.5127 -0.77637,-0.51269 -1.2085,-1.42822 -0.4248,-0.92285 -0.4248,-2.1167 0,-1.16455 0.38818,-2.10937 0.38819,-0.95215 1.16455,-1.45752 0.77637,-0.50538 1.73584,-0.50538 0.70313,0 1.25245,0.3003 0.54931,0.29297 0.89355,0.76904 v -3.85254 h 1.31104 v 10.73731 z m -4.16748,-3.88184 q 0,1.49414 0.62988,2.23389 0.62989,0.73974 1.48682,0.73974 0.86426,0 1.46484,-0.70312 0.60791,-0.71045 0.60791,-2.16065 0,-1.59668 -0.61523,-2.34375 -0.61524,-0.74707 -1.51611,-0.74707 -0.87891,0 -1.47217,0.71778 -0.58594,0.71777 -0.58594,2.26318 z m 7.4707,-5.33936 v -1.51611 h 1.31836 v 1.51611 z m 0,9.2212 V 155.733 h 1.31836 v 7.77832 z m 6.20362,-1.1792 0.19043,1.16455 q -0.55664,0.11719 -0.9961,0.11719 -0.71777,0 -1.11328,-0.22706 -0.39551,-0.22705 -0.55664,-0.59326 -0.16113,-0.37353 -0.16113,-1.56006 v -4.47509 h -0.9668 V 155.733 h 0.9668 v -1.92627 l 1.31103,-0.79102 v 2.71729 h 1.32569 v 1.02539 h -1.32569 v 4.54834 q 0,0.56396 0.0659,0.72509 0.0732,0.16114 0.22705,0.25635 0.16113,0.0952 0.4541,0.0952 0.21973,0 0.57862,-0.0513 z m 1.29638,-8.042 v -1.51611 h 1.31836 v 1.51611 z m 0,9.2212 V 155.733 h 1.31836 v 7.77832 z m 2.83448,-3.88916 q 0,-2.16065 1.20117,-3.20069 1.00342,-0.86426 2.44629,-0.86426 1.604,0 2.62207,1.05469 1.01806,1.04737 1.01806,2.90039 0,1.50147 -0.4541,2.36573 -0.44678,0.85693 -1.31103,1.333 -0.85694,0.47608 -1.875,0.47608 -1.6333,0 -2.64405,-1.04737 -1.00341,-1.04736 -1.00341,-3.01757 z m 1.35498,0 q 0,1.49414 0.65185,2.24121 0.65186,0.73974 1.64063,0.73974 0.98144,0 1.6333,-0.74707 0.65185,-0.74707 0.65185,-2.27783 0,-1.44287 -0.65918,-2.18262 -0.65185,-0.74707 -1.62597,-0.74707 -0.98877,0 -1.64063,0.73975 -0.65185,0.73975 -0.65185,2.23389 z m 7.47802,3.88916 V 155.733 h 1.18653 v 1.10595 q 0.85693,-1.28174 2.47558,-1.28174 0.70313,0 1.28907,0.25635 0.59326,0.24903 0.88623,0.65918 0.29297,0.41016 0.41015,0.97412 0.0732,0.36621 0.0732,1.28174 v 4.78272 h -1.31835 v -4.73145 q 0,-0.80566 -0.15381,-1.20117 -0.15381,-0.40283 -0.54932,-0.63721 -0.38818,-0.2417 -0.91553,-0.2417 -0.84228,0 -1.45752,0.53467 -0.60791,0.53467 -0.60791,2.02881 v 4.24805 z m 7.81495,-2.32178 1.30371,-0.20508 q 0.10986,0.78369 0.60791,1.20117 0.50537,0.41748 1.40625,0.41748 0.9082,0 1.34765,-0.36621 0.43946,-0.37353 0.43946,-0.87158 0,-0.44678 -0.38819,-0.70312 -0.27099,-0.17579 -1.34765,-0.44678 -1.4502,-0.36621 -2.01416,-0.62988 -0.55664,-0.271 -0.84961,-0.73975 -0.28565,-0.47608 -0.28565,-1.04736 0,-0.52002 0.23438,-0.95948 0.2417,-0.44677 0.65185,-0.73974 0.30762,-0.22705 0.83496,-0.38086 0.53467,-0.16114 1.14258,-0.16114 0.91553,0 1.60401,0.26368 0.6958,0.26367 1.02539,0.71777 0.32959,0.44678 0.4541,1.20117 l -1.28906,0.17578 q -0.0879,-0.60058 -0.5127,-0.9375 -0.41748,-0.33691 -1.18652,-0.33691 -0.90821,0 -1.29639,0.30029 -0.38818,0.3003 -0.38818,0.70313 0,0.25634 0.16113,0.46142 0.16113,0.21241 0.50537,0.35157 0.19775,0.0732 1.16455,0.33691 1.39893,0.37353 1.94824,0.61523 0.55664,0.23438 0.87158,0.68848 0.31495,0.4541 0.31495,1.12793 0,0.65918 -0.38819,1.24512 -0.38086,0.57861 -1.10595,0.90088 -0.7251,0.31494 -1.64063,0.31494 -1.51611,0 -2.31445,-0.62989 -0.79102,-0.62988 -1.01074,-1.86767 z m 10.4956,-0.32227 q -0.007,-0.26367 -0.007,-0.3955 0,-0.77637 0.21972,-1.34034 0.16114,-0.4248 0.52002,-0.85693 0.26367,-0.31494 0.94483,-0.91553 0.68847,-0.60791 0.89355,-0.96679 0.20508,-0.35889 0.20508,-0.7837 0,-0.76904 -0.60059,-1.34765 -0.60058,-0.58594 -1.47216,-0.58594 -0.84229,0 -1.40625,0.52734 -0.56397,0.52735 -0.73975,1.64795 l -1.35498,-0.16113 q 0.1831,-1.50146 1.08398,-2.2998 0.90821,-0.79834 2.39502,-0.79834 1.57471,0 2.51221,0.85693 0.9375,0.85693 0.9375,2.07275 0,0.70313 -0.32959,1.29639 -0.32959,0.59326 -1.28906,1.44287 -0.64453,0.57129 -0.84229,0.84229 -0.19775,0.27099 -0.29297,0.62256 -0.0952,0.35156 -0.10986,1.14257 z m -0.0806,2.64405 v -1.50147 h 1.50147 v 1.50147 z"
       id="flowRoot4302-6"
       transform="translate(-20.000004,372.36182)"
       aria-label="When and how is the solution cloned to avoid race conditions?" />
    <g
       transform="translate(-130,261.94875)"
       id="g9699" />
    <g
       style="display:inline"
       id="g5654"
       transform="translate(-130,491.94875)" />
    <flowRoot
       xml:space="preserve"
       id="flowRoot5318"
       style="color:#000000;font-style:normal;font-variant:normal;font-weight:normal;font-stretch:normal;line-height:0.01%;font-family:'Liberation Sans';-inkscape-font-specification:'Liberation Sans, Normal';text-align:end;writing-mode:lr-tb;text-anchor:end;display:inline;overflow:visible;visibility:visible;opacity:1;fill:#fce94f;fill-opacity:1;fill-rule:nonzero;stroke:#204a87;stroke-width:1;stroke-linecap:round;stroke-linejoin:round;stroke-miterlimit:4;stroke-dasharray:3, 3;stroke-dashoffset:0;stroke-opacity:1;marker:none;enable-background:accumulate"><flowRegion
         id="flowRegion5320"><rect
           id="rect5322"
           width="230"
           height="137.33646"
           x="-60"
           y="610" /></flowRegion><flowPara
         id="flowPara5324"
         style="font-size:15px;line-height:1.25"> </flowPara></flowRoot>
    <rect
       style="display:inline;opacity:0.5;fill:#fce94f;fill-opacity:1;stroke:none;stroke-width:1;stroke-linecap:round;stroke-linejoin:round;stroke-miterlimit:4;stroke-dasharray:none"
       id="rect4843"
       width="460"
       height="460"
       x="310"
       y="562.36218"
       rx="4.9999986"
       ry="5" />
    <rect
       y="552.86176"
       x="310.5"
       height="29"
       width="459"
       id="rect5281"
       style="display:inline;fill:#fce94f;stroke:#000000;stroke-width:0.99999982;stroke-linecap:round;stroke-linejoin:round;stroke-miterlimit:4;stroke-dasharray:none;stroke-opacity:1" />
    <rect
       ry="5"
       rx="4.9999986"
       y="562.36218"
       x="30"
       height="460"
       width="260"
       id="rect3825"
       style="display:inline;opacity:0.5;fill:#729fcf;fill-opacity:1;stroke:none;stroke-width:1;stroke-linecap:round;stroke-linejoin:round;stroke-miterlimit:4;stroke-dasharray:none" />
    <rect
       style="display:inline;fill:#729fcf;stroke:#000000;stroke-width:0.9999997;stroke-linecap:round;stroke-linejoin:round;stroke-miterlimit:4;stroke-dasharray:none;stroke-opacity:1"
       id="rect4954"
       width="259"
       height="29"
       x="30.499998"
       y="552.86218" />
    <path
       id="path4956"
       d="m 60.500048,582.85809 0,439.00821"
       style="display:inline;fill:none;stroke:#000000;stroke-width:0.99999994;stroke-linecap:round;stroke-linejoin:round;stroke-miterlimit:4;stroke-dasharray:2.99999996, 2.99999996;stroke-dashoffset:0;stroke-opacity:1" />
    <path
       id="path5283"
       d="m 520.50034,582.85809 0,439.00821"
       style="display:inline;fill:none;stroke:#000000;stroke-width:0.99999994;stroke-linecap:round;stroke-linejoin:round;stroke-miterlimit:4;stroke-dasharray:2.99999996, 2.99999996;stroke-dashoffset:0;stroke-opacity:1" />
    <path
       style="font-size:20px;line-height:1.25;font-family:'Liberation Sans';-inkscape-font-specification:'Liberation Sans, Normal';text-align:center;text-anchor:middle"
       d="m 433.48633,392.38618 1.78711,-0.15625 q 0.12695,1.07422 0.58593,1.76758 0.46875,0.68359 1.44532,1.11328 0.97656,0.41992 2.19726,0.41992 1.08399,0 1.91407,-0.32226 0.83007,-0.32227 1.23046,-0.87891 0.41016,-0.5664 0.41016,-1.23047 0,-0.67383 -0.39062,-1.17187 -0.39063,-0.50781 -1.28907,-0.84961 -0.57617,-0.22461 -2.54883,-0.69336 -1.97265,-0.47852 -2.76367,-0.89844 -1.02539,-0.53711 -1.5332,-1.32812 -0.49805,-0.80078 -0.49805,-1.78711 0,-1.08399 0.61524,-2.02149 0.61523,-0.94726 1.79687,-1.43554 1.18164,-0.48829 2.62696,-0.48829 1.59179,0 2.80273,0.51758 1.2207,0.50782 1.875,1.50391 0.6543,0.99609 0.70312,2.25586 l -1.8164,0.13672 q -0.14649,-1.35742 -0.9961,-2.05078 -0.83984,-0.69336 -2.49023,-0.69336 -1.71875,0 -2.50977,0.63476 -0.78125,0.625 -0.78125,1.51367 0,0.77149 0.55665,1.26954 0.54687,0.49804 2.85156,1.02539 2.31445,0.51757 3.17383,0.9082 1.25,0.57617 1.8457,1.46484 0.5957,0.87891 0.5957,2.03125 0,1.14258 -0.65429,2.15821 -0.6543,1.00586 -1.88477,1.57226 -1.2207,0.55664 -2.75391,0.55664 -1.94336,0 -3.26172,-0.5664 -1.30859,-0.56641 -2.06054,-1.69922 -0.74219,-1.14258 -0.78125,-2.57813 z m 20.85937,1.25977 1.81641,0.22461 q -0.42969,1.59179 -1.5918,2.4707 -1.16211,0.87891 -2.96875,0.87891 -2.27539,0 -3.61328,-1.39649 -1.32812,-1.40625 -1.32812,-3.93554 0,-2.61719 1.34765,-4.0625 1.34766,-1.44532 3.4961,-1.44532 2.08007,0 3.39843,1.41602 1.31836,1.41601 1.31836,3.98437 0,0.15625 -0.01,0.46875 h -7.73438 q 0.0977,1.70899 0.9668,2.61719 0.86914,0.9082 2.16797,0.9082 0.96679,0 1.65039,-0.50781 0.68359,-0.50781 1.08398,-1.62109 z m -5.77148,-2.8418 h 5.79101 q -0.11718,-1.30859 -0.66406,-1.96289 -0.83984,-1.01562 -2.17773,-1.01562 -1.21094,0 -2.04102,0.81054 -0.82031,0.81055 -0.9082,2.16797 z m 9.77539,6.18164 V 386.6147 h 1.58203 v 1.57226 q 0.60547,-1.10351 1.11328,-1.45507 0.51758,-0.35157 1.13281,-0.35157 0.88868,0 1.80664,0.56641 l -0.60546,1.63086 q -0.64454,-0.38086 -1.28907,-0.38086 -0.57617,0 -1.03515,0.35156 -0.45899,0.3418 -0.6543,0.95703 -0.29297,0.9375 -0.29297,2.05078 v 5.42969 z m 9.56055,0 -3.94532,-10.37109 h 1.85547 l 2.22656,6.21094 q 0.36133,1.00585 0.66407,2.08984 0.23437,-0.82031 0.65429,-1.97266 l 2.30469,-6.32812 h 1.80664 l -3.92578,10.37109 z m 7.08007,0 v -14.3164 h 1.75782 v 14.3164 z m 11.58204,-3.33984 1.8164,0.22461 q -0.42969,1.59179 -1.5918,2.4707 -1.1621,0.87891 -2.96875,0.87891 -2.27539,0 -3.61328,-1.39649 -1.32812,-1.40625 -1.32812,-3.93554 0,-2.61719 1.34765,-4.0625 1.34766,-1.44532 3.4961,-1.44532 2.08008,0 3.39844,1.41602 1.31836,1.41601 1.31836,3.98437 0,0.15625 -0.01,0.46875 h -7.73438 q 0.0977,1.70899 0.9668,2.61719 0.86914,0.9082 2.16797,0.9082 0.9668,0 1.65039,-0.50781 0.68359,-0.50781 1.08399,-1.62109 z m -5.77149,-2.8418 h 5.79102 q -0.11719,-1.30859 -0.66407,-1.96289 -0.83984,-1.01562 -2.17773,-1.01562 -1.21094,0 -2.04102,0.81054 -0.82031,0.81055 -0.9082,2.16797 z m 13.63281,4.60938 0.25391,1.55273 q -0.74219,0.15625 -1.32813,0.15625 -0.95703,0 -1.48437,-0.30273 -0.52734,-0.30274 -0.74219,-0.79102 -0.21484,-0.49805 -0.21484,-2.08008 v -5.96679 h -1.28906 v -1.36719 h 1.28906 v -2.56836 l 1.74805,-1.05469 v 3.62305 h 1.76757 v 1.36719 h -1.76757 v 6.06445 q 0,0.75195 0.0879,0.9668 0.0976,0.21484 0.30273,0.34179 0.21484,0.12696 0.60547,0.12696 0.29297,0 0.77148,-0.0684 z m 11.11328,0 0.25391,1.55273 q -0.74219,0.15625 -1.32812,0.15625 -0.95704,0 -1.48438,-0.30273 -0.52734,-0.30274 -0.74219,-0.79102 -0.21484,-0.49805 -0.21484,-2.08008 v -5.96679 h -1.28906 v -1.36719 h 1.28906 v -2.56836 l 1.74805,-1.05469 v 3.62305 h 1.76757 v 1.36719 h -1.76757 v 6.06445 q 0,0.75195 0.0879,0.9668 0.0976,0.21484 0.30273,0.34179 0.21485,0.12696 0.60547,0.12696 0.29297,0 0.77148,-0.0684 z m 1.71875,1.57226 v -14.3164 h 1.75782 v 5.13671 q 1.23047,-1.42578 3.10547,-1.42578 1.15234,0 2.00195,0.45899 0.84961,0.44922 1.21094,1.25 0.37109,0.80078 0.37109,2.32422 v 6.57226 h -1.75781 v -6.57226 q 0,-1.31836 -0.57617,-1.91407 -0.56641,-0.60547 -1.61133,-0.60547 -0.78125,0 -1.47461,0.41016 -0.6836,0.40039 -0.97656,1.09375 -0.29297,0.69336 -0.29297,1.91406 v 5.67383 z m 11.10352,0 V 386.6147 h 1.58203 v 1.57226 q 0.60547,-1.10351 1.11328,-1.45507 0.51758,-0.35157 1.13282,-0.35157 0.88867,0 1.80664,0.56641 l -0.60547,1.63086 q -0.64453,-0.38086 -1.28907,-0.38086 -0.57617,0 -1.03515,0.35156 -0.45899,0.3418 -0.6543,0.95703 -0.29297,0.9375 -0.29297,2.05078 v 5.42969 z m 13.7793,-3.33984 1.8164,0.22461 q -0.42968,1.59179 -1.59179,2.4707 -1.16211,0.87891 -2.96875,0.87891 -2.27539,0 -3.61328,-1.39649 -1.32813,-1.40625 -1.32813,-3.93554 0,-2.61719 1.34766,-4.0625 1.34765,-1.44532 3.49609,-1.44532 2.08008,0 3.39844,1.41602 1.31836,1.41601 1.31836,3.98437 0,0.15625 -0.01,0.46875 h -7.73437 q 0.0976,1.70899 0.96679,2.61719 0.86914,0.9082 2.16797,0.9082 0.9668,0 1.65039,-0.50781 0.6836,-0.50781 1.08399,-1.62109 z m -5.77149,-2.8418 h 5.79102 q -0.11719,-1.30859 -0.66406,-1.96289 -0.83985,-1.01562 -2.17774,-1.01562 -1.21094,0 -2.04101,0.81054 -0.82032,0.81055 -0.90821,2.16797 z m 16.5625,4.90234 q -0.97656,0.83008 -1.88476,1.17188 -0.89844,0.3418 -1.9336,0.3418 -1.70898,0 -2.62695,-0.83008 -0.91797,-0.83985 -0.91797,-2.13867 0,-0.76172 0.3418,-1.38672 0.35156,-0.63477 0.9082,-1.01563 0.56641,-0.38086 1.26953,-0.57617 0.51758,-0.13672 1.5625,-0.26367 2.12891,-0.25391 3.13477,-0.60547 0.01,-0.36133 0.01,-0.45898 0,-1.07422 -0.49804,-1.51368 -0.67383,-0.5957 -2.00196,-0.5957 -1.24023,0 -1.83593,0.43945 -0.58594,0.42969 -0.86914,1.53321 l -1.71875,-0.23438 q 0.23437,-1.10351 0.77148,-1.77734 0.53711,-0.6836 1.55273,-1.04492 1.01563,-0.3711 2.35352,-0.3711 1.32813,0 2.1582,0.3125 0.83008,0.3125 1.22071,0.79102 0.39062,0.46875 0.54687,1.1914 0.0879,0.44922 0.0879,1.6211 v 2.34375 q 0,2.45117 0.10742,3.10547 0.11719,0.64453 0.44922,1.24023 h -1.83593 q -0.27344,-0.54687 -0.35157,-1.2793 z m -0.14648,-3.92578 q -0.95703,0.39063 -2.8711,0.66407 -1.08398,0.15625 -1.5332,0.35156 -0.44922,0.19531 -0.69336,0.57617 -0.24414,0.37109 -0.24414,0.83008 0,0.70312 0.52735,1.17187 0.5371,0.46875 1.5625,0.46875 1.01562,0 1.80664,-0.43945 0.79101,-0.44922 1.16211,-1.2207 0.2832,-0.59571 0.2832,-1.75782 z m 11.23047,5.20508 v -1.30859 q -0.98633,1.54297 -2.90039,1.54297 -1.24024,0 -2.28516,-0.6836 -1.03516,-0.68359 -1.61133,-1.90429 -0.5664,-1.23047 -0.5664,-2.82227 0,-1.55273 0.51757,-2.8125 0.51758,-1.26953 1.55274,-1.94336 1.03515,-0.67383 2.31445,-0.67383 0.9375,0 1.66992,0.40039 0.73243,0.39063 1.19141,1.02539 v -5.13671 h 1.74805 v 14.3164 z m -5.55664,-5.17578 q 0,1.99219 0.83984,2.97852 0.83984,0.98632 1.98242,0.98632 1.15235,0 1.95313,-0.9375 0.81054,-0.94726 0.81054,-2.88086 0,-2.1289 -0.82031,-3.125 -0.82031,-0.99609 -2.02148,-0.99609 -1.17188,0 -1.96289,0.95703 -0.78125,0.95703 -0.78125,3.01758 z m 18.86718,9.38477 q -1.45507,-1.83594 -2.46093,-4.29688 -1.00586,-2.46094 -1.00586,-5.09766 0,-2.32421 0.75195,-4.45312 0.87891,-2.4707 2.71484,-4.92188 h 1.25977 q -1.18164,2.03125 -1.5625,2.9004 -0.5957,1.34765 -0.9375,2.8125 -0.41992,1.82617 -0.41992,3.67187 0,4.69727 2.91992,9.38477 z m 3.55469,-4.20899 v -14.3164 h 6.34766 q 1.91406,0 2.91015,0.39062 0.9961,0.38086 1.5918,1.35742 0.5957,0.97656 0.5957,2.15821 0,1.52343 -0.98632,2.56835 -0.98633,1.04493 -3.04688,1.32813 0.75195,0.36133 1.14258,0.71289 0.83008,0.76172 1.57226,1.9043 l 2.49024,3.89648 h -2.38281 l -1.89453,-2.97851 q -0.83008,-1.28907 -1.36719,-1.97266 -0.53711,-0.68359 -0.9668,-0.95703 -0.41992,-0.27344 -0.85937,-0.38086 -0.32227,-0.0684 -1.05469,-0.0684 h -2.19727 v 6.35742 z m 1.89453,-7.99805 h 4.07227 q 1.29883,0 2.03125,-0.26367 0.73242,-0.27343 1.11328,-0.85937 0.38086,-0.59571 0.38086,-1.28906 0,-1.01563 -0.74219,-1.66993 -0.73242,-0.65429 -2.32422,-0.65429 h -4.53125 z m 12.5586,7.99805 v -14.3164 h 10.35156 v 1.68945 h -8.45703 v 4.38476 h 7.91992 v 1.67969 h -7.91992 v 4.87305 h 8.78906 v 1.68945 z m 12.65625,-4.59961 1.78711,-0.15625 q 0.12695,1.07422 0.58593,1.76758 0.46875,0.68359 1.44532,1.11328 0.97656,0.41992 2.19726,0.41992 1.08399,0 1.91406,-0.32226 0.83008,-0.32227 1.23047,-0.87891 0.41016,-0.5664 0.41016,-1.23047 0,-0.67383 -0.39063,-1.17187 -0.39062,-0.50781 -1.28906,-0.84961 -0.57617,-0.22461 -2.54883,-0.69336 -1.97265,-0.47852 -2.76367,-0.89844 -1.02539,-0.53711 -1.5332,-1.32812 -0.49805,-0.80078 -0.49805,-1.78711 0,-1.08399 0.61524,-2.02149 0.61523,-0.94726 1.79687,-1.43554 1.18164,-0.48829 2.62695,-0.48829 1.5918,0 2.80274,0.51758 1.2207,0.50782 1.875,1.50391 0.6543,0.99609 0.70312,2.25586 l -1.8164,0.13672 q -0.14649,-1.35742 -0.9961,-2.05078 -0.83984,-0.69336 -2.49023,-0.69336 -1.71875,0 -2.50977,0.63476 -0.78125,0.625 -0.78125,1.51367 0,0.77149 0.55664,1.26954 0.54688,0.49804 2.85157,1.02539 2.31445,0.51757 3.17382,0.9082 1.25,0.57617 1.84571,1.46484 0.5957,0.87891 0.5957,2.03125 0,1.14258 -0.6543,2.15821 -0.65429,1.00586 -1.88476,1.57226 -1.2207,0.55664 -2.75391,0.55664 -1.94336,0 -3.26172,-0.5664 -1.30859,-0.56641 -2.06054,-1.69922 -0.74219,-1.14258 -0.78125,-2.57813 z m 17.62695,4.59961 v -12.62695 h -4.7168 v -1.68945 h 11.34766 v 1.68945 h -4.73633 v 12.62695 z m 7.03125,0.24414 4.15039,-14.80469 h 1.40625 l -4.14062,14.80469 z m 16.49414,-14.56054 h 1.89453 v 8.27148 q 0,2.1582 -0.48828,3.42773 -0.48828,1.26954 -1.76758,2.07032 -1.26953,0.79101 -3.33984,0.79101 -2.01172,0 -3.29102,-0.69336 -1.27929,-0.69336 -1.82617,-2.00195 -0.54687,-1.31836 -0.54687,-3.59375 v -8.27148 h 1.89453 v 8.26171 q 0,1.86524 0.34179,2.75391 0.35157,0.87891 1.19141,1.35742 0.84961,0.47852 2.07031,0.47852 2.08985,0 2.97852,-0.94727 0.88867,-0.94726 0.88867,-3.64258 z m 5.37109,14.3164 v -14.3164 h 1.89454 v 14.3164 z m 6.16211,4.20899 h -1.25976 q 2.91992,-4.6875 2.91992,-9.38477 0,-1.83594 -0.41992,-3.64258 -0.33203,-1.46484 -0.92774,-2.8125 -0.38086,-0.8789 -1.57226,-2.92969 h 1.25976 q 1.83594,2.45118 2.71485,4.92188 0.75195,2.12891 0.75195,4.45312 0,2.63672 -1.01562,5.09766 -1.00586,2.46094 -2.45118,4.29688 z"
       id="flowRoot4946"
       transform="translate(-383.55469,175.85795)"
       aria-label="Servlet thread (REST/UI)" />
    <path
       style="font-size:20px;line-height:1.25;font-family:'Liberation Sans';-inkscape-font-specification:'Liberation Sans, Normal';text-align:center;text-anchor:middle"
       d="m 484.84668,394.85298 1.78711,-0.15625 q 0.12695,1.07422 0.58594,1.76758 0.46875,0.68359 1.44531,1.11328 0.97656,0.41992 2.19726,0.41992 1.08399,0 1.91407,-0.32227 0.83008,-0.32226 1.23047,-0.8789 0.41015,-0.56641 0.41015,-1.23047 0,-0.67383 -0.39062,-1.17188 -0.39063,-0.50781 -1.28907,-0.8496 -0.57617,-0.22461 -2.54882,-0.69336 -1.97266,-0.47852 -2.76368,-0.89844 -1.02539,-0.53711 -1.5332,-1.32813 -0.49805,-0.80078 -0.49805,-1.78711 0,-1.08398 0.61524,-2.02148 0.61523,-0.94727 1.79687,-1.43555 1.18164,-0.48828 2.62696,-0.48828 1.59179,0 2.80273,0.51758 1.2207,0.50781 1.875,1.50391 0.6543,0.99609 0.70313,2.25586 l -1.81641,0.13671 q -0.14648,-1.35742 -0.99609,-2.05078 -0.83985,-0.69336 -2.49024,-0.69336 -1.71875,0 -2.50976,0.63477 -0.78125,0.625 -0.78125,1.51367 0,0.77149 0.55664,1.26953 0.54687,0.49805 2.85156,1.02539 2.31445,0.51758 3.17383,0.90821 1.25,0.57617 1.8457,1.46484 0.5957,0.87891 0.5957,2.03125 0,1.14258 -0.65429,2.1582 -0.6543,1.00586 -1.88477,1.57227 -1.2207,0.55664 -2.7539,0.55664 -1.94336,0 -3.26172,-0.56641 -1.3086,-0.5664 -2.06055,-1.69922 -0.74219,-1.14257 -0.78125,-2.57812 z m 13.10547,-0.58594 q 0,-2.88086 1.60156,-4.26758 1.33789,-1.15234 3.26172,-1.15234 2.13867,0 3.49609,1.40625 1.35743,1.39648 1.35743,3.86719 0,2.00195 -0.60547,3.15429 -0.59571,1.14258 -1.74805,1.77735 -1.14258,0.63476 -2.5,0.63476 -2.17773,0 -3.52539,-1.39648 -1.33789,-1.39649 -1.33789,-4.02344 z m 1.80664,0 q 0,1.99219 0.86914,2.98828 0.86914,0.98633 2.1875,0.98633 1.30859,0 2.17773,-0.99609 0.86914,-0.9961 0.86914,-3.03711 0,-1.92383 -0.8789,-2.91016 -0.86914,-0.99609 -2.16797,-0.99609 -1.31836,0 -2.1875,0.98633 -0.86914,0.98632 -0.86914,2.97851 z m 9.93164,5.18555 v -14.31641 h 1.75781 v 14.31641 z m 7.36328,0 -3.94531,-10.3711 h 1.85547 l 2.22656,6.21094 q 0.36133,1.00586 0.66406,2.08985 0.23438,-0.82032 0.6543,-1.97266 l 2.30469,-6.32813 h 1.80664 l -3.92578,10.3711 z m 14.21875,-3.33985 1.81641,0.22461 q -0.42969,1.5918 -1.5918,2.47071 -1.16211,0.8789 -2.96875,0.8789 -2.27539,0 -3.61328,-1.39648 -1.32813,-1.40625 -1.32813,-3.93555 0,-2.61719 1.34766,-4.0625 1.34766,-1.44531 3.49609,-1.44531 2.08008,0 3.39844,1.41602 1.31836,1.41601 1.31836,3.98437 0,0.15625 -0.01,0.46875 h -7.73438 q 0.0977,1.70898 0.9668,2.61719 0.86914,0.9082 2.16797,0.9082 0.96679,0 1.65039,-0.50781 0.68359,-0.50781 1.08398,-1.6211 z m -5.77148,-2.84179 h 5.79101 q -0.11719,-1.3086 -0.66406,-1.96289 -0.83984,-1.01563 -2.17773,-1.01563 -1.21094,0 -2.04102,0.81055 -0.82031,0.81055 -0.9082,2.16797 z m 9.77539,6.18164 v -10.3711 h 1.58203 v 1.57227 q 0.60547,-1.10352 1.11328,-1.45508 0.51758,-0.35156 1.13281,-0.35156 0.88867,0 1.80664,0.56641 l -0.60547,1.63086 q -0.64453,-0.38086 -1.28906,-0.38086 -0.57617,0 -1.03515,0.35156 -0.45899,0.3418 -0.6543,0.95703 -0.29297,0.9375 -0.29297,2.05078 v 5.42969 z m 16.07422,-1.57227 0.2539,1.55274 q -0.74219,0.15625 -1.32812,0.15625 -0.95703,0 -1.48438,-0.30274 -0.52734,-0.30273 -0.74219,-0.79101 -0.21484,-0.49805 -0.21484,-2.08008 v -5.9668 h -1.28906 v -1.36719 h 1.28906 v -2.56835 l 1.74805,-1.05469 v 3.62304 h 1.76758 v 1.36719 h -1.76758 v 6.06446 q 0,0.75195 0.0879,0.96679 0.0977,0.21485 0.30273,0.3418 0.21485,0.12695 0.60547,0.12695 0.29297,0 0.77149,-0.0684 z m 1.71875,1.57227 v -14.31641 h 1.75781 v 5.13672 q 1.23047,-1.42578 3.10547,-1.42578 1.15234,0 2.00195,0.45898 0.84961,0.44922 1.21094,1.25 0.37109,0.80079 0.37109,2.32422 v 6.57227 h -1.75781 v -6.57227 q 0,-1.31836 -0.57617,-1.91406 -0.56641,-0.60547 -1.61133,-0.60547 -0.78125,0 -1.47461,0.41016 -0.68359,0.40039 -0.97656,1.09375 -0.29297,0.69336 -0.29297,1.91406 v 5.67383 z m 11.10351,0 v -10.3711 h 1.58203 v 1.57227 q 0.60547,-1.10352 1.11328,-1.45508 0.51758,-0.35156 1.13282,-0.35156 0.88867,0 1.80664,0.56641 l -0.60547,1.63086 q -0.64453,-0.38086 -1.28906,-0.38086 -0.57618,0 -1.03516,0.35156 -0.45898,0.3418 -0.6543,0.95703 -0.29297,0.9375 -0.29297,2.05078 v 5.42969 z m 13.7793,-3.33985 1.8164,0.22461 q -0.42968,1.5918 -1.59179,2.47071 -1.16211,0.8789 -2.96875,0.8789 -2.27539,0 -3.61328,-1.39648 -1.32813,-1.40625 -1.32813,-3.93555 0,-2.61719 1.34766,-4.0625 1.34765,-1.44531 3.49609,-1.44531 2.08008,0 3.39844,1.41602 1.31836,1.41601 1.31836,3.98437 0,0.15625 -0.01,0.46875 h -7.73437 q 0.0977,1.70898 0.96679,2.61719 0.86915,0.9082 2.16797,0.9082 0.9668,0 1.65039,-0.50781 0.6836,-0.50781 1.08399,-1.6211 z m -5.77149,-2.84179 h 5.79102 q -0.11719,-1.3086 -0.66406,-1.96289 -0.83985,-1.01563 -2.17774,-1.01563 -1.21093,0 -2.04101,0.81055 -0.82032,0.81055 -0.90821,2.16797 z m 16.5625,4.90234 q -0.97656,0.83008 -1.88476,1.17188 -0.89844,0.34179 -1.9336,0.34179 -1.70898,0 -2.62695,-0.83007 -0.91797,-0.83985 -0.91797,-2.13868 0,-0.76172 0.3418,-1.38672 0.35156,-0.63476 0.9082,-1.01562 0.56641,-0.38086 1.26953,-0.57617 0.51758,-0.13672 1.5625,-0.26367 2.12891,-0.25391 3.13477,-0.60547 0.01,-0.36133 0.01,-0.45899 0,-1.07422 -0.49805,-1.51367 -0.67383,-0.5957 -2.00195,-0.5957 -1.24024,0 -1.83594,0.43945 -0.58594,0.42969 -0.86914,1.5332 l -1.71875,-0.23437 q 0.23437,-1.10352 0.77148,-1.77734 0.53711,-0.6836 1.55274,-1.04493 1.01562,-0.37109 2.35351,-0.37109 1.32813,0 2.1582,0.3125 0.83008,0.3125 1.22071,0.79102 0.39062,0.46875 0.54687,1.1914 0.0879,0.44922 0.0879,1.6211 v 2.34375 q 0,2.45117 0.10743,3.10546 0.11718,0.64454 0.44921,1.24024 h -1.83593 q -0.27344,-0.54688 -0.35157,-1.2793 z m -0.14648,-3.92578 q -0.95703,0.39063 -2.87109,0.66406 -1.08399,0.15625 -1.53321,0.35157 -0.44922,0.19531 -0.69336,0.57617 -0.24414,0.37109 -0.24414,0.83008 0,0.70312 0.52735,1.17187 0.53711,0.46875 1.5625,0.46875 1.01562,0 1.80664,-0.43945 0.79101,-0.44922 1.16211,-1.22071 0.2832,-0.5957 0.2832,-1.75781 z m 11.23047,5.20508 v -1.3086 q -0.98633,1.54297 -2.90039,1.54297 -1.24024,0 -2.28516,-0.68359 -1.03515,-0.68359 -1.61133,-1.9043 -0.5664,-1.23047 -0.5664,-2.82226 0,-1.55274 0.51758,-2.8125 0.51757,-1.26953 1.55273,-1.94336 1.03516,-0.67383 2.31445,-0.67383 0.9375,0 1.66992,0.40039 0.73243,0.39063 1.19141,1.02539 v -5.13672 h 1.74805 v 14.31641 z m -5.55664,-5.17578 q 0,1.99218 0.83984,2.97851 0.83985,0.98633 1.98242,0.98633 1.15235,0 1.95313,-0.9375 0.81055,-0.94726 0.81055,-2.88086 0,-2.1289 -0.82032,-3.125 -0.82031,-0.99609 -2.02148,-0.99609 -1.17188,0 -1.96289,0.95703 -0.78125,0.95703 -0.78125,3.01758 z"
       id="flowRoot5273"
       transform="translate(-3.230469,173.39115)"
       aria-label="Solver thread" />
    <path
       style="font-size:20px;line-height:1.25;font-family:'Liberation Sans';-inkscape-font-specification:'Liberation Sans, Normal';text-align:center;text-anchor:middle;fill:#ce5c00"
       d="m 507.42187,382.66939 h 1.89454 v 8.27148 q 0,2.1582 -0.48829,3.42773 -0.48828,1.26954 -1.76757,2.07032 -1.26953,0.79101 -3.33985,0.79101 -2.01172,0 -3.29101,-0.69336 -1.2793,-0.69336 -1.82617,-2.00195 -0.54688,-1.31836 -0.54688,-3.59375 v -8.27148 h 1.89453 v 8.26171 q 0,1.86524 0.3418,2.75391 0.35156,0.87891 1.1914,1.35742 0.84961,0.47852 2.07032,0.47852 2.08984,0 2.97851,-0.94727 0.88867,-0.94726 0.88867,-3.64258 z m 5.3711,14.3164 v -14.3164 h 1.89453 v 14.3164 z m 9.86328,-3.0957 1.73828,-0.27344 q 0.14649,1.04492 0.81055,1.60156 0.67383,0.55664 1.875,0.55664 1.21094,0 1.79687,-0.48828 0.58594,-0.49804 0.58594,-1.16211 0,-0.5957 -0.51758,-0.9375 -0.36133,-0.23437 -1.79687,-0.5957 -1.9336,-0.48828 -2.68555,-0.83984 -0.74219,-0.36133 -1.13281,-0.98633 -0.38086,-0.63477 -0.38086,-1.39649 0,-0.69336 0.3125,-1.27929 0.32226,-0.59571 0.86914,-0.98633 0.41016,-0.30274 1.11328,-0.50781 0.71289,-0.21485 1.52344,-0.21485 1.2207,0 2.13867,0.35157 0.92773,0.35156 1.36719,0.95703 0.43945,0.5957 0.60547,1.60156 l -1.71875,0.23437 q -0.11719,-0.80078 -0.6836,-1.25 -0.55664,-0.44921 -1.58203,-0.44921 -1.21094,0 -1.72851,0.40039 -0.51758,0.40039 -0.51758,0.9375 0,0.34179 0.21484,0.61523 0.21484,0.2832 0.67383,0.46875 0.26367,0.0977 1.55273,0.44922 1.86524,0.49805 2.59766,0.82031 0.74219,0.3125 1.16211,0.91797 0.41992,0.60547 0.41992,1.50391 0,0.8789 -0.51758,1.66015 -0.50781,0.77149 -1.47461,1.20117 -0.96679,0.41993 -2.1875,0.41993 -2.02148,0 -3.08593,-0.83985 -1.05469,-0.83984 -1.34766,-2.49023 z m 10.04883,-2.08985 q 0,-2.88085 1.60156,-4.26757 1.33789,-1.15235 3.26172,-1.15235 2.13867,0 3.49609,1.40625 1.35742,1.39649 1.35742,3.86719 0,2.00195 -0.60546,3.1543 -0.59571,1.14258 -1.74805,1.77734 -1.14258,0.63477 -2.5,0.63477 -2.17774,0 -3.52539,-1.39649 -1.33789,-1.39648 -1.33789,-4.02344 z m 1.80664,0 q 0,1.99219 0.86914,2.98829 0.86914,0.98632 2.1875,0.98632 1.30859,0 2.17773,-0.99609 0.86914,-0.99609 0.86914,-3.03711 0,-1.92383 -0.8789,-2.91016 -0.86914,-0.99609 -2.16797,-0.99609 -1.31836,0 -2.1875,0.98633 -0.86914,0.98633 -0.86914,2.97851 z m 9.93164,5.18555 v -14.3164 h 1.75781 v 14.3164 z m 11.2793,0 v -1.52344 q -1.21094,1.75782 -3.29102,1.75782 -0.91797,0 -1.71875,-0.35157 -0.79102,-0.35156 -1.18164,-0.8789 -0.38086,-0.53711 -0.53711,-1.3086 -0.10742,-0.51757 -0.10742,-1.64062 v -6.42578 h 1.75781 v 5.75195 q 0,1.37695 0.10742,1.85547 0.16602,0.69336 0.70313,1.09375 0.53711,0.39062 1.32812,0.39062 0.79102,0 1.48438,-0.40039 0.69336,-0.41015 0.97656,-1.10351 0.29297,-0.70313 0.29297,-2.03125 v -5.55664 h 1.75781 v 10.37109 z m 8.16406,-1.57226 0.2539,1.55273 q -0.74218,0.15625 -1.32812,0.15625 -0.95703,0 -1.48438,-0.30273 -0.52734,-0.30274 -0.74218,-0.79102 -0.21485,-0.49805 -0.21485,-2.08008 v -5.96679 h -1.28906 v -1.36719 h 1.28906 v -2.56836 l 1.74805,-1.05469 v 3.62305 h 1.76758 v 1.36719 h -1.76758 v 6.06445 q 0,0.75195 0.0879,0.9668 0.0977,0.21484 0.30274,0.34179 0.21484,0.12696 0.60546,0.12696 0.29297,0 0.77149,-0.0684 z m 1.72851,-10.72266 v -2.02148 h 1.75782 v 2.02148 z m 0,12.29492 V 386.6147 h 1.75782 v 10.37109 z m 3.7793,-5.18555 q 0,-2.88085 1.60156,-4.26757 1.33789,-1.15235 3.26172,-1.15235 2.13867,0 3.4961,1.40625 1.35742,1.39649 1.35742,3.86719 0,2.00195 -0.60547,3.1543 -0.5957,1.14258 -1.74805,1.77734 -1.14258,0.63477 -2.5,0.63477 -2.17773,0 -3.52539,-1.39649 -1.33789,-1.39648 -1.33789,-4.02344 z m 1.80664,0 q 0,1.99219 0.86914,2.98829 0.86914,0.98632 2.1875,0.98632 1.3086,0 2.17774,-0.99609 0.86914,-0.99609 0.86914,-3.03711 0,-1.92383 -0.87891,-2.91016 -0.86914,-0.99609 -2.16797,-0.99609 -1.31836,0 -2.1875,0.98633 -0.86914,0.98633 -0.86914,2.97851 z m 9.9707,5.18555 V 386.6147 h 1.58204 v 1.47461 q 1.14257,-1.70899 3.30078,-1.70899 0.9375,0 1.71875,0.3418 0.79101,0.33203 1.18164,0.87891 0.39062,0.54687 0.54687,1.29882 0.0977,0.48829 0.0977,1.70899 v 6.37695 h -1.75781 v -6.30859 q 0,-1.07422 -0.20508,-1.60156 -0.20508,-0.53711 -0.73242,-0.84961 -0.51758,-0.32227 -1.22071,-0.32227 -1.12304,0 -1.94336,0.71289 -0.81054,0.71289 -0.81054,2.70508 v 5.66406 z"
       id="flowRoot6455"
       transform="translate(-328.84766,205.85856)"
       aria-label="UI solution" />
    <path
       style="font-size:20px;line-height:1.25;font-family:'Liberation Sans';-inkscape-font-specification:'Liberation Sans, Normal';text-align:center;text-anchor:middle;fill:#ce5c00"
       d="m 490.52246,396.98579 h -1.63086 v -14.3164 h 1.75781 v 5.10742 q 1.11329,-1.39649 2.8418,-1.39649 0.95703,0 1.80664,0.39063 0.85938,0.38086 1.40625,1.08398 0.55664,0.69336 0.86914,1.67969 0.3125,0.98633 0.3125,2.10937 0,2.66602 -1.31836,4.1211 -1.31836,1.45508 -3.16406,1.45508 -1.83594,0 -2.88086,-1.53321 z m -0.0195,-5.26367 q 0,1.86523 0.50781,2.69531 0.83008,1.35742 2.2461,1.35742 1.15234,0 1.99218,-0.99609 0.83985,-1.00586 0.83985,-2.98828 0,-2.03125 -0.81055,-2.99805 -0.80078,-0.96679 -1.94336,-0.96679 -1.15234,0 -1.99219,1.00585 -0.83984,0.9961 -0.83984,2.89063 z m 16.62109,1.92383 1.81641,0.22461 q -0.42969,1.59179 -1.5918,2.4707 -1.16211,0.87891 -2.96875,0.87891 -2.27539,0 -3.61328,-1.39649 -1.32812,-1.40625 -1.32812,-3.93554 0,-2.61719 1.34765,-4.0625 1.34766,-1.44532 3.4961,-1.44532 2.08007,0 3.39843,1.41602 1.31836,1.41601 1.31836,3.98437 0,0.15625 -0.01,0.46875 h -7.73438 q 0.0977,1.70899 0.9668,2.61719 0.86914,0.9082 2.16797,0.9082 0.9668,0 1.65039,-0.50781 0.68359,-0.50781 1.08398,-1.62109 z m -5.77148,-2.8418 h 5.79101 q -0.11718,-1.30859 -0.66406,-1.96289 -0.83984,-1.01562 -2.17773,-1.01562 -1.21094,0 -2.04102,0.81054 -0.82031,0.81055 -0.9082,2.16797 z m 9.0918,3.08594 1.73828,-0.27344 q 0.14648,1.04492 0.81054,1.60156 0.67383,0.55664 1.875,0.55664 1.21094,0 1.79688,-0.48828 0.58594,-0.49804 0.58594,-1.16211 0,-0.5957 -0.51758,-0.9375 -0.36133,-0.23437 -1.79688,-0.5957 -1.93359,-0.48828 -2.68554,-0.83984 -0.74219,-0.36133 -1.13282,-0.98633 -0.38086,-0.63477 -0.38086,-1.39649 0,-0.69336 0.3125,-1.27929 0.32227,-0.59571 0.86915,-0.98633 0.41015,-0.30274 1.11328,-0.50781 0.71289,-0.21485 1.52343,-0.21485 1.22071,0 2.13868,0.35157 0.92773,0.35156 1.36718,0.95703 0.43946,0.5957 0.60547,1.60156 l -1.71875,0.23437 q -0.11719,-0.80078 -0.68359,-1.25 -0.55664,-0.44921 -1.58203,-0.44921 -1.21094,0 -1.72852,0.40039 -0.51758,0.40039 -0.51758,0.9375 0,0.34179 0.21485,0.61523 0.21484,0.2832 0.67383,0.46875 0.26367,0.0977 1.55273,0.44922 1.86523,0.49805 2.59766,0.82031 0.74218,0.3125 1.16211,0.91797 0.41992,0.60547 0.41992,1.50391 0,0.8789 -0.51758,1.66015 -0.50781,0.77149 -1.47461,1.20117 -0.9668,0.41993 -2.1875,0.41993 -2.02148,0 -3.08594,-0.83985 -1.05469,-0.83984 -1.34765,-2.49023 z m 14.54101,1.52344 0.25391,1.55273 q -0.74219,0.15625 -1.32813,0.15625 -0.95703,0 -1.48437,-0.30273 -0.52735,-0.30274 -0.74219,-0.79102 -0.21484,-0.49805 -0.21484,-2.08008 v -5.96679 h -1.28907 v -1.36719 h 1.28907 v -2.56836 l 1.74804,-1.05469 v 3.62305 h 1.76758 v 1.36719 h -1.76758 v 6.06445 q 0,0.75195 0.0879,0.9668 0.0977,0.21484 0.30274,0.34179 0.21484,0.12696 0.60547,0.12696 0.29297,0 0.77148,-0.0684 z m 6.57227,-1.52344 1.73828,-0.27344 q 0.14648,1.04492 0.81055,1.60156 0.67382,0.55664 1.875,0.55664 1.21093,0 1.79687,-0.48828 0.58594,-0.49804 0.58594,-1.16211 0,-0.5957 -0.51758,-0.9375 -0.36133,-0.23437 -1.79688,-0.5957 -1.93359,-0.48828 -2.68554,-0.83984 -0.74219,-0.36133 -1.13281,-0.98633 -0.38086,-0.63477 -0.38086,-1.39649 0,-0.69336 0.3125,-1.27929 0.32226,-0.59571 0.86914,-0.98633 0.41015,-0.30274 1.11328,-0.50781 0.71289,-0.21485 1.52344,-0.21485 1.2207,0 2.13867,0.35157 0.92773,0.35156 1.36718,0.95703 0.43946,0.5957 0.60547,1.60156 l -1.71875,0.23437 q -0.11718,-0.80078 -0.68359,-1.25 -0.55664,-0.44921 -1.58203,-0.44921 -1.21094,0 -1.72852,0.40039 -0.51758,0.40039 -0.51758,0.9375 0,0.34179 0.21485,0.61523 0.21484,0.2832 0.67383,0.46875 0.26367,0.0977 1.55273,0.44922 1.86524,0.49805 2.59766,0.82031 0.74218,0.3125 1.16211,0.91797 0.41992,0.60547 0.41992,1.50391 0,0.8789 -0.51758,1.66015 -0.50781,0.77149 -1.47461,1.20117 -0.9668,0.41993 -2.1875,0.41993 -2.02148,0 -3.08594,-0.83985 -1.05468,-0.83984 -1.34765,-2.49023 z m 10.04883,-2.08985 q 0,-2.88085 1.60156,-4.26757 1.33789,-1.15235 3.26172,-1.15235 2.13867,0 3.49609,1.40625 1.35742,1.39649 1.35742,3.86719 0,2.00195 -0.60547,3.1543 -0.5957,1.14258 -1.74804,1.77734 -1.14258,0.63477 -2.5,0.63477 -2.17774,0 -3.52539,-1.39649 -1.33789,-1.39648 -1.33789,-4.02344 z m 1.80664,0 q 0,1.99219 0.86914,2.98829 0.86914,0.98632 2.1875,0.98632 1.30859,0 2.17773,-0.99609 0.86914,-0.99609 0.86914,-3.03711 0,-1.92383 -0.8789,-2.91016 -0.86915,-0.99609 -2.16797,-0.99609 -1.31836,0 -2.1875,0.98633 -0.86914,0.98633 -0.86914,2.97851 z m 9.93164,5.18555 v -14.3164 h 1.75781 v 14.3164 z m 11.27929,0 v -1.52344 q -1.21093,1.75782 -3.29101,1.75782 -0.91797,0 -1.71875,-0.35157 -0.79102,-0.35156 -1.18164,-0.8789 -0.38086,-0.53711 -0.53711,-1.3086 -0.10742,-0.51757 -0.10742,-1.64062 v -6.42578 h 1.75781 v 5.75195 q 0,1.37695 0.10742,1.85547 0.16602,0.69336 0.70313,1.09375 0.5371,0.39062 1.32812,0.39062 0.79102,0 1.48438,-0.40039 0.69335,-0.41015 0.97656,-1.10351 0.29297,-0.70313 0.29297,-2.03125 v -5.55664 h 1.75781 v 10.37109 z m 8.16407,-1.57226 0.2539,1.55273 q -0.74219,0.15625 -1.32812,0.15625 -0.95703,0 -1.48438,-0.30273 -0.52734,-0.30274 -0.74219,-0.79102 -0.21484,-0.49805 -0.21484,-2.08008 v -5.96679 h -1.28906 v -1.36719 h 1.28906 v -2.56836 l 1.74805,-1.05469 v 3.62305 h 1.76758 v 1.36719 h -1.76758 v 6.06445 q 0,0.75195 0.0879,0.9668 0.0977,0.21484 0.30273,0.34179 0.21485,0.12696 0.60547,0.12696 0.29297,0 0.77149,-0.0684 z m 1.72851,-10.72266 v -2.02148 h 1.75781 v 2.02148 z m 0,12.29492 V 386.6147 h 1.75781 v 10.37109 z m 3.7793,-5.18555 q 0,-2.88085 1.60156,-4.26757 1.33789,-1.15235 3.26172,-1.15235 2.13867,0 3.49609,1.40625 1.35743,1.39649 1.35743,3.86719 0,2.00195 -0.60547,3.1543 -0.59571,1.14258 -1.74805,1.77734 -1.14258,0.63477 -2.5,0.63477 -2.17773,0 -3.52539,-1.39649 -1.33789,-1.39648 -1.33789,-4.02344 z m 1.80664,0 q 0,1.99219 0.86914,2.98829 0.86914,0.98632 2.1875,0.98632 1.30859,0 2.17773,-0.99609 0.86914,-0.99609 0.86914,-3.03711 0,-1.92383 -0.8789,-2.91016 -0.86914,-0.99609 -2.16797,-0.99609 -1.31836,0 -2.1875,0.98633 -0.86914,0.98633 -0.86914,2.97851 z m 9.9707,5.18555 V 386.6147 h 1.58203 v 1.47461 q 1.14258,-1.70899 3.30078,-1.70899 0.9375,0 1.71875,0.3418 0.79102,0.33203 1.18165,0.87891 0.39062,0.54687 0.54687,1.29882 0.0977,0.48829 0.0977,1.70899 v 6.37695 h -1.75782 v -6.30859 q 0,-1.07422 -0.20507,-1.60156 -0.20508,-0.53711 -0.73243,-0.84961 -0.51757,-0.32227 -1.2207,-0.32227 -1.12305,0 -1.94336,0.71289 -0.81055,0.71289 -0.81055,2.70508 v 5.66406 z"
       id="flowRoot6467"
       transform="translate(-158.84766,205.85856)"
       aria-label="best solution" />
  </g>
</svg>
